<?xml version="1.0" standalone="no"?>
<!--

    Copyright (C) 2017 Dremio Corporation

    Licensed under the Apache License, Version 2.0 (the "License");
    you may not use this file except in compliance with the License.
    You may obtain a copy of the License at

        http://www.apache.org/licenses/LICENSE-2.0

    Unless required by applicable law or agreed to in writing, software
    distributed under the License is distributed on an "AS IS" BASIS,
    WITHOUT WARRANTIES OR CONDITIONS OF ANY KIND, either express or implied.
    See the License for the specific language governing permissions and
    limitations under the License.

-->
<!DOCTYPE svg PUBLIC "-//W3C//DTD SVG 20010904//EN"
 "http://www.w3.org/TR/2001/REC-SVG-20010904/DTD/svg10.dtd">
<svg version="1.0" xmlns="http://www.w3.org/2000/svg"
 width="16.000000pt" height="16.000000pt" viewBox="0 0 16.000000 16.000000"
 preserveAspectRatio="xMidYMid meet">
<metadata>
Created by potrace 1.11, written by Peter Selinger 2001-2013
</metadata>
<g transform="translate(0.000000,16.000000) scale(0.002286,-0.002286)"
fill="#000000" stroke="none">
<path d="M6714 6885 c-62 -20 -324 -149 -969 -480 -293 -150 -759 -388 -1085
-553 -168 -85 -314 -160 -325 -167 -19 -11 -28 -6 -91 54 -89 83 -323 241
-358 241 -6 0 -16 4 -22 9 -35 35 -341 128 -479 146 -296 40 -606 19 -930 -62
-108 -27 -302 -87 -350 -109 -16 -7 -70 -29 -120 -50 -114 -46 -263 -121 -385
-192 -95 -55 -302 -192 -350 -230 -14 -11 -54 -44 -90 -72 -206 -163 -429
-390 -584 -593 -65 -86 -196 -280 -196 -290 0 -3 -19 -38 -43 -79 -168 -286
-287 -659 -325 -1018 -14 -136 -6 -534 13 -651 2 -13 6 -44 9 -69 8 -56 15
-98 22 -130 3 -14 8 -36 10 -50 2 -14 7 -36 10 -50 3 -14 7 -32 9 -40 46 -227
184 -570 306 -767 110 -174 184 -259 558 -634 163 -163 322 -332 354 -375 73
-100 164 -285 217 -439 22 -66 43 -126 45 -133 12 -32 250 183 348 313 118
158 166 300 162 480 -2 61 -6 124 -10 140 -21 97 -87 252 -141 330 -21 30 -18
38 39 96 62 64 114 135 146 204 13 28 27 57 31 65 10 20 37 116 46 160 3 19 7
85 8 145 4 238 -78 449 -234 602 l-60 59 147 62 c81 34 148 60 151 58 2 -2 -2
-28 -8 -57 -5 -30 -13 -67 -16 -83 -13 -68 18 -96 101 -89 204 17 469 223 565
439 18 41 29 53 59 63 116 41 440 174 586 241 349 161 614 310 831 471 122 90
165 127 282 241 167 165 288 404 276 545 -4 55 -25 88 -76 122 l-36 23 32 52
c63 100 86 183 79 278 l-4 46 128 93 c70 51 389 282 708 514 824 598 946 686
1020 740 155 111 236 199 263 285 16 52 15 65 -4 105 -31 66 -134 81 -270 40z
m-5133 -4352 c-6 -10 -28 -57 -50 -105 -58 -124 -140 -240 -241 -340 -130
-129 -214 -164 -266 -113 -23 23 -26 32 -22 78 6 75 33 123 112 203 84 84 190
157 341 236 119 62 141 69 126 41z"/>
</g>
</svg>
