<!--

    Copyright (C) 2017-2019 Dremio Corporation

    Licensed under the Apache License, Version 2.0 (the "License");
    you may not use this file except in compliance with the License.
    You may obtain a copy of the License at

        http://www.apache.org/licenses/LICENSE-2.0

    Unless required by applicable law or agreed to in writing, software
    distributed under the License is distributed on an "AS IS" BASIS,
    WITHOUT WARRANTIES OR CONDITIONS OF ANY KIND, either express or implied.
    See the License for the specific language governing permissions and
    limitations under the License.

-->
<svg id="navigation-bar/sql-runner" viewBox="0 0 24 24" fill="none" xmlns="http://www.w3.org/2000/svg">
<path d="M6.0529 15.2806C5.91245 15.14 5.83356 14.9494 5.83356 14.7506C5.83356 14.5519 5.91245 14.3613 6.0529 14.2206L8.32628 11.9472L6.07204 9.69291C5.99835 9.62425 5.93925 9.54145 5.89826 9.44945C5.85727 9.35745 5.83523 9.25814 5.83345 9.15744C5.83167 9.05673 5.8502 8.9567 5.88792 8.86332C5.92564 8.76993 5.98178 8.68509 6.053 8.61388C6.12422 8.54266 6.20905 8.48651 6.30244 8.44879C6.39583 8.41107 6.49586 8.39255 6.59656 8.39432C6.69727 8.3961 6.79658 8.41814 6.88858 8.45913C6.98058 8.50012 7.06338 8.55923 7.13204 8.63291L9.91629 11.4172C10.0567 11.5578 10.1356 11.7484 10.1356 11.9472C10.1356 12.1459 10.0567 12.3365 9.91629 12.4772L7.1129 15.2806C6.97227 15.4211 6.78165 15.5 6.5829 15.5C6.38415 15.5 6.19352 15.4211 6.0529 15.2806Z" fill="currentColor"/>
<path d="M11.4167 14.75C11.4167 14.3358 11.7525 14 12.1667 14H17.6667C18.0809 14 18.4167 14.3358 18.4167 14.75C18.4167 15.1642 18.0809 15.5 17.6667 15.5H12.1667C11.7525 15.5 11.4167 15.1642 11.4167 14.75Z" fill="currentColor"/>
<path fill-rule="evenodd" clip-rule="evenodd" d="M4.25 4C3.00736 4 2 5.00736 2 6.25V17.75C2 18.9926 3.00736 20 4.25 20H19.75C20.9926 20 22 18.9926 22 17.75V6.25C22 5.00736 20.9926 4 19.75 4H4.25ZM3.5 6.25C3.5 5.83579 3.83579 5.5 4.25 5.5H19.75C20.1642 5.5 20.5 5.83579 20.5 6.25V17.75C20.5 18.1642 20.1642 18.5 19.75 18.5H4.25C3.83579 18.5 3.5 18.1642 3.5 17.75V6.25Z" fill="currentColor"/>
</svg>
