<svg id="data-types/TypeInteger" viewBox="0 0 24 24" fill="none" xmlns="http://www.w3.org/2000/svg">
<path d="M10.987 2.88994C11.0241 2.69447 10.9821 2.49226 10.8701 2.3278C10.7582 2.16333 10.5855 2.05007 10.39 2.01294C10.1945 1.97581 9.99233 2.01785 9.82786 2.12981C9.66339 2.24176 9.55013 2.41447 9.513 2.60994L8.494 7.99894L3.75 7.99994C3.55109 7.99994 3.36032 8.07896 3.21967 8.21961C3.07902 8.36026 3 8.55103 3 8.74994C3 8.94885 3.07902 9.13962 3.21967 9.28027C3.36032 9.42092 3.55109 9.49994 3.75 9.49994L8.21 9.49794L7.264 14.4979L2.75 14.4999C2.55109 14.4999 2.36032 14.579 2.21967 14.7196C2.07902 14.8603 2 15.051 2 15.2499C2 15.4489 2.07902 15.6396 2.21967 15.7803C2.36032 15.9209 2.55109 15.9999 2.75 15.9999L6.98 15.9979L6.013 21.1139C5.99429 21.2109 5.99491 21.3106 6.01483 21.4073C6.03476 21.5041 6.07359 21.5959 6.12909 21.6776C6.1846 21.7593 6.25569 21.8292 6.33829 21.8833C6.42089 21.9375 6.51337 21.9748 6.61041 21.9931C6.70746 22.0114 6.80717 22.0103 6.90381 21.99C7.00045 21.9697 7.09213 21.9304 7.17357 21.8746C7.25502 21.8187 7.32463 21.7473 7.37842 21.6645C7.43221 21.5817 7.46911 21.4891 7.487 21.3919L8.507 15.9969L13.981 15.9949L13.013 21.1139C12.9943 21.2109 12.9949 21.3106 13.0148 21.4073C13.0348 21.5041 13.0736 21.5959 13.1291 21.6776C13.1846 21.7593 13.2557 21.8292 13.3383 21.8833C13.4209 21.9375 13.5134 21.9748 13.6104 21.9931C13.7075 22.0114 13.8072 22.0103 13.9038 21.99C14.0005 21.9697 14.0921 21.9304 14.1736 21.8746C14.255 21.8187 14.3246 21.7473 14.3784 21.6645C14.4322 21.5817 14.4691 21.4891 14.487 21.3919L15.508 15.9939L20.25 15.9919C20.4489 15.9919 20.6397 15.9129 20.7803 15.7723C20.921 15.6316 21 15.4409 21 15.2419C21 15.043 20.921 14.8523 20.7803 14.7116C20.6397 14.571 20.4489 14.4919 20.25 14.4919L15.792 14.4939L16.738 9.49394L21.25 9.49194C21.4489 9.49194 21.6397 9.41292 21.7803 9.27227C21.921 9.13162 22 8.94085 22 8.74194C22 8.54303 21.921 8.35226 21.7803 8.21161C21.6397 8.07096 21.4489 7.99194 21.25 7.99194L17.021 7.99394L17.987 2.88994C18.0241 2.69447 17.9821 2.49226 17.8701 2.3278C17.7582 2.16333 17.5855 2.05007 17.39 2.01294C17.1945 1.97581 16.9923 2.01785 16.8279 2.12981C16.6634 2.24176 16.5501 2.41447 16.513 2.60994L15.495 7.99494L10.021 7.99694L10.987 2.88994ZM9.737 9.49794L15.211 9.49494L14.265 14.4949L8.791 14.4969L9.737 9.49694V9.49794Z" fill="currentColor"/>
</svg>
