<svg id="data-types/TypeTable" viewBox="0 0 24 24" fill="none" xmlns="http://www.w3.org/2000/svg">
<path d="M3 6.25C3 5.38805 3.34241 4.5614 3.9519 3.9519C4.5614 3.34241 5.38805 3 6.25 3H17.75C18.612 3 19.4386 3.34241 20.0481 3.9519C20.6576 4.5614 21 5.38805 21 6.25V17.75C21 18.612 20.6576 19.4386 20.0481 20.0481C19.4386 20.6576 18.612 21 17.75 21H6.25C5.38805 21 4.5614 20.6576 3.9519 20.0481C3.34241 19.4386 3 18.612 3 17.75V6.25ZM6.25 4.5C5.78587 4.5 5.34075 4.68437 5.01256 5.01256C4.68437 5.34075 4.5 5.78587 4.5 6.25V8.5H8.5V4.5H6.25ZM4.5 10V14H8.5V10H4.5ZM10 10V14H14V10H10ZM15.5 10V14H19.5V10H15.5ZM14 15.5H10V19.5H14V15.5ZM15.5 19.5H17.75C18.2141 19.5 18.6592 19.3156 18.9874 18.9874C19.3156 18.6592 19.5 18.2141 19.5 17.75V15.5H15.5V19.5ZM15.5 8.5H19.5V6.25C19.5 5.78587 19.3156 5.34075 18.9874 5.01256C18.6592 4.68437 18.2141 4.5 17.75 4.5H15.5V8.5ZM14 4.5H10V8.5H14V4.5ZM4.5 15.5V17.75C4.5 18.716 5.284 19.5 6.25 19.5H8.5V15.5H4.5Z" fill="currentColor"/>
</svg>
