<svg id="sources/AWSGLUE" viewBox="0 0 40 40" fill="none" xmlns="http://www.w3.org/2000/svg">
<path d="M36.6666 3.33337H3.33325V36.6667H36.6666V3.33337Z" fill="url(#paint0_linear_1031_52942)"/>
<path fill-rule="evenodd" clip-rule="evenodd" d="M25.9691 16.2859C24.4366 16.629 22.0749 16.6982 20.4166 16.6982C18.7691 16.6982 16.4291 16.6298 14.8958 16.2934L19.5116 23.124C19.5583 23.1933 19.5833 23.2751 19.5833 23.3586V24.2484C20.1674 24.417 20.7074 24.4195 21.2499 24.2543V23.3586C21.2499 23.2743 21.2749 23.1925 21.3224 23.1232L25.9691 16.2859ZM27.3774 15.6431L27.4024 15.6598L22.0833 23.4863V24.5498C22.0833 24.72 21.9799 24.8736 21.8216 24.9371C21.3674 25.1199 20.9108 25.2109 20.4441 25.2109C19.9808 25.2109 19.5099 25.1207 19.0224 24.9413C18.8591 24.8812 18.7499 24.7242 18.7499 24.5498V23.4863L13.4208 15.5989C13.3691 15.5188 13.3333 15.4336 13.3333 15.3418C13.3333 14.154 17.2433 13.9344 19.5733 13.9086L19.5833 14.7433C16.7974 14.7734 15.0658 15.0847 14.4066 15.3259C15.1924 15.5839 17.3508 15.8635 20.4166 15.8635C23.2916 15.8635 25.3691 15.6173 26.2641 15.3744C25.8474 15.2633 25.0841 15.1114 23.6991 14.942L23.7999 14.1131C27.2349 14.5329 27.4999 14.8869 27.4999 15.3418C27.4999 15.4512 27.4499 15.5505 27.3774 15.6431ZM17.0833 12.507H17.9166V11.6723H17.0833V12.507ZM16.2499 12.9244V11.2549C16.2499 11.0237 16.4366 10.8376 16.6666 10.8376H18.3333C18.5633 10.8376 18.7499 11.0237 18.7499 11.2549V12.9244C18.7499 13.1548 18.5633 13.3418 18.3333 13.3418H16.6666C16.4366 13.3418 16.2499 13.1548 16.2499 12.9244ZM20.4166 10.0028H21.2499V9.16811H20.4166V10.0028ZM19.5833 10.4202V8.75074C19.5833 8.51952 19.7699 8.33337 19.9999 8.33337H21.6666C21.8966 8.33337 22.0833 8.51952 22.0833 8.75074V10.4202C22.0833 10.6506 21.8966 10.8376 21.6666 10.8376H19.9999C19.7699 10.8376 19.5833 10.6506 19.5833 10.4202ZM21.2499 14.1765H22.0833V13.3418H21.2499V14.1765ZM20.8333 12.507H22.4999C22.7299 12.507 22.9166 12.6932 22.9166 12.9244V14.5939C22.9166 14.8243 22.7299 15.0113 22.4999 15.0113H20.8333C20.6033 15.0113 20.4166 14.8243 20.4166 14.5939V12.9244C20.4166 12.6932 20.6033 12.507 20.8333 12.507ZM23.6866 27.7777C23.7541 27.9263 23.7282 28.1016 23.6207 28.2243L20.7299 31.524C20.6508 31.615 20.5358 31.6667 20.4166 31.6667C20.2966 31.6667 20.1824 31.615 20.1033 31.524L17.2124 28.2243C17.1049 28.1016 17.0791 27.9263 17.1466 27.7777C17.2141 27.6274 17.3624 27.5323 17.5258 27.5323H18.7366V26.6975H19.5699V27.9496C19.5699 28.18 19.3841 28.367 19.1533 28.367H18.4458L20.4166 30.6158L22.3874 28.367H21.6666C21.4366 28.367 21.2499 28.18 21.2499 27.9496V26.6975H22.0833V27.5323H23.3074C23.4708 27.5323 23.6191 27.6274 23.6866 27.7777Z" fill="white"/>
<defs>
<linearGradient id="paint0_linear_1031_52942" x1="3.33325" y1="36.6667" x2="36.6666" y2="3.33337" gradientUnits="userSpaceOnUse">
<stop stop-color="#4D27A8"/>
<stop offset="1" stop-color="#A166FF"/>
</linearGradient>
</defs>
</svg>
