<svg id="sources/BIGQUERY" viewBox="0 0 24 24" fill="none" xmlns="http://www.w3.org/2000/svg">
<path d="M6.34226 20.0917L2.24071 12.9083C2.08302 12.6322 2 12.3189 2 12C2 11.6811 2.08302 11.3678 2.24071 11.0917L6.34226 3.90843C6.49998 3.63221 6.72683 3.40285 7.00001 3.24338C7.27319 3.08392 7.58307 2.99998 7.89851 3H16.1016C16.417 3.00001 16.7269 3.08396 17 3.24342C17.2732 3.40289 17.5 3.63224 17.6577 3.90843L21.7592 11.0917C21.917 11.3678 22 11.6812 22 12.0001C22 12.319 21.917 12.6323 21.7592 12.9085L17.6577 20.0917C17.5 20.3679 17.2731 20.5972 17 20.7566C16.7268 20.9161 16.417 21 16.1016 21H7.89851C7.58307 21 7.27318 20.9161 7 20.7566C6.72682 20.5972 6.49997 20.368 6.34226 20.0917Z" fill="url(#paint0_linear_10041_30028)"/>
<path opacity="0.07" d="M20.4984 15.1166L17.6577 20.0917C17.5 20.3679 17.2731 20.5972 17 20.7566C16.7553 20.8995 16.4812 20.9817 16.2 20.9973L9.73284 14.7213L9 12.1556L9.91143 9.85121L12.2715 9L14.8989 9.68234L20.4984 15.1166Z" fill="black"/>
<path d="M12.0001 8.32104C9.9985 8.32104 8.37585 9.9437 8.37585 11.9454C8.37585 13.947 9.9985 15.5696 12.0001 15.5696C14.0016 15.5696 15.6241 13.947 15.6241 11.9454C15.6241 9.9437 14.0015 8.32104 12.0001 8.32104ZM12.0001 14.6952C10.4813 14.6952 9.25007 13.464 9.25007 11.9453C9.25007 10.4265 10.4813 9.19542 12.0001 9.19542C13.5188 9.19542 14.75 10.4267 14.75 11.9454C14.75 13.4642 13.5188 14.6952 12.0001 14.6952Z" fill="white"/>
<path d="M10.2798 11.8054V12.932C10.4464 13.2181 10.6816 13.4584 10.9641 13.6312V11.8054H10.2798ZM11.6368 10.8557V13.8887C11.7532 13.9101 11.8722 13.923 11.9946 13.923C12.1062 13.923 12.2149 13.9113 12.3216 13.8935V10.8557H11.6368ZM13.0572 12.2735V13.6113C13.3443 13.4288 13.5799 13.176 13.7419 12.877V12.2737L13.0572 12.2735ZM14.608 14.1777L14.2326 14.5535C14.2008 14.5854 14.1829 14.6286 14.1829 14.6736C14.1829 14.7186 14.2008 14.7618 14.2326 14.7937L15.6568 16.2174C15.6886 16.2492 15.7318 16.2671 15.7768 16.2671C15.8219 16.2671 15.8651 16.2492 15.8969 16.2174L16.2724 15.8421C16.304 15.8102 16.3217 15.767 16.3217 15.7221C16.3217 15.6772 16.304 15.634 16.2724 15.6021L14.848 14.1777C14.8161 14.1461 14.773 14.1283 14.728 14.1283C14.6831 14.1283 14.6399 14.1461 14.608 14.1777Z" fill="white"/>
<defs>
<linearGradient id="paint0_linear_10041_30028" x1="12.0001" y1="3.00016" x2="12.0001" y2="20.972" gradientUnits="userSpaceOnUse">
<stop stop-color="#4387FD"/>
<stop offset="1" stop-color="#4683EA"/>
</linearGradient>
</defs>
</svg>
