<svg id="sources/DB2" viewBox="0 0 24 24" fill="none" xmlns="http://www.w3.org/2000/svg">
<path d="M2.40002 12H21.6V17.76C21.6 19.8808 19.8808 21.6 17.76 21.6H6.24002C4.11925 21.6 2.40002 19.8808 2.40002 17.76V12Z" fill="#009A2C"/>
<path d="M21.6 12L2.39997 12V6.24C2.39997 4.11923 4.1192 2.4 6.23997 2.4L17.76 2.4C19.8807 2.4 21.6 4.11923 21.6 6.24V12Z" fill="black"/>
<path d="M6.51428 5.82837H8.64417V6.11062H6.51428V5.82837ZM8.94651 5.82837V6.11062H11.9834C11.9834 6.11062 11.6663 5.82837 11.2681 5.82837H8.94651ZM12.5881 5.82837V6.11279H14.4304L14.3222 5.82837H12.5881ZM17.4673 5.82837H15.7503L15.6422 6.11279H17.4673V5.82837ZM6.51428 6.38201H8.64417V6.66425H6.51428V6.38201ZM8.94651 6.66534H12.3484C12.3484 6.66534 12.3165 6.44171 12.2378 6.38309H8.94651V6.66534ZM12.5881 6.66534H14.6369L14.5447 6.38201H12.5881V6.66534ZM17.4673 6.66534V6.38201H15.5303L15.4357 6.66534H17.4673ZM7.13248 6.91827H8.05424V7.20052H7.13248V6.91827ZM9.56716 6.91827H10.4889V7.20052H9.56716V6.91827ZM11.3959 7.20052H12.3177C12.3177 7.20052 12.3804 7.05071 12.3804 6.91827H11.3947V7.20052H11.3959ZM13.2087 6.91827V7.20052H14.8446L14.7364 6.91827H13.2087ZM15.228 7.20052H16.8823V6.91827H15.3374L15.228 7.20052ZM7.13248 7.46866H8.05424V7.7509H7.13248V7.46866ZM9.56716 7.7509H11.9355C11.9355 7.7509 12.1272 7.60109 12.1899 7.46866H9.56716V7.7509ZM15.0375 7.70857L14.9589 7.46866H13.2087V7.7509H14.1305V7.58807L14.1944 7.7509H15.8966L15.958 7.58807V7.7509H16.8823V7.46866H15.1297L15.0375 7.70857ZM7.13248 8.01904H8.05424V8.30128H7.13248V8.01904ZM9.56716 8.30345H12.1899C12.1272 8.16884 11.9355 8.02121 11.9355 8.02121H9.56716V8.30345ZM13.2087 8.01904H14.1305V8.30128H13.2087V8.01904ZM15.7995 8.01904H14.3038L14.4169 8.30345H15.6901L15.7995 8.01904ZM15.9433 8.01904H16.8651V8.30128H15.9433V8.01904ZM7.13248 8.5705H8.05424V8.85275H7.13248V8.5705ZM9.56716 8.5705H10.4889V8.85275H9.56716V8.5705ZM12.3177 8.5705H11.3959V8.85275H12.3816C12.3804 8.71923 12.3177 8.5705 12.3177 8.5705ZM13.2087 8.5705H14.1305V8.85275H13.2087V8.5705ZM15.593 8.5705H14.5115L14.6233 8.85384H15.4824L15.593 8.5705ZM15.9433 8.5705H16.8651V8.85275H15.9433V8.5705ZM6.53026 9.10677H8.66014V9.38902H6.53026V9.10677ZM12.3509 9.10677H8.94651V9.38902H12.2378C12.3017 9.3304 12.3509 9.10677 12.3509 9.10677ZM12.6053 9.10677H14.1305V9.38902H12.6053V9.10677ZM15.3681 9.10677H14.718L14.831 9.38902H15.2575L15.3681 9.10677ZM15.9433 9.10677H17.4857V9.38902H15.9433V9.10677ZM6.53026 9.66041H8.66014V9.94266H6.53026V9.66041ZM11.9846 9.66041H8.94651V9.94266H11.2681C11.6811 9.94157 11.9846 9.66041 11.9846 9.66041ZM12.6053 9.66041H14.1305V9.94266H12.6053V9.66041ZM15.051 9.94157L15.1653 9.66041H14.9232L15.0375 9.94157H15.051ZM15.9433 9.66041H17.4857V9.94266H15.9433V9.66041Z" fill="white"/>
<path d="M7.68018 17.7553V13.9841H8.84306C10.0377 13.9841 10.6329 14.5981 10.6329 15.8246C10.6329 16.4066 10.4668 16.8771 10.1302 17.2284C9.79359 17.5797 9.3631 17.7584 8.83584 17.7584H7.68018V17.7553ZM8.39813 14.6393V17.097H8.78961C9.13053 17.097 9.39633 16.9825 9.59135 16.7564C9.78637 16.5273 9.88315 16.2218 9.88315 15.8338C9.88315 15.4596 9.78059 15.1663 9.57979 14.9555C9.37611 14.7447 9.11464 14.6409 8.78961 14.6409H8.39813V14.6393ZM11.2006 17.7553V13.9841H12.3953C12.7607 13.9841 13.0439 14.062 13.2432 14.2178C13.4426 14.3736 13.5394 14.5889 13.5394 14.8654C13.5394 15.0701 13.4773 15.2503 13.3545 15.4031C13.2317 15.5558 13.0771 15.6627 12.8893 15.7223V15.733C13.1233 15.7666 13.3126 15.8628 13.457 16.0263C13.6 16.1897 13.6723 16.3929 13.6723 16.6372C13.6723 16.9809 13.5639 17.2528 13.3458 17.456C13.1277 17.6591 12.8315 17.7599 12.4559 17.7599H11.2006V17.7553ZM11.9171 14.5844V15.5176H12.258C12.4227 15.5176 12.5498 15.4733 12.6452 15.3847C12.7405 15.2962 12.7867 15.174 12.7867 15.0151C12.7867 14.7264 12.599 14.5813 12.2219 14.5813L11.9171 14.5844ZM11.9171 16.1194V17.1535H12.3433C12.5238 17.1535 12.6654 17.1062 12.7665 17.013C12.8676 16.9198 12.9196 16.7885 12.9196 16.622C12.9196 16.4631 12.8691 16.3394 12.7665 16.2508C12.664 16.1622 12.5209 16.1179 12.3332 16.1179L11.9171 16.1194ZM14.8929 17.1031H16.3202V17.7584H14.0825V17.4773C14.0825 17.2803 14.1143 17.1001 14.1793 16.9397C14.2443 16.7793 14.3324 16.625 14.4451 16.4845C14.5592 16.344 14.7326 16.1805 14.9709 15.9911C15.1891 15.8094 15.3393 15.6475 15.4274 15.5085C15.5155 15.3679 15.5574 15.2198 15.5574 15.0609C15.5574 14.7203 15.3928 14.5523 15.062 14.5523C14.773 14.5523 14.4971 14.6821 14.2328 14.9418V14.2392C14.5275 14.0253 14.8554 13.9199 15.2237 13.9199C15.5603 13.9199 15.8261 14.0162 16.0211 14.2086C16.2162 14.4011 16.3158 14.6653 16.3158 15.0044C16.3158 15.1938 16.2884 15.3634 16.2306 15.513C16.1757 15.6643 16.0919 15.8063 15.985 15.9423C15.8781 16.0751 15.7077 16.2355 15.4708 16.4234C15.244 16.6052 15.0908 16.7457 15.0128 16.845C14.9348 16.9443 14.8929 17.0267 14.8929 17.1031Z" fill="black"/>
<path d="M7.68018 17.7553V13.9841H8.84306C10.0377 13.9841 10.6329 14.5981 10.6329 15.8246C10.6329 16.4066 10.4668 16.8771 10.1302 17.2284C9.79359 17.5797 9.3631 17.7584 8.83584 17.7584H7.68018V17.7553ZM8.39813 14.6393V17.097H8.78961C9.13053 17.097 9.39633 16.9825 9.59135 16.7564C9.78637 16.5273 9.88315 16.2218 9.88315 15.8338C9.88315 15.4596 9.78059 15.1663 9.57979 14.9555C9.37611 14.7447 9.11464 14.6409 8.78961 14.6409H8.39813V14.6393ZM11.2006 17.7553V13.9841H12.3953C12.7607 13.9841 13.0439 14.062 13.2432 14.2178C13.4426 14.3736 13.5394 14.5889 13.5394 14.8654C13.5394 15.0701 13.4773 15.2503 13.3545 15.4031C13.2317 15.5558 13.0771 15.6627 12.8893 15.7223V15.733C13.1233 15.7666 13.3126 15.8628 13.457 16.0263C13.6 16.1897 13.6723 16.3929 13.6723 16.6372C13.6723 16.9809 13.5639 17.2528 13.3458 17.456C13.1277 17.6591 12.8315 17.7599 12.4559 17.7599H11.2006V17.7553ZM11.9171 14.5844V15.5176H12.258C12.4227 15.5176 12.5498 15.4733 12.6452 15.3847C12.7405 15.2962 12.7867 15.174 12.7867 15.0151C12.7867 14.7264 12.599 14.5813 12.2219 14.5813L11.9171 14.5844ZM11.9171 16.1194V17.1535H12.3433C12.5238 17.1535 12.6654 17.1062 12.7665 17.013C12.8676 16.9198 12.9196 16.7885 12.9196 16.622C12.9196 16.4631 12.8691 16.3394 12.7665 16.2508C12.664 16.1622 12.5209 16.1179 12.3332 16.1179L11.9171 16.1194ZM14.8929 17.1031H16.3202V17.7584H14.0825V17.4773C14.0825 17.2803 14.1143 17.1001 14.1793 16.9397C14.2443 16.7793 14.3324 16.625 14.4451 16.4845C14.5592 16.344 14.7326 16.1805 14.9709 15.9911C15.1891 15.8094 15.3393 15.6475 15.4274 15.5085C15.5155 15.3679 15.5574 15.2198 15.5574 15.0609C15.5574 14.7203 15.3928 14.5523 15.062 14.5523C14.773 14.5523 14.4971 14.6821 14.2328 14.9418V14.2392C14.5275 14.0253 14.8554 13.9199 15.2237 13.9199C15.5603 13.9199 15.8261 14.0162 16.0211 14.2086C16.2162 14.4011 16.3158 14.6653 16.3158 15.0044C16.3158 15.1938 16.2884 15.3634 16.2306 15.513C16.1757 15.6643 16.0919 15.8063 15.985 15.9423C15.8781 16.0751 15.7077 16.2355 15.4708 16.4234C15.244 16.6052 15.0908 16.7457 15.0128 16.845C14.9348 16.9443 14.8929 17.0267 14.8929 17.1031Z" fill="white"/>
</svg>
