<svg id="sources/DREMIOTODREMIO" viewBox="0 0 40 40" fill="none" xmlns="http://www.w3.org/2000/svg">
  <path fill-rule="evenodd" clip-rule="evenodd" d="M10.9024 24.6017C9.88647 25.0744 7.90994 26.1326 8.0974 27.2792C8.35527 27.9844 9.16019 27.2393 9.45692 26.9425C10.0975 26.3252 10.6054 25.4674 10.9024 24.6017ZM16.965 22.0682C16.2932 23.872 14.3322 24.7298 13.7854 24.4255C13.5117 24.2727 13.8087 23.7035 13.8164 23.311C13.418 23.471 12.7617 23.7678 12.3632 23.9363C13.3165 24.6657 13.8087 25.9244 13.8009 27.1189C13.8009 28.3455 13.3089 29.4759 12.3867 30.2537C14.0274 32.7463 13.1917 34.895 10.9337 36.5704L10.7929 36.6666L10.746 36.4986C10.4102 35.3121 9.9882 34.3098 9.19128 33.3636C8.79282 32.8911 8.33949 32.4579 7.8944 32.0248C7.30848 31.4556 6.74611 30.8787 6.2146 30.2617C3.97997 27.8242 3.09709 23.5993 3.38651 20.3367C3.53464 18.6533 4.03506 17.0417 4.80044 15.5507C5.4099 14.3642 6.18328 13.2739 7.07416 12.296C9.04269 10.1314 11.6525 8.42357 14.4261 7.58198C16.8633 6.83659 19.6525 6.70802 21.9733 7.93485C22.3483 8.13499 22.9106 8.48762 23.2234 8.75251C23.4191 8.93669 23.6138 9.12908 23.8015 9.31372C23.8248 9.32968 23.8486 9.35384 23.8642 9.37754L34.7161 3.69384C35.6145 3.23703 36.2864 3.23703 36.56 3.56573C36.8803 3.95051 36.4352 4.75198 35.8024 5.22498L26.5048 12.1515C26.6687 12.7047 26.3953 13.5064 25.9888 13.9794C27.2313 14.4203 26.1374 16.2881 25.5904 16.9535C24.0356 18.8455 21.1842 20.3287 18.6451 21.4108C17.9652 21.7076 17.5747 21.8359 16.965 22.0682V22.0682Z" fill="#2E3336"/>
  <path fill-rule="evenodd" clip-rule="evenodd" d="M25.4736 15.5347C26.1688 14.6365 25.6844 14.1157 25.2 14.6208C24.2467 15.6226 22.8015 15.9673 21.497 15.7507C19.5902 15.4223 19.5047 15.1257 19.8248 14.8369C22.075 15.6789 24.692 14.5807 25.7779 12.7607C26.2468 12.0714 24.6767 11.5182 23.747 10.2275C19.3015 4.07035 5.38646 9.442 4.05826 20.2083C3.6518 23.447 4.53468 27.0304 6.70712 29.5556C8.33206 31.4478 10.0976 32.2336 11.0975 35.2079C13.0432 33.4919 12.7384 31.5523 11.3167 29.8524C13.7461 28.5538 13.3948 25.1785 11.6839 24.1528C10.887 27.1587 8.02709 29.3794 7.36322 27.2469C6.93367 25.0744 10.4181 23.6317 16.0043 21.4591C20.6763 19.663 23.6923 18.18 25.4736 15.5347" fill="#31D3DB"/>
  <path fill-rule="evenodd" clip-rule="evenodd" d="M25.4736 15.5347C26.1688 14.6366 25.6844 14.1157 25.2 14.6209C24.3799 15.4864 23.1452 15.8634 22.02 15.8071C20.0984 15.6628 18.5667 15.2781 17.1608 15.4303C14.3946 15.7189 11.6994 17.5147 10.2539 19.0299C7.81649 21.5955 5.12854 26.9183 7.83981 27.9528C7.63658 27.8242 7.47244 27.5919 7.36317 27.247C6.93362 25.0744 10.418 23.6318 16.0043 21.4592C20.6763 19.6631 23.6923 18.1801 25.4736 15.5347" fill="#FFFFFE"/>
  <path fill-rule="evenodd" clip-rule="evenodd" d="M13.5118 19.7354C14.9493 20.4569 14.6603 22.9898 14.4493 23.624C17.1761 22.8298 16.3634 18.6855 17.6294 17.4185C16.0431 17.3704 13.0742 19.0057 13.5118 19.7354" fill="#31D3DB"/>
  <path fill-rule="evenodd" clip-rule="evenodd" d="M18.1215 12.2316C18.512 12.0235 18.9889 12.1675 19.1999 12.5687C19.4029 12.9612 19.2543 13.4504 18.8716 13.667C18.4887 13.8753 18.0045 13.7308 17.801 13.3303C17.5903 12.9373 17.7386 12.4481 18.1215 12.2316" fill="#2E3336"/>
  <path fill-rule="evenodd" clip-rule="evenodd" d="M24.7391 12.5763L35.6772 4.76011C35.9817 4.53558 36.3884 4.05437 36.224 3.82209C36.0603 3.58958 35.5835 3.71769 35.1772 3.9021L23.348 10.4598C22.9653 11.2774 23.7389 13.0012 24.7391 12.5763" fill="#31D3DB"/>
  <path fill-rule="evenodd" clip-rule="evenodd" d="M23.7779 11.0293L35.2084 4.12671C35.7084 3.82217 35.9036 3.83014 36.2081 3.798C36.0364 3.59787 35.5676 3.71776 35.1771 3.90217L23.3479 10.4598C23.0591 11.0771 23.4343 12.2237 24.0671 12.5524C23.8405 12.0473 23.6921 11.5182 23.7779 11.0293" fill="#FFFFFE"/>
  <path fill-rule="evenodd" clip-rule="evenodd" d="M6.94109 14.0995C7.31601 14.0352 7.60542 14.3001 7.59742 14.693C7.59742 15.0856 7.29292 15.4544 6.91778 15.5187C6.55064 15.5825 6.26145 15.3181 6.26945 14.9333C6.26945 14.5405 6.57372 14.1717 6.94109 14.0995" fill="#2FA69F"/>
  <path fill-rule="evenodd" clip-rule="evenodd" d="M9.1602 11.5904C9.48848 11.5343 9.74611 11.7668 9.73811 12.1117C9.73034 12.4646 9.4647 12.7848 9.13665 12.8491C8.8086 12.9054 8.5505 12.6727 8.55828 12.3283C8.56628 11.9834 8.83192 11.6544 9.1602 11.5904" fill="#2FA69F"/>
  <path fill-rule="evenodd" clip-rule="evenodd" d="M15.8713 8.27148C16.2073 8.28743 16.4103 8.57578 16.3244 8.91246C16.2464 9.24938 15.9104 9.50606 15.5823 9.48987C15.2538 9.47391 15.051 9.18509 15.129 8.84865C15.2072 8.51173 15.543 8.25529 15.8713 8.27148" fill="#2FA69F"/>
  <path fill-rule="evenodd" clip-rule="evenodd" d="M17.9262 7.92654C18.1998 7.99083 18.3324 8.24703 18.2231 8.5199C18.1136 8.78431 17.8011 8.95277 17.5357 8.8967C17.2623 8.83241 17.129 8.57574 17.2385 8.30334C17.348 8.03892 17.6603 7.87046 17.9262 7.92654" fill="#2FA69F"/>
  <path fill-rule="evenodd" clip-rule="evenodd" d="M9.18383 13.1614C9.42547 13.1213 9.62116 13.2978 9.61339 13.5544C9.61339 13.8109 9.40993 14.0514 9.16783 14.0917C8.92574 14.1398 8.73828 13.9634 8.73828 13.7069C8.74628 13.4503 8.94128 13.2095 9.18383 13.1614" fill="#2FA69F"/>
  <path fill-rule="evenodd" clip-rule="evenodd" d="M5.72253 16.1116C5.9724 16.0637 6.17586 16.2481 6.16809 16.5128C6.16809 16.7852 5.95708 17.0336 5.70699 17.0817C5.44889 17.1219 5.25366 16.9454 5.25366 16.681C5.26166 16.4086 5.46467 16.1519 5.72253 16.1116" fill="#2FA69F"/>
  <path fill-rule="evenodd" clip-rule="evenodd" d="M26.1767 8.89687L25.6689 9.17724C25.7078 9.93882 26.317 10.8609 26.7546 11.0134C26.411 10.4761 26.0985 9.54607 26.1767 8.89687ZM28.9033 7.38192L28.4582 7.63015C28.5126 8.31149 29.0596 9.12915 29.333 9.17724C29.122 8.84877 28.8486 7.93492 28.9033 7.38192ZM31.5988 5.88245L31.2549 6.07484C31.2472 6.52391 31.5677 7.19704 31.9266 7.29347C31.7549 7.01286 31.5439 6.43569 31.5988 5.88245ZM34.1928 4.44751L33.8956 4.61597C33.9191 4.91253 34.2552 5.46577 34.4426 5.55375C34.3722 5.33743 34.1612 4.89658 34.1928 4.44751V4.44751Z" fill="#2FA69F"/>
</svg>
