<svg id="sources/DREMIO_CATALOG_EXTERNAL" viewBox="0 0 40 40" fill="none" xmlns="http://www.w3.org/2000/svg">
<path fill-rule="evenodd" clip-rule="evenodd" d="M9.08297 25.5221C7.86386 26.0894 5.49203 27.3592 5.71697 28.7351C6.02642 29.5814 6.99232 28.6872 7.3484 28.3311C8.11707 27.5903 8.72662 26.561 9.08297 25.5221ZM16.3581 22.4819C15.5519 24.6465 13.1987 25.6758 12.5425 25.3106C12.2141 25.1274 12.5705 24.4443 12.5798 23.9733C12.1017 24.1653 11.3141 24.5215 10.8359 24.7236C11.9799 25.5989 12.5705 27.1094 12.5612 28.5428C12.5612 30.0147 11.9708 31.3712 10.8642 32.3045C12.833 35.2957 11.8301 37.874 9.12056 39.8846L8.95157 40L8.89534 39.7984C8.49235 38.3746 7.98594 37.1719 7.02963 36.0364C6.55148 35.4694 6.00749 34.9496 5.47337 34.4299C4.77027 33.7469 4.09542 33.0546 3.45761 32.3141C0.776061 29.3891 -0.283392 24.3193 0.0639064 20.4041C0.241671 18.3841 0.842174 16.4501 1.76062 14.6609C2.49198 13.2371 3.42003 11.9288 4.48909 10.7553C6.85132 8.15775 9.98304 6.10838 13.3115 5.09848C16.2361 4.20401 19.5831 4.04972 22.3681 5.52192C22.818 5.76208 23.4929 6.18524 23.8681 6.50311C24.103 6.72412 24.3367 6.95499 24.5619 7.17657C24.5899 7.19571 24.6184 7.22471 24.6371 7.25315L37.6594 0.432703C38.7375 -0.115466 39.5438 -0.115466 39.8721 0.278979C40.2565 0.740714 39.7224 1.70247 38.963 2.27007L27.8058 10.5819C28.0025 11.2457 27.6744 12.2078 27.1867 12.7754C28.6776 13.3044 27.365 15.5458 26.7085 16.3443C24.8428 18.6146 21.4211 20.3946 18.3742 21.6931C17.5583 22.0492 17.0898 22.2032 16.3581 22.4819Z" fill="#2E3336"/>
<path fill-rule="evenodd" clip-rule="evenodd" d="M26.5687 14.6417C27.4029 13.564 26.8216 12.9389 26.2403 13.5451C25.0963 14.7473 23.362 15.1609 21.7967 14.901C19.5086 14.5069 19.406 14.151 19.79 13.8044C22.4902 14.8149 25.6307 13.497 26.9338 11.313C27.4964 10.4858 25.6124 9.82195 24.4967 8.27317C19.1621 0.884566 2.46405 7.33055 0.870205 20.2501C0.38245 24.1366 1.4419 28.4366 4.04884 31.4669C5.99876 33.7376 8.11739 34.6805 9.3173 38.2496C11.6521 36.1904 11.2864 33.8628 9.58038 31.823C12.4957 30.2647 12.074 26.2144 10.0209 24.9835C9.06464 28.5906 5.63281 31.2555 4.83616 28.6965C4.3207 26.0894 8.502 24.3581 15.2055 21.751C20.8119 19.5958 24.4311 17.8162 26.5687 14.6417Z" fill="#31D3DB"/>
<path fill-rule="evenodd" clip-rule="evenodd" d="M26.5684 14.6418C27.4026 13.564 26.8213 12.939 26.24 13.5452C25.256 14.5838 23.7744 15.0362 22.4241 14.9687C20.1181 14.7955 18.2801 14.3338 16.593 14.5165C13.2737 14.8628 10.0393 17.0177 8.30477 18.836C5.37989 21.9147 2.15435 28.3021 5.40787 29.5434C5.16399 29.3891 4.96703 29.1104 4.8359 28.6965C4.32044 26.0894 8.50174 24.3582 15.2052 21.7511C20.8116 19.5959 24.4308 17.8162 26.5684 14.6418Z" fill="#FFFFFE"/>
<path fill-rule="evenodd" clip-rule="evenodd" d="M12.2143 19.6826C13.9393 20.5484 13.5925 23.588 13.3393 24.349C16.6115 23.3959 15.6363 18.4227 17.1555 16.9024C15.252 16.8447 11.6893 18.807 12.2143 19.6826Z" fill="#31D3DB"/>
<path fill-rule="evenodd" clip-rule="evenodd" d="M17.7461 10.6778C18.2147 10.428 18.7869 10.6009 19.0401 11.0824C19.2837 11.5534 19.1054 12.1404 18.6462 12.4003C18.1867 12.6503 17.6057 12.4769 17.3615 11.9963C17.1086 11.5247 17.2866 10.9376 17.7461 10.6778Z" fill="#2E3336"/>
<path fill-rule="evenodd" clip-rule="evenodd" d="M25.6874 11.0917L38.8131 1.71232C39.1785 1.44289 39.6665 0.865436 39.4693 0.586706C39.2729 0.307694 38.7006 0.461418 38.2132 0.682713L24.0181 8.55191C23.5588 9.5331 24.4872 11.6016 25.6874 11.0917Z" fill="#31D3DB"/>
<path fill-rule="evenodd" clip-rule="evenodd" d="M24.534 9.23527L38.2507 0.952192C38.8506 0.586746 39.0849 0.596319 39.4503 0.557747C39.2443 0.317589 38.6817 0.461458 38.2131 0.682753L24.018 8.55195C23.6715 9.2927 24.1217 10.6686 24.8811 11.0631C24.6092 10.4569 24.4312 9.82201 24.534 9.23527Z" fill="#FFFFFE"/>
<path fill-rule="evenodd" clip-rule="evenodd" d="M4.32961 12.9195C4.7795 12.8424 5.1268 13.1602 5.1172 13.6318C5.1172 14.1028 4.7518 14.5454 4.30163 14.6226C3.86105 14.6991 3.51403 14.3818 3.52363 13.9201C3.52363 13.4488 3.88876 13.0062 4.32961 12.9195Z" fill="#2FA69F"/>
<path fill-rule="evenodd" clip-rule="evenodd" d="M6.99204 9.90845C7.38598 9.84116 7.69514 10.1202 7.68554 10.534C7.67621 10.9575 7.35745 11.3418 6.96379 11.4189C6.57013 11.4865 6.26041 11.2072 6.26974 10.7939C6.27934 10.38 6.59811 9.98531 6.99204 9.90845Z" fill="#2FA69F"/>
<path fill-rule="evenodd" clip-rule="evenodd" d="M15.0455 5.92592C15.4488 5.94507 15.6924 6.29109 15.5892 6.6951C15.4957 7.0994 15.0924 7.40741 14.6988 7.38799C14.3046 7.36884 14.0612 7.02226 14.1548 6.61852C14.2486 6.21422 14.6516 5.90649 15.0455 5.92592Z" fill="#2FA69F"/>
<path fill-rule="evenodd" clip-rule="evenodd" d="M17.5118 5.51219C17.8401 5.58933 17.9993 5.89678 17.8681 6.22422C17.7367 6.54152 17.3617 6.74367 17.0432 6.67638C16.7151 6.59924 16.5552 6.29123 16.6866 5.96435C16.818 5.64705 17.1927 5.4449 17.5118 5.51219Z" fill="#2FA69F"/>
<path fill-rule="evenodd" clip-rule="evenodd" d="M7.02099 11.7939C7.31096 11.7458 7.54578 11.9575 7.53645 12.2655C7.53645 12.5733 7.2923 12.8618 7.00179 12.9103C6.71128 12.968 6.48633 12.7563 6.48633 12.4485C6.49593 12.1405 6.72993 11.8517 7.02099 11.7939Z" fill="#2FA69F"/>
<path fill-rule="evenodd" clip-rule="evenodd" d="M2.86733 15.334C3.16717 15.2766 3.41133 15.4979 3.402 15.8155C3.402 16.1424 3.14879 16.4405 2.84868 16.4982C2.53896 16.5464 2.30469 16.3347 2.30469 16.0173C2.31429 15.6905 2.55789 15.3825 2.86733 15.334Z" fill="#2FA69F"/>
<path fill-rule="evenodd" clip-rule="evenodd" d="M27.412 6.67615L26.8027 7.01259C26.8494 7.92649 27.5805 9.03296 28.1055 9.21597C27.6932 8.57123 27.3182 7.45518 27.412 6.67615ZM30.6839 4.85821L30.1498 5.15608C30.2151 5.97369 30.8716 6.95488 31.1997 7.01259C30.9465 6.61843 30.6184 5.52181 30.6839 4.85821ZM33.9185 3.05885L33.5059 3.28971C33.4966 3.82859 33.8812 4.63635 34.3119 4.75206C34.1059 4.41533 33.8527 3.72273 33.9185 3.05885ZM37.0313 1.33691L36.6747 1.53906C36.7029 1.89494 37.1062 2.55882 37.3312 2.6644C37.2467 2.40482 36.9935 1.87579 37.0313 1.33691Z" fill="#2FA69F"/>
</svg>
