<svg id="sources/DRUID" viewBox="0 0 24 24" fill="none" xmlns="http://www.w3.org/2000/svg">
  <path d="M2.40002 6.2399V17.7599C2.40002 19.8807 4.11925 21.5999 6.24002 21.5999H17.76C19.8808 21.5999 21.6 19.8807 21.6 17.7599V6.2399C21.6 4.11913 19.8808 2.3999 17.76 2.3999H6.24002C4.11925 2.3999 2.40002 4.11913 2.40002 6.2399Z" fill="#1C1C26"/>
  <path d="M12 7.00434V7H13V7.00301C13.55 7.00204 14.1002 7.00135 14.6494 7.00434C16.361 7.01408 17.9324 8.07769 18.5304 9.62807C18.7882 10.2974 18.8432 10.991 18.7706 11.7042C18.663 12.7483 18.3428 13.7194 17.7347 14.5883C16.7964 15.9294 15.4752 16.6766 13.8387 16.9249C13.3449 17.0006 12.8512 16.9994 12.3557 16.9982C12.2937 16.998 12.2317 16.9979 12.1697 16.9979C11.9395 16.9979 11.8143 16.8957 11.8018 16.7083C11.7868 16.5087 11.9169 16.3553 12.1446 16.3432C12.2909 16.3347 12.4381 16.3352 12.5851 16.3358C12.692 16.3361 12.7989 16.3365 12.9053 16.3334C14.4467 16.2921 15.7804 15.7761 16.8364 14.6687C17.5771 13.8922 17.9524 12.9455 18.08 11.9013C18.1676 11.1785 18.1576 10.458 17.8648 9.77167C17.4144 8.72267 16.6037 8.08012 15.4927 7.78075C15.0598 7.66393 14.6169 7.64202 14.174 7.63959C12.9335 7.63229 11.6916 7.6332 10.4504 7.63411C10.0369 7.63442 9.62276 7.63472 9.20948 7.63472C9.19197 7.63472 9.17445 7.63487 9.15694 7.63502C9.10439 7.63548 9.05184 7.63594 8.99929 7.63229C8.83414 7.61768 8.70653 7.48869 8.69652 7.32805C8.69401 7.17472 8.80662 7.04085 8.96176 7.01165C9.03683 7.00191 9.1144 6.99704 9.18946 7.00191L11.967 7.00434C11.978 7.00434 11.989 7.00434 12 7.00434Z" fill="#2CEEFB"/>
  <path d="M7.30276 14.7027H10.2704C10.5914 14.7027 10.9126 14.703 11.234 14.7032C11.8772 14.7038 12.5217 14.7043 13.1656 14.7027C14.5018 14.7002 15.6328 13.9555 16.1132 12.7434C16.3635 12.113 16.4435 11.4559 16.2208 10.806C15.9056 9.88845 15.0448 9.30189 14.0464 9.29945H8.11099C8.05344 9.29702 7.99589 9.29945 7.94084 9.30676C7.77318 9.3384 7.6781 9.46739 7.69061 9.6475C7.70062 9.813 7.7957 9.91279 7.96336 9.9274C8.15853 9.94687 8.35621 9.96147 8.55139 9.96147C9.24289 9.96238 9.93474 9.96227 10.6267 9.96215C11.7801 9.96196 12.9338 9.96177 14.0864 9.96634C14.6019 9.96877 15.0298 10.1732 15.3475 10.5797C15.6328 10.9448 15.6979 11.3561 15.6478 11.8039C15.5828 12.3735 15.3726 12.8797 14.9697 13.2983C14.4993 13.7875 13.9087 14.0334 13.2231 14.0358C11.7592 14.0394 10.2939 14.039 8.8293 14.0385C8.34136 14.0384 7.85302 14.0382 7.36531 14.0382L7.31918 14.0379C7.22701 14.037 7.1351 14.0361 7.04502 14.0674C6.88238 14.1259 6.7998 14.2427 6.81732 14.4106C6.83233 14.5786 6.93993 14.6759 7.11259 14.6978C7.17514 14.7051 7.2402 14.7051 7.30276 14.7027Z" fill="#2CEEFB"/>
  <path d="M5.6192 9.92794C5.69491 9.92767 5.77081 9.9274 5.84644 9.9274C5.91635 9.9274 5.98647 9.92779 6.05673 9.92819C6.23288 9.92918 6.41005 9.93018 6.58711 9.92496C6.76227 9.91766 6.86736 9.81544 6.88738 9.6475C6.9074 9.47713 6.81482 9.3384 6.64716 9.29702C6.55458 9.27512 6.45949 9.26538 6.36441 9.26538C6.05413 9.26295 5.74385 9.26295 5.43356 9.26538C5.31846 9.26295 5.20586 9.27025 5.09326 9.28728C4.88807 9.32623 4.78047 9.46983 4.80299 9.63533C4.82551 9.80327 4.97065 9.92496 5.16082 9.9274C5.31438 9.92902 5.46711 9.92848 5.6192 9.92794Z" fill="#2CEEFB"/>
  <path d="M9.79548 16.9989C9.86702 16.9984 9.93876 16.9978 10.0102 16.9978H10.6333C10.846 16.9905 10.9786 16.8761 10.9936 16.6912C10.9961 16.6863 10.9961 16.679 10.9961 16.6741C11.0036 16.5038 10.866 16.3577 10.6908 16.3504C10.2304 16.3163 9.76749 16.3188 9.30707 16.3529C9.1194 16.3699 8.98178 16.5305 8.99929 16.7131C9.01931 16.881 9.15694 16.993 9.36212 16.9978C9.50735 17.0011 9.65174 17 9.79548 16.9989Z" fill="#2CEEFB"/>
</svg>
