<svg id="sources/HIVE" viewBox="0 0 40 40" fill="none" xmlns="http://www.w3.org/2000/svg">
<path fill-rule="evenodd" clip-rule="evenodd" d="M23.0156 8.21845C22.718 7.40349 12.4819 3.424 12.351 3.86091C10.4714 4.3509 9.70639 6.51735 8.41341 7.88961L5.54211 7.72515C4.27727 9.35168 3.61357 11.0135 4.06549 12.7408C5.68662 14.9371 7.5685 16.8061 8.74144 19.565C8.83415 20.8654 14.3696 19.7013 15.556 19.4439C13.9353 20.6041 12.5239 22.4024 13.1304 27.5816C13.6841 30.0137 14.0628 32.7292 18.9739 35.48C19.6204 35.8421 20.958 36.2599 21.7852 36.5645C22.5762 36.9273 23.5012 37.0764 26.1107 36.2784C27.6207 35.6275 29.2511 35.2354 30.7287 34.5861L28.9526 34.6695C26.5068 34.7227 24.6187 34.9052 24.0362 34.2218L21.7853 30.3359L23.0976 27.787C24.9138 27.9733 25.5166 29.4461 27.1174 30.007L29.0042 28.6092C34.4845 31.8442 36.6648 26.559 37.2897 22.4427C37.223 20.7679 33.6634 22.968 33.8792 22.1849C33.9628 20.3846 32.4954 18.0292 31.5472 16.1939L32.6445 11.9479C33.1424 11.5045 30.3395 6.78142 28.0508 6.19244C26.0426 5.6756 23.0155 8.21845 23.0155 8.21845L23.0156 8.21845Z" fill="#FDEE21"/>
<path fill-rule="evenodd" clip-rule="evenodd" d="M32.0186 17.2422C32.0382 17.6983 32.036 18.2529 32.0801 18.5989C32.0725 18.8628 31.8747 18.8725 31.7109 18.9278L32.7774 19.3183C32.9891 19.6746 33.1593 20.0309 33.3311 20.3872C33.5305 21.2637 33.3817 21.2887 33.2491 21.3533C32.8621 21.3573 32.4762 21.358 32.116 21.2814C32.2774 21.3666 32.3129 21.4286 32.3299 21.5377C32.3614 21.7389 32.2319 22.0136 32.0186 22.2783C32.334 22.4533 32.909 22.6245 33.3363 22.7871L33.8233 21.7028C33.6028 20.1099 32.9339 18.6417 32.0186 17.2422L32.0186 17.2422Z" fill="#C8C037"/>
<path fill-rule="evenodd" clip-rule="evenodd" d="M34.0088 22.5851C34.6003 22.8316 35.4174 22.7593 36.5503 22.1755C36.7188 22.0557 36.8757 22.1273 36.5742 22.3244C35.0883 23.6577 34.377 22.9907 34.0088 22.5851L34.0088 22.5851Z" fill="#C8C037"/>
<path fill-rule="evenodd" clip-rule="evenodd" d="M36.6639 22.0007C36.8396 22.3372 36.7332 22.6107 36.6742 22.8949C36.4907 24.3403 36.0403 25.483 35.1565 26.6771C32.2819 31.2987 29.3798 28.4069 27.066 26.5248L26.1088 28.9231C26.058 29.1333 25.8468 29.297 27.3415 29.9551L28.8642 28.8795C34.6714 33.2981 38.7865 22.6948 36.6637 22.0009L36.6639 22.0007Z" fill="#C8C037"/>
<path fill-rule="evenodd" clip-rule="evenodd" d="M27.7662 26.1307C27.3744 26.1586 26.2084 26.5551 26.1565 26.7846L26.6931 25.9854L27.7662 26.1307Z" fill="#C8C037"/>
<path fill-rule="evenodd" clip-rule="evenodd" d="M27.0044 21.2301C27.0762 21.2301 27.4208 21.3226 27.3838 21.302C27.3309 21.2726 27.3779 21.7852 27.4863 22.0523L27.0659 22.967C27.8712 22.0383 29.1446 22.1001 30.3268 21.9803L29.7628 21.6309C29.8608 21.3041 29.7454 21.0456 29.691 20.7676L27.0044 21.2301Z" fill="#C8C037"/>
<path fill-rule="evenodd" clip-rule="evenodd" d="M28.9834 18.4758C28.1193 18.7407 27.2921 19.1734 26.7368 20.0959C27.1605 18.5754 27.2468 18.6331 27.3836 18.558C27.9761 18.293 28.4614 18.4582 28.9834 18.4758V18.4758Z" fill="#C8C037"/>
<path fill-rule="evenodd" clip-rule="evenodd" d="M24.369 36.2973C23.3242 37.4502 20.993 36.2101 19.057 35.5779C14.1374 32.4496 13.1764 29.5047 13.1096 26.6157C12.8567 22.4774 14.1274 20.0728 15.7347 19.5035C14.671 21.5541 14.175 25.2351 14.6683 27.9724C15.0664 29.4952 15.0746 32.0637 17.6226 33.4385C18.8703 34.1409 18.5324 34.6878 19.3761 35.3456C20.3007 36.0666 22.8787 36.752 24.369 36.2974L24.369 36.2973Z" fill="#FCF6A0"/>
<path fill-rule="evenodd" clip-rule="evenodd" d="M25.9298 17.1724C24.1609 14.664 21.673 13.7224 18.8674 13.6195C19.4297 13.4362 19.992 13.3408 20.5542 13.0696C20.6919 12.925 20.6469 12.6704 20.5952 12.4119C17.8947 11.7067 16.1902 10.8352 14.0327 10.0273L19.8573 11.4251C23.7906 11.5746 23.4528 12.5456 25.93 17.1725L25.9298 17.1724Z" fill="#FCF6A0"/>
<path fill-rule="evenodd" clip-rule="evenodd" d="M27.8237 15.9628C26.5165 14.0967 25.2486 11.8318 23.5276 10.3914C19.373 8.5162 15.2632 7.12356 10.4468 5.85628L11.984 3.87952C17.0949 5.04618 21.8956 6.99843 26.1956 10.2167C26.9231 12.0562 27.4083 13.8982 27.8234 15.9626L27.8237 15.9628Z" fill="#FCF6A0"/>
<path fill-rule="evenodd" clip-rule="evenodd" d="M30.4591 12.665C30.4591 12.665 29.7263 11.0209 29.3695 10.393C28.5417 9.47573 28.1232 7.76637 26.428 6.96094C26.9641 7.10573 27.3311 6.93321 28.4256 7.92554L30.1497 11.196L30.4591 12.665Z" fill="#FCF6A0"/>
<path fill-rule="evenodd" clip-rule="evenodd" d="M31.3707 15.5135C31.5397 14.089 31.8607 11.804 31.4924 10.9012C30.4676 9.52624 29.4356 8.10504 28.4032 6.78566C28.2322 6.62653 28.1091 6.41055 27.9744 6.24207C29.4259 6.61815 30.9408 7.62745 32.9837 11.612L31.3707 15.5135Z" fill="#FCF6A0"/>
<path fill-rule="evenodd" clip-rule="evenodd" d="M25.2679 15.6818C24.6898 15.2268 24.1745 13.6173 23.2983 13.2826C22.4874 13.2148 22.19 12.9597 21.1236 13.1769C21.5104 12.9831 21.8756 12.7352 22.2867 12.6024C22.5652 12.5367 22.8264 12.6095 23.0921 12.6462C23.1577 12.6152 23.2007 12.5766 23.1847 12.5183C22.1112 11.8549 19.9091 11.8455 18.4226 11.4668C20.1478 11.5245 22.0567 11.4289 23.3533 11.8447C24.396 12.77 24.7347 14.5125 25.2679 15.6818L25.2679 15.6818Z" fill="black"/>
<path fill-rule="evenodd" clip-rule="evenodd" d="M28.4294 7.92029C28.6688 7.94203 29.9569 9.97953 30.0174 10.3186C30.1245 11.0597 30.3887 11.8905 30.4597 12.666C30.2475 11.9222 30.0164 11.1786 29.7274 10.4348C29.6428 10.23 29.4292 9.76705 28.8355 9.11219C28.5591 8.65061 28.4994 8.2878 28.4295 7.92033L28.4294 7.92029Z" fill="black"/>
<path fill-rule="evenodd" clip-rule="evenodd" d="M32.7943 19.0177H32.2432L32.8523 19.1776L32.7943 19.0177Z" fill="black"/>
<path fill-rule="evenodd" clip-rule="evenodd" d="M29.0342 18.4673C28.48 18.3991 27.9114 18.3901 27.3572 18.5119C27.1314 18.8153 27.1158 19.1239 27.0171 19.4091C27.6908 18.6666 27.9581 18.6212 29.0342 18.4673V18.4673Z" fill="black"/>
<path fill-rule="evenodd" clip-rule="evenodd" d="M36.592 22.2991C36.2837 22.5452 36.2529 22.7769 35.3411 23.0545C34.6762 23.2118 34.3005 22.9452 33.9875 22.5869C34.462 22.7228 34.5379 23.0813 35.8102 22.6794L36.592 22.2991Z" fill="black"/>
<path fill-rule="evenodd" clip-rule="evenodd" d="M33.8285 22.4531C33.6066 23.0634 33.3674 23.6802 33.1261 24.2518C32.5517 24.9254 32.7965 24.5415 31.9366 25.5879C32.2118 25.1634 32.5696 24.7555 32.757 24.3134C32.8885 24.0223 33.0523 23.7135 33.1249 23.4548C32.8969 23.341 32.4302 23.332 32.3669 23.3728C31.6024 23.8238 31.4644 24.301 31.0137 24.7657C31.3404 24.2434 31.6194 23.6734 31.9981 23.2034C32.0413 23.1424 32.3217 23.1306 32.494 23.0946C32.2262 23.0486 31.7304 22.9524 31.6905 22.9567C31.1917 23.0766 30.9122 23.511 30.542 23.7995C30.8119 23.4098 31.0606 23.004 31.4034 22.6689C31.4373 22.6295 32.3637 22.7107 32.8439 22.9023L32.8535 23.0933L33.1261 23.2034L33.3312 22.6895L33.8285 22.4531Z" fill="black"/>
<path fill-rule="evenodd" clip-rule="evenodd" d="M27.7787 26.1326C27.6556 26.0906 26.5687 25.9508 26.5687 25.9836C26.1513 26.2806 26.088 26.5648 26.097 26.811C26.7913 26.1279 26.7654 26.126 27.7787 26.1326L27.7787 26.1326Z" fill="black"/>
<path fill-rule="evenodd" clip-rule="evenodd" d="M26.9532 21.2199C26.9532 21.2199 27.7375 21.1056 27.7222 21.1788C27.6654 21.451 27.8182 22.1142 27.835 22.0216L27.3941 22.3814C28.3176 21.9171 29.2897 22.0104 30.2756 21.9394C30.2756 21.9394 29.4455 21.7102 29.4962 21.703C29.6814 21.6768 29.4469 20.8373 29.3834 20.8191C29.5413 20.7657 29.6956 20.7254 29.8551 20.6855C28.668 20.3749 27.9816 20.5579 26.9531 21.22L26.9532 21.2199Z" fill="black"/>
<path fill-rule="evenodd" clip-rule="evenodd" d="M33.7413 21.8055L33.567 21.8929C33.5422 21.3822 32.9938 21.4197 32.5313 21.415L32.1519 21.3225C32.2672 21.4293 32.6239 21.4209 32.48 21.6514C32.3589 21.7161 32.3032 21.9937 32.2339 22.2269L32.0288 22.2372C32.3911 22.3788 32.7272 22.5029 33.126 22.6688L33.3619 22.7048L33.9258 22.4016L33.7413 21.8055Z" fill="black"/>
<path fill-rule="evenodd" clip-rule="evenodd" d="M28.5424 21.4612C28.4541 21.2865 28.01 21.3113 27.9143 21.4243C27.8365 21.5161 27.9094 22.1052 28.0092 22.0059C28.1534 21.8791 28.3418 21.8261 28.5681 21.8363C28.5966 21.7275 28.5865 21.6099 28.5424 21.4612L28.5424 21.4612Z" fill="white"/>
<path fill-rule="evenodd" clip-rule="evenodd" d="M32.8016 22.3388C32.8434 22.3082 32.9316 22.0129 32.9031 21.9246C32.8448 21.7161 32.4318 21.76 32.4318 21.76C32.331 21.8192 32.2427 22.1443 32.2795 22.2516C32.2971 22.3423 32.7353 22.3713 32.8016 22.3387L32.8016 22.3388Z" fill="white"/>
<path fill-rule="evenodd" clip-rule="evenodd" d="M15.1411 32.5299L15.402 32.5554C16.9486 33.3148 19.4951 34.4407 23.1819 33.8357L23.7603 34.7459C22.1367 35.5348 20.3904 35.3533 18.754 35.4086L15.1411 32.5299Z" fill="black"/>
<path fill-rule="evenodd" clip-rule="evenodd" d="M12.9204 26.5266L13.6952 29.779C15.7693 31.0756 19.3125 32.5606 22.2659 32.4408L21.6132 30.9433C15.4482 29.6341 14.9268 27.9791 12.9205 26.5264L12.9204 26.5266Z" fill="black"/>
<path fill-rule="evenodd" clip-rule="evenodd" d="M14.8484 19.8644C15.2271 22.3848 15.7325 24.2957 17.9242 25.8963C19.2675 26.8624 20.6009 27.8243 22.2226 28.6183C22.2226 28.6183 22.0805 29.3582 21.9616 29.345C17.1351 28.8089 13.6016 24.8068 13.1736 22.9789C13.5881 21.5767 14.1828 20.7008 14.8482 19.8644H14.8484Z" fill="black"/>
<path fill-rule="evenodd" clip-rule="evenodd" d="M17.1686 18.4363C17.8117 21.2298 19.3453 24.059 20.8695 26.6257C21.4283 27.3347 21.5745 27.6475 22.4357 28.0792C23.5997 28.4478 24.4229 28.3537 25.2678 28.2983C25.0363 27.8698 24.8305 27.4219 24.5647 27.0192C22.6728 25.523 23.5471 24.1607 24.0496 23.2982C22.9977 23.0324 21.6038 22.4675 21.4118 21.7244C21.103 19.3209 21.2598 18.5585 21.5688 17.324C20.1443 17.6243 18.7008 17.922 17.1685 18.4363L17.1686 18.4363Z" fill="black"/>
<path fill-rule="evenodd" clip-rule="evenodd" d="M11.9425 3.59863C11.4743 3.9045 11.0232 4.34185 10.5379 4.83893C9.73344 5.67165 9.19865 6.48396 8.37979 7.08618C8.21601 7.22739 7.75642 7.45482 7.17862 7.48855C6.90644 7.50213 6.72913 7.54717 6.229 7.48438C5.78791 7.24554 5.36887 7.40085 4.9599 7.89003C4.51145 8.53494 3.9435 9.75953 3.70733 10.5304C3.22059 12.4964 4.46155 14.1162 5.65159 15.3646C6.71026 16.3989 7.32062 17.0452 7.7553 17.9933C8.08441 18.6083 8.32822 19.4522 8.59218 20.044C8.68737 20.2316 8.66758 20.2306 8.92378 20.2871C9.47698 20.4052 10.2444 20.4061 10.9275 20.4648C11.2231 20.4689 11.629 20.4579 12.0136 20.4179C12.5436 20.3178 13.1662 20.2197 13.6881 20.0392C14.1981 19.9137 14.6524 19.7398 15.062 19.5797C15.0092 19.7589 14.619 19.9315 14.4727 20.1587C13.0844 22.146 12.7041 23.9144 12.9458 26.7047C13.0825 27.9414 13.3664 28.9666 13.7946 30.1396C13.9906 30.6764 14.4076 31.5266 14.8072 32.0913C15.9956 33.7705 18.6542 35.9268 22.3552 36.7568C23.0009 36.8451 23.7337 36.798 24.4228 36.6145C26.2495 36.0608 29.9722 34.7512 29.9722 34.7512C29.9722 34.7512 26.6676 35.0246 25.1542 34.875C24.8039 34.8202 24.4178 34.8016 24.1737 34.5628C24.1327 34.51 23.984 34.2104 24.0801 34.2077C24.2111 34.204 24.5873 34.0479 25.1681 33.9961C23.9281 33.8626 23.9457 33.8642 23.8552 33.6383C23.7145 33.2876 23.499 32.8084 23.2772 32.389C23.8221 32.435 25.0285 32.5027 25.438 32.0801C25.438 32.0801 24.724 32.1626 24.0931 32.0886C23.8806 32.0636 23.5184 31.9344 23.4096 31.8944C23.1264 31.7841 22.8932 31.7499 22.8388 31.6779C22.7405 31.4276 22.6738 31.3434 22.5551 31.0081C22.3943 30.5641 22.3816 30.0687 22.351 29.6154C22.7637 30.1241 23.2896 30.5523 23.9858 30.771C23.9947 30.7522 24.8889 31.1598 25.5384 30.9502L25.673 30.9067C25.673 30.9188 25.2427 30.9444 25.0849 30.8663C23.7642 30.3049 23.5654 29.8136 23.3521 29.5695L22.7818 28.7152C22.9552 28.3694 23.0533 28.3563 23.2831 28.3531C23.9783 28.4303 24.2807 28.4897 24.7037 28.3876C24.9895 28.9758 25.0668 29.5676 25.7175 29.9956C27.8853 30.6391 28.3563 29.8045 28.8813 29.0671C30.4411 30.2118 32.9803 30.5648 34.7438 29.087C36.9857 26.4928 37.6955 22.4032 37.4967 22.1697C37.2167 21.6947 36.8493 21.2048 36.5339 21.2725C35.4096 21.5795 34.995 22.1498 33.8809 22.0197C34.0136 22.0122 34.2367 22.0086 34.2385 21.996C34.3243 21.0527 34.2315 20.5962 34.1901 20.5179C33.8521 19.7723 33.4081 18.9877 33.0987 18.3996C33.0189 18.2777 32.7847 17.3512 32.3921 16.9852C32.2237 16.8414 31.8116 16.4623 31.8116 16.4623L31.7767 16.8652C31.7767 16.8652 31.9378 16.8896 31.9991 17.1392C32.2315 18.0854 33.4151 20.3228 33.502 20.43C33.9214 21.1072 33.5446 21.9508 33.8635 22.424C33.8942 22.4842 34.5141 22.4188 34.9947 22.4483C35.7849 22.2783 35.7515 21.9301 36.4341 21.8778C36.8939 21.8425 36.94 22.706 36.934 22.773C36.8483 23.7265 36.5582 24.8351 36.1143 25.8476C35.1914 27.6257 34.1578 29.2227 32.692 29.4454C30.9039 29.7578 29.9748 28.9761 29.0055 28.4783L28.6347 28.7946C27.3751 30.049 25.8794 29.9376 25.2676 28.2986C24.9631 27.6628 24.5662 27.2731 24.2264 26.7277L22.4244 28.0256C22.2744 28.3332 22.09 28.8184 21.866 29.3603C21.7102 29.737 21.5796 30.384 21.5881 30.9217C21.3571 31.3152 22.3882 32.9111 23.0397 33.8818C23.2319 34.1682 23.5908 34.6686 23.6028 34.6997C23.732 35.0349 24.015 35.3308 24.0321 35.3668C25.2416 36.9444 22.5064 36.5811 21.9415 36.4858C20.827 36.3082 19.7368 35.8427 18.7121 35.2201C18.6526 35.184 18.5934 35.1474 18.5344 35.1102C17.3166 34.3435 16.1962 33.3624 15.2435 32.3921C14.6754 31.7489 14.1345 30.4304 13.735 29.4957C13.1363 27.2483 12.277 23.353 14.6047 20.4012C14.7522 20.2324 14.9114 19.9515 15.047 19.8959C15.7386 19.4282 16.4895 19.1094 17.2971 18.9323L17.2156 18.4088C16.8123 18.5005 15.4543 18.9972 15.0703 19.205C14.1972 19.4582 13.4729 19.7225 12.3601 20.0011C11.9983 20.0454 11.6425 20.0462 11.2956 19.999C10.4951 19.8903 9.13059 19.9874 9.04356 19.9066C8.50151 19.1507 8.3531 17.7963 7.85853 17.0714L7.85269 17.0642L7.84643 17.0573C7.55811 16.6698 7.22205 16.3537 6.89109 16.0249C5.70586 14.8473 4.69143 13.7087 4.40748 12.5022C4.33607 12.1459 4.1522 11.7769 4.24993 10.7229L4.25173 10.7177L4.25344 10.7125C4.5386 9.72782 5.00249 8.92513 5.78982 8.12066C6.60915 8.13389 7.42014 8.15189 8.05184 8.27256C8.34166 8.32104 8.94435 8.39977 9.56684 8.63166C11.1424 9.2186 13.2242 10.1836 13.2242 10.1836C11.6615 9.32536 9.91417 8.21073 8.81073 7.98579C8.64656 7.96254 8.54565 7.88765 8.4969 7.75691C10.1565 6.78181 10.4601 5.63375 11.5517 4.60411C12.0506 4.38696 12.2451 4.2761 12.669 4.23005C16.5892 4.84991 19.0571 6.41133 21.0093 7.4554C21.8016 7.8863 22.5219 8.21213 23.2099 8.60454C23.8129 8.80289 25.6326 10.1767 26.1652 10.9174C26.7062 12.0597 27.1012 13.2936 27.4614 14.4842C27.7197 15.6951 27.9463 16.1864 27.9463 16.1864C27.9463 16.1864 27.7268 15.1735 27.7634 14.9915C27.991 15.0766 28.5292 15.2446 28.7523 15.2185C28.7523 15.2185 27.7558 14.7034 27.6252 14.2481C27.2062 12.7874 26.786 10.5133 26.6726 10.3948C26.3533 9.99293 25.0216 8.97379 24.2047 8.50237C23.8957 8.32404 23.7287 8.21342 23.7157 8.13502C23.9766 7.8714 24.2989 7.52268 24.5879 7.3011C24.8649 7.0887 25.1171 6.84917 25.5031 6.70583C27.2 5.94161 28.1702 6.99984 28.4004 6.78555C28.4004 6.78555 28.0354 6.36712 28.1975 6.436C28.3636 6.52595 28.9047 6.63201 28.9641 6.68724C29.5826 7.17101 31.1994 8.93912 32.1738 10.8047C32.4079 11.2617 32.503 11.5626 32.3945 12.1129C32.2856 12.6636 32.2014 12.9665 32.0827 13.3343C31.9755 13.5802 31.3688 15.2637 31.3711 15.4899C31.2489 16.4136 31.7673 17.57 31.7673 17.57C31.7722 17.2561 31.748 17.0888 31.7764 16.8643L31.8113 16.4632C31.8113 16.4632 31.7892 16.3565 31.7932 16.3142C31.8195 16.0368 31.8876 15.8036 31.9075 15.6448C32.1024 14.4384 32.441 13.57 32.8252 12.5114C32.9393 12.2443 33.0887 12.0957 33.0811 11.8923C33.0874 11.5313 32.7644 11.0469 32.531 10.5737C32.2956 10.0955 32.0142 9.56242 31.6448 9.00053C30.8026 7.78952 30.0847 6.84202 28.7701 6.24902C28.4023 6.08761 26.955 5.92979 26.4551 6.02357C25.8488 6.14989 25.3273 6.27446 24.9117 6.54068C24.2574 6.95961 23.7433 7.60822 23.1405 7.99041C21.8066 7.32338 21.1628 6.82417 21.0427 6.75536C20.25 6.33056 19.2982 5.83761 18.2742 5.37013C17.7833 4.91229 14.7345 3.81727 11.9428 3.59885L11.9425 3.59863ZM29.0052 28.4776C28.1831 27.8349 27.4911 27.1734 27.0349 26.4922C26.886 27.2934 26.3454 27.864 25.9276 28.4252C25.8445 28.5568 25.7845 28.7363 26.194 29.3082C26.3044 29.4606 26.7038 29.4867 26.9734 29.4727C26.6991 29.2654 26.2818 29.0461 26.2146 28.856C26.6971 29.1845 27.1438 29.2789 27.5476 29.226C27.6399 29.2157 27.7545 29.1178 27.8431 28.9672C28.0231 28.5805 28.164 28.4873 28.3064 28.3832L28.6346 28.7943L29.0052 28.4776Z" fill="black" stroke="black" stroke-width="0.11397"/>
</svg>
