<svg id="sources/MONGO" viewBox="0 0 40 40" fill="none" xmlns="http://www.w3.org/2000/svg">
<path d="M19.884 1.54834L20.8742 3.40812C21.0968 3.75132 21.3379 4.0551 21.622 4.33801C22.451 5.16703 23.2383 6.03547 23.9456 6.96536C25.6233 9.16835 26.755 11.6148 27.5631 14.2607C28.0478 15.877 28.311 17.535 28.3307 19.2116C28.4118 24.224 26.6935 28.5279 23.229 32.1049C22.6632 32.6707 22.058 33.1948 21.4087 33.6609C21.0655 33.6609 20.9031 33.3977 20.7617 33.1554C20.4985 32.7113 20.3373 32.2046 20.2562 31.7002C20.1344 31.0938 20.0544 30.4874 20.0938 29.8613V29.5784C20.066 29.5181 19.7634 1.69095 19.884 1.54834Z" fill="#599636"/>
<path d="M19.884 1.48691C19.8434 1.40575 19.8028 1.4672 19.7622 1.50662C19.7819 1.91243 19.6405 2.27419 19.419 2.61971C19.1755 2.96291 18.8532 3.22611 18.5297 3.50902C16.7325 5.06502 15.318 6.94451 14.1852 9.04663C12.6779 11.8757 11.901 14.9077 11.6808 18.0997C11.5799 19.2511 12.0448 23.3138 12.4077 24.4861C13.3979 27.5981 15.1765 30.2057 17.4804 32.469C18.0462 33.0139 18.6515 33.5195 19.2776 34.0053C19.4596 34.0053 19.4793 33.843 19.5211 33.7224C19.6009 33.4643 19.6617 33.2008 19.7031 32.9339L20.1089 29.9031L19.884 1.48691Z" fill="#6CAC48"/>
<path d="M20.8742 34.8923C20.9148 34.4286 21.1374 34.0436 21.3797 33.6598C21.1362 33.559 20.9553 33.3584 20.8139 33.1346C20.6921 32.9328 20.5913 32.6905 20.5124 32.4679C20.2295 31.6192 20.1692 30.7287 20.0881 29.8614V29.3362C19.9872 29.4173 19.9663 30.1037 19.9663 30.2058C19.9073 31.1224 19.7857 32.034 19.6022 32.934C19.5419 33.2981 19.5014 33.661 19.2776 33.9845C19.2776 34.0251 19.2776 34.0656 19.2973 34.1259C19.6614 35.1973 19.7611 36.2883 19.8225 37.4003V37.8061C19.8225 38.2907 19.8028 38.1887 20.2052 38.351C20.3675 38.4113 20.5484 38.4322 20.7107 38.5528C20.8324 38.5528 20.8521 38.4519 20.8521 38.3707L20.7919 37.704V35.8443C20.7721 35.5196 20.8324 35.1973 20.873 34.8935L20.8742 34.8923Z" fill="#C2BFBF"/>
</svg>
