<svg id="sources/MSSQL" viewBox="0 0 40 40" fill="none" xmlns="http://www.w3.org/2000/svg">
<path d="M24.228 18.8943L17.5526 21.0741L11.745 23.6372L10.1203 24.0662C9.70649 24.4597 9.27262 24.8584 8.80336 25.262C8.28871 25.706 7.80937 26.1097 7.44098 26.4023C7.03231 26.7253 6.42682 27.3307 6.11906 27.7141C5.65988 28.2893 5.2966 28.8999 5.14018 29.3692C4.86264 30.2169 4.99894 31.0746 5.53377 31.8668C6.21997 32.8759 7.58738 33.9052 9.18176 34.6066C9.99417 34.9649 11.3615 35.424 12.3908 35.6813C14.1012 36.1152 17.4113 36.5845 19.2327 36.6552C19.601 36.6703 20.0955 36.6703 20.1156 36.6552C20.156 36.6299 20.4386 36.09 20.7666 35.419C21.8868 33.1333 22.6941 30.9888 23.133 29.1573C23.3954 28.0473 23.6022 26.5689 23.7384 24.8181C23.7738 24.3286 23.7889 22.6888 23.7586 22.1337C23.7131 21.2255 23.6324 20.4889 23.5064 19.7674C23.4862 19.6614 23.4811 19.5655 23.4912 19.5605C23.5113 19.5453 23.5719 19.5252 24.3943 19.2879L24.2279 18.8945V18.8943H24.228V18.8943ZM22.7042 19.7874C22.7647 19.7874 22.9262 21.3364 22.9665 22.3153C22.9766 22.5222 22.9715 22.6584 22.9615 22.6584C22.9211 22.6584 22.1087 22.1791 21.5286 21.8159C21.024 21.498 20.0653 20.8622 19.914 20.7411C19.8634 20.7058 19.8685 20.7008 20.2823 20.5594C20.9836 20.3223 22.6487 19.7874 22.7042 19.7874V19.7874ZM19.3034 20.9076C19.3488 20.9076 19.4648 20.9731 19.7423 21.1447C20.7817 21.7956 22.1946 22.5828 22.8 22.8452C22.9867 22.9259 23.0068 22.8956 22.578 23.1883C21.6597 23.8139 20.5143 24.4295 19.1116 25.0501C18.8644 25.1611 18.6575 25.2468 18.6525 25.2468C18.6424 25.2468 18.6726 25.1208 18.7129 24.9694C19.051 23.7129 19.2428 22.4414 19.2529 21.4222C19.258 20.9176 19.258 20.9176 19.3034 20.9025C19.2933 20.9076 19.2983 20.9076 19.3034 20.9076V20.9076ZM18.6021 21.175C18.6323 21.2052 18.6121 22.3355 18.5717 22.6433C18.4809 23.38 18.3396 24.0661 18.1076 24.8382C18.0521 25.0248 18.0016 25.1813 17.9916 25.1913C17.9713 25.2165 17.28 24.5404 17.053 24.2781C16.6594 23.8239 16.3517 23.3698 16.1246 22.9258C16.0086 22.6987 15.827 22.2548 15.8421 22.2396C15.9228 22.1841 18.5819 21.1548 18.6021 21.175ZM15.3021 22.4717C15.3072 22.4717 15.3122 22.4717 15.3173 22.4767C15.3274 22.4868 15.3628 22.5676 15.393 22.6584C15.5544 23.0974 15.9177 23.7432 16.2306 24.157C16.5737 24.6111 17.0228 25.0954 17.3961 25.4133C17.5172 25.5142 17.6282 25.6101 17.6433 25.6252C17.6736 25.6555 17.6837 25.6504 16.8612 25.9633C15.9077 26.3266 14.8682 26.6899 13.6774 27.0733C13.3929 27.165 13.1087 27.2575 12.8248 27.3508C12.7793 27.366 12.7945 27.3407 12.9257 27.1339C13.516 26.2105 14.4141 24.3992 14.9187 23.1175C15.0045 22.8955 15.0903 22.6736 15.1054 22.6231C15.1256 22.5524 15.1508 22.5272 15.2164 22.4919C15.2517 22.4819 15.287 22.4717 15.3021 22.4717V22.4717ZM14.2931 22.8905C14.3082 22.9006 14.0509 23.4405 13.7986 23.9349C13.3091 24.8886 12.7743 25.8271 12.0578 26.9674C11.9367 27.1642 11.8207 27.3459 11.8056 27.366C11.7804 27.4014 11.7702 27.3912 11.6895 27.2349C11.518 26.8968 11.3766 26.4628 11.301 26.0642C11.2252 25.6706 11.2404 24.9845 11.3262 24.5606C11.3917 24.2478 11.3868 24.2529 11.5381 24.1772C12.184 23.8492 14.2729 22.8703 14.2931 22.8905V22.8905ZM22.9968 23.2437V23.4556C22.9968 24.5808 22.8758 26.1248 22.6991 27.25C22.6688 27.4468 22.6435 27.6082 22.6385 27.6133C22.6385 27.6133 22.4922 27.573 22.3207 27.5224C21.5639 27.2853 20.7414 26.9371 19.9997 26.5285C19.5102 26.2611 18.7988 25.822 18.819 25.8018C18.824 25.7968 19.0359 25.6858 19.2831 25.5546C20.2722 25.04 21.2207 24.485 22.0431 23.935C22.351 23.7281 22.8151 23.3951 22.9161 23.3043L22.9968 23.2437ZM10.4835 24.7372C10.5037 24.7372 10.4987 24.7775 10.4684 24.9592C10.4482 25.0904 10.423 25.3326 10.413 25.499C10.3725 26.2357 10.4937 26.7807 10.857 27.5274C10.9579 27.7343 11.0387 27.9059 11.0335 27.9109C10.9982 27.9412 7.65804 28.9201 6.60847 29.2077C6.29566 29.2934 6.02325 29.3691 6.00296 29.3741C5.96771 29.3842 5.96264 29.3792 5.97776 29.2934C6.09379 28.5517 6.65894 27.5829 7.44603 26.7655C7.9708 26.2206 8.38962 25.9027 9.10609 25.494C9.62075 25.2014 10.4129 24.7625 10.4735 24.7422C10.4735 24.7372 10.4785 24.7372 10.4835 24.7372V24.7372ZM18.3548 26.1449C18.3598 26.1399 18.4809 26.2055 18.6272 26.2913C19.707 26.917 21.2106 27.4972 22.4921 27.7949L22.6083 27.8202L22.4468 27.9109C21.7757 28.2843 19.5708 29.2026 17.3154 30.0452C16.9874 30.1663 16.6645 30.2874 16.6039 30.3126C16.5433 30.3378 16.4878 30.353 16.4878 30.348C16.4878 30.3429 16.5787 30.1663 16.6947 29.9494C17.3254 28.7687 17.9612 27.3307 18.2841 26.3316C18.3245 26.2358 18.3497 26.15 18.3548 26.1449V26.1449ZM17.5526 26.4073C17.5577 26.4125 17.5173 26.5183 17.4668 26.6394C17.0278 27.704 16.4525 28.8646 15.7159 30.1664C15.5293 30.4994 15.3728 30.7669 15.3677 30.7669C15.3627 30.7669 15.2113 30.676 15.0297 30.565C13.9599 29.909 13.0114 29.1017 12.3908 28.3197L12.3 28.2086L12.7591 28.0825C14.404 27.6335 15.8016 27.1491 17.1892 26.5537C17.386 26.473 17.5475 26.4073 17.5526 26.4073V26.4073ZM22.5377 28.1481C22.5377 28.1481 22.5427 28.1531 22.5377 28.1481C22.5427 28.2641 22.2854 29.3036 22.0734 30.0553C21.8968 30.686 21.7454 31.1805 21.468 32.0534C21.3469 32.4369 21.241 32.7547 21.2359 32.7547C21.2308 32.7547 21.2006 32.7497 21.1703 32.7397C19.6718 32.4671 18.3296 32.0887 17.0682 31.5842C16.7149 31.4429 16.2104 31.2158 16.1801 31.1906C16.1701 31.1804 16.4728 31.0392 16.8563 30.8727C19.1521 29.8686 21.5336 28.7283 22.351 28.2389C22.4468 28.1783 22.5225 28.1481 22.5377 28.1481V28.1481ZM11.0285 28.5417C11.0386 28.5517 10.3978 29.4751 9.49964 30.7315C9.18683 31.1705 8.82356 31.6851 8.68735 31.8768C8.55109 32.0686 8.34425 32.3713 8.22819 32.553L8.01617 32.8809L7.78911 32.6892C7.52167 32.4672 7.05753 31.9929 6.85066 31.7305C6.4167 31.1907 6.12411 30.6205 6.00805 30.1009C5.95254 29.8586 5.95254 29.7375 6.00293 29.7224C6.0786 29.7022 7.42581 29.3843 8.6873 29.0916C9.38865 28.9302 10.2009 28.7385 10.4936 28.6679C10.7863 28.5971 11.0235 28.5417 11.0285 28.5417V28.5417ZM11.6743 28.7889L11.8357 28.9705C12.5624 29.7829 13.3041 30.3834 14.2022 30.9081C14.3637 30.999 14.4848 31.0796 14.4746 31.0848C14.4394 31.11 11.3564 32.2048 9.92853 32.6993C9.12631 32.9818 8.46528 33.2088 8.4603 33.2088C8.45528 33.2088 8.40984 33.1786 8.3593 33.1433L8.26853 33.0777L8.41484 32.8658C8.8891 32.1796 9.48458 31.4278 10.7813 29.8636L11.6743 28.7889ZM15.7008 31.6699C15.7058 31.6649 15.9278 31.7456 16.2002 31.8466C16.8563 32.0938 17.3759 32.2502 18.0723 32.4268C18.93 32.6438 20.1712 32.8557 20.9029 32.9163C21.0139 32.9263 21.0745 32.9365 21.0543 32.9516C21.0189 32.9718 20.2772 33.219 19.7323 33.3906C18.8644 33.663 16.2154 34.4451 14.0559 35.0657C13.6573 35.1818 13.3142 35.2777 13.294 35.2827C13.2436 35.2928 13.077 35.2473 13.077 35.2271C13.077 35.2171 13.1981 35.0607 13.3445 34.8891C14.071 34.0213 14.7926 33.0525 15.393 32.1342C15.5595 31.8818 15.7008 31.675 15.7008 31.6699ZM14.8127 31.6952C14.8177 31.7003 14.4595 32.2754 13.8339 33.2644C13.5665 33.6832 13.2688 34.1574 13.1628 34.324C13.0619 34.4854 12.9105 34.7378 12.8248 34.879L12.6784 35.1364L12.6027 35.1162C12.4211 35.0657 11.1445 34.6166 10.8065 34.4804C10.3876 34.3138 9.95373 34.1121 9.63077 33.9405C9.22718 33.7235 8.72264 33.4006 8.76297 33.3905C8.77304 33.3855 9.46432 33.1988 10.2968 32.9718C12.5068 32.3712 13.7329 32.0231 14.5352 31.7709C14.6816 31.7255 14.8077 31.6901 14.8127 31.6952ZM21.0946 33.1685H21.0996C21.1198 33.219 20.3025 35.4895 20.0046 36.206C19.9391 36.3674 19.914 36.4079 19.8786 36.4027C19.7928 36.3978 18.6071 36.2312 17.8855 36.1253C16.6292 35.9335 14.5201 35.5651 13.9903 35.4441L13.8692 35.4189L14.6209 35.2472C16.2356 34.884 17.0126 34.6872 17.7997 34.445C18.7938 34.1423 19.7777 33.7638 20.7717 33.2997C20.9281 33.229 21.0593 33.1735 21.0946 33.1685Z" fill="url(#paint0_linear_1031_41238)"/>
<path d="M17.3458 3.33351C17.2348 3.31846 15.4435 3.96429 14.2881 4.43348C12.7289 5.06931 11.518 5.67482 10.7712 6.19946C10.4938 6.39632 10.1456 6.74443 10.0901 6.88064C10.07 6.9311 10.0598 6.99164 10.0598 7.05219L10.736 7.693L12.3455 8.20765L16.1752 8.89388L20.5548 9.64569L20.6002 9.26727C20.5851 9.26727 20.575 9.26225 20.56 9.26225L19.9846 9.17139L19.8686 8.96454C19.2732 7.91501 18.6173 6.61322 18.2338 5.73527C17.9362 5.05409 17.6536 4.26705 17.4971 3.7019C17.4114 3.3588 17.4013 3.33863 17.3459 3.3336V3.33349H17.3458V3.33351ZM17.2649 3.59092H17.2701C17.2751 3.5959 17.2953 3.73727 17.3155 3.90368C17.4012 4.61017 17.5577 5.29123 17.8049 6.02793C17.9916 6.58297 17.9916 6.55273 17.7747 6.48709C17.26 6.34586 14.9541 5.94724 13.284 5.71514C13.0166 5.6798 12.7895 5.6445 12.7895 5.63948C12.7694 5.61931 13.9954 4.97845 14.5353 4.72623C15.2266 4.40828 17.1237 3.61612 17.2649 3.59092V3.59092ZM12.4009 5.85135L12.5978 5.91687C13.6674 6.28022 16.3567 6.79489 17.8402 6.91598C18.0067 6.93113 18.148 6.9463 18.153 6.9463C18.158 6.95132 18.0168 7.02701 17.8351 7.11275C17.1187 7.471 16.3315 7.90999 15.7866 8.24806C15.6252 8.34893 15.4788 8.42971 15.4587 8.42971C15.4385 8.42971 15.3325 8.40952 15.2215 8.39437L15.0197 8.36405L14.5152 7.86955C13.6272 7.00679 12.9308 6.34078 12.6634 6.08845L12.4009 5.85135V5.85135ZM12.1992 6.00773L12.9106 6.89581C13.2991 7.38524 13.6927 7.86455 13.7785 7.97046C13.8642 8.07649 13.9349 8.1623 13.9299 8.16733C13.9097 8.18245 12.9006 7.98563 12.3657 7.86459C11.8157 7.73841 11.5887 7.67787 11.2506 7.57196L10.9731 7.4811V7.41041C10.9781 7.07234 11.407 6.5678 12.1336 6.0532L12.1992 6.00773ZM18.2439 7.21871C18.2641 7.21871 18.2892 7.26411 18.3498 7.40034C18.5213 7.77874 19.0563 8.79801 19.1873 8.99476C19.2278 9.06042 19.2983 9.06545 18.587 8.94939C16.8766 8.67181 16.3265 8.58109 16.3265 8.57099C16.3265 8.56597 16.377 8.53062 16.4426 8.49528C16.9724 8.20269 17.5072 7.82927 17.9815 7.43065C18.0976 7.33477 18.2035 7.24396 18.2237 7.22879C18.2287 7.21871 18.2388 7.21369 18.2439 7.21871Z" fill="url(#paint1_linear_1031_41238)"/>
<path d="M10.1251 6.81006C10.1251 6.81006 10.0142 6.98673 10.1201 7.24912C10.1858 7.41052 10.3775 7.60727 10.5944 7.80914C10.5944 7.80914 12.8397 9.99893 13.1122 10.3118C14.3534 11.7447 14.8933 13.1575 14.9438 15.1052C14.9741 16.3565 14.7368 17.4565 14.1465 18.733C13.097 21.0238 10.882 23.5517 7.46606 26.3571L7.96566 26.1906C8.28857 25.9483 8.72756 25.6911 9.75684 25.1259C12.1333 23.8241 14.8075 22.6283 18.0872 21.3971C22.8099 19.621 30.5752 17.5422 34.9951 16.8661L35.4544 16.7954L35.3837 16.6844C34.9801 16.0587 34.7025 15.6703 34.3695 15.2565C33.4008 14.0556 32.2252 13.0819 30.7871 12.2745C28.8092 11.1696 26.251 10.3068 23.0118 9.66598C22.4012 9.54482 21.0591 9.31275 19.9692 9.14625C17.6583 8.7881 16.1648 8.54081 14.5199 8.25825C13.9296 8.15729 13.0466 8.00596 12.4613 7.87985C12.1585 7.81419 11.5783 7.67798 11.1242 7.52158C10.7609 7.38023 10.2361 7.23895 10.1251 6.81006V6.81006ZM11.427 8.07153C11.432 8.06655 11.5127 8.09673 11.6187 8.13207C11.8104 8.19759 12.0577 8.2733 12.3504 8.35409C12.5718 8.415 12.7939 8.47386 13.0164 8.53066C13.3191 8.60631 13.5714 8.67697 13.5764 8.67697C13.6118 8.71231 14.1214 10.3419 14.293 10.9676C14.3585 11.2048 14.409 11.4066 14.404 11.4066C14.3988 11.4117 14.3434 11.3259 14.2778 11.2099C13.6874 10.1704 12.754 9.11591 11.6742 8.26821C11.533 8.16739 11.427 8.07655 11.427 8.07153ZM13.9095 8.75773C13.9347 8.75773 14.0457 8.77288 14.1819 8.80313C15.0396 8.99485 16.5786 9.28751 17.5625 9.45403C17.729 9.47923 17.8602 9.50957 17.8602 9.5196C17.8602 9.52975 17.7996 9.565 17.7239 9.60541C17.5575 9.69115 16.8863 10.0897 16.6644 10.2411C16.1043 10.6145 15.5998 11.0181 15.2364 11.3814C15.0901 11.5278 14.9639 11.6489 14.9639 11.6489C14.9639 11.6489 14.9338 11.5631 14.9084 11.4571C14.7269 10.7557 14.3484 9.7163 14.0053 8.98473C13.9498 8.86872 13.9043 8.76273 13.9043 8.75268C13.9043 8.76276 13.9043 8.75773 13.9095 8.75773V8.75773ZM18.279 9.59026C18.3092 9.60032 18.3597 9.77189 18.4606 10.1503C18.6473 10.882 18.7331 11.6993 18.7028 12.4612C18.6927 12.6732 18.6826 12.8699 18.6725 12.8952L18.6574 12.9456L18.395 12.8599C17.8551 12.6883 16.9772 12.4309 16.2255 12.219C15.7965 12.103 15.4484 11.997 15.4484 11.987C15.4484 11.9566 16.0741 11.331 16.3415 11.0939C16.851 10.6447 18.2335 9.57509 18.279 9.59026V9.59026ZM18.6271 9.64066C18.6423 9.62561 20.716 9.98376 21.6596 10.1654C22.361 10.3016 23.3802 10.5136 23.4407 10.5389C23.471 10.5489 23.365 10.6094 23.0269 10.7608C21.6949 11.3613 20.7059 11.9011 19.7221 12.5571C19.4647 12.7287 19.2478 12.8699 19.2427 12.8699C19.2377 12.8699 19.2327 12.7236 19.2327 12.547C19.2327 11.5884 19.0409 10.6196 18.6876 9.80218C18.6523 9.72145 18.6221 9.64578 18.6271 9.64066V9.64066ZM23.9906 10.7003C24.0058 10.7154 23.9402 11.1242 23.8796 11.3663C23.698 12.1181 23.2086 13.2333 22.6082 14.2827C22.5022 14.4694 22.4063 14.6208 22.3962 14.6258C22.3862 14.6309 22.2499 14.5551 22.0935 14.4643C21.5082 14.1212 20.8422 13.7983 20.1156 13.4955C19.9138 13.4098 19.7372 13.3391 19.7321 13.3291C19.6967 13.2988 21.3215 12.2241 22.1793 11.7094C22.8604 11.2957 23.9704 10.6801 23.9906 10.7003V10.7003ZM24.3741 10.7608C24.4195 10.7608 25.3378 11.0131 25.8171 11.1544C27.0029 11.5076 28.3652 12.0071 29.2532 12.4108L29.6215 12.5773L29.3643 12.6378C27.1947 13.1373 25.3378 13.7126 23.5466 14.4392C23.4003 14.4997 23.2691 14.5502 23.2591 14.5502C23.2489 14.5502 23.2994 14.4341 23.365 14.2928C23.9049 13.1475 24.253 11.9516 24.3387 10.9324C24.3439 10.8365 24.3589 10.7608 24.3741 10.7608V10.7608ZM15.2314 12.8599C15.2465 12.8447 15.9479 13.0112 16.3263 13.1171C16.9015 13.2786 18.1225 13.6873 18.1225 13.7176C18.1225 13.7226 17.9863 13.8387 17.8249 13.98C17.1639 14.53 16.5281 15.1101 15.7662 15.8468C15.5391 16.0639 15.3475 16.2405 15.3374 16.2405C15.3273 16.2405 15.3223 16.2101 15.3273 16.1698C15.4433 15.3221 15.4181 14.2322 15.2567 13.1272C15.2415 12.9859 15.2264 12.8649 15.2314 12.8599V12.8599ZM29.9698 12.875C29.9798 12.8851 29.6468 13.4098 29.4349 13.7075C29.1322 14.1414 28.6881 14.7167 27.684 15.9781C27.1543 16.6441 26.5588 17.3959 26.3621 17.6482C26.1602 17.9004 25.9938 18.1123 25.9887 18.1123C25.9836 18.1123 25.9181 18.0216 25.8475 17.9106C25.2823 17.0629 24.6062 16.3211 23.8039 15.6551C23.6525 15.529 23.4861 15.3927 23.4306 15.3524C23.3751 15.312 23.3296 15.2716 23.3296 15.2666C23.3296 15.2515 24.1873 14.8831 24.8383 14.6208C25.9787 14.1566 27.5326 13.6016 28.6982 13.2433C29.3087 13.0516 29.9597 12.8649 29.9698 12.875V12.875ZM30.3583 12.9759C30.3784 12.9709 30.4995 13.0314 30.6459 13.1171C31.872 13.8185 33.0728 14.7217 34.0215 15.6501C34.2888 15.9125 34.9498 16.5987 34.9397 16.6037C34.9397 16.6037 34.7076 16.6239 34.4352 16.6441C32.3109 16.8056 29.5914 17.2546 26.9777 17.8853C26.8011 17.9256 26.6447 17.9609 26.6346 17.9609C26.6246 17.9609 26.8213 17.7642 27.0686 17.5271C28.6024 16.0487 29.3038 15.1152 30.1312 13.4501C30.2473 13.203 30.3482 12.991 30.3583 12.9759C30.3532 12.9759 30.3532 12.9759 30.3583 12.9759V12.9759ZM19.1216 14.1263C19.1923 14.1414 19.8482 14.4493 20.3426 14.6965C20.7968 14.9234 21.478 15.2868 21.5133 15.317C21.5183 15.3221 21.276 15.4482 20.9785 15.5946C20.0298 16.0689 19.2175 16.5179 18.3698 17.0325C18.1276 17.1789 17.9258 17.3001 17.9208 17.3001C17.9006 17.3001 17.9056 17.2798 18.0418 17.0325C18.496 16.2051 18.8592 15.2162 19.0662 14.2524C19.0863 14.1767 19.1065 14.1263 19.1216 14.1263V14.1263ZM18.4656 14.2474C18.4808 14.2626 18.3092 14.8831 18.2033 15.2212C17.9964 15.862 17.6483 16.6642 17.3102 17.2697C17.2294 17.4109 17.1084 17.6178 17.0428 17.7339L16.9167 17.9357L16.6341 17.6633C16.3062 17.3454 16.0387 17.1486 15.6956 16.972C15.5593 16.9014 15.4534 16.8408 15.4534 16.8308C15.4534 16.7904 16.3162 16.0083 16.9772 15.4432C17.4515 15.0345 18.4505 14.2323 18.4656 14.2474V14.2474ZM22.477 15.8974L22.7243 16.0588C23.2893 16.4272 23.9553 16.9165 24.465 17.3454C24.7525 17.5825 25.3075 18.0821 25.4186 18.2032L25.4791 18.2688L25.0705 18.3849C22.7595 19.0256 20.9734 19.5958 18.8895 20.3628C18.6574 20.4485 18.4606 20.5191 18.4454 20.5191C18.4152 20.5191 18.3899 20.5443 18.9097 20.065C20.2418 18.839 21.4224 17.4867 22.3004 16.1697L22.477 15.8974V15.8974ZM21.4224 16.1597C21.4325 16.1698 20.7413 17.1436 20.3275 17.6936C19.833 18.3495 18.955 19.4494 18.3496 20.1659C18.0974 20.4636 17.8804 20.7108 17.8703 20.7159C17.8551 20.7209 17.8501 20.6453 17.8501 20.5292C17.8501 19.9186 17.6937 19.2677 17.4212 18.7128C17.3052 18.4807 17.285 18.4252 17.3103 18.4C17.4061 18.3141 18.8744 17.4766 19.8028 16.9771C20.4284 16.6441 21.4072 16.1496 21.4224 16.1597V16.1597ZM15.0447 17.7239C15.0598 17.7239 15.1759 17.7844 15.3071 17.8551C15.63 18.0316 15.9176 18.2284 16.1749 18.4404C16.185 18.4504 16.0539 18.5564 15.8823 18.6825C15.4029 19.0256 14.6764 19.5756 14.2526 19.9137C13.8085 20.2669 13.7935 20.277 13.8439 20.2013C14.1769 19.6917 14.3433 19.4041 14.52 19.0358C14.6764 18.7078 14.8328 18.3193 14.9438 17.9812C14.9841 17.8349 15.0346 17.7239 15.0447 17.7239ZM16.7451 19.0559C16.7703 19.0509 16.8006 19.0963 16.9368 19.2981C17.2244 19.7269 17.4464 20.3022 17.502 20.7664L17.512 20.8674L16.8208 21.1348C15.5846 21.6141 14.4443 22.0884 13.6722 22.4415C13.4553 22.5425 13.0769 22.7241 12.8297 22.8453C12.5824 22.9713 12.3806 23.0672 12.3806 23.0622C12.3806 23.0572 12.537 22.9411 12.7287 22.7998C14.2375 21.7049 15.5442 20.504 16.5231 19.3032C16.6291 19.177 16.725 19.0609 16.735 19.0559L16.7451 19.0559V19.0559ZM15.9631 19.2477C15.9833 19.2678 15.4081 19.9187 15.0145 20.3173C14.0407 21.3113 13.0769 22.0884 11.8811 22.8453C11.7297 22.9411 11.5935 23.0269 11.5784 23.037C11.543 23.0572 11.5884 23.0067 12.1132 22.4365C12.4462 22.0783 12.6985 21.7755 12.9861 21.4022C13.1778 21.155 13.2132 21.1197 13.4907 20.9228C14.2324 20.3879 15.9429 19.2274 15.9631 19.2477Z" fill="url(#paint2_radial_1031_41238)"/>
<defs>
<linearGradient id="paint0_linear_1031_41238" x1="10.0222" y1="33.3692" x2="12.436" y2="31.9429" gradientUnits="userSpaceOnUse">
<stop stop-color="#909CA9"/>
<stop offset="1" stop-color="#EDEDEE"/>
</linearGradient>
<linearGradient id="paint1_linear_1031_41238" x1="10.0775" y1="6.47973" x2="12.0197" y2="6.47973" gradientUnits="userSpaceOnUse">
<stop stop-color="#939FAB"/>
<stop offset="1" stop-color="#DCDEE1"/>
</linearGradient>
<radialGradient id="paint2_radial_1031_41238" cx="0" cy="0" r="1" gradientUnits="userSpaceOnUse" gradientTransform="translate(19.8778 15.3875) rotate(-171.457) scale(2.50407 5.00939)">
<stop stop-color="#EE352C"/>
<stop offset="1" stop-color="#A91D22"/>
</radialGradient>
</defs>
</svg>
