<svg id="sources/MYSQL" viewBox="0 0 40 40" fill="none" xmlns="http://www.w3.org/2000/svg">
<path fill-rule="evenodd" clip-rule="evenodd" d="M20.0838 17.1229C19.0396 17.0938 18.2295 17.2009 17.5505 17.4865C17.355 17.565 17.0412 17.565 17.0155 17.8111C17.1199 17.9143 17.1325 18.0833 17.2241 18.2264C17.3807 18.4862 17.6552 18.8361 17.9031 19.0176L18.7387 19.6147C19.248 19.9259 19.8225 20.1077 20.3186 20.4192C20.606 20.601 20.8931 20.8346 21.1805 21.0294C21.3268 21.1333 21.4155 21.3023 21.5984 21.3668V21.3276C21.5071 21.2112 21.4807 21.0425 21.3897 20.9122L20.9975 20.5361C20.6191 20.03 20.1488 19.5885 19.6395 19.2255C19.2216 18.9399 18.3079 18.5507 18.1381 18.0708L18.1124 18.0417C18.3992 18.0127 18.7387 17.9117 19.0132 17.8338C19.4575 17.7174 19.862 17.743 20.3186 17.6264L20.9457 17.4446V17.3283C20.7107 17.0947 20.541 16.7832 20.2931 16.5627C19.6273 15.9918 18.8956 15.4336 18.1381 14.9665C17.7334 14.7071 17.211 14.5381 16.7801 14.3179C16.623 14.2399 16.3622 14.201 16.2709 14.0712C16.0353 13.7862 15.9051 13.4095 15.7353 13.0719L14.6647 10.8139C14.4297 10.3078 14.2857 9.80175 13.9989 9.33463C12.6538 7.12848 11.191 5.79199 8.94503 4.48109C8.46212 4.20856 7.88761 4.09134 7.2768 3.94882L6.29752 3.89647C6.08826 3.80572 5.87959 3.55907 5.69667 3.44215C4.9524 2.97503 3.03277 1.96285 2.48401 3.29672C2.13134 4.14021 3.00643 4.9706 3.30349 5.39904C3.52592 5.69746 3.81274 6.03485 3.9699 6.37225C4.05771 6.59272 4.08697 6.82657 4.17858 7.06013C4.38726 7.63108 4.58335 8.26718 4.85758 8.79945C5.00391 9.07199 5.15757 9.3579 5.34049 9.60426C5.44497 9.74969 5.62789 9.81193 5.66681 10.0455C5.48389 10.3052 5.47131 10.6941 5.36683 11.019C4.8965 12.4855 5.07942 14.3022 5.74525 15.3818C5.95451 15.7062 6.44767 16.4202 7.11671 16.1474C7.7044 15.9138 7.57328 15.1742 7.74303 14.5253C7.78254 14.3697 7.7562 14.2658 7.83434 14.1617V14.1908L8.36993 15.2678C8.7747 15.9036 9.48004 16.5656 10.0674 17.0072C10.3806 17.2407 10.6288 17.6433 11.0204 17.7858V17.7465H10.9946C10.9162 17.6302 10.7985 17.5778 10.694 17.4871C10.459 17.2535 10.198 16.9679 10.015 16.7084C9.46687 15.9819 8.98396 15.1771 8.55285 14.3467C8.34359 13.9444 8.16067 13.5032 7.99151 13.1009C7.91249 12.945 7.91249 12.7112 7.78225 12.6338C7.58616 12.9189 7.29934 13.1661 7.15505 13.5163C6.90687 14.0742 6.88111 14.762 6.7898 15.4758C6.73712 15.4889 6.76053 15.4758 6.73712 15.5049C6.31977 15.4013 6.17577 14.9726 6.01919 14.6096C5.6276 13.6882 5.56204 12.2089 5.90154 11.1446C5.99285 10.8721 6.38503 10.0155 6.22845 9.75608C6.14943 9.50944 5.88895 9.36692 5.74496 9.17204C5.57521 8.9254 5.39287 8.61418 5.27522 8.34164C4.96206 7.6145 4.80548 6.81028 4.46569 6.08343C4.30853 5.74603 4.03459 5.39555 3.81245 5.08433C3.56426 4.73385 3.29061 4.4872 3.09452 4.07215C3.02926 3.92672 2.93794 3.69578 3.04243 3.53988C3.06818 3.43604 3.12086 3.39445 3.22476 3.37118C3.39451 3.22575 3.87801 3.41015 4.04775 3.48752C4.53066 3.6824 4.93543 3.86389 5.34019 4.13614C5.52311 4.26586 5.71921 4.51251 5.95422 4.57766H6.22874C6.64668 4.6684 7.11642 4.60674 7.50772 4.72309C8.19989 4.94414 8.8265 5.26815 9.38843 5.61893C11.0988 6.69597 12.5095 8.22734 13.4624 10.0574C13.619 10.3558 13.6843 10.6284 13.8283 10.9399C14.1028 11.576 14.4423 12.2246 14.7159 12.8479C14.9905 13.4578 15.2515 14.0811 15.6431 14.5872C15.8392 14.8598 16.6224 15.0023 16.9748 15.1451C17.2361 15.2614 17.6406 15.3661 17.8762 15.5087C18.3199 15.7812 18.7639 16.0927 19.1815 16.3911C19.3902 16.5464 20.0434 16.871 20.0824 17.1299L20.0838 17.1229ZM6.76726 5.84579C6.58685 5.84421 6.407 5.86601 6.23226 5.91066V5.93974H6.25801C6.3625 6.14741 6.54542 6.29023 6.67595 6.47201L6.97652 7.09503L7.00228 7.06594C7.1852 6.93622 7.2768 6.72855 7.2768 6.41733C7.19837 6.32658 7.18549 6.23554 7.12022 6.1448C7.04179 6.01507 6.87204 5.94992 6.76726 5.84638V5.84579Z" fill="white"/>
</svg>
