<svg id="sources/NAS" viewBox="0 0 40 40" fill="none" xmlns="http://www.w3.org/2000/svg">
<circle cx="19.9999" cy="19.9999" r="16.6667" fill="#2E92A1"/>
<path d="M10 13.7501C10 13.1975 10.2195 12.6676 10.6102 12.2769C11.0009 11.8862 11.5308 11.6667 12.0833 11.6667H27.3611C27.9136 11.6667 28.4435 11.8862 28.8342 12.2769C29.2249 12.6676 29.4444 13.1975 29.4444 13.7501V17.9112C29.4444 18.0954 29.3713 18.272 29.241 18.4022C29.1108 18.5325 28.9342 18.6056 28.75 18.6056H20.4319V20.0001H21.8056C21.9897 20.0001 22.1664 20.0732 22.2966 20.2035C22.4268 20.3337 22.5 20.5103 22.5 20.6945V22.7779H23.8889C24.0731 22.7779 24.2497 22.851 24.3799 22.9813C24.5102 23.1115 24.5833 23.2881 24.5833 23.4723V24.8612H28.75C28.9342 24.8612 29.1108 24.9344 29.241 25.0646C29.3713 25.1948 29.4444 25.3715 29.4444 25.5556C29.4444 25.7398 29.3713 25.9165 29.241 26.0467C29.1108 26.1769 28.9342 26.2501 28.75 26.2501H24.5833V27.639C24.5833 27.8231 24.5102 27.9998 24.3799 28.13C24.2497 28.2603 24.0731 28.3334 23.8889 28.3334H15.5556C15.3714 28.3334 15.1947 28.2603 15.0645 28.13C14.9343 27.9998 14.8611 27.8231 14.8611 27.639V26.2501H10.6944C10.5103 26.2501 10.3336 26.1769 10.2034 26.0467C10.0732 25.9165 10 25.7398 10 25.5556C10 25.3715 10.0732 25.1948 10.2034 25.0646C10.3336 24.9344 10.5103 24.8612 10.6944 24.8612H14.8611V23.4723C14.8611 23.2881 14.9343 23.1115 15.0645 22.9813C15.1947 22.851 15.3714 22.7779 15.5556 22.7779H16.9444V20.6945C16.9444 20.5103 17.0176 20.3337 17.1478 20.2035C17.2781 20.0732 17.4547 20.0001 17.6389 20.0001H19.0431V18.6056H10.6944C10.5103 18.6056 10.3336 18.5325 10.2034 18.4022C10.0732 18.272 10 18.0954 10 17.9112V13.7501ZM25.9722 15.8334C26.1564 15.8334 26.333 15.7603 26.4633 15.63C26.5935 15.4998 26.6667 15.3231 26.6667 15.139C26.6667 14.9548 26.5935 14.7782 26.4633 14.6479C26.333 14.5177 26.1564 14.4445 25.9722 14.4445C25.788 14.4445 25.6114 14.5177 25.4812 14.6479C25.3509 14.7782 25.2778 14.9548 25.2778 15.139C25.2778 15.3231 25.3509 15.4998 25.4812 15.63C25.6114 15.7603 25.788 15.8334 25.9722 15.8334Z" fill="white"/>
</svg>
