<svg id="sources/S3" viewBox="0 0 40 40" fill="none" xmlns="http://www.w3.org/2000/svg">
<path d="M36.6666 3.33325H3.33325V36.6666H36.6666V3.33325Z" fill="url(#paint0_linear_1031_53130)"/>
<path fill-rule="evenodd" clip-rule="evenodd" d="M28.7767 21.1591L28.9409 19.9433C30.6842 20.9424 30.7201 21.3549 30.7193 21.3666C30.7159 21.3691 30.4242 21.6024 28.7767 21.1591ZM27.9701 20.9191C25.6017 20.1716 22.4201 18.7758 20.6026 17.9199C20.6026 17.9141 20.6059 17.9091 20.6059 17.9033C20.6059 17.3508 20.1559 16.9008 19.6034 16.9008C19.0509 16.9008 18.6009 17.3508 18.6009 17.9033C18.6009 18.4566 19.0509 18.9058 19.6034 18.9058C19.8451 18.9058 20.0584 18.8091 20.2317 18.6666C21.2892 19.1616 25.0626 20.8966 27.8567 21.7608L26.8742 29.0416C26.8742 29.7633 23.8126 30.8333 19.5834 30.8333C15.3542 30.8333 12.2926 29.7633 12.2884 28.9866L10.2359 13.8024C12.0484 15.1291 15.8951 15.8333 19.5834 15.8333C23.2717 15.8333 27.1192 15.1291 28.9317 13.8024L27.9701 20.9191ZM10.0026 12.0741C10.0267 11.3408 13.4201 9.16659 19.5834 9.16659C25.7459 9.16659 29.1417 11.3408 29.1667 12.0741V12.1691C29.0084 13.5258 25.1142 14.9999 19.5834 14.9999C14.0526 14.9999 10.1742 13.5258 10.0151 12.1699L10.0026 12.0741ZM30.0001 12.0833C30.0001 10.5541 25.9426 8.33325 19.5834 8.33325C13.2242 8.33325 9.16675 10.5541 9.16675 12.0833V12.1391L11.4592 29.0416C11.4592 30.7466 15.6442 31.6666 19.5834 31.6666C23.5217 31.6666 27.7076 30.7466 27.7034 29.0974L28.6634 21.9916C29.3476 22.1699 29.9009 22.2649 30.3267 22.2649C30.8209 22.2649 31.1551 22.1449 31.3567 21.9041C31.5226 21.7058 31.5859 21.4666 31.5376 21.2116C31.4234 20.5966 30.6642 19.9324 29.0751 19.0583L29.0576 19.0799L30.0001 12.1391V12.0833Z" fill="white"/>
<defs>
<linearGradient id="paint0_linear_1031_53130" x1="3.33325" y1="36.6666" x2="36.6666" y2="3.33325" gradientUnits="userSpaceOnUse">
<stop stop-color="#1B660F"/>
<stop offset="1" stop-color="#6CAE3E"/>
</linearGradient>
</defs>
</svg>
