<svg id="sources/SAMPLEDB" viewBox="0 0 40 40" fill="none" xmlns="http://www.w3.org/2000/svg">
<path fill-rule="evenodd" clip-rule="evenodd" d="M6.66675 10C6.66675 8.85004 7.19175 7.84504 7.95675 7.03337C8.71508 6.23004 9.75508 5.56171 10.9451 5.03004C13.3267 3.96171 16.5284 3.33337 20.0001 3.33337C23.4717 3.33337 26.6734 3.96171 29.0551 5.03004C30.2451 5.56337 31.2851 6.23004 32.0434 7.03337C32.8084 7.84504 33.3334 8.85004 33.3334 10V30C33.3334 31.15 32.8084 32.155 32.0434 32.9667C31.2851 33.77 30.2451 34.4384 29.0551 34.9717C26.6734 36.0384 23.4717 36.6667 20.0001 36.6667C16.5284 36.6667 13.3267 36.0384 10.9451 34.9717C9.75508 34.4384 8.71508 33.7717 7.95675 32.9667C7.19175 32.155 6.66675 31.15 6.66675 30V10ZM9.16675 10C9.16675 10.345 9.31675 10.7667 9.77508 11.25C10.2401 11.7434 10.9701 12.2434 11.9667 12.69C13.9584 13.5817 16.7984 14.1667 20.0001 14.1667C23.2017 14.1667 26.0417 13.5834 28.0334 12.69C29.0301 12.2434 29.7601 11.7434 30.2251 11.25C30.6834 10.7667 30.8334 10.345 30.8334 10C30.8334 9.65504 30.6834 9.23337 30.2251 8.75004C29.7601 8.25671 29.0301 7.75671 28.0334 7.31004C26.0417 6.41837 23.2001 5.83337 20.0001 5.83337C16.7984 5.83337 13.9584 6.41671 11.9667 7.31004C10.9701 7.75671 10.2401 8.25671 9.77508 8.75004C9.31675 9.23337 9.16675 9.65504 9.16675 10ZM30.8334 13.9867C30.3001 14.3534 29.7001 14.6817 29.0551 14.97C26.6734 16.0384 23.4717 16.6667 20.0001 16.6667C16.5284 16.6667 13.3267 16.0384 10.9451 14.97C10.3241 14.6962 9.72889 14.3671 9.16675 13.9867V16.6667C9.16675 17.0117 9.31675 17.4334 9.77508 17.9167C10.2401 18.41 10.9701 18.91 11.9667 19.3567C13.9584 20.2484 16.7984 20.8334 20.0001 20.8334C23.2017 20.8334 26.0417 20.25 28.0334 19.3567C29.0301 18.91 29.7601 18.41 30.2251 17.9167C30.6834 17.4334 30.8334 17.0117 30.8334 16.6667V13.9867ZM9.16675 23.3334V20.6534C9.72889 21.0337 10.3241 21.3628 10.9451 21.6367C13.3267 22.705 16.5284 23.3334 20.0001 23.3334C23.4717 23.3334 26.6734 22.705 29.0551 21.6367C29.7001 21.3484 30.3001 21.02 30.8334 20.6534V23.3334C30.8334 23.6784 30.6834 24.1 30.2251 24.5834C29.7601 25.0767 29.0301 25.5767 28.0334 26.0234C26.0417 26.9167 23.2017 27.5 20.0001 27.5C16.7984 27.5 13.9584 26.915 11.9667 26.0234C10.9701 25.5767 10.2401 25.0767 9.77508 24.5834C9.31675 24.1 9.16675 23.6784 9.16675 23.3334ZM9.16675 27.32V30C9.16675 30.345 9.31675 30.7667 9.77508 31.25C10.2401 31.7434 10.9701 32.2434 11.9667 32.69C13.9584 33.5817 16.7984 34.1667 20.0001 34.1667C23.2017 34.1667 26.0417 33.5834 28.0334 32.69C29.0301 32.2434 29.7601 31.7434 30.2251 31.25C30.6834 30.7667 30.8334 30.345 30.8334 30V27.32C30.3001 27.6867 29.7001 28.015 29.0551 28.3034C26.6734 29.3717 23.4717 30 20.0001 30C16.5284 30 13.3267 29.3717 10.9451 28.3034C10.3241 28.0295 9.72889 27.7004 9.16675 27.32Z" fill="#5EB825"/>
</svg>
