<svg id="sources/SYNAPSE" viewBox="0 0 40 40" fill="none" xmlns="http://www.w3.org/2000/svg">
<g clip-path="url(#clip0_1031_40880)">
<path d="M19.9999 3.33325L5.46289 11.6481V28.2592L19.9999 36.6666L34.537 28.3518V11.6851L19.9999 3.33325ZM31.8518 26.611L19.9999 33.4629L8.14808 26.6833V13.2962L19.9999 6.44436L31.8518 13.3147V26.611Z" fill="#0078D4"/>
<path d="M19.9999 3.33325L5.46289 11.6481L8.14808 13.2962L19.9999 6.44436L31.8518 13.2962L34.537 11.6481L19.9999 3.33325Z" fill="url(#paint0_linear_1031_40880)"/>
<path d="M26.9258 22.7313C26.7843 22.4985 26.5758 22.3139 26.3276 22.2017C25.5744 20.5573 24.4205 19.1284 22.9716 18.0458C21.5228 16.9633 19.8254 16.2617 18.035 16.0054L30.0295 9.07388L27.2406 7.47388L13.5813 15.3702C13.316 15.5229 13.1085 15.7591 12.9912 16.0419C12.874 16.3248 12.8535 16.6384 12.9329 16.9341C13.0123 17.2298 13.1872 17.491 13.4304 17.677C13.6736 17.8631 13.9714 17.9635 14.2776 17.9628C14.3341 17.9524 14.3898 17.9381 14.4443 17.9202L14.6758 18.8887C16.4173 18.478 18.2461 18.6632 19.87 19.4145C21.4938 20.1658 22.8188 21.44 23.6332 23.0331L10.0239 30.8979L12.8017 32.5016L26.4184 24.6294C26.5999 24.5209 26.7534 24.3712 26.8665 24.1924L27.0054 24.1591C26.9924 24.1054 26.9721 24.0572 26.9591 24.0035C27.0576 23.8048 27.1061 23.585 27.1003 23.3633C27.0945 23.1415 27.0346 22.9246 26.9258 22.7313V22.7313Z" fill="#50E6FF"/>
<path d="M25.7239 20.024C25.0463 20.024 24.384 20.2249 23.8206 20.6013C23.2572 20.9778 22.8181 21.5128 22.5588 22.1388C22.2995 22.7648 22.2316 23.4537 22.3638 24.1182C22.496 24.7828 22.8223 25.3932 23.3014 25.8724C23.7806 26.3515 24.391 26.6778 25.0556 26.81C25.7201 26.9422 26.409 26.8743 27.035 26.615C27.661 26.3557 28.196 25.9166 28.5725 25.3532C28.9489 24.7898 29.1499 24.1275 29.1499 23.4499C29.1499 22.5413 28.7889 21.6699 28.1464 21.0274C27.5039 20.3849 26.6325 20.024 25.7239 20.024V20.024ZM14.2758 13.0869C13.5982 13.0869 12.9358 13.2878 12.3724 13.6643C11.809 14.0407 11.3699 14.5758 11.1106 15.2018C10.8513 15.8278 10.7835 16.5166 10.9157 17.1812C11.0479 17.8458 11.3742 18.4562 11.8533 18.9353C12.3324 19.4145 12.9429 19.7407 13.6074 19.8729C14.272 20.0051 14.9608 19.9373 15.5868 19.678C16.2128 19.4187 16.7479 18.9796 17.1243 18.4162C17.5008 17.8528 17.7017 17.1904 17.7017 16.5128C17.7017 15.6042 17.3408 14.7328 16.6983 14.0903C16.0558 13.4479 15.1844 13.0869 14.2758 13.0869V13.0869Z" fill="url(#paint1_linear_1031_40880)"/>
</g>
<defs>
<linearGradient id="paint0_linear_1031_40880" x1="19.9999" y1="13.2962" x2="19.9999" y2="3.33325" gradientUnits="userSpaceOnUse">
<stop offset="0.199" stop-color="#005BA1"/>
<stop offset="1" stop-color="#0078D4"/>
</linearGradient>
<linearGradient id="paint1_linear_1031_40880" x1="19.9999" y1="26.8758" x2="19.9999" y2="13.124" gradientUnits="userSpaceOnUse">
<stop stop-color="#198AB3"/>
<stop offset="0.172" stop-color="#32BEDD"/>
<stop offset="0.5" stop-color="#198AB3"/>
<stop offset="0.662" stop-color="#32BEDD"/>
<stop offset="0.975" stop-color="#50E6FF"/>
</linearGradient>
<clipPath id="clip0_1031_40880">
<rect width="33.3333" height="33.3333" fill="white" transform="translate(3.33325 3.33325)"/>
</clipPath>
</defs>
</svg>
