<?xml version="1.0" encoding="utf-8"?>
<!--

    Copyright (C) 2017-2018 Dremio Corporation

    Licensed under the Apache License, Version 2.0 (the "License");
    you may not use this file except in compliance with the License.
    You may obtain a copy of the License at

        http://www.apache.org/licenses/LICENSE-2.0

    Unless required by applicable law or agreed to in writing, software
    distributed under the License is distributed on an "AS IS" BASIS,
    WITHOUT WARRANTIES OR CONDITIONS OF ANY KIND, either express or implied.
    See the License for the specific language governing permissions and
    limitations under the License.

-->
<!-- Generator: Adobe Illustrator 16.0.0, SVG Export Plug-In . SVG Version: 6.00 Build 0)  -->
<!DOCTYPE svg PUBLIC "-//W3C//DTD SVG 1.1//EN" "http://www.w3.org/Graphics/SVG/1.1/DTD/svg11.dtd">
<svg version="1.1" id="Layer_1" xmlns="http://www.w3.org/2000/svg" xmlns:xlink="http://www.w3.org/1999/xlink" x="0px" y="0px"
	 width="100px" height="100px" viewBox="0 0 100 100" enable-background="new 0 0 100 100" xml:space="preserve">
<g>
	<path fill-rule="evenodd" clip-rule="evenodd" fill="#6E7887" d="M60.632,64.623c-0.406,2.509-1.661,4.87-3.396,6.716
		c-1.145,1.181-3.358,2.952-5.13,2.509c-1.513-0.369-1.513-2.619-1.624-4.207c-3.357,1.44-6.975,2.547-10.406,3.949
		c-4.834,1.955-9.336,4.354-13.506,7.563c0.664,7.895-0.111,14.13-7.123,18.558c0.517-3.69-2.694-11.438-2.325-15.237
		C15.499,85.175,3.838,82.924,0,84.694c3.395-7.01,10.148-12.027,18.747-12.248c7.824-8.228,6.975-34.682,22.622-46.377
		c7.971-5.387,19.3-7.969,28.009-3.136L90.781,3.6c1.734-1.549,5.903-4.538,8.155-2.767c2.25,1.771,0.442,5.608-0.959,7.342
		L80.264,30.054c0.517,1.328,0.479,2.988,0.073,4.39c3.248,1.513,1.734,7.158,0.554,9.667c-3.21,6.825-10.518,13.172-16.458,17.747
		C63.177,62.816,61.886,63.702,60.632,64.623L60.632,64.623z M5.499,81.264c4.317-1.07,10.333,1.881,14.946-0.886
		c-1.513,4.833,0.258,8.597,0.848,12.986c4.761-3.983,1.587-12.248,3.137-14.13c5.831-6.272,17.566-9.335,27.863-14.795
		c0.959,2.25,1.291,4.981,1.216,5.977c2.989-1.771,3.876-5.054,3.987-8.19c11.106-7.969,18.081-14.13,21.034-22.358
		c0.737-2.324-0.075-3.616-1.402-2.139c-2.288,2.877-8.083,4.538-13.027,4.39c-0.959-0.037-1.18-0.553-0.147-0.811
		c5.646-1.033,11.81-3.911,13.396-9.224c0.296-0.849-0.221-1.439-1.18-1.956L95.836,6.515c0.996-1.107,1.919-2.989,1.219-3.505
		c-0.591-0.442-2.399,0.59-3.396,1.513l-4.466,4.169c-0.664,0.997,0.554,3.358,1.329,3.911c-1.034,0.037-2.509-1.328-2.953-2.398
		l-5.056,4.723c-0.22,1.144,0.923,3.947,2.104,4.759c-0.775,0.074-2.989-1.513-3.69-3.284l-4.649,4.354
		c-0.517,1.993,1.438,5.091,2.509,5.83c-1.476,0.037-3.765-2.029-4.465-4.021l-2.915,2.767c-1.07,1.476,0,4.538,0.996,5.755
		c-1.514,0.147-3.949-2.73-3.616-4.648c-7.897-5.276-20.26-1.698-26.386,3.394C30.113,40.015,30.149,64.697,20.223,74.401
		C19.669,75.139,11.034,74.844,5.499,81.264L5.499,81.264z"/>
	<path fill-rule="evenodd" clip-rule="evenodd" fill="#6E7887" d="M55.132,35.735c0.997-0.959,2.584-0.886,3.507,0.111
		c0.959,0.996,0.886,2.545-0.111,3.505c-0.996,0.922-2.583,0.885-3.505-0.111C54.063,38.244,54.136,36.658,55.132,35.735
		L55.132,35.735z"/>
	<path fill-rule="evenodd" clip-rule="evenodd" fill="#6E7887" d="M46.018,49.46c-3.948-2.14-12.104,11.327-17.897,20.108
		C35.869,62.706,48.933,52.56,46.018,49.46L46.018,49.46z"/>
	<path fill-rule="evenodd" clip-rule="evenodd" fill="#6E7887" d="M71.074,70.269c-3.284-2.656-11.218,10.146-16.163,17.636
		C61.555,82.186,73.769,73.516,71.074,70.269L71.074,70.269z"/>
	<path fill-rule="evenodd" clip-rule="evenodd" fill="#6E7887" d="M46.165,79.604c-3.948-2.141-12.104,11.326-17.897,20.107
		C36.017,92.886,49.081,82.702,46.165,79.604L46.165,79.604z"/>
	<path fill-rule="evenodd" clip-rule="evenodd" fill="#6E7887" d="M22.658,52.671c-3.949-2.178-12.104,11.326-17.897,20.07
		C12.51,65.916,25.573,55.732,22.658,52.671L22.658,52.671z"/>
</g>
</svg>
