<svg id="sql-editor/group-by" viewBox="0 0 24 24" fill="none" xmlns="http://www.w3.org/2000/svg">
<path d="M4 10H17V6.5H4V10ZM3.75 11.5C3.06 11.5 2.5 10.94 2.5 10.25V6.25C2.5 5.56 3.06 5 3.75 5H17.25C17.94 5 18.5 5.56 18.5 6.25V10.25C18.5 10.94 17.94 11.5 17.25 11.5L3.75 11.5ZM4 17.5H17V14H4V17.5ZM3.75 19C3.06 19 2.5 18.44 2.5 17.75V13.75C2.5 13.06 3.06 12.5 3.75 12.5L17.25 12.5C17.94 12.5 18.5 13.06 18.5 13.75V17.75C18.5 18.44 17.94 19 17.25 19H3.75ZM16 21.25C16 21.0511 16.079 20.8603 16.2197 20.7197C16.3603 20.579 16.5511 20.5 16.75 20.5H18.75C19.44 20.5 20 19.94 20 19.25V4.75C20 4.06 19.44 3.5 18.75 3.5H16.75C16.5511 3.5 16.3603 3.42098 16.2197 3.28033C16.079 3.13968 16 2.94891 16 2.75C16 2.55109 16.079 2.36032 16.2197 2.21967C16.3603 2.07902 16.5511 2 16.75 2H18.75C19.4793 2 20.1788 2.28973 20.6945 2.80546C21.2103 3.32118 21.5 4.02065 21.5 4.75V19.25C21.5 19.9793 21.2103 20.6788 20.6945 21.1945C20.1788 21.7103 19.4793 22 18.75 22H16.75C16.5511 22 16.3603 21.921 16.2197 21.7803C16.079 21.6397 16 21.4489 16 21.25Z" fill="currentColor"/>
</svg>
