<svg id="sql-editor/panel-show" viewBox="0 0 24 24" fill="none" xmlns="http://www.w3.org/2000/svg">
<path d="M11.9999 9.005C13.0608 9.005 14.0782 9.42643 14.8284 10.1766C15.5785 10.9267 15.9999 11.9441 15.9999 13.005C15.9999 14.0659 15.5785 15.0833 14.8284 15.8334C14.0782 16.5836 13.0608 17.005 11.9999 17.005C10.9391 17.005 9.92166 16.5836 9.17151 15.8334C8.42137 15.0833 7.99994 14.0659 7.99994 13.005C7.99994 11.9441 8.42137 10.9267 9.17151 10.1766C9.92166 9.42643 10.9391 9.005 11.9999 9.005ZM11.9999 10.505C11.3369 10.505 10.701 10.7684 10.2322 11.2372C9.76333 11.7061 9.49994 12.342 9.49994 13.005C9.49994 13.668 9.76333 14.3039 10.2322 14.7728C10.701 15.2416 11.3369 15.505 11.9999 15.505C12.663 15.505 13.2989 15.2416 13.7677 14.7728C14.2365 14.3039 14.4999 13.668 14.4999 13.005C14.4999 12.342 14.2365 11.7061 13.7677 11.2372C13.2989 10.7684 12.663 10.505 11.9999 10.505ZM11.9999 5.5C16.6129 5.5 20.5959 8.65 21.7009 13.064C21.7493 13.2569 21.7191 13.4612 21.6169 13.6319C21.5147 13.8025 21.3489 13.9256 21.1559 13.974C20.963 14.0224 20.7587 13.9922 20.5881 13.89C20.4174 13.7878 20.2943 13.6219 20.2459 13.429C19.7829 11.5925 18.7201 9.96306 17.226 8.79913C15.7318 7.6352 13.8919 7.00338 11.9979 7.00384C10.1039 7.0043 8.26426 7.63701 6.77067 8.80167C5.27709 9.96632 4.21505 11.5962 3.75294 13.433C3.72911 13.5286 3.68668 13.6186 3.62807 13.6978C3.56946 13.777 3.49583 13.8439 3.41138 13.8946C3.32692 13.9454 3.2333 13.979 3.13585 13.9935C3.03841 14.0081 2.93904 14.0033 2.84344 13.9795C2.74784 13.9557 2.65787 13.9132 2.57866 13.8546C2.49946 13.796 2.43258 13.7224 2.38183 13.6379C2.33108 13.5535 2.29747 13.4599 2.2829 13.3624C2.26834 13.265 2.27311 13.1656 2.29694 13.07C2.83926 10.9073 4.08859 8.98777 5.84654 7.61627C7.6045 6.24476 9.77028 5.49991 11.9999 5.5Z" fill="currentColor"/>
</svg>
