<svg id="sql-editor/preview" viewBox="0 0 24 24" fill="none" xmlns="http://www.w3.org/2000/svg">
<path fill-rule="evenodd" clip-rule="evenodd" d="M14.8284 9.17157C14.0783 8.42143 13.0609 8 12 8C10.9391 8 9.92172 8.42143 9.17157 9.17157C8.42143 9.92172 8 10.9391 8 12C8 13.0609 8.42143 14.0783 9.17157 14.8284C9.92172 15.5786 10.9391 16 12 16C13.0609 16 14.0783 15.5786 14.8284 14.8284C15.5786 14.0783 16 13.0609 16 12C16 10.9391 15.5786 9.92172 14.8284 9.17157ZM12 9.5C11.337 9.5 10.7011 9.76339 10.2322 10.2322C9.76339 10.7011 9.5 11.337 9.5 12C9.5 12.663 9.76339 13.2989 10.2322 13.7678C10.7011 14.2366 11.337 14.5 12 14.5C12.663 14.5 13.2989 14.2366 13.7678 13.7678C14.2366 13.2989 14.5 12.663 14.5 12C14.5 11.337 14.2366 10.7011 13.7678 10.2322C13.2989 9.76339 12.663 9.5 12 9.5Z" fill="currentColor"/>
<path fill-rule="evenodd" clip-rule="evenodd" d="M11.9986 4.25C16.6116 4.25 20.5946 7.4 21.6996 11.814C21.7152 11.8762 21.7226 11.9395 21.7221 12.0025C21.7226 12.0655 21.7152 12.1288 21.6996 12.191C20.5946 16.605 16.6116 19.755 11.9986 19.755C9.76912 19.7548 7.60357 19.0099 5.84583 17.6384C4.08808 16.2669 2.83889 14.3475 2.29662 12.185C2.28304 12.1246 2.27708 12.0633 2.27853 12.0025C2.27708 11.9416 2.28304 11.8804 2.29662 11.82C2.83889 9.65746 4.08808 7.73806 5.84583 6.36657C7.60357 4.99509 9.76912 4.25013 11.9986 4.25ZM17.2256 7.54704C18.6718 8.67417 19.7136 10.2375 20.1982 12.0025C19.7136 13.7675 18.6718 15.3308 17.2256 16.4579C15.7314 17.6225 13.891 18.2547 11.9966 18.2542C10.1021 18.2538 8.26207 17.6207 6.76839 16.4554C5.32382 15.3284 4.28324 13.7661 3.79906 12.0025C4.28324 10.2389 5.32382 8.67656 6.76839 7.54958C8.26207 6.3843 10.1021 5.7512 11.9966 5.75074C13.891 5.75028 15.7314 6.38248 17.2256 7.54704Z" fill="currentColor"/>
</svg>
