<svg id="entities/empty-space" viewBox="0 0 56 57" fill="none" xmlns="http://www.w3.org/2000/svg">
<path fill-rule="evenodd" clip-rule="evenodd" d="M14.7782 12.1667C14.7782 9.58934 16.8675 7.5 19.4448 7.5H44.3337C46.911 7.5 49.0004 9.58934 49.0004 12.1667V37.0556C49.0004 39.6329 46.911 41.7222 44.3337 41.7222H19.4448C16.8675 41.7222 14.7782 39.6329 14.7782 37.0556V12.1667ZM18.2782 13.3333C18.2782 12.0447 19.3228 11 20.6115 11H43.167C44.4557 11 45.5004 12.0447 45.5004 13.3333V35.8889C45.5004 37.1776 44.4557 38.2222 43.167 38.2222H20.6115C19.3228 38.2222 18.2782 37.1776 18.2782 35.8889V13.3333Z" fill="currentColor"/>
<path d="M8.75 18.3891C9.7165 18.3891 10.5 19.1726 10.5 20.1391V43.4724C10.5 44.2356 10.6858 44.6917 10.8745 44.9748C11.0705 45.2688 11.3444 45.4867 11.6715 45.6502C12.0055 45.8172 12.3606 45.9094 12.6471 45.9572C12.7861 45.9804 12.8982 45.9913 12.9686 45.9963C13.0036 45.9988 13.0273 45.9998 13.038 46.0001L36.3611 46.0002C37.3276 46.0002 38.1111 46.7837 38.1111 47.7502C38.1111 48.7167 37.3276 49.5002 36.3611 49.5002H13.0278V47.7502C13.0278 49.5002 13.0287 49.5002 13.0278 49.5002L13.0242 49.5002L13.0201 49.5002L13.0108 49.5001L12.9873 49.4998L12.9214 49.4982C12.8695 49.4965 12.8013 49.4933 12.7193 49.4874C12.5558 49.4757 12.3336 49.4532 12.0717 49.4096C11.556 49.3236 10.8417 49.1485 10.1063 48.7807C9.36394 48.4096 8.56838 47.8253 7.96231 46.9162C7.34895 45.9962 7 44.8481 7 43.4724V20.1391C7 19.1726 7.7835 18.3891 8.75 18.3891Z" fill="currentColor"/>
</svg>
