<svg id="entities/nessie-source" viewBox="0 0 24 24" fill="none" xmlns="http://www.w3.org/2000/svg">
<path fill-rule="evenodd" clip-rule="evenodd" d="M16.986 7.48679C18.2743 6.84266 18.5 6.23033 18.5 6C18.5 5.76967 18.2743 5.15734 16.986 4.51321C15.7875 3.91395 14.0268 3.5 12 3.5C9.97324 3.5 8.2125 3.91395 7.01397 4.51321C5.72571 5.15734 5.5 5.76967 5.5 6C5.5 6.23033 5.72571 6.84266 7.01397 7.48679C8.2125 8.08605 9.97324 8.5 12 8.5C14.0268 8.5 15.7875 8.08605 16.986 7.48679ZM18.5 10V8.33236C17.0479 9.34229 14.6776 10 12 10C9.32244 10 6.95211 9.34229 5.5 8.33236V10C5.5 10.2303 5.72571 10.8427 7.01397 11.4868C8.2125 12.0861 9.97324 12.5 12 12.5C14.0268 12.5 15.7875 12.0861 16.986 11.4868C18.2743 10.8427 18.5 10.2303 18.5 10ZM20 10V6C20 3.79086 16.4183 2 12 2C7.58172 2 4 3.79086 4 6V10V14C4 16.0827 7.18341 17.7936 11.25 17.9827V19.2007C11.0256 19.3305 10.838 19.5167 10.7065 19.74H4.79349C4.53274 19.2972 4.05107 19 3.5 19C2.67157 19 2 19.6716 2 20.5C2 21.3284 2.67157 22 3.5 22C4.05933 22 4.54716 21.6939 4.80506 21.24H10.6949C10.9528 21.6939 11.4407 22 12 22C12.5593 22 13.0472 21.6939 13.3051 21.24H19.1949C19.4528 21.6939 19.9407 22 20.5 22C21.3284 22 22 21.3284 22 20.5C22 19.6716 21.3284 19 20.5 19C19.9489 19 19.4673 19.2972 19.2065 19.74H13.2935C13.162 19.5167 12.9744 19.3305 12.75 19.2007V17.9827C16.8166 17.7936 20 16.0827 20 14V10ZM18.5 12.5V14C18.5 14.2303 18.2743 14.8427 16.986 15.4868C15.7875 16.0861 14.0268 16.5 12 16.5C9.97324 16.5 8.2125 16.0861 7.01397 15.4868C5.72571 14.8427 5.5 14.2303 5.5 14V12.5V12.3324C6.95211 13.3423 9.32244 14 12 14C14.6776 14 17.0479 13.3423 18.5 12.3324V12.5Z" fill="#A3A8D7"/>
</svg>
