<svg id="entities/nessie-source-bad" viewBox="0 0 24 24" fill="none" xmlns="http://www.w3.org/2000/svg">
<path fill-rule="evenodd" clip-rule="evenodd" d="M18.5 6C18.5 6.23033 18.2743 6.84266 16.986 7.48679C15.7875 8.08605 14.0268 8.5 12 8.5C9.97324 8.5 8.2125 8.08605 7.01397 7.48679C5.72571 6.84266 5.5 6.23033 5.5 6C5.5 5.76967 5.72571 5.15734 7.01397 4.51321C8.2125 3.91395 9.97324 3.5 12 3.5C14.0268 3.5 15.7875 3.91395 16.986 4.51321C18.2743 5.15734 18.5 5.76967 18.5 6ZM18.5 8.33236V10C18.5 10.1716 18.3748 10.5551 17.7784 11.0059C18.5629 11.0389 19.3114 11.211 20 11.4982V10V6C20 3.79086 16.4183 2 12 2C7.58172 2 4 3.79086 4 6V10V14C4 16.0427 7.06233 17.7278 11.0167 17.9701C11.0056 17.8148 11 17.6581 11 17.5C11 17.1499 11.0277 16.8063 11.081 16.4712C9.44272 16.3677 8.02738 15.9935 7.01397 15.4868C5.72571 14.8427 5.5 14.2303 5.5 14V12.5V12.3324C6.95211 13.3423 9.32244 14 12 14C12.0073 14 12.0146 14 12.0218 14C12.4043 13.4026 12.8818 12.8719 13.433 12.4293C12.9741 12.4753 12.495 12.5 12 12.5C9.97324 12.5 8.2125 12.0861 7.01397 11.4868C5.72571 10.8427 5.5 10.2303 5.5 10V8.33236C6.95211 9.34229 9.32244 10 12 10C14.6776 10 17.0479 9.34229 18.5 8.33236ZM11.2282 19.2135C11.0135 19.3426 10.8337 19.524 10.7065 19.74H4.79349C4.53274 19.2972 4.05107 19 3.5 19C2.67157 19 2 19.6716 2 20.5C2 21.3284 2.67157 22 3.5 22C4.05933 22 4.54716 21.6939 4.80506 21.24H10.6949C10.9528 21.6939 11.4407 22 12 22C12.2389 22 12.4648 21.9441 12.6653 21.8447C11.9976 21.1022 11.4985 20.2051 11.2282 19.2135Z" fill="#FF5252"/>
<path d="M23 17.5C23 18.9587 22.4205 20.3576 21.3891 21.3891C20.3576 22.4205 18.9587 23 17.5 23C16.0413 23 14.6424 22.4205 13.6109 21.3891C12.5795 20.3576 12 18.9587 12 17.5C12 16.0413 12.5795 14.6424 13.6109 13.6109C14.6424 12.5795 16.0413 12 17.5 12C18.9587 12 20.3576 12.5795 21.3891 13.6109C22.4205 14.6424 23 16.0413 23 17.5ZM15.854 15.146C15.7602 15.0521 15.633 14.9993 15.5004 14.9992C15.3677 14.9991 15.2404 15.0517 15.1465 15.1455C15.0526 15.2393 14.9998 15.3665 14.9997 15.4991C14.9996 15.6318 15.0522 15.7591 15.146 15.853L16.793 17.5L15.146 19.146C15.0521 19.2399 14.9994 19.3672 14.9994 19.5C14.9994 19.6328 15.0521 19.7601 15.146 19.854C15.2399 19.9479 15.3672 20.0006 15.5 20.0006C15.6328 20.0006 15.7601 19.9479 15.854 19.854L17.5 18.207L19.146 19.854C19.1925 19.9005 19.2477 19.9374 19.3084 19.9625C19.3692 19.9877 19.4343 20.0006 19.5 20.0006C19.5657 20.0006 19.6308 19.9877 19.6916 19.9625C19.7523 19.9374 19.8075 19.9005 19.854 19.854C19.9005 19.8075 19.9374 19.7523 19.9625 19.6916C19.9877 19.6308 20.0006 19.5657 20.0006 19.5C20.0006 19.4343 19.9877 19.3692 19.9625 19.3084C19.9374 19.2477 19.9005 19.1925 19.854 19.146L18.207 17.5L19.854 15.853C19.9478 15.7591 20.0004 15.6318 20.0003 15.4991C20.0002 15.3665 19.9474 15.2393 19.8535 15.1455C19.7596 15.0517 19.6323 14.9991 19.4996 14.9992C19.367 14.9993 19.2398 15.0521 19.146 15.146L17.5 16.794L15.854 15.147V15.146Z" fill="#FF5252"/>
</svg>
