<svg viewBox="0 0 24 24" fill="none" xmlns="http://www.w3.org/2000/svg">
<rect x="2" y="2" width="20" height="20" rx="2" fill="#A3A8D7"/>
<path d="M6.05306 15.2807C5.91261 15.1401 5.83372 14.9495 5.83372 14.7507C5.83372 14.552 5.91261 14.3613 6.05306 14.2207L8.32645 11.9473L6.0722 9.693C5.99852 9.62433 5.93941 9.54153 5.89842 9.44953C5.85743 9.35753 5.83539 9.25822 5.83361 9.15752C5.83184 9.05681 5.85036 8.95679 5.88808 8.8634C5.9258 8.77001 5.98195 8.68518 6.05317 8.61396C6.12438 8.54274 6.20922 8.48659 6.30261 8.44887C6.39599 8.41115 6.49602 8.39263 6.59673 8.3944C6.69743 8.39618 6.79674 8.41822 6.88874 8.45921C6.98074 8.50021 7.06354 8.55931 7.1322 8.63299L9.91645 11.4173C10.0569 11.5579 10.1358 11.7485 10.1358 11.9473C10.1358 12.146 10.0569 12.3366 9.91645 12.4773L7.11306 15.2807C6.97243 15.4212 6.78181 15.5001 6.58306 15.5001C6.38431 15.5001 6.19369 15.4212 6.05306 15.2807Z" fill="#202124"/>
<path d="M11.4168 14.7501C11.4168 14.3359 11.7526 14.0001 12.1668 14.0001H17.6668C18.081 14.0001 18.4168 14.3359 18.4168 14.7501C18.4168 15.1643 18.081 15.5001 17.6668 15.5001H12.1668C11.7526 15.5001 11.4168 15.1643 11.4168 14.7501Z" fill="#202124"/>
</svg>
