<svg id="entities/space-locked" viewBox="0 0 24 24" fill="none" xmlns="http://www.w3.org/2000/svg">
<path fill-rule="evenodd" clip-rule="evenodd" d="M8.3335 3C7.22893 3 6.3335 3.89543 6.3335 5V15.6667C6.3335 16.7712 7.22893 17.6667 8.3335 17.6667H12V16.5C12 16.387 12.0075 16.2757 12.022 16.1667H8.8335C8.28121 16.1667 7.8335 15.719 7.8335 15.1667V5.5C7.8335 4.94772 8.28121 4.5 8.8335 4.5H18.5002C19.0524 4.5 19.5002 4.94772 19.5002 5.5V11.1275C20.4068 11.7599 21 12.8107 21 14V14.05C21.0001 14.05 21.0001 14.05 21.0002 14.05V5C21.0002 3.89543 20.1047 3 19.0002 3H8.3335ZM12 19.5001V21.0001H5.58333L5.58178 21.0001L5.58005 21.0001L5.57605 21.0001L5.56598 20.9999L5.53776 20.9992C5.51549 20.9985 5.48628 20.9971 5.45112 20.9946C5.38105 20.9896 5.28585 20.9799 5.17358 20.9612C4.95258 20.9244 4.64646 20.8493 4.33126 20.6917C4.01312 20.5327 3.67216 20.2823 3.41242 19.8927C3.14955 19.4984 3 19.0063 3 18.4168V8.41675C3 8.00253 3.33579 7.66675 3.75 7.66675C4.16421 7.66675 4.5 8.00253 4.5 8.41675V18.4168C4.5 18.7438 4.57962 18.9393 4.6605 19.0606C4.7445 19.1866 4.86188 19.28 5.00208 19.3501C5.14521 19.4217 5.29742 19.4612 5.42017 19.4816C5.47977 19.4916 5.5278 19.4963 5.55799 19.4984C5.57296 19.4995 5.58315 19.4999 5.58773 19.5001L12 19.5001Z" fill="#8ED4DF"/>
<path fill-rule="evenodd" clip-rule="evenodd" d="M8.83331 4.5C8.28103 4.5 7.83331 4.94772 7.83331 5.5V15.1667C7.83331 15.719 8.28103 16.1667 8.83331 16.1667H12.022C12.163 15.1088 12.9655 14.26 14 14.05V14C14 12.067 15.567 10.5 17.5 10.5C18.2436 10.5 18.9331 10.7319 19.5 11.1273V5.5C19.5 4.94772 19.0523 4.5 18.5 4.5H8.83331Z" fill="#285056"/>
<path fill-rule="evenodd" clip-rule="evenodd" d="M15 14V15H14.5C13.6716 15 13 15.6716 13 16.5V21.5C13 22.3284 13.6716 23 14.5 23H20.5C21.3284 23 22 22.3284 22 21.5V16.5C22 15.6716 21.3284 15 20.5 15H20V14C20 12.6193 18.8807 11.5 17.5 11.5C16.1193 11.5 15 12.6193 15 14ZM17.5 13C16.9477 13 16.5 13.4477 16.5 14V15H18.5V14C18.5 13.4477 18.0523 13 17.5 13ZM17.5 20C18.0523 20 18.5 19.5523 18.5 19C18.5 18.4477 18.0523 18 17.5 18C16.9477 18 16.5 18.4477 16.5 19C16.5 19.5523 16.9477 20 17.5 20Z" fill="#8ED4DF"/>
</svg>
