<svg id="engine-state/adding-replica-static" viewBox="0 0 24 24" fill="none" xmlns="http://www.w3.org/2000/svg">
<g opacity="0.3333">
<path d="M17.5214 15.4211L19.4757 17.1938C19.5818 17.297 19.7415 17.3395 19.8923 17.3046C20.043 17.2697 20.1608 17.1629 20.1992 17.0262C20.2378 16.8894 20.1909 16.7445 20.0771 16.6483L17.5243 14.3327L16.8691 14.9271L14.963 16.656C14.8492 16.7522 14.8023 16.8972 14.8408 17.0339C14.8793 17.1706 14.997 17.2774 15.1478 17.3123C15.2985 17.3472 15.4582 17.3047 15.5643 17.2015L17.5214 15.4211Z" fill="#505862"/>
</g>
<g opacity="0.6667">
<path d="M17.5358 18.3011L19.4901 20.0738C19.5962 20.177 19.7559 20.2195 19.9067 20.1846C20.0574 20.1497 20.1751 20.0429 20.2136 19.9062C20.2521 19.7695 20.2052 19.6245 20.0914 19.5283L17.5387 17.2127L16.8835 17.8071L14.9774 19.5361C14.8636 19.6322 14.8167 19.7772 14.8552 19.9139C14.8937 20.0506 15.0114 20.1574 15.1622 20.1923C15.3129 20.2273 15.4726 20.1847 15.5787 20.0815L17.5358 18.3011Z" fill="#505862"/>
</g>
<path d="M22 12C22 6.47697 17.523 2.00002 12 2.00002C6.47704 2.00002 2.00003 6.47697 2.00003 12C2.00003 17.523 6.47704 22 12 22C12.2628 22 12.5233 21.9899 12.7809 21.97C12.3658 21.5319 12.0111 21.036 11.73 20.4957C9.57366 20.4273 7.51993 19.5407 5.9896 18.0104C4.39557 16.4163 3.50003 14.2543 3.50003 12C3.50003 9.74568 4.39557 7.58366 5.9896 5.98958C7.58368 4.39555 9.74569 3.50002 12 3.50002C14.2543 3.50002 16.4164 4.39555 18.0104 5.98958C19.5407 7.51992 20.4273 9.57365 20.4957 11.73C21.036 12.0111 21.5319 12.3658 21.97 12.7809C21.9899 12.5232 22 12.2628 22 12Z" fill="#5ABD4A"/>
<path d="M14.6569 11.6531L16.28 10.03L16.353 9.94598C16.4647 9.79377 16.5148 9.60513 16.4934 9.41755C16.4721 9.23001 16.3808 9.0574 16.2378 8.93419C16.0947 8.81102 15.9105 8.74622 15.7219 8.75284C15.5332 8.75951 15.354 8.83708 15.22 8.97004L10.75 13.44L8.78002 11.47L8.69602 11.397C8.54381 11.2853 8.35507 11.2352 8.16754 11.2566C7.97995 11.2779 7.80734 11.3692 7.68418 11.5123C7.56096 11.6553 7.49621 11.8395 7.50288 12.0281C7.5095 12.2168 7.58702 12.396 7.71998 12.53L10.22 15.03L10.304 15.103C10.4485 15.2097 10.6264 15.261 10.8056 15.2476C10.9847 15.2342 11.153 15.157 11.28 15.03L11.6532 14.6569C12.2895 13.3507 13.3507 12.2895 14.6569 11.6531Z" fill="#5ABD4A"/>
</svg>

