<svg id="engine-state/automatic-engine" viewBox="0 0 19 19" fill="none" xmlns="http://www.w3.org/2000/svg">
<path d="M6.66395 13.7349C6.90895 13.9079 7.20095 13.9999 7.49995 13.9989V13.9949C7.78221 13.9954 8.0584 13.913 8.29429 13.758C8.53017 13.603 8.71538 13.3822 8.82695 13.1229L9.43995 11.2589C9.58159 10.8367 9.81948 10.4532 10.1348 10.1387C10.4502 9.8242 10.8343 9.58736 11.257 9.44689L13.035 8.86889C13.3214 8.76827 13.5687 8.57988 13.7419 8.33054C13.915 8.0812 14.0051 7.7836 13.9994 7.48009C13.9936 7.17658 13.8923 6.88262 13.7098 6.64003C13.5273 6.39744 13.273 6.21858 12.983 6.12889L11.228 5.55889C10.8034 5.4177 10.4176 5.17939 10.1013 4.86292C9.78501 4.54645 9.54691 4.16054 9.40595 3.73589L8.82795 1.95889C8.72715 1.67586 8.54069 1.43127 8.29449 1.25908C8.04828 1.08689 7.75456 0.995674 7.45413 0.998094C7.1537 1.00051 6.86148 1.09645 6.61808 1.27258C6.37468 1.44871 6.19219 1.69628 6.09595 1.98089L5.51295 3.77289C5.37237 4.18515 5.14001 4.56012 4.8334 4.8695C4.52679 5.17888 4.15394 5.4146 3.74295 5.55889L1.96595 6.12989C1.6811 6.2288 1.43436 6.4144 1.26034 6.66065C1.08632 6.9069 0.993759 7.20145 0.995633 7.50298C0.997508 7.8045 1.09373 8.09788 1.2708 8.34195C1.44786 8.58602 1.6969 8.76853 1.98295 8.86389L3.73695 9.43289C4.16144 9.57515 4.54702 9.81417 4.86323 10.1311C5.17945 10.448 5.41763 10.8341 5.55895 11.2589L6.13695 13.0339C6.23595 13.3169 6.41995 13.5619 6.66395 13.7339V13.7349ZM6.28995 9.48489C6.17844 9.33917 6.05716 9.20118 5.92695 9.07189H5.92995C5.44705 8.58867 4.85813 8.2247 4.20995 8.00889L2.60995 7.50089L4.22095 6.97689C4.85849 6.75615 5.43672 6.39176 5.91095 5.91189C6.38313 5.42897 6.73913 4.84487 6.95195 4.20389L7.46695 2.62189L7.98295 4.20889C8.19827 4.85589 8.56188 5.44358 9.04474 5.92506C9.5276 6.40653 10.1163 6.76844 10.764 6.98189L12.384 7.50389L10.794 8.01889C10.1476 8.23382 9.56031 8.59657 9.07875 9.07831C8.59719 9.56004 8.23465 10.1475 8.01995 10.7939L7.50495 12.3759L6.98995 10.7909C6.8327 10.3189 6.59596 9.87718 6.28995 9.48489ZM14.331 18.7819C14.1404 18.6461 13.9971 18.4541 13.921 18.2329L13.593 17.2259C13.5298 17.0341 13.4227 16.8598 13.2802 16.7169C13.1376 16.574 12.9635 16.4665 12.772 16.4029L11.781 16.0799C11.5541 16.0034 11.3568 15.8578 11.2168 15.6636C11.0768 15.4694 11.0009 15.2363 11 14.9969C11.0001 14.759 11.0745 14.5271 11.2127 14.3336C11.3509 14.14 11.546 13.9943 11.771 13.9169L12.777 13.5909C12.964 13.5245 13.1333 13.4162 13.272 13.2742C13.4106 13.1322 13.515 12.9604 13.577 12.7719L13.901 11.7799C13.9772 11.5557 14.1212 11.3606 14.313 11.2218C14.5049 11.0829 14.7352 11.0071 14.972 11.0048C15.2088 11.0025 15.4405 11.0738 15.6351 11.2089C15.8296 11.344 15.9774 11.5362 16.058 11.7589L16.387 12.7729C16.4514 12.963 16.5589 13.1356 16.7012 13.2771C16.8434 13.4187 17.0166 13.5254 17.207 13.5889L18.199 13.9119C18.4276 13.9834 18.628 14.1251 18.7716 14.3169C18.9153 14.5086 18.9949 14.7408 18.9992 14.9803C19.0035 15.2199 18.9323 15.4547 18.7957 15.6515C18.659 15.8484 18.4639 15.9972 18.238 16.0769L17.224 16.4059C17.0333 16.4702 16.8602 16.578 16.7182 16.7206C16.5763 16.8633 16.4694 17.0369 16.406 17.2279L16.084 18.2169C16.006 18.4469 15.858 18.6469 15.659 18.7869C15.4648 18.9249 15.2323 18.9986 14.9941 18.9977C14.756 18.9968 14.524 18.9214 14.331 18.7819ZM13.301 14.9989C13.6939 15.1386 14.0505 15.3647 14.3446 15.6604C14.6386 15.9562 14.8626 16.3141 15 16.7079C15.1389 16.3159 15.3636 15.9598 15.6578 15.6657C15.9519 15.3716 16.3079 15.1468 16.7 15.0079C16.3044 14.8692 15.9449 14.6438 15.6477 14.3483C15.3504 14.0528 15.123 13.6946 14.982 13.2999C14.8441 13.6897 14.6219 14.0442 14.3311 14.338C14.0404 14.6319 13.6882 14.8579 13.3 14.9999L13.301 14.9989Z" fill="#505862"/>
</svg>
