<svg id="engine-state/disabling-engine" viewBox="0 0 24 24" fill="none" xmlns="http://www.w3.org/2000/svg">
<path fill-rule="evenodd" clip-rule="evenodd" d="M12 2C11.5858 2 11.25 2.33579 11.25 2.75C11.25 3.16421 11.5858 3.5 12 3.5C12.0332 3.5 12.0664 3.50019 12.0995 3.50057C12.5137 3.50531 12.8533 3.17339 12.8581 2.75921C12.8628 2.34502 12.5309 2.00541 12.1167 2.00067C12.0779 2.00022 12.0389 2 12 2ZM14.9799 2.45171C14.5844 2.32842 14.1639 2.54904 14.0406 2.94448C13.9173 3.33992 14.138 3.76044 14.5334 3.88373C14.5965 3.90339 14.6592 3.92377 14.7217 3.94486C15.1141 4.0774 15.5397 3.86672 15.6722 3.47429C15.8048 3.08185 15.5941 2.65627 15.2017 2.52373C15.1281 2.49889 15.0542 2.47488 14.9799 2.45171ZM17.7842 3.8417C17.4465 3.60186 16.9783 3.68121 16.7385 4.01892C16.4986 4.35663 16.578 4.82483 16.9157 5.06467C16.9694 5.10286 17.0228 5.14166 17.0756 5.18107C17.4077 5.42867 17.8776 5.36021 18.1252 5.02815C18.3728 4.69609 18.3043 4.22617 17.9723 3.97857C17.9101 3.93224 17.8474 3.88661 17.7842 3.8417ZM20.0214 6.02773C19.7738 5.69567 19.3039 5.6272 18.9719 5.87481C18.6398 6.12241 18.5713 6.59233 18.8189 6.92439C18.8583 6.97723 18.8971 7.03055 18.9353 7.08433C19.1752 7.42204 19.6434 7.50138 19.9811 7.26155C20.3188 7.02171 20.3981 6.55351 20.1583 6.2158C20.1134 6.15256 20.0678 6.08986 20.0214 6.02773ZM21.4763 8.79835C21.3437 8.40591 20.9181 8.19523 20.5257 8.32777C20.1333 8.46032 19.9226 8.8859 20.0551 9.27833C20.0762 9.34077 20.0966 9.40353 20.1163 9.4666C20.2396 9.86204 20.6601 10.0827 21.0555 9.95937C21.451 9.83608 21.6716 9.41557 21.5483 9.02013C21.5251 8.94583 21.5011 8.8719 21.4763 8.79835ZM21.9993 11.8833C21.9946 11.4691 21.655 11.1372 21.2408 11.1419C20.8266 11.1467 20.4947 11.4863 20.4994 11.9005C20.4998 11.9336 20.5 11.9668 20.5 12C20.5 12.0333 20.4998 12.0665 20.4994 12.0997C20.4947 12.5139 20.8266 12.8535 21.2408 12.8583C21.655 12.863 21.9946 12.5311 21.9993 12.1169C21.9998 12.078 22 12.039 22 12C22 11.9611 21.9998 11.9221 21.9993 11.8833ZM21.5434 14.9956C21.6673 14.6004 21.4474 14.1795 21.0522 14.0556C20.6569 13.9316 20.236 14.1515 20.1121 14.5468C20.0922 14.6101 20.0717 14.6731 20.0504 14.7357C19.9171 15.1279 20.1271 15.5539 20.5193 15.6871C20.9115 15.8203 21.3374 15.6104 21.4707 15.2182C21.4957 15.1444 21.52 15.0702 21.5434 14.9956ZM20.1388 17.8115C20.3798 17.4746 20.302 17.0061 19.9651 16.7652C19.6282 16.5242 19.1597 16.602 18.9188 16.9389C18.8995 16.9659 18.88 16.9927 18.8604 17.0195C18.6156 17.3535 18.6879 17.8229 19.0219 18.0678C19.356 18.3126 19.8254 18.2403 20.0702 17.9063C20.0933 17.8748 20.1161 17.8432 20.1388 17.8115ZM9.24313 3.95677C9.63497 3.8225 9.84377 3.396 9.7095 3.00415C9.57523 2.6123 9.14872 2.4035 8.75687 2.53777C4.82684 3.88449 2 7.61112 2 11.9999C2 17.5228 6.47715 21.9999 12 21.9999C14.2999 21.9999 16.4204 21.2226 18.1101 19.9167C18.4378 19.6634 18.4982 19.1924 18.2449 18.8647C17.9916 18.5369 17.5206 18.4766 17.1928 18.7299C15.7566 19.8399 13.9564 20.4999 12 20.4999C7.30558 20.4999 3.5 16.6944 3.5 11.9999C3.5 8.27159 5.90088 5.10207 9.24313 3.95677Z" fill="#505862"/>
<path d="M14 8.74657V15.2466L14.006 15.3486C14.0319 15.5368 14.1283 15.7082 14.2757 15.8281C14.4231 15.9481 14.6105 16.0076 14.8001 15.9946C14.9897 15.9816 15.1673 15.8972 15.297 15.7584C15.4268 15.6195 15.4989 15.4366 15.499 15.2466V8.74657L15.492 8.64458C15.4645 8.45774 15.3676 8.28813 15.2206 8.16963C15.0735 8.05114 14.8872 7.99247 14.6988 8.00535C14.5104 8.01823 14.3338 8.10171 14.2043 8.23912C14.0747 8.37652 14.0018 8.55774 14 8.74657Z" fill="#505862"/>
<path d="M9 15.2466V8.74659C9.00177 8.55775 9.07471 8.37654 9.20425 8.23913C9.3338 8.10172 9.51041 8.01824 9.69881 8.00536C9.88722 7.99248 10.0735 8.05115 10.2206 8.16965C10.3676 8.28815 10.4645 8.45775 10.492 8.64459L10.499 8.74659V15.2466C10.4989 15.4366 10.4268 15.6195 10.297 15.7584C10.1673 15.8972 9.9897 15.9817 9.80012 15.9946C9.61054 16.0076 9.42311 15.9481 9.2757 15.8282C9.12829 15.7082 9.0319 15.5368 9.006 15.3486L9 15.2466Z" fill="#505862"/>
</svg>
