<svg id="engine-state/removing-replica-static" viewBox="0 0 24 24" fill="none" xmlns="http://www.w3.org/2000/svg">
<g opacity="0.3333">
<path d="M17.533 19.116L15.5787 17.3433C15.4726 17.2401 15.3129 17.1975 15.1622 17.2324C15.0114 17.2674 14.8937 17.3741 14.8552 17.5109C14.8167 17.6476 14.8636 17.7925 14.9774 17.8888L17.5302 20.2043L18.1854 19.61L20.0914 17.881C20.2053 17.7848 20.2521 17.6399 20.2136 17.5032C20.1751 17.3664 20.0574 17.2596 19.9066 17.2247C19.7559 17.1898 19.5962 17.2323 19.4901 17.3356L17.533 19.116Z" fill="#505862"/>
</g>
<g opacity="0.6667">
<path d="M17.5186 16.236L15.5644 14.4633C15.4583 14.3601 15.2985 14.3175 15.1478 14.3524C14.997 14.3874 14.8793 14.4941 14.8408 14.6309C14.8023 14.7676 14.8492 14.9125 14.963 15.0087L17.5158 17.3243L18.171 16.73L20.077 15.001C20.1909 14.9048 20.2378 14.7599 20.1993 14.6232C20.1607 14.4864 20.043 14.3796 19.8923 14.3447C19.7415 14.3098 19.5818 14.3523 19.4758 14.4555L17.5186 16.236Z" fill="#505862"/>
</g>
<path d="M22 12C22 6.47697 17.523 2.00002 12 2.00002C6.47704 2.00002 2.00003 6.47697 2.00003 12C2.00003 17.523 6.47704 22 12 22C12.2628 22 12.5233 21.9899 12.7809 21.97C12.3658 21.5319 12.0111 21.036 11.73 20.4957C9.57366 20.4273 7.51993 19.5407 5.9896 18.0104C4.39557 16.4163 3.50003 14.2543 3.50003 12C3.50003 9.74568 4.39557 7.58366 5.9896 5.98958C7.58368 4.39555 9.74569 3.50002 12 3.50002C14.2543 3.50002 16.4164 4.39555 18.0104 5.98958C19.5407 7.51992 20.4273 9.57365 20.4957 11.73C21.036 12.0111 21.5319 12.3658 21.97 12.7809C21.9899 12.5232 22 12.2628 22 12Z" fill="#5ABD4A"/>
<path d="M14.6569 11.6532L16.28 10.03L16.353 9.94599C16.4647 9.79378 16.5148 9.60514 16.4934 9.41755C16.4721 9.23002 16.3808 9.05741 16.2378 8.93419C16.0947 8.81103 15.9105 8.74623 15.7219 8.75285C15.5332 8.75952 15.354 8.83709 15.22 8.97005L10.75 13.44L8.78002 11.47L8.69602 11.397C8.54381 11.2853 8.35507 11.2352 8.16754 11.2566C7.97995 11.2779 7.80734 11.3692 7.68418 11.5123C7.56096 11.6553 7.49621 11.8395 7.50288 12.0281C7.5095 12.2168 7.58702 12.396 7.71998 12.53L10.22 15.03L10.304 15.103C10.4485 15.2097 10.6264 15.261 10.8056 15.2476C10.9847 15.2342 11.153 15.157 11.28 15.03L11.6532 14.6569C12.2895 13.3507 13.3507 12.2895 14.6569 11.6532Z" fill="#5ABD4A"/>
</svg>
