<svg id="engine-state/stopped-engine" viewBox="0 0 24 24" fill="none" xmlns="http://www.w3.org/2000/svg">
<path fill-rule="evenodd" clip-rule="evenodd" d="M9.14689 3.9648C9.23713 3.68461 9.15512 3.37754 8.93721 3.17965C8.71929 2.98176 8.40577 2.92964 8.13555 3.04639C4.67418 4.54182 2.25 7.9866 2.25 11.9999C2.25 17.3846 6.61527 21.75 12 21.75C16.3409 21.75 20.0173 18.9143 21.2808 14.995C21.3712 14.7147 21.2892 14.4075 21.0712 14.2096C20.8532 14.0117 20.5395 13.9596 20.2692 14.0765C19.2681 14.5096 18.1633 14.7499 17 14.7499C12.4437 14.7499 8.75 11.0562 8.75 6.49988C8.74923 5.63954 8.88314 4.78371 9.14689 3.9648ZM3.75 11.9999C3.75 9.17468 5.16987 6.6804 7.33691 5.19328L7.25001 6.49988C7.25008 11.8845 11.6153 16.2499 17 16.2499C17.7631 16.2499 18.5062 16.1621 19.2196 15.9959C17.8123 18.5337 15.1061 20.25 12 20.25C7.44373 20.25 3.75 16.5562 3.75 11.9999Z" fill="#FFA940"/>
<path d="M15.83 3.25001C15.4158 3.25001 15.08 3.5858 15.08 4.00001C15.08 4.41423 15.4158 4.75001 15.83 4.75001H18.3619L15.2815 8.41435C15.0328 8.61332 14.9368 8.94769 15.0423 9.24826C15.1477 9.54882 15.4315 9.75 15.75 9.75H20.75C21.1642 9.75 21.5 9.41421 21.5 9C21.5 8.58579 21.1642 8.25 20.75 8.25H17.8881L20.9685 4.58567C21.2172 4.38669 21.3132 4.05232 21.2077 3.75176C21.1023 3.4512 20.8185 3.25001 20.5 3.25001H15.83Z" fill="#FFA940"/>
</svg>
