<!--

    Copyright (C) 2017-2019 Dremio Corporation

    Licensed under the Apache License, Version 2.0 (the "License");
    you may not use this file except in compliance with the License.
    You may obtain a copy of the License at

        http://www.apache.org/licenses/LICENSE-2.0

    Unless required by applicable law or agreed to in writing, software
    distributed under the License is distributed on an "AS IS" BASIS,
    WITHOUT WARRANTIES OR CONDITIONS OF ANY KIND, either express or implied.
    See the License for the specific language governing permissions and
    limitations under the License.

-->
<svg xmlns="http://www.w3.org/2000/svg" fill="none" viewBox="0 0 162 177"><path fill="#F9FCFF" fill-rule="evenodd" d="M117.155 154.608c-20.144 5.943-37.64-8.639-56.586-15.648-20.263-7.498-46.693-7.69-56.176-26.074-9.947-19.283-1.467-43.46 10.181-63.091 10.934-18.427 29.64-30.679 50.25-38.752 21.137-8.28 45.744-16.513 64.732-6.29 18.276 9.84 17.119 34.036 22.686 53.357 4.984 17.297 13.919 34.06 7.549 51.579-7.098 19.521-21.749 38.758-42.636 44.919Z" clip-rule="evenodd"/><g filter="url(#a)"><path fill="#000" d="M115.318 21.975H47.184c-7.557 0-13.682 5.279-13.682 11.791v90.746c0 6.513 6.125 11.792 13.682 11.792h68.134c7.556 0 13.682-5.279 13.682-11.792V33.766c0-6.512-6.126-11.791-13.682-11.791Z"/></g><path fill="#fff" d="M115.318 21.975H47.184c-7.557 0-13.682 5.279-13.682 11.791v90.746c0 6.513 6.125 11.792 13.682 11.792h68.134c7.556 0 13.682-5.279 13.682-11.792V33.766c0-6.512-6.126-11.791-13.682-11.791Z"/><path fill="#fff" fill-rule="evenodd" d="M43.106 38.481h76.287c1.007 0 1.824.705 1.824 1.573v84.896c0 .868-.817 1.571-1.824 1.571H43.106a1.98 1.98 0 0 1-1.29-.46c-.342-.295-.534-.695-.534-1.111V40.054c0-.869.817-1.573 1.824-1.573Z" clip-rule="evenodd"/><path fill="#C5CFDC" d="M57.645 22.233H104.3v3.659a4 4 0 0 1-4 4H61.645a4 4 0 0 1-4-4v-3.66Z"/><g fill-rule="evenodd" clip-rule="evenodd" filter="url(#b)"><path fill="#fff" fill-opacity=".7" d="M94.341 99.643c-6.42 6.419-16.359 7.143-23.575 2.187a19.507 19.507 0 0 1-2.618-2.187 17.79 17.79 0 0 1-3.134-4.197 17.69 17.69 0 0 1-1.941-5.356c-1.134-5.833.561-12.112 5.075-16.624 4.525-4.525 10.805-6.21 16.64-5.087 1.858.362 3.66 1.006 5.356 1.941a18.605 18.605 0 0 1 2.877 1.953c.455.373.888.772 1.308 1.193a18.44 18.44 0 0 1 2.188 2.618c4.958 7.213 4.232 17.152-2.176 23.559Z"/><path fill="#CCD5DD" d="M92.545 98.378c-6.68 6.681-17.504 6.68-24.184 0-6.672-6.671-6.672-17.497.008-24.176 6.672-6.672 17.497-6.672 24.168 0 6.68 6.679 6.68 17.505.008 24.176Zm3.428-27.608c-8.574-8.573-22.467-8.573-31.04 0-8.572 8.572-8.58 22.474-.008 31.047 7.803 7.801 20.033 8.504 28.635 2.1.84-.627 1.65-1.329 2.421-2.1a22.198 22.198 0 0 0 2.099-2.42c6.404-8.604 5.694-20.825-2.107-28.627ZM129.713 134.135l-.36.36c-2.381 2.383-6.28 2.383-8.663 0l-21.987-21.987 9.023-9.023 21.987 21.987c2.383 2.383 2.383 6.281 0 8.663Z"/><path fill="#CCD5DD" d="m98.553 98.724 6.498 6.497-4.613 4.612-6.496-6.497a22.892 22.892 0 0 0 2.47-2.143 22.43 22.43 0 0 0 2.141-2.469Z"/><path fill="#95A7B9" d="m129.384 125.202-8.966 8.964-1.614-1.615 8.965-8.965 1.615 1.616ZM108.225 103.795l-9.212 9.211-1.368-1.368 9.211-9.211 1.369 1.368Z"/><path fill="#fff" fill-opacity=".5" d="m88.123 71.904-22.59 22.588a15.87 15.87 0 0 1-1.743-4.815L83.308 70.16a16.49 16.49 0 0 1 4.815 1.745ZM95.529 77.273 71.107 100.31a18.152 18.152 0 0 1-2.483-1.956 16.14 16.14 0 0 1-1.131-1.172l24.719-23.321c.433.335.844.691 1.242 1.068a16.841 16.841 0 0 1 2.075 2.343Z"/></g><defs><filter id="a" width="147.498" height="166.329" x="7.502" y="9.975" color-interpolation-filters="sRGB" filterUnits="userSpaceOnUse"><feFlood flood-opacity="0" result="BackgroundImageFix"/><feColorMatrix in="SourceAlpha" result="hardAlpha" values="0 0 0 0 0 0 0 0 0 0 0 0 0 0 0 0 0 0 127 0"/><feOffset dy="14"/><feGaussianBlur stdDeviation="13"/><feColorMatrix values="0 0 0 0 0.780392 0 0 0 0 0.815686 0 0 0 0 0.85098 0 0 0 0.3 0"/><feBlend in2="BackgroundImageFix" result="effect1_dropShadow_2082_41323"/><feBlend in="SourceGraphic" in2="effect1_dropShadow_2082_41323" result="shape"/></filter><filter id="b" width="121" height="119.942" x="38.5" y="44.34" color-interpolation-filters="sRGB" filterUnits="userSpaceOnUse"><feFlood flood-opacity="0" result="BackgroundImageFix"/><feColorMatrix in="SourceAlpha" result="hardAlpha" values="0 0 0 0 0 0 0 0 0 0 0 0 0 0 0 0 0 0 127 0"/><feOffset dx="4" dy="4"/><feGaussianBlur stdDeviation="12"/><feComposite in2="hardAlpha" operator="out"/><feColorMatrix values="0 0 0 0 1 0 0 0 0 1 0 0 0 0 1 0 0 0 0.71 0"/><feBlend in2="BackgroundImageFix" result="effect1_dropShadow_2082_41323"/><feBlend in="SourceGraphic" in2="effect1_dropShadow_2082_41323" result="shape"/></filter></defs></svg>
