<svg id="onboarding/analytics" viewBox="0 0 64 64" fill="none" xmlns="http://www.w3.org/2000/svg">
<path d="M13.8793 38.6308V32.3972H29.6276V30.2639H13.8793V24.0303H55.795V24.0217H56.755V10.6585C56.755 9.20787 55.5774 8.03027 54.1268 8.03027H6.10971C4.65905 8.03027 3.48145 9.20787 3.48145 10.6585V55.2153C3.48145 56.5636 4.57798 57.6644 5.93051 57.6644H54.3102C55.6585 57.6644 56.7593 56.5679 56.7593 55.2153V46.9935H54.626H13.8836V40.7599H29.6318V38.6265H13.8793V38.6308ZM17.6766 10.7908C18.4574 10.7908 19.0889 11.4223 19.0889 12.2031C19.0889 12.9839 18.4574 13.6153 17.6766 13.6153C16.8958 13.6153 16.2644 12.9839 16.2644 12.2031C16.2644 11.4223 16.8958 10.7908 17.6766 10.7908ZM12.8126 10.7908C13.5934 10.7908 14.2249 11.4223 14.2249 12.2031C14.2249 12.9839 13.5934 13.6153 12.8126 13.6153C12.0318 13.6153 11.4004 12.9839 11.4004 12.2031C11.4004 11.4223 12.0318 10.7908 12.8126 10.7908ZM7.89318 10.7908C8.67398 10.7908 9.30545 11.4223 9.30545 12.2031C9.30545 12.9839 8.67398 13.6153 7.89318 13.6153C7.11238 13.6153 6.48091 12.9839 6.48091 12.2031C6.48091 11.4223 7.11238 10.7908 7.89318 10.7908ZM54.6217 49.1311V55.2196C54.6217 55.3945 54.4809 55.5353 54.306 55.5353H13.8793V49.1353H54.6217V49.1311ZM11.746 15.9023V55.5311H5.93051C5.75558 55.5311 5.61478 55.3903 5.61478 55.2153V15.9023H54.6217V21.8884H13.8793V15.9023H11.746Z" fill="#004061"/>
<path d="M59.4093 26.167H31.4583C30.4471 26.167 29.6279 26.9862 29.6279 27.9974V43.0246C29.6279 44.0358 30.4471 44.855 31.4583 44.855H59.4093C60.4205 44.855 61.2397 44.0358 61.2397 43.0246V27.9974C61.2397 26.9862 60.4205 26.167 59.4093 26.167ZM40.7981 38.2417C40.2562 38.6939 39.4413 38.9201 38.349 38.9201C37.901 38.9201 37.4487 38.8646 36.9965 38.7579C36.5442 38.6513 36.109 38.4934 35.6866 38.2801V36.4283C36.1645 36.7697 36.6253 37.0214 37.0733 37.1878C37.5213 37.3542 37.9607 37.4353 38.4002 37.4353C38.8397 37.4353 39.1853 37.3371 39.4285 37.1366C39.6717 36.9361 39.7911 36.6545 39.7911 36.2961C39.7911 36.023 39.7101 35.7883 39.5479 35.5835C39.3858 35.3787 39.1511 35.2166 38.8439 35.1014L37.965 34.7686C37.0605 34.423 36.4503 34.0646 36.1303 33.6849C35.8103 33.3051 35.6525 32.7974 35.6525 32.1574C35.6525 31.3339 35.917 30.6897 36.4418 30.2203C36.9666 29.751 37.6919 29.5163 38.6093 29.5163C39.0274 29.5163 39.4413 29.5633 39.8594 29.6571C40.2775 29.751 40.6914 29.8918 41.0967 30.0795V31.8289C40.7127 31.5558 40.3202 31.351 39.9234 31.2102C39.5266 31.0694 39.1341 30.9969 38.7458 30.9969C38.3106 30.9969 37.9821 31.0822 37.7517 31.2571C37.5213 31.4321 37.4061 31.6795 37.4061 32.0038C37.4061 32.2555 37.4914 32.4603 37.6578 32.6267C37.8242 32.7931 38.1783 32.9723 38.7117 33.1686L39.4839 33.4587C40.2135 33.7275 40.7511 34.0817 41.0925 34.5211C41.4381 34.9606 41.6087 35.5195 41.6087 36.1894C41.6087 37.1025 41.3399 37.7894 40.7981 38.2374V38.2417ZM48.9218 39.5387L47.693 40.4518L46.3405 38.8859C46.285 38.8987 46.2338 38.9073 46.1997 38.9115C46.1613 38.9158 46.1229 38.9201 46.0887 38.9201C45.0477 38.9201 44.2583 38.5233 43.725 37.7297C43.1874 36.9361 42.9186 35.767 42.9186 34.2182C42.9186 32.6694 43.1874 31.4961 43.725 30.7025C44.2626 29.9089 45.0519 29.5121 46.1015 29.5121C47.1511 29.5121 47.949 29.9089 48.4866 30.7025C49.0242 31.4961 49.293 32.6694 49.293 34.2182C49.293 35.2849 49.165 36.1766 48.909 36.8934C48.653 37.6102 48.2818 38.1265 47.7997 38.4337L48.9303 39.5387H48.9218ZM56.8322 38.7451H51.2087V29.6785H53.0007V37.1665H56.8322V38.7451Z" fill="#167A89"/>
<path d="M46.0972 31.125C45.6407 31.125 45.3036 31.3682 45.0945 31.8546C44.8855 32.341 44.7788 33.1303 44.7788 34.2183C44.7788 35.3063 44.8855 36.0914 45.0945 36.5778C45.3036 37.0642 45.6407 37.3074 46.0972 37.3074C46.5537 37.3074 46.8951 37.0642 47.1041 36.5778C47.3132 36.0914 47.4199 35.3021 47.4199 34.2183C47.4199 33.1346 47.3132 32.341 47.1041 31.8546C46.8951 31.3682 46.558 31.125 46.0972 31.125Z" fill="#167A89"/>
<path d="M39.4838 33.4639L38.7115 33.1737C38.1782 32.9775 37.8241 32.794 37.6577 32.6319C37.4913 32.4698 37.4059 32.2607 37.4059 32.0089C37.4059 31.6847 37.5211 31.4372 37.7515 31.2623C37.9819 31.0873 38.3147 31.002 38.7457 31.002C39.1339 31.002 39.5265 31.0746 39.9233 31.2154C40.3201 31.3562 40.7126 31.5652 41.0966 31.834V30.0847C40.687 29.897 40.2731 29.7561 39.8593 29.6623C39.4411 29.5684 39.023 29.5215 38.6091 29.5215C37.6918 29.5215 36.9665 29.7561 36.4417 30.2255C35.9169 30.6948 35.6523 31.3391 35.6523 32.1625C35.6523 32.8025 35.8145 33.3103 36.1302 33.69C36.4502 34.0697 37.0603 34.4281 37.9649 34.7737L38.8438 35.1065C39.151 35.226 39.3857 35.3839 39.5478 35.5887C39.7099 35.7935 39.791 36.0324 39.791 36.3012C39.791 36.6596 39.6673 36.9412 39.4283 37.1418C39.1894 37.3423 38.8438 37.4404 38.4001 37.4404C37.9563 37.4404 37.5211 37.3593 37.0731 37.1929C36.6251 37.0265 36.1643 36.7748 35.6865 36.4335V38.2852C36.1089 38.4943 36.5441 38.6564 36.9963 38.7631C37.4486 38.8697 37.8966 38.9252 38.3489 38.9252C39.4411 38.9252 40.2603 38.6991 40.7979 38.2468C41.3398 37.7945 41.6086 37.1119 41.6086 36.1988C41.6086 35.5247 41.4379 34.97 41.0923 34.5306C40.7467 34.0911 40.2134 33.737 39.4838 33.4682V33.4639Z" fill="white"/>
<path d="M48.9045 36.8979C49.1605 36.1811 49.2885 35.2894 49.2885 34.2227C49.2885 32.6739 49.0197 31.5006 48.4821 30.707C47.9445 29.9134 47.1509 29.5166 46.097 29.5166C45.0431 29.5166 44.2538 29.9134 43.7205 30.707C43.1829 31.5006 42.9141 32.6739 42.9141 34.2227C42.9141 35.7715 43.1829 36.9406 43.7205 37.7342C44.2581 38.5278 45.0431 38.9246 46.0842 38.9246C46.1183 38.9246 46.1567 38.9246 46.1951 38.9161C46.2335 38.9118 46.2805 38.899 46.3359 38.8905L47.6885 40.4563L48.9173 39.5433L47.7866 38.4382C48.273 38.131 48.6442 37.619 48.8959 36.8979H48.9045ZM47.1082 36.5822C46.8991 37.0686 46.5621 37.3118 46.1013 37.3118C45.6405 37.3118 45.3077 37.0686 45.0986 36.5822C44.8895 36.0958 44.7829 35.3065 44.7829 34.2227C44.7829 33.139 44.8895 32.3454 45.0986 31.859C45.3077 31.3726 45.6447 31.1294 46.1013 31.1294C46.5578 31.1294 46.8991 31.3726 47.1082 31.859C47.3173 32.3454 47.4239 33.1347 47.4239 34.2227C47.4239 35.3107 47.3173 36.0958 47.1082 36.5822Z" fill="white"/>
<path d="M53.0005 29.6787H51.2085V38.7454H56.832V37.1667H53.0005V29.6787Z" fill="white"/>
</svg>
