<svg id="onboarding/building" viewBox="0 0 64 64" fill="none" xmlns="http://www.w3.org/2000/svg">
<path d="M54.6709 10.8706C55.8472 10.8706 56.8042 11.8276 56.8042 13.004V27.2917C56.8042 28.468 55.8472 29.425 54.6709 29.425H37.6695C36.4932 29.425 35.5362 28.468 35.5362 27.2917V13.004C35.5362 11.8276 36.4932 10.8706 37.6695 10.8706H54.6709ZM54.6709 8.7373H37.6695C35.3228 8.7373 33.4028 10.6573 33.4028 13.004V27.2917C33.4028 29.6384 35.3228 31.5584 37.6695 31.5584H54.6709C57.0175 31.5584 58.9375 29.6384 58.9375 27.2917V13.004C58.9375 10.6573 57.0175 8.7373 54.6709 8.7373Z" fill="#167A89"/>
<path d="M26.3305 10.8706C27.5068 10.8706 28.4639 11.8276 28.4639 13.004V27.2917C28.4639 28.468 27.5068 29.425 26.3305 29.425H9.32917C8.15286 29.425 7.19583 28.468 7.19583 27.2917V13.004C7.19583 11.8276 8.15286 10.8706 9.32917 10.8706H26.3305ZM26.3305 8.7373H9.32917C6.9825 8.7373 5.0625 10.6573 5.0625 13.004V27.2917C5.0625 29.6384 6.9825 31.5584 9.32917 31.5584H26.3305C28.6772 31.5584 30.5972 29.6384 30.5972 27.2917V13.004C30.5972 10.6573 28.6772 8.7373 26.3305 8.7373Z" fill="#004061"/>
<path d="M26.3305 36.5484C27.5068 36.5484 28.4639 37.5054 28.4639 38.6817V52.9694C28.4639 54.1458 27.5068 55.1028 26.3305 55.1028H9.32917C8.15286 55.1028 7.19583 54.1458 7.19583 52.9694V38.6817C7.19583 37.5054 8.15286 36.5484 9.32917 36.5484H26.3305ZM26.3305 34.415H9.32917C6.9825 34.415 5.0625 36.335 5.0625 38.6817V52.9694C5.0625 55.3161 6.9825 57.2361 9.32917 57.2361H26.3305C28.6772 57.2361 30.5972 55.3161 30.5972 52.9694V38.6817C30.5972 36.335 28.6772 34.415 26.3305 34.415Z" fill="#004061"/>
<path d="M54.6709 36.5484C55.8472 36.5484 56.8042 37.5054 56.8042 38.6817V52.9694C56.8042 54.1458 55.8472 55.1028 54.6709 55.1028H37.6695C36.4932 55.1028 35.5362 54.1458 35.5362 52.9694V38.6817C35.5362 37.5054 36.4932 36.5484 37.6695 36.5484H54.6709ZM54.6709 34.415H37.6695C35.3228 34.415 33.4028 36.335 33.4028 38.6817V52.9694C33.4028 55.3161 35.3228 57.2361 37.6695 57.2361H54.6709C57.0175 57.2361 58.9375 55.3161 58.9375 52.9694V38.6817C58.9375 36.335 57.0175 34.415 54.6709 34.415Z" fill="#004061"/>
<rect x="35.4136" y="10.667" width="21.76" height="18.7733" fill="#167A89"/>
</svg>
