<svg id="onboarding/dashboard" viewBox="0 0 60 60" fill="none" xmlns="http://www.w3.org/2000/svg">
<path d="M15.2275 19.7041H11V37.4041H15.2275V19.7041Z" fill="#167A89"/>
<path d="M21.2275 28.5537H17V37.4083H21.2275V28.5537Z" fill="#167A89"/>
<path d="M8.45992 8.2041H4.23242V37.4281H8.45992V8.2041Z" fill="#167A89"/>
<path d="M40.9722 21.9084H55.2562V8.19238H40.9722V21.9084ZM42.9722 10.1924H53.2562V19.9084H42.9722V10.1924Z" fill="#004061"/>
<path d="M4.23193 51.6524H55.2559V39.9404H4.23193V51.6524ZM6.23193 42.1324H53.2559V49.4644H6.23193V42.1324Z" fill="#004061"/>
<path d="M55.2518 24.3477H24.1558V26.3477H55.2518V24.3477Z" fill="#004061"/>
<path d="M55.2518 28.5996H24.1558V30.5996H55.2518V28.5996Z" fill="#004061"/>
<path d="M55.2518 32.8643H24.1558V37.4283H55.2518V32.8643Z" fill="#C6E9EF"/>
<path fill-rule="evenodd" clip-rule="evenodd" d="M31.3955 21.9082L31.4818 21.9082C35.2694 21.9082 38.3398 18.8378 38.3398 15.0502C38.3398 11.2626 35.2694 8.1922 31.4818 8.1922L30.9138 8.1922C27.1263 8.1922 24.0558 11.2626 24.0558 15.0502C24.0558 16.9075 24.7941 18.5923 25.9932 19.8272L31.3955 15.1002L31.3955 21.9082Z" fill="#43B8C9"/>
</svg>
