<svg id="onboarding/managing" viewBox="0 0 64 64" fill="none" xmlns="http://www.w3.org/2000/svg">
<path fill-rule="evenodd" clip-rule="evenodd" d="M7.14209 21.8916H57.8592V24.0249H7.14209V21.8916Z" fill="#004061"/>
<path fill-rule="evenodd" clip-rule="evenodd" d="M7.14209 30.2598H57.8592V32.3931H7.14209V30.2598Z" fill="#004061"/>
<path fill-rule="evenodd" clip-rule="evenodd" d="M7.14209 38.6279H57.8592V40.7613H7.14209V38.6279Z" fill="#004061"/>
<path fill-rule="evenodd" clip-rule="evenodd" d="M7.14209 46.9961H57.8592V49.1294H7.14209V46.9961Z" fill="#004061"/>
<path d="M56.6869 55.2163C56.6869 55.3896 56.546 55.5304 56.3727 55.5304H7.99437C7.82104 55.5304 7.68021 55.3896 7.68021 55.2163V15.9035H56.6869V24.0176H58.8202V10.6592C58.8202 9.21 57.6415 8.03125 56.1927 8.03125H8.17438C6.72562 8.03125 5.54688 9.21 5.54688 10.6592V55.2163C5.54688 56.5658 6.64479 57.6638 7.99437 57.6638H56.3727C57.7223 57.6638 58.8202 56.5658 58.8202 55.2163V46.9943H56.6869V55.2163ZM21.1554 12.2016C21.1554 12.9823 20.5225 13.6152 19.7418 13.6152C18.9611 13.6152 18.3282 12.9823 18.3282 12.2016C18.3282 11.4209 18.9611 10.7881 19.7418 10.7881C20.5225 10.7881 21.1554 11.4209 21.1554 12.2016ZM16.2916 12.2016C16.2916 12.9823 15.6586 13.6152 14.878 13.6152C14.0973 13.6152 13.4644 12.9823 13.4644 12.2016C13.4644 11.4209 14.0973 10.7881 14.878 10.7881C15.6586 10.7881 16.2916 11.4209 16.2916 12.2016ZM9.95687 10.7881C10.7376 10.7881 11.3705 11.4209 11.3705 12.2016C11.3705 12.9823 10.7376 13.6152 9.95687 13.6152C9.1762 13.6152 8.54333 12.9823 8.54333 12.2016C8.54333 11.4209 9.1762 10.7881 9.95687 10.7881Z" fill="#004061"/>
<path fill-rule="evenodd" clip-rule="evenodd" d="M18.0498 15.9033V56.9783H15.9165V15.9033H18.0498Z" fill="#004061"/>
<path fill-rule="evenodd" clip-rule="evenodd" d="M7.8306 15.9033V56.9783H5.69727V15.9033H7.8306Z" fill="#004061"/>
<path fill-rule="evenodd" clip-rule="evenodd" d="M28.2686 15.9033V56.9783H26.1353V15.9033H28.2686Z" fill="#004061"/>
<path fill-rule="evenodd" clip-rule="evenodd" d="M38.4878 15.9033V56.9783H36.3545V15.9033H38.4878Z" fill="#004061"/>
<path fill-rule="evenodd" clip-rule="evenodd" d="M48.7071 15.9033V56.9783H46.5737V15.9033H48.7071Z" fill="#004061"/>
<path fill-rule="evenodd" clip-rule="evenodd" d="M58.9258 15.9033V56.9783H56.7925V15.9033H58.9258Z" fill="#004061"/>
<path d="M51.3179 18.3467H13.7077C12.6971 18.3467 11.8779 19.1659 11.8779 20.1764V40.9114C11.8779 41.9219 12.6971 42.7411 13.7077 42.7411H51.3179C52.3284 42.7411 53.1476 41.9219 53.1476 40.9114V20.1764C53.1476 19.1659 52.3284 18.3467 51.3179 18.3467Z" fill="#167A89"/>
<path d="M25.8337 28.2375L18.5462 30.85L25.8337 33.4442V35.7267L16.1445 31.9225V29.7592L25.8337 25.9459V28.2375Z" fill="white"/>
<path d="M34.8904 23.04H36.9162L29.7112 38.4675H27.6854L34.8904 23.04Z" fill="white"/>
<path d="M38.7679 28.2375V25.9459L48.457 29.7592V31.9225L38.7679 35.7267V33.4442L46.0554 30.85L38.7679 28.2375Z" fill="white"/>
<path d="M7.61084 10.2393H22.9708V14.0793H7.61084V10.2393Z" fill="#004061"/>
</svg>
