<svg id="onboarding/others" viewBox="0 0 64 64" fill="none" xmlns="http://www.w3.org/2000/svg">
<path d="M31.6191 2.78223C15.4101 2.78223 2.22607 15.9705 2.22607 32.1796C2.22607 48.3886 15.4143 61.5769 31.6234 61.5769C47.8325 61.5769 61.0207 48.3886 61.0207 32.1796C61.0207 15.9705 47.8282 2.78223 31.6191 2.78223ZM31.6191 59.4393C16.5877 59.4393 4.35514 47.211 4.35514 32.1753C4.35514 17.1396 16.5877 4.91556 31.6191 4.91556C46.6506 4.91556 58.8831 17.1438 58.8831 32.1796C58.8831 47.2153 46.6549 59.4436 31.6191 59.4436V59.4393Z" fill="#004061"/>
<path d="M31.6191 2.78223C15.4101 2.78223 2.22607 15.9705 2.22607 32.1796C2.22607 48.3886 15.4143 61.5769 31.6234 61.5769C47.8325 61.5769 61.0207 48.3886 61.0207 32.1796C61.0207 15.9705 47.8282 2.78223 31.6191 2.78223ZM31.6191 59.4393C16.5877 59.4393 4.35514 47.211 4.35514 32.1753C4.35514 17.1396 16.5877 4.91556 31.6191 4.91556C46.6506 4.91556 58.8831 17.1438 58.8831 32.1796C58.8831 47.2153 46.6549 59.4436 31.6191 59.4436V59.4393Z" stroke="#004061"/>
<path d="M9.0249 32.0003C9.0249 19.5063 19.1904 9.34082 31.6844 9.34082C44.1784 9.34082 54.3438 19.5063 54.3438 32.0003C54.3438 44.4943 44.1784 54.6598 31.6844 54.6598C19.1904 54.6598 9.0249 44.4943 9.0249 32.0003ZM10.1582 32.0003C10.1582 43.869 19.8157 53.5264 31.6844 53.5264C43.553 53.5264 53.2105 43.869 53.2105 32.0003C53.2105 20.1316 43.553 10.4742 31.6844 10.4742C19.8157 10.4742 10.1582 20.1316 10.1582 32.0003Z" fill="#167A89" stroke="#2E92A1"/>
<circle cx="31.7219" cy="32.2786" r="21.7043" fill="#167A89"/>
<circle cx="19.4796" cy="32.5001" r="3.47959" fill="white"/>
<circle cx="31.5001" cy="32.5001" r="3.47959" fill="white"/>
<circle cx="43.5206" cy="32.5001" r="3.47959" fill="white"/>
</svg>
