<!--

    Copyright (C) 2017-2019 Dremio Corporation

    Licensed under the Apache License, Version 2.0 (the "License");
    you may not use this file except in compliance with the License.
    You may obtain a copy of the License at

        http://www.apache.org/licenses/LICENSE-2.0

    Unless required by applicable law or agreed to in writing, software
    distributed under the License is distributed on an "AS IS" BASIS,
    WITHOUT WARRANTIES OR CONDITIONS OF ANY KIND, either express or implied.
    See the License for the specific language governing permissions and
    limitations under the License.

-->
<svg id='data-types/TypeMap' viewBox="0 0 24 24" fill="none" xmlns="http://www.w3.org/2000/svg">
<path d="M7.92182 7.18427C8.21471 6.89138 8.68958 6.89138 8.98248 7.18427C9.27537 7.47716 9.27537 7.95204 8.98248 8.24493L6.25406 10.9733L9.66281 15.6651C9.90627 16.0002 9.83199 16.4692 9.49688 16.7127C9.16178 16.9562 8.69275 16.8819 8.44928 16.5468L5.18018 12.0472L3.61416 13.6132C3.57858 13.6488 3.54031 13.6801 3.5 13.707V16.0833C3.5 16.4975 3.16421 16.8333 2.75 16.8333C2.33579 16.8333 2 16.4975 2 16.0833V7.74997C2 7.33575 2.33579 6.99997 2.75 6.99997C3.16421 6.99997 3.5 7.33575 3.5 7.74997V11.6061L7.92182 7.18427Z" fill="#505862"/>
<path d="M12.0833 10.5C12.4975 10.5 12.8333 10.1642 12.8333 9.75C12.8333 9.33579 12.4975 9 12.0833 9C11.6691 9 11.3333 9.33579 11.3333 9.75C11.3333 10.1642 11.6691 10.5 12.0833 10.5Z" fill="#505862"/>
<path d="M12.0833 15C12.4975 15 12.8333 14.6642 12.8333 14.25C12.8333 13.8358 12.4975 13.5 12.0833 13.5C11.6691 13.5 11.3333 13.8358 11.3333 14.25C11.3333 14.6642 11.6691 15 12.0833 15Z" fill="#505862"/>
<path d="M14.3735 8.02714C14.2318 7.63791 14.4325 7.20753 14.8217 7.06586C15.211 6.92419 15.6413 7.12488 15.783 7.51411L18.1769 14.0913L20.5708 7.51412C20.7125 7.12489 21.1429 6.9242 21.5321 7.06587C21.9213 7.20754 22.122 7.63792 21.9804 8.02715L18.9496 16.354C18.8306 16.681 18.5078 16.8749 18.1769 16.8446C17.8459 16.8749 17.5232 16.681 17.4042 16.354L14.3735 8.02714Z" fill="#505862"/>
</svg>
