<!--

    Copyright (C) 2017-2019 Dremio Corporation

    Licensed under the Apache License, Version 2.0 (the "License");
    you may not use this file except in compliance with the License.
    You may obtain a copy of the License at

        http://www.apache.org/licenses/LICENSE-2.0

    Unless required by applicable law or agreed to in writing, software
    distributed under the License is distributed on an "AS IS" BASIS,
    WITHOUT WARRANTIES OR CONDITIONS OF ANY KIND, either express or implied.
    See the License for the specific language governing permissions and
    limitations under the License.

-->
<svg id="data-types/TypeFormula" viewBox="0 0 24 24" fill="none" xmlns="http://www.w3.org/2000/svg">
<path d="M12.482 3.82701C11.369 3.00301 9.786 3.73601 9.69399 5.11701L9.53499 7.50001H12.25C12.4489 7.50001 12.6397 7.57903 12.7803 7.71968C12.921 7.86033 13 8.0511 13 8.25001C13 8.44892 12.921 8.63969 12.7803 8.78034C12.6397 8.92099 12.4489 9.00001 12.25 9.00001H9.435L8.83499 18.006C8.65499 20.691 5.47699 22.008 3.45199 20.236L3.25599 20.064C3.10628 19.933 3.01474 19.7479 3.00152 19.5494C2.9883 19.3509 3.05448 19.1552 3.18549 19.0055C3.31651 18.8558 3.50164 18.7643 3.70014 18.751C3.89865 18.7378 4.09428 18.804 4.24399 18.935L4.439 19.106C5.52999 20.061 7.24199 19.352 7.33799 17.906L7.93199 9.00001H5.74999C5.55108 9.00001 5.36032 8.92099 5.21966 8.78034C5.07901 8.63969 4.99999 8.44892 4.99999 8.25001C4.99999 8.0511 5.07901 7.86033 5.21966 7.71968C5.36032 7.57903 5.55108 7.50001 5.74999 7.50001H8.03199L8.19699 5.01701C8.36799 2.45201 11.309 1.09101 13.375 2.62201L13.746 2.89701C13.8287 2.95419 13.899 3.02741 13.9528 3.11231C14.0066 3.19721 14.0428 3.29205 14.0592 3.39122C14.0757 3.49038 14.072 3.59183 14.0484 3.68955C14.0249 3.78727 13.9819 3.87925 13.9221 3.96004C13.8623 4.04083 13.7869 4.10877 13.7003 4.15983C13.6137 4.21089 13.5178 4.24403 13.4181 4.25727C13.3185 4.27051 13.2172 4.26359 13.1203 4.23692C13.0234 4.21025 12.9328 4.16437 12.854 4.10201L12.482 3.82701Z" fill="#505862"/>
<path d="M13.712 12.763C13.6595 12.6633 13.5852 12.5767 13.4947 12.5096C13.4042 12.4425 13.2997 12.3967 13.189 12.3756C13.0783 12.3545 12.9643 12.3585 12.8554 12.3875C12.7465 12.4165 12.6455 12.4696 12.56 12.543L12.238 12.819C12.1633 12.8839 12.0765 12.9333 11.9827 12.9645C11.8888 12.9957 11.7897 13.0081 11.691 13.0008C11.5924 12.9935 11.4962 12.9668 11.4079 12.9222C11.3196 12.8776 11.241 12.8159 11.1766 12.7408C11.1123 12.6657 11.0634 12.5786 11.0328 12.4845C11.0023 12.3904 10.9906 12.2913 10.9986 12.1927C11.0065 12.0941 11.0339 11.998 11.0791 11.91C11.1243 11.822 11.1864 11.7439 11.262 11.68L11.584 11.404C11.8406 11.1839 12.1435 11.0245 12.4701 10.9375C12.7968 10.8506 13.1389 10.8384 13.4709 10.9018C13.803 10.9652 14.1165 11.1026 14.3881 11.3038C14.6598 11.505 14.8826 11.7649 15.04 12.064L16.017 13.922L18.72 11.219C18.7892 11.1474 18.872 11.0903 18.9635 11.051C19.055 11.0118 19.1535 10.9911 19.253 10.9903C19.3526 10.9895 19.4514 11.0085 19.5435 11.0463C19.6357 11.084 19.7194 11.1398 19.7898 11.2102C19.8602 11.2807 19.9158 11.3644 19.9535 11.4566C19.9912 11.5488 20.0101 11.6476 20.0092 11.7472C20.0083 11.8468 19.9875 11.9452 19.9482 12.0366C19.9088 12.1281 19.8517 12.2109 19.78 12.28L16.749 15.312L18.288 18.236C18.3405 18.3357 18.4147 18.4223 18.5053 18.4894C18.5958 18.5565 18.7003 18.6023 18.811 18.6234C18.9217 18.6446 19.0357 18.6405 19.1446 18.6115C19.2535 18.5825 19.3545 18.5294 19.44 18.456L19.762 18.18C19.9132 18.0506 20.1096 17.9865 20.308 18.0019C20.5064 18.0173 20.6906 18.1108 20.82 18.262C20.9494 18.4132 21.0135 18.6096 20.9981 18.808C20.9827 19.0064 20.8892 19.1906 20.738 19.32L20.416 19.595C20.1594 19.8151 19.8565 19.9745 19.5298 20.0615C19.2032 20.1484 18.8611 20.1607 18.5291 20.0973C18.197 20.0338 17.8835 19.8964 17.6119 19.6952C17.3402 19.494 17.1174 19.2342 16.96 18.935L15.638 16.422L12.28 19.78C12.2113 19.8537 12.1285 19.9128 12.0365 19.9538C11.9445 19.9948 11.8452 20.0168 11.7445 20.0186C11.6438 20.0204 11.5438 20.0019 11.4504 19.9641C11.357 19.9264 11.2722 19.8703 11.201 19.799C11.1297 19.7278 11.0736 19.643 11.0359 19.5496C10.9982 19.4562 10.9796 19.3562 10.9814 19.2555C10.9832 19.1548 11.0052 19.0555 11.0462 18.9635C11.0872 18.8715 11.1463 18.7887 11.22 18.72L14.907 15.033L13.712 12.763Z" fill="#505862"/>
</svg>
