<!--

    Copyright (C) 2017-2019 Dremio Corporation

    Licensed under the Apache License, Version 2.0 (the "License");
    you may not use this file except in compliance with the License.
    You may obtain a copy of the License at

        http://www.apache.org/licenses/LICENSE-2.0

    Unless required by applicable law or agreed to in writing, software
    distributed under the License is distributed on an "AS IS" BASIS,
    WITHOUT WARRANTIES OR CONDITIONS OF ANY KIND, either express or implied.
    See the License for the specific language governing permissions and
    limitations under the License.

-->
<svg id="data-types/TypeBoolean" viewBox="0 0 24 24" fill="none" xmlns="http://www.w3.org/2000/svg">
<path d="M16.7393 7.99373H16.2393V8.49373V11.2907V11.7907H16.7393H18.9464C19.0845 11.7907 19.1964 11.9026 19.1964 12.0407C19.1964 12.1788 19.0845 12.2907 18.9464 12.2907H16.7393H16.2393V12.7907V16.096C16.2393 16.2341 16.1273 16.346 15.9893 16.346C15.8512 16.346 15.7393 16.2341 15.7393 16.096V7.90212C15.7393 7.89283 15.7397 7.88383 15.7407 7.87512L15.7461 7.82293L15.7407 7.77074C15.7397 7.76202 15.7393 7.75302 15.7393 7.74373C15.7393 7.60566 15.8512 7.49373 15.9893 7.49373H20.2607C20.3988 7.49373 20.5107 7.60566 20.5107 7.74373C20.5107 7.8818 20.3988 7.99373 20.2607 7.99373H16.7393ZM6.04069 8.54198L6.08636 8H5.54245H3.75C3.61193 8 3.5 7.88807 3.5 7.75C3.5 7.61193 3.61193 7.5 3.75 7.5L8.82949 7.5C8.96756 7.5 9.07949 7.61193 9.07949 7.75C9.07949 7.88807 8.96756 8 8.82949 8L7.0371 8H6.4932L6.53886 8.54198C6.53946 8.54908 6.53977 8.55636 6.53977 8.56382V16.1022C6.53977 16.2403 6.42785 16.3522 6.28978 16.3522C6.1517 16.3522 6.03978 16.2403 6.03978 16.1022V8.56382C6.03978 8.55635 6.04009 8.54907 6.04069 8.54198ZM12 4.5C12.1381 4.5 12.25 4.61193 12.25 4.75V19.25C12.25 19.3881 12.1381 19.5 12 19.5C11.8619 19.5 11.75 19.3881 11.75 19.25V4.75C11.75 4.61193 11.8619 4.5 12 4.5Z" fill="#505862" stroke="#505862"/>
</svg>
