<svg id="common/Loader" viewBox="0 0 24 24" fill="none" xmlns="http://www.w3.org/2000/svg">
<path fill-rule="evenodd" clip-rule="evenodd" d="M12.4762 2C11.9502 2 11.5238 2.40703 11.5238 2.9091V6.54546C11.5238 7.04753 11.9502 7.45456 12.4762 7.45456C13.0022 7.45456 13.4286 7.04753 13.4286 6.54546V2.9091C13.4286 2.40703 13.0022 2 12.4762 2ZM12.4763 16.5454C11.9503 16.5454 11.5239 16.9525 11.5239 17.4545V21.0909C11.5239 21.593 11.9503 22 12.4763 22C13.0022 22 13.4286 21.593 13.4286 21.0909V17.4545C13.4286 16.9525 13.0022 16.5454 12.4763 16.5454ZM6.41526 4.9289L9.10903 7.5003C9.48097 7.85534 9.48097 8.43089 9.10894 8.78592C8.92307 8.96342 8.67926 9.05221 8.43556 9.05221C8.19191 9.05221 7.94813 8.96342 7.76218 8.78592L5.06841 6.21452C4.69647 5.85952 4.69647 5.28394 5.06841 4.9289C5.4404 4.57386 6.04344 4.57386 6.41526 4.9289ZM7.7143 12C7.7143 11.4979 7.28789 11.0909 6.76191 11.0909H2.95239C2.42641 11.0909 2 11.4979 2 12C2 12.502 2.42641 12.9091 2.95239 12.9091H6.76191C7.28789 12.9091 7.7143 12.502 7.7143 12ZM7.76218 15.2142C8.13409 14.8591 8.73716 14.8591 9.10903 15.2142C9.48097 15.5692 9.48097 16.1448 9.10903 16.4998L6.4153 19.0711C6.22943 19.2486 5.98565 19.3373 5.74192 19.3373C5.49818 19.3373 5.25441 19.2486 5.06846 19.0711C4.69651 18.7161 4.69651 18.1404 5.06846 17.7854L7.76218 15.2142Z" fill="#E9EDF0"/>
</svg>
