<svg id="navigation-bar/go-to-catalogs" viewBox="0 0 24 24" xmlns="http://www.w3.org/2000/svg">
<path fill-rule="evenodd" clip-rule="evenodd" d="M22 10.75C22 9.784 21.216 9 20.25 9H17.75C16.784 9 16 9.784 16 10.75V13.25C16 13.7141 16.1844 14.1592 16.5126 14.4874C16.8408 14.8156 17.2859 15 17.75 15H20.25C20.7141 15 21.1592 14.8156 21.4874 14.4874C21.8156 14.1592 22 13.7141 22 13.25V10.75ZM8 10.75C8 9.784 7.216 9 6.25 9H3.75C3.38951 9 3.05437 9.10918 2.77586 9.29626C2.6621 9.37248 2.55685 9.46235 2.46268 9.56461C2.39771 9.63516 2.33905 9.71049 2.28705 9.78971C2.1056 10.0655 2 10.3955 2 10.75V13.25C2 13.7141 2.18437 14.1592 2.51256 14.4874C2.84075 14.8156 3.28587 15 3.75 15H6.25C6.71413 15 7.15925 14.8156 7.48744 14.4874C7.81563 14.1592 8 13.7141 8 13.25V10.75ZM15 10.75C15 9.784 14.216 9 13.25 9H10.75C9.784 9 9 9.784 9 10.75V13.25C9 13.7141 9.18437 14.1592 9.51256 14.4874C9.84075 14.8156 10.2859 15 10.75 15H13.25C13.7141 15 14.1592 14.8156 14.4874 14.4874C14.8156 14.1592 15 13.7141 15 13.25V10.75ZM17.5732 10.5732C17.6201 10.5263 17.6837 10.5 17.75 10.5H20.25C20.3163 10.5 20.3799 10.5263 20.4268 10.5732C20.4737 10.6201 20.5 10.6837 20.5 10.75V13.25C20.5 13.3163 20.4737 13.3799 20.4268 13.4268C20.3799 13.4737 20.3163 13.5 20.25 13.5H17.75C17.612 13.5 17.5 13.388 17.5 13.25V10.75C17.5 10.6837 17.5263 10.6201 17.5732 10.5732ZM3.75 10.5L3.693 10.507C3.63816 10.5198 3.58926 10.5508 3.55423 10.5949C3.5192 10.639 3.50009 10.6937 3.5 10.75V13.25C3.5 13.388 3.612 13.5 3.75 13.5H6.25C6.3163 13.5 6.37989 13.4737 6.42678 13.4268C6.47366 13.3799 6.5 13.3163 6.5 13.25V10.75C6.5 10.6837 6.47366 10.6201 6.42678 10.5732C6.37989 10.5263 6.3163 10.5 6.25 10.5H3.75ZM10.5732 10.5732C10.6201 10.5263 10.6837 10.5 10.75 10.5H13.25C13.3163 10.5 13.3799 10.5263 13.4268 10.5732C13.4737 10.6201 13.5 10.6837 13.5 10.75V13.25C13.5 13.3163 13.4737 13.3799 13.4268 13.4268C13.3799 13.4737 13.3163 13.5 13.25 13.5H10.75C10.612 13.5 10.5 13.388 10.5 13.25V10.75C10.5 10.6837 10.5263 10.6201 10.5732 10.5732ZM15 3.75C15 2.784 14.216 2 13.25 2H10.75C9.784 2 9 2.784 9 3.75V6.25C9 6.71413 9.18437 7.15925 9.51256 7.48744C9.84075 7.81563 10.2859 8 10.75 8H13.25C13.7141 8 14.1592 7.81563 14.4874 7.48744C14.8156 7.15925 15 6.71413 15 6.25V3.75ZM22 3.75C22 2.784 21.216 2 20.25 2H17.75C16.784 2 16 2.784 16 3.75V6.25C16 6.71413 16.1844 7.15925 16.5126 7.48744C16.8408 7.81563 17.2859 8 17.75 8H20.25C20.7141 8 21.1592 7.81563 21.4874 7.48744C21.8156 7.15925 22 6.71413 22 6.25V3.75ZM8 3.75C8 2.784 7.216 2 6.25 2H3.75L3.606 2.006C3.1683 2.04214 2.76019 2.24154 2.46268 2.56461C2.16517 2.88768 2.00002 3.31081 2 3.75V6.25C2 6.71413 2.18437 7.15925 2.51256 7.48744C2.84075 7.81563 3.28587 8 3.75 8H6.25C6.71413 8 7.15925 7.81563 7.48744 7.48744C7.81563 7.15925 8 6.71413 8 6.25V3.75ZM10.75 3.5H13.25C13.3163 3.5 13.3799 3.52634 13.4268 3.57322C13.4737 3.62011 13.5 3.6837 13.5 3.75V6.25C13.5 6.3163 13.4737 6.37989 13.4268 6.42678C13.3799 6.47366 13.3163 6.5 13.25 6.5H10.75C10.612 6.5 10.5 6.388 10.5 6.25V3.75C10.5 3.6837 10.5263 3.62011 10.5732 3.57322C10.6201 3.52634 10.6837 3.5 10.75 3.5ZM17.75 3.5H20.25C20.3163 3.5 20.3799 3.52634 20.4268 3.57322C20.4737 3.62011 20.5 3.6837 20.5 3.75V6.25C20.5 6.3163 20.4737 6.37989 20.4268 6.42678C20.3799 6.47366 20.3163 6.5 20.25 6.5H17.75C17.612 6.5 17.5 6.388 17.5 6.25V3.75C17.5 3.6837 17.5263 3.62011 17.5732 3.57322C17.6201 3.52634 17.6837 3.5 17.75 3.5ZM3.75 3.5H6.25C6.3163 3.5 6.37989 3.52634 6.42678 3.57322C6.47366 3.62011 6.5 3.6837 6.5 3.75V6.25C6.5 6.3163 6.47366 6.37989 6.42678 6.42678C6.37989 6.47366 6.3163 6.5 6.25 6.5H3.75C3.612 6.5 3.5 6.388 3.5 6.25V3.75C3.50009 3.69368 3.5192 3.63903 3.55423 3.59493C3.58926 3.55083 3.63816 3.51984 3.693 3.507L3.75 3.5ZM22 17.75C22 16.784 21.216 16 20.25 16H17.75C16.784 16 16 16.784 16 17.75V20.25C16 20.7141 16.1844 21.1592 16.5126 21.4874C16.8408 21.8156 17.2859 22 17.75 22H20.25C20.7141 22 21.1592 21.8156 21.4874 21.4874C21.8156 21.1592 22 20.7141 22 20.25V17.75ZM8 17.75C8 16.784 7.216 16 6.25 16H3.75C2.784 16 2 16.784 2 17.75V20.25C2 20.7141 2.18437 21.1592 2.51256 21.4874C2.84075 21.8156 3.28587 22 3.75 22H6.25C6.71413 22 7.15925 21.8156 7.48744 21.4874C7.81563 21.1592 8 20.7141 8 20.25V17.75ZM15 17.75C15 16.784 14.216 16 13.25 16H10.75C9.784 16 9 16.784 9 17.75V20.25C9 20.7141 9.18437 21.1592 9.51256 21.4874C9.84075 21.8156 10.2859 22 10.75 22H13.25C13.7141 22 14.1592 21.8156 14.4874 21.4874C14.8156 21.1592 15 20.7141 15 20.25V17.75ZM17.75 17.5H20.25C20.3163 17.5 20.3799 17.5263 20.4268 17.5732C20.4737 17.6201 20.5 17.6837 20.5 17.75V20.25C20.5 20.3163 20.4737 20.3799 20.4268 20.4268C20.3799 20.4737 20.3163 20.5 20.25 20.5H17.75C17.612 20.5 17.5 20.388 17.5 20.25V17.75C17.5 17.6837 17.5263 17.6201 17.5732 17.5732C17.6201 17.5263 17.6837 17.5 17.75 17.5ZM3.75 17.5H6.25C6.3163 17.5 6.37989 17.5263 6.42678 17.5732C6.47366 17.6201 6.5 17.6837 6.5 17.75V20.25C6.5 20.3163 6.47366 20.3799 6.42678 20.4268C6.37989 20.4737 6.3163 20.5 6.25 20.5H3.75C3.612 20.5 3.5 20.388 3.5 20.25V17.75C3.5 17.6837 3.52634 17.6201 3.57322 17.5732C3.62011 17.5263 3.6837 17.5 3.75 17.5ZM10.75 17.5H13.25C13.3163 17.5 13.3799 17.5263 13.4268 17.5732C13.4737 17.6201 13.5 17.6837 13.5 17.75V20.25C13.5 20.3163 13.4737 20.3799 13.4268 20.4268C13.3799 20.4737 13.3163 20.5 13.25 20.5H10.75C10.612 20.5 10.5 20.388 10.5 20.25V17.75C10.5 17.6837 10.5263 17.6201 10.5732 17.5732C10.6201 17.5263 10.6837 17.5 10.75 17.5Z" fill="currentColor"/>
</svg>
