<svg id="navigation-bar/go-to-dataset" viewBox="0 0 24 24" fill="none" xmlns="http://www.w3.org/2000/svg">
<path fill-rule="evenodd" clip-rule="evenodd" d="M2 6.25C2 5.00736 3.00736 4 4.25 4H19.75C20.9926 4 22 5.00736 22 6.25V12.8096C21.3137 12.1509 20.4831 11.6415 19.5604 11.3333H20.5V9.20833H17.375V11.0012C16.858 11.0109 16.3557 11.081 15.875 11.2048V9.20833H12.75V11.3333H15.4396C14.5058 11.6452 13.6664 12.1632 12.9754 12.8333H12.75V13.0629C11.8888 13.9844 11.2927 15.1567 11.083 16.4583H8.125V18.5H11.0764C11.1572 19.0232 11.3004 19.5258 11.4982 20H4.25C3.00736 20 2 18.9926 2 17.75V6.25ZM4.25 5.5C3.83579 5.5 3.5 5.83579 3.5 6.25V7.70833H6.625V5.5H4.25ZM3.5 11.3333V9.20833H6.625V11.3333H3.5ZM3.5 14.9583V12.8333H6.625V14.9583H3.5ZM3.5 17.75V16.4583H6.625V18.5H4.25C3.83579 18.5 3.5 18.1642 3.5 17.75ZM20.5 6.25V7.70833H17.375V5.5H19.75C20.1642 5.5 20.5 5.83579 20.5 6.25ZM12.75 5.5H15.875V7.70833H12.75V5.5ZM8.125 5.5H11.25V7.70833H8.125V5.5ZM11.25 14.9583H8.125V12.8333H11.25V14.9583ZM8.125 9.20833V11.3333H11.25V9.20833H8.125Z" fill="currentColor"/>
<path fill-rule="evenodd" clip-rule="evenodd" d="M17.5 23C20.5376 23 23 20.5376 23 17.5C23 14.4624 20.5376 12 17.5 12C14.4624 12 12 14.4624 12 17.5C12 20.5376 14.4624 23 17.5 23ZM14 17.5C14 17.2239 14.2239 17 14.5 17L19.2929 17L17.6464 15.3536C17.4512 15.1583 17.4512 14.8417 17.6464 14.6464C17.8417 14.4512 18.1583 14.4512 18.3536 14.6464L20.8536 17.1464C21.0488 17.3417 21.0488 17.6583 20.8536 17.8536L18.3536 20.3536C18.1583 20.5488 17.8417 20.5488 17.6464 20.3536C17.4512 20.1583 17.4512 19.8417 17.6464 19.6464L19.2929 18L14.5 18C14.2239 18 14 17.7761 14 17.5Z" fill="currentColor"/>
</svg>
