<!--

    Copyright (C) 2017-2019 Dremio Corporation

    Licensed under the Apache License, Version 2.0 (the "License");
    you may not use this file except in compliance with the License.
    You may obtain a copy of the License at

        http://www.apache.org/licenses/LICENSE-2.0

    Unless required by applicable law or agreed to in writing, software
    distributed under the License is distributed on an "AS IS" BASIS,
    WITHOUT WARRANTIES OR CONDITIONS OF ANY KIND, either express or implied.
    See the License for the specific language governing permissions and
    limitations under the License.

-->
<svg  id="column-types/varbinary" viewBox="0 0 24 24" fill="none" xmlns="http://www.w3.org/2000/svg">
<mask id="path-1-inside-1_1216_12959" fill="white">
<path fill-rule="evenodd" clip-rule="evenodd" d="M4.994 7C4.19994 7 3.43841 7.31544 2.87692 7.87692C2.31544 8.43841 2 9.19994 2 9.994V13.8373C2 14.6314 2.31544 15.3929 2.87692 15.9544C3.43841 16.5159 4.19994 16.8313 4.994 16.8313H5.006C5.80006 16.8313 6.56159 16.5159 7.12308 15.9544C7.68456 15.3929 8 14.6314 8 13.8373V9.994C8 9.19994 7.68456 8.43841 7.12308 7.87692C6.56159 7.31544 5.80006 7 5.006 7H4.994ZM4.994 8.5C4.169 8.5 3.5 9.169 3.5 9.994V13.8373C3.5 14.2336 3.6574 14.6136 3.93758 14.8938C4.21776 15.1739 4.59777 15.3313 4.994 15.3313H5.006C5.831 15.3313 6.5 14.6623 6.5 13.8373V9.994C6.5 9.169 5.831 8.5 5.006 8.5H4.994ZM16.8769 7.87692C17.4384 7.31544 18.1999 7 18.994 7H19.006C19.8001 7 20.5616 7.31544 21.1231 7.87692C21.6846 8.43841 22 9.19994 22 9.994V13.8373C22 14.6314 21.6846 15.3929 21.1231 15.9544C20.5616 16.5159 19.8001 16.8313 19.006 16.8313H18.994C18.1999 16.8313 17.4384 16.5159 16.8769 15.9544C16.3154 15.3929 16 14.6314 16 13.8373V9.994C16 9.19994 16.3154 8.43841 16.8769 7.87692ZM17.5 9.994C17.5 9.169 18.169 8.5 18.994 8.5H19.006C19.831 8.5 20.5 9.169 20.5 9.994V13.8373C20.5 14.6623 19.831 15.3313 19.006 15.3313H18.994C18.5978 15.3313 18.2178 15.1739 17.9376 14.8938C17.6574 14.6136 17.5 14.2336 17.5 13.8373V9.994ZM13.1871 7.29652C13.2859 7.42669 13.3395 7.58556 13.3397 7.74898V16.0823C13.3397 16.2812 13.2607 16.472 13.12 16.6126C12.9794 16.7533 12.7886 16.8323 12.5897 16.8323C12.3908 16.8323 12.2 16.7533 12.0594 16.6126C11.9187 16.472 11.8397 16.2812 11.8397 16.0823V9.83198C11.4265 10.2356 10.9689 10.5912 10.4757 10.892C10.3912 10.9438 10.2973 10.9784 10.1994 10.9938C10.1015 11.0091 10.0015 11.0049 9.9052 10.9813C9.80892 10.9578 9.71826 10.9154 9.63846 10.8566C9.55867 10.7978 9.49132 10.7238 9.4403 10.6388C9.38929 10.5538 9.35562 10.4596 9.34126 10.3615C9.32689 10.2634 9.3321 10.1635 9.35659 10.0675C9.38108 9.97142 9.42437 9.88119 9.48395 9.80198C9.54353 9.72277 9.61821 9.65615 9.70369 9.60598C10.3797 9.20098 10.9437 8.64098 11.3457 8.16798C11.561 7.91361 11.7607 7.64646 11.9437 7.36798L11.9497 7.35898C12.0349 7.21953 12.1633 7.11172 12.3154 7.05196C12.4675 6.99219 12.635 6.98374 12.7923 7.02789C12.9496 7.07203 13.0883 7.16636 13.1871 7.29652Z"/>
</mask>
<path fill-rule="evenodd" clip-rule="evenodd" d="M4.994 7C4.19994 7 3.43841 7.31544 2.87692 7.87692C2.31544 8.43841 2 9.19994 2 9.994V13.8373C2 14.6314 2.31544 15.3929 2.87692 15.9544C3.43841 16.5159 4.19994 16.8313 4.994 16.8313H5.006C5.80006 16.8313 6.56159 16.5159 7.12308 15.9544C7.68456 15.3929 8 14.6314 8 13.8373V9.994C8 9.19994 7.68456 8.43841 7.12308 7.87692C6.56159 7.31544 5.80006 7 5.006 7H4.994ZM4.994 8.5C4.169 8.5 3.5 9.169 3.5 9.994V13.8373C3.5 14.2336 3.6574 14.6136 3.93758 14.8938C4.21776 15.1739 4.59777 15.3313 4.994 15.3313H5.006C5.831 15.3313 6.5 14.6623 6.5 13.8373V9.994C6.5 9.169 5.831 8.5 5.006 8.5H4.994ZM16.8769 7.87692C17.4384 7.31544 18.1999 7 18.994 7H19.006C19.8001 7 20.5616 7.31544 21.1231 7.87692C21.6846 8.43841 22 9.19994 22 9.994V13.8373C22 14.6314 21.6846 15.3929 21.1231 15.9544C20.5616 16.5159 19.8001 16.8313 19.006 16.8313H18.994C18.1999 16.8313 17.4384 16.5159 16.8769 15.9544C16.3154 15.3929 16 14.6314 16 13.8373V9.994C16 9.19994 16.3154 8.43841 16.8769 7.87692ZM17.5 9.994C17.5 9.169 18.169 8.5 18.994 8.5H19.006C19.831 8.5 20.5 9.169 20.5 9.994V13.8373C20.5 14.6623 19.831 15.3313 19.006 15.3313H18.994C18.5978 15.3313 18.2178 15.1739 17.9376 14.8938C17.6574 14.6136 17.5 14.2336 17.5 13.8373V9.994ZM13.1871 7.29652C13.2859 7.42669 13.3395 7.58556 13.3397 7.74898V16.0823C13.3397 16.2812 13.2607 16.472 13.12 16.6126C12.9794 16.7533 12.7886 16.8323 12.5897 16.8323C12.3908 16.8323 12.2 16.7533 12.0594 16.6126C11.9187 16.472 11.8397 16.2812 11.8397 16.0823V9.83198C11.4265 10.2356 10.9689 10.5912 10.4757 10.892C10.3912 10.9438 10.2973 10.9784 10.1994 10.9938C10.1015 11.0091 10.0015 11.0049 9.9052 10.9813C9.80892 10.9578 9.71826 10.9154 9.63846 10.8566C9.55867 10.7978 9.49132 10.7238 9.4403 10.6388C9.38929 10.5538 9.35562 10.4596 9.34126 10.3615C9.32689 10.2634 9.3321 10.1635 9.35659 10.0675C9.38108 9.97142 9.42437 9.88119 9.48395 9.80198C9.54353 9.72277 9.61821 9.65615 9.70369 9.60598C10.3797 9.20098 10.9437 8.64098 11.3457 8.16798C11.561 7.91361 11.7607 7.64646 11.9437 7.36798L11.9497 7.35898C12.0349 7.21953 12.1633 7.11172 12.3154 7.05196C12.4675 6.99219 12.635 6.98374 12.7923 7.02789C12.9496 7.07203 13.0883 7.16636 13.1871 7.29652Z" fill="currentColor"/>
<path d="M2.87692 7.87692L2.16982 7.16982L2.16982 7.16982L2.87692 7.87692ZM2.87692 15.9544L2.16982 16.6615H2.16982L2.87692 15.9544ZM7.12308 7.87692L7.83019 7.16982L7.83018 7.16982L7.12308 7.87692ZM16.8769 7.87692L16.1698 7.16982V7.16982L16.8769 7.87692ZM21.1231 7.87692L21.8302 7.16982V7.16982L21.1231 7.87692ZM17.9376 14.8938L17.2305 15.6009L17.2305 15.6009L17.9376 14.8938ZM13.3397 7.74898H14.3397L14.3397 7.74761L13.3397 7.74898ZM13.1871 7.29652L12.3906 7.90116L12.3906 7.90116L13.1871 7.29652ZM13.12 16.6126L12.4129 15.9055L12.4129 15.9055L13.12 16.6126ZM11.8397 9.83198H12.8397V7.45712L11.1409 9.11665L11.8397 9.83198ZM10.4757 10.892L9.95508 10.0382L9.95255 10.0397L10.4757 10.892ZM10.1994 10.9938L10.3541 11.9817L10.3541 11.9817L10.1994 10.9938ZM9.9052 10.9813L10.1427 10.01L10.1427 10.01L9.9052 10.9813ZM9.63846 10.8566L9.0453 11.6617L9.04531 11.6617L9.63846 10.8566ZM9.4403 10.6388L10.2977 10.1241L10.2977 10.1241L9.4403 10.6388ZM9.34126 10.3615L8.35182 10.5065L8.35182 10.5065L9.34126 10.3615ZM9.35659 10.0675L10.3256 10.3146V10.3146L9.35659 10.0675ZM9.48395 9.80198L8.68477 9.20088L8.68477 9.20089L9.48395 9.80198ZM9.70369 9.60598L10.2099 10.4684L10.2176 10.4638L9.70369 9.60598ZM11.3457 8.16798L12.1077 8.81558L12.109 8.814L11.3457 8.16798ZM11.9437 7.36798L11.1116 6.81329L11.108 6.81875L11.9437 7.36798ZM11.9497 7.35898L12.7818 7.91366L12.7927 7.89721L12.803 7.88035L11.9497 7.35898ZM12.3154 7.05196L11.9497 6.12123L11.9497 6.12123L12.3154 7.05196ZM12.7923 7.02789L13.0624 6.06507L13.0624 6.06507L12.7923 7.02789ZM3.58403 8.58403C3.95798 8.21008 4.46516 8 4.994 8V6C3.93472 6 2.91884 6.4208 2.16982 7.16982L3.58403 8.58403ZM3 9.994C3 9.46516 3.21008 8.95798 3.58403 8.58403L2.16982 7.16982C1.4208 7.91884 1 8.93473 1 9.994H3ZM3 13.8373V9.994H1V13.8373H3ZM3.58403 15.2473C3.21008 14.8734 3 14.3662 3 13.8373H1C1 14.8966 1.4208 15.9125 2.16982 16.6615L3.58403 15.2473ZM4.994 15.8313C4.46516 15.8313 3.95798 15.6213 3.58403 15.2473L2.16982 16.6615C2.91884 17.4105 3.93472 17.8313 4.994 17.8313V15.8313ZM5.006 15.8313H4.994V17.8313H5.006V15.8313ZM6.41597 15.2473C6.04202 15.6213 5.53484 15.8313 5.006 15.8313V17.8313C6.06528 17.8313 7.08116 17.4105 7.83019 16.6615L6.41597 15.2473ZM7 13.8373C7 14.3662 6.78992 14.8734 6.41597 15.2473L7.83019 16.6615C8.57921 15.9125 9 14.8966 9 13.8373H7ZM7 9.994V13.8373H9V9.994H7ZM6.41597 8.58403C6.78992 8.95798 7 9.46516 7 9.994H9C9 8.93473 8.57921 7.91884 7.83019 7.16982L6.41597 8.58403ZM5.006 8C5.53484 8 6.04202 8.21008 6.41597 8.58403L7.83018 7.16982C7.08116 6.4208 6.06528 6 5.006 6V8ZM4.994 8H5.006V6H4.994V8ZM4.5 9.994C4.5 9.72128 4.72129 9.5 4.994 9.5V7.5C3.61671 7.5 2.5 8.61672 2.5 9.994H4.5ZM4.5 13.8373V9.994H2.5V13.8373H4.5ZM4.64469 14.1866C4.55205 14.094 4.5 13.9684 4.5 13.8373H2.5C2.5 14.4988 2.76276 15.1331 3.23048 15.6009L4.64469 14.1866ZM4.994 14.3313C4.86298 14.3313 4.73733 14.2793 4.64469 14.1866L3.23048 15.6009C3.69819 16.0686 4.33255 16.3313 4.994 16.3313V14.3313ZM5.006 14.3313H4.994V16.3313H5.006V14.3313ZM5.5 13.8373C5.5 14.1101 5.27871 14.3313 5.006 14.3313V16.3313C6.38328 16.3313 7.5 15.2146 7.5 13.8373H5.5ZM5.5 9.994V13.8373H7.5V9.994H5.5ZM5.006 9.5C5.27872 9.5 5.5 9.72129 5.5 9.994H7.5C7.5 8.61671 6.38328 7.5 5.006 7.5V9.5ZM4.994 9.5H5.006V7.5H4.994V9.5ZM18.994 6C17.9347 6 16.9188 6.4208 16.1698 7.16982L17.584 8.58403C17.958 8.21008 18.4652 8 18.994 8V6ZM19.006 6H18.994V8H19.006V6ZM21.8302 7.16982C21.0812 6.4208 20.0653 6 19.006 6V8C19.5348 8 20.042 8.21008 20.416 8.58403L21.8302 7.16982ZM23 9.994C23 8.93473 22.5792 7.91884 21.8302 7.16982L20.416 8.58403C20.7899 8.95798 21 9.46516 21 9.994H23ZM23 13.8373V9.994H21V13.8373H23ZM21.8302 16.6615C22.5792 15.9125 23 14.8966 23 13.8373H21C21 14.3662 20.7899 14.8734 20.416 15.2473L21.8302 16.6615ZM19.006 17.8313C20.0653 17.8313 21.0812 17.4105 21.8302 16.6615L20.416 15.2473C20.042 15.6213 19.5348 15.8313 19.006 15.8313V17.8313ZM18.994 17.8313H19.006V15.8313H18.994V17.8313ZM16.1698 16.6615C16.9188 17.4105 17.9347 17.8313 18.994 17.8313V15.8313C18.4652 15.8313 17.958 15.6213 17.584 15.2473L16.1698 16.6615ZM15 13.8373C15 14.8966 15.4208 15.9125 16.1698 16.6615L17.584 15.2473C17.2101 14.8734 17 14.3662 17 13.8373H15ZM15 9.994V13.8373H17V9.994H15ZM16.1698 7.16982C15.4208 7.91884 15 8.93473 15 9.994H17C17 9.46516 17.2101 8.95798 17.584 8.58403L16.1698 7.16982ZM18.994 7.5C17.6167 7.5 16.5 8.61672 16.5 9.994H18.5C18.5 9.72128 18.7213 9.5 18.994 9.5V7.5ZM19.006 7.5H18.994V9.5H19.006V7.5ZM21.5 9.994C21.5 8.61672 20.3833 7.5 19.006 7.5V9.5C19.2787 9.5 19.5 9.72129 19.5 9.994H21.5ZM21.5 13.8373V9.994H19.5V13.8373H21.5ZM19.006 16.3313C20.3833 16.3313 21.5 15.2146 21.5 13.8373H19.5C19.5 14.1101 19.2787 14.3313 19.006 14.3313V16.3313ZM18.994 16.3313H19.006V14.3313H18.994V16.3313ZM17.2305 15.6009C17.6982 16.0686 18.3325 16.3313 18.994 16.3313V14.3313C18.863 14.3313 18.7373 14.2793 18.6447 14.1866L17.2305 15.6009ZM16.5 13.8373C16.5 14.4988 16.7628 15.1331 17.2305 15.6009L18.6447 14.1866C18.552 14.094 18.5 13.9684 18.5 13.8373H16.5ZM16.5 9.994V13.8373H18.5V9.994H16.5ZM14.3397 7.74761C14.3392 7.36631 14.2141 6.9956 13.9836 6.69188L12.3906 7.90116C12.3576 7.85777 12.3398 7.80481 12.3397 7.75034L14.3397 7.74761ZM14.3397 16.0823V7.74898H12.3397V16.0823H14.3397ZM13.8271 17.3198C14.1553 16.9916 14.3397 16.5464 14.3397 16.0823H12.3397C12.3397 16.016 12.366 15.9524 12.4129 15.9055L13.8271 17.3198ZM12.5897 17.8323C13.0538 17.8323 13.4989 17.6479 13.8271 17.3197L12.4129 15.9055C12.4598 15.8587 12.5234 15.8323 12.5897 15.8323V17.8323ZM11.3523 17.3198C11.6804 17.6479 12.1256 17.8323 12.5897 17.8323V15.8323C12.656 15.8323 12.7196 15.8587 12.7665 15.9055L11.3523 17.3198ZM10.8397 16.0823C10.8397 16.5464 11.0241 16.9916 11.3523 17.3198L12.7665 15.9055C12.8134 15.9524 12.8397 16.016 12.8397 16.0823H10.8397ZM10.8397 9.83198V16.0823H12.8397V9.83198H10.8397ZM10.9963 11.7458C11.5539 11.4058 12.0713 11.0037 12.5385 10.5473L11.1409 9.11665C10.7817 9.46759 10.3839 9.77673 9.95508 10.0382L10.9963 11.7458ZM10.3541 11.9817C10.5826 11.9459 10.8017 11.8652 10.9988 11.7442L9.95255 10.0397C9.98071 10.0224 10.012 10.0109 10.0446 10.0058L10.3541 11.9817ZM9.66768 11.9527C9.89234 12.0076 10.1257 12.0175 10.3541 11.9817L10.0446 10.0058C10.0773 10.0007 10.1106 10.0021 10.1427 10.01L9.66768 11.9527ZM9.04531 11.6617C9.2315 11.7989 9.44303 11.8978 9.66768 11.9527L10.1427 10.01C10.1748 10.0178 10.205 10.0319 10.2316 10.0515L9.04531 11.6617ZM8.58293 11.1535C8.70196 11.3518 8.85912 11.5245 9.0453 11.6617L10.2316 10.0515C10.2582 10.0711 10.2807 10.0958 10.2977 10.1241L8.58293 11.1535ZM8.35182 10.5065C8.38535 10.7353 8.4639 10.9552 8.58293 11.1535L10.2977 10.1241C10.3147 10.1524 10.3259 10.1839 10.3307 10.2166L8.35182 10.5065ZM8.38761 9.82036C8.33046 10.0445 8.31829 10.2777 8.35182 10.5065L10.3307 10.2166C10.3355 10.2492 10.3337 10.2826 10.3256 10.3146L8.38761 9.82036ZM8.68477 9.20089C8.54576 9.38571 8.44475 9.59626 8.3876 9.82036L10.3256 10.3146C10.3174 10.3466 10.303 10.3767 10.2831 10.4031L8.68477 9.20089ZM9.1975 8.74356C8.99805 8.86062 8.82378 9.01606 8.68477 9.20088L10.2831 10.4031C10.2633 10.4295 10.2384 10.4517 10.2099 10.4684L9.1975 8.74356ZM10.5837 7.52038C10.2207 7.94749 9.73784 8.41979 9.18976 8.74815L10.2176 10.4638C11.0215 9.98217 11.6667 9.33447 12.1077 8.81558L10.5837 7.52038ZM11.108 6.81875C10.9471 7.06353 10.7716 7.29836 10.5824 7.52196L12.109 8.814C12.3503 8.52885 12.5742 8.22938 12.7794 7.9172L11.108 6.81875ZM11.1176 6.8043L11.1116 6.8133L12.7758 7.92266L12.7818 7.91366L11.1176 6.8043ZM11.9497 6.12123C11.5948 6.26068 11.2952 6.51223 11.0964 6.83761L12.803 7.88035C12.7746 7.92683 12.7318 7.96276 12.6811 7.98268L11.9497 6.12123ZM13.0624 6.06507C12.6953 5.96206 12.3046 5.98178 11.9497 6.12123L12.6811 7.98268C12.6304 8.0026 12.5746 8.00542 12.5222 7.99071L13.0624 6.06507ZM13.9836 6.69189C13.753 6.38817 13.4296 6.16807 13.0624 6.06507L12.5222 7.9907C12.4697 7.97599 12.4235 7.94455 12.3906 7.90116L13.9836 6.69189Z" fill="currentColor" mask="url(#path-1-inside-1_1216_12959)"/>
</svg>
