<svg id="vcs/fork" viewBox="0 0 24 24" fill="none"
  xmlns="http://www.w3.org/2000/svg">
  <path fill-rule="evenodd" clip-rule="evenodd" d="M5.5 7.5C6.60457 7.5 7.5 6.60457 7.5 5.5C7.5 4.39543 6.60457 3.5 5.5 3.5C4.39543 3.5 3.5 4.39543 3.5 5.5C3.5 6.60457 4.39543 7.5 5.5 7.5ZM6.25 8.91946C7.82259 8.57612 9 7.17556 9 5.5C9 3.567 7.433 2 5.5 2C3.567 2 2 3.567 2 5.5C2 7.17556 3.17741 8.57612 4.75 8.91946V10C4.75 11.5188 5.98122 12.75 7.5 12.75H11.25V15.0805C9.67741 15.4239 8.5 16.8244 8.5 18.5C8.5 20.433 10.067 22 12 22C13.933 22 15.5 20.433 15.5 18.5C15.5 16.8244 14.3226 15.4239 12.75 15.0805V12.75H16.5C18.0188 12.75 19.25 11.5188 19.25 10V8.91946C20.8226 8.57612 22 7.17556 22 5.5C22 3.567 20.433 2 18.5 2C16.567 2 15 3.567 15 5.5C15 7.17556 16.1774 8.57612 17.75 8.91946V10C17.75 10.6904 17.1904 11.25 16.5 11.25H12.75H11.25H7.5C6.80964 11.25 6.25 10.6904 6.25 10V8.91946ZM20.5 5.5C20.5 6.60457 19.6046 7.5 18.5 7.5C17.3954 7.5 16.5 6.60457 16.5 5.5C16.5 4.39543 17.3954 3.5 18.5 3.5C19.6046 3.5 20.5 4.39543 20.5 5.5ZM14 18.5C14 19.6046 13.1046 20.5 12 20.5C10.8954 20.5 10 19.6046 10 18.5C10 17.3954 10.8954 16.5 12 16.5C13.1046 16.5 14 17.3954 14 18.5Z" fill="currentColor"/>
</svg>
