<svg id="interface/arrow-left" viewBox="0 0 24 24" fill="none" xmlns="http://www.w3.org/2000/svg">
<path d="M17.7742 11.9203L17.7812 12.0203C17.7815 12.2017 17.716 12.3771 17.5968 12.5139C17.4777 12.6507 17.313 12.7396 17.1332 12.7643L17.0312 12.7713L9.77725 12.7703L11.2802 14.2723C11.4073 14.3993 11.4845 14.5676 11.4979 14.7468C11.5113 14.9259 11.46 15.1038 11.3532 15.2483L11.2812 15.3323C11.1542 15.4596 10.9857 15.537 10.8063 15.5504C10.627 15.5638 10.4488 15.5123 10.3042 15.4053L10.2202 15.3333L7.43825 12.5543C7.31123 12.4273 7.234 12.259 7.22061 12.0799C7.20721 11.9008 7.25854 11.7228 7.36525 11.5783L7.43825 11.4943L10.2635 8.66487C10.3975 8.53191 10.5767 8.45437 10.7654 8.44773C10.954 8.44109 11.1382 8.50583 11.2812 8.62903C11.4243 8.75223 11.5156 8.92483 11.5369 9.11239C11.5583 9.29995 11.5081 9.48866 11.3965 9.64087L11.3245 9.72487L9.78125 11.2703H17.0312C17.2128 11.2704 17.3881 11.3363 17.5248 11.4558C17.6614 11.5754 17.75 11.7404 17.7742 11.9203Z" fill="#008489"/>
</svg>
