<svg id="interface/arrow-right-small" viewBox="0 0 24 24" fill="none" xmlns="http://www.w3.org/2000/svg">
<path d="M6.22575 12.0797L6.21875 11.9797C6.21852 11.7983 6.28404 11.6229 6.40319 11.4861C6.52234 11.3493 6.68703 11.2604 6.86675 11.2357L6.96875 11.2287L14.2227 11.2297L12.7198 9.72772C12.5927 9.60073 12.5155 9.43236 12.5021 9.25325C12.4887 9.07414 12.54 8.89617 12.6468 8.7517L12.7188 8.6677C12.8458 8.54042 13.0143 8.46303 13.1937 8.44963C13.373 8.43623 13.5512 8.48771 13.6958 8.5947L13.7798 8.6667L16.5618 11.4457C16.6888 11.5727 16.766 11.741 16.7794 11.9201C16.7928 12.0992 16.7415 12.2772 16.6348 12.4217L16.5618 12.5057L13.7365 15.3351C13.6025 15.4681 13.4233 15.5456 13.2346 15.5523C13.046 15.5589 12.8618 15.4942 12.7188 15.371C12.5757 15.2478 12.4844 15.0752 12.4631 14.8876C12.4417 14.7001 12.4919 14.5113 12.6035 14.3591L12.6755 14.2751L14.2188 12.7297L6.96875 12.7297C6.78721 12.7296 6.61186 12.6637 6.47523 12.5442C6.3386 12.4246 6.24996 12.2596 6.22575 12.0797Z" fill="white"/>
</svg>
