<svg id="interface/checkbox" viewBox="0 0 12 10" fill="none" xmlns="http://www.w3.org/2000/svg">
<path d="M10.4697 0.968946L3.99968 7.43895L1.52968 4.96895L1.44568 4.89595C1.29347 4.7843 1.10476 4.73415 0.9172 4.75551C0.729644 4.77687 0.557041 4.86817 0.433838 5.01119C0.310636 5.15421 0.245897 5.33843 0.25254 5.52709C0.259184 5.71574 0.336721 5.89495 0.469679 6.02895L3.46968 9.02895L3.55368 9.10195C3.69815 9.20866 3.87612 9.25998 4.05523 9.24659C4.23434 9.23319 4.40269 9.15596 4.52968 9.02895L11.5297 2.02895L11.6027 1.94495C11.7143 1.79274 11.7645 1.60402 11.7431 1.41647C11.7218 1.22891 11.6305 1.05631 11.4874 0.933106C11.3444 0.809904 11.1602 0.745164 10.9715 0.751808C10.7829 0.758451 10.6037 0.835989 10.4697 0.968946Z" fill="currentColor"/>
</svg>
