<svg id="interface/computeAccess" viewBox="0 0 16 16" fill="none" xmlns="http://www.w3.org/2000/svg">
<path d="M12.1667 4.6667C12.1667 4.88771 12.0789 5.09967 11.9226 5.25595C11.7663 5.41224 11.5543 5.50003 11.3333 5.50003C11.1123 5.50003 10.9003 5.41224 10.7441 5.25595C10.5878 5.09967 10.5 4.88771 10.5 4.6667C10.5 4.44569 10.5878 4.23372 10.7441 4.07744C10.9003 3.92116 11.1123 3.83337 11.3333 3.83337C11.5543 3.83337 11.7663 3.92116 11.9226 4.07744C12.0789 4.23372 12.1667 4.44569 12.1667 4.6667ZM10.3333 1.3667C9.17542 1.36741 8.06515 1.82769 7.2464 2.64645C6.42764 3.4652 5.96736 4.57547 5.96665 5.73337C5.96665 5.99137 5.99998 6.24003 6.03998 6.46937C6.04585 6.49823 6.04466 6.52809 6.03654 6.55641C6.02842 6.58472 6.01359 6.61066 5.99332 6.63203L1.83665 10.7894C1.49279 11.133 1.29951 11.5992 1.29932 12.0854V13.5334C1.29932 14.1774 1.82198 14.7 2.46598 14.7H4.13265C4.44207 14.7 4.73882 14.5771 4.95761 14.3583C5.1764 14.1395 5.29932 13.8428 5.29932 13.5334V12.7H6.46665C6.92665 12.7 7.29998 12.3267 7.29998 11.8667V10.7H8.46665C8.68245 10.7002 8.88989 10.6166 9.04532 10.4669C9.20075 10.3172 9.29204 10.113 9.29998 9.89737C9.63065 9.9827 9.97998 10.0334 10.3333 10.0334C11.4912 10.0327 12.6015 9.57237 13.4202 8.75362C14.239 7.93486 14.6993 6.82459 14.7 5.6667C14.7 3.24603 12.7313 1.3667 10.3333 1.3667ZM6.96665 5.73337C6.96736 4.84069 7.32228 3.98477 7.9535 3.35355C8.58472 2.72233 9.44064 2.36741 10.3333 2.3667C12.2013 2.3667 13.7 3.8207 13.7 5.6667C13.6993 6.55938 13.3443 7.41529 12.7131 8.04651C12.0819 8.67773 11.226 9.03266 10.3333 9.03337C9.87998 9.03337 9.41332 8.91937 8.99665 8.74003C8.92055 8.70734 8.83752 8.69407 8.75502 8.70141C8.67252 8.70875 8.59313 8.73647 8.524 8.78207C8.45486 8.82768 8.39813 8.88975 8.35891 8.9627C8.3197 9.03566 8.29922 9.11721 8.29932 9.20003V9.70003H7.13332C6.67332 9.70003 6.29998 10.0734 6.29998 10.5334V11.7H5.13332C4.67332 11.7 4.29998 12.0734 4.29998 12.5334V13.5334C4.29998 13.5776 4.28242 13.62 4.25117 13.6512C4.21991 13.6825 4.17752 13.7 4.13332 13.7H2.46665C2.42245 13.7 2.38005 13.6825 2.3488 13.6512C2.31754 13.62 2.29998 13.5776 2.29998 13.5334V12.0854C2.29998 11.8647 2.38798 11.652 2.54398 11.496L6.70132 7.33937C6.83513 7.20439 6.93444 7.03916 6.99084 6.85766C7.04724 6.67616 7.05907 6.48374 7.02532 6.2967C6.98954 6.11097 6.96992 5.92248 6.96665 5.73337Z" fill="#4E50AF"/>
</svg>
