<svg id="interface/history" viewBox="0 0 24 24" fill="none" xmlns="http://www.w3.org/2000/svg">
<path d="M12 3C13.8149 3.00005 15.5874 3.54882 17.0849 4.57427C18.5823 5.59972 19.7348 7.05395 20.391 8.7461C21.0471 10.4382 21.1764 12.2892 20.7617 14.0562C20.3471 15.8231 19.4079 17.4234 18.0675 18.647C16.7271 19.8706 15.0481 20.6604 13.2508 20.9126C11.4535 21.1649 9.62192 20.8679 7.99643 20.0606C6.37095 19.2533 5.02752 17.9734 4.14246 16.3889C3.2574 14.8045 2.87206 12.9894 3.03701 11.182C3.04588 11.0839 3.07398 10.9885 3.11971 10.9013C3.16544 10.814 3.2279 10.7367 3.30353 10.6736C3.37917 10.6105 3.46649 10.5629 3.56051 10.5335C3.65453 10.5042 3.75342 10.4936 3.85151 10.5025C3.94961 10.5114 4.045 10.5395 4.13224 10.5852C4.21948 10.6309 4.29685 10.6934 4.35995 10.769C4.42305 10.8447 4.47063 10.932 4.49998 11.026C4.52933 11.12 4.53988 11.2189 4.53101 11.317C4.42813 12.4128 4.56898 13.5177 4.94346 14.5526C5.31794 15.5876 5.91677 16.5268 6.69701 17.303C7.39207 18.0012 8.21856 18.5549 9.12875 18.932C10.0389 19.3091 11.0148 19.5021 12 19.5C13.2785 19.4997 14.5357 19.1727 15.6522 18.5499C16.7687 17.9271 17.7074 17.0292 18.3793 15.9415C19.0512 14.8538 19.4339 13.6124 19.491 12.3352C19.5482 11.0581 19.2779 9.78746 18.7058 8.64411C18.1338 7.50077 17.2789 6.52264 16.2225 5.8026C15.1661 5.08257 13.9431 4.64454 12.6698 4.53011C11.3965 4.41568 10.115 4.62864 8.94715 5.14878C7.77928 5.66893 6.76375 6.47897 5.99701 7.502H8.75301C8.94304 7.50206 9.12595 7.57425 9.2648 7.70398C9.40366 7.8337 9.48809 8.0113 9.50104 8.20088C9.51399 8.39046 9.4545 8.5779 9.33458 8.7253C9.21466 8.87271 9.04326 8.9691 8.85501 8.995L8.75301 9.002H4.25001C4.06878 9.002 3.89367 8.93636 3.75708 8.81724C3.62049 8.69811 3.53166 8.53356 3.50701 8.354L3.50001 8.252V3.752C3.50007 3.56198 3.57226 3.37906 3.70199 3.24021C3.83171 3.10136 4.00931 3.01693 4.19889 3.00398C4.38847 2.99103 4.57591 3.05052 4.72331 3.17044C4.87072 3.29035 4.96711 3.46175 4.99301 3.65L5.00001 3.752L4.99901 6.343C5.84211 5.29817 6.90862 4.45554 8.12015 3.87703C9.33168 3.29852 10.6574 2.99884 12 3ZM11.25 7C11.4313 7.00001 11.6064 7.06565 11.7429 7.18477C11.8795 7.30389 11.9684 7.46845 11.993 7.648L12 7.75V12H14.25C14.44 12.0001 14.623 12.0722 14.7618 12.202C14.9007 12.3317 14.9851 12.5093 14.998 12.6989C15.011 12.8885 14.9515 13.0759 14.8316 13.2233C14.7117 13.3707 14.5403 13.4671 14.352 13.493L14.25 13.5H11.25C11.0688 13.5 10.8937 13.4344 10.7571 13.3152C10.6205 13.1961 10.5317 13.0316 10.507 12.852L10.5 12.75V7.75C10.5 7.55109 10.579 7.36033 10.7197 7.21967C10.8603 7.07902 11.0511 7 11.25 7Z" fill="currentColor"/>
</svg>
