<svg id="interface/privilege" viewBox="0 0 24 24" fill="none" xmlns="http://www.w3.org/2000/svg">
<path fill-rule="evenodd" clip-rule="evenodd" d="M12 6C13.6569 6 15 7.34315 15 9C15 10.6569 13.6569 12 12 12C10.3432 12 9.00001 10.6569 9.00001 9C9.00001 7.34315 10.3432 6 12 6ZM12 7.5C11.1716 7.5 10.5 8.17157 10.5 9C10.5 9.82843 11.1716 10.5 12 10.5C12.8284 10.5 13.5 9.82843 13.5 9C13.5 8.17157 12.8284 7.5 12 7.5Z" fill="currentColor"/>
<path d="M8.25 17C8.6612 17 8.99511 16.6691 8.99995 16.259H9.0048V16.2571C8.94227 15.0635 9.77012 14.5 11.938 14.5C14.0677 14.5 14.9631 15.0562 15.0034 16.1784C15.0011 16.2019 15 16.2258 15 16.25C15 16.6642 15.3358 17 15.75 17C16.1612 17 16.4951 16.6691 16.4999 16.259H16.5048C16.5048 14.0898 14.8469 13 11.938 13C9.06113 13 7.43887 14.0745 7.50176 16.1982C7.50059 16.2153 7.5 16.2326 7.5 16.25C7.5 16.6642 7.83579 17 8.25 17Z" fill="currentColor"/>
<path fill-rule="evenodd" clip-rule="evenodd" d="M3.75 5C3.33579 5 3 5.33579 3 5.75V11C3 16.0012 5.95756 19.6757 11.7251 21.9478C11.9018 22.0174 12.0982 22.0174 12.2749 21.9478C18.0424 19.6757 21 16.0012 21 11V5.75C21 5.33579 20.6642 5 20.25 5C17.5866 5 14.992 4.05652 12.45 2.15C12.1833 1.95 11.8167 1.95 11.55 2.15C9.00797 4.05652 6.41341 5 3.75 5ZM4.5 11V6.47793C7.07735 6.32585 9.58084 5.38829 12 3.67782C14.4192 5.38829 16.9227 6.32585 19.5 6.47793V11C19.5 15.2556 17.0466 18.3789 12 20.4419C6.95337 18.3789 4.5 15.2556 4.5 11Z" fill="currentColor"/>
</svg>
