<svg id="interface/sort-up" viewBox="0 0 24 24" fill="none" xmlns="http://www.w3.org/2000/svg">
<path d="M12.0797 17.7744L11.9797 17.7814C11.7983 17.7816 11.6229 17.7161 11.4861 17.5969C11.3493 17.4778 11.2604 17.3131 11.2357 17.1334L11.2287 17.0314L11.2297 9.77737L9.72772 11.2804C9.60073 11.4074 9.43236 11.4846 9.25325 11.498C9.07414 11.5114 8.89617 11.4601 8.7517 11.3534L8.6677 11.2814C8.54042 11.1543 8.46303 10.9858 8.44963 10.8064C8.43623 10.6271 8.48771 10.4489 8.5947 10.3044L8.6667 10.2204L11.4457 7.43837C11.5727 7.31135 11.741 7.23413 11.9201 7.22073C12.0992 7.20733 12.2772 7.25866 12.4217 7.36537L12.5057 7.43837L15.3351 10.2636C15.4681 10.3976 15.5456 10.5768 15.5523 10.7655C15.5589 10.9541 15.4942 11.1384 15.371 11.2814C15.2478 11.4244 15.0752 11.5157 14.8876 11.5371C14.7001 11.5584 14.5113 11.5083 14.3591 11.3966L14.2751 11.3246L12.7297 9.78137V17.0314C12.7296 17.2129 12.6637 17.3883 12.5442 17.5249C12.4246 17.6615 12.2596 17.7502 12.0797 17.7744Z" fill="currentColor"/>
</svg>
