<svg id="interface/storage" viewBox="0 0 16 16" fill="none" xmlns="http://www.w3.org/2000/svg">
<path fill-rule="evenodd" clip-rule="evenodd" d="M2.66675 4.00016C2.66675 3.54016 2.87675 3.13816 3.18275 2.8135C3.48608 2.49216 3.90208 2.22483 4.37808 2.01216C5.33075 1.58483 6.61141 1.3335 8.00008 1.3335C9.38875 1.3335 10.6694 1.58483 11.6221 2.01216C12.0981 2.2255 12.5141 2.49216 12.8174 2.8135C13.1234 3.13816 13.3334 3.54016 13.3334 4.00016V12.0002C13.3334 12.4602 13.1234 12.8622 12.8174 13.1868C12.5141 13.5082 12.0981 13.7755 11.6221 13.9888C10.6694 14.4155 9.38875 14.6668 8.00008 14.6668C6.61141 14.6668 5.33075 14.4155 4.37808 13.9888C3.90208 13.7755 3.48608 13.5088 3.18275 13.1868C2.87675 12.8622 2.66675 12.4602 2.66675 12.0002V4.00016ZM3.66675 4.00016C3.66675 4.13816 3.72675 4.30683 3.91008 4.50016C4.09608 4.6975 4.38808 4.8975 4.78675 5.07616C5.58341 5.43283 6.71941 5.66683 8.00008 5.66683C9.28075 5.66683 10.4167 5.4335 11.2134 5.07616C11.6121 4.8975 11.9041 4.6975 12.0901 4.50016C12.2734 4.30683 12.3334 4.13816 12.3334 4.00016C12.3334 3.86216 12.2734 3.6935 12.0901 3.50016C11.9041 3.30283 11.6121 3.10283 11.2134 2.92416C10.4167 2.5675 9.28008 2.3335 8.00008 2.3335C6.71941 2.3335 5.58341 2.56683 4.78675 2.92416C4.38808 3.10283 4.09608 3.30283 3.91008 3.50016C3.72675 3.6935 3.66675 3.86216 3.66675 4.00016ZM12.3334 5.59483C12.1201 5.7415 11.8801 5.87283 11.6221 5.98816C10.6694 6.4155 9.38875 6.66683 8.00008 6.66683C6.61141 6.66683 5.33075 6.4155 4.37808 5.98816C4.12967 5.87861 3.8916 5.74697 3.66675 5.59483V6.66683C3.66675 6.80483 3.72675 6.9735 3.91008 7.16683C4.09608 7.36416 4.38808 7.56416 4.78675 7.74283C5.58341 8.0995 6.71941 8.3335 8.00008 8.3335C9.28075 8.3335 10.4167 8.10016 11.2134 7.74283C11.6121 7.56416 11.9041 7.36416 12.0901 7.16683C12.2734 6.9735 12.3334 6.80483 12.3334 6.66683V5.59483ZM3.66675 9.3335V8.2615C3.8916 8.41364 4.12967 8.54528 4.37808 8.65483C5.33075 9.08216 6.61141 9.3335 8.00008 9.3335C9.38875 9.3335 10.6694 9.08216 11.6221 8.65483C11.8801 8.5395 12.1201 8.40816 12.3334 8.2615V9.3335C12.3334 9.4715 12.2734 9.64016 12.0901 9.8335C11.9041 10.0308 11.6121 10.2308 11.2134 10.4095C10.4167 10.7668 9.28075 11.0002 8.00008 11.0002C6.71941 11.0002 5.58341 10.7662 4.78675 10.4095C4.38808 10.2308 4.09608 10.0308 3.91008 9.8335C3.72675 9.64016 3.66675 9.4715 3.66675 9.3335ZM3.66675 10.9282V12.0002C3.66675 12.1382 3.72675 12.3068 3.91008 12.5002C4.09608 12.6975 4.38808 12.8975 4.78675 13.0762C5.58341 13.4328 6.71941 13.6668 8.00008 13.6668C9.28075 13.6668 10.4167 13.4335 11.2134 13.0762C11.6121 12.8975 11.9041 12.6975 12.0901 12.5002C12.2734 12.3068 12.3334 12.1382 12.3334 12.0002V10.9282C12.1201 11.0748 11.8801 11.2062 11.6221 11.3215C10.6694 11.7488 9.38875 12.0002 8.00008 12.0002C6.61141 12.0002 5.33075 11.7488 4.37808 11.3215C4.12967 11.2119 3.8916 11.0803 3.66675 10.9282Z" fill="#4E50AF"/>
</svg>
