<?xml version="1.0" encoding="UTF-8" standalone="no"?>
<!--

    Copyright (C) 2017-2018 Dremio Corporation

    Licensed under the Apache License, Version 2.0 (the "License");
    you may not use this file except in compliance with the License.
    You may obtain a copy of the License at

        http://www.apache.org/licenses/LICENSE-2.0

    Unless required by applicable law or agreed to in writing, software
    distributed under the License is distributed on an "AS IS" BASIS,
    WITHOUT WARRANTIES OR CONDITIONS OF ANY KIND, either express or implied.
    See the License for the specific language governing permissions and
    limitations under the License.

-->
<svg width="48px" height="48px" viewBox="0 0 48 48" version="1.1" xmlns="http://www.w3.org/2000/svg">
    <!-- Generator: Sketch 41.2 (35397) - http://www.bohemiancoding.com/sketch -->
    <title>Source/Amazon</title>
    <desc>Created with Sketch.</desc>
    <defs>
    </defs>
    <g id="Elements" stroke="none" stroke-width="1" fill="none" fill-rule="evenodd">
        <g id="Source/Amazon">
           <g id="Source.2f.S3">
             <circle id="Oval" cx="24" cy="24" r="23.5" style="fill:#fff;stroke:#e5e5e5;stroke-width:1.02px;"/>
           </g>
            <g id="Compute_AmazonEC2" transform="translate(7.000000, 3.000000)">
                <g id="Layer_1">
                    <polygon id="Shape" fill="#9D5025" points="2.15 8.29285714 0.45 9.16309524 0.45 33.8369048 2.15 34.7071429 9.1 22.1654762"></polygon>
                    <polygon id="Shape" fill="#F58536" points="6.15 33.7857143 2.15 34.7071429 2.15 8.29285714 6.15 9.21428571"></polygon>
                    <polygon id="Shape" fill="#9D5025" points="4.05 7.3202381 6.15 6.2452381 16.15 22.6261905 6.15 36.7547619 4.05 35.6797619"></polygon>
                    <polygon id="Shape" fill="#F58536" points="11.1 35.3214286 6.15 36.7547619 6.15 6.2452381 11.1 7.67857143"></polygon>
                    <polygon id="Shape" fill="#9D5025" points="8.5 5.01666667 11.1 3.68571429 25.85 24.4178571 11.1 39.3142857 8.5 37.9833333"></polygon>
                    <polygon id="Shape" fill="#F58536" points="17.5 36.9083333 11.1 39.3142857 11.1 3.68571429 17.5 6.09166667"></polygon>
                    <polygon id="Shape" fill="#9D5025" points="14.1 2.15 17.5 0.40952381 33.4 22.677381 17.5 42.5904762 14.1 40.85"></polygon>
                    <polygon id="Shape" fill="#F58536" points="34.55 33.8369048 17.5 42.5904762 17.5 0.40952381 34.55 9.16309524"></polygon>
                </g>
            </g>
        </g>
    </g>
</svg>
