<?xml version="1.0" encoding="UTF-8" standalone="no"?>
<!--

    Copyright (C) 2017-2018 Dremio Corporation

    Licensed under the Apache License, Version 2.0 (the "License");
    you may not use this file except in compliance with the License.
    You may obtain a copy of the License at

        http://www.apache.org/licenses/LICENSE-2.0

    Unless required by applicable law or agreed to in writing, software
    distributed under the License is distributed on an "AS IS" BASIS,
    WITHOUT WARRANTIES OR CONDITIONS OF ANY KIND, either express or implied.
    See the License for the specific language governing permissions and
    limitations under the License.

-->
<svg width="48px" height="48px" viewBox="0 0 48 48" version="1.1" xmlns="http://www.w3.org/2000/svg">
    <!-- Generator: Sketch 41.2 (35397) - http://www.bohemiancoding.com/sketch -->
    <title>Source/GCE</title>
    <desc>Created with Sketch.</desc>
    <defs>
    </defs>
    <g id="Elements" stroke="none" stroke-width="1" fill="none" fill-rule="evenodd">
        <g id="Source/GCE">
            <g id="Source.2f.S3">
              <circle id="Oval" cx="24" cy="24" r="23.5" style="fill:#fff;stroke:#e5e5e5;stroke-width:1.02px;"/>
            </g>
            <g id="google-cloud-platform-logo-hybrid" transform="translate(3.000000, 5.000000)">
                <g id="Layer_1">
                    <g id="Group">
                        <polygon id="Shape" fill="#CFCECB" points="13.0602302 31.0735931 5.8668798 18.3772006 13.0602302 5.68614719 27.4574169 5.68614719 34.6560102 18.3772006 27.4574169 31.0735931"></polygon>
                        <path d="M14.2818414,29.4772006 L7.88542199,18.3344877 L4.37787724,12.2265512 C4.12097187,11.7780664 4.01611253,11.1587302 4.05805627,10.5660895 L0.367007673,17.0691198 C-0.0734015345,17.8486291 -0.0734015345,19.1193362 0.367007673,19.8988456 L9.23286445,35.5424242 C9.67327366,36.3219336 10.7585678,36.9572872 11.6393862,36.9572872 L22.1934783,36.9572872 C22.6181586,36.7010101 22.9851662,36.3593074 23.2001279,35.9802309 L26.812532,29.4772006 L14.2818414,29.4772006 L14.2818414,29.4772006 Z" id="Shape" fill="#F4B51A"></path>
                        <polygon id="Shape" fill="#DD462F" points="40.6539642 17.0691198 31.7828645 1.42554113 35.3900256 7.78441558"></polygon>
                        <path d="M40.6539642,17.0691198 L35.3900256,7.78441558 C34.9338875,7.501443 34.4095908,7.31991342 33.9429668,7.31991342 L26.802046,7.31991342 L32.9730179,18.398557 L26.8177749,29.4772006 L23.2053708,35.9802309 C22.9904092,36.3593074 22.6234015,36.7063492 22.1987212,36.9572872 L29.3815857,36.9572872 C30.2624041,36.9572872 31.3476982,36.3219336 31.7881074,35.5424242 L35.316624,29.3223665 L40.6592072,19.8988456 C41.0943734,19.1193362 41.0943734,17.8486291 40.6539642,17.0691198 Z" id="Shape" fill="#DD462F"></path>
                        <path d="M31.7828645,1.42554113 C31.3424552,0.646031746 30.2571611,0.0106782107 29.3763427,0.0106782107 L22.4031969,0.0106782107 L11.6446292,0.0106782107 C10.7638107,0.0106782107 9.67851662,0.646031746 9.23810742,1.42554113 L4.0528133,10.5714286 C4.01086957,11.1640693 4.12097187,11.7780664 4.37263427,12.2318903 L7.88017903,18.3398268 L14.1402813,7.31991342 L26.7968031,7.31991342 L33.9324808,7.31991342 C34.3991049,7.31991342 34.9234015,7.501443 35.3795396,7.78441558 L31.7828645,1.42554113 Z" id="Shape" fill="#517DBF"></path>
                        <polygon id="Shape" fill="#EFEFEF" points="7.88542199 18.3344877 14.2818414 29.4772006 26.8177749 29.4772006 32.9730179 18.398557 26.802046 7.31991342 14.1455243 7.31991342"></polygon>
                        <path d="M4.27826087,10.1709957 L4.0528133,10.5714286 C4.01086957,11.1640693 4.12097187,11.7780664 4.37263427,12.2318903 L7.88017903,18.3398268 L9.74667519,15.0562771 L4.27826087,10.1709957 Z" id="Shape" fill="#4F71A9"></path>
                        <path d="M35.6259591,8.2008658 L35.3900256,7.78441558 C34.9338875,7.501443 34.4095908,7.31991342 33.9429668,7.31991342 L26.807289,7.31991342 L28.6632992,10.6568543 L35.6259591,8.2008658 Z" id="Shape" fill="#C3432F"></path>
                        <path d="M21.5957801,36.9572872 L22.2092072,36.9572872 C22.6338875,36.7010101 23.0008951,36.3593074 23.2158568,35.9802309 L26.8282609,29.4772006 L22.9799233,29.4772006 L21.5957801,36.9572872 Z" id="Shape" fill="#D19D2A"></path>
                        <g transform="translate(14.785166, 12.653680)" id="Shape">
                            <path d="M5.71483376,11.5217893 C2.62148338,11.5217893 0.104859335,8.95901876 0.104859335,5.80894661 C0.104859335,2.65887446 2.62148338,0.0961038961 5.71483376,0.0961038961 C8.80818414,0.0961038961 11.3248082,2.65887446 11.3248082,5.80894661 C11.3248082,8.95901876 8.80818414,11.5217893 5.71483376,11.5217893 Z" fill="#FFFFFF"></path>
                            <path d="M5.71483376,0.176190476 C8.76624041,0.176190476 11.2461637,2.6962482 11.2461637,5.80894661 C11.2461637,8.92164502 8.77148338,11.4417027 5.71483376,11.4417027 C2.65818414,11.4417027 0.183503836,8.92164502 0.183503836,5.80894661 C0.183503836,2.6962482 2.65818414,0.176190476 5.71483376,0.176190476 L5.71483376,0.176190476 Z M5.71483376,0.0106782107 C2.57953964,0.0106782107 0.0262148338,2.61082251 0.0262148338,5.8036075 C0.0262148338,8.9963925 2.57953964,11.5965368 5.71483376,11.5965368 C8.85012788,11.5965368 11.4034527,8.9963925 11.4034527,5.8036075 C11.4034527,2.61082251 8.85012788,0.0106782107 5.71483376,0.0106782107 L5.71483376,0.0106782107 Z" fill="#CAC8C6"></path>
                        </g>
                    </g>
                </g>
            </g>
        </g>
    </g>
</svg>
