<?xml version="1.0" encoding="UTF-8" standalone="no"?>
<!--

    Copyright (C) 2017-2018 Dremio Corporation

    Licensed under the Apache License, Version 2.0 (the "License");
    you may not use this file except in compliance with the License.
    You may obtain a copy of the License at

        http://www.apache.org/licenses/LICENSE-2.0

    Unless required by applicable law or agreed to in writing, software
    distributed under the License is distributed on an "AS IS" BASIS,
    WITHOUT WARRANTIES OR CONDITIONS OF ANY KIND, either express or implied.
    See the License for the specific language governing permissions and
    limitations under the License.

-->
<svg width="48px" height="48px" viewBox="0 0 48 48" version="1.1" xmlns="http://www.w3.org/2000/svg" xmlns:xlink="http://www.w3.org/1999/xlink">
    <!-- Generator: Sketch 41.2 (35397) - http://www.bohemiancoding.com/sketch -->
    <title>Source/Hadoop</title>
    <desc>Created with Sketch.</desc>
    <defs>
        <mask id="mask-2" maskContentUnits="userSpaceOnUse" maskUnits="objectBoundingBox" x="0" y="0" width="48" height="48" fill="white">
            <use xlink:href="#path-1"></use>
        </mask>
        <polygon id="path-3" points="3.37105781 0.156352332 0.1598625 0.156352332 0.1598625 3.30642902 3.37105781 3.30642902 3.37105781 0.156352332"></polygon>
    </defs>
    <g id="Elements" stroke="none" stroke-width="1" fill="none" fill-rule="evenodd">
        <g id="Elements/Data-Sources" transform="translate(-30.000000, -642.000000)">
            <g id="Icons" transform="translate(30.000000, 82.000000)">
                <g id="Source/Hadoop" transform="translate(0.000000, 560.000000)">
                    <g>
                      <g id="Source.2f.S3">
                        <circle id="Oval" cx="24" cy="24" r="23.5" style="fill:#fff;stroke:#e5e5e5;stroke-width:1.02px;"/>
                      </g>
                        <g id="Logo/HadoopNew" transform="translate(2.000000, 8.000000)">
                            <g id="Source/HadoopNew">
                                <polygon id="Fill-1" fill="#FFFF00" points="15.4171992 7.14916477 12.6355195 7.60578653 10.0976367 8.73042902 7.94185547 10.1006259 5.89041797 12.6306155 4.73148047 13.8711544 3.61076953 14.2886466 3.31447266 13.5564601 3.83274609 12.8005637 3.94906641 11.7344497 4.29622266 11.7487088 4.67553516 12.0982218 4.57316016 11.0122114 4.15266797 10.7271959 4.16562891 10.3131855 3.16976953 10.8827192 2.26791797 11.9581181 2.07973828 12.919113 2.46544922 13.688771 2.82523828 14.9961285 3.55662891 15.3461389 4.32624609 15.3080041 5.05599609 14.8795689 4.56905859 17.3744083 5.05599609 20.1502839 4.52000391 21.431942 2.76502734 23.3428228 3.07707422 24.4847088 3.90854297 25.807486 5.47616016 26.9223461 6.30762891 27.0374135 7.23212109 27.0692477 6.65527734 29.4619523 8.77627734 30.3403772 11.418668 30.691714 12.3226523 30.0944912 12.3922148 28.4779109 13.400707 26.7913617 13.4701055 25.4561492 15.9039727 25.6319005 18.1640977 25.4211648 15.9039727 26.7913617 16.2865664 28.4429264 17.7119414 30.691714 19.1028633 31.2891026 20.2155352 30.832315 20.6673633 29.9189057 22.9970508 28.1267399 23.449043 28.5132269 27.0999258 28.6536622 27.8298398 28.0564394 27.8994023 27.0020974 27.6562617 26.5456415 27.4821914 23.6992995 26.2653398 21.2396104 26.4740273 20.1502839 27.2039414 20.5369368 29.255543 22.469372 30.263707 22.5396725 31.3763789 22.082885 32.4892148 21.2396104 33.0452227 19.4122943 36.3136758 19.6231959 38.2955508 18.8502218 39.8949961 17.339258 41.0424492 15.1606052 41.3203711 12.5956311 41.0770664 9.60868808 40.451332 6.93842902 39.8254336 6.0951544 38.9563945 5.81378653 37.4263477 7.50050155 36.0355898 7.99243938 34.8185742 5.95438756 33.6017227 4.83007668 32.941043 4.40843938 30.2984883 2.19463627 28.1776523 1.03500933 26.0566523 0.859423834 23.5880039 1.28106114 21.4323867 2.08901969 19.9371211 3.31894715 18.7552148 4.75961036 17.5381992 5.11111295"></polygon>
                                <g id="Group-68" transform="translate(0.000000, 0.009451)">
                                    <path d="M7.34991797,13.4814342 C4.96740234,16.2899731 5.49666797,19.6960663 6.15685547,23.0333513 C5.80461328,22.133372 5.45204297,21.2333927 5.09980078,20.3340767 C4.96986328,19.5090404 4.83992578,18.6840041 4.71015234,17.8591337 C4.74723047,17.0155275 4.78414453,16.172087 4.82138672,15.3284808 C5.15525391,14.5225119 5.48912109,13.7163772 5.82298828,12.9102425 C6.32370703,12.1604808 6.82475391,11.4107192 7.32563672,10.6606259 C8.10460547,10.0047088 8.88373828,9.3484601 9.66287109,8.69254301 C10.5159961,8.33623212 11.3692852,7.98025285 12.2225742,7.62394197 C13.2241758,7.49279171 14.2257773,7.36164145 15.227543,7.23032539 C14.3000977,8.29876062 13.3726523,9.36736166 12.445207,10.4357969 C10.2110039,11.1681492 8.89358203,11.6614135 7.34991797,13.4814342" id="Fill-2" fill="#FFFFCC"></path>
                                    <path d="M18.5663789,4.92443523 C16.9100039,6.55776166 16.0051992,7.78951295 14.9510977,9.7015544 C14.1972305,11.0695959 13.3513242,12.3870674 12.5585742,13.7358756 C12.1577695,14.4186528 12.119707,14.991171 11.9997773,15.7784041 C11.610457,15.3098446 11.2209727,14.8411192 10.8313242,14.3725596 C11.017043,13.8101554 11.2022695,13.2477513 11.3878242,12.6853472 C12.0184805,11.5418031 12.6493008,10.3982591 13.279957,9.25488083 C14.6154258,7.92381347 15.9510586,6.59307772 17.2865273,5.26201036 C17.7130898,5.14943005 18.1398164,5.03701554 18.5663789,4.92443523" id="Fill-4" fill="#FFFFCC"></path>
                                    <path d="M26.746732,0.875423834 C25.4199586,1.37797306 23.2167633,1.54361036 23.0640211,3.08242902 C22.9550836,4.17523731 23.1455602,4.7243772 23.7972164,5.88068808 C22.1874352,4.19695751 21.7892555,4.4576 18.6776461,4.98070881 C19.1230758,4.34336166 19.5681773,3.70601451 20.0131148,3.06866736 C20.7922477,2.58120622 21.5713805,2.09374508 22.3505133,1.60644974 C23.3521148,1.38145492 24.3538805,1.1564601 25.355482,0.931631088 C25.8191227,0.912895337 26.2829273,0.894325389 26.746732,0.875423834" id="Fill-6" fill="#FFFFCC"></path>
                                    <path d="M30.4074422,21.6904456 C30.8489344,21.9660104 30.8395828,22.1656373 30.7655906,22.3543212 C31.1140594,22.2135544 31.4625281,22.0726218 31.8108328,21.9320207 C32.0365828,21.6257824 32.2621688,21.319544 32.4879188,21.0131399 C32.6554266,20.5765803 32.8229344,20.1405181 32.9904422,19.7039585 C32.7765047,19.5413057 32.5625672,19.378487 32.3483016,19.2158342 C31.4126531,19.3363731 30.4770047,19.4572435 29.5413562,19.578114 C29.4717937,19.7689534 29.4020672,19.9602902 29.3323406,20.1514611 C29.3521922,20.4230466 29.3723719,20.6946321 29.3920594,20.9662176 C29.4816375,21.1272124 29.5713797,21.2880415 29.6609578,21.4492021 C29.8002469,21.5195026 29.9395359,21.5899689 30.0789891,21.6604352 C30.1885828,21.6702176 30.2980125,21.6804974 30.4074422,21.6904456" id="Fill-8" fill="#CCCC00"></path>
                                    <path d="M30.1461234,16.8390964 C28.7391234,17.2494591 28.7499516,17.3627026 28.3345453,18.7733554 C28.8830063,17.8839876 29.2890609,17.4351585 30.1461234,16.8390964" id="Fill-10" fill="#CCCC00"></path>
                                    <path d="M39.5016562,6.28236269 C39.251625,6.39908808 39.0079922,6.45529534 38.8516406,6.68642487 C38.5149844,7.18433161 38.2265625,7.60298446 37.6700625,7.95233161 C37.3895156,8.12841451 37.0996172,8.24232124 36.8023359,8.3361658 C36.55575,8.41359585 36.4076016,8.34412435 36.1977656,8.49682902 C36.3222891,8.51854922 36.4468125,8.54076684 36.5713359,8.56265285 L37.3949297,8.56265285 C37.7333906,8.35141969 38.0718516,8.14018653 38.4103125,7.92911917 C38.6094844,7.71772021 38.8084922,7.50648705 39.0076641,7.29525389 C39.1722187,6.95767876 39.3369375,6.61977202 39.5016562,6.28236269" id="Fill-12" fill="#CCCC00"></path>
                                    <path d="M17.0888648,9.43787772 C16.535318,10.9687378 16.0516617,12.2809036 15.2133023,13.666686 C16.2875836,12.4967793 16.9390758,11.5022922 17.5544742,10.1796808 C17.7935133,9.66585699 17.8386305,9.06283109 18.5045602,9.28699689 C18.5345836,9.80015751 18.6418805,10.3129865 18.6715758,10.8259813 C19.0315289,8.21988808 20.0460914,7.12973264 22.4043258,6.11816788 C21.7374117,6.19874819 21.0704977,6.27916269 20.4037477,6.35974301 C19.7765367,6.50050984 19.1494898,6.64144249 18.5222789,6.78220933 C18.2136773,7.23485181 17.9050758,7.6876601 17.5966383,8.14030259 C17.4273258,8.5727171 17.2581773,9.00529741 17.0888648,9.43787772" id="Fill-14" fill="#CCCC00"></path>
                                    <path d="M21.6577102,9.37759171 C22.166468,11.7966591 22.8986789,14.1184 23.2167961,16.5759337 C23.4233508,18.1729492 23.4458273,18.9401202 22.6509445,20.3177782 C21.7820695,20.2610736 21.242632,20.3598922 20.4021398,20.6384415 C17.0565773,21.7468352 15.1375383,23.376514 12.8831555,20.0927834 C13.6028977,20.4353326 14.3226398,20.7780477 15.042382,21.1209285 C15.5552414,21.0191254 16.0682648,20.9173223 16.5812883,20.8151876 C17.4870773,20.2821306 18.3930305,19.7489078 19.2988195,19.2158508 C20.0054367,19.0750839 20.712382,18.9341513 21.4189992,18.7932187 C21.6478664,17.8277472 21.8768977,16.861944 22.1057648,15.8961409 C21.9364523,14.618628 21.7671398,13.341115 21.5979914,12.0634363 C21.5783039,11.459913 21.5582883,10.8563896 21.5384367,10.2527005 C21.5783039,9.96088705 21.6181711,9.66923938 21.6577102,9.37759171" id="Fill-16" fill="#CCCC00"></path>
                                    <path d="M27.421193,24.3461969 C27.1401539,26.3116269 28.0684195,27.3681244 27.6840211,27.9109637 C27.5750836,28.0644974 27.4277555,28.3327668 27.2632008,28.4063834 C26.6750367,28.6688497 25.8663727,28.3571399 25.8086227,28.5108394 L23.8677633,28.5108394 C23.6088727,28.4002487 23.3501461,28.2894922 23.0912555,28.1789016 C23.4894352,27.7060311 23.8874508,27.2331606 24.2857945,26.760456 C24.6738023,25.9055751 25.0621383,25.0503627 25.4503102,24.1953161 C25.699193,23.3301554 25.9480758,22.4649948 26.1967945,21.6 L26.5851305,21.6 C26.8637086,22.515399 27.1426148,23.4307979 27.421193,24.3461969" id="Fill-18" fill="#CCCC00"></path>
                                    <path d="M24.1587445,18.6325554 C24.3164086,19.5249078 24.590393,19.7369699 25.0056352,20.6008041 C24.7290258,22.0099648 24.2850727,23.6859026 23.750557,24.9294259 C23.5251352,25.4536953 23.3431898,25.742856 22.9456664,26.1482446 C22.2748148,26.8330114 21.5965805,27.4292394 20.8356586,28.0228145 C20.2878539,28.4494259 19.9055883,28.2355399 19.2298148,28.1387109 C18.9423773,28.6653016 18.8631352,28.9577782 18.3341977,29.2250528 C17.5206117,29.6360788 16.7926664,28.7505244 16.1541352,28.2292394 C16.6151508,28.9569492 17.0761664,29.6844933 17.5368539,30.4120373 C17.8554633,30.7139648 18.1739086,31.0153948 18.492518,31.3173223 C18.7612523,31.3574466 19.0299867,31.3979026 19.2988852,31.4381927 C19.6570336,31.2170114 20.0155102,30.9954984 20.3736586,30.7741513 C20.5629867,30.4120373 20.7519867,30.0499233 20.9411508,29.6879751 C21.3393305,29.3860477 21.7376742,29.084286 22.1355258,28.7823585 C22.6234477,28.360058 23.1112055,27.9374259 23.5987992,27.5149596 C23.9075648,27.0722653 24.2160023,26.6299026 24.5246039,26.1870425 L25.3605023,24.6178819 C25.719143,23.5315399 26.0772914,22.4448663 26.435932,21.3586902 C26.4656273,20.946172 26.4953227,20.5336539 26.5253461,20.1211358 C26.0772914,19.9201824 25.6295648,19.7185658 25.1815102,19.5174466 C24.852893,19.2059026 24.4871977,18.9444311 24.1587445,18.6325554" id="Fill-20" fill="#CCCC00"></path>
                                    <path d="M13.4458078,24.9196269 C14.9528859,24.9196269 16.5446203,24.8350674 17.9250422,24.1952332 C18.315675,23.6031503 18.7013859,23.1193368 19.1791359,22.5960622 C18.7443703,23.4262383 18.6078703,23.8956269 18.4925344,24.8290984 C18.3430734,25.0504456 18.1939406,25.2716269 18.0446438,25.4929741 C16.9098234,25.5231503 15.7751672,25.5533264 14.6403469,25.5835026 C14.2718625,25.5430466 13.9037063,25.5029223 13.5353859,25.4627979 C13.4955188,25.422342 13.4558156,25.3822176 13.4159484,25.3420933 C13.4259563,25.2011606 13.4359641,25.0603938 13.4458078,24.9196269" id="Fill-22" fill="#CCCC00"></path>
                                    <path d="M13.2367922,23.863428 C13.1979094,23.5062881 13.1588625,23.1491482 13.1198156,22.7916767 C12.8624016,24.3580187 12.9240891,25.4080497 12.2107453,26.8112415 C11.6780344,27.4349927 11.0219484,28.0025368 10.2705422,28.3064539 C10.3340344,28.6911171 10.3530656,28.9318632 10.3161516,29.2137285 C10.1837531,30.2282777 8.17546406,29.7801119 7.34940938,29.739656 C8.67503438,30.0845264 10.0001672,30.4292311 11.3256281,30.7741016 C11.6242219,30.6533969 11.9226516,30.532858 12.2214094,30.4121534 C12.3211594,29.8286922 12.4205813,29.2450653 12.5201672,28.6617699 C12.7987453,28.1386611 13.0776516,27.6153865 13.3562297,27.0926093 C13.4059406,26.7704539 13.4558156,26.4487959 13.5056906,26.1268062 C13.4159484,25.3722363 13.3265344,24.6178321 13.2367922,23.863428" id="Fill-24" fill="#CCCC00"></path>
                                    <path d="M10.9970602,15.0210487 C10.9555523,15.7827482 10.9068258,16.1002611 11.2390523,16.7729244 C11.6615133,17.6278052 12.180443,18.431287 12.6394898,19.2762197 C12.6893648,18.7126549 12.7390758,18.1494218 12.7887867,17.5861886 C12.1917633,16.7309762 11.5944117,15.8760953 10.9970602,15.0210487" id="Fill-26" fill="#CCCC00"></path>
                                    <path d="M4.86719297,20.7744829 C4.73774766,21.0523689 4.60863047,21.3305865 4.47918516,21.6086383 C4.83503672,22.8198301 5.15134922,23.587001 5.82876328,24.6449907 C5.71080234,25.0735917 5.62253672,25.261115 5.35101328,25.6104622 C4.75497422,25.517944 4.22538047,25.4910839 3.62130234,25.4930736 C4.28821641,26.0160166 4.95513047,26.5392912 5.62204453,27.0624 C5.95033359,27.0017161 6.27895078,26.9415295 6.60756797,26.8811772 C6.93585703,26.5492394 7.26447422,26.2173016 7.59292734,25.8853637 C7.12502109,25.150856 6.65711484,24.4166798 6.18953672,23.682172 C5.74853672,22.7130528 5.30786484,21.7436021 4.86719297,20.7744829" id="Fill-28" fill="#CCCC00"></path>
                                    <path d="M39.5059055,5.88169948 C39.9121242,7.7282487 40.4361398,9.43253886 40.3874133,11.3240207 C40.3276945,13.6444352 39.8802961,16.5756684 37.7528977,17.9748808 C35.370218,19.5420518 32.5734445,18.8009119 29.9592727,18.1292435 C31.0245305,18.5721036 32.0897883,19.0146321 33.1545539,19.4571606 C34.1500852,19.5075648 35.1454523,19.5579689 36.1408195,19.6080415 C36.8177414,19.4069223 37.4946633,19.2058031 38.1714211,19.0046839 C38.698882,18.5618238 39.2266711,18.1194611 39.754132,17.676601 C40.1523117,16.8316684 40.5503273,15.9867358 40.9486711,15.1418031 C41.097968,14.165886 41.2472648,13.1901347 41.3963977,12.2143834 C41.2771242,11.2585285 41.1575227,10.3030052 41.0382492,9.34731606 C40.8192258,8.40190674 40.6000383,7.4561658 40.3811789,6.51059067 C40.0894758,6.30084974 39.7977727,6.09127461 39.5059055,5.88169948" id="Fill-30" fill="#CCCC00"></path>
                                    <path d="M3.95070703,11.3857492 C2.86920703,12.0972104 2.44428516,12.4095834 2.56290234,13.7282155 C2.67052734,14.1231585 2.77848047,14.5179358 2.88610547,14.9128788 C3.03901172,15.0173347 3.19158984,15.1217907 3.34416797,15.2262466 C3.53300391,15.2897492 3.72151172,15.3532518 3.91034766,15.4167544 C4.25176172,15.3351793 4.59317578,15.2534383 4.93442578,15.1716974 C5.10964453,14.6223917 5.28486328,14.0732518 5.45991797,13.5239461 C4.97494922,13.7645264 4.48965234,14.0051067 4.00468359,14.2458528 L3.66786328,14.2458528 C3.54219141,14.0505368 3.41635547,13.8553865 3.29051953,13.6600705 C3.44326172,13.433086 3.59583984,13.2062674 3.74874609,12.9791171 C3.82962891,12.548029 3.91034766,12.1167751 3.99123047,11.6855212 C4.09458984,11.7171896 4.19778516,11.7490238 4.30114453,11.7806922 C4.42698047,11.8806715 4.55265234,11.9806508 4.67848828,12.0802984 C4.66044141,11.8534798 4.64255859,11.6263295 4.62451172,11.3995109 C4.53919922,11.2542674 4.45372266,11.1090238 4.36841016,10.9637803 C4.28309766,10.8909927 4.19778516,10.818371 4.11247266,10.7457492 C4.05849609,10.9591378 4.00468359,11.1725264 3.95070703,11.3857492" id="Fill-32" fill="#CCCC00"></path>
                                    <path d="M28.2172242,0.995664249 C29.1771539,1.89663834 30.3552867,2.67956062 31.1232633,3.78049326 C31.4203805,4.20660725 31.7504742,4.42463834 31.1181773,5.02666943 C31.7862398,4.83384041 32.0344664,4.85473161 32.5693102,4.92022383 C33.5422008,5.03927047 34.4542242,6.43699067 34.5121383,7.43844145 C34.5006539,7.53212021 34.2420914,7.7448456 33.4897008,7.95475233 C33.4749352,7.98393368 33.0652711,7.89804767 33.0752789,7.9262342 C33.1535367,8.14227565 33.2580445,8.17543627 33.4175133,8.27641036 C33.4521305,8.51699067 33.474443,8.88772642 33.6365367,9.15069016 C34.109857,9.14206839 34.5725133,9.19429637 35.0359898,9.28698031 C35.1918492,9.54845181 35.1683883,9.80992332 35.1554273,10.0715606 C35.3345836,10.0415503 35.5135758,10.0113741 35.6928961,9.98119793 C35.6431852,9.56867979 35.5933102,9.15632746 35.5437633,8.74380933 C35.7029039,8.47222383 35.8620445,8.20047254 36.0213492,7.92921865 C35.792482,7.40577824 35.5634508,6.88283523 35.3345836,6.35972642 C34.8967008,5.9372601 34.4586539,5.51479378 34.020607,5.09216166 C33.978607,5.09017202 33.9361148,5.08801658 33.8942789,5.08586114 C33.4015992,4.78028601 32.9090836,4.47487668 32.416568,4.16930155 C31.6131539,3.5050943 30.8099039,2.84105285 30.0064898,2.17667979 C29.4101227,1.78289741 28.8137555,1.38944663 28.2172242,0.995664249" id="Fill-34" fill="#CCCC00"></path>
                                    <path d="M29.8343063,8.43140311 C29.7836109,8.52093679 29.7071578,8.66402487 29.6092125,8.76300933 C30.0090328,9.14518549 30.2062359,9.40118549 30.3489703,9.94170363 C29.8969781,10.1685223 29.4448219,10.3955067 28.9929938,10.6219938 C28.6104,10.9927295 28.2278063,11.3632995 27.8455406,11.7337036 C27.3420328,11.4599627 27.2166891,11.2497244 26.9730563,10.7274446 C26.6893922,10.8033824 26.4206578,10.8763358 26.1863766,10.7894549 C26.3350172,10.7906155 26.4262359,10.753144 26.5748766,10.6602943 C26.8181813,10.4047917 27.06165,10.1494549 27.3049547,9.89395233 C27.7347984,9.56483316 28.1648063,9.23571399 28.59465,8.90676062 C28.8760172,8.81407668 29.1572203,8.72139275 29.4385875,8.62870881 C29.5460484,8.58410777 29.7268453,8.47616995 29.8343063,8.43140311" id="Fill-36" fill="#CCCC00"></path>
                                    <path d="M31.0818867,9.79461969 C29.6438789,10.5772104 28.2665742,11.3641119 27.5314102,12.8502052 C27.5314102,10.9638632 29.4054961,10.1335212 31.0818867,9.79461969" id="Fill-38" fill="#CCCC00"></path>
                                    <path d="M27.2458266,6.08384663 C26.1779438,6.81968083 25.4229281,8.30461347 25.5177563,9.75174301 C25.1699438,8.49860311 25.2931547,7.31460311 26.3612016,6.44911088 C26.5415063,6.36057202 26.7214828,6.27203316 26.9017875,6.1836601 C27.0164672,6.15033368 27.1311469,6.11717306 27.2458266,6.08384663" id="Fill-40" fill="#CCCC00"></path>
                                    <g id="Group-44" transform="translate(1.476562, 0.165803)" fill="#000000">
                                        <path d="M39.0231352,16.7831378 L39.0231352,16.7831378 L39.028057,16.7861223 L39.0231352,16.7831378 Z M2.62521328,13.7592207 L2.62521328,13.7590549 L2.62504922,13.7592207 L2.61815859,13.7408166 L2.62521328,13.7592207 Z M25.2587836,21.1042984 L25.2589477,21.1042984 L25.2587836,21.1044642 L25.2587836,21.1042984 Z M21.4671352,28.3875316 L21.4671352,28.3875316 L21.4669711,28.3875316 L21.4671352,28.3875316 Z M12.1380492,25.572858 L12.1383773,25.572858 L12.1380492,25.572858 Z M0.811994531,13.6070135 L0.812158594,13.6070135 L0.811994531,13.6070135 Z M4.18118203,12.4565057 L4.18101797,12.4563399 L4.18118203,12.4565057 Z M34.064182,7.53729326 C34.1032289,7.62052642 34.1416195,7.70525181 34.1793539,7.79097202 C34.148182,7.81401865 34.1184867,7.83855751 34.0905961,7.86425699 C34.0397367,7.74371813 33.9655805,7.63445389 33.8740336,7.54293057 C33.9357211,7.54060933 33.9990492,7.53861969 34.064182,7.53729326 L34.064182,7.53729326 Z M3.02716641,11.5850446 C2.89936172,11.4558839 2.79715078,11.3685057 2.63193984,11.3874073 C2.64588516,11.2779772 2.66442422,11.1723606 2.69051016,11.0732104 C2.70379922,11.022143 2.71774453,10.9720705 2.73283828,10.9218321 C2.94710391,11.0480083 3.00370547,11.2766508 3.02716641,11.5850446 L3.02716641,11.5850446 Z M2.51840859,10.4371896 C2.39634609,10.7019772 2.30972109,10.9027648 2.25082266,11.1093554 C1.99439297,12.0043606 2.36681484,12.8032 1.56274453,13.4518218 C1.94058047,14.2223088 1.92318984,14.529542 2.80207266,14.1735627 C3.14102578,14.0362777 3.42075234,13.8436145 3.67029141,13.6159668 C3.55134609,13.9266819 3.44093203,14.2475109 3.33708047,14.5786197 C3.31968984,14.6335005 3.30311953,14.6885472 3.28720547,14.7432622 C2.65868203,15.012858 1.83213516,15.1841326 1.51565859,14.5164435 C1.36209609,14.1924642 1.27530703,13.8744539 1.16325234,13.4649202 C0.128182031,12.3812311 1.67545547,10.9501845 2.51840859,10.4371896 L2.51840859,10.4371896 Z M3.42813516,20.909314 C3.90440859,22.5744746 4.71586172,24.2107855 5.61541641,25.5864539 C5.61541641,25.5942466 5.61525234,25.6022052 5.61525234,25.6104953 C5.55881484,25.8469306 5.49368203,26.0772311 5.35701797,26.2622674 C4.71405703,27.1315731 3.07851797,25.8553865 2.60503359,25.3672622 C2.08758047,24.8330446 1.74124453,24.2008373 1.65872109,23.6075938 C1.59867422,23.1750135 1.65708047,23.1645679 1.95567422,22.8584953 C2.35811953,22.4466404 2.76105703,22.0344539 3.16350234,21.6227648 C3.25160391,21.3850031 3.33986953,21.1469098 3.42813516,20.909314 L3.42813516,20.909314 Z M26.0019867,27.3262259 C25.9275023,28.173314 25.6481039,28.2291896 24.9121195,28.216257 C24.5777602,28.2102881 23.2462289,28.2041534 22.9082602,28.1748062 C22.4308383,28.1331896 22.1627602,28.0900808 22.0169086,27.9799876 C22.7670023,27.4235523 24.0416039,25.1260187 24.2899945,24.3351378 C24.5528227,23.499656 24.8404242,22.7702881 25.0543617,21.9979772 C25.1526352,22.3207959 25.2304008,22.6406301 25.3736273,22.9835109 C25.6126664,23.5563606 25.729643,23.9105161 25.7467055,24.5251482 C25.7647523,25.1734383 25.7827992,25.8220601 25.8010102,26.4705161 C26.0064164,26.8339565 26.0384086,26.9115523 26.0019867,27.3262259 L26.0019867,27.3262259 Z M29.2474711,18.2078839 C28.7629945,18.0432415 28.4261742,17.8028269 28.000432,17.5317389 C28.1164242,18.0594902 28.1690883,18.6175834 28.0148695,19.1443399 C27.7700883,19.9803192 27.3746977,21.3476974 28.4977055,21.6002155 C28.9250883,21.6960497 29.1190102,21.6822881 29.722268,21.3675938 C29.234018,21.4793451 28.9877602,21.4519876 28.6520883,21.3889824 C28.3479164,21.3326093 28.186643,21.1372933 28.1016586,20.9071585 C28.2079711,20.9845886 28.3812211,21.0267026 28.6773539,21.0988269 C29.509807,21.3017699 30.3032133,20.8965472 30.4584164,20.3132518 C30.5488148,19.9723606 30.533393,19.7932933 30.725182,19.328713 C30.8972836,19.382599 31.0754555,19.4315109 31.2582211,19.4762777 C31.1550258,19.8160083 31.0519945,20.1560705 30.9487992,20.495801 C30.6813773,21.3778736 29.6387602,22.0890031 28.7183695,22.0727544 C27.8675414,22.0576663 27.3279398,21.518972 26.740432,20.9908891 C26.3358539,20.6266197 25.9463695,20.2787648 25.5604945,19.9338943 C24.5014711,19.5961534 23.6526117,19.201542 22.6697133,18.4662052 C23.3692758,19.2968788 23.8435805,19.7568166 24.8190961,20.1701637 C24.6773461,21.632713 24.1744945,22.6989927 23.7456352,24.0985368 C23.5513852,24.7312415 22.0195336,27.2672 21.5949398,27.5144124 C21.2922445,27.6906611 19.3960102,29.3045886 19.0395023,29.5176456 C18.7737211,29.8742881 18.5405883,30.3668891 18.1410961,30.5801119 C16.9240805,31.2305575 16.1419945,29.9852104 15.487057,28.9335212 C15.1887914,28.4541845 14.360768,27.0742052 15.082643,26.6875523 C15.765307,26.3222881 16.1475727,26.0611482 16.8438539,25.5990549 C16.9462289,25.7875731 17.1216117,25.9696249 17.2361273,26.1578114 C17.2108617,25.9518839 17.1855961,25.7461223 17.1601664,25.540029 C17.114393,25.1668062 17.1161977,24.8640497 17.1455648,24.4885057 C17.1739477,24.1252311 17.2021664,23.7617907 17.2303852,23.3981845 C17.1255492,23.7675938 16.9162055,24.1371689 16.8116977,24.5064124 C16.7698617,24.6543088 16.7352445,24.773687 16.7152289,24.8842777 C15.1526977,25.2070964 13.6014867,25.2271585 12.0384633,24.9454591 C11.9388773,24.3605057 11.8174711,23.7513451 11.7155883,23.3144539 C11.6847445,23.8037389 11.7045961,25.1561948 11.7021352,25.9135834 C11.7001664,26.5001948 11.6757211,26.7009824 11.376307,27.2003813 C11.0960883,27.6674487 10.9774711,27.7735627 10.5848695,28.5629513 C10.617518,29.0613554 10.6181742,29.3904746 10.4872523,29.8633451 C10.2695414,30.6494176 8.07225234,30.0404228 7.49278359,29.8799254 C6.77894766,29.6824539 5.30336953,29.3891482 5.67447891,28.427656 C6.00096328,27.5812311 6.20801016,26.6888788 6.36764297,25.504713 C5.05990078,23.6007959 3.84386953,20.9918839 3.61040859,18.6800912 C3.42911953,16.8854383 3.53789297,15.7806922 3.92229141,14.6825782 C4.53112734,12.942972 5.38326797,11.437314 6.75023672,10.2247959 C8.59429922,8.58947979 10.3179398,7.93289948 13.016932,7.51756269 C12.3679008,8.25190466 11.7257602,9.02836062 11.0258695,9.86085803 C10.3172836,10.7036352 9.89629922,11.5548684 9.44643984,12.4767337 C8.82497109,13.7499358 8.83842422,14.2345782 9.66218203,15.3524228 C10.3720805,16.3157389 10.7553305,16.749314 11.0654086,17.6920705 C10.8094711,18.2251275 10.7162836,18.6757803 10.6303148,19.4039876 C11.499518,20.364485 12.1455961,21.0223917 12.9896977,21.2250031 C13.817557,21.4239668 14.5089164,21.3855005 15.2496586,21.0029927 C16.8947133,20.1529202 18.4168852,19.0551378 20.2725961,19.0100394 C21.1311352,16.8769824 21.0443461,15.094599 20.6322211,13.0306819 C20.3506898,11.6213554 20.2376508,10.2868062 20.1502055,8.84995648 C19.8022289,10.3297492 19.736768,11.630972 19.9950023,13.1051275 C20.306393,14.8813762 20.5483852,16.8441534 19.6822992,18.4051896 C18.004268,18.5350135 16.5662602,19.5666404 15.053932,20.3583503 C14.4459164,20.6765264 13.8129633,20.7076974 13.140143,20.5210031 C12.515557,20.3475731 12.0940805,19.929915 11.4212602,19.1456663 C11.4105961,18.3582674 11.5864711,17.9948269 11.9442914,17.2817078 C12.5191664,16.1365057 13.1535961,15.0705575 13.8498773,13.9439254 C12.9974086,14.9838425 12.1895648,15.8528166 11.5185492,16.898371 C11.2619555,16.1600497 10.8952758,15.7850031 10.2875883,14.9533347 C9.69417422,14.1410653 9.63215859,13.7855834 10.0757836,12.8454798 C10.5220336,11.9008995 10.9003617,11.0707233 11.659807,10.2420394 C12.9718148,8.80999793 14.1739008,7.21629845 15.6086273,5.8059772 C16.3879242,5.04029845 16.7042367,5.06666114 17.7376664,4.90848497 C18.6718383,4.76523109 19.5836977,4.5846715 20.5362445,4.36116891 C19.6150336,4.44788394 18.7245023,4.47971813 17.8275727,4.50210155 C17.8182211,4.50243316 17.8090336,4.50276477 17.799682,4.50293057 C18.6821742,3.36402902 19.1943773,2.72933472 20.6274633,2.09994611 C24.1561195,0.551179275 26.3981977,0.383718135 29.1700336,2.73845389 C29.8882992,3.34894093 30.5158383,3.94135544 31.2441117,4.46778031 C30.9799711,4.49066114 30.7524164,4.53841244 30.4513617,4.65795648 C30.8177133,4.58732435 31.2408305,4.65729326 31.6211273,4.72759378 C31.727932,4.79756269 31.8375258,4.86587358 31.9497445,4.93269223 C32.4640805,5.23893057 32.7559477,5.40804974 33.1037602,5.89766632 C33.4712602,6.41513782 33.7777289,6.93227772 34.0476117,7.50230881 C33.8707523,7.43830881 33.7222758,7.38425699 33.5900414,7.34463005 C33.4927523,7.2993658 33.386768,7.26985285 33.2745492,7.25874404 C33.0520805,7.23718964 32.8392914,7.29256788 32.6619398,7.40282694 C32.6548852,7.40614301 32.6478305,7.40945907 32.6406117,7.41294093 C32.3561273,7.55271295 31.9154555,7.71238135 31.6206352,7.76079585 C31.7710805,7.81318964 32.1037992,7.83292021 32.260643,7.77008083 C32.281643,7.76179067 32.3029711,7.75532435 32.3247914,7.75001865 C32.2540805,7.87171813 32.2079789,8.00983212 32.1937055,8.15922073 C32.1748383,8.35735544 32.2147055,8.5472 32.2988695,8.71217409 C32.2991977,8.7126715 32.2993617,8.71316891 32.2996898,8.71399793 C32.326268,8.77733472 32.3633461,8.83553161 32.4040336,8.8776456 C32.2693383,8.92788394 32.1316898,8.98525181 31.9897758,9.04742798 C32.6475023,8.94628808 33.2404242,8.92887876 33.8820727,9.01426736 C33.9244008,9.21870259 33.967057,9.43540725 34.0065961,9.65575959 C33.9270258,9.6620601 33.8477836,9.66819482 33.7682133,9.67449534 C33.7619789,9.67499275 33.7552523,9.67565596 33.749018,9.67631917 C33.4453383,9.43109637 33.1070414,9.47221554 32.6448773,9.57899275 C31.2391898,9.90280622 31.5694477,10.6998218 30.9230414,11.9008995 C31.5943852,11.0715523 31.5445102,10.2037389 32.638643,9.94176995 C32.8935961,9.88092021 33.0671742,9.80431917 33.239768,9.83068187 C32.9291977,9.98852642 32.6604633,10.2503295 32.5539867,10.5542466 C32.2535883,11.4112829 32.4401273,12.1333554 32.1101977,12.9338528 C32.5188773,12.2182466 32.5434867,11.5198839 32.909018,10.766972 C33.0401039,10.4965472 33.5272055,10.0636352 33.8262914,10.0570031 C33.9084867,10.0551793 33.9901898,10.0535212 34.0723852,10.0516974 C34.1444086,10.5278839 34.1882133,11.0009202 34.1603227,11.3932104 C34.1092992,12.1091482 33.9252211,13.1717803 33.8151352,13.5783295 C34.1852602,13.0975005 34.3539164,12.078972 34.5165023,11.3618736 C34.6858148,10.6152622 34.6429945,9.71926218 34.4948461,8.91727254 C34.2915727,7.81683731 35.4129398,7.99590466 36.0639398,7.47727254 C36.5425102,7.09592539 36.8721117,6.48726218 37.3109789,6.05584249 C37.7460727,5.62823627 38.4311977,6.25663005 38.6024789,6.67461969 C39.3446977,8.48950052 39.6828305,11.3449617 39.4869398,13.174599 C39.266768,15.2275731 38.2856742,17.4687337 36.4939477,18.4794694 C34.2098695,19.7679254 31.5167836,18.9806922 29.2474711,18.2078839 L29.2474711,18.2078839 Z M40.1390883,9.33443316 C39.9453305,8.10052642 39.6244242,6.90259896 39.1788305,6.04125181 C39.1246898,5.93596684 39.0423305,5.82918964 38.9402836,5.72722073 C38.7189633,5.50686839 38.3913305,5.29812228 38.0528695,5.18040207 C37.6942289,5.05571813 37.3160648,5.03035026 37.0158305,5.18885803 C36.9379008,5.23014301 36.8653852,5.2833658 36.8009086,5.34952124 C36.6064945,5.54881658 36.442432,5.79055751 36.2782055,6.03296166 C36.0956039,6.30288912 35.9118539,6.57414301 35.6920102,6.76365596 C35.4372211,6.98384249 35.1184477,7.11747979 34.8177211,7.23951088 C34.6858148,6.91718964 34.5342211,6.62239171 34.3627758,6.34566632 C34.1572055,6.01439171 33.9230883,5.70417409 33.6656742,5.39379067 C33.455182,5.14060933 33.250268,4.95043316 33.0287836,4.77998756 C32.806643,4.60871295 32.5792523,4.46446425 32.3144555,4.29700311 C31.604557,3.84767668 30.9999867,3.31180104 30.3834398,2.76498238 C30.1032211,2.51660933 29.8202133,2.26591503 29.5434398,2.0351171 C28.0752445,0.811655959 26.7054867,0.218246632 25.2407367,0.125065285 C23.7859945,0.0327129534 22.2497133,0.436609326 20.4361664,1.20825699 C19.5607289,1.58048497 18.9107133,2.02052642 18.3443695,2.54943834 C17.8034555,3.05530363 17.3442445,3.63760415 16.8394242,4.31756269 C16.5455883,4.33861969 16.2855492,4.38255751 16.019932,4.49016373 C15.7272445,4.60838135 15.4325883,4.79988394 15.0795258,5.11490984 C14.8290023,5.33808083 14.589307,5.56274404 14.3574867,5.78923109 C14.140432,6.00129326 13.9297758,6.21716891 13.7220727,6.4353658 C12.0709477,6.70330363 10.7256352,6.99942798 9.52076016,7.47097202 C8.28881484,7.95329326 7.20272109,8.61683731 6.08709609,9.61663005 C5.63133047,10.0248373 5.23676016,10.4564228 4.89157266,10.913542 C4.55229141,11.3627026 4.26190078,11.8349098 4.00711172,12.3328166 C3.78382266,12.5823503 3.56036953,12.8342052 3.31837734,13.0545575 C3.08245547,13.2692725 2.83094766,13.4501637 2.54908828,13.5597596 L2.54925234,13.5599254 C2.38535391,13.6235938 2.31759609,13.6610653 2.31021328,13.6585782 C2.30201016,13.6539358 2.29741641,13.6290653 2.28593203,13.5833036 C2.69067422,13.1930031 2.75433047,12.6194902 2.79173672,12.0501223 C2.84013516,12.1088166 2.88689297,12.1811067 2.93529141,12.256713 C2.98877578,12.3401119 3.04357266,12.4261637 3.10919766,12.5098943 L3.38400234,12.8600705 L3.48047109,12.4231793 C3.56151797,12.0569202 3.62222109,11.5692933 3.52772109,11.1464953 C3.46668984,10.8720912 3.34068984,10.6275316 3.12117422,10.4542674 C3.14217422,10.3987233 3.16202578,10.3478218 3.18154922,10.2974176 C3.25061953,10.1191793 3.32149453,9.93629845 3.38186953,9.76353161 L3.50081484,9.42098238 L3.14643984,9.48315855 C2.67492422,9.5658943 1.66167422,10.1287959 0.948166406,10.8770653 C0.683041406,11.1551171 0.455158594,11.4621845 0.305697656,11.7846715 C0.150166406,12.1200912 0.0804398437,12.4710964 0.140814844,12.8222674 C0.193478906,13.1293347 0.345400781,13.430599 0.621517969,13.7149513 C0.671885156,13.9198839 0.718314844,14.0977907 0.768025781,14.2582881 C0.824791406,14.4410031 0.886150781,14.6043192 0.962767969,14.7651482 C1.17047109,15.201542 1.50154922,15.4681534 1.88463516,15.5925057 C2.19274453,15.692485 2.53333828,15.6974591 2.86736953,15.6235109 C2.80207266,16.0050238 2.76089297,16.4039461 2.74497891,16.8396767 C2.72381484,17.4092104 2.74448672,18.0384332 2.80650234,18.7686301 C2.82011953,18.9287959 2.84046328,19.1052104 2.86704141,19.2968788 C2.88984609,19.4603606 2.91724453,19.620858 2.94661172,19.7801948 C2.88410391,19.9522984 2.82143203,20.1247337 2.75876016,20.2968373 C2.66163516,20.5641119 2.56434609,20.8317181 2.46722109,21.0988269 C2.25328359,21.3130446 2.03951016,21.5272622 1.82573672,21.741314 C1.62607266,21.9406093 1.42640859,22.1407337 1.22690859,22.3405264 C1.21033828,22.3572725 1.14307266,22.4224332 1.08204141,22.4819565 C0.677627344,22.8750756 0.597564844,22.9533347 0.712408594,23.6453969 C0.782463281,24.0695212 0.920603906,24.4992829 1.13618203,24.9136249 C1.33469766,25.295801 1.60113516,25.668029 1.94304141,26.0145575 C2.36976797,26.4466404 3.06883828,26.9835109 3.80088516,27.2645472 C4.21924453,27.4252104 4.65040078,27.5036352 5.05514297,27.438143 C5.03447109,27.5009824 5.01445547,27.5638218 4.99165078,27.6273244 C4.92799453,27.8050653 4.85679141,27.9831378 4.77820547,28.1573969 C4.28175234,29.2575005 4.79149453,29.8320083 5.58490078,30.1976041 C5.98111172,30.3801534 6.45197109,30.5040083 6.88968984,30.6194073 C6.97926797,30.6426197 7.06884609,30.6664953 7.18155703,30.6971689 C7.70032266,30.8389306 8.59610391,31.0990756 9.41444766,31.1513036 C10.3076039,31.2083399 11.1131508,31.022143 11.328893,30.2118632 C11.4143695,29.8907026 11.4640805,29.6446508 11.4842602,29.4039047 C11.5027992,29.1804021 11.4955805,28.9544124 11.4698227,28.6750342 C11.7244477,28.1046715 11.8324008,27.9443399 12.0186117,27.6692725 C12.0550336,27.6148891 12.0991664,27.5497285 12.1124555,27.5293347 C12.3121195,27.2303917 12.4056352,27.0181637 12.4395961,26.7790756 C12.4722445,26.5486093 12.444682,26.3188062 12.4033383,25.9676352 C12.3994008,25.934143 12.3933305,25.8855627 12.3847992,25.8210653 C12.9076664,25.888713 13.4231508,25.9251896 13.935518,25.9285057 C14.1957211,25.9299979 14.4557602,25.922371 14.7157992,25.9084435 C14.6493539,25.9429306 14.5842211,25.9769202 14.513018,26.0140601 C14.4813539,26.0303088 14.4488695,26.0473865 14.4162211,26.0642984 C13.7265023,26.4227648 13.6977914,27.1017285 13.9136977,27.8000912 C14.1082758,28.430143 14.5089164,29.0731275 14.7602602,29.4644228 C15.2885414,30.2873036 15.7927055,30.9836767 16.4040023,31.362371 C17.0446664,31.7591378 17.7767133,31.8058943 18.7215492,31.289086 C19.2022523,31.0259565 19.3538461,30.7580187 19.5579398,30.3965679 C19.6204477,30.2863088 19.6893539,30.1661016 19.7659711,30.0473865 C19.9648148,29.9145782 20.4589711,29.5025575 20.9441039,29.0971689 C21.1093148,28.9592207 21.2743617,28.8217699 21.4605727,28.6685679 C21.5888695,28.7639047 21.7437445,28.8300601 21.9309398,28.8751585 C22.1740805,28.9340187 22.4636508,28.9605472 22.810643,28.9857492 C23.0703539,29.0049824 23.9172445,29.0043192 24.464393,29.0041534 C24.6333773,29.0041534 24.7736508,29.0041534 24.8578148,29.0046508 C25.422682,29.0081326 25.8786117,28.9781223 26.223143,28.7808166 C26.5903148,28.5704124 26.8080258,28.1978528 26.8556039,27.5296663 C26.8762758,27.2328788 26.8800492,27.0498321 26.8393617,26.862972 C26.8012992,26.6878839 26.7269789,26.5292104 26.5993383,26.297086 C26.5916273,26.0084228 26.5839164,25.719428 26.5763695,25.4307648 C26.5684945,25.1243606 26.5601273,24.8179565 26.5520883,24.5117181 C26.5424086,24.1504332 26.5030336,23.8571275 26.430518,23.5684642 C26.3586586,23.2817907 26.2559555,23.0058943 26.1184711,22.6751171 C26.0252836,22.4512829 25.9498148,22.245687 25.8759867,22.0440705 L25.6777992,22.1173554 L25.7083148,22.1060808 L25.8759867,22.0440705 L25.8759867,22.0432415 C25.7578617,21.7212518 25.6413773,21.4077181 25.4781352,21.0722984 C25.4887992,21.0074694 25.4994633,20.9379979 25.5097992,20.8637181 C25.6146352,20.9660187 25.7197992,21.0683192 25.8246352,21.1704539 L26.288932,21.622599 C26.643143,21.9673036 26.9668383,22.2806715 27.3471352,22.5073244 C27.740393,22.7419358 28.1825414,22.8778943 28.7551195,22.8505368 C29.3546039,22.8220187 29.9960883,22.5668477 30.5242055,22.1730653 C31.0350961,21.7918839 31.4450883,21.2778943 31.6162055,20.7090238 C31.6657523,20.5445472 31.7152992,20.3799047 31.764518,20.2155938 C31.803893,20.0844435 31.843432,19.9529617 31.8829711,19.8216456 C32.7236273,19.9657285 33.625807,20.0121534 34.4974711,19.9199668 C35.3384555,19.830599 36.150893,19.6142259 36.8516039,19.2365264 C37.8815883,18.681086 38.6538305,17.8630135 39.2088539,16.8914073 L39.209182,16.8915731 C39.8293383,15.8058943 40.1766586,14.5265575 40.3085648,13.2100808 C40.4143852,12.1542466 40.3566352,10.7188891 40.1390883,9.33443316 L40.1390883,9.33443316 Z" id="Fill-42"></path>
                                    </g>
                                    <path d="M0.449514844,13.6644311 C0.614233594,11.7795813 0.976811719,10.9659855 2.30194453,9.54737409 C0.639827344,10.7310425 0.225077344,11.2689078 0.449514844,13.6644311" id="Fill-45" fill="#000000"></path>
                                    <path d="M0.0208523438,12.1248332 C0.203946094,11.2765845 0.374571094,10.9565845 0.891860156,10.2602114 C0.0523523438,10.8529575 -0.0570773437,11.0963565 0.0208523438,12.1248332" id="Fill-47" fill="#000000"></path>
                                    <path d="M19.5196313,0.300020725 C18.5241,0.54242487 18.3341156,0.728621762 18.0355219,1.71498446 C18.5119594,0.992746114 18.7862719,0.757637306 19.5196313,0.300020725" id="Fill-49" fill="#000000"></path>
                                    <g id="Group-53" transform="translate(17.718750, 0.000000)">
                                        <mask id="mask-4" fill="white">
                                            <use xlink:href="#path-3"></use>
                                        </mask>
                                        <g id="Clip-52"></g>
                                        <path d="M3.37105781,0.156335751 C1.3962375,0.645454922 0.815948438,0.993309845 0.1598625,3.30642902 C0.993792188,1.61241865 1.62526875,0.988501554 3.37105781,0.156335751" id="Fill-51" fill="#000000" mask="url(#mask-4)"></path>
                                    </g>
                                    <path d="M25.3429148,8.58846839 C25.553407,7.64604352 25.9274695,6.7379399 27.3758133,6.03526632 C25.4559539,6.52123523 25.0961648,7.33599171 25.3429148,8.58846839" id="Fill-54" fill="#000000"></path>
                                    <path d="M37.5570727,8.65354611 C38.6938617,8.24401244 39.2418305,7.32032332 39.5140102,6.23364974 C39.0690727,7.14457202 38.3824711,7.9062715 37.4497758,8.37284145 C36.949057,8.62303834 36.6294633,8.53582591 36.0705023,8.4822715 C36.6389789,8.64707979 36.998932,8.85449948 37.5570727,8.65354611" id="Fill-56" fill="#000000"></path>
                                    <path d="M29.8130602,9.57710259 C29.6616305,9.25627358 29.3961773,9.02630466 29.0888883,8.91256373 C29.3677945,8.76201451 29.6416148,8.60400415 29.8553883,8.40769326 C29.2294898,8.70050155 28.5007242,8.62887461 27.9637477,8.99563109 C27.4905914,9.31844974 26.8377867,10.3417865 26.3569195,10.7756933 C26.7052242,10.6390715 27.040732,10.4029679 27.3494977,10.1537658 C27.3508102,10.3389679 27.3910055,10.5264912 27.4748414,10.7040663 C27.6000211,10.9690197 27.8024742,11.1716311 28.0421695,11.2983047 C27.8690836,11.528771 27.7255289,11.7867606 27.6226617,12.072771 C28.5379664,10.9764808 29.865232,10.1486259 31.1129273,9.79447047 C30.7641305,9.78949637 30.3511852,9.85532021 29.9305289,9.99509223 C29.9152711,9.85366218 29.8768805,9.71256373 29.8130602,9.57710259" id="Fill-58" fill="#000000"></path>
                                    <path d="M28.496032,17.8609409 C28.4515711,18.1447959 28.3907039,18.4976249 28.346243,18.7816456 C28.4650242,18.4603192 28.6080867,18.0869306 28.7463914,17.7805264 C28.8932273,17.4563813 28.9757508,17.4257078 29.2868133,17.254599 C29.5074773,17.1332311 29.908118,16.9664332 30.128782,16.8450653 C29.9018836,16.8836974 29.4948445,16.9680912 29.2679461,17.0067233 C28.661407,17.1103503 28.5900398,17.2574176 28.496032,17.8609409" id="Fill-60" fill="#000000"></path>
                                    <path d="M18.1373883,6.90089119 C17.4335602,7.60389637 16.7500758,10.0164974 16.5315445,10.9816373 C16.8757477,10.1798135 17.7367477,7.93699482 18.3972633,7.36630052 C18.5795367,7.20862176 18.7070133,7.11179275 18.8440055,7.04149223 C18.3711773,7.84265285 18.4059586,8.04194819 18.5719898,9.11552332 C18.7127555,8.02420725 19.0861617,7.60240415 19.6990992,6.78831088 C20.3707711,6.61786528 20.9994586,6.41376166 21.688357,6.14217617 C20.911357,6.23104663 20.1353414,6.31229016 19.3580133,6.38656995 C18.7052086,6.44924352 18.6002086,6.43846632 18.1373883,6.90089119" id="Fill-62" fill="#000000"></path>
                                    <path d="M27.7251516,11.0075358 C27.5968547,10.7362819 27.7115344,10.4096497 27.9805969,10.2803233 C28.2496594,10.1508311 28.5735187,10.2663959 28.7018156,10.5378155 C28.7139562,10.563515 28.7236359,10.5900435 28.731675,10.6164062 C28.4747531,10.8092352 28.2393234,11.0360539 28.0416281,11.2990176 C27.9089016,11.2449658 27.7909406,11.1468104 27.7251516,11.0075358" id="Fill-64" fill="#FFFFCC"></path>
                                    <path d="M33.7354008,8.65784041 C33.756893,8.4330114 33.9465492,8.26737409 34.1688539,8.2892601 C34.3908305,8.31098031 34.555057,8.51160207 34.5337289,8.73626528 C34.5289711,8.78418238 34.5161742,8.82894922 34.497143,8.8702342 C34.2937055,8.90538446 34.090268,8.96557098 33.8805961,9.04349845 C33.7929867,8.95280415 33.7230961,8.78733264 33.7354008,8.65784041" id="Fill-66" fill="#FFFFCC"></path>
                                </g>
                            </g>
                        </g>
                    </g>
                </g>
            </g>
        </g>
    </g>
</svg>
