<?xml version="1.0" encoding="UTF-8" standalone="no"?>
<!--

    Copyright (C) 2017-2018 Dremio Corporation

    Licensed under the Apache License, Version 2.0 (the "License");
    you may not use this file except in compliance with the License.
    You may obtain a copy of the License at

        http://www.apache.org/licenses/LICENSE-2.0

    Unless required by applicable law or agreed to in writing, software
    distributed under the License is distributed on an "AS IS" BASIS,
    WITHOUT WARRANTIES OR CONDITIONS OF ANY KIND, either express or implied.
    See the License for the specific language governing permissions and
    limitations under the License.

-->
<svg width="48px" height="48px" viewBox="0 0 48 48" version="1.1" xmlns="http://www.w3.org/2000/svg">
    <!-- Generator: Sketch 41.2 (35397) - http://www.bohemiancoding.com/sketch -->
    <title>Source/Kubernetes</title>
    <desc>Created with Sketch.</desc>
    <defs>
    </defs>
    <g id="Elements" stroke="none" stroke-width="1" fill="none" fill-rule="evenodd">
        <g id="Source/Kubernetes">
          <g id="Source.2f.S3">
            <circle id="Oval" cx="24" cy="24" r="23.5" style="fill:#fff;stroke:#e5e5e5;stroke-width:1.02px;"/>
          </g>
            <g id="kubernetes" transform="translate(4.000000, 4.000000)">
                <g id="svg2">
                    <g id="layer1" transform="translate(0.037766, 0.014039)">
                        <g id="g3052">
                            <path d="M19.5758748,0.0454865385 C19.2276719,0.0630657479 18.8865074,0.149575741 18.5723948,0.299941604 L4.87920175,6.85618033 C4.16125159,7.19976359 3.63978875,7.84955167 3.46241525,8.62161958 L0.0842864954,23.3485884 C-0.0732980551,24.0340881 0.0549446832,24.7537898 0.439814106,25.3438189 C0.485998062,25.4152632 0.535672949,25.484418 0.58866047,25.5510353 L10.0664079,37.3595653 C10.5633728,37.9785373 11.3168743,38.3389557 12.1136618,38.3388175 L27.3138122,38.3354481 C28.110313,38.3359512 28.8637428,37.9761359 29.3610101,37.3577683 L38.835395,25.5475536 C39.3326382,24.9282432 39.5189137,24.1175377 39.3414502,23.3451067 L35.9579415,8.6181379 C35.780568,7.84606998 35.2591052,7.19628191 34.541155,6.85269864 L20.8457203,0.299829292 C20.4507079,0.110759479 20.0142495,0.0232892045 19.5763792,0.0454416135 L19.5758748,0.0454865385 Z" id="path3055" fill="#326CE5"></path>
                            <path d="M19.7114954,5.0574292 C19.2588477,5.05747525 18.8918316,5.46601625 18.8918876,5.96996778 C18.8918882,5.97770218 18.893468,5.9850929 18.8936361,5.99278125 C18.8929692,6.06125814 18.8896684,6.14375163 18.8918876,6.20336707 C18.9026824,6.49403167 18.9659129,6.71649454 19.0039707,6.98427547 C19.0729187,7.55746202 19.1306919,8.03254364 19.0950383,8.47415616 C19.0603659,8.64068181 18.9379594,8.79297748 18.8288409,8.89883757 L18.8095766,9.24630419 C18.3177111,9.2871393 17.8225728,9.361913 17.32795,9.47443883 C15.1997721,9.95862899 13.3674935,11.0570896 11.9725072,12.5402315 C11.8819889,12.478353 11.7236266,12.3645131 11.6765349,12.3296457 C11.5301992,12.3494475 11.3823056,12.3946914 11.1896739,12.2822639 C10.8228876,12.034862 10.4888183,11.6933536 10.0845906,11.2820093 C9.89937322,11.0852267 9.76524897,10.8978446 9.54519061,10.7081489 C9.49521724,10.6650731 9.41895141,10.6068094 9.36305556,10.5624909 C9.1910136,10.4250429 8.98809835,10.3533651 8.79210422,10.3466376 C8.54014701,10.3379929 8.29759917,10.4367009 8.13888388,10.6361903 C7.85670346,10.9908393 7.94704805,11.5328928 8.34028602,11.8470307 C8.34427618,11.8502148 8.34852525,11.8526901 8.35254511,11.8558051 C8.40658149,11.899698 8.47275424,11.9559373 8.52241826,11.9926859 C8.75593781,12.1654561 8.96924877,12.253891 9.20192209,12.3910469 C9.69211755,12.6943916 10.0984748,12.9459209 10.4208259,13.2491701 C10.5466952,13.3836193 10.5686971,13.6205256 10.5854479,13.7229882 L10.8481427,13.9581424 C9.44189202,16.0788259 8.79102542,18.6982328 9.1756386,21.3673941 L8.83238409,21.4674196 C8.74191621,21.5844828 8.61407983,21.7686808 8.48037028,21.8236634 C8.058652,21.9567649 7.58404169,22.0056432 7.01101681,22.0658371 C6.74200055,22.0882519 6.50988204,22.0748754 6.22469779,22.1290128 C6.16192564,22.1409281 6.0744672,22.1637606 6.00578827,22.1799044 C6.0034009,22.1804098 6.00117045,22.1811174 5.99878308,22.1816565 C5.9950395,22.1825269 5.9901213,22.1843464 5.98652399,22.1851663 C5.5034402,22.3021284 5.19308768,22.7470654 5.29300977,23.1854209 C5.39294307,23.6239055 5.86480174,23.8905745 6.35079408,23.7856185 C6.35430228,23.7848155 6.35939646,23.7846807 6.36305317,23.7838665 C6.36853964,23.7826086 6.37336986,23.7799411 6.37881486,23.7786046 C6.44655789,23.763703 6.53146084,23.7471234 6.59071918,23.7312228 C6.87111188,23.6559959 7.07418405,23.545458 7.32626456,23.4486896 C7.86857306,23.2537826 8.31775171,23.0909633 8.75532415,23.027518 C8.93808686,23.0131746 9.13064004,23.1405155 9.22642065,23.1942346 L9.58368555,23.1328109 C10.4058151,25.6869643 12.1287566,27.7513792 14.3104543,29.0466225 L14.1615967,29.4046184 C14.215252,29.5436275 14.2744308,29.7317115 14.2344619,29.868991 C14.0753768,30.2823682 13.8028859,30.7186908 13.4925839,31.2051159 C13.3423477,31.4298475 13.1885865,31.6042519 13.0530051,31.8614699 C13.0205627,31.9230115 12.9792432,32.0175448 12.9479272,32.082585 C12.7372782,32.5342158 12.891796,33.0543684 13.2964384,33.2495674 C13.7036251,33.4459962 14.2090191,33.2388225 14.4278053,32.7862786 C14.4281415,32.7856384 14.4292456,32.7851667 14.4295538,32.7845265 C14.429778,32.7840211 14.4293296,32.783263 14.4295538,32.7827744 C14.460709,32.7186103 14.5048456,32.6342749 14.5311291,32.5739407 C14.6472528,32.3073671 14.6858935,32.078918 14.7675572,31.8211104 C14.9844156,31.2752663 15.1035655,30.7025346 15.4021157,30.3456618 C15.4838635,30.2479388 15.6171359,30.2103534 15.755312,30.1732847 L15.9409496,29.8363474 C17.8428878,30.5678945 19.9718504,30.7641605 22.0987954,30.2803297 C22.5839472,30.169949 23.0522864,30.0270988 23.5051022,29.8556483 C23.5572757,29.948379 23.6542343,30.1266414 23.680232,30.171527 C23.8206497,30.2173044 23.9739122,30.2409417 24.0987952,30.4259821 C24.3221432,30.8083498 24.4748844,31.2606881 24.660948,31.8070882 C24.7426229,32.064907 24.7829841,32.2933617 24.8991246,32.5599185 C24.9255953,32.6206795 24.9695128,32.7061998 25.0006999,32.7705043 C25.2189705,33.2245161 25.7259897,33.4324177 26.1338041,33.2355452 C26.538396,33.0402395 26.6930819,32.5201149 26.4823153,32.0685628 C26.4509942,32.0035282 26.4079313,31.9089892 26.3754889,31.8474476 C26.2398963,31.5902634 26.0861631,31.4175999 25.9359101,31.1928907 C25.6255968,30.7064712 25.3682092,30.3023654 25.2091072,29.8889995 C25.1425803,29.6757968 25.2203312,29.5432063 25.272154,29.4046521 C25.2411193,29.3690058 25.1747089,29.1676672 25.1355527,29.0729822 C27.4028258,27.7315224 29.0752178,25.5901172 29.8605281,23.1170535 C29.9665811,23.1337554 30.1509074,23.166435 30.2107878,23.1784771 C30.3340512,23.0970113 30.4473896,22.9907188 30.669628,23.0082564 C31.1072173,23.0716792 31.5563735,23.2345491 32.0986876,23.4294281 C32.3507737,23.5261908 32.5538347,23.6385033 32.834233,23.7137189 C32.8934969,23.7296162 32.9783943,23.7444476 33.0461373,23.7593458 C33.0515845,23.7606824 33.0564097,23.7633554 33.061899,23.7646077 C33.0655585,23.7654276 33.0706499,23.7655567 33.0741581,23.7663598 C33.5601728,23.8712034 34.0321324,23.6047028 34.1319424,23.1661621 C34.2317356,22.7277505 33.9215456,22.2827124 33.4384282,22.1659075 C33.3681577,22.1498957 33.268499,22.122702 33.2002516,22.1097513 C32.9150505,22.055629 32.6829376,22.0689762 32.4139325,22.0465755 C31.8409077,21.9864097 31.3662918,21.9374808 30.9445791,21.8044018 C30.7726268,21.7375591 30.6503049,21.5325383 30.5908112,21.448158 L30.2598185,21.3516367 C30.4314346,20.1075518 30.3851611,18.8127578 30.0881913,17.5172338 C29.7884587,16.2096362 29.2587763,15.0137333 28.5523165,13.9600742 C28.6372195,13.8827302 28.7975655,13.7404528 28.8430321,13.6985996 C28.8563229,13.5512344 28.8449038,13.3967318 28.9971463,13.2335587 C29.3194581,12.9302758 29.7258546,12.6787914 30.2160501,12.3754355 C30.4487178,12.2382739 30.6637941,12.1498559 30.8972912,11.9770745 C30.9500964,11.9380032 31.0222022,11.8761281 31.0776778,11.8314165 C31.4708317,11.5171494 31.56135,10.9751464 31.2790799,10.6205761 C30.9968098,10.2660001 30.449833,10.232604 30.0567015,10.546871 C30.0007407,10.5912822 29.9248078,10.6492157 29.8745665,10.692529 C29.6545193,10.8822247 29.5186242,11.0695843 29.3334181,11.2663894 C28.9292184,11.6777899 28.5951266,12.0210167 28.2283347,12.268441 C28.0694008,12.3611606 27.8366042,12.3290785 27.7309659,12.3228424 L27.4192348,12.5457152 C25.6416527,10.6779031 23.2214422,9.48379727 20.6152298,9.25181592 C20.6079411,9.14238429 20.5983922,8.94457401 20.5959656,8.88504841 C20.4892793,8.78275424 20.3604005,8.69541447 20.3280197,8.47440605 C20.2923677,8.03279915 20.3518917,7.55765575 20.4208357,6.98452537 C20.4588935,6.71672759 20.5221252,6.49427034 20.5329188,6.20361697 C20.5353734,6.13754356 20.5314337,6.04166243 20.5311703,5.97022049 C20.5311165,5.46626895 20.1642102,5.05762575 19.7115626,5.05768191 L19.7114954,5.0574292 Z M18.6852624,11.4277908 L18.4418291,15.7360399 L18.4243162,15.7448143 C18.407989,16.1302369 18.0914293,16.4380067 17.7027812,16.4380067 C17.5435783,16.4380067 17.3966318,16.3867759 17.2772128,16.2993682 L17.2702076,16.302878 L13.7448577,13.7986475 C14.8283651,12.7310616 16.2142166,11.9421229 17.8113449,11.578736 C18.1030972,11.5123593 18.3947374,11.4631047 18.6852568,11.4278161 L18.6852624,11.4277908 Z M20.7395216,11.4277908 C22.6041922,11.6575989 24.3287028,12.5036879 25.6501627,13.8003911 L22.1475656,16.2887856 L22.1353065,16.2835237 C21.8244216,16.5110519 21.3864233,16.4545981 21.1440435,16.1501527 C21.0447771,16.0254298 20.9926921,15.8787834 20.9864267,15.7307331 L20.9829241,15.7289811 L20.7395216,11.4277908 Z M12.4666676,15.407863 L15.6855823,18.2928888 L15.6820797,18.3104376 C15.9726215,18.5635337 16.0154653,19.0027315 15.7731472,19.3072105 C15.6738864,19.4319335 15.5410175,19.5155894 15.3983693,19.554646 L15.3948667,19.5686851 L11.2688074,20.7620048 C11.0588029,18.8378119 11.5113889,16.9673043 12.4666956,15.4078461 L12.4666676,15.407863 Z M26.9343548,15.409615 C27.4126191,16.186424 27.77481,17.0539815 27.9904019,17.994542 C28.2034214,18.9238151 28.2568794,19.8514597 28.1690343,20.7479376 L24.0219594,19.5511363 L24.0184568,19.5335875 C23.6470975,19.4318885 23.4188682,19.0533619 23.5053291,18.6737234 C23.5407491,18.5181931 23.6231397,18.3866191 23.7347521,18.2894015 L23.7330036,18.2806271 L26.9343773,15.4096403 L26.9343548,15.409615 Z M19.05155,18.5157279 L20.3702638,18.5157279 L21.1898715,19.5423198 L20.8956534,20.8233554 L19.7117756,21.393678 L18.5243671,20.8215585 L18.230149,19.5405228 L19.05155,18.5157279 Z M23.2792127,22.0289733 C23.3352526,22.0261375 23.3910492,22.0311971 23.4455888,22.0412575 L23.452594,22.0324831 L27.7204945,22.7554944 C27.0958554,24.5139142 25.9006572,26.037264 24.3036971,27.056724 L22.6469967,23.0468329 L22.6522478,23.0398134 C22.5000614,22.6854676 22.6523599,22.2699116 23.0025075,22.1009375 C23.0921516,22.0576742 23.1858138,22.0337185 23.2792127,22.0289902 L23.2792127,22.0289733 Z M16.1109377,22.0465222 C16.4366344,22.0510989 16.7287958,22.2776162 16.8044519,22.6098252 C16.8398808,22.7653555 16.8226374,22.9194594 16.764172,23.0555652 L16.7764311,23.0713591 L15.1372157,27.04093 C13.6046473,26.0554445 12.3839502,24.5799398 11.7309541,22.7695756 L15.9620913,22.0501021 L15.9690965,22.0588765 C16.0164242,22.0501493 16.0644232,22.0459381 16.1109489,22.0465924 L16.1109377,22.0465222 Z M19.6853239,23.7856242 C19.7987745,23.7814461 19.913895,23.8047723 20.0233218,23.8575715 C20.1667601,23.926784 20.2775655,24.0357664 20.3473092,24.1664307 L20.3630709,24.1664307 L22.4488814,27.9429365 C22.1781839,28.0338647 21.8998928,28.1115793 21.6152633,28.176333 C20.0200405,28.539265 18.4299175,28.4292999 16.9900979,27.9376691 L19.0706406,24.1681828 L19.0741432,24.1681828 C19.1989869,23.9343258 19.4357513,23.7948057 19.6853324,23.7856185 L19.6853239,23.7856242 Z" id="path3059" stroke="#FFFFFF" stroke-width="0.25" fill="#FFFFFF"></path>
                        </g>
                    </g>
                </g>
            </g>
        </g>
    </g>
</svg>
