<svg id="data-types/TypeDateTime" viewBox="0 0 24 24" fill="none" xmlns="http://www.w3.org/2000/svg">
<path d="M8.08333 3.75C8.08333 3.33579 7.74755 3 7.33333 3C6.91912 3 6.58333 3.33579 6.58333 3.75V5H5.25C3.45507 5 2 6.45507 2 8.25V17.75C2 19.5449 3.45507 21 5.25 21H11.8096C11.3832 20.5557 11.0194 20.051 10.7322 19.5H5.25C4.2835 19.5 3.5 18.7165 3.5 17.75V12.75H11.1902C11.5979 12.1736 12.0972 11.6666 12.6668 11.25L3.5 11.25V8.25C3.5 7.2835 4.2835 6.5 5.25 6.5H6.58333V7.75C6.58333 8.16421 6.91912 8.5 7.33333 8.5C7.74755 8.5 8.08333 8.16421 8.08333 7.75V6.5H15.9167V7.75C15.9167 8.16421 16.2525 8.5 16.6667 8.5C17.0809 8.5 17.4167 8.16421 17.4167 7.75V6.5H18.75C19.7165 6.5 20.5 7.2835 20.5 8.25V11.25H20.3332C20.9947 11.7338 21.5613 12.3396 22 13.0343V8.25C22 6.45508 20.5449 5 18.75 5H17.4167V3.75C17.4167 3.33579 17.0809 3 16.6667 3C16.2525 3 15.9167 3.33579 15.9167 3.75V5H8.08333V3.75Z" fill="#505862"/>
<path d="M16 13.75C16.4142 13.75 16.75 14.0858 16.75 14.5V16.25H18C18.4142 16.25 18.75 16.5858 18.75 17C18.75 17.4142 18.4142 17.75 18 17.75H16C15.5858 17.75 15.25 17.4142 15.25 17V14.5C15.25 14.0858 15.5858 13.75 16 13.75Z" fill="#505862"/>
<path fill-rule="evenodd" clip-rule="evenodd" d="M16.5 22C19.5376 22 22 19.5376 22 16.5C22 13.4624 19.5376 11 16.5 11C13.4624 11 11 13.4624 11 16.5C11 19.5376 13.4624 22 16.5 22ZM16.5 20.5C18.7091 20.5 20.5 18.7091 20.5 16.5C20.5 14.2909 18.7091 12.5 16.5 12.5C14.2909 12.5 12.5 14.2909 12.5 16.5C12.5 18.7091 14.2909 20.5 16.5 20.5Z" fill="#505862"/>
</svg>
