<svg id="column-types/date" viewBox="0 0 24 24" fill="none" xmlns="http://www.w3.org/2000/svg">
<g id="Column type=Date">
<path id="Union" fill-rule="evenodd" clip-rule="evenodd" d="M8.08333 3.75C8.08333 3.33579 7.74755 3 7.33333 3C6.91912 3 6.58333 3.33579 6.58333 3.75V5H5.25C3.45507 5 2 6.45507 2 8.25V17.75C2 19.5449 3.45507 21 5.25 21H18.75C20.5449 21 22 19.5449 22 17.75V8.25C22 6.45508 20.5449 5 18.75 5H17.4167V3.75C17.4167 3.33579 17.0809 3 16.6667 3C16.2525 3 15.9167 3.33579 15.9167 3.75V5H8.08333V3.75ZM6.58333 6.5V7.75C6.58333 8.16421 6.91912 8.5 7.33333 8.5C7.74755 8.5 8.08333 8.16421 8.08333 7.75V6.5H15.9167V7.75C15.9167 8.16421 16.2525 8.5 16.6667 8.5C17.0809 8.5 17.4167 8.16421 17.4167 7.75V6.5H18.75C19.7165 6.5 20.5 7.2835 20.5 8.25V11.25L3.5 11.25V8.25C3.5 7.2835 4.2835 6.5 5.25 6.5H6.58333ZM3.5 12.75V17.75C3.5 18.7165 4.2835 19.5 5.25 19.5H18.75C19.7165 19.5 20.5 18.7165 20.5 17.75V12.75L3.5 12.75Z" fill="currentColor"/>
</g>
</svg>
