<svg id="column-types/double" viewBox="0 0 24 24" fill="none" xmlns="http://www.w3.org/2000/svg">
<path fill-rule="evenodd" clip-rule="evenodd" d="M6.58038 4.93475C6.98461 5.02517 7.239 5.42616 7.14858 5.83038L6.3091 9.58333H7.77204L8.68475 5.50295C8.77517 5.09872 9.17616 4.84433 9.58038 4.93475C9.98461 5.02517 10.239 5.42616 10.1486 5.83038L9.3091 9.58333H10C10.4142 9.58333 10.75 9.91912 10.75 10.3333C10.75 10.7475 10.4142 11.0833 10 11.0833H8.97358L8.60077 12.75H9.41667C9.83088 12.75 10.1667 13.0858 10.1667 13.5C10.1667 13.9142 9.83088 14.25 9.41667 14.25H8.26524L7.31525 18.4971C7.22483 18.9013 6.82384 19.1557 6.41962 19.0652C6.01539 18.9748 5.761 18.5738 5.85142 18.1696L6.72818 14.25H5.26524L4.31525 18.4971C4.22483 18.9013 3.82384 19.1557 3.41962 19.0652C3.01539 18.9748 2.761 18.5738 2.85142 18.1696L3.72818 14.25H2.75C2.33579 14.25 2 13.9142 2 13.5C2 13.0858 2.33579 12.75 2.75 12.75H4.0637L4.43651 11.0833H3.33333C2.91912 11.0833 2.58333 10.7475 2.58333 10.3333C2.58333 9.91912 2.91912 9.58333 3.33333 9.58333H4.77204L5.68475 5.50295C5.77517 5.09872 6.17616 4.84433 6.58038 4.93475ZM7.0637 12.75L7.43651 11.0833H5.97358L5.60077 12.75H7.0637Z" fill="currentColor"/>
<path fill-rule="evenodd" clip-rule="evenodd" d="M17.8304 4.93475C18.2346 5.02517 18.489 5.42616 18.3986 5.83038L17.5591 9.58333H19.022L19.9348 5.50295C20.0252 5.09872 20.4262 4.84433 20.8304 4.93475C21.2346 5.02517 21.489 5.42616 21.3986 5.83038L20.5591 9.58333H21.25C21.6642 9.58333 22 9.91912 22 10.3333C22 10.7475 21.6642 11.0833 21.25 11.0833H20.2236L19.8508 12.75H20.6667C21.0809 12.75 21.4167 13.0858 21.4167 13.5C21.4167 13.9142 21.0809 14.25 20.6667 14.25H19.5152L18.5652 18.4971C18.4748 18.9013 18.0738 19.1557 17.6696 19.0652C17.2654 18.9748 17.011 18.5738 17.1014 18.1696L17.9782 14.25H16.5152L15.5652 18.4971C15.4748 18.9013 15.0738 19.1557 14.6696 19.0652C14.2654 18.9748 14.011 18.5738 14.1014 18.1696L14.9782 14.25H14C13.5858 14.25 13.25 13.9142 13.25 13.5C13.25 13.0858 13.5858 12.75 14 12.75H15.3137L15.6865 11.0833H14.5833C14.1691 11.0833 13.8333 10.7475 13.8333 10.3333C13.8333 9.91912 14.1691 9.58333 14.5833 9.58333H16.022L16.9348 5.50295C17.0252 5.09872 17.4262 4.84433 17.8304 4.93475ZM18.3137 12.75L18.6865 11.0833H17.2236L16.8508 12.75H18.3137Z" fill="currentColor"/>
<path d="M11.0833 19C11.4975 19 11.8333 18.6642 11.8333 18.25C11.8333 17.8358 11.4975 17.5 11.0833 17.5C10.6691 17.5 10.3333 17.8358 10.3333 18.25C10.3333 18.6642 10.6691 19 11.0833 19Z" fill="currentColor"/>
</svg>
