<svg id="column-types/struct" viewBox="0 0 24 24" fill="none" xmlns="http://www.w3.org/2000/svg">
<path fill-rule="evenodd" clip-rule="evenodd" d="M9 5.33333C9 4.59695 9.59695 4 10.3333 4H13.6667C14.403 4 15 4.59695 15 5.33333V8C15 8.73638 14.403 9.33333 13.6667 9.33333H12.75V11.2685H19C19.4142 11.2685 19.75 11.6043 19.75 12.0185V14.6667H20.6667C21.403 14.6667 22 15.2636 22 16V18.6667C22 19.403 21.403 20 20.6667 20H17.3333C16.597 20 16 19.403 16 18.6667V16C16 15.2636 16.597 14.6667 17.3333 14.6667H18.25V12.7685H12.75V14.6667H13.6667C14.403 14.6667 15 15.2636 15 16V18.6667C15 19.403 14.403 20 13.6667 20H10.3333C9.59695 20 9 19.403 9 18.6667V16C9 15.2636 9.59695 14.6667 10.3333 14.6667H11.25V12.7685H5.75V14.6667H6.66667C7.40305 14.6667 8 15.2636 8 16V18.6667C8 19.403 7.40305 20 6.66667 20H3.33333C2.59695 20 2 19.403 2 18.6667V16C2 15.2636 2.59695 14.6667 3.33333 14.6667H4.25V12.0185C4.25 11.6043 4.58579 11.2685 5 11.2685H11.25V9.33333H10.3333C9.59695 9.33333 9 8.73638 9 8V5.33333ZM10.5 7.83333V5.5H13.5V7.83333H10.5ZM3.5 16.1667V18.5H6.5V16.1667H3.5ZM10.5 16.1667V18.5H13.5V16.1667H10.5ZM17.5 16.1667V18.5H20.5V16.1667H17.5Z" fill="currentColor"/>
</svg>
