<svg id="interface/add-dataset" viewBox="0 0 24 24" fill="none" xmlns="http://www.w3.org/2000/svg">
<path fill-rule="evenodd" clip-rule="evenodd" d="M2 4C2 2.89543 2.89543 2 4 2H20C21.1046 2 22 2.89543 22 4V13.0343C21.4203 12.1162 20.617 11.3534 19.6667 10.8222V5C19.6667 4.63181 19.3682 4.33333 19 4.33333H5C4.63181 4.33333 4.33333 4.63181 4.33333 5V19C4.33333 19.3682 4.63181 19.6667 5 19.6667H10.8222C11.3534 20.617 12.1162 21.4203 13.0343 22H4C2.89543 22 2 21.1046 2 20V4ZM10.0084 16.1667C10.0028 16.2771 10 16.3882 10 16.5C10 17.3224 10.1527 18.1091 10.4314 18.8333H8.83333V16.1667H10.0084ZM11.3762 12.5C10.7751 13.2688 10.3433 14.1764 10.1369 15.1667H8.83333V12.5H11.3762ZM15.1667 10.1369C14.1764 10.3433 13.2688 10.7751 12.5 11.3762V8.83333H15.1667V10.1369ZM18.8333 10.4314C18.1091 10.1527 17.3224 10 16.5 10C16.3882 10 16.2771 10.0028 16.1667 10.0084V8.83333H18.8333V10.4314ZM7.83333 5.16667H5.16667V7.83333H7.83333V5.16667ZM11.5 5.16667H8.83333V7.83333H11.5V5.16667ZM15.1667 5.16667H12.5V7.83333H15.1667V5.16667ZM18.8333 5.16667H16.1667V7.83333H18.8333V5.16667ZM7.83333 8.83333H5.16667V11.5H7.83333V8.83333ZM11.5 8.83333H8.83333V11.5H11.5V8.83333ZM7.83333 12.5H5.16667V15.1667H7.83333V12.5ZM7.83333 16.1667H5.16667V18.8333H7.83333V16.1667Z" fill="#A672BB"/>
<path fill-rule="evenodd" clip-rule="evenodd" d="M16.5 11C19.5376 11 22 13.4624 22 16.5C22 19.5376 19.5376 22 16.5 22C13.4624 22 11 19.5376 11 16.5C11 13.4624 13.4624 11 16.5 11ZM17.0011 19.5035L17.0006 17H19.4966C19.7725 17 19.9961 16.7762 19.9961 16.5C19.9961 16.2239 19.7725 16 19.4966 16H17.0005L17 13.4993C17 13.2231 16.7761 12.9993 16.5 12.9993C16.2239 12.9993 16 13.2231 16 13.4993L16.0005 16H13.4956C13.2197 16 12.9961 16.2239 12.9961 16.5C12.9961 16.7762 13.2197 17 13.4956 17H16.0006L16.0011 19.5035C16.0011 19.7797 16.225 20.0035 16.5011 20.0035C16.7773 20.0035 17.0011 19.7797 17.0011 19.5035Z" fill="#A672BB"/>
</svg>
