<svg id="interface/double-arrow-up" viewBox="0 0 24 24" fill="none" xmlns="http://www.w3.org/2000/svg">
<path d="M16.4703 12.669C16.6691 12.669 16.8597 12.5901 17.0003 12.4497C17.1408 12.3091 17.2197 12.1184 17.2197 11.9197C17.2197 11.7209 17.1408 11.5303 17.0003 11.3897L12.5299 6.91929C12.3893 6.77884 12.1987 6.69995 11.9999 6.69995C11.8012 6.69995 11.6106 6.77884 11.4699 6.91929L7.01864 11.3706C6.94496 11.4393 6.88586 11.5221 6.84486 11.6141C6.80387 11.7061 6.78183 11.8054 6.78005 11.9061C6.77828 12.0068 6.7968 12.1069 6.83452 12.2002C6.87224 12.2936 6.92839 12.3785 6.99961 12.4497C7.07083 12.5209 7.15566 12.577 7.24905 12.6148C7.34244 12.6525 7.44246 12.671 7.54317 12.6692C7.64387 12.6675 7.74318 12.6454 7.83518 12.6044C7.92718 12.5634 8.00998 12.5043 8.07865 12.4306L11.9999 8.50929L15.9403 12.4497C16.081 12.5901 16.2716 12.669 16.4703 12.669Z" fill="currentColor"/>
<path d="M16.4703 18.169C16.6691 18.169 16.8597 18.0901 17.0003 17.9497C17.1408 17.8091 17.2197 17.6184 17.2197 17.4197C17.2197 17.2209 17.1408 17.0303 17.0003 16.8897L12.5299 12.4193C12.3893 12.2788 12.1987 12.2 11.9999 12.2C11.8012 12.2 11.6106 12.2788 11.4699 12.4193L7.01864 16.8706C6.94496 16.9393 6.88586 17.0221 6.84486 17.1141C6.80387 17.2061 6.78183 17.3054 6.78005 17.4061C6.77828 17.5068 6.7968 17.6069 6.83452 17.7002C6.87224 17.7936 6.92839 17.8785 6.99961 17.9497C7.07083 18.0209 7.15566 18.077 7.24905 18.1148C7.34244 18.1525 7.44246 18.171 7.54317 18.1692C7.64387 18.1675 7.74318 18.1454 7.83518 18.1044C7.92718 18.0634 8.00998 18.0043 8.07865 17.9306L11.9999 14.0093L15.9403 17.9497C16.081 18.0901 16.2716 18.169 16.4703 18.169Z" fill="currentColor"/>
</svg>
