<svg id="interface/double-arrow-down" viewBox="0 0 24 24" fill="none" xmlns="http://www.w3.org/2000/svg">
<path d="M7.52929 12.2002C7.33054 12.2002 7.13992 12.2791 6.99929 12.4196C6.85884 12.5602 6.77995 12.7508 6.77995 12.9496C6.77995 13.1483 6.85884 13.339 6.99929 13.4796L11.4697 17.95C11.6103 18.0904 11.8009 18.1693 11.9997 18.1693C12.1985 18.1693 12.3891 18.0904 12.5297 17.95L16.981 13.4986C17.0547 13.43 17.1138 13.3472 17.1548 13.2552C17.1958 13.1632 17.2178 13.0638 17.2196 12.9631C17.2214 12.8624 17.2028 12.7624 17.1651 12.669C17.1274 12.5756 17.0712 12.4908 17 12.4196C16.9288 12.3484 16.844 12.2922 16.7506 12.2545C16.6572 12.2168 16.5572 12.1982 16.4565 12.2C16.3558 12.2018 16.2564 12.2238 16.1644 12.2648C16.0724 12.3058 15.9896 12.3649 15.921 12.4386L11.9997 16.36L8.05929 12.4196C7.91867 12.2791 7.72804 12.2002 7.52929 12.2002Z" fill="currentColor"/>
<path d="M7.52929 6.70024C7.33054 6.70024 7.13992 6.77913 6.99929 6.91958C6.85884 7.06021 6.77995 7.25083 6.77995 7.44958C6.77995 7.64833 6.85884 7.83896 6.99929 7.97958L11.4697 12.45C11.6103 12.5904 11.8009 12.6693 11.9997 12.6693C12.1985 12.6693 12.3891 12.5904 12.5297 12.45L16.981 7.99861C17.0547 7.92995 17.1138 7.84715 17.1548 7.75515C17.1958 7.66315 17.2178 7.56384 17.2196 7.46314C17.2214 7.36243 17.2028 7.2624 17.1651 7.16902C17.1274 7.07563 17.0712 6.9908 17 6.91958C16.9288 6.84836 16.844 6.79221 16.7506 6.75449C16.6572 6.71677 16.5572 6.69825 16.4565 6.70002C16.3558 6.7018 16.2564 6.72384 16.1644 6.76483C16.0724 6.80583 15.9896 6.86493 15.921 6.93861L11.9997 10.86L8.05929 6.91958C7.91867 6.77913 7.72804 6.70024 7.52929 6.70024Z" fill="currentColor"/>
</svg>
