<svg id="interface/edit-ars-wiki" viewBox="0 0 286 188" fill="none" xmlns="http://www.w3.org/2000/svg">
<path d="M6.70836 100.152C6.03569 100.152 5.48532 100.739 5.48532 101.457V125.826C5.48532 126.544 6.03569 127.131 6.70836 127.131H31.6338V100.152H6.70836ZM7.98031 121.56H6.13964V120.908H7.98031V121.56ZM11.6616 121.56H9.82098V120.908H11.6616V121.56ZM15.343 121.56H13.5023V120.908H15.343V121.56ZM19.0243 121.56H17.1836V120.908H19.0243V121.56ZM22.7056 121.56H20.865V120.908H22.7056V121.56ZM26.387 121.56H24.5463V120.908H26.387V121.56ZM28.2276 121.56V120.908H30.0683V121.56H28.2276Z" fill="#F6F7F8"/>
<path d="M235.073 0H233.239V0.652285H235.073V0Z" fill="#D2D6DA"/>
<path d="M238.742 0H236.908V0.652285H238.742V0Z" fill="#D2D6DA"/>
<path d="M244.986 57.1523L244.968 56.5H243.133V57.1523H244.937H244.986Z" fill="#D2D6DA"/>
<path d="M242.411 0H240.577V0.652285H242.411V0Z" fill="#D2D6DA"/>
<path d="M245.885 55.5818L246.497 55.6144V53.6445H245.885V55.5818Z" fill="#D2D6DA"/>
<path d="M245.696 1.03061L246.179 0.632717C245.885 0.2283 245.445 0 244.968 0H244.246V0.652285H244.968C245.255 0.652285 245.518 0.789265 245.696 1.03061Z" fill="#D2D6DA"/>
<path d="M122.181 13.293H121.57V15.2498H122.181V13.293Z" fill="#D2D6DA"/>
<path d="M246.497 2.73242H245.885V4.68928H246.497V2.73242Z" fill="#D2D6DA"/>
<path d="M224.054 0H222.219V0.652285H224.054V0Z" fill="#D2D6DA"/>
<path d="M122.181 5.4668H121.57V7.42365H122.181V5.4668Z" fill="#D2D6DA"/>
<path d="M227.729 0H225.894V0.652285H227.729V0Z" fill="#D2D6DA"/>
<path d="M122.181 17.2129H121.57V18.1261H122.181V17.2129Z" fill="#D2D6DA"/>
<path d="M231.398 0H229.564V0.652285H231.398V0Z" fill="#D2D6DA"/>
<path d="M220.385 0H218.55V0.652285H220.385V0Z" fill="#D2D6DA"/>
<path d="M198.358 0H196.523V0.652285H198.358V0Z" fill="#D2D6DA"/>
<path d="M246.497 30.1426H245.885V32.0994H246.497V30.1426Z" fill="#D2D6DA"/>
<path d="M246.497 37.9766H245.885V39.9334H246.497V37.9766Z" fill="#D2D6DA"/>
<path d="M246.497 45.8105H245.885V47.7674H246.497V45.8105Z" fill="#D2D6DA"/>
<path d="M246.497 26.2285H245.885V28.1854H246.497V26.2285Z" fill="#D2D6DA"/>
<path d="M246.497 41.8965H245.885V43.8533H246.497V41.8965Z" fill="#D2D6DA"/>
<path d="M246.497 6.64648H245.885V8.60334H246.497V6.64648Z" fill="#D2D6DA"/>
<path d="M246.497 10.5605H245.885V12.5174H246.497V10.5605Z" fill="#D2D6DA"/>
<path d="M246.497 22.3145H245.885V24.2713H246.497V22.3145Z" fill="#D2D6DA"/>
<path d="M246.497 49.7246H245.885V51.6815H246.497V49.7246Z" fill="#D2D6DA"/>
<path d="M246.497 14.4805H245.885V16.4373H246.497V14.4805Z" fill="#D2D6DA"/>
<path d="M246.497 18.3945H245.885V20.3514H246.497V18.3945Z" fill="#D2D6DA"/>
<path d="M246.497 34.0625H245.885V36.0194H246.497V34.0625Z" fill="#D2D6DA"/>
<path d="M165.311 0H163.477V0.652285H165.311V0Z" fill="#D2D6DA"/>
<path d="M168.981 0H167.146V0.652285H168.981V0Z" fill="#D2D6DA"/>
<path d="M202.027 0H200.192V0.652285H202.027V0Z" fill="#D2D6DA"/>
<path d="M157.967 0H156.133V0.652285H157.967V0Z" fill="#D2D6DA"/>
<path d="M172.656 0H170.821V0.652285H172.656V0Z" fill="#D2D6DA"/>
<path d="M161.642 0H159.808V0.652285H161.642V0Z" fill="#D2D6DA"/>
<path d="M194.683 0H192.848V0.652285H194.683V0Z" fill="#D2D6DA"/>
<path d="M176.325 0H174.49V0.652285H176.325V0Z" fill="#D2D6DA"/>
<path d="M187.338 0H185.504V0.652285H187.338V0Z" fill="#D2D6DA"/>
<path d="M154.298 0H152.464V0.652285H154.298V0Z" fill="#D2D6DA"/>
<path d="M191.014 0H189.179V0.652285H191.014V0Z" fill="#D2D6DA"/>
<path d="M180 0H178.166V0.652285H180V0Z" fill="#D2D6DA"/>
<path d="M183.669 0H181.835V0.652285H183.669V0Z" fill="#D2D6DA"/>
<path d="M135.94 0H134.106V0.652285H135.94V0Z" fill="#D2D6DA"/>
<path d="M128.596 0H126.761V0.652285H128.596V0Z" fill="#D2D6DA"/>
<path d="M209.371 0H207.537V0.652285H209.371V0Z" fill="#D2D6DA"/>
<path d="M132.271 0H130.437V0.652285H132.271V0Z" fill="#D2D6DA"/>
<path d="M213.04 0H211.206V0.652285H213.04V0Z" fill="#D2D6DA"/>
<path d="M216.716 0H214.881V0.652285H216.716V0Z" fill="#D2D6DA"/>
<path d="M124.927 0.652285V0H123.092L123.098 0.652285H124.927Z" fill="#D2D6DA"/>
<path d="M150.629 0H148.794V0.652285H150.629V0Z" fill="#D2D6DA"/>
<path d="M143.284 0H141.45V0.652285H143.284V0Z" fill="#D2D6DA"/>
<path d="M146.954 0H145.119V0.652285H146.954V0Z" fill="#D2D6DA"/>
<path d="M205.702 0H203.868V0.652285H205.702V0Z" fill="#D2D6DA"/>
<path d="M139.609 0H137.775V0.652285H139.609V0Z" fill="#D2D6DA"/>
<path d="M122.181 1.57105L121.57 1.52539C121.57 1.558 121.57 1.59714 121.57 1.62976V3.50181H122.181V1.57105Z" fill="#D2D6DA"/>
<path d="M122.181 9.37891H121.57V11.3358H122.181V9.37891Z" fill="#D2D6DA"/>
<path d="M230.285 56.5H228.451V57.1523H230.285V56.5Z" fill="#D2D6DA"/>
<path d="M222.941 56.5H221.106V57.1523H222.941V56.5Z" fill="#D2D6DA"/>
<path d="M237.623 56.5H235.789V57.1523H237.623V56.5Z" fill="#D2D6DA"/>
<path d="M226.61 56.5H224.775V57.1523H226.61V56.5Z" fill="#D2D6DA"/>
<path d="M241.299 56.5H239.464V57.1523H241.299V56.5Z" fill="#D2D6DA"/>
<path d="M233.954 56.5H232.12V57.1523H233.954V56.5Z" fill="#D2D6DA"/>
<path d="M30.5269 136.165L30.7043 136.791L31.6338 136.491V135.812L30.5269 136.165Z" fill="#D2D6DA"/>
<path d="M27.768 151.18L25.9991 151.746L26.1748 152.371L27.9437 151.805L27.768 151.18Z" fill="#D2D6DA"/>
<path d="M25.2326 137.856L23.4637 138.422L23.6395 139.047L25.4084 138.481L25.2326 137.856Z" fill="#D2D6DA"/>
<path d="M24.2341 152.315L22.4652 152.881L22.6409 153.506L24.4098 152.94L24.2341 152.315Z" fill="#D2D6DA"/>
<path d="M31.3004 150.047L29.5315 150.613L29.7072 151.238L31.4761 150.672L31.3004 150.047Z" fill="#D2D6DA"/>
<path d="M28.7666 136.729L26.9977 137.295L27.1735 137.92L28.9424 137.354L28.7666 136.729Z" fill="#D2D6DA"/>
<path d="M21.6986 138.989L19.9297 139.555L20.1055 140.179L21.8744 139.613L21.6986 138.989Z" fill="#D2D6DA"/>
<path d="M14.6324 141.248L12.8635 141.814L13.0392 142.439L14.8081 141.873L14.6324 141.248Z" fill="#D2D6DA"/>
<path d="M11.1769 146.035L10.5911 146.223L11.1218 148.109L11.7075 147.922L11.1769 146.035Z" fill="#D2D6DA"/>
<path d="M13.2944 153.574L12.7073 153.763L13.0192 154.879C13.1109 155.205 13.2883 155.485 13.539 155.694L13.9181 155.179C13.7714 155.055 13.6613 154.885 13.6063 154.69L13.2944 153.574Z" fill="#D2D6DA"/>
<path d="M20.694 153.442L18.9251 154.008L19.1008 154.633L20.8697 154.067L20.694 153.442Z" fill="#D2D6DA"/>
<path d="M12.2336 149.805L11.6478 149.992L12.1785 151.879L12.7642 151.692L12.2336 149.805Z" fill="#D2D6DA"/>
<path d="M10.622 143.94C10.622 143.509 10.885 143.131 11.2703 143.007L11.0929 142.381C10.4447 142.596 10.0105 143.222 10.0105 143.94C10.0105 144.064 10.0228 144.194 10.0533 144.318L10.6465 144.168C10.6282 144.09 10.622 144.018 10.622 143.94Z" fill="#D2D6DA"/>
<path d="M17.1599 154.569L15.3911 155.135L15.5668 155.76L17.3357 155.193L17.1599 154.569Z" fill="#D2D6DA"/>
<path d="M18.1664 140.121L16.3975 140.688L16.5732 141.312L18.3421 140.746L18.1664 140.121Z" fill="#D2D6DA"/>
<path d="M0.611517 111.188H0V113.151H0.611517V111.188Z" fill="#D2D6DA"/>
<path d="M0.611517 107.262H0V109.225H0.611517V107.262Z" fill="#D2D6DA"/>
<path d="M0.611517 115.115H0V117.079H0.611517V115.115Z" fill="#D2D6DA"/>
<path d="M4.29898 120.908H2.45831V121.56H4.29898V120.908Z" fill="#D2D6DA"/>
<path d="M0.611517 103.334H0V105.297H0.611517V103.334Z" fill="#D2D6DA"/>
<path d="M0.611517 119.043H0V119.924C0 120.38 0.17734 120.817 0.495329 121.124L0.911161 120.641C0.72159 120.458 0.617632 120.191 0.617632 119.924V119.043H0.611517Z" fill="#D2D6DA"/>
<path d="M7.04468 93.9297H5.20401V94.582H7.04468V93.9297Z" fill="#D2D6DA"/>
<path d="M3.36335 94.582V93.9297H1.5288L1.45541 93.9362L1.52268 94.2558V94.582H3.36335Z" fill="#D2D6DA"/>
<path d="M21.77 93.9297H19.9294V94.582H21.77V93.9297Z" fill="#D2D6DA"/>
<path d="M29.1327 93.9297H27.292V94.582H29.1327V93.9297Z" fill="#D2D6DA"/>
<path d="M0.611517 99.4082H0V101.372H0.611517V99.4082Z" fill="#D2D6DA"/>
<path d="M25.4514 93.9297H23.6107V94.582H25.4514V93.9297Z" fill="#D2D6DA"/>
<path d="M18.0887 93.9297H16.248V94.582H18.0887V93.9297Z" fill="#D2D6DA"/>
<path d="M10.726 93.9297H8.88535V94.582H10.726V93.9297Z" fill="#D2D6DA"/>
<path d="M14.4073 93.9297H12.5667V94.582H14.4073V93.9297Z" fill="#D2D6DA"/>
<path d="M0.611517 95.5066L0 95.4609C0 95.4936 0 95.5262 0 95.5653V97.4504H0.611517V95.5131V95.5066Z" fill="#D2D6DA"/>
<path d="M31.6277 93.9297H30.9734V94.582H31.6277V93.9297Z" fill="#D2D6DA"/>
<path d="M19.0304 120.908H17.1898V121.56H19.0304V120.908Z" fill="#D2D6DA"/>
<path d="M7.98028 120.908H6.13962V121.56H7.98028V120.908Z" fill="#D2D6DA"/>
<path d="M26.3931 120.908H24.5524V121.56H26.3931V120.908Z" fill="#D2D6DA"/>
<path d="M15.343 120.908H13.5023V121.56H15.343V120.908Z" fill="#D2D6DA"/>
<path d="M30.0744 120.908H28.2338V121.56H30.0744V120.908Z" fill="#D2D6DA"/>
<path d="M11.6616 120.908H9.82095V121.56H11.6616V120.908Z" fill="#D2D6DA"/>
<path d="M22.7056 120.908H20.865V121.56H22.7056V120.908Z" fill="#D2D6DA"/>
<path d="M34.9971 18.7734C33.4806 18.7734 32.2453 20.0911 32.2453 21.7087V30.6711H182.134L183.957 18.7734H34.9971ZM40.3479 27.8011C38.972 27.8011 37.8468 26.6074 37.8468 25.1332C37.8468 23.6591 38.9659 22.4654 40.3479 22.4654C41.7299 22.4654 42.849 23.6591 42.849 25.1332C42.849 26.6074 41.7299 27.8011 40.3479 27.8011ZM48.1998 27.8011C46.8239 27.8011 45.6987 26.6074 45.6987 25.1332C45.6987 23.6591 46.8178 22.4654 48.1998 22.4654C49.5818 22.4654 50.7009 23.6591 50.7009 25.1332C50.7009 26.6074 49.5818 27.8011 48.1998 27.8011ZM56.1006 27.8011C54.7247 27.8011 53.5995 26.6074 53.5995 25.1332C53.5995 23.6591 54.7186 22.4654 56.1006 22.4654C57.4826 22.4654 58.6017 23.6591 58.6017 25.1332C58.6017 26.6074 57.4826 27.8011 56.1006 27.8011Z" fill="white"/>
<path d="M128.504 172.98C93.8679 172.98 65.787 176.235 65.787 180.247C65.787 184.258 93.8679 187.513 128.504 187.513C163.141 187.513 191.221 184.258 191.221 180.247C191.221 176.235 163.141 172.98 128.504 172.98Z" fill="#E9F5F9"/>
<path d="M202.198 45.229L181.988 41.7066C181.156 41.5631 180.587 40.7217 180.728 39.8346L182.03 31.3223H99.5244V77.8498C101.414 76.8191 103.371 75.9059 105.413 75.1493L111.883 72.7293V72.3379L109.92 66.0695C109.81 65.7173 109.896 65.3324 110.14 65.065C110.385 64.7975 110.752 64.7127 111.082 64.8301L111.883 65.1172V45.229H202.198Z" fill="#F6F7F8"/>
<path d="M206.766 46.0254V61.2823L219.4 63.4153V48.2236L206.766 46.0254Z" fill="#F6F7F8"/>
<path d="M188.066 144.676C187.846 145.289 187.295 145.726 186.641 145.726H99.5244V158.165H216.654C218.171 158.165 219.406 156.848 219.406 155.23V142.85L206.772 140.717V144.676H188.072H188.066Z" fill="#F6F7F8"/>
<path d="M111.883 85.8145L109.235 86.8059C105.689 88.1301 102.423 90.0282 99.5244 92.3699V104.17H107.04C107.884 104.17 108.569 104.9 108.569 105.8V111.417C108.569 111.958 108.978 112.395 109.486 112.395H111.889V85.8145H111.883Z" fill="#F6F7F8"/>
<path d="M111.987 72.6901L111.883 72.3379V72.7293L111.987 72.6901Z" fill="#EEEFF1"/>
<path d="M188.066 144.678H206.766V140.718L188.17 137.574V144.097C188.17 144.299 188.133 144.495 188.066 144.678Z" fill="#EEEFF1"/>
<path d="M206.766 46.0243L202.198 45.2285H111.883V65.1167L131.354 72.044L119.209 90.8167C119.013 91.1233 118.671 91.2798 118.329 91.2277C117.98 91.1755 117.699 90.9211 117.589 90.5689L115.656 84.4048L111.877 85.8137V112.394H129.501L138.558 51.4057C138.619 50.9751 138.839 50.5968 139.169 50.3424C139.499 50.088 139.909 49.9837 140.307 50.0489L206.766 61.2812V46.0243Z" fill="#EEEFF1"/>
<path d="M87.5632 87.1787C90.8715 83.6238 94.6812 80.5776 98.9068 78.1837V31.3301H32.2453V52.001H71.1011C71.945 52.001 72.6299 52.7316 72.6299 53.6317V55.7973H87.5693V59.7306H72.6299V65.8751H87.5693V69.8084H72.6299V75.9529H87.5693V79.8862H72.6299V84.974C72.6299 85.3784 72.4893 85.7437 72.2569 86.0242H87.5632V87.1852V87.1787ZM43.6562 49.6528V45.7195H87.5632V49.6528H43.6562Z" fill="#D2D6DA"/>
<path d="M98.9129 145.732H85.2088C85.1905 149.607 85.1782 153.742 85.166 158.172H98.9129V145.732Z" fill="#D2D6DA"/>
<path d="M73.6634 158.174C73.6695 153.64 73.6756 149.492 73.6878 145.734H70.991C70.1471 145.734 69.4622 145.004 69.4622 144.104V120.171H43.6562V116.238H69.4622V110.094H43.6562V106.16H69.4622V105.802C69.4622 104.901 70.1471 104.171 70.991 104.171H77.1245C77.6505 102.762 78.2314 101.373 78.8735 100.022H43.6623V96.0891H80.9588C82.2185 93.93 83.6311 91.8818 85.1782 89.9445H43.6562V86.5918H32.2453V154.651C32.2453 156.588 33.7252 158.167 35.5414 158.167H73.6695L73.6634 158.174ZM43.6562 126.316H64.5762V130.249H43.6562V126.316Z" fill="#D2D6DA"/>
<path d="M89.893 104.17H98.9068V92.8789C95.2316 95.9903 92.1678 99.8323 89.893 104.17Z" fill="#D2D6DA"/>
<path d="M219.4 142.856V155.236C219.4 156.854 218.165 158.171 216.648 158.171H99.5244V145.732H186.647C187.295 145.732 187.852 145.295 188.072 144.682C188.139 144.499 188.176 144.304 188.176 144.102V137.579L187.565 137.474V144.102C187.565 144.643 187.155 145.08 186.647 145.08H70.991C70.4834 145.08 70.0737 144.643 70.0737 144.102V105.806C70.0737 105.264 70.4834 104.827 70.991 104.827H107.034C107.541 104.827 107.951 105.264 107.951 105.806V111.422C107.951 112.322 108.636 113.053 109.48 113.053H129.403L129.501 112.4H109.48C108.972 112.4 108.563 111.963 108.563 111.422V105.806C108.563 104.906 107.878 104.175 107.034 104.175H99.5183V92.3753C102.417 90.0336 105.682 88.1355 109.229 86.8113L111.877 85.8199L115.656 84.4109L117.589 90.575C117.699 90.9272 117.986 91.1816 118.329 91.2338C118.677 91.286 119.013 91.1295 119.209 90.8229L131.354 72.0501L111.883 65.1228L111.082 64.8358C110.752 64.7184 110.391 64.8097 110.14 65.0707C109.89 65.3316 109.81 65.7164 109.92 66.0752L111.883 72.3436L111.993 72.6959L111.883 72.735L105.413 75.155C103.377 75.9182 101.414 76.8248 99.5244 77.8555V31.328H182.03L180.728 39.8403C180.593 40.7274 181.156 41.5688 181.988 41.7123L202.198 45.2347L206.766 46.0305L219.4 48.2287V63.4204L220.012 63.5247V48.3396L234.878 50.9291C234.963 50.9422 235.043 50.9487 235.128 50.9487C235.446 50.9487 235.752 50.8443 236.021 50.6421C236.351 50.3877 236.572 50.0094 236.639 49.5789L241.537 17.5713C241.672 16.6842 241.109 15.8427 240.277 15.6992L187.387 6.48895C186.984 6.4172 186.58 6.52156 186.25 6.77595C185.92 7.03034 185.699 7.40867 185.632 7.83918L184.054 18.1322H34.9971C33.1442 18.1322 31.6338 19.7434 31.6338 21.7198V52.0054H21.5865C20.7426 52.0054 20.0577 52.736 20.0577 53.6361V84.9719C20.0577 85.872 20.7426 86.6026 21.5865 86.6026H31.6338V155.243C31.6338 157.219 33.1442 158.83 34.9971 158.83H216.648C218.501 158.83 220.012 157.219 220.012 155.243V142.967L219.4 142.862V142.856ZM32.2453 154.656V86.5961H71.1011C71.5658 86.5961 71.9755 86.3678 72.2568 86.0155C72.4831 85.7285 72.6299 85.3633 72.6299 84.9654V53.6296C72.6299 52.7294 71.945 51.9989 71.1011 51.9989H32.2453V31.328H98.9129V78.1881C94.6873 80.582 90.8714 83.6282 87.5692 87.1831C86.7376 88.0768 85.9426 88.9965 85.1782 89.9488C83.6311 91.8796 82.2185 93.9343 80.9587 96.0933C80.2127 97.3718 79.5156 98.6829 78.8796 100.027C78.2375 101.377 77.6565 102.766 77.1306 104.175H70.9971C70.1532 104.175 69.4683 104.906 69.4683 105.806V144.102C69.4683 145.002 70.1532 145.732 70.9971 145.732H73.6939C73.6878 149.489 73.6756 153.644 73.6694 158.171H35.5414C33.7251 158.171 32.2453 156.593 32.2453 154.656ZM20.6693 53.6296C20.6693 53.0882 21.079 52.6512 21.5865 52.6512H71.095C71.6025 52.6512 72.0122 53.0882 72.0122 53.6296V84.9654C72.0122 85.5068 71.6025 85.9438 71.095 85.9438H21.5865C21.079 85.9438 20.6693 85.5068 20.6693 84.9654V53.6296ZM240.932 17.4604L236.033 49.468C235.997 49.7224 235.862 49.9507 235.666 50.1072C235.471 50.2573 235.226 50.3225 234.982 50.2768L182.091 41.0666C181.59 40.9818 181.254 40.473 181.333 39.9446L186.231 7.93702C186.268 7.67611 186.403 7.45433 186.598 7.29778C186.8 7.14775 187.039 7.08905 187.283 7.12819L240.173 16.3385C240.675 16.4232 241.011 16.932 240.932 17.4604ZM182.128 30.6692H32.2453V21.7068C32.2453 20.0891 33.4805 18.7715 34.9971 18.7715H183.957L182.134 30.6692H182.128ZM110.495 65.8599C110.458 65.7425 110.483 65.6121 110.568 65.5273C110.654 65.4359 110.77 65.4033 110.88 65.449L130.388 72.3828L118.708 90.438C118.64 90.5424 118.53 90.5881 118.414 90.575C118.298 90.5554 118.206 90.4772 118.17 90.3532L116.158 83.9282C116.158 83.9282 116.182 83.9217 116.194 83.9152C115.595 82.0496 114.996 80.1841 114.396 78.3251C112.678 80.9212 110.96 83.5108 109.241 86.1068L109.027 86.1851C100.387 89.4139 93.4215 95.9433 89.1959 104.169H77.7727C82.7077 91.136 92.706 80.582 105.603 75.7616L112.752 73.0872L110.489 65.8599H110.495ZM98.9068 104.162H89.893C92.1678 99.8244 95.2316 95.9825 98.9068 92.8711V104.162ZM85.2027 145.726H98.9068V158.165H85.1599C85.1721 153.729 85.1904 149.6 85.2027 145.726ZM84.5483 158.158H74.2749C74.281 153.625 74.2871 149.483 74.2993 145.726H84.5973C84.5789 149.6 84.5667 153.729 84.5545 158.158H84.5483Z" fill="#505862"/>
<path d="M40.3479 23.123C39.3083 23.123 38.4583 24.0297 38.4583 25.1386C38.4583 26.2475 39.3022 27.1542 40.3479 27.1542C41.3936 27.1542 42.2375 26.2475 42.2375 25.1386C42.2375 24.0297 41.3936 23.123 40.3479 23.123Z" fill="#43B8C9"/>
<path d="M40.3479 22.4707C38.972 22.4707 37.8468 23.6644 37.8468 25.1385C37.8468 26.6127 38.9659 27.8064 40.3479 27.8064C41.7299 27.8064 42.849 26.6127 42.849 25.1385C42.849 23.6644 41.7299 22.4707 40.3479 22.4707ZM40.3479 27.1541C39.3083 27.1541 38.4583 26.2474 38.4583 25.1385C38.4583 24.0297 39.3022 23.123 40.3479 23.123C41.3936 23.123 42.2375 24.0297 42.2375 25.1385C42.2375 26.2474 41.3936 27.1541 40.3479 27.1541Z" fill="#505862"/>
<path d="M50.0833 25.1327C50.0833 24.0239 49.2394 23.1172 48.1937 23.1172C47.148 23.1172 46.3041 24.0239 46.3041 25.1327C46.3041 26.2416 47.148 27.1483 48.1937 27.1483C49.2394 27.1483 50.0833 26.2416 50.0833 25.1327Z" fill="#EEEFF1"/>
<path d="M48.1937 22.4707C46.8178 22.4707 45.6926 23.6644 45.6926 25.1385C45.6926 26.6127 46.8116 27.8064 48.1937 27.8064C49.5757 27.8064 50.6948 26.6127 50.6948 25.1385C50.6948 23.6644 49.5757 22.4707 48.1937 22.4707ZM46.3041 25.1385C46.3041 24.0297 47.148 23.123 48.1937 23.123C49.2394 23.123 50.0833 24.0297 50.0833 25.1385C50.0833 26.2474 49.2394 27.1541 48.1937 27.1541C47.148 27.1541 46.3041 26.2474 46.3041 25.1385Z" fill="#505862"/>
<path d="M56.0946 27.1483C57.1382 27.1483 57.9842 26.2459 57.9842 25.1327C57.9842 24.0196 57.1382 23.1172 56.0946 23.1172C55.051 23.1172 54.205 24.0196 54.205 25.1327C54.205 26.2459 55.051 27.1483 56.0946 27.1483Z" fill="white"/>
<path d="M56.0945 22.4707C54.7186 22.4707 53.5934 23.6644 53.5934 25.1385C53.5934 26.6127 54.7125 27.8064 56.0945 27.8064C57.4765 27.8064 58.5956 26.6127 58.5956 25.1385C58.5956 23.6644 57.4765 22.4707 56.0945 22.4707ZM56.0945 27.1541C55.0549 27.1541 54.2049 26.2474 54.2049 25.1385C54.2049 24.0297 55.0488 23.123 56.0945 23.123C57.1402 23.123 57.9841 24.0297 57.9841 25.1385C57.9841 26.2474 57.1402 27.1541 56.0945 27.1541Z" fill="#505862"/>
<path d="M87.5631 55.7969H72.6238V59.7302H87.5631V55.7969Z" fill="#F6F7F8"/>
<path d="M87.5631 65.8691H72.6238V69.8024H87.5631V65.8691Z" fill="#F6F7F8"/>
<path d="M87.5631 75.9453H72.6238V79.8786H87.5631V75.9453Z" fill="#F6F7F8"/>
<path d="M85.1721 89.9502C85.9365 88.9979 86.7314 88.0716 87.5631 87.1845V86.0234H72.2568C71.9755 86.3757 71.5658 86.604 71.1011 86.604H43.6623V89.9567H85.1782L85.1721 89.9502Z" fill="#F6F7F8"/>
<path d="M43.6562 96.0879V100.021H78.8674C79.5033 98.6775 80.2005 97.3664 80.9465 96.0879H43.6501H43.6562Z" fill="#F6F7F8"/>
<path d="M69.4622 106.166H43.6562V110.099H69.4622V106.166Z" fill="#F6F7F8"/>
<path d="M69.4622 116.238H43.6562V120.172H69.4622V116.238Z" fill="#F6F7F8"/>
<path d="M64.5762 126.309H43.6562V130.242H64.5762V126.309Z" fill="#F6F7F8"/>
<path d="M87.5631 45.7188H43.6562V49.652H87.5631V45.7188Z" fill="#F6F7F8"/>
<path d="M105.609 75.7619C92.7121 80.5823 82.7138 91.1297 77.7789 104.169H89.202C93.4215 95.9436 100.393 89.4142 109.034 86.1854L109.248 86.1071C110.966 83.511 112.684 80.9215 114.403 78.3254C115.002 80.1909 115.601 82.0564 116.2 83.9154C116.188 83.9154 116.176 83.922 116.164 83.9285L118.176 90.3535C118.212 90.4709 118.304 90.5557 118.42 90.5753C118.543 90.5883 118.647 90.5427 118.714 90.4383L130.394 72.383L110.886 65.4493C110.776 65.4101 110.654 65.4362 110.575 65.5275C110.489 65.6188 110.464 65.7428 110.501 65.8602L112.764 73.0875L105.615 75.7619H105.609Z" fill="#F6F7F8"/>
<path d="M74.2749 158.165H84.5483C84.5606 153.729 84.5789 149.607 84.5912 145.732H74.2932C74.2871 149.49 74.2749 153.638 74.2687 158.165H74.2749Z" fill="#F6F7F8"/>
<path d="M109.48 113.048C108.636 113.048 107.951 112.317 107.951 111.417V105.801C107.951 105.259 107.541 104.822 107.034 104.822H70.991C70.4834 104.822 70.0737 105.259 70.0737 105.801V144.096C70.0737 144.638 70.4834 145.075 70.991 145.075H186.647C187.155 145.075 187.565 144.638 187.565 144.096V137.469L128.804 127.541C127.972 127.398 127.403 126.563 127.532 125.676L129.409 113.048H109.486H109.48Z" fill="#EEEFF1"/>
<path d="M240.173 16.3392L187.283 7.12898C187.039 7.08984 186.8 7.14855 186.598 7.29858C186.397 7.4486 186.268 7.6769 186.231 7.93781L181.333 39.9454C181.254 40.4803 181.59 40.9826 182.091 41.0674L234.982 50.2776C235.22 50.3168 235.465 50.2581 235.667 50.108C235.868 49.958 235.997 49.7297 236.033 49.4688L240.932 17.4612C241.011 16.9263 240.675 16.424 240.173 16.3392ZM188.408 37.8842C188.329 37.8842 188.256 37.8647 188.182 37.819C188.035 37.7211 187.956 37.545 187.98 37.3624L188.726 32.1963C188.745 32.0724 188.806 31.968 188.898 31.8962L196.107 26.3649L190.928 18.6744C190.861 18.5766 190.836 18.4527 190.855 18.3352L191.686 13.1887C191.717 13.0061 191.845 12.8626 192.01 12.8234C192.175 12.7843 192.353 12.8495 192.457 12.9995L201.929 27.0498C201.996 27.1476 202.021 27.2715 202.002 27.389C201.984 27.5129 201.923 27.6173 201.831 27.689L188.659 37.8059C188.586 37.8647 188.5 37.8907 188.408 37.8907V37.8842ZM229.71 44.9028C229.692 45.0202 229.631 45.1311 229.539 45.2029C229.466 45.2616 229.38 45.2877 229.295 45.2877C229.27 45.2877 229.246 45.2877 229.221 45.2877L199.563 40.1216C199.452 40.102 199.349 40.0368 199.281 39.9389C199.214 39.8411 199.19 39.7171 199.208 39.5997L199.758 35.9926C199.777 35.8752 199.838 35.7708 199.929 35.6991C200.021 35.6273 200.131 35.5947 200.247 35.6208L229.906 40.7869C230.016 40.8065 230.12 40.8717 230.187 40.9695C230.255 41.0674 230.279 41.1913 230.261 41.3087L229.71 44.9159V44.9028Z" fill="#EEEFF1"/>
<path d="M189.326 32.3799L188.659 37.0046L201.324 27.279L192.218 13.7637L191.478 18.3688L196.725 26.1506C196.792 26.2484 196.817 26.3658 196.798 26.4898C196.78 26.6137 196.719 26.7181 196.627 26.7898L189.338 32.3864L189.326 32.3799Z" fill="white"/>
<path d="M201.825 27.6892C201.917 27.6175 201.978 27.5131 201.996 27.3892C202.015 27.2718 201.99 27.1478 201.923 27.05L192.451 12.9998C192.353 12.8497 192.175 12.7845 192.004 12.8236C191.833 12.8628 191.705 13.0128 191.68 13.1889L190.848 18.3354C190.83 18.4529 190.855 18.5833 190.922 18.6746L196.101 26.3651L188.892 31.8965C188.8 31.9682 188.739 32.0726 188.72 32.1965L187.974 37.3626C187.95 37.5452 188.023 37.7279 188.176 37.8192C188.243 37.8649 188.323 37.8844 188.402 37.8844C188.488 37.8844 188.58 37.8583 188.653 37.7996L201.825 27.6827V27.6892ZM196.615 26.7825C196.707 26.7108 196.768 26.6064 196.786 26.4825C196.805 26.3651 196.78 26.2411 196.713 26.1433L191.466 18.3615L192.206 13.7564L201.311 27.2718L188.647 36.9973L189.313 32.3726L196.603 26.776L196.615 26.7825Z" fill="#505862"/>
<path d="M200.312 36.2773L199.82 39.4961L229.115 44.5964L229.607 41.3776L200.312 36.2773Z" fill="white"/>
<path d="M229.906 40.7739L200.247 35.6079C200.131 35.5883 200.021 35.6144 199.929 35.6861C199.838 35.7579 199.777 35.8622 199.758 35.9797L199.208 39.5868C199.19 39.7042 199.214 39.8281 199.281 39.926C199.349 40.0238 199.446 40.0891 199.563 40.1086L229.221 45.2747C229.221 45.2747 229.27 45.2747 229.295 45.2747C229.38 45.2747 229.466 45.2486 229.539 45.1899C229.631 45.1182 229.692 45.0138 229.71 44.8899L230.261 41.2827C230.279 41.1653 230.255 41.0414 230.187 40.9435C230.12 40.8457 230.022 40.7805 229.906 40.7609V40.7739ZM199.838 39.502L200.333 36.2862L229.631 41.3871L229.136 44.6029L199.838 39.502Z" fill="#505862"/>
<path d="M243.274 118.723L243.17 119.441L243.469 119.493L243.182 121.43L242.882 121.378L242.595 123.315L242.894 123.368L242.607 125.311L242.307 125.259L242.02 127.197L242.32 127.249L242.032 129.186L241.733 129.134L241.445 131.078L241.745 131.13L241.457 133.067L241.158 133.015L240.87 134.952L241.17 135.004L240.883 136.948L240.583 136.896L240.442 137.842C240.393 138.194 240.088 138.429 239.757 138.383L239.727 138.709L237.88 138.396L237.929 138.077L236.107 137.77L236.058 138.09L234.242 137.783L234.29 137.464L232.474 137.157L232.425 137.477L230.603 137.17L230.652 136.85L228.836 136.544L228.787 136.863L226.971 136.557L227.019 136.237L225.197 135.931L225.148 136.25L223.332 135.944L223.381 135.624L221.565 135.318L221.516 135.637L219.694 135.331L219.742 135.011L217.926 134.704L217.877 135.024L216.061 134.717L216.11 134.398L214.288 134.091L214.239 134.411L212.423 134.104L212.472 133.785L210.655 133.478L210.606 133.798L208.784 133.491L208.833 133.172L207.017 132.865L206.968 133.185L205.152 132.878L205.201 132.558L203.378 132.252L203.329 132.571L201.513 132.265L201.562 131.945L199.746 131.639L199.697 131.958L197.875 131.652L197.924 131.332L196.107 131.025L196.058 131.345L194.242 131.039L194.291 130.719L192.469 130.412L192.42 130.732L190.604 130.425L190.653 130.106L188.836 129.799L188.787 130.119L186.965 129.812L187.014 129.493L185.198 129.186L185.149 129.506L183.333 129.199L183.382 128.879L181.559 128.573L181.51 128.893L179.694 128.586L179.743 128.266L177.927 127.96L177.878 128.279L176.056 127.973L176.105 127.653L174.288 127.347L174.239 127.666L172.423 127.36L172.472 127.04L170.65 126.733L170.601 127.053L168.785 126.747L168.834 126.427L167.017 126.12L166.969 126.44L165.146 126.133L165.195 125.814L163.379 125.507L163.33 125.827L161.514 125.52L161.563 125.201L159.74 124.894L159.691 125.214L157.875 124.907L157.924 124.587L156.108 124.281L156.059 124.6L154.237 124.294L154.286 123.974L152.469 123.668L152.421 123.987L150.604 123.681L150.653 123.361L148.831 123.055L148.782 123.374L146.966 123.068L147.015 122.748L145.198 122.441L145.15 122.761L143.327 122.454L143.376 122.135L141.56 121.828L141.511 122.148L139.695 121.841L139.744 121.522L137.921 121.215L137.873 121.535L136.056 121.228L136.105 120.909L134.974 120.719C134.729 120.68 134.546 120.491 134.485 120.25L134.185 120.341C134.161 120.25 134.148 120.158 134.148 120.067C134.148 120.021 134.148 119.969 134.161 119.917L134.405 118.26L134.705 118.312L134.992 116.375L134.693 116.323L134.98 114.386L135.28 114.438L135.567 112.494L135.267 112.442L135.555 110.505L135.855 110.557L136.142 108.62L135.842 108.567L136.13 106.624L136.429 106.676L136.717 104.738L136.417 104.686L136.705 102.749L137.004 102.801L137.292 100.857L136.992 100.805L137.279 98.8679L137.579 98.92L137.866 96.9827L137.567 96.9306L137.854 94.9868L138.154 95.0389L138.441 93.1016L138.142 93.0495L138.429 91.1122L138.729 91.1644L139.016 89.2206L138.716 89.1684L138.857 88.2291C138.937 87.7072 139.371 87.3224 139.897 87.4137L139.848 87.7399C139.848 87.7399 139.848 87.7399 139.854 87.7399L141.664 88.0464L141.713 87.7268L143.535 88.0334L143.486 88.353L145.302 88.6596L145.351 88.34L147.168 88.6465L147.119 88.9662L148.941 89.2727L148.99 88.9531L150.806 89.2597L150.757 89.5793L152.573 89.8859L152.622 89.5663L154.445 89.8728L154.396 90.1925L156.212 90.499L156.261 90.1794L158.077 90.486L158.028 90.8056L159.85 91.1122L159.899 90.7926L161.716 91.0991L161.667 91.4188L163.483 91.7253L163.532 91.4057L165.354 91.7123L165.305 92.0319L167.121 92.3385L167.17 92.0189L168.986 92.3254L168.938 92.6451L170.76 92.9516L170.809 92.632L172.625 92.9386L172.576 93.2582L174.392 93.5648L174.441 93.2452L176.264 93.5517L176.215 93.8713L178.031 94.1779L178.08 93.8583L179.896 94.1649L179.847 94.4845L181.669 94.7911L181.718 94.4715L183.535 94.778L183.486 95.0976L185.302 95.4042L185.351 95.0846L187.173 95.3912L187.124 95.7108L188.94 96.0174L188.989 95.6978L190.805 96.0043L190.757 96.3239L192.579 96.6305L192.628 96.3109L194.444 96.6175L194.395 96.9371L196.211 97.2437L196.26 96.924L198.082 97.2306L198.034 97.5502L199.85 97.8568L199.899 97.5372L201.715 97.8438L201.666 98.1634L203.488 98.47L203.537 98.1503L205.353 98.4569L205.305 98.7765L207.121 99.0831L207.17 98.7635L208.992 99.0701L208.943 99.3897L210.759 99.6963L210.808 99.3766L212.624 99.6832L212.575 100.003L214.398 100.309L214.447 99.9898L216.263 100.296L216.214 100.616L218.03 100.923L218.079 100.603L219.901 100.91L219.853 101.229L221.669 101.536L221.718 101.216L223.534 101.523L223.485 101.842L224.469 102.012L233.936 96.9436L232.951 96.774L233.049 96.1283L234.847 96.4348V96.4609L239.647 93.8909L239.739 93.2843L240.528 93.4148L246.833 90.0424L175.621 78.0078C175.377 77.9686 175.169 77.8251 175.022 77.6164C174.875 77.4011 174.82 77.1468 174.857 76.8858L175.242 74.2897C175.322 73.7549 175.793 73.3961 176.294 73.4744L247.53 85.5156C247.774 85.5547 247.982 85.6982 248.129 85.9069C248.276 86.1157 248.331 86.3766 248.294 86.6375L247.909 89.2336C247.897 89.338 247.854 89.4293 247.811 89.5141L253.296 86.5788L255.577 71.2044C255.657 70.6696 255.314 70.1673 254.813 70.0825L140.209 50.7162C140.16 50.7096 140.111 50.7031 140.062 50.7031C139.621 50.7031 139.23 51.0488 139.157 51.5315L128.125 125.801C128.045 126.336 128.388 126.838 128.889 126.923L243.494 146.289C243.995 146.374 244.466 146.008 244.546 145.474L248.967 115.69L248.612 115.879L243.268 118.743L243.274 118.723ZM236.137 92.6581L237.935 92.9647L237.837 93.6104L236.039 93.3039L236.137 92.6581ZM232.541 92.0515L234.339 92.358L234.242 93.0038L232.444 92.6972L232.541 92.0515ZM231.153 96.4544L229.355 96.1478L229.453 95.5021L231.251 95.8086L231.153 96.4544ZM228.946 91.4383L230.744 91.7449L230.646 92.3907L228.848 92.0841L228.946 91.4383ZM227.558 95.8412L225.76 95.5347L225.858 94.8889L227.655 95.1955L227.558 95.8412ZM225.35 90.8252L227.148 91.1318L227.05 91.7775L225.252 91.4709L225.35 90.8252ZM223.962 95.2346L222.164 94.928L222.262 94.2823L224.06 94.5889L223.962 95.2346ZM221.754 90.2185L223.552 90.5251L223.454 91.1709L221.656 90.8643L221.754 90.2185ZM220.458 93.9822L220.36 94.628L218.562 94.3214L218.66 93.6757L220.458 93.9822ZM218.152 89.6119L219.95 89.9185L219.853 90.5643L218.055 90.2577L218.152 89.6119ZM216.764 94.0214L214.966 93.7148L215.064 93.069L216.862 93.3756L216.764 94.0214ZM214.557 89.0053L216.355 89.3119L216.257 89.9576L214.459 89.6511L214.557 89.0053ZM213.169 93.4082L211.371 93.1016L211.469 92.4559L213.266 92.7625L213.169 93.4082ZM210.961 88.3921L212.759 88.6987L212.661 89.3445L210.863 89.0379L210.961 88.3921ZM209.573 92.7951L207.775 92.4885L207.873 91.8427L209.671 92.1493L209.573 92.7951ZM207.365 87.779L209.163 88.0856L209.065 88.7313L207.267 88.4248L207.365 87.779ZM205.977 92.1885L204.179 91.8819L204.277 91.2361L206.075 91.5427L205.977 92.1885ZM203.77 87.1724L205.567 87.479L205.47 88.1247L203.672 87.8181L203.77 87.1724ZM202.381 91.5753L200.584 91.2687L200.681 90.623L202.479 90.9295L202.381 91.5753ZM200.174 86.5592L201.972 86.8658L201.874 87.5116L200.076 87.205L200.174 86.5592ZM198.786 90.9687L196.988 90.6621L197.086 90.0163L198.884 90.3229L198.786 90.9687ZM196.578 85.9526L198.376 86.2592L198.278 86.9049L196.48 86.5984L196.578 85.9526ZM195.19 90.3555L193.392 90.049L193.49 89.4032L195.288 89.7098L195.19 90.3555ZM192.982 85.3395L194.78 85.646L194.682 86.2918L192.885 85.9852L192.982 85.3395ZM191.594 89.7489L189.796 89.4423L189.894 88.7966L191.692 89.1031L191.594 89.7489ZM189.387 84.7328L191.185 85.0394L191.087 85.6852L189.289 85.3786L189.387 84.7328ZM187.999 89.1423L186.201 88.8357L186.299 88.1899L188.096 88.4965L187.999 89.1423ZM185.791 84.1262L187.589 84.4328L187.491 85.0785L185.693 84.772L185.791 84.1262ZM184.403 88.5291L182.605 88.2226L182.703 87.5768L184.501 87.8834L184.403 88.5291ZM182.195 83.5131L183.993 83.8196L183.895 84.4654L182.097 84.1588L182.195 83.5131ZM180.807 87.9225L179.009 87.6159L179.107 86.9702L180.905 87.2767L180.807 87.9225ZM178.6 82.9064L180.397 83.213L180.3 83.8588L178.502 83.5522L178.6 82.9064ZM177.211 87.3094L175.414 87.0028L175.511 86.357L177.309 86.6636L177.211 87.3094ZM174.955 82.6129V82.2868L175.028 82.2998L176.802 82.5933L176.704 83.2391L174.912 82.939L174.955 82.6129ZM176.209 67.9887L176.594 65.3926C176.673 64.8577 177.144 64.499 177.646 64.5772L248.881 76.6184C249.126 76.6575 249.334 76.801 249.481 77.0098C249.627 77.2185 249.682 77.4794 249.646 77.7403L249.26 80.3364C249.224 80.5973 249.089 80.8191 248.893 80.9757C248.734 81.0996 248.551 81.1648 248.355 81.1648C248.306 81.1648 248.257 81.1648 248.209 81.1518L176.973 69.1106C176.728 69.0715 176.52 68.928 176.374 68.7192C176.227 68.5105 176.172 68.2496 176.209 67.9887ZM174.184 85.9265L173.585 86.0635C173.573 85.9983 173.567 85.9265 173.567 85.8548C173.567 85.8026 173.567 85.7569 173.579 85.7047L173.83 84.0218L174.435 84.1262L174.184 85.8091C174.184 85.8874 174.184 85.9069 174.184 85.933V85.9265ZM139.689 81.9019L143.242 57.9761C143.321 57.4412 143.786 57.0825 144.293 57.1607L171.971 61.8376C172.215 61.8768 172.423 62.0203 172.57 62.229C172.717 62.4377 172.772 62.6986 172.735 62.9596L169.182 86.8854C169.146 87.1463 169.011 87.3681 168.815 87.5246C168.656 87.6485 168.467 87.7138 168.277 87.7138C168.228 87.7138 168.179 87.7138 168.13 87.7007L140.453 83.0238C140.208 82.9847 140.001 82.8412 139.854 82.6325C139.707 82.4237 139.652 82.1628 139.689 81.9019Z" fill="#C6E9EF"/>
<path d="M140.313 82.2725C140.362 82.3443 140.429 82.3899 140.515 82.403L168.192 87.0798C168.271 87.0929 168.351 87.0733 168.418 87.0211C168.485 86.969 168.528 86.8972 168.54 86.8059L172.093 62.8801C172.106 62.7953 172.093 62.7105 172.038 62.6387C171.989 62.567 171.922 62.5213 171.836 62.5083L144.159 57.8314C143.988 57.7988 143.835 57.9227 143.811 58.1053L140.258 82.0312C140.245 82.116 140.264 82.2008 140.313 82.2725ZM151.577 63.8324C152.953 63.8324 154.072 65.0261 154.072 66.4872C154.072 67.9483 152.953 69.1485 151.577 69.1485C150.201 69.1485 149.088 67.9548 149.088 66.4872C149.088 65.0196 150.207 63.8324 151.577 63.8324ZM148.428 73.6232C148.801 73.2449 149.29 73.0492 149.803 73.0753C150.317 73.0949 150.788 73.3362 151.13 73.7406L151.815 74.556C152.048 74.8365 152.372 74.993 152.727 75.006C153.081 75.0191 153.411 74.8821 153.662 74.6147L158.493 69.5529C158.94 69.0898 159.563 68.8811 160.181 69.0115C160.792 69.142 161.306 69.5856 161.551 70.1922L167.238 84.3402L142.031 80.0808L148.434 73.6297L148.428 73.6232Z" fill="white"/>
<path d="M140.417 83.0496L168.094 87.7265C168.143 87.733 168.192 87.7395 168.241 87.7395C168.43 87.7395 168.62 87.6743 168.779 87.5504C168.974 87.3938 169.109 87.172 169.146 86.9111L172.699 62.9853C172.735 62.7244 172.68 62.47 172.533 62.2547C172.387 62.046 172.179 61.9025 171.934 61.8634L144.257 57.1865C143.749 57.1082 143.285 57.467 143.205 58.0018L139.652 81.9277C139.615 82.1886 139.67 82.443 139.817 82.6582C139.964 82.867 140.172 83.0105 140.417 83.0496ZM144.159 57.8323L171.836 62.5091C171.916 62.5222 171.989 62.5678 172.038 62.6396C172.087 62.7113 172.105 62.7961 172.093 62.8809L168.54 86.8068C168.528 86.8916 168.485 86.9698 168.418 87.022C168.351 87.0742 168.271 87.0938 168.192 87.0807L140.514 82.4038C140.435 82.3908 140.361 82.3451 140.313 82.2734C140.264 82.2016 140.245 82.1168 140.258 82.032L143.81 58.1062C143.835 57.9301 143.988 57.7996 144.159 57.8323Z" fill="#43B8C9"/>
<path d="M176.832 68.3536C176.881 68.4253 176.949 68.471 177.034 68.484L248.27 80.5252C248.355 80.5448 248.429 80.5252 248.496 80.4665C248.563 80.4143 248.606 80.3426 248.618 80.2513L249.004 77.6552C249.016 77.5704 248.998 77.4856 248.949 77.4138C248.9 77.3421 248.832 77.2964 248.747 77.2834L177.511 65.2422C177.511 65.2422 177.481 65.2422 177.462 65.2422C177.316 65.2422 177.181 65.3596 177.163 65.5162L176.777 68.1122C176.765 68.197 176.777 68.2818 176.832 68.3536Z" fill="#E9F5F9"/>
<path d="M176.93 69.13L248.166 81.1712C248.215 81.1777 248.264 81.1843 248.313 81.1843C248.502 81.1843 248.692 81.119 248.851 80.9951C249.046 80.8385 249.181 80.6168 249.218 80.3559L249.603 77.7598C249.64 77.4988 249.585 77.2445 249.438 77.0292C249.291 76.8139 249.083 76.677 248.839 76.6378L177.603 64.5966C177.101 64.5184 176.637 64.8771 176.551 65.412L176.166 68.0081C176.129 68.269 176.184 68.5234 176.331 68.7387C176.478 68.9474 176.686 69.0909 176.93 69.13ZM177.462 65.2424C177.462 65.2424 177.493 65.2424 177.511 65.2424L248.747 77.2836C248.826 77.2966 248.9 77.3423 248.949 77.414C248.998 77.4858 249.016 77.5706 249.004 77.6554L248.618 80.2515C248.606 80.3363 248.563 80.4146 248.496 80.4667C248.429 80.5189 248.349 80.545 248.27 80.5254L177.034 68.4843C176.955 68.4712 176.881 68.4256 176.832 68.3538C176.784 68.2821 176.765 68.1973 176.777 68.1125L177.163 65.5164C177.187 65.3533 177.316 65.2424 177.462 65.2424Z" fill="#43B8C9"/>
<path d="M246.949 89.3826C247.035 89.4022 247.108 89.3761 247.175 89.3239C247.243 89.2718 247.285 89.2 247.298 89.1087L247.683 86.5126C247.695 86.4278 247.677 86.343 247.628 86.2712C247.579 86.1995 247.512 86.1538 247.426 86.1408L176.19 74.0996C176.19 74.0996 176.16 74.0996 176.141 74.0996C175.995 74.0996 175.86 74.217 175.842 74.3736L175.457 76.9697C175.444 77.0545 175.463 77.1393 175.512 77.211C175.561 77.2828 175.628 77.3284 175.713 77.3415L246.949 89.3826Z" fill="#E9F5F9"/>
<path d="M236.117 92.639L236.021 93.2832L237.821 93.5876L237.917 92.9434L236.117 92.639Z" fill="#43B8C9"/>
<path d="M225.851 94.9007L225.755 95.5449L227.555 95.849L227.65 95.2047L225.851 94.9007Z" fill="#43B8C9"/>
<path d="M232.55 92.0569L232.454 92.7012L234.254 93.0053L234.35 92.361L232.55 92.0569Z" fill="#43B8C9"/>
<path d="M229.454 95.5062L229.358 96.1504L231.157 96.4551L231.253 95.8109L229.454 95.5062Z" fill="#43B8C9"/>
<path d="M225.324 90.8147L225.228 91.459L227.028 91.7634L227.124 91.1192L225.324 90.8147Z" fill="#43B8C9"/>
<path d="M221.746 90.2268L221.651 90.8711L223.451 91.1752L223.546 90.5309L221.746 90.2268Z" fill="#43B8C9"/>
<path d="M228.955 91.4456L228.86 92.0898L230.66 92.3939L230.755 91.7497L228.955 91.4456Z" fill="#43B8C9"/>
<path d="M222.231 94.2776L222.135 94.9219L223.935 95.2263L224.031 94.5821L222.231 94.2776Z" fill="#43B8C9"/>
<path d="M214.562 89.0179L214.467 89.6621L216.266 89.9662L216.362 89.3219L214.562 89.0179Z" fill="#43B8C9"/>
<path d="M207.333 87.7737L207.237 88.418L209.037 88.7224L209.133 88.0781L207.333 87.7737Z" fill="#43B8C9"/>
<path d="M210.961 88.4065L210.866 89.0508L212.666 89.3549L212.761 88.7106L210.961 88.4065Z" fill="#43B8C9"/>
<path d="M207.863 91.8597L207.767 92.5039L209.567 92.808L209.663 92.1637L207.863 91.8597Z" fill="#43B8C9"/>
<path d="M211.471 92.4729L211.375 93.1172L213.175 93.4213L213.271 92.777L211.471 92.4729Z" fill="#43B8C9"/>
<path d="M215.033 93.0589L214.937 93.7031L216.737 94.0075L216.833 93.3633L215.033 93.0589Z" fill="#43B8C9"/>
<path d="M193.477 89.4319L193.381 90.0762L195.181 90.3803L195.277 89.736L193.477 89.4319Z" fill="#43B8C9"/>
<path d="M192.955 85.3577L192.86 86.002L194.66 86.306L194.755 85.6618L192.955 85.3577Z" fill="#43B8C9"/>
<path d="M196.563 85.9632L196.467 86.6074L198.267 86.9115L198.363 86.2672L196.563 85.9632Z" fill="#43B8C9"/>
<path d="M174.392 84.1454L173.787 84.041L173.536 85.7239C173.53 85.7761 173.524 85.8283 173.524 85.8739C173.524 85.9457 173.53 86.0109 173.542 86.0827L174.142 85.9457C174.142 85.9457 174.136 85.9 174.142 85.8218L174.392 84.1389V84.1454Z" fill="#43B8C9"/>
<path d="M200.673 90.6429L200.578 91.2871L202.378 91.5912L202.473 90.9469L200.673 90.6429Z" fill="#43B8C9"/>
<path d="M203.765 87.1936L203.669 87.8379L205.469 88.142L205.565 87.4977L203.765 87.1936Z" fill="#43B8C9"/>
<path d="M176.765 82.6191L174.992 82.3255L174.925 82.3125L174.918 82.6386L174.882 82.9648L176.667 83.2648L176.765 82.6191Z" fill="#43B8C9"/>
<path d="M186.268 88.2073L186.173 88.8516L187.972 89.1556L188.068 88.5114L186.268 88.2073Z" fill="#43B8C9"/>
<path d="M197.049 90.0179L196.953 90.6621L198.753 90.9665L198.848 90.3223L197.049 90.0179Z" fill="#43B8C9"/>
<path d="M182.176 83.5413L182.081 84.1855L183.881 84.4896L183.976 83.8454L182.176 83.5413Z" fill="#43B8C9"/>
<path d="M175.483 86.3909L175.387 87.0352L177.187 87.3392L177.283 86.695L175.483 86.3909Z" fill="#43B8C9"/>
<path d="M182.673 87.596L182.578 88.2402L184.378 88.5443L184.473 87.9001L182.673 87.596Z" fill="#43B8C9"/>
<path d="M185.771 84.1526L185.675 84.7969L187.475 85.101L187.571 84.4567L185.771 84.1526Z" fill="#43B8C9"/>
<path d="M189.342 84.7405L189.247 85.3848L191.046 85.6892L191.142 85.0449L189.342 84.7405Z" fill="#43B8C9"/>
<path d="M179.084 86.9964L178.988 87.6406L180.788 87.9447L180.884 87.3004L179.084 86.9964Z" fill="#43B8C9"/>
<path d="M178.582 82.93L178.486 83.5742L180.286 83.8783L180.382 83.234L178.582 82.93Z" fill="#43B8C9"/>
<path d="M189.851 88.8069L189.755 89.4512L191.555 89.7556L191.651 89.1114L189.851 88.8069Z" fill="#43B8C9"/>
<path d="M200.158 86.5745L200.062 87.2188L201.862 87.5228L201.958 86.8786L200.158 86.5745Z" fill="#43B8C9"/>
<path d="M204.256 91.2483L204.16 91.8926L205.96 92.1967L206.056 91.5524L204.256 91.2483Z" fill="#43B8C9"/>
<path d="M218.633 93.6624L218.538 94.3066L220.338 94.61L220.433 93.9658L218.633 93.6624Z" fill="#43B8C9"/>
<path d="M218.13 89.6038L218.034 90.248L219.834 90.5515L219.93 89.9072L218.13 89.6038Z" fill="#43B8C9"/>
<path d="M151.577 68.4959C152.616 68.4959 153.46 67.5958 153.46 66.4869C153.46 65.378 152.616 64.4844 151.577 64.4844C150.537 64.4844 149.699 65.3845 149.699 66.4869C149.699 67.5893 150.543 68.4959 151.577 68.4959Z" fill="#E9F5F9"/>
<path d="M151.577 69.1482C152.953 69.1482 154.072 67.9545 154.072 66.4868C154.072 65.0192 152.953 63.832 151.577 63.832C150.201 63.832 149.088 65.0257 149.088 66.4868C149.088 67.9479 150.207 69.1482 151.577 69.1482ZM151.577 64.4843C152.616 64.4843 153.46 65.3845 153.46 66.4868C153.46 67.5892 152.616 68.4959 151.577 68.4959C150.537 68.4959 149.699 67.5957 149.699 66.4868C149.699 65.3779 150.543 64.4843 151.577 64.4843Z" fill="#43B8C9"/>
<path d="M161.544 70.1922C161.3 69.579 160.786 69.142 160.175 69.0115C159.557 68.8811 158.933 69.0833 158.487 69.5529L153.656 74.6147C153.405 74.8756 153.075 75.0191 152.72 75.006C152.366 74.993 152.048 74.8364 151.809 74.556L151.124 73.7406C150.782 73.3362 150.311 73.1014 149.797 73.0753C149.284 73.0492 148.794 73.2449 148.421 73.6232L142.019 80.0743L167.225 84.3337L161.538 70.1856L161.544 70.1922Z" fill="#2E92A1"/>
<path d="M223.43 102.141L221.614 101.834L221.663 101.515L219.847 101.208L219.798 101.528L217.975 101.221L218.024 100.901L216.208 100.595L216.159 100.914L214.343 100.608L214.392 100.288L212.57 99.9817L212.521 100.301L210.704 99.9948L210.753 99.6751L208.937 99.3686L208.888 99.6882L207.066 99.3816L207.115 99.062L205.299 98.7554L205.25 99.075L203.433 98.7685L203.482 98.4488L201.66 98.1423L201.611 98.4619L199.795 98.1553L199.844 97.8357L198.028 97.5291L197.979 97.8487L196.156 97.5422L196.205 97.2225L194.389 96.916L194.34 97.2356L192.524 96.929L192.573 96.6094L190.751 96.3028L190.702 96.6224L188.885 96.3159L188.934 95.9962L187.118 95.6897L187.069 96.0093L185.247 95.7027L185.296 95.3831L183.48 95.0765L183.431 95.3961L181.615 95.0896L181.663 94.7699L179.841 94.4634L179.792 94.783L177.976 94.4764L178.025 94.1568L176.209 93.8502L176.16 94.1698L174.337 93.8633L174.386 93.5437L172.57 93.2371L172.521 93.5567L170.705 93.2501L170.754 92.9305L168.932 92.6239L168.883 92.9436L167.067 92.637L167.115 92.3174L165.299 92.0108L165.25 92.3304L163.428 92.0238L163.477 91.7042L161.661 91.3976L161.612 91.7173L159.796 91.4107L159.845 91.0911L158.022 90.7845L157.973 91.1041L156.157 90.7975L156.206 90.4779L154.39 90.1713L154.341 90.491L152.519 90.1844L152.567 89.8648L150.751 89.5582L150.702 89.8778L148.886 89.5712L148.935 89.2516L147.113 88.945L147.064 89.2647L145.248 88.9581L145.297 88.6385L143.48 88.3319L143.431 88.6515L141.609 88.3449L141.658 88.0253L139.848 87.7188C139.848 87.7188 139.848 87.7188 139.842 87.7188L139.793 88.0384C139.573 88.0253 139.475 88.1493 139.45 88.3123L139.31 89.2516L139.01 89.1994L138.723 91.1432L139.022 91.1954L138.735 93.1327L138.435 93.0805L138.148 95.0178L138.448 95.07L138.16 97.0138L137.86 96.9616L137.573 98.8989L137.873 98.9511L137.585 100.888L137.286 100.836L136.998 102.78L137.298 102.832L137.01 104.769L136.711 104.717L136.423 106.655L136.723 106.707L136.436 108.651L136.136 108.598L135.849 110.536L136.148 110.588L135.861 112.525L135.561 112.473L135.274 114.417L135.573 114.469L135.286 116.406L134.986 116.354L134.699 118.291L134.999 118.344L134.754 120C134.754 120.085 134.754 120.111 134.76 120.137L134.473 120.229C134.534 120.463 134.717 120.653 134.962 120.698L136.093 120.887L136.142 120.568L137.958 120.874L137.909 121.194L139.732 121.501L139.781 121.181L141.597 121.488L141.548 121.807L143.364 122.114L143.413 121.794L145.235 122.101L145.186 122.42L147.003 122.727L147.052 122.407L148.868 122.714L148.819 123.033L150.641 123.34L150.69 123.02L152.506 123.327L152.457 123.647L154.274 123.953L154.323 123.634L156.145 123.94L156.096 124.26L157.912 124.566L157.961 124.247L159.777 124.553L159.728 124.873L161.551 125.179L161.6 124.86L163.416 125.166L163.367 125.486L165.183 125.793L165.232 125.473L167.054 125.78L167.005 126.099L168.822 126.406L168.87 126.086L170.687 126.393L170.638 126.712L172.46 127.019L172.509 126.699L174.325 127.006L174.276 127.325L176.093 127.632L176.141 127.312L177.964 127.619L177.915 127.939L179.731 128.245L179.78 127.926L181.596 128.232L181.547 128.552L183.37 128.858L183.418 128.539L185.235 128.845L185.186 129.165L187.002 129.472L187.051 129.152L188.873 129.458L188.824 129.778L190.641 130.085L190.689 129.765L192.506 130.072L192.457 130.391L194.279 130.698L194.328 130.378L196.144 130.685L196.095 131.004L197.911 131.311L197.96 130.991L199.783 131.298L199.734 131.618L201.55 131.924L201.599 131.604L203.415 131.911L203.366 132.231L205.189 132.537L205.237 132.218L207.054 132.524L207.005 132.844L208.821 133.15L208.87 132.831L210.692 133.137L210.643 133.457L212.459 133.764L212.508 133.444L214.325 133.751L214.276 134.07L216.098 134.377L216.147 134.057L217.963 134.364L217.914 134.683L219.73 134.99L219.779 134.67L221.602 134.977L221.553 135.296L223.369 135.603L223.418 135.283L225.234 135.59L225.185 135.91L227.007 136.216L227.056 135.897L228.873 136.203L228.824 136.523L230.64 136.829L230.689 136.51L232.511 136.816L232.462 137.136L234.278 137.442L234.327 137.123L236.144 137.429L236.095 137.749L237.917 138.056L237.966 137.736L239.782 138.043L239.751 138.362C240.082 138.408 240.381 138.173 240.436 137.821L240.577 136.875L240.277 136.823L240.565 134.879L240.864 134.931L241.152 132.994L240.852 132.942L241.14 131.004L241.439 131.057L241.727 129.113L241.427 129.061L241.714 127.123L242.014 127.175L242.301 125.238L242.002 125.186L242.289 123.242L242.589 123.294L242.876 121.357L242.577 121.305L242.864 119.368L243.164 119.42L243.268 118.702L229.943 125.832L229.784 125.917C229.784 125.917 229.753 125.93 229.741 125.936C229.674 125.969 229.612 126.008 229.539 126.04C229.472 126.073 229.405 126.093 229.343 126.119C229.301 126.138 229.258 126.151 229.215 126.171C229.191 126.177 229.16 126.197 229.136 126.204H229.129C228.646 126.367 228.145 126.458 227.637 126.458C227.448 126.458 227.258 126.445 227.069 126.419L214.624 124.847C214.49 124.827 214.355 124.788 214.233 124.736C212.814 124.09 211.402 123.438 209.983 122.792C209.971 122.792 209.964 122.786 209.952 122.779C209.916 122.759 209.879 122.746 209.842 122.727C209.848 122.727 209.854 122.727 209.867 122.727C209.561 122.577 209.304 122.329 209.145 122.009C208.9 121.527 208.894 120.946 209.133 120.457L215.028 108.129C215.493 107.15 216.233 106.374 217.15 105.878L224.47 101.958L223.485 101.789L223.436 102.108L223.43 102.141Z" fill="#E9F5F9"/>
<path d="M240.271 136.849L240.571 136.902L240.871 136.954L241.164 135.01L240.858 134.964L240.559 134.912L240.271 136.849Z" fill="#43B8C9"/>
<path d="M237.96 137.762L237.911 138.081L237.862 138.401L239.715 138.714L239.745 138.388L239.776 138.068L237.96 137.762Z" fill="#43B8C9"/>
<path d="M241.996 125.207L242.301 125.259L242.601 125.311L242.889 123.367L242.589 123.322L242.289 123.27L241.996 125.207Z" fill="#43B8C9"/>
<path d="M240.846 132.969L241.146 133.021L241.451 133.073L241.739 131.129L241.433 131.083L241.133 131.031L240.846 132.969Z" fill="#43B8C9"/>
<path d="M234.321 137.143L234.272 137.469L234.223 137.788L236.046 138.095L236.095 137.775L236.137 137.449L234.321 137.143Z" fill="#43B8C9"/>
<path d="M241.421 129.088L241.727 129.14L242.026 129.192L242.314 127.248L242.014 127.203L241.708 127.15L241.421 129.088Z" fill="#43B8C9"/>
<path d="M223.405 135.297L223.357 135.623L223.308 135.943L225.13 136.249L225.179 135.93L225.222 135.61L223.405 135.297Z" fill="#43B8C9"/>
<path d="M230.683 136.529L230.634 136.849L230.585 137.175L232.407 137.482L232.456 137.162L232.505 136.836L230.683 136.529Z" fill="#43B8C9"/>
<path d="M223.43 102.142L223.479 101.822L223.528 101.503L221.705 101.189L221.656 101.516L221.614 101.835L223.43 102.142Z" fill="#43B8C9"/>
<path d="M227.044 135.916L226.995 136.236L226.946 136.562L228.768 136.868L228.817 136.542L228.86 136.223L227.044 135.916Z" fill="#43B8C9"/>
<path d="M219.767 134.684L219.718 135.01L219.669 135.329L221.492 135.636L221.541 135.316L221.589 134.99L219.767 134.684Z" fill="#43B8C9"/>
<path d="M242.577 121.324L242.876 121.376L243.182 121.428L243.469 119.485L243.164 119.439L242.864 119.387L242.577 121.324Z" fill="#43B8C9"/>
<path d="M208.876 99.6809L208.925 99.3612L208.974 99.0416L207.151 98.7285L207.103 99.0547L207.06 99.3743L208.876 99.6809Z" fill="#43B8C9"/>
<path d="M216.128 134.07L216.079 134.39L216.031 134.716L217.853 135.023L217.902 134.703L217.951 134.377L216.128 134.07Z" fill="#43B8C9"/>
<path d="M212.514 100.302L212.563 99.9758L212.612 99.6562L210.79 99.3496L210.741 99.6692L210.698 99.9888L212.514 100.302Z" fill="#43B8C9"/>
<path d="M219.792 101.529L219.84 101.209L219.889 100.883L218.067 100.576L218.018 100.902L217.975 101.222L219.792 101.529Z" fill="#43B8C9"/>
<path d="M216.153 100.915L216.202 100.596L216.251 100.269L214.429 99.9629L214.386 100.283L214.337 100.609L216.153 100.915Z" fill="#43B8C9"/>
<path d="M212.49 133.459L212.441 133.779L212.392 134.098L214.215 134.411L214.263 134.085L214.312 133.766L212.49 133.459Z" fill="#43B8C9"/>
<path d="M208.851 132.838L208.803 133.164L208.754 133.484L210.576 133.79L210.625 133.471L210.674 133.151L208.851 132.838Z" fill="#43B8C9"/>
<path d="M205.213 132.225L205.164 132.551L205.115 132.87L206.937 133.177L206.986 132.857L207.035 132.531L205.213 132.225Z" fill="#43B8C9"/>
<path d="M157.937 91.0793L157.985 90.7532L158.034 90.4335L156.218 90.127L156.169 90.4466L156.12 90.7727L157.937 91.0793Z" fill="#43B8C9"/>
<path d="M154.298 90.4582L154.347 90.1386L154.396 89.819L152.574 89.5059L152.531 89.832L152.482 90.1516L154.298 90.4582Z" fill="#43B8C9"/>
<path d="M150.659 89.8449L150.708 89.5253L150.757 89.1992L148.941 88.8926L148.892 89.2187L148.843 89.5383L150.659 89.8449Z" fill="#43B8C9"/>
<path d="M139.408 88.2732C139.432 88.1166 139.53 87.9927 139.75 87.9992L139.799 87.6796L139.848 87.3535C139.322 87.2622 138.882 87.6405 138.808 88.1688L138.668 89.1081L138.967 89.1603L139.267 89.2125L139.408 88.2732Z" fill="#43B8C9"/>
<path d="M138.979 91.1506L138.674 91.0984L138.374 91.0527L138.087 92.99L138.386 93.0422L138.692 93.0944L138.979 91.1506Z" fill="#43B8C9"/>
<path d="M138.405 95.0314L138.099 94.9793L137.799 94.9336L137.512 96.8709L137.811 96.9231L138.111 96.9752L138.405 95.0314Z" fill="#43B8C9"/>
<path d="M183.406 95.384L183.455 95.0578L183.504 94.7382L181.682 94.4316L181.639 94.7513L181.59 95.0709L183.406 95.384Z" fill="#43B8C9"/>
<path d="M161.575 91.6926L161.624 91.3664L161.673 91.0468L159.857 90.7402L159.808 91.0599L159.759 91.386L161.575 91.6926Z" fill="#43B8C9"/>
<path d="M143.382 88.6203L143.431 88.2942L143.48 87.9745L141.664 87.668L141.615 87.9876L141.566 88.3072L143.382 88.6203Z" fill="#43B8C9"/>
<path d="M172.491 93.5363L172.54 93.2102L172.588 92.8906L170.766 92.584L170.723 92.9036L170.674 93.2297L172.491 93.5363Z" fill="#43B8C9"/>
<path d="M194.322 97.2238L194.371 96.9042L194.42 96.5781L192.597 96.2715L192.555 96.5976L192.506 96.9173L194.322 97.2238Z" fill="#43B8C9"/>
<path d="M197.96 97.843L198.009 97.5168L198.058 97.1972L196.236 96.8906L196.193 97.2102L196.144 97.5299L197.96 97.843Z" fill="#43B8C9"/>
<path d="M190.683 96.6086L190.732 96.289L190.781 95.9628L188.959 95.6562L188.916 95.9824L188.867 96.302L190.683 96.6086Z" fill="#43B8C9"/>
<path d="M201.599 98.4562L201.648 98.1301L201.697 97.8105L199.874 97.5039L199.832 97.8235L199.783 98.1497L201.599 98.4562Z" fill="#43B8C9"/>
<path d="M187.045 95.9973L187.094 95.6711L187.143 95.3515L185.32 95.0449L185.278 95.3645L185.229 95.6907L187.045 95.9973Z" fill="#43B8C9"/>
<path d="M179.768 94.7648L179.817 94.4452L179.866 94.1191L178.043 93.8125L178 94.1386L177.952 94.4583L179.768 94.7648Z" fill="#43B8C9"/>
<path d="M168.852 92.9185L168.901 92.5989L168.95 92.2792L167.128 91.9727L167.085 92.2923L167.036 92.6119L168.852 92.9185Z" fill="#43B8C9"/>
<path d="M176.129 94.1515L176.178 93.8319L176.227 93.5058L174.405 93.1992L174.362 93.5188L174.313 93.845L176.129 94.1515Z" fill="#43B8C9"/>
<path d="M205.237 99.0695L205.286 98.7499L205.335 98.4238L203.513 98.1172L203.47 98.4433L203.421 98.763L205.237 99.0695Z" fill="#43B8C9"/>
<path d="M165.214 92.3039L165.263 91.9843L165.311 91.6581L163.489 91.3516L163.446 91.6777L163.397 91.9973L165.214 92.3039Z" fill="#43B8C9"/>
<path d="M147.021 89.2316L147.07 88.9055L147.119 88.5859L145.303 88.2793L145.254 88.5989L145.205 88.9251L147.021 89.2316Z" fill="#43B8C9"/>
<path d="M190.659 129.766L190.61 130.092L190.561 130.411L192.383 130.718L192.432 130.398L192.481 130.072L190.659 129.766Z" fill="#43B8C9"/>
<path d="M194.297 130.379L194.248 130.705L194.206 131.025L196.022 131.331L196.071 131.012L196.12 130.692L194.297 130.379Z" fill="#43B8C9"/>
<path d="M187.02 129.152L186.971 129.472L186.922 129.798L188.745 130.105L188.794 129.779L188.843 129.459L187.02 129.152Z" fill="#43B8C9"/>
<path d="M197.936 130.998L197.887 131.318L197.838 131.637L199.66 131.95L199.709 131.624L199.758 131.305L197.936 130.998Z" fill="#43B8C9"/>
<path d="M201.574 131.611L201.525 131.931L201.477 132.257L203.299 132.564L203.348 132.238L203.397 131.918L201.574 131.611Z" fill="#43B8C9"/>
<path d="M136.674 106.675L136.368 106.622L136.069 106.57L135.781 108.514L136.081 108.566L136.387 108.618L136.674 106.675Z" fill="#43B8C9"/>
<path d="M137.824 98.9123L137.524 98.8601L137.218 98.8145L136.931 100.752L137.237 100.804L137.536 100.856L137.824 98.9123Z" fill="#43B8C9"/>
<path d="M137.249 102.793L136.949 102.741L136.643 102.695L136.356 104.633L136.656 104.685L136.961 104.737L137.249 102.793Z" fill="#43B8C9"/>
<path d="M172.466 126.693L172.417 127.013L172.375 127.339L174.191 127.646L174.24 127.32L174.289 127L172.466 126.693Z" fill="#43B8C9"/>
<path d="M165.189 125.461L165.14 125.787L165.097 126.107L166.914 126.413L166.963 126.094L167.011 125.768L165.189 125.461Z" fill="#43B8C9"/>
<path d="M168.828 126.08L168.779 126.4L168.736 126.719L170.552 127.032L170.601 126.706L170.65 126.387L168.828 126.08Z" fill="#43B8C9"/>
<path d="M179.743 127.92L179.694 128.246L179.651 128.566L181.468 128.872L181.517 128.553L181.566 128.226L179.743 127.92Z" fill="#43B8C9"/>
<path d="M176.105 127.307L176.056 127.626L176.013 127.952L177.829 128.259L177.878 127.939L177.927 127.613L176.105 127.307Z" fill="#43B8C9"/>
<path d="M183.382 128.539L183.333 128.859L183.29 129.178L185.106 129.491L185.155 129.165L185.204 128.846L183.382 128.539Z" fill="#43B8C9"/>
<path d="M161.551 124.848L161.502 125.167L161.459 125.493L163.275 125.8L163.324 125.48L163.373 125.154L161.551 124.848Z" fill="#43B8C9"/>
<path d="M143.358 121.775L143.309 122.095L143.266 122.415L145.082 122.728L145.131 122.402L145.18 122.082L143.358 121.775Z" fill="#43B8C9"/>
<path d="M139.719 121.154L139.677 121.48L139.628 121.8L141.444 122.107L141.493 121.787L141.542 121.461L139.719 121.154Z" fill="#43B8C9"/>
<path d="M146.997 122.389L146.948 122.708L146.905 123.034L148.721 123.341L148.77 123.015L148.819 122.695L146.997 122.389Z" fill="#43B8C9"/>
<path d="M157.912 124.234L157.863 124.554L157.82 124.88L159.637 125.187L159.686 124.861L159.734 124.541L157.912 124.234Z" fill="#43B8C9"/>
<path d="M136.081 120.543L136.038 120.869L135.989 121.189L137.805 121.495L137.854 121.176L137.903 120.85L136.081 120.543Z" fill="#43B8C9"/>
<path d="M150.635 123.002L150.586 123.328L150.543 123.648L152.36 123.954L152.408 123.635L152.457 123.309L150.635 123.002Z" fill="#43B8C9"/>
<path d="M154.274 123.615L154.225 123.941L154.182 124.261L155.998 124.568L156.047 124.248L156.096 123.928L154.274 123.615Z" fill="#43B8C9"/>
<path d="M134.699 119.982L134.944 118.325L134.644 118.273L134.344 118.221L134.1 119.878C134.094 119.93 134.087 119.982 134.087 120.028C134.087 120.119 134.1 120.21 134.124 120.301L134.424 120.21L134.711 120.119C134.711 120.119 134.699 120.06 134.705 119.982H134.699Z" fill="#43B8C9"/>
<path d="M135.518 114.438L135.219 114.386L134.913 114.34L134.625 116.277L134.931 116.329L135.231 116.381L135.518 114.438Z" fill="#43B8C9"/>
<path d="M136.093 110.556L135.793 110.503L135.494 110.451L135.2 112.395L135.506 112.447L135.806 112.499L136.093 110.556Z" fill="#43B8C9"/>
<path d="M21.5866 85.9372H71.095C71.6026 85.9372 72.0123 85.5001 72.0123 84.9587V53.623C72.0123 53.0816 71.6026 52.6445 71.095 52.6445H21.5866C21.079 52.6445 20.6693 53.0816 20.6693 53.623V84.9587C20.6693 85.5001 21.079 85.9372 21.5866 85.9372ZM25.1456 58.7434C25.1456 57.8432 25.8305 57.1127 26.6744 57.1127H66.0133C66.8572 57.1127 67.5421 57.8432 67.5421 58.7434V79.8383C67.5421 80.7384 66.8572 81.469 66.0133 81.469H26.6744C25.8305 81.469 25.1456 80.7384 25.1456 79.8383V58.7434Z" fill="white"/>
<path d="M66.0134 57.7734H26.6745C26.1679 57.7734 25.7572 58.2115 25.7572 58.7519V79.8468C25.7572 80.3871 26.1679 80.8252 26.6745 80.8252H66.0134C66.52 80.8252 66.9307 80.3871 66.9307 79.8468V58.7519C66.9307 58.2115 66.52 57.7734 66.0134 57.7734Z" fill="white"/>
<path d="M26.6744 81.4696H66.0133C66.8572 81.4696 67.5421 80.739 67.5421 79.8389V58.744C67.5421 57.8438 66.8572 57.1133 66.0133 57.1133H26.6744C25.8305 57.1133 25.1456 57.8438 25.1456 58.744V79.8389C25.1456 80.739 25.8305 81.4696 26.6744 81.4696ZM25.7571 58.744C25.7571 58.2026 26.1668 57.7656 26.6744 57.7656H66.0133C66.5209 57.7656 66.9306 58.2026 66.9306 58.744V79.8389C66.9306 80.3803 66.5209 80.8173 66.0133 80.8173H26.6744C26.1668 80.8173 25.7571 80.3803 25.7571 79.8389V58.744Z" fill="#505862"/>
<path d="M285.536 96.0156C285.536 96.0156 285.523 96.0222 285.523 96.0287C285.523 96.0287 285.536 96.0221 285.536 96.0156Z" fill="#43B8C9"/>
<path d="M280.919 93.4727C280.919 93.4727 280.882 93.5118 280.864 93.5379L280.955 93.4922L280.919 93.4792V93.4727Z" fill="#43B8C9"/>
<path d="M285.841 94.1113L278.742 79.0109C278.571 78.6522 278.289 78.3848 277.941 78.2347C276.528 77.589 275.115 76.9432 273.703 76.304C273.66 76.2844 273.617 76.2583 273.574 76.2453C273.189 76.1083 272.773 76.1409 272.406 76.3366L253.969 86.2057L256.183 71.2944C256.317 70.4073 255.743 69.5724 254.911 69.4289L220.012 63.5322L219.4 63.4279L206.766 61.2949L140.306 50.0625C139.903 49.9973 139.499 50.0951 139.169 50.3561C138.839 50.617 138.619 50.9888 138.558 51.4193L129.501 112.408L129.403 113.06L127.526 125.688C127.391 126.576 127.966 127.41 128.798 127.554L187.558 137.482L188.17 137.586L206.766 140.73L219.4 142.863L220.012 142.967L243.402 146.92C243.482 146.933 243.561 146.94 243.641 146.94C244.381 146.94 245.029 146.366 245.151 145.564L249.646 115.317L248.973 115.676L244.552 145.459C244.472 145.994 244.008 146.359 243.5 146.275L128.896 126.908C128.394 126.823 128.052 126.321 128.131 125.786L139.163 51.5171C139.236 51.0344 139.628 50.6887 140.068 50.6887C140.117 50.6887 140.166 50.6887 140.215 50.7018L254.819 70.0681C255.321 70.1529 255.663 70.6552 255.584 71.19L253.303 86.5644L247.817 89.4997C247.86 89.4084 247.897 89.3171 247.915 89.2192L248.3 86.6231C248.337 86.3622 248.282 86.1078 248.135 85.8925C247.989 85.6773 247.781 85.5403 247.536 85.5012L176.3 73.46C175.799 73.3817 175.328 73.7405 175.249 74.2754L174.863 76.8715C174.827 77.1324 174.882 77.3868 175.028 77.602C175.175 77.8107 175.383 77.9542 175.628 77.9934L246.839 90.028L240.534 93.4004L239.745 93.2699L239.654 93.8765L234.847 96.4465V96.4204L233.049 96.1139L232.951 96.7596L233.936 96.9292L224.47 101.997L217.15 105.918C216.226 106.413 215.493 107.19 215.028 108.168L209.133 120.496C208.9 120.985 208.906 121.566 209.145 122.049C209.304 122.375 209.567 122.616 209.867 122.766C209.86 122.766 209.854 122.766 209.842 122.766C209.879 122.786 209.915 122.799 209.952 122.818C209.964 122.818 209.971 122.825 209.983 122.831C211.401 123.477 212.814 124.13 214.233 124.775C214.355 124.827 214.49 124.867 214.624 124.886L227.069 126.458C227.258 126.484 227.448 126.497 227.637 126.497C228.145 126.497 228.646 126.406 229.129 126.236L223.803 123.856C223.491 123.888 223.179 123.895 222.861 123.856L210.417 122.284C210.099 122.244 209.83 122.049 209.677 121.749C209.524 121.449 209.524 121.103 209.671 120.796L215.566 108.468C215.976 107.614 216.618 106.935 217.419 106.505L272.682 76.9236C272.81 76.8519 272.951 76.8193 273.091 76.8193C273.189 76.8193 273.287 76.8388 273.379 76.8715C273.611 76.9562 273.801 77.1258 273.911 77.3607L281.01 92.4611C281.072 92.5915 281.102 92.7285 281.102 92.872L285.988 95.0506C286.025 94.7441 285.976 94.4244 285.835 94.1309L285.841 94.1113ZM175.456 76.9693L175.842 74.3732C175.866 74.2101 175.995 74.0992 176.141 74.0992C176.16 74.0992 176.172 74.0992 176.19 74.0992L247.426 86.1404C247.505 86.1535 247.579 86.1991 247.628 86.2709C247.677 86.3426 247.695 86.4274 247.683 86.5122L247.298 89.1083C247.285 89.1931 247.243 89.2714 247.175 89.3236C247.108 89.3758 247.035 89.4018 246.949 89.3823L175.713 77.3411C175.634 77.3281 175.56 77.2824 175.512 77.2106C175.463 77.1389 175.444 77.0541 175.456 76.9693Z" fill="#43B8C9"/>
<path d="M248.618 115.859L229.961 125.839L226.335 124.254C227.539 124.789 228.744 125.318 229.949 125.852L243.274 118.723L248.618 115.859Z" fill="#43B8C9"/>
<path d="M229.949 125.852C229.888 125.884 229.814 125.923 229.747 125.956C229.759 125.949 229.778 125.943 229.79 125.936L229.949 125.852Z" fill="#43B8C9"/>
<path d="M224.812 123.582C224.812 123.582 224.837 123.595 224.843 123.595L225.155 123.432C225.044 123.49 224.928 123.536 224.812 123.582Z" fill="#43B8C9"/>
<path d="M281.017 92.4484L273.917 77.348C273.807 77.1132 273.617 76.9436 273.385 76.8588C273.287 76.8262 273.195 76.8066 273.097 76.8066C272.957 76.8066 272.816 76.8393 272.688 76.911L217.425 106.492C216.624 106.923 215.982 107.601 215.572 108.456L209.677 120.784C209.53 121.09 209.536 121.436 209.683 121.736C209.836 122.036 210.105 122.232 210.423 122.271L222.867 123.843C223.185 123.882 223.497 123.876 223.809 123.843L229.135 126.23H229.142C229.142 126.23 229.197 126.211 229.221 126.204C229.264 126.191 229.307 126.172 229.35 126.152C229.417 126.126 229.478 126.106 229.545 126.074C229.619 126.041 229.68 126.002 229.747 125.969C229.814 125.937 229.888 125.898 229.949 125.865C228.744 125.33 227.539 124.802 226.335 124.267L224.837 123.615H224.843C224.843 123.615 224.818 123.602 224.812 123.595C224.928 123.549 225.044 123.504 225.155 123.445L280.858 93.5508C280.858 93.5508 280.894 93.5117 280.913 93.4856L280.949 93.4986L280.98 93.479C282.588 94.2031 284.196 94.9271 285.799 95.6512C285.841 95.5859 285.884 95.4946 285.921 95.3837C285.964 95.2467 285.982 95.1228 285.988 95.0315L281.102 92.8529C281.102 92.7094 281.066 92.5724 281.01 92.4419L281.017 92.4484Z" fill="white"/>
<path d="M280.955 93.4916L280.864 93.5372L225.161 123.431L224.849 123.595H224.843L226.341 124.253L229.967 125.838L248.625 115.858L248.979 115.669L249.652 115.31L285.206 96.2833C285.297 96.2312 285.413 96.1464 285.53 96.029C285.53 96.029 285.542 96.0224 285.542 96.0159C285.542 96.0159 285.554 96.0094 285.56 96.0029C285.676 95.8789 285.762 95.7485 285.811 95.6506C284.203 94.9266 282.594 94.2026 280.992 93.4785L280.962 93.4981L280.955 93.4916Z" fill="#2E92A1"/>
</svg>
