<svg id="interface/empty-add-data" viewBox="0 0 56 57" fill="none" xmlns="http://www.w3.org/2000/svg">
<path fill-rule="evenodd" clip-rule="evenodd" d="M9.33331 14.5C9.33331 12.89 10.0683 11.483 11.1393 10.3466C12.201 9.22196 13.657 8.28629 15.323 7.54196C18.6573 6.04629 23.1396 5.16663 28 5.16663C32.8603 5.16663 37.3427 6.04629 40.677 7.54196C42.343 8.28863 43.799 9.22196 44.8606 10.3466C45.9316 11.483 46.6666 12.89 46.6666 14.5V42.5C46.6666 44.11 45.9316 45.517 44.8606 46.6533C43.799 47.778 42.343 48.7136 40.677 49.4603C37.3427 50.9536 32.8603 51.8333 28 51.8333C23.1396 51.8333 18.6573 50.9536 15.323 49.4603C13.657 48.7136 12.201 47.7803 11.1393 46.6533C10.0683 45.517 9.33331 44.11 9.33331 42.5V14.5ZM12.8333 14.5C12.8333 14.983 13.0433 15.5733 13.685 16.25C14.336 16.9406 15.358 17.6406 16.7533 18.266C19.5416 19.5143 23.5176 20.3333 28 20.3333C32.4823 20.3333 36.4583 19.5166 39.2466 18.266C40.642 17.6406 41.664 16.9406 42.315 16.25C42.9566 15.5733 43.1666 14.983 43.1666 14.5C43.1666 14.017 42.9566 13.4266 42.315 12.75C41.664 12.0593 40.642 11.3593 39.2466 10.734C36.4583 9.48563 32.48 8.66663 28 8.66663C23.5176 8.66663 19.5416 9.48329 16.7533 10.734C15.358 11.3593 14.336 12.0593 13.685 12.75C13.0433 13.4266 12.8333 14.017 12.8333 14.5ZM43.1666 20.0813C42.42 20.5946 41.58 21.0543 40.677 21.458C37.3427 22.9536 32.8603 23.8333 28 23.8333C23.1396 23.8333 18.6573 22.9536 15.323 21.458C14.4535 21.0745 13.6203 20.6138 12.8333 20.0813V23.8333C12.8333 24.3163 13.0433 24.9066 13.685 25.5833C14.336 26.274 15.358 26.974 16.7533 27.5993C19.5416 28.8476 23.5176 29.6666 28 29.6666C32.4823 29.6666 36.4583 28.85 39.2466 27.5993C40.642 26.974 41.664 26.274 42.315 25.5833C42.9566 24.9066 43.1666 24.3163 43.1666 23.8333V20.0813ZM12.8333 33.1666V29.4146C13.6203 29.9471 14.4535 30.4079 15.323 30.7913C18.6573 32.287 23.1396 33.1666 28 33.1666C32.8603 33.1666 37.3426 32.287 40.677 30.7913C41.58 30.3876 42.42 29.928 43.1666 29.4146V33.1666C43.1666 33.6496 42.9566 34.24 42.315 34.9166C41.664 35.6073 40.642 36.3073 39.2466 36.9326C36.4583 38.1833 32.4823 39 28 39C23.5176 39 19.5416 38.181 16.7533 36.9326C15.358 36.3073 14.336 35.6073 13.685 34.9166C13.0433 34.24 12.8333 33.6496 12.8333 33.1666ZM12.8333 38.748V42.5C12.8333 42.983 13.0433 43.5733 13.685 44.25C14.336 44.9406 15.358 45.6406 16.7533 46.266C19.5416 47.5143 23.5176 48.3333 28 48.3333C32.4823 48.3333 36.4583 47.5166 39.2466 46.266C40.642 45.6406 41.664 44.9406 42.315 44.25C42.9566 43.5733 43.1666 42.983 43.1666 42.5V38.748C42.42 39.2613 41.58 39.721 40.677 40.1246C37.3426 41.6203 32.8603 42.5 28 42.5C23.1396 42.5 18.6573 41.6203 15.323 40.1246C14.4535 39.7412 13.6203 39.2805 12.8333 38.748Z" fill="currentColor"/>
</svg>
