<svg xmlns="http://www.w3.org/2000/svg" id="interface/folder-unavailable" fill="none" viewBox="0 0 24 24"><path fill="none" fill-rule="evenodd" d="M4.148 18.493a.75.75 0 0 1-.648-.743V6.25l.007-.102A.75.75 0 0 1 4.25 5.5h3.957l.104.007a.75.75 0 0 1 .377.167l1.89 1.575c.085.07.164.136.237.2.38.325.645.551 1.206.551h7.729l.102.007a.75.75 0 0 1 .648.743v2.982a6.5 6.5 0 0 0-9.424 6.768H4.25l-.102-.007Z" clip-rule="evenodd"/><path fill="currentColor" fill-rule="evenodd" d="M8.207 4c.46 0 .908.141 1.284.402l.156.12L12.022 6.5h7.728a2.25 2.25 0 0 1 2.229 1.938l.016.158.005.154v4.06a6.518 6.518 0 0 0-1.5-1.078V8.75a.75.75 0 0 0-.648-.743L19.75 8h-7.729c-.561 0-.825-.226-1.206-.552-.073-.063-.152-.13-.237-.199l-1.89-1.575a.75.75 0 0 0-.377-.167L8.207 5.5H4.25a.75.75 0 0 0-.743.648L3.5 6.25v11.5c0 .38.282.694.648.743l.102.007h6.826c.081.523.224 1.026.422 1.5H4.25a2.25 2.25 0 0 1-2.245-2.096L2 17.75V6.25a2.25 2.25 0 0 1 2.096-2.245L4.25 4h3.957Z" clip-rule="evenodd"/><path fill="currentColor" fill-rule="evenodd" d="M17.5 23a5.5 5.5 0 1 0 0-11 5.5 5.5 0 0 0 0 11Zm-2.354-7.854a.5.5 0 0 1 .708 0l1.646 1.647 1.646-1.647a.5.5 0 0 1 .708.708L18.207 17.5l1.647 1.646a.5.5 0 0 1-.708.708L17.5 18.207l-1.646 1.647a.5.5 0 0 1-.708-.708l1.647-1.646-1.647-1.646a.5.5 0 0 1 0-.708Z" clip-rule="evenodd"/></svg>
