<svg id="interface/genai" xmlns="http://www.w3.org/2000/svg" fill="none" viewBox="0 0 144 144"><g stroke="currentColor" stroke-width="9" clip-path="url(#clip0_271_38573)"><path d="M95.5 46c0 12.9787-10.5213 23.5-23.5 23.5S48.5 58.9787 48.5 46c0-3.9376.0072-7.3118.3996-10.3161.3871-2.9639 1.1113-5.2001 2.303-6.9254C53.4032 25.5727 58.4257 22.5 72 22.5c13.5743 0 18.5968 3.0727 20.7974 6.2585 1.1917 1.7253 1.9159 3.9615 2.303 6.9254.3924 3.0043.3996 6.3785.3996 10.3161ZM95.5 98c0-12.9787-10.5213-23.5-23.5-23.5S48.5 85.0213 48.5 98c0 3.938.0072 7.312.3996 10.316.3871 2.964 1.1113 5.2 2.303 6.925C53.4032 118.427 58.4257 121.5 72 121.5c13.5743 0 18.5968-3.073 20.7974-6.259 1.1917-1.725 1.9159-3.961 2.303-6.925.3924-3.004.3996-6.378.3996-10.316Z"/><path d="M61.2336 38.6487c11.2398 6.4894 15.0909 20.8617 8.6016 32.1016-6.4894 11.2399-20.8617 15.091-32.1016 8.6016-3.4101-1.9688-6.3286-3.6621-8.7342-5.5041-2.3733-1.8172-3.9478-3.5625-4.8461-5.4571-1.6587-3.4987-1.8085-9.3847 4.9787-21.1404 6.7871-11.7557 11.9594-14.569 15.8187-14.8818 2.09-.1694 4.3887.3215 7.1491 1.4682 2.798 1.1624 5.7237 2.8432 9.1338 4.812ZM106.267 64.6487c-11.24-6.4893-25.6123-2.6383-32.1017 8.6016-6.4893 11.2399-2.6383 25.6123 8.6016 32.1017 3.4101 1.969 6.3358 3.65 9.1338 4.812 2.7604 1.147 5.0591 1.638 7.149 1.468 3.8593-.313 9.0313-3.126 15.8193-14.8817 6.787-11.7557 6.637-17.6417 4.978-21.1404-.898-1.8946-2.473-3.6399-4.846-5.4571-2.406-1.8419-5.324-3.5353-8.734-5.5041Z"/><path d="M37.7336 64.6477c11.2398-6.4893 25.6122-2.6382 32.1016 8.6016 6.4893 11.2399 2.6383 25.6123-8.6016 32.1017-3.4101 1.969-6.3358 3.65-9.1338 4.812-2.7604 1.147-5.0591 1.638-7.1491 1.468-3.8593-.313-9.0316-3.126-15.8187-14.8817-6.7872-11.7557-6.6374-17.6417-4.9787-21.1403.8983-1.8947 2.4728-3.64 4.8461-5.4571 2.4056-1.842 5.3241-3.5354 8.7342-5.5042ZM82.7669 38.6477C71.527 45.1371 67.676 59.5095 74.1653 70.7493c6.4894 11.2399 20.8617 15.091 32.1017 8.6016 3.41-1.9688 6.328-3.6621 8.734-5.5041 2.373-1.8171 3.948-3.5625 4.846-5.4571 1.659-3.4987 1.809-9.3847-4.978-21.1404-6.788-11.7557-11.96-14.5689-15.8193-14.8818-2.0899-.1694-4.3886.3216-7.149 1.4683-2.798 1.1623-5.7237 2.8431-9.1338 4.8119Z"/></g></svg>
