<svg id="interface/grid-view" viewBox="0 0 24 24" fill="none" xmlns="http://www.w3.org/2000/svg">
<path fill-rule="evenodd" clip-rule="evenodd" d="M3 9.25V13V15.25C3 16.112 3.34241 16.9386 3.9519 17.5481C4.5614 18.1576 5.38805 18.5 6.25 18.5H17.75C18.612 18.5 19.4386 18.1576 20.0481 17.5481C20.6576 16.9386 21 16.112 21 15.25V13V9.25C21 8.38805 20.6576 7.5614 20.0481 6.9519C19.4386 6.34241 18.612 6 17.75 6H6.25C5.38805 6 4.5614 6.34241 3.9519 6.9519C3.34241 7.5614 3 8.38805 3 9.25ZM19.5 13H16V17H17.75C18.2141 17 18.6592 16.8156 18.9874 16.4874C19.3156 16.1592 19.5 15.7141 19.5 15.25V13ZM14.5 13H9.5V17H14.5V13ZM8 13H4.5V15.25C4.5 15.7141 4.68438 16.1592 5.01256 16.4874C5.34075 16.8156 5.78587 17 6.25 17H8V13ZM14.5 7.5V11.5H9.5V7.5H14.5ZM8 7.5V11.5H4.5V9.25C4.5 8.78587 4.68438 8.34075 5.01256 8.01256C5.34075 7.68438 5.78587 7.5 6.25 7.5H8ZM16 7.5H17.75C18.2141 7.5 18.6592 7.68438 18.9874 8.01256C19.3156 8.34075 19.5 8.78587 19.5 9.25V11.5H16V7.5Z" fill="currentColor"/>
</svg>
