<svg id="interface/magic" viewBox="0 0 21 20" fill="none" xmlns="http://www.w3.org/2000/svg">
<path d="M11.5951 6.30417L11.4818 6.40917L2.74845 15.1492C2.40663 15.5066 2.21837 15.9836 2.224 16.4782C2.22963 16.9727 2.42869 17.4453 2.77856 17.7949C3.12842 18.1444 3.60126 18.343 4.09579 18.3482C4.59031 18.3534 5.0672 18.1647 5.42428 17.8225L14.1568 9.08333C14.5081 8.73148 14.7054 8.25454 14.7052 7.75733C14.7051 7.26011 14.5075 6.7833 14.156 6.43167L14.0251 6.31C13.6867 6.02068 13.2564 5.86123 12.8112 5.86016C12.366 5.85909 11.9349 6.01648 11.5951 6.30417ZM10.8885 8.77167L11.7951 9.67833L4.54012 16.9392C4.48123 17.0016 4.41042 17.0515 4.33188 17.0861C4.25335 17.1207 4.16867 17.1391 4.08287 17.1404C3.99708 17.1417 3.9119 17.1257 3.83237 17.0935C3.75285 17.0612 3.6806 17.0134 3.6199 16.9527C3.55919 16.8921 3.51127 16.8199 3.47896 16.7404C3.44666 16.6609 3.43062 16.5757 3.43181 16.4899C3.43299 16.4041 3.45138 16.3194 3.48587 16.2409C3.52036 16.1623 3.57026 16.0914 3.63262 16.0325L10.8885 8.77167ZM14.5435 12.505L14.4585 12.5C14.3074 12.5 14.1615 12.5547 14.0477 12.654C13.9339 12.7532 13.8598 12.8904 13.8393 13.04L13.8335 13.125V13.75H13.2085C13.0574 13.75 12.9115 13.8047 12.7977 13.904C12.6839 14.0032 12.6098 14.1404 12.5893 14.29L12.5835 14.375C12.5835 14.6917 12.8185 14.9533 13.1235 14.9942L13.2085 15H13.8335V15.625C13.8335 15.9417 14.0685 16.2033 14.3735 16.2442L14.4585 16.25C14.6095 16.25 14.7554 16.1953 14.8692 16.096C14.9831 15.9968 15.0571 15.8596 15.0776 15.71L15.0835 15.625V15H15.7085C15.8595 15 16.0054 14.9453 16.1192 14.846C16.2331 14.7468 16.3071 14.6096 16.3276 14.46L16.3335 14.375C16.3334 14.224 16.2787 14.078 16.1795 13.9642C16.0802 13.8504 15.9431 13.7764 15.7935 13.7558L15.7085 13.75H15.0835V13.125C15.0834 12.974 15.0287 12.828 14.9295 12.7142C14.8302 12.6004 14.6931 12.5264 14.5435 12.5058L14.4585 12.5L14.5435 12.5058V12.505ZM13.2493 7.29333L13.2718 7.31583C13.3889 7.43316 13.4546 7.59215 13.4546 7.75792C13.4546 7.92368 13.3889 8.08267 13.2718 8.2L12.6793 8.79417L11.7718 7.88667L12.3801 7.27833C12.4986 7.16755 12.6555 7.10718 12.8177 7.10998C12.9799 7.11278 13.1347 7.17853 13.2493 7.29333ZM6.21012 4.1725L6.12512 4.16667C5.97409 4.16667 5.82817 4.22137 5.71434 4.32064C5.60052 4.41991 5.52649 4.55704 5.50595 4.70667L5.50012 4.79167V5.41667H4.87512C4.72409 5.41667 4.57817 5.47137 4.46434 5.57064C4.35052 5.66991 4.27649 5.80704 4.25595 5.95667L4.25012 6.04167C4.25012 6.35833 4.48512 6.61917 4.79012 6.66083L4.87512 6.66667H5.50012V7.29167C5.50012 7.60833 5.73512 7.86917 6.04012 7.91083L6.12512 7.91667C6.27615 7.91666 6.42207 7.86196 6.53589 7.76269C6.64972 7.66342 6.72374 7.52629 6.74429 7.37667L6.75012 7.29167V6.66667H7.37512C7.52615 6.66666 7.67207 6.61196 7.78589 6.51269C7.89972 6.41342 7.97374 6.27629 7.99429 6.12667L8.00012 6.04167C8.00011 5.89064 7.94542 5.74471 7.84615 5.63089C7.74688 5.51707 7.60975 5.44304 7.46012 5.4225L7.37512 5.41667H6.75012V4.79167C6.75011 4.64064 6.69542 4.49471 6.59615 4.38089C6.49688 4.26707 6.35975 4.19304 6.21012 4.1725L6.12512 4.16667L6.21012 4.1725ZM16.2101 2.50583L16.1251 2.5C15.9741 2.50001 15.8282 2.5547 15.7143 2.65397C15.6005 2.75324 15.5265 2.89037 15.506 3.04L15.5001 3.125V3.75H14.8751C14.7241 3.75001 14.5782 3.8047 14.4643 3.90397C14.3505 4.00324 14.2765 4.14037 14.256 4.29L14.2501 4.375C14.2501 4.69167 14.4851 4.9525 14.7901 4.99417L14.8751 5H15.5001V5.625C15.5001 5.94167 15.7351 6.2025 16.0401 6.24417L16.1251 6.25C16.2761 6.24999 16.4221 6.1953 16.5359 6.09603C16.6497 5.99676 16.7237 5.85963 16.7443 5.71L16.7501 5.625V5H17.3751C17.5261 4.99999 17.6721 4.9453 17.7859 4.84603C17.8997 4.74676 17.9737 4.60963 17.9943 4.46L18.0001 4.375C18.0001 4.22397 17.9454 4.07805 17.8461 3.96422C17.7469 3.8504 17.6097 3.77637 17.4601 3.75583L17.3751 3.75H16.7501V3.125C16.7501 2.97397 16.6954 2.82805 16.5961 2.71422C16.4969 2.6004 16.3597 2.52637 16.2101 2.50583L16.1251 2.5L16.2101 2.50583Z" fill="currentColor"/>
</svg>
