<svg id="interface/member-role" width="24" height="24" viewBox="0 0 24 24" fill="none" xmlns="http://www.w3.org/2000/svg">
<path fill-rule="evenodd" clip-rule="evenodd" d="M12 4C11.591 4 11.228 4.19639 10.9999 4.5H13.0001C12.772 4.19639 12.409 4 12 4ZM12 2.5C10.7412 2.5 9.67998 3.34575 9.35352 4.5H8H6.25C5.65326 4.5 5.08097 4.73705 4.65901 5.15901C4.23705 5.58097 4 6.15326 4 6.75V20.25C4 20.8467 4.23705 21.419 4.65901 21.841C5.08097 22.2629 5.65326 22.5 6.25 22.5H17.75C18.0455 22.5 18.3381 22.4418 18.611 22.3287C18.884 22.2157 19.1321 22.0499 19.341 21.841C19.5499 21.6321 19.7157 21.384 19.8287 21.111C19.9418 20.8381 20 20.5455 20 20.25V6.75C20 6.45453 19.9418 6.16194 19.8287 5.88896C19.7157 5.61598 19.5499 5.36794 19.341 5.15901C19.1321 4.95008 18.884 4.78434 18.611 4.67127C18.3381 4.5582 18.0455 4.5 17.75 4.5H16H14.6465C14.32 3.34575 13.2588 2.5 12 2.5ZM8 6H6.25C6.05109 6 5.86032 6.07902 5.71967 6.21967C5.57902 6.36032 5.5 6.55109 5.5 6.75V20.25C5.5 20.664 5.836 21 6.25 21H17.75C17.9489 21 18.1397 20.921 18.2803 20.7803C18.421 20.6397 18.5 20.4489 18.5 20.25V6.75C18.5 6.55109 18.421 6.36032 18.2803 6.21967C18.1397 6.07902 17.9489 6 17.75 6H16H8ZM16.5 15.8501C16.5 14.8841 15.716 14.1001 14.75 14.1001H9.25C8.284 14.1001 7.5 14.8841 7.5 15.8501V16.8501C7.5 19.0191 9.157 20.1091 12.067 20.1091C14.988 20.1091 16.616 19.0021 16.499 16.8121L16.5 15.8501ZM9.07322 15.6733C9.12011 15.6264 9.1837 15.6001 9.25 15.6001H14.75C14.8163 15.6001 14.8799 15.6264 14.9268 15.6733C14.9737 15.7202 15 15.7838 15 15.8501V16.8521C15.062 18.0451 14.235 18.6091 12.067 18.6091C9.887 18.6091 9 18.0261 9 16.8501V15.8501C9 15.7838 9.02634 15.7202 9.07322 15.6733ZM13.1481 7.32846C12.7841 7.17769 12.394 7.1001 12 7.1001C11.2044 7.1001 10.4413 7.41617 9.87868 7.97878C9.31607 8.54139 9 9.30445 9 10.1001C9 10.8957 9.31607 11.6588 9.87868 12.2214C10.4413 12.784 11.2044 13.1001 12 13.1001C12.394 13.1001 12.7841 13.0225 13.1481 12.8717C13.512 12.721 13.8427 12.5 14.1213 12.2214C14.3999 11.9428 14.6209 11.6121 14.7716 11.2481C14.9224 10.8842 15 10.4941 15 10.1001C15 9.70613 14.9224 9.31602 14.7716 8.95205C14.6209 8.58807 14.3999 8.25735 14.1213 7.97878C13.8427 7.7002 13.512 7.47922 13.1481 7.32846ZM11.426 8.71428C11.608 8.6389 11.803 8.6001 12 8.6001C12.3978 8.6001 12.7794 8.75813 13.0607 9.03944C13.342 9.32074 13.5 9.70227 13.5 10.1001C13.5 10.4979 13.342 10.8795 13.0607 11.1608C12.7794 11.4421 12.3978 11.6001 12 11.6001C11.803 11.6001 11.608 11.5613 11.426 11.4859C11.244 11.4105 11.0786 11.3 10.9393 11.1608C10.8001 11.0215 10.6896 10.8561 10.6142 10.6741C10.5388 10.4921 10.5 10.2971 10.5 10.1001C10.5 9.90311 10.5388 9.70806 10.6142 9.52607C10.6896 9.34408 10.8001 9.17873 10.9393 9.03944C11.0786 8.90015 11.244 8.78966 11.426 8.71428Z" fill="currentColor"/>
</svg>
