<svg id="interface/network" viewBox="0 0 16 16" fill="none" xmlns="http://www.w3.org/2000/svg">
<path d="M7.99992 1.33203C11.6826 1.33203 14.6679 4.31736 14.6679 8.00003C14.6679 11.682 11.6826 14.6667 7.99992 14.6667C4.31725 14.6674 1.33325 11.682 1.33325 8.00003C1.33259 4.31736 4.31725 1.33203 7.99992 1.33203ZM9.95992 11H6.04059C6.47525 12.61 7.23125 13.668 8.00059 13.668C8.76925 13.668 9.52459 12.6094 9.95925 11H9.95992ZM5.00659 11H3.18992C3.83386 12.0298 4.79054 12.8265 5.91992 13.2734C5.57192 12.7267 5.28459 12.0427 5.07325 11.2634L5.00525 11H5.00659ZM12.8099 11H10.9953C10.7793 11.89 10.4673 12.6667 10.0799 13.274C11.1378 12.8556 12.0458 12.1294 12.6866 11.1894L12.8099 11.0007V11ZM4.72925 6.6667H2.49059L2.48725 6.67803C2.38431 7.11114 2.33262 7.55485 2.33325 8.00003C2.33232 8.68313 2.45519 9.36075 2.69592 10H4.81125C4.71364 9.33786 4.66528 8.66936 4.66659 8.00003C4.66659 7.54403 4.68792 7.09736 4.72992 6.66603L4.72925 6.6667ZM10.2646 6.6667H5.73525C5.61798 7.77691 5.64824 8.89776 5.82525 10H10.1746C10.3515 8.89776 10.3818 7.77691 10.2646 6.6667ZM13.5099 6.6667H11.2713C11.3126 7.09803 11.3346 7.5447 11.3346 8.00003C11.3357 8.66937 11.2871 9.33788 11.1893 10H13.3046C13.5455 9.36078 13.6686 8.68317 13.6679 8.00003C13.6679 7.5407 13.6133 7.09403 13.5099 6.6667ZM5.91992 2.72536L5.90459 2.7307C4.53995 3.27583 3.43928 4.328 2.83325 5.6667H4.86525C5.07459 4.4987 5.43859 3.48136 5.92059 2.7267L5.91992 2.72536ZM7.99992 2.33136L7.92192 2.3347C7.07992 2.41336 6.26459 3.74736 5.88659 5.6667H10.1146C9.73725 3.75336 8.92592 2.4207 8.08459 2.3367L7.99992 2.33203V2.33136ZM10.0799 2.7247L10.1506 2.84136C10.5973 3.5827 10.9353 4.55603 11.1339 5.66603H13.1659C12.5872 4.38875 11.557 3.37025 10.2733 2.80603L10.0799 2.72536V2.7247Z" fill="#4E50AF"/>
</svg>
