<svg id="interface/reflections" viewBox="0 0 24 24" fill="none" xmlns="http://www.w3.org/2000/svg">
<path fill-rule="evenodd" clip-rule="evenodd" d="M13.0787 2.66674C13.0448 2.36216 12.8272 2.1051 12.5256 2.02512C12.1967 1.93793 11.8504 2.08298 11.6819 2.37848L5.26521 13.6285C5.1328 13.8606 5.13392 14.1457 5.26815 14.3768C5.40238 14.6079 5.64944 14.7501 5.91669 14.7501H10.9167V21.3334H10.9213C10.9552 21.638 11.1728 21.895 11.4745 21.975C11.8033 22.0622 12.1496 21.9172 12.3182 21.6217L18.7348 10.3717C18.8672 10.1395 18.8661 9.85446 18.7319 9.62336C18.5977 9.39227 18.3506 9.25007 18.0834 9.25007H13.0834V2.66674H13.0787ZM11.5834 10.7501V5.57879L7.20788 13.2501H12.4167V18.4213L16.7922 10.7501H11.5834Z" fill="currentColor"/>
</svg>
