<svg id="interface/reflection-aggregate" viewBox="0 0 24 25" fill="none" xmlns="http://www.w3.org/2000/svg">
<path d="M18.0525 12.8334C18.0352 12.6811 17.9237 12.5525 17.7692 12.5126C17.6008 12.469 17.4234 12.5415 17.337 12.6892L14.0505 18.3142C13.9826 18.4303 13.9832 18.5728 14.052 18.6883C14.1207 18.8039 14.2473 18.875 14.3841 18.875H16.9451V22.1666H16.9475C16.9648 22.3189 17.0763 22.4475 17.2308 22.4874C17.3992 22.531 17.5766 22.4585 17.663 22.3108L20.9495 16.6858C21.0174 16.5697 21.0168 16.4272 20.948 16.3117C20.8793 16.1961 20.7527 16.125 20.6159 16.125H18.0549V12.8334H18.0525Z" fill="url(#paint0_linear_10616_49371)"/>
<path fill-rule="evenodd" clip-rule="evenodd" d="M6.44245 7.56541C6.26112 7.64698 6.1196 7.79722 6.049 7.9831C5.97852 8.16902 5.98474 8.37532 6.06632 8.55665C6.14789 8.73798 6.29812 8.8795 6.484 8.9501L11.25 10.7601V15.7086C11.5366 14.7067 12.0577 13.8037 12.75 13.0629V10.7601L17.516 8.9501C17.6104 8.91692 17.6972 8.8652 17.7713 8.79797C17.8454 8.73074 17.9053 8.64936 17.9474 8.55864C17.9896 8.46791 18.0132 8.36966 18.0168 8.26967C18.0204 8.16969 18.004 8.06999 17.9685 7.97645C17.933 7.88291 17.8792 7.79741 17.8101 7.725C17.7411 7.65258 17.6583 7.59472 17.5665 7.5548C17.4748 7.51488 17.376 7.49373 17.2759 7.49258C17.1759 7.49143 17.0766 7.5103 16.984 7.5481L12 9.4381L7.016 7.5481C6.83008 7.47761 6.62378 7.48384 6.44245 7.56541ZM20.5 11.7322V7.1731C20.5001 7.12329 20.4853 7.07459 20.4575 7.03325C20.4297 6.99192 20.3902 6.95983 20.344 6.9411L12.845 3.9011C12.3031 3.6815 11.6969 3.6815 11.155 3.9011L3.656 6.9411C3.60984 6.95983 3.57033 6.99192 3.54254 7.03325C3.51474 7.07459 3.49993 7.12329 3.5 7.1731V16.8261C3.50013 16.8757 3.51504 16.9242 3.54282 16.9654C3.5706 17.0065 3.61 17.0384 3.656 17.0571L11.155 20.0971C11.2987 20.1553 11.4469 20.1981 11.5973 20.2255C11.8484 20.7685 12.1723 21.2709 12.5563 21.7204C11.8974 21.8192 11.2184 21.7415 10.591 21.4871L3.093 18.4471C2.77019 18.3163 2.49374 18.0922 2.29903 17.8035C2.10432 17.5147 2.0002 17.1744 2 16.8261V7.1731C1.9998 6.82447 2.10373 6.48373 2.29847 6.19456C2.49321 5.9054 2.76988 5.68098 3.093 5.5501L10.591 2.5101V2.5111C11.4946 2.14474 12.5054 2.14474 13.409 2.5111L20.907 5.5511C21.23 5.68192 21.5065 5.90618 21.7013 6.19515C21.896 6.48412 22 6.82464 22 7.1731V12.8096C21.5557 12.3832 21.051 12.0194 20.5 11.7322Z" fill="#E4E6E9"/>
<defs>
<linearGradient id="paint0_linear_10616_49371" x1="14" y1="12.5" x2="14" y2="22.5" gradientUnits="userSpaceOnUse">
<stop stop-color="#56A2FD"/>
<stop offset="1" stop-color="#C94DCA"/>
</linearGradient>
</defs>
</svg>
