<svg id="interface/reflection-raw-mode" viewBox="0 0 24 25" fill="none" xmlns="http://www.w3.org/2000/svg">
<path fill-rule="evenodd" clip-rule="evenodd" d="M20.1945 3.80546C19.6788 3.28973 18.9793 3 18.25 3H5.75C5.02065 3 4.32118 3.28973 3.80546 3.80546C3.28973 4.32118 3 5.02065 3 5.75V18.25C3 18.9793 3.28973 19.6788 3.80546 20.1945C4.32118 20.7103 5.02065 21 5.75 21H12.0218C11.7253 20.5368 11.4858 20.0335 11.3135 19.5H5.75C5.06 19.5 4.5 18.94 4.5 18.25V5.75C4.5 5.06 5.06 4.5 5.75 4.5H18.25C18.94 4.5 19.5 5.06 19.5 5.75V11.3135C20.0335 11.4858 20.5368 11.7253 21 12.0218V5.75C21 5.02065 20.7103 4.32118 20.1945 3.80546ZM14.6853 11.6394C14.5589 11.5492 14.4069 11.5 14.25 11.5H6.75L6.648 11.507C6.45975 11.5329 6.28835 11.6293 6.16843 11.7767C6.04852 11.9241 5.98902 12.1115 6.00197 12.3011C6.01493 12.4907 6.09936 12.6683 6.23821 12.798C6.37706 12.9278 6.55998 12.9999 6.75 13H12.8096C13.3454 12.4416 13.98 11.9787 14.6853 11.6394ZM11.3135 15.5H6.75L6.648 15.507C6.45975 15.5329 6.28835 15.6293 6.16843 15.7767C6.04852 15.9241 5.98902 16.1115 6.00197 16.3011C6.01493 16.4907 6.09936 16.6683 6.23821 16.798C6.37706 16.9278 6.55998 16.9999 6.75 17H11.0189C11.0585 16.4805 11.159 15.9782 11.3135 15.5ZM6.75 7.5H17.25C17.44 7.50006 17.6229 7.57224 17.7618 7.70197C17.9006 7.8317 17.9851 8.0093 17.998 8.19888C18.011 8.38846 17.9515 8.57589 17.8316 8.7233C17.7117 8.87071 17.5402 8.9671 17.352 8.993L17.25 9H6.75C6.55998 8.99994 6.37706 8.92776 6.23821 8.79803C6.09936 8.6683 6.01493 8.4907 6.00197 8.30112C5.98902 8.11154 6.04852 7.92411 6.16843 7.7767C6.28835 7.62929 6.45975 7.5329 6.648 7.507L6.75 7.5Z" fill="#E4E6E9"/>
<path d="M18.0525 12.8334C18.0352 12.6811 17.9237 12.5525 17.7692 12.5126C17.6008 12.469 17.4234 12.5415 17.337 12.6892L14.0505 18.3142C13.9826 18.4303 13.9832 18.5728 14.052 18.6883C14.1207 18.8039 14.2473 18.875 14.3841 18.875H16.9451V22.1666H16.9475C16.9648 22.3189 17.0763 22.4475 17.2308 22.4874C17.3992 22.531 17.5766 22.4585 17.663 22.3108L20.9495 16.6858C21.0174 16.5697 21.0168 16.4272 20.948 16.3117C20.8793 16.1961 20.7527 16.125 20.6159 16.125H18.0549V12.8334H18.0525Z" fill="url(#paint0_linear_10616_49372)"/>
<defs>
<linearGradient id="paint0_linear_10616_49372" x1="14" y1="12.5" x2="14" y2="22.5" gradientUnits="userSpaceOnUse">
<stop stop-color="#56A2FD"/>
<stop offset="1" stop-color="#C94DCA"/>
</linearGradient>
</defs>
</svg>
