<svg id="interface/reflection-recommendation" viewBox="0 0 24 24" fill="none" xmlns="http://www.w3.org/2000/svg">
<path d="M6.5181 3.96511L7.28311 4.2131L7.2991 4.2171C7.35817 4.23781 7.40935 4.27636 7.44555 4.32741C7.48176 4.37847 7.50121 4.43951 7.50121 4.50211C7.50121 4.5647 7.48176 4.62574 7.44555 4.6768C7.40935 4.72786 7.35817 4.7664 7.2991 4.78711L6.53311 5.03511C6.30048 5.11247 6.08913 5.24306 5.91587 5.41649C5.74261 5.58993 5.61223 5.80141 5.5351 6.03411L5.2851 6.79811C5.26395 6.85672 5.22523 6.90739 5.17423 6.9432C5.12323 6.97901 5.06242 6.99823 5.0001 6.99823C4.93779 6.99823 4.87698 6.97901 4.82598 6.9432C4.77498 6.90739 4.73626 6.85672 4.71511 6.79811L4.4671 6.03411C4.39021 5.80078 4.25983 5.58867 4.08637 5.41469C3.91292 5.24072 3.7012 5.1097 3.46811 5.0321L2.7021 4.78311C2.64304 4.7624 2.59186 4.72386 2.55565 4.6728C2.51945 4.62174 2.5 4.5607 2.5 4.4981C2.5 4.43551 2.51945 4.37447 2.55565 4.32341C2.59186 4.27236 2.64304 4.23381 2.7021 4.2131L3.46811 3.96511C3.69788 3.88563 3.90616 3.75411 4.07668 3.58081C4.24721 3.40751 4.37535 3.19713 4.45111 2.9661L4.70011 2.20211C4.72081 2.14304 4.75935 2.09186 4.81041 2.05566C4.86147 2.01945 4.92251 2 4.98511 2C5.0477 2 5.10874 2.01945 5.1598 2.05566C5.21085 2.09186 5.2494 2.14304 5.27011 2.20211L5.5191 2.9671C5.5966 3.19965 5.72725 3.41093 5.90066 3.58417C6.07407 3.75741 6.28548 3.88784 6.5181 3.96511Z" fill="currentColor"/>
<path fill-rule="evenodd" clip-rule="evenodd" d="M12.0256 2.02512C12.3273 2.1051 12.5449 2.36216 12.5788 2.66674H12.5834V9.25007H17.5834C17.8507 9.25007 18.0977 9.39227 18.2319 9.62336C18.3662 9.85446 18.3673 10.1395 18.2349 10.3717L11.8182 21.6217C11.6497 21.9172 11.3034 22.0622 10.9745 21.975C10.6729 21.895 10.4553 21.638 10.4214 21.3334H10.4167V14.7501H5.41675C5.1495 14.7501 4.90245 14.6079 4.76822 14.3768C4.63399 14.1457 4.63286 13.8606 4.76527 13.6285L11.1819 2.37848C11.3505 2.08298 11.6968 1.93793 12.0256 2.02512ZM11.0834 5.57879V10.7501H16.2922L11.9167 18.4213V13.2501H6.70795L11.0834 5.57879Z" fill="currentColor"/>
<path d="M22.1947 18.0994L21.124 17.7521C20.7984 17.6439 20.5025 17.4612 20.2598 17.2186C20.0171 16.976 19.8342 16.6801 19.7257 16.3544L19.3772 15.283C19.3482 15.2003 19.2943 15.1287 19.2228 15.0779C19.1514 15.0272 19.0659 15 18.9783 15C18.8907 15 18.8053 15.0272 18.7338 15.0779C18.6623 15.1287 18.6084 15.2003 18.5794 15.283L18.2309 16.353C18.1249 16.6766 17.9455 16.9712 17.7068 17.2139C17.4681 17.4566 17.1766 17.6408 16.855 17.7521L15.7829 18.0994C15.7002 18.1284 15.6286 18.1824 15.5779 18.2539C15.5272 18.3254 15.5 18.4109 15.5 18.4986C15.5 18.5862 15.5272 18.6717 15.5779 18.7432C15.6286 18.8148 15.7002 18.8687 15.7829 18.8977L16.855 19.2465C17.1813 19.3551 17.4776 19.5386 17.7204 19.7823C17.9632 20.0259 18.1456 20.323 18.2533 20.6498L18.6004 21.7197C18.63 21.8018 18.6842 21.8728 18.7556 21.9229C18.827 21.9731 18.9121 22 18.9993 22C19.0865 22 19.1716 21.9731 19.243 21.9229C19.3144 21.8728 19.3686 21.8018 19.3982 21.7197L19.7481 20.6498C19.8561 20.3239 20.0386 20.0277 20.2811 19.7848C20.5236 19.5419 20.8194 19.359 21.145 19.2507L22.2171 18.9033C22.2998 18.8743 22.3714 18.8204 22.4221 18.7488C22.4728 18.6773 22.5 18.5919 22.5 18.5042C22.5 18.4165 22.4728 18.331 22.4221 18.2595C22.3714 18.188 22.2998 18.134 22.2171 18.105L22.1947 18.0994Z" fill="currentColor"/>
<path d="M5.5181 17.9651L6.28311 18.2131L6.2991 18.2171C6.35817 18.2378 6.40935 18.2764 6.44555 18.3274C6.48176 18.3785 6.50121 18.4395 6.50121 18.5021C6.50121 18.5647 6.48176 18.6257 6.44555 18.6768C6.40935 18.7279 6.35817 18.7664 6.2991 18.7871L5.53311 19.0351C5.30048 19.1125 5.08913 19.2431 4.91587 19.4165C4.74261 19.5899 4.61223 19.8014 4.5351 20.0341L4.2851 20.7981C4.26395 20.8567 4.22523 20.9074 4.17423 20.9432C4.12323 20.979 4.06242 20.9982 4.0001 20.9982C3.93779 20.9982 3.87698 20.979 3.82598 20.9432C3.77498 20.9074 3.73626 20.8567 3.71511 20.7981L3.4671 20.0341C3.39021 19.8008 3.25983 19.5887 3.08637 19.4147C2.91292 19.2407 2.7012 19.1097 2.46811 19.0321L1.7021 18.7831C1.64304 18.7624 1.59186 18.7239 1.55565 18.6728C1.51945 18.6217 1.5 18.5607 1.5 18.4981C1.5 18.4355 1.51945 18.3745 1.55565 18.3234C1.59186 18.2724 1.64304 18.2338 1.7021 18.2131L2.46811 17.9651C2.69788 17.8856 2.90616 17.7541 3.07668 17.5808C3.24721 17.4075 3.37535 17.1971 3.45111 16.9661L3.70011 16.2021C3.72081 16.143 3.75935 16.0919 3.81041 16.0557C3.86147 16.0194 3.92251 16 3.98511 16C4.0477 16 4.10874 16.0194 4.1598 16.0557C4.21085 16.0919 4.2494 16.143 4.27011 16.2021L4.5191 16.9671C4.5966 17.1997 4.72725 17.4109 4.90066 17.5842C5.07407 17.7574 5.28548 17.8878 5.5181 17.9651Z" fill="currentColor"/>
</svg>