<svg id="interface/refresh-clockwise" viewBox="0 0 24 24" fill="none" xmlns="http://www.w3.org/2000/svg">
<path d="M12.0001 4.49999C10.4694 4.50025 8.97542 4.96887 7.71881 5.84291C6.4622 6.71695 5.50311 7.95456 4.97033 9.38954C4.43756 10.8245 4.35662 12.3882 4.73837 13.8705C5.12013 15.3528 5.9463 16.6828 7.10595 17.682C8.2656 18.6811 9.70319 19.3014 11.2257 19.4598C12.7482 19.6181 14.2826 19.3068 15.623 18.5676C16.9634 17.8285 18.0456 16.6969 18.7241 15.3248C19.4027 13.9527 19.6452 12.4059 19.4191 10.892C19.3521 10.438 19.6841 9.99999 20.1431 9.99999C20.5131 9.99999 20.8391 10.256 20.8951 10.623C21.2197 12.718 20.7944 14.8604 19.694 16.6725C18.5937 18.4846 16.8889 19.8501 14.8803 20.5283C12.8716 21.2065 10.6881 21.1538 8.71447 20.3796C6.74086 19.6054 5.10392 18.1593 4.0922 16.2962C3.08047 14.4332 2.7589 12.2728 3.18417 10.1958C3.60945 8.11889 4.75427 6.25875 6.41683 4.94329C8.0794 3.62783 10.153 2.94151 12.272 3.0053C14.3911 3.06909 16.4197 3.8789 18.0001 5.29199V4.24999C18.0001 4.05107 18.0791 3.86031 18.2197 3.71966C18.3604 3.579 18.5512 3.49999 18.7501 3.49999C18.949 3.49999 19.1398 3.579 19.2804 3.71966C19.4211 3.86031 19.5001 4.05107 19.5001 4.24999V7.24999C19.5001 7.4489 19.4211 7.63966 19.2804 7.78032C19.1398 7.92097 18.949 7.99999 18.7501 7.99999H15.7501C15.5512 7.99999 15.3604 7.92097 15.2198 7.78032C15.0791 7.63966 15.0001 7.4489 15.0001 7.24999C15.0001 7.05107 15.0791 6.86031 15.2198 6.71966C15.3604 6.579 15.5512 6.49999 15.7501 6.49999H17.1001C15.7145 5.21188 13.8919 4.49716 12.0001 4.49999Z" fill="currentColor"/>
</svg>
