<svg xmlns="http://www.w3.org/2000/svg" id="interface/source-unavailable" fill="none" viewBox="0 0 24 24"><path fill="currentColor" fill-rule="evenodd" d="M4.774 4.22C4.315 4.707 4 5.31 4 6v12c0 .69.315 1.293.774 1.78.455.483 1.079.883 1.793 1.203C7.996 21.623 9.917 22 12 22c.267 0 .531-.006.792-.018a6.52 6.52 0 0 1-1.061-1.484c-1.81-.031-3.412-.374-4.551-.884-.598-.268-1.036-.568-1.315-.864-.275-.29-.365-.543-.365-.75v-1.608a6.8 6.8 0 0 0 1.067.59c1.201.539 2.75.891 4.45.99a6.578 6.578 0 0 1 .064-1.5c-1.543-.091-2.9-.41-3.901-.858-.598-.268-1.036-.568-1.315-.864-.275-.29-.365-.543-.365-.75v-1.608a6.8 6.8 0 0 0 1.067.59C7.996 13.623 9.917 14 12 14h.022a6.534 6.534 0 0 1 1.405-1.566A15.26 15.26 0 0 1 12 12.5c-1.921 0-3.625-.351-4.82-.886-.598-.268-1.036-.568-1.315-.864-.275-.29-.365-.543-.365-.75V8.392a6.8 6.8 0 0 0 1.067.59C7.996 9.623 9.917 10 12 10c2.083 0 4.004-.377 5.433-1.018.387-.173.747-.37 1.067-.59V10c0 .207-.09.46-.365.75a2.69 2.69 0 0 1-.285.26c.758.04 1.482.21 2.15.488V6c0-.69-.315-1.293-.774-1.78-.455-.482-1.079-.882-1.793-1.202C16.004 2.377 14.083 2 12 2c-2.083 0-4.004.377-5.433 1.018-.714.319-1.338.72-1.793 1.202Zm1.091 2.53C5.59 6.46 5.5 6.207 5.5 6c0-.207.09-.46.365-.75.279-.296.717-.596 1.315-.864C8.375 3.85 10.079 3.5 12 3.5c1.92 0 3.625.351 4.82.886.598.268 1.036.568 1.315.864.275.29.365.543.365.75 0 .207-.09.46-.365.75-.279.296-.717.596-1.315.864-1.195.536-2.899.886-4.82.886-1.921 0-3.625-.351-4.82-.886-.598-.268-1.036-.568-1.315-.864Z" clip-rule="evenodd"/><path fill="currentColor" d="M23 17.5a5.5 5.5 0 1 1-11 0 5.5 5.5 0 0 1 11 0Zm-7.146-2.354a.5.5 0 0 0-.708.707l1.647 1.647-1.647 1.646a.5.5 0 0 0 .708.708l1.646-1.647 1.646 1.647a.5.5 0 1 0 .708-.708L18.207 17.5l1.647-1.647a.5.5 0 1 0-.708-.707L17.5 16.794l-1.646-1.647v-.001Z"/></svg>
