<svg id="interface/storage" viewBox="0 0 25 24" fill="none"
  xmlns="http://www.w3.org/2000/svg">
  <path d="M5.5 7H19.5C20.2652 6.99996 21.0015 7.29233 21.5583 7.81728C22.115 8.34224 22.4501 9.06011 22.495 9.824L22.5 10V14C22.5 14.7652 22.2077 15.5015 21.6827 16.0583C21.1578 16.615 20.4399 16.9501 19.676 16.995L19.5 17H5.5C4.73479 17 3.99849 16.7077 3.44174 16.1827C2.88499 15.6578 2.54989 14.9399 2.505 14.176L2.5 14V10C2.49996 9.23479 2.79233 8.49849 3.31728 7.94174C3.84224 7.38499 4.56011 7.04989 5.324 7.005L5.5 7ZM19.5 8.5H5.5C5.10218 8.5 4.72064 8.65804 4.43934 8.93934C4.15804 9.22064 4 9.60218 4 10V14C4 14.3978 4.15804 14.7794 4.43934 15.0607C4.72064 15.342 5.10218 15.5 5.5 15.5H19.5C19.8978 15.5 20.2794 15.342 20.5607 15.0607C20.842 14.7794 21 14.3978 21 14V10C21 9.60218 20.842 9.22064 20.5607 8.93934C20.2794 8.65804 19.8978 8.5 19.5 8.5ZM18.5 10C18.7652 10 19.0196 10.1054 19.2071 10.2929C19.3946 10.4804 19.5 10.7348 19.5 11C19.5 11.2652 19.3946 11.5196 19.2071 11.7071C19.0196 11.8946 18.7652 12 18.5 12C18.2348 12 17.9804 11.8946 17.7929 11.7071C17.6054 11.5196 17.5 11.2652 17.5 11C17.5 10.7348 17.6054 10.4804 17.7929 10.2929C17.9804 10.1054 18.2348 10 18.5 10ZM14.5 10C14.7652 10 15.0196 10.1054 15.2071 10.2929C15.3946 10.4804 15.5 10.7348 15.5 11C15.5 11.2652 15.3946 11.5196 15.2071 11.7071C15.0196 11.8946 14.7652 12 14.5 12C14.2348 12 13.9804 11.8946 13.7929 11.7071C13.6054 11.5196 13.5 11.2652 13.5 11C13.5 10.7348 13.6054 10.4804 13.7929 10.2929C13.9804 10.1054 14.2348 10 14.5 10Z" fill="currentColor"/>
</svg>
