<svg id="interface/unpinned-small"
  xmlns="http://www.w3.org/2000/svg" fill="none" viewBox="0 0 24 24">
  <path fill="currentColor" d="M14.059 6.44a1.5 1.5 0 0 0-2.386.355l-2.02 3.79-2.811.937a.5.5 0 0 0-.196.828l2.147 2.146-2.647 2.647-.146.853.854-.146L9.5 15.203l2.146 2.147a.5.5 0 0 0 .828-.196l.937-2.81 3.779-2.024a1.5 1.5 0 0 0 .354-2.38l-3.484-3.5h-.001Zm-1.504.825a.5.5 0 0 1 .796-.118l3.485 3.498a.5.5 0 0 1-.118.794l-3.954 2.116a.5.5 0 0 0-.238.283l-.744 2.233-3.856-3.856 2.232-.744a.5.5 0 0 0 .283-.24l2.114-3.965v-.001Z"/>
</svg>
