<svg id="interface/zoom-out" width="21" height="20" viewBox="0 0 21 20" fill="none" xmlns="http://www.w3.org/2000/svg">
<path d="M10.794 7.7084C10.9597 7.7084 11.1187 7.77425 11.2359 7.89146C11.3531 8.00867 11.419 8.16764 11.419 8.3334C11.419 8.49916 11.3531 8.65813 11.2359 8.77534C11.1187 8.89255 10.9597 8.9584 10.794 8.9584H6.21064C6.04488 8.9584 5.88591 8.89255 5.7687 8.77534C5.65149 8.65813 5.58564 8.49916 5.58564 8.3334C5.58564 8.16764 5.65149 8.00867 5.7687 7.89146C5.88591 7.77425 6.04488 7.7084 6.21064 7.7084H10.794ZM14.544 8.3334C14.5438 6.96251 14.0774 5.63243 13.2214 4.56163C12.3654 3.49084 11.1707 2.743 9.83345 2.44096C8.49625 2.13891 7.09607 2.30061 5.86292 2.89951C4.62976 3.4984 3.63694 4.49888 3.04754 5.7366C2.45814 6.97432 2.3072 8.3757 2.61951 9.71054C2.93182 11.0454 3.68882 12.2343 4.76616 13.0821C5.84349 13.9299 7.17712 14.386 8.54797 14.3756C9.91883 14.3653 11.2454 13.889 12.3098 13.0251L16.3931 17.1084L16.464 17.1692C16.5908 17.2623 16.7481 17.3041 16.9044 17.2863C17.0607 17.2685 17.2045 17.1924 17.3072 17.0732C17.4098 16.954 17.4638 16.8005 17.4583 16.6433C17.4527 16.4861 17.3881 16.3367 17.2773 16.2251L13.194 12.1409C14.0693 11.0653 14.5462 9.72022 14.544 8.3334ZM3.71064 8.3334C3.71064 7.70415 3.83458 7.08106 4.07538 6.49971C4.31619 5.91836 4.66914 5.39013 5.11408 4.94518C5.55903 4.50023 6.08726 4.14728 6.66861 3.90648C7.24996 3.66567 7.87305 3.54173 8.5023 3.54173C9.13156 3.54173 9.75464 3.66567 10.336 3.90648C10.9173 4.14728 11.4456 4.50023 11.8905 4.94518C12.3355 5.39013 12.6884 5.91836 12.9292 6.49971C13.17 7.08106 13.294 7.70415 13.294 8.3334C13.294 9.60423 12.7891 10.823 11.8905 11.7216C10.9919 12.6202 9.77313 13.1251 8.5023 13.1251C7.23148 13.1251 6.0127 12.6202 5.11408 11.7216C4.21547 10.823 3.71064 9.60423 3.71064 8.3334Z" fill="currentColor"/>
</svg>
