<svg xmlns="http://www.w3.org/2000/svg" fill="none" viewBox="0 0 250 250"><path fill="#F9FCFF" fill-rule="evenodd" d="M119.971 63.98c17.105-3.5773 35.869-11.7841 51.056-3.1853 15.369 8.7011 22.517 28.103 23.9 45.6233 1.239 15.707-13.579 27.534-16.912 42.937-3.975 18.373 10.211 42.716-4.243 54.836-14.143 11.858-35.941-1.352-53.801-6.166-13.325-3.592-25.4261-9.343-36.0854-18.061-10.072-8.238-16.2733-19.17-23.0089-30.27-9.0563-14.925-28.1329-28.916-23.0206-45.587 5.0897-16.597 28.9323-17.132 44.6024-24.7896 12.4376-6.078 23.9485-12.5009 37.5125-15.3374Z" clip-rule="evenodd"/><path fill="url(#a)" d="M141.401 55.0951c.052-2.0168-1.136-3.8884-3.032-4.6804-2.067-.8634-4.455-.2278-5.82 1.5484L80.6157 119.584c-1.0717 1.396-1.3199 3.256-.6515 4.883.6683 1.628 2.1521 2.777 3.8951 3.016l32.6097 4.482-5.901 42.937.03.004c-.052 2.017 1.137 3.888 3.033 4.68 2.067.864 4.455.228 5.819-1.548l51.934-67.621c1.072-1.396 1.32-3.256.652-4.883-.669-1.628-2.152-2.777-3.895-3.016l-32.611-4.4821 5.902-42.9366-.031-.0042Z"/><g fill-rule="evenodd" clip-rule="evenodd" filter="url(#b)"><path fill="#fff" fill-opacity=".7" d="M155.841 144.642c-6.42 6.419-16.359 7.144-23.575 2.188-.922-.645-1.8-1.369-2.618-2.188-.421-.42-.819-.853-1.193-1.309-.748-.912-1.404-1.883-1.941-2.887-.946-1.696-1.59-3.496-1.941-5.356-1.134-5.834.561-12.113 5.075-16.625 4.525-4.525 10.805-6.209 16.639-5.086 1.859.362 3.661 1.005 5.357 1.941 1.006.549 1.964 1.205 2.877 1.953.455.373.888.771 1.308 1.192.82.819 1.555 1.695 2.188 2.618 4.958 7.214 4.232 17.152-2.176 23.559Z"/><path fill="#CCD5DD" d="M154.045 143.378c-6.679 6.681-17.504 6.679-24.184 0-6.672-6.672-6.672-17.497.008-24.177 6.672-6.671 17.497-6.671 24.168 0 6.68 6.68 6.68 17.505.008 24.177Zm3.428-27.608c-8.574-8.574-22.467-8.574-31.04 0-8.572 8.572-8.58 22.474-.008 31.047 7.803 7.8 20.033 8.504 28.635 2.099.841-.626 1.65-1.328 2.421-2.099.771-.772 1.473-1.581 2.098-2.421 6.405-8.603 5.695-20.825-2.106-28.626ZM191.213 179.135l-.36.36c-2.381 2.382-6.28 2.382-8.663 0l-21.987-21.987 9.023-9.023 21.987 21.987c2.383 2.382 2.383 6.28 0 8.663Z"/><path fill="#CCD5DD" d="m160.053 143.724 6.498 6.497-4.613 4.611-6.496-6.497c.857-.639 1.682-1.356 2.47-2.142.787-.786 1.503-1.612 2.141-2.469Z"/><path fill="#95A7B9" d="m190.884 170.201-8.966 8.965-1.614-1.616 8.965-8.964 1.615 1.615ZM169.725 148.795l-9.211 9.211-1.369-1.368 9.211-9.211 1.369 1.368Z"/><path fill="#fff" fill-opacity=".5" d="m149.623 116.903-22.589 22.589c-.851-1.525-1.429-3.143-1.744-4.815l19.518-19.519c1.671.327 3.291.904 4.815 1.745ZM157.029 122.272l-24.422 23.039c-.874-.576-1.707-1.224-2.483-1.956-.4-.377-.778-.764-1.131-1.172l24.719-23.322c.433.335.844.692 1.242 1.069.776.732 1.475 1.516 2.075 2.342Z"/></g><defs><linearGradient id="a" x1="134.964" x2="117.036" y1="49.7798" y2="180.221" gradientUnits="userSpaceOnUse"><stop stop-color="#C8D2DD"/><stop offset="1" stop-color="#D6DEE7"/></linearGradient><filter id="b" width="121" height="119.942" x="100" y="89.3396" color-interpolation-filters="sRGB" filterUnits="userSpaceOnUse"><feFlood flood-opacity="0" result="BackgroundImageFix"/><feColorMatrix in="SourceAlpha" result="hardAlpha" values="0 0 0 0 0 0 0 0 0 0 0 0 0 0 0 0 0 0 127 0"/><feOffset dx="4" dy="4"/><feGaussianBlur stdDeviation="12"/><feComposite in2="hardAlpha" operator="out"/><feColorMatrix values="0 0 0 0 1 0 0 0 0 1 0 0 0 0 1 0 0 0 0.71 0"/><feBlend in2="BackgroundImageFix" result="effect1_dropShadow_12_15401"/><feBlend in="SourceGraphic" in2="effect1_dropShadow_12_15401" result="shape"/></filter></defs></svg>
