<svg xmlns="http://www.w3.org/2000/svg" fill="none" viewBox="0 0 250 250"><path fill="#F9FCFF" fill-rule="evenodd" d="M119.971 63.98c17.105-3.5773 35.869-11.7841 51.056-3.1853 15.369 8.7011 22.517 28.103 23.9 45.6233 1.239 15.707-13.579 27.534-16.912 42.937-3.975 18.373 10.211 42.716-4.243 54.836-14.143 11.858-35.941-1.352-53.801-6.166-13.325-3.592-25.4261-9.343-36.0854-18.061-10.072-8.238-16.2733-19.17-23.0089-30.27-9.0563-14.925-28.1329-28.916-23.0206-45.587 5.0897-16.597 28.9323-17.132 44.6024-24.7896 12.4376-6.078 23.9485-12.5009 37.5125-15.3374Z" clip-rule="evenodd"/><path fill="url(#a)" d="M141.401 55.0951c.052-2.0168-1.136-3.8884-3.032-4.6804-2.067-.8634-4.455-.2278-5.82 1.5484L80.6157 119.584c-1.0717 1.396-1.3199 3.256-.6515 4.883.6683 1.628 2.1521 2.777 3.8951 3.016l32.6097 4.482-5.901 42.937.03.004c-.052 2.017 1.137 3.888 3.033 4.68 2.067.864 4.455.228 5.819-1.548l51.934-67.621c1.072-1.396 1.32-3.256.652-4.883-.669-1.628-2.152-2.777-3.895-3.016l-32.611-4.4821 5.902-42.9366-.031-.0042Z"/><defs><linearGradient id="a" x1="134.964" x2="117.036" y1="49.7798" y2="180.221" gradientUnits="userSpaceOnUse"><stop stop-color="#C8D2DD"/><stop offset="1" stop-color="#D6DEE7"/></linearGradient></defs></svg>
