<svg id="engine-state/disabled" viewBox="0 0 24 24" fill="none" xmlns="http://www.w3.org/2000/svg">
<path d="M12 2.00098C17.524 2.00098 22 6.47798 22 12.001C22 17.524 17.524 22.001 12 22.001C6.478 22.001 2 17.524 2 12.001C2 6.47798 6.478 2.00098 12 2.00098ZM12 3.50098C9.74566 3.50098 7.58365 4.39651 5.98959 5.99057C4.39553 7.58463 3.5 9.74664 3.5 12.001C3.5 14.2553 4.39553 16.4173 5.98959 18.0114C7.58365 19.6054 9.74566 20.501 12 20.501C14.2543 20.501 16.4163 19.6054 18.0104 18.0114C19.6045 16.4173 20.5 14.2553 20.5 12.001C20.5 9.74664 19.6045 7.58463 18.0104 5.99057C16.4163 4.39651 14.2543 3.50098 12 3.50098Z" fill="currentColor"/>
<path d="M13.7541 8.74615V15.2461L13.7601 15.3481C13.786 15.5364 13.8824 15.7078 14.0298 15.8277C14.1772 15.9476 14.3646 16.0071 14.5542 15.9942C14.7438 15.9812 14.9214 15.8968 15.0511 15.7579C15.1808 15.6191 15.253 15.4362 15.2531 15.2461V8.74615L15.2461 8.64415C15.2186 8.45731 15.1217 8.28771 14.9747 8.16921C14.8276 8.05071 14.6413 7.99204 14.4529 8.00492C14.2645 8.0178 14.0879 8.10128 13.9583 8.23869C13.8288 8.37609 13.7559 8.55731 13.7541 8.74615Z" fill="currentColor"/>
<path d="M8.75409 15.2462V8.74616C8.75586 8.55733 8.8288 8.37611 8.95834 8.2387C9.08789 8.1013 9.2645 8.01782 9.4529 8.00494C9.64131 7.99206 9.82764 8.05073 9.97467 8.16922C10.1217 8.28772 10.2186 8.45733 10.2461 8.64416L10.2531 8.74616V15.2462C10.253 15.4362 10.1808 15.6191 10.0511 15.758C9.92139 15.8968 9.74379 15.9812 9.55421 15.9942C9.36463 16.0071 9.1772 15.9476 9.02979 15.8277C8.88238 15.7078 8.78599 15.5364 8.76009 15.3482L8.75409 15.2462Z" fill="currentColor"/>
</svg>
