<svg id="engine-state/starting-static" viewBox="0 0 24 24" fill="none" xmlns="http://www.w3.org/2000/svg">
<g opacity="0.333333">
<path d="M12.0028 7.96212L15.9114 11.5075C16.1235 11.714 16.443 11.7991 16.7445 11.7293C17.046 11.6594 17.2814 11.4459 17.3584 11.1724C17.4355 10.8989 17.3417 10.6091 17.1141 10.4166L12.0085 5.78546L10.6981 6.97413L6.88598 10.4321C6.65831 10.6245 6.56457 10.9144 6.64156 11.1878C6.7186 11.4613 6.95399 11.6749 7.25553 11.7447C7.55702 11.8145 7.87641 11.7295 8.08857 11.523L12.0028 7.96212Z" fill="currentColor"/>
</g>
<g opacity="0.666667">
<path d="M12.0028 12.7621L15.9114 16.3075C16.1235 16.514 16.443 16.5991 16.7445 16.5293C17.046 16.4594 17.2814 16.2459 17.3584 15.9724C17.4355 15.6989 17.3417 15.4091 17.1141 15.2166L12.0085 10.5855L10.6981 11.7741L6.88598 15.2321C6.65831 15.4245 6.56457 15.7144 6.64156 15.9878C6.7186 16.2613 6.95399 16.4749 7.25553 16.5447C7.55702 16.6145 7.87641 16.5295 8.08857 16.323L12.0028 12.7621Z" fill="currentColor"/>
</g>
</svg>
