<svg id="engine-state/stopping-static" viewBox="0 0 24 24" fill="none" xmlns="http://www.w3.org/2000/svg">
<g opacity="0.333333">
<path d="M11.9972 14.392L8.08863 10.8466C7.87647 10.6401 7.55698 10.555 7.2555 10.6249C6.95401 10.6947 6.71857 10.9083 6.64158 11.1817C6.56454 11.4552 6.65833 11.7451 6.88594 11.9375L11.9915 16.5687L13.3019 15.38L17.114 11.922C17.3417 11.7297 17.4354 11.4398 17.3584 11.1663C17.2814 10.8929 17.046 10.6793 16.7445 10.6095C16.443 10.5396 16.1236 10.6246 15.9114 10.8311L11.9972 14.392Z" fill="currentColor"/>
</g>
<g opacity="0.666667">
<path d="M11.9972 9.59202L8.08863 6.0466C7.87647 5.8401 7.55698 5.75504 7.2555 5.82488C6.95401 5.89472 6.71857 6.10828 6.64158 6.38173C6.56454 6.65524 6.65833 6.94506 6.88594 7.13749L11.9915 11.7687L13.3019 10.58L17.114 7.12204C17.3417 6.92965 17.4354 6.63978 17.3584 6.36632C17.2814 6.09287 17.046 5.87927 16.7445 5.80948C16.443 5.73964 16.1236 5.82464 15.9114 6.03109L11.9972 9.59202Z" fill="currentColor"/>
</g>
</svg>
