<!--

    Copyright (C) 2017-2019 Dremio Corporation

    Licensed under the Apache License, Version 2.0 (the "License");
    you may not use this file except in compliance with the License.
    You may obtain a copy of the License at

        http://www.apache.org/licenses/LICENSE-2.0

    Unless required by applicable law or agreed to in writing, software
    distributed under the License is distributed on an "AS IS" BASIS,
    WITHOUT WARRANTIES OR CONDITIONS OF ANY KIND, either express or implied.
    See the License for the specific language governing permissions and
    limitations under the License.

-->
<svg id="scripts/CollapseLeft" viewBox="0 0 24 24" fill="none" xmlns="http://www.w3.org/2000/svg">
<path d="M21.2447 19.0038C21.0633 19.004 20.8879 18.9385 20.7512 18.8193C20.6144 18.7002 20.5254 18.5355 20.5007 18.3558L20.4947 18.2538L20.4967 5.24978C20.4968 5.05976 20.5689 4.87684 20.6987 4.73799C20.8284 4.59914 21.006 4.51471 21.1956 4.50176C21.3852 4.48881 21.5726 4.5483 21.72 4.66822C21.8674 4.78813 21.9638 4.95953 21.9897 5.14778L21.9967 5.24978L21.9947 18.2538C21.9947 18.4527 21.9157 18.6435 21.775 18.7841C21.6344 18.9248 21.4436 19.0038 21.2447 19.0038ZM8.3497 17.1998L8.2767 17.2838C8.14972 17.4108 7.98136 17.488 7.80225 17.5014C7.62314 17.5148 7.44518 17.4635 7.3007 17.3568L7.2167 17.2838L2.2197 12.2868C2.09269 12.1598 2.01546 11.9914 2.00206 11.8123C1.98866 11.6332 2.03999 11.4553 2.1467 11.3108L2.2197 11.2258L7.2157 6.22278C7.34936 6.08824 7.52902 6.00933 7.71852 6.00194C7.90802 5.99454 8.09329 6.05921 8.23702 6.18292C8.38076 6.30663 8.4723 6.4802 8.4932 6.66868C8.51411 6.85717 8.46284 7.04658 8.3497 7.19878L8.2777 7.28278L4.5667 10.9998L18.2437 10.9998C18.4248 10.9998 18.5998 11.0653 18.7363 11.1842C18.8729 11.3031 18.9618 11.4674 18.9867 11.6468L18.9937 11.7488C18.9937 11.93 18.9281 12.1051 18.8089 12.2417C18.6898 12.3783 18.5253 12.4671 18.3457 12.4918L18.2437 12.4988L4.5537 12.4998L8.2767 16.2238C8.40372 16.3508 8.48095 16.5191 8.49435 16.6982C8.50774 16.8773 8.45642 17.0553 8.3497 17.1998L8.2767 17.2838L8.3497 17.1998Z" fill="currentColor"/>
</svg>
