<svg id="scripts/CollapseRight" viewBox="0 0 24 24" fill="none" xmlns="http://www.w3.org/2000/svg">
<path d="M2.752 4.5C2.93341 4.49977 3.10876 4.56529 3.24555 4.68444C3.38235 4.80359 3.47133 4.96828 3.496 5.148L3.502 5.25L3.5 18.254C3.49994 18.444 3.42776 18.6269 3.29803 18.7658C3.1683 18.9046 2.9907 18.9891 2.80112 19.002C2.61154 19.015 2.42411 18.9555 2.2767 18.8356C2.12929 18.7157 2.0329 18.5443 2.007 18.356L2 18.254L2.002 5.25C2.002 5.05109 2.08102 4.86032 2.22167 4.71967C2.36232 4.57902 2.55309 4.5 2.752 4.5V4.5ZM15.647 6.304L15.72 6.22C15.847 6.09298 16.0153 6.01576 16.1945 6.00236C16.3736 5.98896 16.5515 6.04029 16.696 6.147L16.78 6.22L21.777 11.217C21.904 11.344 21.9812 11.5123 21.9946 11.6915C22.008 11.8706 21.9567 12.0485 21.85 12.193L21.777 12.278L16.781 17.281C16.6473 17.4155 16.4677 17.4945 16.2782 17.5018C16.0887 17.5092 15.9034 17.4446 15.7597 17.3209C15.6159 17.1972 15.5244 17.0236 15.5035 16.8351C15.4826 16.6466 15.5339 16.4572 15.647 16.305L15.719 16.221L19.43 12.504H5.753C5.57191 12.504 5.39693 12.4385 5.26036 12.3196C5.1238 12.2007 5.03487 12.0364 5.01 11.857L5.003 11.755C5.00301 11.5738 5.06864 11.3987 5.18777 11.2621C5.30689 11.1255 5.47145 11.0366 5.651 11.012L5.753 11.005L19.443 11.004L15.72 7.28C15.593 7.15301 15.5158 6.98466 15.5024 6.80555C15.489 6.62644 15.5403 6.44847 15.647 6.304L15.72 6.22L15.647 6.304V6.304Z" fill="#505862"/>
</svg>
