<svg id="sql-editor/join" viewBox="0 0 24 24" fill="none" xmlns="http://www.w3.org/2000/svg">
<path fill-rule="evenodd" clip-rule="evenodd" d="M12 17.4782C10.9897 18.125 9.78864 18.5 8.5 18.5C4.91015 18.5 2 15.5899 2 12C2 8.41015 4.91015 5.5 8.5 5.5C9.78864 5.5 10.9897 5.875 12 6.52182C13.0103 5.875 14.2114 5.5 15.5 5.5C19.0899 5.5 22 8.41015 22 12C22 15.5899 19.0899 18.5 15.5 18.5C14.2114 18.5 13.0103 18.125 12 17.4782ZM10.7686 16.4569C10.0877 16.8042 9.31673 17 8.5 17C5.73858 17 3.5 14.7614 3.5 12C3.5 9.23858 5.73858 7 8.5 7C9.31673 7 10.0877 7.19582 10.7686 7.54308C9.67204 8.70674 9 10.2749 9 12C9 13.7251 9.67204 15.2933 10.7686 16.4569ZM13.2314 7.54309C13.9123 7.19583 14.6833 7 15.5 7C18.2614 7 20.5 9.23858 20.5 12C20.5 14.7614 18.2614 17 15.5 17C14.6833 17 13.9123 16.8042 13.2314 16.4569C14.328 15.2933 15 13.7251 15 12C15 10.2749 14.328 8.70675 13.2314 7.54309ZM12 8.42929C12.9257 9.33675 13.5 10.6013 13.5 12C13.5 13.3987 12.9257 14.6633 12 15.5707C11.0743 14.6633 10.5 13.3987 10.5 12C10.5 10.6013 11.0743 9.33675 12 8.42929Z" fill="currentColor"/>
</svg>
