<svg id="sql-editor/keyword" xmlns="http://www.w3.org/2000/svg" fill="none">
  <path fill="currentColor" fill-rule="evenodd" d="M1.5 0A1.5 1.5 0 0 0 0 1.5v1A1.5 1.5 0 0 0 1.5 4h7A1.5 1.5 0 0 0 10 2.5v-1A1.5 1.5 0 0 0 8.5 0h-7Zm7 1.5h-7v1h7v-1Z" clip-rule="evenodd"/>
  <path fill="currentColor" d="M13.167 2a.75.75 0 0 1 .75-.75h5.333a.75.75 0 0 1 0 1.5h-5.333a.75.75 0 0 1-.75-.75ZM.75 6.5a.75.75 0 0 0 0 1.5h12.167a.75.75 0 0 0 0-1.5H.75ZM0 11.25a.75.75 0 0 1 .75-.75h6.167a.75.75 0 0 1 0 1.5H.75a.75.75 0 0 1-.75-.75ZM13.25 10.5a.75.75 0 0 0 0 1.5h6a.75.75 0 0 0 0-1.5h-6ZM15.167 7.25a.75.75 0 0 1 .75-.75h1.666a.75.75 0 0 1 0 1.5h-1.666a.75.75 0 0 1-.75-.75ZM.75 14.5a.75.75 0 0 0 0 1.5h15.167a.75.75 0 0 0 0-1.5H.75Z"/>
</svg>
