<svg id="sql-editor/panel-hide" viewBox="0 0 24 24" fill="none" xmlns="http://www.w3.org/2000/svg">
<path d="M2.21998 2.22001C2.09296 2.347 2.01573 2.51535 2.00233 2.69446C1.98894 2.87357 2.04026 3.05154 2.14698 3.19601L2.21998 3.28001L6.25398 7.31501C4.28701 8.69364 2.88286 10.7351 2.29898 13.065C2.25396 13.2568 2.28621 13.4586 2.38878 13.6268C2.49135 13.7951 2.65599 13.9162 2.84711 13.964C3.03824 14.0118 3.24051 13.9825 3.4102 13.8824C3.57989 13.7823 3.70338 13.6194 3.75398 13.429C4.27288 11.361 5.55088 9.56396 7.33398 8.39501L9.14398 10.205C8.42097 10.9605 8.02257 11.9691 8.0341 13.0147C8.04563 14.0604 8.46619 15.0599 9.20568 15.7993C9.94517 16.5387 10.9448 16.959 11.9904 16.9704C13.0361 16.9817 14.0446 16.5831 14.8 15.86L20.719 21.78C20.8528 21.9142 21.0325 21.9928 21.2219 21.9999C21.4112 22.007 21.5963 21.9422 21.7398 21.8184C21.8833 21.6946 21.9747 21.5211 21.9955 21.3328C22.0163 21.1444 21.965 20.9551 21.852 20.803L21.779 20.719L15.666 14.605L15.667 14.603L14.467 13.405L11.597 10.535H11.599L8.71898 7.65801L8.71998 7.65601L7.58698 6.52601L3.27998 2.22001C3.13935 2.07956 2.94873 2.00067 2.74998 2.00067C2.55123 2.00067 2.3606 2.07956 2.21998 2.22001ZM10.204 11.265L13.739 14.801C13.2675 15.2564 12.636 15.5084 11.9805 15.5027C11.325 15.497 10.6979 15.2341 10.2344 14.7706C9.77091 14.307 9.50799 13.68 9.50229 13.0245C9.4966 12.369 9.74858 11.7375 10.204 11.266V11.265ZM12 5.50001C11 5.50001 10.03 5.64801 9.11098 5.92501L10.348 7.16101C12.4875 6.73737 14.7081 7.15209 16.5505 8.31944C18.3929 9.48679 19.7162 11.3175 20.247 13.433C20.2988 13.6219 20.4225 13.7831 20.5916 13.882C20.7607 13.9809 20.9617 14.0098 21.1518 13.9624C21.3419 13.9149 21.5059 13.795 21.6087 13.6283C21.7115 13.4615 21.745 13.2611 21.702 13.07C21.1597 10.9075 19.9105 8.98807 18.1528 7.61658C16.395 6.2451 14.2295 5.50015 12 5.50001ZM12.195 9.01001L15.996 12.81C15.9468 11.8179 15.5305 10.8795 14.8281 10.1772C14.1256 9.47495 13.1871 9.05892 12.195 9.01001Z" fill="currentColor"/>
</svg>
