<?xml version="1.0" encoding="UTF-8"?>
<!--

    Copyright (C) 2017-2018 Dremio Corporation

    Licensed under the Apache License, Version 2.0 (the "License");
    you may not use this file except in compliance with the License.
    You may obtain a copy of the License at

        http://www.apache.org/licenses/LICENSE-2.0

    Unless required by applicable law or agreed to in writing, software
    distributed under the License is distributed on an "AS IS" BASIS,
    WITHOUT WARRANTIES OR CONDITIONS OF ANY KIND, either express or implied.
    See the License for the specific language governing permissions and
    limitations under the License.

-->
<svg width="19px" height="18px" viewBox="0 0 19 18" version="1.1" xmlns="http://www.w3.org/2000/svg" xmlns:xlink="http://www.w3.org/1999/xlink">
    <!-- Generator: Sketch 41.2 (35397) - http://www.bohemiancoding.com/sketch -->
    <title>Icon/Aggregation-Reversed</title>
    <desc>Created with Sketch.</desc>
    <defs></defs>
    <g id="Elements" stroke="none" stroke-width="1" fill="none" fill-rule="evenodd" fill-opacity="0.802111639">
        <g id="Elements/Icons" transform="translate(-622.000000, -877.000000)" fill="#FFFFFF">
            <g id="Icon/Aggregation-Reversed" transform="translate(622.000000, 876.000000)">
                <g id="Icon/Aggregation-(on-dark)">
                    <g id="Page-1" transform="translate(0.950000, 1.000000)">
                        <path d="M13.0262447,16.0160369 L13.113734,12.0898271 C13.1250524,12.0848798 13.1372584,12.0829951 13.1485767,12.0778122 L16.1370793,10.5541669 L16.1370793,14.4828959 C16.1370793,14.5688843 16.0893647,14.6470984 16.0165723,14.6817293 L13.0262447,16.0160369 Z M9.12541544,14.8807984 C9.05173533,14.8454607 9.00424273,14.7674822 9.00424273,14.6817293 L9.07510993,10.5541669 L12.0928189,12.0657974 C12.1041372,12.0709803 12.0928189,12.0655618 12.1274397,12.0778122 L12.0928189,16.0160369 L9.12541544,14.8807984 Z M5.02422259,16.2561415 L5.02422259,12.0773411 C5.03554092,12.0726294 5.04752504,12.0707447 5.05884337,12.0655618 L8.09655702,10.5541669 L8.00183939,14.6817293 C8.00183939,14.7677177 7.95412486,14.8459318 7.88111053,14.8805628 L5.02422259,16.2561415 Z M1.17287845,14.9638204 C1.09919834,14.9284827 1.05148381,14.8505041 1.05148381,14.7647513 L1.05148381,10.7108107 L4.02462125,12.0657974 C4.03593958,12.0709803 4.0479237,12.072865 4.05924203,12.0778122 L4.05924203,16.2570839 L1.17287845,14.9638204 Z M4.33199159,8.00808745 C4.401677,7.97487001 4.48134917,7.9751056 4.55059072,8.00785186 L4.63137253,8.04648775 L8.12074718,9.71089328 L4.53594347,11.4210022 C4.47557904,11.449508 4.40700327,11.4492724 4.34686077,11.4210022 L0.762278989,9.71089328 L4.33199159,8.00808745 Z M8.44054549,0.731584444 C8.5102309,0.698602594 8.59012499,0.698602594 8.65936654,0.731584444 L12.2293011,2.43439028 L8.64405351,4.14449923 C8.58413294,4.17347614 8.51511331,4.17324056 8.4556366,4.14449923 L4.87061096,2.43439028 L8.44054549,0.731584444 Z M12.1274397,7.34232524 C12.1274397,7.41111595 12.0959259,7.47378147 12.046214,7.51430203 L9.6908881,8.59681348 L9.00424273,8.97963854 L9.07510993,4.90772268 C9.08620633,4.90301099 9.09841237,4.90112631 9.10950878,4.89570787 L12.1274397,3.29898593 L12.1274397,7.34232524 Z M5.3471279,7.52468837 C5.11543502,7.41514151 5.0282173,7.28062268 5.02422259,7.24787641 L5.02422259,3.1939358 L8.09655702,4.78905883 C8.10787535,4.79447727 8.09655702,8.97963854 8.09655702,8.97963854 L5.3471279,7.52468837 Z M16.337633,9.71089328 L12.7530513,11.4210022 C12.6929088,11.449508 12.6238891,11.449508 12.5639686,11.4210022 L8.97938678,9.71089328 L9.9117065,9.26634505 L12.4774166,8.0502571 C12.5033822,8.03777111 12.5275724,8.02222253 12.5519845,8.0073807 C12.6207821,7.97557677 12.6993447,7.97534118 12.7676985,8.00808745 L16.337633,9.71089328 Z M16.7466464,9.13111946 L13.0408919,7.36352785 C13.0218061,7.35434005 13.0013887,7.3505707 12.9818591,7.3427964 C12.9880731,7.29827091 12.991402,7.25256748 12.991402,7.20662848 L12.991402,2.49375761 C12.9896266,2.45771316 12.991402,2.44640509 12.991402,2.43462586 C12.991402,2.1809012 12.8562478,1.95874487 12.6380925,1.85461646 L8.93233804,0.0870248488 C8.68932683,-0.0288827977 8.41102906,-0.0291183823 8.167574,0.0870248488 L4.46204143,1.85461646 C4.24388616,1.95874487 4.10851005,2.1809012 4.10851005,2.43462586 C4.11028548,2.47750227 4.10851005,2.48551214 4.10851005,2.49375761 L4.10851005,7.21722979 C4.10851005,7.25916386 4.11294861,7.30086234 4.12005031,7.34232524 C4.09985486,7.35009953 4.07877169,7.35410447 4.05924203,7.36352785 L0.353265602,9.13111946 C0.135332261,9.23524788 -4.38461543e-05,9.4574042 -4.38461543e-05,9.71136445 C0.00173157821,9.75424086 -4.38461543e-05,9.76201515 -4.38461543e-05,9.77026061 L-4.38461543e-05,14.4937328 C-4.38461543e-05,14.8572399 0.201910675,15.1882363 0.515716931,15.3380682 L4.0843199,17.018729 C4.19794705,17.0729135 4.31978555,17.1000057 4.44162405,17.1000057 C4.56324062,17.1000057 4.68485718,17.0729135 4.79781856,17.0192002 L8.36841888,15.3267601 C8.43211223,15.2966053 8.48981352,15.2570271 8.5435201,15.2127371 C8.60077754,15.2619743 8.66358318,15.3050863 8.73282473,15.3380682 L12.3014277,17.018729 C12.4150549,17.0729135 12.5368933,17.1000057 12.6587318,17.1000057 C12.7803484,17.1000057 12.901965,17.0729135 13.0149264,17.0192002 L16.5859705,15.3267601 C16.8982233,15.177635 17.0999559,14.846403 17.0999559,14.4828959 L17.0999559,9.77026061 C17.0981805,9.73445175 17.0999559,9.72314368 17.0999559,9.71136445 C17.1001778,9.4574042 16.9648017,9.23524788 16.7466464,9.13111946 Z" id="Fill-1"></path>
                    </g>
                </g>
            </g>
        </g>
    </g>
</svg>
