<!--

    Copyright (C) 2017-2019 Dremio Corporation

    Licensed under the Apache License, Version 2.0 (the "License");
    you may not use this file except in compliance with the License.
    You may obtain a copy of the License at

        http://www.apache.org/licenses/LICENSE-2.0

    Unless required by applicable law or agreed to in writing, software
    distributed under the License is distributed on an "AS IS" BASIS,
    WITHOUT WARRANTIES OR CONDITIONS OF ANY KIND, either express or implied.
    See the License for the specific language governing permissions and
    limitations under the License.

-->
<svg width="24" height="24" viewBox="0 0 24 24" fill="none" xmlns="http://www.w3.org/2000/svg">
<path fill-rule="evenodd" clip-rule="evenodd" d="M4.73223 2.73223C5.20107 2.26339 5.83696 2 6.5 2H18C18.3283 2 18.6534 2.06466 18.9567 2.1903C19.26 2.31594 19.5356 2.50009 19.7678 2.73223C19.9999 2.96438 20.1841 3.23998 20.3097 3.54329C20.4353 3.84661 20.5 4.1717 20.5 4.5V12.3135C20.0218 12.159 19.5195 12.0585 19 12.0189V4.5C19 4.23478 18.8946 3.98043 18.7071 3.79289C18.5196 3.60536 18.2652 3.5 18 3.5H6.5C6.23478 3.5 5.98043 3.60536 5.79289 3.79289C5.60536 3.98043 5.5 4.23478 5.5 4.5V18H12.0189C12.0064 18.165 12 18.3318 12 18.5C12 18.8401 12.0261 19.174 12.0764 19.5H5.5C5.5 19.7652 5.60536 20.0196 5.79289 20.2071C5.98043 20.3946 6.23478 20.5 6.5 20.5H12.3135C12.4858 21.0335 12.7253 21.5368 13.0218 22H6.5C5.83696 22 5.20107 21.7366 4.73223 21.2678C4.26339 20.7989 4 20.163 4 19.5V4.5C4 3.83696 4.26339 3.20107 4.73223 2.73223Z" fill="#FFA940"/>
<path d="M13.2272 5.07798C13.2124 5.05357 13.1914 5.0335 13.1664 5.01981C13.1413 5.00612 13.1131 4.99931 13.0845 5.00006C13.056 5.00059 13.0281 5.00828 13.0033 5.02243C12.9786 5.03658 12.9578 5.05672 12.9428 5.08102L11.6838 7.16078L10.9218 6.33697C10.905 6.3192 10.8845 6.30529 10.8618 6.29621C10.8391 6.28712 10.8146 6.28307 10.7902 6.28435C10.7647 6.28646 10.74 6.29441 10.7181 6.30757C10.6962 6.32073 10.6776 6.33875 10.6637 6.36025L8.55054 9.77288H16.1237C15.564 8.78917 13.2272 5.07798 13.2272 5.07798Z" fill="#FFA940"/>
<path d="M14.9022 9.77387H12.6119C12.6077 9.77351 12.6038 9.77173 12.6008 9.76881L12.4257 9.62206L11.4319 8.78611C11.3377 8.70717 11.278 8.74158 11.2983 8.86201L11.356 9.19396L11.3944 9.42066C11.396 9.42491 11.396 9.42957 11.3944 9.43382L11.2801 9.59878L11.1647 9.76577C11.1629 9.76815 11.1606 9.77011 11.158 9.77151C11.1554 9.77291 11.1525 9.77372 11.1495 9.77387H9.06974C9.05152 9.77387 9.04444 9.76071 9.05456 9.74553L9.19321 9.53098L10.6961 7.20326L10.8408 6.9796C10.854 6.95936 10.8692 6.96138 10.8742 6.98567L10.9289 7.24577L10.9704 7.44818L11.0169 7.67083C11.0179 7.67378 11.0179 7.67698 11.0169 7.67994L10.9501 7.89652L10.856 8.20013C10.8196 8.31753 10.8823 8.37319 10.9947 8.32562L11.5402 8.09184C11.6694 8.0288 11.7797 7.9328 11.86 7.81353L12.9469 6.02422L13.0957 5.7783C13.1139 5.74793 13.1291 5.75198 13.1291 5.7874V6.87232C13.1291 6.87232 13.1291 6.87232 13.1291 6.87738L13.0724 7.09497L13.0167 7.30953C12.9851 7.4516 12.9826 7.59864 13.0096 7.74167L13.0754 8.03011C13.1134 8.16795 13.1887 8.29263 13.293 8.3904L14.7099 9.56741L14.9194 9.74148C14.9396 9.75869 14.9295 9.77387 14.9022 9.77387Z" fill="#FFEFDC"/>
<path d="M16.8888 9.75769H7.69431C7.6688 9.75769 7.64353 9.76272 7.61995 9.77248C7.59638 9.78225 7.57496 9.79656 7.55691 9.8146C7.53887 9.83265 7.52456 9.85407 7.51479 9.87764C7.50503 9.90122 7.5 9.92649 7.5 9.952C7.5 9.97752 7.50503 10.0028 7.51479 10.0264C7.52456 10.0499 7.53887 10.0714 7.55691 10.0894C7.57496 10.1074 7.59638 10.1218 7.61995 10.1315C7.64353 10.1413 7.6688 10.1463 7.69431 10.1463H8.44323L8.80959 11.6128C8.88954 11.9326 8.93509 11.9781 8.99378 11.9943L9.95624 12.2504L10.5392 14.3615C10.547 14.3895 10.5619 14.415 10.5825 14.4356C10.603 14.4562 10.6286 14.4711 10.6566 14.4789L11.4571 14.6975L12.2668 15.9251C12.282 15.9482 12.3028 15.9671 12.3271 15.9802C12.3515 15.9933 12.3788 16.0001 12.4064 16C12.4348 15.9994 12.4625 15.9916 12.4869 15.9772C12.5114 15.9629 12.5317 15.9425 12.5461 15.918L13.2758 14.6742C13.2795 14.668 13.2829 14.6616 13.2859 14.655L13.7838 13.478L14.6107 12.811C14.622 12.8015 14.6322 12.7906 14.641 12.7787L15.1147 12.1168L16.1672 10.2647L16.2016 10.1463H16.8888C16.9403 10.1463 16.9897 10.1258 17.0262 10.0894C17.0626 10.053 17.0831 10.0035 17.0831 9.952C17.0831 9.90047 17.0626 9.85104 17.0262 9.8146C16.9897 9.77816 16.9403 9.75769 16.8888 9.75769Z" fill="#FFA940"/>
<path d="M9.73053 10.2122C9.70331 10.2107 9.67611 10.2157 9.65122 10.2268C9.62632 10.2379 9.60444 10.2548 9.58741 10.2761C9.57037 10.2974 9.55868 10.3225 9.55329 10.3492C9.54791 10.3759 9.549 10.4035 9.55646 10.4298L9.6354 10.786C9.65404 10.8522 9.68576 10.914 9.7287 10.9677C9.77164 11.0214 9.82491 11.066 9.88538 11.0987L10.2295 11.2607C10.3527 11.3268 10.445 11.4388 10.4865 11.5724L10.9926 13.6036C11.0219 13.723 11.0421 13.7199 11.0371 13.5975L10.9248 10.787C10.9248 10.6646 10.9581 10.6555 11.0098 10.7668C11.0098 10.7668 11.617 12.0602 11.617 11.88C11.617 11.6999 11.9034 10.8194 11.9034 10.8194C11.9408 10.703 11.9965 10.705 12.0279 10.8194L12.706 13.3799C12.7373 13.4983 12.8213 13.5135 12.8922 13.4133L15.0529 10.3944C15.1237 10.2931 15.0823 10.2132 14.9588 10.2132L9.73053 10.2122Z" fill="#FFCA8A"/>
<path fill-rule="evenodd" clip-rule="evenodd" d="M22.3891 22.3891C23.4205 21.3576 24 19.9587 24 18.5C24 17.0413 23.4205 15.6424 22.3891 14.6109C21.3576 13.5795 19.9587 13 18.5 13C17.0413 13 15.6424 13.5795 14.6109 14.6109C13.5795 15.6424 13 17.0413 13 18.5C13 19.9587 13.5795 21.3576 14.6109 22.3891C15.6424 23.4205 17.0413 24 18.5 24C19.9587 24 21.3576 23.4205 22.3891 22.3891ZM16.5642 15.9663L18.5185 17.739L20.4756 15.9585C20.5817 15.8553 20.7414 15.8128 20.8922 15.8477C21.0429 15.8826 21.1606 15.9894 21.1991 16.1261C21.2376 16.2629 21.1908 16.4078 21.0769 16.504L18.5157 18.8273L15.9629 16.5117C15.8491 16.4155 15.8022 16.2706 15.8407 16.1338C15.8792 15.9971 15.9969 15.8903 16.1477 15.8554C16.2984 15.8205 16.4582 15.863 16.5642 15.9663ZM16.5642 18.8463L18.5185 20.619L20.4756 18.8385C20.5817 18.7353 20.7414 18.6928 20.8922 18.7277C21.0429 18.7626 21.1606 18.8694 21.1991 19.0061C21.2376 19.1429 21.1908 19.2878 21.0769 19.384L18.5157 21.7073L15.9629 19.3917C15.8491 19.2955 15.8022 19.1506 15.8407 19.0138C15.8792 18.8771 15.9969 18.7703 16.1477 18.7354C16.2984 18.7005 16.4582 18.743 16.5642 18.8463Z" fill="#FFA940"/>
</svg>
