<?xml version="1.0" encoding="UTF-8" standalone="no"?>
<!--

    Copyright (C) 2017-2019 Dremio Corporation

    Licensed under the Apache License, Version 2.0 (the "License");
    you may not use this file except in compliance with the License.
    You may obtain a copy of the License at

        http://www.apache.org/licenses/LICENSE-2.0

    Unless required by applicable law or agreed to in writing, software
    distributed under the License is distributed on an "AS IS" BASIS,
    WITHOUT WARRANTIES OR CONDITIONS OF ANY KIND, either express or implied.
    See the License for the specific language governing permissions and
    limitations under the License.

-->
<svg width="19" height="16" viewBox="0 0 19 16" fill="none" xmlns="http://www.w3.org/2000/svg">
<path d="M13.7393 3.99373H13.2393V4.49373V7.29069V7.79069H13.7393H15.9464C16.0845 7.79069 16.1964 7.90262 16.1964 8.04069C16.1964 8.17876 16.0845 8.29069 15.9464 8.29069H13.7393H13.2393V8.79069V12.096C13.2393 12.2341 13.1273 12.346 12.9893 12.346C12.8512 12.346 12.7393 12.2341 12.7393 12.096V3.90212C12.7393 3.89283 12.7397 3.88383 12.7407 3.87512L12.7461 3.82293L12.7407 3.77074C12.7397 3.76202 12.7393 3.75302 12.7393 3.74373C12.7393 3.60566 12.8512 3.49373 12.9893 3.49373H17.2607C17.3988 3.49373 17.5107 3.60566 17.5107 3.74373C17.5107 3.8818 17.3988 3.99373 17.2607 3.99373H13.7393ZM3.04069 4.54198L3.08636 4H2.54245H0.75C0.611929 4 0.5 3.88807 0.5 3.75C0.5 3.61193 0.611929 3.5 0.75 3.5L5.82949 3.5C5.96756 3.5 6.07949 3.61193 6.07949 3.75C6.07949 3.88807 5.96756 4 5.82949 4L4.0371 4H3.4932L3.53886 4.54198C3.53946 4.54908 3.53977 4.55636 3.53977 4.56382V12.1022C3.53977 12.2403 3.42785 12.3522 3.28978 12.3522C3.1517 12.3522 3.03978 12.2403 3.03978 12.1022V4.56382C3.03978 4.55635 3.04009 4.54907 3.04069 4.54198ZM9 0.5C9.13807 0.5 9.25 0.611929 9.25 0.75V15.25C9.25 15.3881 9.13807 15.5 9 15.5C8.86193 15.5 8.75 15.3881 8.75 15.25V0.75C8.75 0.611929 8.86193 0.5 9 0.5Z" fill="#505862" stroke="#505862"/>
</svg>
