<?xml version="1.0" encoding="UTF-8"?>
<!--

    Copyright (C) 2017-2019 Dremio Corporation

    Licensed under the Apache License, Version 2.0 (the "License");
    you may not use this file except in compliance with the License.
    You may obtain a copy of the License at

        http://www.apache.org/licenses/LICENSE-2.0

    Unless required by applicable law or agreed to in writing, software
    distributed under the License is distributed on an "AS IS" BASIS,
    WITHOUT WARRANTIES OR CONDITIONS OF ANY KIND, either express or implied.
    See the License for the specific language governing permissions and
    limitations under the License.

-->
<svg width="24px" height="24px" viewBox="0 0 24 24" version="1.1" xmlns="http://www.w3.org/2000/svg" xmlns:xlink="http://www.w3.org/1999/xlink">
    <defs>
        <rect id="path-1" x="0" y="0" width="1360" height="64"></rect>
        <filter x="-0.0%" y="-0.8%" width="100.1%" height="101.6%" filterUnits="objectBoundingBox" id="filter-2">
            <feOffset dx="0" dy="-1" in="SourceAlpha" result="shadowOffsetInner1"></feOffset>
            <feComposite in="shadowOffsetInner1" in2="SourceAlpha" operator="arithmetic" k2="-1" k3="1" result="shadowInnerInner1"></feComposite>
            <feColorMatrix values="0 0 0 0 0.91372549   0 0 0 0 0.929411765   0 0 0 0 0.941176471  0 0 0 1 0" type="matrix" in="shadowInnerInner1"></feColorMatrix>
        </filter>
    </defs>
    <g id="Spaces-(New)" stroke="none" stroke-width="1" fill="none" fill-rule="evenodd">
        <g id="Spaces/Explore" transform="translate(-860.000000, -84.000000)">
            <rect fill="#FFFFFF" x="0" y="0" width="1456" height="1024"></rect>
            <g id="Group" transform="translate(384.000000, 64.000000)"></g>
            <g id="Group-2" transform="translate(80.000000, 64.000000)">
                <g id="Rectangle" fill="black" fill-opacity="1">
                    <use filter="url(#filter-2)" xlink:href="#path-1"></use>
                </g>
                <g id="Explore-Tabs" transform="translate(361.000000, 8.000000)">
                    <g id="Explore/Tabs/Tab-off-Copy" transform="translate(411.000000, 0.000000)">
                        <g id="_Icon/Wiki" transform="translate(8.000000, 12.000000)">
                            <polygon id="Shape" points="0 0 24 0 24 24 0 24"></polygon>
                            <path d="M12,2 C17.514,2 22,6.486 22,12 C22,17.514 17.514,22 12,22 C6.486,22 2,17.514 2,12 C2,6.486 6.486,2 12,2 Z M12,3 C7.038,3 3,7.037 3,12 C3,16.963 7.038,21 12,21 C16.962,21 21,16.963 21,12 C21,7.037 16.962,3 12,3 Z M12,5.5 C12.276,5.5 12.5,5.724 12.5,6 L12.5,6 L12.5,12 C12.5,12.276 12.276,12.5 12,12.5 L12,12.5 L8,12.5 C7.724,12.5 7.5,12.276 7.5,12 C7.5,11.724 7.724,11.5 8,11.5 L8,11.5 L11.5,11.5 L11.5,6 C11.5,5.724 11.724,5.5 12,5.5 Z" id="Combined-Shape" fill="#31827A"></path>
                        </g>
                    </g>
                </g>
            </g>
        </g>
    </g>
</svg>