<?xml version="1.0" encoding="UTF-8" standalone="no"?>
<!--

    Copyright (C) 2017-2019 Dremio Corporation

    Licensed under the Apache License, Version 2.0 (the "License");
    you may not use this file except in compliance with the License.
    You may obtain a copy of the License at

        http://www.apache.org/licenses/LICENSE-2.0

    Unless required by applicable law or agreed to in writing, software
    distributed under the License is distributed on an "AS IS" BASIS,
    WITHOUT WARRANTIES OR CONDITIONS OF ANY KIND, either express or implied.
    See the License for the specific language governing permissions and
    limitations under the License.

-->
<svg width="24" height="24" viewBox="0 0 24 24" fill="none" xmlns="http://www.w3.org/2000/svg">
<path fill-rule="evenodd" clip-rule="evenodd" d="M4.774 4.22C4.315 4.707 4 5.31 4 6V18C4 18.69 4.315 19.293 4.774 19.78C5.229 20.263 5.853 20.663 6.567 20.983C7.996 21.623 9.917 22 12 22C12.2669 22 12.5312 21.9938 12.7921 21.9817C12.3727 21.5412 12.0144 21.042 11.731 20.4977C9.92019 20.4667 8.31892 20.1239 7.18 19.614C6.582 19.346 6.144 19.046 5.865 18.75C5.59 18.46 5.5 18.207 5.5 18V16.392C5.83729 16.6202 6.19439 16.8177 6.567 16.982C7.76804 17.5207 9.31664 17.873 11.0169 17.9717C11.0057 17.8159 11 17.6586 11 17.5C11 17.1505 11.0276 16.8074 11.0807 16.4728C9.53791 16.3809 8.18054 16.0619 7.18 15.614C6.582 15.346 6.144 15.046 5.865 14.75C5.59 14.46 5.5 14.207 5.5 14V12.392C5.83729 12.6202 6.19439 12.8177 6.567 12.982C7.996 13.623 9.917 14 12 14C12.0073 14 12.0146 14 12.0218 14C12.4029 13.4047 12.8784 12.8757 13.4271 12.434C12.9689 12.4771 12.4915 12.5 12 12.5C10.079 12.5 8.375 12.149 7.18 11.614C6.582 11.346 6.144 11.046 5.865 10.75C5.59 10.46 5.5 10.207 5.5 10V8.392C5.83729 8.62022 6.19439 8.81768 6.567 8.982C7.996 9.623 9.917 10 12 10C14.083 10 16.004 9.623 17.433 8.982C17.82 8.809 18.18 8.612 18.5 8.392V10C18.5 10.207 18.41 10.46 18.135 10.75C18.0536 10.8364 17.9586 10.9231 17.8501 11.0093C18.6085 11.0495 19.3324 11.2198 20 11.4982V6C20 5.31 19.685 4.707 19.226 4.22C18.771 3.738 18.147 3.338 17.433 3.018C16.004 2.377 14.083 2 12 2C9.917 2 7.996 2.377 6.567 3.018C5.853 3.337 5.229 3.738 4.774 4.22ZM5.865 6.75C5.59 6.46 5.5 6.207 5.5 6C5.5 5.793 5.59 5.54 5.865 5.25C6.144 4.954 6.582 4.654 7.18 4.386C8.375 3.85 10.079 3.5 12 3.5C13.92 3.5 15.625 3.851 16.82 4.386C17.418 4.654 17.856 4.954 18.135 5.25C18.41 5.54 18.5 5.793 18.5 6C18.5 6.207 18.41 6.46 18.135 6.75C17.856 7.046 17.418 7.346 16.82 7.614C15.625 8.15 13.921 8.5 12 8.5C10.079 8.5 8.375 8.149 7.18 7.614C6.582 7.346 6.144 7.046 5.865 6.75Z" fill="#FFA940"/>
<path fill-rule="evenodd" clip-rule="evenodd" d="M21.3891 21.3891C22.4205 20.3576 23 18.9587 23 17.5C23 16.0413 22.4205 14.6424 21.3891 13.6109C20.3576 12.5795 18.9587 12 17.5 12C16.0413 12 14.6424 12.5795 13.6109 13.6109C12.5795 14.6424 12 16.0413 12 17.5C12 18.9587 12.5795 20.3576 13.6109 21.3891C14.6424 22.4205 16.0413 23 17.5 23C18.9587 23 20.3576 22.4205 21.3891 21.3891ZM15.5642 14.9663L17.5185 16.739L19.4756 14.9585C19.5817 14.8553 19.7414 14.8128 19.8922 14.8477C20.0429 14.8826 20.1606 14.9894 20.1991 15.1261C20.2376 15.2629 20.1908 15.4078 20.0769 15.504L17.5157 17.8273L14.9629 15.5117C14.8491 15.4155 14.8022 15.2706 14.8407 15.1338C14.8792 14.9971 14.9969 14.8903 15.1477 14.8554C15.2984 14.8205 15.4582 14.863 15.5642 14.9663ZM15.5642 17.8463L17.5185 19.619L19.4756 17.8385C19.5817 17.7353 19.7414 17.6928 19.8922 17.7277C20.0429 17.7626 20.1606 17.8694 20.1991 18.0061C20.2376 18.1429 20.1908 18.2878 20.0769 18.384L17.5157 20.7073L14.9629 18.3917C14.8491 18.2955 14.8022 18.1506 14.8407 18.0138C14.8792 17.8771 14.9969 17.7703 15.1477 17.7354C15.2984 17.7005 15.4582 17.743 15.5642 17.8463Z" fill="#FFA940"/>
</svg>
