<?xml version="1.0" encoding="UTF-8" standalone="no"?>
<!--

    Copyright (C) 2017-2019 Dremio Corporation

    Licensed under the Apache License, Version 2.0 (the "License");
    you may not use this file except in compliance with the License.
    You may obtain a copy of the License at

        http://www.apache.org/licenses/LICENSE-2.0

    Unless required by applicable law or agreed to in writing, software
    distributed under the License is distributed on an "AS IS" BASIS,
    WITHOUT WARRANTIES OR CONDITIONS OF ANY KIND, either express or implied.
    See the License for the specific language governing permissions and
    limitations under the License.

-->
<svg width="20" height="18" viewBox="0 0 20 18" fill="none" xmlns="http://www.w3.org/2000/svg">
<path fill-rule="evenodd" clip-rule="evenodd" d="M6.08333 0.75C6.08333 0.335786 5.74755 0 5.33333 0C4.91912 0 4.58333 0.335786 4.58333 0.75V2H3.25C1.45507 2 0 3.45507 0 5.25V14.75C0 16.5449 1.45507 18 3.25 18H16.75C18.5449 18 20 16.5449 20 14.75V5.25C20 3.45508 18.5449 2 16.75 2H15.4167V0.75C15.4167 0.335786 15.0809 0 14.6667 0C14.2525 0 13.9167 0.335786 13.9167 0.75V2H6.08333V0.75ZM4.58333 3.5V4.75C4.58333 5.16421 4.91912 5.5 5.33333 5.5C5.74755 5.5 6.08333 5.16421 6.08333 4.75V3.5H13.9167V4.75C13.9167 5.16421 14.2525 5.5 14.6667 5.5C15.0809 5.5 15.4167 5.16421 15.4167 4.75V3.5H16.75C17.7165 3.5 18.5 4.2835 18.5 5.25V8.25L1.5 8.25V5.25C1.5 4.2835 2.2835 3.5 3.25 3.5H4.58333ZM1.5 9.75V14.75C1.5 15.7165 2.2835 16.5 3.25 16.5H16.75C17.7165 16.5 18.5 15.7165 18.5 14.75V9.75L1.5 9.75Z" fill="#505862"/>
</svg>
