<?xml version="1.0" encoding="UTF-8" standalone="no"?>
<!--

    Copyright (C) 2017-2019 Dremio Corporation

    Licensed under the Apache License, Version 2.0 (the "License");
    you may not use this file except in compliance with the License.
    You may obtain a copy of the License at

        http://www.apache.org/licenses/LICENSE-2.0

    Unless required by applicable law or agreed to in writing, software
    distributed under the License is distributed on an "AS IS" BASIS,
    WITHOUT WARRANTIES OR CONDITIONS OF ANY KIND, either express or implied.
    See the License for the specific language governing permissions and
    limitations under the License.

-->
<!DOCTYPE svg PUBLIC "-//W3C//DTD SVG 1.1//EN" "http://www.w3.org/Graphics/SVG/1.1/DTD/svg11.dtd">
<svg width="24" height="24" viewBox="0 0 24 24" fill="none" xmlns="http://www.w3.org/2000/svg">
<path fill-rule="evenodd" clip-rule="evenodd" d="M18.1562 6.51383C16.0889 4.37345 13.0276 3.51504 10.1489 4.26855C7.2702 5.02205 5.02205 7.2702 4.26855 10.1489C3.51504 13.0276 4.37345 16.0889 6.51383 18.1562C8.58108 20.2966 11.6424 21.155 14.5211 20.4015C17.3998 19.648 19.648 17.3998 20.4015 14.5211C21.155 11.6424 20.2966 8.58108 18.1562 6.51383ZM17.5778 17.5726C15.0795 20.0736 11.1624 20.4618 8.22193 18.4996C5.28143 16.5374 4.13638 12.7714 5.487 9.50452C6.83762 6.23764 10.3078 4.37968 13.7754 5.06681C17.243 5.75394 19.7425 8.79481 19.7453 12.3299C19.7519 14.2968 18.9714 16.1846 17.5778 17.5726ZM15.0885 9.57988C14.9197 9.41103 14.6453 9.41103 14.4765 9.57988L12.3341 11.7229L10.1918 9.57988C10.023 9.41103 9.74862 9.41103 9.57983 9.57988C9.41104 9.74872 9.41104 10.0232 9.57983 10.1921L11.7222 12.3351L9.57983 14.4782C9.41104 14.647 9.41104 14.9215 9.57983 15.0904C9.66466 15.1752 9.77546 15.2168 9.88625 15.2168C9.99705 15.2168 10.1078 15.1743 10.1927 15.0904L12.335 12.9473L14.4773 15.0904C14.5622 15.1752 14.673 15.2168 14.7838 15.2168C14.8946 15.2168 15.0054 15.1743 15.0902 15.0904C15.259 14.9215 15.259 14.647 15.0902 14.4782L12.9461 12.3351L15.0885 10.1921C15.2572 10.0232 15.2572 9.74959 15.0885 9.57988Z" fill="#6E7987"/>
</svg>
