<?xml version="1.0" encoding="UTF-8" standalone="no"?>
<!--

    Copyright (C) 2017-2019 Dremio Corporation

    Licensed under the Apache License, Version 2.0 (the "License");
    you may not use this file except in compliance with the License.
    You may obtain a copy of the License at

        http://www.apache.org/licenses/LICENSE-2.0

    Unless required by applicable law or agreed to in writing, software
    distributed under the License is distributed on an "AS IS" BASIS,
    WITHOUT WARRANTIES OR CONDITIONS OF ANY KIND, either express or implied.
    See the License for the specific language governing permissions and
    limitations under the License.

-->
<svg width="224" height="64" viewBox="0 0 224 64" fill="none" xmlns="http://www.w3.org/2000/svg">
<g clip-path="url(#clip0)">
<path d="M104.342 25.6972C104.354 25.9491 104.307 26.2003 104.207 26.4314C104.106 26.6626 103.954 26.8675 103.761 27.0304C103.382 27.3477 102.904 27.5216 102.41 27.5216C101.915 27.5216 101.437 27.3477 101.058 27.0304C100.875 26.8594 100.728 26.6524 100.629 26.4225C100.529 26.1926 100.477 25.9446 100.477 25.6939C100.477 25.4433 100.529 25.1953 100.629 24.9654C100.728 24.7355 100.875 24.5285 101.058 24.3575C101.439 24.0457 101.917 23.8754 102.41 23.8754C102.902 23.8754 103.38 24.0457 103.761 24.3575C103.954 24.5219 104.106 24.728 104.206 24.9602C104.307 25.1924 104.353 25.4445 104.342 25.6972" fill="white"/>
<path d="M104.038 29.0532H100.805V39.9567H104.038V29.0532Z" fill="white"/>
<path d="M68.2925 31.5909C68.0001 31.5189 67.6379 31.4469 67.2517 31.3727C66.8249 31.2942 66.3916 31.2569 65.9578 31.2614C65.7112 31.2637 65.465 31.2798 65.2202 31.3094C64.9991 31.3314 64.7802 31.3716 64.5656 31.4294V39.9655H61.2555V29.3848C61.944 29.1576 62.6448 28.9697 63.3546 28.8219C64.2415 28.6375 65.1457 28.549 66.0516 28.5579C66.2283 28.5579 66.4465 28.5579 66.7062 28.5884C66.9659 28.619 67.2102 28.6364 67.4612 28.6691C67.7121 28.7019 67.9652 28.7499 68.2183 28.7979C68.4362 28.8378 68.6497 28.8992 68.8555 28.9812L68.3012 31.5996" fill="white"/>
<path d="M117.56 34.3533C117.568 35.1709 117.432 35.9835 117.157 36.7535C116.907 37.4517 116.512 38.089 115.998 38.6235C115.487 39.1457 114.871 39.5539 114.191 39.8215C113.437 40.1171 112.634 40.2652 111.824 40.2579C111.022 40.2637 110.226 40.1155 109.48 39.8215C108.799 39.5561 108.183 39.1476 107.674 38.6235C107.159 38.0852 106.757 37.4494 106.491 36.7535C106.206 35.9857 106.063 35.1723 106.07 34.3533C106.057 33.5324 106.205 32.7169 106.506 31.9531C106.771 31.2661 107.176 30.6416 107.694 30.1192C108.213 29.5967 108.835 29.1877 109.52 28.9179C111.01 28.3505 112.657 28.3505 114.148 28.9179C114.831 29.1846 115.449 29.593 115.963 30.1161C116.477 30.6393 116.874 31.2654 117.128 31.9531C117.425 32.7181 117.573 33.5328 117.565 34.3533H117.56ZM114.18 34.3533C114.18 33.3736 113.978 32.6077 113.574 32.0491C113.376 31.7745 113.113 31.5537 112.808 31.4066C112.503 31.2596 112.166 31.1909 111.828 31.2068C111.489 31.1918 111.151 31.2608 110.844 31.4077C110.538 31.5547 110.273 31.775 110.072 32.0491C109.661 32.6033 109.452 33.3736 109.452 34.3533C109.452 35.333 109.67 36.0989 110.072 36.6728C110.268 36.9525 110.532 37.1779 110.84 37.3282C111.147 37.4785 111.487 37.5488 111.828 37.5325C112.168 37.5496 112.507 37.4796 112.813 37.3291C113.118 37.1787 113.38 36.9528 113.574 36.6728C113.973 36.1033 114.178 35.3243 114.178 34.3533H114.18Z" fill="white"/>
<path d="M69.5166 34.458C69.4974 33.5673 69.6607 32.6822 69.9967 31.8571C70.2692 31.176 70.6801 30.5589 71.2033 30.0448C71.7264 29.5306 72.3506 29.1306 73.0362 28.8699C73.7 28.6217 74.4027 28.4939 75.1113 28.4924C76.774 28.4924 78.0832 28.9768 79.039 29.9456C80.0056 30.9166 80.4835 32.3458 80.4835 34.2245C80.4835 34.41 80.4835 34.6108 80.4682 34.8268C80.4529 35.0428 80.4333 35.2457 80.4158 35.4137H72.9097C72.9426 35.7271 73.0456 36.0291 73.2111 36.2972C73.3765 36.5654 73.6001 36.7929 73.8654 36.963C74.4283 37.3492 75.1855 37.5325 76.1347 37.5325C76.7337 37.5344 77.3317 37.4833 77.9218 37.3797C78.4092 37.2959 78.8872 37.1644 79.3488 36.987L79.7961 39.5574C79.567 39.6579 79.3307 39.7411 79.0891 39.8062C78.7629 39.8958 78.4322 39.9686 78.0985 40.0244C77.7385 40.0876 77.3435 40.1444 76.9311 40.1836C76.5187 40.2229 76.0998 40.2491 75.6896 40.2491C74.7531 40.2698 73.8207 40.1197 72.938 39.8062C72.2145 39.5423 71.5561 39.1263 71.0069 38.5864C70.4942 38.0706 70.1061 37.4444 69.8723 36.7557C69.6252 36.0151 69.5028 35.2387 69.5101 34.458H69.5166ZM77.2802 33.2448C77.27 32.9774 77.2215 32.7129 77.1362 32.4593C77.0547 32.2052 76.9218 31.9707 76.7458 31.7702C76.5697 31.5698 76.3543 31.4077 76.1129 31.2941C75.8099 31.1558 75.479 31.0901 75.1462 31.1021C74.8201 31.0937 74.4961 31.157 74.197 31.2875C73.9427 31.3972 73.7138 31.5584 73.525 31.761C73.3473 31.9639 73.2083 32.1976 73.1148 32.4506C73.023 32.7097 72.95 32.9751 72.8966 33.2448H77.2802Z" fill="white"/>
<path d="M88.7425 34.0435C88.7425 33.0245 88.6072 32.2979 88.3301 31.8767C88.053 31.4556 87.5817 31.2418 86.9205 31.2418C86.7023 31.2418 86.4994 31.2418 86.2659 31.2723C86.0324 31.3029 85.8295 31.3225 85.6266 31.3465V39.9699H82.3208V29.1667C82.6066 29.0946 82.934 29.0226 83.3114 28.9485C83.6889 28.8743 84.0926 28.8044 84.5137 28.7302C84.9349 28.6561 85.3691 28.619 85.8229 28.5862C86.2768 28.5535 86.6958 28.5295 87.1322 28.5295C87.8279 28.5078 88.5219 28.6113 89.1811 28.835C89.6559 29.0064 90.0984 29.2565 90.4903 29.5747C90.992 29.2324 91.5452 28.9723 92.129 28.8044C92.6783 28.6299 93.2503 28.5373 93.8266 28.5295C94.6099 28.5038 95.3909 28.6298 96.1265 28.9004C96.6858 29.1216 97.1782 29.4839 97.5557 29.9522C97.9226 30.4256 98.1751 30.9775 98.2932 31.5647C98.4269 32.2497 98.492 32.9463 98.4874 33.6442V39.9568H95.1576V34.0435C95.1576 33.0245 95.0245 32.2979 94.7474 31.8767C94.4703 31.4556 94.0077 31.2418 93.3356 31.2418C93.0845 31.2525 92.8359 31.2957 92.5959 31.3705C92.3189 31.4333 92.0532 31.5386 91.8082 31.6825C91.9096 32.0204 91.9768 32.3677 92.009 32.719C92.033 33.079 92.0504 33.4652 92.0504 33.8755V39.9699H88.7425V34.0435Z" fill="white"/>
<path d="M55.519 24.7328V29.0379C55.165 28.8902 54.8003 28.7699 54.4279 28.6779C54.0219 28.593 53.6077 28.5528 53.1929 28.5579C52.4372 28.5398 51.6857 28.6765 50.9847 28.9594C50.3549 29.2132 49.7935 29.6116 49.346 30.1224C48.8842 30.6678 48.5389 31.302 48.3314 31.9858C48.0831 32.7779 47.9608 33.604 47.9691 34.4341C47.9614 35.2524 48.1011 36.0654 48.3815 36.8343C48.6415 37.5235 49.048 38.1481 49.5729 38.665C50.1186 39.1825 50.7689 39.5768 51.48 39.8215C52.31 40.1039 53.1827 40.2397 54.0592 40.223C54.4607 40.223 54.8818 40.2055 55.3182 40.175C55.7546 40.1444 56.191 40.0942 56.6034 40.0288C57.0158 39.9633 57.426 39.9088 57.8123 39.828C58.158 39.7656 58.5003 39.6855 58.8378 39.588V23.8752L55.519 24.7328ZM55.519 37.4278C55.3134 37.4652 55.1057 37.4899 54.8971 37.502C54.6461 37.526 54.369 37.5325 54.0744 37.5325C53.1667 37.5325 52.4881 37.2358 52.0255 36.6423C51.5629 36.0488 51.336 35.261 51.336 34.29C51.336 32.2535 52.123 31.2352 53.697 31.2352C54.0372 31.2339 54.3761 31.2772 54.7051 31.3639C54.9901 31.4279 55.2642 31.533 55.519 31.676V37.4278Z" fill="white"/>

<path fill-rule="evenodd" clip-rule="evenodd" d="M33.007 33.9256C32.3655 35.6014 30.4934 36.4001 29.9719 36.1077C29.7122 35.9658 29.9937 35.4378 30.0024 35.0712C29.6227 35.2196 28.9943 35.4967 28.6146 35.6538C29.5245 36.3324 29.9937 37.502 29.9871 38.6126C29.997 39.1696 29.8813 39.7217 29.6486 40.2279C29.416 40.7341 29.0722 41.1814 28.643 41.5365C30.2097 43.856 29.4133 45.8548 27.2574 47.4127L27.1221 47.5022L27.0785 47.3451C26.7577 46.241 26.3541 45.3093 25.5947 44.4299C25.2129 43.9935 24.7808 43.5876 24.3553 43.184C23.7967 42.6559 23.2643 42.1191 22.7537 41.5453C20.6197 39.2781 19.7774 35.3483 20.0524 32.3153C20.2032 30.7567 20.6624 29.2436 21.4031 27.864C21.9889 26.7624 22.7191 25.7439 23.5742 24.8353C25.4888 22.7844 27.9087 21.2727 30.5915 20.4517C32.9176 19.76 35.5796 19.6399 37.7922 20.7811C38.2116 20.9987 38.611 21.2528 38.9858 21.5405C39.1713 21.7129 39.3589 21.8918 39.5378 22.062C39.5613 22.0783 39.5813 22.0991 39.5968 22.1231L49.9548 16.836C50.8124 16.4105 51.4539 16.4105 51.7157 16.716C52.0212 17.0739 51.5957 17.8201 50.9913 18.2609L42.117 24.7022C42.2741 25.2172 42.0123 25.9613 41.6239 26.402C42.8109 26.8123 41.7657 28.5491 41.2442 29.1688C39.7604 30.9275 37.0394 32.3066 34.6152 33.3147C33.9606 33.5918 33.594 33.7118 33.0114 33.9278L33.007 33.9256ZM27.2247 36.28C26.2559 36.7164 24.3684 37.7049 24.5473 38.7719C24.7939 39.4265 25.562 38.7326 25.8566 38.4577C26.4751 37.8476 26.9435 37.1021 27.2247 36.28Z" fill="#383C42"/>
<path fill-rule="evenodd" clip-rule="evenodd" d="M41.1329 27.8487C41.7875 27.013 41.3336 26.5286 40.8711 26.9977C39.9611 27.9294 38.5821 28.2502 37.3384 28.0494C35.5164 27.744 35.4356 27.4668 35.7411 27.1984C37.8882 27.9818 40.3866 26.9606 41.4144 25.2674C41.8617 24.628 40.3626 24.1131 39.4767 22.913C35.2327 17.1873 21.9507 22.182 20.683 32.1953C20.2946 35.2065 21.139 38.5406 23.2119 40.8885C24.7634 42.6472 26.4479 43.3781 27.4014 46.1449C29.2605 44.5499 28.9681 42.7454 27.6196 41.1634C29.9391 39.9567 29.6031 36.8168 27.9709 35.8633C27.2094 38.6584 24.4797 40.7248 23.8469 38.7413C23.4367 36.7208 26.7621 35.3788 32.095 33.3583C36.555 31.6869 39.4331 30.3035 41.1329 27.8487" fill="#54BFCE"/>
<path fill-rule="evenodd" clip-rule="evenodd" d="M41.133 27.8487C41.7876 27.013 41.3337 26.5286 40.8711 26.9977C40.09 27.8029 38.9073 28.1542 37.8359 28.1018C36.003 27.9665 34.5411 27.6087 33.1991 27.7505C30.5589 28.0189 27.9863 29.6903 26.6072 31.0977C24.279 33.4849 21.713 38.4359 24.3008 39.3894C24.0773 39.2313 23.9167 38.9996 23.847 38.7348C23.4368 36.7143 26.7622 35.3723 32.095 33.3518C36.5551 31.6803 39.4332 30.2969 41.133 27.8422" fill="white"/>
<path fill-rule="evenodd" clip-rule="evenodd" d="M29.7165 31.7545C31.0868 32.4266 30.8075 34.781 30.6112 35.3723C33.2121 34.6326 32.4375 30.7901 33.6463 29.6009C32.132 29.555 29.2976 31.0759 29.7187 31.7545" fill="#54BFCE"/>
<path fill-rule="evenodd" clip-rule="evenodd" d="M34.1155 24.7764C34.2032 24.7294 34.2993 24.7001 34.3983 24.6903C34.4973 24.6804 34.5972 24.6901 34.6925 24.7189C34.7877 24.7477 34.8763 24.7949 34.9533 24.8579C35.0303 24.921 35.0941 24.9985 35.1411 25.0862C35.1881 25.1739 35.2173 25.27 35.2272 25.369C35.237 25.468 35.2273 25.5679 35.1985 25.6632C35.1698 25.7584 35.1225 25.847 35.0595 25.924C34.9965 26.001 34.9189 26.0648 34.8312 26.1118C34.6541 26.2067 34.4466 26.2274 34.2543 26.1692C34.0619 26.1111 33.9006 25.979 33.8057 25.8019C33.7108 25.6248 33.6901 25.4173 33.7482 25.225C33.8063 25.0327 33.9384 24.8713 34.1155 24.7764" fill="#383C42"/>
<path fill-rule="evenodd" clip-rule="evenodd" d="M40.4259 25.0972L50.8647 17.8267C51.1571 17.6085 51.5455 17.1721 51.3884 16.9539C51.2312 16.7357 50.7752 16.8557 50.389 17.0281L39.097 23.1377C38.7326 23.8971 39.4702 25.5009 40.4259 25.1015" fill="#54BFCE"/>
<path fill-rule="evenodd" clip-rule="evenodd" d="M39.5139 23.6571L50.424 17.2397C50.707 17.0487 51.0384 16.942 51.3797 16.9321C51.2161 16.7466 50.7688 16.8579 50.3956 17.0303L39.1037 23.1399C38.8287 23.7138 39.1866 24.7808 39.791 25.0863C39.559 24.6518 39.4625 24.1578 39.5139 23.668" fill="white"/>
<path fill-rule="evenodd" clip-rule="evenodd" d="M23.4432 26.5133C23.5216 26.498 23.6025 26.501 23.6795 26.522C23.7565 26.543 23.8277 26.5815 23.8874 26.6345C23.9472 26.6874 23.9939 26.7535 24.0239 26.8275C24.054 26.9014 24.0666 26.9814 24.0608 27.061C24.0559 27.2446 23.9883 27.4209 23.8692 27.5607C23.7501 27.7005 23.5866 27.7952 23.4062 27.8291C23.3279 27.8452 23.2469 27.843 23.1696 27.8224C23.0923 27.8019 23.0209 27.7636 22.961 27.7107C22.9011 27.6578 22.8543 27.5916 22.8244 27.5175C22.7945 27.4433 22.7822 27.3632 22.7886 27.2836C22.7943 27.1019 22.8602 26.9272 22.9759 26.787C23.0916 26.6468 23.2506 26.549 23.428 26.5089" fill="#24ABAD"/>
<path fill-rule="evenodd" clip-rule="evenodd" d="M25.562 24.1807C25.6318 24.1659 25.704 24.1676 25.773 24.1856C25.842 24.2036 25.9059 24.2375 25.9595 24.2845C26.0131 24.3316 26.055 24.3905 26.0818 24.4565C26.1086 24.5226 26.1197 24.594 26.114 24.6651C26.1073 24.8266 26.0474 24.9814 25.9436 25.1053C25.8398 25.2292 25.698 25.3153 25.5402 25.3503C25.4704 25.3656 25.3979 25.3643 25.3287 25.3465C25.2595 25.3286 25.1954 25.2948 25.1417 25.2476C25.088 25.2005 25.0461 25.1414 25.0194 25.0751C24.9927 25.0087 24.982 24.9371 24.9881 24.8659C24.9952 24.7045 25.0553 24.55 25.159 24.4261C25.2627 24.3023 25.4044 24.216 25.562 24.1807" fill="#24ABAD"/>
<path fill-rule="evenodd" clip-rule="evenodd" d="M31.9684 21.0932C32.0406 21.0923 32.112 21.1087 32.1765 21.141C32.2411 21.1733 32.2971 21.2205 32.3398 21.2788C32.3825 21.337 32.4106 21.4046 32.4219 21.476C32.4332 21.5473 32.4274 21.6203 32.4048 21.6889C32.3631 21.8445 32.2707 21.9817 32.1423 22.0789C32.0138 22.1761 31.8567 22.2278 31.6956 22.2257C31.6239 22.2251 31.5533 22.2078 31.4895 22.1751C31.4256 22.1424 31.3703 22.0952 31.3279 22.0374C31.2855 21.9795 31.2572 21.9125 31.2453 21.8418C31.2334 21.7711 31.2381 21.6985 31.2592 21.63C31.3013 21.4746 31.3937 21.3375 31.5221 21.2404C31.6504 21.1432 31.8074 21.0915 31.9684 21.0932" fill="#24ABAD"/>
<path fill-rule="evenodd" clip-rule="evenodd" d="M33.93 20.7724C33.9891 20.7829 34.045 20.807 34.0933 20.8427C34.1415 20.8784 34.1808 20.9249 34.2081 20.9784C34.2354 21.0319 34.2499 21.091 34.2505 21.151C34.2511 21.2111 34.2377 21.2704 34.2115 21.3244C34.1558 21.4466 34.0617 21.5471 33.9434 21.6105C33.8252 21.674 33.6894 21.6969 33.5569 21.6757C33.4976 21.6655 33.4414 21.6417 33.3929 21.6061C33.3444 21.5704 33.3048 21.524 33.2773 21.4705C33.2498 21.417 33.2351 21.3578 33.2344 21.2976C33.2337 21.2374 33.247 21.1779 33.2732 21.1237C33.3291 21.0018 33.4233 20.9015 33.5415 20.8381C33.6597 20.7747 33.7953 20.7516 33.9278 20.7724" fill="#24ABAD"/>
<path fill-rule="evenodd" clip-rule="evenodd" d="M25.5882 25.6405C25.6405 25.6302 25.6945 25.6321 25.7459 25.6462C25.7973 25.6603 25.8448 25.6861 25.8845 25.7217C25.9243 25.7572 25.9553 25.8014 25.975 25.851C25.9948 25.9005 26.0028 25.9539 25.9984 26.0071C25.9941 26.1278 25.9484 26.2434 25.869 26.3344C25.7895 26.4254 25.6811 26.4863 25.562 26.5067C25.5104 26.5177 25.4569 26.5165 25.4057 26.5032C25.3546 26.49 25.3073 26.465 25.2675 26.4303C25.2277 26.3956 25.1965 26.3521 25.1765 26.3032C25.1564 26.2544 25.1479 26.2016 25.1518 26.1489C25.1581 26.0295 25.203 25.9154 25.2797 25.8237C25.3565 25.732 25.4609 25.6677 25.5773 25.6405" fill="#24ABAD"/>
<path fill-rule="evenodd" clip-rule="evenodd" d="M22.2802 28.3855C22.3341 28.3731 22.3901 28.3737 22.4436 28.3873C22.4972 28.4008 22.5468 28.4269 22.5883 28.4633C22.6299 28.4997 22.6622 28.5455 22.6826 28.5968C22.703 28.6481 22.7109 28.7036 22.7057 28.7586C22.7027 28.8828 22.658 29.0023 22.5789 29.0981C22.4997 29.1939 22.3907 29.2603 22.2693 29.2866C22.215 29.2985 22.1586 29.2977 22.1047 29.2841C22.0507 29.2706 22.0006 29.2447 21.9583 29.2086C21.9161 29.1724 21.8827 29.127 21.861 29.0758C21.8392 29.0246 21.8296 28.969 21.8329 28.9135C21.8369 28.7879 21.8833 28.6674 21.9645 28.5715C22.0457 28.4756 22.157 28.41 22.2802 28.3855" fill="#24ABAD"/>
<path fill-rule="evenodd" clip-rule="evenodd" d="M49.4551 17.5364L49.1714 17.6935C49.2405 18.0355 49.4245 18.3435 49.6929 18.5664C49.544 18.2429 49.463 17.8924 49.4551 17.5364ZM46.9719 18.8718L46.6446 19.0508C46.6446 19.4675 46.9436 20.0938 47.2862 20.1832C47.0512 19.7879 46.9417 19.3307 46.9719 18.8718ZM44.3993 20.2661L43.976 20.4974C44.0284 21.1302 44.5499 21.8918 44.8096 21.9354C44.5333 21.4231 44.3942 20.8481 44.4059 20.2661H44.3993ZM41.7984 21.6757L41.314 21.9354C41.3511 22.6446 41.9315 23.5021 42.3482 23.6439C42.0275 23.1442 41.7351 22.278 41.8049 21.6757H41.7984Z" fill="#24ABAD"/>
</g>
<defs>
<clipPath id="clip0">
<rect width="97.5604" height="31" fill="white" transform="translate(20 16.5)"/>
</clipPath>
</defs>
</svg>
