<?xml version="1.0" encoding="UTF-8" standalone="no"?>
<!--

    Copyright (C) 2017-2019 Dremio Corporation

    Licensed under the Apache License, Version 2.0 (the "License");
    you may not use this file except in compliance with the License.
    You may obtain a copy of the License at

        http://www.apache.org/licenses/LICENSE-2.0

    Unless required by applicable law or agreed to in writing, software
    distributed under the License is distributed on an "AS IS" BASIS,
    WITHOUT WARRANTIES OR CONDITIONS OF ANY KIND, either express or implied.
    See the License for the specific language governing permissions and
    limitations under the License.

-->
<svg width="24" height="24" viewBox="2 0 24 24" fill="none" xmlns="http://www.w3.org/2000/svg">
<path fill-rule="evenodd" clip-rule="evenodd" d="M15.854 2.146C15.76 2.053 15.633 2 15.5 2H6.5C5.122 2 4 3.121 4 4.5V19.5C4 20.879 5.122 22 6.5 22H17.5C18.878 22 20 20.879 20 19.5V6.5C20 6.367 19.947 6.24 19.854 6.146L15.854 2.146Z" fill="white" stroke="#6E7987"/>
<path fill-rule="evenodd" clip-rule="evenodd" d="M6.5 7.5H8.5V9.5H6.5V7.5ZM9.5 7.5H11.5V9.5H9.5V7.5ZM14.5 7.5H12.5V9.5H14.5V7.5ZM15.5 7.5H17.5V9.5H15.5V7.5ZM6.5 10.5H8.5V12.5H6.5V10.5ZM9.5 10.5H11.5V12.5H9.5V10.5ZM14.5 10.5H12.5V12.5H14.5V10.5ZM15.5 10.5H17.5V12.5H15.5V10.5ZM8.5 13.5H6.5V15.5H8.5V13.5ZM11.5 13.5H9.5V15.5H11.5V13.5ZM12.5 13.5H14.5V15.5H12.5V13.5ZM17.5 13.5H15.5V15.5H17.5V13.5ZM6.5 16.5H8.5V18.5H6.5V16.5ZM9.5 16.5H11.5V18.5H9.5V16.5ZM14.5 16.5H12.5V18.5H14.5V16.5ZM15.5 16.5H17.5V18.5H15.5V16.5Z" fill="#E9EDF0"/>
</svg>
