<?xml version="1.0" encoding="UTF-8" standalone="no"?>
<!--

    Copyright (C) 2017-2018 Dremio Corporation

    Licensed under the Apache License, Version 2.0 (the "License");
    you may not use this file except in compliance with the License.
    You may obtain a copy of the License at

        http://www.apache.org/licenses/LICENSE-2.0

    Unless required by applicable law or agreed to in writing, software
    distributed under the License is distributed on an "AS IS" BASIS,
    WITHOUT WARRANTIES OR CONDITIONS OF ANY KIND, either express or implied.
    See the License for the specific language governing permissions and
    limitations under the License.

-->
<svg width="43px" height="38px" viewBox="0 0 43 38" version="1.1" xmlns="http://www.w3.org/2000/svg" xmlns:xlink="http://www.w3.org/1999/xlink">
    <!-- Generator: Sketch 41.2 (35397) - http://www.bohemiancoding.com/sketch -->
    <title>Icon/File-Large</title>
    <desc>Created with Sketch.</desc>
    <defs></defs>
    <g id="Elements" stroke="none" stroke-width="1" fill="none" fill-rule="evenodd">
        <g id="Icon/File-Large">
            <g>
                <g id="icon-box-24-copy-13">
                    <rect id="icon-box-24" x="0" y="0" width="43" height="38"></rect>
                </g>
                <g id="Group-2" transform="translate(9.000000, 7.000000)">
                    <polygon id="icon-box-24" fill="#A672BB" points="0 0 17 0 23 6 23 25 0 25"></polygon>
                    <path d="M15,17 L20,17 L20,20 L15,20 L15,17 Z M9,17 L14,17 L14,20 L9,20 L9,17 Z M3,17 L8,17 L8,20 L3,20 L3,17 Z M15,13 L20,13 L20,16 L15,16 L15,13 Z M9,13 L14,13 L14,16 L9,16 L9,13 Z M3,13 L8,13 L8,16 L3,16 L3,13 Z M15,9 L20,9 L20,12 L15,12 L15,9 Z M9,9 L14,9 L14,12 L9,12 L9,9 Z M3,9 L8,9 L8,12 L3,12 L3,9 Z M9,5 L14,5 L14,8 L9,8 L9,5 Z M3,5 L8,5 L8,8 L3,8 L3,5 Z" id="Combined-Shape" fill="#FFFFFF"></path>
                </g>
            </g>
            <polygon id="Triangle" fill-opacity="0.6" fill="#FFFFFF" transform="translate(29.000000, 10.000000) rotate(180.000000) translate(-29.000000, -10.000000) " points="32 7 32 13 26 7"></polygon>
        </g>
    </g>
</svg>
