<?xml version="1.0" encoding="UTF-8" standalone="no"?>
<!--

    Copyright (C) 2017-2018 Dremio Corporation

    Licensed under the Apache License, Version 2.0 (the "License");
    you may not use this file except in compliance with the License.
    You may obtain a copy of the License at

        http://www.apache.org/licenses/LICENSE-2.0

    Unless required by applicable law or agreed to in writing, software
    distributed under the License is distributed on an "AS IS" BASIS,
    WITHOUT WARRANTIES OR CONDITIONS OF ANY KIND, either express or implied.
    See the License for the specific language governing permissions and
    limitations under the License.

-->
<svg width="55px" height="24px" viewBox="0 0 55 24" version="1.1" xmlns="http://www.w3.org/2000/svg" xmlns:xlink="http://www.w3.org/1999/xlink">
    <!-- Generator: Sketch 3.8.3 (29802) - http://www.bohemiancoding.com/sketch -->
    <title>Slice 1</title>
    <desc>Created with Sketch.</desc>
    <defs></defs>
    <g id="Page-1" stroke="none" stroke-width="1" fill="none" fill-rule="evenodd">
        <g id="Group-2">
            <g id="Folders">
                <g id="FolderData" transform="translate(31.000000, 0.000000)">
                    <g id="Icon/FolderData">
                        <g id="Icons">
                            <g id="Icon/FolderData">
                                <g id="Group">
                                    <g id="icon-box-24-copy-12">
                                        <rect id="icon-box-24" x="0" y="0" width="24" height="24"></rect>
                                    </g>
                                    <g id="Stroke-3409" transform="translate(4.000000, 4.000000)" stroke="#77818F">
                                        <polygon id="Shape" points="4.94444444 0.5 0.5 0.5 0.5 15.5 16.5 15.5 16.5 2.51680672 6.72222222 2.51680672"></polygon>
                                    </g>
                                    <g transform="translate(7.000000, 9.000000)" id="Rectangle-125" fill="#77818F">
                                        <path d="M0,0 L3,0 L3,2 L0,2 L0,0 L0,0 Z M4,0 L7,0 L7,2 L4,2 L4,0 L4,0 Z M8,0 L11,0 L11,2 L8,2 L8,0 L8,0 Z M0,3 L3,3 L3,5 L0,5 L0,3 L0,3 Z M4,3 L7,3 L7,5 L4,5 L4,3 L4,3 Z M8,3 L11,3 L11,5 L8,5 L8,3 L8,3 Z M0,6 L3,6 L3,8 L0,8 L0,6 L0,6 Z M4,6 L7,6 L7,8 L4,8 L4,6 L4,6 Z M8,6 L11,6 L11,8 L8,8 L8,6 L8,6 Z"></path>
                                    </g>
                                </g>
                            </g>
                        </g>
                    </g>
                </g>
                <g id="Icon/FolderData">
                    <g id="Icons">
                        <g id="Icon/FolderData">
                            <g id="Group">
                                <g id="icon-box-24-copy-12">
                                    <rect id="icon-box-24" x="0" y="0" width="24" height="24"></rect>
                                </g>
                                <g id="Stroke-3409" transform="translate(4.000000, 4.000000)" stroke="#77818F">
                                    <polygon id="Shape" points="4.94444444 0.5 0.5 0.5 0.5 15.5 16.5 15.5 16.5 2.51680672 6.72222222 2.51680672"></polygon>
                                </g>
                            </g>
                        </g>
                    </g>
                </g>
                <g id="Arrow-Right" transform="translate(28.000000, 12.000000) scale(-1, 1) translate(-28.000000, -12.000000) translate(16.000000, 0.000000)">
                    <g id="Icon/Arrow-Right">
                        <g id="Icons">
                            <g id="Icon/Arrow-Right">
                                <g id="Group">
                                    <g id="icon-box-24-copy-14">
                                        <rect id="icon-box-24" x="0" y="0" width="24" height="24"></rect>
                                    </g>
                                    <polygon id="Fill-123" fill="#77818F" transform="translate(12.000000, 12.500000) rotate(90.000000) translate(-12.000000, -12.500000) " points="12 14.5 8.5 11.0754986 9.08818636 10.5 12 13.3490028 14.9118136 10.5 15.5 11.0754986"></polygon>
                                </g>
                            </g>
                        </g>
                    </g>
                </g>
            </g>
        </g>
        <g id="Group-2-Copy">
            <g id="Folders">
                <g id="FolderData" transform="translate(31.000000, 0.000000)">
                    <g id="Icon/FolderData">
                        <g id="Icons">
                            <g id="Icon/FolderData">
                                <g id="Group">
                                    <g id="icon-box-24-copy-12">
                                        <rect id="icon-box-24" x="0" y="0" width="24" height="24"></rect>
                                    </g>
                                    <g id="Stroke-3409" transform="translate(4.000000, 4.000000)" stroke="#77818F">
                                        <polygon id="Shape" points="4.94444444 0.5 0.5 0.5 0.5 15.5 16.5 15.5 16.5 2.51680672 6.72222222 2.51680672"></polygon>
                                    </g>
                                    <g transform="translate(7.000000, 9.000000)" id="Rectangle-125" fill="#77818F">
                                        <path d="M0,0 L3,0 L3,2 L0,2 L0,0 L0,0 Z M4,0 L7,0 L7,2 L4,2 L4,0 L4,0 Z M8,0 L11,0 L11,2 L8,2 L8,0 L8,0 Z M0,3 L3,3 L3,5 L0,5 L0,3 L0,3 Z M4,3 L7,3 L7,5 L4,5 L4,3 L4,3 Z M8,3 L11,3 L11,5 L8,5 L8,3 L8,3 Z M0,6 L3,6 L3,8 L0,8 L0,6 L0,6 Z M4,6 L7,6 L7,8 L4,8 L4,6 L4,6 Z M8,6 L11,6 L11,8 L8,8 L8,6 L8,6 Z"></path>
                                    </g>
                                </g>
                            </g>
                        </g>
                    </g>
                </g>
                <g id="Icon/FolderData">
                    <g id="Icons">
                        <g id="Icon/FolderData">
                            <g id="Group">
                                <g id="icon-box-24-copy-12">
                                    <rect id="icon-box-24" x="0" y="0" width="24" height="24"></rect>
                                </g>
                                <g id="Stroke-3409" transform="translate(4.000000, 4.000000)" stroke="#77818F">
                                    <polygon id="Shape" points="4.94444444 0.5 0.5 0.5 0.5 15.5 16.5 15.5 16.5 2.51680672 6.72222222 2.51680672"></polygon>
                                </g>
                            </g>
                        </g>
                    </g>
                </g>
                <g id="Arrow-Right" transform="translate(28.000000, 12.000000) scale(-1, 1) translate(-28.000000, -12.000000) translate(16.000000, 0.000000)">
                    <g id="Icon/Arrow-Right">
                        <g id="Icons">
                            <g id="Icon/Arrow-Right">
                                <g id="Group">
                                    <g id="icon-box-24-copy-14">
                                        <rect id="icon-box-24" x="0" y="0" width="24" height="24"></rect>
                                    </g>
                                    <polygon id="Fill-123" fill="#77818F" transform="translate(12.000000, 12.500000) rotate(90.000000) translate(-12.000000, -12.500000) " points="12 14.5 8.5 11.0754986 9.08818636 10.5 12 13.3490028 14.9118136 10.5 15.5 11.0754986"></polygon>
                                </g>
                            </g>
                        </g>
                    </g>
                </g>
            </g>
        </g>
    </g>
</svg>
