<?xml version="1.0" encoding="UTF-8" standalone="no"?>
<!--

    Copyright (C) 2017-2019 Dremio Corporation

    Licensed under the Apache License, Version 2.0 (the "License");
    you may not use this file except in compliance with the License.
    You may obtain a copy of the License at

        http://www.apache.org/licenses/LICENSE-2.0

    Unless required by applicable law or agreed to in writing, software
    distributed under the License is distributed on an "AS IS" BASIS,
    WITHOUT WARRANTIES OR CONDITIONS OF ANY KIND, either express or implied.
    See the License for the specific language governing permissions and
    limitations under the License.

-->
<svg width="24" height="24" viewBox="0 0 24 24" fill="none" xmlns="http://www.w3.org/2000/svg">
<path d="M3.5 17.75C3.5 18.13 3.782 18.444 4.148 18.493L4.25 18.5H19.75C19.9312 18.5 20.1063 18.4344 20.2429 18.3152C20.3795 18.1961 20.4684 18.0316 20.493 17.852L20.5 17.75V8.75C20.5 8.56876 20.4344 8.39366 20.3152 8.25707C20.1961 8.12048 20.0316 8.03165 19.852 8.007L19.75 8H12.021C11.46 8 11.1957 7.77386 10.8153 7.44845C10.7415 7.38539 10.6634 7.3186 10.578 7.249L8.688 5.674C8.5804 5.5842 8.4498 5.52635 8.311 5.507L8.207 5.5H4.25C4.06876 5.50001 3.89366 5.56564 3.75707 5.68477C3.62048 5.80389 3.53165 5.96845 3.507 6.148L3.5 6.25V17.75Z" fill="#D2EDF2"/>
<path fill-rule="evenodd" clip-rule="evenodd" d="M9.491 4.402C9.115 4.141 8.667 4 8.207 4H4.25L4.096 4.005C3.52721 4.04402 2.99444 4.29751 2.60537 4.71425C2.2163 5.13098 1.99993 5.67987 2 6.25V17.75L2.005 17.904C2.04402 18.4728 2.29751 19.0056 2.71425 19.3946C3.13098 19.7837 3.67987 20.0001 4.25 20H19.75L19.904 19.995C20.4728 19.956 21.0056 19.7025 21.3946 19.2858C21.7837 18.869 22.0001 18.3201 22 17.75V8.75L21.995 8.596L21.979 8.438C21.9037 7.90043 21.6367 7.40819 21.227 7.05204C20.8174 6.69588 20.2928 6.49982 19.75 6.5H12.022L9.647 4.522L9.491 4.402ZM3.5 17.75V10.499V8.999V6.25L3.507 6.148C3.53165 5.96845 3.62048 5.80389 3.75707 5.68477C3.89366 5.56564 4.06876 5.50001 4.25 5.5H8.207L8.311 5.507C8.4498 5.52635 8.5804 5.5842 8.688 5.674L10.578 7.249C11.1043 7.67771 11.3513 8 12.021 8C12.3753 8 19.75 8 19.75 8L19.852 8.007C20.0316 8.03165 20.1961 8.12048 20.3152 8.25707C20.4344 8.39366 20.5 8.56876 20.5 8.75V17.75L20.493 17.852C20.4684 18.0316 20.3795 18.1961 20.2429 18.3152C20.1063 18.4344 19.9312 18.5 19.75 18.5H4.25L4.148 18.493C3.782 18.444 3.5 18.13 3.5 17.75Z" fill="#43B8C9"/>
</svg>
