<?xml version="1.0" encoding="UTF-8" standalone="no"?>
<!--

    Copyright (C) 2017-2019 Dremio Corporation

    Licensed under the Apache License, Version 2.0 (the "License");
    you may not use this file except in compliance with the License.
    You may obtain a copy of the License at

        http://www.apache.org/licenses/LICENSE-2.0

    Unless required by applicable law or agreed to in writing, software
    distributed under the License is distributed on an "AS IS" BASIS,
    WITHOUT WARRANTIES OR CONDITIONS OF ANY KIND, either express or implied.
    See the License for the specific language governing permissions and
    limitations under the License.

-->
<svg width="24" height="24" viewBox="1 0 24 24" fill="none" xmlns="http://www.w3.org/2000/svg">
<path fill-rule="evenodd" clip-rule="evenodd" d="M19.5 6H13.268L11.416 3.223C11.323 3.084 11.167 3 11 3H4.5C3.122 3 2 4.121 2 5.5V18.5C2 19.879 3.122 21 4.5 21H19.5C20.878 21 22 19.879 22 18.5V8.5C22 7.121 20.878 6 19.5 6Z" fill="#A672BB"/>
<path fill-rule="evenodd" clip-rule="evenodd" d="M8.5 9.5H6.5V11.5H8.5V9.5ZM11.5 9.5H9.5V11.5H11.5V9.5ZM12.5 9.5H14.5V11.5H12.5V9.5ZM17.5 9.5H15.5V11.5H17.5V9.5ZM8.5 12.5H6.5V14.5H8.5V12.5ZM11.5 12.5H9.5V14.5H11.5V12.5ZM12.5 12.5H14.5V14.5H12.5V12.5ZM17.5 12.5H15.5V14.5H17.5V12.5ZM6.5 15.5H8.5V17.5H6.5V15.5ZM9.5 15.5H11.5V17.5H9.5V15.5ZM14.5 15.5H12.5V17.5H14.5V15.5ZM15.5 15.5H17.5V17.5H15.5V15.5Z" fill="white"/>
</svg>
