<?xml version="1.0" encoding="UTF-8" standalone="no"?>
<!--

    Copyright (C) 2017-2019 Dremio Corporation

    Licensed under the Apache License, Version 2.0 (the "License");
    you may not use this file except in compliance with the License.
    You may obtain a copy of the License at

        http://www.apache.org/licenses/LICENSE-2.0

    Unless required by applicable law or agreed to in writing, software
    distributed under the License is distributed on an "AS IS" BASIS,
    WITHOUT WARRANTIES OR CONDITIONS OF ANY KIND, either express or implied.
    See the License for the specific language governing permissions and
    limitations under the License.

-->
<svg width="24" height="24" viewBox="0 0 24 24" fill="none" xmlns="http://www.w3.org/2000/svg">
<path d="M8.207 4C8.667 4 9.115 4.141 9.491 4.402L9.647 4.522L12.022 6.5H19.75C20.2928 6.49982 20.8174 6.69588 21.227 7.05204C21.6367 7.40819 21.9037 7.90043 21.979 8.438L21.995 8.596L22 8.75V17.75C22.0001 18.3201 21.7837 18.869 21.3946 19.2858C21.0056 19.7025 20.4728 19.956 19.904 19.995L19.75 20H4.25C3.67987 20.0001 3.13098 19.7837 2.71425 19.3946C2.29751 19.0056 2.04402 18.4728 2.005 17.904L2 17.75V6.25C1.99993 5.67987 2.2163 5.13098 2.60537 4.71425C2.99444 4.29751 3.52721 4.04402 4.096 4.005L4.25 4H8.207Z" fill="#A672BB"/>
<path d="M8.5 9.5H6.5V11.5H8.5V9.5Z" fill="white"/>
<path d="M11.5 9.5H9.5V11.5H11.5V9.5Z" fill="white"/>
<path d="M12.5 9.5H14.5V11.5H12.5V9.5Z" fill="white"/>
<path d="M17.5 9.5H15.5V11.5H17.5V9.5Z" fill="white"/>
<path d="M8.5 12.5H6.5V14.5H8.5V12.5Z" fill="white"/>
<path d="M11.5 12.5H9.5V14.5H11.5V12.5Z" fill="white"/>
<path d="M12.5 12.5H14.5V14.5H12.5V12.5Z" fill="white"/>
<path d="M17.5 12.5H15.5V14.5H17.5V12.5Z" fill="white"/>
<path d="M6.5 15.5H8.5V17.5H6.5V15.5Z" fill="white"/>
<path d="M9.5 15.5H11.5V17.5H9.5V15.5Z" fill="white"/>
<path d="M14.5 15.5H12.5V17.5H14.5V15.5Z" fill="white"/>
<path d="M15.5 15.5H17.5V17.5H15.5V15.5Z" fill="white"/>
</svg>