<?xml version="1.0" encoding="UTF-8" standalone="no"?>
<!--

    Copyright (C) 2017-2019 Dremio Corporation

    Licensed under the Apache License, Version 2.0 (the "License");
    you may not use this file except in compliance with the License.
    You may obtain a copy of the License at

        http://www.apache.org/licenses/LICENSE-2.0

    Unless required by applicable law or agreed to in writing, software
    distributed under the License is distributed on an "AS IS" BASIS,
    WITHOUT WARRANTIES OR CONDITIONS OF ANY KIND, either express or implied.
    See the License for the specific language governing permissions and
    limitations under the License.

-->
<svg width="17" height="16" viewBox="0 0 17 16" fill="none" xmlns="http://www.w3.org/2000/svg">
<path d="M6.76947 3.34107C6.85764 2.01761 8.37468 1.31515 9.44131 2.10482L9.79781 2.36836C9.87335 2.42812 9.96014 2.47209 10.053 2.49765C10.1459 2.52321 10.243 2.52984 10.3384 2.51715C10.4339 2.50446 10.5259 2.4727 10.6089 2.42377C10.6918 2.37484 10.7641 2.30973 10.8214 2.2323C10.8787 2.15488 10.9199 2.06673 10.9425 1.97308C10.9651 1.87944 10.9686 1.78221 10.9528 1.68718C10.9371 1.59215 10.9024 1.50125 10.8508 1.41989C10.7993 1.33853 10.7319 1.26837 10.6526 1.21357L10.2971 0.950024C8.31718 -0.517184 5.49872 0.787108 5.33485 3.24523L5.17668 5.64107H2.98976C2.79914 5.64107 2.61632 5.71679 2.48153 5.85158C2.34674 5.98637 2.27101 6.16919 2.27101 6.35982C2.27101 6.55044 2.34674 6.73326 2.48153 6.86805C2.61632 7.00284 2.79914 7.07857 2.98976 7.07857H5.08085L4.51157 12.6688C4.41957 14.0546 2.7789 14.7341 1.73336 13.8188L1.54648 13.655C1.403 13.5294 1.21553 13.466 1.02529 13.4787C0.835054 13.4913 0.657642 13.5791 0.532084 13.7225C0.406527 13.866 0.343107 14.0535 0.355778 14.2437C0.368448 14.434 0.45617 14.6114 0.599647 14.7369L0.78748 14.9018C2.72811 16.5999 5.77369 15.3378 5.94619 12.7647L6.52122 7.07857H9.21893C9.2457 7.07857 9.27232 7.07707 9.29867 7.07413V7.07859C9.74899 7.07859 10.4864 7.32274 10.7361 7.79732L11.2954 10.008L7.83176 13.4716C7.76114 13.5374 7.7045 13.6167 7.66522 13.7049C7.62593 13.7931 7.60481 13.8882 7.60311 13.9847C7.6014 14.0812 7.61916 14.1771 7.65531 14.2666C7.69146 14.3561 7.74526 14.4374 7.81351 14.5056C7.88176 14.5739 7.96306 14.6277 8.05256 14.6639C8.14206 14.7 8.23792 14.7178 8.33442 14.7161C8.43093 14.7143 8.52611 14.6932 8.61427 14.6539C8.70244 14.6147 8.78179 14.558 8.84759 14.4874L11.8362 11.4988L12.5525 13.4993C12.7034 13.786 12.9169 14.035 13.1773 14.2279C13.4376 14.4207 13.738 14.5524 14.0562 14.6131C14.3744 14.6739 14.7023 14.6622 15.0153 14.5789C15.3284 14.4955 15.6187 14.3427 15.8645 14.1318L16.1731 13.8683C16.318 13.7443 16.4077 13.5678 16.4224 13.3776C16.4372 13.1875 16.3757 12.9992 16.2517 12.8544C16.1277 12.7095 15.9512 12.6198 15.761 12.6051C15.5709 12.5904 15.3827 12.6518 15.2378 12.7758L14.9292 13.0403C14.8472 13.1106 14.7505 13.1615 14.6461 13.1893C14.5418 13.2171 14.4325 13.221 14.3264 13.2007C14.2204 13.1805 14.1202 13.1366 14.0335 13.0723C13.9467 13.008 13.8755 12.925 13.8252 12.8295L12.9009 10.4351L16.3731 6.9619C16.4418 6.89563 16.4966 6.81635 16.5343 6.72867C16.572 6.641 16.5919 6.5467 16.5927 6.45126C16.5936 6.35583 16.5755 6.26118 16.5394 6.17283C16.5033 6.08448 16.4499 6.0042 16.3825 5.93669C16.315 5.86917 16.2348 5.81576 16.1465 5.77958C16.0582 5.7434 15.9636 5.72517 15.8681 5.72596C15.7727 5.72674 15.6784 5.74652 15.5907 5.78415C15.5029 5.82178 15.4236 5.87649 15.3573 5.94511L12.3591 8.94328L11.8542 6.9987C11.3209 5.98529 10.3291 5.64108 9.29867 5.64114V5.6455C9.27232 5.64256 9.2457 5.64107 9.21893 5.64107H6.61705L6.76947 3.34107Z" fill="#505862"/>
</svg>
