<!--

    Copyright (C) 2017-2019 Dremio Corporation

    Licensed under the Apache License, Version 2.0 (the "License");
    you may not use this file except in compliance with the License.
    You may obtain a copy of the License at

        http://www.apache.org/licenses/LICENSE-2.0

    Unless required by applicable law or agreed to in writing, software
    distributed under the License is distributed on an "AS IS" BASIS,
    WITHOUT WARRANTIES OR CONDITIONS OF ANY KIND, either express or implied.
    See the License for the specific language governing permissions and
    limitations under the License.

-->
<svg width="24" height="25" viewBox="0 0 24 25" fill="none" xmlns="http://www.w3.org/2000/svg">
<path fill-rule="evenodd" clip-rule="evenodd" d="M10 6C10 7.67556 8.82259 9.07612 7.25 9.41946V12.25H14.6667C15.4938 12.25 16.0642 12.0454 16.4668 11.777C16.874 11.5055 17.1549 11.1381 17.35 10.7479C17.5466 10.3548 17.6486 9.95258 17.7003 9.64233C17.7144 9.5576 17.7246 9.48118 17.7318 9.41544C16.1683 9.06531 15 7.6691 15 6C15 4.067 16.567 2.5 18.5 2.5C20.433 2.5 22 4.067 22 6C22 7.67989 20.8165 9.08336 19.2378 9.4221C19.2282 9.54317 19.2109 9.70269 19.1799 9.88892C19.1118 10.2974 18.9743 10.8535 18.6917 11.4187C18.4076 11.9869 17.9697 12.5778 17.2988 13.0251C16.6233 13.4755 15.7562 13.75 14.6667 13.75H7.25V15.5805C8.82259 15.9239 10 17.3244 10 19C10 20.933 8.433 22.5 6.5 22.5C4.567 22.5 3 20.933 3 19C3 17.3244 4.17741 15.9239 5.75 15.5805V9.41946C4.17741 9.07612 3 7.67556 3 6C3 4.067 4.567 2.5 6.5 2.5C8.433 2.5 10 4.067 10 6ZM6.5 8C7.60457 8 8.5 7.10457 8.5 6C8.5 4.89543 7.60457 4 6.5 4C5.39543 4 4.5 4.89543 4.5 6C4.5 7.10457 5.39543 8 6.5 8ZM6.5 21C7.60457 21 8.5 20.1046 8.5 19C8.5 17.8954 7.60457 17 6.5 17C5.39543 17 4.5 17.8954 4.5 19C4.5 20.1046 5.39543 21 6.5 21ZM20.5 6C20.5 7.10457 19.6046 8 18.5 8C17.3954 8 16.5 7.10457 16.5 6C16.5 4.89543 17.3954 4 18.5 4C19.6046 4 20.5 4.89543 20.5 6Z" fill="#008489"/>
</svg>
