<!--

    Copyright (C) 2017-2019 Dremio Corporation

    Licensed under the Apache License, Version 2.0 (the "License");
    you may not use this file except in compliance with the License.
    You may obtain a copy of the License at

        http://www.apache.org/licenses/LICENSE-2.0

    Unless required by applicable law or agreed to in writing, software
    distributed under the License is distributed on an "AS IS" BASIS,
    WITHOUT WARRANTIES OR CONDITIONS OF ANY KIND, either express or implied.
    See the License for the specific language governing permissions and
    limitations under the License.

-->
<svg width="24" height="25" viewBox="0 0 24 25" fill="none" xmlns="http://www.w3.org/2000/svg">
<path fill-rule="evenodd" clip-rule="evenodd" d="M4 2.5C2.89543 2.5 2 3.39543 2 4.5V20.5C2 21.6046 2.89543 22.5 4 22.5H12.8096C11.6888 21.3321 11 19.7465 11 18C11 14.4101 13.9101 11.5 17.5 11.5C19.2465 11.5 20.8321 12.1888 22 13.3096V4.5C22 3.39543 21.1046 2.5 20 2.5H4Z" fill="#E9F6FD"/>
<path fill-rule="evenodd" clip-rule="evenodd" d="M4.33301 5.49992C4.33301 5.13173 4.63148 4.83325 4.99967 4.83325H18.9997C19.3679 4.83325 19.6663 5.13173 19.6663 5.49992V11.8698C19.3963 11.7744 19.1181 11.6963 18.833 11.6369V9.33325H16.1663V11.6369C15.8222 11.7086 15.4881 11.8076 15.1663 11.9314V9.33325H12.4997V11.9999H14.9956C14.3947 12.251 13.8397 12.5896 13.3463 12.9999H12.4997V13.8465C12.0894 14.3399 11.7507 14.895 11.4997 15.4958V12.9999H8.83301V15.6666H11.4312C11.3073 15.9884 11.2084 16.3225 11.1367 16.6666H8.83301V19.3333H11.1366C11.196 19.6183 11.2741 19.8966 11.3696 20.1666H4.99967C4.63148 20.1666 4.33301 19.8681 4.33301 19.4999V5.49992ZM7.83301 5.66659H5.16634V8.33325H7.83301V5.66659ZM11.4997 5.66659H8.83301V8.33325H11.4997V5.66659ZM15.1663 5.66659H12.4997V8.33325H15.1663V5.66659ZM18.833 5.66659H16.1663V8.33325H18.833V5.66659ZM7.83301 9.33325H5.16634V11.9999H7.83301V9.33325ZM11.4997 9.33325H8.83301V11.9999H11.4997V9.33325ZM7.83301 12.9999H5.16634V15.6666H7.83301V12.9999ZM7.83301 16.6666H5.16634V19.3333H7.83301V16.6666Z" fill="#256EA7"/>
<path d="M22.1555 15.1099C22.1935 15.123 22.2045 15.1595 22.2222 15.1892C22.6126 15.8462 22.8594 16.5528 22.9505 17.3122C23.1062 18.611 22.8514 19.8244 22.1483 20.9275C21.3002 22.2584 20.0942 23.1033 18.5419 23.393C16.7299 23.7311 15.1182 23.2668 13.7553 22.022C12.806 21.1549 12.2429 20.0669 12.0598 18.7916C11.8748 17.5036 12.1204 16.2977 12.7799 15.1761C12.7945 15.1512 12.8068 15.1242 12.8351 15.1108C12.865 15.0882 12.8999 15.0834 12.9358 15.0833C13.4225 15.0823 13.9091 15.0814 14.3958 15.0839C14.4151 15.084 14.4344 15.0864 14.4529 15.0915C14.5205 15.1178 14.4983 15.1662 14.4801 15.2113C14.4214 15.3576 14.3513 15.4989 14.2845 15.6415C14.1986 15.8249 14.1212 16.0122 14.0299 16.1931C14.0153 16.2221 14.0059 16.2528 14.0055 16.2856C14.0058 16.2952 14.0057 16.3048 14.0057 16.3144C14.0461 16.4921 14.1376 16.6493 14.209 16.8143C14.3393 17.116 14.4751 17.4153 14.6038 17.7176C14.6439 17.8118 14.6964 17.8924 14.7768 17.9572C15.138 18.2483 15.4912 18.5492 15.8489 18.8446C15.8836 18.8732 15.9202 18.9007 15.9343 18.9469C15.9342 19.0868 15.8977 19.2215 15.8758 19.3582C15.8268 19.6642 15.7744 19.9696 15.7239 20.2754C15.7166 20.32 15.7083 20.3646 15.7196 20.4095C15.7306 20.4528 15.7647 20.4791 15.794 20.5084C16.0099 20.7249 16.2193 20.9485 16.4441 21.1553C16.7571 21.443 17.0473 21.7532 17.3535 22.0474C17.4322 22.1231 17.5198 22.1895 17.5942 22.27C17.6075 22.2843 17.6223 22.2969 17.6444 22.2915C17.7007 22.2449 17.7296 22.1781 17.7675 22.1193C18.1512 21.523 18.5347 20.9267 18.9185 20.3305C18.9342 20.3061 18.9488 20.2811 18.9604 20.2543C18.9702 20.2361 18.983 20.2204 18.9985 20.2068C19.247 19.9539 19.4857 19.6917 19.7352 19.4398C19.7808 19.3937 19.7829 19.337 19.7828 19.2781C19.7826 18.8105 19.7826 18.3429 19.7828 17.8753C19.7828 17.8269 19.7805 17.7785 19.7866 17.7304C19.8029 17.6531 19.8645 17.6051 19.9123 17.5511C20.2532 17.1659 20.587 16.7745 20.9301 16.3913C20.9645 16.3528 20.9938 16.3105 21.0255 16.27C21.0304 16.2629 21.0359 16.2562 21.0417 16.2498C21.0536 16.237 21.0611 16.2224 21.0597 16.204C21.0175 16.0441 20.942 15.8973 20.8809 15.7451C20.8099 15.5687 20.739 15.3922 20.6656 15.2167C20.6477 15.1739 20.6215 15.1237 20.6881 15.0932C20.729 15.0809 20.7709 15.0827 20.8125 15.0827C21.2106 15.0824 21.6087 15.0823 22.0068 15.0828C22.0577 15.0829 22.1103 15.0767 22.1555 15.1099V15.1099Z" fill="#277ABD"/>
<path d="M22.1553 15.11C22.0499 15.1239 21.9439 15.1151 21.8382 15.1158C21.4467 15.1183 21.0552 15.1189 20.6637 15.1202C20.6302 15.1436 20.5917 15.145 20.5531 15.1451C20.2583 15.1457 19.9635 15.1459 19.6687 15.1449C19.6304 15.1448 19.5914 15.1449 19.5575 15.1218C19.5051 14.9808 19.5202 14.8378 19.5456 14.6946C19.5855 14.6495 19.6401 14.6598 19.6904 14.6595C19.9149 14.6579 20.1394 14.6593 20.3851 14.6584C20.1973 14.541 20.0286 14.4343 19.8594 14.3281C19.8112 14.2979 19.7574 14.2907 19.7015 14.2907C18.4072 14.2907 17.1128 14.2905 15.8185 14.2909C15.7562 14.2909 15.697 14.3029 15.6395 14.327C15.3568 14.4456 15.074 14.564 14.7907 14.6806C14.736 14.7035 14.7122 14.7526 14.6847 14.8007C14.6244 14.9063 14.5927 15.0279 14.5074 15.1195C14.4976 15.1235 14.4885 15.1222 14.4801 15.1159C13.9574 15.116 13.4347 15.1162 12.9119 15.116C12.8863 15.116 12.8606 15.1127 12.835 15.1109C12.8994 14.962 13.0036 14.8388 13.0964 14.7083C13.2972 14.4264 13.5345 14.1765 13.7878 13.9428C14.0887 13.6652 14.4198 13.4271 14.7756 13.223C15.0754 13.0511 15.389 12.9089 15.715 12.7974C16.0123 12.6957 16.3173 12.6209 16.6294 12.5734C16.9542 12.5239 17.2803 12.4913 17.6075 12.502C18.3158 12.5253 19.0019 12.6586 19.6557 12.9432C20.0979 13.1357 20.5128 13.3744 20.8899 13.6732C21.2873 13.988 21.6404 14.3489 21.9382 14.7612C22.0022 14.8498 22.0614 14.9418 22.1238 15.0315C22.1407 15.0557 22.1581 15.0785 22.1553 15.11Z" fill="#B7E0F2"/>
<path d="M13.9736 16.3176L13.9717 16.2927C14.0985 16.1832 14.2597 16.1391 14.4066 16.0693C14.773 15.8952 15.1436 15.73 15.5116 15.5592C15.7891 15.4305 16.0679 15.3046 16.3458 15.1766C16.4015 15.1509 16.4505 15.1139 16.5077 15.0913C16.814 15.0741 17.1204 15.0847 17.4267 15.0856C17.4623 15.0857 17.498 15.093 17.5189 15.1284C17.5345 15.1615 17.5354 15.1971 17.5353 15.2325C17.5338 15.722 17.5664 16.2109 17.5559 16.7006C17.5488 17.0322 17.5879 17.3632 17.5745 17.6951C17.5726 17.7433 17.5777 17.7919 17.5646 17.839C17.5611 17.8497 17.5554 17.8595 17.548 17.8679C17.4899 17.8997 17.4408 17.8631 17.393 17.8419C17.0362 17.6836 16.6784 17.5276 16.3217 17.369C15.7351 17.1083 15.1465 16.8521 14.5609 16.5891C14.3642 16.5007 14.1603 16.4276 13.9736 16.3176H13.9736Z" fill="#B7E0F2"/>
<path d="M13.9736 16.3176C14.0792 16.3367 14.172 16.39 14.2683 16.4321C14.8777 16.6986 15.4859 16.968 16.094 17.2376C16.52 17.4265 16.9451 17.6175 17.371 17.8067C17.4207 17.8287 17.4727 17.8455 17.5236 17.8647C17.5502 17.9163 17.5072 17.9325 17.4769 17.9523C17.057 18.2269 16.6321 18.4937 16.2109 18.7662C16.1219 18.8238 16.0359 18.8865 15.942 18.9364C15.9322 18.9387 15.9235 18.9363 15.9157 18.93C15.51 18.5932 15.1047 18.256 14.6982 17.9201C14.6672 17.8946 14.6447 17.8662 14.6288 17.8301C14.414 17.3415 14.1987 16.8532 13.984 16.3645C13.9777 16.3502 13.977 16.3333 13.9736 16.3176H13.9736Z" fill="#90D4F0"/>
<path d="M19.8096 17.7094C19.8096 18.2421 19.8086 18.7747 19.8108 19.3074C19.8111 19.3733 19.7943 19.4216 19.7468 19.4695C19.5401 19.6775 19.3384 19.8906 19.1328 20.0998C19.0892 20.1442 19.0724 20.218 18.9966 20.2282C18.9748 20.2366 18.9597 20.2253 18.9457 20.2109C18.5013 19.4921 18.0594 18.7717 17.6184 18.0508C17.5929 18.0092 17.5585 17.9752 17.5319 17.9348C17.5278 17.9127 17.531 17.8927 17.5474 17.876C17.5617 17.8655 17.5776 17.86 17.5951 17.8586C17.9602 17.8247 18.3259 17.7978 18.6911 17.7661C19.0276 17.7368 19.3647 17.7147 19.701 17.6824C19.7389 17.6788 19.7791 17.6778 19.8096 17.7094H19.8096Z" fill="#4E8AC8"/>
<path d="M15.9159 18.93L15.9353 18.9294C15.9752 18.9146 16.0115 18.9312 16.0478 18.9434C16.5212 19.1026 16.9907 19.2733 17.4659 19.4271C17.4844 19.4331 17.5023 19.4402 17.5144 19.457C17.5224 19.4728 17.5246 19.4896 17.524 19.5071C17.5118 19.92 17.5065 20.3328 17.5272 20.7455C17.528 20.7616 17.529 20.7777 17.5269 20.7937C17.5249 20.8052 17.5205 20.8159 17.5142 20.8258C17.4771 20.8596 17.4345 20.8444 17.3947 20.8358C16.8684 20.7212 16.3434 20.6007 15.8167 20.4875C15.7753 20.4785 15.7384 20.4579 15.6992 20.4433C15.656 20.3934 15.6842 20.3386 15.6925 20.2877C15.7652 19.8414 15.8404 19.3954 15.9148 18.9493C15.9158 18.943 15.9155 18.9364 15.9159 18.93H15.9159Z" fill="#B7E0F2"/>
<path d="M19.5591 15.1165C19.9272 15.1177 20.2953 15.119 20.6634 15.1202C20.6915 15.2596 20.7644 15.3818 20.8148 15.5126C20.892 15.7127 20.9789 15.909 21.0601 16.1076C21.0769 16.1487 21.0945 16.1911 21.0878 16.2378C21.0769 16.2485 21.0592 16.2454 21.0487 16.2569L21.049 16.2565C21.0044 16.3062 20.9431 16.3291 20.885 16.3558C20.4931 16.5359 20.1014 16.7165 19.7131 16.904C19.6811 16.9194 19.6492 16.9349 19.6144 16.9428C19.5799 16.9506 19.5497 16.9483 19.5366 16.9076C19.5254 16.8696 19.5266 16.8307 19.5266 16.7921C19.5263 16.2822 19.5263 15.7723 19.5266 15.2624C19.5267 15.2238 19.5246 15.1848 19.537 15.1471C19.5414 15.1348 19.5488 15.1246 19.5591 15.1165Z" fill="#4E8BC8"/>
<path d="M19.5605 16.9366C19.7306 16.8848 19.882 16.7912 20.0432 16.7193C20.3688 16.5739 20.6897 16.4179 21.0127 16.2666C21.0241 16.2613 21.0372 16.2599 21.0496 16.2566C21.0437 16.3124 20.9997 16.3469 20.9679 16.3836C20.7199 16.6695 20.4668 16.9511 20.2171 17.2355C20.0796 17.392 19.9455 17.5514 19.8099 17.7095C19.5861 17.72 19.3632 17.7402 19.1405 17.7647C19.0452 17.7751 18.9489 17.7757 18.853 17.7842C18.5535 17.8108 18.2538 17.8347 17.9542 17.8598C17.8302 17.8702 17.7055 17.8889 17.5801 17.8839C17.5817 17.8334 17.6263 17.8254 17.6586 17.81C18.1119 17.5939 18.5687 17.3849 19.0225 17.1697C19.165 17.1021 19.3071 17.0335 19.4517 16.9704C19.4867 16.9551 19.5188 16.9303 19.5605 16.9366V16.9366Z" fill="#256EA7"/>
<path d="M15.6992 20.4434C15.8215 20.4487 15.9378 20.4864 16.0562 20.5117C16.5376 20.6146 17.0181 20.7215 17.499 20.827C17.539 20.8553 17.5352 20.9009 17.5398 20.9408C17.5752 21.2475 17.5989 21.5554 17.6308 21.8624C17.6421 21.9711 17.6488 22.0803 17.6619 22.1889C17.6674 22.2345 17.67 22.2788 17.6438 22.3195C17.6032 22.3529 17.5945 22.304 17.5797 22.2897C17.2859 22.0055 16.994 21.7194 16.7019 21.4335C16.3913 21.1296 16.0809 20.8257 15.7707 20.5214C15.7455 20.4967 15.723 20.4694 15.6992 20.4434Z" fill="#90D3EF"/>
<path d="M16.4768 15.1158C16.478 15.1497 16.4501 15.1576 16.4276 15.1678C16.0795 15.3267 15.7308 15.4844 15.3828 15.6433C15.1984 15.7276 15.0151 15.8141 14.831 15.8988C14.5447 16.0305 14.2581 16.1615 13.9717 16.2928C13.9995 16.1591 14.075 16.0454 14.1286 15.9228C14.2351 15.6793 14.3496 15.4394 14.4604 15.1979C14.4723 15.1721 14.4893 15.1469 14.48 15.1158L14.5041 15.1124C14.5465 15.0842 14.5945 15.0824 14.6432 15.0824C15.209 15.0823 15.7749 15.082 16.3407 15.083C16.3879 15.083 16.4385 15.0758 16.4768 15.1158Z" fill="#90D4F0"/>
<path d="M17.6438 22.3194C17.5956 21.8219 17.5473 21.3243 17.499 20.8268C17.5034 20.8229 17.5064 20.818 17.5078 20.8123C17.5257 20.7864 17.5551 20.7802 17.5818 20.77C18.0114 20.6059 18.4391 20.4373 18.8681 20.2716C18.9028 20.2582 18.9385 20.2349 18.9767 20.2649C18.9294 20.3849 18.8464 20.4835 18.7781 20.5906C18.5198 20.9954 18.2576 21.3976 17.9976 21.8014C17.8989 21.9547 17.8031 22.1099 17.7038 22.2628C17.6894 22.285 17.6805 22.3185 17.6438 22.3194Z" fill="#256EA7"/>
<path d="M18.9768 20.2649C18.8033 20.3131 18.6403 20.3898 18.4723 20.453C18.1748 20.5649 17.8796 20.683 17.583 20.7975C17.5596 20.8065 17.5331 20.8076 17.508 20.8124C17.4696 20.6077 17.4925 20.4011 17.4887 20.1953C17.485 19.9987 17.4879 19.8019 17.4879 19.6052C17.4879 19.5667 17.4841 19.5275 17.5037 19.4917C17.5419 19.4603 17.5776 19.4824 17.6112 19.4994C17.8979 19.6446 18.1832 19.7927 18.4684 19.9409C18.5967 20.0076 18.7259 20.0725 18.8542 20.1391C18.8915 20.1584 18.9289 20.1767 18.9578 20.2083C18.9708 20.2149 18.9838 20.2215 18.9969 20.2282C18.9902 20.2404 18.9835 20.2527 18.9768 20.2649Z" fill="#55AEDE"/>
<path d="M21.0488 16.2568C21.0572 16.241 21.0718 16.2378 21.0879 16.2378C21.0797 16.2541 21.0649 16.2567 21.0488 16.2568Z" fill="#256EA7"/>
<path d="M16.4766 15.1157C15.8577 15.1154 15.2388 15.1152 14.6198 15.1147C14.5812 15.1147 14.5426 15.1132 14.5039 15.1124C14.5648 14.99 14.6259 14.8676 14.6867 14.7452C14.7024 14.7135 14.7182 14.6823 14.7545 14.6692C14.8989 14.6507 15.0441 14.6562 15.1891 14.6562C16.5868 14.656 17.9844 14.6559 19.3821 14.6568C19.4418 14.6568 19.5059 14.642 19.5582 14.6881C19.5585 14.8309 19.5588 14.9736 19.5591 15.1163C19.5572 15.1203 19.5557 15.1245 19.5547 15.1288C19.5204 15.1675 19.4735 15.1644 19.4289 15.1644C18.8293 15.1653 18.2298 15.1653 17.6302 15.1645C17.5854 15.1644 17.5388 15.1667 17.5042 15.1287C17.4861 15.1105 17.4628 15.1143 17.4406 15.1144C17.1193 15.1147 16.7979 15.1152 16.4766 15.1157L16.4766 15.1157Z" fill="#E9F6FD"/>
<path d="M19.5586 14.6881C17.994 14.688 16.4295 14.6879 14.8649 14.6869C14.8282 14.6869 14.787 14.7026 14.7549 14.6692C15.0154 14.5594 15.2789 14.4561 15.5353 14.3374C15.6754 14.2725 15.8164 14.2605 15.9659 14.2607C17.2072 14.2628 18.4485 14.2624 19.6899 14.2609C19.7661 14.2608 19.8332 14.2729 19.8985 14.3156C20.0827 14.4362 20.2699 14.5523 20.4518 14.6881H19.5586Z" fill="#FEFEFE"/>
<path d="M17.5049 15.1289C18.1884 15.1289 18.8719 15.129 19.5553 15.129C19.5563 15.6445 19.5572 16.1601 19.5583 16.6756C19.5585 16.7626 19.5598 16.8496 19.5606 16.9366C19.4078 17.0328 19.2382 17.0951 19.0764 17.1728C18.6998 17.3537 18.3197 17.5272 17.9416 17.7052C17.8201 17.7624 17.6922 17.8071 17.5802 17.8839L17.5468 17.8861C17.5354 17.881 17.5338 17.8737 17.542 17.8643C17.5421 17.6288 17.5549 17.3924 17.5394 17.1579C17.512 16.7453 17.5401 16.3326 17.5204 15.9207C17.5077 15.6566 17.507 15.3929 17.5049 15.1289L17.5049 15.1289Z" fill="#69C1EA"/>
<path d="M17.5419 17.8643L17.5467 17.886L17.5501 17.9407C17.5956 18.05 17.5729 18.1632 17.567 18.275C17.5642 18.3263 17.5534 18.3775 17.5557 18.4292C17.5687 18.7328 17.5284 19.0351 17.5349 19.3386C17.5358 19.3794 17.5394 19.4241 17.4992 19.4535C17.3393 19.431 17.1916 19.3665 17.0418 19.3129C16.8399 19.2405 16.6351 19.1769 16.4331 19.1052C16.2674 19.0463 16.1014 18.988 15.9355 18.9295C16.053 18.8183 16.1988 18.7485 16.3323 18.6612C16.7109 18.4138 17.093 18.1718 17.4744 17.9287C17.4999 17.9124 17.5249 17.8997 17.524 17.8648C17.53 17.8646 17.536 17.8645 17.5419 17.8643Z" fill="#ABDCF1"/>
<path d="M17.499 19.4535C17.501 19.3924 17.5041 19.3313 17.5046 19.2702C17.507 18.9646 17.5246 18.6595 17.5309 18.3539C17.5337 18.2169 17.5333 18.0779 17.55 17.9407C17.6343 17.9789 17.6537 18.068 17.6963 18.1363C18.0038 18.6295 18.3067 19.1256 18.6113 19.6206C18.7191 19.7957 18.8278 19.9701 18.935 20.1455C18.9463 20.1641 18.9503 20.1872 18.9577 20.2083C18.7954 20.147 18.6455 20.0599 18.4912 19.9822C18.4569 19.965 18.4252 19.9428 18.3911 19.9253C18.1315 19.792 17.8717 19.6592 17.6119 19.5263C17.5777 19.5088 17.545 19.487 17.5037 19.4917C17.5022 19.479 17.5006 19.4662 17.499 19.4535Z" fill="#54A4D7"/>
<path fill-rule="evenodd" clip-rule="evenodd" d="M4 2.5C2.89543 2.5 2 3.39543 2 4.5V20.5C2 21.6046 2.89543 22.5 4 22.5H12.8096C11.6888 21.3321 11 19.7465 11 18C11 14.4101 13.9101 11.5 17.5 11.5C19.2465 11.5 20.8321 12.1888 22 13.3096V4.5C22 3.39543 21.1046 2.5 20 2.5H4Z" fill="#A672BB"/>
<path fill-rule="evenodd" clip-rule="evenodd" d="M4.33301 5.49992C4.33301 5.13173 4.63148 4.83325 4.99967 4.83325H18.9997C19.3679 4.83325 19.6663 5.13173 19.6663 5.49992V11.8698C19.3963 11.7744 19.1181 11.6963 18.833 11.6369V9.33325H16.1663V11.6369C15.8222 11.7086 15.4881 11.8076 15.1663 11.9314V9.33325H12.4997V11.9999H14.9956C14.3947 12.251 13.8397 12.5896 13.3463 12.9999H12.4997V13.8465C12.0894 14.3399 11.7507 14.895 11.4997 15.4958V12.9999H8.83301V15.6666H11.4312C11.3073 15.9884 11.2084 16.3225 11.1367 16.6666H8.83301V19.3333H11.1366C11.196 19.6183 11.2741 19.8966 11.3696 20.1666H4.99967C4.63148 20.1666 4.33301 19.8681 4.33301 19.4999V5.49992ZM7.83301 5.66659H5.16634V8.33325H7.83301V5.66659ZM11.4997 5.66659H8.83301V8.33325H11.4997V5.66659ZM15.1663 5.66659H12.4997V8.33325H15.1663V5.66659ZM18.833 5.66659H16.1663V8.33325H18.833V5.66659ZM7.83301 9.33325H5.16634V11.9999H7.83301V9.33325ZM11.4997 9.33325H8.83301V11.9999H11.4997V9.33325ZM7.83301 12.9999H5.16634V15.6666H7.83301V12.9999ZM7.83301 16.6666H5.16634V19.3333H7.83301V16.6666Z" fill="white"/>
<path d="M22.1555 15.1099C22.1935 15.123 22.2045 15.1595 22.2222 15.1892C22.6126 15.8462 22.8594 16.5528 22.9505 17.3122C23.1062 18.611 22.8514 19.8244 22.1483 20.9275C21.3002 22.2584 20.0942 23.1033 18.5419 23.393C16.7299 23.7311 15.1182 23.2668 13.7553 22.022C12.806 21.1549 12.2429 20.0669 12.0598 18.7916C11.8748 17.5036 12.1204 16.2977 12.7799 15.1761C12.7945 15.1512 12.8068 15.1242 12.8351 15.1108C12.865 15.0882 12.8999 15.0834 12.9358 15.0833C13.4225 15.0823 13.9091 15.0814 14.3958 15.0839C14.4151 15.084 14.4344 15.0864 14.4529 15.0915C14.5205 15.1178 14.4983 15.1662 14.4801 15.2113C14.4214 15.3576 14.3513 15.4989 14.2845 15.6415C14.1986 15.8249 14.1212 16.0122 14.0299 16.1931C14.0153 16.2221 14.0059 16.2528 14.0055 16.2856C14.0058 16.2952 14.0057 16.3048 14.0057 16.3144C14.0461 16.4921 14.1376 16.6493 14.209 16.8143C14.3393 17.116 14.4751 17.4153 14.6038 17.7176C14.6439 17.8118 14.6964 17.8924 14.7768 17.9572C15.138 18.2483 15.4912 18.5492 15.8489 18.8446C15.8836 18.8732 15.9202 18.9007 15.9343 18.9469C15.9342 19.0868 15.8977 19.2215 15.8758 19.3582C15.8268 19.6642 15.7744 19.9696 15.7239 20.2754C15.7166 20.32 15.7083 20.3646 15.7196 20.4095C15.7306 20.4528 15.7647 20.4791 15.794 20.5084C16.0099 20.7249 16.2193 20.9485 16.4441 21.1553C16.7571 21.443 17.0473 21.7532 17.3535 22.0474C17.4322 22.1231 17.5198 22.1895 17.5942 22.27C17.6075 22.2843 17.6223 22.2969 17.6444 22.2915C17.7007 22.2449 17.7296 22.1781 17.7675 22.1193C18.1512 21.523 18.5347 20.9267 18.9185 20.3305C18.9342 20.3061 18.9488 20.2811 18.9604 20.2543C18.9702 20.2361 18.983 20.2204 18.9985 20.2068C19.247 19.9539 19.4857 19.6917 19.7352 19.4398C19.7808 19.3937 19.7829 19.337 19.7828 19.2781C19.7826 18.8105 19.7826 18.3429 19.7828 17.8753C19.7828 17.8269 19.7805 17.7785 19.7866 17.7304C19.8029 17.6531 19.8645 17.6051 19.9123 17.5511C20.2532 17.1659 20.587 16.7745 20.9301 16.3913C20.9645 16.3528 20.9938 16.3105 21.0255 16.27C21.0304 16.2629 21.0359 16.2562 21.0417 16.2498C21.0536 16.237 21.0611 16.2224 21.0597 16.204C21.0175 16.0441 20.942 15.8973 20.8809 15.7451C20.8099 15.5687 20.739 15.3922 20.6656 15.2167C20.6477 15.1739 20.6215 15.1237 20.6881 15.0932C20.729 15.0809 20.7709 15.0827 20.8125 15.0827C21.2106 15.0824 21.6087 15.0823 22.0068 15.0828C22.0577 15.0829 22.1103 15.0767 22.1555 15.1099V15.1099Z" fill="#277ABD"/>
<path d="M22.1553 15.11C22.0499 15.1239 21.9439 15.1151 21.8382 15.1158C21.4467 15.1183 21.0552 15.1189 20.6637 15.1202C20.6302 15.1436 20.5917 15.145 20.5531 15.1451C20.2583 15.1457 19.9635 15.1459 19.6687 15.1449C19.6304 15.1448 19.5914 15.1449 19.5575 15.1218C19.5051 14.9808 19.5202 14.8378 19.5456 14.6946C19.5855 14.6495 19.6401 14.6598 19.6904 14.6595C19.9149 14.6579 20.1394 14.6593 20.3851 14.6584C20.1973 14.541 20.0286 14.4343 19.8594 14.3281C19.8112 14.2979 19.7574 14.2907 19.7015 14.2907C18.4072 14.2907 17.1128 14.2905 15.8185 14.2909C15.7562 14.2909 15.697 14.3029 15.6395 14.327C15.3568 14.4456 15.074 14.564 14.7907 14.6806C14.736 14.7035 14.7122 14.7526 14.6847 14.8007C14.6244 14.9063 14.5927 15.0279 14.5074 15.1195C14.4976 15.1235 14.4885 15.1222 14.4801 15.1159C13.9574 15.116 13.4347 15.1162 12.9119 15.116C12.8863 15.116 12.8606 15.1127 12.835 15.1109C12.8994 14.962 13.0036 14.8388 13.0964 14.7083C13.2972 14.4264 13.5345 14.1765 13.7878 13.9428C14.0887 13.6652 14.4198 13.4271 14.7756 13.223C15.0754 13.0511 15.389 12.9089 15.715 12.7974C16.0123 12.6957 16.3173 12.6209 16.6294 12.5734C16.9542 12.5239 17.2803 12.4913 17.6075 12.502C18.3158 12.5253 19.0019 12.6586 19.6557 12.9432C20.0979 13.1357 20.5128 13.3744 20.8899 13.6732C21.2873 13.988 21.6404 14.3489 21.9382 14.7612C22.0022 14.8498 22.0614 14.9418 22.1238 15.0315C22.1407 15.0557 22.1581 15.0785 22.1553 15.11Z" fill="#B7E0F2"/>
<path d="M13.9736 16.3176L13.9717 16.2927C14.0985 16.1832 14.2597 16.1391 14.4066 16.0693C14.773 15.8952 15.1436 15.73 15.5116 15.5592C15.7891 15.4305 16.0679 15.3046 16.3458 15.1766C16.4015 15.1509 16.4505 15.1139 16.5077 15.0913C16.814 15.0741 17.1204 15.0847 17.4267 15.0856C17.4623 15.0857 17.498 15.093 17.5189 15.1284C17.5345 15.1615 17.5354 15.1971 17.5353 15.2325C17.5338 15.722 17.5664 16.2109 17.5559 16.7006C17.5488 17.0322 17.5879 17.3632 17.5745 17.6951C17.5726 17.7433 17.5777 17.7919 17.5646 17.839C17.5611 17.8497 17.5554 17.8595 17.548 17.8679C17.4899 17.8997 17.4408 17.8631 17.393 17.8419C17.0362 17.6836 16.6784 17.5276 16.3217 17.369C15.7351 17.1083 15.1465 16.8521 14.5609 16.5891C14.3642 16.5007 14.1603 16.4276 13.9736 16.3176H13.9736Z" fill="#B7E0F2"/>
<path d="M13.9736 16.3176C14.0792 16.3367 14.172 16.39 14.2683 16.4321C14.8777 16.6986 15.4859 16.968 16.094 17.2376C16.52 17.4265 16.9451 17.6175 17.371 17.8067C17.4207 17.8287 17.4727 17.8455 17.5236 17.8647C17.5502 17.9163 17.5072 17.9325 17.4769 17.9523C17.057 18.2269 16.6321 18.4937 16.2109 18.7662C16.1219 18.8238 16.0359 18.8865 15.942 18.9364C15.9322 18.9387 15.9235 18.9363 15.9157 18.93C15.51 18.5932 15.1047 18.256 14.6982 17.9201C14.6672 17.8946 14.6447 17.8662 14.6288 17.8301C14.414 17.3415 14.1987 16.8532 13.984 16.3645C13.9777 16.3502 13.977 16.3333 13.9736 16.3176H13.9736Z" fill="#90D4F0"/>
<path d="M19.8096 17.7094C19.8096 18.2421 19.8086 18.7747 19.8108 19.3074C19.8111 19.3733 19.7943 19.4216 19.7468 19.4695C19.5401 19.6775 19.3384 19.8906 19.1328 20.0998C19.0892 20.1442 19.0724 20.218 18.9966 20.2282C18.9748 20.2366 18.9597 20.2253 18.9457 20.2109C18.5013 19.4921 18.0594 18.7717 17.6184 18.0508C17.5929 18.0092 17.5585 17.9752 17.5319 17.9348C17.5278 17.9127 17.531 17.8927 17.5474 17.876C17.5617 17.8655 17.5776 17.86 17.5951 17.8586C17.9602 17.8247 18.3259 17.7978 18.6911 17.7661C19.0276 17.7368 19.3647 17.7147 19.701 17.6824C19.7389 17.6788 19.7791 17.6778 19.8096 17.7094H19.8096Z" fill="#4E8AC8"/>
<path d="M15.9159 18.93L15.9353 18.9294C15.9752 18.9146 16.0115 18.9312 16.0478 18.9434C16.5212 19.1026 16.9907 19.2733 17.4659 19.4271C17.4844 19.4331 17.5023 19.4402 17.5144 19.457C17.5224 19.4728 17.5246 19.4896 17.524 19.5071C17.5118 19.92 17.5065 20.3328 17.5272 20.7455C17.528 20.7616 17.529 20.7777 17.5269 20.7937C17.5249 20.8052 17.5205 20.8159 17.5142 20.8258C17.4771 20.8596 17.4345 20.8444 17.3947 20.8358C16.8684 20.7212 16.3434 20.6007 15.8167 20.4875C15.7753 20.4785 15.7384 20.4579 15.6992 20.4433C15.656 20.3934 15.6842 20.3386 15.6925 20.2877C15.7652 19.8414 15.8404 19.3954 15.9148 18.9493C15.9158 18.943 15.9155 18.9364 15.9159 18.93H15.9159Z" fill="#B7E0F2"/>
<path d="M19.5591 15.1165C19.9272 15.1177 20.2953 15.119 20.6634 15.1202C20.6915 15.2596 20.7644 15.3818 20.8148 15.5126C20.892 15.7127 20.9789 15.909 21.0601 16.1076C21.0769 16.1487 21.0945 16.1911 21.0878 16.2378C21.0769 16.2485 21.0592 16.2454 21.0487 16.2569L21.049 16.2565C21.0044 16.3062 20.9431 16.3291 20.885 16.3558C20.4931 16.5359 20.1014 16.7165 19.7131 16.904C19.6811 16.9194 19.6492 16.9349 19.6144 16.9428C19.5799 16.9506 19.5497 16.9483 19.5366 16.9076C19.5254 16.8696 19.5266 16.8307 19.5266 16.7921C19.5263 16.2822 19.5263 15.7723 19.5266 15.2624C19.5267 15.2238 19.5246 15.1848 19.537 15.1471C19.5414 15.1348 19.5488 15.1246 19.5591 15.1165Z" fill="#4E8BC8"/>
<path d="M19.5605 16.9366C19.7306 16.8848 19.882 16.7912 20.0432 16.7193C20.3688 16.5739 20.6897 16.4179 21.0127 16.2666C21.0241 16.2613 21.0372 16.2599 21.0496 16.2566C21.0437 16.3124 20.9997 16.3469 20.9679 16.3836C20.7199 16.6695 20.4668 16.9511 20.2171 17.2355C20.0796 17.392 19.9455 17.5514 19.8099 17.7095C19.5861 17.72 19.3632 17.7402 19.1405 17.7647C19.0452 17.7751 18.9489 17.7757 18.853 17.7842C18.5535 17.8108 18.2538 17.8347 17.9542 17.8598C17.8302 17.8702 17.7055 17.8889 17.5801 17.8839C17.5817 17.8334 17.6263 17.8254 17.6586 17.81C18.1119 17.5939 18.5687 17.3849 19.0225 17.1697C19.165 17.1021 19.3071 17.0335 19.4517 16.9704C19.4867 16.9551 19.5188 16.9303 19.5605 16.9366V16.9366Z" fill="#256EA7"/>
<path d="M15.6992 20.4434C15.8215 20.4487 15.9378 20.4864 16.0562 20.5117C16.5376 20.6146 17.0181 20.7215 17.499 20.827C17.539 20.8553 17.5352 20.9009 17.5398 20.9408C17.5752 21.2475 17.5989 21.5554 17.6308 21.8624C17.6421 21.9711 17.6488 22.0803 17.6619 22.1889C17.6674 22.2345 17.67 22.2788 17.6438 22.3195C17.6032 22.3529 17.5945 22.304 17.5797 22.2897C17.2859 22.0055 16.994 21.7194 16.7019 21.4335C16.3913 21.1296 16.0809 20.8257 15.7707 20.5214C15.7455 20.4967 15.723 20.4694 15.6992 20.4434Z" fill="#90D3EF"/>
<path d="M16.4768 15.1158C16.478 15.1497 16.4501 15.1576 16.4276 15.1678C16.0795 15.3267 15.7308 15.4844 15.3828 15.6433C15.1984 15.7276 15.0151 15.8141 14.831 15.8988C14.5447 16.0305 14.2581 16.1615 13.9717 16.2928C13.9995 16.1591 14.075 16.0454 14.1286 15.9228C14.2351 15.6793 14.3496 15.4394 14.4604 15.1979C14.4723 15.1721 14.4893 15.1469 14.48 15.1158L14.5041 15.1124C14.5465 15.0842 14.5945 15.0824 14.6432 15.0824C15.209 15.0823 15.7749 15.082 16.3407 15.083C16.3879 15.083 16.4385 15.0758 16.4768 15.1158Z" fill="#90D4F0"/>
<path d="M17.6438 22.3194C17.5956 21.8219 17.5473 21.3243 17.499 20.8268C17.5034 20.8229 17.5064 20.818 17.5078 20.8123C17.5257 20.7864 17.5551 20.7802 17.5818 20.77C18.0114 20.6059 18.4391 20.4373 18.8681 20.2716C18.9028 20.2582 18.9385 20.2349 18.9767 20.2649C18.9294 20.3849 18.8464 20.4835 18.7781 20.5906C18.5198 20.9954 18.2576 21.3976 17.9976 21.8014C17.8989 21.9547 17.8031 22.1099 17.7038 22.2628C17.6894 22.285 17.6805 22.3185 17.6438 22.3194Z" fill="#256EA7"/>
<path d="M18.9768 20.2649C18.8033 20.3131 18.6403 20.3898 18.4723 20.453C18.1748 20.5649 17.8796 20.683 17.583 20.7975C17.5596 20.8065 17.5331 20.8076 17.508 20.8124C17.4696 20.6077 17.4925 20.4011 17.4887 20.1953C17.485 19.9987 17.4879 19.8019 17.4879 19.6052C17.4879 19.5667 17.4841 19.5275 17.5037 19.4917C17.5419 19.4603 17.5776 19.4824 17.6112 19.4994C17.8979 19.6446 18.1832 19.7927 18.4684 19.9409C18.5967 20.0076 18.7259 20.0725 18.8542 20.1391C18.8915 20.1584 18.9289 20.1767 18.9578 20.2083C18.9708 20.2149 18.9838 20.2215 18.9969 20.2282C18.9902 20.2404 18.9835 20.2527 18.9768 20.2649Z" fill="#55AEDE"/>
<path d="M21.0488 16.2568C21.0572 16.241 21.0718 16.2378 21.0879 16.2378C21.0797 16.2541 21.0649 16.2567 21.0488 16.2568Z" fill="#256EA7"/>
<path d="M16.4766 15.1157C15.8577 15.1154 15.2388 15.1152 14.6198 15.1147C14.5812 15.1147 14.5426 15.1132 14.5039 15.1124C14.5648 14.99 14.6259 14.8676 14.6867 14.7452C14.7024 14.7135 14.7182 14.6823 14.7545 14.6692C14.8989 14.6507 15.0441 14.6562 15.1891 14.6562C16.5868 14.656 17.9844 14.6559 19.3821 14.6568C19.4418 14.6568 19.5059 14.642 19.5582 14.6881C19.5585 14.8309 19.5588 14.9736 19.5591 15.1163C19.5572 15.1203 19.5557 15.1245 19.5547 15.1288C19.5204 15.1675 19.4735 15.1644 19.4289 15.1644C18.8293 15.1653 18.2298 15.1653 17.6302 15.1645C17.5854 15.1644 17.5388 15.1667 17.5042 15.1287C17.4861 15.1105 17.4628 15.1143 17.4406 15.1144C17.1193 15.1147 16.7979 15.1152 16.4766 15.1157L16.4766 15.1157Z" fill="#E9F6FD"/>
<path d="M19.5586 14.6881C17.994 14.688 16.4295 14.6879 14.8649 14.6869C14.8282 14.6869 14.787 14.7026 14.7549 14.6692C15.0154 14.5594 15.2789 14.4561 15.5353 14.3374C15.6754 14.2725 15.8164 14.2605 15.9659 14.2607C17.2072 14.2628 18.4485 14.2624 19.6899 14.2609C19.7661 14.2608 19.8332 14.2729 19.8985 14.3156C20.0827 14.4362 20.2699 14.5523 20.4518 14.6881H19.5586Z" fill="#FEFEFE"/>
<path d="M17.5049 15.1289C18.1884 15.1289 18.8719 15.129 19.5553 15.129C19.5563 15.6445 19.5572 16.1601 19.5583 16.6756C19.5585 16.7626 19.5598 16.8496 19.5606 16.9366C19.4078 17.0328 19.2382 17.0951 19.0764 17.1728C18.6998 17.3537 18.3197 17.5272 17.9416 17.7052C17.8201 17.7624 17.6922 17.8071 17.5802 17.8839L17.5468 17.8861C17.5354 17.881 17.5338 17.8737 17.542 17.8643C17.5421 17.6288 17.5549 17.3924 17.5394 17.1579C17.512 16.7453 17.5401 16.3326 17.5204 15.9207C17.5077 15.6566 17.507 15.3929 17.5049 15.1289L17.5049 15.1289Z" fill="#69C1EA"/>
<path d="M17.5419 17.8643L17.5467 17.886L17.5501 17.9407C17.5956 18.05 17.5729 18.1632 17.567 18.275C17.5642 18.3263 17.5534 18.3775 17.5557 18.4292C17.5687 18.7328 17.5284 19.0351 17.5349 19.3386C17.5358 19.3794 17.5394 19.4241 17.4992 19.4535C17.3393 19.431 17.1916 19.3665 17.0418 19.3129C16.8399 19.2405 16.6351 19.1769 16.4331 19.1052C16.2674 19.0463 16.1014 18.988 15.9355 18.9295C16.053 18.8183 16.1988 18.7485 16.3323 18.6612C16.7109 18.4138 17.093 18.1718 17.4744 17.9287C17.4999 17.9124 17.5249 17.8997 17.524 17.8648C17.53 17.8646 17.536 17.8645 17.5419 17.8643Z" fill="#ABDCF1"/>
<path d="M17.499 19.4535C17.501 19.3924 17.5041 19.3313 17.5046 19.2702C17.507 18.9646 17.5246 18.6595 17.5309 18.3539C17.5337 18.2169 17.5333 18.0779 17.55 17.9407C17.6343 17.9789 17.6537 18.068 17.6963 18.1363C18.0038 18.6295 18.3067 19.1256 18.6113 19.6206C18.7191 19.7957 18.8278 19.9701 18.935 20.1455C18.9463 20.1641 18.9503 20.1872 18.9577 20.2083C18.7954 20.147 18.6455 20.0599 18.4912 19.9822C18.4569 19.965 18.4252 19.9428 18.3911 19.9253C18.1315 19.792 17.8717 19.6592 17.6119 19.5263C17.5777 19.5088 17.545 19.487 17.5037 19.4917C17.5022 19.479 17.5006 19.4662 17.499 19.4535Z" fill="#54A4D7"/>
</svg>
