<!--

    Copyright (C) 2017-2019 Dremio Corporation

    Licensed under the Apache License, Version 2.0 (the "License");
    you may not use this file except in compliance with the License.
    You may obtain a copy of the License at

        http://www.apache.org/licenses/LICENSE-2.0

    Unless required by applicable law or agreed to in writing, software
    distributed under the License is distributed on an "AS IS" BASIS,
    WITHOUT WARRANTIES OR CONDITIONS OF ANY KIND, either express or implied.
    See the License for the specific language governing permissions and
    limitations under the License.

-->
<svg width="20" height="16" viewBox="0 0 20 16" fill="none" xmlns="http://www.w3.org/2000/svg">
<path fill-rule="evenodd" clip-rule="evenodd" d="M0 1.5C0 0.671573 0.671573 0 1.5 0H2.5C3.32843 0 4 0.671573 4 1.5V2.5C4 3.32843 3.32843 4 2.5 4H1.5C0.671573 4 0 3.32843 0 2.5V1.5ZM1.5 1.83333C1.5 1.64924 1.64924 1.5 1.83333 1.5H2.16667C2.35076 1.5 2.5 1.64924 2.5 1.83333V2.16667C2.5 2.35076 2.35076 2.5 2.16667 2.5H1.83333C1.64924 2.5 1.5 2.35076 1.5 2.16667V1.83333Z" fill="#505862"/>
<path fill-rule="evenodd" clip-rule="evenodd" d="M0 13.5C0 12.6716 0.671573 12 1.5 12H2.5C3.32843 12 4 12.6716 4 13.5V14.5C4 15.3284 3.32843 16 2.5 16H1.5C0.671573 16 0 15.3284 0 14.5V13.5ZM1.5 13.8333C1.5 13.6492 1.64924 13.5 1.83333 13.5H2.16667C2.35076 13.5 2.5 13.6492 2.5 13.8333V14.1667C2.5 14.3508 2.35076 14.5 2.16667 14.5H1.83333C1.64924 14.5 1.5 14.3508 1.5 14.1667V13.8333Z" fill="#505862"/>
<path fill-rule="evenodd" clip-rule="evenodd" d="M1.5 6C0.671573 6 0 6.67157 0 7.5V8.5C0 9.32843 0.671573 10 1.5 10H2.5C3.32843 10 4 9.32843 4 8.5V7.5C4 6.67157 3.32843 6 2.5 6H1.5ZM1.83333 7.5C1.64924 7.5 1.5 7.64924 1.5 7.83333V8.16667C1.5 8.35076 1.64924 8.5 1.83333 8.5H2.16667C2.35076 8.5 2.5 8.35076 2.5 8.16667V7.83333C2.5 7.64924 2.35076 7.5 2.16667 7.5H1.83333Z" fill="#505862"/>
<path d="M6.5 1.25C6.08579 1.25 5.75 1.58579 5.75 2C5.75 2.41421 6.08579 2.75 6.5 2.75H19.25C19.6642 2.75 20 2.41421 20 2C20 1.58579 19.6642 1.25 19.25 1.25H6.5Z" fill="#505862"/>
<path d="M5.75 8C5.75 7.58579 6.08579 7.25 6.5 7.25H19.25C19.6642 7.25 20 7.58579 20 8C20 8.41421 19.6642 8.75 19.25 8.75H6.5C6.08579 8.75 5.75 8.41421 5.75 8Z" fill="#505862"/>
<path d="M6.5 13.25C6.08579 13.25 5.75 13.5858 5.75 14C5.75 14.4142 6.08579 14.75 6.5 14.75H19.25C19.6642 14.75 20 14.4142 20 14C20 13.5858 19.6642 13.25 19.25 13.25H6.5Z" fill="#505862"/>
</svg>
