<?xml version="1.0" encoding="UTF-8" standalone="no"?>
<!--

    Copyright (C) 2017-2018 Dremio Corporation

    Licensed under the Apache License, Version 2.0 (the "License");
    you may not use this file except in compliance with the License.
    You may obtain a copy of the License at

        http://www.apache.org/licenses/LICENSE-2.0

    Unless required by applicable law or agreed to in writing, software
    distributed under the License is distributed on an "AS IS" BASIS,
    WITHOUT WARRANTIES OR CONDITIONS OF ANY KIND, either express or implied.
    See the License for the specific language governing permissions and
    limitations under the License.

-->
<!DOCTYPE svg PUBLIC "-//W3C//DTD SVG 1.1//EN" "http://www.w3.org/Graphics/SVG/1.1/DTD/svg11.dtd">
<svg width="100%" height="100%" viewBox="0 0 200 200" version="1.1" xmlns="http://www.w3.org/2000/svg" xmlns:xlink="http://www.w3.org/1999/xlink" xml:space="preserve" style="fill-rule:evenodd;clip-rule:evenodd;stroke-linejoin:round;stroke-miterlimit:1.41421;">
    <g id="g14">
        <path id="path48" d="M46.939,126.15c-5.924,2.687 -17.453,8.7 -16.36,15.218c1.504,4.006 6.199,-0.228 7.931,-1.914c3.736,-3.509 6.697,-8.384 8.429,-13.304m35.36,-14.397c-3.918,10.251 -15.356,15.127 -18.545,13.396c-1.596,-0.867 0.136,-4.101 0.181,-6.333c-2.324,0.91 -6.152,2.596 -8.476,3.553c5.56,4.145 8.431,11.299 8.386,18.088c0,6.969 -2.87,13.393 -8.248,17.813c9.569,14.167 4.696,26.376 -8.475,35.899l-0.821,0.547l-0.274,-0.956c-1.957,-6.743 -4.42,-12.438 -9.068,-17.815c-2.324,-2.687 -4.968,-5.148 -7.564,-7.608c-3.417,-3.235 -6.697,-6.513 -9.797,-10.021c-13.032,-13.851 -18.183,-37.86 -16.495,-56.403c0.864,-9.567 3.783,-18.724 8.247,-27.199c3.555,-6.742 8.065,-12.938 13.261,-18.494c11.483,-12.303 26.703,-22.008 42.88,-26.791c14.216,-4.235 30.483,-4.965 44.019,2.005c2.187,1.139 5.468,3.143 7.291,4.647c1.141,1.047 2.277,2.141 3.372,3.189c0.136,0.091 0.274,0.228 0.365,0.363l63.295,-32.3c5.238,-2.596 9.157,-2.596 10.753,-0.727c1.868,2.186 -0.728,6.74 -4.419,9.43l-54.228,39.362c0.956,3.143 -0.638,7.699 -3.009,10.387c7.248,2.505 0.867,13.12 -2.323,16.903c-9.068,10.752 -25.7,19.18 -40.509,25.33c-3.965,1.686 -6.243,2.416 -9.799,3.735" style="fill:#393c42;"/>
        <path id="path52" d="M131.924,74.624c4.056,-5.103 1.231,-8.064 -1.595,-5.193c-5.56,5.693 -13.989,7.652 -21.598,6.422c-11.122,-1.868 -11.619,-3.553 -9.752,-5.194c13.124,4.785 28.388,-1.456 34.721,-11.799c2.735,-3.917 -6.424,-7.061 -11.845,-14.396c-25.93,-34.989 -107.087,-4.464 -114.834,56.721c-2.37,18.404 2.779,38.768 15.45,53.119c9.476,10.753 19.774,15.219 25.606,32.121c11.348,-9.75 9.57,-20.774 1.279,-30.433c14.169,-7.381 12.119,-26.563 2.14,-32.393c-4.647,17.084 -21.327,29.704 -25.2,17.585c-2.505,-12.347 17.819,-20.545 50.399,-32.892c27.25,-10.207 44.84,-18.635 55.229,-33.668" style="fill:#55bfce;"/>
        <path id="path56" d="M131.924,74.624c4.056,-5.103 1.231,-8.064 -1.595,-5.193c-4.782,4.92 -11.984,7.062 -18.546,6.742c-11.21,-0.82 -20.142,-3.006 -28.343,-2.142c-16.133,1.64 -31.853,11.845 -40.283,20.456c-14.217,14.58 -29.893,44.829 -14.08,50.708c-1.185,-0.731 -2.142,-2.051 -2.781,-4.011c-2.505,-12.347 17.819,-20.545 50.399,-32.892c27.25,-10.207 44.84,-18.635 55.229,-33.668" style="fill:#fff;"/>
        <path id="path60" d="M62.157,98.496c8.386,4.1 6.7,18.496 5.47,22.098c15.902,-4.512 11.164,-28.064 18.548,-35.264c-9.252,-0.274 -26.57,9.02 -24.018,13.166" style="fill:#55bfce;"/>
        <path id="path64" d="M89.045,55.853c2.277,-1.184 5.058,-0.364 6.289,1.915c1.184,2.232 0.317,5.01 -1.916,6.241c-2.232,1.184 -5.056,0.363 -6.243,-1.913c-1.229,-2.234 -0.364,-5.012 1.87,-6.243" style="fill:#393c42;"/>
        <path id="path68" d="M127.641,57.812l63.796,-44.42c1.776,-1.274 4.148,-4.009 3.189,-5.33c-0.955,-1.32 -3.736,-0.592 -6.105,0.456l-68.994,37.266c-2.23,4.647 2.28,14.443 8.114,12.028" style="fill:#55bfce;"/>
        <path id="path72" d="M122.036,49.02l66.667,-39.225c2.916,-1.732 4.056,-1.687 5.83,-1.87c-1.001,-1.137 -3.736,-0.454 -6.013,0.592l-68.992,37.267c-1.684,3.508 0.503,10.024 4.193,11.892c-1.321,-2.871 -2.186,-5.877 -1.685,-8.656" style="fill:#fff;"/>
        <path id="path76" d="M23.836,66.468c2.186,-0.364 3.874,1.14 3.828,3.374c0,2.23 -1.776,4.328 -3.963,4.692c-2.143,0.362 -3.831,-1.14 -3.783,-3.327c0,-2.232 1.775,-4.328 3.918,-4.739" style="fill:#25abad;"/>
        <path id="path80" d="M36.778,52.208c1.914,-0.318 3.417,1.003 3.37,2.963c-0.045,2.005 -1.594,3.825 -3.508,4.191c-1.913,0.32 -3.418,-1.003 -3.372,-2.962c0.046,-1.958 1.595,-3.828 3.51,-4.192" style="fill:#25abad;"/>
        <path id="path84" d="M75.921,33.348c1.96,0.091 3.144,1.731 2.643,3.644c-0.456,1.915 -2.415,3.372 -4.328,3.28c-1.918,-0.09 -3.1,-1.732 -2.644,-3.644c0.454,-1.914 2.414,-3.372 4.329,-3.28" style="fill:#25abad;"/>
        <path id="path88" d="M87.905,31.389c1.595,0.364 2.368,1.821 1.732,3.37c-0.639,1.503 -2.461,2.462 -4.009,2.142c-1.595,-0.364 -2.372,-1.823 -1.734,-3.371c0.638,-1.503 2.46,-2.461 4.011,-2.141" style="fill:#25abad;"/>
        <path id="path92" d="M36.915,61.138c1.41,-0.228 2.552,0.774 2.505,2.233c0,1.457 -1.185,2.824 -2.597,3.053c-1.412,0.274 -2.506,-0.729 -2.506,-2.188c0.046,-1.457 1.184,-2.825 2.598,-3.098" style="fill:#25abad;"/>
        <path id="path96" d="M16.727,77.903c1.459,-0.272 2.644,0.775 2.599,2.28c0,1.548 -1.23,2.96 -2.69,3.233c-1.504,0.228 -2.644,-0.774 -2.644,-2.277c0.048,-1.549 1.231,-3.007 2.735,-3.236" style="fill:#25abad;"/>
        <path id="path100" d="M136.026,36.901l-2.96,1.594c0.225,4.328 3.78,9.568 6.33,10.434c-2.004,-3.052 -3.825,-8.339 -3.37,-12.028m15.902,-8.61l-2.596,1.412c0.319,3.872 3.508,8.519 5.103,8.792c-1.231,-1.866 -2.825,-7.06 -2.507,-10.204m15.722,-8.52l-2.006,1.094c-0.045,2.55 1.824,6.377 3.918,6.925c-1.002,-1.595 -2.232,-4.876 -1.912,-8.019m15.129,-8.154l-1.733,0.956c0.138,1.686 2.097,4.829 3.19,5.33c-0.41,-1.229 -1.64,-3.734 -1.457,-6.286" style="fill:#25abad;"/>
    </g>
</svg>
