<?xml version="1.0" encoding="UTF-8" standalone="no"?>
<!--

    Copyright (C) 2017-2018 Dremio Corporation

    Licensed under the Apache License, Version 2.0 (the "License");
    you may not use this file except in compliance with the License.
    You may obtain a copy of the License at

        http://www.apache.org/licenses/LICENSE-2.0

    Unless required by applicable law or agreed to in writing, software
    distributed under the License is distributed on an "AS IS" BASIS,
    WITHOUT WARRANTIES OR CONDITIONS OF ANY KIND, either express or implied.
    See the License for the specific language governing permissions and
    limitations under the License.

-->
<svg width="24px" height="24px" viewBox="0 0 24 24" version="1.1" xmlns="http://www.w3.org/2000/svg" xmlns:xlink="http://www.w3.org/1999/xlink" xmlns:sketch="http://www.bohemiancoding.com/sketch/ns">
    <!-- Generator: Sketch 3.5.1 (25234) - http://www.bohemiancoding.com/sketch -->
    <title>Icon/Narwhal-Reversed</title>
    <desc>Created with Sketch.</desc>
    <defs></defs>
    <g id="Icons" stroke="none" stroke-width="1" fill="none" fill-rule="evenodd" sketch:type="MSPage">
        <g id="Icon/Narwhal-Reversed" sketch:type="MSArtboardGroup">
            <g sketch:type="MSLayerGroup">
                <g id="icon-box-24-copy-14" sketch:type="MSShapeGroup">
                    <rect id="icon-box-24" x="0" y="0" width="24" height="24"></rect>
                </g>
                <g id="Narwhal" transform="translate(1.000000, 1.000000)" fill="#A1DBE4" sketch:type="MSShapeGroup">
                    <path d="M20.9788049,0.558226829 C20.7611463,0.558226829 20.5507805,0.61432439 20.3645366,0.722031707 L19.7300732,1.06422683 C19.5847805,1.14164146 19.459122,1.23420244 19.3525366,1.3318122 C19.2397805,1.35817805 19.1191707,1.39912927 18.9940732,1.46195854 L18.9239512,1.49673902 L18.8790732,1.52759268 L18.7034878,1.62295854 L18.033122,1.9803 C17.823878,2.09249512 17.6460488,2.21983659 17.4973902,2.36569024 C17.3279756,2.3943 17.1664146,2.44983659 17.0143902,2.53117805 L16.9033171,2.59064146 L16.8500244,2.61869024 L16.8270244,2.63439756 L16.7625122,2.6680561 L16.7456829,2.67647073 L16.7288537,2.68600732 L15.915439,3.14544634 C15.7207805,3.25427561 15.5451951,3.38834878 15.3914878,3.5443 C15.1889756,3.57459268 14.9982439,3.63910488 14.8226585,3.73671463 L14.7946098,3.75242195 L14.7934878,3.7513 L13.870122,4.26234878 C12.8985122,3.40349512 11.569,2.93900732 10.0336098,2.93900732 C5.75841463,2.93844634 0.734878049,6.45015366 0.0712439024,11.6773244 C-0.240658537,14.1069098 0.485804878,16.5920317 2.01558537,18.3226415 C2.3645122,18.7175683 2.72129268,19.0418122 3.03543902,19.3273488 C3.7304878,19.9590073 4.232,20.4150805 4.58204878,21.4315683 L5.12226829,23.0000561 L6.37717073,21.9151293 C7.65226829,20.8122512 7.9557561,19.3722268 7.26743902,17.9854951 C7.71902439,17.4463976 7.9787561,16.7631293 7.99558537,16.0203976 C8.00343902,15.6883 7.96136585,15.3618122 7.87609756,15.0532756 L8.06178049,15.0005439 C8.89090244,14.7683 9.50460976,14.2140561 9.89056098,13.3484707 C12.6191463,12.2865439 14.4557805,11.2924951 15.6377561,9.60115366 C16.2750244,8.77539756 16.0635366,8.10334878 15.9418049,7.85090976 C15.9305854,7.82734878 15.9182439,7.8037878 15.9059024,7.78134878 C16.0040732,7.61586098 16.0753171,7.42232439 16.0983171,7.21308049 L16.9908293,6.59769024 C17.1479024,6.48437317 17.363878,6.30486098 17.5574146,6.05690976 C17.7610488,6.01034878 17.9517805,5.92956829 18.1211951,5.8168122 L18.1363415,5.80671463 L18.1509268,5.7960561 L18.2227317,5.74500732 L18.2967805,5.69676341 L18.3136098,5.68610488 L18.329878,5.67488537 L19.1057073,5.13242195 C19.2369756,5.0437878 19.3990976,4.92149512 19.5533659,4.75039756 C19.6823902,4.70664146 19.8052439,4.6460561 19.9219268,4.56920244 L19.9696098,4.53947073 L19.8428293,4.33247073 C19.8456341,4.3263 19.849,4.32012927 19.8518049,4.31395854 L19.9847561,4.52993415 L20.0043902,4.51815366 L20.0049512,4.51815366 L20.010561,4.51422683 L20.079,4.47215366 L20.1070488,4.44747073 L20.931122,3.87808049 C21.0472439,3.7995439 21.1852439,3.69520244 21.3148293,3.55439756 C21.4376829,3.50895854 21.5560488,3.44837317 21.6693659,3.37151951 L21.9133902,3.19817805 C22.1770488,3.01642195 22.3531951,2.75500732 22.4362195,2.4217878 L22.4418293,2.39990976 L22.4463171,2.37859268 L22.5214878,2.01732439 L22.7419512,0.961007317 L21.6951707,0.699592683 L21.366439,0.617129268 C21.2710732,0.588519512 21.1392439,0.558226829 20.9788049,0.558226829 M20.9788049,1.68017805 C21.0068537,1.68017805 21.0354634,1.68915366 21.0618293,1.69756829 L21.4236585,1.78788537 L21.3479268,2.14915366 C21.3327805,2.20973902 21.3176341,2.24732439 21.2727561,2.27761707 L21.0393902,2.44310488 C20.9468293,2.50593415 20.8626829,2.5278122 20.769,2.5278122 C20.7252439,2.5278122 20.6792439,2.52276341 20.629878,2.51547073 L20.6248293,2.53342195 C20.5872439,2.69890976 20.5042195,2.81222683 20.2932927,2.95527561 L19.4170488,3.56056829 L19.412,3.5650561 L19.3974146,3.57403171 L19.367122,3.59534878 C19.3727317,3.59142195 19.3772195,3.58749512 19.3822683,3.58356829 L19.3143902,3.62564146 C19.2167805,3.69295854 19.1264634,3.71539756 19.0165122,3.71539756 C18.9778049,3.71539756 18.9362927,3.71259268 18.8919756,3.70810488 C18.8218537,3.9145439 18.6883415,4.06039756 18.4633902,4.21298293 L17.687,4.75488537 L17.5916341,4.81715366 L17.4990732,4.8827878 C17.3958537,4.9517878 17.273561,4.98095854 17.1400488,4.98095854 C17.0564634,4.98095854 16.9683902,4.96973902 16.8780732,4.94898293 L16.8511463,5.03369024 C16.7535366,5.35008049 16.489878,5.57615366 16.354122,5.67376341 L14.8002195,6.74522683 C14.9673902,6.91183659 15.042,7.06217805 14.9303659,7.22486098 C14.4052927,8.08427561 13.3108293,8.68283659 12.1877561,8.68283659 C11.843878,8.68283659 11.4977561,8.6273 11.1645366,8.50556829 C10.9536098,8.68620244 11.0136341,8.86683659 12.2186098,9.06990976 C12.2320732,9.07215366 12.2455366,9.07327561 12.258439,9.07551951 C12.3549268,9.08393415 12.4508537,9.09347073 12.5501463,9.10020244 C12.5995122,9.10300732 12.648878,9.10412927 12.6988049,9.10412927 C13.3658049,9.10412927 14.0776829,8.86795854 14.5612439,8.37710488 C14.6448293,8.29183659 14.7278537,8.25312927 14.7962927,8.25312927 C14.9791707,8.25312927 15.0532195,8.53361707 14.7345854,8.93471463 C13.6406829,10.5166659 11.8169512,11.4215195 9.01656098,12.4823244 C8.81909756,13.1386659 8.49036585,13.7159098 7.75997561,13.9195439 C7.81943902,13.7506902 7.88787805,13.3518366 7.86768293,12.9204463 C4.85636585,14.0822268 3.02982927,14.930422 3.27778049,16.1567146 C3.29404878,16.2060805 3.312,16.2509585 3.33219512,16.2930317 C3.33556098,16.3008854 3.3394878,16.308178 3.34341463,16.3154707 C3.36136585,16.3508122 3.38043902,16.3844707 3.40119512,16.4147634 C3.404,16.4192512 3.40736585,16.423739 3.41017073,16.4276659 C3.45953659,16.4966659 3.51563415,16.5510805 3.57678049,16.5914707 C3.66934146,16.6509341 3.77480488,16.6789829 3.8892439,16.6789829 C4.59943902,16.6789829 5.64509756,15.5912512 6.00468293,14.2510805 C7.08904878,14.883861 7.31512195,16.9622756 5.77860976,17.7678366 C6.67504878,18.8146171 6.87082927,20.0044463 5.64285366,21.0663732 C5.01063415,19.229178 3.88812195,18.7473 2.85592683,17.5799098 C1.48546341,16.0282512 0.927853659,13.8146415 1.18421951,11.8186902 C1.78334146,7.09976341 6.40185366,4.06039756 10.0336098,4.06095854 C11.5129024,4.06095854 12.8289512,4.56527561 13.6423659,5.66647073 C13.6434878,5.66759268 13.6446098,5.66871463 13.6451707,5.66983659 L15.3370732,4.73244634 C15.3337073,4.73469024 15.3303415,4.7380561 15.3264146,4.74086098 L15.3673659,4.7173 C15.4604878,4.66569024 15.5586585,4.64549512 15.6708537,4.64549512 C15.7566829,4.64549512 15.8503659,4.65727561 15.9563902,4.67522683 C16.0472683,4.47439756 16.2049024,4.26908049 16.466878,4.12266585 L17.2802927,3.66322683 L17.4031463,3.59927561 L17.4311951,3.58020244 L17.5439512,3.52017805 C17.6202439,3.47922683 17.6982195,3.46408049 17.779,3.46408049 C17.8738049,3.46408049 17.9719756,3.48483659 18.0751951,3.51008049 C18.1509268,3.2868122 18.2664878,3.1280561 18.561,2.97042195 L19.2392195,2.60915366 L19.4664146,2.48517805 L19.4950244,2.4655439 C19.5808537,2.42290976 19.664439,2.40720244 19.7979512,2.40720244 C19.8344146,2.40720244 19.8742439,2.40832439 19.918561,2.41056829 C19.9780244,2.3000561 20.0885366,2.14410488 20.263561,2.0515439 L20.9187805,1.69756829 C20.9378537,1.68466585 20.9580488,1.68017805 20.9788049,1.68017805" id="Fill-3"></path>
                    <path d="M10.25,8 C10.6642136,8 11,7.66421356 11,7.25 C11,6.83578644 10.6642136,6.5 10.25,6.5 C9.83578644,6.5 9.5,6.83578644 9.5,7.25 C9.5,7.66421356 9.83578644,8 10.25,8 Z" id="Oval-7"></path>
                </g>
            </g>
        </g>
    </g>
</svg>
