<?xml version="1.0" encoding="UTF-8" standalone="no"?>
<!--

    Copyright (C) 2017-2019 Dremio Corporation

    Licensed under the Apache License, Version 2.0 (the "License");
    you may not use this file except in compliance with the License.
    You may obtain a copy of the License at

        http://www.apache.org/licenses/LICENSE-2.0

    Unless required by applicable law or agreed to in writing, software
    distributed under the License is distributed on an "AS IS" BASIS,
    WITHOUT WARRANTIES OR CONDITIONS OF ANY KIND, either express or implied.
    See the License for the specific language governing permissions and
    limitations under the License.

-->
<svg width="17" height="17" viewBox="0 0 17 17" fill="none" xmlns="http://www.w3.org/2000/svg">
<path fill-rule="evenodd" clip-rule="evenodd" d="M4.04167 5.93418C5.35216 5.64807 6.33333 4.48094 6.33333 3.08464C6.33333 1.4738 5.0275 0.167969 3.41667 0.167969C1.80584 0.167969 0.5 1.4738 0.5 3.08464C0.5 4.48094 1.48117 5.64807 2.79167 5.93418V11.0684C1.48117 11.3545 0.5 12.5217 0.5 13.918C0.5 15.5288 1.80584 16.8346 3.41667 16.8346C4.81297 16.8346 5.9801 15.8535 6.26621 14.543H10.2222C11.1302 14.543 11.8527 14.3142 12.4157 13.9389C12.9748 13.5662 13.3397 13.0737 13.5764 12.6003C13.8119 12.1293 13.9265 11.6658 13.9833 11.3254C14.0119 11.1537 14.0264 11.0093 14.0338 10.9053C14.0376 10.8532 14.0395 10.811 14.0405 10.7802C14.0411 10.7648 14.0413 10.7523 14.0415 10.7428C14.0416 10.738 14.0416 10.734 14.0416 10.7308L14.0417 10.7266L14.0417 10.7242C14.0417 10.7238 14.0417 10.7235 13.4167 10.7235H14.0417V10.0985C14.0417 9.75335 13.7618 9.47353 13.4167 9.47353C13.0715 9.47353 12.7917 9.75335 12.7917 10.0985V10.7215L12.7917 10.7226C12.7916 10.7252 12.7915 10.7306 12.7912 10.7386C12.7907 10.7546 12.7895 10.781 12.787 10.8163C12.782 10.887 12.7716 10.9921 12.7503 11.1199C12.7072 11.3785 12.6221 11.7136 12.4583 12.0412C12.2958 12.3664 12.0617 12.6726 11.7223 12.8988C11.3869 13.1225 10.9115 13.293 10.2222 13.293H6.26621C6.02406 12.1838 5.15081 11.3106 4.04167 11.0684V5.93418ZM3.41667 4.7513C4.33714 4.7513 5.08333 4.00511 5.08333 3.08464C5.08333 2.16416 4.33714 1.41797 3.41667 1.41797C2.49619 1.41797 1.75 2.16416 1.75 3.08464C1.75 4.00511 2.49619 4.7513 3.41667 4.7513ZM3.41667 15.5846C4.33714 15.5846 5.08333 14.8384 5.08333 13.918C5.08333 12.9975 4.33714 12.2513 3.41667 12.2513C2.49619 12.2513 1.75 12.9975 1.75 13.918C1.75 14.8384 2.49619 15.5846 3.41667 15.5846Z" fill="#505862"/>
<path d="M13.4167 8.01519C13.0715 8.01519 12.7917 7.73537 12.7917 7.39019V5.79297H11.1944C10.8493 5.79297 10.5694 5.51315 10.5694 5.16797C10.5694 4.82279 10.8493 4.54297 11.1944 4.54297H12.7917V2.94575C12.7917 2.60057 13.0715 2.32075 13.4167 2.32075C13.7618 2.32075 14.0417 2.60057 14.0417 2.94575V4.54297H15.6389C15.9841 4.54297 16.2639 4.82279 16.2639 5.16797C16.2639 5.51315 15.9841 5.79297 15.6389 5.79297H14.0417V7.39019C14.0417 7.73537 13.7618 8.01519 13.4167 8.01519Z" fill="#505862"/>
</svg>
