<?xml version="1.0" encoding="UTF-8" standalone="no"?>
<!--

    Copyright (C) 2017-2019 Dremio Corporation

    Licensed under the Apache License, Version 2.0 (the "License");
    you may not use this file except in compliance with the License.
    You may obtain a copy of the License at

        http://www.apache.org/licenses/LICENSE-2.0

    Unless required by applicable law or agreed to in writing, software
    distributed under the License is distributed on an "AS IS" BASIS,
    WITHOUT WARRANTIES OR CONDITIONS OF ANY KIND, either express or implied.
    See the License for the specific language governing permissions and
    limitations under the License.

-->
<svg width="20" height="21" viewBox="0 0 20 21" fill="none" xmlns="http://www.w3.org/2000/svg">
<path d="M8.987 0.889938C9.02413 0.694474 8.98209 0.492265 8.87013 0.327796C8.75817 0.163326 8.58546 0.0500686 8.39 0.0129383C8.19454 -0.024192 7.99233 0.0178464 7.82786 0.129806C7.66339 0.241765 7.55013 0.414474 7.513 0.609938L6.494 5.99894L1.75 5.99994C1.55109 5.99994 1.36032 6.07896 1.21967 6.21961C1.07902 6.36026 1 6.55103 1 6.74994C1 6.94885 1.07902 7.13962 1.21967 7.28027C1.36032 7.42092 1.55109 7.49994 1.75 7.49994L6.21 7.49794L5.264 12.4979L0.75 12.4999C0.551088 12.4999 0.360322 12.579 0.21967 12.7196C0.0790175 12.8603 0 13.051 0 13.2499C0 13.4489 0.0790175 13.6396 0.21967 13.7803C0.360322 13.9209 0.551088 13.9999 0.75 13.9999L4.98 13.9979L4.013 19.1139C3.99429 19.2109 3.99491 19.3106 4.01483 19.4073C4.03476 19.5041 4.07359 19.5959 4.12909 19.6776C4.1846 19.7593 4.25569 19.8292 4.33829 19.8833C4.42089 19.9375 4.51337 19.9748 4.61041 19.9931C4.70746 20.0114 4.80717 20.0103 4.90381 19.99C5.00045 19.9697 5.09213 19.9304 5.17357 19.8746C5.25502 19.8187 5.32463 19.7473 5.37842 19.6645C5.43221 19.5817 5.46911 19.4891 5.487 19.3919L6.507 13.9969L11.981 13.9949L11.013 19.1139C10.9943 19.2109 10.9949 19.3106 11.0148 19.4073C11.0348 19.5041 11.0736 19.5959 11.1291 19.6776C11.1846 19.7593 11.2557 19.8292 11.3383 19.8833C11.4209 19.9375 11.5134 19.9748 11.6104 19.9931C11.7075 20.0114 11.8072 20.0103 11.9038 19.99C12.0005 19.9697 12.0921 19.9304 12.1736 19.8746C12.255 19.8187 12.3246 19.7473 12.3784 19.6645C12.4322 19.5817 12.4691 19.4891 12.487 19.3919L13.508 13.9939L18.25 13.9919C18.4489 13.9919 18.6397 13.9129 18.7803 13.7723C18.921 13.6316 19 13.4409 19 13.2419C19 13.043 18.921 12.8523 18.7803 12.7116C18.6397 12.571 18.4489 12.4919 18.25 12.4919L13.792 12.4939L14.738 7.49394L19.25 7.49194C19.4489 7.49194 19.6397 7.41292 19.7803 7.27227C19.921 7.13162 20 6.94085 20 6.74194C20 6.54303 19.921 6.35226 19.7803 6.21161C19.6397 6.07096 19.4489 5.99194 19.25 5.99194L15.021 5.99394L15.987 0.889938C16.0241 0.694474 15.9821 0.492265 15.8701 0.327796C15.7582 0.163326 15.5855 0.0500686 15.39 0.0129383C15.1945 -0.024192 14.9923 0.0178464 14.8279 0.129806C14.6634 0.241765 14.5501 0.414474 14.513 0.609938L13.495 5.99494L8.021 5.99694L8.987 0.889938ZM7.737 7.49794L13.211 7.49494L12.265 12.4949L6.791 12.4969L7.737 7.49694V7.49794Z" fill="#505862"/>
</svg>
