<?xml version="1.0" encoding="UTF-8" standalone="no"?>
<!--

    Copyright (C) 2017-2019 Dremio Corporation

    Licensed under the Apache License, Version 2.0 (the "License");
    you may not use this file except in compliance with the License.
    You may obtain a copy of the License at

        http://www.apache.org/licenses/LICENSE-2.0

    Unless required by applicable law or agreed to in writing, software
    distributed under the License is distributed on an "AS IS" BASIS,
    WITHOUT WARRANTIES OR CONDITIONS OF ANY KIND, either express or implied.
    See the License for the specific language governing permissions and
    limitations under the License.

-->
<svg width="20" height="16" viewBox="0 0 20 16" fill="none" xmlns="http://www.w3.org/2000/svg">
<path fill-rule="evenodd" clip-rule="evenodd" d="M4.58038 0.934753C4.98461 1.02517 5.239 1.42616 5.14858 1.83038L4.3091 5.58333H5.77204L6.68475 1.50295C6.77517 1.09872 7.17616 0.844334 7.58038 0.934753C7.98461 1.02517 8.239 1.42616 8.14858 1.83038L7.3091 5.58333H8C8.41421 5.58333 8.75 5.91912 8.75 6.33333C8.75 6.74755 8.41421 7.08333 8 7.08333H6.97358L6.60077 8.75H7.41667C7.83088 8.75 8.16667 9.08578 8.16667 9.5C8.16667 9.91421 7.83088 10.25 7.41667 10.25H6.26524L5.31525 14.4971C5.22483 14.9013 4.82384 15.1557 4.41962 15.0652C4.01539 14.9748 3.761 14.5738 3.85142 14.1696L4.72818 10.25H3.26524L2.31525 14.4971C2.22483 14.9013 1.82384 15.1557 1.41962 15.0652C1.01539 14.9748 0.761002 14.5738 0.85142 14.1696L1.72818 10.25H0.75C0.335786 10.25 0 9.91421 0 9.5C0 9.08578 0.335786 8.75 0.75 8.75H2.0637L2.43651 7.08333H1.33333C0.91912 7.08333 0.583333 6.74755 0.583333 6.33333C0.583333 5.91912 0.91912 5.58333 1.33333 5.58333H2.77204L3.68475 1.50295C3.77517 1.09872 4.17616 0.844334 4.58038 0.934753ZM5.0637 8.75L5.43651 7.08333H3.97358L3.60077 8.75H5.0637Z" fill="#505862"/>
<path fill-rule="evenodd" clip-rule="evenodd" d="M15.8304 0.934753C16.2346 1.02517 16.489 1.42616 16.3986 1.83038L15.5591 5.58333H17.022L17.9348 1.50295C18.0252 1.09872 18.4262 0.844334 18.8304 0.934753C19.2346 1.02517 19.489 1.42616 19.3986 1.83038L18.5591 5.58333H19.25C19.6642 5.58333 20 5.91912 20 6.33333C20 6.74755 19.6642 7.08333 19.25 7.08333H18.2236L17.8508 8.75H18.6667C19.0809 8.75 19.4167 9.08578 19.4167 9.5C19.4167 9.91421 19.0809 10.25 18.6667 10.25H17.5152L16.5652 14.4971C16.4748 14.9013 16.0738 15.1557 15.6696 15.0652C15.2654 14.9748 15.011 14.5738 15.1014 14.1696L15.9782 10.25H14.5152L13.5652 14.4971C13.4748 14.9013 13.0738 15.1557 12.6696 15.0652C12.2654 14.9748 12.011 14.5738 12.1014 14.1696L12.9782 10.25H12C11.5858 10.25 11.25 9.91421 11.25 9.5C11.25 9.08578 11.5858 8.75 12 8.75H13.3137L13.6865 7.08333H12.5833C12.1691 7.08333 11.8333 6.74755 11.8333 6.33333C11.8333 5.91912 12.1691 5.58333 12.5833 5.58333H14.022L14.9348 1.50295C15.0252 1.09872 15.4262 0.844334 15.8304 0.934753ZM16.3137 8.75L16.6865 7.08333H15.2236L14.8508 8.75H16.3137Z" fill="#505862"/>
<path d="M9.08333 15C9.49755 15 9.83333 14.6642 9.83333 14.25C9.83333 13.8358 9.49755 13.5 9.08333 13.5C8.66912 13.5 8.33333 13.8358 8.33333 14.25C8.33333 14.6642 8.66912 15 9.08333 15Z" fill="#505862"/>
</svg>
