<?xml version="1.0" encoding="UTF-8" standalone="no"?>
<!--

    Copyright (C) 2017-2019 Dremio Corporation

    Licensed under the Apache License, Version 2.0 (the "License");
    you may not use this file except in compliance with the License.
    You may obtain a copy of the License at

        http://www.apache.org/licenses/LICENSE-2.0

    Unless required by applicable law or agreed to in writing, software
    distributed under the License is distributed on an "AS IS" BASIS,
    WITHOUT WARRANTIES OR CONDITIONS OF ANY KIND, either express or implied.
    See the License for the specific language governing permissions and
    limitations under the License.

-->
<svg width="20px" height="20px" viewBox="2 0 24 20" fill="none" xmlns="http://www.w3.org/2000/svg">
<rect x="2" y="2" width="20" height="20" rx="2" fill="#6E7987"/>
<rect x="4.27274" y="4.27274" width="15.4545" height="15.4545" rx="0.5" fill="white"/>
<path fill-rule="evenodd" clip-rule="evenodd" d="M8.81819 5.18182H11.5455V7.9091H8.81819V5.18182ZM5.18182 5.18183H7.9091V7.9091H5.18182V5.18183ZM15.1818 5.18182H12.4545V7.9091H15.1818V5.18182ZM16.0909 5.18182H18.8182V7.9091H16.0909V5.18182ZM5.18182 8.81818H7.90909V11.5455H5.18182V8.81818ZM8.81818 8.81819H11.5455V11.5455H8.81818V8.81819ZM15.1818 8.81819H12.4545V11.5455H15.1818V8.81819ZM16.0909 8.81819H18.8182V11.5455H16.0909V8.81819ZM7.90909 12.4545H5.18182V15.1818H7.90909V12.4545ZM11.5455 12.4545H8.81818V15.1818H11.5455V12.4545ZM12.4545 12.4545H15.1818V15.1818H12.4545V12.4545ZM18.8182 12.4545H16.0909V15.1818H18.8182V12.4545ZM8.81818 16.0909H11.5455V18.8182H8.81818V16.0909ZM5.18182 16.0909H7.90909V18.8182H5.18182V16.0909ZM15.1818 16.0909H12.4545V18.8182H15.1818V16.0909ZM16.0909 16.0909H18.8182V18.8182H16.0909V16.0909Z" fill="#6E7987"/>
</svg>
