<?xml version="1.0" encoding="UTF-8" standalone="no"?>
<!--

    Copyright (C) 2017-2019 Dremio Corporation

    Licensed under the Apache License, Version 2.0 (the "License");
    you may not use this file except in compliance with the License.
    You may obtain a copy of the License at

        http://www.apache.org/licenses/LICENSE-2.0

    Unless required by applicable law or agreed to in writing, software
    distributed under the License is distributed on an "AS IS" BASIS,
    WITHOUT WARRANTIES OR CONDITIONS OF ANY KIND, either express or implied.
    See the License for the specific language governing permissions and
    limitations under the License.

-->
<svg viewBox="0 0 24 24" fill="none" xmlns="http://www.w3.org/2000/svg">
<rect x="2" y="2" width="20" height="20" rx="2" fill="#A672BB"/>
<path fill-rule="evenodd" clip-rule="evenodd" d="M5 4.33337C4.63181 4.33337 4.33334 4.63185 4.33334 5.00004V19C4.33334 19.3682 4.63181 19.6667 5 19.6667H19C19.3682 19.6667 19.6667 19.3682 19.6667 19V5.00004C19.6667 4.63185 19.3682 4.33337 19 4.33337H5ZM5.16667 5.16671H7.83334V7.83337H5.16667V5.16671ZM8.83334 5.16671H11.5V7.83337H8.83334V5.16671ZM12.5 5.16671H15.1667V7.83337H12.5V5.16671ZM16.1667 5.16671H18.8333V7.83337H16.1667V5.16671ZM5.16667 8.83337H7.83334V11.5H5.16667V8.83337ZM8.83334 8.83337H11.5V11.5H8.83334V8.83337ZM12.5 8.83337H15.1667V11.5H12.5V8.83337ZM16.1667 8.83337H18.8333V11.5H16.1667V8.83337ZM5.16667 12.5H7.83334V15.1667H5.16667V12.5ZM8.83334 12.5H11.5V15.1667H8.83334V12.5ZM12.5 12.5H15.1667V15.1667H12.5V12.5ZM16.1667 12.5H18.8333V15.1667H16.1667V12.5ZM5.16667 16.1667H7.83334V18.8334H5.16667V16.1667ZM8.83334 16.1667H11.5V18.8334H8.83334V16.1667ZM12.5 16.1667H15.1667V18.8334H12.5V16.1667ZM16.1667 16.1667H18.8333V18.8334H16.1667V16.1667Z" fill="white"/>
</svg>
