<?xml version="1.0" encoding="UTF-8"?>
<!--

    Copyright (C) 2017-2019 Dremio Corporation

    Licensed under the Apache License, Version 2.0 (the "License");
    you may not use this file except in compliance with the License.
    You may obtain a copy of the License at

        http://www.apache.org/licenses/LICENSE-2.0

    Unless required by applicable law or agreed to in writing, software
    distributed under the License is distributed on an "AS IS" BASIS,
    WITHOUT WARRANTIES OR CONDITIONS OF ANY KIND, either express or implied.
    See the License for the specific language governing permissions and
    limitations under the License.

-->
<svg width="31px" height="31px" viewBox="-2.5 -5 23 28" version="1.1" xmlns="http://www.w3.org/2000/svg" xmlns:xlink="http://www.w3.org/1999/xlink">
  <title>_Icon/Job/Complete Copy 3</title>
  <g id="Jobs" stroke="none" stroke-width="1" fill="none" fill-rule="evenodd">
    <g id="Jobs-/-Icons" transform="translate(-27.000000, -235.000000)">
      <g id="_Icon/Job/Job-Queued" transform="translate(24.000000, 232.000000)">
        <rect id="icon-box-24" x="0" y="0" width="24" height="24"></rect>
        <rect id="Rectangle" fill="#5D5DB2" fill-rule="evenodd" x="3" y="3" width="18" height="18" rx="2"></rect>
        <g id="hourglass" stroke-width="1" fill-rule="evenodd" transform="translate(6.000000, 5.000000)" fill="#FFFFFF">
          <g id="Group">
            <path d="M11.1428571,0 C11.5822041,0 11.944688,0.2704 11.9942299,0.618402041 L12,0.7 L12,2.2197 C12,2.72242727 11.7733176,3.21531983 11.3721155,3.59477137 L11.2465714,3.7051 L7.212,7 L11.2465714,10.2949 C11.6883896,10.6557182 11.9495702,11.1241397 11.9934062,11.6281134 L12,11.7803 L12,13.3 C12,13.6588 11.668898,13.9548286 11.242773,13.9952878 L11.1428571,14 L0.857142857,14 C0.417795918,14 0.0553119534,13.7296 0.00577009579,13.381598 L0,13.3 L0,11.7803 C0,11.2699364 0.221015348,10.7879198 0.62633895,10.4068274 L0.753428571,10.2956 L4.788,7 L0.753428571,3.7051 C0.317844156,3.35000909 0.0515631641,2.87053802 0.00674830954,2.37081901 L0,2.2204 L0,0.7 C0,0.3412 0.331102041,0.0451714286 0.757226989,0.0047122449 L0.857142857,0 L11.1428571,0 Z M10.6140369,11.0694321 L5.999,7.301 L1.41201368,11.0481063 L1.31133315,11.1353759 C1.13618521,11.3000531 1.03674693,11.4813222 1.00846605,11.6678459 L1,11.7803 L0.997,13 L11,13.001 L11.0009373,11.8235861 L10.9971677,11.7147669 C10.9807177,11.5256437 10.8909647,11.3386072 10.7237178,11.1689897 L10.6140369,11.0694321 Z M1,0.998 L0.998995154,2.17558167 L1.00275114,2.28149737 C1.01956873,2.46902602 1.11357273,2.66358034 1.27852667,2.83253097 L1.38596314,2.93056787 L6,6.698 L10.58645,2.95394112 L10.6849768,2.86824514 C10.8584038,2.7042202 10.9615519,2.51459652 10.9911172,2.3297741 L11,2.2197 L11.002,1 L1,0.998 Z" id="Shape"></path>
            <g id="Path-2" opacity="0.5" transform="translate(2.000000, 2.000000)">
              <path d="M0.6,2.55 L4,0 L4,0 L7.4,2.55 C7.51045695,2.63284271 7.53284271,2.78954305 7.45,2.9 C7.4027864,2.96295146 7.32868933,3 7.25,3 L0.75,3 C0.611928813,3 0.5,2.88807119 0.5,2.75 C0.5,2.67131067 0.537048539,2.5972136 0.6,2.55 Z" id="Path" transform="translate(4.000000, 1.500000) scale(1, -1) translate(-4.000000, -1.500000) "></path>
            </g>
          </g>
        </g>
      </g>
    </g>
  </g>
</svg>
