<?xml version="1.0" encoding="UTF-8" standalone="no"?>
<!--

    Copyright (C) 2017-2019 Dremio Corporation

    Licensed under the Apache License, Version 2.0 (the "License");
    you may not use this file except in compliance with the License.
    You may obtain a copy of the License at

        http://www.apache.org/licenses/LICENSE-2.0

    Unless required by applicable law or agreed to in writing, software
    distributed under the License is distributed on an "AS IS" BASIS,
    WITHOUT WARRANTIES OR CONDITIONS OF ANY KIND, either express or implied.
    See the License for the specific language governing permissions and
    limitations under the License.

-->
<svg width="24" height="24" viewBox="0 0 24 24" fill="none" xmlns="http://www.w3.org/2000/svg">
<path fill-rule="evenodd" clip-rule="evenodd" d="M16.9418 10.5079C16.8668 10.3787 16.7301 10.2997 16.5834 10.2997H12.833V3.92444C12.833 3.72979 12.7038 3.56063 12.5196 3.51303C12.3355 3.46543 12.1421 3.55128 12.0513 3.72129L7.0507 13.0716C6.98069 13.2025 6.98319 13.3632 7.0582 13.4915C7.13237 13.6207 7.26905 13.6998 7.41574 13.6998H11.1662V20.075C11.1662 20.2696 11.2953 20.4388 11.4795 20.4864C11.5137 20.4958 11.5487 20.5 11.5829 20.5C11.7329 20.5 11.8746 20.4167 11.9487 20.2781L16.9493 10.9278C17.0193 10.7969 17.0168 10.6363 16.9418 10.5079Z" fill="url(#paint0_linear)"/>
<defs>
<linearGradient id="paint0_linear" x1="7" y1="3.5" x2="7" y2="20.5" gradientUnits="userSpaceOnUse">
<stop stop-color="#56A2FD"/>
<stop offset="1" stop-color="#C94DCA"/>
</linearGradient>
</defs>
</svg>
