<!--

    Copyright (C) 2017-2019 Dremio Corporation

    Licensed under the Apache License, Version 2.0 (the "License");
    you may not use this file except in compliance with the License.
    You may obtain a copy of the License at

        http://www.apache.org/licenses/LICENSE-2.0

    Unless required by applicable law or agreed to in writing, software
    distributed under the License is distributed on an "AS IS" BASIS,
    WITHOUT WARRANTIES OR CONDITIONS OF ANY KIND, either express or implied.
    See the License for the specific language governing permissions and
    limitations under the License.

-->
<svg width="24" height="25" viewBox="0 0 24 25" fill="none" xmlns="http://www.w3.org/2000/svg">
<path fill-rule="evenodd" clip-rule="evenodd" d="M16.986 7.98679C18.2743 7.34266 18.5 6.73033 18.5 6.5C18.5 6.26967 18.2743 5.65734 16.986 5.01321C15.7875 4.41395 14.0268 4 12 4C9.97324 4 8.2125 4.41395 7.01397 5.01321C5.72571 5.65734 5.5 6.26967 5.5 6.5C5.5 6.73033 5.72571 7.34266 7.01397 7.98679C8.2125 8.58605 9.97324 9 12 9C14.0268 9 15.7875 8.58605 16.986 7.98679ZM18.5 10.5V8.83236C17.0479 9.84229 14.6776 10.5 12 10.5C9.32244 10.5 6.95211 9.84229 5.5 8.83236V10.5C5.5 10.7303 5.72571 11.3427 7.01397 11.9868C8.2125 12.5861 9.97324 13 12 13C14.0268 13 15.7875 12.5861 16.986 11.9868C18.2743 11.3427 18.5 10.7303 18.5 10.5ZM20 10.5V6.5C20 4.29086 16.4183 2.5 12 2.5C7.58172 2.5 4 4.29086 4 6.5V10.5V14.5C4 16.5827 7.18341 18.2936 11.25 18.4827V19.7007C11.0256 19.8305 10.838 20.0167 10.7065 20.24H4.79349C4.53274 19.7972 4.05107 19.5 3.5 19.5C2.67157 19.5 2 20.1716 2 21C2 21.8284 2.67157 22.5 3.5 22.5C4.05933 22.5 4.54716 22.1939 4.80506 21.74H10.6949C10.9528 22.1939 11.4407 22.5 12 22.5C12.5593 22.5 13.0472 22.1939 13.3051 21.74H19.1949C19.4528 22.1939 19.9407 22.5 20.5 22.5C21.3284 22.5 22 21.8284 22 21C22 20.1716 21.3284 19.5 20.5 19.5C19.9489 19.5 19.4673 19.7972 19.2065 20.24H13.2935C13.162 20.0167 12.9744 19.8305 12.75 19.7007V18.4827C16.8166 18.2936 20 16.5827 20 14.5V10.5ZM18.5 13V14.5C18.5 14.7303 18.2743 15.3427 16.986 15.9868C15.7875 16.5861 14.0268 17 12 17C9.97324 17 8.2125 16.5861 7.01397 15.9868C5.72571 15.3427 5.5 14.7303 5.5 14.5V13V12.8324C6.95211 13.8423 9.32244 14.5 12 14.5C14.6776 14.5 17.0479 13.8423 18.5 12.8324V13Z" fill="#666ABB"/>
</svg>
