<!--

    Copyright (C) 2017-2019 Dremio Corporation

    Licensed under the Apache License, Version 2.0 (the "License");
    you may not use this file except in compliance with the License.
    You may obtain a copy of the License at

        http://www.apache.org/licenses/LICENSE-2.0

    Unless required by applicable law or agreed to in writing, software
    distributed under the License is distributed on an "AS IS" BASIS,
    WITHOUT WARRANTIES OR CONDITIONS OF ANY KIND, either express or implied.
    See the License for the specific language governing permissions and
    limitations under the License.

-->
<svg width="24" height="24" viewBox="0 0 24 24" fill="none" xmlns="http://www.w3.org/2000/svg">
<path fill-rule="evenodd" clip-rule="evenodd" d="M18.5 6C18.5 6.23033 18.2743 6.84266 16.986 7.48679C15.7875 8.08605 14.0268 8.5 12 8.5C9.97324 8.5 8.2125 8.08605 7.01397 7.48679C5.72571 6.84266 5.5 6.23033 5.5 6C5.5 5.76967 5.72571 5.15734 7.01397 4.51321C8.2125 3.91395 9.97324 3.5 12 3.5C14.0268 3.5 15.7875 3.91395 16.986 4.51321C18.2743 5.15734 18.5 5.76967 18.5 6ZM18.5 8.33236V10C18.5 10.1716 18.3748 10.5551 17.7784 11.0059C18.5629 11.0389 19.3114 11.211 20 11.4982V10V6C20 3.79086 16.4183 2 12 2C7.58172 2 4 3.79086 4 6V10V14C4 16.0427 7.06233 17.7278 11.0167 17.9701C11.0056 17.8148 11 17.6581 11 17.5C11 17.1499 11.0277 16.8063 11.081 16.4712C9.44272 16.3677 8.02738 15.9935 7.01397 15.4868C5.72571 14.8427 5.5 14.2303 5.5 14V12.5V12.3324C6.95211 13.3423 9.32244 14 12 14C12.0073 14 12.0146 14 12.0218 14C12.4043 13.4026 12.8818 12.8719 13.433 12.4293C12.9741 12.4753 12.495 12.5 12 12.5C9.97324 12.5 8.2125 12.0861 7.01397 11.4868C5.72571 10.8427 5.5 10.2303 5.5 10V8.33236C6.95211 9.34229 9.32244 10 12 10C14.6776 10 17.0479 9.34229 18.5 8.33236ZM11.2282 19.2135C11.0135 19.3426 10.8337 19.524 10.7065 19.74H4.79349C4.53274 19.2972 4.05107 19 3.5 19C2.67157 19 2 19.6716 2 20.5C2 21.3284 2.67157 22 3.5 22C4.05933 22 4.54716 21.6939 4.80506 21.24H10.6949C10.9528 21.6939 11.4407 22 12 22C12.2389 22 12.4648 21.9441 12.6653 21.8447C11.9976 21.1022 11.4985 20.2051 11.2282 19.2135Z" fill="#FFA940"/>
<path fill-rule="evenodd" clip-rule="evenodd" d="M21.3891 21.3891C22.4205 20.3576 23 18.9587 23 17.5C23 16.0413 22.4205 14.6424 21.3891 13.6109C20.3576 12.5795 18.9587 12 17.5 12C16.0413 12 14.6424 12.5795 13.6109 13.6109C12.5795 14.6424 12 16.0413 12 17.5C12 18.9587 12.5795 20.3576 13.6109 21.3891C14.6424 22.4205 16.0413 23 17.5 23C18.9587 23 20.3576 22.4205 21.3891 21.3891ZM15.5642 14.9663L17.5185 16.739L19.4756 14.9585C19.5817 14.8553 19.7414 14.8128 19.8922 14.8477C20.0429 14.8826 20.1606 14.9894 20.1991 15.1261C20.2376 15.2629 20.1908 15.4078 20.0769 15.504L17.5157 17.8273L14.9629 15.5117C14.8491 15.4155 14.8022 15.2706 14.8407 15.1338C14.8792 14.9971 14.9969 14.8903 15.1477 14.8554C15.2984 14.8205 15.4582 14.863 15.5642 14.9663ZM15.5642 17.8463L17.5185 19.619L19.4756 17.8385C19.5817 17.7353 19.7414 17.6928 19.8922 17.7277C20.0429 17.7626 20.1606 17.8694 20.1991 18.0061C20.2376 18.1429 20.1908 18.2878 20.0769 18.384L17.5157 20.7073L14.9629 18.3917C14.8491 18.2955 14.8022 18.1506 14.8407 18.0138C14.8792 17.8771 14.9969 17.7703 15.1477 17.7354C15.2984 17.7005 15.4582 17.743 15.5642 17.8463Z" fill="#FFA940"/>
</svg>
