<?xml version="1.0" encoding="UTF-8" standalone="no"?>
<!--

    Copyright (C) 2017-2019 Dremio Corporation

    Licensed under the Apache License, Version 2.0 (the "License");
    you may not use this file except in compliance with the License.
    You may obtain a copy of the License at

        http://www.apache.org/licenses/LICENSE-2.0

    Unless required by applicable law or agreed to in writing, software
    distributed under the License is distributed on an "AS IS" BASIS,
    WITHOUT WARRANTIES OR CONDITIONS OF ANY KIND, either express or implied.
    See the License for the specific language governing permissions and
    limitations under the License.

-->

<svg width="24" height="25" viewBox="0 0 24 25" fill="none" xmlns="http://www.w3.org/2000/svg">
    <path d="M9.99987 3.25C11.37 3.24983 12.7121 3.63789 13.8707 4.36922C15.0292 5.10054 15.9569 6.14519 16.5461 7.38212C17.1353 8.61905 17.362 9.99762 17.1998 11.3581C17.0376 12.7186 16.4933 14.0052 15.6299 15.069L20.5299 19.969C20.6644 20.1027 20.7433 20.2823 20.7507 20.4718C20.7581 20.6613 20.6934 20.8466 20.5697 20.9903C20.446 21.1341 20.2725 21.2256 20.084 21.2465C19.8955 21.2674 19.7061 21.2161 19.5539 21.103L19.4699 21.03L14.5689 16.13C13.6677 16.8611 12.6043 17.3653 11.4679 17.6C10.3315 17.8348 9.15532 17.7934 8.03824 17.4793C6.92116 17.1651 5.89581 16.5874 5.04836 15.7947C4.20091 15.002 3.55611 14.0175 3.16816 12.9238C2.7802 11.8302 2.66043 10.6594 2.8189 9.50989C2.97738 8.36035 3.40947 7.26565 4.07886 6.31778C4.74825 5.3699 5.63539 4.59655 6.66571 4.06272C7.69604 3.52889 8.83946 3.25018 9.99987 3.25ZM9.99987 4.75C9.24476 4.75 8.49706 4.89873 7.79944 5.18769C7.10181 5.47666 6.46794 5.9002 5.934 6.43414C5.40006 6.96807 4.97652 7.60195 4.68756 8.29957C4.39859 8.99719 4.24987 9.7449 4.24987 10.5C4.24987 11.2551 4.39859 12.0028 4.68756 12.7004C4.97652 13.3981 5.40006 14.0319 5.934 14.5659C6.46794 15.0998 7.10181 15.5233 7.79944 15.8123C8.49706 16.1013 9.24476 16.25 9.99987 16.25C11.5249 16.25 12.9874 15.6442 14.0657 14.5659C15.1441 13.4875 15.7499 12.025 15.7499 10.5C15.7499 8.97501 15.1441 7.51247 14.0657 6.43414C12.9874 5.3558 11.5249 4.75 9.99987 4.75Z" fill="#505862"/>
</svg>
