<?xml version="1.0" encoding="UTF-8" standalone="no"?>
<!--

    Copyright (C) 2017-2018 Dremio Corporation

    Licensed under the Apache License, Version 2.0 (the "License");
    you may not use this file except in compliance with the License.
    You may obtain a copy of the License at

        http://www.apache.org/licenses/LICENSE-2.0

    Unless required by applicable law or agreed to in writing, software
    distributed under the License is distributed on an "AS IS" BASIS,
    WITHOUT WARRANTIES OR CONDITIONS OF ANY KIND, either express or implied.
    See the License for the specific language governing permissions and
    limitations under the License.

-->
<svg width="24px" height="24px" viewBox="0 0 24 24" version="1.1" xmlns="http://www.w3.org/2000/svg" xmlns:xlink="http://www.w3.org/1999/xlink" xmlns:sketch="http://www.bohemiancoding.com/sketch/ns">
    <!-- Generator: Sketch 3.5.1 (25234) - http://www.bohemiancoding.com/sketch -->
    <title>Icon/Settings</title>
    <desc>Created with Sketch.</desc>
    <defs></defs>
    <g id="Icons" stroke="none" stroke-width="1" fill="none" fill-rule="evenodd" sketch:type="MSPage">
        <g id="Icon/Settings" sketch:type="MSArtboardGroup">
            <g sketch:type="MSLayerGroup">
                <g id="icon-box-24-copy-10" sketch:type="MSShapeGroup">
                    <rect id="icon-box-24" x="0" y="0" width="24" height="24"></rect>
                </g>
                <g id="Gear" transform="translate(4.000000, 3.000000)" stroke="#77818F" stroke-linecap="round" sketch:type="MSShapeGroup" stroke-linejoin="round">
                    <path d="M11.0800667,8.99866667 C11.0800667,10.6986667 9.70206667,12.0753333 8.00273333,12.0753333 C6.30206667,12.0753333 4.92473333,10.6986667 4.92473333,8.99866667 C4.92473333,7.29933333 6.30206667,5.922 8.00273333,5.922 C9.70206667,5.922 11.0800667,7.29933333 11.0800667,8.99866667 M15.3854,7.76866667 L14.6474,7.76866667 C14.3087333,7.76866667 13.9494,7.504 13.8487333,7.18066667 L13.4247333,6.15 C13.2654,5.852 13.3307333,5.412 13.5687333,5.17266667 L14.0940667,4.64933333 C14.3334,4.40933333 14.3334,4.01733333 14.0940667,3.778 L13.2214,2.908 C12.9834,2.66866667 12.5914,2.66866667 12.3520667,2.908 L11.8267333,3.43133333 C11.5887333,3.67066667 11.1474,3.736 10.8487333,3.576 L9.82006667,3.152 C9.4974,3.052 9.23273333,2.69266667 9.23273333,2.354 L9.23273333,1.61533333 C9.23273333,1.27733333 8.95473333,0.999333333 8.61606667,0.999333333 L7.3854,0.999333333 C7.04673333,0.999333333 6.7694,1.27733333 6.7694,1.61533333 L6.7694,2.354 C6.7694,2.69266667 6.5054,3.052 6.18206667,3.152 L5.15206667,3.576 C4.85273333,3.736 4.41406667,3.67133333 4.17473333,3.43133333 L3.65006667,2.908 C3.41006667,2.66866667 3.0194,2.66866667 2.78006667,2.908 L1.91006667,3.778 C1.6694,4.01733333 1.6694,4.40933333 1.91006667,4.64866667 L2.43206667,5.17266667 C2.67206667,5.412 2.73806667,5.852 2.57673333,6.15 L2.1534,7.18133333 C2.05206667,7.50466667 1.69406667,7.76933333 1.3554,7.76933333 L0.616066667,7.76866667 C0.2774,7.76866667 6.66666666e-05,8.04533333 6.66666666e-05,8.384 L6.66666666e-05,9.61466667 C6.66666666e-05,9.95333333 0.2774,10.2306667 0.616066667,10.2306667 L1.3554,10.2306667 C1.69406667,10.2313333 2.05206667,10.496 2.15206667,10.8186667 L2.57673333,11.8493333 C2.7374,12.148 2.67206667,12.5893333 2.43206667,12.8273333 L1.90873333,13.3506667 C1.6694,13.5906667 1.6694,13.982 1.90873333,14.222 L2.78006667,15.0926667 C3.0194,15.332 3.41006667,15.332 3.65006667,15.0926667 L4.17473333,14.5686667 C4.4134,14.33 4.85273333,14.2646667 5.15006667,14.426 L6.18206667,14.85 C6.5054,14.9506667 6.7694,15.3093333 6.7694,15.648 L6.7694,16.3846667 C6.7694,16.7226667 7.04673333,17 7.3854,17 L8.61606667,17 C8.95473333,17 9.23273333,16.7226667 9.23273333,16.3846667 L9.23273333,15.648 C9.23273333,15.3093333 9.4974,14.9506667 9.82006667,14.85 L10.8520667,14.426 C11.1500667,14.2646667 11.5900667,14.33 11.8300667,14.5686667 L12.3520667,15.0926667 C12.5914,15.332 12.9834,15.332 13.2214,15.0926667 L14.0940667,14.222 C14.3334,13.982 14.3334,13.5906667 14.0940667,13.3506667 L13.5687333,12.8273333 C13.3307333,12.5893333 13.2654,12.148 13.4247333,11.8493333 L13.8487333,10.8186667 C13.9494,10.496 14.3107333,10.2313333 14.6474,10.2313333 L15.3854,10.2313333 C15.7240667,10.2313333 16.0000667,9.95466667 16.0000667,9.616 L16.0000667,8.384 C16.0000667,8.04533333 15.7240667,7.76866667 15.3854,7.76866667" id="Fill-1"></path>
                </g>
            </g>
        </g>
    </g>
</svg>
