<!--

    Copyright (C) 2017-2019 Dremio Corporation

    Licensed under the Apache License, Version 2.0 (the "License");
    you may not use this file except in compliance with the License.
    You may obtain a copy of the License at

        http://www.apache.org/licenses/LICENSE-2.0

    Unless required by applicable law or agreed to in writing, software
    distributed under the License is distributed on an "AS IS" BASIS,
    WITHOUT WARRANTIES OR CONDITIONS OF ANY KIND, either express or implied.
    See the License for the specific language governing permissions and
    limitations under the License.

-->
<svg width="24" height="24" viewBox="0 0 24 24" fill="none" xmlns="http://www.w3.org/2000/svg">
<path fill-rule="evenodd" clip-rule="evenodd" d="M12.3227 7C12.5013 7 12.6662 7.08772 12.7643 7.23051L12.802 7.29497L14.1602 9.99837L17.1907 10.4324C17.4005 10.45 17.58 10.5873 17.6488 10.7827C17.695 10.9535 17.65 11.1338 17.5329 11.2637L15.2787 13.4077L15.8113 16.3777C15.8501 16.5779 15.7669 16.782 15.5982 16.9006C15.5068 16.9656 15.3968 17.0004 15.284 17C15.2196 17.0002 15.156 16.9881 15.0967 16.9646L15.039 16.9372L12.3227 15.5359L9.59574 16.932C9.41733 17.0249 9.20078 17.0107 9.0365 16.8954C8.88887 16.7916 8.80676 16.6224 8.81455 16.4476L8.82346 16.3725L9.35607 13.4024L7.1564 11.3108C7.01689 11.1742 6.96567 10.973 7.02325 10.7879C7.07836 10.6221 7.21336 10.4957 7.38097 10.4479L7.45466 10.4324L10.4852 9.99314L11.8433 7.29497C11.9323 7.11458 12.1185 7 12.3227 7ZM13.7209 10.6089L12.3227 7.82535L10.9245 10.6031L7.84801 11.0487L10.0756 13.1667L9.52801 16.2167L12.3239 14.7863L15.1053 16.222L14.5591 13.172L16.7933 11.0487L13.7209 10.6089Z" fill="#6E7987"/>
</svg>
