<?xml version="1.0" encoding="UTF-8" standalone="no"?>
<!--

    Copyright (C) 2017-2019 Dremio Corporation

    Licensed under the Apache License, Version 2.0 (the "License");
    you may not use this file except in compliance with the License.
    You may obtain a copy of the License at

        http://www.apache.org/licenses/LICENSE-2.0

    Unless required by applicable law or agreed to in writing, software
    distributed under the License is distributed on an "AS IS" BASIS,
    WITHOUT WARRANTIES OR CONDITIONS OF ANY KIND, either express or implied.
    See the License for the specific language governing permissions and
    limitations under the License.

-->
<svg width="20" height="16" viewBox="0 0 20 16" fill="none" xmlns="http://www.w3.org/2000/svg">
<path fill-rule="evenodd" clip-rule="evenodd" d="M7 1.33333C7 0.596954 7.59695 0 8.33333 0H11.6667C12.403 0 13 0.596954 13 1.33333V4C13 4.73638 12.403 5.33333 11.6667 5.33333H10.75V7.26852H17C17.4142 7.26852 17.75 7.60431 17.75 8.01852V10.6667H18.6667C19.403 10.6667 20 11.2636 20 12V14.6667C20 15.403 19.403 16 18.6667 16H15.3333C14.597 16 14 15.403 14 14.6667V12C14 11.2636 14.597 10.6667 15.3333 10.6667H16.25V8.76852H10.75V10.6667H11.6667C12.403 10.6667 13 11.2636 13 12V14.6667C13 15.403 12.403 16 11.6667 16H8.33333C7.59695 16 7 15.403 7 14.6667V12C7 11.2636 7.59695 10.6667 8.33333 10.6667H9.25V8.76852H3.75V10.6667H4.66667C5.40305 10.6667 6 11.2636 6 12V14.6667C6 15.403 5.40305 16 4.66667 16H1.33333C0.596954 16 0 15.403 0 14.6667V12C0 11.2636 0.596954 10.6667 1.33333 10.6667H2.25V8.01852C2.25 7.60431 2.58579 7.26852 3 7.26852H9.25V5.33333H8.33333C7.59695 5.33333 7 4.73638 7 4V1.33333ZM8.5 3.83333V1.5H11.5V3.83333H8.5ZM1.5 12.1667V14.5H4.5V12.1667H1.5ZM8.5 12.1667V14.5H11.5V12.1667H8.5ZM15.5 12.1667V14.5H18.5V12.1667H15.5Z" fill="#505862"/>
</svg>
