<?xml version="1.0" encoding="UTF-8" standalone="no"?>
<!--

    Copyright (C) 2017-2018 Dremio Corporation

    Licensed under the Apache License, Version 2.0 (the "License");
    you may not use this file except in compliance with the License.
    You may obtain a copy of the License at

        http://www.apache.org/licenses/LICENSE-2.0

    Unless required by applicable law or agreed to in writing, software
    distributed under the License is distributed on an "AS IS" BASIS,
    WITHOUT WARRANTIES OR CONDITIONS OF ANY KIND, either express or implied.
    See the License for the specific language governing permissions and
    limitations under the License.

-->
<svg width="24px" height="18px" viewBox="0 0 24 18" version="1.1" xmlns="http://www.w3.org/2000/svg" xmlns:xlink="http://www.w3.org/1999/xlink" xmlns:sketch="http://www.bohemiancoding.com/sketch/ns">
    <!-- Generator: Sketch 3.5.1 (25234) - http://www.bohemiancoding.com/sketch -->
    <title>Icon/Type-Text</title>
    <desc>Created with Sketch.</desc>
    <defs></defs>
    <g id="Icons" stroke="none" stroke-width="1" fill="none" fill-rule="evenodd" sketch:type="MSPage">
        <g id="Icon/Type-Text" sketch:type="MSArtboardGroup">
            <g sketch:type="MSLayerGroup">
                <g id="icon-box-24-copy-10" sketch:type="MSShapeGroup">
                    <rect id="icon-box-16" x="0" y="0" width="24" height="18"></rect>
                </g>
                <path d="M7.92578125,10.1445312 L5.5234375,10.1445312 L4.97167969,12 L4.05371094,12 L6.34375,4.890625 L7.11035156,4.890625 L9.40527344,12 L8.48730469,12 L7.92578125,10.1445312 Z M5.7578125,9.37304688 L7.69628906,9.37304688 L6.72460938,6.140625 L5.7578125,9.37304688 Z M14.078125,9.61230469 C14.078125,10.4358765 13.9300145,11.0559875 13.6337891,11.4726562 C13.3375636,11.889325 12.9078804,12.0976562 12.3447266,12.0976562 C11.7848279,12.0976562 11.3649103,11.8567732 11.0849609,11.375 L11.0410156,12 L10.2548828,12 L10.2548828,4.5 L11.1142578,4.5 L11.1142578,7.29785156 C11.3974624,6.84537534 11.8043593,6.61914062 12.3349609,6.61914062 C12.9143909,6.61914062 13.3489569,6.8242167 13.6386719,7.234375 C13.9283869,7.6445333 14.0748698,8.2630167 14.078125,9.08984375 L14.078125,9.61230469 Z M13.21875,9.11914062 C13.21875,8.4941375 13.131674,8.04899221 12.9575195,7.78369141 C12.783365,7.5183906 12.5009785,7.38574219 12.1103516,7.38574219 C11.6643858,7.38574219 11.3323579,7.6266252 11.1142578,8.10839844 L11.1142578,10.6230469 C11.3291026,11.0983097 11.6643857,11.3359375 12.1201172,11.3359375 C12.5107441,11.3359375 12.7906893,11.1992201 12.9599609,10.9257812 C13.1292326,10.6523424 13.2154948,10.2275419 13.21875,9.65136719 L13.21875,9.11914062 Z M17.0175781,11.3603516 C17.3040379,11.3603516 17.5335278,11.271648 17.7060547,11.0942383 C17.8785816,10.9168285 17.9729817,10.6637386 17.9892578,10.3349609 L18.8046875,10.3349609 C18.7851562,10.842776 18.6053077,11.2635074 18.2651367,11.597168 C17.9249657,11.9308285 17.509117,12.0976562 17.0175781,12.0976562 C16.363278,12.0976562 15.8644223,11.8917664 15.5209961,11.4799805 C15.1775699,11.0681946 15.0058594,10.4554077 15.0058594,9.64160156 L15.0058594,9.06054688 C15.0058594,8.26301685 15.1767561,7.65674036 15.5185547,7.24169922 C15.8603533,6.82665808 16.3583952,6.61914062 17.0126953,6.61914062 C17.5530626,6.61914062 17.981932,6.79003735 18.2993164,7.13183594 C18.6167008,7.47363452 18.7851562,7.94075225 18.8046875,8.53320312 L17.9892578,8.53320312 C17.9697265,8.14257617 17.8761402,7.84961035 17.7084961,7.65429688 C17.540852,7.4589834 17.3089208,7.36132812 17.0126953,7.36132812 C16.6285788,7.36132812 16.3437509,7.48746619 16.1582031,7.73974609 C15.9726553,7.992026 15.8766276,8.40624712 15.8701172,8.98242188 L15.8701172,9.65625 C15.8701172,10.2779979 15.9620759,10.7174466 16.1459961,10.9746094 C16.3299163,11.2317721 16.6204407,11.3603516 17.0175781,11.3603516 L17.0175781,11.3603516 Z" id="Abc" fill="#77818F" sketch:type="MSShapeGroup"></path>
            </g>
        </g>
    </g>
</svg>
