<?xml version="1.0" encoding="UTF-8" standalone="no"?>
<!--

    Copyright (C) 2017-2019 Dremio Corporation

    Licensed under the Apache License, Version 2.0 (the "License");
    you may not use this file except in compliance with the License.
    You may obtain a copy of the License at

        http://www.apache.org/licenses/LICENSE-2.0

    Unless required by applicable law or agreed to in writing, software
    distributed under the License is distributed on an "AS IS" BASIS,
    WITHOUT WARRANTIES OR CONDITIONS OF ANY KIND, either express or implied.
    See the License for the specific language governing permissions and
    limitations under the License.

-->
<svg width="24" height="24" viewBox="0 0 24 24" fill="none" xmlns="http://www.w3.org/2000/svg">
<g id="Column type=array&#38;list">
<g id="Union">
<path d="M4.30522 3.80546C3.78949 4.32118 3.49976 5.02065 3.49976 5.75V10.059C3.49976 10.597 3.15476 11.074 2.64476 11.244L2.51276 11.289C2.3638 11.339 2.2343 11.4345 2.14256 11.5621C2.05082 11.6897 2.00146 11.8429 2.00146 12C2.00146 12.1571 2.05082 12.3103 2.14256 12.4379C2.2343 12.5655 2.3638 12.661 2.51276 12.711L2.64476 12.756C2.89357 12.8389 3.11001 12.9979 3.26345 13.2106C3.41689 13.4232 3.49956 13.6788 3.49976 13.941V18.25C3.49976 18.9793 3.78949 19.6788 4.30522 20.1945C4.82094 20.7103 5.52042 21 6.24976 21C6.44868 21 6.63944 20.921 6.78009 20.7803C6.92075 20.6397 6.99976 20.4489 6.99976 20.25C6.99976 20.0511 6.92075 19.8603 6.78009 19.7197C6.63944 19.579 6.44868 19.5 6.24976 19.5C5.55976 19.5 4.99976 18.94 4.99976 18.25V13.941C4.99976 13.197 4.69976 12.504 4.19776 12C4.69976 11.496 4.99976 10.803 4.99976 10.059V5.75C4.99976 5.06 5.55976 4.5 6.24976 4.5C6.44868 4.5 6.63944 4.42098 6.78009 4.28033C6.92075 4.13968 6.99976 3.94891 6.99976 3.75C6.99976 3.55109 6.92075 3.36032 6.78009 3.21967C6.63944 3.07902 6.44868 3 6.24976 3C5.52042 3 4.82094 3.28973 4.30522 3.80546Z" fill="#505862"/>
<path d="M19.6943 3.80546C20.21 4.32118 20.4998 5.02065 20.4998 5.75V10.059C20.5 10.3212 20.5826 10.5768 20.7361 10.7894C20.8895 11.0021 21.106 11.1611 21.3548 11.244L21.4868 11.289C21.6357 11.339 21.7652 11.4345 21.857 11.5621C21.9487 11.6897 21.9981 11.8429 21.9981 12C21.9981 12.1571 21.9487 12.3103 21.857 12.4379C21.7652 12.5655 21.6357 12.661 21.4868 12.711L21.3548 12.756C20.8438 12.926 20.4998 13.403 20.4998 13.941V18.25C20.4998 18.9793 20.21 19.6788 19.6943 20.1945C19.1786 20.7103 18.4791 21 17.7498 21C17.5509 21 17.3601 20.921 17.2194 20.7803C17.0788 20.6397 16.9998 20.4489 16.9998 20.25C16.9998 20.0511 17.0788 19.8603 17.2194 19.7197C17.3601 19.579 17.5509 19.5 17.7498 19.5C18.4398 19.5 18.9998 18.94 18.9998 18.25V13.941C18.9997 13.2134 19.2881 12.5154 19.8018 12C19.2998 11.496 18.9998 10.803 18.9998 10.059V5.75C18.9998 5.06 18.4398 4.5 17.7498 4.5C17.5509 4.5 17.3601 4.42098 17.2194 4.28033C17.0788 4.13968 16.9998 3.94891 16.9998 3.75C16.9998 3.55109 17.0788 3.36032 17.2194 3.21967C17.3601 3.07902 17.5509 3 17.7498 3C18.4791 3 19.1786 3.28973 19.6943 3.80546Z" fill="#505862"/>
<path d="M12.7985 18.8925C12.9233 18.4975 12.7042 18.0762 12.3092 17.9515C11.9142 17.8267 11.4929 18.0458 11.3681 18.4408L10.8681 20.0242C10.7434 20.4191 10.9625 20.8405 11.3575 20.9652C11.7525 21.0899 12.1738 20.8708 12.2985 20.4758L12.7985 18.8925Z" fill="#505862"/>
</g>
</g>
</svg>
