<?xml version="1.0" encoding="UTF-8" standalone="no"?>
<!--

    Copyright (C) 2017-2018 Dremio Corporation

    Licensed under the Apache License, Version 2.0 (the "License");
    you may not use this file except in compliance with the License.
    You may obtain a copy of the License at

        http://www.apache.org/licenses/LICENSE-2.0

    Unless required by applicable law or agreed to in writing, software
    distributed under the License is distributed on an "AS IS" BASIS,
    WITHOUT WARRANTIES OR CONDITIONS OF ANY KIND, either express or implied.
    See the License for the specific language governing permissions and
    limitations under the License.

-->
<svg width="24px" height="18px" viewBox="0 0 24 18" version="1.1" xmlns="http://www.w3.org/2000/svg" xmlns:xlink="http://www.w3.org/1999/xlink" xmlns:sketch="http://www.bohemiancoding.com/sketch/ns">
    <!-- Generator: Sketch 3.5.1 (25234) - http://www.bohemiancoding.com/sketch -->
    <title>Icon/Type-Mixed</title>
    <desc>Created with Sketch.</desc>
    <defs></defs>
    <g id="Icons" stroke="none" stroke-width="1" fill="none" fill-rule="evenodd" sketch:type="MSPage">
        <g id="Icon/Type-Mixed" sketch:type="MSArtboardGroup">
            <g sketch:type="MSLayerGroup">
                <g id="icon-box-24-copy-10" sketch:type="MSShapeGroup">
                    <rect id="icon-box-16" x="0" y="0" width="24" height="18"></rect>
                </g>
                <path d="M14,9 L14,8 L13,8 L13,7 L14,7 L14,5 L15,5 L15,7 L16,7 L16,5 L17,5 L17,7 L18,7 L18,8 L17,8 L17,9 L18,9 L18,10 L17,10 L17,12 L16,12 L16,10 L15,10 L15,12 L14,12 L14,10 L13,10 L13,9 L14,9 Z M15,9 L15,8 L16,8 L16,9 L15,9 Z" id="Rectangle-202-Copy-5" fill="#FF9364" sketch:type="MSShapeGroup"></path>
                <path d="M9.70117188,10.1445312 L7.29882812,10.1445312 L6.74707031,12 L5.82910156,12 L8.11914062,4.890625 L8.88574219,4.890625 L11.1806641,12 L10.2626953,12 L9.70117188,10.1445312 Z M7.53320312,9.37304688 L9.47167969,9.37304688 L8.5,6.140625 L7.53320312,9.37304688 Z" id="A" fill="#FF9364" sketch:type="MSShapeGroup"></path>
            </g>
        </g>
    </g>
</svg>
