<?xml version="1.0" encoding="UTF-8" standalone="no"?>
<!--

    Copyright (C) 2017-2019 Dremio Corporation

    Licensed under the Apache License, Version 2.0 (the "License");
    you may not use this file except in compliance with the License.
    You may obtain a copy of the License at

        http://www.apache.org/licenses/LICENSE-2.0

    Unless required by applicable law or agreed to in writing, software
    distributed under the License is distributed on an "AS IS" BASIS,
    WITHOUT WARRANTIES OR CONDITIONS OF ANY KIND, either express or implied.
    See the License for the specific language governing permissions and
    limitations under the License.

-->
<svg width="24" height="24" viewBox="0 0 24 24" fill="none" xmlns="http://www.w3.org/2000/svg">
<path d="M5.84298 4.56789C7.47592 2.93495 9.69066 2.01758 12 2.01758C14.3093 2.01758 16.524 2.93495 18.157 4.56789C19.7899 6.20083 20.7073 8.41557 20.7073 10.7249C20.7073 13.0342 19.7899 15.249 18.157 16.8819L16.97 18.0559C16.095 18.9139 14.96 20.0179 13.564 21.3679C13.1444 21.7736 12.5836 22.0004 12 22.0004C11.4164 22.0004 10.8556 21.7736 10.436 21.3679L6.94498 17.9719C6.50598 17.5409 6.13898 17.1779 5.84298 16.8819C5.0344 16.0734 4.39299 15.1135 3.95538 14.0571C3.51778 13.0006 3.29254 11.8684 3.29254 10.7249C3.29254 9.58142 3.51778 8.44914 3.95538 7.39272C4.39299 6.3363 5.0344 5.37642 5.84298 4.56789V4.56789ZM17.096 5.62789C15.7442 4.27635 13.9108 3.51716 11.9993 3.51735C10.0877 3.51754 8.25453 4.27708 6.90298 5.62889C5.55144 6.9807 4.79226 8.81404 4.79244 10.7256C4.79263 12.6372 5.55218 14.4703 6.90398 15.8219L8.38998 17.2899C9.41646 18.2928 10.4458 19.2928 11.478 20.2899C11.6179 20.4252 11.8049 20.5009 11.9995 20.5009C12.1941 20.5009 12.3811 20.4252 12.521 20.2899L15.915 16.9899C16.385 16.5289 16.778 16.1399 17.095 15.8219C18.4465 14.4703 19.2057 12.6372 19.2057 10.7259C19.2057 8.81453 18.4465 6.98146 17.095 5.62989L17.096 5.62789ZM12 7.99889C12.3942 7.99889 12.7846 8.07654 13.1488 8.2274C13.513 8.37827 13.844 8.5994 14.1227 8.87816C14.4015 9.15692 14.6226 9.48786 14.7735 9.85208C14.9243 10.2163 15.002 10.6067 15.002 11.0009C15.002 11.3951 14.9243 11.7855 14.7735 12.1497C14.6226 12.5139 14.4015 12.8449 14.1227 13.1236C13.844 13.4024 13.513 13.6235 13.1488 13.7744C12.7846 13.9252 12.3942 14.0029 12 14.0029C11.2134 13.9885 10.4639 13.666 9.91275 13.1047C9.36158 12.5433 9.05277 11.7881 9.05277 11.0014C9.05277 10.2147 9.36158 9.45944 9.91275 8.89812C10.4639 8.33679 11.2134 8.01425 12 7.99989V7.99889ZM12 9.49889C11.8027 9.49889 11.6074 9.53774 11.4252 9.61322C11.243 9.68871 11.0774 9.79934 10.9379 9.93882C10.7984 10.0783 10.6878 10.2439 10.6123 10.4261C10.5368 10.6083 10.498 10.8036 10.498 11.0009C10.498 11.1981 10.5368 11.3935 10.6123 11.5757C10.6878 11.7579 10.7984 11.9235 10.9379 12.063C11.0774 12.2024 11.243 12.3131 11.4252 12.3886C11.6074 12.464 11.8027 12.5029 12 12.5029C12.3982 12.5029 12.7801 12.3447 13.0617 12.0631C13.3433 11.7815 13.5015 11.3996 13.5015 11.0014C13.5015 10.6032 13.3433 10.2213 13.0617 9.93967C12.7801 9.65808 12.3982 9.49989 12 9.49989V9.49889Z" fill="#505862"/>
</svg>
