<?xml version="1.0" encoding="UTF-8" standalone="no"?>
<!--

    Copyright (C) 2017-2019 Dremio Corporation

    Licensed under the Apache License, Version 2.0 (the "License");
    you may not use this file except in compliance with the License.
    You may obtain a copy of the License at

        http://www.apache.org/licenses/LICENSE-2.0

    Unless required by applicable law or agreed to in writing, software
    distributed under the License is distributed on an "AS IS" BASIS,
    WITHOUT WARRANTIES OR CONDITIONS OF ANY KIND, either express or implied.
    See the License for the specific language governing permissions and
    limitations under the License.

-->
<svg width="20" height="10" viewBox="0 0 20 10" fill="none" xmlns="http://www.w3.org/2000/svg">
<mask id="path-1-inside-1_2_42" fill="white">
<path fill-rule="evenodd" clip-rule="evenodd" d="M2.994 0C2.19994 0 1.43841 0.315438 0.876923 0.876922C0.315439 1.43841 0 2.19994 0 2.994V6.83734C0 7.63139 0.315439 8.39293 0.876923 8.95441C1.43841 9.5159 2.19994 9.83134 2.994 9.83134H3.006C3.80006 9.83134 4.56159 9.5159 5.12308 8.95441C5.68456 8.39293 6 7.63139 6 6.83734V2.994C6 2.19994 5.68456 1.43841 5.12308 0.876922C4.56159 0.315438 3.80006 0 3.006 0H2.994ZM2.994 1.5C2.169 1.5 1.5 2.169 1.5 2.994V6.83734C1.5 7.23357 1.6574 7.61357 1.93758 7.89375C2.21776 8.17393 2.59777 8.33134 2.994 8.33134H3.006C3.831 8.33134 4.5 7.66233 4.5 6.83734V2.994C4.5 2.169 3.831 1.5 3.006 1.5H2.994ZM14.8769 0.876922C15.4384 0.315438 16.1999 0 16.994 0H17.006C17.8001 0 18.5616 0.315438 19.1231 0.876922C19.6846 1.43841 20 2.19994 20 2.994V6.83734C20 7.63139 19.6846 8.39293 19.1231 8.95441C18.5616 9.5159 17.8001 9.83134 17.006 9.83134H16.994C16.1999 9.83134 15.4384 9.5159 14.8769 8.95441C14.3154 8.39293 14 7.63139 14 6.83734V2.994C14 2.19994 14.3154 1.43841 14.8769 0.876922ZM15.5 2.994C15.5 2.169 16.169 1.5 16.994 1.5H17.006C17.831 1.5 18.5 2.169 18.5 2.994V6.83734C18.5 7.66233 17.831 8.33134 17.006 8.33134H16.994C16.5978 8.33134 16.2178 8.17393 15.9376 7.89375C15.6574 7.61357 15.5 7.23357 15.5 6.83734V2.994ZM11.1871 0.296523C11.2859 0.426686 11.3395 0.585559 11.3397 0.748977V9.08231C11.3397 9.28123 11.2607 9.47199 11.12 9.61264C10.9794 9.7533 10.7886 9.83231 10.5897 9.83231C10.3908 9.83231 10.2 9.7533 10.0594 9.61264C9.91871 9.47199 9.83969 9.28123 9.83969 9.08231V2.83198C9.42648 3.23565 8.9689 3.59124 8.47569 3.89198C8.39122 3.94383 8.29731 3.97842 8.19939 3.99376C8.10147 4.0091 8.00148 4.00488 7.9052 3.98133C7.80892 3.95779 7.71826 3.9154 7.63846 3.85661C7.55867 3.79782 7.49132 3.72379 7.4403 3.63881C7.38929 3.55384 7.35562 3.45959 7.34126 3.36152C7.32689 3.26345 7.3321 3.16351 7.35659 3.06746C7.38108 2.97142 7.42437 2.88119 7.48395 2.80198C7.54353 2.72277 7.61821 2.65615 7.70369 2.60598C8.37969 2.20098 8.94369 1.64098 9.34569 1.16798C9.56097 0.91361 9.76067 0.646455 9.94369 0.367977L9.94969 0.358977C10.0349 0.219527 10.1633 0.11172 10.3154 0.0519556C10.4675 -0.00780927 10.635 -0.0162611 10.7923 0.0278852C10.9496 0.0720317 11.0883 0.16636 11.1871 0.296523Z"/>
</mask>
<path fill-rule="evenodd" clip-rule="evenodd" d="M2.994 0C2.19994 0 1.43841 0.315438 0.876923 0.876922C0.315439 1.43841 0 2.19994 0 2.994V6.83734C0 7.63139 0.315439 8.39293 0.876923 8.95441C1.43841 9.5159 2.19994 9.83134 2.994 9.83134H3.006C3.80006 9.83134 4.56159 9.5159 5.12308 8.95441C5.68456 8.39293 6 7.63139 6 6.83734V2.994C6 2.19994 5.68456 1.43841 5.12308 0.876922C4.56159 0.315438 3.80006 0 3.006 0H2.994ZM2.994 1.5C2.169 1.5 1.5 2.169 1.5 2.994V6.83734C1.5 7.23357 1.6574 7.61357 1.93758 7.89375C2.21776 8.17393 2.59777 8.33134 2.994 8.33134H3.006C3.831 8.33134 4.5 7.66233 4.5 6.83734V2.994C4.5 2.169 3.831 1.5 3.006 1.5H2.994ZM14.8769 0.876922C15.4384 0.315438 16.1999 0 16.994 0H17.006C17.8001 0 18.5616 0.315438 19.1231 0.876922C19.6846 1.43841 20 2.19994 20 2.994V6.83734C20 7.63139 19.6846 8.39293 19.1231 8.95441C18.5616 9.5159 17.8001 9.83134 17.006 9.83134H16.994C16.1999 9.83134 15.4384 9.5159 14.8769 8.95441C14.3154 8.39293 14 7.63139 14 6.83734V2.994C14 2.19994 14.3154 1.43841 14.8769 0.876922ZM15.5 2.994C15.5 2.169 16.169 1.5 16.994 1.5H17.006C17.831 1.5 18.5 2.169 18.5 2.994V6.83734C18.5 7.66233 17.831 8.33134 17.006 8.33134H16.994C16.5978 8.33134 16.2178 8.17393 15.9376 7.89375C15.6574 7.61357 15.5 7.23357 15.5 6.83734V2.994ZM11.1871 0.296523C11.2859 0.426686 11.3395 0.585559 11.3397 0.748977V9.08231C11.3397 9.28123 11.2607 9.47199 11.12 9.61264C10.9794 9.7533 10.7886 9.83231 10.5897 9.83231C10.3908 9.83231 10.2 9.7533 10.0594 9.61264C9.91871 9.47199 9.83969 9.28123 9.83969 9.08231V2.83198C9.42648 3.23565 8.9689 3.59124 8.47569 3.89198C8.39122 3.94383 8.29731 3.97842 8.19939 3.99376C8.10147 4.0091 8.00148 4.00488 7.9052 3.98133C7.80892 3.95779 7.71826 3.9154 7.63846 3.85661C7.55867 3.79782 7.49132 3.72379 7.4403 3.63881C7.38929 3.55384 7.35562 3.45959 7.34126 3.36152C7.32689 3.26345 7.3321 3.16351 7.35659 3.06746C7.38108 2.97142 7.42437 2.88119 7.48395 2.80198C7.54353 2.72277 7.61821 2.65615 7.70369 2.60598C8.37969 2.20098 8.94369 1.64098 9.34569 1.16798C9.56097 0.91361 9.76067 0.646455 9.94369 0.367977L9.94969 0.358977C10.0349 0.219527 10.1633 0.11172 10.3154 0.0519556C10.4675 -0.00780927 10.635 -0.0162611 10.7923 0.0278852C10.9496 0.0720317 11.0883 0.16636 11.1871 0.296523Z" fill="#505862"/>
<path d="M0.876923 0.876922L0.169816 0.169815L0.169816 0.169816L0.876923 0.876922ZM0.876923 8.95441L0.169816 9.66152H0.169816L0.876923 8.95441ZM5.12308 0.876922L5.83019 0.169816L5.83018 0.169816L5.12308 0.876922ZM14.8769 0.876922L14.1698 0.169816V0.169816L14.8769 0.876922ZM19.1231 0.876922L19.8302 0.169816V0.169816L19.1231 0.876922ZM15.9376 7.89375L15.2305 8.60086L15.2305 8.60086L15.9376 7.89375ZM11.3397 0.748977H12.3397L12.3397 0.747612L11.3397 0.748977ZM11.1871 0.296523L10.3906 0.901158L10.3906 0.901162L11.1871 0.296523ZM11.12 9.61264L10.4129 8.90554L10.4129 8.90554L11.12 9.61264ZM9.83969 2.83198H10.8397V0.457117L9.1409 2.11665L9.83969 2.83198ZM8.47569 3.89198L7.95508 3.03818L7.95255 3.03974L8.47569 3.89198ZM8.19939 3.99376L8.35413 4.98172L8.35414 4.98172L8.19939 3.99376ZM7.9052 3.98133L8.14272 3.00995L8.14272 3.00995L7.9052 3.98133ZM7.63846 3.85661L7.0453 4.66169L7.04531 4.6617L7.63846 3.85661ZM7.4403 3.63881L8.29768 3.12412L8.29768 3.12412L7.4403 3.63881ZM7.34126 3.36152L6.35182 3.50648L6.35182 3.50649L7.34126 3.36152ZM7.35659 3.06746L8.32558 3.31457V3.31457L7.35659 3.06746ZM7.48395 2.80198L6.68477 2.20088L6.68477 2.20089L7.48395 2.80198ZM7.70369 2.60598L8.2099 3.46844L8.21763 3.46381L7.70369 2.60598ZM9.34569 1.16798L10.1077 1.81558L10.109 1.814L9.34569 1.16798ZM9.94369 0.367977L9.11161 -0.186715L9.10802 -0.18125L9.94369 0.367977ZM9.94969 0.358977L10.7818 0.913657L10.7927 0.897212L10.803 0.880346L9.94969 0.358977ZM10.3154 0.0519556L9.94969 -0.87877L9.94969 -0.87877L10.3154 0.0519556ZM10.7923 0.0278852L11.0624 -0.934934L11.0624 -0.934935L10.7923 0.0278852ZM1.58403 1.58403C1.95798 1.21008 2.46516 1 2.994 1V-1C1.93472 -1 0.918836 -0.579204 0.169816 0.169815L1.58403 1.58403ZM1 2.994C1 2.46516 1.21008 1.95798 1.58403 1.58403L0.169816 0.169816C-0.579204 0.918836 -1 1.93473 -1 2.994H1ZM1 6.83734V2.994H-1V6.83734H1ZM1.58403 8.24731C1.21008 7.87336 1 7.36618 1 6.83734H-1C-1 7.89661 -0.579205 8.9125 0.169816 9.66152L1.58403 8.24731ZM2.994 8.83134C2.46516 8.83134 1.95798 8.62126 1.58403 8.24731L0.169816 9.66152C0.918836 10.4105 1.93472 10.8313 2.994 10.8313V8.83134ZM3.006 8.83134H2.994V10.8313H3.006V8.83134ZM4.41597 8.24731C4.04202 8.62126 3.53484 8.83134 3.006 8.83134V10.8313C4.06528 10.8313 5.08116 10.4105 5.83019 9.66152L4.41597 8.24731ZM5 6.83734C5 7.36618 4.78992 7.87336 4.41597 8.24731L5.83019 9.66152C6.57921 8.9125 7 7.89661 7 6.83734H5ZM5 2.994V6.83734H7V2.994H5ZM4.41597 1.58403C4.78992 1.95798 5 2.46516 5 2.994H7C7 1.93473 6.57921 0.918836 5.83019 0.169816L4.41597 1.58403ZM3.006 1C3.53484 1 4.04202 1.21008 4.41597 1.58403L5.83018 0.169816C5.08116 -0.579205 4.06528 -1 3.006 -1V1ZM2.994 1H3.006V-1H2.994V1ZM2.5 2.994C2.5 2.72128 2.72129 2.5 2.994 2.5V0.5C1.61671 0.5 0.5 1.61672 0.5 2.994H2.5ZM2.5 6.83734V2.994H0.5V6.83734H2.5ZM2.64469 7.18665C2.55205 7.094 2.5 6.96835 2.5 6.83734H0.5C0.5 7.49879 0.76276 8.13314 1.23048 8.60086L2.64469 7.18665ZM2.994 7.33134C2.86298 7.33134 2.73733 7.27929 2.64469 7.18665L1.23048 8.60086C1.69819 9.06858 2.33255 9.33134 2.994 9.33134V7.33134ZM3.006 7.33134H2.994V9.33134H3.006V7.33134ZM3.5 6.83734C3.5 7.11005 3.27871 7.33134 3.006 7.33134V9.33134C4.38328 9.33134 5.5 8.21462 5.5 6.83734H3.5ZM3.5 2.994V6.83734H5.5V2.994H3.5ZM3.006 2.5C3.27872 2.5 3.5 2.72129 3.5 2.994H5.5C5.5 1.61671 4.38328 0.5 3.006 0.5V2.5ZM2.994 2.5H3.006V0.5H2.994V2.5ZM16.994 -1C15.9347 -1 14.9188 -0.579204 14.1698 0.169816L15.584 1.58403C15.958 1.21008 16.4652 1 16.994 1V-1ZM17.006 -1H16.994V1H17.006V-1ZM19.8302 0.169816C19.0812 -0.579205 18.0653 -1 17.006 -1V1C17.5348 1 18.042 1.21008 18.416 1.58403L19.8302 0.169816ZM21 2.994C21 1.93473 20.5792 0.918837 19.8302 0.169816L18.416 1.58403C18.7899 1.95798 19 2.46516 19 2.994H21ZM21 6.83734V2.994H19V6.83734H21ZM19.8302 9.66152C20.5792 8.9125 21 7.89661 21 6.83734H19C19 7.36618 18.7899 7.87336 18.416 8.24731L19.8302 9.66152ZM17.006 10.8313C18.0653 10.8313 19.0812 10.4105 19.8302 9.66152L18.416 8.24731C18.042 8.62126 17.5348 8.83134 17.006 8.83134V10.8313ZM16.994 10.8313H17.006V8.83134H16.994V10.8313ZM14.1698 9.66152C14.9188 10.4105 15.9347 10.8313 16.994 10.8313V8.83134C16.4652 8.83134 15.958 8.62126 15.584 8.24731L14.1698 9.66152ZM13 6.83734C13 7.89661 13.4208 8.9125 14.1698 9.66152L15.584 8.24731C15.2101 7.87336 15 7.36618 15 6.83734H13ZM13 2.994V6.83734H15V2.994H13ZM14.1698 0.169816C13.4208 0.918837 13 1.93473 13 2.994H15C15 2.46516 15.2101 1.95798 15.584 1.58403L14.1698 0.169816ZM16.994 0.5C15.6167 0.5 14.5 1.61672 14.5 2.994H16.5C16.5 2.72128 16.7213 2.5 16.994 2.5V0.5ZM17.006 0.5H16.994V2.5H17.006V0.5ZM19.5 2.994C19.5 1.61672 18.3833 0.5 17.006 0.5V2.5C17.2787 2.5 17.5 2.72129 17.5 2.994H19.5ZM19.5 6.83734V2.994H17.5V6.83734H19.5ZM17.006 9.33134C18.3833 9.33134 19.5 8.21462 19.5 6.83734H17.5C17.5 7.11005 17.2787 7.33134 17.006 7.33134V9.33134ZM16.994 9.33134H17.006V7.33134H16.994V9.33134ZM15.2305 8.60086C15.6982 9.06857 16.3325 9.33134 16.994 9.33134V7.33134C16.863 7.33134 16.7373 7.27929 16.6447 7.18665L15.2305 8.60086ZM14.5 6.83734C14.5 7.49878 14.7628 8.13314 15.2305 8.60086L16.6447 7.18665C16.552 7.094 16.5 6.96835 16.5 6.83734H14.5ZM14.5 2.994V6.83734H16.5V2.994H14.5ZM12.3397 0.747612C12.3392 0.366307 12.2141 -0.00439867 11.9836 -0.308116L10.3906 0.901162C10.3576 0.85777 10.3398 0.804811 10.3397 0.750343L12.3397 0.747612ZM12.3397 9.08231V0.748977H10.3397V9.08231H12.3397ZM11.8271 10.3198C12.1553 9.99156 12.3397 9.54644 12.3397 9.08231H10.3397C10.3397 9.01601 10.366 8.95242 10.4129 8.90554L11.8271 10.3198ZM10.5897 10.8323C11.0538 10.8323 11.4989 10.6479 11.8271 10.3197L10.4129 8.90554C10.4598 8.85865 10.5234 8.83231 10.5897 8.83231V10.8323ZM9.35226 10.3198C9.68045 10.6479 10.1256 10.8323 10.5897 10.8323V8.83231C10.656 8.83231 10.7196 8.85865 10.7665 8.90554L9.35226 10.3198ZM8.83969 9.08231C8.83969 9.54644 9.02407 9.99156 9.35226 10.3198L10.7665 8.90554C10.8134 8.95242 10.8397 9.01601 10.8397 9.08231H8.83969ZM8.83969 2.83198V9.08231H10.8397V2.83198H8.83969ZM8.9963 4.74577C9.55394 4.40575 10.0713 4.0037 10.5385 3.5473L9.1409 2.11665C8.78166 2.46759 8.38386 2.77673 7.95508 3.03818L8.9963 4.74577ZM8.35414 4.98172C8.58261 4.94593 8.80174 4.86521 8.99884 4.74422L7.95255 3.03974C7.98071 3.02245 8.01201 3.01092 8.04464 3.00581L8.35414 4.98172ZM7.66768 4.95272C7.89234 5.00765 8.12565 5.0175 8.35413 4.98172L8.04465 3.00581C8.07729 3.00069 8.11062 3.0021 8.14272 3.00995L7.66768 4.95272ZM7.04531 4.6617C7.2315 4.79887 7.44303 4.89779 7.66768 4.95272L8.14272 3.00995C8.17481 3.0178 8.20502 3.03193 8.23162 3.05152L7.04531 4.6617ZM6.58293 4.1535C6.70196 4.35179 6.85912 4.52452 7.0453 4.66169L8.23163 3.05153C8.25822 3.07112 8.28067 3.0958 8.29768 3.12412L6.58293 4.1535ZM6.35182 3.50649C6.38535 3.73531 6.4639 3.95522 6.58293 4.15351L8.29768 3.12412C8.31468 3.15245 8.3259 3.18386 8.33069 3.21655L6.35182 3.50649ZM6.38761 2.82036C6.33046 3.04445 6.31829 3.27765 6.35182 3.50648L8.33069 3.21656C8.33548 3.24925 8.33375 3.28256 8.32558 3.31457L6.38761 2.82036ZM6.68477 2.20089C6.54576 2.38571 6.44475 2.59626 6.3876 2.82036L8.32558 3.31457C8.31742 3.34659 8.30299 3.37667 8.28313 3.40307L6.68477 2.20089ZM7.1975 1.74356C6.99805 1.86062 6.82378 2.01606 6.68477 2.20088L8.28313 3.40307C8.26327 3.42947 8.23837 3.45168 8.20988 3.4684L7.1975 1.74356ZM8.58371 0.520375C8.22072 0.947486 7.73784 1.41979 7.18976 1.74815L8.21763 3.46381C9.02155 2.98217 9.66667 2.33447 10.1077 1.81558L8.58371 0.520375ZM9.10802 -0.18125C8.94714 0.063534 8.77161 0.298365 8.58237 0.521957L10.109 1.814C10.3503 1.52885 10.5742 1.22938 10.7794 0.917204L9.10802 -0.18125ZM9.11763 -0.195703L9.11163 -0.186703L10.7758 0.922657L10.7818 0.913657L9.11763 -0.195703ZM9.94969 -0.87877C9.5948 -0.73932 9.29516 -0.487772 9.09636 -0.162392L10.803 0.880346C10.7746 0.926826 10.7318 0.96276 10.6811 0.982682L9.94969 -0.87877ZM11.0624 -0.934935C10.6953 -1.03794 10.3046 -1.01822 9.94969 -0.87877L10.6811 0.982682C10.6304 1.0026 10.5746 1.00542 10.5222 0.990705L11.0624 -0.934935ZM11.9836 -0.308112C11.753 -0.611829 11.4296 -0.831927 11.0624 -0.934934L10.5222 0.990705C10.4697 0.97599 10.4235 0.944549 10.3906 0.901158L11.9836 -0.308112Z" fill="#505862" mask="url(#path-1-inside-1_2_42)"/>
</svg>
