<?xml version="1.0" encoding="UTF-8" standalone="no"?>
<!--

    Copyright (C) 2017-2019 Dremio Corporation

    Licensed under the Apache License, Version 2.0 (the "License");
    you may not use this file except in compliance with the License.
    You may obtain a copy of the License at

        http://www.apache.org/licenses/LICENSE-2.0

    Unless required by applicable law or agreed to in writing, software
    distributed under the License is distributed on an "AS IS" BASIS,
    WITHOUT WARRANTIES OR CONDITIONS OF ANY KIND, either express or implied.
    See the License for the specific language governing permissions and
    limitations under the License.

-->
<svg width="20" height="10" viewBox="0 0 20 10" fill="none" xmlns="http://www.w3.org/2000/svg">
<path fill-rule="evenodd" clip-rule="evenodd" d="M8.41666 0.75C8.41666 0.335786 8.08088 0 7.66666 0C7.25245 0 6.91666 0.335786 6.91666 0.75V9.08333C6.91666 9.49754 7.25245 9.83333 7.66666 9.83333C8.02971 9.83333 8.33251 9.57538 8.40178 9.23276C8.91 9.61271 9.516 9.83333 10.1667 9.83333C11.9616 9.83333 13.4167 8.1544 13.4167 6.08333C13.4167 4.01226 11.9616 2.33333 10.1667 2.33333C9.52234 2.33333 8.92181 2.54968 8.41666 2.92284V0.75ZM8.41666 6.08333C8.41666 7.53468 9.39449 8.33333 10.1667 8.33333C10.9388 8.33333 11.9167 7.53468 11.9167 6.08333C11.9167 4.63199 10.9388 3.83333 10.1667 3.83333C9.39449 3.83333 8.41666 4.63199 8.41666 6.08333Z" fill="#505862"/>
<path fill-rule="evenodd" clip-rule="evenodd" d="M1.41667 4.5L1.41676 4.49976C1.45717 4.39873 1.52387 4.23199 1.78266 4.09264C2.05019 3.94859 2.46073 3.85417 2.91667 3.85417C3.37261 3.85416 3.78314 3.94858 4.05067 4.09264C4.4935 4.33109 4.40015 4.71182 4.00875 4.95645C3.76022 5.11178 3.38474 5.18515 2.8096 5.2681C2.77542 5.27303 2.74021 5.27801 2.70408 5.28313L2.7037 5.28318C2.2228 5.35129 1.5803 5.44227 1.06662 5.72381C0.765312 5.88895 0.484151 6.1289 0.28489 6.47788C0.0876548 6.82331 0 7.22413 0 7.66666C0 8.47902 0.454283 9.08576 1.03849 9.43965C1.60594 9.78339 2.31702 9.91135 2.99555 9.83958C3.46836 9.78958 3.95426 9.63949 4.38985 9.36947C4.50231 9.64174 4.77045 9.83333 5.08333 9.83333C5.49754 9.83333 5.83333 9.49755 5.83333 9.08333V4.41666C5.83333 3.60936 5.31533 3.06998 4.76182 2.77193C4.21686 2.47849 3.54406 2.35416 2.91666 2.35417C2.28927 2.35417 1.61647 2.4785 1.07151 2.77194C0.518 3.06998 0 3.60936 0 4.41666C0 4.66666 0.166667 5 0.583333 5.08333C1 5.16666 1.25 4.91666 1.41667 4.5ZM4.33333 6.58469V6.45871C3.88785 6.62818 3.41455 6.6964 3.04337 6.7499L3.02373 6.75273C2.4296 6.83843 2.04759 6.89668 1.78755 7.0392C1.6826 7.09672 1.62522 7.15559 1.5875 7.22165C1.54776 7.29126 1.5 7.42168 1.5 7.66666C1.5 7.8543 1.58738 8.0184 1.81567 8.15669C2.06073 8.30514 2.43297 8.39072 2.83778 8.34791C3.23655 8.30573 3.60788 8.14521 3.87339 7.87716C4.12764 7.62046 4.33304 7.21756 4.33333 6.58469Z" fill="#505862"/>
<path d="M17.1667 2.33333C16.0899 2.33333 15.2635 2.84376 14.7305 3.58171C14.2135 4.29756 13.9792 5.2104 13.9792 6.08333C13.9792 6.95626 14.2135 7.8691 14.7305 8.58495C15.2635 9.3229 16.0899 9.83333 17.1667 9.83333C17.8531 9.83333 18.4756 9.68624 18.9809 9.33405C19.495 8.97575 19.8115 8.45835 19.9736 7.864C20.0826 7.46438 19.847 7.05208 19.4473 6.94309C19.0477 6.8341 18.6354 7.06971 18.5264 7.46933C18.4385 7.79164 18.2967 7.98258 18.1232 8.10345C17.9411 8.23042 17.6469 8.33333 17.1667 8.33333C16.6184 8.33333 16.2261 8.09376 15.9465 7.70671C15.651 7.29756 15.4792 6.7104 15.4792 6.08333C15.4792 5.45627 15.651 4.86911 15.9466 4.45995C16.2261 4.0729 16.6184 3.83333 17.1667 3.83333C17.6469 3.83333 17.9411 3.93624 18.1232 4.06321C18.2967 4.18408 18.4385 4.37502 18.5264 4.69734C18.6354 5.09695 19.0477 5.33256 19.4473 5.22357C19.847 5.11458 20.0826 4.70228 19.9736 4.30266C19.8115 3.70831 19.495 3.19091 18.9809 2.83262C18.4756 2.48042 17.8531 2.33333 17.1667 2.33333Z" fill="#505862"/>
</svg>
