<?xml version="1.0" encoding="UTF-8" standalone="no"?>
<!--

    Copyright (C) 2017-2018 Dremio Corporation

    Licensed under the Apache License, Version 2.0 (the "License");
    you may not use this file except in compliance with the License.
    You may obtain a copy of the License at

        http://www.apache.org/licenses/LICENSE-2.0

    Unless required by applicable law or agreed to in writing, software
    distributed under the License is distributed on an "AS IS" BASIS,
    WITHOUT WARRANTIES OR CONDITIONS OF ANY KIND, either express or implied.
    See the License for the specific language governing permissions and
    limitations under the License.

-->
<svg width="24px" height="24px" viewBox="0 0 24 24" version="1.1" xmlns="http://www.w3.org/2000/svg" xmlns:xlink="http://www.w3.org/1999/xlink" xmlns:sketch="http://www.bohemiancoding.com/sketch/ns">
    <!-- Generator: Sketch 3.5.1 (25234) - http://www.bohemiancoding.com/sketch -->
    <title>Icon/Visibility-Off</title>
    <desc>Created with Sketch.</desc>
    <defs>
        <path id="path-1" d="M10.5,0.5 L0.5,12.5"></path>
        <path id="path-2" d="M10.5,0.5 L0.5,12.5"></path>
    </defs>
    <g id="Icons" stroke="none" stroke-width="1" fill="none" fill-rule="evenodd" sketch:type="MSPage">
        <g id="Icon/Visibility-Off" sketch:type="MSArtboardGroup">
            <g sketch:type="MSLayerGroup">
                <g id="icon-box-24-copy-10" sketch:type="MSShapeGroup">
                    <rect id="icon-box-24" x="0" y="0" width="24" height="24"></rect>
                </g>
                <g id="Stroke-166-+-Stroke-167" transform="translate(5.000000, 8.000000)" stroke="#77818F" stroke-linecap="round" sketch:type="MSShapeGroup" stroke-linejoin="round">
                    <path d="M15,4.5 C15,4.5 11.6426087,9 7.5,9 C3.3573913,9 0,4.5 0,4.5 C0,4.5 3.3573913,0 7.5,0 C11.6426087,0 15,4.5 15,4.5 L15,4.5 Z" id="Stroke-166"></path>
                    <path d="M10,4.5 C10,5.880625 8.880625,7 7.5,7 C6.119375,7 5,5.880625 5,4.5 C5,3.119375 6.119375,2 7.5,2 C8.880625,2 10,3.119375 10,4.5 L10,4.5 Z" id="Stroke-167"></path>
                </g>
                <g id="Line-+-Line-Copy" transform="translate(7.000000, 6.000000)">
                    <g id="Line" stroke-linecap="round" stroke-linejoin="round">
                        <use stroke="#77818F" stroke-width="1" sketch:type="MSShapeGroup" xlink:href="#path-1"></use>
                        <use stroke="#FFFFFF" stroke-width="3" xlink:href="#path-1"></use>
                    </g>
                    <g id="Line-Copy">
                        <use stroke="#77818F" stroke-width="1" stroke-linecap="round" stroke-linejoin="round" sketch:type="MSShapeGroup" xlink:href="#path-2"></use>
                        <use stroke="none" xlink:href="#path-2"></use>
                    </g>
                </g>
            </g>
        </g>
    </g>
</svg>
