<!--

    Copyright (C) 2017-2019 Dremio Corporation

    Licensed under the Apache License, Version 2.0 (the "License");
    you may not use this file except in compliance with the License.
    You may obtain a copy of the License at

        http://www.apache.org/licenses/LICENSE-2.0

    Unless required by applicable law or agreed to in writing, software
    distributed under the License is distributed on an "AS IS" BASIS,
    WITHOUT WARRANTIES OR CONDITIONS OF ANY KIND, either express or implied.
    See the License for the specific language governing permissions and
    limitations under the License.

-->
<svg id="editor/code" viewBox="0 0 24 24" fill="none" xmlns="http://www.w3.org/2000/svg">
<path d="M8.06573 18.943L14.5657 4.44302C14.6435 4.26961 14.7843 4.1322 14.9595 4.05857C15.1347 3.98494 15.3313 3.98058 15.5096 4.04636C15.6879 4.11215 15.8346 4.24318 15.92 4.41297C16.0054 4.58276 16.0232 4.77864 15.9697 4.96102L15.9337 5.05702L9.43373 19.557C9.35594 19.7304 9.21521 19.8678 9.04 19.9415C8.86478 20.0151 8.66814 20.0195 8.48983 19.9537C8.31152 19.8879 8.16483 19.7569 8.07943 19.5871C7.99402 19.4173 7.97626 19.2214 8.02973 19.039L8.06573 18.943L14.5657 4.44302L8.06573 18.943ZM2.21973 11.47L6.46973 7.22002C6.60373 7.08707 6.78294 7.00953 6.97159 7.00289C7.16024 6.99624 7.34446 7.06098 7.48748 7.18418C7.6305 7.30739 7.72181 7.47999 7.74317 7.66755C7.76453 7.8551 7.71438 8.04381 7.60273 8.19602L7.52973 8.28102L3.80973 12L7.52973 15.719C7.66269 15.853 7.74023 16.0322 7.74687 16.2209C7.75351 16.4095 7.68877 16.5938 7.56557 16.7368C7.44237 16.8798 7.26977 16.9711 7.08221 16.9925C6.89466 17.0138 6.70594 16.9637 6.55373 16.852L6.46973 16.779L2.21973 12.529C2.09271 12.402 2.01549 12.2337 2.00209 12.0546C1.98869 11.8755 2.04002 11.6975 2.14673 11.553L2.21973 11.469L6.46973 7.21902L2.21973 11.469V11.47ZM16.4697 7.22002C16.5967 7.09301 16.7651 7.01578 16.9442 7.00238C17.1233 6.98899 17.3013 7.04031 17.4457 7.14702L17.5297 7.22002L21.7797 11.47C21.9068 11.597 21.984 11.7654 21.9974 11.9445C22.0108 12.1236 21.9594 12.3016 21.8527 12.446L21.7797 12.531L17.5297 16.781C17.3959 16.9152 17.2162 16.9938 17.0269 17.0009C16.8375 17.008 16.6524 16.9432 16.5089 16.8194C16.3654 16.6956 16.274 16.5221 16.2532 16.3338C16.2324 16.1454 16.2837 15.9561 16.3967 15.804L16.4697 15.72L20.1897 12L16.4697 8.28002C16.3293 8.1394 16.2504 7.94877 16.2504 7.75002C16.2504 7.55127 16.3293 7.36065 16.4697 7.22002Z" fill="currentColor"/>
</svg>
