<!--

    Copyright (C) 2017-2019 Dremio Corporation

    Licensed under the Apache License, Version 2.0 (the "License");
    you may not use this file except in compliance with the License.
    You may obtain a copy of the License at

        http://www.apache.org/licenses/LICENSE-2.0

    Unless required by applicable law or agreed to in writing, software
    distributed under the License is distributed on an "AS IS" BASIS,
    WITHOUT WARRANTIES OR CONDITIONS OF ANY KIND, either express or implied.
    See the License for the specific language governing permissions and
    limitations under the License.

-->
<svg id="editor/header" viewBox="0 0 24 24" fill="none" xmlns="http://www.w3.org/2000/svg">
<path d="M19.59 5.08208C19.4616 5.01616 19.3168 4.98892 19.1732 5.00365C19.0296 5.01838 18.8934 5.07446 18.781 5.16508C18.6629 5.25956 18.5762 5.38747 18.532 5.53208C17.842 7.58308 16.475 8.94108 15.364 9.60708C15.1956 9.71047 15.0748 9.87616 15.0278 10.0681C14.9809 10.2601 15.0116 10.4628 15.1133 10.6323C15.215 10.8017 15.3795 10.9242 15.571 10.973C15.7625 11.0218 15.9656 10.9931 16.136 10.8931C16.91 10.4291 17.759 9.71308 18.5 8.74708V18.2501C18.5 18.449 18.579 18.6398 18.7197 18.7804C18.8603 18.9211 19.0511 19.0001 19.25 19.0001C19.4489 19.0001 19.6397 18.9211 19.7803 18.7804C19.921 18.6398 20 18.449 20 18.2501V5.77208C20.004 5.63005 19.9677 5.48978 19.8951 5.36762C19.8225 5.24547 19.7167 5.14644 19.59 5.08208ZM3.5 5.75008C3.5 5.55117 3.42098 5.36041 3.28033 5.21975C3.13968 5.0791 2.94891 5.00008 2.75 5.00008C2.55109 5.00008 2.36032 5.0791 2.21967 5.21975C2.07902 5.36041 2 5.55117 2 5.75008V18.2501C2 18.449 2.07902 18.6398 2.21967 18.7804C2.36032 18.9211 2.55109 19.0001 2.75 19.0001C2.94891 19.0001 3.13968 18.9211 3.28033 18.7804C3.42098 18.6398 3.5 18.449 3.5 18.2501V12.5001H10V18.2501C10 18.449 10.079 18.6398 10.2197 18.7804C10.3603 18.9211 10.5511 19.0001 10.75 19.0001C10.9489 19.0001 11.1397 18.9211 11.2803 18.7804C11.421 18.6398 11.5 18.449 11.5 18.2501V5.75008C11.5 5.55117 11.421 5.36041 11.2803 5.21975C11.1397 5.0791 10.9489 5.00008 10.75 5.00008C10.5511 5.00008 10.3603 5.0791 10.2197 5.21975C10.079 5.36041 10 5.55117 10 5.75008V11.0001H3.5V5.75008Z" fill="currentColor"/>
</svg>
