<!--

    Copyright (C) 2017-2019 Dremio Corporation

    Licensed under the Apache License, Version 2.0 (the "License");
    you may not use this file except in compliance with the License.
    You may obtain a copy of the License at

        http://www.apache.org/licenses/LICENSE-2.0

    Unless required by applicable law or agreed to in writing, software
    distributed under the License is distributed on an "AS IS" BASIS,
    WITHOUT WARRANTIES OR CONDITIONS OF ANY KIND, either express or implied.
    See the License for the specific language governing permissions and
    limitations under the License.

-->
<svg id="editor/image" viewBox="0 0 24 24" fill="none" xmlns="http://www.w3.org/2000/svg">
<path d="M17.75 3C18.612 3 19.4386 3.34241 20.0481 3.9519C20.6576 4.5614 21 5.38805 21 6.25V17.75C21 18.612 20.6576 19.4386 20.0481 20.0481C19.4386 20.6576 18.612 21 17.75 21H6.25C5.38805 21 4.5614 20.6576 3.9519 20.0481C3.34241 19.4386 3 18.612 3 17.75V6.25C3 5.38805 3.34241 4.5614 3.9519 3.9519C4.5614 3.34241 5.38805 3 6.25 3H17.75ZM18.33 19.401L12.525 13.715C12.3984 13.5909 12.2318 13.5156 12.055 13.5026C11.8782 13.4896 11.7024 13.5397 11.559 13.644L11.475 13.714L5.668 19.401C5.85 19.465 6.046 19.5 6.25 19.5H17.75C17.953 19.5 18.149 19.465 18.33 19.401L12.525 13.715L18.33 19.4V19.401ZM17.75 4.5H6.25C5.78587 4.5 5.34075 4.68437 5.01256 5.01256C4.68437 5.34075 4.5 5.78587 4.5 6.25V17.75C4.5 17.958 4.536 18.158 4.603 18.344L10.426 12.643C10.8252 12.2522 11.3554 12.0239 11.9136 12.0025C12.4718 11.981 13.018 12.168 13.446 12.527L13.574 12.643L19.396 18.345C19.463 18.159 19.5 17.959 19.5 17.75V6.25C19.5 5.78587 19.3156 5.34075 18.9874 5.01256C18.6592 4.68437 18.2141 4.5 17.75 4.5ZM15.252 6.5C15.8493 6.5 16.4221 6.73726 16.8444 7.1596C17.2667 7.58193 17.504 8.15473 17.504 8.752C17.504 9.34927 17.2667 9.92207 16.8444 10.3444C16.4221 10.7667 15.8493 11.004 15.252 11.004C14.6547 11.004 14.0819 10.7667 13.6596 10.3444C13.2373 9.92207 13 9.34927 13 8.752C13 8.15473 13.2373 7.58193 13.6596 7.1596C14.0819 6.73726 14.6547 6.5 15.252 6.5ZM15.252 8C15.0526 8 14.8613 8.07923 14.7203 8.22026C14.5792 8.36128 14.5 8.55256 14.5 8.752C14.5 8.95144 14.5792 9.14272 14.7203 9.28374C14.8613 9.42477 15.0526 9.504 15.252 9.504C15.4514 9.504 15.6427 9.42477 15.7837 9.28374C15.9248 9.14272 16.004 8.95144 16.004 8.752C16.004 8.55256 15.9248 8.36128 15.7837 8.22026C15.6427 8.07923 15.4514 8 15.252 8Z" fill="currentColor"/>
</svg>
