<!--

    Copyright (C) 2017-2019 Dremio Corporation

    Licensed under the Apache License, Version 2.0 (the "License");
    you may not use this file except in compliance with the License.
    You may obtain a copy of the License at

        http://www.apache.org/licenses/LICENSE-2.0

    Unless required by applicable law or agreed to in writing, software
    distributed under the License is distributed on an "AS IS" BASIS,
    WITHOUT WARRANTIES OR CONDITIONS OF ANY KIND, either express or implied.
    See the License for the specific language governing permissions and
    limitations under the License.

-->
<svg id="editor/italic" viewBox="0 0 24 24" fill="none" xmlns="http://www.w3.org/2000/svg">
<path d="M9.74991 4H18.2539C18.4439 4.00006 18.6269 4.07224 18.7657 4.20197C18.9046 4.3317 18.989 4.5093 19.0019 4.69888C19.0149 4.88846 18.9554 5.07589 18.8355 5.2233C18.7156 5.37071 18.5442 5.4671 18.3559 5.493L18.2539 5.499H15.0569L10.0369 18.5H14.2499C14.431 18.5002 14.6058 18.566 14.7422 18.6851C14.8786 18.8042 14.9673 18.9686 14.9919 19.148L14.9989 19.25C14.9989 19.4312 14.9333 19.6063 14.8141 19.7429C14.695 19.8795 14.5305 19.9684 14.3509 19.993L14.2499 20H4.74991C4.65165 19.9999 4.55437 19.9804 4.46366 19.9426C4.37295 19.9048 4.29059 19.8495 4.22129 19.7798C4.15199 19.7101 4.09712 19.6275 4.05982 19.5366C4.02251 19.4456 4.00352 19.3483 4.00391 19.25C4.00391 18.87 4.28391 18.556 4.64891 18.507L4.74991 18.5H8.43491L8.45591 18.435L13.4499 5.499H9.74991C9.56885 5.49875 9.39398 5.43301 9.2576 5.3139C9.12122 5.1948 9.03254 5.03038 9.00791 4.851L8.99991 4.75C8.99992 4.56876 9.06555 4.39366 9.18468 4.25707C9.3038 4.12048 9.46836 4.03165 9.64791 4.007L9.75091 4H18.2539H9.75091H9.74991Z" fill="currentColor"/>
</svg>
