<!--

    Copyright (C) 2017-2019 Dremio Corporation

    Licensed under the Apache License, Version 2.0 (the "License");
    you may not use this file except in compliance with the License.
    You may obtain a copy of the License at

        http://www.apache.org/licenses/LICENSE-2.0

    Unless required by applicable law or agreed to in writing, software
    distributed under the License is distributed on an "AS IS" BASIS,
    WITHOUT WARRANTIES OR CONDITIONS OF ANY KIND, either express or implied.
    See the License for the specific language governing permissions and
    limitations under the License.

-->
<svg id="editor/list-numbered" viewBox="0 0 24 24" fill="none" xmlns="http://www.w3.org/2000/svg">
<path d="M5.99982 2.75009C5.99968 2.57856 5.94073 2.41226 5.83283 2.27892C5.72492 2.14558 5.57456 2.05326 5.40683 2.01735C5.2391 1.98144 5.06413 2.00411 4.91108 2.08159C4.75804 2.15906 4.63618 2.28665 4.56582 2.44309L4.56382 2.44609C4.47481 2.62526 4.37287 2.79772 4.25882 2.96209C4.04182 3.27509 3.73482 3.62509 3.35282 3.86409C3.26648 3.91486 3.19118 3.98241 3.13136 4.06275C3.07155 4.1431 3.02844 4.23461 3.00457 4.33189C2.9807 4.42917 2.97656 4.53024 2.99239 4.62915C3.00822 4.72805 3.0437 4.82279 3.09674 4.90775C3.14978 4.99272 3.2193 5.06621 3.3012 5.12387C3.3831 5.18153 3.47573 5.22221 3.5736 5.24349C3.67148 5.26477 3.77263 5.26623 3.87108 5.24779C3.96953 5.22934 4.06329 5.19136 4.14682 5.13609C4.27182 5.05809 4.38982 4.97509 4.49982 4.88809V7.25009C4.49982 7.449 4.57884 7.63977 4.71949 7.78042C4.86014 7.92107 5.05091 8.00009 5.24982 8.00009C5.44874 8.00009 5.6395 7.92107 5.78015 7.78042C5.92081 7.63977 5.99982 7.449 5.99982 7.25009V2.75009ZM20.4998 18.7501C20.4998 18.5512 20.4208 18.3604 20.2802 18.2198C20.1395 18.0791 19.9487 18.0001 19.7498 18.0001H10.7498C10.5509 18.0001 10.3601 18.0791 10.2195 18.2198C10.0788 18.3604 9.99982 18.5512 9.99982 18.7501C9.99982 18.949 10.0788 19.1398 10.2195 19.2804C10.3601 19.4211 10.5509 19.5001 10.7498 19.5001H19.7498C19.9487 19.5001 20.1395 19.4211 20.2802 19.2804C20.4208 19.1398 20.4998 18.949 20.4998 18.7501ZM20.4998 12.2441C20.4998 12.0452 20.4208 11.8544 20.2802 11.7138C20.1395 11.5731 19.9487 11.4941 19.7498 11.4941H10.7498C10.5509 11.4941 10.3601 11.5731 10.2195 11.7138C10.0788 11.8544 9.99982 12.0452 9.99982 12.2441C9.99982 12.443 10.0788 12.6338 10.2195 12.7744C10.3601 12.9151 10.5509 12.9941 10.7498 12.9941H19.7498C19.9487 12.9941 20.1395 12.9151 20.2802 12.7744C20.4208 12.6338 20.4998 12.443 20.4998 12.2441ZM20.4998 5.75009C20.4998 5.55118 20.4208 5.36041 20.2802 5.21976C20.1395 5.07911 19.9487 5.00009 19.7498 5.00009H10.7498C10.5509 5.00009 10.3601 5.07911 10.2195 5.21976C10.0788 5.36041 9.99982 5.55118 9.99982 5.75009C9.99982 5.949 10.0788 6.13977 10.2195 6.28042C10.3601 6.42107 10.5509 6.50009 10.7498 6.50009H19.7498C19.9487 6.50009 20.1395 6.42107 20.2802 6.28042C20.4208 6.13977 20.4998 5.949 20.4998 5.75009ZM5.14982 10.5201C4.84982 10.4671 4.47382 10.5861 4.27982 10.7801C4.13765 10.9126 3.9496 10.9847 3.7553 10.9813C3.561 10.9778 3.37561 10.8991 3.2382 10.7617C3.10079 10.6243 3.02208 10.4389 3.01865 10.2446C3.01522 10.0503 3.08734 9.86227 3.21982 9.72009C3.77582 9.16409 4.64982 8.90809 5.41182 9.04309C5.80882 9.11309 6.21682 9.29709 6.52682 9.64809C6.84282 10.0061 6.99982 10.4731 6.99982 11.0001C6.99982 11.6201 6.72882 12.0801 6.39382 12.4201C6.11582 12.7031 5.76382 12.9311 5.48782 13.1091L5.40782 13.1601C5.24191 13.2653 5.08138 13.3788 4.92682 13.5001H6.24982C6.44874 13.5001 6.6395 13.5791 6.78015 13.7198C6.9208 13.8604 6.99982 14.0512 6.99982 14.2501C6.99982 14.449 6.9208 14.6398 6.78015 14.7804C6.6395 14.9211 6.44874 15.0001 6.24982 15.0001H3.74982C3.55091 15.0001 3.36014 14.9211 3.21949 14.7804C3.07884 14.6398 2.99982 14.449 2.99982 14.2501C2.99982 12.9371 3.98382 12.2971 4.57482 11.9131L4.63482 11.8731C4.95282 11.6681 5.16782 11.5281 5.32482 11.3691C5.45882 11.2331 5.49982 11.1311 5.49982 11.0001C5.49982 10.7771 5.43882 10.6821 5.40182 10.6401C5.33422 10.5727 5.24569 10.5304 5.15082 10.5201H5.14982ZM2.96982 21.2801C2.96982 21.2801 3.06282 21.3641 2.97382 21.2851L2.97982 21.2901L2.99282 21.3031C3.03987 21.3482 3.08999 21.3899 3.14282 21.4281C3.23782 21.4991 3.36982 21.5861 3.53982 21.6711C3.88082 21.8411 4.36982 22.0011 4.99982 22.0011C5.63982 22.0011 6.19582 21.8191 6.60082 21.4611C7.00882 21.1011 7.21082 20.6031 7.19582 20.1011C7.18337 19.6966 7.03307 19.3085 6.76982 19.0011C7.02882 18.6951 7.18182 18.3151 7.19582 17.8991C7.20378 17.6425 7.15452 17.3873 7.05161 17.152C6.94869 16.9168 6.79471 16.7074 6.60082 16.5391C6.19582 16.1821 5.63982 16.0001 4.99982 16.0001C4.36982 16.0001 3.88082 16.1581 3.53982 16.3301C3.35728 16.421 3.18609 16.5331 3.02982 16.6641C3.0173 16.6749 3.00496 16.6859 2.99282 16.6971L2.97982 16.7101L2.97382 16.7151L2.97182 16.7181H2.96982L2.96882 16.7201C2.83431 16.8607 2.7597 17.048 2.76075 17.2426C2.7618 17.4372 2.83843 17.6237 2.97444 17.7629C3.11046 17.902 3.29523 17.9828 3.48972 17.9883C3.68422 17.9937 3.87322 17.9234 4.01682 17.7921C4.07648 17.7452 4.14082 17.7047 4.20882 17.6711C4.36782 17.5911 4.62882 17.5011 4.99882 17.5011C5.35882 17.5011 5.53482 17.6001 5.60682 17.6641C5.63506 17.6862 5.65773 17.7147 5.67301 17.7472C5.68829 17.7796 5.69576 17.8152 5.69482 17.8511C5.69132 17.8958 5.67858 17.9394 5.65741 17.979C5.63624 18.0186 5.6071 18.0533 5.57182 18.0811C5.48282 18.1591 5.30882 18.2511 4.99882 18.2511C4.79991 18.2511 4.60914 18.3301 4.46849 18.4708C4.32784 18.6114 4.24882 18.8022 4.24882 19.0011C4.24882 19.2 4.32784 19.3908 4.46849 19.5314C4.60914 19.6721 4.79991 19.7511 4.99882 19.7511C5.30882 19.7511 5.48282 19.8411 5.57182 19.9181C5.66282 19.9981 5.69282 20.0841 5.69482 20.1491C5.69576 20.1851 5.6883 20.2208 5.67302 20.2535C5.65775 20.2861 5.63508 20.3147 5.60682 20.3371C5.53482 20.4001 5.35982 20.5001 4.99882 20.5001C4.72583 20.5058 4.45529 20.4476 4.20882 20.3301C4.14078 20.2962 4.07643 20.2553 4.01682 20.2081C3.87322 20.0768 3.68422 20.0065 3.48972 20.0119C3.29523 20.0174 3.11046 20.0982 2.97444 20.2373C2.83843 20.3765 2.7618 20.563 2.76075 20.7576C2.7597 20.9521 2.83431 21.1395 2.96882 21.2801H2.96982ZM2.97182 16.7181H2.96982C2.97682 16.7131 3.16982 16.5521 2.96982 16.7181H2.97182Z" fill="currentColor"/>
</svg>
