<!--

    Copyright (C) 2017-2019 Dremio Corporation

    Licensed under the Apache License, Version 2.0 (the "License");
    you may not use this file except in compliance with the License.
    You may obtain a copy of the License at

        http://www.apache.org/licenses/LICENSE-2.0

    Unless required by applicable law or agreed to in writing, software
    distributed under the License is distributed on an "AS IS" BASIS,
    WITHOUT WARRANTIES OR CONDITIONS OF ANY KIND, either express or implied.
    See the License for the specific language governing permissions and
    limitations under the License.

-->
<svg id="editor/list-bullet" viewBox="0 0 24 24" fill="none" xmlns="http://www.w3.org/2000/svg">
<path d="M3.2498 17.5C3.41687 17.4953 3.58318 17.5241 3.73891 17.5848C3.89463 17.6454 4.03661 17.7367 4.15645 17.8532C4.27629 17.9697 4.37155 18.1091 4.43659 18.263C4.50164 18.417 4.53516 18.5824 4.53516 18.7495C4.53516 18.9166 4.50164 19.0821 4.43659 19.236C4.37155 19.39 4.27629 19.5293 4.15645 19.6458C4.03661 19.7623 3.89463 19.8536 3.73891 19.9142C3.58318 19.9749 3.41687 20.0037 3.2498 19.999C2.92454 19.9898 2.61568 19.8541 2.38886 19.6208C2.16205 19.3875 2.03516 19.0749 2.03516 18.7495C2.03516 18.4241 2.16205 18.1115 2.38886 17.8782C2.61568 17.6449 2.92454 17.5092 3.2498 17.5ZM6.7498 18H21.2498C21.4398 18.0001 21.6227 18.0723 21.7616 18.202C21.9004 18.3317 21.9849 18.5093 21.9978 18.6989C22.0108 18.8885 21.9513 19.0759 21.8314 19.2233C21.7115 19.3707 21.5401 19.4671 21.3518 19.493L21.2498 19.5H6.7498C6.55978 19.5 6.37686 19.4278 6.23801 19.298C6.09916 19.1683 6.01473 18.9907 6.00178 18.8011C5.98883 18.6116 6.04832 18.4241 6.16824 18.2767C6.28815 18.1293 6.45955 18.0329 6.6478 18.007L6.7498 18H21.2498H6.7498ZM3.2498 11C3.41687 10.9953 3.58318 11.0241 3.73891 11.0848C3.89463 11.1454 4.03661 11.2367 4.15645 11.3532C4.27629 11.4697 4.37155 11.6091 4.43659 11.763C4.50164 11.917 4.53516 12.0824 4.53516 12.2495C4.53516 12.4166 4.50164 12.5821 4.43659 12.736C4.37155 12.89 4.27629 13.0293 4.15645 13.1458C4.03661 13.2623 3.89463 13.3536 3.73891 13.4142C3.58318 13.4749 3.41687 13.5037 3.2498 13.499C2.92454 13.4898 2.61568 13.3541 2.38886 13.1208C2.16205 12.8875 2.03516 12.5749 2.03516 12.2495C2.03516 11.9241 2.16205 11.6115 2.38886 11.3782C2.61568 11.1449 2.92454 11.0092 3.2498 11ZM6.7498 11.5H21.2498C21.4398 11.5001 21.6227 11.5723 21.7616 11.702C21.9004 11.8317 21.9849 12.0093 21.9978 12.1989C22.0108 12.3885 21.9513 12.5759 21.8314 12.7233C21.7115 12.8707 21.5401 12.9671 21.3518 12.993L21.2498 13H6.7498C6.55978 13 6.37686 12.9278 6.23801 12.798C6.09916 12.6683 6.01473 12.4907 6.00178 12.3011C5.98883 12.1116 6.04832 11.9241 6.16824 11.7767C6.28815 11.6293 6.45955 11.5329 6.6478 11.507L6.7498 11.5H21.2498H6.7498ZM3.2498 4.50001C3.41687 4.49529 3.58318 4.52411 3.73891 4.58478C3.89463 4.64544 4.03661 4.73672 4.15645 4.85322C4.27629 4.96971 4.37155 5.10905 4.43659 5.263C4.50164 5.41695 4.53516 5.58238 4.53516 5.74951C4.53516 5.91664 4.50164 6.08207 4.43659 6.23602C4.37155 6.38997 4.27629 6.52931 4.15645 6.64581C4.03661 6.7623 3.89463 6.85358 3.73891 6.91425C3.58318 6.97492 3.41687 7.00374 3.2498 6.99901C2.92454 6.98981 2.61568 6.85413 2.38886 6.62081C2.16205 6.38748 2.03516 6.07491 2.03516 5.74951C2.03516 5.42411 2.16205 5.11154 2.38886 4.87822C2.61568 4.64489 2.92454 4.50921 3.2498 4.50001ZM6.7498 5.00001H21.2498C21.4398 5.00007 21.6227 5.07226 21.7616 5.20198C21.9004 5.33171 21.9849 5.50931 21.9978 5.69889C22.0108 5.88847 21.9513 6.0759 21.8314 6.22331C21.7115 6.37072 21.5401 6.46711 21.3518 6.49301L21.2498 6.50001H6.7498C6.55978 6.49995 6.37686 6.42777 6.23801 6.29804C6.09916 6.16831 6.01473 5.99071 6.00178 5.80113C5.98883 5.61155 6.04832 5.42412 6.16824 5.27671C6.28815 5.12931 6.45955 5.03291 6.6478 5.00701L6.7498 5.00001H21.2498H6.7498Z" fill="currentColor"/>
</svg>
