<!--

    Copyright (C) 2017-2019 Dremio Corporation

    Licensed under the Apache License, Version 2.0 (the "License");
    you may not use this file except in compliance with the License.
    You may obtain a copy of the License at

        http://www.apache.org/licenses/LICENSE-2.0

    Unless required by applicable law or agreed to in writing, software
    distributed under the License is distributed on an "AS IS" BASIS,
    WITHOUT WARRANTIES OR CONDITIONS OF ANY KIND, either express or implied.
    See the License for the specific language governing permissions and
    limitations under the License.

-->
<svg id="editor/strikethrough" viewBox="0 0 24 24" fill="none" xmlns="http://www.w3.org/2000/svg">
<path d="M4.75 12.0001H19.25C19.44 12.0002 19.6229 12.0724 19.7618 12.2021C19.9006 12.3318 19.9851 12.5094 19.998 12.699C20.011 12.8886 19.9515 13.076 19.8316 13.2234C19.7117 13.3708 19.5402 13.4672 19.352 13.4931L19.251 13.5001H16.276C17.156 14.3131 17.612 15.2931 17.612 16.4351C17.612 19.2601 14.38 21.0751 10.858 20.6651C8.623 20.4051 7.049 19.5101 6.223 17.9631C6.12925 17.7877 6.10903 17.5822 6.16679 17.3918C6.22455 17.2015 6.35556 17.0419 6.531 16.9481C6.70644 16.8544 6.91194 16.8341 7.10229 16.8919C7.29264 16.9497 7.45225 17.0807 7.546 17.2561C8.116 18.3241 9.248 18.9681 11.031 19.1761C13.774 19.4941 16.112 18.1811 16.112 16.4351C16.112 15.2631 15.307 14.3081 13.547 13.5491L13.431 13.5001H4.75C4.56876 13.5001 4.39366 13.4345 4.25707 13.3153C4.12048 13.1962 4.03165 13.0317 4.007 12.8521L4 12.7501C4.00001 12.5689 4.06564 12.3938 4.18477 12.2572C4.30389 12.1206 4.46845 12.0318 4.648 12.0071L4.75 12.0001H19.25H4.75ZM6.261 8.12311C6.413 5.29311 9.083 3.65511 12.585 4.06211C14.773 4.31611 16.448 5.11511 17.567 6.47111C17.6936 6.62454 17.7541 6.82199 17.7352 7.02003C17.7163 7.21806 17.6194 7.40047 17.466 7.52711C17.3126 7.65375 17.1151 7.71425 16.9171 7.69531C16.719 7.67637 16.5366 7.57954 16.41 7.42611C15.558 6.39311 14.24 5.76411 12.411 5.55211C9.694 5.23611 7.761 6.35611 7.761 8.12311C7.761 8.89511 7.995 9.47111 8.591 10.1051L8.719 10.2371C8.813 10.3331 8.916 10.4321 8.969 10.4771L9 10.4971H7.08L7.056 10.4591C6.913 10.2531 6.2 9.26411 6.261 8.12311Z" fill="currentColor"/>
</svg>
