<!--

    Copyright (C) 2017-2019 Dremio Corporation

    Licensed under the Apache License, Version 2.0 (the "License");
    you may not use this file except in compliance with the License.
    You may obtain a copy of the License at

        http://www.apache.org/licenses/LICENSE-2.0

    Unless required by applicable law or agreed to in writing, software
    distributed under the License is distributed on an "AS IS" BASIS,
    WITHOUT WARRANTIES OR CONDITIONS OF ANY KIND, either express or implied.
    See the License for the specific language governing permissions and
    limitations under the License.

-->
<svg id="editor/text-align-center" viewBox="0 0 24 24" fill="none" xmlns="http://www.w3.org/2000/svg">
<path d="M4 5.75C4 5.55109 4.07902 5.36032 4.21967 5.21967C4.36032 5.07902 4.55109 5 4.75 5H19.25C19.4489 5 19.6397 5.07902 19.7803 5.21967C19.921 5.36032 20 5.55109 20 5.75C20 5.94891 19.921 6.13968 19.7803 6.28033C19.6397 6.42098 19.4489 6.5 19.25 6.5H4.75C4.55109 6.5 4.36032 6.42098 4.21967 6.28033C4.07902 6.13968 4 5.94891 4 5.75ZM6 18.75C6 18.5511 6.07902 18.3603 6.21967 18.2197C6.36032 18.079 6.55109 18 6.75 18H17.25C17.4489 18 17.6397 18.079 17.7803 18.2197C17.921 18.3603 18 18.5511 18 18.75C18 18.9489 17.921 19.1397 17.7803 19.2803C17.6397 19.421 17.4489 19.5 17.25 19.5H6.75C6.55109 19.5 6.36032 19.421 6.21967 19.2803C6.07902 19.1397 6 18.9489 6 18.75ZM2.75 11.5C2.55109 11.5 2.36032 11.579 2.21967 11.7197C2.07902 11.8603 2 12.0511 2 12.25C2 12.4489 2.07902 12.6397 2.21967 12.7803C2.36032 12.921 2.55109 13 2.75 13H21.25C21.4489 13 21.6397 12.921 21.7803 12.7803C21.921 12.6397 22 12.4489 22 12.25C22 12.0511 21.921 11.8603 21.7803 11.7197C21.6397 11.579 21.4489 11.5 21.25 11.5H2.75Z" fill="currentColor"/>
</svg>
