<svg id="corporate/aws" viewBox="0 0 24 24" fill="none" xmlns="http://www.w3.org/2000/svg">
<path d="M7.19982 10.778C7.19982 11.0487 7.22909 11.2682 7.28031 11.4292C7.33884 11.5902 7.41201 11.7658 7.51445 11.956C7.55103 12.0145 7.56567 12.0731 7.56567 12.1243C7.56567 12.1975 7.52177 12.2706 7.42665 12.3438L6.96568 12.6511C6.89982 12.695 6.83397 12.717 6.77544 12.717C6.70227 12.717 6.6291 12.6804 6.55593 12.6145C6.45349 12.5048 6.36569 12.3877 6.29252 12.2706C6.21935 12.1463 6.14618 12.0072 6.06569 11.8389C5.49497 12.5121 4.7779 12.8487 3.9145 12.8487C3.29988 12.8487 2.80964 12.6731 2.45111 12.3219C2.09258 11.9706 1.90965 11.5024 1.90965 10.917C1.90965 10.2951 2.12916 9.79019 2.5755 9.40971C3.02183 9.02922 3.61451 8.83898 4.36815 8.83898C4.61693 8.83898 4.87302 8.86093 5.14375 8.89752C5.41448 8.9341 5.69253 8.99264 5.9852 9.05849V8.52435C5.9852 7.96826 5.86813 7.58047 5.64131 7.35364C5.40716 7.12681 5.01205 7.01706 4.44864 7.01706C4.19255 7.01706 3.92914 7.04633 3.65841 7.11218C3.38768 7.17803 3.12427 7.25852 2.86818 7.36096C2.7511 7.41217 2.6633 7.44144 2.61208 7.45608C2.56086 7.47071 2.52428 7.47803 2.49501 7.47803C2.39257 7.47803 2.34135 7.40486 2.34135 7.2512V6.89267C2.34135 6.7756 2.35599 6.68779 2.39257 6.63658C2.42916 6.58536 2.49501 6.53414 2.59745 6.48292C2.85354 6.35121 3.16085 6.24146 3.51939 6.15366C3.87792 6.05854 4.2584 6.01463 4.66083 6.01463C5.53155 6.01463 6.16813 6.21219 6.57788 6.60731C6.98031 7.00242 7.18519 7.60242 7.18519 8.40728V10.778H7.19982ZM4.22913 11.8902C4.47059 11.8902 4.71937 11.8463 4.98278 11.7585C5.24619 11.6707 5.48033 11.5097 5.67789 11.2902C5.79496 11.1511 5.88277 10.9975 5.92667 10.8219C5.97057 10.6463 5.99984 10.4341 5.99984 10.1853V9.87799C5.78765 9.82677 5.56082 9.78287 5.32668 9.7536C5.09253 9.72434 4.86571 9.7097 4.63888 9.7097C4.14865 9.7097 3.79011 9.80482 3.54865 10.0024C3.30719 10.1999 3.19012 10.478 3.19012 10.8438C3.19012 11.1877 3.27793 11.4438 3.46085 11.6194C3.63646 11.8024 3.89255 11.8902 4.22913 11.8902ZM10.1047 12.6804C9.97295 12.6804 9.88515 12.6584 9.82661 12.6072C9.76808 12.5633 9.71686 12.4609 9.67296 12.3219L7.95347 6.66584C7.90957 6.5195 7.88762 6.42438 7.88762 6.37317C7.88762 6.25609 7.94615 6.19024 8.06322 6.19024H8.78029C8.91931 6.19024 9.01443 6.21219 9.06565 6.26341C9.12418 6.30731 9.16809 6.40975 9.21199 6.54877L10.4412 11.3926L11.5827 6.54877C11.6193 6.40243 11.6632 6.30731 11.7217 6.26341C11.7802 6.21951 11.8827 6.19024 12.0144 6.19024H12.5997C12.7388 6.19024 12.8339 6.21219 12.8924 6.26341C12.951 6.30731 13.0022 6.40975 13.0314 6.54877L14.1875 11.4511L15.4534 6.54877C15.4973 6.40243 15.5485 6.30731 15.5997 6.26341C15.6582 6.21951 15.7534 6.19024 15.8851 6.19024H16.5655C16.6826 6.19024 16.7485 6.24878 16.7485 6.37317C16.7485 6.40975 16.7411 6.44634 16.7338 6.49024C16.7265 6.53414 16.7119 6.59267 16.6826 6.67316L14.9192 12.3292C14.8753 12.4755 14.8241 12.5706 14.7656 12.6145C14.707 12.6584 14.6119 12.6877 14.4875 12.6877H13.8583C13.7192 12.6877 13.6241 12.6658 13.5656 12.6145C13.507 12.5633 13.4558 12.4682 13.4266 12.3219L12.2924 7.60242L11.1656 12.3145C11.129 12.4609 11.0851 12.556 11.0266 12.6072C10.9681 12.6584 10.8656 12.6804 10.7339 12.6804H10.1047ZM19.507 12.8779C19.1265 12.8779 18.746 12.834 18.3801 12.7462C18.0143 12.6584 17.7289 12.5633 17.5387 12.4536C17.4216 12.3877 17.3411 12.3145 17.3119 12.2487C17.2826 12.1828 17.268 12.1097 17.268 12.0438V11.6707C17.268 11.517 17.3265 11.4438 17.4363 11.4438C17.4802 11.4438 17.5241 11.4511 17.568 11.4658C17.6119 11.4804 17.6777 11.5097 17.7509 11.5389C17.9997 11.6487 18.2704 11.7365 18.5558 11.795C18.8484 11.8536 19.1338 11.8828 19.4265 11.8828C19.8874 11.8828 20.246 11.8024 20.4948 11.6414C20.7435 11.4804 20.8752 11.2463 20.8752 10.9463C20.8752 10.7414 20.8094 10.5731 20.6777 10.4341C20.546 10.2951 20.2972 10.1707 19.9387 10.0536L18.8777 9.72434C18.3436 9.55605 17.9484 9.30727 17.707 8.97801C17.4655 8.65606 17.3411 8.29753 17.3411 7.91705C17.3411 7.60973 17.407 7.33901 17.5387 7.10486C17.6704 6.87072 17.846 6.66584 18.0655 6.50487C18.285 6.33658 18.5338 6.21219 18.8265 6.12439C19.1192 6.03658 19.4265 6 19.7484 6C19.9094 6 20.0777 6.00732 20.2387 6.02927C20.4069 6.05122 20.5606 6.08049 20.7143 6.10975C20.8606 6.14634 20.9996 6.18292 21.1313 6.22683C21.263 6.27073 21.3655 6.31463 21.4386 6.35853C21.5411 6.41707 21.6142 6.4756 21.6581 6.54146C21.7021 6.59999 21.724 6.68048 21.724 6.78292V7.12681C21.724 7.28047 21.6655 7.36096 21.5557 7.36096C21.4972 7.36096 21.4021 7.33169 21.2777 7.27315C20.8606 7.08291 20.3923 6.98779 19.8728 6.98779C19.4557 6.98779 19.1265 7.05364 18.8997 7.19267C18.6728 7.33169 18.5558 7.54388 18.5558 7.84388C18.5558 8.04875 18.6289 8.22436 18.7753 8.36338C18.9216 8.5024 19.1923 8.64143 19.5801 8.76581L20.6191 9.09508C21.146 9.26337 21.5264 9.49751 21.7533 9.79751C21.9801 10.0975 22.0898 10.4414 22.0898 10.8219C22.0898 11.1365 22.024 11.4219 21.8996 11.6707C21.7679 11.9194 21.5923 12.1389 21.3655 12.3145C21.1386 12.4975 20.8679 12.6292 20.5533 12.7243C20.224 12.8267 19.8801 12.8779 19.507 12.8779Z" fill="#F6F6F6"/>
<path fill-rule="evenodd" clip-rule="evenodd" d="M20.8899 16.4342C18.4826 18.2122 14.9851 19.1561 11.9778 19.1561C7.76322 19.1561 3.96571 17.5976 1.09746 15.0074C0.870637 14.8025 1.07551 14.5244 1.34624 14.6854C4.44863 16.4854 8.27541 17.5756 12.2339 17.5756C14.9046 17.5756 17.8387 17.0195 20.5386 15.8781C20.9411 15.6951 21.285 16.1415 20.8899 16.4342Z" fill="#FF9900"/>
<path fill-rule="evenodd" clip-rule="evenodd" d="M21.8923 15.2927C21.585 14.8976 19.8582 15.1025 19.0752 15.1976C18.8411 15.2268 18.8045 15.022 19.0167 14.8683C20.3923 13.9025 22.6532 14.1805 22.9167 14.5025C23.1801 14.8317 22.8435 17.0927 21.5557 18.1756C21.3581 18.3439 21.1679 18.2561 21.2557 18.0366C21.5484 17.3122 22.1996 15.6805 21.8923 15.2927Z" fill="#FF9900"/>
</svg>
