<svg id="corporate/dremio" viewBox="0 0 24 24" fill="none" xmlns="http://www.w3.org/2000/svg">
  <path fill-rule="evenodd" clip-rule="evenodd" d="M6.54149 14.761C5.93193 15.0447 4.74601 15.6796 4.85849 16.3675C5.01321 16.7907 5.49616 16.3436 5.6742 16.1655C6.05853 15.7952 6.36331 15.2805 6.54149 14.761ZM10.1791 13.241C9.77595 14.3232 8.59936 14.8379 8.27126 14.6553C8.10707 14.5637 8.28525 14.2222 8.28991 13.9866C8.05084 14.0827 7.65704 14.2607 7.41796 14.3618C7.98994 14.7995 8.28525 15.5547 8.28059 16.2714C8.28059 17.0073 7.98541 17.6856 7.43209 18.1523C8.41652 19.6478 7.91505 20.937 6.56028 21.9423L6.47579 22L6.44767 21.8992C6.24617 21.1873 5.99297 20.5859 5.51482 20.0182C5.27574 19.7347 5.00374 19.4748 4.73669 19.2149C4.38514 18.8734 4.04771 18.5273 3.72881 18.157C2.38803 16.6946 1.8583 14.1597 2.03195 12.2021C2.12084 11.192 2.42109 10.2251 2.88031 9.33045C3.24599 8.61856 3.71002 7.96439 4.24454 7.37765C5.42566 6.07888 6.99152 5.05419 8.65573 4.54924C10.118 4.102 11.7916 4.02486 13.1841 4.76096C13.409 4.88104 13.7464 5.09262 13.9341 5.25155C14.0515 5.36206 14.1683 5.47749 14.281 5.58828C14.2949 5.59786 14.3092 5.61235 14.3185 5.62657L20.8297 2.21635C21.3688 1.94227 21.7719 1.94227 21.9361 2.13949C22.1282 2.37036 21.8612 2.85124 21.4815 3.13504L15.9029 7.29093C16.0013 7.62287 15.8372 8.10389 15.5933 8.38769C16.3388 8.6522 15.6825 9.77289 15.3543 10.1721C14.4214 11.3073 12.7106 12.1973 11.1871 12.8465C10.7792 13.0246 10.5449 13.1016 10.1791 13.241Z" fill="#2E3336" />
  <path fill-rule="evenodd" clip-rule="evenodd" d="M15.2842 9.32099C15.7013 8.78211 15.4106 8.46959 15.12 8.77268C14.548 9.37378 13.6809 9.58057 12.8982 9.45064C11.7541 9.25356 11.7028 9.07562 11.8949 8.90233C13.245 9.40756 14.8152 8.7486 15.4667 7.65663C15.7481 7.24304 14.806 6.9111 14.2482 6.13671C11.5809 2.44241 3.23187 5.6654 2.43495 12.1252C2.19107 14.0684 2.7208 16.2184 4.02427 17.7336C4.99923 18.8689 6.05854 19.3403 6.6585 21.1249C7.8259 20.0953 7.64306 18.9315 6.79004 17.9116C8.24768 17.1325 8.03686 15.1073 7.01032 14.4919C6.53217 16.2954 4.81625 17.6278 4.41793 16.3484C4.1602 15.0448 6.25085 14.1792 9.60258 12.8756C12.4058 11.798 14.2154 10.9082 15.2842 9.32099Z" fill="#31D3DB" />
  <path fill-rule="evenodd" clip-rule="evenodd" d="M15.2842 9.32089C15.7013 8.78201 15.4106 8.4695 15.12 8.77258C14.628 9.29189 13.8872 9.51811 13.212 9.48433C12.059 9.39775 11.14 9.16689 10.2965 9.25825C8.6368 9.4314 7.01964 10.5089 6.15235 11.418C4.68991 12.9573 3.07714 16.151 4.7039 16.7717C4.58197 16.6946 4.48348 16.5552 4.41792 16.3483C4.16019 15.0447 6.25084 14.1791 9.60257 12.8755C12.4058 11.7979 14.2154 10.9081 15.2842 9.32089Z" fill="#FFFFFE" />
  <path fill-rule="evenodd" clip-rule="evenodd" d="M8.10707 11.8412C8.96956 12.2741 8.79618 13.7939 8.66958 14.1744C10.3057 13.6978 9.81805 11.2112 10.5777 10.4511C9.62589 10.4222 7.84454 11.4034 8.10707 11.8412Z" fill="#31D3DB" />
  <path fill-rule="evenodd" clip-rule="evenodd" d="M10.873 7.33889C11.1073 7.21402 11.3934 7.30046 11.52 7.54118C11.6418 7.77669 11.5526 8.0702 11.323 8.20014C11.0933 8.32514 10.8027 8.23843 10.6807 7.99813C10.5542 7.76233 10.6432 7.46882 10.873 7.33889Z" fill="#2E3336" />
  <path fill-rule="evenodd" clip-rule="evenodd" d="M14.8435 7.54587L21.4063 2.85616C21.589 2.72144 21.8331 2.43272 21.7344 2.29335C21.6362 2.15385 21.3501 2.23071 21.1064 2.34136L14.0088 6.27596C13.7792 6.76655 14.2434 7.80081 14.8435 7.54587Z" fill="#31D3DB" />
  <path fill-rule="evenodd" clip-rule="evenodd" d="M14.2668 6.61751L21.1252 2.47597C21.4251 2.29325 21.5423 2.29804 21.725 2.27875C21.622 2.15867 21.3406 2.23061 21.1064 2.34125L14.0088 6.27586C13.8356 6.64623 14.0607 7.33418 14.4403 7.53141C14.3044 7.22832 14.2154 6.91088 14.2668 6.61751Z" fill="#FFFFFE" />
  <path fill-rule="evenodd" clip-rule="evenodd" d="M4.16471 8.45987C4.38966 8.4213 4.56331 8.58023 4.55851 8.81602C4.55851 9.05154 4.37581 9.27283 4.15072 9.3114C3.93044 9.34969 3.75692 9.19104 3.76172 8.96018C3.76172 8.72452 3.94429 8.50323 4.16471 8.45987Z" fill="#2FA69F" />
  <path fill-rule="evenodd" clip-rule="evenodd" d="M5.49617 6.95422C5.69314 6.92058 5.84772 7.06008 5.84292 7.26702C5.83826 7.47874 5.67888 7.6709 5.48205 7.70947C5.28522 7.74325 5.13036 7.60361 5.13502 7.39695C5.13982 7.19002 5.29921 6.99265 5.49617 6.95422Z" fill="#2FA69F" />
  <path fill-rule="evenodd" clip-rule="evenodd" d="M9.52288 4.96308C9.72451 4.97265 9.84631 5.14566 9.79474 5.34767C9.74797 5.54982 9.54634 5.70383 9.34951 5.69412C9.1524 5.68454 9.03074 5.51125 9.07751 5.30938C9.12442 5.10723 9.32591 4.95337 9.52288 4.96308Z" fill="#2FA69F" />
  <path fill-rule="evenodd" clip-rule="evenodd" d="M10.7557 4.75597C10.9199 4.79454 10.9994 4.94827 10.9339 5.11199C10.8682 5.27064 10.6807 5.37171 10.5214 5.33807C10.3574 5.2995 10.2774 5.14549 10.3431 4.98205C10.4088 4.8234 10.5962 4.72233 10.7557 4.75597Z" fill="#2FA69F" />
  <path fill-rule="evenodd" clip-rule="evenodd" d="M5.51028 7.89697C5.65526 7.8729 5.77268 7.97876 5.76801 8.13276C5.76801 8.28663 5.64594 8.43092 5.50068 8.45513C5.35542 8.48399 5.24295 8.37813 5.24295 8.22426C5.24775 8.07026 5.36475 7.92583 5.51028 7.89697Z" fill="#2FA69F" />
  <path fill-rule="evenodd" clip-rule="evenodd" d="M3.43348 9.66714C3.5834 9.63842 3.70548 9.74907 3.70082 9.90786C3.70082 10.0713 3.57421 10.2204 3.42416 10.2492C3.2693 10.2733 3.15216 10.1674 3.15216 10.0088C3.15696 9.84536 3.27876 9.69135 3.43348 9.66714Z" fill="#2FA69F" />
  <path fill-rule="evenodd" clip-rule="evenodd" d="M15.7061 5.33807L15.4015 5.5063C15.4248 5.96324 15.7903 6.51648 16.0528 6.60798C15.8467 6.28561 15.6592 5.72759 15.7061 5.33807ZM17.3421 4.4291L17.075 4.57804C17.1076 4.98685 17.4359 5.47744 17.5999 5.5063C17.4733 5.30922 17.3093 4.76091 17.3421 4.4291ZM18.9593 3.52942L18.7531 3.64486C18.7484 3.9143 18.9407 4.31817 19.156 4.37603C19.053 4.20767 18.9264 3.86137 18.9593 3.52942ZM20.5157 2.66846L20.3374 2.76953C20.3516 2.94747 20.5532 3.27941 20.6657 3.3322C20.6234 3.20241 20.4968 2.9379 20.5157 2.66846Z" fill="#2FA69F" />
</svg>
