<svg id='corporate/dremio-info-unavailable-yet' viewBox="0 0 400 370" fill="none" xmlns="http://www.w3.org/2000/svg">
<path fill-rule="evenodd" clip-rule="evenodd" d="M206.208 31.4736C250.568 38.949 262.945 92.4421 290.858 127.644C318.512 162.52 374.097 187.617 364.446 231.033C354.787 274.484 295.074 276.677 253.913 293.835C217.317 309.089 182.183 335.263 144.579 322.682C102.188 308.5 71.4898 271.343 58.8146 228.563C45.0445 182.088 47.0191 130.291 76.0672 91.4484C106.132 51.2465 156.637 23.12 206.208 31.4736Z" fill="#F9FCFF"/>
<path d="M221.227 197.323C226.369 188.557 232.382 180.833 238.867 174.344L315.277 217.781C312.816 226.465 309.081 235.359 303.986 244.037C303.619 244.666 303.241 245.283 302.856 245.906L220.292 198.97C220.599 198.423 220.901 197.87 221.221 197.323H221.227Z" fill="#CFECF1"/>
<path d="M300.613 155.87L312.839 162.831L311.289 165.869C319.651 178.302 321.035 197.457 315.271 217.787L238.862 174.35C258.864 154.333 283.351 146.126 300.607 155.87H300.613Z" fill="#CFECF1"/>
<path d="M302.862 245.906C286.949 271.871 259.858 292.457 236.595 289.396L236.832 292.457L224.606 285.496C202.106 272.79 200.313 234.323 220.304 198.97L302.868 245.906H302.862Z" fill="#CFECF1"/>
<path d="M233.459 204.284C254.449 168.488 289.991 149.927 312.845 162.825C335.699 175.729 337.208 215.203 316.218 250.999C297.743 282.504 262.574 306.991 236.832 292.457C213.977 279.553 212.468 240.079 233.459 204.284Z" fill="#2A394A"/>
<path d="M247.182 288.726C266.799 288.726 290.991 270.823 306.022 245.196C318.609 223.742 323.225 200.361 318.372 182.661C316.295 175.083 312.496 169.111 307.336 165.136C308.46 165.578 309.549 166.09 310.596 166.684C317.325 170.485 322.189 177.254 324.657 186.246C329.504 203.946 324.888 227.327 312.307 248.781C297.281 274.408 273.084 292.306 253.472 292.312C248.283 292.312 243.436 291.06 239.081 288.604C238.045 288.016 237.068 287.341 236.122 286.614C239.578 288.011 243.282 288.721 247.194 288.721L247.182 288.726Z" fill="#CFECF1"/>
<path d="M225.02 269.042C220.167 251.342 224.789 227.967 237.37 206.507C252.573 180.583 276.362 163.168 296.571 163.168C300.436 163.168 304.04 163.832 307.336 165.13C312.496 169.105 316.295 175.077 318.372 182.655C323.219 200.355 318.603 223.736 306.022 245.19C290.997 270.817 266.799 288.715 247.182 288.721C243.276 288.721 239.566 288.011 236.11 286.614C230.914 282.644 227.097 276.655 225.014 269.036L225.02 269.042Z" fill="white"/>
<path d="M248.436 214.208C260.236 194.087 280.215 183.656 293.056 190.909C305.904 198.161 306.75 220.348 294.95 240.469C284.564 258.181 264.799 271.94 250.33 263.769C237.489 256.516 236.636 234.329 248.436 214.208Z" fill="#2A394A"/>
<path d="M272.474 186.619C271.309 187.184 269.942 186.351 269.942 185.071V180.112C269.942 179.157 270.729 178.383 271.699 178.383C272.67 178.383 273.457 179.157 273.457 180.112V185.071C273.457 185.728 273.078 186.328 272.474 186.619Z" fill="#2A394A"/>
<path d="M230.529 250.742L235.287 248.036C236.471 247.361 237.992 248.106 238.116 249.439C238.187 250.219 237.844 250.929 237.193 251.301L232.447 254.002C232.145 254.176 231.819 254.258 231.494 254.258C230.831 254.258 230.186 253.92 229.831 253.315C229.304 252.413 229.618 251.26 230.535 250.742H230.529Z" fill="#2A394A"/>
<path d="M308.093 206.694L312.851 203.987C314.035 203.312 315.555 204.057 315.68 205.39C315.751 206.17 315.402 206.88 314.757 207.252L310.011 209.953C309.709 210.128 309.383 210.209 309.058 210.209C308.395 210.209 307.75 209.871 307.395 209.266C306.868 208.364 307.182 207.212 308.093 206.694Z" fill="#2A394A"/>
<path d="M270.906 268.14C272.113 267.569 273.51 268.431 273.51 269.746V274.589C273.51 275.572 272.699 276.376 271.693 276.376C270.687 276.376 269.876 275.578 269.876 274.589V269.746C269.876 269.059 270.273 268.436 270.9 268.14H270.906Z" fill="#2A394A"/>
<path d="M300.773 180.432C299.524 179.774 297.968 180.228 297.287 181.445L273.948 223.613C273.273 224.836 273.735 226.378 274.978 227.048C275.356 227.245 275.782 227.35 276.202 227.35C277.143 227.35 278.013 226.844 278.463 226.029L301.803 183.86C302.477 182.638 302.016 181.101 300.773 180.426V180.432Z" fill="#A363BE"/>
<path d="M271.776 225.825C270.356 225.825 269.202 226.96 269.202 228.357V256.342C269.202 257.739 270.356 258.874 271.776 258.874C273.196 258.874 274.35 257.739 274.35 256.342V228.357C274.35 226.96 273.196 225.825 271.776 225.825Z" fill="#A363BE"/>
<path d="M263.059 219.83C267.64 212.013 275.404 207.962 280.392 210.779L283.902 212.77L282.724 212.962C285.328 216.833 284.842 223.695 281.132 230.033C277.694 235.895 271.616 240.621 266.415 239.94L267.308 241.081L263.799 239.09C258.81 236.273 258.479 227.653 263.065 219.836L263.059 219.83Z" fill="white"/>
<path d="M267.308 241.075C268.45 241.721 269.675 242.012 270.942 242.012C275.901 242.012 281.428 237.501 284.641 232.024C289.227 224.207 288.896 215.587 283.907 212.77C282.83 212.165 281.629 211.874 280.357 211.874C275.723 211.874 270.172 215.692 266.574 221.821C261.994 229.638 262.319 238.258 267.308 241.075Z" fill="#A363BE"/>
<path d="M283.28 218.73C282.972 217.607 282.463 216.833 281.759 216.437C281.363 216.21 280.901 216.105 280.351 216.105C280.309 216.105 280.256 216.123 280.209 216.123C280.25 216.245 280.303 216.361 280.339 216.495C280.984 218.847 280.7 223.02 277.972 227.67C275.362 232.123 271.125 235.475 268.077 235.534C268.391 236.424 268.847 237.064 269.45 237.402C269.9 237.652 270.385 237.78 270.942 237.78C273.995 237.78 278.286 234.399 280.913 229.911C283.641 225.261 283.925 221.087 283.28 218.736V218.73Z" fill="white"/>
<path d="M277.972 227.67C280.7 223.02 280.984 218.847 280.339 216.495C280.303 216.361 280.25 216.245 280.209 216.123C277.487 216.21 273.261 218.881 270.297 223.934C267.569 228.584 267.284 232.757 267.929 235.109C267.971 235.26 268.024 235.388 268.077 235.528C271.125 235.475 275.362 232.117 277.972 227.664V227.67Z" fill="url(#paint0_linear_2_3490)"/>
<path d="M277.972 227.67C280.7 223.02 280.984 218.847 280.339 216.495C280.303 216.361 280.25 216.245 280.209 216.123C277.487 216.21 273.261 218.881 270.297 223.934C267.569 228.584 267.284 232.757 267.929 235.109C267.971 235.26 268.024 235.388 268.077 235.528C271.125 235.475 275.362 232.117 277.972 227.664V227.67Z" fill="#CFECF1"/>
<path d="M75.2183 163.17C76.3308 161.321 77.5176 159.525 79.3856 158.316C81.3696 157.035 83.3358 156.643 85.6173 157.91C98.3601 164.981 111.151 171.967 123.926 178.98C124.179 179.117 124.456 179.214 124.804 179.363C125.523 176.566 126.392 173.886 127.609 171.332C127.867 170.791 127.624 170.373 127.496 169.937C124.902 161.23 123.587 152.366 123.947 143.279C124.081 139.87 124.563 136.494 124.908 133.106C124.961 133.024 125.045 132.948 125.059 132.861C126.273 125.432 128.355 118.253 131.44 111.363C132.16 110.913 132.85 110.383 133.787 110.506C132.496 113.572 130.958 116.544 130.119 119.783C130.077 119.859 129.979 119.962 130 120.011C130.08 120.196 130.22 120.12 130.345 120.046C134.581 118.183 138.329 115.638 141.372 112.177C143.076 110.237 144.605 108.157 145.099 105.538L145.078 105.547C145.304 105.571 145.31 105.415 145.322 105.263C145.355 104.895 145.768 104.538 145.477 104.184C145.256 103.918 144.932 104.155 144.673 104.269C139.751 106.448 134.828 108.631 129.908 110.813C129.676 110.784 129.465 110.804 129.328 111.024C129.188 111.109 129.158 111.217 129.259 111.352L129.212 111.316C127.014 111.483 127.079 111.454 125.946 109.137C122.948 103.008 121.297 96.6211 122.127 89.784C123.67 77.0956 130.179 67.6693 141.97 62.3009C154.522 56.5872 166.515 58.4537 177.729 66.1451C182.355 69.3165 186.162 73.2163 188.801 78.1459C189.196 78.8832 189.699 79.1553 190.523 79.2401C192.54 79.4507 194.538 79.8252 196.555 80.0388C197.537 80.1441 197.873 80.5625 197.691 81.4694C181.221 88.5347 164.749 95.6059 148.273 102.657C147.472 102.999 147.127 103.523 147.193 104.348C146.55 107.2 145.254 109.751 143.451 112.057C140.045 116.413 135.574 119.397 130.556 121.647C129.622 122.065 129.129 122.615 128.858 123.622C125.758 135.099 124.667 146.69 126.648 158.471C127.201 161.76 127.853 165.028 128.965 168.453C129.947 167.008 130.812 165.788 131.615 164.53C132.07 163.819 132.603 163.462 133.457 163.781C133.891 164.662 133.281 165.25 132.838 165.879C127.665 173.19 125.232 181.273 125.735 190.191C126.109 196.849 128.323 203.008 131.02 209.032C132.305 211.899 133.596 214.766 135.536 217.291L135.527 217.276C135.467 217.56 135.548 217.77 135.839 217.876L135.827 217.861C135.848 218.045 135.836 218.262 136.14 218.177L136.119 218.151C135.967 218.508 136.208 218.698 136.44 218.891C137.008 219.66 137.154 220.766 138.373 221.24C138.26 218.815 138.492 216.55 138.995 214.312C140.179 209.029 142.654 204.251 145.019 199.43C146.652 196.1 148.418 192.8 149.457 189.246C151.128 183.517 151.393 177.733 149.236 172.017C149.004 171.4 148.969 170.823 149.721 170.58C150.414 170.358 150.688 170.893 150.908 171.4C151.081 171.8 151.229 172.219 151.351 172.637C153.225 178.986 152.764 185.255 150.584 191.434C149.867 193.462 149.912 193.684 152.071 194.263C152.404 194.354 152.746 194.401 153.088 194.45C162.782 195.875 172.473 197.332 182.173 198.71C186.775 199.365 191.347 200.225 195.984 200.626C200.125 201.533 204.345 201.957 208.534 202.575C210.494 202.864 211.779 203.795 212.65 205.468C213.272 206.665 213.519 207.943 213.608 209.254C213.84 212.683 212.481 218.195 208.12 219.634C203.962 219.581 199.925 218.411 195.752 218.268C197.43 219.341 199.104 220.374 200.871 221.211C203.013 222.226 203.941 223.908 203.941 226.123C203.941 229.455 202.564 232.252 200.258 234.634C198.611 236.333 196.656 237.343 194.187 237.141C193.619 236.86 193.042 236.597 192.486 236.292C177.277 227.931 162.068 219.567 146.86 211.208C146.122 210.802 145.349 210.477 144.465 210.591C144.129 210.512 143.784 210.456 143.454 210.354C142.443 210.038 141.976 210.389 141.648 211.401C140.405 215.251 139.644 219.125 140.497 223.165C140.634 223.812 140.643 224.511 139.959 224.836C139.236 225.181 138.617 224.786 138.124 224.248C136.288 222.249 134.852 219.97 133.48 217.659C131.886 214.971 130.393 212.223 129.221 209.327C128.891 208.511 128.406 208.122 127.522 207.996C119.298 206.817 111.076 205.609 102.855 204.406C93.8507 203.087 84.8498 201.738 75.837 200.471C74.2724 200.252 72.8506 199.895 71.6876 198.81C68.5197 194.488 69.8166 186.42 74.3676 183.672C76.9376 182.725 79.4332 183.719 81.9318 184.038C87.5448 184.755 93.1339 185.644 98.7349 186.466C99.9039 186.636 101.052 187.022 102.26 186.826C102.295 186.894 102.334 186.958 102.37 187.022L102.468 186.94L102.233 186.85C101.962 186.654 101.706 186.428 101.415 186.267C93.2767 181.791 85.1503 177.298 76.9822 172.871C75.2451 171.929 74.4033 170.589 74.2129 168.705C74.0166 166.757 74.6115 164.969 75.2064 163.173L75.2183 163.17ZM199.208 222.849C195.478 223.151 191.299 229.853 192.745 233.852C193.28 235.327 194.645 235.971 196.201 235.467C198.072 234.859 199.405 233.604 200.389 231.96C201.996 229.8 202.894 227.448 202.192 224.751C201.799 223.238 200.904 222.726 199.208 222.849ZM190.731 233.516C190.85 233.595 190.978 233.683 191.073 233.507C191.091 233.472 190.984 233.373 190.936 233.302C190.832 228.01 193.108 224.066 198.004 221.348C194.648 220.046 192.046 217.481 188.354 216.954C177.938 215.468 167.536 213.871 157.119 212.364C155.218 212.089 153.323 211.638 150.935 211.653C151.717 212.118 152.119 212.37 152.532 212.598C158.136 215.684 163.737 218.777 169.347 221.849C176.468 225.746 183.601 229.628 190.728 233.513L190.731 233.516ZM82.2233 158.752C81.5927 158.726 81.0722 159.03 80.5844 159.355C77.8984 161.142 76.2118 163.638 75.8162 166.774C75.376 170.261 76.2505 170.727 78.4992 171.952C87.7113 176.976 96.8967 182.049 106.097 187.098C106.525 187.332 106.962 187.637 107.426 187.707C112.656 188.514 117.894 189.284 123.129 190.065C123.629 190.138 124.018 190.132 123.959 189.453C123.739 186.917 124.114 184.401 124.253 181.876C124.536 180.917 123.822 180.627 123.168 180.267C116.299 176.505 109.437 172.737 102.575 168.968C96.7926 165.791 91.019 162.596 85.2157 159.457C84.3204 158.972 83.431 158.106 82.2233 158.752ZM129.138 109.169C129.652 108.996 130.182 108.862 130.678 108.648C137.326 105.746 143.957 102.806 150.62 99.93C161.947 95.0413 173.291 90.1906 184.627 85.3224C187.557 84.0644 190.484 82.7918 193.587 81.4519C192.447 80.9662 191.46 81.0013 190.508 80.855C189.532 80.7058 188.56 80.5127 187.581 80.4133C186.971 80.3518 186.653 80.1295 186.376 79.5561C181.813 70.1386 174.353 64.1703 164.088 61.5929C163.017 61.3237 161.944 60.9668 160.546 61.1101C160.911 61.3822 161.093 61.5314 161.289 61.6572C165.653 64.4366 169.032 68.1579 171.837 72.403C173.238 74.524 174.532 76.7182 175.513 79.0704C175.728 79.5853 175.802 80.0534 175.21 80.3021C174.707 80.5127 174.371 80.1763 174.136 79.7638C173.993 79.5093 173.862 79.246 173.738 78.9797C171.153 73.4679 167.672 68.5997 162.892 64.7174C160.724 62.9562 158.437 61.312 155.53 60.8615C153.52 60.6099 151.577 60.9024 149.272 61.5256L150.679 61.7391C151.809 62.2219 152.996 62.608 154.061 63.2049C161.572 67.406 166.248 73.9945 169.841 81.4811C170.103 82.0282 170.189 82.5373 169.496 82.8093C168.83 83.0726 168.651 82.5226 168.425 82.0955C168.244 81.7503 168.083 81.3933 167.907 81.0452C165.177 75.5597 161.691 70.6388 156.759 66.8355C153.963 64.6794 150.953 62.9416 147.264 62.766C145.703 62.3652 144.337 62.9065 142.936 63.5676C143.445 64.1703 144.073 63.9597 144.632 64.024C146.75 64.9485 148.903 65.7823 150.813 67.134C156.203 70.9548 160.052 76.0161 163.107 81.7298C163.544 82.546 163.904 83.4032 164.285 84.2487C164.472 84.6671 164.353 85.0299 163.945 85.2434C163.508 85.4716 163.175 85.2376 162.934 84.8953C162.738 84.6174 162.595 84.3014 162.449 83.9942C159.858 78.4911 156.396 73.6171 151.634 69.7173C148.784 67.3856 145.649 65.5805 141.851 65.2031C140.92 65.1241 139.989 64.9719 139.123 65.5249C129.991 71.3498 124.827 79.5853 123.679 90.2228C122.962 96.8727 124.703 103.046 127.612 108.979C128.09 109.956 128.552 109.74 129.146 109.175L129.138 109.169ZM205.589 203.666C200.223 202.888 195.05 202.145 189.877 201.387C176.519 199.427 163.163 197.473 149.81 195.477C149.04 195.363 148.775 195.591 148.49 196.212C147.526 198.289 146.479 200.328 145.512 202.402C144.552 204.465 143.65 206.556 142.678 208.739C163.038 211.726 183.188 214.681 203.489 217.656C201.371 212.101 201.933 208.405 205.592 203.666H205.589ZM127.787 206.527C127.808 206.27 127.847 206.162 127.817 206.08C126.121 201.653 124.649 197.168 124.182 192.426C124.114 191.732 123.629 191.624 123.04 191.539C107.864 189.322 92.6877 187.104 77.5176 184.846C75.7835 184.588 74.5104 185.141 73.5258 186.472C71.5359 189.161 71.0659 192.174 71.7887 195.36C72.1843 197.101 73.0291 198.54 75.0934 198.833C78.4249 199.301 81.7504 199.807 85.0789 200.296C96.7777 202.013 108.476 203.733 120.175 205.448C122.707 205.819 125.241 206.167 127.787 206.527ZM212.168 209.991C212.082 208.523 211.913 207.071 211.112 205.787C209.89 203.83 208.129 203.616 206.436 205.199C203.834 207.636 202.93 213.072 204.604 216.226C205.836 218.546 207.945 218.815 209.723 216.86C211.502 214.906 212.052 212.519 212.168 209.991ZM150.988 211.577C150.953 211.542 150.92 211.483 150.884 211.48C150.849 211.48 150.807 211.533 150.768 211.565C150.804 211.6 150.837 211.659 150.872 211.662C150.908 211.662 150.95 211.609 150.985 211.58L150.988 211.577Z" fill="#3E444A"/>
<path d="M226.101 95.249C224.07 98.7568 222.056 102.273 219.994 105.761C219.634 106.369 219.789 106.817 220.027 107.381C221.657 111.29 222.377 115.319 221.416 119.508C221.288 120.07 221.381 120.251 221.856 120.506C223.992 121.65 224.893 123.61 225.384 125.827C226.045 128.817 225.935 131.851 225.595 134.844C224.834 141.576 225.048 148.191 226.476 154.864C228.51 164.381 228.796 174.085 228.722 183.795C228.632 195.618 227.33 207.297 224.697 218.841C221.788 231.597 216.755 243.463 209.563 254.452C209.402 254.697 209.262 254.955 209.114 255.206C207.317 257.831 205.517 260.449 203.724 263.076C201.359 266.543 201.401 269.855 204.078 273.342C207.751 278.128 211.898 282.526 216.071 286.888C220.226 291.232 222.796 296.34 224.001 302.145C224.221 303.204 224.742 304.564 223.537 305.222C222.276 305.91 221.636 304.514 220.925 303.806C218.799 301.688 216.351 300.176 213.48 299.169C206.826 296.838 200.125 294.603 193.872 291.3C193.741 291.229 193.613 291.15 193.477 291.104C192.4 290.72 191.626 289.26 190.475 289.664C189.497 290.009 188.815 291.142 187.98 291.902C180.002 299.175 171.295 305.34 160.947 308.976C156.536 310.527 151.994 311.439 147.291 311.407C146.556 311.401 145.801 311.308 145.093 311.12C144.088 310.854 143.537 310.255 144.093 309.163C144.549 308.874 144.977 308.531 145.465 308.306C149.192 306.589 152.077 303.935 154.463 300.676C155.908 298.704 157.41 296.77 158.96 294.875C165.495 286.888 172.229 279.135 182.057 274.773C184.327 273.766 185.404 271.607 185.796 269.273C186.903 262.702 183.735 257.45 180.201 252.336H180.21C180.124 251.719 179.803 251.245 179.276 250.897L179.282 250.906C179.27 250.49 179.092 250.18 178.693 250.01L178.702 250.019C178.687 249.601 178.488 249.305 178.095 249.136L178.104 249.147C178.119 248.963 178.06 248.829 177.857 248.791L177.875 248.805C177.863 248.548 177.786 248.334 177.5 248.261L177.509 248.273C177.518 248.094 177.468 247.954 177.265 247.913L177.283 247.925C177.271 247.664 177.185 247.456 176.902 247.386L176.911 247.398C176.911 247.217 176.852 247.076 176.644 247.05L176.667 247.07C176.667 246.807 176.59 246.593 176.299 246.514L176.308 246.526C176.284 246.321 176.227 246.157 175.96 246.219C169.915 237.179 162.916 228.841 156.238 220.266C155.221 218.961 154.168 217.683 153.133 216.389C152.987 215.857 153.106 215.626 153.668 215.959C154.778 216.621 156.03 217.065 156.934 218.037C157 218.101 157.065 218.168 157.131 218.233L157.161 218.271C157.66 219.347 158.499 220.19 159.222 221.106C166.643 230.485 174.124 239.821 180.811 249.733C183.667 253.966 186.234 258.322 187.483 263.331C189.006 269.445 186.721 274.527 181.043 277.277C178.137 278.684 175.466 280.422 173.018 282.499C166.863 287.724 161.804 293.909 156.985 300.29C154.546 303.52 151.961 306.554 148.499 308.765C148.008 309.002 147.514 309.239 146.681 309.64C147.942 309.64 148.781 309.713 149.602 309.626C151.223 309.45 152.859 309.304 154.442 308.944C168.544 305.734 179.621 297.645 189.592 287.786C190.252 287.189 190.898 287.28 191.588 287.768C192.828 288.649 194.104 289.471 195.475 290.164C201.07 292.993 206.993 295.021 212.885 297.116C215.634 298.093 218.355 299.093 220.595 301.027C221.071 301.51 221.437 302.115 222.112 302.382C222.166 302.443 222.219 302.505 222.273 302.569L222.297 302.437C222.228 302.431 222.16 302.423 222.091 302.417C221.607 298.248 219.867 294.594 217.359 291.253L217.374 291.273C217.314 291.033 217.198 290.875 216.91 290.954C217.023 290.205 216.374 289.875 215.982 289.445C211.755 284.811 207.424 280.27 203.441 275.425C202.849 274.706 202.54 273.737 201.612 273.292C201.772 272.936 201.636 272.693 201.3 272.535L201.314 272.549C201.294 272.368 201.362 272.105 201.008 272.225L201.038 272.251C201.068 272.125 201.16 271.973 201.118 271.874C199.446 267.953 200.431 264.492 202.879 261.207C204.571 258.937 206.213 256.622 207.576 254.136C208.929 252.284 210.116 250.335 211.136 248.284C211.327 248.006 211.535 247.737 211.704 247.451C219.789 233.855 223.57 218.932 225.664 203.499C226.898 194.409 227.136 185.27 226.904 176.113C226.732 169.243 226.28 162.386 224.825 155.663C223.475 149.414 222.954 143.165 223.638 136.819C223.974 133.715 224.209 130.611 223.879 127.495C223.677 125.582 223.18 123.759 221.604 122.419C220.946 121.86 220.548 121.775 220.125 122.741C218.861 125.637 216.957 128.121 214.631 130.28C208.932 135.576 202.031 138.574 194.512 140.33C189.809 141.427 185.044 141.912 180.228 141.172C179.371 141.041 178.244 141.222 177.941 139.984C178.223 139.256 178.744 139.174 179.484 139.273C191.478 140.842 202.18 137.656 211.681 130.491C215.256 127.796 218.001 124.353 219.263 119.962C220.31 117.437 220.241 114.859 219.646 112.256C219.441 110.661 218.959 109.137 218.239 107.706C217.778 106.791 217.793 106.027 218.323 105.129C219.941 102.367 221.476 99.5584 223.04 96.7674C223.406 96.1969 223.802 95.644 224.138 95.0559C230.631 83.7514 237.119 72.4439 243.603 61.1335C247.705 53.9746 251.825 46.8244 255.87 39.6362C256.997 37.6322 257.813 35.4701 257.78 33.115C257.765 32.1086 257.578 31.1519 256.34 30.874C255.29 30.365 254.442 30.9501 253.615 31.4182C252.244 32.2022 251.129 33.3023 250.052 34.4345C249.454 35.122 248.856 35.8066 248.261 36.4941C244.808 40.5578 241.354 44.6214 237.901 48.688C237.36 49.3229 236.818 49.9548 236.277 50.5897C232.746 54.744 229.212 58.8954 225.682 63.0498C224.95 63.9099 224.218 64.7701 223.487 65.6302C220.033 69.7143 216.577 73.8014 213.123 77.8855C212.249 78.7223 211.41 79.5824 210.788 80.6298C210.431 80.8375 210.17 81.1242 210.048 81.5221C209.908 81.6976 209.768 81.8731 209.631 82.0487C209.125 82.3325 208.78 82.7537 208.56 83.2774C208.421 83.453 208.281 83.6285 208.144 83.8011C207.546 84.1902 207.091 84.6963 206.793 85.3371C206.707 85.378 206.66 85.4482 206.651 85.5418C206.056 85.9339 205.61 86.4546 205.306 87.0924C205.22 87.1334 205.172 87.2036 205.163 87.2972C204.571 87.6922 204.11 88.1983 203.819 88.8478C203.733 88.8829 203.685 88.9443 203.673 89.0321C202.805 89.9624 201.906 89.8074 200.943 89.1579C198.152 87.2709 195.029 86.124 191.802 85.2142C192.632 84.7578 193.477 84.3394 194.419 84.1493C196.543 84.9421 198.67 85.7232 200.651 86.832C201.407 87.5049 202.007 88.131 203.016 86.9403C217.85 69.4422 232.722 51.9764 247.595 34.5135C249.606 32.1525 251.78 29.9671 254.859 28.9343C258.208 28.9285 259.788 30.5463 259.538 33.8377C259.315 36.7603 258.128 39.3817 256.685 41.8977C246.726 59.2524 236.762 76.607 226.8 93.9617C226.556 94.3859 226.336 94.8189 226.104 95.249H226.101Z" fill="#3E444A"/>
<path d="M254.856 28.9373C251.777 29.9671 249.603 32.1525 247.592 34.5164C232.716 51.9793 217.844 69.4452 203.013 86.9432C202.004 88.1339 201.404 87.5078 200.648 86.835C201.668 85.0386 203.203 83.6402 204.515 82.075C210.402 75.0653 216.339 68.0965 222.276 61.1277C227.199 55.3496 232.133 49.5832 237.086 43.8344C240.855 39.4577 244.341 34.8411 248.514 30.8009C249.636 29.7155 250.882 28.8905 252.396 28.4721C253.294 28.2234 254.154 28.1795 254.859 28.9343L254.856 28.9373Z" fill="#97E8EC"/>
<path d="M180.207 252.339C183.741 257.453 186.909 262.705 185.802 269.276C185.41 271.61 184.333 273.769 182.063 274.776C172.235 279.138 165.501 286.891 158.966 294.878C157.416 296.77 155.914 298.707 154.469 300.679C152.083 303.935 149.195 306.589 145.471 308.309C144.986 308.534 144.554 308.877 144.099 309.166C143.76 309.111 143.409 309.087 143.082 308.991C142.811 308.909 142.478 308.821 142.44 308.47C142.401 308.116 142.689 307.952 142.957 307.838C148.689 305.398 151.988 300.518 155.599 295.881C160.739 289.278 166.161 282.906 173.065 277.947C174.912 276.622 176.929 275.601 178.976 274.624C182.545 272.921 184.157 270.019 184.369 266.224C184.618 261.763 182.863 257.875 180.829 254.062C180.534 253.512 180.032 253.047 180.21 252.336L180.207 252.339Z" fill="#97E8EC"/>
<path d="M194.413 84.1492C193.471 84.3365 192.626 84.7578 191.796 85.2142C187.849 86.8935 183.893 88.5611 179.951 90.255C169.032 94.9476 158.115 99.652 147.196 104.351C147.13 103.523 147.478 103.002 148.276 102.66C164.752 95.6059 181.224 88.5377 197.694 81.4723C198.215 81.5221 198.735 81.5718 199.678 81.6625C197.685 82.6045 196.049 83.3769 194.411 84.1492H194.413Z" fill="#21A9AC"/>
<path d="M156.931 218.042C156.027 217.068 154.775 216.626 153.665 215.965C153.106 215.632 152.987 215.863 153.13 216.395C151.027 214.026 147.996 213.054 145.396 211.436C145.033 211.211 144.525 211.144 144.474 210.591C145.358 210.48 146.131 210.804 146.869 211.208C162.077 219.567 177.286 227.934 192.495 236.292C193.048 236.597 193.628 236.86 194.196 237.141C193.265 237.147 192.325 237.319 191.442 236.831C187.313 234.54 183.179 232.264 179.047 229.982C172.075 226.132 165.103 222.279 158.13 218.432C157.83 218.268 157.523 218.078 157.161 218.276L157.131 218.238C157.146 218.159 157.161 218.08 157.175 218.004C157.095 218.016 157.015 218.031 156.934 218.042H156.931Z" fill="#F0F0F0"/>
<path d="M102.272 186.82C101.064 187.016 99.9158 186.633 98.7468 186.461C98.6398 185.586 97.8812 185.331 97.2536 184.986C89.9988 181.016 82.7439 177.049 75.4771 173.099C73.1748 171.847 72.7584 169.79 73.2046 167.301C73.4693 165.817 73.5764 164.08 75.2213 163.167C74.6294 164.966 74.0345 166.754 74.2278 168.699C74.4182 170.583 75.26 171.923 76.9971 172.865C85.1622 177.292 93.2916 181.785 101.43 186.262C101.721 186.422 101.977 186.648 102.248 186.844L102.275 186.82H102.272Z" fill="#F0F0F0"/>
<path d="M131.443 111.366C128.358 118.256 126.276 125.435 125.062 132.863C125.048 132.951 124.961 133.027 124.911 133.109C125.101 128.999 125.889 124.973 126.728 120.959C127.332 118.069 128.147 115.234 129.117 112.44C129.248 112.065 129.387 111.711 129.218 111.319L129.265 111.354C129.637 111.316 129.456 111.167 129.334 111.027C129.471 110.807 129.682 110.787 129.914 110.816C130.042 112.03 130.851 111.41 131.446 111.366H131.443Z" fill="#97E8EC"/>
<path d="M74.3795 183.67C69.8285 186.417 68.5316 194.488 71.6995 198.807C70.8755 198.979 70.3937 198.47 69.9862 197.911C67.318 194.266 68.1717 187.525 71.6846 184.609C72.4461 183.977 73.3087 183.5 74.3825 183.67H74.3795Z" fill="#F0F0F0"/>
<path d="M179.282 250.9C179.809 251.245 180.127 251.719 180.216 252.339C179.342 252.213 179.297 251.564 179.282 250.9Z" fill="#97E8EC"/>
<path d="M178.699 250.013C179.098 250.183 179.276 250.493 179.288 250.909C178.669 250.879 178.634 250.479 178.699 250.013Z" fill="#97E8EC"/>
<path d="M178.098 249.139C178.491 249.305 178.69 249.604 178.705 250.022C178.086 250.005 178.045 249.604 178.098 249.139Z" fill="#97E8EC"/>
<path d="M177.5 248.264C177.786 248.337 177.866 248.551 177.875 248.808C177.509 248.788 177.471 248.551 177.5 248.264Z" fill="#97E8EC"/>
<path d="M176.299 246.52C176.587 246.599 176.664 246.813 176.667 247.076C176.334 247.026 176.269 246.804 176.299 246.52Z" fill="#97E8EC"/>
<path d="M176.902 247.389C177.188 247.462 177.271 247.67 177.283 247.927C176.917 247.91 176.876 247.673 176.902 247.389Z" fill="#97E8EC"/>
<path d="M176.644 247.053C176.852 247.079 176.911 247.219 176.911 247.401C176.715 247.363 176.635 247.243 176.644 247.053Z" fill="#97E8EC"/>
<path d="M177.265 247.916C177.468 247.957 177.518 248.097 177.509 248.276C177.307 248.235 177.23 248.112 177.265 247.916Z" fill="#97E8EC"/>
<path d="M175.957 246.222C176.224 246.16 176.281 246.324 176.305 246.529C176.189 246.427 176.073 246.324 175.957 246.222Z" fill="#97E8EC"/>
<path d="M177.86 248.793C178.065 248.831 178.125 248.966 178.107 249.15C177.902 249.112 177.825 248.989 177.86 248.793Z" fill="#97E8EC"/>
<path d="M232.49 172.698C232.306 172.748 232.11 172.777 231.937 172.856C231.42 173.091 230.869 173.225 230.521 172.684C230.129 172.078 230.471 171.616 231.033 171.285C231.497 171.253 231.821 170.946 232.184 170.712C232.502 170.809 232.758 170.642 233.029 170.525C241.732 166.765 249.621 161.818 256.126 154.931C259.582 151.271 262.482 147.228 264.068 142.404C264.431 141.649 264.829 140.9 264.618 140.02C264.681 140.008 264.74 139.996 264.8 139.984C264.773 139.973 264.734 139.941 264.725 139.949C264.69 139.979 264.666 140.017 264.636 140.052C264.199 139.999 263.901 140.306 263.568 140.488C259.469 142.732 255.308 144.858 251.007 146.693C243.663 149.826 236.301 152.962 228.043 152.816C227.502 152.597 226.854 152.447 227.047 151.646C227.172 151.128 227.588 150.976 228.076 151.011C233.041 151.377 237.648 149.911 242.217 148.308C249.868 145.622 257.09 142.032 264.178 138.159C264.925 137.752 265.734 136.883 266.584 137.539C267.328 138.112 266.7 139.095 266.68 139.897C266.677 140.04 266.632 140.183 266.608 140.327C266.144 142.056 265.612 143.758 264.85 145.391C261.635 152.281 256.539 157.646 250.605 162.301C245.09 166.628 238.96 169.954 232.49 172.696V172.698Z" fill="#3E444A"/>
<path d="M232.49 172.698C238.957 169.957 245.088 166.631 250.605 162.304C256.539 157.649 261.635 152.281 264.85 145.394C265.612 143.761 266.144 142.056 266.608 140.33C267.489 140.643 267.691 141.155 267.48 142.103C266.284 147.421 263.553 151.944 260.073 156.064C254.02 163.231 246.316 168.281 237.961 172.456C236.815 173.026 235.62 173.503 234.427 173.971C232.675 174.659 232.666 174.641 232.496 172.701L232.49 172.698Z" fill="#97E8EC"/>
<path d="M228.04 152.816C236.298 152.962 243.657 149.826 251.004 146.693C255.305 144.858 259.466 142.732 263.565 140.488C263.898 140.306 264.196 139.999 264.633 140.052L264.615 140.02C264.826 140.903 264.428 141.649 264.065 142.404C260.311 144.358 256.548 146.298 252.661 147.986C245.519 151.087 238.359 154.127 230.367 154.34C229.709 154.358 229.48 154.627 229.584 155.244C230.453 160.399 231.318 165.557 232.184 170.712C231.821 170.943 231.5 171.253 231.033 171.285C230.438 167.807 229.819 164.331 229.251 160.85C228.817 158.179 228.442 155.496 228.043 152.816H228.04Z" fill="#FEFEFE"/>
<path d="M147.199 104.353C158.115 99.6549 169.032 94.9506 179.954 90.2579C183.896 88.564 187.849 86.8964 191.799 85.2171C195.026 86.127 198.15 87.2767 200.94 89.1608C201.903 89.8132 202.802 89.9653 203.67 89.0379C203.855 89.7167 203.45 90.1672 203.001 90.5505C201.871 91.513 201.96 92.7037 202.421 93.8798C202.757 94.7312 203.212 95.5737 203.786 96.2846C205.526 98.4437 207.632 100.091 210.648 100.34C209.518 98.985 208.159 97.8762 206.954 96.6182C205.172 94.7546 205.19 94.0612 206.743 92.0513C207.011 91.7032 207.29 91.3638 207.549 91.0098C209.39 88.4996 211.579 86.2469 213.204 83.5788C215.307 85.3575 217.424 87.11 220.792 87.4669C218.501 85.5038 216.49 83.8625 215.247 81.5513C215.381 81.2939 215.476 81.0072 215.655 80.7819C218.216 77.5374 220.765 74.2812 223.373 71.0747C224.129 70.1473 224.608 68.9712 225.744 68.3627C227.55 69.5359 229.102 71.183 231.753 71.4785C229.932 69.6441 228.299 68.0321 227.16 66.0339C228.668 64.6355 229.7 62.8626 231.015 61.3091C233.365 58.5385 235.37 55.4988 237.889 52.8628C239.254 53.7142 240.367 55.0805 242.532 55.06C241.093 53.5972 239.87 52.3684 239.031 50.8442C239.293 50.6248 239.602 50.4463 239.808 50.1859C243.104 46.0111 246.384 41.8245 249.671 37.6409C250.855 38.4367 251.884 39.487 253.369 39.7795C253.398 40.353 253.062 40.7889 252.795 41.2541C248.66 48.4452 244.528 55.6422 240.394 62.8333C235.869 70.7032 231.318 78.5584 226.83 86.4488C224.831 89.9653 222.657 93.3883 220.878 97.0248C219.173 99.3975 217.969 102.063 216.404 104.517C216.241 104.772 216.181 105.038 216.348 105.336C217.496 107.402 217.778 109.745 218.492 111.948C218.531 113.827 218.739 115.74 218.153 117.554C217.749 118.806 217.897 119.602 219.257 119.973C217.996 124.362 215.25 127.805 211.675 130.503C202.174 137.664 191.472 140.85 179.478 139.285C178.735 139.189 178.217 139.271 177.932 139.996C174.487 140.373 172.619 142.451 172.102 145.938C171.495 150.04 172.235 153.998 173.226 157.889C176.549 170.972 182.144 183.002 190.734 193.611C192.572 195.881 194.515 198.09 195.981 200.635C191.344 200.234 186.772 199.374 182.17 198.719C172.47 197.338 162.779 195.884 153.085 194.459C152.743 194.409 152.398 194.36 152.068 194.272C149.906 193.69 149.864 193.47 150.581 191.443C152.761 185.264 153.222 178.994 151.348 172.646C151.223 172.227 151.078 171.809 150.905 171.408C150.685 170.902 150.411 170.367 149.718 170.589C148.966 170.832 149.001 171.408 149.233 172.026C151.39 177.742 151.125 183.526 149.454 189.254C148.418 192.809 146.649 196.109 145.016 199.438C142.651 204.26 140.176 209.037 138.992 214.321C138.489 216.559 138.257 218.824 138.37 221.249C137.154 220.778 137.008 219.669 136.437 218.9C136.422 218.613 136.461 218.306 136.116 218.159L136.137 218.186C136.032 218.08 135.928 217.975 135.824 217.87L135.836 217.884C135.863 217.618 135.86 217.367 135.524 217.285L135.533 217.299C135.622 216.948 135.512 216.632 135.36 216.316C132.368 210.082 130.354 203.558 129.42 196.724C128.861 192.616 128.727 188.503 129.486 184.398C130.586 178.441 132.642 172.777 134.971 167.201C135.916 164.934 136.94 162.696 138.097 160.063C136.11 161.251 134.911 162.678 133.457 163.793C132.603 163.474 132.07 163.831 131.615 164.542C130.812 165.8 129.947 167.02 128.965 168.465C127.853 165.039 127.201 161.771 126.648 158.483C124.667 146.702 125.758 135.11 128.858 123.633C129.129 122.627 129.622 122.08 130.556 121.658C135.574 119.406 140.045 116.422 143.451 112.068C145.254 109.763 146.55 107.212 147.193 104.359L147.199 104.353ZM171.313 125.201C171.352 123.191 169.77 121.556 167.714 121.477C165.653 121.398 163.883 123.057 163.847 125.099C163.812 127.147 165.495 128.817 167.604 128.823C169.621 128.829 171.275 127.211 171.31 125.201H171.313ZM136.437 131.392C136.458 132.896 137.365 133.92 138.686 133.928C140.256 133.937 141.485 132.55 141.479 130.78C141.473 129.283 140.399 128.045 139.147 128.095C137.71 128.153 136.413 129.73 136.437 131.392ZM133.031 141.193C131.612 141.166 130.562 142.304 130.547 143.878C130.533 145.446 131.77 146.918 133.117 146.936C134.349 146.953 135.524 145.566 135.524 144.098C135.524 142.541 134.385 141.216 133.028 141.193H133.031Z" fill="#97E8EC"/>
<path d="M195.987 200.629C194.521 198.084 192.578 195.875 190.74 193.605C182.147 182.997 176.551 170.967 173.232 157.883C172.244 153.992 171.501 150.034 172.108 145.932C172.622 142.448 174.493 140.368 177.938 139.99C178.244 141.231 179.368 141.046 180.225 141.178C185.044 141.915 189.806 141.433 194.509 140.335C202.028 138.58 208.929 135.581 214.628 130.286C216.954 128.124 218.858 125.643 220.122 122.747C220.545 121.781 220.94 121.866 221.601 122.425C223.177 123.765 223.674 125.587 223.876 127.501C224.206 130.614 223.968 133.721 223.635 136.825C222.951 143.17 223.472 149.419 224.822 155.669C226.277 162.392 226.729 169.249 226.901 176.119C227.133 185.276 226.895 194.418 225.661 203.505C223.567 218.938 219.786 233.861 211.701 247.456C211.529 247.746 211.324 248.012 211.133 248.29C210.175 248.349 209.819 249.203 209.209 249.715C208.694 250.148 208.29 250.733 207.489 250.628C211.398 240.371 211.701 230.04 208.126 219.634C212.487 218.192 213.846 212.683 213.614 209.254C213.525 207.946 213.278 206.665 212.656 205.468C211.785 203.795 210.5 202.864 208.54 202.575C204.351 201.957 200.131 201.533 195.99 200.626L195.987 200.629Z" fill="#FEFEFE"/>
<path d="M208.126 219.637C211.704 230.043 211.398 240.374 207.489 250.631C207.008 251.503 206.526 252.377 206.044 253.249C203.983 256.251 201.814 259.188 199.887 262.269C197.754 265.671 198.456 269.75 201.035 272.254L201.005 272.228C201.106 272.336 201.21 272.444 201.311 272.552L201.297 272.538C201.401 272.789 201.505 273.044 201.609 273.295C202.534 273.74 202.846 274.708 203.438 275.428C207.421 280.273 211.752 284.813 215.979 289.448C216.371 289.878 217.02 290.208 216.907 290.957C217.062 291.063 217.216 291.171 217.371 291.276L217.356 291.256C217.246 292.046 217.79 292.61 218.076 293.26C219.173 295.77 220.345 298.257 220.595 301.03C218.355 299.096 215.634 298.096 212.885 297.119C206.993 295.024 201.07 292.996 195.475 290.167C194.104 289.474 192.831 288.652 191.588 287.771C190.898 287.283 190.252 287.192 189.592 287.789C188.902 287.338 188.378 286.496 187.367 287.508C184.874 290.006 182.206 292.326 179.434 294.526C172.334 300.158 164.704 304.866 155.887 307.458C153.49 308.163 151.069 308.915 148.502 308.771C151.964 306.559 154.549 303.526 156.988 300.296C161.807 293.915 166.866 287.73 173.021 282.505C175.469 280.425 178.14 278.69 181.046 277.283C186.724 274.533 189.012 269.451 187.486 263.337C186.239 258.331 183.669 253.972 180.814 249.738C174.127 239.824 166.643 230.491 159.225 221.111C158.499 220.196 157.66 219.353 157.164 218.276C157.526 218.08 157.836 218.268 158.133 218.432C165.105 222.279 172.078 226.132 179.05 229.982C183.182 232.264 187.316 234.54 191.445 236.831C192.328 237.322 193.268 237.15 194.199 237.141C196.665 237.343 198.622 236.333 200.267 234.634C202.576 232.252 203.953 229.455 203.95 226.123C203.95 223.908 203.019 222.226 200.88 221.211C199.113 220.371 197.439 219.341 195.761 218.268C199.934 218.411 203.968 219.581 208.129 219.634L208.126 219.637Z" fill="#97E8EC"/>
<path d="M155.525 60.8585C158.431 61.3091 160.718 62.9532 162.886 64.7145C167.667 68.5938 171.147 73.462 173.732 78.9768C173.857 79.243 173.987 79.5034 174.13 79.7608C174.362 80.1763 174.698 80.5127 175.204 80.2991C175.796 80.0505 175.722 79.5824 175.507 79.0675C174.526 76.7153 173.232 74.5211 171.831 72.4C169.023 68.155 165.644 64.4336 161.283 61.6543C161.087 61.5285 160.905 61.3763 160.54 61.1072C161.938 60.9638 163.011 61.3208 164.082 61.5899C174.347 64.1703 181.804 70.1385 186.37 79.5531C186.65 80.1265 186.965 80.3489 187.575 80.4103C188.557 80.5098 189.526 80.7029 190.502 80.8521C191.454 80.9984 192.441 80.9633 193.581 81.4489C190.478 82.7888 187.551 84.0615 184.621 85.3195C173.285 90.1877 161.941 95.0383 150.614 99.927C143.954 102.803 137.323 105.743 130.672 108.645C130.179 108.862 129.646 108.996 129.132 109.166C122.335 95.5445 124.914 80.3898 135.8 69.8577C137.639 68.0789 139.804 66.7244 141.842 65.1972C145.64 65.5746 148.778 67.3797 151.625 69.7114C156.39 73.6083 159.852 78.4853 162.44 83.9883C162.586 84.2984 162.732 84.6115 162.925 84.8894C163.163 85.2288 163.496 85.4658 163.936 85.2376C164.344 85.024 164.463 84.6612 164.276 84.2429C163.895 83.3974 163.535 82.5402 163.098 81.7239C160.043 76.0131 156.194 70.9518 150.804 67.1281C148.894 65.7735 146.744 64.9427 144.626 64.0182C145.503 63.5998 146.381 63.1785 147.258 62.7602C150.947 62.9357 153.957 64.6735 156.753 66.8297C161.685 70.633 165.171 75.5538 167.902 81.0393C168.074 81.3904 168.238 81.7444 168.419 82.0896C168.642 82.5168 168.821 83.0668 169.49 82.8035C170.18 82.5314 170.097 82.0223 169.835 81.4752C166.242 73.9915 161.566 67.4002 154.055 63.199C152.99 62.6022 151.803 62.216 150.673 61.7333C152.291 61.4407 153.906 61.1482 155.525 60.8556V60.8585Z" fill="#21A9AC"/>
<path d="M205.589 203.669C201.93 208.408 201.368 212.103 203.486 217.659C183.185 214.681 163.035 211.726 142.675 208.742C143.647 206.556 144.549 204.468 145.509 202.405C146.476 200.331 147.526 198.292 148.487 196.214C148.772 195.594 149.04 195.366 149.808 195.48C163.16 197.475 176.516 199.433 189.874 201.39C195.047 202.148 200.223 202.891 205.586 203.669H205.589Z" fill="#F0F0F0"/>
<path d="M127.784 206.53C125.241 206.17 122.707 205.819 120.172 205.451C108.474 203.736 96.7747 202.016 85.0759 200.299C81.7474 199.81 78.4219 199.304 75.0904 198.836C73.0261 198.546 72.1814 197.107 71.7857 195.363C71.0629 192.177 71.5299 189.164 73.5229 186.475C74.5074 185.147 75.7805 184.591 77.5147 184.849C92.6848 187.107 107.861 189.325 123.037 191.542C123.626 191.627 124.111 191.735 124.179 192.429C124.646 197.171 126.118 201.656 127.814 206.083C127.847 206.164 127.805 206.273 127.784 206.53Z" fill="#F0F0F0"/>
<path d="M124.25 181.876C124.111 184.401 123.736 186.917 123.956 189.453C124.015 190.132 123.626 190.141 123.126 190.065C117.891 189.284 112.656 188.514 107.424 187.707C106.959 187.634 106.522 187.332 106.094 187.098C96.8967 182.049 87.7113 176.976 78.4963 171.952C76.2505 170.727 75.376 170.264 75.8132 166.774C76.2088 163.638 77.8924 161.142 80.5814 159.355C81.0692 159.03 81.5868 158.726 82.2204 158.752C82.3274 159.29 82.6963 159.674 83.193 159.75C84.2252 159.914 84.9331 160.601 85.7541 161.11C86.5394 161.596 87.4109 161.964 88.1932 162.397C89.2135 162.962 90.439 163.19 91.2897 163.875C92.9852 165.238 94.9751 166.087 96.8342 167.111C97.9824 167.743 98.9729 168.673 100.178 169.1C102.721 170.007 105.083 171.329 107.239 172.792C109.857 174.565 112.801 175.653 115.455 177.324C117.721 178.749 120.122 180.004 122.43 181.388C123.001 181.73 123.578 181.938 124.247 181.876H124.25Z" fill="#F0F0F0"/>
<path d="M190.731 233.519C183.604 229.631 176.471 225.751 169.35 221.854C163.737 218.783 158.139 215.69 152.535 212.604C152.119 212.376 151.72 212.121 150.938 211.659C153.326 211.644 155.221 212.095 157.122 212.37C167.536 213.876 177.938 215.474 188.357 216.96C192.046 217.487 194.648 220.052 198.007 221.354C193.111 224.072 190.835 228.019 190.939 233.308C190.871 233.378 190.802 233.452 190.734 233.522L190.731 233.519Z" fill="#F0F0F0"/>
<path d="M133.462 163.787C134.917 162.672 136.116 161.245 138.103 160.057C136.949 162.69 135.925 164.925 134.977 167.195C132.647 172.772 130.592 178.436 129.492 184.392C128.733 188.497 128.867 192.61 129.426 196.718C130.357 203.552 132.374 210.079 135.366 216.31C135.518 216.626 135.628 216.939 135.539 217.293C133.599 214.772 132.308 211.902 131.023 209.034C128.325 203.011 126.112 196.852 125.738 190.194C125.235 181.276 127.668 173.193 132.841 165.882C133.284 165.256 133.894 164.668 133.46 163.784L133.462 163.787Z" fill="#FEFEFE"/>
<path d="M141.842 65.2001C139.807 66.7244 137.642 68.0789 135.8 69.8606C124.914 80.3957 122.335 95.5474 129.132 109.169C128.54 109.737 128.076 109.95 127.6 108.973C124.691 103.04 122.951 96.8669 123.667 90.217C124.816 79.5795 129.982 71.3439 139.111 65.519C139.977 64.9661 140.908 65.1211 141.839 65.1972L141.842 65.2001Z" fill="#FEFEFE"/>
<path d="M130.119 119.783C130.958 116.544 132.496 113.572 133.787 110.506L133.769 110.518C133.849 110.418 133.929 110.316 134.01 110.216C136.116 109.268 138.204 108.28 140.334 107.384C141.901 106.723 143.347 105.743 145.102 105.541C144.605 108.16 143.079 110.24 141.375 112.179C138.332 115.638 134.584 118.186 130.348 120.049L130.122 119.786L130.119 119.783Z" fill="#97E8EC"/>
<path d="M124.25 181.876C123.581 181.938 123.004 181.73 122.433 181.388C120.122 180.007 117.721 178.752 115.458 177.324C112.804 175.653 109.86 174.568 107.242 172.792C105.086 171.329 102.724 170.007 100.181 169.1C98.9788 168.673 97.9853 167.743 96.8372 167.111C94.9781 166.087 92.9881 165.238 91.2927 163.875C90.4419 163.19 89.2164 162.962 88.1962 162.397C87.4139 161.964 86.5394 161.596 85.7571 161.11C84.9361 160.601 84.2282 159.914 83.196 159.75C82.6993 159.671 82.3334 159.288 82.2233 158.752C83.431 158.106 84.3174 158.972 85.2157 159.457C91.019 162.596 96.7896 165.794 102.575 168.968C109.437 172.737 116.299 176.505 123.168 180.267C123.825 180.627 124.539 180.917 124.253 181.876H124.25Z" fill="#F1F1F1"/>
<path d="M212.165 209.994C212.049 212.525 211.499 214.912 209.72 216.863C207.942 218.818 205.83 218.546 204.601 216.229C202.93 213.078 203.834 207.639 206.434 205.202C208.123 203.619 209.887 203.83 211.109 205.79C211.91 207.074 212.082 208.525 212.165 209.994ZM204.83 212.288C204.875 212.607 204.922 213.236 205.062 213.847C205.327 214.991 205.839 216 207.156 216.202C208.474 216.404 209.286 215.6 209.875 214.581C211.05 212.554 211.362 210.386 210.72 208.133C210.446 207.171 209.917 206.343 208.795 206.141C207.677 205.942 206.886 206.492 206.279 207.326C205.27 208.71 204.866 210.29 204.83 212.291V212.288Z" fill="#F1F1F1"/>
<path d="M200.389 231.96C199.405 233.604 198.075 234.859 196.204 235.467C194.651 235.971 193.283 235.327 192.748 233.852C191.299 229.853 195.481 223.151 199.211 222.849C200.47 223.806 201.588 224.833 201.145 226.632C200.538 224.426 199.048 223.785 197.195 225.096C194.934 226.691 193.691 228.899 193.816 231.699C193.896 233.513 195.324 234.347 197.04 233.653C197.932 233.294 198.605 232.665 199.217 231.948C199.988 231.047 200.386 229.941 200.972 228.943C201.302 230.046 200.36 230.915 200.389 231.962V231.96Z" fill="#F0F0F0"/>
<path d="M145.102 105.538C143.35 105.74 141.904 106.723 140.334 107.381C138.204 108.277 136.116 109.266 134.01 110.213C133.929 110.313 133.849 110.415 133.769 110.515L133.787 110.503C132.85 110.383 132.16 110.91 131.44 111.36C130.845 111.404 130.036 112.024 129.908 110.81C134.831 108.628 139.751 106.445 144.673 104.266C144.932 104.152 145.256 103.915 145.477 104.181C145.768 104.535 145.352 104.892 145.322 105.26C145.242 105.357 145.158 105.451 145.078 105.544L145.099 105.535L145.102 105.538Z" fill="#21A9AC"/>
<path d="M201.145 226.632C201.588 224.833 200.47 223.806 199.211 222.849C200.907 222.726 201.799 223.238 202.195 224.751C202.897 227.448 201.999 229.8 200.392 231.96C200.36 230.912 201.302 230.043 200.975 228.94L200.966 228.972C201.499 228.654 201.299 228.232 201.13 227.817C201.136 227.422 201.142 227.027 201.148 226.632H201.145Z" fill="#97E8EC"/>
<path d="M147.261 62.7602C146.384 63.1785 145.506 63.5998 144.629 64.0182C144.07 63.9538 143.442 64.1645 142.933 63.5618C144.337 62.9006 145.7 62.3594 147.261 62.7602Z" fill="#F0F0F0"/>
<path d="M155.525 60.8585C153.906 61.1511 152.291 61.4436 150.673 61.7362C150.337 61.6865 150.004 61.6338 149.266 61.5226C151.568 60.8995 153.514 60.6069 155.525 60.8585Z" fill="#F0F0F0"/>
<path d="M102.245 186.847L102.48 186.937L102.382 187.019C102.346 186.955 102.307 186.888 102.272 186.823L102.245 186.847Z" fill="#F0F0F0"/>
<path d="M135.53 217.279C135.866 217.361 135.869 217.612 135.842 217.879C135.548 217.773 135.467 217.563 135.53 217.279Z" fill="#FEFEFE"/>
<path d="M136.122 218.154C136.467 218.303 136.428 218.61 136.443 218.894C136.211 218.698 135.97 218.508 136.122 218.154Z" fill="#FEFEFE"/>
<path d="M190.936 233.302C190.984 233.373 191.091 233.472 191.073 233.507C190.978 233.683 190.85 233.595 190.731 233.516C190.799 233.446 190.868 233.373 190.936 233.302Z" fill="#F0F0F0"/>
<path d="M135.83 217.864C135.934 217.969 136.038 218.075 136.143 218.18C135.839 218.262 135.854 218.045 135.83 217.864Z" fill="#FEFEFE"/>
<path d="M130.348 120.046C130.223 120.12 130.08 120.196 130.003 120.011C129.982 119.962 130.08 119.862 130.122 119.783C130.196 119.871 130.274 119.959 130.348 120.046Z" fill="#97E8EC"/>
<path d="M150.985 211.577C150.947 211.606 150.908 211.662 150.869 211.659C150.834 211.659 150.798 211.597 150.765 211.562C150.804 211.533 150.843 211.477 150.881 211.477C150.917 211.477 150.95 211.539 150.985 211.574V211.577Z" fill="#F0F0F0"/>
<path d="M129.331 111.027C129.453 111.164 129.634 111.316 129.262 111.354C129.161 111.22 129.191 111.112 129.331 111.027Z" fill="#FEFEFE"/>
<path d="M145.081 105.55C145.161 105.456 145.245 105.36 145.325 105.266C145.316 105.421 145.307 105.576 145.081 105.55Z" fill="#97E8EC"/>
<path d="M220.884 97.0219C222.663 93.3854 224.837 89.9624 226.836 86.4458C231.324 78.5555 235.875 70.7002 240.4 62.8304C244.534 55.6363 248.666 48.4423 252.8 41.2511C253.068 40.7859 253.404 40.353 253.375 39.7766L253.404 39.7591C253.743 39.7123 253.88 39.4577 254.008 39.1944C255.281 36.5819 256.406 33.9283 256.31 30.9471L256.34 30.8799C257.575 31.1578 257.765 32.1145 257.78 33.1209C257.812 35.476 256.997 37.638 255.87 39.642C251.825 46.8332 247.705 53.9833 243.603 61.1394C237.122 72.4498 230.631 83.7572 224.138 95.0617C223.802 95.6469 223.406 96.2027 223.04 96.7732C222.288 96.5743 221.66 97.3905 220.887 97.0219H220.884Z" fill="#FEFEFE"/>
<path d="M213.207 83.5758C211.582 86.244 209.393 88.4967 207.552 91.0069C207.293 91.3608 207.014 91.7002 206.746 92.0484C205.193 94.0553 205.175 94.7516 206.957 96.6152C208.159 97.8732 209.518 98.982 210.651 100.337C207.635 100.085 205.529 98.4408 203.789 96.2817C203.215 95.5708 202.757 94.7253 202.424 93.8769C201.96 92.7008 201.871 91.513 203.004 90.5475C203.453 90.1643 203.861 89.7137 203.673 89.035C203.685 88.9443 203.733 88.8829 203.819 88.8478C204.869 88.8361 205.208 88.2275 205.163 87.2972C205.172 87.2036 205.22 87.1333 205.306 87.0924C206.356 87.0807 206.695 86.4722 206.651 85.5418C206.66 85.4482 206.707 85.378 206.793 85.337C207.838 85.3283 208.177 84.7227 208.144 83.8011C208.284 83.6256 208.423 83.45 208.56 83.2745C209.5 83.3535 209.688 82.8035 209.628 82.0457C209.768 81.8702 209.908 81.6947 210.045 81.5191C210.488 81.6771 210.785 81.3524 211.133 81.2002C211.823 81.9931 212.513 82.783 213.204 83.5758H213.207Z" fill="#FEFEFE"/>
<path d="M148.496 308.771C151.063 308.915 153.484 308.163 155.881 307.458C164.695 304.866 172.328 300.158 179.428 294.526C182.203 292.326 184.868 290.003 187.361 287.508C188.372 286.496 188.896 287.338 189.586 287.789C179.615 297.648 168.538 305.74 154.436 308.95C152.853 309.31 151.217 309.459 149.596 309.631C148.775 309.719 147.937 309.646 146.675 309.646C147.508 309.245 148.002 309.008 148.493 308.771H148.496Z" fill="#FEFEFE"/>
<path d="M225.747 68.3627C224.611 68.9712 224.129 70.1473 223.376 71.0747C220.768 74.2812 218.219 77.5374 215.658 80.7819C215.479 81.0072 215.384 81.2939 215.253 81.5513C214.158 80.5478 213.584 79.2489 213.123 77.8885C216.577 73.8043 220.033 69.7173 223.486 65.6331C224.248 66.5371 225.161 67.3212 225.747 68.3627Z" fill="#F1F1F1"/>
<path d="M237.895 52.8629C235.376 55.4988 233.368 58.5385 231.021 61.3091C229.706 62.8596 228.674 64.6355 227.166 66.0339C226.431 65.1562 225.899 64.182 225.682 63.0527C229.212 58.8984 232.746 54.7469 236.28 50.5926C236.818 51.3503 237.357 52.1051 237.898 52.8629H237.895Z" fill="#F1F1F1"/>
<path d="M249.677 37.638C246.393 41.8216 243.109 46.0052 239.814 50.183C239.608 50.4434 239.299 50.6247 239.037 50.8412C238.416 50.2473 238.3 49.396 237.901 48.6909C241.354 44.6273 244.808 40.5636 248.261 36.497C248.975 36.5877 249.314 37.126 249.677 37.638Z" fill="#F1F1F1"/>
<path d="M201.035 272.254C198.456 269.75 197.754 265.674 199.887 262.269C201.817 259.188 203.983 256.251 206.044 253.249C206.552 253.548 207.064 253.843 207.573 254.141C206.21 256.628 204.568 258.942 202.876 261.213C200.428 264.498 199.443 267.959 201.115 271.879C201.157 271.976 201.065 272.128 201.035 272.257V272.254Z" fill="#FEFEFE"/>
<path d="M220.884 97.0219C221.657 97.3905 222.285 96.5714 223.037 96.7732C221.47 99.5643 219.935 102.373 218.32 105.135C217.793 106.036 217.775 106.799 218.236 107.712C218.956 109.143 219.438 110.667 219.643 112.261C219.26 112.156 218.879 112.051 218.495 111.942C217.781 109.739 217.502 107.396 216.351 105.331C216.184 105.032 216.246 104.766 216.407 104.511C217.972 102.057 219.176 99.3946 220.881 97.019L220.884 97.0219Z" fill="#F0F0F0"/>
<path d="M213.12 77.8885C213.581 79.2489 214.155 80.5478 215.25 81.5513C216.493 83.8625 218.504 85.5038 220.795 87.4669C217.424 87.11 215.307 85.3575 213.207 83.5788C212.516 82.7859 211.826 81.996 211.136 81.2032C211.02 81.013 210.904 80.8228 210.788 80.6297C211.407 79.5853 212.249 78.7223 213.123 77.8855L213.12 77.8885Z" fill="#21A9AC"/>
<path d="M225.679 63.0527C225.896 64.1791 226.425 65.1562 227.163 66.0339C228.302 68.0321 229.935 69.6441 231.756 71.4785C229.105 71.1859 227.553 69.5388 225.747 68.3627C225.158 67.3212 224.248 66.5371 223.487 65.6331C224.218 64.773 224.95 63.9129 225.682 63.0527H225.679Z" fill="#21A9AC"/>
<path d="M237.901 48.6909C238.3 49.3989 238.419 50.2474 239.037 50.8413C239.876 52.3655 241.102 53.5943 242.538 55.0571C240.373 55.0805 239.257 53.7113 237.895 52.8599C237.357 52.1022 236.818 51.3474 236.277 50.5897C236.818 49.9548 237.36 49.3229 237.898 48.688L237.901 48.6909Z" fill="#21A9AC"/>
<path d="M218.495 111.945C218.879 112.051 219.26 112.156 219.643 112.264C220.238 114.868 220.304 117.446 219.26 119.97C217.9 119.599 217.752 118.803 218.156 117.551C218.742 115.737 218.534 113.824 218.495 111.945Z" fill="#FEFEFE"/>
<path d="M220.592 301.03C220.342 298.254 219.173 295.77 218.073 293.26C217.787 292.61 217.246 292.043 217.353 291.256C219.861 294.594 221.601 298.251 222.085 302.42L222.109 302.388C221.434 302.121 221.068 301.519 220.592 301.033V301.03Z" fill="#F0F0F0"/>
<path d="M207.573 254.141C207.064 253.843 206.552 253.547 206.044 253.249C206.526 252.377 207.008 251.503 207.489 250.631C208.29 250.736 208.694 250.151 209.209 249.718C209.819 249.206 210.175 248.352 211.133 248.293C210.113 250.341 208.926 252.289 207.573 254.144V254.141Z" fill="#F0F0F0"/>
<path d="M250.052 34.4403C251.129 33.3081 252.244 32.2081 253.615 31.424C254.439 30.953 255.29 30.3679 256.34 30.8799L256.31 30.9471C253.767 32.0208 252.304 34.139 250.912 36.3302C250.207 35.8856 249.963 35.2361 250.055 34.4403H250.052Z" fill="#F1F1F1"/>
<path d="M250.052 34.4403C249.96 35.2361 250.204 35.8856 250.909 36.3303C251.346 37.7521 252.836 38.4309 253.401 39.762L253.372 39.7796C251.89 39.487 250.858 38.4367 249.674 37.6409C249.311 37.129 248.972 36.5907 248.258 36.5C248.856 35.8124 249.454 35.1279 250.049 34.4403H250.052Z" fill="#21A9AC"/>
<path d="M208.141 83.8011C208.174 84.7227 207.835 85.3283 206.79 85.3371C207.088 84.6963 207.543 84.1873 208.141 83.8011Z" fill="#97E8EC"/>
<path d="M205.16 87.2972C205.205 88.2275 204.866 88.8361 203.816 88.8478C204.107 88.1983 204.566 87.6921 205.16 87.2972Z" fill="#97E8EC"/>
<path d="M206.648 85.5418C206.692 86.4722 206.353 87.0807 205.303 87.0924C205.607 86.4546 206.053 85.9368 206.648 85.5418Z" fill="#97E8EC"/>
<path d="M209.625 82.0457C209.685 82.8034 209.494 83.3564 208.557 83.2745C208.777 82.7508 209.12 82.3295 209.625 82.0457Z" fill="#97E8EC"/>
<path d="M210.785 80.6298C210.901 80.8199 211.017 81.0101 211.133 81.2032C210.782 81.3524 210.488 81.6801 210.045 81.5221C210.17 81.1271 210.428 80.8404 210.785 80.6327V80.6298Z" fill="#97E8EC"/>
<path d="M201.609 273.295C201.505 273.044 201.401 272.789 201.297 272.538C201.636 272.696 201.769 272.938 201.609 273.295Z" fill="#FEFEFE"/>
<path d="M156.931 218.042C157.012 218.031 157.092 218.016 157.172 218.004C157.158 218.083 157.143 218.159 157.128 218.238C157.062 218.174 156.997 218.107 156.931 218.042Z" fill="#97E8EC"/>
<path d="M201.311 272.552C201.21 272.444 201.109 272.336 201.005 272.228C201.359 272.108 201.288 272.371 201.311 272.552Z" fill="#FEFEFE"/>
<path d="M217.368 291.276C217.213 291.171 217.059 291.063 216.904 290.957C217.192 290.875 217.305 291.036 217.368 291.276Z" fill="#F0F0F0"/>
<path d="M222.085 302.42C222.154 302.426 222.222 302.434 222.291 302.44L222.267 302.572C222.213 302.51 222.16 302.446 222.106 302.385L222.083 302.417L222.085 302.42Z" fill="#F0F0F0"/>
<path d="M232.181 170.712C231.315 165.557 230.45 160.399 229.581 155.244C229.477 154.627 229.706 154.358 230.364 154.34C238.353 154.127 245.513 151.087 252.658 147.986C256.548 146.298 260.308 144.358 264.062 142.404C262.477 147.231 259.576 151.271 256.12 154.931C249.615 161.818 241.726 166.765 233.023 170.525C232.752 170.642 232.496 170.809 232.178 170.712H232.181Z" fill="#97E8EC"/>
<path d="M264.633 140.049C264.663 140.014 264.687 139.973 264.722 139.946C264.731 139.938 264.773 139.97 264.797 139.981C264.737 139.993 264.675 140.005 264.615 140.017L264.633 140.049Z" fill="#FEFEFE"/>
<path d="M171.313 125.201C171.275 127.214 169.621 128.829 167.607 128.823C165.498 128.817 163.815 127.147 163.85 125.099C163.886 123.057 165.656 121.398 167.717 121.477C169.773 121.556 171.355 123.191 171.316 125.201H171.313Z" fill="#3E444A"/>
<path d="M136.437 131.392C136.413 129.73 137.713 128.153 139.147 128.095C140.399 128.045 141.473 129.28 141.479 130.78C141.485 132.553 140.256 133.937 138.686 133.928C137.365 133.92 136.458 132.899 136.437 131.392Z" fill="#21A9AC"/>
<path d="M133.031 141.193C134.388 141.216 135.527 142.541 135.527 144.098C135.527 145.569 134.352 146.953 133.12 146.936C131.77 146.918 130.536 145.446 130.55 143.878C130.565 142.304 131.615 141.166 133.034 141.193H133.031Z" fill="#21A9AC"/>
<path d="M133.772 110.518C133.852 110.418 133.932 110.316 134.013 110.216C133.932 110.316 133.852 110.418 133.772 110.518Z" fill="#3E444A"/>
<path d="M204.83 212.288C204.866 210.287 205.27 208.707 206.279 207.323C206.886 206.489 207.677 205.939 208.795 206.138C209.92 206.34 210.446 207.168 210.72 208.13C211.362 210.383 211.05 212.551 209.875 214.578C209.286 215.597 208.474 216.401 207.156 216.199C205.842 215.997 205.327 214.985 205.062 213.844C204.922 213.236 204.875 212.604 204.83 212.285V212.288ZM209.551 210.395C209.634 209.795 209.462 209.233 209.292 208.68C209.152 208.224 209.015 207.692 208.423 207.639C207.921 207.595 207.62 208.011 207.403 208.37C206.359 210.114 205.978 211.966 206.68 213.923C207.031 214.9 207.653 214.962 208.302 214.186C209.221 213.092 209.42 211.747 209.551 210.395Z" fill="#3E444A"/>
<path d="M201.145 226.632C201.139 227.027 201.133 227.422 201.127 227.82C201.073 228.206 201.02 228.589 200.963 228.975L200.972 228.943C200.383 229.944 199.988 231.047 199.217 231.948C198.605 232.665 197.929 233.294 197.04 233.653C195.324 234.347 193.896 233.516 193.816 231.699C193.694 228.899 194.934 226.693 197.195 225.096C199.051 223.785 200.541 224.426 201.145 226.632ZM195.273 230.971C195.347 231.529 195.178 232.097 195.74 232.349C196.201 232.553 196.594 232.243 196.942 231.983C198.557 230.772 199.432 229.148 199.631 227.173C199.669 226.796 199.652 226.357 199.295 226.117C198.863 225.83 198.438 226.05 198.069 226.31C196.418 227.48 195.541 229.092 195.27 230.968L195.273 230.971Z" fill="#3E444A"/>
<path d="M200.963 228.972C201.017 228.589 201.07 228.203 201.127 227.817C201.296 228.232 201.496 228.651 200.963 228.972Z" fill="#F0F0F0"/>
<path d="M253.401 39.762C252.836 38.4309 251.343 37.7521 250.909 36.3303C252.301 34.1419 253.764 32.0209 256.307 30.9472C256.403 33.9284 255.278 36.5819 254.005 39.1944C253.877 39.4607 253.74 39.7123 253.401 39.7591V39.762Z" fill="#97E8EC"/>
<path d="M209.551 210.392C209.42 211.744 209.221 213.089 208.302 214.184C207.65 214.959 207.028 214.894 206.68 213.92C205.975 211.96 206.359 210.108 207.403 208.367C207.62 208.005 207.921 207.592 208.424 207.636C209.018 207.689 209.155 208.221 209.292 208.678C209.462 209.231 209.634 209.795 209.551 210.392Z" fill="#F0F0F0"/>
<path d="M195.273 230.971C195.544 229.095 196.421 227.483 198.072 226.313C198.441 226.053 198.863 225.83 199.298 226.12C199.658 226.36 199.672 226.799 199.634 227.176C199.432 229.151 198.557 230.775 196.945 231.986C196.597 232.246 196.204 232.559 195.743 232.352C195.178 232.1 195.35 231.529 195.276 230.974L195.273 230.971Z" fill="#F0F0F0"/>
<defs>
<linearGradient id="paint0_linear_2_3490" x1="267.64" y1="225.831" x2="283.57" y2="225.831" gradientUnits="userSpaceOnUse">
<stop stop-color="#EEF2FC"/>
<stop offset="0.39" stop-color="#E9EEFB"/>
<stop offset="0.84" stop-color="#DBE4F9"/>
<stop offset="1" stop-color="#D5DFF9"/>
</linearGradient>
</defs>
</svg>
