<svg id='corporate/dremio-info-unavailable' viewBox="0 0 400 370" fill="none" xmlns="http://www.w3.org/2000/svg">
<path fill-rule="evenodd" clip-rule="evenodd" d="M206.208 31.4736C250.568 38.949 262.945 92.4421 290.858 127.644C318.512 162.52 374.097 187.617 364.446 231.033C354.787 274.484 295.074 276.677 253.913 293.835C217.317 309.089 182.183 335.263 144.579 322.682C102.188 308.5 71.4898 271.343 58.8146 228.563C45.0445 182.088 47.0191 130.291 76.0672 91.4484C106.132 51.2465 156.637 23.12 206.208 31.4736Z" fill="#F9FCFF"/>
<path d="M226.754 176.285C214.696 173.764 194.847 150.629 194.847 150.629C194.615 151.498 194.46 152.385 194.384 153.28C193.726 152.542 193.353 152.108 193.353 152.108C193.353 152.108 192.468 155.007 192.898 159.383C193.687 167.415 196.751 173.149 198.78 176.859C202.01 182.763 205.299 186.412 209.749 191.35C210.987 192.723 212.456 194.025 215.092 196.294L216.122 194.415C216.277 194.548 216.422 194.674 216.585 194.814L226.754 176.285Z" fill="white"/>
<path d="M215.092 196.294C212.456 194.025 210.987 192.723 209.749 191.35C205.299 186.412 202.01 182.763 198.78 176.859C196.751 173.149 193.687 167.415 192.898 159.382C192.468 155.007 193.353 152.108 193.353 152.108C193.353 152.108 213.203 175.243 225.26 177.764" fill="#31D3DB"/>
<path d="M216.131 195.475C216.103 195.457 216.077 195.437 216.052 195.416C213.236 192.992 211.861 191.759 210.638 190.402C206.11 185.378 202.838 181.748 199.563 175.761C197.636 172.238 194.41 166.342 193.589 157.986C193.149 153.505 194.036 150.529 194.075 150.405C194.116 150.267 194.195 150.143 194.302 150.046C194.409 149.948 194.541 149.881 194.684 149.851C194.826 149.821 194.973 149.83 195.111 149.876C195.248 149.922 195.37 150.004 195.465 150.112C195.661 150.341 215.277 173.07 226.926 175.507C227.03 175.528 227.128 175.57 227.215 175.629C227.303 175.689 227.377 175.764 227.434 175.852C227.491 175.94 227.53 176.038 227.549 176.14C227.567 176.243 227.565 176.348 227.542 176.45C227.497 176.656 227.37 176.837 227.19 176.952C227.01 177.067 226.791 177.107 226.581 177.064C215.882 174.825 199.661 157.272 195.309 152.378C195.049 154.181 195.011 156.008 195.195 157.821C195.985 165.859 199.115 171.58 200.985 174.998C204.171 180.823 207.391 184.395 211.848 189.34C213.013 190.632 214.356 191.835 217.118 194.213C217.272 194.347 217.369 194.533 217.388 194.735C217.408 194.936 217.349 195.137 217.223 195.297C217.098 195.457 216.916 195.565 216.713 195.598C216.51 195.631 216.302 195.587 216.131 195.475H216.131Z" fill="#383C42"/>
<path d="M336.688 244.901C333.383 246.143 330.525 247.973 328.21 250.802C326.021 253.038 324.243 256.003 322.951 260.002C321.633 264.084 320.719 267.231 318.792 269.693C313.088 275.393 302.4 277.029 298.537 277.209C294.399 277.403 287.199 276.283 282.84 268.961C282.657 268.655 280.611 263.892 281.307 260.459C282.503 254.551 294.486 232.986 297.736 226.519C297.878 226.236 298.004 225.981 298.111 225.758L298.973 223.361C300.06 224.482 301.085 225.473 301.983 226.339C308.614 232.739 317.232 238.194 317.852 237.487C318.027 237.289 317.551 236.628 317.303 236.266C316.719 235.411 316.213 234.508 315.792 233.565C318.238 235.15 319.916 236.078 319.916 236.078C319.916 236.078 315.468 229.699 314.992 215.526C314.785 209.34 314.684 205.798 314.377 202.998C313.772 197.479 312.615 193.228 310.794 189.915L312.898 183.972C314.48 176.639 315.218 168.153 314.685 160.656C314.422 156.959 313.983 154.266 313.82 153.308C311.467 139.465 304.253 123.212 296.35 114.693C280.01 97.0815 253.324 89.6741 229.51 105.265C228.658 105.872 227.86 106.549 227.125 107.29C226.751 107.595 226.373 107.901 226.006 108.201C225.845 108.294 225.702 108.415 225.585 108.558L169.824 62.5777C165.222 58.8134 161.756 57.6453 159.865 59.5249C159.639 59.7552 159.459 60.0256 159.335 60.3216C159.128 60.4435 158.937 60.5895 158.766 60.7564C156.551 62.9537 159.301 68.097 162.385 71.7268L211.598 130.316C210.625 132.529 210.241 137.605 211.211 141.376L211.208 141.375C211.21 141.382 211.214 141.389 211.216 141.396C211.456 142.431 211.88 143.416 212.47 144.305C212.484 144.332 212.496 144.361 212.51 144.388C212.498 144.479 212.489 144.543 212.483 144.591C212.453 144.749 212.433 144.908 212.422 145.068C212.172 145.194 211.933 145.339 211.705 145.501C211.322 145.515 210.78 146.004 210.302 147.037C209.336 148.618 209.13 150.728 209.329 153.009C209.366 155.957 209.938 159.822 211.523 164.762C212.535 167.918 213.188 171.834 213.616 175.696C213.691 179.033 213.998 183.661 214.406 188.408C214.415 188.849 214.424 189.265 214.43 189.631C214.633 201.394 216.727 211.955 219.514 221.504C221.787 230.541 224.739 239.115 228.071 246.2C228.562 247.244 229.085 248.346 229.628 249.472C230.285 251.18 230.92 252.859 231.501 254.484C234.511 262.911 240.431 269.227 245.929 273.588C249.541 277.178 253.601 280.305 258.011 282.894C259.821 283.954 273.429 290.477 289.951 289.275C294.115 288.972 301.514 288.433 309.739 285.017C312.794 283.749 317.146 281.921 317.362 282.328C317.426 282.447 317.054 282.972 316.957 283.092C315.356 285.062 310.831 292.434 314.184 300.719C314.686 301.961 316.409 306.08 320.448 308.555C323.942 310.696 328.944 311.035 334.606 310.16C339.856 309.349 344.171 305.707 344.954 305.023C345.797 304.285 347.621 302.887 347.96 302.351C347.923 302.329 347.891 302.308 347.854 302.287C348.298 301.942 348.702 301.551 349.059 301.119C335.224 293.128 330.999 285.851 330.999 285.851C330.627 285.011 328.878 280.648 331.858 275.738C332.461 274.802 333.136 273.913 333.877 273.078C336.425 270.307 339.836 267.165 342.439 265.457C346.593 262.729 354.556 258.331 364.226 258.767C365.703 258.833 366.536 258.994 366.694 258.636C366.782 258.437 366.65 258.071 366.347 257.595C367.189 257.65 367.677 257.669 367.794 257.404C368.623 255.53 350.941 239.542 336.688 244.901Z" fill="white"/>
<path d="M216.834 203.588L216.836 203.595C216.843 203.637 216.851 203.68 216.858 203.722C216.85 203.679 216.841 203.63 216.834 203.588Z" fill="#31D3DB"/>
<path d="M219.954 218.502C218.624 213.075 217.62 208.155 216.858 203.722C217.652 208.098 219.483 217.018 222.025 225.978C221.2 223.276 220.504 220.748 219.954 218.502Z" fill="#31D3DB"/>
<path d="M297.736 226.519C294.486 232.986 282.503 254.551 281.306 260.459C280.611 263.892 282.657 268.655 282.839 268.961C287.199 276.282 294.399 277.403 298.537 277.209C302.59 277.02 314.169 275.239 319.608 268.832C321.741 266.32 322.666 263.055 324.05 258.77C326.58 250.937 330.969 247.05 336.688 244.9C350.941 239.542 368.623 255.53 367.794 257.404C367.635 257.762 366.802 257.602 365.325 257.535C355.655 257.099 347.692 261.497 343.538 264.225C339.525 266.86 333.576 272.908 331.858 275.738C328.878 280.648 330.626 285.01 330.999 285.851C330.999 285.851 335.225 293.128 349.059 301.119C348.72 301.656 346.896 303.053 346.053 303.791C345.27 304.475 340.955 308.118 335.705 308.928C330.043 309.803 325.041 309.464 321.547 307.323C317.508 304.848 315.786 300.729 315.283 299.487C311.93 291.202 316.455 283.83 318.056 281.861C318.154 281.74 318.525 281.216 318.462 281.096C318.245 280.689 313.893 282.517 310.838 283.786C302.613 287.202 295.214 287.74 291.05 288.043C274.528 289.245 260.92 282.722 259.11 281.662C246.528 274.292 239.529 263.859 234.393 254.649L216.836 203.595C213.996 186.997 214.61 177.339 214.709 174.261C214.789 171.805 213.613 165.339 213 162.959C211.583 157.456 206.44 148.056 212.421 145.068C212.495 144.384 212.421 145.068 212.512 144.372C210.051 141.013 210.841 133.721 212.114 130.826L163.484 70.4952C160.4 66.8655 157.65 61.7222 159.865 59.5249C161.756 57.6453 165.222 58.8134 169.824 62.5776L225.585 108.558C225.702 108.415 225.845 108.294 226.005 108.201C226.373 107.901 226.751 107.595 227.125 107.29C227.86 106.549 228.658 105.872 229.51 105.265C253.323 89.6741 280.01 97.0815 296.35 114.693C304.253 123.212 311.467 139.465 313.82 153.308C313.983 154.266 314.422 156.959 314.685 160.656C315.218 168.153 314.48 176.639 312.897 183.972L310 192.16C308.243 186.771 305.402 183.237 301.185 180.842C299.157 179.689 297.548 179.141 296.45 179.068C291.965 178.769 287.316 181.632 285.911 187.28C285.52 188.853 285.055 192.119 286.627 197.961C290.106 210.89 297.846 220.169 299.068 221.557C299.197 221.704 299.331 221.85 299.464 221.996L298.111 225.758C298.004 225.981 297.878 226.236 297.736 226.519Z" fill="#97E8EC"/>
<path d="M234.89 256.095C232.807 252.505 230.91 248.813 229.206 245.034C230.803 247.916 232.468 251.197 234.393 254.649L234.89 256.095Z" fill="#31D3DB"/>
<path d="M229.17 244.968C226.457 240.079 224.022 233.018 222.025 225.978C224.007 232.472 226.406 238.837 229.206 245.034C229.194 245.012 229.182 244.99 229.17 244.968Z" fill="#31D3DB"/>
<path fill-rule="evenodd" clip-rule="evenodd" d="M258.158 281.091C258.158 281.091 227.92 264.008 247.445 228.016C249.821 223.635 256.747 210.377 259.154 204.753C264.105 193.19 260.849 163.188 250.313 154.828C248.656 153.513 246.628 153.031 244.468 151.691C229.563 142.445 224.933 143.844 212.043 145.64C210.57 145.845 206.698 149.721 211.523 164.762C213.995 172.469 214.345 184.705 214.43 189.631C214.902 216.968 225.557 237.848 231.5 254.485C238.015 272.72 258.158 281.091 258.158 281.091Z" fill="white"/>
<path d="M319.916 236.078C319.916 236.078 315.468 229.699 314.992 215.526C314.785 209.34 314.684 205.798 314.377 202.998C313.203 192.285 309.971 186.322 303.778 182.804C301.749 181.651 300.141 181.103 299.043 181.03C294.557 180.731 289.908 183.594 288.503 189.242C288.112 190.815 287.647 194.081 289.219 199.923C292.698 212.852 300.861 220.878 302.082 222.265C308.872 229.979 319.916 236.078 319.916 236.078Z" fill="#31D3DB"/>
<path d="M224.933 143.844C231.985 144.578 239.476 146.86 245.331 150.332C252.374 154.509 256.792 160.103 258.108 166.51C258.128 166.614 258.128 166.72 258.106 166.824C258.084 166.927 258.042 167.025 257.981 167.112C257.921 167.199 257.843 167.273 257.753 167.331C257.663 167.388 257.562 167.427 257.456 167.445C257.243 167.486 257.021 167.443 256.839 167.325C256.657 167.207 256.53 167.023 256.484 166.814C255.261 160.857 251.106 155.627 244.469 151.691C233.73 145.323 219.946 144.058 212.429 146.1C212.219 146.158 211.994 146.133 211.803 146.03C211.612 145.927 211.469 145.754 211.407 145.548C211.377 145.447 211.368 145.341 211.381 145.236C211.394 145.131 211.427 145.03 211.48 144.939C211.533 144.847 211.604 144.767 211.689 144.702C211.774 144.638 211.871 144.591 211.975 144.564C215.681 143.556 220.209 143.353 224.933 143.844Z" fill="#383C42"/>
<path d="M317.718 238.346C317.859 238.345 317.998 238.314 318.126 238.256C318.254 238.198 318.368 238.114 318.461 238.01C319.031 237.357 318.441 236.503 317.967 235.816C313.983 230.028 314.193 221.491 314.273 218.277C314.285 217.778 314.294 217.397 314.286 217.16C314.25 215.957 314.278 214.754 314.37 213.554C314.466 211.989 314.585 210.041 314.556 206.038L314.553 205.076C314.552 203.701 314.55 202.141 314.455 201.348C313.324 191.942 308.778 185.641 306.27 183.4C306.191 183.33 306.1 183.276 306 183.241C305.9 183.207 305.794 183.191 305.689 183.197C305.583 183.202 305.48 183.228 305.384 183.273C305.289 183.318 305.203 183.381 305.132 183.459C304.99 183.616 304.916 183.823 304.927 184.034C304.938 184.245 305.033 184.443 305.192 184.586C307.533 186.677 311.782 192.6 312.857 201.536C312.941 202.236 312.942 203.811 312.944 205.077L312.946 206.049C312.975 209.998 312.857 211.916 312.763 213.457C312.668 214.706 312.639 215.959 312.677 217.211C312.684 217.429 312.675 217.779 312.664 218.237C312.583 221.486 312.374 229.944 316.286 236.178C313.535 234.718 307.591 230.638 302.542 225.766C297.82 221.209 289.917 213.581 287.42 201.206C285.988 194.115 286.15 190.97 286.983 187.332C287.007 187.231 287.011 187.125 286.994 187.022C286.976 186.919 286.939 186.82 286.883 186.731C286.826 186.643 286.753 186.566 286.667 186.505C286.58 186.444 286.482 186.401 286.379 186.378C286.275 186.354 286.168 186.351 286.063 186.369C285.958 186.387 285.858 186.424 285.769 186.48C285.679 186.536 285.601 186.609 285.54 186.694C285.479 186.78 285.435 186.876 285.412 186.978C284.529 190.837 284.352 194.144 285.841 201.518C288.436 214.378 296.564 222.223 301.421 226.91C307.485 232.763 315.845 238.387 317.701 238.346L317.718 238.346ZM317.105 237.459L317.094 237.459L317.105 237.459Z" fill="#383C42"/>
<path fill-rule="evenodd" clip-rule="evenodd" d="M221.842 115.438L164.216 64.2288C161.76 62.06 160.654 61.8567 158.984 61.3129C160.177 60.5135 162.67 61.7085 164.65 63.1304L224.909 113.092C225.82 116.58 221.829 122.541 217.901 123.413C219.752 121.139 222.035 118.176 222.114 115.592" fill="white"/>
<path fill-rule="evenodd" clip-rule="evenodd" d="M287.684 115.79C286.257 115.256 284.908 116.054 284.677 117.561C284.566 118.308 284.709 119.071 285.086 119.73C285.462 120.389 286.05 120.906 286.757 121.202C288.153 121.722 289.502 120.922 289.765 119.431C289.876 118.683 289.732 117.92 289.356 117.261C288.979 116.602 288.391 116.085 287.684 115.79Z" fill="#21AAAD"/>
<path fill-rule="evenodd" clip-rule="evenodd" d="M272.272 112.648C271.022 112.419 270.022 113.213 269.999 114.504C270.013 115.134 270.236 115.742 270.634 116.236C271.032 116.73 271.582 117.083 272.202 117.242C273.453 117.47 274.456 116.676 274.477 115.386C274.462 114.756 274.239 114.147 273.841 113.653C273.443 113.159 272.893 112.806 272.272 112.648Z" fill="#21AAAD"/>
<path fill-rule="evenodd" clip-rule="evenodd" d="M308.658 159.873C306.936 158.4 304.656 158.814 303.506 160.778C302.936 161.763 302.722 162.909 302.898 164.029C303.074 165.149 303.631 166.178 304.477 166.947C306.16 168.395 308.44 167.983 309.564 166.058C310.128 165.074 310.345 163.933 310.181 162.814C310.018 161.695 309.482 160.661 308.658 159.873Z" fill="#21AAAD"/>
<path fill-rule="evenodd" clip-rule="evenodd" d="M304.921 140.649C303.413 139.36 301.392 139.713 300.388 141.439C299.895 142.318 299.71 143.332 299.862 144.325C300.014 145.318 300.493 146.234 301.227 146.932C302.733 148.222 304.757 147.869 305.761 146.145C306.765 144.419 306.404 141.978 304.921 140.649" fill="#21AAAD"/>
<path fill-rule="evenodd" clip-rule="evenodd" d="M300.04 148.33C298.926 147.387 297.391 147.654 296.654 148.944C296.286 149.589 296.15 150.337 296.268 151.067C296.385 151.797 296.75 152.467 297.303 152.968C298.394 153.952 299.886 153.66 300.664 152.394C301.02 151.741 301.152 150.993 301.04 150.26C300.927 149.527 300.576 148.85 300.04 148.33Z" fill="#21AAAD"/>
<path fill-rule="evenodd" clip-rule="evenodd" d="M308.79 173.56C307.658 172.553 306.06 172.835 305.297 174.164C304.91 174.839 304.762 175.62 304.876 176.386C304.991 177.152 305.361 177.859 305.93 178.395C307.126 179.388 308.66 179.12 309.461 177.815C310.245 176.445 309.986 174.554 308.79 173.56" fill="#21AAAD"/>
<path opacity="0.6" fill-rule="evenodd" clip-rule="evenodd" d="M293.355 225.382C293.297 225.143 293.182 224.921 293.019 224.734C292.857 224.546 292.652 224.4 292.422 224.305C292.191 224.21 291.941 224.17 291.691 224.188C291.442 224.207 291.2 224.282 290.986 224.41C290.485 224.674 290.088 225.096 289.859 225.608C289.629 226.119 289.58 226.692 289.718 227.234C289.78 227.474 289.896 227.696 290.059 227.883C290.222 228.071 290.427 228.219 290.657 228.316C290.888 228.413 291.138 228.456 291.389 228.442C291.639 228.429 291.883 228.358 292.101 228.237C292.605 227.968 293.003 227.54 293.23 227.023C293.458 226.505 293.502 225.927 293.355 225.382Z" fill="#21AAAD"/>
<path fill-rule="evenodd" clip-rule="evenodd" d="M166.956 63.6341L168.608 65.0051C168.109 66.7606 165.362 69.6828 164.09 69.9873C164.785 68.77 166.62 66.3726 166.956 63.6341V63.6341ZM181.416 75.3939L183.33 76.9661C182.846 79.6759 180.053 83.3396 177.704 83.4863C179.105 82.0052 181.103 78.7874 181.416 75.3939ZM196.431 87.6637L198.91 89.6949C197.763 93.7281 193.389 97.9861 191.628 97.9461C193.331 96.2244 196.116 91.0569 196.431 87.6637H196.431ZM211.622 100.065L214.452 102.366C213.309 106.9 208.421 111.711 205.516 112.1C208.292 109.283 211.34 104.065 211.622 100.065Z" fill="#21AAAD"/>
<path d="M329.835 311.401C325.811 311.489 322.523 310.765 320.024 309.233C318.046 308.021 315.297 305.611 313.437 301.016C310.179 292.967 314.024 285.957 315.666 283.508C314.119 284.062 311.826 285.015 310.378 285.617L310.05 285.753C301.704 289.219 294.097 289.773 290.01 290.07C271.845 291.392 257.736 283.659 257.601 283.58C239.881 273.2 232.335 257.154 227.341 246.536C221.807 234.77 217.419 219.34 215.302 204.201C214.242 196.625 212.95 182.745 212.805 175.508C212.759 173.207 211.747 166.818 211.121 164.387C210.939 163.682 210.714 162.891 210.472 162.042C208.833 156.289 206.376 147.662 211.67 144.565C209.246 140.881 209.551 133.655 210.676 130.465L161.766 72.237C158.453 68.3369 155.528 62.8395 158.196 60.1923C160.405 57.9974 164.119 59.0083 169.237 63.194L224.48 108.747L225.785 107.649C226.456 106.981 227.186 106.372 227.967 105.831C253.327 89.2274 280.331 98.6653 295.843 115.384C303.674 123.825 311.106 140.237 313.515 154.407C313.903 156.696 314.205 159.263 314.388 161.832C314.904 169.091 314.247 177.671 312.585 185.371L311.852 187.462C311.818 187.561 311.764 187.652 311.693 187.729C311.623 187.807 311.538 187.871 311.442 187.916C311.347 187.962 311.243 187.988 311.138 187.994C311.032 188 310.926 187.985 310.826 187.951C310.624 187.879 310.459 187.733 310.366 187.542C310.274 187.351 310.262 187.133 310.333 186.933L311.038 184.939C312.642 177.477 313.288 169.06 312.782 161.944C312.603 159.425 312.307 156.91 311.927 154.672C309.564 140.772 302.302 124.703 294.658 116.464C279.608 100.243 253.423 91.0765 228.855 107.162C228.153 107.653 227.497 108.203 226.893 108.807L226.205 109.408L225.418 110.049C225.381 110.079 225.342 110.105 225.301 110.128C225.23 110.171 225.167 110.225 225.115 110.288C225.048 110.37 224.966 110.439 224.872 110.49C224.778 110.54 224.674 110.572 224.568 110.583C224.461 110.593 224.353 110.583 224.251 110.552C224.148 110.521 224.053 110.47 223.971 110.403L168.211 64.423C165.754 62.4128 161.328 59.3368 159.336 61.3201C157.647 62.9949 159.901 67.5647 163.001 71.2128L212.216 129.806C212.312 129.92 212.374 130.057 212.395 130.204C212.416 130.35 212.395 130.499 212.336 130.635C211.079 133.494 210.946 140.877 213.164 143.903C213.285 144.068 213.337 144.273 213.31 144.475C213.292 144.617 213.276 144.737 213.255 144.841H213.256L213.222 145.153C213.207 145.285 213.16 145.412 213.084 145.521C213.007 145.631 212.904 145.72 212.784 145.78C208.169 148.086 210.488 156.224 212.022 161.609C212.267 162.472 212.496 163.276 212.681 163.994C213.28 166.32 214.363 172.873 214.415 175.477C214.559 182.659 215.844 196.45 216.897 203.983C218.993 218.97 223.331 234.235 228.8 245.863C233.71 256.302 241.129 272.078 258.42 282.206C261.165 283.815 274.548 289.599 289.892 288.479C293.887 288.188 301.324 287.647 309.427 284.281L309.756 284.145C316.991 281.137 317.597 281.059 318.075 281.957C318.165 282.127 318.408 282.582 317.582 283.594C317.325 283.91 311.307 291.47 314.931 300.422C316.628 304.615 319.098 306.79 320.871 307.876C323.981 309.783 328.562 310.287 334.482 309.371C339.433 308.607 343.629 305.116 344.421 304.424C344.67 304.206 345.003 303.931 345.359 303.638C345.717 303.344 346.257 302.899 346.676 302.527C333.51 294.726 329.375 287.778 329.202 287.48C328.6 286.137 327.004 281.609 330.069 276.558C331.821 273.673 337.786 267.554 341.993 264.792C349.395 259.932 356.889 257.637 364.262 257.97C364.598 257.985 364.902 258.005 365.173 258.023C365.352 258.035 365.54 258.047 365.71 258.055C364.853 256.682 361.448 253.271 356.165 250.229C351.857 247.748 343.491 244.014 335.874 246.878C329.703 249.198 325.954 253.321 323.717 260.246L323.38 261.297C322.152 265.128 321.182 268.154 319.125 270.578C313.777 276.878 302.624 278.997 297.475 279.238C294.176 279.384 285.967 278.859 281.047 270.598C280.784 270.156 278.669 265.232 279.418 261.534C280.363 256.869 287.694 243.012 292.544 233.843C294.264 230.591 295.623 228.022 296.285 226.646L296.705 225.446C296.739 225.348 296.793 225.257 296.863 225.179C296.934 225.101 297.019 225.037 297.114 224.992C297.21 224.946 297.313 224.92 297.419 224.914C297.525 224.908 297.631 224.923 297.731 224.958C297.933 225.029 298.098 225.176 298.191 225.367C298.283 225.557 298.295 225.776 298.224 225.975L297.772 227.254C297.063 228.737 295.698 231.317 293.97 234.585C289.162 243.673 281.896 257.407 280.997 261.848C280.385 264.866 282.177 269.309 282.44 269.799C286.908 277.301 294.385 277.791 297.399 277.644C302.305 277.415 312.903 275.428 317.893 269.55C319.745 267.369 320.672 264.476 321.845 260.814L322.184 259.759C324.552 252.428 328.721 247.861 335.303 245.386C347.71 240.721 361.644 251.289 365.547 255.359C367.655 257.557 367.662 258.436 367.432 258.956C367.083 259.746 366.239 259.692 365.067 259.615C364.806 259.598 364.514 259.578 364.19 259.564C357.162 259.253 349.994 261.454 342.883 266.122C338.944 268.709 333.102 274.658 331.448 277.381C328.782 281.775 330.153 285.672 330.637 286.761C330.642 286.761 334.927 293.9 348.365 301.661C348.458 301.716 348.54 301.788 348.604 301.874C348.669 301.959 348.715 302.057 348.741 302.16C348.767 302.264 348.772 302.372 348.755 302.477C348.738 302.583 348.7 302.684 348.642 302.774C348.355 303.23 347.563 303.898 346.388 304.866C346.046 305.148 345.726 305.411 345.486 305.621C344.292 306.665 339.988 310.137 334.73 310.949C333.11 311.206 331.475 311.357 329.835 311.401Z" fill="#383C42"/>
<path fill-rule="evenodd" clip-rule="evenodd" d="M268.072 137.648C267.655 137.389 267.19 137.215 266.704 137.134C266.218 137.053 265.72 137.067 265.24 137.176C264.76 137.284 264.306 137.486 263.905 137.767C263.504 138.049 263.163 138.406 262.903 138.818C262.388 139.65 262.224 140.647 262.445 141.597C262.666 142.547 263.256 143.374 264.088 143.903C264.502 144.161 264.964 144.335 265.447 144.416C265.931 144.497 266.425 144.482 266.903 144.373C267.38 144.264 267.831 144.063 268.229 143.781C268.626 143.499 268.963 143.143 269.22 142.732C269.749 141.907 269.926 140.91 269.711 139.957C269.496 139.005 268.906 138.174 268.072 137.648Z" fill="#383C42"/>
<g opacity="0.8">
<path opacity="0.8" d="M267.508 153.85C265.148 153.738 264.519 150.794 267.903 145.792C270.83 151.259 269.826 153.96 267.508 153.85Z" fill="#D2EDF2"/>
<path opacity="0.8" d="M267.6 153.546C267.949 153.58 268.301 153.501 268.6 153.32C268.899 153.138 269.129 152.865 269.254 152.542C268.917 152.734 268.531 152.826 268.142 152.808C266.768 152.743 266.006 151.698 266.256 149.865C265.533 152.158 266.185 153.479 267.6 153.546Z" fill="white"/>
<path opacity="0.8" d="M268.764 148.627C268.861 149.174 268.776 149.645 268.576 149.679C268.375 149.714 268.134 149.298 268.038 148.751C267.941 148.204 268.025 147.733 268.226 147.699C268.426 147.664 268.667 148.08 268.764 148.627Z" fill="white"/>
</g>
<path d="M262.408 141.839C262.493 141.891 263.949 142.909 264.675 142.81C264.924 142.776 265.154 142.748 265.36 142.725C265.626 142.7 265.894 142.739 266.142 142.837C266.39 142.935 266.611 143.09 266.786 143.288C266.873 143.414 266.994 143.513 267.135 143.575C267.277 143.637 267.433 143.659 267.586 143.639C268.247 143.456 269.094 143.188 269.094 143.188C269.094 143.188 267.863 145.778 265.153 144.966C264.44 144.756 263.803 144.35 263.317 143.796C262.83 143.243 262.515 142.563 262.408 141.839Z" fill="#D2EDF2"/>
<path d="M172.203 124.439L171.544 196.265C171.52 198.743 169.962 201.586 168.06 202.609L81.9517 249.013L67.9694 278.883L68.875 180.124C68.8991 177.646 70.4547 174.806 72.3593 173.78L168.8 121.807C170.702 120.783 172.228 121.961 172.203 124.439Z" fill="#577394" stroke="#2A394A" stroke-width="5.5" stroke-linecap="round" stroke-linejoin="round"/>
<path d="M151.316 156.726L89.3627 190.113C88.111 190.787 87.109 190.012 87.1241 188.379C87.1391 186.747 88.1651 184.878 89.4168 184.203L151.37 150.816C152.622 150.142 153.624 150.917 153.609 152.55C153.593 154.182 152.567 156.051 151.316 156.726Z" fill="#31D3DB"/>
<path d="M144.495 172.159L89.2543 201.929C88.0026 202.603 87.0006 201.828 87.0157 200.196C87.0307 198.563 88.0568 196.694 89.3085 196.019L144.549 166.25C145.8 165.575 146.802 166.35 146.787 167.983C146.772 169.616 145.746 171.485 144.495 172.159Z" fill="#31D3DB"/>
<path d="M136.617 188.164L89.1489 213.745C87.8972 214.419 86.8953 213.644 86.9103 212.012C86.9254 210.379 87.9514 208.51 89.2031 207.835L136.671 182.254C137.923 181.58 138.925 182.355 138.91 183.987C138.895 185.62 137.869 187.489 136.617 188.164Z" fill="#31D3DB"/>
<path d="M146.348 194.677L89.0407 225.561C87.789 226.236 86.787 225.461 86.802 223.828C86.8171 222.195 87.8431 220.326 89.0948 219.652L146.402 188.767C147.654 188.093 148.656 188.868 148.641 190.5C148.626 192.133 147.6 194.002 146.348 194.677Z" fill="#31D3DB"/>
<path d="M99.2197 169.65C109.492 146.337 106.805 122.748 93.2168 116.963C79.6288 111.177 60.2858 125.386 50.013 148.699C39.7403 172.012 42.4279 195.601 56.0159 201.386C69.604 207.172 88.947 192.963 99.2197 169.65Z" fill="#2A394A"/>
<path d="M101.631 170.676C111.904 147.363 109.216 123.774 95.6282 117.988C82.0401 112.203 62.6972 126.412 52.4244 149.724C42.1517 173.037 44.8393 196.627 58.4273 202.412C72.0154 208.198 91.3584 193.989 101.631 170.676Z" fill="white"/>
<path fill-rule="evenodd" clip-rule="evenodd" d="M79.682 137.797C78.91 137.728 77.9521 138.289 77.1802 139.261L62.3903 157.884C61.6381 158.831 61.1763 160.026 61.1763 161.025V181.06C61.1763 182.059 61.6381 182.714 62.3903 182.78L77.1802 184.095C77.9521 184.163 78.91 183.603 79.682 182.631L94.4718 164.008C95.2241 163.061 95.6859 161.866 95.6859 160.867V140.832C95.6859 139.833 95.2241 139.178 94.4718 139.111L79.682 137.797ZM78.4311 149.661C79.4521 149.064 82.8112 149.101 82.8112 150.27L84.1879 164.008C84.1879 165.176 80.703 167.275 79.682 167.873C78.6609 168.47 76.5823 165.312 76.5823 164.143V152.859C76.5823 151.69 77.41 150.259 78.4311 149.661ZM84.1879 171.032C84.1879 172.201 81.0787 175.4 80.0577 175.998C79.0367 176.595 76.5823 173.069 76.5823 171.901C76.5823 170.732 77.41 169.301 78.4311 168.703C79.4521 168.106 84.1879 169.864 84.1879 171.032Z" fill="#2A394A"/>
<path fill-rule="evenodd" clip-rule="evenodd" d="M81.5175 139.603C80.7456 139.534 79.7877 140.094 79.0157 141.066L64.2259 159.689C63.4736 160.637 63.0118 161.831 63.0118 162.831V182.865C63.0118 183.865 63.4736 184.519 64.2259 184.586L79.0157 185.9C79.7877 185.969 80.7456 185.408 81.5175 184.436L96.3074 165.813C97.0596 164.866 97.5214 163.671 97.5214 162.672V142.637C97.5214 141.638 97.0596 140.984 96.3074 140.917L81.5175 139.603ZM80.2666 151.467C81.2877 150.869 82.1154 151.332 82.1154 152.501V163.785C82.1154 164.954 81.2877 166.385 80.2666 166.983C79.2456 167.58 78.4179 167.117 78.4179 165.949V154.664C78.4179 153.496 79.2456 152.064 80.2666 151.467ZM82.1154 171.543C82.1154 172.711 81.2877 174.143 80.2666 174.74C79.2456 175.338 78.4179 174.875 78.4179 173.706C78.4179 172.538 79.2456 171.106 80.2666 170.509C81.2877 169.911 82.1154 170.374 82.1154 171.543Z" fill="#CA3F32"/>
</svg>
