<svg id="corporate/enterprise-edition" viewBox="0 0 40 40" fill="none" xmlns="http://www.w3.org/2000/svg">
<circle cx="20" cy="20" r="20" fill="#E9F5F9"/>
<path d="M14.329 15.336L15.2848 15.3686L15.5042 14.4377C16.1717 11.6063 18.7162 9.49992 21.7499 9.49992C24.5285 9.49992 26.8946 11.266 27.7869 13.7369C27.8776 13.988 28.1094 14.1666 28.3763 14.1666V14.1666C28.7613 14.1666 29.046 13.8064 28.9205 13.4425C27.8948 10.4691 25.0718 8.33325 21.7499 8.33325C18.1628 8.33325 15.1575 10.8238 14.3687 14.17C14.3016 14.1677 14.2342 14.1666 14.1666 14.1666C10.9449 14.1666 8.33325 16.7783 8.33325 19.9999C8.33325 22.5661 9.99035 24.7453 12.2929 25.5258C12.6515 25.6474 12.9999 25.3625 12.9999 24.9839V24.9839C12.9999 24.7106 12.8132 24.4757 12.5567 24.3815C10.7726 23.7257 9.49992 22.0115 9.49992 19.9999C9.49992 17.4226 11.5893 15.3333 14.1666 15.3333C14.221 15.3333 14.2751 15.3342 14.329 15.336Z" fill="#206771"/>
<path fill-rule="evenodd" clip-rule="evenodd" d="M22.3334 16.4999H29.3334C29.9777 16.4999 30.5001 17.0223 30.5001 17.6666V30.4999H21.1667V19.9999V17.6666C21.1667 17.0223 21.6891 16.4999 22.3334 16.4999ZM20.0001 19.9999V17.6666C20.0001 16.3779 21.0448 15.3333 22.3334 15.3333H29.3334C30.6221 15.3333 31.6667 16.3779 31.6667 17.6666V31.6666H21.1667H20.0001H14.1667V22.3333C14.1667 21.0446 15.2114 19.9999 16.5001 19.9999H20.0001ZM20.0001 21.1666H16.5001C15.8557 21.1666 15.3334 21.6889 15.3334 22.3333V30.4999H20.0001V21.1666ZM24.6667 18.8333H22.3334V21.1666H24.6667V18.8333ZM22.3334 24.6666V22.3333H24.6667V24.6666H22.3334ZM22.3334 25.8333V28.1666H24.6667V25.8333H22.3334ZM29.3334 21.1666H27.0001V18.8333H29.3334V21.1666ZM27.0001 22.3333V24.6666H29.3334V22.3333H27.0001ZM27.0001 28.1666V25.8333H29.3334V28.1666H27.0001Z" fill="#206771"/>
</svg>
