<svg id="corporate/qlik" xmlns="http://www.w3.org/2000/svg" viewBox="0 0 130.32364 126.41327">
  <path d="M 129,107.4 112,93.1 c 5.9,-9.4 9.4,-20.5 9.4,-32.4 C 121.4,27.2 94.2,0 60.7,0 27.2,0 0,27.2 0,60.7 c 0,33.5 27.2,60.7 60.7,60.7 13,0 25.1,-4.1 35,-11.1 l 18.1,15.2 c 0,0 2.7,2.3 5,-0.4 l 10.8,-12.8 c -0.2,0.1 2.1,-2.6 -0.6,-4.9 z M 97.9,60.7 C 97.9,81.3 81.2,98 60.6,98 40,98 23.3,81.3 23.3,60.7 23.3,40.1 40,23.4 60.6,23.4 c 20.6,0 37.3,16.7 37.3,37.3 z" fill="#059848" id="path66" />
  <g fill="#54565b" id="g72" transform="translate(-299.3)">
    <path d="m 336,60.7 c 0,-13.2 10.7,-23.9 23.9,-23.9 13.2,0 23.9,10.7 23.9,23.9 0,13.2 -10.7,23.9 -23.9,23.9 C 346.7,84.7 336,74 336,60.7 Z" id="path68" />
    <path d="m 418,17.9 c 0,-3.7 3,-6.6 6.6,-6.6 3.7,0 6.6,3 6.6,6.6 0,3.6 -3,6.6 -6.6,6.6 -3.6,0 -6.6,-3 -6.6,-6.6 z m 6.6,-5.7 c -3.1,0 -5.6,2.5 -5.6,5.7 0,3.2 2.4,5.7 5.6,5.7 3.2,0 5.6,-2.5 5.6,-5.7 0,-3.2 -2.4,-5.7 -5.6,-5.7 z m -1.5,9.7 h -0.9 v -8.1 h 2.9 c 1.4,0 2.5,0.7 2.5,2.2 0,1.3 -0.7,2.1 -1.9,2.2 l 2.3,3.6 h -1.1 l -2.1,-3.6 h -1.6 v 3.7 z m 0,-4.3 h 1.8 c 1.1,0 1.8,-0.2 1.8,-1.5 0,-1 -0.8,-1.4 -1.8,-1.4 h -1.8 z" id="path70" />
  </g>
</svg>
