<svg id="corporate/sonar" viewBox="0 0 24 24" fill="none" xmlns="http://www.w3.org/2000/svg">
<path d="M5.34565 13.2854C5.0795 13.2854 4.81934 13.2064 4.59805 13.0586C4.37676 12.9107 4.20428 12.7005 4.10243 12.4547C4.00058 12.2088 3.97393 11.9382 4.02586 11.6772C4.07778 11.4162 4.20594 11.1764 4.39413 10.9882C4.58232 10.8 4.8221 10.6718 5.08312 10.6199C5.34415 10.568 5.61472 10.5946 5.8606 10.6965C6.10649 10.7983 6.31665 10.9708 6.46451 11.1921C6.61237 11.4134 6.69129 11.6736 6.69129 11.9397C6.69075 12.2964 6.54881 12.6384 6.29657 12.8906C6.04432 13.1429 5.70237 13.2848 5.34565 13.2854V13.2854Z" fill="#44B7C9"/>
<path d="M14.9106 2.1761C14.7668 2.05531 14.583 1.99275 14.3953 2.00071C14.2077 2.00867 14.0298 2.08658 13.8968 2.21911L12.5532 3.56271C13.8023 4.58076 14.808 5.86525 15.4966 7.32217C16.1853 8.77909 16.5394 10.3716 16.5331 11.983C16.5269 13.5945 16.1603 15.1841 15.4603 16.6356C14.7604 18.0871 13.7447 19.3637 12.4876 20.372L13.8968 21.7812C14.0295 21.9135 14.207 21.9914 14.3943 21.9994C14.5816 22.0073 14.7651 21.9448 14.9085 21.8242C16.8383 20.2005 18.2479 18.0452 18.9619 15.6264C19.2973 14.4262 19.4675 13.1859 19.4678 11.9397C19.4663 11.2243 19.4095 10.5101 19.2978 9.80347C18.7785 6.82395 17.225 4.12305 14.9106 2.1761V2.1761Z" fill="#C5E8ED"/>
<path d="M16.5327 11.9397C16.5325 10.3356 16.1752 8.75165 15.4869 7.30274C14.7986 5.85383 13.7964 4.57626 12.5531 3.56268L10.3657 5.75217C11.3311 6.47756 12.1134 7.41878 12.6501 8.50057C13.1867 9.58237 13.4628 10.7747 13.4562 11.9823C13.4497 13.1899 13.1606 14.3791 12.6123 15.455C12.0639 16.5309 11.2714 17.4636 10.2981 18.1784L12.4876 20.3699C13.7497 19.357 14.7683 18.0737 15.4684 16.6146C16.1685 15.1556 16.5322 13.558 16.5327 11.9397V11.9397Z" fill="#83CDD9"/>
<path d="M13.4584 11.9397C13.4581 10.7391 13.1785 9.55506 12.6417 8.48117C12.105 7.40728 11.3257 6.47298 10.3657 5.75214L8.42606 7.69175C9.14689 8.15073 9.73915 8.7855 10.1471 9.53638C10.5551 10.2873 10.7654 11.1296 10.7582 11.9841C10.7511 12.8386 10.5267 13.6773 10.1061 14.4212C9.68563 15.1651 9.0828 15.7899 8.35437 16.2367L10.2981 18.1784C11.2772 17.4591 12.0734 16.5197 12.6224 15.436C13.1714 14.3522 13.4578 13.1545 13.4584 11.9397V11.9397Z" fill="#5EBFCE"/>
<path d="M10.7589 11.9397C10.7578 11.0928 10.5434 10.2598 10.1358 9.51743C9.72808 8.77508 9.14012 8.14727 8.42606 7.69183L6.44139 9.66832C6.35832 9.75139 6.2965 9.85326 6.26115 9.9653C6.63913 10.1416 6.95856 10.4227 7.18154 10.7752C7.40452 11.1276 7.52167 11.5367 7.51908 11.9538C7.51649 12.3708 7.39428 12.7784 7.16694 13.1281C6.93961 13.4777 6.61671 13.7548 6.23657 13.9265C6.2607 14.0809 6.33228 14.2241 6.44139 14.3361L8.34619 16.2409C9.08217 15.7897 9.69032 15.1574 10.1127 14.4045C10.535 13.6516 10.7575 12.803 10.7589 11.9397V11.9397Z" fill="#44B7C9"/>
</svg>
