<svg viewBox="0 0 32 32" fill="none" xmlns="http://www.w3.org/2000/svg">
<g clip-path="url(#clip0_10449_80964)">
<path fill-rule="evenodd" clip-rule="evenodd" d="M20.2474 12.2364C20.2301 12.1995 20.2223 12.1809 20.213 12.1632C19.963 11.6877 19.7137 11.2122 19.4612 10.7368C19.4359 10.6891 19.4391 10.661 19.4738 10.6199C19.8715 10.1553 20.2641 9.68821 20.6624 9.2256C20.6765 9.20928 20.689 9.192 20.6943 9.16289C20.5786 9.19303 20.463 9.22284 20.3467 9.25349C19.8667 9.3807 19.3829 9.50728 18.9075 9.63642C18.8628 9.64844 18.8426 9.63539 18.8201 9.59826C18.5476 9.14272 18.2733 8.68589 17.9977 8.23613C17.9836 8.21255 17.9682 8.18968 17.9382 8.16995C17.9161 8.29139 17.8937 8.41218 17.872 8.53362C17.7955 8.96217 17.7191 9.38816 17.6432 9.81864C17.635 9.86484 17.6237 9.91116 17.6197 9.95742C17.6159 10.0016 17.5931 10.0179 17.5528 10.0307C16.9868 10.2086 16.422 10.3879 15.8566 10.5672C15.8318 10.5749 15.8075 10.5852 15.7808 10.6093C16.2434 10.7931 16.706 10.9768 17.175 11.1638C17.158 11.1774 17.1467 11.1879 17.1341 11.1959C16.845 11.3829 16.5552 11.5699 16.2667 11.7575C16.2321 11.7801 16.2047 11.7833 16.1659 11.7658C15.8202 11.6103 15.4719 11.4574 15.125 11.3032C14.9695 11.2338 14.8301 11.1419 14.7215 11.0083C14.4754 10.7076 14.5242 10.3657 14.8519 10.1537C14.9592 10.085 15.0813 10.0342 15.2027 9.99437C15.7572 9.81382 16.3143 9.6397 16.8668 9.46494C16.9135 9.45009 16.9349 9.42928 16.9439 9.37884C17.0185 8.94964 17.0949 8.51787 17.1727 8.09382C17.2141 7.86444 17.2359 7.62992 17.3474 7.41918C17.3902 7.33822 17.4412 7.25919 17.5029 7.19173C17.7239 6.94629 18.0317 6.93729 18.2675 7.17065C18.3465 7.24968 18.414 7.34221 18.4725 7.43794C18.7295 7.8575 18.9826 8.27963 19.2371 8.70369C19.2669 8.75361 19.2938 8.76363 19.3489 8.74911C19.9689 8.5827 20.5889 8.41886 21.2121 8.25502C21.3406 8.22116 21.4698 8.20889 21.6015 8.2335C21.8874 8.28695 22.0127 8.50464 21.9157 8.78156C21.8718 8.90749 21.7955 9.01351 21.7101 9.11438C21.277 9.62389 20.8427 10.136 20.4122 10.6436C20.3768 10.6852 20.3761 10.7149 20.4007 10.7618C20.6602 11.2507 20.9172 11.7384 21.1781 12.2331C21.2398 12.3501 21.2873 12.4721 21.2886 12.6064C21.2916 12.9123 21.0676 13.1629 20.7637 13.2078C20.5934 13.2327 20.4353 13.1963 20.2754 13.1471C19.8866 13.027 19.4979 12.9087 19.106 12.7912C19.0698 12.7804 19.056 12.766 19.0495 12.7272C19.0048 12.4528 18.9557 12.1791 18.9082 11.9047C18.9069 11.8972 18.9092 11.8892 18.9105 11.8724C19.3545 11.9951 19.7971 12.1159 20.2533 12.2425" fill="#E25A1C"/>
<path fill-rule="evenodd" clip-rule="evenodd" d="M19.4763 16.2521C19.1255 16.2515 18.776 16.2498 18.4226 16.2513C18.3762 16.2513 18.35 16.238 18.3243 16.1986C17.9092 15.5664 17.489 14.9329 17.0778 14.3032C17.0645 14.2831 17.0505 14.2638 17.0269 14.2299C16.9376 14.911 16.8495 15.5792 16.7615 16.2474H15.8427C15.8535 16.1581 15.8631 16.0714 15.8744 15.9853C15.9637 15.2978 16.0543 14.6167 16.1443 13.9293C16.2304 13.2739 16.3158 12.6185 16.4032 11.9632C16.4057 11.9438 16.4187 11.919 16.4345 11.9087C16.7507 11.7024 17.0681 11.4981 17.3855 11.2938C17.39 11.2908 17.3965 11.2905 17.4128 11.2858C17.3171 12.0182 17.222 12.7443 17.1263 13.4703C17.1301 13.4728 17.1338 13.4756 17.1376 13.4781C17.6355 12.9268 18.1335 12.373 18.6411 11.814C18.6556 11.8988 18.6684 11.9714 18.681 12.044C18.7166 12.2515 18.751 12.4603 18.7889 12.6679C18.7967 12.7098 18.7854 12.7353 18.7575 12.7649C18.4356 13.1016 18.115 13.4395 17.7938 13.7801C17.7797 13.7949 17.7664 13.8102 17.7503 13.8278C17.7606 13.8441 17.7694 13.8599 17.7797 13.8744C18.3329 14.6519 18.8848 15.4293 19.4374 16.2068C19.4474 16.2208 19.4619 16.2319 19.4743 16.2444V16.2567" fill="#F6F6F6"/>
<path fill-rule="evenodd" clip-rule="evenodd" d="M8.61788 14.1961C8.60381 14.1248 8.59379 14.0194 8.56192 13.9211C8.40772 13.4463 7.92134 13.1886 7.41825 13.3036C6.86505 13.4321 6.46733 13.8671 6.41593 14.4344C6.37352 14.8521 6.5984 15.2569 7.01604 15.4046C7.35271 15.5261 7.67782 15.4753 7.9798 15.2948C8.3788 15.0558 8.59469 14.7004 8.62232 14.1961H8.61788ZM6.18919 15.963C6.16207 16.1673 6.13599 16.3594 6.1108 16.5522C6.0772 16.8079 6.04334 17.0642 6.01121 17.3232C6.00749 17.3531 5.99843 17.3664 5.9663 17.3661C5.71379 17.3651 5.46129 17.3654 5.20814 17.3649C5.20235 17.3649 5.19657 17.3619 5.18301 17.3579C5.19831 17.2371 5.21315 17.1156 5.22895 16.9949C5.28466 16.5708 5.34011 16.1467 5.39665 15.7227C5.46154 15.2369 5.5123 14.7525 5.59519 14.2706C5.74168 13.4161 6.469 12.6836 7.31712 12.4973C7.80992 12.3906 8.28089 12.44 8.71137 12.7177C9.14057 12.9939 9.38601 13.3987 9.44383 13.8999C9.5235 14.6131 9.26072 15.2042 8.75634 15.6989C8.42352 16.0208 8.02388 16.2251 7.5677 16.2945C7.09417 16.3658 6.64891 16.287 6.25055 16.008C6.23596 15.9977 6.22016 15.9887 6.1951 15.9729" fill="#F6F6F6"/>
<path fill-rule="evenodd" clip-rule="evenodd" d="M5.76512 11.9152C5.48241 12.1259 5.20934 12.3289 4.93628 12.5326C4.89214 12.4632 4.85275 12.3938 4.80649 12.3289C4.68762 12.1625 4.53985 12.0385 4.32525 12.0237C4.14663 12.0112 3.99371 12.0699 3.87228 12.2017C3.76369 12.3193 3.74956 12.487 3.85095 12.62C3.96274 12.7665 4.08482 12.9053 4.21011 13.0408C4.41764 13.2657 4.63417 13.4816 4.83977 13.7091C5.02674 13.9147 5.17645 14.1447 5.22271 14.4287C5.27771 14.7628 5.21095 15.0776 5.05309 15.3732C4.76074 15.9161 4.30135 16.2341 3.69096 16.3305C3.42239 16.3739 3.15511 16.3654 2.89425 16.2883C2.54665 16.1861 2.30442 15.958 2.14893 15.6394C2.094 15.5256 2.05191 15.4055 2.00244 15.2834C2.30635 15.1208 2.60255 14.9621 2.90196 14.8022C2.91224 14.827 2.91975 14.8478 2.92933 14.8677C2.98054 14.9699 3.02249 15.0784 3.08546 15.1729C3.27371 15.4524 3.57698 15.5372 3.88217 15.3991C3.9612 15.3634 4.03766 15.3136 4.10255 15.2558C4.30045 15.0797 4.33771 14.8343 4.19122 14.6133C4.10705 14.486 4.00168 14.3717 3.89888 14.258C3.65344 13.9855 3.39772 13.7215 3.15999 13.442C2.99486 13.2505 2.88242 13.0282 2.84644 12.7738C2.80757 12.4936 2.86353 12.2302 3.009 11.9963C3.37073 11.411 3.89567 11.1096 4.58958 11.1289C4.98601 11.1432 5.30276 11.3287 5.54692 11.6371C5.61952 11.7284 5.68763 11.8228 5.76152 11.9218" fill="#F6F6F6"/>
<path fill-rule="evenodd" clip-rule="evenodd" d="M12.7228 14.6106C12.6766 14.9633 12.6328 15.2981 12.5878 15.6322C12.5853 15.6493 12.572 15.6723 12.5577 15.6789C11.8702 15.9963 10.9707 15.952 10.4117 15.3133C10.1097 14.9702 9.98315 14.5616 10.0018 14.1118C10.0457 13.0645 10.9142 12.1457 11.955 12.0172C12.5622 11.9427 13.0923 12.1065 13.5035 12.5788C13.7836 12.9 13.9134 13.2855 13.8941 13.7096C13.8816 13.9897 13.8376 14.2679 13.8029 14.5449C13.7534 14.9394 13.6994 15.3351 13.6474 15.7271C13.6454 15.7408 13.6426 15.7549 13.6394 15.7728H12.8234C12.8342 15.6822 12.8442 15.5935 12.8558 15.5048C12.915 15.0493 12.9804 14.5925 13.0325 14.1363C13.0648 13.8523 13.0445 13.5702 12.9142 13.3074C12.7761 13.028 12.5448 12.8795 12.2396 12.8474C11.6086 12.7806 11.006 13.2188 10.8775 13.8369C10.7888 14.2468 10.9287 14.64 11.2553 14.8585C11.5733 15.0699 11.9106 15.0705 12.2576 14.9336C12.4336 14.8642 12.5827 14.7537 12.7253 14.6053" fill="#F6F6F6"/>
<path fill-rule="evenodd" clip-rule="evenodd" d="M15.9425 12.5448C15.9051 12.8288 15.868 13.1083 15.8307 13.3929C15.6572 13.3929 15.4876 13.392 15.318 13.3932C15.1805 13.3942 15.0552 13.4832 15.0134 13.6117C14.9974 13.6618 14.9914 13.7157 14.9843 13.7684C14.8982 14.4238 14.8128 15.0727 14.7273 15.7217C14.7057 15.8861 14.6849 16.0506 14.6633 16.2177H13.8088C13.8246 16.0924 13.8396 15.971 13.8554 15.8495C13.9109 15.4267 13.9666 15.0014 14.0225 14.5838C14.0709 14.2182 14.1144 13.8513 14.1716 13.4851C14.248 12.9968 14.7337 12.5599 15.2253 12.5406C15.4604 12.5303 15.6962 12.5389 15.9384 12.5389" fill="#F6F6F6"/>
<path d="M20.5043 16.2522V15.8924H20.5024L20.361 16.2522H20.3161L20.1747 15.8924H20.1725V16.2522H20.1018V15.821H20.2117L20.3402 16.1487L20.4668 15.821H20.576V16.2522H20.5043ZM19.8785 15.8789V16.2522H19.8079V15.8789H19.6729V15.8211H20.0141V15.8789H19.8792" fill="#F6F6F6"/>
<path d="M6.90236 11.3111H7.11375L7.06376 10.9912L6.90236 11.3111ZM7.14716 11.518H6.79571L6.68391 11.7371H6.43462L6.98396 10.7091H7.22426L7.41123 11.7371H7.18057L7.14742 11.518" fill="#F6F6F6"/>
<path d="M8.40584 10.9193H8.28055L8.2384 11.1564H8.36369C8.43951 11.1564 8.49926 11.1067 8.49926 11.0131C8.49926 10.9511 8.46161 10.9193 8.40545 10.9193H8.40584ZM8.10258 10.7124H8.43154C8.60373 10.7124 8.72388 10.8152 8.72388 10.9912C8.72388 11.2135 8.56711 11.3626 8.34352 11.3626H8.20152L8.1347 11.7385H7.9201L8.10129 10.7104" fill="#F6F6F6"/>
<path d="M9.45313 11.3111H9.66452L9.6146 10.9912L9.45313 11.3111ZM9.69729 11.518H9.34583L9.23404 11.7371H8.98474L9.53409 10.7091H9.77439L9.96136 11.7371H9.7307L9.69755 11.518" fill="#F6F6F6"/>
<path d="M11.0594 11.7031C10.9868 11.7362 10.9071 11.756 10.8268 11.756C10.555 11.756 10.3848 11.5524 10.3848 11.2973C10.3848 10.9709 10.6591 10.6965 10.9855 10.6965C11.0671 10.6965 11.141 10.7161 11.2014 10.7492L11.1713 10.9953C11.1261 10.9454 11.0531 10.9105 10.9631 10.9105C10.7761 10.9105 10.6097 11.0795 10.6097 11.2754C10.6097 11.4245 10.7035 11.5414 10.8513 11.5414C10.9419 11.5414 11.0293 11.5065 11.0884 11.4586L11.0598 11.7027" fill="#F6F6F6"/>
<path d="M12.4087 11.324H11.9622L11.8896 11.7371H11.6756L11.8568 10.7091H12.0714L11.9994 11.1152H12.446L12.5186 10.7091H12.7332L12.552 11.7371H12.3374L12.4093 11.324" fill="#F6F6F6"/>
<path d="M13.1797 11.7353L13.3609 10.7073H13.9302L13.894 10.9142H13.5393L13.5031 11.1133H13.8289L13.7927 11.3202H13.467L13.4308 11.5271H13.7855L13.7493 11.734H13.18" fill="#F6F6F6"/>
</g>
<defs>
<clipPath id="clip0_10449_80964">
<rect width="20" height="10.3865" fill="white" transform="translate(2 7)"/>
</clipPath>
</defs>
</svg>
