<svg id="brand/sonar-project"
  xmlns="http://www.w3.org/2000/svg" fill="none" viewBox="0 0 24 24">
  <g clip-path="url(#a)">
    <path fill="#44B7C9" fill-rule="evenodd" d="M18.3536 20.3536c.0937-.0938.1464-.221.1464-.3536V10H14c-.5304 0-1.0391-.21071-1.4142-.58579C12.2107 9.03914 12 8.53043 12 8V3.5H6c-.13261 0-.25979.05268-.35355.14645C5.55268 3.74021 5.5 3.86739 5.5 4v14c-.5628 0-1.08217.186-1.5.4998V4c0-.53043.21071-1.03914.58579-1.41421C4.96086 2.21071 5.46957 2 6 2h6.172c.0279 0 .0551.00371.0822.00741.0196.00267.0391.00533.0588.00659.2141.01185.4249.05846.624.138.0574.02448.1118.05597.166.08733.0167.00964.0333.01926.05.02867.0155.00847.0315.01626.0475.02407.0276.01341.0552.02687.0805.04393.077.05493.1502.11507.219.18.0115.0102.0238.01967.0363.0292.0168.01288.0337.02585.0487.0408l5.829 5.828c.3751.37499.5859.88361.586 1.414V20c0 .5304-.2107 1.0391-.5858 1.4142S18.5304 22 18 22H7.50018C7.81403 21.5822 8 21.0628 8 20.5h10c.1326 0 .2598-.0527.3536-.1464ZM17.378 8.5 13.5 4.621V8c0 .13261.0527.25979.1464.35355.0938.09377.221.14645.3536.14645h3.378Z" clip-rule="evenodd"/>
    <path fill="#fff" fill-rule="evenodd" d="M5.91962 14.4751c-.18958-.2114-.40763-.3971-.6488-.5512l.6488.5512Zm-.6488-.5512c.23304.1492.4445.3278.62956.5306.12152.1333.23165.2769.32903.4296.03701.058.07218.1174.10543.1779.19605.357.32054.7475.36787 1.1497-.04647-.3976-.16849-.784-.36077-1.1378-.03338-.0615-.06875-.1217-.106-.1806.03476.0551.06747.1115.0989.1687" clip-rule="evenodd"/>
    <path fill="#fff" d="M8.81036 12.304c-.25389-.3109-.5356-.5993-.84217-.8614.27135.2321.52322.4848.75356.7554.02957.0347.05975.0707.08861.106ZM6.20203 18.3136c.04017-.0608.07831-.123.1143-.1867.00182-.0032.00364-.0065.00545-.0097"/>
    <path fill="#fff" fill-rule="evenodd" d="M6.20203 18.3136c-.25319.3831-.58809.7067-.98101.9477.00055-.0003.00132-.0008.00187-.0012m0 0c.39176-.2415.72525-.5651.97798-.9476.04009-.0607.07815-.1229.11409-.1864" clip-rule="evenodd"/>
    <path fill="#fff" d="M6.71965 16.7426c0-.0001 0 0 0 0Z"/>
    <path fill="#fff" fill-rule="evenodd" d="M1.78207 15.017c.29756-.2976.67384-.5035 1.08417-.594.0584-.082.12368-.1592.1953-.2309l.00206-.002 1.23845-1.2334 3.42114-3.42235c.32457-.32325.75839-.51329 1.21607-.53271.45767-.01941.90689.13392 1.25764.42852 1.6921 1.42344 2.828 3.39814 3.2076 5.57654l.0018.0105.0017.0106c.0808.5112.1219 1.0279.123 1.5454v.003c-.0002.9029-.1235 1.8015-.3665 2.671l-.0027.0095-.0028.0095c-.522 1.7683-1.5528 3.3443-2.9636 4.5313-.35071.2948-.79915.4476-1.25691.4281-.45776-.0194-.89162-.2097-1.21601-.5333l-.00127-.0012-2.7035-2.7056-.00528.0032-1.96332-1.9635c-.09255-.095-.17401-.1992-.24336-.3106-.24443-.0611-.47787-.1641-.68959-.3056-.36256-.2422-.64514-.5865-.812-.9894-.16687-.4028-.21053-.8461-.12546-1.2738.08507-.4277.29504-.8205.60337-1.1288Zm2.39996 1.5589c0-.1598-.04556-.3163-.13116-.451l.13116.451Zm-.48831-.7635c.1053.0487.19913.1185.27581.2047-.0841-.0946-.18882-.1694-.30668-.2182.01039.0043.02068.0088.03087.0135Zm.7773.0088.01726.0266c-.00566-.0089-.01141-.0178-.01726-.0266Zm.22839.7633c-.00162.2607-.078.5156-.22008.7342-.05149.0791-.11082.1524-.17686.2187-.07262.0729-.15335.1374-.24066.1923-.0524.0329-.10716.0623-.16397.0879.01316.0843.04889.1631.10308.2284.00792.0095.01623.0187.02493.0277l1.1905 1.1905c.00156-.001.00311-.0019.00467-.0029l1.21528 1.2138 1.36844 1.371.88071.8807c.01526.0153.03147.0293.04849.0422.06008.0454.13027.0756.20457.0881.01907.0032.0384.0053.0579.0061.10243.0044.20303-.025.28666-.0829.01194-.0083.02354-.0172.03475-.0266 1.13068-.9513 1.97568-2.1948 2.44458-3.5921.0313-.0932.0609-.187.0888-.2815.1965-.7032.3023-1.4285.3149-2.1582.0008-.0486.0012-.0973.0012-.146-.0007-.3912-.028-.7819-.0816-1.1693-.0077-.0553-.0159-.1106-.0246-.1658-.284-1.6294-1.0628-3.1255-2.22218-4.2893-.16562-.1663-.339-.3257-.51982-.4778-.08988-.0755-.20477-.1146-.32204-.1096-.05313.0022-.105.0134-.15358.0327-.05865.0233-.11254.0585-.15803.1038L5.26628 13.921" clip-rule="evenodd"/>
    <path fill="#44B7C9" d="M3.34103 17.4169c-.16634 0-.32895-.0493-.46726-.1417-.1383-.0924-.2461-.2238-.30975-.3775-.06366-.1536-.08031-.3227-.04786-.4859.03245-.1631.11255-.313.23017-.4306.11762-.1176.26748-.1977.43062-.2302.16314-.0324.33225-.0158.48592.0479.15368.0636.28503.1714.37745.3097.09241.1383.14173.301.14173.4673-.00033.2229-.08905.4367-.2467.5943-.15765.1577-.37137.2464-.59432.2467Z"/>
    <path fill="#C5E8ED" d="M9.31913 10.4737c-.08989-.0755-.20478-.1146-.32205-.1096-.11728.0049-.22844.0536-.31161.1365l-.83975.8397c.78073.6363 1.40929 1.4391 1.83969 2.3497.43039.9106.65169 1.9059.64779 2.913-.0039 1.0072-.233 2.0007-.67049 2.9079-.43748.9072-1.07229 1.7051-1.85795 2.3352l.88071.8808c.08296.0827.1939.1313.31096.1363.11706.005.23174-.0341.32141-.1095 1.20606-1.0147 2.08706-2.3618 2.53336-3.8736.2096-.7501.316-1.5253.3162-2.3042-.0009-.4471-.0365-.8935-.1063-1.3351-.3245-1.8622-1.2955-3.5503-2.74197-4.7671Z"/>
    <path fill="#83CDD9" d="M10.333 16.576c-.0002-1.0026-.2235-1.9926-.65368-2.8981-.4302-.9056-1.05655-1.7041-1.83361-2.3376l-1.36715 1.3685c.6034.4533 1.09235 1.0416 1.42775 1.7177.33541.6761.50795 1.4214.50385 2.1761-.00411.7547-.18475 1.498-.52749 2.1704-.34273.6725-.83805 1.2554-1.44635 1.7022l1.36843 1.3697c.78879-.6331 1.42544-1.4352 1.863-2.3471.43755-.9119.66485-1.9104.66525-2.9218Z"/>
    <path fill="#5EBFCE" d="M8.41152 16.5759c-.0002-.7503-.17494-1.4903-.51042-2.1615-.33548-.6712-.8225-1.2551-1.42254-1.7057L5.2663 13.921c.45052.2869.82068.6836 1.07567 1.1529.25498.4693.38641.9957.38193 1.5298-.00448.5341-.14472 1.0583-.40755 1.5232-.26282.465-.63958.8554-1.09485 1.1347l1.21482 1.2135c.61193-.4495 1.10956-1.0366 1.45268-1.714.34312-.6773.52212-1.4259.52252-2.1852Z"/>
    <path fill="#44B7C9" d="M6.72434 16.576c-.00074-.5294-.13468-1.05-.38948-1.514-.2548-.464-.62228-.8563-1.06856-1.141l-1.24042 1.2353c-.05192.0519-.09056.1156-.11265.1856.23623.1102.43588.2859.57524.5062.13936.2203.21258.476.21096.7366-.00161.2607-.078.5154-.22008.734-.14209.2185-.3439.3917-.58148.499.01508.0965.05981.186.12801.256l1.19049 1.1905c.45999-.282.84009-.6772 1.10406-1.1478.26397-.4705.40303-1.0009.40391-1.5404Z"/>
  </g>
  <defs>
    <clipPath id="a">
      <path fill="#fff" d="M0 0h24v24H0z"/>
    </clipPath>
  </defs>
</svg>
