<svg viewBox="0 0 24 24" fill="none" xmlns="http://www.w3.org/2000/svg">
  <path fill-rule="evenodd" clip-rule="evenodd"
    d="M4 2C2.89543 2 2 2.89543 2 4V20C2 21.1046 2.89543 22 4 22H12.8096C11.6888 20.8321 11 19.2465 11 17.5C11 13.9101 13.9101 11 17.5 11C19.2465 11 20.8321 11.6888 22 12.8096V4C22 2.89543 21.1046 2 20 2H4Z"
    fill="#3ACBAC" />
  <path fill-rule="evenodd" clip-rule="evenodd"
    d="M4.33325 4.99992C4.33325 4.63173 4.63173 4.33325 4.99992 4.33325H18.9999C19.3681 4.33325 19.6666 4.63173 19.6666 4.99992V11.3698C19.3966 11.2744 19.1183 11.1963 18.8333 11.1369V8.83325H16.1666V11.1369C15.8225 11.2086 15.4884 11.3076 15.1666 11.4314V8.83325H12.4999V11.4999H14.9958C14.395 11.751 13.8399 12.0896 13.3465 12.4999H12.4999V13.3465C12.0896 13.8399 11.751 14.395 11.4999 14.9958V12.4999H8.83325V15.1666H11.4314C11.3076 15.4884 11.2086 15.8225 11.1369 16.1666H8.83325V18.8333H11.1369C11.1963 19.1183 11.2744 19.3966 11.3698 19.6666H4.99992C4.63173 19.6666 4.33325 19.3681 4.33325 18.9999V4.99992ZM7.83325 5.16659H5.16659V7.83325H7.83325V5.16659ZM11.4999 5.16659H8.83325V7.83325H11.4999V5.16659ZM15.1666 5.16659H12.4999V7.83325H15.1666V5.16659ZM18.8333 5.16659H16.1666V7.83325H18.8333V5.16659ZM7.83325 8.83325H5.16659V11.4999H7.83325V8.83325ZM11.4999 8.83325H8.83325V11.4999H11.4999V8.83325ZM7.83325 12.4999H5.16659V15.1666H7.83325V12.4999ZM7.83325 16.1666H5.16659V18.8333H7.83325V16.1666Z"
    fill="white" />
  <path
    d="M22.1555 14.6099C22.1935 14.623 22.2045 14.6595 22.2222 14.6892C22.6126 15.3462 22.8594 16.0528 22.9505 16.8122C23.1062 18.111 22.8514 19.3244 22.1483 20.4275C21.3002 21.7584 20.0942 22.6033 18.5419 22.893C16.7299 23.2311 15.1182 22.7668 13.7553 21.522C12.806 20.6549 12.2429 19.5669 12.0598 18.2916C11.8748 17.0036 12.1204 15.7977 12.7799 14.6761C12.7945 14.6512 12.8068 14.6242 12.8351 14.6108C12.865 14.5882 12.8999 14.5834 12.9358 14.5833C13.4225 14.5823 13.9091 14.5814 14.3958 14.5839C14.4151 14.584 14.4344 14.5864 14.4529 14.5915C14.5205 14.6178 14.4983 14.6662 14.4801 14.7113C14.4214 14.8576 14.3513 14.9989 14.2845 15.1415C14.1986 15.3249 14.1212 15.5122 14.0299 15.6931C14.0153 15.7221 14.0059 15.7528 14.0055 15.7856C14.0058 15.7952 14.0057 15.8048 14.0057 15.8144C14.0461 15.9921 14.1376 16.1493 14.209 16.3143C14.3393 16.616 14.4751 16.9153 14.6038 17.2176C14.6439 17.3118 14.6964 17.3924 14.7768 17.4572C15.138 17.7483 15.4912 18.0492 15.8489 18.3446C15.8836 18.3732 15.9202 18.4007 15.9343 18.4469C15.9342 18.5868 15.8977 18.7215 15.8758 18.8582C15.8268 19.1642 15.7744 19.4696 15.7239 19.7754C15.7166 19.82 15.7083 19.8646 15.7196 19.9095C15.7306 19.9528 15.7647 19.9791 15.794 20.0084C16.0099 20.2249 16.2193 20.4485 16.4441 20.6553C16.7571 20.943 17.0473 21.2532 17.3535 21.5474C17.4322 21.6231 17.5198 21.6895 17.5942 21.77C17.6075 21.7843 17.6223 21.7969 17.6444 21.7915C17.7007 21.7449 17.7296 21.6781 17.7675 21.6193C18.1512 21.023 18.5347 20.4267 18.9185 19.8305C18.9342 19.8061 18.9488 19.7811 18.9604 19.7543C18.9702 19.7361 18.983 19.7204 18.9985 19.7068C19.247 19.4539 19.4857 19.1917 19.7352 18.9398C19.7808 18.8937 19.7829 18.837 19.7828 18.7781C19.7826 18.3105 19.7826 17.8429 19.7828 17.3753C19.7828 17.3269 19.7805 17.2785 19.7866 17.2304C19.8029 17.1531 19.8645 17.1051 19.9123 17.0511C20.2532 16.6659 20.587 16.2745 20.9301 15.8913C20.9645 15.8528 20.9938 15.8105 21.0255 15.77C21.0304 15.7629 21.0359 15.7562 21.0417 15.7498C21.0536 15.737 21.0611 15.7224 21.0597 15.704C21.0175 15.5441 20.942 15.3973 20.8809 15.2451C20.8099 15.0687 20.739 14.8922 20.6656 14.7167C20.6477 14.6739 20.6215 14.6237 20.6881 14.5932C20.729 14.5809 20.7709 14.5827 20.8125 14.5827C21.2106 14.5824 21.6087 14.5823 22.0068 14.5828C22.0577 14.5829 22.1103 14.5767 22.1555 14.6099V14.6099Z"
    fill="#277ABD" />
  <path
    d="M22.1555 14.61C22.05 14.6239 21.944 14.6151 21.8384 14.6158C21.4469 14.6183 21.0554 14.6189 20.6639 14.6202C20.6304 14.6436 20.5918 14.645 20.5532 14.6451C20.2584 14.6457 19.9636 14.6459 19.6688 14.6449C19.6305 14.6448 19.5915 14.6449 19.5577 14.6218C19.5052 14.4808 19.5203 14.3378 19.5457 14.1946C19.5857 14.1495 19.6402 14.1598 19.6905 14.1595C19.915 14.1579 20.1395 14.1593 20.3852 14.1584C20.1975 14.041 20.0287 13.9343 19.8595 13.8281C19.8113 13.7979 19.7575 13.7907 19.7016 13.7907C18.4073 13.7907 17.1129 13.7905 15.8186 13.7909C15.7563 13.7909 15.6972 13.8029 15.6397 13.827C15.357 13.9456 15.0742 14.064 14.7909 14.1806C14.7362 14.2035 14.7124 14.2526 14.6849 14.3007C14.6245 14.4063 14.5929 14.5279 14.5075 14.6195C14.4977 14.6235 14.4886 14.6222 14.4803 14.6159C13.9575 14.616 13.4348 14.6162 12.912 14.616C12.8864 14.616 12.8607 14.6127 12.8351 14.6109C12.8995 14.462 13.0037 14.3388 13.0966 14.2083C13.2973 13.9264 13.5346 13.6765 13.7879 13.4428C14.0888 13.1652 14.4199 12.9271 14.7757 12.723C15.0755 12.5511 15.3891 12.4089 15.7151 12.2974C16.0124 12.1957 16.3174 12.1209 16.6295 12.0734C16.9543 12.0239 17.2805 11.9913 17.6076 12.002C18.3159 12.0253 19.002 12.1586 19.6558 12.4432C20.0981 12.6357 20.5129 12.8744 20.89 13.1732C21.2874 13.488 21.6405 13.8489 21.9384 14.2612C22.0023 14.3498 22.0615 14.4418 22.124 14.5315C22.1408 14.5557 22.1583 14.5785 22.1555 14.61Z"
    fill="#B7E0F2" />
  <path
    d="M13.9739 15.8176L13.9719 15.7927C14.0987 15.6832 14.2599 15.6391 14.4068 15.5693C14.7732 15.3952 15.1438 15.23 15.5119 15.0592C15.7894 14.9305 16.0682 14.8046 16.346 14.6766C16.4018 14.6509 16.4508 14.6139 16.5079 14.5913C16.8143 14.5741 17.1207 14.5847 17.427 14.5856C17.4626 14.5857 17.4982 14.593 17.5191 14.6284C17.5347 14.6615 17.5356 14.6971 17.5355 14.7325C17.534 15.222 17.5666 15.7109 17.5561 16.2006C17.5491 16.5322 17.5882 16.8632 17.5748 17.1951C17.5728 17.2433 17.5779 17.2919 17.5648 17.339C17.5614 17.3497 17.5557 17.3595 17.5482 17.3679C17.4902 17.3997 17.441 17.3631 17.3932 17.3419C17.0364 17.1836 16.6786 17.0276 16.3219 16.869C15.7353 16.6083 15.1467 16.3521 14.5611 16.0891C14.3645 16.0007 14.1606 15.9276 13.9739 15.8176H13.9739Z"
    fill="#B7E0F2" />
  <path
    d="M13.9739 15.8177C14.0795 15.8368 14.1722 15.8902 14.2685 15.9322C14.878 16.1987 15.4861 16.4681 16.0942 16.7377C16.5203 16.9266 16.9454 17.1176 17.3713 17.3068C17.4209 17.3289 17.4729 17.3456 17.5239 17.3649C17.5505 17.4164 17.5074 17.4326 17.4771 17.4524C17.0573 17.727 16.6324 17.9939 16.2111 18.2664C16.1222 18.3239 16.0362 18.3866 15.9423 18.4365C15.9324 18.4388 15.9237 18.4364 15.9159 18.4301C15.5103 18.0933 15.1049 17.7561 14.6984 17.4203C14.6674 17.3947 14.645 17.3663 14.6291 17.3302C14.4143 16.8416 14.1989 16.3533 13.9843 15.8647C13.9779 15.8503 13.9772 15.8334 13.9739 15.8177H13.9739Z"
    fill="#90D4F0" />
  <path
    d="M19.8097 17.2094C19.8098 17.7421 19.8088 18.2747 19.811 18.8074C19.8113 18.8733 19.7945 18.9216 19.7469 18.9695C19.5402 19.1775 19.3385 19.3906 19.133 19.5998C19.0894 19.6442 19.0726 19.718 18.9968 19.7282C18.975 19.7366 18.9599 19.7253 18.9458 19.7109C18.5015 18.9921 18.0596 18.2717 17.6185 17.5508C17.5931 17.5092 17.5586 17.4752 17.5321 17.4348C17.528 17.4127 17.5311 17.3927 17.5476 17.376C17.5618 17.3655 17.5778 17.36 17.5953 17.3586C17.9604 17.3247 18.3261 17.2978 18.6913 17.2661C19.0278 17.2368 19.3649 17.2147 19.7012 17.1824C19.7391 17.1788 19.7792 17.1778 19.8097 17.2094H19.8097Z"
    fill="#4E8AC8" />
  <path
    d="M15.9159 18.43L15.9353 18.4294C15.9753 18.4146 16.0116 18.4312 16.0479 18.4434C16.5213 18.6026 16.9907 18.7733 17.4659 18.9271C17.4844 18.9331 17.5024 18.9402 17.5145 18.957C17.5225 18.9728 17.5247 18.9896 17.524 19.0071C17.5119 19.42 17.5066 19.8328 17.5272 20.2455C17.528 20.2616 17.5291 20.2777 17.527 20.2937C17.5249 20.3052 17.5206 20.3159 17.5143 20.3258C17.4772 20.3596 17.4346 20.3444 17.3948 20.3358C16.8685 20.2212 16.3434 20.1007 15.8168 19.9875C15.7753 19.9785 15.7385 19.9579 15.6993 19.9433C15.6561 19.8934 15.6843 19.8386 15.6925 19.7877C15.7653 19.3414 15.8405 18.8954 15.9148 18.4493C15.9159 18.443 15.9156 18.4364 15.9159 18.43H15.9159Z"
    fill="#B7E0F2" />
  <path
    d="M19.5595 14.6163C19.9276 14.6176 20.2957 14.6189 20.6638 14.6201C20.692 14.7595 20.7648 14.8817 20.8153 15.0125C20.8924 15.2126 20.9794 15.4089 21.0605 15.6075C21.0774 15.6486 21.095 15.6909 21.0882 15.7377C21.0773 15.7484 21.0597 15.7452 21.0492 15.7567L21.0495 15.7564C21.0048 15.8061 20.9436 15.829 20.8854 15.8557C20.4935 16.0358 20.1019 16.2164 19.7135 16.4039C19.6816 16.4193 19.6497 16.4348 19.6148 16.4427C19.5803 16.4505 19.5501 16.4482 19.5371 16.4075C19.5259 16.3695 19.5271 16.3306 19.527 16.292C19.5267 15.7821 19.5267 15.2722 19.5271 14.7623C19.5271 14.7236 19.5251 14.6847 19.5374 14.647C19.5419 14.6347 19.5493 14.6245 19.5595 14.6163Z"
    fill="#4E8BC8" />
  <path
    d="M19.5604 16.4365C19.7305 16.3847 19.882 16.2911 20.0431 16.2191C20.3688 16.0738 20.6896 15.9178 21.0126 15.7665C21.024 15.7612 21.0372 15.7597 21.0495 15.7565C21.0437 15.8123 20.9997 15.8467 20.9678 15.8835C20.7198 16.1694 20.4668 16.4509 20.217 16.7354C20.0796 16.8919 19.9454 17.0513 19.8098 17.2094C19.586 17.2198 19.3631 17.24 19.1405 17.2645C19.0451 17.275 18.9489 17.2756 18.8529 17.2841C18.5535 17.3107 18.2537 17.3346 17.9542 17.3597C17.8301 17.3701 17.7055 17.3888 17.58 17.3838C17.5816 17.3333 17.6262 17.3253 17.6585 17.3099C18.1119 17.0937 18.5686 16.8848 19.0224 16.6695C19.1649 16.602 19.307 16.5333 19.4517 16.4702C19.4867 16.455 19.5187 16.4302 19.5604 16.4365V16.4365Z"
    fill="#256EA7" />
  <path
    d="M15.6993 19.9432C15.8216 19.9486 15.9379 19.9863 16.0563 20.0116C16.5377 20.1145 17.0182 20.2214 17.4991 20.3268C17.5392 20.3552 17.5353 20.4008 17.5399 20.4407C17.5753 20.7474 17.599 21.0552 17.6309 21.3623C17.6422 21.471 17.6489 21.5802 17.662 21.6888C17.6676 21.7344 17.6701 21.7786 17.6439 21.8194C17.6033 21.8527 17.5946 21.8039 17.5798 21.7895C17.2861 21.5054 16.9941 21.2193 16.702 20.9334C16.3915 20.6295 16.081 20.3255 15.7708 20.0213C15.7457 19.9966 15.7231 19.9693 15.6993 19.9432Z"
    fill="#90D3EF" />
  <path
    d="M16.477 14.6158C16.4782 14.6497 16.4503 14.6576 16.4279 14.6678C16.0797 14.8267 15.7311 14.9844 15.383 15.1433C15.1986 15.2276 15.0153 15.3141 14.8312 15.3988C14.5449 15.5305 14.2584 15.6615 13.9719 15.7928C13.9997 15.6591 14.0752 15.5454 14.1289 15.4228C14.2353 15.1793 14.3498 14.9394 14.4607 14.6979C14.4725 14.6721 14.4895 14.6469 14.4803 14.6158L14.5043 14.6124C14.5468 14.5842 14.5948 14.5824 14.6434 14.5824C15.2093 14.5823 15.7751 14.582 16.341 14.583C16.3882 14.583 16.4387 14.5758 16.477 14.6158Z"
    fill="#90D4F0" />
  <path
    d="M17.6439 21.8194C17.5956 21.3219 17.5474 20.8243 17.4991 20.3268C17.5035 20.3229 17.5064 20.318 17.5079 20.3123C17.5258 20.2864 17.5551 20.2802 17.5819 20.27C18.0114 20.1059 18.4392 19.9373 18.8681 19.7716C18.9029 19.7582 18.9386 19.7349 18.9768 19.7649C18.9294 19.8849 18.8465 19.9835 18.7781 20.0906C18.5198 20.4954 18.2577 20.8976 17.9977 21.3014C17.899 21.4547 17.8032 21.6099 17.7038 21.7628C17.6894 21.785 17.6805 21.8185 17.6439 21.8194Z"
    fill="#256EA7" />
  <path
    d="M18.9768 19.7649C18.8033 19.8131 18.6403 19.8898 18.4723 19.953C18.1748 20.0649 17.8796 20.183 17.583 20.2975C17.5596 20.3065 17.5331 20.3076 17.508 20.3124C17.4696 20.1077 17.4925 19.9011 17.4887 19.6953C17.485 19.4987 17.4879 19.3019 17.4879 19.1052C17.4879 19.0667 17.4841 19.0275 17.5037 18.9917C17.5419 18.9603 17.5776 18.9824 17.6112 18.9994C17.8979 19.1446 18.1832 19.2927 18.4684 19.4409C18.5967 19.5076 18.7259 19.5725 18.8542 19.6391C18.8915 19.6584 18.9289 19.6767 18.9578 19.7083C18.9708 19.7149 18.9838 19.7215 18.9969 19.7282C18.9902 19.7404 18.9835 19.7527 18.9768 19.7649Z"
    fill="#55AEDE" />
  <path
    d="M21.0493 15.7567C21.0577 15.7409 21.0722 15.7377 21.0883 15.7377C21.0801 15.7539 21.0653 15.7565 21.0493 15.7567Z"
    fill="#256EA7" />
  <path
    d="M16.477 14.6158C15.8581 14.6155 15.2392 14.6153 14.6203 14.6148C14.5816 14.6148 14.543 14.6133 14.5043 14.6125C14.5653 14.4901 14.6263 14.3678 14.6871 14.2453C14.7028 14.2137 14.7186 14.1824 14.7549 14.1693C14.8994 14.1508 15.0446 14.1563 15.1896 14.1563C16.5872 14.1562 17.9849 14.156 19.3825 14.1569C19.4422 14.1569 19.5063 14.1421 19.5586 14.1883C19.5589 14.331 19.5592 14.4737 19.5595 14.6164C19.5576 14.6205 19.5562 14.6246 19.5551 14.6289C19.5208 14.6677 19.474 14.6645 19.4293 14.6645C18.8298 14.6655 18.2302 14.6654 17.6306 14.6646C17.5858 14.6645 17.5393 14.6668 17.5047 14.6289C17.4865 14.6106 17.4632 14.6144 17.4411 14.6145C17.1197 14.6148 16.7984 14.6153 16.477 14.6158L16.477 14.6158Z"
    fill="#E9F6FD" />
  <path
    d="M19.5586 14.1883C17.9941 14.1881 16.4295 14.1881 14.865 14.187C14.8283 14.187 14.7871 14.2027 14.7549 14.1693C15.0155 14.0596 15.279 13.9562 15.5354 13.8375C15.6755 13.7726 15.8165 13.7606 15.966 13.7609C17.2073 13.7629 18.4486 13.7625 19.6899 13.761C19.7662 13.7609 19.8333 13.773 19.8985 13.8158C20.0827 13.9364 20.2699 14.0524 20.4519 14.1883H19.5586Z"
    fill="#FEFEFE" />
  <path
    d="M17.5047 14.6288C18.1882 14.6288 18.8717 14.6288 19.5552 14.6289C19.5561 15.1444 19.557 15.66 19.5581 16.1755C19.5583 16.2625 19.5596 16.3495 19.5604 16.4365C19.4076 16.5327 19.2381 16.595 19.0762 16.6727C18.6996 16.8536 18.3195 17.0271 17.9415 17.2051C17.8199 17.2623 17.692 17.307 17.58 17.3837L17.5466 17.386C17.5352 17.3809 17.5336 17.3736 17.5418 17.3642C17.5419 17.1287 17.5548 16.8923 17.5392 16.6578C17.5118 16.2452 17.5399 15.8325 17.5202 15.4206C17.5075 15.1565 17.5068 14.8928 17.5047 14.6288L17.5047 14.6288Z"
    fill="#69C1EA" />
  <path
    d="M17.5418 17.3644L17.5465 17.3861L17.5499 17.4408C17.5955 17.5502 17.5727 17.6634 17.5668 17.7751C17.564 17.8265 17.5532 17.8776 17.5555 17.9294C17.5685 18.2329 17.5282 18.5353 17.5347 18.8387C17.5356 18.8795 17.5392 18.9242 17.499 18.9536C17.3391 18.9312 17.1914 18.8666 17.0417 18.813C16.8397 18.7407 16.635 18.6771 16.4329 18.6053C16.2672 18.5464 16.1012 18.4881 15.9354 18.4296C16.0528 18.3184 16.1986 18.2486 16.3322 18.1614C16.7107 17.9139 17.0928 17.6719 17.4742 17.4288C17.4997 17.4125 17.5247 17.3999 17.5238 17.3649C17.5298 17.3648 17.5358 17.3646 17.5418 17.3644Z"
    fill="#ABDCF1" />
  <path
    d="M17.499 18.9535C17.501 18.8924 17.5041 18.8313 17.5046 18.7702C17.507 18.4646 17.5246 18.1595 17.5309 17.8539C17.5337 17.7169 17.5333 17.5779 17.55 17.4407C17.6343 17.4789 17.6537 17.568 17.6963 17.6363C18.0038 18.1295 18.3067 18.6256 18.6113 19.1206C18.7191 19.2957 18.8278 19.4701 18.935 19.6455C18.9463 19.6641 18.9503 19.6872 18.9577 19.7083C18.7954 19.647 18.6455 19.5599 18.4912 19.4822C18.4569 19.465 18.4252 19.4428 18.3911 19.4253C18.1315 19.292 17.8717 19.1592 17.6119 19.0263C17.5777 19.0088 17.545 18.987 17.5037 18.9917C17.5022 18.979 17.5006 18.9662 17.499 18.9535Z"
    fill="#54A4D7" />
</svg>