<!--

    Copyright (C) 2017-2019 Dremio Corporation

    Licensed under the Apache License, Version 2.0 (the "License");
    you may not use this file except in compliance with the License.
    You may obtain a copy of the License at

        http://www.apache.org/licenses/LICENSE-2.0

    Unless required by applicable law or agreed to in writing, software
    distributed under the License is distributed on an "AS IS" BASIS,
    WITHOUT WARRANTIES OR CONDITIONS OF ANY KIND, either express or implied.
    See the License for the specific language governing permissions and
    limitations under the License.

-->
<svg id="settings/authentication" viewBox="0 0 24 24" fill="none" xmlns="http://www.w3.org/2000/svg">
<path d="M18 9.99991C18.7702 9.99952 19.5242 10.2215 20.1713 10.6392C20.8184 11.0569 21.3311 11.6526 21.6479 12.3546C21.9648 13.0567 22.0721 13.8352 21.9572 14.5968C21.8423 15.3584 21.5099 16.0706 21 16.6479V21.2479C21.0003 21.3763 20.9675 21.5026 20.905 21.6148C20.8424 21.7269 20.7521 21.8211 20.6427 21.8883C20.5334 21.9556 20.4085 21.9936 20.2802 21.9988C20.1519 22.004 20.0245 21.9761 19.91 21.9179L19.82 21.8629L18 20.5909L16.18 21.8629C16.0749 21.9363 15.9527 21.9815 15.8252 21.9943C15.6976 22.007 15.5689 21.9868 15.4514 21.9357C15.3338 21.8845 15.2313 21.8041 15.1537 21.7021C15.0761 21.6001 15.0259 21.4798 15.008 21.3529L15.001 21.2479V16.6459C14.4918 16.0686 14.16 15.3567 14.0454 14.5955C13.9308 13.8344 14.0382 13.0563 14.3548 12.3547C14.6714 11.653 15.1837 11.0577 15.8303 10.64C16.4769 10.2223 17.2302 10.0001 18 9.99991ZM19.5 17.7099C19.0234 17.9026 18.5141 18.0014 18 18.0009C17.4859 18.0014 16.9766 17.9026 16.5 17.7099V19.8089L17.571 19.0619C17.6806 18.9851 17.8089 18.939 17.9423 18.9284C18.0758 18.9179 18.2096 18.9433 18.33 19.0019L18.43 19.0619L19.5 19.8089V17.7099ZM19.25 3.00391C19.9503 3.00387 20.6242 3.271 21.1343 3.7508C21.6444 4.2306 21.9522 4.88693 21.995 5.58591L22 5.75391L22.001 10.9999C21.5955 10.46 21.0853 10.0073 20.501 9.66891L20.5 5.75391C20.5001 5.44445 20.3855 5.14594 20.1782 4.91614C19.971 4.68634 19.6858 4.54159 19.378 4.50991L19.25 4.50391H4.75C4.44054 4.50377 4.14203 4.61842 3.91223 4.82568C3.68244 5.03294 3.53769 5.31807 3.506 5.62591L3.5 5.75391V15.2539C3.5 15.9009 3.992 16.4339 4.622 16.4969L4.75 16.5039L13.672 16.5049L13.795 16.7079L13.929 16.9039L14 16.9979L13.999 18.0039H4.75C4.04955 18.0039 3.37549 17.7367 2.86538 17.2566C2.35526 16.7766 2.04754 16.1201 2.005 15.4209L2 15.2539V5.75391C1.99997 5.05362 2.26709 4.3797 2.74689 3.86961C3.22669 3.35952 3.88302 3.05169 4.582 3.00891L4.75 3.00391H19.25ZM18 11.4999C17.3368 11.4999 16.7008 11.7634 16.2319 12.2323C15.7629 12.7012 15.4995 13.3372 15.4995 14.0004C15.4995 14.6636 15.7629 15.2996 16.2319 15.7685C16.7008 16.2375 17.3368 16.5009 18 16.5009C18.6632 16.5009 19.2992 16.2375 19.7681 15.7685C20.2371 15.2996 20.5005 14.6636 20.5005 14.0004C20.5005 13.3372 20.2371 12.7012 19.7681 12.2323C19.2992 11.7634 18.6632 11.4999 18 11.4999ZM11.25 12.4999C11.44 12.5 11.6229 12.5722 11.7618 12.7019C11.9006 12.8316 11.9851 13.0092 11.998 13.1988C12.011 13.3884 11.9515 13.5758 11.8316 13.7232C11.7117 13.8706 11.5402 13.967 11.352 13.9929L11.25 13.9999H6.75C6.55998 13.9998 6.37706 13.9277 6.23821 13.7979C6.09936 13.6682 6.01493 13.4906 6.00197 13.301C5.98902 13.1114 6.04852 12.924 6.16843 12.7766C6.28835 12.6292 6.45975 12.5328 6.648 12.5069L6.75 12.4999H11.25ZM17.25 6.99991C17.44 6.99996 17.6229 7.07215 17.7618 7.20188C17.9006 7.33161 17.9851 7.50921 17.998 7.69879C18.011 7.88837 17.9515 8.0758 17.8316 8.22321C17.7117 8.37061 17.5402 8.46701 17.352 8.49291L17.25 8.49991H6.75C6.55998 8.49985 6.37706 8.42766 6.23821 8.29793C6.09936 8.16821 6.01493 7.99061 6.00197 7.80103C5.98902 7.61144 6.04852 7.42401 6.16843 7.27661C6.28835 7.1292 6.45975 7.03281 6.648 7.00691L6.75 6.99991H17.25Z" fill="currentColor"/>
</svg>
