<!--

    Copyright (C) 2017-2019 Dremio Corporation

    Licensed under the Apache License, Version 2.0 (the "License");
    you may not use this file except in compliance with the License.
    You may obtain a copy of the License at

        http://www.apache.org/licenses/LICENSE-2.0

    Unless required by applicable law or agreed to in writing, software
    distributed under the License is distributed on an "AS IS" BASIS,
    WITHOUT WARRANTIES OR CONDITIONS OF ANY KIND, either express or implied.
    See the License for the specific language governing permissions and
    limitations under the License.

-->
<svg id="settings/external-token-providers" viewBox="0 0 24 24" fill="none" xmlns="http://www.w3.org/2000/svg">
<path d="M13 2.00415C14.5977 2.00415 15.9037 3.25307 15.994 4.82318L15.999 4.99891L18.25 4.99991C19.1172 4.99991 19.837 5.63064 19.9758 6.45849L19.9942 6.60654L20 6.7501L19.9991 10.5011L18.0015 10.5012C17.2579 10.5012 16.6353 11.0444 16.5215 11.7403L16.5062 11.8724L16.5015 12.0012C16.5015 12.7448 17.0446 13.3674 17.7405 13.4812L17.8727 13.4965L18.0014 13.5012L19.9991 13.5011L20 17.2525C20 18.1707 19.2929 18.9237 18.3934 18.9967L18.2499 19.0025L15.999 19.0019L15.9949 19.1746C15.9106 20.6304 14.7881 21.8077 13.3567 21.9773L13.1763 21.9932L13 21.9983C11.4023 21.9983 10.0963 20.7494 10.0051 19.1778L10 19.0019L7.75 19.0025C6.88283 19.0025 6.16298 18.3718 6.02417 17.5442L6.0058 17.3962L6 17.2527L5.999 15.0009L5.836 14.9961C4.38017 14.9118 3.20285 13.7893 3.03326 12.358L3.01736 12.1775L3.01227 12.0012C3.01227 10.4035 4.26119 9.09756 5.83593 9.00632L5.999 9.00091L6 6.74991C6 5.88275 6.63072 5.1629 7.45831 5.02409L7.60631 5.00572L7.74981 4.99991L9.999 4.99891L10.0051 4.82788C10.0894 3.37206 11.2119 2.19474 12.6432 2.02514L12.8237 2.00924L13 2.00415ZM13 3.50415C12.2203 3.50415 11.5795 4.09904 11.5069 4.8603L11.5 5.00488L11.4985 6.49896L7.75 6.49991C7.63165 6.49991 7.53251 6.58215 7.5066 6.69271L7.5 6.7501L7.49909 10.5011L6.01227 10.5012C5.18384 10.5012 4.51227 11.1728 4.51227 12.0012C4.51227 12.7809 5.10716 13.4217 5.86775 13.4944L6.01219 13.5012L7.49909 13.5011L7.5 17.2525C7.5 17.3709 7.58223 17.47 7.69261 17.4959L7.7499 17.5025L11.4985 17.5021L11.5 18.9983C11.5 19.8267 12.1716 20.4983 13 20.4983C13.7797 20.4983 14.4204 19.9034 14.4931 19.1434L14.5 18.999L14.4985 17.5021L18.25 17.5025C18.3683 17.5025 18.4675 17.4203 18.4934 17.31L18.5 17.2527L18.499 14.9999L17.9762 15.0008L17.7968 14.9943C16.2855 14.8921 15.0927 13.6769 15.0068 12.1531L15.0019 11.976L15.0084 11.7966C15.1105 10.2853 16.3258 9.0925 17.827 9.00622L18.0014 9.00122L18.499 9.00091L18.5 6.74991C18.5 6.65524 18.4474 6.57285 18.3697 6.53042L18.3072 6.50652L18.2498 6.49991L14.4985 6.49896L14.5 5.00415C14.5 4.17572 13.8284 3.50415 13 3.50415Z" fill="currentColor"/>
</svg>
