<!--

    Copyright (C) 2017-2019 Dremio Corporation

    Licensed under the Apache License, Version 2.0 (the "License");
    you may not use this file except in compliance with the License.
    You may obtain a copy of the License at

        http://www.apache.org/licenses/LICENSE-2.0

    Unless required by applicable law or agreed to in writing, software
    distributed under the License is distributed on an "AS IS" BASIS,
    WITHOUT WARRANTIES OR CONDITIONS OF ANY KIND, either express or implied.
    See the License for the specific language governing permissions and
    limitations under the License.

-->
<svg id="settings/preferences" viewBox="0 0 24 24" fill="none" xmlns="http://www.w3.org/2000/svg">
<path d="M6.5 8.5C7.03043 8.5 7.53914 8.28929 7.91421 7.91421C8.28929 7.53914 8.5 7.03043 8.5 6.5C8.5 5.96957 8.28929 5.46086 7.91421 5.08579C7.53914 4.71071 7.03043 4.5 6.5 4.5C5.96957 4.5 5.46086 4.71071 5.08579 5.08579C4.71071 5.46086 4.5 5.96957 4.5 6.5C4.5 7.03043 4.71071 7.53914 5.08579 7.91421C5.46086 8.28929 5.96957 8.5 6.5 8.5ZM6.5 2H17.5C18.0909 2 18.6761 2.1164 19.2221 2.34254C19.768 2.56869 20.2641 2.90016 20.682 3.31802C21.0998 3.73588 21.4313 4.23196 21.6575 4.77792C21.8836 5.32389 22 5.90905 22 6.5C22 7.09095 21.8836 7.67611 21.6575 8.22208C21.4313 8.76804 21.0998 9.26412 20.682 9.68198C20.2641 10.0998 19.768 10.4313 19.2221 10.6575C18.6761 10.8836 18.0909 11 17.5 11H6.5C5.30653 11 4.16193 10.5259 3.31802 9.68198C2.47411 8.83807 2 7.69347 2 6.5C2 5.30653 2.47411 4.16193 3.31802 3.31802C4.16193 2.47411 5.30653 2 6.5 2ZM17.5 3.5H6.5C5.70435 3.5 4.94129 3.81607 4.37868 4.37868C3.81607 4.94129 3.5 5.70435 3.5 6.5C3.5 7.29565 3.81607 8.05871 4.37868 8.62132C4.94129 9.18393 5.70435 9.5 6.5 9.5H17.5C18.2956 9.5 19.0587 9.18393 19.6213 8.62132C20.1839 8.05871 20.5 7.29565 20.5 6.5C20.5 5.70435 20.1839 4.94129 19.6213 4.37868C19.0587 3.81607 18.2956 3.5 17.5 3.5ZM17.5 19.5C18.0304 19.5 18.5391 19.2893 18.9142 18.9142C19.2893 18.5391 19.5 18.0304 19.5 17.5C19.5 16.9696 19.2893 16.4609 18.9142 16.0858C18.5391 15.7107 18.0304 15.5 17.5 15.5C16.9696 15.5 16.4609 15.7107 16.0858 16.0858C15.7107 16.4609 15.5 16.9696 15.5 17.5C15.5 18.0304 15.7107 18.5391 16.0858 18.9142C16.4609 19.2893 16.9696 19.5 17.5 19.5ZM2 17.5C2 16.3065 2.47411 15.1619 3.31802 14.318C4.16193 13.4741 5.30653 13 6.5 13H17.5C18.0909 13 18.6761 13.1164 19.2221 13.3425C19.768 13.5687 20.2641 13.9002 20.682 14.318C21.0998 14.7359 21.4313 15.232 21.6575 15.7779C21.8836 16.3239 22 16.9091 22 17.5C22 18.0909 21.8836 18.6761 21.6575 19.2221C21.4313 19.768 21.0998 20.2641 20.682 20.682C20.2641 21.0998 19.768 21.4313 19.2221 21.6575C18.6761 21.8836 18.0909 22 17.5 22H6.5C5.30653 22 4.16193 21.5259 3.31802 20.682C2.47411 19.8381 2 18.6935 2 17.5ZM6.5 14.5C5.70435 14.5 4.94129 14.8161 4.37868 15.3787C3.81607 15.9413 3.5 16.7044 3.5 17.5C3.5 18.2956 3.81607 19.0587 4.37868 19.6213C4.94129 20.1839 5.70435 20.5 6.5 20.5H17.5C18.2956 20.5 19.0587 20.1839 19.6213 19.6213C20.1839 19.0587 20.5 18.2956 20.5 17.5C20.5 16.7044 20.1839 15.9413 19.6213 15.3787C19.0587 14.8161 18.2956 14.5 17.5 14.5H6.5Z" fill="currentColor"/>
</svg>
