<!--

    Copyright (C) 2017-2019 Dremio Corporation

    Licensed under the Apache License, Version 2.0 (the "License");
    you may not use this file except in compliance with the License.
    You may obtain a copy of the License at

        http://www.apache.org/licenses/LICENSE-2.0

    Unless required by applicable law or agreed to in writing, software
    distributed under the License is distributed on an "AS IS" BASIS,
    WITHOUT WARRANTIES OR CONDITIONS OF ANY KIND, either express or implied.
    See the License for the specific language governing permissions and
    limitations under the License.

-->
<svg id="settings/support" viewBox="0 0 24 24" fill="none" xmlns="http://www.w3.org/2000/svg">
<path d="M16.5607 8.56066C16.2794 8.84196 15.8978 9 15.5 9C15.1022 9 14.7206 8.84196 14.4393 8.56066C14.158 8.27936 14 7.89783 14 7.5C14 7.10218 14.158 6.72064 14.4393 6.43934C14.7206 6.15804 15.1022 6 15.5 6C15.8978 6 16.2794 6.15804 16.5607 6.43934C16.842 6.72064 17 7.10218 17 7.5C17 7.89783 16.842 8.27936 16.5607 8.56066Z" fill="currentColor"/>
<path d="M10 18.559V15.75H9.5C9.30109 15.75 9.11032 15.829 8.96967 15.9697C8.82902 16.1103 8.75 16.3011 8.75 16.5V17.25H7.25C7.05109 17.25 6.86032 17.329 6.71967 17.4697C6.57902 17.6103 6.5 17.8011 6.5 18V19.5H3.5V17.5605L9.6335 11.427C9.73633 11.3243 9.8071 11.1939 9.83719 11.0517C9.86728 10.9095 9.85541 10.7616 9.803 10.626C9.608 10.122 9.5 9.576 9.5 9C9.5 8.10998 9.76392 7.23995 10.2584 6.49993C10.7529 5.75991 11.4557 5.18314 12.2779 4.84254C13.1002 4.50195 14.005 4.41283 14.8779 4.58647C15.7508 4.7601 16.5526 5.18868 17.182 5.81802C17.8113 6.44736 18.2399 7.24918 18.4135 8.12209C18.5546 8.83111 18.5223 9.56117 18.3226 10.2509C18.85 10.2646 19.3404 10.4267 19.7536 10.6971C20.0897 9.5572 20.0802 8.34145 19.7237 7.20457C19.3467 6.0024 18.6008 4.94941 17.5918 4.1949C16.5828 3.44039 15.3619 3.02264 14.1022 3.00089C12.8425 2.97915 11.6079 3.3545 10.5734 4.07373C9.53899 4.79296 8.75721 5.81958 8.33892 7.00802C7.92064 8.19646 7.88708 9.48642 8.243 10.695L2.438 16.5C2.15723 16.7815 1.99969 17.1629 2 17.5605V19.5C2 19.8978 2.15804 20.2794 2.43934 20.5607C2.72065 20.842 3.10218 21 3.5 21H6.5C6.89783 21 7.27936 20.842 7.56066 20.5607C7.84197 20.2794 8 19.8978 8 19.5V18.75H9.5C9.68496 18.75 9.86287 18.6817 10 18.559Z" fill="currentColor"/>
<path fill-rule="evenodd" clip-rule="evenodd" d="M12.5 14H13V13C13 12.0335 13.7835 11.25 14.75 11.25H18.25C19.2165 11.25 20 12.0335 20 13V14H20.5C21.3284 14 22 14.6716 22 15.5V17H19.5V16.75C19.5 16.3358 19.1642 16 18.75 16C18.3358 16 18 16.3358 18 16.75V17H15V16.75C15 16.3358 14.6642 16 14.25 16C13.8358 16 13.5 16.3358 13.5 16.75V17H11V15.5C11 14.6716 11.6716 14 12.5 14ZM14.75 12.75C14.6119 12.75 14.5 12.8619 14.5 13V14H18.5V13C18.5 12.8619 18.3881 12.75 18.25 12.75H14.75Z" fill="currentColor"/>
<path d="M11 18.5V20.5C11 21.3284 11.6716 22 12.5 22H20.5C21.3284 22 22 21.3284 22 20.5V18.5H19.5V19.25C19.5 19.6642 19.1642 20 18.75 20C18.3358 20 18 19.6642 18 19.25V18.5H15V19.25C15 19.6642 14.6642 20 14.25 20C13.8358 20 13.5 19.6642 13.5 19.25V18.5H11Z" fill="currentColor"/>
</svg>
