<!--

    Copyright (C) 2017-2019 Dremio Corporation

    Licensed under the Apache License, Version 2.0 (the "License");
    you may not use this file except in compliance with the License.
    You may obtain a copy of the License at

        http://www.apache.org/licenses/LICENSE-2.0

    Unless required by applicable law or agreed to in writing, software
    distributed under the License is distributed on an "AS IS" BASIS,
    WITHOUT WARRANTIES OR CONDITIONS OF ANY KIND, either express or implied.
    See the License for the specific language governing permissions and
    limitations under the License.

-->
<svg id="settings/usage" viewBox="0 0 24 24" fill="none" xmlns="http://www.w3.org/2000/svg">
<g id="Settings/Usage">
<path id="Vector" d="M18.749 3C19.3457 3 19.918 3.23705 20.34 3.65901C20.7619 4.08097 20.999 4.65326 20.999 5.25V18.752C20.999 19.3487 20.7619 19.921 20.34 20.343C19.918 20.7649 19.3457 21.002 18.749 21.002H5.25C4.95453 21.002 4.66194 20.9438 4.38896 20.8307C4.11598 20.7177 3.86794 20.5519 3.65901 20.343C3.45008 20.1341 3.28434 19.886 3.17127 19.613C3.0582 19.3401 3 19.0475 3 18.752V5.25C3 4.65326 3.23705 4.08097 3.65901 3.65901C4.08097 3.23705 4.65326 3 5.25 3H18.749ZM18.749 4.5H5.25C5.05109 4.5 4.86032 4.57902 4.71967 4.71967C4.57902 4.86032 4.5 5.05109 4.5 5.25V18.752C4.5 19.166 4.836 19.502 5.25 19.502H18.749C18.9479 19.502 19.1387 19.423 19.2793 19.2823C19.42 19.1417 19.499 18.9509 19.499 18.752V5.25C19.499 5.05109 19.42 4.86032 19.2793 4.71967C19.1387 4.57902 18.9479 4.5 18.749 4.5ZM8.255 11.5L9.812 7.949C9.86742 7.8225 9.9567 7.71376 10.07 7.63476C10.1833 7.55577 10.3162 7.50959 10.454 7.50131C10.5919 7.49304 10.7294 7.52299 10.8513 7.58787C10.9732 7.65275 11.0748 7.75004 11.145 7.869L11.195 7.971L13.576 13.918L14.579 11.914C14.6333 11.8054 14.7132 11.7116 14.8118 11.6407C14.9104 11.5698 15.0248 11.524 15.145 11.507L15.25 11.5H17.25C17.44 11.5001 17.6229 11.5722 17.7618 11.702C17.9006 11.8317 17.9851 12.0093 17.998 12.1989C18.011 12.3885 17.9515 12.5759 17.8316 12.7233C17.7117 12.8707 17.5402 12.9671 17.352 12.993L17.25 13H15.713L14.171 16.08C14.1107 16.2011 14.0188 16.3036 13.905 16.3767C13.7912 16.4498 13.6598 16.4908 13.5246 16.4953C13.3894 16.4998 13.2556 16.4677 13.1372 16.4023C13.0187 16.337 12.9202 16.2408 12.852 16.124L12.804 16.024L10.467 10.189L9.432 12.551C9.38091 12.6672 9.30117 12.7685 9.20025 12.8454C9.09934 12.9224 8.98055 12.9725 8.855 12.991L8.745 13H6.75C6.55998 12.9999 6.37706 12.9278 6.23821 12.798C6.09936 12.6683 6.01493 12.4907 6.00197 12.3011C5.98902 12.1115 6.04852 11.9241 6.16843 11.7767C6.28835 11.6293 6.45975 11.5329 6.648 11.507L6.75 11.5H8.255L9.812 7.949L8.255 11.499V11.5Z" fill="currentColor"/>
</g>
</svg>
