<svg xmlns="http://www.w3.org/2000/svg" xml:space="preserve" fill-rule="evenodd" stroke-linejoin="round" stroke-miterlimit="1.41421" clip-rule="evenodd" viewBox="0 0 100 100"><path fill="#393c42" d="M22.707 63.451c-3.047 1.382-8.977 4.475-8.415 7.827.774 2.061 3.189-.117 4.08-.984 1.921-1.805 3.444-4.313 4.335-6.843m18.188-7.406c-2.015 5.273-7.898 7.781-9.539 6.891-.821-.446.07-2.11.093-3.258-1.195.468-3.164 1.336-4.359 1.828 2.86 2.132 4.336 5.812 4.313 9.304 0 3.584-1.476 6.888-4.242 9.162 4.922 7.287 2.415 13.567-4.359 18.465l-.423.281-.141-.491c-1.006-3.469-2.273-6.398-4.664-9.164-1.195-1.382-2.555-2.648-3.891-3.913-1.757-1.664-3.444-3.35-5.039-5.154C1.941 72.871-.709 60.522.16 50.984c.444-4.921 1.946-9.631 4.242-13.99 1.828-3.468 4.148-6.655 6.821-9.513 5.906-6.328 13.735-11.32 22.056-13.78 7.312-2.178 15.679-2.554 22.641 1.031 1.125.586 2.813 1.617 3.751 2.39.586.539 1.171 1.102 1.734 1.641.07.047.141.117.188.186L94.149 2.335C96.844 1 98.859 1 99.68 1.962c.961 1.124-.374 3.466-2.273 4.85L69.514 27.058c.492 1.617-.328 3.96-1.547 5.343 3.728 1.289.446 6.749-1.195 8.694-4.664 5.531-13.219 9.866-20.836 13.029-2.04.867-3.212 1.243-5.041 1.921"/><path fill="#55bfce" d="M66.421 36.948c2.086-2.625.633-4.148-.821-2.672-2.86 2.929-7.195 3.936-11.109 3.304-5.721-.961-5.976-1.828-5.016-2.672 6.75 2.461 14.602-.749 17.859-6.069 1.407-2.015-3.304-3.632-6.093-7.405C47.904 3.437 6.16 19.138 2.175 50.61c-1.219 9.466 1.429 19.94 7.947 27.322 4.874 5.531 10.171 7.828 13.171 16.522 5.837-5.015 4.922-10.686.658-15.654 7.288-3.796 6.233-13.663 1.1-16.662-2.39 8.788-10.97 15.279-12.962 9.046-1.288-6.351 9.166-10.568 25.924-16.919 14.016-5.25 23.064-9.585 28.408-17.317"/><path fill="#fff" d="M66.421 36.948c2.086-2.625.633-4.148-.821-2.672-2.46 2.531-6.164 3.633-9.539 3.468-5.766-.422-10.361-1.546-14.579-1.102-8.298.844-16.384 6.093-20.72 10.522-7.313 7.5-15.376 23.059-7.242 26.083-.61-.376-1.102-1.055-1.431-2.063-1.288-6.351 9.166-10.568 25.924-16.919 14.016-5.25 23.064-9.585 28.408-17.317"/><path fill="#55bfce" d="M30.535 49.226c4.313 2.109 3.446 9.514 2.814 11.367 8.179-2.321 5.742-14.435 9.54-18.139-4.759-.141-13.667 4.64-12.354 6.772"/><path fill="#393c42" d="M44.365 27.292c1.171-.609 2.602-.187 3.235.985.609 1.148.163 2.577-.986 3.211-1.148.609-2.6.186-3.211-.984-.632-1.15-.187-2.578.962-3.212"/><path fill="#55bfce" d="M64.218 28.3 97.032 5.452c.913-.655 2.133-2.062 1.64-2.742-.491-.679-1.921-.304-3.14.235L60.044 22.113c-1.147 2.391 1.173 7.429 4.174 6.187"/><path fill="#fff" d="M61.335 23.778 95.626 3.602c1.499-.891 2.086-.868 2.998-.962-.515-.585-1.921-.234-3.093.304L60.045 22.113c-.867 1.805.258 5.156 2.156 6.117-.679-1.477-1.124-3.023-.866-4.452"/><path fill="#25abad" d="M10.824 32.752c1.124-.187 1.993.587 1.969 1.736 0 1.147-.913 2.226-2.038 2.413-1.103.186-1.971-.586-1.946-1.711 0-1.148.913-2.226 2.015-2.438M17.481 25.418c.984-.164 1.758.515 1.733 1.524-.023 1.031-.82 1.967-1.804 2.155-.984.165-1.758-.516-1.734-1.523.023-1.007.82-1.969 1.805-2.156M37.615 15.717c1.008.046 1.617.89 1.359 1.874-.234.985-1.242 1.734-2.226 1.687-.987-.046-1.595-.891-1.36-1.874.233-.985 1.242-1.735 2.227-1.687M43.779 14.709c.82.187 1.218.937.891 1.733-.329.774-1.266 1.267-2.062 1.102-.821-.187-1.22-.938-.892-1.734.328-.773 1.265-1.266 2.063-1.101M17.551 30.011c.726-.117 1.313.398 1.289 1.148 0 .75-.61 1.453-1.336 1.571-.726.141-1.289-.375-1.289-1.126.024-.749.609-1.453 1.336-1.593M7.167 38.634c.751-.14 1.36.399 1.337 1.173 0 .796-.632 1.522-1.383 1.663-.774.117-1.36-.398-1.36-1.171.024-.797.633-1.547 1.406-1.665M68.53 17.544l-1.522.82c.116 2.226 1.944 4.922 3.256 5.367-1.031-1.57-1.968-4.289-1.734-6.187m8.18-4.428-1.335.726c.164 1.991 1.804 4.382 2.624 4.522-.633-.96-1.453-3.631-1.289-5.248m8.087-4.383-1.032.563c-.023 1.311.938 3.28 2.015 3.562-.515-.821-1.148-2.508-.983-4.125m7.782-4.194-.892.492c.071.867 1.079 2.484 1.641 2.741-.211-.632-.844-1.92-.749-3.233"/></svg>
