<!--

    Copyright (C) 2017-2019 Dremio Corporation

    Licensed under the Apache License, Version 2.0 (the "License");
    you may not use this file except in compliance with the License.
    You may obtain a copy of the License at

        http://www.apache.org/licenses/LICENSE-2.0

    Unless required by applicable law or agreed to in writing, software
    distributed under the License is distributed on an "AS IS" BASIS,
    WITHOUT WARRANTIES OR CONDITIONS OF ANY KIND, either express or implied.
    See the License for the specific language governing permissions and
    limitations under the License.

-->
<svg id="interface/circle-error-red" width="24" height="24" viewBox="0 0 24 24" fill="none" xmlns="http://www.w3.org/2000/svg">
<path fill-rule="evenodd" clip-rule="evenodd" d="M12 3.5C9.74566 3.5 7.58365 4.39553 5.98959 5.98959C4.39553 7.58365 3.5 9.74566 3.5 12C3.5 14.2543 4.39553 16.4163 5.98959 18.0104C7.58365 19.6045 9.74566 20.5 12 20.5C14.2543 20.5 16.4163 19.6045 18.0104 18.0104C19.6045 16.4163 20.5 14.2543 20.5 12C20.5 9.74566 19.6045 7.58365 18.0104 5.98959C16.4163 4.39553 14.2543 3.5 12 3.5ZM15.53 8.47L15.446 8.397C15.3016 8.29016 15.1237 8.23866 14.9446 8.25188C14.7655 8.26509 14.5971 8.34213 14.47 8.469L12 10.939L9.53 8.47L9.446 8.397C9.30153 8.29029 9.12356 8.23896 8.94445 8.25236C8.76534 8.26575 8.59699 8.34298 8.47 8.47L8.397 8.554C8.29016 8.69835 8.23866 8.87626 8.25188 9.05536C8.26509 9.23447 8.34213 9.40289 8.469 9.53L10.939 12L8.47 14.47L8.397 14.554C8.29029 14.6985 8.23896 14.8764 8.25236 15.0555C8.26575 15.2347 8.34298 15.403 8.47 15.53L8.554 15.603C8.69835 15.7098 8.87626 15.7613 9.05536 15.7481C9.23447 15.7349 9.40289 15.6579 9.53 15.531L12 13.061L14.47 15.53L14.554 15.603C14.6985 15.7097 14.8764 15.761 15.0555 15.7476C15.2347 15.7342 15.403 15.657 15.53 15.53L15.603 15.446C15.7098 15.3016 15.7613 15.1237 15.7481 14.9446C15.7349 14.7655 15.6579 14.5971 15.531 14.47L13.061 12L15.53 9.53L15.603 9.446C15.7097 9.30153 15.761 9.12356 15.7476 8.94445C15.7342 8.76534 15.657 8.59699 15.53 8.47Z" fill="#CA3F32"/>
<path fill-rule="evenodd" clip-rule="evenodd" d="M22 12C22 6.477 17.523 2 12 2C6.477 2 2 6.477 2 12C2 17.523 6.477 22 12 22C17.523 22 22 17.523 22 12ZM5.98959 5.98959C7.58365 4.39553 9.74566 3.5 12 3.5C14.2543 3.5 16.4163 4.39553 18.0104 5.98959C19.6045 7.58365 20.5 9.74566 20.5 12C20.5 14.2543 19.6045 16.4163 18.0104 18.0104C16.4163 19.6045 14.2543 20.5 12 20.5C9.74566 20.5 7.58365 19.6045 5.98959 18.0104C4.39553 16.4163 3.5 14.2543 3.5 12C3.5 9.74566 4.39553 7.58365 5.98959 5.98959Z" fill="#CA3F32"/>
</svg>
