<!--

    Copyright (C) 2017-2019 Dremio Corporation

    Licensed under the Apache License, Version 2.0 (the "License");
    you may not use this file except in compliance with the License.
    You may obtain a copy of the License at

        http://www.apache.org/licenses/LICENSE-2.0

    Unless required by applicable law or agreed to in writing, software
    distributed under the License is distributed on an "AS IS" BASIS,
    WITHOUT WARRANTIES OR CONDITIONS OF ANY KIND, either express or implied.
    See the License for the specific language governing permissions and
    limitations under the License.

-->
<svg id="interface/close-circle-error" height="24" width="24" viewBox="0 0 24 24" fill="none" xmlns="http://www.w3.org/2000/svg">
<path d="M9.99999 1.66669C14.6025 1.66669 18.3333 5.39752 18.3333 10C18.3333 14.6025 14.6025 18.3334 9.99999 18.3334C5.39749 18.3334 1.66666 14.6025 1.66666 10C1.66666 5.39752 5.39749 1.66669 9.99999 1.66669ZM9.99999 2.91669C8.12137 2.91669 6.3197 3.66296 4.99132 4.99135C3.66293 6.31973 2.91666 8.1214 2.91666 10C2.91666 11.8786 3.66293 13.6803 4.99132 15.0087C6.3197 16.3371 8.12137 17.0834 9.99999 17.0834C11.8786 17.0834 13.6803 16.3371 15.0087 15.0087C16.337 13.6803 17.0833 11.8786 17.0833 10C17.0833 8.1214 16.337 6.31973 15.0087 4.99135C13.6803 3.66296 11.8786 2.91669 9.99999 2.91669ZM12.8717 6.99752L12.9417 7.05835C13.0475 7.16418 13.1119 7.30447 13.123 7.45373C13.1342 7.60299 13.0914 7.7513 13.0025 7.87169L12.9417 7.94169L10.8842 10L12.9425 12.0584C13.0482 12.1643 13.1124 12.3046 13.1234 12.4539C13.1344 12.6031 13.0915 12.7514 13.0025 12.8717L12.9417 12.9417C12.8358 13.0475 12.6955 13.1119 12.5463 13.1231C12.397 13.1342 12.2487 13.0914 12.1283 13.0025L12.0583 12.9417L9.99999 10.8842L7.94166 12.9425C7.83573 13.0482 7.69538 13.1124 7.54612 13.1235C7.39687 13.1345 7.24862 13.0916 7.12832 13.0025L7.05832 12.9417C6.95248 12.8359 6.88812 12.6956 6.87695 12.5463C6.86579 12.3971 6.90856 12.2487 6.99749 12.1284L7.05832 12.0584L9.11582 10L7.05749 7.94169C6.95177 7.83576 6.88756 7.69541 6.87655 7.54616C6.86554 7.3969 6.90846 7.24865 6.99749 7.12835L7.05832 7.05835C7.16415 6.95251 7.30444 6.88815 7.4537 6.87699C7.60296 6.86582 7.75127 6.90859 7.87166 6.99752L7.94166 7.05835L9.99999 9.11585L12.0583 7.05752C12.1643 6.9518 12.3046 6.88759 12.4539 6.87658C12.6031 6.86557 12.7514 6.90849 12.8717 6.99752Z" fill="#CA3F32"/>
</svg>
