<!--

    Copyright (C) 2017-2019 Dremio Corporation

    Licensed under the Apache License, Version 2.0 (the "License");
    you may not use this file except in compliance with the License.
    You may obtain a copy of the License at

        http://www.apache.org/licenses/LICENSE-2.0

    Unless required by applicable law or agreed to in writing, software
    distributed under the License is distributed on an "AS IS" BASIS,
    WITHOUT WARRANTIES OR CONDITIONS OF ANY KIND, either express or implied.
    See the License for the specific language governing permissions and
    limitations under the License.

-->
<svg id="interface/close-big" viewBox="0 0 24 24" fill="none" xmlns="http://www.w3.org/2000/svg">
<path d="M4.39697 4.55394L4.46997 4.46994C4.59696 4.34292 4.76532 4.2657 4.94443 4.2523C5.12353 4.2389 5.3015 4.29023 5.44597 4.39694L5.52997 4.46994L12 10.9389L18.47 4.46894C18.5392 4.39734 18.622 4.34025 18.7135 4.30098C18.805 4.26172 18.9034 4.24108 19.003 4.24026C19.1026 4.23944 19.2014 4.25846 19.2935 4.29622C19.3857 4.33397 19.4694 4.3897 19.5398 4.46015C19.6102 4.53061 19.6658 4.61437 19.7035 4.70656C19.7411 4.79875 19.7601 4.89752 19.7592 4.9971C19.7582 5.09669 19.7375 5.19509 19.6982 5.28658C19.6588 5.37806 19.6016 5.46079 19.53 5.52994L13.061 11.9999L19.531 18.4699C19.6578 18.5971 19.7349 18.7655 19.7481 18.9446C19.7613 19.1237 19.7098 19.3016 19.603 19.4459L19.53 19.5299C19.403 19.657 19.2346 19.7342 19.0555 19.7476C18.8764 19.761 18.6984 19.7097 18.554 19.6029L18.47 19.5299L12 13.0609L5.52997 19.5309C5.38846 19.6675 5.19897 19.743 5.00232 19.7412C4.80568 19.7394 4.6176 19.6604 4.47861 19.5213C4.33962 19.3822 4.26083 19.194 4.25922 18.9974C4.2576 18.8007 4.33329 18.6113 4.46997 18.4699L10.939 11.9999L4.46897 5.52994C4.34211 5.40283 4.26506 5.23441 4.25185 5.0553C4.23864 4.8762 4.29013 4.6983 4.39697 4.55394L4.46997 4.46994L4.39697 4.55394Z" fill="currentColor"/>
</svg>
