<!--

    Copyright (C) 2017-2019 Dremio Corporation

    Licensed under the Apache License, Version 2.0 (the "License");
    you may not use this file except in compliance with the License.
    You may obtain a copy of the License at

        http://www.apache.org/licenses/LICENSE-2.0

    Unless required by applicable law or agreed to in writing, software
    distributed under the License is distributed on an "AS IS" BASIS,
    WITHOUT WARRANTIES OR CONDITIONS OF ANY KIND, either express or implied.
    See the License for the specific language governing permissions and
    limitations under the License.

-->
<svg id="interface/dataset-details" viewBox="0 0 24 24" fill="none" xmlns="http://www.w3.org/2000/svg">
<path fill-rule="evenodd" clip-rule="evenodd" d="M19.414 8.414L13.585 2.586C13.5695 2.57163 13.5532 2.55827 13.536 2.546C13.5236 2.53645 13.5116 2.52644 13.5 2.516C13.429 2.452 13.359 2.389 13.281 2.336C13.2551 2.31944 13.228 2.30474 13.2 2.292L13.153 2.268L13.103 2.239L13.0958 2.23486C13.0441 2.20517 12.9915 2.17493 12.937 2.152C12.74 2.07 12.528 2.029 12.313 2.014C12.294 2.013 12.274 2.01 12.254 2.007C12.2487 2.00641 12.2434 2.00579 12.2382 2.00516C12.2164 2.00259 12.1945 2 12.172 2H6C5.46957 2 4.96086 2.21071 4.58579 2.58579C4.21071 2.96086 4 3.46957 4 4V10.25C4 10.6642 4.33579 11 4.75 11C5.16421 11 5.5 10.6642 5.5 10.25V4C5.5 3.86739 5.55268 3.74021 5.64645 3.64645C5.74021 3.55268 5.86739 3.5 6 3.5H12V8C12 8.53043 12.2107 9.03914 12.5858 9.41421C12.9609 9.78929 13.4696 10 14 10H18.5V14.25C18.5 14.6642 18.8358 15 19.25 15C19.6642 15 20 14.6642 20 14.25V9.828C19.9999 9.29761 19.7891 8.78899 19.414 8.414ZM13.5 4.621L17.378 8.5H14C13.8674 8.5 13.7402 8.44732 13.6464 8.35355C13.5527 8.25979 13.5 8.13261 13.5 8V4.621Z" fill="currentColor"/>
<path d="M19.861 20.7326C20.0127 20.3471 19.6642 20 19.25 20H18.8927C18.6758 20 18.5069 20.2002 18.3536 20.3536C18.2598 20.4473 18.1326 20.5 18 20.5H6C5.86739 20.5 5.74021 20.4473 5.64645 20.3536C5.49309 20.2002 5.32419 20 5.10731 20H4.75C4.33579 20 3.98727 20.3471 4.13899 20.7326C4.23861 20.9856 4.38975 21.2182 4.58579 21.4142C4.96086 21.7893 5.46957 22 6 22H18C18.5304 22 19.0391 21.7893 19.4142 21.4142C19.6103 21.2182 19.7614 20.9856 19.861 20.7326Z" fill="currentColor"/>
<path fill-rule="evenodd" clip-rule="evenodd" d="M10 13C10 12.4477 10.4477 12 11 12H12C12.5523 12 13 12.4477 13 13V14C13 14.5523 12.5523 15 12 15H11C10.4477 15 10 14.5523 10 14V13ZM6 17C6 16.4477 6.44772 16 7 16H8C8.55228 16 9 16.4477 9 17V18C9 18.5523 8.55228 19 8 19H7C6.44772 19 6 18.5523 6 18V17ZM17 13C17 12.4477 16.5523 12 16 12H15C14.4477 12 14 12.4477 14 13V14C14 14.5523 14.4477 15 15 15H16C16.5523 15 17 14.5523 17 14V13ZM14 17C14 16.4477 14.4477 16 15 16H16C16.5523 16 17 16.4477 17 17V18C17 18.5523 16.5523 19 16 19H15C14.4477 19 14 18.5523 14 18V17ZM21 17C21 16.4477 20.5523 16 20 16H19C18.4477 16 18 16.4477 18 17V18C18 18.5523 18.4477 19 19 19H20C20.5523 19 21 18.5523 21 18V17Z" fill="currentColor"/>
</svg>
