<!--

    Copyright (C) 2017-2019 Dremio Corporation

    Licensed under the Apache License, Version 2.0 (the "License");
    you may not use this file except in compliance with the License.
    You may obtain a copy of the License at

        http://www.apache.org/licenses/LICENSE-2.0

    Unless required by applicable law or agreed to in writing, software
    distributed under the License is distributed on an "AS IS" BASIS,
    WITHOUT WARRANTIES OR CONDITIONS OF ANY KIND, either express or implied.
    See the License for the specific language governing permissions and
    limitations under the License.

-->
<svg id="interface/data-optimization" viewBox="0 0 24 24" fill="none" xmlns="http://www.w3.org/2000/svg">
<path fill-rule="evenodd" clip-rule="evenodd" d="M4.774 4.22C4.315 4.707 4 5.31 4 6V18C4 18.69 4.315 19.293 4.774 19.78C5.229 20.263 5.853 20.663 6.567 20.983C7.996 21.623 9.917 22 12 22C12.2669 22 12.5312 21.9938 12.7921 21.9817C12.3727 21.5412 12.0144 21.042 11.731 20.4977C9.92019 20.4667 8.31892 20.1239 7.18 19.614C6.582 19.346 6.144 19.046 5.865 18.75C5.59 18.46 5.5 18.207 5.5 18V8.392C5.83728 8.62022 6.19439 8.81768 6.567 8.982C7.996 9.623 9.917 10 12 10C14.083 10 16.004 9.623 17.433 8.982C17.82 8.809 18.18 8.612 18.5 8.392V11.0764C19.0232 11.1572 19.5258 11.3004 20 11.4982V6C20 5.31 19.685 4.707 19.226 4.22C18.771 3.738 18.147 3.338 17.433 3.018C16.004 2.377 14.083 2 12 2C9.917 2 7.996 2.377 6.567 3.018C5.853 3.337 5.229 3.738 4.774 4.22ZM5.865 6.75C5.59 6.46 5.5 6.207 5.5 6C5.5 5.793 5.59 5.54 5.865 5.25C6.144 4.954 6.582 4.654 7.18 4.386C8.375 3.85 10.079 3.5 12 3.5C13.92 3.5 15.625 3.851 16.82 4.386C17.418 4.654 17.856 4.954 18.135 5.25C18.41 5.54 18.5 5.793 18.5 6C18.5 6.207 18.41 6.46 18.135 6.75C17.856 7.046 17.418 7.346 16.82 7.614C15.625 8.15 13.921 8.5 12 8.5C10.079 8.5 8.375 8.149 7.18 7.614C6.582 7.346 6.144 7.046 5.865 6.75Z" fill="currentColor"/>
<path d="M13.4757 14.9304C13.6147 15.1608 13.7057 15.4169 13.7434 15.6833C13.7811 15.9498 13.7646 16.2211 13.695 16.481C13.6253 16.7409 13.504 16.9841 13.3381 17.196C13.1723 17.4079 12.9654 17.5842 12.7298 17.7143L12.2029 18.0045C12.2675 18.6072 12.4273 19.1958 12.6764 19.7484L13.2317 19.7342C13.5027 19.7273 13.7723 19.7756 14.0241 19.8761C14.2759 19.9766 14.5046 20.1273 14.6964 20.319C14.8881 20.5106 15.0389 20.7393 15.1396 20.991C15.2402 21.2428 15.2887 21.5123 15.2819 21.7834L15.2648 22.4422C15.7898 22.7012 16.3537 22.8741 16.9369 22.9487L17.2795 22.3186C17.4092 22.0805 17.5859 21.8712 17.799 21.7035C18.0121 21.5358 18.257 21.4132 18.519 21.3431C18.7809 21.273 19.0544 21.2569 19.3227 21.2958C19.5911 21.3347 19.8487 21.4277 20.08 21.5692L20.6969 21.9475C21.1629 21.5947 21.5671 21.167 21.893 20.6817L21.5242 20.0704C21.3853 19.84 21.2942 19.5839 21.2565 19.3174C21.2188 19.051 21.2353 18.7797 21.3049 18.5197C21.3746 18.2598 21.496 18.0166 21.6618 17.8047C21.8277 17.5928 22.0346 17.4165 22.2701 17.2865L22.797 16.9962C22.7324 16.3932 22.5725 15.8042 22.3232 15.2514L21.768 15.2656C21.4969 15.2725 21.2273 15.2242 20.9755 15.1236C20.7238 15.0231 20.495 14.8724 20.3033 14.6808C20.1115 14.4891 19.9607 14.2605 19.8601 14.0087C19.7594 13.757 19.711 13.4874 19.7177 13.2164L19.7353 12.5594C19.21 12.2989 18.6449 12.1278 18.0633 12.053L17.7211 12.6809C17.5916 12.9192 17.4148 13.1287 17.2018 13.2966C16.9887 13.4645 16.7437 13.5873 16.4816 13.6575C16.2196 13.7277 15.946 13.7439 15.6776 13.705C15.4091 13.6662 15.1513 13.5731 14.9199 13.4315L14.303 13.0533C13.8345 13.4066 13.4318 13.8354 13.1066 14.318L13.4757 14.9304ZM17.8882 18.9493C17.1154 19.1563 16.3137 18.6754 16.0994 17.8756C15.8851 17.0759 16.339 16.2585 17.1117 16.0515C17.8845 15.8444 18.6862 16.3253 18.9005 17.1251C19.1148 17.9249 18.6609 18.7422 17.8882 18.9493Z" fill="currentColor"/>
</svg>
