<!--

    Copyright (C) 2017-2019 Dremio Corporation

    Licensed under the Apache License, Version 2.0 (the "License");
    you may not use this file except in compliance with the License.
    You may obtain a copy of the License at

        http://www.apache.org/licenses/LICENSE-2.0

    Unless required by applicable law or agreed to in writing, software
    distributed under the License is distributed on an "AS IS" BASIS,
    WITHOUT WARRANTIES OR CONDITIONS OF ANY KIND, either express or implied.
    See the License for the specific language governing permissions and
    limitations under the License.

-->
<svg id="interface/data-optimization-vacuum" viewBox="0 0 24 24" fill="none" xmlns="http://www.w3.org/2000/svg">
<path fill-rule="evenodd" clip-rule="evenodd" d="M13.6683 4.13712C11.9385 0.158682 6 1.39382 6 5.73202V10.0001L3 10.0001V16.3369C3.45463 16.1209 3.9632 16.0001 4.5 16.0001V11.5001H9C10.3807 11.5001 11.5 12.6193 11.5 14.0001V20.5001H7.85506C7.68359 21.0762 7.36775 21.5902 6.94949 22.0001L12 22.0001L17.1949 22.0001L16.75 22.0001H17.5V22.0001L20.5 22.0001L20.5 22.0001H21.25C21.6642 22.0001 22 21.6643 22 21.2501C22 20.8358 21.6642 20.5001 21.25 20.5001H19.9263L13.6683 4.13712ZM18.2122 20.5001H16.75C16.3358 20.5001 16 20.8358 16 21.2501C16 21.6643 16.3358 22.0001 16.75 22.0001L12.0056 22.0001H12.0055C12.5553 21.9971 13 21.5505 13 21.0001V14.0001C13 11.7909 11.2091 10.0001 9 10.0001L7.5 10.0001V5.73202C7.5 3.02065 11.2116 2.24869 12.2927 4.73521L18.2122 20.5001ZM4.5 20.5001C5.05228 20.5001 5.5 20.0523 5.5 19.5001C5.5 18.9478 5.05228 18.5001 4.5 18.5001C3.94772 18.5001 3.5 18.9478 3.5 19.5001C3.5 20.0523 3.94772 20.5001 4.5 20.5001ZM4.5 22.0001C5.88071 22.0001 7 20.8808 7 19.5001C7 18.1193 5.88071 17.0001 4.5 17.0001C3.11929 17.0001 2 18.1193 2 19.5001C2 20.8808 3.11929 22.0001 4.5 22.0001Z" fill="currentColor"/>
</svg>
