<!--

    Copyright (C) 2017-2019 Dremio Corporation

    Licensed under the Apache License, Version 2.0 (the "License");
    you may not use this file except in compliance with the License.
    You may obtain a copy of the License at

        http://www.apache.org/licenses/LICENSE-2.0

    Unless required by applicable law or agreed to in writing, software
    distributed under the License is distributed on an "AS IS" BASIS,
    WITHOUT WARRANTIES OR CONDITIONS OF ANY KIND, either express or implied.
    See the License for the specific language governing permissions and
    limitations under the License.

-->
<svg id="interface/delete" viewBox="0 0 24 24" fill="none" xmlns="http://www.w3.org/2000/svg">
<path fill-rule="evenodd" clip-rule="evenodd" d="M8.5 4V5H3.5L3.398 5.007C3.21845 5.03165 3.05389 5.12048 2.93477 5.25707C2.81564 5.39366 2.75001 5.56876 2.75 5.75L2.757 5.852C2.78165 6.03155 2.87048 6.19611 3.00707 6.31523C3.14366 6.43436 3.31876 6.49999 3.5 6.5H4.295L5.576 19.519L5.599 19.693C5.70412 20.337 6.03482 20.9227 6.53201 21.3453C7.02919 21.7679 7.66046 22 8.313 22H15.687L15.863 21.994C16.5139 21.9523 17.1289 21.6806 17.598 21.2275C18.0671 20.7743 18.3599 20.1691 18.424 19.52L19.704 6.5H20.5L20.602 6.493C20.7902 6.4671 20.9617 6.37071 21.0816 6.2233C21.2015 6.07589 21.261 5.88846 21.248 5.69888C21.2351 5.5093 21.1506 5.3317 21.0118 5.20197C20.8729 5.07224 20.69 5.00006 20.5 5H15.5V4C15.5 2.89543 14.6046 2 13.5 2H10.5C9.39543 2 8.5 2.89543 8.5 4ZM15.5 6.5H8.5H5.802L7.069 19.372C7.09705 19.6592 7.22362 19.9279 7.42722 20.1324C7.63082 20.3369 7.89892 20.4647 8.186 20.494L8.313 20.5H15.687C16.287 20.5 16.796 20.075 16.912 19.498L16.932 19.372L18.196 6.5H15.5ZM14 5V4C14 3.72386 13.7761 3.5 13.5 3.5H10.5C10.2239 3.5 10 3.72386 10 4V5H14ZM10.7429 9.43477C10.6063 9.31564 10.4312 9.25001 10.25 9.25C10.0511 9.25 9.86032 9.32902 9.71967 9.46967C9.57902 9.61032 9.5 9.80109 9.5 10V17L9.507 17.102C9.5329 17.2902 9.62929 17.4617 9.7767 17.5816C9.92411 17.7015 10.1115 17.761 10.3011 17.748C10.4907 17.7351 10.6683 17.6506 10.798 17.5118C10.9278 17.3729 10.9999 17.19 11 17V10L10.993 9.898C10.9684 9.71845 10.8795 9.55389 10.7429 9.43477ZM14.2429 9.43477C14.1063 9.31564 13.9312 9.25001 13.75 9.25C13.5511 9.25 13.3603 9.32902 13.2197 9.46967C13.079 9.61032 13 9.80109 13 10V17L13.007 17.102C13.0329 17.2902 13.1293 17.4617 13.2767 17.5816C13.4241 17.7015 13.6115 17.761 13.8011 17.748C13.9907 17.7351 14.1683 17.6506 14.298 17.5118C14.4278 17.3729 14.4999 17.19 14.5 17V10L14.493 9.898C14.4684 9.71845 14.3795 9.55389 14.2429 9.43477Z" fill="currentColor" />
</svg>
