<!--

    Copyright (C) 2017-2019 Dremio Corporation

    Licensed under the Apache License, Version 2.0 (the "License");
    you may not use this file except in compliance with the License.
    You may obtain a copy of the License at

        http://www.apache.org/licenses/LICENSE-2.0

    Unless required by applicable law or agreed to in writing, software
    distributed under the License is distributed on an "AS IS" BASIS,
    WITHOUT WARRANTIES OR CONDITIONS OF ANY KIND, either express or implied.
    See the License for the specific language governing permissions and
    limitations under the License.

-->
<svg id="interface/discard" viewBox="0 0 24 24" fill="none" xmlns="http://www.w3.org/2000/svg">
<path d="M15.87 2.66903L20.838 7.63703C21.0469 7.84596 21.2127 8.094 21.3258 8.36699C21.4388 8.63997 21.497 8.93255 21.497 9.22803C21.497 9.52351 21.4388 9.81609 21.3258 10.0891C21.2127 10.3621 21.0469 10.6101 20.838 10.819L12.157 19.499L18.254 19.5C18.4354 19.4998 18.6108 19.5653 18.7476 19.6845C18.8844 19.8036 18.9733 19.9683 18.998 20.148L19.004 20.25C19.004 20.4313 18.9384 20.6064 18.8192 20.743C18.7001 20.8795 18.5356 20.9684 18.356 20.993L18.254 21L9.84401 21.001C9.52829 21.0188 9.21239 20.9696 8.917 20.8567C8.62162 20.7438 8.35343 20.5698 8.13001 20.346L3.16201 15.377C2.95308 15.1681 2.78734 14.9201 2.67426 14.6471C2.56119 14.3741 2.50299 14.0815 2.50299 13.786C2.50299 13.4906 2.56119 13.198 2.67426 12.925C2.78734 12.652 2.95308 12.404 3.16201 12.195L12.688 2.66903C12.8969 2.46009 13.145 2.29436 13.418 2.18128C13.691 2.06821 13.9835 2.01001 14.279 2.01001C14.5745 2.01001 14.8671 2.06821 15.1401 2.18128C15.413 2.29436 15.6611 2.46009 15.87 2.66903ZM5.70901 11.768L4.22201 13.256C4.08156 13.3967 4.00267 13.5873 4.00267 13.786C4.00267 13.9848 4.08156 14.1754 4.22201 14.316L9.19101 19.285C9.33701 19.431 9.52901 19.505 9.72101 19.505L9.75001 19.5L9.78801 19.502C9.96307 19.4864 10.127 19.4096 10.251 19.285L11.738 17.798L5.70801 11.768H5.70901ZM13.749 3.72903L6.76901 10.707L12.799 16.737L19.778 9.75903C19.8477 9.68938 19.903 9.60668 19.9407 9.51565C19.9784 9.42463 19.9978 9.32706 19.9978 9.22853C19.9978 9.13 19.9784 9.03243 19.9407 8.94141C19.903 8.85038 19.8477 8.76768 19.778 8.69803L14.809 3.72903C14.6684 3.58858 14.4778 3.50969 14.279 3.50969C14.0803 3.50969 13.8896 3.58858 13.749 3.72903Z" fill="currentColor"/>
</svg>
