<!--

    Copyright (C) 2017-2019 Dremio Corporation

    Licensed under the Apache License, Version 2.0 (the "License");
    you may not use this file except in compliance with the License.
    You may obtain a copy of the License at

        http://www.apache.org/licenses/LICENSE-2.0

    Unless required by applicable law or agreed to in writing, software
    distributed under the License is distributed on an "AS IS" BASIS,
    WITHOUT WARRANTIES OR CONDITIONS OF ANY KIND, either express or implied.
    See the License for the specific language governing permissions and
    limitations under the License.

-->
<svg id="interface/edit-wiki" viewBox="0 0 56 57" fill="none" xmlns="http://www.w3.org/2000/svg">
<path d="M44.5666 30.0634L30.7953 43.8324C29.9915 44.6355 29.4212 45.6421 29.1456 46.7444L28.0793 51.0144C27.6126 52.874 29.2973 54.5564 31.1546 54.092L35.4246 53.0234C36.5266 52.7484 37.5332 52.179 38.3366 51.376L52.1033 37.6C53.0777 36.5944 53.6176 35.246 53.6065 33.8458C53.5954 32.4455 53.0341 31.1058 52.0438 30.1158C51.0535 29.1258 49.7136 28.565 48.3134 28.5543C46.9132 28.5436 45.5649 29.0839 44.5596 30.0587L44.5666 30.0634Z" fill="currentColor"/>
<path fill-rule="evenodd" clip-rule="evenodd" d="M14.5833 7.5C10.3952 7.5 7 10.8952 7 15.0833V41.9167C7 46.1048 10.3952 49.5 14.5833 49.5H26.0525L26.8818 46.179C26.8968 46.1191 26.9124 46.0595 26.9286 46H14.5833C12.3282 46 10.5 44.1718 10.5 41.9167V15.0833C10.5 12.8282 12.3282 11 14.5833 11H32.6667V38.6617L36.1667 35.1623V11H41.4167C43.6718 11 45.5 12.8282 45.5 15.0833V26.7397C46.3942 26.3928 47.3539 26.2135 48.3312 26.221C48.5554 26.2227 48.7785 26.2342 49 26.2553V15.0833C49 10.8952 45.6048 7.5 41.4167 7.5H14.5833ZM37.1346 49.5H40.2114L49 40.7054V28.6039C48.7737 28.5728 48.5444 28.556 48.3134 28.5543C47.8021 28.5504 47.2976 28.62 46.8143 28.7574C46.3528 28.8886 45.9106 29.0815 45.5 29.3314V41.9167C45.5 44.1718 43.6718 46 41.4167 46H37.8263H36.1667V38.4619L32.6667 41.9613V46H29.3819C29.2881 46.2422 29.209 46.4907 29.1456 46.7444L28.4575 49.5H37.1346ZM40.3279 31.0018L40.25 31.0278H40.3019L40.3279 31.0018ZM37.9167 16.8333C37.9167 15.8668 38.7002 15.0833 39.6667 15.0833H42C42.9665 15.0833 43.75 15.8668 43.75 16.8333C43.75 17.7998 42.9665 18.5833 42 18.5833H39.6667C38.7002 18.5833 37.9167 17.7998 37.9167 16.8333ZM39.6667 21.3056C38.7002 21.3056 37.9167 22.0891 37.9167 23.0556C37.9167 24.0221 38.7002 24.8056 39.6667 24.8056H42C42.9665 24.8056 43.75 24.0221 43.75 23.0556C43.75 22.0891 42.9665 21.3056 42 21.3056H39.6667Z" fill="currentColor"/>
</svg>
