<!--

    Copyright (C) 2017-2019 Dremio Corporation

    Licensed under the Apache License, Version 2.0 (the "License");
    you may not use this file except in compliance with the License.
    You may obtain a copy of the License at

        http://www.apache.org/licenses/LICENSE-2.0

    Unless required by applicable law or agreed to in writing, software
    distributed under the License is distributed on an "AS IS" BASIS,
    WITHOUT WARRANTIES OR CONDITIONS OF ANY KIND, either express or implied.
    See the License for the specific language governing permissions and
    limitations under the License.

-->
<svg id="interface/edit" viewBox="0 0 24 24" fill="none" xmlns="http://www.w3.org/2000/svg">
<path d="M21.03 2.96994C21.701 3.64094 22.0779 4.55101 22.0779 5.49994C22.0779 6.44887 21.701 7.35894 21.03 8.02994L9.06199 19.9999C8.78514 20.2769 8.44079 20.4768 8.06299 20.5799L2.94699 21.9749C2.81948 22.0095 2.68509 22.0098 2.55743 21.9758C2.42977 21.9418 2.31336 21.8746 2.21999 21.7811C2.12662 21.6877 2.0596 21.5712 2.02571 21.4435C1.99181 21.3158 1.99226 21.1814 2.02699 21.0539L3.42199 15.9379C3.52509 15.5601 3.72501 15.2158 4.00199 14.9389L15.97 2.96994C16.641 2.29895 17.5511 1.922 18.5 1.922C19.4489 1.922 20.359 2.29895 21.03 2.96994ZM15 6.05994L5.06199 15.9999C4.96979 16.0923 4.90326 16.207 4.86899 16.3329L3.81899 20.1829L7.66899 19.1329C7.79438 19.0978 7.90846 19.0306 7.99999 18.9379L17.94 8.99994L15 6.05994ZM17.03 4.02994L16.06 4.99994L19 7.93994L19.97 6.96994C20.3534 6.57873 20.5669 6.05203 20.5641 5.50429C20.5613 4.95655 20.3425 4.43203 19.9552 4.04471C19.5679 3.6574 19.0434 3.43858 18.4956 3.43582C17.9479 3.43305 17.4212 3.64656 17.03 4.02994Z" fill="currentColor"/>
</svg>
