<!--

    Copyright (C) 2017-2019 Dremio Corporation

    Licensed under the Apache License, Version 2.0 (the "License");
    you may not use this file except in compliance with the License.
    You may obtain a copy of the License at

        http://www.apache.org/licenses/LICENSE-2.0

    Unless required by applicable law or agreed to in writing, software
    distributed under the License is distributed on an "AS IS" BASIS,
    WITHOUT WARRANTIES OR CONDITIONS OF ANY KIND, either express or implied.
    See the License for the specific language governing permissions and
    limitations under the License.

-->
<svg id="interface/empty-add-data" viewBox="0 0 56 57" fill="none" xmlns="http://www.w3.org/2000/svg">
<path fill-rule="evenodd" clip-rule="evenodd" d="M11.1393 10.3467C10.0683 11.483 9.33331 12.89 9.33331 14.5V42.5C9.33331 44.11 10.0683 45.517 11.1393 46.6533C12.201 47.7803 13.657 48.7137 15.323 49.4603C18.6573 50.9537 23.1396 51.8333 28 51.8333C28.6228 51.8333 29.2393 51.8189 29.8481 51.7906C28.8695 50.7629 28.0337 49.5981 27.3723 48.328C23.1471 48.2555 19.4108 47.4557 16.7533 46.266C15.358 45.6407 14.336 44.9407 13.685 44.25C13.0433 43.5733 12.8333 42.983 12.8333 42.5V38.748C13.6203 39.2805 14.4535 39.7412 15.323 40.1247C18.1254 41.3817 21.7388 42.2037 25.706 42.4339C25.6799 42.0704 25.6666 41.7034 25.6666 41.3333C25.6666 40.5178 25.731 39.7173 25.8549 38.9366C22.2551 38.7221 19.0879 37.9779 16.7533 36.9327C15.358 36.3073 14.336 35.6073 13.685 34.9167C13.0433 34.24 12.8333 33.6497 12.8333 33.1667V29.4147C13.6203 29.9472 14.4535 30.4079 15.323 30.7913C18.6573 32.287 23.1396 33.1667 28 33.1667C28.017 33.1667 28.0339 33.1667 28.0509 33.1666C28.9401 31.7777 30.0495 30.5433 31.3298 29.5127C30.2607 29.6132 29.1469 29.6667 28 29.6667C23.5176 29.6667 19.5416 28.8477 16.7533 27.5993C15.358 26.974 14.336 26.274 13.685 25.5833C13.0433 24.9067 12.8333 24.3163 12.8333 23.8333V20.0813C13.6203 20.6138 14.4535 21.0746 15.323 21.458C18.6573 22.9537 23.1396 23.8333 28 23.8333C32.8603 23.8333 37.3427 22.9537 40.677 21.458C41.58 21.0543 42.42 20.5947 43.1666 20.0813V23.8333C43.1666 24.3163 42.9566 24.9067 42.315 25.5833C42.125 25.7849 41.9034 25.9872 41.6502 26.1883C43.4198 26.2822 45.109 26.6795 46.6666 27.329V14.5C46.6666 12.89 45.9316 11.483 44.8606 10.3467C43.799 9.222 42.343 8.28866 40.677 7.542C37.3427 6.04633 32.8603 5.16666 28 5.16666C23.1396 5.16666 18.6573 6.04633 15.323 7.542C13.657 8.28633 12.201 9.222 11.1393 10.3467ZM13.685 16.25C13.0433 15.5733 12.8333 14.983 12.8333 14.5C12.8333 14.017 13.0433 13.4267 13.685 12.75C14.336 12.0593 15.358 11.3593 16.7533 10.734C19.5416 9.48333 23.5176 8.66666 28 8.66666C32.48 8.66666 36.4583 9.48566 39.2466 10.734C40.642 11.3593 41.664 12.0593 42.315 12.75C42.9566 13.4267 43.1666 14.017 43.1666 14.5C43.1666 14.983 42.9566 15.5733 42.315 16.25C41.664 16.9407 40.642 17.6407 39.2466 18.266C36.4583 19.5167 32.4823 20.3333 28 20.3333C23.5176 20.3333 19.5416 19.5143 16.7533 18.266C15.358 17.6407 14.336 16.9407 13.685 16.25Z" fill="currentColor"/>
<path d="M40.8333 28.5C44.2369 28.5 47.5012 29.8521 49.9079 32.2588C52.3146 34.6655 53.6667 37.9297 53.6667 41.3333C53.6667 44.7369 52.3146 48.0012 49.9079 50.4079C47.5012 52.8146 44.2369 54.1667 40.8333 54.1667C37.4297 54.1667 34.1655 52.8146 31.7588 50.4079C29.3521 48.0012 28 44.7369 28 41.3333C28 37.9297 29.3521 34.6655 31.7588 32.2588C34.1655 29.8521 37.4297 28.5 40.8333 28.5ZM40.8333 33.1667L40.6233 33.1853C40.3902 33.2279 40.1756 33.3405 40.008 33.508C39.8405 33.6756 39.7279 33.8902 39.6853 34.1233L39.6667 34.3333V40.1667H33.8333L33.6233 40.1853C33.3902 40.2279 33.1756 40.3405 33.008 40.508C32.8405 40.6756 32.7279 40.8902 32.6853 41.1233L32.6667 41.3333L32.6853 41.5433C32.7279 41.7764 32.8405 41.9911 33.008 42.1586C33.1756 42.3262 33.3902 42.4387 33.6233 42.4813L33.8333 42.5H39.6667V48.3333L39.6853 48.5433C39.7279 48.7764 39.8405 48.9911 40.008 49.1586C40.1756 49.3262 40.3902 49.4387 40.6233 49.4813L40.8333 49.5L41.0433 49.4813C41.2764 49.4387 41.4911 49.3262 41.6586 49.1586C41.8262 48.9911 41.9387 48.7764 41.9813 48.5433L42 48.3333V42.5H47.8333L48.0433 42.4813C48.2764 42.4387 48.4911 42.3262 48.6586 42.1586C48.8262 41.9911 48.9387 41.7764 48.9813 41.5433L49 41.3333L48.9813 41.1233C48.9387 40.8902 48.8262 40.6756 48.6586 40.508C48.4911 40.3405 48.2764 40.2279 48.0433 40.1853L47.8333 40.1667H42V34.3333L41.9813 34.1233C41.9387 33.8902 41.8262 33.6756 41.6586 33.508C41.4911 33.3405 41.2764 33.2279 41.0433 33.1853L40.8333 33.1667Z" fill="currentColor"/>
</svg>
