<!--

    Copyright (C) 2017-2019 Dremio Corporation

    Licensed under the Apache License, Version 2.0 (the "License");
    you may not use this file except in compliance with the License.
    You may obtain a copy of the License at

        http://www.apache.org/licenses/LICENSE-2.0

    Unless required by applicable law or agreed to in writing, software
    distributed under the License is distributed on an "AS IS" BASIS,
    WITHOUT WARRANTIES OR CONDITIONS OF ANY KIND, either express or implied.
    See the License for the specific language governing permissions and
    limitations under the License.

-->
<svg id="interface/expand" viewBox="0 0 24 24" fill="none" xmlns="http://www.w3.org/2000/svg">
<path d="M12.748 3.001H20.302L20.402 3.015L20.501 3.043L20.562 3.069C20.6434 3.1051 20.7173 3.15596 20.78 3.219L20.82 3.263L20.881 3.345L20.918 3.41L20.957 3.5L20.977 3.564L20.99 3.628L20.999 3.721V11.255C20.999 11.445 20.9268 11.6279 20.7971 11.7668C20.6673 11.9056 20.4897 11.9901 20.3002 12.003C20.1106 12.016 19.9232 11.9565 19.7757 11.8366C19.6283 11.7167 19.5319 11.5452 19.506 11.357L19.5 11.255L19.499 5.559L5.55905 19.504H11.249C11.4308 19.5038 11.6063 19.5696 11.7432 19.6892C11.88 19.8087 11.9688 19.9739 11.993 20.154L12 20.254C12.0002 20.4356 11.9346 20.611 11.8152 20.7478C11.6959 20.8847 11.531 20.9735 11.351 20.998L11.25 21.005H3.71405L3.68405 21C3.62019 20.9952 3.55727 20.9818 3.49705 20.96L3.40705 20.922L3.38905 20.912C3.28617 20.8564 3.19782 20.7773 3.13112 20.6813C3.06441 20.5852 3.02123 20.4748 3.00505 20.359L2.99805 20.254V12.75C2.99811 12.56 3.07029 12.3771 3.20002 12.2382C3.32975 12.0994 3.50735 12.0149 3.69693 12.002C3.88651 11.989 4.07394 12.0485 4.22135 12.1684C4.36875 12.2883 4.46515 12.4598 4.49105 12.648L4.49805 12.75V18.442L18.438 4.5L12.748 4.501C12.5668 4.50099 12.3917 4.43536 12.2551 4.31623C12.1185 4.19711 12.0297 4.03255 12.005 3.853L11.998 3.751C11.9981 3.56976 12.0637 3.39466 12.1828 3.25807C12.3019 3.12148 12.4665 3.03265 12.646 3.008L12.748 3V3.001Z" fill="currentColor"/>
</svg>
