<!--

    Copyright (C) 2017-2019 Dremio Corporation

    Licensed under the Apache License, Version 2.0 (the "License");
    you may not use this file except in compliance with the License.
    You may obtain a copy of the License at

        http://www.apache.org/licenses/LICENSE-2.0

    Unless required by applicable law or agreed to in writing, software
    distributed under the License is distributed on an "AS IS" BASIS,
    WITHOUT WARRANTIES OR CONDITIONS OF ANY KIND, either express or implied.
    See the License for the specific language governing permissions and
    limitations under the License.

-->
<svg id="interface/format-folder" viewBox="0 0 24 24" fill="none" xmlns="http://www.w3.org/2000/svg">
<path fill-rule="evenodd" clip-rule="evenodd" d="M8.207 4C8.667 4 9.115 4.141 9.491 4.402L9.647 4.522L12.022 6.5H19.75C20.2928 6.49982 20.8174 6.69588 21.227 7.05204C21.6367 7.40819 21.9037 7.90043 21.979 8.438L21.995 8.596L22 8.75V12.8096C21.5557 12.3832 21.051 12.0194 20.5 11.7322V8.75C20.5 8.56876 20.4344 8.39366 20.3152 8.25707C20.1961 8.12048 20.0316 8.03165 19.852 8.007L19.75 8H12.021C11.46 8 11.1957 7.77386 10.8153 7.44846C10.7415 7.38539 10.6634 7.3186 10.578 7.249L8.688 5.674C8.5804 5.5842 8.4498 5.52635 8.311 5.507L8.207 5.5H4.25C4.06876 5.50001 3.89366 5.56564 3.75707 5.68477C3.62048 5.80389 3.53165 5.96845 3.507 6.148L3.5 6.25V8.999V10.499V17.75C3.5 18.13 3.782 18.444 4.148 18.493L4.25 18.5H11.0764C11.1572 19.0232 11.3004 19.5258 11.4982 20H4.25C3.67987 20.0001 3.13098 19.7837 2.71425 19.3946C2.29751 19.0056 2.04402 18.4728 2.005 17.904L2 17.75V6.25C1.99993 5.67987 2.2163 5.13098 2.60537 4.71425C2.99444 4.29751 3.52721 4.04402 4.096 4.005L4.25 4H8.207Z" fill="currentColor"/>
<path d="M17.5 23C16.7777 23 16.0625 22.8577 15.3952 22.5813C14.728 22.3049 14.1216 21.8998 13.6109 21.3891C13.1002 20.8784 12.6951 20.272 12.4187 19.6048C12.1423 18.9375 12 18.2223 12 17.5C12 16.7777 12.1423 16.0625 12.4187 15.3952C12.6951 14.728 13.1002 14.1216 13.6109 13.6109C14.1216 13.1002 14.728 12.6951 15.3952 12.4187C16.0625 12.1423 16.7777 12 17.5 12C18.9587 12 20.3576 12.5795 21.3891 13.6109C22.4205 14.6424 23 16.0413 23 17.5C23 18.9587 22.4205 20.3576 21.3891 21.3891C20.3576 22.4205 18.9587 23 17.5 23ZM19.354 14.646C19.2601 14.5521 19.1328 14.4994 19 14.4994C18.8672 14.4994 18.7399 14.5521 18.646 14.646C18.5521 14.7399 18.4994 14.8672 18.4994 15C18.4994 15.1328 18.5521 15.2601 18.646 15.354L19.293 16H17.25C16.388 16 15.5614 16.3424 14.9519 16.9519C14.3424 17.5614 14 18.388 14 19.25V19.5C14 19.6326 14.0527 19.7598 14.1464 19.8536C14.2402 19.9473 14.3674 20 14.5 20C14.6326 20 14.7598 19.9473 14.8536 19.8536C14.9473 19.7598 15 19.6326 15 19.5V19.25C15 18.6533 15.2371 18.081 15.659 17.659C16.081 17.2371 16.6533 17 17.25 17H19.293L18.646 17.646C18.5521 17.7399 18.4994 17.8672 18.4994 18C18.4994 18.1328 18.5521 18.2601 18.646 18.354C18.7399 18.4479 18.8672 18.5006 19 18.5006C19.1328 18.5006 19.2601 18.4479 19.354 18.354L20.854 16.854C20.9006 16.8076 20.9375 16.7524 20.9627 16.6916C20.9879 16.6309 21.0009 16.5658 21.0009 16.5C21.0009 16.4342 20.9879 16.3691 20.9627 16.3084C20.9375 16.2476 20.9006 16.1924 20.854 16.146L19.354 14.646Z" fill="currentColor"/>
</svg>
