<!--

    Copyright (C) 2017-2019 Dremio Corporation

    Licensed under the Apache License, Version 2.0 (the "License");
    you may not use this file except in compliance with the License.
    You may obtain a copy of the License at

        http://www.apache.org/licenses/LICENSE-2.0

    Unless required by applicable law or agreed to in writing, software
    distributed under the License is distributed on an "AS IS" BASIS,
    WITHOUT WARRANTIES OR CONDITIONS OF ANY KIND, either express or implied.
    See the License for the specific language governing permissions and
    limitations under the License.

-->
<svg id="interface/information" viewBox="0 0 24 24" fill="none" xmlns="http://www.w3.org/2000/svg">
<path d="M12 1.99902C17.524 1.99902 22.002 6.47702 22.002 12.001C22.002 17.524 17.524 22.002 12 22.002C6.47599 22.002 1.99799 17.524 1.99799 12.001C1.99799 6.47702 6.47599 1.99902 12 1.99902ZM12 3.49902C10.8758 3.48683 9.76035 3.69772 8.7182 4.1195C7.67606 4.54127 6.72792 5.16554 5.92865 5.95619C5.12938 6.74684 4.49486 7.68816 4.06181 8.72566C3.62876 9.76317 3.40578 10.8763 3.40578 12.0005C3.40578 13.1248 3.62876 14.2379 4.06181 15.2754C4.49486 16.3129 5.12938 17.2542 5.92865 18.0449C6.72792 18.8355 7.67606 19.4598 8.7182 19.8816C9.76035 20.3033 10.8758 20.5142 12 20.502C14.232 20.4678 16.361 19.5571 17.9273 17.9666C19.4937 16.376 20.3716 14.2333 20.3716 12.001C20.3716 9.76874 19.4937 7.626 17.9273 6.03548C16.361 4.44496 14.232 3.53426 12 3.50002V3.49902ZM11.996 10.499C12.1774 10.4988 12.3527 10.5643 12.4895 10.6835C12.6263 10.8026 12.7153 10.9673 12.74 11.147L12.747 11.249L12.75 16.751C12.7499 16.941 12.6777 17.124 12.548 17.2628C12.4183 17.4017 12.2407 17.4861 12.0511 17.499C11.8615 17.512 11.6741 17.4525 11.5267 17.3326C11.3793 17.2127 11.2829 17.0413 11.257 16.853L11.25 16.752L11.247 11.25C11.247 11.0511 11.326 10.8603 11.4667 10.7197C11.6073 10.579 11.7981 10.5 11.997 10.5L11.996 10.499ZM12 7.00302C12.1338 6.99879 12.267 7.02148 12.3919 7.06976C12.5167 7.11803 12.6306 7.1909 12.7267 7.28404C12.8229 7.37717 12.8993 7.48868 12.9515 7.61193C13.0037 7.73519 13.0306 7.86767 13.0306 8.00152C13.0306 8.13537 13.0037 8.26786 12.9515 8.39111C12.8993 8.51437 12.8229 8.62587 12.7267 8.71901C12.6306 8.81215 12.5167 8.88502 12.3919 8.93329C12.267 8.98156 12.1338 9.00426 12 9.00002C11.7406 8.99181 11.4947 8.88302 11.3141 8.69666C11.1335 8.5103 11.0326 8.261 11.0326 8.00152C11.0326 7.74204 11.1335 7.49275 11.3141 7.30639C11.4947 7.12003 11.7406 7.01123 12 7.00302Z" fill="currentColor"/>
</svg>
