<!--

    Copyright (C) 2017-2019 Dremio Corporation

    Licensed under the Apache License, Version 2.0 (the "License");
    you may not use this file except in compliance with the License.
    You may obtain a copy of the License at

        http://www.apache.org/licenses/LICENSE-2.0

    Unless required by applicable law or agreed to in writing, software
    distributed under the License is distributed on an "AS IS" BASIS,
    WITHOUT WARRANTIES OR CONDITIONS OF ANY KIND, either express or implied.
    See the License for the specific language governing permissions and
    limitations under the License.

-->
<svg id="interface/job-profile" viewBox="0 0 24 24" fill="none" xmlns="http://www.w3.org/2000/svg">
<path fill-rule="evenodd" clip-rule="evenodd" d="M5.5 3C4.67157 3 4 3.67157 4 4.5V5.83333C4 6.66176 4.67157 7.33333 5.5 7.33333H9.25C9.25 8.77821 10.3991 9.9547 11.8333 9.99872V10H14.0833C14.7277 10 15.25 10.5223 15.25 11.1667H12.5C11.6716 11.1667 11 11.8382 11 12.6667V14L11 14.0111C11.1407 14.309 11.2541 14.6222 11.3372 14.9477C11.6123 15.2848 12.031 15.5 12.5 15.5H15.25V16.6667H12.5C12.0804 16.6667 11.701 16.839 11.4288 17.1166C11.3491 17.5966 11.2043 18.0546 11.0037 18.4811L11.008 18.4854L12.9431 20.4205C13.1144 20.5918 13.2437 20.7893 13.331 21H19.5C20.3284 21 21 20.3284 21 19.5V18.1667C21 17.3382 20.3284 16.6667 19.5 16.6667H16.75V15.5H19.5C20.3284 15.5 21 14.8284 21 14V12.6667C21 11.8382 20.3284 11.1667 19.5 11.1667H16.75C16.75 9.72179 15.6009 8.5453 14.1667 8.50128V8.5H11.9167C11.2723 8.5 10.75 7.97767 10.75 7.33333H14.5C15.3284 7.33333 16 6.66176 16 5.83333V4.5C16 3.67157 15.3284 3 14.5 3H5.5ZM14.5 4.5H5.5V5.83333H14.5V4.5ZM12.5 14V12.6667H19.5V14H12.5ZM12.5 18.1667V19.5H19.5V18.1667H12.5Z" fill="currentColor"/>
<path fill-rule="evenodd" clip-rule="evenodd" d="M8.7826 19.8413C8.05208 20.362 7.177 20.6413 6.27988 20.64C5.31145 20.64 4.37112 20.3146 3.60983 19.716C2.84855 19.1174 2.31046 18.2804 2.08195 17.3394C1.85344 16.3983 1.94776 15.4077 2.34978 14.5267C2.75179 13.6456 3.43818 12.9252 4.29876 12.4811C5.15934 12.037 6.14418 11.8949 7.09521 12.0776C8.04623 12.2604 8.90827 12.7574 9.54293 13.4888C10.1776 14.2203 10.5481 15.1438 10.5949 16.1111C10.6417 17.0784 10.3622 18.0334 9.80116 18.8227L12.3087 21.3312C12.3794 21.3971 12.4362 21.4766 12.4755 21.5649C12.5149 21.6532 12.536 21.7486 12.5377 21.8453C12.5394 21.9419 12.5216 22.038 12.4854 22.1276C12.4492 22.2173 12.3953 22.2987 12.327 22.3671C12.2586 22.4355 12.1771 22.4894 12.0875 22.5256C11.9978 22.5618 11.9018 22.5796 11.8051 22.5779C11.7085 22.5761 11.6131 22.555 11.5248 22.5156C11.4365 22.4763 11.357 22.4195 11.2911 22.3488L8.7826 19.8413ZM6.27988 19.2C5.51605 19.2 4.78351 18.8966 4.24341 18.3565C3.7033 17.8164 3.39988 17.0838 3.39988 16.32C3.39988 15.5562 3.7033 14.8236 4.24341 14.2835C4.78351 13.7434 5.51605 13.44 6.27988 13.44C7.0437 13.44 7.77624 13.7434 8.31634 14.2835C8.85645 14.8236 9.15988 15.5562 9.15988 16.32C9.15988 17.0838 8.85645 17.8164 8.31634 18.3565C7.77624 18.8966 7.0437 19.2 6.27988 19.2Z" fill="currentColor"/>
</svg>
