<!--

    Copyright (C) 2017-2019 Dremio Corporation

    Licensed under the Apache License, Version 2.0 (the "License");
    you may not use this file except in compliance with the License.
    You may obtain a copy of the License at

        http://www.apache.org/licenses/LICENSE-2.0

    Unless required by applicable law or agreed to in writing, software
    distributed under the License is distributed on an "AS IS" BASIS,
    WITHOUT WARRANTIES OR CONDITIONS OF ANY KIND, either express or implied.
    See the License for the specific language governing permissions and
    limitations under the License.

-->
<svg id="interface/notable-observations-rhs" viewBox="0 0 24 24" fill="none" xmlns="http://www.w3.org/2000/svg">
<rect width="24" height="24" rx="12" fill="#EEEFF1"/>
<path d="M17.8448 13.2296V13.2269C17.8076 13.1173 17.7639 13.0103 17.714 12.9064L15.5653 7.77183C15.5343 7.6979 15.4905 7.63066 15.436 7.57356C15.2631 7.39189 15.0578 7.24779 14.8319 7.14947C14.6059 7.05115 14.3637 7.00054 14.1191 7.00054C13.8746 7.00054 13.6324 7.05115 13.4064 7.14947C13.1805 7.24779 12.9752 7.39189 12.8022 7.57356C12.6861 7.69564 12.6208 7.86111 12.6207 8.03367V9.17445H11.3793V8.03367C11.3793 7.86092 11.314 7.69523 11.1978 7.57301C11.0248 7.39135 10.8195 7.24724 10.5936 7.14892C10.3676 7.0506 10.1254 7 9.88086 7C9.63628 7 9.39409 7.0506 9.16814 7.14892C8.94218 7.24724 8.73688 7.39135 8.56396 7.57301C8.50953 7.63012 8.46568 7.69735 8.43465 7.77129L6.28603 12.9064C6.23609 13.0103 6.19238 13.1173 6.15517 13.2269C6.15517 13.2269 6.15517 13.2269 6.15517 13.2296C6.02395 13.6176 5.97506 14.031 6.01192 14.4408C6.04878 14.8507 6.17049 15.2472 6.36855 15.6024C6.56661 15.9577 6.83622 16.2632 7.1585 16.4976C7.48078 16.732 7.84795 16.8895 8.23429 16.9592C8.62063 17.0289 9.01681 17.0091 9.39509 16.9011C9.77337 16.7931 10.1246 16.5996 10.4242 16.3341C10.7238 16.0686 10.9645 15.7376 11.1295 15.3641C11.2945 14.9906 11.3797 14.5838 11.3793 14.1721V10.4782H12.6207V14.1721C12.6203 14.5838 12.7055 14.9906 12.8705 15.3641C13.0355 15.7376 13.2762 16.0686 13.5758 16.3341C13.8754 16.5996 14.2266 16.7931 14.6049 16.9011C14.9832 17.0091 15.3794 17.0289 15.7657 16.9592C16.1521 16.8895 16.5192 16.732 16.8415 16.4976C17.1638 16.2632 17.4334 15.9577 17.6314 15.6024C17.8295 15.2472 17.9512 14.8507 17.9881 14.4408C18.0249 14.031 17.976 13.6176 17.8448 13.2296ZM9.51724 8.42914C9.60592 8.36153 9.71006 8.31979 9.81908 8.30815C9.9281 8.29651 10.0381 8.31539 10.1379 8.36286V11.7933C9.58762 11.4225 8.92734 11.2753 8.28103 11.3794L9.51724 8.42914ZM8.68965 15.6932C8.40321 15.6932 8.1232 15.604 7.88504 15.4368C7.64687 15.2697 7.46124 15.0321 7.35162 14.7542C7.24201 14.4763 7.21332 14.1704 7.26921 13.8754C7.32509 13.5803 7.46302 13.3093 7.66557 13.0966C7.86811 12.8839 8.12617 12.739 8.40711 12.6803C8.68805 12.6216 8.97925 12.6518 9.24389 12.7669C9.50852 12.882 9.73471 13.077 9.89385 13.3271C10.053 13.5772 10.1379 13.8713 10.1379 14.1721C10.1379 14.5755 9.98534 14.9624 9.71374 15.2477C9.44214 15.5329 9.07376 15.6932 8.68965 15.6932ZM13.8621 8.36286C13.962 8.31572 14.0719 8.29702 14.1809 8.30865C14.2898 8.32029 14.3939 8.36184 14.4828 8.42914L15.7174 11.3794C15.0711 11.2753 14.4108 11.4225 13.8605 11.7933L13.8621 8.36286ZM15.3103 15.6932C15.0239 15.6932 14.7439 15.604 14.5057 15.4368C14.2676 15.2697 14.0819 15.0321 13.9723 14.7542C13.8627 14.4763 13.834 14.1704 13.8899 13.8754C13.9458 13.5803 14.0837 13.3093 14.2863 13.0966C14.4888 12.8839 14.7469 12.739 15.0278 12.6803C15.3087 12.6216 15.5999 12.6518 15.8646 12.7669C16.1292 12.882 16.3554 13.077 16.5145 13.3271C16.6737 13.5772 16.7586 13.8713 16.7586 14.1721C16.7586 14.5755 16.606 14.9624 16.3344 15.2477C16.0628 15.5329 15.6945 15.6932 15.3103 15.6932Z" fill="#505862"/>
</svg>
