<!--

    Copyright (C) 2017-2019 Dremio Corporation

    Licensed under the Apache License, Version 2.0 (the "License");
    you may not use this file except in compliance with the License.
    You may obtain a copy of the License at

        http://www.apache.org/licenses/LICENSE-2.0

    Unless required by applicable law or agreed to in writing, software
    distributed under the License is distributed on an "AS IS" BASIS,
    WITHOUT WARRANTIES OR CONDITIONS OF ANY KIND, either express or implied.
    See the License for the specific language governing permissions and
    limitations under the License.

-->
<svg id="interface/notable-observations" viewBox="0 0 16 16" fill="none" xmlns="http://www.w3.org/2000/svg">
<rect width="16" height="16" rx="8" fill="#EEEFF1"/>
<path d="M13.8448 9.22963V9.22692C13.8076 9.11732 13.7639 9.01028 13.714 8.90641L11.5653 3.77183C11.5343 3.6979 11.4905 3.63066 11.436 3.57356C11.2631 3.39189 11.0578 3.24779 10.8319 3.14947C10.6059 3.05115 10.3637 3.00054 10.1191 3.00054C9.87456 3.00054 9.63237 3.05115 9.40641 3.14947C9.18046 3.24779 8.97516 3.39189 8.80224 3.57356C8.68612 3.69564 8.62083 3.86111 8.62069 4.03367V5.17445H7.37931V4.03367C7.3793 3.86092 7.314 3.69523 7.19776 3.57301C7.02484 3.39135 6.81954 3.24724 6.59359 3.14892C6.36763 3.0506 6.12544 3 5.88086 3C5.63628 3 5.39409 3.0506 5.16814 3.14892C4.94218 3.24724 4.73688 3.39135 4.56396 3.57301C4.50953 3.63012 4.46568 3.69735 4.43465 3.77129L2.28603 8.90641C2.23609 9.01028 2.19238 9.11732 2.15517 9.22692C2.15517 9.22692 2.15517 9.22692 2.15517 9.22963C2.02395 9.61758 1.97506 10.031 2.01192 10.4408C2.04878 10.8507 2.17049 11.2472 2.36855 11.6024C2.56661 11.9577 2.83622 12.2632 3.1585 12.4976C3.48078 12.732 3.84795 12.8895 4.23429 12.9592C4.62063 13.0289 5.01681 13.0091 5.39509 12.9011C5.77337 12.7931 6.1246 12.5996 6.4242 12.3341C6.72379 12.0686 6.96451 11.7376 7.12949 11.3641C7.29448 10.9906 7.37974 10.5838 7.37931 10.1721V6.47819H8.62069V10.1721C8.62026 10.5838 8.70552 10.9906 8.87051 11.3641C9.03549 11.7376 9.27621 12.0686 9.5758 12.3341C9.8754 12.5996 10.2266 12.7931 10.6049 12.9011C10.9832 13.0091 11.3794 13.0289 11.7657 12.9592C12.1521 12.8895 12.5192 12.732 12.8415 12.4976C13.1638 12.2632 13.4334 11.9577 13.6314 11.6024C13.8295 11.2472 13.9512 10.8507 13.9881 10.4408C14.0249 10.031 13.976 9.61758 13.8448 9.22963ZM5.51724 4.42914C5.60592 4.36153 5.71006 4.31979 5.81908 4.30815C5.9281 4.29651 6.03811 4.31539 6.13793 4.36286V7.79334C5.58762 7.42246 4.92734 7.27527 4.28103 7.3794L5.51724 4.42914ZM4.68965 11.6932C4.40321 11.6932 4.1232 11.604 3.88504 11.4368C3.64687 11.2697 3.46124 11.0321 3.35162 10.7542C3.24201 10.4763 3.21332 10.1704 3.26921 9.87539C3.32509 9.58034 3.46302 9.30932 3.66557 9.0966C3.86811 8.88388 4.12617 8.73901 4.40711 8.68032C4.68805 8.62163 4.97925 8.65176 5.24389 8.76688C5.50852 8.882 5.73471 9.07696 5.89385 9.32709C6.05299 9.57722 6.13793 9.8713 6.13793 10.1721C6.13793 10.5755 5.98534 10.9624 5.71374 11.2477C5.44214 11.5329 5.07376 11.6932 4.68965 11.6932ZM9.86207 4.36286C9.96196 4.31572 10.0719 4.29702 10.1809 4.30865C10.2898 4.32029 10.3939 4.36184 10.4828 4.42914L11.7174 7.3794C11.0711 7.27527 10.4108 7.42246 9.86052 7.79334L9.86207 4.36286ZM11.3103 11.6932C11.0239 11.6932 10.7439 11.604 10.5057 11.4368C10.2676 11.2697 10.0819 11.0321 9.97231 10.7542C9.8627 10.4763 9.83401 10.1704 9.8899 9.87539C9.94578 9.58034 10.0837 9.30932 10.2863 9.0966C10.4888 8.88388 10.7469 8.73901 11.0278 8.68032C11.3087 8.62163 11.5999 8.65176 11.8646 8.76688C12.1292 8.882 12.3554 9.07696 12.5145 9.32709C12.6737 9.57722 12.7586 9.8713 12.7586 10.1721C12.7586 10.5755 12.606 10.9624 12.3344 11.2477C12.0628 11.5329 11.6945 11.6932 11.3103 11.6932Z" fill="#505862"/>
</svg>
