<!--

    Copyright (C) 2017-2019 Dremio Corporation

    Licensed under the Apache License, Version 2.0 (the "License");
    you may not use this file except in compliance with the License.
    You may obtain a copy of the License at

        http://www.apache.org/licenses/LICENSE-2.0

    Unless required by applicable law or agreed to in writing, software
    distributed under the License is distributed on an "AS IS" BASIS,
    WITHOUT WARRANTIES OR CONDITIONS OF ANY KIND, either express or implied.
    See the License for the specific language governing permissions and
    limitations under the License.

-->
<svg id="interface/owner" viewBox="0 0 24 24" fill="none" xmlns="http://www.w3.org/2000/svg">
<path d="M8 14H17C17.0918 13.9999 17.1818 13.9746 17.2601 13.9268C17.3385 13.879 17.4021 13.8106 17.4442 13.729C17.4862 13.6474 17.505 13.5558 17.4984 13.4643C17.4919 13.3727 17.4602 13.2848 17.407 13.21L15.114 10L17.407 6.79C17.4602 6.71524 17.4919 6.62726 17.4984 6.53572C17.505 6.44418 17.4862 6.3526 17.4442 6.27101C17.4021 6.18942 17.3385 6.12098 17.2601 6.07317C17.1818 6.02537 17.0918 6.00006 17 6H7.5C7.36739 6 7.24021 6.05268 7.14645 6.14645C7.05268 6.24021 7 6.36739 7 6.5V17.5C7 17.6326 7.05268 17.7598 7.14645 17.8536C7.24021 17.9473 7.36739 18 7.5 18C7.63261 18 7.75979 17.9473 7.85355 17.8536C7.94732 17.7598 8 17.6326 8 17.5V14Z" fill="currentColor"/>
</svg>
