<!--

    Copyright (C) 2017-2019 Dremio Corporation

    Licensed under the Apache License, Version 2.0 (the "License");
    you may not use this file except in compliance with the License.
    You may obtain a copy of the License at

        http://www.apache.org/licenses/LICENSE-2.0

    Unless required by applicable law or agreed to in writing, software
    distributed under the License is distributed on an "AS IS" BASIS,
    WITHOUT WARRANTIES OR CONDITIONS OF ANY KIND, either express or implied.
    See the License for the specific language governing permissions and
    limitations under the License.

-->
<svg id='interface/refresh' width="21" height="20" viewBox="0 0 21 20" fill="none" xmlns="http://www.w3.org/2000/svg">
<path d="M10.1689 3.74995C11.4445 3.75017 12.6895 4.14068 13.7367 4.86905C14.7839 5.59741 15.5831 6.62876 16.0271 7.82457C16.471 9.02039 16.5385 10.3234 16.2204 11.5587C15.9022 12.794 15.2138 13.9023 14.2474 14.7349C13.281 15.5675 12.083 16.0845 10.8143 16.2164C9.54555 16.3484 8.26682 16.0889 7.14982 15.473C6.03282 14.857 5.13103 13.914 4.56556 12.7706C4.00009 11.6272 3.798 10.3382 3.98645 9.07661C4.04228 8.69828 3.76561 8.33328 3.38311 8.33328C3.23383 8.33056 3.08852 8.38144 2.97354 8.4767C2.85856 8.57195 2.78154 8.70526 2.75645 8.85245C2.4859 10.5983 2.84035 12.3836 3.75732 13.8937C4.6743 15.4038 6.09492 16.5417 7.76878 17.1069C9.44265 17.672 11.2623 17.6281 12.907 16.983C14.5516 16.3378 15.9157 15.1327 16.7589 13.5802C17.602 12.0276 17.8699 10.2273 17.5155 8.49649C17.1611 6.7657 16.2071 5.21558 14.8217 4.11937C13.4362 3.02315 11.7082 2.45122 9.94231 2.50437C8.17641 2.55753 6.48597 3.23238 5.16895 4.40995V3.54161C5.16895 3.37585 5.1031 3.21688 4.98589 3.09967C4.86868 2.98246 4.70971 2.91661 4.54395 2.91661C4.37819 2.91661 4.21922 2.98246 4.10201 3.09967C3.9848 3.21688 3.91895 3.37585 3.91895 3.54161V6.04161C3.91895 6.38661 4.19895 6.66661 4.54395 6.66661H7.04395C7.20971 6.66661 7.36868 6.60077 7.48589 6.48356C7.6031 6.36635 7.66895 6.20737 7.66895 6.04161C7.66895 5.87585 7.6031 5.71688 7.48589 5.59967C7.36868 5.48246 7.20971 5.41661 7.04395 5.41661H5.91895C7.07357 4.34312 8.59239 3.74751 10.1689 3.74995Z" fill="currentColor"/>
</svg>
