<!--

    Copyright (C) 2017-2019 Dremio Corporation

    Licensed under the Apache License, Version 2.0 (the "License");
    you may not use this file except in compliance with the License.
    You may obtain a copy of the License at

        http://www.apache.org/licenses/LICENSE-2.0

    Unless required by applicable law or agreed to in writing, software
    distributed under the License is distributed on an "AS IS" BASIS,
    WITHOUT WARRANTIES OR CONDITIONS OF ANY KIND, either express or implied.
    See the License for the specific language governing permissions and
    limitations under the License.

-->
<svg id="interface/settings" viewBox="0 0 24 24" fill="none" xmlns="http://www.w3.org/2000/svg">
  <path d="M12.012 2.25C12.746 2.258 13.477 2.343 14.194 2.503C14.3465 2.53705 14.4846 2.6179 14.5889 2.73426C14.6933 2.85062 14.7587 2.99667 14.776 3.152L14.946 4.679C14.97 4.89428 15.0442 5.10093 15.1626 5.28231C15.281 5.46368 15.4404 5.61473 15.6278 5.72329C15.8153 5.83185 16.0256 5.89489 16.2419 5.90735C16.4581 5.9198 16.6743 5.88132 16.873 5.795L18.274 5.18C18.4162 5.11735 18.5744 5.10044 18.7267 5.13161C18.879 5.16278 19.0178 5.24049 19.124 5.354C20.1359 6.43509 20.8895 7.73161 21.328 9.146C21.374 9.29464 21.3726 9.45389 21.324 9.60171C21.2755 9.74953 21.1821 9.87858 21.057 9.971L19.815 10.887C19.6403 11.0153 19.4983 11.1829 19.4004 11.3763C19.3025 11.5696 19.2515 11.7833 19.2515 12C19.2515 12.2167 19.3025 12.4304 19.4004 12.6237C19.4983 12.8171 19.6403 12.9847 19.815 13.113L21.058 14.028C21.1835 14.1204 21.2772 14.2495 21.3259 14.3976C21.3747 14.5456 21.3761 14.7051 21.33 14.854C20.8913 16.2683 20.1378 17.5648 19.126 18.646C19.0201 18.7593 18.8816 18.8369 18.7298 18.8682C18.5779 18.8996 18.4201 18.8831 18.278 18.821L16.871 18.204C16.6726 18.117 16.4565 18.0779 16.2402 18.09C16.0238 18.102 15.8134 18.1648 15.6259 18.2733C15.4383 18.3817 15.279 18.5328 15.1607 18.7143C15.0424 18.8958 14.9685 19.1026 14.945 19.318L14.776 20.844C14.7589 20.9976 14.6948 21.1423 14.5924 21.2581C14.49 21.3739 14.3544 21.4553 14.204 21.491C12.7555 21.8356 11.2464 21.8356 9.79797 21.491C9.64757 21.4553 9.5119 21.3739 9.4095 21.2581C9.30711 21.1423 9.24301 20.9976 9.22597 20.844L9.05797 19.32C9.03347 19.1052 8.95892 18.8991 8.84029 18.7183C8.72166 18.5376 8.56228 18.3872 8.37495 18.2792C8.18762 18.1712 7.97757 18.1087 7.76169 18.0967C7.54581 18.0847 7.33013 18.1235 7.13197 18.21L5.72597 18.826C5.58375 18.8883 5.4257 18.9049 5.27363 18.8736C5.12156 18.8422 4.98296 18.7645 4.87697 18.651C3.86468 17.5686 3.11111 16.2707 2.67297 14.855C2.62687 14.7061 2.62829 14.5466 2.67703 14.3986C2.72578 14.2505 2.81943 14.1214 2.94497 14.029L4.18797 13.113C4.36282 12.9848 4.50501 12.8173 4.60302 12.6239C4.70103 12.4305 4.75211 12.2168 4.75211 12C4.75211 11.7832 4.70103 11.5695 4.60302 11.3761C4.50501 11.1827 4.36282 11.0152 4.18797 10.887L2.94497 9.973C2.81961 9.88052 2.72616 9.75129 2.67759 9.60327C2.62903 9.45525 2.62776 9.29577 2.67397 9.147C3.1125 7.73262 3.86606 6.43611 4.87797 5.355C4.98416 5.24149 5.12298 5.16378 5.27526 5.13261C5.42753 5.10144 5.58573 5.11835 5.72797 5.181L7.12797 5.796C7.32699 5.88227 7.54347 5.92066 7.76002 5.90809C7.97657 5.89551 8.18715 5.83232 8.37484 5.7236C8.56254 5.61487 8.72212 5.46363 8.84076 5.28204C8.9594 5.10045 9.0338 4.89356 9.05797 4.678L9.22797 3.152C9.24513 2.99635 9.31058 2.84998 9.41513 2.73341C9.51968 2.61684 9.6581 2.53592 9.81097 2.502C10.528 2.343 11.261 2.259 12.012 2.25ZM12.012 3.75C11.5584 3.75533 11.1058 3.79443 10.658 3.867L10.549 4.844C10.499 5.29356 10.3442 5.7251 10.0968 6.10379C9.84941 6.48248 9.51649 6.79772 9.12488 7.02409C8.73327 7.25045 8.29393 7.3816 7.84232 7.40694C7.3907 7.43229 6.93945 7.35112 6.52497 7.17L5.62697 6.776C5.05496 7.47012 4.59968 8.25268 4.27897 9.093L5.07697 9.68C5.44119 9.94767 5.73731 10.2973 5.94141 10.7006C6.14552 11.1039 6.25186 11.5495 6.25186 12.0015C6.25186 12.4535 6.14552 12.8991 5.94141 13.3024C5.73731 13.7057 5.44119 14.0553 5.07697 14.323L4.27797 14.911C4.59797 15.753 5.05397 16.537 5.62597 17.233L6.53097 16.836C6.94446 16.6555 7.39456 16.5745 7.84504 16.5997C8.29553 16.6249 8.7338 16.7555 9.12459 16.981C9.51538 17.2065 9.84776 17.5206 10.095 17.898C10.3422 18.2755 10.4974 18.7057 10.548 19.154L10.658 20.138C11.547 20.288 12.456 20.288 13.345 20.138L13.455 19.154C13.5048 18.7051 13.6594 18.2742 13.9064 17.896C14.1534 17.5179 14.4858 17.2031 14.8769 16.9771C15.268 16.7511 15.7067 16.6202 16.1576 16.595C16.6086 16.5698 17.0592 16.651 17.473 16.832L18.378 17.228C18.9497 16.5335 19.4046 15.7506 19.725 14.91L18.927 14.322C18.5628 14.0543 18.2666 13.7047 18.0625 13.3014C17.8584 12.8981 17.7521 12.4525 17.7521 12.0005C17.7521 11.5485 17.8584 11.1029 18.0625 10.6996C18.2666 10.2963 18.5628 9.94667 18.927 9.679L19.723 9.092C19.4023 8.25168 18.947 7.46912 18.375 6.775L17.479 7.168C17.0647 7.34935 16.6136 7.43075 16.1621 7.40562C15.7106 7.38049 15.2713 7.24953 14.8798 7.02333C14.4882 6.79713 14.1553 6.48203 13.908 6.10345C13.6607 5.72488 13.5058 5.29345 13.456 4.844L13.346 3.868C12.9052 3.79593 12.4596 3.75682 12.013 3.751L12.012 3.75ZM12 8.25C12.9945 8.25 13.9484 8.64509 14.6516 9.34835C15.3549 10.0516 15.75 11.0054 15.75 12C15.75 12.9946 15.3549 13.9484 14.6516 14.6517C13.9484 15.3549 12.9945 15.75 12 15.75C11.0054 15.75 10.0516 15.3549 9.34832 14.6517C8.64506 13.9484 8.24997 12.9946 8.24997 12C8.24997 11.0054 8.64506 10.0516 9.34832 9.34835C10.0516 8.64509 11.0054 8.25 12 8.25ZM12 9.75C11.4032 9.75 10.8309 9.98705 10.409 10.409C9.98702 10.831 9.74997 11.4033 9.74997 12C9.74997 12.5967 9.98702 13.169 10.409 13.591C10.8309 14.0129 11.4032 14.25 12 14.25C12.5967 14.25 13.169 14.0129 13.591 13.591C14.0129 13.169 14.25 12.5967 14.25 12C14.25 11.4033 14.0129 10.831 13.591 10.409C13.169 9.98705 12.5967 9.75 12 9.75Z" fill="currentColor" />
</svg>
