<!--

    Copyright (C) 2017-2019 Dremio Corporation

    Licensed under the Apache License, Version 2.0 (the "License");
    you may not use this file except in compliance with the License.
    You may obtain a copy of the License at

        http://www.apache.org/licenses/LICENSE-2.0

    Unless required by applicable law or agreed to in writing, software
    distributed under the License is distributed on an "AS IS" BASIS,
    WITHOUT WARRANTIES OR CONDITIONS OF ANY KIND, either express or implied.
    See the License for the specific language governing permissions and
    limitations under the License.

-->
<svg id='interface/sort' viewBox="0 0 24 24" fill="none" xmlns="http://www.w3.org/2000/svg">
<path d="M17.25 4L17.15 4.007C16.9701 4.03121 16.805 4.11985 16.6855 4.25648C16.566 4.39311 16.5 4.56846 16.5 4.75V17.442L13.28 14.224L13.196 14.152C13.0438 14.0389 12.8544 13.9876 12.6659 14.0085C12.4774 14.0294 12.3038 14.1209 12.1801 14.2647C12.0564 14.4084 11.9917 14.5937 11.9991 14.7832C12.0065 14.9727 12.0854 15.1523 12.22 15.286L16.724 19.786L16.808 19.858C16.9524 19.9647 17.1304 20.016 17.3095 20.0026C17.4886 19.9892 17.657 19.912 17.784 19.785L22.281 15.285L22.353 15.201C22.46 15.0564 22.5114 14.8783 22.498 14.6989C22.4846 14.5196 22.4073 14.351 22.28 14.224L22.196 14.152C22.0514 14.045 21.8732 13.9935 21.6939 14.0069C21.5146 14.0203 21.346 14.0977 21.219 14.225L18 17.446V4.75L17.994 4.648C17.9693 4.46845 17.8805 4.30389 17.7439 4.18477C17.6073 4.06564 17.4322 4.00001 17.251 4H17.25ZM6.21398 4.22L1.71998 8.715L1.64698 8.799C1.54026 8.94347 1.48894 9.12144 1.50233 9.30055C1.51573 9.47966 1.59296 9.64801 1.71998 9.775L1.80398 9.848C1.94845 9.95471 2.12642 10.006 2.30553 9.99264C2.48463 9.97925 2.65299 9.90202 2.77998 9.775L5.99698 6.557V19.255L6.00498 19.357C6.02962 19.5366 6.11846 19.7011 6.25505 19.8202C6.39163 19.9394 6.56674 20.005 6.74798 20.005L6.84898 19.998C7.02871 19.9736 7.19351 19.8848 7.31283 19.7482C7.43216 19.6116 7.49794 19.4364 7.49798 19.255L7.49698 6.559L10.72 9.776L10.804 9.848C10.9563 9.95971 11.1451 10.0098 11.3328 9.98838C11.5205 9.96691 11.6931 9.87543 11.8163 9.7322C11.9394 9.58897 12.004 9.40456 11.9971 9.2158C11.9901 9.02704 11.9123 8.84784 11.779 8.714L7.27498 4.22L7.18998 4.148C7.04551 4.04129 6.86754 3.98996 6.68843 4.00336C6.50932 4.01675 6.34097 4.09398 6.21398 4.221V4.22Z" fill="currentColor"/>
</svg>
