<!--

    Copyright (C) 2017-2019 Dremio Corporation

    Licensed under the Apache License, Version 2.0 (the "License");
    you may not use this file except in compliance with the License.
    You may obtain a copy of the License at

        http://www.apache.org/licenses/LICENSE-2.0

    Unless required by applicable law or agreed to in writing, software
    distributed under the License is distributed on an "AS IS" BASIS,
    WITHOUT WARRANTIES OR CONDITIONS OF ANY KIND, either express or implied.
    See the License for the specific language governing permissions and
    limitations under the License.

-->
<svg id="interface/starflake-not-used" viewBox="0 0 18 18" fill="none" xmlns="http://www.w3.org/2000/svg">
<path d="M8.90364 0.771704L9.73234 7.38907L14.7623 3.20257L10.7923 8.29582L17.2291 8.8746L10.6574 9.70418L14.9165 14.8167L9.75161 10.7846L9.17345 17.2476L8.36403 10.8039L3.31478 15.0096L7.4197 9.72347L0.770878 9.1254L7.24625 8.31511L3.08351 3.33762L8.30621 7.38907L8.90364 0.771704ZM8.90364 0C8.49893 0 8.17131 0.308682 8.13276 0.694534L7.65096 5.92283L3.56531 2.72026C3.43041 2.6045 3.25696 2.56592 3.08351 2.56592C2.87152 2.56592 2.6788 2.64309 2.52463 2.79743C2.25482 3.08682 2.25482 3.53055 2.50535 3.81994L5.76231 7.71704L0.674518 8.3537C0.289079 8.41158 0 8.73955 0 9.1254C0 9.51125 0.308351 9.83923 0.69379 9.87781L5.93576 10.3601L2.69807 14.5466C2.44754 14.8553 2.48608 15.299 2.77516 15.5691C2.92934 15.7042 3.12206 15.7814 3.31478 15.7814C3.48822 15.7814 3.66167 15.7235 3.81585 15.6077L7.78587 12.2894L8.42184 17.3248C8.47966 17.7106 8.80728 18 9.19272 18C9.19272 18 9.19272 18 9.21199 18C9.59743 18 9.92505 17.6913 9.9636 17.3055L10.4261 12.2508L14.4732 15.3955C14.6081 15.5113 14.7816 15.5498 14.955 15.5498C15.167 15.5498 15.3597 15.4727 15.5139 15.3183C15.7837 15.0289 15.803 14.5852 15.5525 14.2958L12.1606 10.283L17.3255 9.62701C17.7109 9.56913 18 9.24116 18 8.8553C18 8.46945 17.6917 8.14148 17.3062 8.10289L12.2762 7.63987L15.3597 3.66559C15.4754 3.53055 15.5332 3.35691 15.5332 3.18328C15.5332 2.75884 15.1863 2.41158 14.7623 2.41158H14.743C14.5696 2.41158 14.3961 2.48875 14.2612 2.58521L10.3105 5.86495L9.65525 0.655948C9.6167 0.289389 9.28908 0 8.90364 0Z" fill="url(#paint0_linear)"/>
<defs>
<linearGradient id="paint0_linear" x1="9" y1="0" x2="9" y2="18" gradientUnits="userSpaceOnUse">
<stop stop-color="#56A2FD"/>
<stop offset="0.989583" stop-color="#C94DCA"/>
</linearGradient>
</defs>
</svg>
