<!--

    Copyright (C) 2017-2019 Dremio Corporation

    Licensed under the Apache License, Version 2.0 (the "License");
    you may not use this file except in compliance with the License.
    You may obtain a copy of the License at

        http://www.apache.org/licenses/LICENSE-2.0

    Unless required by applicable law or agreed to in writing, software
    distributed under the License is distributed on an "AS IS" BASIS,
    WITHOUT WARRANTIES OR CONDITIONS OF ANY KIND, either express or implied.
    See the License for the specific language governing permissions and
    limitations under the License.

-->
<svg id="interface/upload" viewBox="0 0 24 24" fill="none" xmlns="http://www.w3.org/2000/svg">
<path d="M6.087 7.75005C6.32369 6.42023 7.02082 5.21611 8.05623 4.34872C9.09164 3.48133 10.3993 3.00598 11.75 3.00598C13.1007 3.00598 14.4084 3.48133 15.4438 4.34872C16.4792 5.21611 17.1763 6.42023 17.413 7.75005H17.5C18.0719 7.75001 18.6373 7.87262 19.1578 8.10963C19.6783 8.34663 20.142 8.6925 20.5175 9.12392C20.893 9.55534 21.1716 10.0623 21.3345 10.6105C21.4975 11.1588 21.5409 11.7356 21.462 12.302C21.0067 11.7642 20.4674 11.3036 19.865 10.938C19.6957 10.4454 19.3768 10.018 18.9528 9.71537C18.5288 9.41276 18.0209 9.25008 17.5 9.25005H16.744C16.5513 9.25028 16.366 9.17636 16.2263 9.04362C16.0867 8.91087 16.0035 8.72948 15.994 8.53705C15.9386 7.4487 15.4672 6.42324 14.6773 5.67252C13.8874 4.9218 12.8393 4.50319 11.7495 4.50319C10.6597 4.50319 9.61164 4.9218 8.82171 5.67252C8.03179 6.42324 7.56042 7.4487 7.505 8.53705C7.4955 8.7293 7.41245 8.91055 7.27303 9.04327C7.13361 9.17599 6.94849 9.25002 6.756 9.25005H6C5.33696 9.25005 4.70107 9.51344 4.23223 9.98228C3.76339 10.4511 3.5 11.087 3.5 11.75C3.5 12.4131 3.76339 13.049 4.23223 13.5178C4.70107 13.9867 5.33696 14.25 6 14.25H10.4C10.2215 14.734 10.1017 15.2376 10.043 15.75H6C4.93913 15.75 3.92172 15.3286 3.17157 14.5785C2.42143 13.8283 2 12.8109 2 11.75C2 10.6892 2.42143 9.67176 3.17157 8.92162C3.92172 8.17147 4.93913 7.75005 6 7.75005H6.087ZM22 16.5C22 17.9587 21.4205 19.3577 20.3891 20.3891C19.3576 21.4206 17.9587 22 16.5 22C15.0413 22 13.6424 21.4206 12.6109 20.3891C11.5795 19.3577 11 17.9587 11 16.5C11 15.0414 11.5795 13.6424 12.6109 12.611C13.6424 11.5795 15.0413 11 16.5 11C17.9587 11 19.3576 11.5795 20.3891 12.611C21.4205 13.6424 22 15.0414 22 16.5ZM16 14.707V19.5C16 19.6327 16.0527 19.7598 16.1464 19.8536C16.2402 19.9474 16.3674 20 16.5 20C16.6326 20 16.7598 19.9474 16.8536 19.8536C16.9473 19.7598 17 19.6327 17 19.5V14.707L18.646 16.354C18.7399 16.4479 18.8672 16.5007 19 16.5007C19.1328 16.5007 19.2601 16.4479 19.354 16.354C19.4479 16.2602 19.5006 16.1328 19.5006 16C19.5006 15.8673 19.4479 15.7399 19.354 15.646L16.854 13.146C16.8076 13.0995 16.7524 13.0625 16.6916 13.0373C16.6309 13.0121 16.5658 12.9992 16.5 12.9992C16.4342 12.9992 16.3691 13.0121 16.3084 13.0373C16.2476 13.0625 16.1924 13.0995 16.146 13.146L13.646 15.646C13.5521 15.7399 13.4994 15.8673 13.4994 16C13.4994 16.1328 13.5521 16.2602 13.646 16.354C13.7399 16.4479 13.8672 16.5007 14 16.5007C14.1328 16.5007 14.2601 16.4479 14.354 16.354L16 14.707Z" fill="currentColor"/>
</svg>
