<!--

    Copyright (C) 2017-2019 Dremio Corporation

    Licensed under the Apache License, Version 2.0 (the "License");
    you may not use this file except in compliance with the License.
    You may obtain a copy of the License at

        http://www.apache.org/licenses/LICENSE-2.0

    Unless required by applicable law or agreed to in writing, software
    distributed under the License is distributed on an "AS IS" BASIS,
    WITHOUT WARRANTIES OR CONDITIONS OF ANY KIND, either express or implied.
    See the License for the specific language governing permissions and
    limitations under the License.

-->
<svg id="interface/user-role" width="24" height="24" viewBox="0 0 24 24" fill="none" xmlns="http://www.w3.org/2000/svg">
<path d="M17.754 14.4999C18.0495 14.4998 18.342 14.5579 18.615 14.6708C18.888 14.7838 19.136 14.9494 19.345 15.1583C19.5539 15.3671 19.7197 15.6151 19.8327 15.888C19.9458 16.1609 20.004 16.4535 20.004 16.7489V17.3239C20.004 18.2179 19.684 19.0839 19.102 19.7619C17.532 21.5959 15.145 22.5009 12 22.5009C8.85403 22.5009 6.46803 21.5959 4.90203 19.7609C4.32241 19.082 4.004 18.2186 4.00403 17.3259V16.7489C4.0039 16.4535 4.06197 16.1609 4.17494 15.8879C4.2879 15.615 4.45354 15.3669 4.66239 15.158C4.87124 14.949 5.11922 14.7833 5.39214 14.6702C5.66507 14.5571 5.9576 14.4989 6.25303 14.4989H17.754V14.4999ZM17.754 15.9999H6.25303C6.15458 15.9998 6.05708 16.0191 5.96609 16.0566C5.8751 16.0942 5.79242 16.1494 5.72276 16.2189C5.6531 16.2885 5.59784 16.3711 5.56014 16.462C5.52243 16.553 5.50303 16.6505 5.50303 16.7489V17.3259C5.50303 17.8619 5.69503 18.3799 6.04303 18.7869C7.29603 20.2549 9.26203 21.0009 12 21.0009C14.738 21.0009 16.706 20.2549 17.962 18.7869C18.311 18.3793 18.5029 17.8605 18.503 17.3239V16.7489C18.5032 16.6505 18.4839 16.553 18.4463 16.462C18.4087 16.371 18.3536 16.2883 18.284 16.2186C18.2144 16.149 18.1318 16.0937 18.0409 16.056C17.95 16.0183 17.8525 15.9989 17.754 15.9989V15.9999ZM12 2.50391C13.3261 2.50391 14.5979 3.03069 15.5356 3.96837C16.4732 4.90605 17 6.17782 17 7.50391C17 8.82999 16.4732 10.1018 15.5356 11.0394C14.5979 11.9771 13.3261 12.5039 12 12.5039C10.6739 12.5039 9.40218 11.9771 8.46449 11.0394C7.52681 10.1018 7.00003 8.82999 7.00003 7.50391C7.00003 6.17782 7.52681 4.90605 8.46449 3.96837C9.40218 3.03069 10.6739 2.50391 12 2.50391ZM12 4.00391C11.5404 4.00391 11.0853 4.09444 10.6606 4.27033C10.236 4.44622 9.85016 4.70403 9.52515 5.02903C9.20015 5.35404 8.94234 5.73987 8.76645 6.16451C8.59056 6.58915 8.50003 7.04428 8.50003 7.50391C8.50003 7.96353 8.59056 8.41866 8.76645 8.8433C8.94234 9.26794 9.20015 9.65378 9.52515 9.97878C9.85016 10.3038 10.236 10.5616 10.6606 10.7375C11.0853 10.9134 11.5404 11.0039 12 11.0039C12.9283 11.0039 13.8185 10.6352 14.4749 9.97878C15.1313 9.3224 15.5 8.43216 15.5 7.50391C15.5 6.57565 15.1313 5.68541 14.4749 5.02903C13.8185 4.37266 12.9283 4.00391 12 4.00391Z" fill="#505862"/>
</svg>
