<!--

    Copyright (C) 2017-2019 Dremio Corporation

    Licensed under the Apache License, Version 2.0 (the "License");
    you may not use this file except in compliance with the License.
    You may obtain a copy of the License at

        http://www.apache.org/licenses/LICENSE-2.0

    Unless required by applicable law or agreed to in writing, software
    distributed under the License is distributed on an "AS IS" BASIS,
    WITHOUT WARRANTIES OR CONDITIONS OF ANY KIND, either express or implied.
    See the License for the specific language governing permissions and
    limitations under the License.

-->
<svg id="interface/warning-circle-notf" viewBox="0 0 24 24" height="24" width="24" fill="none" xmlns="http://www.w3.org/2000/svg">
<path d="M9.99999 1.66669C14.6025 1.66669 18.3333 5.39835 18.3333 10C18.3333 14.6017 14.6025 18.3334 9.99999 18.3334C5.39749 18.3334 1.66666 14.6017 1.66666 10C1.66666 5.39835 5.39749 1.66669 9.99999 1.66669ZM9.99999 3.05585C6.17082 3.05585 3.05582 6.17085 3.05582 10C3.05582 13.8292 6.17082 16.9442 9.99999 16.9442C13.8292 16.9442 16.9442 13.8292 16.9442 10C16.9442 6.17085 13.8292 3.05585 9.99999 3.05585ZM9.99916 12.085C10.2199 12.085 10.4317 12.1727 10.5878 12.3289C10.7439 12.485 10.8317 12.6967 10.8317 12.9175C10.8317 13.1383 10.7439 13.3501 10.5878 13.5062C10.4317 13.6623 10.2199 13.75 9.99916 13.75C9.77836 13.75 9.56661 13.6623 9.41049 13.5062C9.25437 13.3501 9.16666 13.1383 9.16666 12.9175C9.16666 12.6967 9.25437 12.485 9.41049 12.3289C9.56661 12.1727 9.77836 12.085 9.99916 12.085ZM9.99499 5.83335C10.1462 5.83316 10.2923 5.88776 10.4063 5.98705C10.5203 6.08634 10.5944 6.22358 10.615 6.37335L10.6208 6.45752L10.6242 10.2092C10.6243 10.3676 10.5643 10.5202 10.4563 10.6361C10.3482 10.7519 10.2002 10.8224 10.0422 10.8333C9.88412 10.8443 9.72783 10.7947 9.6049 10.6948C9.48197 10.5949 9.40158 10.452 9.37999 10.295L9.37416 10.21L9.37082 6.45919C9.37071 6.37704 9.3868 6.29568 9.41816 6.21975C9.44952 6.14383 9.49554 6.07483 9.55359 6.01671C9.61163 5.95858 9.68057 5.91247 9.75645 5.88101C9.83234 5.84955 9.91368 5.83335 9.99582 5.83335H9.99499Z" fill="#FFA940"/>
</svg>
