<!--

    Copyright (C) 2017-2019 Dremio Corporation

    Licensed under the Apache License, Version 2.0 (the "License");
    you may not use this file except in compliance with the License.
    You may obtain a copy of the License at

        http://www.apache.org/licenses/LICENSE-2.0

    Unless required by applicable law or agreed to in writing, software
    distributed under the License is distributed on an "AS IS" BASIS,
    WITHOUT WARRANTIES OR CONDITIONS OF ANY KIND, either express or implied.
    See the License for the specific language governing permissions and
    limitations under the License.

-->
<svg id="interface/zoom-in" width="21" height="20" viewBox="0 0 21 20" fill="none" xmlns="http://www.w3.org/2000/svg">
<path d="M11.419 8.33317C11.419 8.16741 11.3531 8.00844 11.2359 7.89123C11.1187 7.77402 10.9597 7.70817 10.794 7.70817H9.12729V6.0415C9.12729 5.87574 9.06144 5.71677 8.94423 5.59956C8.82702 5.48235 8.66805 5.4165 8.50229 5.4165C8.33653 5.4165 8.17756 5.48235 8.06035 5.59956C7.94314 5.71677 7.87729 5.87574 7.87729 6.0415V7.70817H6.21062C6.04486 7.70817 5.88589 7.77402 5.76868 7.89123C5.65147 8.00844 5.58562 8.16741 5.58562 8.33317C5.58562 8.49893 5.65147 8.6579 5.76868 8.77511C5.88589 8.89232 6.04486 8.95817 6.21062 8.95817H7.87729V10.6248C7.87729 10.7906 7.94314 10.9496 8.06035 11.0668C8.17756 11.184 8.33653 11.2498 8.50229 11.2498C8.66805 11.2498 8.82702 11.184 8.94423 11.0668C9.06144 10.9496 9.12729 10.7906 9.12729 10.6248V8.95817H10.794C10.9597 8.95817 11.1187 8.89232 11.2359 8.77511C11.3531 8.6579 11.419 8.49893 11.419 8.33317ZM8.50229 2.2915C9.64404 2.29136 10.7625 2.61475 11.7279 3.22418C12.6934 3.83362 13.4665 4.70416 13.9575 5.73494C14.4485 6.76571 14.6374 7.91452 14.5022 9.04824C14.3671 10.182 13.9135 11.2542 13.194 12.1407L17.2773 16.224C17.3894 16.3354 17.4552 16.4851 17.4613 16.643C17.4675 16.8009 17.4136 16.9553 17.3105 17.0751C17.2074 17.1949 17.0628 17.2712 16.9057 17.2886C16.7486 17.306 16.5908 17.2633 16.464 17.169L16.394 17.1082L12.3098 13.0248C11.5589 13.6341 10.6727 14.0542 9.72564 14.2499C8.77864 14.4455 7.7985 14.411 6.8676 14.1492C5.9367 13.8874 5.08225 13.406 4.37603 12.7454C3.66982 12.0849 3.13249 11.2644 2.8092 10.353C2.4859 9.44168 2.38609 8.46603 2.51815 7.50808C2.65022 6.55013 3.01029 5.63788 3.56812 4.84798C4.12594 4.05809 4.86522 3.41363 5.72383 2.96877C6.58244 2.52392 7.53528 2.29165 8.50229 2.2915ZM8.50229 3.5415C7.87304 3.5415 7.24995 3.66544 6.6686 3.90625C6.08725 4.14705 5.55902 4.5 5.11407 4.94495C4.66912 5.3899 4.31617 5.91813 4.07537 6.49948C3.83456 7.08083 3.71062 7.70392 3.71062 8.33317C3.71062 8.96242 3.83456 9.58551 4.07537 10.1669C4.31617 10.7482 4.66912 11.2764 5.11407 11.7214C5.55902 12.1663 6.08725 12.5193 6.6686 12.7601C7.24995 13.0009 7.87304 13.1248 8.50229 13.1248C9.77312 13.1248 10.9919 12.62 11.8905 11.7214C12.7891 10.8228 13.294 9.604 13.294 8.33317C13.294 7.06234 12.7891 5.84356 11.8905 4.94495C10.9919 4.04634 9.77312 3.5415 8.50229 3.5415Z" fill="currentColor"/>
</svg>
