<?xml version="1.0" encoding="UTF-8"?>
<!--

    Copyright (C) 2017-2018 Dremio Corporation

    Licensed under the Apache License, Version 2.0 (the "License");
    you may not use this file except in compliance with the License.
    You may obtain a copy of the License at

        http://www.apache.org/licenses/LICENSE-2.0

    Unless required by applicable law or agreed to in writing, software
    distributed under the License is distributed on an "AS IS" BASIS,
    WITHOUT WARRANTIES OR CONDITIONS OF ANY KIND, either express or implied.
    See the License for the specific language governing permissions and
    limitations under the License.

-->
<svg width="48px" height="48px" viewBox="0 0 48 48" version="1.1" xmlns="http://www.w3.org/2000/svg" xmlns:xlink="http://www.w3.org/1999/xlink">
    <!-- Generator: Sketch 53 (72520) - https://sketchapp.com -->
    <title>Source/Azure Storage</title>
    <desc>Created with Sketch.</desc>
    <g id="Source/Azure-Storage" stroke="none" stroke-width="1" fill="none" fill-rule="evenodd">
        <g id="Source/Mongo" stroke="#E5E5E5">
            <circle id="Oval" cx="24" cy="24" r="23.5"></circle>
        </g>
        <g id="Azure-Storage" transform="translate(9.000000, 10.000000)" fill="#0078D7" fill-rule="nonzero">
            <path d="M28.9880478,11.7633411 L26.752988,11.7633411 L26.752988,1.04408353 C26.752988,0.487238979 26.2788845,0 25.7370518,0 L1.01593625,0 C0.474103586,0 0,0.487238979 0,1.04408353 L0,22.412993 C0,22.9698376 0.474103586,23.4570766 1.01593625,23.4570766 L15.0358566,23.4570766 L18.6932271,30 L28.9203187,30 L34,20.8816705 L28.9880478,11.7633411 Z M19.8446215,6.12529002 L24.7888446,6.12529002 L24.7888446,9.18793503 L19.8446215,9.18793503 L19.8446215,6.12529002 Z M24.7888446,10.2320186 L24.7888446,11.7633411 L19.8446215,11.7633411 L19.8446215,10.2320186 L24.7888446,10.2320186 Z M13.8844622,6.12529002 L18.8286853,6.12529002 L18.8286853,9.18793503 L13.8844622,9.18793503 L13.8844622,6.12529002 Z M13.8844622,10.2320186 L18.8286853,10.2320186 L18.8286853,11.7633411 L18.6932271,11.7633411 L17.812749,13.2946636 L13.8167331,13.2946636 L13.8167331,10.2320186 L13.8844622,10.2320186 Z M13.8844622,14.2691415 L17.2709163,14.2691415 L15.5776892,17.3317865 L13.8844622,17.3317865 L13.8844622,14.2691415 Z M15.0358566,18.3062645 L13.8844622,20.324826 L13.8844622,18.3062645 L15.0358566,18.3062645 L15.0358566,18.3062645 Z M6.97609562,21.3689095 L2.03187251,21.3689095 L2.03187251,18.3062645 L6.97609562,18.3062645 L6.97609562,21.3689095 Z M6.97609562,17.3317865 L2.03187251,17.3317865 L2.03187251,14.2691415 L6.97609562,14.2691415 L6.97609562,17.3317865 Z M6.97609562,13.225058 L2.03187251,13.225058 L2.03187251,10.162413 L6.97609562,10.162413 L6.97609562,13.225058 Z M6.97609562,9.18793503 L2.03187251,9.18793503 L2.03187251,6.12529002 L6.97609562,6.12529002 L6.97609562,9.18793503 Z M12.936255,21.3689095 L7.99203187,21.3689095 L7.99203187,18.3062645 L12.936255,18.3062645 L12.936255,21.3689095 Z M12.936255,17.3317865 L7.99203187,17.3317865 L7.99203187,14.2691415 L12.936255,14.2691415 L12.936255,17.3317865 Z M12.936255,13.225058 L7.99203187,13.225058 L7.99203187,10.162413 L12.936255,10.162413 L12.936255,13.225058 Z M12.936255,9.18793503 L7.99203187,9.18793503 L7.99203187,6.12529002 L12.936255,6.12529002 L12.936255,9.18793503 Z" id="Shape"></path>
        </g>
    </g>
</svg>