<?xml version="1.0" encoding="UTF-8" standalone="no"?>
<!--

    Copyright (C) 2017-2018 Dremio Corporation

    Licensed under the Apache License, Version 2.0 (the "License");
    you may not use this file except in compliance with the License.
    You may obtain a copy of the License at

        http://www.apache.org/licenses/LICENSE-2.0

    Unless required by applicable law or agreed to in writing, software
    distributed under the License is distributed on an "AS IS" BASIS,
    WITHOUT WARRANTIES OR CONDITIONS OF ANY KIND, either express or implied.
    See the License for the specific language governing permissions and
    limitations under the License.

-->
<svg width="48px" height="48px" viewBox="0 0 48 48" version="1.1" xmlns="http://www.w3.org/2000/svg">
    <!-- Generator: Sketch 41.2 (35397) - http://www.bohemiancoding.com/sketch -->
    <title>Source/Cassandra-Beta</title>
    <desc>Created with Sketch.</desc>
    <defs>
        <polygon id="path-3" points="0 150.374612 116.471999 150.374612 116.471999 0 0 0"></polygon>
        <polygon id="path-5" points="0 150.374612 116.471999 150.374612 116.471999 0 0 0"></polygon>
        <polygon id="path-7" points="0.00148444705 11.9483262 16.8043212 11.9483262 16.8043212 0.143159668 0.00148444705 0.143159668"></polygon>
        <polygon id="path-9" points="0 150.374612 116.471999 150.374612 116.471999 0 0 0"></polygon>
        <polygon id="path-11" points="0 150.374612 116.471999 150.374612 116.471999 0 0 0"></polygon>
        <polygon id="path-13" points="0 150.374612 116.471999 150.374612 116.471999 0 0 0"></polygon>
        <polygon id="path-15" points="0 150.374612 116.471999 150.374612 116.471999 0 0 0"></polygon>
        <polygon id="path-17" points="0.0384433723 8.80564867 8.773653 8.80564867 8.773653 0.0985409388 0.0384433723 0.0985409388"></polygon>
        <polygon id="path-19" points="0 150.374612 116.471999 150.374612 116.471999 0 0 0"></polygon>
        <polygon id="path-21" points="0.0767535249 11.8074449 40.4997121 11.8074449 40.4997121 0.0702507656 0.0767535249 0.0702507656"></polygon>
        <polygon id="path-23" points="0 150.374612 116.471999 150.374612 116.471999 0 0 0"></polygon>
        <polygon id="path-25" points="0.0988679797 14.1724274 38.0437135 14.1724274 38.0437135 0.156830088 0.0988679797 0.156830088 0.0988679797 14.1724274"></polygon>
    </defs>
    <g id="Elements" stroke="none" stroke-width="1" fill="none" fill-rule="evenodd">
      <g id="Source.2f.S3">
        <circle id="Oval" cx="24" cy="24" r="23.5" style="fill:#fff;stroke:#e5e5e5;stroke-width:1.02px;"/>
      </g>
        <g id="Source/Cassandra-Beta">
            <g id="Source/MYSQL-Beta" transform="translate(-5.000000, -8.000000)">
                <g id="Cassandra_logo">
                    <g id="svg2816">
                        <g id="layer2" transform="translate(2.054329, 8.153430)">
                            <g id="g4555" transform="translate(58.500000, 75.500000) scale(1, -1) translate(-58.500000, -75.500000) ">
                                <g id="g2828" transform="translate(0.000000, -0.000000)">
                                    <g id="g2830-Clipped">
                                        <g id="path2834"></g>
                                        <g id="g2830">
                                            <g transform="translate(14.083216, 123.413507)" id="g2836">
                                                <g transform="translate(0.167172, 0.091782)">
                                                    <path d="M25.8826665,7.59467736 C26.1841234,4.09125269 20.6576032,0.756809599 13.5391086,0.147526608 C6.42061411,-0.461756384 0.405558546,1.88499892 0.104482235,5.38823372 C-0.196974704,8.89222799 5.32954553,12.2264812 12.4480401,12.8357642 C19.5665346,13.4448573 25.5815902,11.0986716 25.8826665,7.59467736" id="path2838" fill="#BBE6FB"></path>
                                                </g>
                                            </g>
                                        </g>
                                    </g>
                                </g>
                                <g id="g2840" transform="translate(0.000000, -0.000000)">
                                    <g id="g2842-Clipped">
                                        <g id="path2846"></g>
                                        <g id="g2842">
                                            <g transform="translate(18.270118, 123.983108)" id="g2848">
                                                <g transform="translate(0.000000, -0.000000)">
                                                    <g id="g2856">
                                                        <g id="g2858-Clipped">
                                                            <g id="path2854"></g>
                                                            <g id="g2858" opacity="0.35000604">
                                                                <g transform="translate(-0.190314, -0.189867)" id="g2860">
                                                                    <g transform="translate(0.073138, 0.175304)">
                                                                        <path d="M8.75443131,11.9616168 C6.03903509,12.005666 2.86155716,10.9300698 0.497289761,9.92282571 C0.251214116,9.21538151 0.118755764,8.46293885 0.118755764,7.68296549 C0.118755764,3.52715803 3.88011621,0.157779422 8.52015511,0.157779422 C13.160194,0.157779422 16.9215545,3.52715803 16.9215545,7.68296549 C16.9215545,8.99817374 16.543972,10.2338277 15.8818706,11.3096138 C13.9903425,11.6029582 11.3887539,11.9188968 8.75443131,11.9616168" id="path2862" fill="#FFFFFF"></path>
                                                                    </g>
                                                                </g>
                                                            </g>
                                                        </g>
                                                    </g>
                                                </g>
                                            </g>
                                        </g>
                                    </g>
                                </g>
                                <g id="g2864" transform="translate(0.000000, -0.000000)">
                                    <g id="g2866-Clipped">
                                        <g id="path2870"></g>
                                        <g id="g2866">
                                            <g transform="translate(19.792627, 125.122310)" id="g2872">
                                                <g transform="translate(0.029080, 0.176140)">
                                                    <path d="M6.85129407,10.6325483 C5.34800596,10.7240642 2.75688461,9.94162253 0.596252898,9.16107957 C0.267961724,8.38813128 0.0856411759,7.54227409 0.0856411759,6.65464617 C0.0856411759,3.01337811 3.39481621,0.0615168866 6.89544685,0.0615168866 C10.3730495,0.0615168866 13.4498515,3.01812478 13.7052525,6.65464617 C13.7882293,7.83884624 13.3796257,8.95469421 12.8123005,9.91674996 C10.572308,10.3103441 8.19509927,10.5507157 6.85129407,10.6325483" id="path2874" fill="#FFFFFF"></path>
                                                </g>
                                            </g>
                                        </g>
                                    </g>
                                </g>
                                <g id="g2876" transform="translate(0.000000, -0.000000)">
                                    <g id="g2878-Clipped">
                                        <g id="path2882"></g>
                                        <g id="g2878">
                                            <g transform="translate(19.792627, 125.502043)">
                                                <g id="g2884" transform="translate(1.880642, 4.840582)">
                                                    <path d="M1.14188234,2.08853627 C1.32629634,2.49599071 1.60567689,2.69554086 1.87630301,3.03711148 C1.84623344,3.11799479 1.78038489,3.38247943 1.78038489,3.47418516 C1.78038489,3.88353827 2.11324359,4.2158054 2.5237503,4.2158054 C2.62061998,4.2158054 2.71311245,4.19662884 2.79780206,4.1630224 C4.02818028,5.09849678 5.64794039,5.50633095 7.27569367,5.14330538 C7.42432869,5.1098888 7.570109,5.06944714 7.71322492,5.02501828 C6.10450301,5.24754232 4.29119385,4.67908072 3.05777061,3.68588679 C3.09545272,3.59721893 3.19993496,3.34374658 3.19993496,3.24178803 C3.19993496,2.83224505 2.934257,2.73256491 2.5237503,2.73256491 C2.43049657,2.73256491 2.34142975,2.75041241 2.25902391,2.78174045 C1.98040461,2.40846206 1.63898179,1.69741039 1.47188634,1.2529319 C2.15397073,0.644218507 2.77020657,0.42359313 3.57333048,0.124172975 C3.57123703,0.162336229 3.60092597,0.197651478 3.60092597,0.2365742 C3.60092597,1.47127887 4.69047204,2.47472562 5.92827251,2.47472562 C7.03742089,2.47472562 7.95587492,1.67006955 8.13515045,0.614409398 C8.68858276,0.965663226 9.22374495,1.23489454 9.63158726,1.75550967 C9.5364304,1.8713285 9.4338513,2.1992287 9.4338513,2.36061559 C9.4338513,2.73218518 9.7360695,3.033504 10.1085135,3.033504 C10.1612304,3.033504 10.2118538,3.02590933 10.2611451,3.01451731 C10.4682064,3.43905978 10.624454,3.88904441 10.7243687,4.3530792 C8.78887809,5.78258734 5.04407494,5.587594 5.04407494,5.587594 C5.04407494,5.587594 2.06414265,5.74271529 0.0468171761,4.76186271 C0.181368979,3.79145281 0.569418663,2.86888937 1.14188234,2.08853627" id="path2886" fill="#373535"></path>
                                                </g>
                                                <g id="g2888" transform="translate(9.989701, 3.309039)">
                                                    <path d="M2.28376469,4.17707255 C2.42060026,4.05403878 2.49520324,3.94600449 2.55401018,3.84081821 C2.73499853,3.51614575 2.37187994,3.219004 1.99943599,3.219004 C1.96156355,3.219004 1.92502332,3.22413041 1.8886734,3.23020615 C1.46903164,2.57592469 0.734040034,1.73690271 0.0810736465,1.31463865 C1.08231415,1.15097335 2.02646053,0.750923724 2.77781912,0.132716987 C3.32497107,1.11072156 3.74461284,2.52295182 3.74461284,3.72253111 C3.74461284,4.63560119 3.3405768,5.30488214 2.73062131,5.79587803 C2.69864861,5.30678081 2.43696724,4.62269024 2.28376469,4.17707255" id="path2890" fill="#373535"></path>
                                                </g>
                                                <g id="g2892" transform="translate(3.003950, 1.291703)">
                                                    <path d="M1.14188234,0 C1.4755023,0.919145828 2.29613508,1.6313367 3.07242476,2.25789758 C2.95880747,2.41301886 2.78847669,2.79711967 2.71748967,2.97901219 C1.77067889,3.26628087 0.932917876,3.80398402 0.283186821,4.51579516 C0.278428978,4.49509966 0.272529253,4.47497377 0.267581096,4.45427827 C0.145209372,3.90727164 0.122752352,3.3591258 0.183652744,2.82446051 C0.636980035,2.74015959 0.980115679,2.3439073 0.980115679,1.86715143 C0.980115679,1.58443956 0.731756269,1.17470672 0.538968467,0.99642167 C0.748503877,0.545297835 0.891429484,0.327710328 1.14188234,0" id="path2894" fill="#373535"></path>
                                                </g>
                                                <g id="g2896" transform="translate(0.090513, 0.330236)">
                                                    <path d="M3.99658821,0.189866934 C3.59864221,0.58460029 3.32344856,1.37197847 3.06519284,1.86639196 C3.01685315,1.85898715 2.96737159,1.85386074 2.91674814,1.85386074 C2.37701841,1.85386074 1.81159634,2.30574405 1.93948716,2.82863758 C2.01028387,3.11799479 2.21049391,3.30729212 2.53650131,3.46526141 C2.46227896,4.06467132 2.44210571,4.92628747 2.58160567,5.54943075 C2.62157155,5.7277158 2.70626116,5.81125725 2.76240371,5.98099829 C2.16691206,6.85039898 1.78209771,7.99149925 1.78209771,9.12367578 C1.78209771,9.16506677 1.78419116,9.20588816 1.78514273,9.24689942 C0.778763759,8.74337231 0.024169843,7.95010826 0.024169843,6.70135344 C0.024169843,3.93916928 1.61880854,1.22957826 3.99144974,0.167462636 C3.99316256,0.174867446 3.99468507,0.182462124 3.99658821,0.189866934" id="path2898" fill="#373535"></path>
                                                </g>
                                                <g id="g2900" transform="translate(4.402204, 0.161596)">
                                                    <path d="M5.519098,4.17707255 C5.21250259,3.30710226 4.38349601,2.68225018 3.40661566,2.68225018 C2.88401418,2.68225018 2.4046139,2.86205416 2.02360583,3.16090472 C1.23818109,2.55067239 0.525646506,1.47868368 0.163479489,0.548715439 C0.326007409,0.374227727 0.439244075,0.230688325 0.621564623,0.0759467736 C1.17100034,-0.0668331608 1.92768771,0.0759467736 2.5224181,0.0759467736 C4.91466161,0.0759467736 7.0334243,1.13768267 8.2481968,2.99951782 C7.44050536,3.55753674 6.48779486,4.08859456 5.519098,4.17707255" id="path2902" fill="#373535"></path>
                                                </g>
                                            </g>
                                        </g>
                                    </g>
                                </g>
                                <g id="g2904" transform="translate(0.000000, -0.000000)">
                                    <g id="g2906-Clipped">
                                        <g id="path2910"></g>
                                        <g id="g2906">
                                            <g transform="translate(19.602314, 125.312176)">
                                                <g id="g2912" transform="translate(2.009637, 4.707637)">
                                                    <path d="M1.14188234,2.08853627 C1.32629634,2.49599071 1.55752752,2.87306645 1.82796332,3.21463706 C1.79789375,3.29533051 1.78038489,3.38247943 1.78038489,3.47418516 C1.78038489,3.88353827 2.11324359,4.2158054 2.5237503,4.2158054 C2.62061998,4.2158054 2.71311245,4.19662884 2.79780206,4.1630224 C4.02818028,5.09849678 5.64794039,5.50633095 7.27569367,5.14330538 C7.42432869,5.1098888 7.570109,5.06944714 7.71322492,5.02501828 C6.10450301,5.24754232 4.44230295,4.7555971 3.2088797,3.7622133 C3.24656182,3.67373531 3.2671157,3.5761437 3.2671157,3.47418516 C3.2671157,3.06464218 2.934257,2.73256491 2.5237503,2.73256491 C2.43049657,2.73256491 2.34142975,2.75041241 2.25902391,2.78174045 C1.98040461,2.40846206 1.75259909,1.99607108 1.58550364,1.55140272 C2.17128928,0.921614098 2.89029453,0.42359313 3.69322813,0.124172975 C3.69132499,0.162336229 3.6873284,0.200119748 3.6873284,0.23904247 C3.6873284,1.47374714 4.69047204,2.47472562 5.92827251,2.47472562 C7.03742089,2.47472562 7.95587492,1.67006955 8.13515045,0.614409398 C8.68858276,0.965663226 9.18035342,1.41678706 9.58800542,1.93740219 C9.49284856,2.05322102 9.4338513,2.1992287 9.4338513,2.36061559 C9.4338513,2.73218518 9.7360695,3.033504 10.1085135,3.033504 C10.1612304,3.033504 10.2118538,3.02590933 10.2611451,3.01451731 C10.4682064,3.43905978 10.624454,3.88904441 10.7243687,4.3530792 C8.78887809,5.78258734 5.04407494,5.587594 5.04407494,5.587594 C5.04407494,5.587594 2.06414265,5.74271529 0.0468171761,4.76186271 C0.181368979,3.79145281 0.569418663,2.86888937 1.14188234,2.08853627" id="path2914" fill="#1287B1"></path>
                                                </g>
                                                <g id="g2916" transform="translate(10.284478, 3.578631)">
                                                    <path d="M2.28376469,3.98720561 C2.42060026,3.86417184 2.50833488,3.68778546 2.50833488,3.48956438 C2.50833488,3.11799479 2.20611669,2.8164861 1.83367273,2.8164861 C1.7958003,2.8164861 1.75926007,2.82161251 1.72291014,2.82768825 C1.30326838,2.17340679 0.747171681,1.61557774 0.0940149797,1.19331368 C1.05928619,1.0427492 1.96784391,0.63415556 2.71901218,0.0159488225 C3.26616413,0.9939534 3.57884958,2.12043392 3.57884958,3.32001321 C3.57884958,4.23308329 3.17481355,4.90236424 2.56485806,5.39336013 C2.53288535,4.90426291 2.43696724,4.43282331 2.28376469,3.98720561" id="path2918" fill="#1287B1"></path>
                                                </g>
                                                <g id="g2920" transform="translate(3.106910, 1.260735)">
                                                    <path d="M1.33219607,0 C1.66581603,0.919145828 2.24551163,1.74392779 3.02180131,2.3702988 C2.90818402,2.52560996 2.81454967,2.69516113 2.74356265,2.87705365 C1.79656156,3.16432232 0.958990856,3.70202548 0.309259802,4.41383662 C0.304501959,4.39314112 0.298411919,4.37301522 0.293654076,4.35231973 C0.171092038,3.80531309 0.148635019,3.25716725 0.209725724,2.72250197 C0.662862701,2.63820105 1.00618866,2.24194876 1.00618866,1.76519289 C1.00618866,1.48248102 0.88457819,1.2282492 0.691790387,1.04996415 C0.8666887,0.680103358 1.08174321,0.327710328 1.33219607,0" id="path2922" fill="#1287B1"></path>
                                                </g>
                                                <g id="g2924" transform="translate(0.087906, 0.531305)">
                                                    <path d="M4.18690193,0.189866934 C3.78895593,0.58460029 3.45495535,1.03800253 3.19688994,1.53222616 C3.14835994,1.52482135 3.09887837,1.51988481 3.04844523,1.51988481 C2.50871551,1.51988481 2.07118426,1.95638889 2.07118426,2.49466165 C2.07118426,2.88047126 2.29651571,3.21311812 2.62252312,3.37108741 C2.54849108,3.97030746 2.57361249,4.59231153 2.71330276,5.21545481 C2.75326865,5.39354999 2.80198896,5.56746811 2.85813151,5.73739901 C2.26263987,6.60660984 1.91379481,7.65752332 1.91379481,8.78969984 C1.91379481,8.83109084 1.91569795,8.87191223 1.91664952,8.91273362 C0.910270542,8.40939637 0.155676626,7.61594246 0.155676626,6.3673775 C0.155676626,3.60500348 1.80912226,1.22957826 4.18176346,0.167462636 C4.18347628,0.174867446 4.18499879,0.182462124 4.18690193,0.189866934" id="path2926" fill="#1287B1"></path>
                                                </g>
                                                <g id="g2928" transform="translate(4.721512, 0.028651)">
                                                    <path d="M5.32878428,4.17707255 C5.02218887,3.30710226 4.19318228,2.68225018 3.21630194,2.68225018 C2.69370045,2.68225018 2.21430018,2.86205416 1.8332921,3.16090472 C1.04786736,2.55067239 0.455040114,1.71886535 0.0930634111,0.788707244 C0.255401018,0.614219532 0.428967134,0.449794767 0.611287682,0.295243082 C1.16091372,0.152463148 1.73737399,0.0759467736 2.33210438,0.0759467736 C4.72434789,0.0759467736 6.82750485,1.30818318 8.04227735,3.16982846 C7.23458591,3.72803725 6.29748113,4.08859456 5.32878428,4.17707255" id="path2930" fill="#1287B1"></path>
                                                </g>
                                            </g>
                                        </g>
                                    </g>
                                </g>
                                <g id="g2932" transform="translate(0.000000, -0.000000)">
                                    <g id="g2934-Clipped">
                                        <g id="path2938"></g>
                                        <g id="g2934">
                                            <g transform="translate(23.027961, 125.691910)" id="g2940">
                                                <g transform="translate(0.000000, 0.000000)">
                                                    <g id="g2948">
                                                        <g id="g2950-Clipped">
                                                            <g id="path2946"></g>
                                                            <g id="g2950">
                                                                <g transform="translate(-0.190314, 0.000000)" id="g2952">
                                                                    <g transform="translate(0.042288, 0.035505)">
                                                                        <polygon id="path2954" fill="#FFFFFF" points="6.85129407 4.36693948 8.92171707 4.85964418 6.84349121 4.96540006 8.53480927 6.25497627 6.61568568 5.56860731 7.91990563 7.37177358 6.11858623 6.1773207 6.74833434 8.2880714 5.51129514 6.54832069 5.48312871 8.74678992 4.66915691 6.78850236 3.99049817 8.77014355 4.02722872 6.4357296 2.85432523 8.52825308 3.4890215 6.30643021 1.5864552 7.68676282 3.07680198 5.81847219 0.714818348 6.68502488 2.57894128 5.30905921 0.188600901 5.23577057 2.63260975 4.60655155 0.18650745 4.07891134 2.60101767 3.90423376 0.564851133 2.6034554 2.66153743 3.36178393 1.20677932 1.52368215 3.04501959 3.00274556 2.38310845 0.536184222 3.80227789 2.54345745 3.60340005 0.17277891 4.40899805 2.32188274 5.09469839 0.0630358221 5.26141322 2.32871795 6.27921101 0.39568269 5.67781965 2.60668314 7.54156195 1.16635258 6.33839858 3.00274556 8.38312923 2.20796258 6.81970199 3.74075833 8.91619797 3.57633357"></polygon>
                                                                    </g>
                                                                </g>
                                                            </g>
                                                        </g>
                                                    </g>
                                                </g>
                                            </g>
                                        </g>
                                    </g>
                                </g>
                                <g id="g2956" transform="translate(0.000000, -0.000000)">
                                    <g id="g2958-Clipped">
                                        <g id="path2962"></g>
                                        <g id="g2958">
                                            <g transform="translate(7.612549, 126.071644)">
                                                <g id="g2964" transform="translate(0.000000, 0.000000)">
                                                    <g id="g2972">
                                                        <g id="g2974-Clipped">
                                                            <g id="path2970"></g>
                                                            <g id="g2974" opacity="0.35000604" fill="#373535">
                                                                <g id="g2976" transform="translate(0.076754, 0.070270)">
                                                                    <path d="M0,0 C6.42118505,6.40592049 11.549569,8.38357447 16.2038814,9.28639174 C16.8197366,9.40581804 16.9362086,10.7483671 16.9362086,10.7483671 C16.9362086,10.7483671 17.0224207,9.75954014 17.4534813,9.63062049 C17.8843516,9.50151098 18.4444449,11.1784157 18.4444449,11.1784157 C18.4444449,11.1784157 17.9273625,9.67353042 18.4444449,9.5875207 C18.9617176,9.50151098 19.9096702,11.0493062 19.9096702,11.0493062 C19.9096702,11.0493062 19.5220012,9.71663022 19.7806375,9.63062049 C20.0388933,9.54461077 21.3316944,11.5651747 21.3316944,11.5651747 C21.3316944,11.5651747 20.5559757,10.2324987 21.2886835,10.1033892 C22.0215816,9.97446951 23.0903835,11.0130416 23.0903835,11.0130416 C23.0903835,11.0130416 22.2499581,10.0627576 22.6244955,9.93155958 C24.2191342,9.37240146 25.5094613,11.4400524 25.5094613,11.4400524 C25.5094613,11.4400524 25.2104784,10.5334378 24.4347597,9.54461077 C26.1152299,9.11475203 27.3634976,11.6405519 27.3634976,11.6405519 L26.1152299,9.11475203 C26.7617256,8.77052328 29.3477085,11.7371941 29.3477085,11.7371941 C29.3477085,11.7371941 28.0117061,9.41550126 27.2359874,8.94273259 C27.6668576,8.59869371 29.2182951,9.97446951 29.2182951,9.97446951 C29.2182951,9.97446951 27.9685049,8.42686413 28.4425764,8.34085441 C29.132083,7.78188616 31.674484,11.2213257 31.674484,11.2213257 C31.674484,11.2213257 30.6835205,9.20076176 29.2182951,7.60986672 C30.4429639,6.99868505 33.4847482,10.9203866 33.4847482,10.9203866 C33.4847482,10.9203866 33.3985361,9.67353042 31.2006029,7.69587644 C32.8382525,7.91080581 34.9499736,11.0063963 34.9499736,11.0063963 C34.9499736,11.0063963 34.1742548,8.68470343 32.3209798,7.05108833 C33.9289404,7.21798136 36.5010304,11.1784157 36.5010304,11.1784157 C36.5010304,11.1784157 35.5100668,8.42686413 33.4847482,6.83596909 C35.7256923,6.3415556 38.9577903,9.67353042 38.9577903,9.67353042 C38.9577903,9.67353042 37.6864946,7.30873776 36.0271492,6.3415556 C37.8804243,5.63221273 40.4230156,8.55578378 40.4230156,8.55578378 C40.4230156,8.55578378 37.8804243,4.64319587 33.8295967,4.81521531 C32.5004456,4.87160579 28.4800682,8.83811591 19.8666593,8.51268399 C8.48970492,8.08263538 6.0765269,3.26742007 0,0" id="path2978"></path>
                                                                </g>
                                                            </g>
                                                        </g>
                                                    </g>
                                                </g>
                                                <g id="g2980" transform="translate(0.339919, 0.556804)">
                                                    <path d="M0,0 C6.42118505,6.40592049 11.5493787,8.3833846 16.2036911,9.28639174 C16.8197366,9.40581804 16.9362086,10.7481773 16.9362086,10.7481773 C16.9362086,10.7481773 17.0222304,9.75916041 17.4534813,9.63043063 C17.8843516,9.50151098 18.4444449,11.178036 18.4444449,11.178036 C18.4444449,11.178036 17.9273625,9.67315069 18.4444449,9.58733083 C18.9617176,9.50151098 19.9096702,11.0491164 19.9096702,11.0491164 C19.9096702,11.0491164 19.5220012,9.71644035 19.7802569,9.63043063 C20.0388933,9.54442091 21.3316944,11.5651747 21.3316944,11.5651747 C21.3316944,11.5651747 20.5559757,10.2323088 21.2886835,10.1033892 C22.021201,9.97427964 23.0903835,11.0128518 23.0903835,11.0128518 C23.0903835,11.0128518 22.2499581,10.0625678 22.6244955,9.93136972 C24.2191342,9.37240146 25.5090806,11.4398625 25.5090806,11.4398625 C25.5090806,11.4398625 25.2100978,10.5332479 24.4347597,9.54442091 C26.1152299,9.1143723 27.3634976,11.6405519 27.3634976,11.6405519 L26.1152299,9.1143723 C26.7617256,8.77052328 29.3473278,11.7368144 29.3473278,11.7368144 C29.3473278,11.7368144 28.0117061,9.41550126 27.2359874,8.94254273 C27.6668576,8.59850384 29.2182951,9.97427964 29.2182951,9.97427964 C29.2182951,9.97427964 27.9685049,8.4264844 28.4425764,8.34066454 C29.132083,7.78150642 31.674484,11.2211358 31.674484,11.2211358 C31.674484,11.2211358 30.6831399,9.20038202 29.2182951,7.60967685 C30.4429639,6.99830532 33.4847482,10.9201967 33.4847482,10.9201967 C33.4847482,10.9201967 33.3985361,9.67315069 31.2006029,7.6954967 C32.8382525,7.91061594 34.9499736,11.0062064 34.9499736,11.0062064 C34.9499736,11.0062064 34.1742548,8.68451356 32.3209798,7.05070859 C33.9289404,7.21760163 36.5010304,11.178036 36.5010304,11.178036 C36.5010304,11.178036 35.5100668,8.4264844 33.4847482,6.83577923 C35.7256923,6.34136573 38.9577903,9.67315069 38.9577903,9.67315069 C38.9577903,9.67315069 37.6864946,7.30873776 36.0271492,6.34136573 C37.8804243,5.63202286 40.4230156,8.55559391 40.4230156,8.55559391 C40.4230156,8.55559391 37.8804243,4.643006 33.829216,4.81502545 C32.5004456,4.87160579 28.4800682,8.83811591 19.866469,8.51249412 C8.48970492,8.08263538 6.07633658,3.26742007 0,0" id="path2982" fill="#373535"></path>
                                                </g>
                                            </g>
                                        </g>
                                    </g>
                                </g>
                                <g id="g2984" transform="translate(0.000000, -0.000000)">
                                    <g id="g2986-Clipped">
                                        <g id="path2990"></g>
                                        <g id="g2986">
                                            <g transform="translate(7.231922, 116.578297)">
                                                <g id="g2992" transform="translate(0.190314, -0.000000)">
                                                    <g id="g3000">
                                                        <g id="g3002-Clipped">
                                                            <g id="path2998"></g>
                                                            <g id="g3002" opacity="0.35000604" fill="#373535">
                                                                <g id="g3004" transform="translate(0.098868, 0.129147)">
                                                                    <path d="M0,8.73387896 C3.39367433,7.03551924 6.4967396,8.99171826 10.4074963,7.89219885 C13.3807676,7.05602487 17.0009153,6.02523728 21.9134834,6.73477002 C26.8262419,7.44392302 31.0281786,9.57214148 33.0323725,13.3772647 C33.6571724,15.0752447 36.1995735,12.990126 36.1995735,12.990126 C36.1995735,12.990126 34.346679,13.7640236 34.3898803,13.3985298 C34.4328912,13.0332258 37.1694122,11.7649147 37.1694122,11.7649147 C37.1694122,11.7649147 34.6913372,12.5388123 34.842256,11.9583891 C34.9931748,11.3779659 37.9447503,9.05627302 37.9447503,9.05627302 C37.9447503,9.05627302 34.6051251,11.5928953 34.3251736,11.2490462 C34.0448415,10.9050074 35.7471977,9.50758672 35.7471977,9.50758672 C35.7471977,9.50758672 32.9244646,11.2490462 31.9331204,10.7354562 C31.2202052,10.3665447 34.8637614,7.98124644 34.8637614,7.98124644 C34.8637614,7.98124644 32.493404,9.78726071 31.9331204,9.31430218 C31.3730271,8.84115378 34.6051251,4.97185553 34.6051251,4.97185553 C34.6051251,4.97185553 30.9417762,8.92735337 30.5758029,8.73387896 C30.2092587,8.54040456 31.5882719,6.64857043 31.5882719,6.64857043 C31.5882719,6.64857043 29.7783884,8.62641428 29.2830018,8.2823754 C28.7874249,7.93833651 31.868604,2.80072714 31.868604,2.80072714 C31.868604,2.80072714 28.5287885,8.06725616 27.1497753,7.18627359 C29.3153551,2.44605571 28.507283,1.76880036 28.507283,1.76880036 C28.507283,1.76880036 28.2309475,6.60471117 25.5336311,6.47674085 C24.1761233,6.4121861 26.1799365,2.8652819 26.1799365,2.8652819 C26.1799365,2.8652819 24.3356062,6.10479153 23.1073214,6.04023677 C25.3711032,1.76614222 24.564173,0.0277205724 24.564173,0.0277205724 C24.564173,0.0277205724 24.9385201,3.67810225 21.8681888,5.70948857 C23.0315766,4.67794152 21.1381453,0.0277205724 21.1381453,0.0277205724 C21.1381453,0.0277205724 22.8037711,6.88020809 19.9096702,5.57373372 C19.4523464,5.36772809 19.8773169,2.15574917 19.8773169,2.15574917 C19.8773169,2.15574917 19.2955279,5.83195275 18.4231297,5.63828847 C17.9144212,5.52569738 15.1908415,0.543589032 15.1908415,0.543589032 C15.1908415,0.543589032 17.421128,5.92859501 16.7424693,5.70284323 C16.2480342,5.5382286 15.3202548,3.3165956 15.3202548,3.3165956 C15.3202548,3.3165956 15.7726305,5.50936882 15.3202548,5.63828847 C14.8678791,5.76739799 12.3466029,3.3165956 12.3466029,3.3165956 C12.3466029,3.3165956 14.2213833,5.50936882 13.8980403,5.96087239 C13.4081728,6.64496296 12.8339963,6.67705047 12.1526732,6.4121861 C11.161329,6.02675622 9.82570726,4.21960274 9.82570726,4.21960274 C9.82570726,4.21960274 11.1571421,6.04935038 10.9243884,6.73477002 C10.5508026,7.83599823 6.7228323,4.60655155 6.7228323,4.60655155 C6.7228323,4.60655155 8.98528186,6.73477002 8.46819947,7.18627359 C7.95111708,7.63758729 5.14322839,7.49803509 4.26645307,7.50050336 C1.68085081,7.50847777 0.784853798,8.11358369 0,8.73387896" id="path3006"></path>
                                                                </g>
                                                            </g>
                                                        </g>
                                                    </g>
                                                </g>
                                                <g id="g3008" transform="translate(0.160016, 0.516115)">
                                                    <path d="M0,8.73387896 C3.39367433,7.03551924 6.49654929,8.99171826 10.407306,7.89200898 C13.3805773,7.05621474 17.0009153,6.02523728 21.9136738,6.73477002 C26.8264322,7.44411288 31.0279883,9.57233135 33.0321822,13.3770748 C33.6569821,15.0752447 36.1993832,12.9903159 36.1993832,12.9903159 C36.1993832,12.9903159 34.3464887,13.7640236 34.3896899,13.3985298 C34.4327008,13.0332258 37.1692219,11.7649147 37.1692219,11.7649147 C37.1692219,11.7649147 34.6911469,12.5386225 34.8420657,11.9581992 C34.9929845,11.3779659 37.9449406,9.05627302 37.9449406,9.05627302 C37.9449406,9.05627302 34.6049348,11.5930851 34.3249833,11.2488564 C34.0450318,10.9050074 35.7471977,9.50777659 35.7471977,9.50777659 C35.7471977,9.50777659 32.9242743,11.2488564 31.9331204,10.7356461 C31.2200149,10.3665447 34.8635711,7.98143631 34.8635711,7.98143631 C34.8635711,7.98143631 32.4932137,9.78726071 31.9331204,9.31430218 C31.3728368,8.84115378 34.6053154,4.97185553 34.6053154,4.97185553 C34.6053154,4.97185553 30.9417762,8.92735337 30.5756126,8.73387896 C30.209449,8.54021469 31.5884622,6.6487603 31.5884622,6.6487603 C31.5884622,6.6487603 29.7781981,8.62641428 29.2828115,8.2823754 C28.7872345,7.93852638 31.8684137,2.80072714 31.8684137,2.80072714 C31.8684137,2.80072714 28.5285982,8.06744603 27.1495849,7.18608372 C29.3151648,2.44605571 28.5070927,1.76880036 28.5070927,1.76880036 C28.5070927,1.76880036 28.2307572,6.60471117 25.5334408,6.47655099 C24.175933,6.41199623 26.1797462,2.8652819 26.1797462,2.8652819 C26.1797462,2.8652819 24.3354159,6.1049814 23.1073214,6.04042664 C25.3712935,1.76614222 24.5639827,0.0277205724 24.5639827,0.0277205724 C24.5639827,0.0277205724 24.9383298,3.67829211 21.8679985,5.70967844 C23.0313863,4.67794152 21.137955,0.0277205724 21.137955,0.0277205724 C21.137955,0.0277205724 22.8039614,6.88020809 19.9098606,5.57373372 C19.4525367,5.36753822 19.8775072,2.15574917 19.8775072,2.15574917 C19.8775072,2.15574917 19.2953375,5.83176288 18.4231297,5.63828847 C17.9142309,5.52569738 15.1906511,0.543589032 15.1906511,0.543589032 C15.1906511,0.543589032 17.4209377,5.92859501 16.7422789,5.70265336 C16.2478439,5.53841847 15.3200645,3.31678547 15.3200645,3.31678547 C15.3200645,3.31678547 15.7726305,5.50936882 15.3200645,5.63828847 C14.8676888,5.76720812 12.3466029,3.31678547 12.3466029,3.31678547 C12.3466029,3.31678547 14.2213833,5.50936882 13.89785,5.96087239 C13.4079825,6.64496296 12.833806,6.6768606 12.1526732,6.41199623 C11.1611387,6.02675622 9.82551695,4.21960274 9.82551695,4.21960274 C9.82551695,4.21960274 11.1569518,6.04954025 10.9243884,6.73477002 C10.5506122,7.83580837 6.7228323,4.60655155 6.7228323,4.60655155 C6.7228323,4.60655155 8.98528186,6.73477002 8.46800915,7.18608372 C7.95092677,7.63758729 5.14303808,7.49784522 4.26626275,7.50050336 C1.6806605,7.50866764 0.784853798,8.11358369 0,8.73387896" id="path3010" fill="#373535"></path>
                                                </g>
                                            </g>
                                        </g>
                                    </g>
                                </g>
                            </g>
                        </g>
                    </g>
                </g>
            </g>
        </g>
    </g>
</svg>
