<?xml version="1.0" encoding="UTF-8"?>
<!--

    Copyright (C) 2017-2018 Dremio Corporation

    Licensed under the Apache License, Version 2.0 (the "License");
    you may not use this file except in compliance with the License.
    You may obtain a copy of the License at

        http://www.apache.org/licenses/LICENSE-2.0

    Unless required by applicable law or agreed to in writing, software
    distributed under the License is distributed on an "AS IS" BASIS,
    WITHOUT WARRANTIES OR CONDITIONS OF ANY KIND, either express or implied.
    See the License for the specific language governing permissions and
    limitations under the License.

-->
<svg width="48px" height="48px" viewBox="0 0 48 48" version="1.1" xmlns="http://www.w3.org/2000/svg" xmlns:xlink="http://www.w3.org/1999/xlink">
    <!-- Generator: Sketch 41.1 (35376) - http://www.bohemiancoding.com/sketch -->
    <title>Source/IBM</title>
    <desc>Created with Sketch.</desc>
    <defs>
        <circle id="path-1" cx="24" cy="24" r="24"></circle>
    </defs>
    <g id="Elements" stroke="none" stroke-width="1" fill="none" fill-rule="evenodd">
        <g id="Elements/Data-Sources" transform="translate(-30.000000, -1122.000000)">
            <g id="Icons" transform="translate(30.000000, 82.000000)">
                <g id="Source/IBM" transform="translate(0.000000, 1040.000000)">
                    <g>
                        <g>
                            <mask id="mask-2" fill="white">
                                <use xlink:href="#path-1"></use>
                            </mask>
                            <use id="Mask" fill="#1F70C1" xlink:href="#path-1"></use>
                            <g id="Logo/IBM" mask="url(#mask-2)">
                                <g transform="translate(2.000000, 13.500000)">
                                    <rect id="Rectangle" fill="#1F70C1" x="0" y="0" width="44" height="36"></rect>
                                    <path d="M35.9301395,18.48 L41.36,18.48 L41.36,17.3962668 L35.9301395,17.3962668 L35.9301395,18.48 Z M32.3439706,17.3962668 L32.7221101,18.4769112 L32.7871597,18.4784556 L33.1713395,17.3962668 L32.3439706,17.3962668 Z M24.1507798,18.48 L29.5216698,18.48 L29.5216698,17.3962668 L24.1507798,17.3962668 L24.1507798,18.48 Z M11.2446294,17.3962668 L11.2446294,18.4784556 L19.4348,18.4784556 C20.8878067,18.4784556 21.9848605,17.3962668 21.9848605,17.3962668 L11.2446294,17.3962668 Z M2.69897056,18.48 L10.2357411,18.48 L10.2357411,17.3962668 L2.69897056,17.3962668 L2.69897056,18.48 Z M35.9301395,16.3724088 L41.36,16.3724088 L41.36,15.2871312 L35.9301395,15.2871312 L35.9301395,16.3724088 Z M31.5983395,15.2871312 L31.9915798,16.3724088 L33.5207101,16.3724088 L33.8897504,15.2871312 L31.5983395,15.2871312 Z M24.1507798,16.3724088 L29.5216698,16.3724088 L29.5216698,15.2871312 L24.1507798,15.2871312 L24.1507798,16.3724088 Z M11.2446294,15.2871312 L11.2446294,16.3724088 L22.847,16.3724088 C23.0911683,16.1238792 23.2311798,15.2871312 23.2311798,15.2871312 L11.2446294,15.2871312 Z M2.69897056,16.3724088 L10.2357411,16.3724088 L10.2357411,15.2871312 L2.69897056,15.2871312 L2.69897056,16.3724088 Z M35.9301395,14.2632732 L39.1941194,14.2632732 L39.1941194,13.17954 L35.9301395,13.17954 L35.9301395,14.2632732 Z M30.8556899,13.17954 L31.2383597,14.2632732 L34.2436899,14.2632732 L34.6293798,13.17954 L30.8556899,13.17954 Z M26.2576899,14.2632732 L29.5216698,14.2632732 L29.5216698,13.17954 L26.2576899,13.17954 L26.2576899,14.2632732 Z M19.8492202,13.17954 L19.8492202,14.2632732 L23.3204294,14.2632732 C23.3204294,13.7517996 23.1132,13.17954 23.1132,13.17954 L19.8492202,13.17954 Z M13.4105101,14.2632732 L16.6744899,14.2632732 L16.6744899,13.17954 L13.4105101,13.17954 L13.4105101,14.2632732 Z M4.80591936,14.2632732 L8.0698992,14.2632732 L8.0698992,13.17954 L4.80591936,13.17954 L4.80591936,14.2632732 Z M35.9301395,12.155682 L39.1941194,12.155682 L39.1941194,11.0719488 L35.9301395,11.0719488 L35.9301395,12.155682 Z M30.1145504,11.0719488 L30.5093395,12.155682 L34.9923798,12.155682 L35.3674605,11.0719488 L30.1145504,11.0719488 Z M26.2576899,12.155682 L29.5216698,12.155682 L29.5216698,11.0719488 L26.2576899,11.0719488 L26.2576899,12.155682 Z M13.4105101,11.0719488 L13.4105101,12.155682 L22.6670294,12.155682 C22.4447766,11.6297148 21.7474294,11.0719488 21.7474294,11.0719488 L13.4105101,11.0719488 Z M4.80591936,12.155682 L8.0698992,12.155682 L8.0698992,11.0719488 L4.80591936,11.0719488 L4.80591936,12.155682 Z M26.2576899,8.964318 L26.2576899,10.0480512 L29.5216698,10.0480512 L29.5216698,9.4447848 L29.7288605,10.0480512 L35.7077706,10.0480512 L35.9301395,9.4447848 L35.9301395,10.0480512 L39.1940806,10.0480512 L39.1940806,8.964318 L33.0669504,8.964318 L32.7417798,9.8822856 L32.4150605,8.964318 L26.2576899,8.964318 Z M13.4105101,8.964318 L13.4105101,10.0480512 L21.7474294,10.0480512 C21.7474294,10.0480512 22.4448154,9.491988 22.6670294,8.964318 L13.4105101,8.964318 Z M4.80591936,10.0480512 L8.0698992,10.0480512 L8.0698992,8.964318 L4.80591936,8.964318 L4.80591936,10.0480512 Z M33.7657302,6.8551824 L33.3785302,7.94046 L39.1940806,7.94046 L39.1940806,6.8551824 L33.7657302,6.8551824 Z M26.2576899,6.8551824 L26.2576899,7.94046 L32.0445101,7.94046 L31.6588202,6.8551824 L26.2576899,6.8551824 Z M19.8492202,6.8551824 L19.8492202,7.94046 L23.1132,7.94046 C23.1132,7.94046 23.3204294,7.3673292 23.3204294,6.8551824 L19.8492202,6.8551824 Z M13.4105101,7.94046 L16.6744899,7.94046 L16.6744899,6.8551824 L13.4105101,6.8551824 L13.4105101,7.94046 Z M4.80591936,7.94046 L8.0698992,7.94046 L8.0698992,6.8551824 L4.80591936,6.8551824 L4.80591936,7.94046 Z M34.4766294,4.7491356 L34.1196698,5.8313244 L41.3010294,5.8313244 L41.3010294,4.7491356 L34.4766294,4.7491356 Z M24.0917706,4.7491356 L24.0917706,5.8313244 L31.3018605,5.8313244 L30.9449395,4.7491356 L24.0917706,4.7491356 Z M11.2446294,4.7491356 L11.2446294,5.8313244 L23.2311798,5.8313244 C23.2311798,5.8313244 23.0911683,4.9972296 22.847,4.7491356 L11.2446294,4.7491356 Z M2.64,5.8313244 L10.1767706,5.8313244 L10.1767706,4.7475912 L2.64,4.7475912 L2.64,5.8313244 Z M35.2479706,2.64 L34.8622806,3.7237332 L41.3010294,3.7237332 L41.3010294,2.64 L35.2479706,2.64 Z M24.0917706,2.64 L24.0917706,3.7237332 L30.5894899,3.7237332 L30.2038,2.64 L24.0917706,2.64 Z M11.2446294,2.64 L11.2446294,3.7237332 L21.9848605,3.7237332 C21.9848605,3.7237332 20.8878067,2.64 19.4348,2.64 L11.2446294,2.64 Z M2.64,3.7237332 L10.1767706,3.7237332 L10.1767706,2.64 L2.64,2.64 L2.64,3.7237332 Z" id="Page-1" fill="#FFFFFF"></path>
                                </g>
                            </g>
                        </g>
                    </g>
                </g>
            </g>
        </g>
    </g>
</svg>
