<?xml version="1.0" encoding="UTF-8"?>
<!--

    Copyright (C) 2017-2018 Dremio Corporation

    Licensed under the Apache License, Version 2.0 (the "License");
    you may not use this file except in compliance with the License.
    You may obtain a copy of the License at

        http://www.apache.org/licenses/LICENSE-2.0

    Unless required by applicable law or agreed to in writing, software
    distributed under the License is distributed on an "AS IS" BASIS,
    WITHOUT WARRANTIES OR CONDITIONS OF ANY KIND, either express or implied.
    See the License for the specific language governing permissions and
    limitations under the License.

-->
<svg width="48px" height="48px" viewBox="0 0 48 48" version="1.1" xmlns="http://www.w3.org/2000/svg">
    <!-- Generator: Sketch 41.1 (35376) - http://www.bohemiancoding.com/sketch -->
    <title>Source/Elastic</title>
    <desc>Created with Sketch.</desc>
    <g id="Source.2f.S3">
      <circle id="Oval" cx="24" cy="24" r="23.5" style="fill:#fff;stroke:#e5e5e5;stroke-width:1.02px;"/>
    </g>
    <g id="Elements">
      <g id="Logo/Elastic" transform="translate(4.000000, 4.000000)">
        <g id="Source/Elastic">
            <g id="Group-3" transform="translate(0.000000, 0.088485)" fill="#FEFEFE">
                <path d="M39.9746667,20.9080404 C39.9746667,17.5577374 37.8973603,14.6287138 34.7712997,13.4890505 C34.9086734,12.7827879 34.9804579,12.0765253 34.9804579,11.341037 C34.9804579,5.11315825 29.9135219,0.0462222222 23.6847003,0.0462222222 C20.0464512,0.0462222222 16.6618047,1.79113805 14.534936,4.73120539 C13.4892795,3.91989226 12.2051044,3.47544781 10.8653064,3.47544781 C7.55944781,3.47544781 4.86988552,6.16487542 4.86988552,9.47086869 C4.86988552,10.2012391 5.00025589,10.9004983 5.24470034,11.5601616 C2.13695623,12.6817778 -1.34680135e-05,15.6794882 -1.34680135e-05,19.0085118 C-1.34680135e-05,22.3760539 2.08739394,25.3182761 5.22759596,26.4498586 C5.09426263,27.1480404 5.02140067,27.8683098 5.02140067,28.5967946 C5.02140067,34.810532 10.0763502,39.8653468 16.2899529,39.8653468 C19.9373603,39.8653468 23.3199865,38.1132929 25.434734,35.1611044 C26.4873939,35.9875017 27.7746667,36.4412391 29.1093468,36.4412391 C32.4152054,36.4412391 35.1047677,33.7526195 35.1047677,30.4467609 C35.1047677,29.7162559 34.9743973,29.0161886 34.7299529,28.3563906 C37.8378316,27.2358519 39.9746667,24.2371987 39.9746667,20.9080404" id="Fill-1"></path>
            </g>
            <path d="M15.7161751,17.2838923 L24.4631111,21.2716364 L33.2882963,13.5388418 C33.4161077,12.9009966 33.4785993,12.265037 33.4785993,11.5994478 C33.4785993,6.15877441 29.0530101,1.7323771 23.6123367,1.7323771 C20.3575219,1.7323771 17.321697,3.33493603 15.4764444,6.02207407 L14.0085657,13.6379663 L15.7161751,17.2838923 Z" id="Fill-4" fill="#FED10C"></path>
            <path d="M6.66195286,26.5465859 C6.53414141,27.184431 6.46882155,27.8461145 6.46882155,28.5156094 C6.46882155,33.9702896 10.9072054,38.4086734 16.3628283,38.4086734 C19.6441751,38.4086734 22.6949495,36.791165 24.5372391,34.0762828 L25.9942088,26.4862492 L24.0498316,22.7708283 L15.2682828,18.7682694 L6.66195286,26.5465859 Z" id="Fill-6" fill="#22B9AF"></path>
            <path d="M6.60657239,11.4093333 L12.6010505,12.8246869 L13.9144512,6.00919865 C13.0951919,5.38320539 12.0840135,5.04057912 11.0440135,5.04057912 C8.4390303,5.04057912 6.3203771,7.16017508 6.3203771,9.76515825 C6.3203771,10.3406465 6.41640404,10.8922963 6.60657239,11.4093333" id="Fill-8" fill="#EE5097"></path>
            <path d="M6.08618182,12.8370236 C3.40793266,13.724431 1.54584512,16.2918384 1.54584512,19.1156768 C1.54584512,21.8653064 3.24645118,24.3206599 5.79890909,25.2923771 L14.2091448,17.6903569 L12.665037,14.3910976 L6.08618182,12.8370236 Z" id="Fill-10" fill="#15A6DF"></path>
            <path d="M26.0748418,34.0760539 C26.8969293,34.7079731 27.9032593,35.0526195 28.9304646,35.0526195 C31.5354478,35.0526195 33.654101,32.934101 33.654101,30.3291178 C33.654101,29.7545724 33.5579394,29.2029226 33.367771,28.6858855 L27.3782761,27.2842694 L26.0748418,34.0760539 Z" id="Fill-12" fill="#91C63F"></path>
            <path d="M27.2935488,25.7142761 L33.8872189,27.2564983 C36.5664108,26.3709764 38.428633,23.8026263 38.428633,20.9778451 C38.428633,18.2331987 36.7239865,15.7806734 34.1665455,14.8120539 L25.542303,22.3674747 L27.2935488,25.7142761 Z" id="Fill-14" fill="#0979A0"></path>
        </g>
      </g>
    </g>
</svg>
