<?xml version="1.0" encoding="UTF-8"?>
<!--

    Copyright (C) 2017-2018 Dremio Corporation

    Licensed under the Apache License, Version 2.0 (the "License");
    you may not use this file except in compliance with the License.
    You may obtain a copy of the License at

        http://www.apache.org/licenses/LICENSE-2.0

    Unless required by applicable law or agreed to in writing, software
    distributed under the License is distributed on an "AS IS" BASIS,
    WITHOUT WARRANTIES OR CONDITIONS OF ANY KIND, either express or implied.
    See the License for the specific language governing permissions and
    limitations under the License.

-->
<svg width="48px" height="48px" viewBox="0 0 48 48" version="1.1" xmlns="http://www.w3.org/2000/svg" xmlns:xlink="http://www.w3.org/1999/xlink">
    <!-- Generator: Sketch 41.1 (35376) - http://www.bohemiancoding.com/sketch -->
    <title>Source/Hive</title>
    <desc>Created with Sketch.</desc>
    <defs>
        <mask id="mask-2" maskContentUnits="userSpaceOnUse" maskUnits="objectBoundingBox" x="0" y="0" width="48" height="48" fill="white">
            <use xlink:href="#path-1"></use>
        </mask>
        <polygon id="path-3" points="0.0200452628 36.7424594 37.3501525 36.7424594 37.3501525 0.00864738659 0.0200452628 0.00864738659 0.0200452628 36.7424594"></polygon>
    </defs>
    <g id="Source.2f.S3">
      <circle id="Oval" cx="24" cy="24" r="23.5" style="fill:#fff;stroke:#e5e5e5;stroke-width:1.02px;"/>
    </g>
    <g id="Elements" stroke="none" stroke-width="1" fill="none" fill-rule="evenodd">
        <g id="Elements/Data-Sources" transform="translate(-30.000000, -882.000000)">
            <g id="Icons" transform="translate(30.000000, 82.000000)">
                <g id="Source/Hive" transform="translate(0.000000, 800.000000)">
                    <g>
                        <use id="Oval" stroke="#E5E5E5" mask="url(#mask-2)" stroke-width="2" fill="#FFFFFF" xlink:href="#path-1"></use>
                        <g id="Logo/Hive" transform="translate(5.000000, 7.000000)">
                            <g id="Source/Hive">
                                <g id="Group-3" transform="translate(0.345455, 0.248698)">
                                    <mask id="mask-4" fill="white">
                                        <use xlink:href="#path-3"></use>
                                    </mask>
                                    <g id="Clip-2"></g>
                                    <path d="M21.3802639,4.8918464 C21.047332,3.9855181 9.59508205,-0.440102552 9.44869568,0.0457907193 C7.34574114,0.590703712 6.4898775,3.00003898 5.04328659,4.52613875 L1.83086159,4.343242 C0.415750227,6.15212135 -0.326804318,8.00027564 0.178811591,9.92114223 C1.99253432,12.3637432 4.09799341,14.4422675 5.41028886,17.5104346 C5.51401159,18.9566109 11.7070616,17.6620831 13.0344707,17.3758267 C11.2211798,18.6660622 9.64206386,20.6659508 10.3206661,26.4257606 C10.9401525,29.1305378 11.3638957,32.1504589 16.8583934,35.209655 C17.5816889,35.6123197 19.0782411,36.0770088 20.0036707,36.4157176 C20.888682,36.8192408 21.9235775,36.9850541 24.843057,36.0975262 C26.5325025,35.3737084 28.3565457,34.9376492 30.0097616,34.2155912 L28.0226639,34.3083058 C25.2862752,34.3674543 23.1737775,34.5703534 22.5221639,33.810394 L20.0038002,29.4888626 L21.471982,26.6541991 C23.5039457,26.8613476 24.1784025,28.4993058 25.9693684,29.1230691 L28.0803116,27.568597 C34.211698,31.1662675 36.6510389,25.2885042 37.3501525,20.71072 C37.2755343,18.8481863 33.2931343,21.2949508 33.5345207,20.4240343 C33.6280525,18.4219137 31.9862798,15.8024682 30.9254752,13.7614589 L32.1531343,9.03945197 C32.7101798,8.54626172 29.5743161,3.29372111 27.0136343,2.63870951 C24.7668843,2.06392181 21.3801343,4.8918464 21.3801343,4.8918464 L21.3802639,4.8918464 Z" id="Fill-1" fill="#FDEE21" mask="url(#mask-4)"></path>
                                </g>
                                <path d="M31.7983093,15.1759578 C31.8202889,15.6831411 31.8178275,16.2999937 31.8671411,16.6847165 C31.8586343,16.9782269 31.6372843,16.9890007 31.4541502,17.0504671 L32.647307,17.4848093 C32.8841593,17.8810355 33.074548,18.2773046 33.2668366,18.6735309 C33.4898707,19.6482362 33.3234048,19.6760935 33.175032,19.7479473 C32.742048,19.7523255 32.3103161,19.7531411 31.9073002,19.6679381 C32.0878434,19.7626701 32.1275707,19.831691 32.146657,19.9530355 C32.1818934,20.1767524 32.036932,20.4822385 31.7983093,20.7766503 C32.1511911,20.9712652 32.794557,21.1616735 33.2725366,21.3424241 L33.8174911,20.1365761 C33.570707,18.3650831 32.8223661,16.7323615 31.7983093,15.1759148 L31.7983093,15.1759578 Z" id="Fill-4" fill="#C8C037"></path>
                                <path d="M34.0251957,21.1178487 C34.6869139,21.3920007 35.6011161,21.311648 36.868632,20.6623023 C37.0571207,20.529068 37.232698,20.608691 36.8953616,20.8279009 C35.2329048,22.3107768 34.4371502,21.568974 34.0251957,21.1178487 Z" id="Fill-6" fill="#C8C037"></path>
                                <path d="M36.995673,20.4679879 C37.1922366,20.8421086 37.0731411,21.1463928 37.0071593,21.4623951 C36.801873,23.0698348 36.2979843,24.3406689 35.309207,25.6686341 C32.0931116,30.8082861 28.8461843,27.5923336 26.2574343,25.4992582 L25.1866116,28.1664346 C25.1297843,28.4001956 24.8933639,28.5822339 26.5657093,29.3140784 L28.2693184,28.1179311 C34.7664548,33.0318058 39.3705002,21.23988 36.9955002,20.4681167 L36.995673,20.4679879 Z" id="Fill-8" fill="#C8C037"></path>
                                <path d="M27.0409684,25.0607911 C26.6026298,25.0918676 25.298107,25.5328201 25.2400275,25.7881716 L25.8403411,24.8991414 L27.0409684,25.0607911 Z" id="Fill-10" fill="#C8C037"></path>
                                <path d="M26.1885593,19.610807 C26.2688775,19.610807 26.6544048,19.7136944 26.6130366,19.6908162 C26.5538775,19.6580657 26.6064298,20.2281747 26.7277707,20.5252049 L26.2573911,21.5424903 C27.1583798,20.5096237 28.5830775,20.5783441 29.9056502,20.4451956 L29.2746775,20.0565668 C29.384273,19.693177 29.2552025,19.4056329 29.1943593,19.0964555 L26.1885593,19.610807 Z" id="Fill-12" fill="#C8C037"></path>
                                <path d="M28.4024911,16.5477907 C27.4357798,16.8423742 26.5104366,17.3236318 25.8891798,18.3495448 C26.3631434,16.6585761 26.4597411,16.7227896 26.6127775,16.6392176 C27.2756616,16.3445483 27.8185002,16.5282176 28.4024911,16.5477907 Z" id="Fill-14" fill="#C8C037"></path>
                                <path d="M23.2401048,36.3672571 C22.071173,37.64938 19.4629911,36.2702501 17.2969911,35.5671643 C11.7930366,32.08822 10.7178093,28.8131619 10.6431048,25.6003429 C10.3601343,20.9980923 11.7818093,18.3239624 13.580073,17.6908418 C12.3899389,19.9713209 11.8350957,24.0649717 12.3869161,27.1091016 C12.8323366,28.8026457 12.8415775,31.6589856 15.6922684,33.1879183 C17.088207,33.9690819 16.710107,34.577264 17.6540616,35.308894 C18.688482,36.1106608 21.572682,36.8728951 23.2400616,36.3673 L23.2401048,36.3672571 Z" id="Fill-16" fill="#FCF7A0"></path>
                                <path d="M24.9863775,15.0982664 C23.0073116,12.3086295 20.2238548,11.2614694 17.0849684,11.1470355 C17.7140411,10.9431921 18.3431139,10.8370425 18.9721866,10.5355483 C19.1262593,10.3746712 19.0758661,10.0915483 19.0180889,9.8040471 C15.996657,9.01983596 14.089748,8.05062483 11.6758843,7.15219443 L18.1924525,8.70666659 C22.5931116,8.87286613 22.2151843,9.95281972 24.9866798,15.0983951 L24.9863775,15.0982664 Z" id="Fill-18" fill="#FCF7A0"></path>
                                <path d="M27.1053093,13.7530416 C25.6427411,11.6776936 24.2242184,9.15894652 22.2987411,7.55704397 C17.6506502,5.47165186 13.0526502,3.92288852 7.66399114,2.51354049 L9.38379341,0.315173898 C15.1019298,1.61262053 20.4728843,3.78373074 25.2837707,7.36277251 C26.0977048,9.40850336 26.6405002,11.4569384 27.1048775,13.7527841 L27.1053093,13.7530416 Z" id="Fill-20" fill="#FCF7A0"></path>
                                <path d="M30.0537639,10.0856635 C30.0537639,10.0856635 29.2338275,8.2571681 28.8346116,7.5589326 C27.9085343,6.53881427 27.4402707,4.63782123 25.5435957,3.74209501 C26.1434775,3.90314374 26.554007,3.71127599 27.7786434,4.81483747 L29.707532,8.45191172 L30.0537639,10.0856635 Z" id="Fill-22" fill="#FCF7A0"></path>
                                <path d="M31.0737184,13.2534172 C31.2628116,11.6691991 31.6219116,9.12804594 31.2098275,8.12406682 C30.0633502,6.59496241 28.9086684,5.01443573 27.7535548,3.54714107 C27.5622593,3.37016775 27.4245093,3.12996821 27.2738048,2.94260742 C28.897873,3.36085336 30.5927593,4.48330116 32.878373,8.91454478 L31.0737184,13.2534172 Z" id="Fill-24" fill="#FCF7A0"></path>
                                <path d="M24.2458093,13.4405633 C23.5989457,12.9344961 23.0224684,11.1445889 22.0422411,10.7724427 C21.134948,10.6969833 20.8022752,10.4132594 19.6092048,10.6548754 C20.0419298,10.4393568 20.450473,10.1635738 20.9104457,10.0159601 C21.2220025,9.94286148 21.514257,10.023858 21.8115207,10.0646353 C21.8849298,10.0301248 21.9330343,9.98724432 21.9150707,9.92238701 C20.714098,9.18466195 18.2504025,9.17414571 16.587298,8.75306682 C18.517482,8.81728028 20.6531252,8.71091601 22.1037752,9.17333016 C23.2702457,10.2023336 23.6491661,12.140155 24.2458093,13.4405633 Z" id="Fill-26" fill="#000000"></path>
                                <path d="M27.782832,4.80896125 C28.0506025,4.83312715 29.4917093,7.09905522 29.5594184,7.47609466 C29.679248,8.30031044 29.9748275,9.22428028 30.054282,10.086655 C29.8169116,9.25956334 29.5582957,8.43251462 29.2349502,7.60542297 C29.140382,7.37767123 28.9014139,6.86276172 28.237148,6.13447981 C27.9278366,5.62115847 27.8610775,5.21767819 27.7828752,4.80900418 L27.782832,4.80896125 Z" id="Fill-28" fill="#000000"></path>
                                <polygon id="Fill-30" fill="#000000" points="32.6662639 17.1504357 32.0497139 17.1504357 32.7311661 17.3292948"></polygon>
                                <path d="M28.4594911,16.5383476 C27.8394866,16.4625877 27.2032889,16.4525436 26.5833275,16.5879671 C26.3306275,16.9253882 26.3132252,17.268561 26.2027661,17.5857223 C26.9564616,16.7600471 27.2555389,16.7096121 28.4594911,16.5383476 Z" id="Fill-32" fill="#000000"></path>
                                <path d="M36.9153548,20.7997861 C36.570332,21.0735088 36.535873,21.3311353 35.5157025,21.6398835 C34.7717661,21.8147536 34.3514775,21.5183673 34.0013161,21.1198232 C34.5321934,21.2709995 34.6170457,21.6696724 36.0405775,21.2227107 L36.9153548,20.7997861 Z" id="Fill-34" fill="#000000"></path>
                                <path d="M33.8235366,20.9710506 C33.5752411,21.6497559 33.307557,22.3356295 33.0376707,22.9712826 C32.3949957,23.7204682 32.668898,23.2935517 31.7068502,24.4571631 C32.0146502,23.9850912 32.415032,23.5314763 32.6246366,23.0398313 C32.7718434,22.7161028 32.955107,22.3726724 33.0362457,22.0850425 C32.7811707,21.9584183 32.2590161,21.9484172 32.188198,21.9938302 C31.3328525,22.4953046 31.1785207,23.02601 30.6742866,23.5427652 C31.0397775,22.9620111 31.3519389,22.3281179 31.7756389,21.8053963 C31.8239161,21.7375773 32.137632,21.7244427 32.330482,21.6843951 C32.0308002,21.6333162 31.4760866,21.5262652 31.4314366,21.5310726 C30.8734411,21.6643928 30.5607616,22.1474961 30.1465184,22.4683487 C30.448532,22.0349079 30.7267093,21.5836109 31.110207,21.2110355 C31.1481639,21.1672536 32.1847002,21.2575216 32.7219252,21.4705935 L32.7325911,21.6830216 L33.0375843,21.8053963 L33.2670525,21.2339137 L33.8235366,20.9710506 Z" id="Fill-36" fill="#000000"></path>
                                <path d="M27.0547866,25.0629415 C26.917123,25.0161979 25.7010366,24.8607292 25.7010366,24.8972142 C25.2341116,25.2275529 25.1632934,25.5435981 25.1733116,25.8173209 C25.9501093,25.0577049 25.9211775,25.0555587 27.0548298,25.0629415 L27.0547866,25.0629415 Z" id="Fill-38" fill="#000000"></path>
                                <path d="M26.1311275,19.5996469 C26.1311275,19.5996469 27.0086684,19.4724647 26.9915684,19.5539334 C26.9280048,19.8565436 27.0990048,20.594097 27.1177889,20.4912095 L26.6244366,20.8912559 C27.657648,20.3749299 28.7452252,20.4786759 29.8482616,20.3997826 C29.8482616,20.3997826 28.919507,20.1449032 28.9762911,20.1368766 C29.1834775,20.1076886 28.921148,19.1741039 28.8501139,19.153887 C29.0267707,19.0944381 29.1993252,19.0496689 29.3778389,19.005329 C28.0497389,18.6598383 27.2817502,18.8634241 26.1310843,19.5996469 L26.1311275,19.5996469 Z" id="Fill-40" fill="#000000"></path>
                                <path d="M33.7259457,20.2507954 L33.5308934,20.3479311 C33.503257,19.7800111 32.8896002,19.8216898 32.3721525,19.8164531 L31.9476752,19.7136086 C32.0767457,19.8323348 32.4757457,19.8230204 32.314807,20.0793592 C32.1793457,20.1513418 32.1170343,20.46009 32.0394798,20.7194334 L31.8100116,20.730851 C32.2153593,20.8883371 32.5913866,21.026336 33.0375843,21.2109067 L33.3014684,21.2509114 L33.9324411,20.9137478 L33.7259457,20.2507954 Z" id="Fill-42" fill="#000000"></path>
                                <path d="M27.9093548,19.8679183 C27.810598,19.6736898 27.3137048,19.7012896 27.2065707,19.8269265 C27.1195161,19.9290413 27.201173,20.5841817 27.3127548,20.4736968 C27.4741252,20.3326933 27.6848957,20.2737165 27.9380275,20.2850912 C27.9699389,20.1640471 27.9586684,20.0333882 27.9093548,19.8679183 Z" id="Fill-44" fill="#FFFFFF"></path>
                                <path d="M32.6744684,20.8439972 C32.7211911,20.8100448 32.819948,20.4815947 32.7880366,20.3833 C32.7227457,20.1513847 32.2607002,20.2001886 32.2607002,20.2001886 C32.1479525,20.266119 32.0491525,20.627706 32.090348,20.7469903 C32.1100389,20.8479891 32.600282,20.8801817 32.6744252,20.8439972 L32.6744684,20.8439972 Z" id="Fill-46" fill="#FFFFFF"></path>
                                <path d="M12.9157639,32.1775007 L13.207673,32.2058731 C14.9380116,33.0503916 17.7871048,34.3025541 21.911832,33.6296863 L22.5590411,34.6419926 C20.7425116,35.5194334 18.7887502,35.3175216 16.9579275,35.3790738 L12.9157639,32.1775007 Z" id="Fill-48" fill="#000000"></path>
                                <path d="M10.4315139,25.5011898 L11.2983025,29.1182617 C13.6188934,30.5601886 17.5829843,32.2117536 20.887257,32.0784763 L20.1570525,30.4130471 C13.2596207,28.9570842 12.6762343,27.1165274 10.4316434,25.5008893 L10.4315139,25.5011898 Z" id="Fill-50" fill="#000000"></path>
                                <path d="M12.5884457,18.0921759 C13.0121025,20.8951619 13.5776116,23.0202153 16.0296048,24.8002501 C17.5325048,25.8746237 19.024307,26.9444473 20.8387639,27.8273824 C20.8387639,27.8273824 20.679682,28.6502675 20.5467252,28.6355877 C15.1468389,28.0393812 11.1935434,23.5886503 10.714657,21.5557965 C11.178473,19.9964311 11.8438184,19.0224125 12.588273,18.0921759 L12.5884457,18.0921759 Z" id="Fill-52" fill="#000000"></path>
                                <path d="M15.1841048,16.5040088 C15.9036866,19.6106353 17.6194298,22.7570947 19.3247661,25.611503 C19.9499093,26.3999636 20.1135252,26.7479009 21.0770411,27.2279566 C22.3793616,27.6378325 23.3003002,27.5332281 24.2455934,27.47159 C23.9865889,26.9950541 23.7563866,26.4969705 23.4589502,26.0491074 C21.3422639,24.3851805 22.3205048,22.8701979 22.882732,21.9110309 C21.7057684,21.6154172 20.1463002,20.9871039 19.9314707,20.1606991 C19.5860593,17.4878139 19.7614639,16.6399044 20.1071775,15.2669984 C18.5133798,15.6010285 16.8983798,15.9320541 15.1840184,16.5040517 L15.1841048,16.5040088 Z" id="Fill-54" fill="#000000"></path>
                                <path d="M28.4271048,27.6708835 C27.507332,26.9562084 26.733082,26.2205007 26.222673,25.4629021 C26.0560775,26.3539067 25.451273,26.9884868 24.983873,27.6126364 C24.8908161,27.7590053 24.8237548,27.9585993 25.2819139,28.5946817 C25.4054139,28.7641434 25.8522161,28.7931167 26.1538411,28.7775784 C25.8469911,28.5469937 25.3801093,28.3031457 25.3048866,28.0917907 C25.8447025,28.4571121 26.344532,28.5621028 26.7963002,28.5032548 C26.899548,28.4917084 27.0277548,28.3828974 27.1269002,28.2154102 C27.328257,27.7853174 27.485957,27.6817432 27.645298,27.5659787 L28.0123866,28.0231561 L28.4271048,27.6708835 Z M9.33728659,0.00286728538 C8.81344795,0.343035499 8.30878205,0.829400928 7.76585705,1.38221183 C6.86581841,2.30828492 6.26749114,3.21165151 5.35134568,3.88138585 C5.16812523,4.03844269 4.65391614,4.29134756 4.00748432,4.32886265 C3.70296614,4.34397169 3.50458886,4.39406334 2.94503886,4.32422691 C2.45155705,4.05861671 1.98273205,4.2313406 1.5251775,4.7753522 C1.02344795,5.49255986 0.3880275,6.85443457 0.123797955,7.71174432 C-0.420767955,9.89813527 0.967613864,11.6995459 2.29903886,13.0879044 C3.48347295,14.2380807 4.16635023,14.9568766 4.65266386,16.0112907 C5.02087523,16.6951898 5.29365477,17.6337536 5.58897523,18.2918128 C5.69546159,18.5004206 5.67330932,18.4993476 5.95995023,18.5622304 C6.57887523,18.6935332 7.43741614,18.6945633 8.20173432,18.7598499 C8.53246386,18.7644427 8.98656386,18.7522095 9.41687068,18.7076121 C10.0098002,18.5963116 10.7064093,18.4872861 11.2902707,18.2865332 C11.860832,18.1469032 12.3691684,17.9534903 12.8274139,17.7754439 C12.7683411,17.9748232 12.331773,18.1667339 12.1681139,18.4193812 C10.6148639,20.6295088 10.1893934,22.5961747 10.459798,25.6991956 C10.6127911,27.0745483 10.930307,28.2147234 11.4094525,29.5192524 C11.6287298,30.1162316 12.0952661,31.0616631 12.5423707,31.6896759 C13.8719389,33.5571028 16.8463889,35.9551492 20.987007,36.8782606 C21.7093957,36.9764265 22.5292457,36.9240599 23.3003002,36.7199589 C25.343923,36.1041794 29.508982,34.6478302 29.508982,34.6478302 C29.508982,34.6478302 25.811798,34.9518568 24.1185957,34.7854427 C23.7265911,34.7245343 23.2946434,34.7038452 23.0215616,34.4383209 C22.9757457,34.3795158 22.8093661,34.0463441 22.9168025,34.0433394 C23.063448,34.0392617 23.4843411,33.8656364 24.1341411,33.8080332 C22.7467525,33.659561 22.7665298,33.6613209 22.6652684,33.4101329 C22.5077843,33.0201735 22.2667434,32.4871933 22.0185343,32.0208302 C22.6281752,32.071952 23.9779525,32.1472397 24.4360684,31.6773139 C24.4360684,31.6773139 23.6372911,31.7689984 22.9314411,31.6866712 C22.6936389,31.6589856 22.2884207,31.515235 22.1666911,31.4708093 C21.849823,31.3481341 21.5889184,31.3100181 21.5281184,31.2300517 C21.4180911,30.9516503 21.3435161,30.8580343 21.210732,30.4850726 C21.0308366,29.9912814 21.0165434,29.440445 20.9823002,28.9362664 C21.4440434,29.5019972 22.0323957,29.9782327 22.8113093,30.2214369 C22.8213275,30.2004903 23.8217639,30.6537617 24.5483411,30.4206875 L24.6990025,30.3723557 C24.6990025,30.3857478 24.2176116,30.4142919 24.0410411,30.3274148 C22.5634025,29.7030935 22.340973,29.1566353 22.1023934,28.8852304 L21.4642957,27.935206 C21.6583548,27.5505691 21.7680798,27.5359752 22.0251843,27.5324125 C22.802932,27.6182594 23.141348,27.6843615 23.6145775,27.570829 C23.9343389,28.2249821 24.0207457,28.8830413 24.748748,29.3591051 C27.174098,30.0747246 27.7010457,29.1465912 28.2884911,28.3264961 C30.0335548,29.5995193 32.8744002,29.9920541 34.8473775,28.3486016 C37.3556366,25.4636318 38.1497502,20.9155506 37.9273207,20.6558638 C37.6140798,20.1276051 37.2030752,19.5828209 36.8501502,19.6581086 C35.5922639,19.9994357 35.128448,20.6337582 33.882048,20.4890633 C34.030507,20.4807362 34.2801411,20.4767443 34.2820411,20.4626654 C34.3780775,19.4135738 34.2743116,18.9059613 34.2279775,18.8188267 C33.849748,17.9896747 33.3530707,17.1170842 33.006882,16.4631457 C32.9176252,16.3274647 32.6555116,15.2971306 32.2163093,14.8900877 C32.0279502,14.7302408 31.566898,14.3086469 31.566898,14.3086469 L31.5278184,14.7567246 C31.5278184,14.7567246 31.7080593,14.7837664 31.7766752,15.0613522 C32.0367161,16.113706 33.3608866,18.6018916 33.4580889,18.7211329 C33.9273889,19.4742246 33.5057616,20.4123592 33.862573,20.9386863 C33.8968593,21.005561 34.5904889,20.9328487 35.1281025,20.9656852 C36.0121639,20.7766503 35.9748548,20.3893951 36.7385252,20.331191 C37.2529502,20.2919589 37.3045525,21.2523278 37.297773,21.3268429 C37.2019093,22.3872234 36.877398,23.6201132 36.3807639,24.7460378 C35.3482002,26.7234775 34.1918343,28.4995204 32.551832,28.7471886 C30.5513911,29.0946538 29.5118752,28.2253255 28.4274502,27.671742 L28.0126025,28.0234137 C26.6032775,29.4184682 24.9298957,29.2945483 24.2454639,27.4718046 C23.9047593,26.7647269 23.4607639,26.3313719 23.0805911,25.7248209 L21.0645184,27.1682072 C20.8967139,27.5103499 20.690348,28.0498545 20.4396775,28.6524995 C20.2653957,29.0714752 20.1192684,29.7910436 20.1288116,30.38901 C19.8703684,30.8266144 21.0239275,32.6013696 21.7528366,33.680894 C21.9679252,33.9994288 22.3694298,34.5558882 22.3828593,34.5905703 C22.5273889,34.9632745 22.843998,35.2923255 22.8632139,35.3324589 C24.2164025,37.0868255 21.1561934,36.6828302 20.5241843,36.5768522 C19.2772661,36.3793615 18.0575957,35.861619 16.9111616,35.169307 C16.8446184,35.1291306 16.7783343,35.0883963 16.7123093,35.047061 C15.3498798,34.1943441 14.0963116,33.1033592 13.0304548,32.024264 C12.3949048,31.3089021 11.7897548,29.8425947 11.3427798,28.8030749 C10.6729002,26.3038151 9.71154341,21.9718104 12.3157525,18.6890262 C12.4808366,18.5014079 12.6589616,18.1889682 12.8106161,18.1271585 C13.584348,17.6069694 14.4245366,17.2524218 15.3280298,17.055532 L15.2368298,16.4733615 C14.785623,16.5752617 13.2663139,17.1276434 12.8367411,17.358829 C11.8598389,17.6403638 11.049532,17.9342606 9.80451386,18.2441248 C9.39977068,18.293358 9.0016775,18.2942594 8.6136025,18.2418499 C7.71796841,18.1208916 6.19136159,18.2289299 6.09398659,18.1390053 C5.48754114,17.2983499 5.32150705,15.7921237 4.76817523,14.9860216 L4.76165477,14.9779949 L4.75461614,14.9703545 C4.43204795,14.5394032 4.05606386,14.1878603 3.68577977,13.8221527 C2.3597525,12.5125587 1.22480477,11.2463174 0.907116136,9.90453086 C0.827229773,9.50834756 0.621511591,9.09799954 0.730847955,7.92576056 L0.7328775,7.92000882 L0.7347775,7.91425708 C1.05380477,6.81915151 1.57280705,5.92647285 2.45367295,5.03181972 C3.37033659,5.04654246 4.27767295,5.06654478 4.98442977,5.20076636 C5.30868205,5.25467819 5.98296614,5.342242 6.6794025,5.60012599 C8.44217068,6.25286265 10.7713116,7.32603434 10.7713116,7.32603434 C9.02296614,6.37158886 7.06799568,5.13200302 5.83347068,4.88184524 C5.64981841,4.85600534 5.53689795,4.77269095 5.48235932,4.62730928 C7.33913432,3.54289165 7.6788025,2.26613411 8.90007068,1.12106566 C9.45819568,0.879578422 9.67583205,0.756259397 10.1500548,0.70505174 C14.536032,1.39440209 17.2970775,3.13086961 19.4812139,4.29199142 C20.3676934,4.77118863 21.1735525,5.13354826 21.9432252,5.56995081 C22.617898,5.79053434 24.6537911,7.31839397 25.2496139,8.14213759 C25.8548934,9.41245661 26.2968161,10.7846329 26.6998752,12.108735 C26.9888911,13.4554578 27.2424116,14.0017443 27.2424116,14.0017443 C27.2424116,14.0017443 26.9967934,12.8753046 27.0377298,12.6729206 C27.2924161,12.7675239 27.8945002,12.9544125 28.1440911,12.9253534 C28.1440911,12.9253534 27.029223,12.3524972 26.8831389,11.8462153 C26.414357,10.2216921 25.9441934,7.69272923 25.8174116,7.56086845 C25.4601252,7.11399258 23.970223,5.9805993 23.056323,5.45633248 C22.7106093,5.25802622 22.5237616,5.13500766 22.5091661,5.04778724 C22.8011184,4.75462019 23.1616866,4.36680696 23.4849889,4.12038353 C23.7949048,3.88417587 24.0770548,3.61779304 24.5089593,3.45837541 C26.4073616,2.60849142 27.4928661,3.78536613 27.7504457,3.54705522 C27.7504457,3.54705522 27.342032,3.08172227 27.5234389,3.15829768 C27.709207,3.2583522 28.3146593,3.3763058 28.3811161,3.43772923 C29.0730184,3.97573155 30.8819048,5.94205406 31.9721593,8.01680116 C32.2340139,8.52501462 32.340457,8.85964571 32.2189866,9.4716051 C32.0972139,10.0841225 32.0030343,10.4209427 31.870207,10.830003 C31.7502048,11.1034682 31.0714298,12.9756596 31.0740639,13.227191 C30.937307,14.2544346 31.517282,15.5404636 31.517282,15.5404636 C31.5227661,15.1913673 31.495648,15.00538 31.527473,14.7557374 L31.5665093,14.3096341 C31.5665093,14.3096341 31.5417661,14.1909508 31.546257,14.1439497 C31.5757502,13.8354589 31.6518366,13.5761155 31.6742048,13.3994427 C31.8921866,12.0578708 32.2710639,11.0920935 32.7008525,9.91483248 C32.8285843,9.61771647 32.995698,9.45250418 32.987148,9.22629768 C32.9941866,8.82487773 32.6328843,8.28610278 32.3717207,7.75990441 C32.1083116,7.22808306 31.7935161,6.63522459 31.3802661,6.01034524 C30.4380389,4.66357958 29.634857,3.6098522 28.1640843,2.95037657 C27.7525616,2.77087077 26.1332434,2.59535684 25.5740389,2.69966079 C24.8956525,2.84010626 24.3122661,2.97866311 23.847198,3.27470603 C23.1152661,3.74063991 22.5400843,4.46192529 21.8655843,4.88699606 C20.3732207,4.14519327 19.652948,3.59002158 19.5186525,3.5134891 C18.631698,3.04107378 17.5668343,2.49281276 16.4212207,1.97292413 C15.871948,1.46376636 12.4610161,0.246028538 9.33767523,0.00312482599 L9.33728659,0.00286728538 Z" id="Fill-56" fill="#000000"></path>
                                <path d="M28.4271048,27.6708835 C27.507332,26.9562084 26.733082,26.2205007 26.222673,25.4629021 C26.0560775,26.3539067 25.451273,26.9884868 24.983873,27.6126364 C24.8908161,27.7590053 24.8237548,27.9585993 25.2819139,28.5946817 C25.4054139,28.7641434 25.8522161,28.7931167 26.1538411,28.7775784 C25.8469911,28.5469937 25.3801093,28.3031457 25.3048866,28.0917907 C25.8447025,28.4571121 26.344532,28.5621028 26.7963002,28.5032548 C26.899548,28.4917084 27.0277548,28.3828974 27.1269002,28.2154102 C27.328257,27.7853174 27.485957,27.6817432 27.645298,27.5659787 L28.0123866,28.0231561 L28.4271048,27.6708835 Z M9.33728659,0.00286728538 C8.81344795,0.343035499 8.30878205,0.829400928 7.76585705,1.38221183 C6.86581841,2.30828492 6.26749114,3.21165151 5.35134568,3.88138585 C5.16812523,4.03844269 4.65391614,4.29134756 4.00748432,4.32886265 C3.70296614,4.34397169 3.50458886,4.39406334 2.94503886,4.32422691 C2.45155705,4.05861671 1.98273205,4.2313406 1.5251775,4.7753522 C1.02344795,5.49255986 0.3880275,6.85443457 0.123797955,7.71174432 C-0.420767955,9.89813527 0.967613864,11.6995459 2.29903886,13.0879044 C3.48347295,14.2380807 4.16635023,14.9568766 4.65266386,16.0112907 C5.02087523,16.6951898 5.29365477,17.6337536 5.58897523,18.2918128 C5.69546159,18.5004206 5.67330932,18.4993476 5.95995023,18.5622304 C6.57887523,18.6935332 7.43741614,18.6945633 8.20173432,18.7598499 C8.53246386,18.7644427 8.98656386,18.7522095 9.41687068,18.7076121 C10.0098002,18.5963116 10.7064093,18.4872861 11.2902707,18.2865332 C11.860832,18.1469032 12.3691684,17.9534903 12.8274139,17.7754439 C12.7683411,17.9748232 12.331773,18.1667339 12.1681139,18.4193812 C10.6148639,20.6295088 10.1893934,22.5961747 10.459798,25.6991956 C10.6127911,27.0745483 10.930307,28.2147234 11.4094525,29.5192524 C11.6287298,30.1162316 12.0952661,31.0616631 12.5423707,31.6896759 C13.8719389,33.5571028 16.8463889,35.9551492 20.987007,36.8782606 C21.7093957,36.9764265 22.5292457,36.9240599 23.3003002,36.7199589 C25.343923,36.1041794 29.508982,34.6478302 29.508982,34.6478302 C29.508982,34.6478302 25.811798,34.9518568 24.1185957,34.7854427 C23.7265911,34.7245343 23.2946434,34.7038452 23.0215616,34.4383209 C22.9757457,34.3795158 22.8093661,34.0463441 22.9168025,34.0433394 C23.063448,34.0392617 23.4843411,33.8656364 24.1341411,33.8080332 C22.7467525,33.659561 22.7665298,33.6613209 22.6652684,33.4101329 C22.5077843,33.0201735 22.2667434,32.4871933 22.0185343,32.0208302 C22.6281752,32.071952 23.9779525,32.1472397 24.4360684,31.6773139 C24.4360684,31.6773139 23.6372911,31.7689984 22.9314411,31.6866712 C22.6936389,31.6589856 22.2884207,31.515235 22.1666911,31.4708093 C21.849823,31.3481341 21.5889184,31.3100181 21.5281184,31.2300517 C21.4180911,30.9516503 21.3435161,30.8580343 21.210732,30.4850726 C21.0308366,29.9912814 21.0165434,29.440445 20.9823002,28.9362664 C21.4440434,29.5019972 22.0323957,29.9782327 22.8113093,30.2214369 C22.8213275,30.2004903 23.8217639,30.6537617 24.5483411,30.4206875 L24.6990025,30.3723557 C24.6990025,30.3857478 24.2176116,30.4142919 24.0410411,30.3274148 C22.5634025,29.7030935 22.340973,29.1566353 22.1023934,28.8852304 L21.4642957,27.935206 C21.6583548,27.5505691 21.7680798,27.5359752 22.0251843,27.5324125 C22.802932,27.6182594 23.141348,27.6843615 23.6145775,27.570829 C23.9343389,28.2249821 24.0207457,28.8830413 24.748748,29.3591051 C27.174098,30.0747246 27.7010457,29.1465912 28.2884911,28.3264961 C30.0335548,29.5995193 32.8744002,29.9920541 34.8473775,28.3486016 C37.3556366,25.4636318 38.1497502,20.9155506 37.9273207,20.6558638 C37.6140798,20.1276051 37.2030752,19.5828209 36.8501502,19.6581086 C35.5922639,19.9994357 35.128448,20.6337582 33.882048,20.4890633 C34.030507,20.4807362 34.2801411,20.4767443 34.2820411,20.4626654 C34.3780775,19.4135738 34.2743116,18.9059613 34.2279775,18.8188267 C33.849748,17.9896747 33.3530707,17.1170842 33.006882,16.4631457 C32.9176252,16.3274647 32.6555116,15.2971306 32.2163093,14.8900877 C32.0279502,14.7302408 31.566898,14.3086469 31.566898,14.3086469 L31.5278184,14.7567246 C31.5278184,14.7567246 31.7080593,14.7837664 31.7766752,15.0613522 C32.0367161,16.113706 33.3608866,18.6018916 33.4580889,18.7211329 C33.9273889,19.4742246 33.5057616,20.4123592 33.862573,20.9386863 C33.8968593,21.005561 34.5904889,20.9328487 35.1281025,20.9656852 C36.0121639,20.7766503 35.9748548,20.3893951 36.7385252,20.331191 C37.2529502,20.2919589 37.3045525,21.2523278 37.297773,21.3268429 C37.2019093,22.3872234 36.877398,23.6201132 36.3807639,24.7460378 C35.3482002,26.7234775 34.1918343,28.4995204 32.551832,28.7471886 C30.5513911,29.0946538 29.5118752,28.2253255 28.4274502,27.671742 L28.0126025,28.0234137 C26.6032775,29.4184682 24.9298957,29.2945483 24.2454639,27.4718046 C23.9047593,26.7647269 23.4607639,26.3313719 23.0805911,25.7248209 L21.0645184,27.1682072 C20.8967139,27.5103499 20.690348,28.0498545 20.4396775,28.6524995 C20.2653957,29.0714752 20.1192684,29.7910436 20.1288116,30.38901 C19.8703684,30.8266144 21.0239275,32.6013696 21.7528366,33.680894 C21.9679252,33.9994288 22.3694298,34.5558882 22.3828593,34.5905703 C22.5273889,34.9632745 22.843998,35.2923255 22.8632139,35.3324589 C24.2164025,37.0868255 21.1561934,36.6828302 20.5241843,36.5768522 C19.2772661,36.3793615 18.0575957,35.861619 16.9111616,35.169307 C16.8446184,35.1291306 16.7783343,35.0883963 16.7123093,35.047061 C15.3498798,34.1943441 14.0963116,33.1033592 13.0304548,32.024264 C12.3949048,31.3089021 11.7897548,29.8425947 11.3427798,28.8030749 C10.6729002,26.3038151 9.71154341,21.9718104 12.3157525,18.6890262 C12.4808366,18.5014079 12.6589616,18.1889682 12.8106161,18.1271585 C13.584348,17.6069694 14.4245366,17.2524218 15.3280298,17.055532 L15.2368298,16.4733615 C14.785623,16.5752617 13.2663139,17.1276434 12.8367411,17.358829 C11.8598389,17.6403638 11.049532,17.9342606 9.80451386,18.2441248 C9.39977068,18.293358 9.0016775,18.2942594 8.6136025,18.2418499 C7.71796841,18.1208916 6.19136159,18.2289299 6.09398659,18.1390053 C5.48754114,17.2983499 5.32150705,15.7921237 4.76817523,14.9860216 L4.76165477,14.9779949 L4.75461614,14.9703545 C4.43204795,14.5394032 4.05606386,14.1878603 3.68577977,13.8221527 C2.3597525,12.5125587 1.22480477,11.2463174 0.907116136,9.90453086 C0.827229773,9.50834756 0.621511591,9.09799954 0.730847955,7.92576056 L0.7328775,7.92000882 L0.7347775,7.91425708 C1.05380477,6.81915151 1.57280705,5.92647285 2.45367295,5.03181972 C3.37033659,5.04654246 4.27767295,5.06654478 4.98442977,5.20076636 C5.30868205,5.25467819 5.98296614,5.342242 6.6794025,5.60012599 C8.44217068,6.25286265 10.7713116,7.32603434 10.7713116,7.32603434 C9.02296614,6.37158886 7.06799568,5.13200302 5.83347068,4.88184524 C5.64981841,4.85600534 5.53689795,4.77269095 5.48235932,4.62730928 C7.33913432,3.54289165 7.6788025,2.26613411 8.90007068,1.12106566 C9.45819568,0.879578422 9.67583205,0.756259397 10.1500548,0.70505174 C14.536032,1.39440209 17.2970775,3.13086961 19.4812139,4.29199142 C20.3676934,4.77118863 21.1735525,5.13354826 21.9432252,5.56995081 C22.617898,5.79053434 24.6537911,7.31839397 25.2496139,8.14213759 C25.8548934,9.41245661 26.2968161,10.7846329 26.6998752,12.108735 C26.9888911,13.4554578 27.2424116,14.0017443 27.2424116,14.0017443 C27.2424116,14.0017443 26.9967934,12.8753046 27.0377298,12.6729206 C27.2924161,12.7675239 27.8945002,12.9544125 28.1440911,12.9253534 C28.1440911,12.9253534 27.029223,12.3524972 26.8831389,11.8462153 C26.414357,10.2216921 25.9441934,7.69272923 25.8174116,7.56086845 C25.4601252,7.11399258 23.970223,5.9805993 23.056323,5.45633248 C22.7106093,5.25802622 22.5237616,5.13500766 22.5091661,5.04778724 C22.8011184,4.75462019 23.1616866,4.36680696 23.4849889,4.12038353 C23.7949048,3.88417587 24.0770548,3.61779304 24.5089593,3.45837541 C26.4073616,2.60849142 27.4928661,3.78536613 27.7504457,3.54705522 C27.7504457,3.54705522 27.342032,3.08172227 27.5234389,3.15829768 C27.709207,3.2583522 28.3146593,3.3763058 28.3811161,3.43772923 C29.0730184,3.97573155 30.8819048,5.94205406 31.9721593,8.01680116 C32.2340139,8.52501462 32.340457,8.85964571 32.2189866,9.4716051 C32.0972139,10.0841225 32.0030343,10.4209427 31.870207,10.830003 C31.7502048,11.1034682 31.0714298,12.9756596 31.0740639,13.227191 C30.937307,14.2544346 31.517282,15.5404636 31.517282,15.5404636 C31.5227661,15.1913673 31.495648,15.00538 31.527473,14.7557374 L31.5665093,14.3096341 C31.5665093,14.3096341 31.5417661,14.1909508 31.546257,14.1439497 C31.5757502,13.8354589 31.6518366,13.5761155 31.6742048,13.3994427 C31.8921866,12.0578708 32.2710639,11.0920935 32.7008525,9.91483248 C32.8285843,9.61771647 32.995698,9.45250418 32.987148,9.22629768 C32.9941866,8.82487773 32.6328843,8.28610278 32.3717207,7.75990441 C32.1083116,7.22808306 31.7935161,6.63522459 31.3802661,6.01034524 C30.4380389,4.66357958 29.634857,3.6098522 28.1640843,2.95037657 C27.7525616,2.77087077 26.1332434,2.59535684 25.5740389,2.69966079 C24.8956525,2.84010626 24.3122661,2.97866311 23.847198,3.27470603 C23.1152661,3.74063991 22.5400843,4.46192529 21.8655843,4.88699606 C20.3732207,4.14519327 19.652948,3.59002158 19.5186525,3.5134891 C18.631698,3.04107378 17.5668343,2.49281276 16.4212207,1.97292413 C15.871948,1.46376636 12.4610161,0.246028538 9.33767523,0.00312482599 L9.33728659,0.00286728538 Z" id="Stroke-58" stroke="#000000" stroke-width="0.5"></path>
                            </g>
                        </g>
                    </g>
                </g>
            </g>
        </g>
    </g>
</svg>
