<?xml version="1.0" encoding="UTF-8"?>
<!--

    Copyright (C) 2017-2018 Dremio Corporation

    Licensed under the Apache License, Version 2.0 (the "License");
    you may not use this file except in compliance with the License.
    You may obtain a copy of the License at

        http://www.apache.org/licenses/LICENSE-2.0

    Unless required by applicable law or agreed to in writing, software
    distributed under the License is distributed on an "AS IS" BASIS,
    WITHOUT WARRANTIES OR CONDITIONS OF ANY KIND, either express or implied.
    See the License for the specific language governing permissions and
    limitations under the License.

-->
<svg width="48px" height="48px" viewBox="0 0 48 48" version="1.1" xmlns="http://www.w3.org/2000/svg" xmlns:xlink="http://www.w3.org/1999/xlink">
    <!-- Generator: Sketch 41.1 (35376) - http://www.bohemiancoding.com/sketch -->
    <title>Source/MAPr</title>
    <desc>Created with Sketch.</desc>
    <defs></defs>
    <g id="Elements" stroke="none" stroke-width="1" fill="none" fill-rule="evenodd">
        <g id="Elements/Data-Sources" transform="translate(-30.000000, -482.000000)">
            <g id="Icons" transform="translate(30.000000, 82.000000)">
                <g id="Source/MAPr" transform="translate(0.000000, 400.000000)">
                    <g>
                        <circle id="Oval" fill="#E21837" cx="24" cy="24" r="24"></circle>
                        <g id="Logo/Mapr" transform="translate(2.000000, 16.500000)">
                            <g id="Source/Mapr">
                                <polygon id="Fill-1" fill="#E21836" points="0 14.6371837 43.9138857 14.6371837 43.9138857 0 0 0"></polygon>
                                <path d="M37.3187167,4.18367265 C38.8509943,4.18367265 39.1646514,5.00198286 39.1646514,5.62884816 C39.1646514,6.25571347 38.8509943,7.07402367 37.3187167,7.07402367 L33.1917861,7.07402367 L33.1917861,11.5840237 L34.550129,11.5840237 L34.550129,8.32766449 L36.9703984,8.32766449 L39.3038351,11.5840237 L40.9233045,11.5840237 L38.5026759,8.13621959 C39.826178,7.85749306 40.5574759,6.88248898 40.5574759,5.62884816 C40.5574759,4.00964816 39.6346433,2.93003184 37.2491249,2.93003184 L33.4702433,2.93003184 C32.5823412,2.93003184 32.5823412,4.18367265 33.4702433,4.18367265 L37.3187167,4.18367265 Z M8.44789224,10.3651339 L6.48019429,3.90512571 C6.23639837,3.13898694 5.78364735,2.84301959 5.20895347,2.84301959 C4.63434939,2.84301959 4.09458612,3.15640735 3.90305143,3.90512571 L2.02236571,11.5840237 L3.39803918,11.5840237 L5.17420245,4.23593388 L5.22646367,4.23593388 L7.21149224,10.695942 C7.42044735,11.3749788 7.96030041,11.6883665 8.46531265,11.6710359 C8.9702351,11.6883665 9.47524735,11.3749788 9.70162286,10.695942 L11.7041616,4.23593388 L11.7564229,4.23593388 L13.3758922,10.521738 C13.5673371,11.3228971 14.1071902,11.6710359 14.838578,11.6710359 C15.5525453,11.6710359 16.0574678,11.2879665 16.3012637,10.695942 L19.0002596,3.92254612 L20.7765127,7.16094612 L18.8261453,7.16094612 L18.8261453,8.41485633 L21.4903902,8.41485633 L22.7093698,10.6089298 C23.0923494,11.3228971 23.5102596,11.6710359 24.4157616,11.6710359 C25.1123086,11.6710359 25.8261861,11.3400482 25.8261861,9.87754204 L25.8261861,4.18367265 L28.6121943,4.18367265 C30.1442922,4.18367265 30.4579494,5.00198286 30.4579494,5.62884816 C30.4579494,6.25571347 30.1442922,7.07402367 28.6121943,7.07402367 L27.2713616,7.07402367 L27.2713616,8.32766449 L28.5250024,8.32766449 C30.9454514,8.32766449 31.8509535,7.24813796 31.8509535,5.62884816 C31.8509535,4.00964816 30.9281208,2.93003184 28.5599331,2.93003184 L25.8261861,2.93003184 C24.74648,2.93003184 24.4853535,3.27826041 24.4853535,4.18367265 L24.4853535,10.9743992 L24.4332718,10.9743992 L20.4804555,3.90512571 C20.0972963,3.19115837 19.7316473,2.86044 19.0699412,2.84301959 C18.4604963,2.82559918 17.8858024,3.20866857 17.6246759,3.90512571 L14.873329,10.9743992 L14.838578,10.9743992 L13.0275739,3.90512571 C12.8359494,3.15640735 12.3310269,2.84301959 11.7564229,2.84301959 C11.1818188,2.84301959 10.7115576,3.13898694 10.450431,3.90512571 L8.50015347,10.3651339 L8.44789224,10.3651339 Z" id="Fill-2" fill="#FFFFFF"></path>
                            </g>
                        </g>
                    </g>
                </g>
            </g>
        </g>
    </g>
</svg>
