<?xml version="1.0" encoding="UTF-8"?>
<!--

    Copyright (C) 2017-2018 Dremio Corporation

    Licensed under the Apache License, Version 2.0 (the "License");
    you may not use this file except in compliance with the License.
    You may obtain a copy of the License at

        http://www.apache.org/licenses/LICENSE-2.0

    Unless required by applicable law or agreed to in writing, software
    distributed under the License is distributed on an "AS IS" BASIS,
    WITHOUT WARRANTIES OR CONDITIONS OF ANY KIND, either express or implied.
    See the License for the specific language governing permissions and
    limitations under the License.

-->
<svg width="48px" height="48px" viewBox="0 0 48 48" version="1.1" xmlns="http://www.w3.org/2000/svg">
    <!-- Generator: Sketch 41.1 (35376) - http://www.bohemiancoding.com/sketch -->
    <title>Source/MSSQL</title>
    <desc>Created with Sketch.</desc>
    <defs>
        <linearGradient x1="100%" y1="50%" x2="3.061617e-15%" y2="50%" id="linearGradient-5">
            <stop stop-color="#E4E4E4" offset="0%"></stop>
            <stop stop-color="#AAAAAA" offset="100%"></stop>
        </linearGradient>
        <linearGradient x1="100%" y1="50%" x2="21.7587724%" y2="50%" id="linearGradient-6">
            <stop stop-color="#A02323" offset="0%"></stop>
            <stop stop-color="#EB2D2D" offset="100%"></stop>
        </linearGradient>
    </defs>
    <g id="Elements" stroke="none" stroke-width="1" fill="none" fill-rule="evenodd">
        <g id="Source.2f.S3">
          <circle id="Oval" cx="24" cy="24" r="23.5" style="fill:#fff;stroke:#e5e5e5;stroke-width:1.02px;"/>
        </g>
        <g id="Elements/Data-Sources" transform="translate(-30.000000, -402.000000)">
            <g id="Icons" transform="translate(30.000000, 82.000000)">
                <g id="Source/MSSQL" transform="translate(0.000000, 320.000000)">
                    <g>
                        <g id="Logo/MSSQL" transform="translate(8.000000, 4.000000)">
                            <g id="Source/MSSQL">
                                <g id="Group-3" transform="translate(0.000000, 19.042923)">
                                    <path d="M19.5279654,17.5682825 C19.5337735,17.5669775 19.5364625,17.5669775 19.5368927,17.5682825 C19.562384,17.6324469 18.5685468,20.4155531 18.205323,21.2978687 C18.124009,21.4954735 18.0938927,21.5433249 18.0515148,21.5414761 C17.9486892,21.5369085 16.5077328,21.3332135 15.6356515,21.1993382 C14.1088637,20.9649748 11.5516689,20.513431 10.9063201,20.3647653 L10.756384,20.3310517 L11.6714887,20.1224629 C13.6329189,19.6755955 14.5749131,19.4360119 15.5305672,19.1402029 C16.7357561,18.767179 17.9291137,18.3020411 19.1345177,17.7354363 C19.3251108,17.6459324 19.4875235,17.5772003 19.5279654,17.5682825 Z M11.9034916,15.7604761 C11.9113433,15.7685239 11.476916,16.4718316 10.712823,17.6887812 C10.3902561,18.2026406 10.0243433,18.7875159 9.89903808,18.9886008 C9.77362529,19.1895769 9.58991599,19.4951737 9.49139273,19.6689615 L9.31198576,19.9851074 L9.22099157,19.9605292 C9.00146541,19.9003886 7.4526282,19.3471605 7.04347703,19.182943 C6.53644797,18.9794655 6.00801483,18.733683 5.61833169,18.520744 C5.13141599,18.2546247 4.51381715,17.8598501 4.56221831,17.8442984 C4.57620087,17.8398395 5.41407878,17.6079775 6.42318924,17.3297865 C9.10762529,16.5899377 10.5924654,16.1649297 11.5664044,15.8577016 C11.7483927,15.8002798 11.8999422,15.756996 11.9034916,15.7604761 Z M12.9864945,15.7293727 C12.9907968,15.723935 13.2643172,15.8220305 13.5952735,15.9470968 C14.3930323,16.2487785 15.0191282,16.4455133 15.8663637,16.659866 C16.9068811,16.9231578 18.4106515,17.1865584 19.3011253,17.2624682 C19.4378317,17.2741048 19.5076369,17.289874 19.4856951,17.3039032 C19.4442852,17.330439 18.5426253,17.6349483 17.8797445,17.8456034 C16.8275032,18.1800199 13.6117299,19.1406379 10.9896776,19.9034337 C10.5032997,20.0450305 10.0873724,20.1645504 10.0656456,20.169118 C10.0069189,20.1815159 9.80159041,20.1270305 9.80159041,20.0991897 C9.80159041,20.0859218 9.94862238,19.8977785 10.1271689,19.6819032 C11.0085003,18.6159032 11.8840235,17.4254894 12.6147735,16.2995663 C12.8147241,15.9916857 12.9821922,15.7349191 12.9864945,15.7294814 L12.9864945,15.7293727 Z M8.09829971,12.1968475 L8.2956689,12.419683 C9.17807587,13.4136883 10.0754334,14.1552772 11.1703753,14.7950729 C11.3636573,14.9080676 11.5110119,15.0062719 11.4984276,15.0141021 C11.4529305,15.0425955 7.71227355,16.3873302 5.98230843,16.9967838 C5.00664855,17.3405531 4.20523285,17.6207016 4.20082297,17.6201578 C4.19641308,17.6195053 4.1411282,17.5829642 4.07906715,17.5384841 L3.96623866,17.4568103 L4.1431718,17.1989562 C4.71710203,16.3582931 5.43827936,15.4337812 7.0165875,13.5134151 L8.09829971,12.1968475 Z M7.3138782,11.8936432 C7.32882878,11.9078899 6.54881715,13.0369668 5.45936076,14.5786538 C5.0807561,15.1144814 4.63589564,15.7461207 4.47122413,15.9821154 C4.30655262,16.2181101 4.05744797,16.5916777 3.91633169,16.8127732 L3.65862238,17.214508 L3.38434913,16.9812321 C3.06253517,16.7080438 2.4992532,16.1279536 2.24369506,15.8058263 C1.71795087,15.1430836 1.36161076,14.4456485 1.22103227,13.8049828 C1.15606715,13.5092825 1.1541311,13.3585504 1.21586948,13.3398448 C1.30503517,13.3126565 2.94088692,12.9232109 4.47509622,12.5635637 C5.32727936,12.3637838 6.31251192,12.1299642 6.66541017,12.0439403 C7.01830843,11.9579164 7.31043634,11.8902719 7.3138782,11.8936432 Z M21.2812706,11.4102347 C21.2841747,11.4108873 21.2851427,11.4128448 21.2851427,11.4154549 C21.2851427,11.5531366 20.9761282,12.8271817 20.718634,13.7493011 C20.5026573,14.5228634 20.3213142,15.1278581 19.9855177,16.1998395 C19.8371951,16.6732427 19.7098462,17.059752 19.7023172,17.0576857 C19.6946805,17.0557281 19.6590788,17.0487679 19.6228317,17.042134 C17.8030555,16.7091313 16.1730119,16.2447546 14.6462241,15.6244257 C14.2190032,15.4508554 13.6021573,15.174622 13.5695672,15.142431 C13.5585962,15.1314469 13.9274131,14.9558103 14.3886224,14.7523329 C17.1772823,13.5221154 20.0666166,12.1211552 21.0544305,11.5204019 C21.1731747,11.4481897 21.2611573,11.4061021 21.2812706,11.4102347 Z M15.2305875,9.27464589 C15.2347823,9.27888727 15.1870265,9.40895623 15.1242125,9.56229841 C14.5904015,10.8674469 13.8910584,12.2912454 12.9992939,13.8905716 C12.7723462,14.2975265 12.5810003,14.6298767 12.5737939,14.6292241 C12.5664799,14.6285716 12.3819102,14.5180782 12.1636747,14.3830066 C10.8646951,13.5789934 9.71543634,12.5892294 8.96080843,11.6266538 L8.85314273,11.4906034 L9.41319797,11.3350862 C11.4109828,10.7817493 13.1052387,10.1899138 14.7897067,9.45604642 C15.0282706,9.352187 15.2263927,9.27040451 15.2305875,9.27464589 Z M16.204634,8.9519748 C16.2085061,8.94729841 16.3585497,9.02853714 16.5378491,9.13337533 C17.8462939,9.89845491 19.6720933,10.616118 21.2286747,10.9760915 L21.3696834,11.0085 L21.1761863,11.1173621 C20.3630468,11.5735822 17.6850642,12.7001578 14.9499683,13.7376645 C14.5507125,13.8890491 14.1610294,14.0376061 14.0848782,14.068057 C14.0086195,14.0986167 13.9464509,14.1194973 13.9464509,14.1134072 C13.9464509,14.1074257 14.0592794,13.8878528 14.1975991,13.6261923 C14.9654567,12.1745531 15.731916,10.4104655 16.1252561,9.18644695 C16.1652677,9.0617069 16.2007619,8.95665119 16.204634,8.9519748 Z M6.65002936,7.22192706 C6.67498285,7.22073077 6.66863692,7.26869098 6.62948576,7.49663793 C6.60227355,7.65530902 6.57151192,7.95481565 6.56032587,8.16144695 C6.51106424,9.06714456 6.65626773,9.73532493 7.1011282,10.6496141 C7.22482006,10.9037706 7.32162238,11.115622 7.31645959,11.1199721 C7.27193052,11.1577095 3.22118343,12.3561711 1.94769506,12.7087493 C1.57016599,12.8132613 1.24028517,12.9052666 1.21328808,12.9134231 C1.16908169,12.9269085 1.16520959,12.9172294 1.18123576,12.8123912 C1.32073866,11.9037573 2.00620669,10.7111684 2.96401192,9.71009416 C3.6007561,9.04441512 4.11058169,8.65018435 4.97750029,8.14981034 C5.59961657,7.7907069 6.56581134,7.25172546 6.63722994,7.22453714 C6.6419625,7.22268833 6.64647994,7.22214456 6.65002936,7.22192706 Z M21.8400352,5.39084748 L21.8400352,5.65392175 C21.8387445,7.03563263 21.6928956,8.92717905 21.4812212,10.3074761 C21.4440061,10.5496698 21.4118462,10.7494496 21.4093724,10.7519509 C21.4070061,10.7543435 21.2342677,10.7032294 21.0262503,10.6378687 C20.1067358,10.3492374 19.1097794,9.9180305 18.2104858,9.41972281 C17.6148288,9.08976525 16.7533956,8.55524271 16.7775962,8.53077321 C16.7841573,8.52413926 17.0378869,8.38819761 17.3415235,8.22887401 C18.5441311,7.59766976 19.6929596,6.91720027 20.6917445,6.24227719 C21.066477,5.98899072 21.6270701,5.57909947 21.7516224,5.4686061 L21.8400352,5.39084748 Z M11.2754596,4.95670424 C11.2918084,4.97127719 10.9811805,5.63445491 10.6757154,6.23705703 C10.0830701,7.40593767 9.42965436,8.55622149 8.56219797,9.96011804 C8.41258459,10.2024204 8.2745875,10.4238422 8.25587238,10.451248 C8.22511076,10.4964894 8.21252645,10.4815902 8.11755262,10.2906194 C7.90985785,9.87300663 7.73582878,9.34609682 7.64591017,8.85605438 C7.55674448,8.37112334 7.57191017,7.53143899 7.67914564,7.01072812 C7.75884622,6.62378382 7.7552968,6.63237533 7.93556424,6.53906499 C8.71450029,6.13537268 11.2500759,4.93419231 11.2754596,4.95670424 L11.2754596,4.95670424 Z M12.5020526,4.44491114 C12.5095817,4.44567241 12.5153898,4.44773873 12.5186166,4.45132759 C12.5307706,4.464813 12.5733637,4.56540981 12.6134828,4.67557692 C12.8087009,5.21151326 13.2475381,6.00769629 13.6286166,6.51698806 C14.0446515,7.07304377 14.5870672,7.66553183 15.0409625,8.05911008 C15.1867038,8.18548143 15.3226573,8.30337003 15.3421253,8.32087931 C15.3809538,8.35568037 15.3940759,8.34980769 14.3949683,8.73294562 C13.2371049,9.17698541 11.9760933,9.62167772 10.5282532,10.0948634 C9.9765875,10.2752851 9.50957006,10.4276485 9.49139273,10.4343912 C9.43632297,10.4551631 9.45320959,10.4207971 9.61443924,10.1662056 C10.3338956,9.03060345 11.4236747,6.80909947 12.032884,5.23794032 C12.1386137,4.96540451 12.2391805,4.69254244 12.2572503,4.63142308 C12.2837096,4.54181034 12.3098462,4.51135942 12.3930962,4.47340451 C12.4391311,4.45241512 12.4793578,4.44262732 12.5020526,4.44491114 Z M16.5046137,2.84960875 C16.5411834,2.88680239 16.5146166,4.27210212 16.4699799,4.64958488 C16.3627445,5.55517374 16.1875323,6.39279178 15.9073433,7.34503581 C15.8403346,7.5726565 15.7776282,7.76873873 15.7676253,7.78048408 C15.7433172,7.80897745 14.9054392,6.98364854 14.6269712,6.65695358 C14.151134,6.09883156 13.7746805,5.54440716 13.5004073,4.99824801 C13.3610119,4.7206008 13.1387968,4.17237533 13.159448,4.15714987 C13.2535613,4.08809151 16.4815962,2.82622679 16.5046137,2.84960875 Z M17.354323,2.52182626 C17.4067038,2.52160875 17.5492183,2.60121618 17.886198,2.81469894 C19.1501137,3.6152321 20.8617939,4.57846021 21.5952328,4.90232759 C21.8227183,5.0027069 21.8486398,4.96377321 21.3248317,5.32352918 C20.2082706,6.0901313 18.8202328,6.84390053 17.1158666,7.60941512 C16.8188985,7.74285544 16.5672125,7.85171751 16.557102,7.85171751 C16.5469916,7.85171751 16.5801195,7.69935411 16.630134,7.51218966 C17.0430497,5.96800133 17.2760206,4.40934881 17.2824741,3.1593382 C17.2858084,2.54118435 17.285916,2.537813 17.3439974,2.52302255 C17.3467939,2.52237003 17.3507735,2.52182626 17.354323,2.52182626 Z M21.4825119,1.15207825 C21.5560817,1.15207825 21.7519451,3.05091114 21.8029276,4.25568037 C21.8136834,4.51168568 21.8115323,4.67557692 21.7964741,4.67557692 C21.748073,4.67557692 20.7586456,4.08809151 20.057259,3.64274668 C19.444823,3.25384483 18.2824422,2.47277851 18.0976573,2.32607029 C18.0393608,2.27985013 18.0454916,2.27756631 18.5461747,2.10323475 C19.3981427,1.8065557 21.4180846,1.1519695 21.4825119,1.1519695 L21.4825119,1.15207825 Z M23.334448,0.0531259947 L15.2305875,2.72519496 L8.1854218,5.87164589 L6.21172994,6.39909947 C5.71136948,6.88000663 5.18024738,7.36841777 4.61481424,7.86596419 C3.9931282,8.41299337 3.40854971,8.90858223 2.96401192,9.26681565 C2.46902936,9.66572281 1.73300901,10.4041578 1.3568782,10.8776698 C0.79714564,11.582065 0.35949157,12.3332241 0.171372384,12.9109218 C-0.16722064,13.9501684 -0.00222645349,15.0027918 0.650651453,15.9743939 C1.48476483,17.215378 3.14513983,18.4762639 5.0761311,19.3345451 C6.06114855,19.7723859 7.72335203,20.3368156 8.96984331,20.6550279 C11.0468985,21.1854178 15.0613985,21.7617016 17.2722561,21.8472905 C17.720666,21.864691 18.3176137,21.8630597 18.345041,21.8446804 C18.3935497,21.8122719 18.7377358,21.1533355 19.1370991,20.3285504 C20.4958811,17.5219536 21.4789625,14.8909934 22.0079334,12.6439324 C22.3282416,11.2833196 22.5779916,9.46898806 22.739759,7.31784748 C22.785041,6.71524536 22.8014974,4.70548408 22.7666485,4.02240451 C22.7099654,2.91083687 22.6131631,2.004813 22.4578491,1.11575464 C22.4350468,0.98546817 22.4266573,0.870842175 22.4385962,0.860401857 C22.4610759,0.840935013 22.5376573,0.816030504 23.5331078,0.523484085 L23.334448,0.0531259947 Z" id="Fill-1" fill="#AAAAAA" ma2sk="url(#mask-4)"></path>
                                </g>
                                <path d="M16.0721547,4.76648382 C16.0979686,4.76855013 16.1252884,4.82162175 16.2016547,4.9906244 C16.4105326,5.45336976 17.0607215,6.707513 17.2179715,6.95003289 C17.269707,7.02996658 17.3517738,7.03529549 16.4887273,6.89435119 C14.4144686,6.55558462 13.7434134,6.44215491 13.7434134,6.42910451 C13.7434134,6.42116552 13.805582,6.37994801 13.8818407,6.3370992 C14.5241779,5.97592944 15.1723233,5.52134058 15.7491576,5.02955809 C15.8871547,4.91199576 16.0196663,4.79997984 16.0439744,4.77942546 C16.0539773,4.77105146 16.06355,4.7658313 16.0721547,4.76648382 Z M8.73733488,3.28526366 L9.59855291,4.37257931 C10.0726692,4.97050504 10.547861,5.56408064 10.6533756,5.69175703 C10.7588901,5.81943342 10.8405267,5.92764297 10.835364,5.93144934 C10.8109483,5.94961114 9.58715174,5.70861379 8.93857616,5.55831671 C8.27268372,5.403887 7.99733488,5.3300435 7.58517209,5.19671194 L7.24937558,5.08784987 L7.25055872,5.0036748 C7.25486105,4.58595332 7.77555,3.96997454 8.65914012,3.33974907 L8.73733488,3.28526366 Z M8.97826512,3.09092149 L9.21532326,3.17259523 C10.5159163,3.62011512 13.7756808,4.24979682 15.5773872,4.40107268 C15.7806721,4.41814695 15.951582,4.43641751 15.9568523,4.44120265 C15.9620151,4.4459878 15.7892767,4.53929814 15.5736227,4.64859523 C14.7043378,5.08882865 13.7477157,5.62541751 13.0859105,6.04422653 C12.8915529,6.16722653 12.7133291,6.26640955 12.6898814,6.26456074 C12.6664337,6.26260318 12.538332,6.2418313 12.4040994,6.21921061 L12.1592971,6.17897188 L11.5440645,5.57506472 C10.4641808,4.5182 9.620925,3.70059257 9.29480872,3.39151565 L8.97826512,3.09092149 Z M14.8801953,0.319016976 C14.8856808,0.318038196 14.8883698,0.318038196 14.8892302,0.319016976 C14.8935326,0.324237135 14.9181634,0.497046154 14.9430093,0.70258992 C15.0476634,1.56815756 15.2392244,2.4076244 15.538989,3.3112557 C15.764861,3.99205146 15.7680878,3.95213899 15.4993,3.87622918 C14.8742797,3.6998313 12.074111,3.21381273 10.0484686,2.93018408 C9.72202965,2.88450769 9.45033779,2.84383395 9.44603547,2.83948382 C9.42032907,2.81349178 10.9068901,2.02600902 11.5658988,1.71595332 C12.4110907,1.31835119 14.7126198,0.349467905 14.8801953,0.319016976 L14.8801953,0.319016976 Z M14.9828058,0.000261007958 C14.8472826,-0.0157257294 12.6723494,0.776542175 11.2749541,1.35054218 C9.38160814,2.12834589 7.91150349,2.87352361 7.00457326,3.51723448 C6.66694826,3.75681804 6.24252384,4.18769867 6.18046279,4.35311247 C6.15723023,4.4149931 6.14636686,4.48731406 6.14582907,4.56170133 L6.96864884,5.34700902 L8.92061395,5.97679947 L13.5703523,6.81659257 L18.8853378,7.74056074 L18.9392244,7.27922918 C18.9230907,7.2766191 18.907925,7.27400902 18.8917913,7.27139894 L18.192018,7.16003554 L18.0497186,6.90729284 C17.3273581,5.61845729 16.5290616,4.02369867 16.0657012,2.94443077 C15.7068872,2.10866154 15.3622709,1.14586844 15.1711401,0.448650928 C15.0576663,0.0345183024 15.0458349,0.00765623342 14.9828058,0.000261007958 Z" id="Fill-4" fill="#AAAAAA"></path>
                                <path d="M13.299564,19.5310732 C13.3237645,19.5555427 12.6231308,20.3568371 12.1511657,20.8438345 C10.9700698,22.0626329 9.79919186,23.0182483 8.34855523,23.9487416 C8.16710465,24.0651077 8.00125,24.1703809 7.97952326,24.1833225 C7.93961919,24.2068133 7.99232267,24.1463464 8.62928198,23.44467 C9.0305814,23.002479 9.337875,22.6354366 9.68657849,22.1772589 C9.91632267,21.8755772 9.9602064,21.8332721 10.2966483,21.5875984 C11.2030407,20.9261607 13.2754709,19.5067125 13.299564,19.5310732 Z M14.250593,19.2925772 C14.2784506,19.2890971 14.3181395,19.3416249 14.4837791,19.5919751 C14.8330203,20.1195374 15.1004099,20.8230626 15.1694622,21.3958663 L15.1835523,21.5189751 L14.3466424,21.8468663 C12.8443779,22.4363093 11.4615029,23.0172695 10.5273605,23.4497814 C10.2659942,23.5708239 9.80456977,23.7937682 9.50329942,23.9461316 C9.20202907,24.0986037 8.9560436,24.2183411 8.9560436,24.2118159 C8.9560436,24.2052907 9.14523837,24.0614101 9.37648837,23.8917549 C11.2098169,22.5459326 12.7904913,21.0726515 13.981375,19.5998053 C14.1087238,19.4422218 14.2244564,19.3056276 14.2389767,19.2964923 C14.2428488,19.2940997 14.2466134,19.293121 14.250593,19.2925772 Z M12.1896715,17.6572536 C12.2049448,17.6572536 12.3481047,17.7299008 12.5075058,17.8191873 C12.8980494,18.0379989 13.2489041,18.27867 13.5584564,18.539678 C13.5703953,18.549792 13.4101337,18.6821448 13.2021163,18.8338557 C12.6217326,19.2573411 11.7378198,19.9318292 11.225843,20.3435692 C10.6857936,20.7780387 10.6678314,20.7913066 10.7286017,20.6973438 C11.1331279,20.0719034 11.3364128,19.7176939 11.5488401,19.2653889 C11.7376047,18.8633279 11.9258314,18.3860095 12.0601715,17.9707894 C12.1161017,17.7983066 12.1742907,17.6572536 12.1896715,17.6572536 Z M19.9256831,15.7405851 C19.940311,15.7554844 19.096625,16.9501395 18.5952965,17.6248451 C17.9955523,18.4320122 16.9272849,19.7813146 16.1922326,20.6598239 C15.8851541,21.0267576 15.6220669,21.3313756 15.6077616,21.3362695 C15.5921657,21.3415984 15.5824855,21.2516594 15.5821628,21.1094101 C15.5807645,20.3598822 15.3931831,19.5588053 15.0617965,18.8805109 C14.9218634,18.5940546 14.8984157,18.52467 14.9272413,18.498243 C15.0425436,18.3925347 16.8270407,17.3637284 17.9518837,16.7539485 C18.7245814,16.3351395 19.9109477,15.7257947 19.9256831,15.7405851 Z M21.2047645,15.416609 L21.5033459,15.612365 C22.1883837,16.0620599 22.9995872,16.6670546 23.6180465,17.1880918 C23.9647064,17.4800944 24.6382355,18.089983 24.7766628,18.2377788 L24.8509855,18.3168424 L24.3550349,18.456808 C21.5497035,19.2437469 19.382407,19.9443358 16.8536076,20.8839645 C16.5728808,20.9882589 16.3305523,21.0745003 16.3139884,21.0745003 C16.2791395,21.0745003 16.2443983,21.1069088 16.8753343,20.5198584 C18.4927936,19.0148212 19.9217035,17.3565507 20.9894331,15.7431952 L21.2047645,15.416609 Z M16.3370058,13.3924923 C16.3536773,13.4092403 16.1473808,14.1755162 16.0166977,14.5846462 C15.7659797,15.3695188 15.3422006,16.3561289 14.9349855,17.0986966 C14.8392587,17.2731369 14.6925494,17.5283809 14.609407,17.6662801 L14.4581802,17.9164127 L14.1146395,17.5808 C13.7155988,17.1895056 13.3904506,16.9465507 12.9752762,16.7306753 C12.8121105,16.6458477 12.6794913,16.5672191 12.6792762,16.5556912 C12.6785233,16.5046859 13.7234506,15.5438504 14.5299215,14.8542456 C15.107186,14.3606143 16.3222703,13.3775931 16.3370058,13.3924923 L16.3370058,13.3924923 Z M17.1380988,13.2473066 C17.2232849,13.2666647 18.0183547,13.6407761 18.6184215,13.9445241 C19.1671831,14.2223889 19.9982849,14.6698 20.0396948,14.7090599 C20.0449651,14.7140626 19.7521919,14.8686011 19.3886453,15.0525029 C18.2378808,15.6346594 17.2521105,16.1844074 16.2229942,16.8200706 C15.929468,17.0013623 15.6834826,17.1505719 15.6757384,17.1505719 C15.650032,17.1505719 15.6601424,17.1280599 15.8243837,16.8239857 C16.3725,15.8090997 16.814564,14.5972615 17.0688314,13.4131554 C17.0915262,13.307556 17.1188459,13.2429565 17.1380988,13.2473066 Z M30.7695872,11.8348186 C30.7919593,11.8302509 30.940282,11.9027894 31.1181831,12.0058875 C32.6065727,12.8678663 34.0649535,13.9748663 35.2118459,15.1134048 C35.5380698,15.4372721 36.3361512,16.2766302 36.3243198,16.2835905 C36.3212006,16.2853305 36.0456366,16.3074074 35.7116686,16.3328557 C33.132532,16.5289379 29.8352297,17.0836886 26.6606512,17.8555109 C26.4451047,17.90793 26.2587064,17.9514313 26.2467674,17.9514313 C26.2347209,17.9514313 26.4707035,17.7118477 26.7708983,17.4200626 C28.6352035,15.6079061 29.4856657,14.4636037 30.4863866,12.4192589 C30.6354622,12.1147496 30.761843,11.8521103 30.7671134,11.8361236 C30.7673285,11.8351448 30.768189,11.8351448 30.7695872,11.8348186 Z M30.3005262,11.7104048 C30.3133256,11.7233464 29.9065407,12.3661873 29.6533488,12.7329034 C29.2838866,13.2679698 28.7483547,13.9704074 27.5283227,15.521556 C26.8874913,16.3364446 26.1647006,17.2584552 25.921189,17.5703597 C25.6776773,17.8823729 25.4733169,18.138052 25.4675087,18.138052 C25.461593,18.138052 25.3830756,18.0262536 25.293157,17.8905294 C24.6054302,16.851609 23.7893866,15.9390599 22.8157703,15.11993 C22.6341047,14.9670228 22.4290988,14.7993252 22.3607994,14.7479936 C22.2925,14.6965533 22.2367849,14.6490281 22.2364622,14.6417416 C22.2358169,14.6247761 23.2755814,14.1738849 24.0692529,13.8472987 C25.4508372,13.2788451 27.3392355,12.5981581 28.7523343,12.1600997 C29.4974971,11.9291077 30.2892326,11.6989857 30.3005262,11.7104048 Z M12.4165116,11.693548 C12.4343663,11.6758212 13.2836453,11.8770149 13.7468983,12.0084976 C14.4431221,12.2061024 15.9247355,12.7073464 15.9255959,12.7458451 C15.9255959,12.7533491 15.7623227,12.8972297 15.5629099,13.0659061 C14.7619244,13.743548 13.9892267,14.4519671 13.063689,15.3557072 C12.7893081,15.6236753 12.5562297,15.8417257 12.5447209,15.8417257 C12.5331047,15.8417257 12.5280494,15.8025745 12.5343953,15.7548318 C12.6737907,14.7144976 12.6438895,13.3786806 12.4498547,12.0188292 C12.4252238,11.8464552 12.4103808,11.6997469 12.4165116,11.693548 Z M23.5077994,9.11609443 C23.5644826,9.11609443 24.6802907,9.42364881 25.2572326,9.59808912 C26.6944244,10.0327761 28.352218,10.6450573 29.4277994,11.1389061 L29.8750262,11.3436886 L29.5597733,11.4175321 C26.9282558,12.0288345 24.6728692,12.7342085 22.5005174,13.6257682 C22.3199273,13.6998292 22.1628924,13.7605135 22.1519215,13.7605135 C22.140843,13.7605135 22.1984942,13.6193517 22.2787326,13.446869 C22.931718,12.0440599 23.3534535,10.5720838 23.4629477,9.32207321 C23.4729506,9.20831724 23.4932791,9.11609443 23.5077994,9.11609443 Z M23.0426105,9.04214218 C23.0620785,9.06193528 22.9795814,9.56350557 22.9080552,9.85985836 C22.6854099,10.7821952 22.0954535,12.1510732 21.3675,13.4378424 C21.2391831,13.6645931 21.1245262,13.8536064 21.111189,13.857739 C21.0978517,13.8617629 20.9321047,13.7736727 20.7433401,13.661983 C20.0315203,13.2409989 19.2254797,12.8427443 18.3402762,12.4737443 C18.0934302,12.3707549 17.8832616,12.2791846 17.8725058,12.2689618 C17.832064,12.2306806 19.7991948,10.9137867 20.8420785,10.2810599 C21.6761919,9.77492202 23.0191628,9.01854271 23.0426105,9.04214218 L23.0426105,9.04214218 Z M16.5369564,7.74112626 C16.5558866,7.72339947 19.0719942,8.1638504 20.2153372,8.3851634 C21.0675203,8.55014218 22.3005669,8.81125889 22.3748895,8.84257984 C22.4107064,8.85780531 22.2831424,8.92805995 21.8737762,9.11478939 C20.2543808,9.85311565 19.0547849,10.5121607 17.8621802,11.3191103 C17.5481105,11.5316143 17.2870669,11.7051846 17.2815814,11.7051846 C17.2762035,11.7051846 17.2715785,11.527808 17.2713634,11.3112801 C17.2705029,10.1354393 17.0383924,8.94861432 16.6125698,7.94590875 C16.56675,7.83791671 16.532439,7.74547639 16.5369564,7.74112626 Z M16.1153285,7.6802244 C16.1502849,7.69196976 16.216218,7.90023236 16.3332413,8.36830663 C16.5571773,9.26465146 16.6614012,10.2711634 16.6266599,11.202418 C16.6170872,11.4615772 16.6008459,11.7022483 16.590843,11.7375931 L16.5715901,11.8024101 L16.2550465,11.6987682 C15.6024913,11.4878955 14.5362674,11.1704446 13.622561,10.9147655 C13.1034855,10.7694711 12.6779855,10.6398371 12.6779855,10.627113 C12.6779855,10.5887231 13.4354099,9.82309973 13.7609884,9.53207586 C14.3828895,8.97612891 16.056064,7.66021379 16.1153285,7.6802244 Z M10.8106686,6.66033581 C10.8421831,6.65816074 10.9780291,6.68110769 11.1400116,6.71732255 C12.1835407,6.95070716 14.0468779,7.314487 15.2450756,7.51818196 C15.4447035,7.55222175 15.6090523,7.58876286 15.6090523,7.5998557 C15.6090523,7.61094854 15.5345145,7.65869125 15.4437355,7.70480265 C15.2427093,7.80713952 14.4291395,8.29946578 14.1570174,8.4836939 C13.4774651,8.94350292 12.8665349,9.43572042 12.4216744,9.88324032 C12.2428052,10.0631183 12.0931919,10.2098265 12.0884593,10.2098265 C12.0836192,10.2098265 12.0523198,10.1049883 12.0191919,9.97655066 C11.7967616,9.11446313 11.336843,7.84139682 10.9246802,6.945487 C10.8583169,6.80128011 10.8042151,6.67414748 10.8042151,6.66294589 C10.8042151,6.6615321 10.8061512,6.66066207 10.8106686,6.66033581 Z M7.79495349,5.81804138 C7.79871802,5.81456127 7.90100581,5.84653475 8.02555814,5.8892748 C8.25530233,5.96812095 8.55840116,6.06045252 8.91119186,6.16017931 C9.15836047,6.22999894 9.43005233,6.30329867 9.71863081,6.37790345 C10.0869099,6.4730626 10.3915145,6.55484509 10.3953866,6.55930398 C10.4361512,6.60563289 11.054718,8.60158249 11.2656395,9.36742334 C11.346093,9.65975225 11.407186,9.90335968 11.4014855,9.90912361 C11.3956773,9.91499629 11.3270552,9.8073305 11.2502587,9.67073634 C10.5346744,8.39832255 9.40144186,7.1043756 8.09095349,6.06295385 C7.92768023,5.93310239 7.79495349,5.82293528 7.79495349,5.81804138 L7.79495349,5.81804138 Z M6.21718314,4.26950292 C6.21718314,4.26950292 6.08262791,4.4852695 6.20954651,4.80598302 C6.28806395,5.00445782 6.5238314,5.24284509 6.78369186,5.49537029 C6.78369186,5.49537029 9.5056657,8.18005464 9.83909593,8.56917401 C11.3472762,10.3291289 12.0023052,12.0617867 12.0627529,14.4538159 C12.1015814,15.9887602 11.8088081,17.3381714 11.0977413,18.9065029 C9.82317733,21.7173411 7.1376657,24.8171369 2.99000872,28.2640732 L3.59878779,28.0605958 C3.9900843,27.7641342 4.52152907,27.4475533 5.77501163,26.7543597 C8.66187209,25.1577523 11.9036744,23.6891475 15.885907,22.1759538 C21.615314,19.99893 31.0398808,17.4445321 36.402407,16.6140918 L36.9612791,16.5271979 L36.8753401,16.3911475 C36.3849826,15.6205215 36.0503692,15.1453782 35.647564,14.6417416 C34.4713081,13.1709618 33.0474535,11.9709777 31.3027529,10.9833889 C28.9053895,9.62636499 25.7957762,8.57156658 21.8647413,7.78125623 C21.1216221,7.63193793 19.4941599,7.34983183 18.1697965,7.14113422 C15.3644651,6.69905199 13.5551221,6.40063289 11.5565843,6.04870716 C10.840032,5.92298833 9.77015116,5.74137029 9.05994477,5.58607056 C8.68983721,5.50515809 7.98651453,5.33702546 7.43990407,5.14681592 C6.98859012,4.96715544 6.35313663,4.79347639 6.21718314,4.26950292 Z" id="Fill-6" fill="#EB2D2D"></path>
                            </g>
                        </g>
                    </g>
                </g>
            </g>
        </g>
    </g>
</svg>
