<?xml version="1.0" encoding="UTF-8" standalone="no"?>
<!--

    Copyright (C) 2017-2018 Dremio Corporation

    Licensed under the Apache License, Version 2.0 (the "License");
    you may not use this file except in compliance with the License.
    You may obtain a copy of the License at

        http://www.apache.org/licenses/LICENSE-2.0

    Unless required by applicable law or agreed to in writing, software
    distributed under the License is distributed on an "AS IS" BASIS,
    WITHOUT WARRANTIES OR CONDITIONS OF ANY KIND, either express or implied.
    See the License for the specific language governing permissions and
    limitations under the License.

-->
<svg width="48px" height="48px" viewBox="0 0 48 48" version="1.1" xmlns="http://www.w3.org/2000/svg">
    <!-- Generator: Sketch 41.2 (35397) - http://www.bohemiancoding.com/sketch -->
    <title>Source/MYSQL-Beta</title>
    <desc>Created with Sketch.</desc>
    <defs>
        <polygon id="path-3" points="0 0.0253008621 0 9.04120603 9.56153846 9.04120603 9.56153846 0.0253008621 1.28307949e-20 0.0253008621"></polygon>
        <polygon id="path-5" points="16.3375148 15.9292552 16.3375148 0.206224138 0.0503396323 0.206224138 0.0503396323 15.9292552"></polygon>
        <polygon id="path-7" points="2.60970414 1.12650517 2.60970414 0.0218327586 0.20052071 0.0218327586 0.20052071 1.12650517 2.60970414 1.12650517"></polygon>
    </defs>
    <g id="Elements" stroke="none" stroke-width="1" fill="none" fill-rule="evenodd">
        <g id="Source.2f.S3">
          <circle id="Oval" cx="24" cy="24" r="23.5" style="fill:#fff;stroke:#e5e5e5;stroke-width:1.02px;"/>
        </g>
        <g id="Source/MYSQL-Beta">
            <g id="MYSQL">
                <g>
                    <g id="Source/MySQL" transform="translate(4.000000, 6.000000)">
                        <g id="Group-3" transform="translate(0.000000, 15.388603)">
                            <g id="Clip-2"></g>
                            <path d="M9.56153846,9.04120603 L8.02710059,9.04120603 C7.97289941,6.49436121 7.82331361,4.099275 7.57881657,1.8554819 L7.56532544,1.8554819 L5.22899408,9.04120603 L4.06071006,9.04120603 L1.7383432,1.8554819 L1.72485207,1.8554819 C1.55254438,4.01036121 1.44414201,6.40544741 1.3991716,9.04120603 L-0.000118343195,9.04120603 C0.090295858,5.83565431 0.316568047,2.830275 0.678934911,0.0253008621 L2.58071006,0.0253008621 L4.79443787,6.65007672 L4.80816568,6.65007672 L7.0356213,0.0253008621 L8.85550296,0.0253008621 C9.25384615,3.31068879 9.48911243,6.31653362 9.56153846,9.04120603" id="Fill-1" fill="#5C87A1" mask="url(#mask-4)"></path>
                        </g>
                        <path d="M16.2167101,17.7780103 C15.591858,21.1120448 14.767716,23.5350621 13.7447574,25.0468293 C12.9473609,26.2113207 12.0742249,26.7936828 11.1232189,26.7936828 C10.8697278,26.7936828 10.5573018,26.7185017 10.1861775,26.5695362 L10.1861775,25.7655879 C10.3674793,25.7918897 10.5802604,25.8056224 10.8247574,25.8056224 C11.2683077,25.8056224 11.6259408,25.6852862 11.8978935,25.4446138 C12.223574,25.1513379 12.3864142,24.8217517 12.3864142,24.4563207 C12.3864142,24.2068034 12.2593136,23.6952 12.0062959,22.9208121 L10.3222722,17.7780103 L11.8297278,17.7780103 L13.0382485,21.6241138 C13.3099645,22.4974241 13.4231006,23.1072517 13.3778935,23.4547603 C14.0389586,21.718381 14.5007337,19.8260534 14.7634556,17.7780103 L16.2167101,17.7780103 Z" id="Fill-4" fill="#5C87A1"></path>
                        <polygon id="Fill-6" fill="#F7981C" points="36.643858 24.4298095 32.2840947 24.4298095 32.2840947 15.4139043 33.7510769 15.4139043 33.7510769 23.3207147 36.643858 23.3207147"></polygon>
                        <path d="M25.6834793,22.6261629 C25.3121183,22.0386802 25.1263195,21.0955422 25.1263195,19.7951198 C25.1263195,17.5245595 25.8280947,16.3886974 27.2314083,16.3886974 C27.9651361,16.3886974 28.5035976,16.6603267 28.8479763,17.2031198 C29.2191006,17.7913009 29.4048994,18.7260595 29.4048994,20.0083267 C29.4048994,22.2968095 28.7028876,23.4415164 27.299574,23.4415164 C26.5663195,23.4415164 26.0273846,23.1703526 25.6834793,22.6261629 L25.6834793,22.6261629 Z M31.1433609,24.6474388 L29.4581538,23.8302233 C29.608213,23.708956 29.7509349,23.5786112 29.879929,23.4273181 C30.5951953,22.6003267 30.9533018,21.3757836 30.9533018,19.7548526 C30.9533018,16.7722836 29.7625325,15.2800681 27.3812308,15.2800681 C26.2131834,15.2800681 25.3031243,15.6583009 24.6510533,16.4156974 C23.9353136,17.2438526 23.5781538,18.4635078 23.5781538,20.0753612 C23.5781538,21.6604474 23.8946036,22.8230767 24.5284497,23.5616198 C25.1080947,24.2291716 25.9819408,24.5631802 27.1502249,24.5631802 C27.5864379,24.5631802 27.9869112,24.5105767 28.3506982,24.4049043 L30.5450178,25.6606371 L31.1433609,24.6474388 Z" id="Fill-8" fill="#F7981C"></path>
                        <path d="M22.9386982,21.9308431 C22.9386982,22.6954552 22.6530178,23.3229724 22.0835503,23.8143259 C21.5136095,24.303119 20.747929,24.5484466 19.7888757,24.5484466 C18.8923077,24.5484466 18.0231953,24.2663431 17.1813018,23.7065586 L17.5751479,22.9321707 C18.2994083,23.2882914 18.9552663,23.466119 19.5439053,23.466119 C20.0960947,23.466119 20.528284,23.3453172 20.8409467,23.1065069 C21.1528994,22.8660672 21.3398817,22.5306621 21.3398817,22.1051793 C21.3398817,21.5696017 20.9602367,21.1119983 20.2636686,20.7284121 C19.620355,20.381369 18.3353846,19.6567914 18.3353846,19.6567914 C17.6388166,19.1572914 17.2899408,18.6210155 17.2899408,17.7379293 C17.2899408,17.0077655 17.5500592,16.4174897 18.0702959,15.9682655 C18.5914793,15.5181103 19.2639053,15.2930328 20.0873373,15.2930328 C20.9384615,15.2930328 21.7121893,15.516481 22.4094675,15.9617483 L22.0553846,16.7354379 C21.4589349,16.486619 20.8707692,16.3618603 20.2906509,16.3618603 C19.820355,16.3618603 19.4577515,16.473119 19.2049704,16.6965672 C18.9505325,16.9181534 18.7936095,17.2032828 18.7936095,17.5507914 C18.7936095,18.0847397 19.1815385,18.5479293 19.8975148,18.9391966 C20.5488757,19.2864724 21.8655621,20.0250155 21.8655621,20.0250155 C22.5817751,20.5235845 22.9386982,21.0549724 22.9386982,21.9308431" id="Fill-10" fill="#F7981C"></path>
                        <g id="Group-14" transform="translate(23.431953, 0.026534)">
                            <g id="Clip-13"></g>
                            <path d="M15.0527101,12.3671172 C14.1660828,12.3452379 13.4796923,12.4322897 12.9035976,12.6722638 C12.7374438,12.7374362 12.4721183,12.7374362 12.4491598,12.9443586 C12.5383905,13.0316431 12.5490414,13.1729276 12.6271479,13.2934966 C12.759929,13.5111259 12.9918817,13.8048672 13.2030059,13.9577897 C13.435432,14.1321259 13.6680947,14.3057638 13.912355,14.4582207 C14.3438343,14.7207724 14.8314083,14.8727638 15.2517633,15.1343845 C15.4962604,15.2866086 15.7391006,15.4825914 15.9838343,15.6464534 C16.1050178,15.7335052 16.1821775,15.8752552 16.3376805,15.9292552 L16.3376805,15.8962034 C16.2598107,15.7984448 16.2377988,15.6569276 16.1608757,15.5472983 C16.0501065,15.4390655 15.9391006,15.3403759 15.8280947,15.2321431 C15.5066746,14.8071259 15.1073846,14.4372724 14.6763787,14.1321259 C14.3215858,13.891919 13.5457278,13.5648931 13.4022959,13.1631517 C13.4022959,13.1631517 13.3909349,13.1515138 13.3800473,13.1408069 C13.6235976,13.1189276 13.912355,13.0316431 14.1445444,12.9653069 C14.5206391,12.8675483 14.864071,12.8896603 15.2517633,12.7919017 C15.4292781,12.7481431 15.6065562,12.6932121 15.7845444,12.6396776 L15.7845444,12.5409879 C15.584071,12.3452379 15.4408757,12.0833845 15.2302249,11.8983414 C14.6657278,11.4193241 14.0446627,10.9512466 13.4022959,10.5585828 C13.0583905,10.3404879 12.6153136,10.1994362 12.2496331,10.0139276 C12.1175621,9.94828966 11.8960237,9.91616897 11.8181538,9.80653966 C11.6186272,9.56703103 11.5076213,9.25141034 11.363716,8.96791034 C11.0430059,8.36925517 10.732,7.70519483 10.4555503,7.07209138 C10.2562604,6.64753966 10.1343669,6.22322069 9.89057988,5.8305569 C8.74904142,3.97849655 7.50880473,2.85706552 5.60347929,1.75658276 C5.19353846,1.52731552 4.70620118,1.42932414 4.1859645,1.30968621 C3.90856805,1.29804828 3.63188166,1.2771 3.35495858,1.2663931 C3.17744379,1.18981552 2.99992899,0.982427586 2.84513609,0.884436207 C2.21342012,0.49247069 0.585727811,-0.357098276 0.12016568,0.764798276 C-0.178769231,1.47331552 0.563242604,2.17019483 0.818153846,2.5298069 C1.00631953,2.78025517 1.25057988,3.06375517 1.38265089,3.34678966 C1.46028402,3.53206552 1.48253254,3.72828103 1.56040237,3.92426379 C1.73744379,4.40351379 1.90336095,4.93746207 2.13649704,5.38412586 C2.25791716,5.61292759 2.39069822,5.85313448 2.54572781,6.0588931 C2.63519527,6.17969483 2.78975148,6.23322931 2.82312426,6.4301431 C2.66856805,6.64753966 2.65649704,6.97433276 2.56797633,7.2468931 C2.16939645,8.47818621 2.32442604,10.0032207 2.88939645,10.9070224 C3.06620118,11.17935 3.48773964,11.7789362 4.05271006,11.5494362 C4.5511716,11.3536862 4.44040237,10.732919 4.58454438,10.1884966 C4.61744379,10.0567552 4.59519527,9.97040172 4.66170414,9.88335 L4.66170414,9.90546207 C4.81649704,10.2099103 4.972,10.503419 5.11614201,10.8094966 C5.45981065,11.3427466 6.05744379,11.8983414 6.55661538,12.2684276 C6.82170414,12.4653414 7.03211834,12.8023759 7.36466272,12.9227121 L7.36466272,12.8896603 L7.34265089,12.8896603 C7.27614201,12.7919017 7.17673373,12.7481431 7.08797633,12.6722638 C6.8884497,12.4760483 6.66738462,12.2363069 6.51164497,12.0184448 C6.04655621,11.4086172 5.63614201,10.732919 5.27140828,10.0355741 C5.0936568,9.6971431 4.93910059,9.3270569 4.79472189,8.9895569 C4.7284497,8.85967759 4.7284497,8.66276379 4.61744379,8.59782414 C4.45081657,8.8371 4.20797633,9.04448793 4.08608284,9.33753103 C3.87543195,9.80653966 3.8536568,10.3840138 3.7755503,10.9833672 C3.73128994,10.9947724 3.75353846,10.9833672 3.73128994,11.004781 C3.3772071,10.9177293 3.25531361,10.5585828 3.12205917,10.2543672 C2.78975148,9.47997931 2.73389349,8.23797931 3.0224142,7.34465172 C3.09957396,7.11631552 3.4328284,6.3975569 3.29933728,6.17969483 C3.23259172,5.97160862 3.01105325,5.85313448 2.88939645,5.68903966 C2.74572781,5.48188448 2.58975148,5.22096207 2.49105325,4.99192759 C2.22501775,4.38186724 2.09128994,3.70616897 1.80418935,3.09634138 C1.6711716,2.81284138 1.43827219,2.51840172 1.25057988,2.25747931 C1.03945562,1.96327241 0.807266272,1.75658276 0.640639053,1.4081431 C0.585727811,1.28803966 0.508094675,1.0920569 0.596378698,0.961712069 C0.618390533,0.874427586 0.66312426,0.841375862 0.751881657,0.819496552 C0.895313609,0.699858621 1.30549112,0.85185 1.44915976,0.917487931 C1.85933728,1.08018621 2.20276923,1.23357414 2.54572781,1.46191034 C2.70099408,1.5713069 2.86738462,1.77799655 3.06620118,1.83316034 L3.29933728,1.83316034 C3.6536568,1.90857414 4.05271006,1.85410862 4.38549112,1.95256552 C4.972,2.13760862 5.50359763,2.41016897 5.98028402,2.7041431 C7.43093491,3.6086431 8.6276213,4.89440172 9.43590533,6.4301431 C9.56892308,6.68012586 9.62478107,6.90916034 9.74643787,7.17008276 C9.97910059,7.70519483 10.2673846,8.24985 10.499574,8.77216034 C10.732,9.28422931 10.9542485,9.80653966 11.2867929,10.2320224 C11.4524734,10.4605914 12.1175621,10.5802293 12.416497,10.7003328 C12.6375621,10.7980914 12.9814675,10.8853759 13.1809941,11.004781 C13.5577988,11.23335 13.9336568,11.4952034 14.2886864,11.7461172 C14.4654911,11.8769276 15.0193373,12.1490224 15.0527101,12.3671172" id="Fill-12" fill="#5C87A1" mask="url(#mask-6)"></path>
                        </g>
                        <path d="M27.1854201,2.92656724 C26.9974911,2.92656724 26.8649467,2.94867931 26.7312189,2.98126552 L26.7312189,3.00314483 L26.7529941,3.00314483 C26.8424615,3.17701552 26.9974911,3.29758448 27.1075503,3.45004138 C27.1967811,3.62437759 27.2741775,3.79801552 27.3626982,3.97235172 C27.3738225,3.96187759 27.3844734,3.95047241 27.3844734,3.95047241 C27.5404497,3.8420069 27.6178462,3.66767069 27.6178462,3.40581724 C27.5511006,3.32923966 27.5404497,3.2535931 27.4848284,3.17701552 C27.4183195,3.06831724 27.2741775,3.01385172 27.1854201,2.92656724" id="Fill-15" fill="#5C87A1"></path>
                        <g id="Group-19" transform="translate(37.159763, 23.302397)">
                            <g id="Clip-18"></g>
                            <path d="M0.531171598,1.12650517 L0.774011834,1.12650517 L0.774011834,0.209436207 L1.09235503,0.209436207 L1.09235503,0.0218327586 L0.20052071,0.0218327586 L0.20052071,0.209436207 L0.531171598,0.209436207 L0.531171598,1.12650517 Z M2.38063905,1.12650517 L2.60975148,1.12650517 L2.60975148,0.0218327586 L2.26537278,0.0218327586 L1.98489941,0.774806897 L1.67933728,0.0218327586 L1.34726627,0.0218327586 L1.34726627,1.12650517 L1.56407101,1.12650517 L1.56407101,0.286013793 L1.57661538,0.286013793 L1.89614201,1.12650517 L2.0615858,1.12650517 L2.38063905,0.286013793 L2.38063905,1.12650517 Z" id="Fill-17" fill="#F7981C" mask="url(#mask-8)"></path>
                        </g>
                    </g>
                </g>
            </g>
        </g>
    </g>
</svg>
