<?xml version="1.0" encoding="UTF-8"?>
<!--

    Copyright (C) 2017-2018 Dremio Corporation

    Licensed under the Apache License, Version 2.0 (the "License");
    you may not use this file except in compliance with the License.
    You may obtain a copy of the License at

        http://www.apache.org/licenses/LICENSE-2.0

    Unless required by applicable law or agreed to in writing, software
    distributed under the License is distributed on an "AS IS" BASIS,
    WITHOUT WARRANTIES OR CONDITIONS OF ANY KIND, either express or implied.
    See the License for the specific language governing permissions and
    limitations under the License.

-->
<svg width="48px" height="48px" viewBox="0 0 48 48" version="1.1" xmlns="http://www.w3.org/2000/svg" xmlns:xlink="http://www.w3.org/1999/xlink">
    <!-- Generator: Sketch 41.1 (35376) - http://www.bohemiancoding.com/sketch -->
    <title>Source/NAS</title>
    <desc>Created with Sketch.</desc>
    <defs></defs>
    <g id="Elements" stroke="none" stroke-width="1" fill="none" fill-rule="evenodd">
        <g id="Elements/Data-Sources" transform="translate(-30.000000, -162.000000)">
            <g id="Icons" transform="translate(30.000000, 82.000000)">
                <g id="Source/NAS" transform="translate(0.000000, 80.000000)">
                    <g>
                        <circle id="Oval" fill="#4199FF" cx="24" cy="24" r="24"></circle>
                        <g id="Logo/NAS" transform="translate(9.000000, 11.000000)" fill="#FFFFFF">
                            <g id="Page-1">
                                <path d="M11.0306591,15.1726697 C10.538187,15.1726697 10.1379572,14.778594 10.1379572,14.2936943 C10.1379572,13.8087945 10.538187,13.4147188 11.0306591,13.4147188 C11.5231313,13.4147188 11.923361,13.8087945 11.923361,14.2936943 C11.923361,14.778594 11.5231313,15.1726697 11.0306591,15.1726697 L11.0306591,15.1726697 Z M7.3153384,15.1726697 C6.82286623,15.1726697 6.42263651,14.778594 6.42263651,14.2936943 C6.42263651,13.8087945 6.82286623,13.4147188 7.3153384,13.4147188 C7.80781057,13.4147188 8.20804029,13.8087945 8.20804029,14.2936943 C8.20804029,14.778594 7.80781057,15.1726697 7.3153384,15.1726697 L7.3153384,15.1726697 Z M3.60001767,15.1726697 C3.1075455,15.1726697 2.70731578,14.778594 2.70731578,14.2936943 C2.70731578,13.8087945 3.1075455,13.4147188 3.60001767,13.4147188 C4.09248984,13.4147188 4.49271956,13.8087945 4.49271956,14.2936943 C4.49271956,14.778594 4.09248984,15.1726697 3.60001767,15.1726697 L3.60001767,15.1726697 Z M27.8008482,10.24849 L1.19812688,10.24849 C0.538593391,10.24849 0,10.7798109 0,11.4286986 L0,17.1581853 C0,17.8075776 0.538593391,18.3388985 1.19812688,18.3388985 L13.987542,18.3388985 L13.987542,18.5911877 C13.987542,18.8702195 14.2166107,19.095766 14.5,19.095766 C14.7833893,19.095766 15.012458,18.8702195 15.012458,18.5911877 L15.012458,18.3388985 L27.8008482,18.3388985 C28.4603817,18.3388985 29,17.8075776 29,17.1581853 L29,11.4286986 C29,10.7798109 28.4603817,10.24849 27.8008482,10.24849 L27.8008482,10.24849 Z M11.0306591,4.92417969 C10.538187,4.92417969 10.1379572,4.53010403 10.1379572,4.04520428 C10.1379572,3.56030453 10.538187,3.16622887 11.0306591,3.16622887 C11.5231313,3.16622887 11.923361,3.56030453 11.923361,4.04520428 C11.923361,4.53010403 11.5231313,4.92417969 11.0306591,4.92417969 L11.0306591,4.92417969 Z M7.3153384,4.92417969 C6.82286623,4.92417969 6.42263651,4.53010403 6.42263651,4.04520428 C6.42263651,3.56030453 6.82286623,3.16622887 7.3153384,3.16622887 C7.80781057,3.16622887 8.20804029,3.56030453 8.20804029,4.04520428 C8.20804029,4.53010403 7.80781057,4.92417969 7.3153384,4.92417969 L7.3153384,4.92417969 Z M3.60001767,4.92417969 C3.1075455,4.92417969 2.70731578,4.53010403 2.70731578,4.04520428 C2.70731578,3.56030453 3.1075455,3.16622887 3.60001767,3.16622887 C4.09248984,3.16622887 4.49271956,3.56030453 4.49271956,4.04520428 C4.49271956,4.53010403 4.09248984,4.92417969 3.60001767,4.92417969 L3.60001767,4.92417969 Z M27.8008482,-7.10542736e-15 L1.19812688,-7.10542736e-15 C0.538593391,-7.10542736e-15 0,0.531320956 0,1.18071324 L0,6.9101999 C0,7.5590876 0.538593391,8.09040856 1.19812688,8.09040856 L27.8008482,8.09040856 C28.4603817,8.09040856 29,7.5590876 29,6.9101999 L29,1.18020866 C29,0.530816378 28.4603817,-7.10542736e-15 27.8008482,-7.10542736e-15 L27.8008482,-7.10542736e-15 Z M13.987542,23.2343173 C13.987542,23.5133491 14.2166107,23.7388956 14.5,23.7388956 C14.7833893,23.7388956 15.012458,23.5133491 15.012458,23.2343173 L15.012458,22.7696006 C15.012458,22.4905688 14.7833893,22.2650223 14.5,22.2650223 C14.2166107,22.2650223 13.987542,22.4905688 13.987542,22.7696006 L13.987542,23.2343173 Z M14.5,21.4173308 C14.7833893,21.4173308 15.012458,21.1917843 15.012458,20.9127525 L15.012458,20.4485404 C15.012458,20.1695086 14.7833893,19.9439621 14.5,19.9439621 C14.2166107,19.9439621 13.987542,20.1695086 13.987542,20.4485404 L13.987542,20.9127525 C13.987542,21.1917843 14.2166107,21.4173308 14.5,21.4173308 L14.5,21.4173308 Z M14.5,27.9903388 C13.8004948,27.9903388 13.2311539,27.4302569 13.2311539,26.7410029 C13.2311539,26.051749 13.7999823,25.4911625 14.5,25.4911625 C15.2000177,25.4911625 15.7688461,26.051749 15.7688461,26.7410029 C15.7688461,27.4302569 15.1995052,27.9903388 14.5,27.9903388 L14.5,27.9903388 Z M23.4680156,26.2369292 L16.7312423,26.2369292 C16.5318961,25.381669 15.8421276,24.7090661 14.9668493,24.5299408 C14.8869058,24.353843 14.7090829,24.2302213 14.5005125,24.2302213 C14.291942,24.2302213 14.1141191,24.353843 14.0341756,24.5299408 C13.1588973,24.7085615 12.4691288,25.381669 12.2697826,26.2369292 L5.53198445,26.2369292 C5.24859516,26.2369292 5.01952642,26.4624757 5.01952642,26.7415075 C5.01952642,27.0205393 5.24859516,27.2460858 5.53198445,27.2460858 L12.2687577,27.2460858 C12.5029511,28.2481783 13.4115391,29 14.5,29 C15.5884609,29 16.4965365,28.2486829 16.7312423,27.2460858 L23.4680156,27.2460858 C23.7514048,27.2460858 23.9804736,27.0205393 23.9804736,26.7415075 C23.9804736,26.4624757 23.7514048,26.2369292 23.4680156,26.2369292 L23.4680156,26.2369292 Z"></path>
                            </g>
                        </g>
                    </g>
                </g>
            </g>
        </g>
    </g>
</svg>
