<?xml version="1.0" encoding="UTF-8"?>
<!--

    Copyright (C) 2017-2018 Dremio Corporation

    Licensed under the Apache License, Version 2.0 (the "License");
    you may not use this file except in compliance with the License.
    You may obtain a copy of the License at

        http://www.apache.org/licenses/LICENSE-2.0

    Unless required by applicable law or agreed to in writing, software
    distributed under the License is distributed on an "AS IS" BASIS,
    WITHOUT WARRANTIES OR CONDITIONS OF ANY KIND, either express or implied.
    See the License for the specific language governing permissions and
    limitations under the License.

-->
<svg width="48px" height="48px" viewBox="0 0 48 48" version="1.1" xmlns="http://www.w3.org/2000/svg" xmlns:xlink="http://www.w3.org/1999/xlink">
    <!-- Generator: Sketch 41.1 (35376) - http://www.bohemiancoding.com/sketch -->
    <title>Source/Oracle</title>
    <desc>Created with Sketch.</desc>
    <defs>
        <polygon id="path-1" points="43.3226063 -0.00014 0 -0.00014 0 5.46372667 43.3226062 5.46372667 43.3226062 -0.00014"></polygon>
    </defs>
    <g id="Elements" stroke="none" stroke-width="1" fill="none" fill-rule="evenodd">
        <g id="Elements/Data-Sources" transform="translate(-30.000000, -82.000000)">
            <g id="Icons" transform="translate(30.000000, 82.000000)">
                <g id="Source/Oracle">
                    <g>
                        <circle id="Oval" fill="#FF1414" cx="24" cy="24" r="24"></circle>
                        <g id="Logo/Oracle" transform="translate(2.000000, 21.000000)">
                            <g id="Source/Oracle">
                                <mask id="mask-2" fill="white">
                                    <use xlink:href="#path-1"></use>
                                </mask>
                                <g id="Clip-2"></g>
                                <path d="M39.4554188,4.50972667 C38.6297313,4.50972667 37.9319188,3.97106 37.7187938,3.23706 L42.3044188,3.23706 L42.9362313,2.28306 L37.7174188,2.28306 C37.9305438,1.54639333 38.6276688,1.00706 39.4554188,1.00706 L42.6027938,1.00706 L43.2352938,0.05306 L39.3818563,0.05306 C37.8425438,0.05306 36.5926688,1.26439333 36.5926688,2.75839333 C36.5926688,4.25239333 37.8425438,5.46306 39.3818563,5.46306 L42.6921688,5.46306 L43.3226063,4.50972667 L39.4554188,4.50972667 Z M26.3324188,5.46306 C24.7924188,5.46306 23.5432313,4.25239333 23.5432313,2.75839333 C23.5432313,1.26439333 24.7924188,0.05306 26.3324188,0.05306 L30.1858563,0.05306 L29.5547313,1.00706 L26.4052938,1.00706 C25.4070438,1.00706 24.5985438,1.79106 24.5985438,2.75839333 C24.5985438,3.72572667 25.4070438,4.50972667 26.4052938,4.50972667 L30.2731688,4.50972667 L29.6427313,5.46306 L26.3324188,5.46306 Z M5.95973125,4.50972667 C6.95729375,4.50972667 7.76579375,3.72572667 7.76579375,2.75839333 C7.76579375,1.79106 6.95729375,1.00706 5.95973125,1.00706 L2.86116875,1.00706 C1.86429375,1.00706 1.05579375,1.79106 1.05579375,2.75839333 C1.05579375,3.72572667 1.86429375,4.50972667 2.86116875,4.50972667 L5.95973125,4.50972667 Z M2.78966875,5.46306 C1.24966875,5.46306 -0.000206249999,4.25239333 -0.000206249999,2.75839333 C-0.000206249999,1.26439333 1.24966875,0.05306 2.78966875,0.05306 L6.03191875,0.05306 C7.57260625,0.05306 8.82110625,1.26439333 8.82110625,2.75839333 C8.82110625,4.25306 7.57260625,5.46372667 6.03191875,5.46372667 L2.78966875,5.46306 Z M14.0866688,3.71172667 C15.1282313,3.71172667 15.9724813,2.89239333 15.9724813,1.88239333 C15.9724813,0.872393333 15.1282313,0.05306 14.0866688,0.05306 L9.39241875,0.05306 L9.39241875,5.46306 L10.4642313,5.46306 L10.4642313,1.00706 L14.0131063,1.00706 C14.5129188,1.00706 14.9157938,1.39839333 14.9157938,1.88239333 C14.9157938,2.36572667 14.5129188,2.75839333 14.0131063,2.75839333 L10.9894813,2.75772667 L14.1911688,5.46306 L15.7497313,5.46306 L13.5957938,3.71039333 L14.0866688,3.71172667 Z M31.8351688,4.50906 L31.8351688,0.05306 L30.7612938,0.05306 L30.7612938,4.94439333 C30.7612938,5.07972667 30.8183563,5.20906 30.9180438,5.30572667 C31.0225438,5.40706 31.1614188,5.46306 31.3106063,5.46306 L36.2028563,5.46306 L36.8339813,4.50906 L31.8351688,4.50906 Z M18.7011688,3.55439333 L21.5639188,3.55439333 L20.0514188,1.19106 L17.2752938,5.46306 L16.0102938,5.46372667 L19.3900438,0.333726667 C19.5330438,0.12506 19.7805438,-0.000273333333 20.0493563,-0.000273333333 C20.3154188,-0.000273333333 20.5594813,0.121726667 20.7038563,0.32506 L24.0946063,5.46372667 L22.8282313,5.46306 L22.2349188,4.50839333 L19.3336688,4.50839333 L18.7011688,3.55439333 Z" id="Fill-1" fill="#FFFFFF" mask="url(#mask-2)"></path>
                            </g>
                        </g>
                    </g>
                </g>
            </g>
        </g>
    </g>
</svg>
