<?xml version="1.0" encoding="UTF-8" standalone="no"?>
<!--

    Copyright (C) 2017-2018 Dremio Corporation

    Licensed under the Apache License, Version 2.0 (the "License");
    you may not use this file except in compliance with the License.
    You may obtain a copy of the License at

        http://www.apache.org/licenses/LICENSE-2.0

    Unless required by applicable law or agreed to in writing, software
    distributed under the License is distributed on an "AS IS" BASIS,
    WITHOUT WARRANTIES OR CONDITIONS OF ANY KIND, either express or implied.
    See the License for the specific language governing permissions and
    limitations under the License.

-->
<svg width="48px" height="48px" viewBox="0 0 48 48" version="1.1" xmlns="http://www.w3.org/2000/svg">
    <!-- Generator: Sketch 41.2 (35397) - http://www.bohemiancoding.com/sketch -->
    <title>Source/Postgres-Beta</title>
    <desc>Created with Sketch.</desc>
    <g id="Elements" stroke="none" stroke-width="1" fill="none" fill-rule="evenodd">
        <g id="Source/Postgres-Beta">
            <g id="Source/Postgres">
                <g>
                    <g id="Logo/Postgres">
                      <g id="Source.2f.S3">
                        <circle id="Oval" cx="24" cy="24" r="23.5" style="fill:#199DCD;"/>
                      </g>
                        <g transform="translate(7.000000, 8.000000)">
                            <g id="Source/Postgres" stroke-width="1" fill="none" transform="translate(1.000000, 2.000000)">
                                <path d="M15.4504937,20.9548254 C15.3423451,24.8194888 15.4776675,28.711079 15.8559924,29.6568741 C16.2345516,30.6026693 17.0446902,32.442279 19.8305516,31.8457522 C22.1579723,31.3470205 23.0048111,30.3818693 23.3722821,28.2515278 C23.642927,26.6841522 24.1646952,22.3312156 24.2316146,21.4393522" id="Stroke-7" stroke="#FFFFFF" stroke-width="0.976028787" stroke-linecap="round" stroke-linejoin="round"></path>
                                <path d="M12.1113955,1.58093268 C12.1113955,1.58093268 -0.501075567,-3.57153561 0.0852695214,8.14553756 C0.209972292,10.6382595 3.65995214,27.007118 7.77459698,22.0628839 C9.27821411,20.2548059 10.6380756,18.8367376 10.6380756,18.8367376" id="Stroke-9" stroke="#FFFFFF" stroke-width="0.976028787" stroke-linecap="round" stroke-linejoin="round"></path>
                                <path d="M18.9239773,0.640522927 C18.4874005,0.777342439 25.9398161,-2.08252098 30.1751033,3.3267278 C31.6711461,5.23767415 29.9374887,13.0452839 25.7903602,19.1963083" id="Stroke-11" stroke="#FFFFFF" stroke-width="0.976028787" stroke-linecap="round" stroke-linejoin="round"></path>
                                <path d="M25.7902821,19.1963083 C25.7902821,19.1963083 26.0605365,20.5259473 29.9884786,19.7155668 C31.7094861,19.3602888 30.6737582,20.712562 28.9283098,21.5227863 C27.4958287,22.1872937 24.2842443,22.3575961 24.2317708,21.4393522 C24.0967607,19.0701815 25.9220907,19.7899473 25.7903602,19.1963083 C25.6712796,18.6616741 24.8549723,18.1369522 24.3150101,16.8284644 C23.8436071,15.6863766 17.8498312,6.92805463 25.9772191,8.22881561 C26.2749597,8.16723512 23.8575063,0.501830244 16.2514181,0.377186341 C8.64704786,0.252542439 8.89653149,9.72446439 8.89653149,9.72446439" id="Stroke-13" stroke="#FFFFFF" stroke-width="0.976028787" stroke-linecap="round" stroke-linejoin="bevel"></path>
                                <path d="M13.3217229,20.0065327 C12.2615542,21.1902205 12.5733501,21.3980644 10.4541839,21.834201 C8.31003023,22.2759571 9.56978589,23.0621424 10.3919496,23.2675668 C11.3889471,23.5169327 13.6955189,23.8699473 15.2540302,21.688718 C15.7286348,21.024601 15.2512191,19.9649327 14.5992821,19.6948059 C14.2842846,19.5643863 13.8630907,19.4009522 13.3217229,20.0065327 L13.3217229,20.0065327 Z" id="Stroke-15" stroke="#FFFFFF" stroke-width="0.976028787" stroke-linecap="round" stroke-linejoin="round"></path>
                                <path d="M13.2523048,19.9858498 C13.1454836,19.2898888 13.4810957,18.4617132 13.8407582,17.4928156 C14.381267,16.039079 15.6283728,14.5851083 14.6307506,9.97367415 C13.8871411,6.53726439 8.89957683,9.25851317 8.8964534,9.72446439 C8.89340806,10.1902595 9.12204282,12.0862205 8.81313602,14.2940644 C8.41005793,17.175079 10.6472116,19.6116839 13.223335,19.3623961" id="Stroke-17" stroke="#FFFFFF" stroke-width="0.976028787" stroke-linecap="round" stroke-linejoin="round"></path>
                                <path d="M12.0655592,9.65461073 C12.0430705,9.8137522 12.3570529,10.2384156 12.7664559,10.2951571 C13.1751562,10.3521327 13.5249798,10.0202693 13.5471562,9.8612839 C13.5693325,9.70214244 13.2557406,9.52684488 12.8461814,9.46986927 C12.4372469,9.41281561 12.087267,9.49585951 12.0656373,9.65461073 L12.0655592,9.65461073 Z" id="Fill-19" fill="#FFFFFF"></path>
                                <path d="M12.0655592,9.65461073 C12.0430705,9.8137522 12.3570529,10.2384156 12.7664559,10.2951571 C13.1751562,10.3521327 13.5249798,10.0202693 13.5471562,9.8612839 C13.5693325,9.70214244 13.2557406,9.52684488 12.8461814,9.46986927 C12.4372469,9.41281561 12.087267,9.49585951 12.0656373,9.65461073 L12.0655592,9.65461073 Z" id="Stroke-21" stroke="#FFFFFF" stroke-width="0.5"></path>
                                <path d="M24.5142846,9.33016195 C24.536461,9.48930341 24.222869,9.91396683 23.8133879,9.97070829 C23.4043753,10.0276839 23.0545516,9.69582049 23.0321411,9.53683512 C23.0105113,9.37769366 23.3241814,9.2023961 23.733272,9.14542049 C24.1423627,9.08844488 24.4921083,9.17141073 24.5142846,9.33024 L24.5142846,9.33016195 Z" id="Fill-23" fill="#FFFFFF"></path>
                                <path d="M24.5142846,9.33016195 C24.536461,9.48930341 24.222869,9.91396683 23.8133879,9.97070829 C23.4043753,10.0276839 23.0545516,9.69582049 23.0321411,9.53683512 C23.0105113,9.37769366 23.3241814,9.2023961 23.733272,9.14542049 C24.1423627,9.08844488 24.4921083,9.17141073 24.5142846,9.33024 L24.5142846,9.33016195 Z" id="Stroke-25" stroke="#FFFFFF" stroke-width="0.5"></path>
                                <path d="M25.9772191,8.22881561 C26.0446071,9.4771278 25.7082141,10.3273912 25.6658136,11.6562498 C25.6030327,13.587801 26.5871461,15.7986107 25.1042997,18.0121522" id="Stroke-27" stroke="#FFFFFF" stroke-width="0.976028787" stroke-linecap="round" stroke-linejoin="round"></path>
                            </g>
                        </g>
                    </g>
                </g>
            </g>
        </g>
    </g>
</svg>
