<?xml version="1.0" encoding="UTF-8" standalone="no"?>
<!--

    Copyright (C) 2017-2018 Dremio Corporation

    Licensed under the Apache License, Version 2.0 (the "License");
    you may not use this file except in compliance with the License.
    You may obtain a copy of the License at

        http://www.apache.org/licenses/LICENSE-2.0

    Unless required by applicable law or agreed to in writing, software
    distributed under the License is distributed on an "AS IS" BASIS,
    WITHOUT WARRANTIES OR CONDITIONS OF ANY KIND, either express or implied.
    See the License for the specific language governing permissions and
    limitations under the License.

-->
<svg width="48px" height="48px" viewBox="0 0 48 48" version="1.1" xmlns="http://www.w3.org/2000/svg" xmlns:xlink="http://www.w3.org/1999/xlink">
    <!-- Generator: Sketch 41.2 (35397) - http://www.bohemiancoding.com/sketch -->
    <title>Source/Redshift-Beta</title>
    <desc>Created with Sketch.</desc>
    <defs></defs>
    <g id="Elements" stroke="none" stroke-width="1" fill="none" fill-rule="evenodd">
        <g id="Source/Redshift-Beta">
            <g id="Source/Redshift">
                <g>
                    <circle id="Oval" fill="#E6E6E6" cx="24" cy="24" r="24"></circle>
                    <g id="Logo/Redshift" transform="translate(7.000000, 5.000000)">
                        <g id="Source/Redshift">
                            <polygon id="Fill-1" fill="#5294CF" points="27.015123 18.9998273 31.5570902 32.5675545 34.4265164 31.1765242 34.4265164 6.74943333 31.5570902 5.35725152"></polygon>
                            <polygon id="Fill-2" fill="#1F5B99" points="0 6.74949091 0 31.1765818 2.86885246 32.5676121 10.0409836 18.9998848 2.86885246 5.35730909"></polygon>
                            <polygon id="Fill-3" fill="#1F5B99" points="17.2131148 29.0538212 31.557377 32.5601848 31.557377 5.35736667 17.2131148 8.86545758"></polygon>
                            <polygon id="Fill-4" fill="#5294CF" points="17.2131148 29.0538212 2.86885246 32.5601848 2.86885246 5.35736667 17.2131148 8.86545758"></polygon>
                            <polygon id="Fill-5" fill="#5294CF" points="20.6557377 0.000172727273 15.2054918 18.0714758 20.6557377 38.0001727 26.1381148 35.2543848 26.1381148 2.74538485"></polygon>
                            <polygon id="Fill-6" fill="#1F5B99" points="13.7706639 0.000172727273 8.28828689 2.74538485 8.28828689 35.2543848 13.7706639 38.0001727 18.6477131 18.999597"></polygon>
                            <polygon id="Fill-7" fill="#2E73B8" points="13.7704918 38 20.6557377 38 20.6557377 0 13.7704918 0"></polygon>
                        </g>
                    </g>
                </g>
            </g>
        </g>
    </g>
</svg>
