<?xml version="1.0" encoding="UTF-8" standalone="no"?>
<!--

    Copyright (C) 2017-2018 Dremio Corporation

    Licensed under the Apache License, Version 2.0 (the "License");
    you may not use this file except in compliance with the License.
    You may obtain a copy of the License at

        http://www.apache.org/licenses/LICENSE-2.0

    Unless required by applicable law or agreed to in writing, software
    distributed under the License is distributed on an "AS IS" BASIS,
    WITHOUT WARRANTIES OR CONDITIONS OF ANY KIND, either express or implied.
    See the License for the specific language governing permissions and
    limitations under the License.

-->
<svg width="48px" height="48px" viewBox="0 0 48 48" version="1.1" xmlns="http://www.w3.org/2000/svg" xmlns:xlink="http://www.w3.org/1999/xlink">
    <!-- Generator: Sketch 41.2 (35397) - http://www.bohemiancoding.com/sketch -->
    <title>Source/S3</title>
    <desc>Created with Sketch.</desc>
    <defs></defs>
    <g id="Elements" stroke="none" stroke-width="1" fill="none" fill-rule="evenodd">
        <g id="Source/S3">
            <g>
                <circle id="Oval" fill="#E6E6E6" cx="24" cy="24" r="24"></circle>
                <g id="Logo/S3" transform="translate(8.000000, 4.000000)">
                    <g id="Source/S3">
                        <polygon id="Fill-1" fill="#8C3123" points="0 8.2059759 0 31.4160964 2.62421739 32.7380241 9.05395652 19.8069398 2.62421739 6.88356627"></polygon>
                        <polygon id="Fill-2" fill="#E05243" points="16.2867435 29.3994217 2.62426522 32.730988 2.62426522 6.88375904 16.2867435 10.2167711 22.7437435 19.8490602"></polygon>
                        <polygon id="Fill-3" fill="#8C3123" points="16.2867435 29.3994217 29.9487435 32.730988 32.3089609 20.1382169 29.9487435 6.88375904 16.2867435 10.2167711"></polygon>
                        <polygon id="Fill-4" fill="#E05243" points="29.9492217 32.7380241 32.5743957 31.4160964 32.5743957 8.2059759 29.9492217 6.88356627"></polygon>
                        <polygon id="Fill-5" fill="#8C3123" points="10.3291913 24.0876627 16.286887 24.852 21.0101913 19.8486265 16.286887 14.845253 10.3291913 15.5975422"></polygon>
                        <polygon id="Fill-6" fill="#5E1F18" points="16.2867913 0.000144578313 10.3290957 11.4921928 16.2867913 12.5866506 22.2454435 11.4921928"></polygon>
                        <polygon id="Fill-7" fill="#F2B0A9" points="10.3291435 28.1820723 16.2868391 39.6741205 22.2454913 28.1820723 16.2868391 27.0808675"></polygon>
                        <polygon id="Fill-8" fill="#E05243" points="16.2867913 0.000144578313 16.2867913 10.0068916 22.2454435 11.4921928 22.2454435 3.00207229"></polygon>
                        <polygon id="Fill-9" fill="#8C3123" points="16.2867913 0.000144578313 10.3290957 3.00207229 10.3290957 11.4921928 16.2867913 10.0068916"></polygon>
                        <polygon id="Fill-10" fill="#E05243" points="16.2867913 29.6680482 16.2867913 39.6743133 22.2449652 36.6728675 22.2449652 28.1822651"></polygon>
                        <polygon id="Fill-11" fill="#8C3123" points="10.328713 36.6728675 16.286887 39.6743133 16.286887 29.6680482 10.328713 28.1822651"></polygon>
                        <polygon id="Fill-12" fill="#E05243" points="22.2454435 24.0876627 16.2867913 24.852 16.2867913 14.845253 22.2454435 15.5975422"></polygon>
                    </g>
                </g>
            </g>
        </g>
    </g>
</svg>
