<?xml version="1.0" encoding="UTF-8" standalone="no"?>
<!--

    Copyright (C) 2017-2018 Dremio Corporation

    Licensed under the Apache License, Version 2.0 (the "License");
    you may not use this file except in compliance with the License.
    You may obtain a copy of the License at

        http://www.apache.org/licenses/LICENSE-2.0

    Unless required by applicable law or agreed to in writing, software
    distributed under the License is distributed on an "AS IS" BASIS,
    WITHOUT WARRANTIES OR CONDITIONS OF ANY KIND, either express or implied.
    See the License for the specific language governing permissions and
    limitations under the License.

-->
<svg width="48px" height="48px" viewBox="0 0 48 48" version="1.1" xmlns="http://www.w3.org/2000/svg" xmlns:xlink="http://www.w3.org/1999/xlink">
    <!-- Generator: Sketch 41.2 (35397) - http://www.bohemiancoding.com/sketch -->
    <title>Source/Salesforce-Beta</title>
    <desc>Created with Sketch.</desc>
    <defs>
        <circle id="path-1" cx="24" cy="24" r="24"></circle>
        <mask id="mask-2" maskContentUnits="userSpaceOnUse" maskUnits="objectBoundingBox" x="0" y="0" width="48" height="48" fill="white">
            <use xlink:href="#path-1"></use>
        </mask>
    </defs>
    <g id="Elements" stroke="none" stroke-width="1" fill="none" fill-rule="evenodd">
      <g id="Source.2f.S3">
        <circle id="Oval" cx="24" cy="24" r="23.5" style="fill:#fff;stroke:#e5e5e5;stroke-width:1.02px;"/>
      </g>
        <g id="Source/Salesforce-Beta">
            <g id="salesforce-2" transform="translate(2.000000, 10.000000)">
                <g id="Group">
                    <path d="M18.313856,3.39950429 C19.731492,1.91283286 21.705112,0.99076 23.887864,0.99076 C26.789488,0.99076 29.320984,2.61923429 30.669144,5.03674714 C31.840688,4.50992429 33.137456,4.21684143 34.501808,4.21684143 C39.735168,4.21684143 43.978,8.52442429 43.978,13.83778 C43.978,19.1517557 39.735168,23.4593386 34.501808,23.4593386 C33.8749751,23.4597066 33.2496761,23.3969962 32.63524,23.2721429 C31.448076,25.4035257 29.185772,26.8436086 26.589112,26.8436086 C25.502092,26.8436086 24.473944,26.5909143 23.558524,26.1415471 C22.355036,28.9907571 19.551136,30.98853 16.283212,30.98853 C12.880076,30.98853 9.979728,28.8212314 8.86644,25.7816814 C8.379932,25.8856643 7.875868,25.93987 7.358648,25.93987 C3.30682,25.9399143 0.022,22.5997529 0.022,18.4787457 C0.022,15.7171329 1.497848,13.3058643 3.690632,12.0158214 C3.239192,10.9703243 2.988084,9.81637143 2.988084,8.60316429 C2.988084,3.86392857 6.81076,0.0221428571 11.525712,0.0221428571 C14.293928,0.0221428571 16.7541,1.34686143 18.313856,3.39950429" id="Shape" fill="#00A1E0"></path>
                    <path d="M6.388624,16.0805857 C6.36108,16.1530814 6.398656,16.1682271 6.407412,16.1808043 C6.490044,16.2412986 6.573996,16.2848314 6.65852,16.3333243 C7.106836,16.5727771 7.53016,16.6427043 7.972844,16.6427043 C8.874492,16.6427043 9.43426,16.15999 9.43426,15.3829086 L9.43426,15.3678071 C9.43426,14.6493157 8.802508,14.3884286 8.20952,14.1999929 L8.13252,14.1747943 C7.685436,14.0285629 7.299732,13.90257 7.299732,13.6063429 L7.299732,13.5906214 C7.299732,13.3372629 7.525144,13.1506871 7.874548,13.1506871 C8.26276,13.1506871 8.723616,13.2805329 9.020396,13.44563 C9.020396,13.44563 9.107428,13.50236 9.139372,13.4172871 C9.156884,13.3718943 9.307188,12.9647757 9.322852,12.9206671 C9.339748,12.87275 9.309696,12.8374543 9.279028,12.8185443 C8.940272,12.6111986 8.471892,12.4693957 7.987276,12.4693957 L7.89712,12.4700157 C7.071856,12.4700157 6.495808,12.9716843 6.495808,13.6907514 L6.495808,13.7058971 C6.495808,14.4640243 7.131344,14.70981 7.72684,14.88124 L7.822628,14.9108671 C8.256556,15.0450971 8.63038,15.1604171 8.63038,15.4679814 L8.63038,15.4831271 C8.63038,15.7642086 8.387456,15.9734143 7.99546,15.9734143 C7.843308,15.9734143 7.358032,15.97027 6.833948,15.6368429 C6.770676,15.5996429 6.73376,15.5725843 6.68492,15.5429571 C6.659268,15.5265714 6.594764,15.4981843 6.566604,15.5839214 L6.388624,16.0805857 L6.388624,16.0805857 Z M19.588536,16.0805857 C19.560992,16.1530814 19.598568,16.1682271 19.607324,16.1808043 C19.689956,16.2412986 19.773908,16.2848314 19.858388,16.3333243 C20.306704,16.5727771 20.730072,16.6427043 21.172712,16.6427043 C22.07436,16.6427043 22.634172,16.15999 22.634172,15.3829086 L22.634172,15.3678071 C22.634172,14.6493157 22.002376,14.3884286 21.409388,14.1999929 L21.332388,14.1747943 C20.885304,14.0285629 20.499556,13.90257 20.499556,13.6063429 L20.499556,13.5906214 C20.499556,13.3372629 20.724968,13.1506871 21.074372,13.1506871 C21.462584,13.1506871 21.92344,13.2805329 22.220264,13.44563 C22.220264,13.44563 22.307296,13.50236 22.339196,13.4172871 C22.356708,13.3718943 22.507012,12.9647757 22.522676,12.9206671 C22.539616,12.87275 22.50952,12.8374543 22.478852,12.8185443 C22.140096,12.6111986 21.671716,12.4693957 21.1871,12.4693957 L21.0969,12.4700157 C20.271636,12.4700157 19.695588,12.9716843 19.695588,13.6907514 L19.695588,13.7058971 C19.695588,14.4640243 20.331124,14.70981 20.92662,14.88124 L21.022408,14.9108671 C21.456336,15.0450971 21.83082,15.1604171 21.83082,15.4679814 L21.83082,15.4831271 C21.83082,15.7642086 21.587236,15.9734143 21.19524,15.9734143 C21.043132,15.9734143 20.557856,15.97027 20.033772,15.6368429 C19.9705,15.5996429 19.932968,15.5738243 19.885404,15.5429571 C19.86908,15.53224 19.792696,15.5026129 19.766384,15.5839214 L19.588536,16.0805857 L19.588536,16.0805857 Z M28.59978,14.5584857 C28.59978,14.9977557 28.51838,15.3437157 28.358088,15.5882614 C28.199644,15.8302829 27.959844,15.9481271 27.625532,15.9481271 C27.29056,15.9481271 27.051992,15.8309029 26.896056,15.5882614 C26.738228,15.34438 26.658148,14.9977557 26.658148,14.5584857 C26.658148,14.11988 26.738228,13.7744957 26.896056,13.5324743 C27.051992,13.2930214 27.29056,13.1764171 27.625532,13.1764171 C27.959888,13.1764171 28.199688,13.2930214 28.358748,13.5324743 C28.518424,13.7744514 28.59978,14.1198357 28.59978,14.5584857 L28.59978,14.5584857 Z M29.352444,13.7442486 C29.278524,13.49275 29.163332,13.2709229 29.009948,13.0862957 C28.85652,12.9010043 28.662436,12.7522929 28.431964,12.6438814 C28.202152,12.5361343 27.930452,12.4813086 27.625532,12.4813086 C27.319952,12.4813086 27.048208,12.5361343 26.818396,12.6438814 C26.587968,12.7522929 26.393884,12.9010486 26.23984,13.0862957 C26.087072,13.2715871 25.971836,13.4934143 25.897344,13.7442486 C25.824084,13.9944186 25.787124,14.2679271 25.787124,14.5584857 C25.787124,14.8490443 25.824084,15.1231729 25.897344,15.3727229 C25.971836,15.6235571 26.086456,15.8454286 26.2405,16.0306757 C26.393884,16.2159671 26.588628,16.3640586 26.81844,16.4692814 C27.048824,16.5745486 27.319952,16.62809 27.625576,16.62809 C27.930496,16.62809 28.201624,16.5745486 28.432008,16.4692814 C28.66182,16.3640586 28.85652,16.2159229 29.009992,16.0306757 C29.163376,15.8460043 29.278568,15.6241771 29.352488,15.3727229 C29.426408,15.1225529 29.463324,14.84838 29.463324,14.5584857 C29.463324,14.2685914 29.42632,13.9944186 29.352444,13.7442486 L29.352444,13.7442486 Z M35.532992,15.8308143 C35.507956,15.7570786 35.437204,15.7848014 35.437204,15.7848014 C35.327644,15.82705 35.211132,15.86611 35.087184,15.88564 C34.9613,15.9051257 34.82292,15.9152671 34.674508,15.9152671 C34.310144,15.9152671 34.020844,15.8062357 33.813604,15.5906971 C33.605704,15.3751586 33.489236,15.0266743 33.490468,14.5552529 C33.491744,14.12608 33.594396,13.80337 33.779152,13.5576286 C33.962632,13.3131271 34.2419,13.1876657 34.614448,13.1876657 C34.925044,13.1876657 35.16172,13.2235814 35.409616,13.3023657 C35.409616,13.3023657 35.469104,13.3281843 35.497264,13.2500643 C35.563,13.0660129 35.61184,12.9343071 35.681976,12.73201 C35.70204,12.67466 35.6532,12.6500814 35.635644,12.6431286 C35.537964,12.6046886 35.307536,12.5423343 35.133472,12.5158514 C34.970672,12.4906529 34.780328,12.4774114 34.568688,12.4774114 C34.252416,12.4774114 33.970684,12.5316171 33.729652,12.6400286 C33.489192,12.7477757 33.285076,12.8964871 33.123552,13.0818229 C32.961984,13.2671143 32.839268,13.4888971 32.757252,13.7397314 C32.675852,13.9899014 32.634536,14.2646943 32.634536,14.5552529 C32.634536,15.1835786 32.802968,15.6914914 33.135476,16.0633586 C33.468556,16.4364657 33.96888,16.6261414 34.621356,16.6261414 C35.00706,16.6261414 35.402796,16.5474014 35.68708,16.4345614 C35.68708,16.4345614 35.741552,16.4080786 35.717748,16.3444843 L35.532992,15.8308143 L35.532992,15.8308143 Z M36.849868,14.1376829 C36.885552,13.8938014 36.952564,13.69084 37.055876,13.5326957 C37.211812,13.2925786 37.44972,13.1608729 37.78412,13.1608729 C38.11852,13.1608729 38.339532,13.2931986 38.497932,13.5326957 C38.603136,13.69084 38.648852,13.9026586 38.667024,14.1376829 L36.849868,14.1376829 Z M39.383916,13.6013386 C39.320072,13.3586971 39.161628,13.1135314 39.0577,13.0013557 C38.893624,12.8236371 38.733376,12.6995043 38.574316,12.6301529 C38.366416,12.5406514 38.1172,12.4814414 37.844224,12.4814414 C37.526148,12.4814414 37.237464,12.5350271 37.003296,12.6459186 C36.768512,12.7568543 36.571304,12.9081343 36.4166,13.09657 C36.261896,13.2843414 36.145472,13.5080729 36.071552,13.7620514 C35.99706,14.01479 35.959484,14.2902029 35.959484,14.5806729 C35.959484,14.87628 35.998336,15.1516929 36.075336,15.3993386 C36.152996,15.6489329 36.276944,15.8688557 36.44476,16.0509586 C36.611916,16.23439 36.82734,16.3780971 37.085312,16.4782271 C37.341436,16.5778257 37.652648,16.6295071 38.010148,16.6288429 C38.745916,16.6263186 39.133468,16.4612214 39.293144,16.37234 C39.321348,16.3566186 39.348276,16.3288957 39.314396,16.2494914 L39.147856,15.77993 C39.122864,15.7100029 39.052068,15.7358214 39.052068,15.7358214 C38.86982,15.8038886 38.61066,15.9261614 38.006364,15.9249214 C37.611288,15.9243014 37.318204,15.8070771 37.134724,15.6236457 C36.946272,15.4358743 36.854224,15.1597971 36.837944,14.7703486 L39.385764,14.7728729 C39.385764,14.7728729 39.452732,14.7716329 39.459684,14.7060457 C39.462192,14.6784114 39.547376,14.1792671 39.383916,13.6013386 L39.383916,13.6013386 Z M16.445528,14.1376829 C16.481828,13.8938014 16.548224,13.69084 16.651536,13.5326957 C16.807428,13.2925786 17.04538,13.1608729 17.379736,13.1608729 C17.714092,13.1608729 17.935148,13.2931986 18.094164,13.5326957 C18.198708,13.69084 18.244424,13.9026586 18.262596,14.1376829 L16.445528,14.1376829 L16.445528,14.1376829 Z M18.978916,13.6013386 C18.915072,13.3586971 18.757288,13.1135314 18.65336,13.0013557 C18.489284,12.8236371 18.328992,12.6995043 18.169976,12.6301529 C17.962076,12.5406514 17.712904,12.4814414 17.439884,12.4814414 C17.122424,12.4814414 16.833124,12.5350271 16.598956,12.6459186 C16.364172,12.7568543 16.16692,12.9081343 16.01226,13.09657 C15.8576,13.2843414 15.741132,13.5080729 15.667256,13.7620514 C15.59338,14.01479 15.555188,14.2902029 15.555188,14.5806729 C15.555188,14.87628 15.593996,15.1516929 15.67104,15.3993386 C15.7487,15.6489329 15.872692,15.8688557 16.040464,16.0509586 C16.207664,16.23439 16.423044,16.3780971 16.681016,16.4782271 C16.93714,16.5778257 17.248308,16.6295071 17.605852,16.6288429 C18.341576,16.6263186 18.729172,16.4612214 18.888848,16.37234 C18.917052,16.3566186 18.943936,16.3288957 18.910144,16.2494914 L18.74422,15.77993 C18.718524,15.7100029 18.647816,15.7358214 18.647816,15.7358214 C18.465612,15.8038886 18.20698,15.9261614 17.601496,15.9249214 C17.207036,15.9243014 16.913996,15.8070771 16.730516,15.6236457 C16.54202,15.4358743 16.450016,15.1597971 16.433692,14.7703486 L18.981512,14.7728729 C18.981512,14.7728729 19.04848,14.7716329 19.055388,14.7060457 C19.057808,14.6784114 19.142948,14.1792671 18.978916,13.6013386 L18.978916,13.6013386 Z M10.938444,15.8167757 C10.838872,15.7367071 10.8251,15.7165571 10.791308,15.6648757 C10.741192,15.5860914 10.71554,15.4739157 10.71554,15.3314929 C10.71554,15.1058571 10.789416,14.9439043 10.942844,14.8348729 C10.940996,14.8355371 11.162008,14.6426729 11.681692,14.6495814 C12.046716,14.65463 12.372932,14.7088357 12.372932,14.7088357 L12.372932,15.8747457 L12.373548,15.8747457 C12.373548,15.8747457 12.04984,15.9446729 11.685432,15.9667271 C11.16698,15.9982586 10.936552,15.8161557 10.938444,15.8167757 L10.938444,15.8167757 Z M11.95216,14.0149671 C11.848848,14.0073943 11.714824,14.0029657 11.554532,14.0029657 C11.336028,14.0029657 11.125004,14.0306886 10.927136,14.0842743 C10.728036,14.1378157 10.548956,14.2216929 10.394912,14.33254 C10.2411018,14.4430356 10.1146841,14.5877475 10.025488,14.7554243 C9.935332,14.92433 9.889616,15.1234829 9.889616,15.3465943 C9.889616,15.57347 9.928424,15.7707186 10.006084,15.9320957 C10.083744,16.0940486 10.195812,16.2288986 10.338548,16.3329257 C10.480052,16.4369086 10.654776,16.5131243 10.857616,16.5591371 C11.057376,16.60515 11.28402,16.6284443 11.532004,16.6284443 C11.7931,16.6284443 12.05358,16.6070543 12.30592,16.5635214 C12.555752,16.5206529 12.862564,16.4582543 12.947704,16.4387686 C13.0074071,16.4242888 13.0669012,16.4089497 13.126168,16.3927557 C13.18944,16.3770343 13.184424,16.3089229 13.184424,16.3089229 L13.183148,13.9639057 C13.183148,13.4496157 13.04666,13.0683157 12.77804,12.8320071 C12.510652,12.5963186 12.116808,12.4771457 11.607772,12.4771457 C11.416768,12.4771457 11.10934,12.5036729 10.925244,12.5408286 C10.925244,12.5408286 10.3686,12.64924 10.139404,12.8294829 C10.139404,12.8294829 10.089332,12.8610143 10.116876,12.9316057 L10.297232,13.4194129 C10.31976,13.4824314 10.380524,13.4609971 10.380524,13.4609971 C10.380524,13.4609971 10.399928,13.4534243 10.4225,13.4401829 C10.912792,13.1717229 11.532664,13.1799157 11.532664,13.1799157 C11.808192,13.1799157 12.019832,13.2353614 12.162568,13.3456329 C12.301564,13.45276 12.372316,13.6147129 12.372316,13.9562886 L12.372316,14.0647 C12.153152,14.0332129 11.95216,14.0149671 11.95216,14.0149671 L11.95216,14.0149671 Z M32.501436,12.6936586 C32.520796,12.6356443 32.48014,12.6079214 32.4632,12.6016329 C32.420036,12.5846271 32.20338,12.5386143 32.03618,12.5278971 C31.716256,12.5083671 31.538452,12.5625729 31.379348,12.6344043 C31.221564,12.7062357 31.046268,12.8221757 30.948544,12.9539257 L30.948544,12.6419771 C30.948544,12.5984886 30.917876,12.5638129 30.875284,12.5638129 L30.222192,12.5638129 C30.179644,12.5638129 30.148976,12.5984443 30.148976,12.6419771 L30.148976,16.4667571 C30.148976,16.5096257 30.184044,16.5449214 30.226592,16.5449214 L30.895964,16.5449214 C30.938647,16.5446775 30.9730859,16.5097178 30.972964,16.4667571 L30.972964,14.5559614 C30.972964,14.2994586 31.001168,14.04362 31.057532,13.8829071 C31.11262,13.7240543 31.187772,13.5967771 31.280436,13.5053714 C31.373716,13.41463 31.479536,13.3509914 31.595388,13.3150757 C31.713704,13.2784957 31.84456,13.2665386 31.937268,13.2665386 C32.070632,13.2665386 32.217152,13.30117 32.217152,13.30117 C32.265948,13.3068386 32.293536,13.2765914 32.309772,13.2318629 C32.35364,13.1146386 32.477632,12.7635857 32.501436,12.6936586 L32.501436,12.6936586 Z" id="Shape" fill="#FFFFFF"></path>
                    <path d="M26.218456,10.92099 C26.137056,10.8957914 26.06318,10.8787414 25.966732,10.8604957 C25.869008,10.84287 25.752584,10.8340129 25.620496,10.8340129 C25.159596,10.8340129 24.79642,10.9650986 24.541616,11.2234614 C24.288,11.4806286 24.115784,11.8719814 24.029368,12.3868914 L23.99804,12.5601814 L23.419528,12.5601814 C23.419528,12.5601814 23.349392,12.5576571 23.334344,12.6345814 L23.239832,13.1683571 C23.232924,13.2187986 23.25488,13.2509057 23.322464,13.2509057 L23.8854,13.2509057 L23.314324,16.4599814 C23.26984,16.7183886 23.218492,16.9307829 23.161512,17.0920714 C23.105764,17.2509243 23.051336,17.3700086 22.983708,17.4569857 C22.918588,17.5401986 22.857208,17.6019329 22.750728,17.6378486 C22.66308,17.6674757 22.56166,17.6813371 22.450824,17.6813371 C22.389444,17.6813371 22.307472,17.6711957 22.246708,17.6586186 C22.186604,17.6466171 22.15466,17.63342 22.108944,17.6138457 C22.108944,17.6138457 22.043208,17.5886914 22.016896,17.6548543 C21.996216,17.70968 21.845956,18.1249471 21.827784,18.1760529 C21.810272,18.22707 21.835308,18.2667943 21.867208,18.2787514 C21.94236,18.3052343 21.998064,18.32286 22.100144,18.3474386 C22.241692,18.3808743 22.36124,18.3827343 22.473308,18.3827343 C22.707476,18.3827343 22.921624,18.3493429 23.098856,18.2850843 C23.276704,18.2201614 23.431936,18.1073214 23.5697,17.9548457 C23.718112,17.7897043 23.811392,17.6170343 23.90036,17.3807257 C23.988624,17.1475171 24.064436,16.8576229 24.124496,16.5198557 L24.698696,13.2509057 L25.537732,13.2509057 C25.537732,13.2509057 25.60844,13.25343 25.622916,13.17593 L25.718044,12.6427743 C25.724336,12.5917571 25.70304,12.5602257 25.634752,12.5602257 L24.820136,12.5602257 C24.824536,12.54198 24.861452,12.2532814 24.954776,11.9817214 C24.99486,11.8664014 25.069968,11.7724714 25.13324,11.7081686 C25.195896,11.64515 25.26788,11.6004214 25.346816,11.5745586 C25.427556,11.5480757 25.519648,11.5354986 25.620452,11.5354986 C25.696836,11.5354986 25.77256,11.5443114 25.82954,11.5562686 C25.908432,11.5733186 25.9391,11.5821314 25.959824,11.5884643 C26.043116,11.6136629 26.054336,11.5890843 26.07066,11.5487843 L26.265404,11.01058 C26.285424,10.9524771 26.235968,10.9278986 26.218456,10.92099 L26.218456,10.92099 Z M14.836536,16.4669343 C14.836536,16.5098029 14.805868,16.5444786 14.763276,16.5444786 L14.087656,16.5444786 C14.045064,16.5444786 14.015012,16.5098029 14.015012,16.4669343 L14.015012,10.9941057 C14.015012,10.9512814 14.045064,10.9166057 14.087656,10.9166057 L14.763276,10.9166057 C14.805868,10.9166057 14.836536,10.9512814 14.836536,10.9941057 L14.836536,16.4669343 Z" id="Shape" fill="#FFFFFF"></path>
                </g>
            </g>
        </g>
    </g>
</svg>
