<?xml version="1.0" encoding="UTF-8" standalone="no"?>
<!--

    Copyright (C) 2017-2019 Dremio Corporation

    Licensed under the Apache License, Version 2.0 (the "License");
    you may not use this file except in compliance with the License.
    You may obtain a copy of the License at

        http://www.apache.org/licenses/LICENSE-2.0

    Unless required by applicable law or agreed to in writing, software
    distributed under the License is distributed on an "AS IS" BASIS,
    WITHOUT WARRANTIES OR CONDITIONS OF ANY KIND, either express or implied.
    See the License for the specific language governing permissions and
    limitations under the License.

-->
<svg width="16" height="20" viewBox="0 0 16 20" fill="none" xmlns="http://www.w3.org/2000/svg">
  <path fill-rule="evenodd" clip-rule="evenodd" d="M0 4C0 3.31 0.315 2.707 0.774 2.22C1.229 1.738 1.853 1.337 2.567 1.018C3.996 0.377 5.917 0 8 0C10.083 0 12.004 0.377 13.433 1.018C14.147 1.338 14.771 1.738 15.226 2.22C15.685 2.707 16 3.31 16 4V16C16 16.69 15.685 17.293 15.226 17.78C14.771 18.262 14.147 18.663 13.433 18.983C12.004 19.623 10.083 20 8 20C5.917 20 3.996 19.623 2.567 18.983C1.853 18.663 1.229 18.263 0.774 17.78C0.315 17.293 0 16.69 0 16V4ZM1.5 4C1.5 4.207 1.59 4.46 1.865 4.75C2.144 5.046 2.582 5.346 3.18 5.614C4.375 6.149 6.079 6.5 8 6.5C9.921 6.5 11.625 6.15 12.82 5.614C13.418 5.346 13.856 5.046 14.135 4.75C14.41 4.46 14.5 4.207 14.5 4C14.5 3.793 14.41 3.54 14.135 3.25C13.856 2.954 13.418 2.654 12.82 2.386C11.625 1.851 9.92 1.5 8 1.5C6.079 1.5 4.375 1.85 3.18 2.386C2.582 2.654 2.144 2.954 1.865 3.25C1.59 3.54 1.5 3.793 1.5 4ZM14.5 6.392C14.18 6.612 13.82 6.809 13.433 6.982C12.004 7.623 10.083 8 8 8C5.917 8 3.996 7.623 2.567 6.982C2.19439 6.81768 1.83729 6.62022 1.5 6.392V8C1.5 8.207 1.59 8.46 1.865 8.75C2.144 9.046 2.582 9.346 3.18 9.614C4.375 10.149 6.079 10.5 8 10.5C9.921 10.5 11.625 10.15 12.82 9.614C13.418 9.346 13.856 9.046 14.135 8.75C14.41 8.46 14.5 8.207 14.5 8V6.392ZM1.5 12V10.392C1.83729 10.6202 2.19439 10.8177 2.567 10.982C3.996 11.623 5.917 12 8 12C10.083 12 12.004 11.623 13.433 10.982C13.82 10.809 14.18 10.612 14.5 10.392V12C14.5 12.207 14.41 12.46 14.135 12.75C13.856 13.046 13.418 13.346 12.82 13.614C11.625 14.15 9.921 14.5 8 14.5C6.079 14.5 4.375 14.149 3.18 13.614C2.582 13.346 2.144 13.046 1.865 12.75C1.59 12.46 1.5 12.207 1.5 12ZM1.5 14.392V16C1.5 16.207 1.59 16.46 1.865 16.75C2.144 17.046 2.582 17.346 3.18 17.614C4.375 18.149 6.079 18.5 8 18.5C9.921 18.5 11.625 18.15 12.82 17.614C13.418 17.346 13.856 17.046 14.135 16.75C14.41 16.46 14.5 16.207 14.5 16V14.392C14.18 14.612 13.82 14.809 13.433 14.982C12.004 15.623 10.083 16 8 16C5.917 16 3.996 15.623 2.567 14.982C2.19439 14.8177 1.83729 14.6202 1.5 14.392Z" fill="#5EB825"/>
</svg>
