<?xml version="1.0" encoding="UTF-8" standalone="no"?>
<!--

    Copyright (C) 2017-2018 Dremio Corporation

    Licensed under the Apache License, Version 2.0 (the "License");
    you may not use this file except in compliance with the License.
    You may obtain a copy of the License at

        http://www.apache.org/licenses/LICENSE-2.0

    Unless required by applicable law or agreed to in writing, software
    distributed under the License is distributed on an "AS IS" BASIS,
    WITHOUT WARRANTIES OR CONDITIONS OF ANY KIND, either express or implied.
    See the License for the specific language governing permissions and
    limitations under the License.

-->
<svg width="48px" height="48px" viewBox="0 0 48 48" version="1.1" xmlns="http://www.w3.org/2000/svg" xmlns:xlink="http://www.w3.org/1999/xlink">
    <!-- Generator: Sketch 41.2 (35397) - http://www.bohemiancoding.com/sketch -->
    <title>Source/SOLR-Beta</title>
    <desc>Created with Sketch.</desc>
    <defs>
        <circle id="path-1" cx="24" cy="24" r="24"></circle>
        <mask id="mask-2" maskContentUnits="userSpaceOnUse" maskUnits="objectBoundingBox" x="0" y="0" width="48" height="48" fill="white">
            <use xlink:href="#path-1"></use>
        </mask>
    </defs>
    <g id="Elements" stroke="none" stroke-width="1" fill="none" fill-rule="evenodd">
        <g id="Source/SOLR-Beta">
            <use id="Oval" stroke="#E5E5E5" mask="url(#mask-2)" stroke-width="2" fill="#FFFFFF" xlink:href="#path-1"></use>
            <g id="solr" transform="translate(4.000000, 10.000000)">
                <g id="Group">
                    <path d="M8.25653516,14.4835385 C7.78375391,14.2297615 7.24963281,14.0511 6.66906641,13.9522385 C6.09891016,13.8553154 5.51866406,13.8065308 4.94482422,13.8065308 C4.47205346,13.8061651 4.00015781,13.7655284 3.53416797,13.6850538 C3.07932422,13.6070308 2.66772266,13.4631 2.30945313,13.2573 C1.96095312,13.0573154 1.67267187,12.7772077 1.45229687,12.4247308 C1.23496484,12.0779077 1.1249375,11.6180077 1.1249375,11.0631231 C1.13550781,10.5731769 1.24825781,10.1539846 1.46078516,9.81701538 C1.67151819,9.47923453 1.95785724,9.19601236 2.29680078,8.9901 C2.64466016,8.77848462 3.04617188,8.62292308 3.49028516,8.52777692 C4.24622266,8.36591538 5.04492188,8.33554615 5.85851562,8.45023846 C6.17594531,8.49530769 6.49001172,8.57510769 6.79174609,8.6877 C7.08803516,8.79835385 7.36670703,8.95036154 7.61943359,9.13839231 C7.86863672,9.32432308 8.08869141,9.55774615 8.27383203,9.83187692 L8.37745312,9.98533846 L9.14091797,9.66129231 L8.97883984,9.43045385 C8.778462,9.14311352 8.54912309,8.87747383 8.29449219,8.63778462 C8.04320703,8.40371538 7.74787891,8.20486154 7.41651563,8.04703846 C7.08931641,7.89147692 6.71503125,7.77161538 6.30342969,7.69100769 C5.89599219,7.61120769 5.42096875,7.57098462 4.8918125,7.57098462 C4.38411719,7.57098462 3.85976563,7.62962308 3.33349219,7.74544615 C2.79969141,7.86336923 2.30432813,8.05818462 1.86197656,8.32472308 C1.41472134,8.59256199 1.03557016,8.96193189 0.75465625,9.40347692 C0.467335938,9.85465385 0.321433594,10.4113154 0.321433594,11.0582769 C0.321433594,11.7373846 0.456765625,12.3153692 0.723265625,12.7760769 C0.988003906,13.2338769 1.34323047,13.6049308 1.77885547,13.8785769 C2.20535156,14.1470538 2.70295703,14.3399308 3.25805859,14.4520385 C3.81358407,14.5627044 4.37856841,14.617894 4.94482422,14.6168077 C5.40351172,14.6168077 5.88942578,14.6518615 6.38895313,14.7216462 C6.87486719,14.7893308 7.32714844,14.9258308 7.73314453,15.1275923 C8.12873047,15.3246692 8.45817188,15.5984769 8.71217969,15.9417462 C8.95801953,16.2743538 9.08278125,16.7232692 9.08278125,17.2760538 C9.08278125,17.7724615 8.96266406,18.1958538 8.72611328,18.5350846 C8.481875,18.8856231 8.16460547,19.1749385 7.78295313,19.3949538 C7.39313281,19.6194923 6.95174219,19.7850692 6.47079297,19.8865154 C5.98183594,19.9899 5.49816406,20.0420769 5.03307031,20.0420769 C4.25230859,20.0420769 3.48099609,19.8916846 2.74043359,19.5947769 C2.00612107,19.3018748 1.34325872,18.8523321 0.797257813,18.2769462 L0.649113281,18.1213846 L0.0400390625,18.6536538 L0.211085938,18.8260154 C0.7559375,19.3760538 1.43259766,19.8548538 2.2216875,20.2496538 C3.02054688,20.6496231 3.96658984,20.8521923 5.03307031,20.8521923 C5.54028516,20.8521923 6.07841016,20.7937154 6.63319141,20.6785385 C7.1955,20.5611 7.723375,20.3609538 8.20144141,20.0824615 C8.68719531,19.7999308 9.09142969,19.4301692 9.40325391,18.9835154 C9.72356641,18.5245846 9.88596484,17.9504769 9.88596484,17.2760538 C9.88596484,16.5927462 9.73381641,16.0141154 9.43352344,15.5561538 C9.13691406,15.1048154 8.74100781,14.7436154 8.256375,14.4835385 L8.25653516,14.4835385 Z M15.4384219,20.1310846 C14.8876445,20.1310846 14.3841133,20.0163923 13.9416016,19.7902385 C13.4932047,19.5617478 13.0933437,19.2471646 12.7644531,18.8641385 C12.4300469,18.4764462 12.1645078,18.0230077 11.9748828,17.5162615 C11.7850142,17.0114041 11.6766014,16.4791142 11.6537695,15.9396462 C11.6537695,15.4459846 11.7445781,14.9413385 11.9231523,14.4397615 C12.0984334,13.9451093 12.3600917,13.4861004 12.6957461,13.0844538 C13.0291914,12.6865846 13.4350273,12.3570462 13.902043,12.1044 C14.3612109,11.8564385 14.8780352,11.7306 15.4384219,11.7306 C15.9653359,11.7306 16.4629414,11.8483615 16.917625,12.0800077 C17.3745927,12.3123065 17.7835429,12.6302184 18.1226406,13.0167692 C18.4621719,13.4046231 18.7336367,13.8583846 18.9293477,14.3651308 C19.1233936,14.8670552 19.2229504,15.4010734 19.2229141,15.9398077 C19.2229141,16.4329846 19.1322656,16.9377923 18.9538516,17.4396923 C18.7785879,17.9344848 18.5168703,18.393612 18.1810977,18.7953231 C17.8458792,19.19442 17.4368053,19.5238451 16.9767227,19.7652 C16.5172344,20.0081538 15.9997695,20.1310846 15.4384219,20.1310846 L15.4384219,20.1310846 Z M18.7799219,12.5318308 C18.380332,12.0609462 17.8947383,11.6714769 17.3362734,11.3740846 C16.7699609,11.0728154 16.131418,10.9203231 15.4384219,10.9203231 C14.8070859,10.9203231 14.2039375,11.0568231 13.645793,11.3256231 C13.0941108,11.590998 12.59935,11.9628701 12.1894922,12.4202077 C11.7788516,12.8773615 11.4495703,13.4160923 11.2109375,14.0210538 C10.9719844,14.6266615 10.8505859,15.2723308 10.8505859,15.9398077 C10.8505859,16.5706154 10.962375,17.1881769 11.1832305,17.7750462 C11.3989983,18.3538793 11.7145612,18.8896613 12.1153398,19.3576385 C12.5157305,19.8235154 13.002125,20.2042615 13.5617109,20.4893769 C14.1254609,20.7769154 14.7556758,20.9289231 15.434418,20.9413615 L15.4429063,20.9413615 C16.0851328,20.9289231 16.6932461,20.7830538 17.2504297,20.5086 C17.8007299,20.2381775 18.2945389,19.8638704 18.7051289,19.4059385 C19.1157695,18.9484615 19.442168,18.4157077 19.6747148,17.8227 C19.9079023,17.2282385 20.0262578,16.5946846 20.0262578,15.9398077 C20.0262578,15.3468 19.9176719,14.7423231 19.7037031,14.1435 C19.4894141,13.5446769 19.1787109,13.0025538 18.7799219,12.5318308 L18.7799219,12.5318308 Z M24.1853555,19.9063846 C24.0503438,19.9403077 23.9315078,19.9661538 23.8322109,19.9827923 C23.7192403,20.0016746 23.6060556,20.0192296 23.4926797,20.0354538 C23.3804102,20.0516077 23.2692617,20.0598462 23.1624375,20.0598462 C22.8928945,20.0598462 22.6946211,19.9698692 22.5557656,19.7844231 C22.4023359,19.5802385 22.3277031,19.3775077 22.3277031,19.1644385 L22.3277031,7.3038 L21.5245195,7.3038 L21.5245195,19.1644385 C21.5245195,19.6096385 21.6638555,20.0033077 21.9386836,20.3343 C22.2234414,20.6782154 22.6292773,20.8521923 23.1446602,20.8521923 C23.306418,20.8521923 23.4668945,20.8426615 23.6219258,20.8239231 C23.7569188,20.8077637 23.8916772,20.7896696 24.0261602,20.7696462 C24.1491602,20.7509077 24.2915391,20.7228 24.4494531,20.6862923 L24.7217188,20.6228077 L24.36425,19.8613154 L24.1853555,19.9065462 L24.1853555,19.9063846 Z M27.651457,11.7365769 C27.2334492,12.0328385 26.8644492,12.4090615 26.5486211,12.8592692 L26.5486211,11.0629615 L25.7454375,11.0629615 L25.7454375,20.7633462 L26.5486211,20.7633462 L26.5486211,14.7237462 C26.6599297,14.3281385 26.8130391,13.9570846 27.0044258,13.6206 C27.1925333,13.2876812 27.4334497,12.9880976 27.7176016,12.7337538 C27.997875,12.4845 28.3239531,12.2822538 28.6873477,12.1323462 C29.0497813,11.9827615 29.4588203,11.8952077 29.9029336,11.8727538 L30.1167422,11.8619308 L30.1167422,11.0626385 L29.8917227,11.0626385 C29.0356875,11.0626385 28.2819922,11.2894385 27.651457,11.7364154 L27.651457,11.7365769 Z" id="Shape" fill="#201F26"></path>
                    <path d="M39.1277734,2.2281 L32.4758437,9.48166154 L40.8358398,5.59149231 C40.592623,4.33023038 40.0004445,3.16415827 39.1277734,2.2281 L39.1277734,2.2281 Z M34.1923984,0.0704307692 C33.299814,0.0694486007 32.4159144,0.247183154 31.5919414,0.593330769 L30.6993906,8.17982308 L35.1597422,0.141023077 C34.8393695,0.094314196 34.5161006,0.0707235165 34.1923984,0.0704307692 L34.1923984,0.0704307692 Z M40.9019844,6.00939231 L32.9806562,10.4807769 L40.412707,9.59118462 C40.7753496,8.74030663 40.9618991,7.82369586 40.9609219,6.89753077 C40.9609219,6.5961 40.9396211,6.30032308 40.9019844,6.00939231 L40.9019844,6.00939231 Z M37.9815352,12.5550923 C38.8691458,11.9486562 39.6020842,11.1392076 40.120582,10.1927538 L33.1544258,11.5881231 L37.9815352,12.5550923 Z M35.5675,0.211776923 L31.6897969,8.68899231 L38.8830547,1.97836154 C37.9810547,1.10298462 36.8401016,0.476538462 35.5675,0.211615385 L35.5675,0.211776923 Z M34.7580703,13.6989462 C35.4905742,13.6384524 36.2082971,13.4572821 36.8827031,13.1626385 L32.9806562,12.6956308 L34.7580703,13.6987846 L34.7580703,13.6989462 Z M28.0225391,4.09096154 C27.7117382,4.78489341 27.518992,5.52665349 27.4523828,6.28513846 L28.5034883,8.17998462 L28.0225391,4.09096154 L28.0225391,4.09096154 Z M31.0054492,0.873923077 C30.0524201,1.38867711 29.2348002,2.12519303 28.6204023,3.02238462 L29.6015195,8.00423077 L31.0054492,0.873923077 L31.0054492,0.873923077 Z" id="Shape" fill="#C7402B"></path>
                </g>
            </g>
        </g>
    </g>
</svg>
