<!--

    Copyright (C) 2017-2019 Dremio Corporation

    Licensed under the Apache License, Version 2.0 (the "License");
    you may not use this file except in compliance with the License.
    You may obtain a copy of the License at

        http://www.apache.org/licenses/LICENSE-2.0

    Unless required by applicable law or agreed to in writing, software
    distributed under the License is distributed on an "AS IS" BASIS,
    WITHOUT WARRANTIES OR CONDITIONS OF ANY KIND, either express or implied.
    See the License for the specific language governing permissions and
    limitations under the License.

-->
<svg id="sql-editor/catalog" viewBox="0 0 24 24" fill="none" xmlns="http://www.w3.org/2000/svg">
<path d="M5.754 22.005C5.15726 22.005 4.58497 21.7679 4.16301 21.346C3.74105 20.924 3.504 20.3517 3.504 19.755L3.502 5.75C3.502 5.15326 3.73905 4.58097 4.16101 4.15901C4.58297 3.73705 5.15526 3.5 5.752 3.5L6.499 3.499L6.5 2.75C6.50001 2.56876 6.56564 2.39366 6.68477 2.25707C6.80389 2.12048 6.96844 2.03165 7.148 2.007L7.25 2C7.43124 2.00001 7.60634 2.06564 7.74293 2.18477C7.87952 2.30389 7.96835 2.46845 7.993 2.648L8 2.75V3.499H11V2.75C11.0001 2.56846 11.066 2.39311 11.1855 2.25648C11.305 2.11985 11.4701 2.03121 11.65 2.007L11.75 2C11.9314 1.99977 12.1068 2.06529 12.2436 2.18444C12.3804 2.30359 12.4693 2.46828 12.494 2.648L12.501 2.75V3.499H15.498L15.499 2.75C15.499 2.56876 15.5646 2.39366 15.6838 2.25707C15.8029 2.12048 15.9674 2.03165 16.147 2.007L16.25 2C16.4312 2.00001 16.6063 2.06564 16.7429 2.18477C16.8795 2.30389 16.9684 2.46845 16.993 2.648L17 2.75V3.499H17.749C18.3457 3.499 18.918 3.73605 19.34 4.15801C19.7619 4.57997 19.999 5.15226 19.999 5.749L20 16.749C20 16.809 19.993 16.869 19.98 16.925L19.95 17.019L19.905 17.115L19.885 17.147C19.8556 17.1955 19.8204 17.2402 19.78 17.28L15.276 21.785C15.2496 21.8114 15.2211 21.8358 15.191 21.858L15.276 21.785C15.2437 21.8172 15.2086 21.8463 15.171 21.872L15.083 21.924L14.967 21.971L14.853 21.997L14.8 22.003L14.745 22.005H5.754ZM17.748 5H5.742C5.54482 5.00263 5.35662 5.08281 5.21812 5.22318C5.07962 5.36354 5.00198 5.55281 5.002 5.75L5.004 19.754C5.004 20.169 5.34 20.504 5.754 20.504H13.994L13.995 18.25C13.9949 17.6799 14.2113 17.131 14.6004 16.7142C14.9894 16.2975 15.5222 16.044 16.091 16.005L16.245 16H18.5V5.75C18.5 5.55109 18.421 5.36032 18.2803 5.21967C18.1397 5.07902 17.9489 5 17.75 5H17.748ZM17.438 17.5H16.245C16.0638 17.5 15.8887 17.5656 15.7521 17.6848C15.6155 17.8039 15.5266 17.9684 15.502 18.148L15.495 18.25V19.444L17.438 17.5ZM7.25 16H11.248C11.438 16.0001 11.6209 16.0722 11.7598 16.202C11.8986 16.3317 11.9831 16.5093 11.996 16.6989C12.009 16.8885 11.9495 17.0759 11.8296 17.2233C11.7097 17.3707 11.5382 17.4671 11.35 17.493L11.248 17.5H7.25C7.05998 17.4999 6.87706 17.4278 6.73821 17.298C6.59936 17.1683 6.51493 16.9907 6.50197 16.8011C6.48902 16.6115 6.54851 16.4241 6.66843 16.2767C6.78835 16.1293 6.95975 16.0329 7.148 16.007L7.25 16H11.248H7.25ZM7.25 12H16.248C16.438 12.0001 16.6209 12.0722 16.7598 12.202C16.8986 12.3317 16.9831 12.5093 16.996 12.6989C17.009 12.8885 16.9495 13.0759 16.8296 13.2233C16.7096 13.3707 16.5382 13.4671 16.35 13.493L16.248 13.5H7.25C7.05998 13.4999 6.87706 13.4278 6.73821 13.298C6.59936 13.1683 6.51493 12.9907 6.50197 12.8011C6.48902 12.6115 6.54851 12.4241 6.66843 12.2767C6.78835 12.1293 6.95975 12.0329 7.148 12.007L7.25 12H16.248H7.25ZM7.25 8H16.248C16.438 8.00006 16.6209 8.07225 16.7598 8.20197C16.8986 8.3317 16.9831 8.5093 16.996 8.69888C17.009 8.88846 16.9495 9.07589 16.8296 9.2233C16.7096 9.37071 16.5382 9.4671 16.35 9.493L16.248 9.5H7.25C7.05998 9.49994 6.87706 9.42776 6.73821 9.29803C6.59936 9.1683 6.51493 8.9907 6.50197 8.80112C6.48902 8.61154 6.54851 8.42411 6.66843 8.2767C6.78835 8.12929 6.95975 8.0329 7.148 8.007L7.25 8H16.248H7.25Z" fill="currentColor"/>
</svg>
