<!--

    Copyright (C) 2017-2019 Dremio Corporation

    Licensed under the Apache License, Version 2.0 (the "License");
    you may not use this file except in compliance with the License.
    You may obtain a copy of the License at

        http://www.apache.org/licenses/LICENSE-2.0

    Unless required by applicable law or agreed to in writing, software
    distributed under the License is distributed on an "AS IS" BASIS,
    WITHOUT WARRANTIES OR CONDITIONS OF ANY KIND, either express or implied.
    See the License for the specific language governing permissions and
    limitations under the License.

-->
<svg id="sql-editor/download" viewBox="0 0 24 24" fill="none" xmlns="http://www.w3.org/2000/svg">
<path d="M11.75 2.00488L11.648 2.01188C11.4684 2.03653 11.3038 2.12536 11.1847 2.26195C11.0656 2.39854 11 2.57365 11 2.75488L10.999 14.5L8.59987 12.1059L8.51587 12.0339C8.36366 11.9208 8.17425 11.8695 7.98577 11.8904C7.79728 11.9113 7.62371 12.0029 7.5 12.1466C7.37629 12.2903 7.31162 12.4756 7.31902 12.6651C7.32642 12.8546 7.40533 13.0343 7.53987 13.1679L11.223 16.844L11.308 16.917C11.4524 17.0237 11.6304 17.075 11.8095 17.0616C11.9886 17.0482 12.157 16.971 12.284 16.844L15.962 13.1659L16.035 13.0819C16.1419 12.9376 16.1934 12.7597 16.1802 12.5806C16.167 12.4014 16.0899 12.233 15.963 12.1059L15.878 12.0329C15.7336 11.9262 15.5556 11.8749 15.3765 11.8883C15.1974 11.9017 15.029 11.9789 14.902 12.1059L12.499 14.507L12.5 2.75488L12.493 2.65288C12.4683 2.47333 12.3795 2.30877 12.2429 2.18965C12.1063 2.07053 11.9312 2.00489 11.75 2.00488Z" fill="currentColor"/>
<path d="M2 18.75V12.75C2 12.3358 2.33579 12 2.75 12C3.16421 12 3.5 12.3358 3.5 12.75V18.75C3.5 19.7165 4.2835 20.5 5.25 20.5H18.75C19.7165 20.5 20.5 19.7165 20.5 18.75V12.75C20.5 12.3358 20.8358 12 21.25 12C21.6642 12 22 12.3358 22 12.75V18.75C22 20.5449 20.5449 22 18.75 22H5.25C3.45507 22 2 20.5449 2 18.75Z" fill="currentColor"/>
</svg>
