<!--

    Copyright (C) 2017-2019 Dremio Corporation

    Licensed under the Apache License, Version 2.0 (the "License");
    you may not use this file except in compliance with the License.
    You may obtain a copy of the License at

        http://www.apache.org/licenses/LICENSE-2.0

    Unless required by applicable law or agreed to in writing, software
    distributed under the License is distributed on an "AS IS" BASIS,
    WITHOUT WARRANTIES OR CONDITIONS OF ANY KIND, either express or implied.
    See the License for the specific language governing permissions and
    limitations under the License.

-->
<svg id="sql-editor/partition" viewBox="0 0 24 24" fill="none" xmlns="http://www.w3.org/2000/svg">
<path d="M11.2929 7.12132C10.9024 6.7308 10.9024 6.09763 11.2929 5.70711L12.7071 4.29289C13.0976 3.90237 13.7308 3.90237 14.1213 4.29289L15.5355 5.70711C15.9261 6.09763 15.9261 6.7308 15.5355 7.12132L14.1213 8.53553C13.7308 8.92606 13.0976 8.92606 12.7071 8.53553L11.2929 7.12132Z" fill="currentColor"/>
<path d="M5 6C4.44772 6 4 6.44772 4 7V9C4 9.55228 4.44772 10 5 10H7C7.55228 10 8 9.55228 8 9V7C8 6.44772 7.55228 6 7 6H5Z" fill="currentColor"/>
<path d="M4 12C4 11.4477 4.44772 11 5 11H7C7.55228 11 8 11.4477 8 12V14C8 14.5523 7.55228 15 7 15H5C4.44772 15 4 14.5523 4 14V12Z" fill="currentColor"/>
<path d="M5 16C4.44772 16 4 16.4477 4 17V19C4 19.5523 4.44772 20 5 20H7C7.55228 20 8 19.5523 8 19V17C8 16.4477 7.55228 16 7 16H5Z" fill="currentColor"/>
<path d="M10 16C9.44772 16 9 16.4477 9 17V19C9 19.5523 9.44772 20 10 20H12C12.5523 20 13 19.5523 13 19V17C13 16.4477 12.5523 16 12 16H10Z" fill="currentColor"/>
<path d="M15.2235 10.8625C15.0806 11.3959 15.3972 11.9443 15.9306 12.0872L17.8625 12.6049C18.396 12.7478 18.9443 12.4312 19.0872 11.8977L19.6049 9.96589C19.7478 9.43243 19.4312 8.88409 18.8978 8.74115L16.9659 8.22351C16.4325 8.08057 15.8841 8.39715 15.7412 8.93062L15.2235 10.8625Z" fill="currentColor"/>
<path d="M9 12C9 11.4477 9.44772 11 10 11H12C12.5523 11 13 11.4477 13 12V14C13 14.5523 12.5523 15 12 15H10C9.44772 15 9 14.5523 9 14V12Z" fill="currentColor"/>
<path d="M15 16C14.4477 16 14 16.4477 14 17V19C14 19.5523 14.4477 20 15 20H17C17.5523 20 18 19.5523 18 19V17C18 16.4477 17.5523 16 17 16H15Z" fill="currentColor"/>
</svg>
