<svg id="vcs/snapshot" viewBox="0 0 16 16" fill="none" xmlns="http://www.w3.org/2000/svg">
<path d="M11.5 2C12.163 2 12.7989 2.26339 13.2678 2.73223C13.7366 3.20107 14 3.83696 14 4.5V11.5C14 12.163 13.7366 12.7989 13.2678 13.2678C12.7989 13.7366 12.163 14 11.5 14H4.5C3.83696 14 3.20107 13.7366 2.73223 13.2678C2.26339 12.7989 2 12.163 2 11.5V4.5C2 3.83696 2.26339 3.20107 2.73223 2.73223C3.20107 2.26339 3.83696 2 4.5 2H11.5ZM11.5 3H4.5C4.10218 3 3.72064 3.15804 3.43934 3.43934C3.15804 3.72064 3 4.10218 3 4.5V11.5C3 11.8978 3.15804 12.2794 3.43934 12.5607C3.72064 12.842 4.10218 13 4.5 13H11.5C11.8978 13 12.2794 12.842 12.5607 12.5607C12.842 12.2794 13 11.8978 13 11.5V4.5C13 4.10218 12.842 3.72064 12.5607 3.43934C12.2794 3.15804 11.8978 3 11.5 3ZM11.5 8.66667C11.6326 8.66667 11.7598 8.71935 11.8536 8.81311C11.9473 8.90688 12 9.03406 12 9.16667V10.6667C12 11.0203 11.8595 11.3594 11.6095 11.6095C11.3594 11.8595 11.0203 12 10.6667 12H9.16667C9.03406 12 8.90688 11.9473 8.81311 11.8536C8.71935 11.7598 8.66667 11.6326 8.66667 11.5C8.66667 11.3674 8.71935 11.2402 8.81311 11.1464C8.90688 11.0527 9.03406 11 9.16667 11H10.6667C10.7551 11 10.8399 10.9649 10.9024 10.9024C10.9649 10.8399 11 10.7551 11 10.6667V9.16667C11 9.03406 11.0527 8.90688 11.1464 8.81311C11.2402 8.71935 11.3674 8.66667 11.5 8.66667ZM4.5 8.66667C4.63261 8.66667 4.75979 8.71935 4.85355 8.81311C4.94732 8.90688 5 9.03406 5 9.16667V10.6667C5 10.7551 5.03512 10.8399 5.09763 10.9024C5.16014 10.9649 5.24493 11 5.33333 11H6.83333C6.96594 11 7.09312 11.0527 7.18689 11.1464C7.28065 11.2402 7.33333 11.3674 7.33333 11.5C7.33333 11.6326 7.28065 11.7598 7.18689 11.8536C7.09312 11.9473 6.96594 12 6.83333 12H5.33333C4.97971 12 4.64057 11.8595 4.39052 11.6095C4.14048 11.3594 4 11.0203 4 10.6667V9.16667C4 9.03406 4.05268 8.90688 4.14645 8.81311C4.24021 8.71935 4.36739 8.66667 4.5 8.66667ZM5.33333 4H6.83333C6.96002 4.00004 7.08196 4.04816 7.17453 4.13465C7.26709 4.22113 7.32338 4.33953 7.33202 4.46592C7.34065 4.59231 7.30099 4.71726 7.22105 4.81553C7.1411 4.9138 7.02683 4.97807 6.90133 4.99533L6.83333 5H5.33333C5.25532 4.99997 5.17976 5.02731 5.11983 5.07726C5.05989 5.12721 5.01938 5.19659 5.00533 5.27333L5 5.33333V6.83333C4.99996 6.96002 4.95184 7.08196 4.86535 7.17453C4.77887 7.26709 4.66047 7.32338 4.53408 7.33202C4.40769 7.34065 4.28274 7.30099 4.18447 7.22105C4.0862 7.1411 4.02193 7.02683 4.00467 6.90133L4 6.83333V5.33333C3.99989 4.99695 4.12694 4.67296 4.35566 4.4263C4.58439 4.17965 4.8979 4.02856 5.23333 4.00333L5.33333 4ZM10.6667 4C11.0203 4 11.3594 4.14048 11.6095 4.39052C11.8595 4.64057 12 4.97971 12 5.33333V6.83333C12 6.96594 11.9473 7.09312 11.8536 7.18689C11.7598 7.28065 11.6326 7.33333 11.5 7.33333C11.3674 7.33333 11.2402 7.28065 11.1464 7.18689C11.0527 7.09312 11 6.96594 11 6.83333V5.33333C11 5.24493 10.9649 5.16014 10.9024 5.09763C10.8399 5.03512 10.7551 5 10.6667 5H9.16667C9.03406 5 8.90688 4.94732 8.81311 4.85355C8.71935 4.75979 8.66667 4.63261 8.66667 4.5C8.66667 4.36739 8.71935 4.24021 8.81311 4.14645C8.90688 4.05268 9.03406 4 9.16667 4H10.6667Z" fill="currentColor"/>
<path d="M7.99984 6.1665C8.48607 6.1665 8.95238 6.35966 9.2962 6.70347C9.64002 7.04729 9.83317 7.51361 9.83317 7.99984C9.83317 8.48607 9.64002 8.95238 9.2962 9.2962C8.95238 9.64002 8.48607 9.83317 7.99984 9.83317C7.51361 9.83317 7.04729 9.64002 6.70347 9.2962C6.35966 8.95238 6.1665 8.48607 6.1665 7.99984C6.1665 7.51361 6.35966 7.04729 6.70347 6.70347C7.04729 6.35966 7.51361 6.1665 7.99984 6.1665ZM7.99984 7.1665C7.77882 7.1665 7.56686 7.2543 7.41058 7.41058C7.2543 7.56686 7.1665 7.77882 7.1665 7.99984C7.1665 8.22085 7.2543 8.43281 7.41058 8.58909C7.56686 8.74537 7.77882 8.83317 7.99984 8.83317C8.22085 8.83317 8.43281 8.74537 8.58909 8.58909C8.74537 8.43281 8.83317 8.22085 8.83317 7.99984C8.83317 7.77882 8.74537 7.56686 8.58909 7.41058C8.43281 7.2543 8.22085 7.1665 7.99984 7.1665Z" fill="currentColor"/>
</svg>
