<svg id="vcs/tag" viewBox="0 0 24 24" fill="none" xmlns="http://www.w3.org/2000/svg">
  <path d="M19.75 2C20.3467 2 20.919 2.23705 21.341 2.65901C21.7629 3.08097 22 3.65326 22 4.25V9.712C21.9999 10.5739 21.6575 11.4005 21.048 12.01L12.548 20.513C11.938 21.1217 11.1114 21.4636 10.2497 21.4637C9.38796 21.4639 8.5613 21.1224 7.951 20.514L3.489 16.06C2.87917 15.4509 2.53625 14.6245 2.53569 13.7626C2.53513 12.9007 2.87696 12.0739 3.486 11.464L11.986 2.954C12.2876 2.65184 12.6458 2.41207 13.0401 2.24838C13.4344 2.08469 13.8571 2.00029 14.284 2H19.749H19.75ZM19.75 3.5H14.285C13.82 3.5 13.375 3.685 13.046 4.013L4.534 12.536C4.21172 12.8656 4.03252 13.3091 4.03532 13.7701C4.03813 14.2311 4.22272 14.6723 4.549 14.998L9.01 19.452C9.33892 19.7796 9.78425 19.9636 10.2485 19.9636C10.7127 19.9636 11.1581 19.7796 11.487 19.452L19.987 10.949C20.3152 10.621 20.4998 10.176 20.5 9.712V4.25C20.5 4.05109 20.421 3.86032 20.2803 3.71967C20.1397 3.57902 19.9489 3.5 19.75 3.5ZM17 5.502C17.197 5.502 17.392 5.5408 17.574 5.61618C17.756 5.69156 17.9214 5.80205 18.0607 5.94134C18.1999 6.08063 18.3104 6.24599 18.3858 6.42797C18.4612 6.60996 18.5 6.80502 18.5 7.002C18.5 7.19898 18.4612 7.39404 18.3858 7.57603C18.3104 7.75801 18.1999 7.92337 18.0607 8.06266C17.9214 8.20195 17.756 8.31244 17.574 8.38782C17.392 8.4632 17.197 8.502 17 8.502C16.6022 8.502 16.2206 8.34396 15.9393 8.06266C15.658 7.78136 15.5 7.39982 15.5 7.002C15.5 6.60418 15.658 6.22264 15.9393 5.94134C16.2206 5.66004 16.6022 5.502 17 5.502Z" fill="currentColor"/>
</svg>
