<?xml version="1.0" encoding="UTF-8" standalone="no"?>
<!--

    Copyright (C) 2017-2018 Dremio Corporation

    Licensed under the Apache License, Version 2.0 (the "License");
    you may not use this file except in compliance with the License.
    You may obtain a copy of the License at

        http://www.apache.org/licenses/LICENSE-2.0

    Unless required by applicable law or agreed to in writing, software
    distributed under the License is distributed on an "AS IS" BASIS,
    WITHOUT WARRANTIES OR CONDITIONS OF ANY KIND, either express or implied.
    See the License for the specific language governing permissions and
    limitations under the License.

-->
<svg width="24px" height="18px" viewBox="0 0 24 18" version="1.1" xmlns="http://www.w3.org/2000/svg" xmlns:xlink="http://www.w3.org/1999/xlink" xmlns:sketch="http://www.bohemiancoding.com/sketch/ns">
    <!-- Generator: Sketch 3.5.1 (25234) - http://www.bohemiancoding.com/sketch -->
    <title>Icon/Type-Binary</title>
    <desc>Created with Sketch.</desc>
    <defs></defs>
    <g id="Icons" stroke="none" stroke-width="1" fill="none" fill-rule="evenodd" sketch:type="MSPage">
        <g id="Icon/Type-Binary" sketch:type="MSArtboardGroup">
            <g sketch:type="MSLayerGroup">
                <g id="icon-box-24-copy-10" sketch:type="MSShapeGroup">
                    <rect id="icon-box-16" x="0" y="0" width="24" height="18"></rect>
                </g>
                <path d="M10.8071289,13 L6.39746094,13 L6.39746094,12.1298828 L8.20214844,12.1298828 L8.20214844,7.00585938 L6.52099609,7.91894531 L6.17724609,7.12402344 L8.41162109,5.94775391 L9.23876953,5.94775391 L9.23876953,12.1298828 L10.8071289,12.1298828 L10.8071289,13 Z M17.0751953,9.49267578 C17.0751953,10.0297878 17.0214849,10.5194477 16.9140625,10.9616699 C16.8066401,11.4038922 16.6437185,11.7834457 16.425293,12.1003418 C16.2068674,12.4172379 15.9356299,12.6625154 15.6115723,12.8361816 C15.2875147,13.0098479 14.907066,13.0966797 14.4702148,13.0966797 C14.0942364,13.0966797 13.7522802,13.025961 13.4443359,12.8845215 C13.1363917,12.743082 12.8732107,12.5255549 12.6547852,12.2319336 C12.4363596,11.9383123 12.268067,11.5641299 12.1499023,11.109375 C12.0317377,10.6546201 11.9726562,10.1157258 11.9726562,9.49267578 C11.9726562,8.95556372 12.0272618,8.46500873 12.1364746,8.02099609 C12.2456874,7.57698346 12.4086089,7.19653479 12.6252441,6.87963867 C12.8418793,6.56274256 13.1131169,6.31746506 13.4389648,6.14379883 C13.7648128,5.9701326 14.1443663,5.88330078 14.5776367,5.88330078 C14.9536152,5.88330078 15.2955714,5.95401948 15.6035156,6.09545898 C15.9114599,6.23689849 16.1746408,6.45532079 16.3930664,6.75073242 C16.611492,7.04614406 16.7797846,7.42122168 16.8979492,7.87597656 C17.0161139,8.33073144 17.0751953,8.86962579 17.0751953,9.49267578 L17.0751953,9.49267578 Z M16.1298828,9.52490234 C16.1298828,9.40315694 16.1254069,9.28230854 16.1164551,9.16235352 C16.1075032,9.04239849 16.0976563,8.92513078 16.0869141,8.81054688 L13.1166992,11.0180664 C13.1704104,11.2042653 13.2384436,11.3761385 13.3208008,11.5336914 C13.403158,11.6912443 13.5025222,11.8264155 13.6188965,11.939209 C13.7352708,12.0520025 13.8677564,12.1397295 14.0163574,12.2023926 C14.1649584,12.2650557 14.3341462,12.2963867 14.5239258,12.2963867 C14.7674166,12.2963867 14.9885244,12.2373053 15.1872559,12.1191406 C15.3859873,12.000976 15.5551751,11.825522 15.6948242,11.5927734 C15.8344734,11.3600249 15.9418942,11.0708839 16.0170898,10.7253418 C16.0922855,10.3797997 16.1298828,9.97965722 16.1298828,9.52490234 L16.1298828,9.52490234 Z M12.9179688,9.46044922 C12.9179688,9.57145238 12.9188639,9.68245387 12.9206543,9.79345703 C12.9224447,9.90446019 12.9287109,10.011881 12.9394531,10.1157227 L15.909668,7.91894531 C15.8559568,7.73632721 15.7879236,7.56982497 15.7055664,7.41943359 C15.6232092,7.26904222 15.5247402,7.13924208 15.4101562,7.0300293 C15.2955723,6.92081651 15.164877,6.83577504 15.0180664,6.77490234 C14.8712558,6.71402964 14.7065439,6.68359375 14.5239258,6.68359375 C14.280435,6.68359375 14.0593272,6.74267519 13.8605957,6.86083984 C13.6618642,6.9790045 13.4926765,7.15535365 13.3530273,7.38989258 C13.2133782,7.62443151 13.1059574,7.91446767 13.0307617,8.26000977 C12.955566,8.60555186 12.9179688,9.00569434 12.9179688,9.46044922 L12.9179688,9.46044922 Z" id="10" fill="#77818F" sketch:type="MSShapeGroup"></path>
            </g>
        </g>
    </g>
</svg>
