<?xml version="1.0" encoding="UTF-8" standalone="no"?>
<!--

    Copyright (C) 2017-2018 Dremio Corporation

    Licensed under the Apache License, Version 2.0 (the "License");
    you may not use this file except in compliance with the License.
    You may obtain a copy of the License at

        http://www.apache.org/licenses/LICENSE-2.0

    Unless required by applicable law or agreed to in writing, software
    distributed under the License is distributed on an "AS IS" BASIS,
    WITHOUT WARRANTIES OR CONDITIONS OF ANY KIND, either express or implied.
    See the License for the specific language governing permissions and
    limitations under the License.

-->
<svg width="24px" height="18px" viewBox="0 0 24 18" version="1.1" xmlns="http://www.w3.org/2000/svg" xmlns:xlink="http://www.w3.org/1999/xlink" xmlns:sketch="http://www.bohemiancoding.com/sketch/ns">
    <!-- Generator: Sketch 3.5.1 (25234) - http://www.bohemiancoding.com/sketch -->
    <title>Icon/Type-Geo</title>
    <desc>Created with Sketch.</desc>
    <defs></defs>
    <g id="Icons" stroke="none" stroke-width="1" fill="none" fill-rule="evenodd" sketch:type="MSPage">
        <g id="Icon/Type-Geo" sketch:type="MSArtboardGroup">
            <g sketch:type="MSLayerGroup">
                <g id="icon-box-24-copy-10" sketch:type="MSShapeGroup">
                    <rect id="icon-box-16" x="0" y="0" width="24" height="18"></rect>
                </g>
                <g id="Group" transform="translate(5.000000, 2.000000)" stroke="#77818F" stroke-linecap="round" sketch:type="MSShapeGroup" stroke-linejoin="round">
                    <path d="M13.714788,7.15217391 C13.714788,10.7900815 10.7685109,13.739212 7.13402717,13.739212 C3.49954348,13.739212 0.589788043,10.6713859 0.589788043,7.03347826 C0.589788043,3.49144022 3.36886413,0.761440217 6.86981522,0.619918478 C6.96454348,0.615923913 7.05927174,0.614211957 7.1551413,0.614211957 C10.789625,0.614211957 13.714788,3.5142663 13.714788,7.15217391 L13.714788,7.15217391 Z" id="Stroke-8592"></path>
                    <path d="M6.86981522,0.620032609 C3.44590217,4.32927174 3.44590217,9.16840217 6.86981522,13.7336196" id="Stroke-8593"></path>
                    <path d="M7.44046739,0.620032609 C10.8643804,4.32927174 10.8643804,9.16669022 7.44046739,13.7319076" id="Stroke-8594"></path>
                    <path d="M1.44565217,10.3027446 L12.8940761,10.3027446" id="Stroke-8595"></path>
                    <path d="M1.67750815,3.45491848 L12.5552799,3.45491848" id="Stroke-8596"></path>
                    <path d="M0.589788043,6.87883152 L13.678837,6.87883152" id="Stroke-8597"></path>
                </g>
            </g>
        </g>
    </g>
</svg>
