<?xml version="1.0" encoding="UTF-8" standalone="no"?>
<!--

    Copyright (C) 2017-2018 Dremio Corporation

    Licensed under the Apache License, Version 2.0 (the "License");
    you may not use this file except in compliance with the License.
    You may obtain a copy of the License at

        http://www.apache.org/licenses/LICENSE-2.0

    Unless required by applicable law or agreed to in writing, software
    distributed under the License is distributed on an "AS IS" BASIS,
    WITHOUT WARRANTIES OR CONDITIONS OF ANY KIND, either express or implied.
    See the License for the specific language governing permissions and
    limitations under the License.

-->
<svg width="110px" height="110px" viewBox="0 0 110 110" version="1.1" xmlns="http://www.w3.org/2000/svg" xmlns:xlink="http://www.w3.org/1999/xlink" xmlns:sketch="http://www.bohemiancoding.com/sketch/ns">
    <!-- Generator: Sketch 3.5.2 (25235) - http://www.bohemiancoding.com/sketch -->
    <title>Avatar/Bear</title>
    <desc>Created with Sketch.</desc>
    <defs>
        <path id="path-1" d="M0,1.09883077 L65.2311,1.09883077 L65.2311,72 L0,72"></path>
        <path id="path-3" d="M0,1.09883077 L65.2311,1.09883077 L65.2311,72 L0,72"></path>
        <path id="path-5" d="M0,1.09883077 L65.2311,1.09883077 L65.2311,72 L0,72 L0,1.09883077 Z"></path>
    </defs>
    <g id="Avatars" stroke="none" stroke-width="1" fill="none" fill-rule="evenodd" sketch:type="MSPage">
        <g id="Avatar/Bear" sketch:type="MSArtboardGroup">
            <g id="Background-Circle" sketch:type="MSLayerGroup" fill="#C0E9F5">
                <circle id="Light-Blue" sketch:type="MSShapeGroup" cx="55" cy="55" r="55"></circle>
            </g>
            <g id="Page-1" sketch:type="MSLayerGroup" transform="translate(22.000000, 20.000000)">
                <g id="Group-3">
                    <mask id="mask-2" sketch:name="Clip 2" fill="white">
                        <use xlink:href="#path-1"></use>
                    </mask>
                    <g id="Clip-2"></g>
                    <path d="M49.53982,1.09849846 C55.33462,1.09849846 60.03272,5.82834462 60.03272,11.6647754 C60.03272,17.5000985 55.33462,22.2299446 49.53982,22.2299446 C43.74832,22.2299446 39.04802,17.5000985 39.04802,11.6647754 C39.04802,5.82834462 43.74832,1.09849846 49.53982,1.09849846 M15.69172,1.09849846 C21.48652,1.09849846 26.18352,5.82834462 26.18352,11.6647754 C26.18352,17.5000985 21.48652,22.2299446 15.69172,22.2299446 C9.89692,22.2299446 5.19992,17.5000985 5.19992,11.6647754 C5.19992,5.82834462 9.89692,1.09849846 15.69172,1.09849846" id="Fill-1" fill="#8E5523" sketch:type="MSShapeGroup" mask="url(#mask-2)"></path>
                </g>
                <g id="Group-6">
                    <mask id="mask-4" sketch:name="Clip 5" fill="white">
                        <use xlink:href="#path-3"></use>
                    </mask>
                    <g id="Clip-5"></g>
                    <path d="M32.61654,6.46382769 C49.23204,6.46382769 62.70374,20.0286277 62.70374,36.7614277 C62.70374,38.5514585 62.54754,40.3049354 62.25164,42.0107815 C64.16344,44.7013662 65.23044,47.6954585 65.23044,50.8501662 C65.23044,62.5307815 50.63234,72.0004431 32.61654,72.0004431 C14.60734,72.0004431 0.00044,62.5307815 0.00044,50.8501662 C0.00044,47.6954585 1.06854,44.7013662 2.98034,42.0107815 C2.68444,40.3049354 2.52934,38.5514585 2.52934,36.7614277 C2.52934,20.0286277 15.99994,6.46382769 32.61654,6.46382769" id="Fill-4" fill="#996539" sketch:type="MSShapeGroup" mask="url(#mask-4)"></path>
                </g>
                <g id="Group-9">
                    <mask id="mask-6" sketch:name="Clip 8" fill="white">
                        <use xlink:href="#path-5"></use>
                    </mask>
                    <g id="Clip-8"></g>
                    <path d="M32.61654,6.46382769 C49.23204,6.46382769 62.70374,20.0286277 62.70374,36.7614277 C62.70374,38.5514585 62.54754,40.3049354 62.25164,42.0107815 C64.16344,44.7013662 65.23044,47.6954585 65.23044,50.8501662 C65.23044,62.5307815 50.63234,72.0004431 32.61654,72.0004431 L32.61654,6.46382769 Z" id="Fill-7" fill="#8E5523" sketch:type="MSShapeGroup" mask="url(#mask-6)"></path>
                </g>
                <path d="M19.60233,46.8151754 C22.73733,46.8151754 25.29373,44.49456 25.29373,41.6500062 C25.29373,38.80656 22.73733,36.4859446 19.60233,36.4859446 C16.46513,36.4859446 13.91093,38.80656 13.91093,41.6500062 C13.91093,44.49456 16.46513,46.8151754 19.60233,46.8151754" id="Fill-10" fill="#FFFFFF" sketch:type="MSShapeGroup"></path>
                <path d="M19.60233,38.7562708 C21.36343,38.7562708 22.79233,40.0511631 22.79233,41.6506708 C22.79233,43.2490708 21.36343,44.5461785 19.60233,44.5461785 C17.84013,44.5461785 16.41123,43.2490708 16.41123,41.6506708 L19.60233,41.6506708 L19.60233,38.7562708 Z" id="Fill-12" fill="#2E2E2F" sketch:type="MSShapeGroup"></path>
                <path d="M44.8734,46.8151754 C48.0106,46.8151754 50.567,44.49456 50.567,41.6500062 C50.567,38.80656 48.0106,36.4859446 44.8734,36.4859446 C41.7395,36.4859446 39.1798,38.80656 39.1798,41.6500062 C39.1798,44.49456 41.7395,46.8151754 44.8734,46.8151754" id="Fill-14" fill="#DFD7C5" sketch:type="MSShapeGroup"></path>
                <path d="M44.8734,38.7562708 C46.6356,38.7562708 48.0645,40.0511631 48.0645,41.6506708 C48.0645,43.2490708 46.6356,44.5461785 44.8734,44.5461785 C43.1145,44.5461785 41.6856,43.2490708 41.6856,41.6506708 L44.8734,41.6506708 L44.8734,38.7562708 Z" id="Fill-16" fill="#2E2E2F" sketch:type="MSShapeGroup"></path>
                <path d="M33.25575,60.7591385 C33.27115,60.8156308 33.27885,60.8743385 33.27885,60.9341538 L33.27885,64.8432 C33.35915,65.0004923 33.39325,65.1677538 33.39105,65.3328 C34.35025,65.7260308 37.20365,64.3015385 37.77675,64.3015385 L37.77675,65.6374154 C36.56125,65.6374154 33.86075,67.0851692 32.61665,66.4238769 C31.49025,67.0220308 29.17365,65.6285538 27.84485,65.6352 L27.84485,64.2993231 C28.82275,64.2827077 31.02275,65.6695385 31.84335,65.3328 C31.84005,65.1677538 31.87525,65.0004923 31.95335,64.8432 L31.95335,60.9341538 C31.95335,60.8743385 31.96105,60.8156308 31.97755,60.7591385 L33.25575,60.7591385 Z" id="Fill-18" fill="#2E2E2F" sketch:type="MSShapeGroup"></path>
                <path d="M28.13492,55.1011569 L32.61632,55.1011569 L37.09662,55.1011569 C37.88312,58.28688 34.28942,60.1976492 33.03432,60.7592492 L32.19832,60.7592492 C30.94322,60.1976492 27.34842,58.28688 28.13492,55.1011569" id="Fill-20" fill="#2E2E2F" sketch:type="MSShapeGroup"></path>
            </g>
        </g>
    </g>
</svg>
