<?xml version="1.0" encoding="UTF-8" standalone="no"?>
<!--

    Copyright (C) 2017-2018 Dremio Corporation

    Licensed under the Apache License, Version 2.0 (the "License");
    you may not use this file except in compliance with the License.
    You may obtain a copy of the License at

        http://www.apache.org/licenses/LICENSE-2.0

    Unless required by applicable law or agreed to in writing, software
    distributed under the License is distributed on an "AS IS" BASIS,
    WITHOUT WARRANTIES OR CONDITIONS OF ANY KIND, either express or implied.
    See the License for the specific language governing permissions and
    limitations under the License.

-->
<svg width="110px" height="110px" viewBox="0 0 110 110" version="1.1" xmlns="http://www.w3.org/2000/svg" xmlns:xlink="http://www.w3.org/1999/xlink" xmlns:sketch="http://www.bohemiancoding.com/sketch/ns">
    <!-- Generator: Sketch 3.5.2 (25235) - http://www.bohemiancoding.com/sketch -->
    <title>Avatar/Bird</title>
    <desc>Created with Sketch.</desc>
    <defs>
        <path id="path-1" d="M0,0.446596491 L87.0294118,0.446596491 L87.0294118,74 L0,74"></path>
        <path id="path-3" d="M0,0.446596491 L87.0294118,0.446596491 L87.0294118,74 L0,74"></path>
        <path id="path-5" d="M0,0.446596491 L87.0294118,0.446596491 L87.0294118,74 L0,74"></path>
        <path id="path-7" d="M0,0.446596491 L87.0294118,0.446596491 L87.0294118,74 L0,74"></path>
        <path id="path-9" d="M0,0.446596491 L87.0294118,0.446596491 L87.0294118,74 L0,74"></path>
    </defs>
    <g id="Avatars" stroke="none" stroke-width="1" fill="none" fill-rule="evenodd" sketch:type="MSPage">
        <g id="Avatar/Bird" sketch:type="MSArtboardGroup">
            <g id="Background-Circle" sketch:type="MSLayerGroup" fill="#46B4D5">
                <circle id="Aqua" sketch:type="MSShapeGroup" cx="55" cy="55" r="55"></circle>
            </g>
            <g id="Page-1" sketch:type="MSLayerGroup" transform="translate(11.000000, 17.000000)">
                <g id="Group-3">
                    <mask id="mask-2" sketch:name="Clip 2" fill="white">
                        <use xlink:href="#path-1"></use>
                    </mask>
                    <g id="Clip-2"></g>
                    <path d="M18.2238941,25.888186 C17.7127176,14.2636947 21.9095412,10.3897298 21.9095412,10.3897298 C21.9095412,10.3897298 27.7447176,23.2670281 27.6864824,41.274993 C27.6864824,41.274993 19.6008353,46.2070281 10.0062471,39.2964667 C0.409070588,32.384607 0.000129411765,26.5905368 0.000129411765,26.5905368 C0.000129411765,26.5905368 5.20507059,27.8991684 12.4909529,31.5459404 C7.00389412,21.294993 9.11201176,15.9773789 9.11201176,15.9773789 C9.11201176,15.9773789 13.2324824,19.4281158 18.2238941,25.888186 M59.3341294,41.274993 C59.3341294,41.274993 67.4184824,46.2070281 77.0156588,39.2964667 C86.6115412,32.384607 87.0295412,26.5905368 87.0295412,26.5905368 C87.0295412,26.5905368 81.8155412,27.8991684 74.5296588,31.5459404 C80.0180118,21.2962912 77.9163647,15.9773789 77.9163647,15.9773789 C77.9163647,15.9773789 73.7881294,19.4268175 68.8057765,25.888186 C69.3091882,14.2636947 65.1123647,10.3897298 65.1123647,10.3897298 C65.1123647,10.3897298 59.2758941,23.2670281 59.3341294,41.274993" id="Fill-1" fill="#C9C8C9" sketch:type="MSShapeGroup" mask="url(#mask-2)"></path>
                </g>
                <g id="Group-6">
                    <mask id="mask-4" sketch:name="Clip 5" fill="white">
                        <use xlink:href="#path-3"></use>
                    </mask>
                    <g id="Clip-5"></g>
                    <path d="M60.6188,25.2834632 L60.6188,17.6095333 C60.6188,8.16998947 52.9200941,0.446726316 43.5105647,0.446726316 C34.1023294,0.446726316 26.4036235,8.16998947 26.4036235,17.6095333 L26.4036235,25.2834632 C18.9378588,30.1557789 14.0732706,38.1296035 14.0732706,47.1420246 C14.0732706,61.9744807 27.2525647,74.0001298 43.5105647,74.0001298 C59.7698588,74.0001298 72.9517412,61.9744807 72.9517412,47.1420246 C72.9517412,38.1296035 68.0832706,30.1557789 60.6188,25.2834632" id="Fill-4" fill="#EF7721" sketch:type="MSShapeGroup" mask="url(#mask-4)"></path>
                </g>
                <path d="M69.0180118,60.5643263 C71.5169529,56.6150632 72.9521294,52.0322561 72.9521294,47.1417649 C72.9521294,38.1306421 68.0836588,30.1568175 60.6191882,25.2845018 C58.6262471,29.1104316 57.4977765,33.4621509 57.4977765,38.0787123 C57.4977765,47.3442912 62.0401294,55.5453088 69.0180118,60.5643263" id="Fill-7" fill="#C05F28" sketch:type="MSShapeGroup"></path>
                <g id="Group-11">
                    <mask id="mask-6" sketch:name="Clip 10" fill="white">
                        <use xlink:href="#path-5"></use>
                    </mask>
                    <g id="Clip-10"></g>
                    <path d="M43.5109529,0.446985965 L43.5109529,0.446985965 L43.5109529,74.0003895 C27.2516588,74.0003895 14.0736588,61.9747404 14.0736588,47.1422842 C14.0736588,38.1298632 18.9382471,30.1547404 26.4027176,25.2837228 L26.4027176,17.609793 C26.4027176,8.17024912 34.1027176,0.446985965 43.5109529,0.446985965" id="Fill-9" fill="#F68E2C" sketch:type="MSShapeGroup" mask="url(#mask-6)"></path>
                </g>
                <path d="M17.875,60.3519333 C15.455,56.4520035 14.0728824,51.9431965 14.0728824,47.1422842 C14.0728824,38.2570912 18.8015882,30.3806351 26.0913529,25.4914421 C28.0157059,29.2680386 29.1027647,33.5457579 29.1027647,38.0779333 C29.1027647,47.214986 24.695,55.3160386 17.875,60.3519333" id="Fill-12" fill="#EF7721" sketch:type="MSShapeGroup"></path>
                <path d="M37.1149059,9.02812982 C41.0904353,9.02812982 44.3231412,12.2607614 44.3231412,16.2489719 C44.3231412,20.2384807 41.0904353,23.4711123 37.1149059,23.4711123 C33.1406706,23.4711123 29.9222,20.2384807 29.9222,16.2489719 C29.9222,12.2607614 33.1406706,9.02812982 37.1149059,9.02812982" id="Fill-14" fill="#FFFFFF" sketch:type="MSShapeGroup"></path>
                <path d="M49.9044118,9.02812982 C53.8799412,9.02812982 57.1022941,12.2607614 57.1022941,16.2489719 C57.1022941,20.2384807 53.8799412,23.4711123 49.9044118,23.4711123 C45.9288824,23.4711123 42.7065294,20.2384807 42.7065294,16.2489719 C42.7065294,12.2607614 45.9288824,9.02812982 49.9044118,9.02812982" id="Fill-16" fill="#FFFFFF" sketch:type="MSShapeGroup"></path>
                <path d="M49.9044118,13.6302807 C51.3473529,13.6302807 52.5185294,14.8025965 52.5185294,16.2501404 C52.5185294,17.696386 51.3473529,18.8687018 49.9044118,18.8687018 C48.4627647,18.8687018 47.2928824,17.696386 47.2928824,16.2501404 L49.9044118,16.2501404 L49.9044118,13.6302807 Z" id="Fill-18" fill="#2E2E2F" sketch:type="MSShapeGroup"></path>
                <path d="M37.1149059,13.6302807 C38.5578471,13.6302807 39.7264353,14.8025965 39.7264353,16.2501404 C39.7264353,17.696386 38.5578471,18.8687018 37.1149059,18.8687018 C35.6745529,18.8687018 34.5033765,17.696386 34.5033765,16.2501404 L37.1149059,16.2501404 L37.1149059,13.6302807 Z" id="Fill-20" fill="#2E2E2F" sketch:type="MSShapeGroup"></path>
                <path d="M43.5109529,19.0413684 C47.7789529,19.0413684 53.6050706,23.2334035 51.2394235,26.7944912 L43.5109529,38.4241754 L35.7824824,26.7944912 C33.4155412,23.2321053 39.2533059,19.0413684 43.5109529,19.0413684" id="Fill-22" fill="#F6B726" sketch:type="MSShapeGroup"></path>
                <g id="Group-26">
                    <mask id="mask-8" sketch:name="Clip 25" fill="white">
                        <use xlink:href="#path-7"></use>
                    </mask>
                    <g id="Clip-25"></g>
                    <path d="M37.3145882,48.1149298 L36.7736471,48.2616316 C36.9509412,48.211 37.1321176,48.1616667 37.3145882,48.1149298 M20.306,63.671807 C25.6947059,69.9579123 34.0844706,74.0006491 43.5108235,74.0006491 L43.5108235,47.3268947 C43.3205882,47.3268947 43.1355294,47.3307895 42.9401176,47.333386 L42.7382353,47.3398772 L42.3603529,47.3541579 L42.1377647,47.3658421 C42.0044706,47.3736316 41.8672941,47.3827193 41.7352941,47.391807 L41.5787059,47.402193 C41.3910588,47.4164737 41.2047059,47.4333509 41.0170588,47.4515263 L40.8708235,47.4684035 C40.7271765,47.4839825 40.5874118,47.4982632 40.4489412,47.5164386 L40.2561176,47.5424035 C40.1228235,47.5592807 39.9882353,47.5787544 39.8575294,47.5982281 L39.6931765,47.6215965 C39.5262353,47.6488596 39.3618824,47.6774211 39.2001176,47.7059825 L39.1470588,47.7150702 C38.9529412,47.7475263 38.7704706,47.7838772 38.588,47.8202281 L38.4249412,47.8552807 L38.0147059,47.9448596 L37.8632941,47.9799123 C37.7170588,48.0136667 37.5695294,48.0500175 37.4232941,48.0876667 L37.3145882,48.1149298 C37.1321176,48.1616667 36.9509412,48.211 36.7736471,48.2616316 L36.7581176,48.2655263 L36.7167059,48.279807 C36.5588235,48.3265439 36.3970588,48.3732807 36.2352941,48.4213158 L36.0735294,48.4732456 L35.7021176,48.5939825 L35.5170588,48.6562982 C35.3992941,48.6965439 35.2815294,48.7380877 35.1637647,48.7809298 L34.9942353,48.8445439 C34.8272941,48.9042632 34.6707059,48.9652807 34.5037647,49.030193 L34.3471765,49.093807 C34.2255294,49.1418421 34.1064706,49.1898772 33.9912941,49.2379123 L33.7932941,49.3222982 L33.4904706,49.4560175 L33.2937647,49.5455965 C33.1643529,49.6027193 33.0375294,49.6637368 32.9094118,49.7234561 L32.8175294,49.7675965 L32.7981176,49.7766842 C32.6441176,49.8519825 32.4914118,49.9272807 32.3387059,50.0051754 L32.1355294,50.1116316 L31.8676471,50.2544386 L31.658,50.367386 L31.3668235,50.5296667 L31.1752941,50.6400175 C31.0303529,50.7244035 30.8841176,50.811386 30.7404706,50.8983684 L30.6058824,50.9814561 L30.2965882,51.176193 L30.0882353,51.3125088 L29.8358824,51.477386 L29.6495294,51.6059123 L29.3648235,51.8006491 L29.1991765,51.9174912 C29.0645882,52.0148596 28.93,52.1122281 28.7967059,52.2108947 L28.5896471,52.3692807 L28.3903529,52.5237719 L28.1612941,52.7029298 L27.9555294,52.8704035 L27.7691765,53.0287895 L27.5025882,53.2494912 L27.2295294,53.4883684 L26.9914118,53.697386 L26.7895294,53.8830351 L26.6005882,54.062193 L26.4,54.2530351 L26.2084706,54.4399825 L26.0298824,54.6165439 L25.7607059,54.8930702 L25.5083529,55.1605088 L25.3284706,55.3539474 L25.1343529,55.5694561 L24.9829412,55.7421228 L24.7888235,55.9641228 L24.6270588,56.1549649 L24.4523529,56.3652807 C24.354,56.4847193 24.2647059,56.6067544 24.1611765,56.7287895 L24.156,56.7352807 L23.9709412,56.9728596 L23.8337647,57.1533158 L23.6448235,57.4064737 L23.5374118,57.5544737 C23.4688235,57.6505439 23.4002353,57.7453158 23.3316471,57.841386 L23.2941176,57.9062982 C23.0534118,58.2438421 22.8269412,58.5865789 22.6095294,58.9345088 L22.5150588,59.0825088 L22.3325882,59.3862982 L22.2691765,59.4940526 C22.0634118,59.8432807 21.8654118,60.2002982 21.6764706,60.5599123 L21.6221176,60.6728596 L21.4590588,60.9987193 L21.3827059,61.1324386 C21.3270588,61.2440877 21.274,61.3570351 21.2209412,61.4686842 L21.1678824,61.5842281 C20.9944706,61.9542281 20.8314118,62.3307193 20.6761176,62.7111053 L20.6269412,62.8279474 L20.4936471,63.1667895 L20.438,63.3160877 C20.3927059,63.4342281 20.35,63.5523684 20.306,63.671807" id="Fill-24" fill="#FFFFFF" sketch:type="MSShapeGroup" mask="url(#mask-8)"></path>
                </g>
                <g id="Group-29">
                    <mask id="mask-10" sketch:name="Clip 28" fill="white">
                        <use xlink:href="#path-9"></use>
                    </mask>
                    <g id="Clip-28"></g>
                    <path d="M49.7086118,48.1149298 L50.2534353,48.2616316 C50.0696706,48.211 49.8897882,48.1616667 49.7086118,48.1149298 M66.7146118,63.671807 C61.3259059,69.9579123 52.9361412,74.0006491 43.5110824,74.0006491 L43.5110824,47.3268947 C43.7013176,47.3268947 43.8915529,47.3307895 44.0804941,47.333386 L44.2836706,47.3398772 L44.6602588,47.3541579 L44.8828471,47.3658421 C45.0239059,47.3736316 45.1546118,47.3827193 45.2943765,47.391807 L45.4432,47.402193 C45.6308471,47.4164737 45.8172,47.4333509 46.0022588,47.4515263 L46.1562588,47.4684035 C46.2934353,47.4839825 46.4332,47.4982632 46.5716706,47.5164386 L46.7644941,47.5424035 C46.8990824,47.5592807 47.0323765,47.5787544 47.1643765,47.5982281 L47.3261412,47.6215965 C47.4956706,47.6488596 47.6652,47.6774211 47.8295529,47.7059825 L47.8852,47.7150702 C48.0676706,47.7475263 48.2592,47.7838772 48.4339059,47.8202281 L48.5956706,47.8552807 L49.0110824,47.9448596 L49.1560235,47.9799123 C49.3048471,48.0136667 49.4523765,48.0500175 49.6063765,48.0876667 L49.7086118,48.1149298 C49.8897882,48.1616667 50.0696706,48.211 50.2534353,48.2616316 L50.2612,48.2655263 L50.3090824,48.279807 C50.4708471,48.3265439 50.6287294,48.3732807 50.7943765,48.4213158 L50.9522588,48.4732456 L51.3184941,48.5939825 L51.5048471,48.6562982 C51.6226118,48.6965439 51.7390824,48.7380877 51.8568471,48.7809298 L52.0341412,48.8445439 C52.1946118,48.9042632 52.3576706,48.9652807 52.5181412,49.030193 L52.6812,49.093807 C52.7963765,49.1418421 52.9128471,49.1898772 53.0306118,49.2379123 L53.2273176,49.3222982 L53.5314353,49.4560175 L53.7281412,49.5455965 C53.8640235,49.6027193 53.9843765,49.6637368 54.1099059,49.7234561 L54.2030824,49.7675965 L54.2224941,49.7766842 C54.3752,49.8519825 54.5292,49.9272807 54.6819059,50.0051754 L54.8863765,50.1116316 L55.1581412,50.2544386 L55.3613176,50.367386 L55.6537882,50.5296667 L55.8440235,50.6400175 C55.9902588,50.7244035 56.1377882,50.811386 56.2814353,50.8983684 L56.4147294,50.9814561 L56.7240235,51.176193 L56.9414353,51.3125088 L57.1847294,51.477386 L57.3762588,51.6059123 L57.6570824,51.8006491 L57.8201412,51.9174912 C57.9650824,52.0148596 58.0906118,52.1122281 58.2355529,52.2108947 L58.4309647,52.3692807 L58.6315529,52.5237719 L58.8593176,52.7029298 L59.0650824,52.8704035 L59.2592,53.0287895 L59.5180235,53.2494912 L59.7988471,53.4883684 L60.0292,53.697386 L60.2310824,53.8830351 L60.4213176,54.062193 L60.6219059,54.2530351 L60.8237882,54.4399825 L60.9907294,54.6165439 L61.2612,54.8930702 L61.5239059,55.1605088 L61.6934353,55.3539474 L61.8875529,55.5694561 L62.0389647,55.7421228 L62.2317882,55.9641228 L62.3935529,56.1549649 L62.5669647,56.3652807 C62.6666118,56.4847193 62.7649647,56.6067544 62.8710824,56.7287895 L62.8710824,56.7352807 L63.0496706,56.9728596 L63.1946118,57.1533158 L63.3757882,57.4064737 L63.4832,57.5544737 C63.5530824,57.6505439 63.6216706,57.7453158 63.6889647,57.841386 L63.7355529,57.9062982 C63.9672,58.2438421 64.1949647,58.5865789 64.4123765,58.9345088 L64.5042588,59.0825088 L64.6880235,59.3862982 L64.7592,59.4940526 C64.9584941,59.8432807 65.1552,60.2002982 65.3532,60.5599123 L65.4062588,60.6728596 L65.5706118,60.9987193 L65.6379059,61.1324386 C65.6909647,61.2440877 65.7466118,61.3570351 65.7996706,61.4686842 L65.8527294,61.5842281 C66.0261412,61.9542281 66.1892,62.3307193 66.3457882,62.7111053 L66.3923765,62.8279474 L66.5256706,63.1667895 L66.5839059,63.3160877 C66.6266118,63.4342281 66.6706118,63.5523684 66.7146118,63.671807" id="Fill-27" fill="#E3E4E4" sketch:type="MSShapeGroup" mask="url(#mask-10)"></path>
                </g>
            </g>
        </g>
    </g>
</svg>
