<?xml version="1.0" encoding="UTF-8" standalone="no"?>
<!--

    Copyright (C) 2017-2018 Dremio Corporation

    Licensed under the Apache License, Version 2.0 (the "License");
    you may not use this file except in compliance with the License.
    You may obtain a copy of the License at

        http://www.apache.org/licenses/LICENSE-2.0

    Unless required by applicable law or agreed to in writing, software
    distributed under the License is distributed on an "AS IS" BASIS,
    WITHOUT WARRANTIES OR CONDITIONS OF ANY KIND, either express or implied.
    See the License for the specific language governing permissions and
    limitations under the License.

-->
<svg width="110px" height="110px" viewBox="0 0 110 110" version="1.1" xmlns="http://www.w3.org/2000/svg" xmlns:xlink="http://www.w3.org/1999/xlink" xmlns:sketch="http://www.bohemiancoding.com/sketch/ns">
    <!-- Generator: Sketch 3.5.2 (25235) - http://www.bohemiancoding.com/sketch -->
    <title>Avatar/BlueDonkey</title>
    <desc>Created with Sketch.</desc>
    <defs>
        <path id="path-1" d="M0,1.31249231 L43.6506667,1.31249231 L43.6506667,86 L0,86"></path>
        <path id="path-3" d="M0,1.31249231 L43.6506667,1.31249231 L43.6506667,86 L0,86"></path>
        <path id="path-5" d="M0,1.31249231 L43.6506667,1.31249231 L43.6506667,86 L0,86"></path>
        <path id="path-7" d="M0,1.31249231 L43.6506667,1.31249231 L43.6506667,86 L0,86 L0,1.31249231 Z"></path>
    </defs>
    <g id="Avatars" stroke="none" stroke-width="1" fill="none" fill-rule="evenodd" sketch:type="MSPage">
        <g id="Avatar/BlueDonkey" sketch:type="MSArtboardGroup">
            <g id="Background-Circle" sketch:type="MSLayerGroup" fill="#C0E9F5">
                <circle id="Light-Blue" sketch:type="MSShapeGroup" cx="55" cy="55" r="55"></circle>
            </g>
            <g id="Page-1" sketch:type="MSLayerGroup" transform="translate(34.000000, 12.000000)">
                <g id="Group-3">
                    <mask id="mask-2" sketch:name="Clip 2" fill="white">
                        <use xlink:href="#path-1"></use>
                    </mask>
                    <g id="Clip-2"></g>
                    <path d="M27.7057333,26.1410892 C27.7057333,17.8943508 29.4817333,5.94961231 34.6377333,2.09019692 L35.6790667,1.31222769 L36.7190667,2.09019692 C39.1484,3.90810462 40.8310667,7.68945846 41.8790667,11.5210892 C43.1150667,16.0526277 43.6510667,21.2126277 43.6510667,26.1397662 C43.6510667,34.3878277 41.8790667,46.3325662 36.7190667,50.1919815 L35.6790667,50.9699508 L34.6377333,50.1906585 C32.2124,48.3727508 30.5270667,44.59272 29.4804,40.7610892 C28.2417333,36.2282277 27.7057333,31.0682277 27.7057333,26.1410892" id="Fill-1" fill="#0080AA" sketch:type="MSShapeGroup" mask="url(#mask-2)"></path>
                </g>
                <path d="M30.1601333,26.1410892 C30.1601333,35.9847815 32.5028,44.2606277 35.6788,46.6381969 L35.6788,46.6368738 C38.8534667,44.2606277 41.1974667,35.9847815 41.1974667,26.1397662 C41.1974667,16.2960738 38.8534667,8.02022769 35.6788,5.64398154 C32.5028,8.02022769 30.1601333,16.2960738 30.1601333,26.1410892" id="Fill-4" fill="#DF3E52" sketch:type="MSShapeGroup"></path>
                <g id="Group-8">
                    <mask id="mask-4" sketch:name="Clip 7" fill="white">
                        <use xlink:href="#path-3"></use>
                    </mask>
                    <g id="Clip-7"></g>
                    <path d="M0,26.1410892 C0,17.8943508 1.776,5.94961231 6.932,2.09019692 L7.97333333,1.31222769 L9.01333333,2.09019692 C11.4426667,3.90810462 13.1253333,7.68945846 14.172,11.5210892 C15.4093333,16.0526277 15.9453333,21.2126277 15.9453333,26.1397662 C15.9453333,34.3878277 14.1693333,46.3325662 9.01333333,50.1919815 L7.97333333,50.9699508 L6.932,50.1906585 C4.504,48.3727508 2.82666667,44.59272 1.77466667,40.7610892 C0.536,36.2282277 0,31.0682277 0,26.1410892" id="Fill-6" fill="#0080AA" sketch:type="MSShapeGroup" mask="url(#mask-4)"></path>
                </g>
                <path d="M2.45306667,26.1410892 C2.45306667,35.9847815 4.79706667,44.2606277 7.97306667,46.6381969 L7.97306667,46.6368738 C11.1477333,44.2606277 13.4930667,35.9847815 13.4930667,26.1397662 C13.4930667,16.2960738 11.1477333,8.02022769 7.97306667,5.64398154 C4.79706667,8.02022769 2.45306667,16.2960738 2.45306667,26.1410892" id="Fill-9" fill="#DF3E52" sketch:type="MSShapeGroup"></path>
                <g id="Group-13">
                    <mask id="mask-6" sketch:name="Clip 12" fill="white">
                        <use xlink:href="#path-5"></use>
                    </mask>
                    <g id="Clip-12"></g>
                    <path d="M21.8516,24.4691169 L21.9529333,24.47044 C22.2436,23.5350246 22.7729333,22.4249631 23.6822667,21.6813938 C25.5516,20.1651477 25.5916,20.4694554 25.5916,21.2646246 C25.5916,21.7316708 25.4969333,23.50724 25.4222667,24.8925015 C35.6716,27.32564 43.4849333,39.9835169 43.4849333,55.2346246 C43.4849333,72.2255785 33.7876,86.0001323 21.8262667,86.0001323 C9.86493333,86.0001323 0.166266667,72.2255785 0.166266667,55.2346246 C0.166266667,40.8990862 7.07026667,28.8537938 16.4116,25.4376092 C16.5516,24.3566554 17.1476,21.0542554 19.3849333,19.2456092 C22.0729333,17.0638554 22.1276,17.4991477 22.1276,18.6462554 C22.1276,19.3885015 21.9649333,22.4262862 21.8516,24.4691169" id="Fill-11" fill="#0080AA" sketch:type="MSShapeGroup" mask="url(#mask-6)"></path>
                </g>
                <path d="M21.8268,86 C9.86413333,86 0.1668,72.2254462 0.1668,55.2344923 C0.1668,40.8989538 7.0708,28.8536615 16.4108,25.4388 C16.5521333,24.3565231 17.1468,21.0541231 19.3854667,19.2454769 C20.8108,18.0851385 21.4974667,17.6657231 21.8268,17.6988 L21.8268,86 Z" id="Fill-14" fill="#008BB0" sketch:type="MSShapeGroup"></path>
                <path d="M21.9413333,57.0899754 C31.136,57.0899754 38.592,62.2671754 38.592,68.6536677 C38.592,75.04016 31.136,80.21736 21.9413333,80.21736 C12.7373333,80.21736 5.28,75.04016 5.28,68.6536677 C5.28,62.2671754 12.7373333,57.0899754 21.9413333,57.0899754" id="Fill-16" fill="#5A5B5C" sketch:type="MSShapeGroup"></path>
                <path d="M21.8268,80.21736 C12.6774667,80.1763446 5.28013333,75.0150215 5.28013333,68.6536677 C5.28013333,62.2936369 12.6774667,57.1323138 21.8268,57.0899754 L21.8268,80.21736 Z" id="Fill-18" fill="#6D6D6E" sketch:type="MSShapeGroup"></path>
                <path d="M32.1197333,64.6182831 C33.5464,64.6182831 34.7024,65.7653908 34.7024,67.1810831 C34.7024,68.5967754 33.5464,69.7452062 32.1197333,69.7452062 C30.6930667,69.7452062 29.5370667,68.5967754 29.5370667,67.1810831 C29.5370667,65.7653908 30.6930667,64.6182831 32.1197333,64.6182831 M10.9557333,64.6182831 C12.3850667,64.6182831 13.5384,65.7653908 13.5384,67.1810831 C13.5384,68.5967754 12.3850667,69.7452062 10.9557333,69.7452062 C9.52906667,69.7452062 8.37173333,68.5967754 8.37173333,67.1810831 C8.37173333,65.7653908 9.52906667,64.6182831 10.9557333,64.6182831" id="Fill-20" fill="#2E2E2F" sketch:type="MSShapeGroup"></path>
                <path d="M11.8268,40.8060738 C14.3094667,40.8060738 16.3308,42.8092123 16.3308,45.2793969 C16.3308,47.7495815 14.3094667,49.75272 11.8268,49.75272 C9.3308,49.75272 7.31213333,47.7495815 7.31213333,45.2793969 C7.31213333,42.8092123 9.3308,40.8060738 11.8268,40.8060738" id="Fill-22" fill="#DFD7C5" sketch:type="MSShapeGroup"></path>
                <path d="M11.8268,42.7725631 C13.2188,42.7725631 14.3468,43.8958554 14.3468,45.2797938 C14.3468,46.6637323 13.2188,47.7870246 11.8268,47.7870246 C10.4254667,47.7870246 9.2948,46.6637323 9.2948,45.2797938 L11.8268,45.2797938 L11.8268,42.7725631 Z" id="Fill-24" fill="#2E2E2F" sketch:type="MSShapeGroup"></path>
                <path d="M31.8306667,40.8060738 C34.3306667,40.8060738 36.3386667,42.8092123 36.3386667,45.2793969 C36.3386667,47.7495815 34.3306667,49.75272 31.8306667,49.75272 C29.3413333,49.75272 27.3306667,47.7495815 27.3306667,45.2793969 C27.3306667,42.8092123 29.3413333,40.8060738 31.8306667,40.8060738" id="Fill-26" fill="#DFD7C5" sketch:type="MSShapeGroup"></path>
                <path d="M31.8306667,42.7725631 C33.2266667,42.7725631 34.3573333,43.8958554 34.3573333,45.2797938 C34.3573333,46.6637323 33.2266667,47.7870246 31.8306667,47.7870246 C30.44,47.7870246 29.304,46.6637323 29.304,45.2797938 L31.8306667,45.2797938 L31.8306667,42.7725631 Z" id="Fill-28" fill="#2E2E2F" sketch:type="MSShapeGroup"></path>
                <mask id="mask-8" sketch:name="Clip 31" fill="white">
                    <use xlink:href="#path-7"></use>
                </mask>
                <g id="Clip-31"></g>
                <path d="M18.1973333,77.0004308 L21.9413333,77.0004308 L21.9413333,82.0188615 L18.1973333,82.0188615 L18.1973333,77.0004308 Z" id="Fill-30" fill="#FFFFFF" sketch:type="MSShapeGroup" mask="url(#mask-8)"></path>
                <path d="M25.6746667,77.0004308 L21.9413333,77.0004308 L21.9413333,82.0188615 L25.6746667,82.0188615 L25.6746667,77.0004308 Z" id="Fill-32" fill="#E3E4E4" sketch:type="MSShapeGroup" mask="url(#mask-8)"></path>
            </g>
        </g>
    </g>
</svg>
