<?xml version="1.0" encoding="UTF-8" standalone="no"?>
<!--

    Copyright (C) 2017-2018 Dremio Corporation

    Licensed under the Apache License, Version 2.0 (the "License");
    you may not use this file except in compliance with the License.
    You may obtain a copy of the License at

        http://www.apache.org/licenses/LICENSE-2.0

    Unless required by applicable law or agreed to in writing, software
    distributed under the License is distributed on an "AS IS" BASIS,
    WITHOUT WARRANTIES OR CONDITIONS OF ANY KIND, either express or implied.
    See the License for the specific language governing permissions and
    limitations under the License.

-->
<svg width="110px" height="110px" viewBox="0 0 110 110" version="1.1" xmlns="http://www.w3.org/2000/svg" xmlns:xlink="http://www.w3.org/1999/xlink" xmlns:sketch="http://www.bohemiancoding.com/sketch/ns">
    <!-- Generator: Sketch 3.5.2 (25235) - http://www.bohemiancoding.com/sketch -->
    <title>Avatar/Boar</title>
    <desc>Created with Sketch.</desc>
    <defs>
        <path id="path-1" d="M0,1.10827907 L83.7027692,1.10827907 L83.7027692,56 L0,56"></path>
        <path id="path-3" d="M0,1.10827907 L83.7027692,1.10827907 L83.7027692,56 L0,56 L0,1.10827907 Z"></path>
    </defs>
    <g id="Avatars" stroke="none" stroke-width="1" fill="none" fill-rule="evenodd" sketch:type="MSPage">
        <g id="Avatar/Boar" sketch:type="MSArtboardGroup">
            <g id="Background-Circle" sketch:type="MSLayerGroup" fill="#C0E9F5">
                <circle id="Light-Blue" sketch:type="MSShapeGroup" cx="55" cy="55" r="55"></circle>
            </g>
            <g id="Page-1" sketch:type="MSLayerGroup" transform="translate(13.000000, 28.000000)">
                <path d="M79.0999538,5.24498605 L68.0957231,5.37261395 C66.4061846,5.39214884 64.9049538,6.3115907 64.1203385,7.80405581 L59.0308,17.5220093 C58.2841077,18.9467535 58.3429538,20.6124279 59.1877231,21.9824744 C60.0324923,23.3525209 61.4984154,24.1573581 63.1121077,24.1391256 L74.1163385,24.0101953 C75.8058769,23.9919628 77.3110308,23.0712186 78.0917231,21.5787535 L83.1812615,11.8608 C83.9266462,10.4347535 83.8704154,8.7703814 83.0243385,7.40033488 C82.1795692,6.03028837 80.7136462,5.22545116 79.0999538,5.24498605" id="Fill-1" fill="#A0895F" sketch:type="MSShapeGroup"></path>
                <path d="M79.1344769,8.13823256 L68.1289385,8.26586047 C67.5195538,8.27367442 66.9834,8.59665116 66.6983231,9.14232558 L61.6074769,18.8602791 C61.3328615,19.383814 61.3616308,19.9672558 61.6637077,20.4686512 C61.9736308,20.9713488 62.4862462,21.2513488 63.0786308,21.2448372 L74.0828615,21.1172093 C74.7118615,21.1093953 75.2297077,20.7864186 75.5147846,20.2407442 L80.6043231,10.5227907 C80.8789385,9.99925581 80.8593231,9.41711628 80.5480923,8.91572093 C80.2394769,8.41302326 79.7255538,8.1304186 79.1344769,8.13823256" id="Fill-3" fill="#2E2E2F" sketch:type="MSShapeGroup"></path>
                <path d="M4.60229231,5.24498605 L15.6065231,5.37261395 C17.2960615,5.39214884 18.8077538,6.3115907 19.5819077,7.80405581 L24.6714462,17.5220093 C25.4181385,18.9467535 25.3592923,20.6124279 24.5145231,21.9824744 C23.6684462,23.3525209 22.2038308,24.1573581 20.5901385,24.1391256 L9.58590769,24.0101953 C7.89636923,23.9919628 6.39121538,23.0712186 5.61052308,21.5787535 L0.520984615,11.8608 C-0.2244,10.4347535 -0.166861538,8.7703814 0.677907692,7.40033488 C1.52398462,6.03028837 2.9886,5.22545116 4.60229231,5.24498605" id="Fill-5" fill="#A0895F" sketch:type="MSShapeGroup"></path>
                <path d="M4.5679,8.13823256 L15.5721308,8.26586047 C16.1932846,8.27367442 16.7189769,8.59665116 17.0066692,9.14232558 L22.0949,18.8602791 C22.3695154,19.383814 22.3499,19.9672558 22.0386692,20.4686512 C21.7287462,20.9713488 21.2161308,21.2513488 20.6237462,21.2448372 L9.61951538,21.1172093 C9.00097692,21.1093953 8.47266923,20.7864186 8.18759231,20.2407442 L3.09805385,10.5227907 C2.82343846,9.99925581 2.84436154,9.41711628 3.15428462,8.91572093 C3.46420769,8.41302326 3.97551538,8.1304186 4.5679,8.13823256" id="Fill-7" fill="#2E2E2F" sketch:type="MSShapeGroup"></path>
                <g id="Group-11">
                    <mask id="mask-2" sketch:name="Clip 10" fill="white">
                        <use xlink:href="#path-1"></use>
                    </mask>
                    <g id="Clip-10"></g>
                    <path d="M41.8524308,1.10775814 C57.0726615,1.10775814 69.4107385,13.3965023 69.4107385,28.5542698 C69.4107385,43.7120372 57.0726615,55.9994791 41.8524308,55.9994791 C26.6308923,55.9994791 14.2928154,43.7120372 14.2928154,28.5542698 C14.2928154,13.3965023 26.6308923,1.10775814 41.8524308,1.10775814" id="Fill-9" fill="#D1BC89" sketch:type="MSShapeGroup" mask="url(#mask-2)"></path>
                </g>
                <g id="Group-14">
                    <mask id="mask-4" sketch:name="Clip 13" fill="white">
                        <use xlink:href="#path-3"></use>
                    </mask>
                    <g id="Clip-13"></g>
                    <path d="M41.8524308,1.10775814 C57.0726615,1.10775814 69.4107385,13.3965023 69.4107385,28.5542698 C69.4107385,43.7120372 57.0726615,55.9994791 41.8524308,55.9994791 L41.8524308,1.10775814 Z" id="Fill-12" fill="#C9AC79" sketch:type="MSShapeGroup" mask="url(#mask-4)"></path>
                </g>
                <path d="M57.6187538,14.8470326 C59.8169846,14.8470326 61.5993692,16.6221023 61.5993692,18.812614 C61.5993692,21.0018233 59.8169846,22.776893 57.6187538,22.776893 C55.4231385,22.776893 53.6368308,21.0018233 53.6368308,18.812614 L57.6187538,18.812614 L57.6187538,14.8470326 Z M26.0850615,14.8470326 C28.2885231,14.8470326 30.0656769,16.6221023 30.0656769,18.812614 C30.0656769,21.0018233 28.2885231,22.776893 26.0850615,22.776893 C23.8855231,22.776893 22.1044462,21.0018233 22.1044462,18.812614 L26.0850615,18.812614 L26.0850615,14.8470326 Z" id="Fill-15" fill="#2E2E2F" sketch:type="MSShapeGroup"></path>
                <path d="M53.2143154,37.969693 C53.2143154,37.969693 57.4708538,34.2163907 55.9094692,30.4500651 C54.3507,26.6837395 52.5879308,26.2109953 52.5879308,26.2109953 C52.5879308,26.2109953 56.1840846,26.0664372 58.3653154,28.5421581 C60.5465462,31.0178791 59.8377769,35.4887628 59.0479308,37.4761116 C58.2554692,39.4634605 53.4889308,40.9207628 53.2143154,37.969693 M30.4879308,37.969693 C30.4879308,37.969693 26.2327,34.2163907 27.7940846,30.4500651 C29.3515462,26.6837395 31.1234692,26.2109953 31.1234692,26.2109953 C31.1234692,26.2109953 27.5247,26.0664372 25.3460846,28.5421581 C23.1648538,31.0178791 23.8710077,35.4887628 24.6556231,37.4761116 C25.4533154,39.4634605 30.2133154,40.9207628 30.4879308,37.969693" id="Fill-17" fill="#FFFFFF" sketch:type="MSShapeGroup"></path>
                <path d="M41.8524308,29.2374698 C50.6270462,29.2374698 57.7252,34.1889116 57.7252,40.2968186 C57.7252,46.4060279 50.6270462,51.3587721 41.8524308,51.3587721 C33.0856615,51.3587721 25.9783538,46.4060279 25.9783538,40.2968186 C25.9783538,34.1889116 33.0856615,29.2374698 41.8524308,29.2374698" id="Fill-19" fill="#A9946E" sketch:type="MSShapeGroup"></path>
                <path d="M41.8524308,51.3585116 L41.8524308,29.2372093 C50.6270462,29.2372093 57.7252,34.1886512 57.7252,40.2965581 C57.7252,46.4057674 50.6270462,51.3585116 41.8524308,51.3585116" id="Fill-21" fill="#A0895F" sketch:type="MSShapeGroup"></path>
                <path d="M50.1136462,36.4479256 C52.5603385,36.4479256 54.5506462,38.4235535 54.5506462,40.8602047 C54.5506462,43.2981581 52.5603385,45.273786 50.1136462,45.273786 C47.6656462,45.273786 45.6805692,43.2981581 45.6805692,40.8602047 C45.6805692,38.4235535 47.6656462,36.4479256 50.1136462,36.4479256 M33.5896462,36.4479256 C36.0376462,36.4479256 38.0214154,38.4235535 38.0214154,40.8602047 C38.0214154,43.2981581 36.0376462,45.273786 33.5896462,45.273786 C31.1429538,45.273786 29.1604923,43.2981581 29.1604923,40.8602047 C29.1604923,38.4235535 31.1429538,36.4479256 33.5896462,36.4479256" id="Fill-23" fill="#2E2E2F" sketch:type="MSShapeGroup"></path>
            </g>
        </g>
    </g>
</svg>
