<?xml version="1.0" encoding="UTF-8" standalone="no"?>
<!--

    Copyright (C) 2017-2018 Dremio Corporation

    Licensed under the Apache License, Version 2.0 (the "License");
    you may not use this file except in compliance with the License.
    You may obtain a copy of the License at

        http://www.apache.org/licenses/LICENSE-2.0

    Unless required by applicable law or agreed to in writing, software
    distributed under the License is distributed on an "AS IS" BASIS,
    WITHOUT WARRANTIES OR CONDITIONS OF ANY KIND, either express or implied.
    See the License for the specific language governing permissions and
    limitations under the License.

-->
<svg width="110px" height="110px" viewBox="0 0 110 110" version="1.1" xmlns="http://www.w3.org/2000/svg" xmlns:xlink="http://www.w3.org/1999/xlink" xmlns:sketch="http://www.bohemiancoding.com/sketch/ns">
    <!-- Generator: Sketch 3.5.2 (25235) - http://www.bohemiancoding.com/sketch -->
    <title>Avatar/Bull-Brown</title>
    <desc>Created with Sketch.</desc>
    <defs>
        <path id="path-1" d="M0,0.424836066 L76.8096,0.424836066 L76.8096,73 L0,73"></path>
        <path id="path-3" d="M0,0.424836066 L76.8096,0.424836066 L76.8096,73 L0,73"></path>
    </defs>
    <g id="Avatars" stroke="none" stroke-width="1" fill="none" fill-rule="evenodd" sketch:type="MSPage">
        <g id="Avatar/Bull-Brown" sketch:type="MSArtboardGroup">
            <g id="Background-Circle" sketch:type="MSLayerGroup" fill="#3ACBAC">
                <circle id="Green" sketch:type="MSShapeGroup" cx="55" cy="55" r="55"></circle>
            </g>
            <g id="Page-1" sketch:type="MSLayerGroup" transform="translate(17.000000, 19.000000)">
                <path d="M58.85328,25.3531393 C63.41928,22.7239426 70.94208,20.4824836 75.71808,23.8069754 L76.67928,24.4771393 L76.78008,25.6439426 C77.01648,28.368877 75.78168,31.0615 74.19528,33.2072213 C72.31968,35.7466639 69.73368,37.8660574 67.00968,39.4373525 C62.43648,42.0665492 54.91368,44.3080082 50.13768,40.9835164 L49.17648,40.3133525 L49.07568,39.1453525 C48.84048,36.4216148 50.07408,33.7289918 51.66168,31.5832705 C53.53728,29.0438279 56.12208,26.9244344 58.85328,25.3531393" id="Fill-1" fill="#8E5523" sketch:type="MSShapeGroup"></path>
                <path d="M60.62868,28.4221311 C56.18388,30.9807213 53.42508,34.8198033 53.67468,37.7218525 C56.07228,39.3924754 60.78348,38.9269508 65.22948,36.3683607 C69.67308,33.8097705 72.43188,29.9706885 72.18108,27.0674426 C69.78588,25.3992131 65.07228,25.863541 60.62868,28.4221311" id="Fill-3" fill="#D1BC89" sketch:type="MSShapeGroup"></path>
                <path d="M17.95836,25.3531393 C13.38996,22.7239426 5.86716,20.4824836 1.09236,23.8069754 L0.12996,24.4771393 L0.02916,25.6439426 C-0.20604,28.368877 1.02756,31.0615 2.61516,33.2072213 C4.49076,35.7466639 7.07676,37.8660574 9.80916,39.4373525 C14.37276,42.0665492 21.89556,44.3080082 26.67156,40.9835164 L27.63396,40.3133525 L27.73356,39.1453525 C27.96996,36.4216148 26.73516,33.7289918 25.15836,31.5832705 C23.27196,29.0438279 20.68716,26.9244344 17.95836,25.3531393" id="Fill-5" fill="#8E5523" sketch:type="MSShapeGroup"></path>
                <path d="M16.18176,28.4221311 C20.62536,30.9807213 23.38536,34.8198033 23.13576,37.7218525 L23.13456,37.7218525 C20.73816,39.3924754 16.02576,38.9269508 11.58096,36.3683607 C7.13736,33.8097705 4.37856,29.9706885 4.62936,27.0674426 C7.02456,25.3992131 11.73816,25.863541 16.18176,28.4221311" id="Fill-7" fill="#D1BC89" sketch:type="MSShapeGroup"></path>
                <path d="M38.40636,73 C51.60996,73 62.37996,59.4375574 62.37996,42.8103115 C62.37996,26.1830656 51.60996,12.6218197 38.40636,12.6218197 C25.20636,12.6218197 14.43156,26.1830656 14.43156,42.8103115 C14.43156,59.4375574 25.20636,73 38.40636,73" id="Fill-9" fill="#996539" sketch:type="MSShapeGroup"></path>
                <path d="M38.40636,12.6215803 C51.64476,12.6215803 62.37996,26.1373508 62.37996,42.8100721 C62.37996,59.4827934 51.64476,72.9997607 38.40636,72.9997607 L38.40636,12.6215803 Z" id="Fill-11" fill="#8E5523" sketch:type="MSShapeGroup"></path>
                <path d="M38.40636,67.8894016 C47.78676,67.8894016 55.43916,62.5508279 55.43916,56.0035656 C55.43916,49.4575 47.78676,44.1177295 38.40636,44.1177295 C29.02356,44.1177295 21.37116,49.4575 21.37116,56.0035656 C21.37116,62.5508279 29.02356,67.8894016 38.40636,67.8894016" id="Fill-13" fill="#D1BC89" sketch:type="MSShapeGroup"></path>
                <path d="M28.1724,37.2771508 C30.7116,37.2771508 32.7828,35.2116098 32.7828,32.6805443 C32.7828,30.148282 30.7116,28.082741 28.1724,28.082741 C25.6344,28.082741 23.562,30.148282 23.562,32.6805443 C23.562,35.2116098 25.6344,37.2771508 28.1724,37.2771508" id="Fill-15" fill="#FFFFFF" sketch:type="MSShapeGroup"></path>
                <path d="M28.1724,30.1037639 C29.6088,30.1037639 30.7596,31.2574033 30.7596,32.6803049 C30.7596,34.1032066 29.6088,35.2568459 28.1724,35.2568459 C26.7456,35.2568459 25.59,34.1032066 25.59,32.6803049 L28.1724,32.6803049 L28.1724,30.1037639 Z" id="Fill-17" fill="#2E2E2F" sketch:type="MSShapeGroup"></path>
                <path d="M48.63684,37.2771508 C51.17604,37.2771508 53.24724,35.2116098 53.24724,32.6805443 C53.24724,30.148282 51.17604,28.082741 48.63684,28.082741 C46.09764,28.082741 44.02644,30.148282 44.02644,32.6805443 C44.02644,35.2116098 46.09764,37.2771508 48.63684,37.2771508" id="Fill-19" fill="#E3E4E4" sketch:type="MSShapeGroup"></path>
                <path d="M48.63684,30.1037639 C50.06364,30.1037639 51.22044,31.2574033 51.22044,32.6803049 C51.22044,34.1032066 50.06364,35.2568459 48.63684,35.2568459 C47.21004,35.2568459 46.05924,34.1032066 46.05924,32.6803049 L48.63684,32.6803049 L48.63684,30.1037639 Z" id="Fill-21" fill="#2E2E2F" sketch:type="MSShapeGroup"></path>
                <path d="M38.40636,67.8894016 L38.40636,44.1177295 C47.81316,44.1177295 55.43916,49.4395492 55.43916,56.0035656 C55.43916,62.567582 47.81316,67.8894016 38.40636,67.8894016" id="Fill-23" fill="#C9AC79" sketch:type="MSShapeGroup"></path>
                <path d="M48.8196,50.2400361 C51.1716,50.2400361 53.082,52.1440197 53.082,54.4907902 C53.082,56.8363639 51.1716,58.7403475 48.8196,58.7403475 C46.4664,58.7403475 44.5596,56.8363639 44.5596,54.4907902 C44.5596,52.1440197 46.4664,50.2400361 48.8196,50.2400361 M27.1752,50.2400361 C29.5284,50.2400361 31.4376,52.1440197 31.4376,54.4907902 C31.4376,56.8363639 29.5284,58.7403475 27.1752,58.7403475 C24.8232,58.7403475 22.9128,56.8363639 22.9128,54.4907902 C22.9128,52.1440197 24.8232,50.2400361 27.1752,50.2400361" id="Fill-25" fill="#2E2E2F" sketch:type="MSShapeGroup"></path>
                <path d="M50.622,54.7453328 C50.706,55.3353164 50.7528,55.9384639 50.7528,56.552382 C50.7528,63.5771361 45.0408,69.2711361 37.998,69.2711361 C30.954,69.2711361 25.2456,63.5771361 25.2456,56.552382 C25.2456,55.9384639 25.2888,55.3353164 25.3716,54.7453328 L25.398,54.7453328 C25.398,53.7472672 26.2104,52.9382836 27.2112,52.9382836 C28.2108,52.9382836 29.022,53.7472672 29.022,54.7453328 L29.058,54.7453328 L29.0112,54.9403984 C29.0088,55.0133984 28.992,55.0852016 28.9764,55.1546115 C28.9092,55.6105623 28.8684,56.0772836 28.8684,56.552382 C28.8684,61.5798082 32.958,65.655841 37.998,65.655841 C43.0392,65.655841 47.1264,61.5798082 47.1264,56.552382 C47.1264,56.0772836 47.0904,55.6105623 47.0184,55.1546115 C47.0088,55.0840049 46.9908,55.0133984 46.9836,54.9403984 L46.9464,54.7453328 L46.9716,54.7453328 C46.9716,53.7472672 47.784,52.9382836 48.7836,52.9382836 C49.7844,52.9382836 50.5956,53.7472672 50.5956,54.7453328 L50.622,54.7453328 Z" id="Fill-27" fill="#E3E4E4" sketch:type="MSShapeGroup"></path>
                <g id="Group-31">
                    <mask id="mask-2" sketch:name="Clip 30" fill="white">
                        <use xlink:href="#path-1"></use>
                    </mask>
                    <g id="Clip-30"></g>
                    <path d="M24.08484,18.6203852 C24.08484,18.6203852 16.81044,16.869582 14.68644,12.8509918 C12.56484,8.83120492 17.68164,4.49548361 18.76884,3.62307377 C19.85964,2.75066393 23.70684,0.424237705 23.70684,0.424237705 C23.70684,0.424237705 4.79724,2.35454918 3.52404,14.1996967 C2.26044,26.0448443 16.56084,30.3997131 18.84444,30.6546148 C21.12804,30.9095164 26.53644,25.8318279 24.08484,18.6203852" id="Fill-29" fill="#FFFFFF" sketch:type="MSShapeGroup" mask="url(#mask-2)"></path>
                </g>
                <g id="Group-34">
                    <mask id="mask-4" sketch:name="Clip 33" fill="white">
                        <use xlink:href="#path-3"></use>
                    </mask>
                    <g id="Clip-33"></g>
                    <path d="M52.72548,18.6203852 C52.72548,18.6203852 60.00588,16.869582 62.12388,12.8509918 C64.24548,8.83120492 59.12868,4.49548361 58.04148,3.62307377 C56.95788,2.75066393 53.10948,0.424237705 53.10948,0.424237705 C53.10948,0.424237705 72.01308,2.35454918 73.28628,14.1996967 C74.55948,26.0448443 60.25788,30.3997131 57.96588,30.6546148 C55.68228,30.9095164 50.27388,25.8318279 52.72548,18.6203852" id="Fill-32" fill="#E3E4E4" sketch:type="MSShapeGroup" mask="url(#mask-4)"></path>
                </g>
            </g>
        </g>
    </g>
</svg>
