<?xml version="1.0" encoding="UTF-8" standalone="no"?>
<!--

    Copyright (C) 2017-2018 Dremio Corporation

    Licensed under the Apache License, Version 2.0 (the "License");
    you may not use this file except in compliance with the License.
    You may obtain a copy of the License at

        http://www.apache.org/licenses/LICENSE-2.0

    Unless required by applicable law or agreed to in writing, software
    distributed under the License is distributed on an "AS IS" BASIS,
    WITHOUT WARRANTIES OR CONDITIONS OF ANY KIND, either express or implied.
    See the License for the specific language governing permissions and
    limitations under the License.

-->
<svg width="110px" height="110px" viewBox="0 0 110 110" version="1.1" xmlns="http://www.w3.org/2000/svg" xmlns:xlink="http://www.w3.org/1999/xlink" xmlns:sketch="http://www.bohemiancoding.com/sketch/ns">
    <!-- Generator: Sketch 3.5.2 (25235) - http://www.bohemiancoding.com/sketch -->
    <title>Avatar/Bull-White</title>
    <desc>Created with Sketch.</desc>
    <defs></defs>
    <g id="Avatars" stroke="none" stroke-width="1" fill="none" fill-rule="evenodd" sketch:type="MSPage">
        <g id="Avatar/Bull-White" sketch:type="MSArtboardGroup">
            <g id="Background-Circle" sketch:type="MSLayerGroup" fill="#2A394A">
                <circle id="Dark-Blue" sketch:type="MSShapeGroup" cx="55" cy="55" r="55"></circle>
            </g>
            <g id="Page-1" sketch:type="MSLayerGroup" transform="translate(17.000000, 18.000000)">
                <path d="M58.85088,25.2853226 C63.41928,22.6630968 70.94208,20.4275806 75.71808,23.7432581 L76.67928,24.4116452 L76.77888,25.5753548 C77.01648,28.2930645 75.78168,30.9773548 74.19408,33.1185806 C72.31848,35.6512903 69.73368,37.7650645 67.00368,39.3321935 C62.43648,41.9544194 54.91368,44.1887419 50.13768,40.8742581 L49.17528,40.205871 L49.07568,39.0421613 C48.83928,36.3244516 50.07408,33.6389677 51.66048,31.4989355 C53.53728,28.9650323 56.12208,26.8524516 58.85088,25.2853226" id="Fill-1" fill="#E3E4E4" sketch:type="MSShapeGroup"></path>
                <path d="M60.62748,28.3467742 C56.18388,30.8985806 53.42388,34.7274839 53.67468,37.6218387 C56.07108,39.2868387 60.78348,38.8237419 65.22828,36.2719355 C69.67188,33.7189355 72.43188,29.8912258 72.18108,26.9956774 C69.78468,25.331871 65.07228,25.7937742 60.62748,28.3467742" id="Fill-3" fill="#2E2E2F" sketch:type="MSShapeGroup"></path>
                <path d="M17.95836,25.2853226 C13.38996,22.6630968 5.86716,20.4275806 1.09236,23.7432581 L0.12996,24.4116452 L0.02916,25.5753548 C-0.20604,28.2930645 1.02756,30.9773548 2.61396,33.1185806 C4.49076,35.6512903 7.07676,37.7650645 9.80916,39.3321935 C14.37276,41.9544194 21.89556,44.1887419 26.67036,40.8742581 L27.63396,40.205871 L27.73356,39.0421613 C27.96996,36.3244516 26.73516,33.6389677 25.15236,31.4989355 C23.27196,28.9650323 20.68716,26.8524516 17.95836,25.2853226" id="Fill-5" fill="#E3E4E4" sketch:type="MSShapeGroup"></path>
                <path d="M16.18176,28.3467742 C20.62536,30.8985806 23.38416,34.7274839 23.13456,37.6218387 L23.13336,37.6218387 C20.73816,39.2868387 16.02456,38.8237419 11.58096,36.2719355 C7.13736,33.7189355 4.37856,29.8912258 4.62816,26.9956774 L4.62936,26.9956774 C7.02456,25.331871 11.73816,25.7937742 16.18176,28.3467742" id="Fill-7" fill="#2E2E2F" sketch:type="MSShapeGroup"></path>
                <path d="M38.40636,72.8064516 C51.60996,72.8064516 62.37996,59.2799677 62.37996,42.6956129 C62.37996,26.1124516 51.60996,12.5871613 38.40636,12.5871613 C25.20156,12.5871613 14.43156,26.1124516 14.43156,42.6956129 C14.43156,59.2799677 25.20156,72.8064516 38.40636,72.8064516" id="Fill-9" fill="#FFFFFF" sketch:type="MSShapeGroup"></path>
                <path d="M38.40636,12.5870419 C51.64476,12.5870419 62.37996,26.0669774 62.37996,42.6966871 C62.37996,59.3252032 51.64476,72.8063323 38.40636,72.8063323 L38.40636,12.5870419 Z" id="Fill-11" fill="#E3E4E4" sketch:type="MSShapeGroup"></path>
                <path d="M38.40636,67.7088065 C47.78676,67.7088065 55.43916,62.3831935 55.43916,55.8544839 C55.43916,49.3245806 47.78676,44.0001613 38.40636,44.0001613 C29.02356,44.0001613 21.37116,49.3245806 21.37116,55.8544839 C21.37116,62.3831935 29.02356,67.7088065 38.40636,67.7088065" id="Fill-13" fill="#CDCBCB" sketch:type="MSShapeGroup"></path>
                <path d="M28.1724,37.1783161 C30.7116,37.1783161 32.7828,35.1182516 32.7828,32.5927032 C32.7828,30.0671548 30.7116,28.0070903 28.1724,28.0070903 C25.6344,28.0070903 23.562,30.0671548 23.562,32.5927032 C23.562,35.1182516 25.6344,37.1783161 28.1724,37.1783161" id="Fill-15" fill="#C9C8C9" sketch:type="MSShapeGroup"></path>
                <path d="M28.1724,30.0239484 C29.6016,30.0239484 30.7596,31.174529 30.7596,32.5924645 C30.7596,34.0127871 29.6016,35.1633677 28.1724,35.1633677 C26.7456,35.1633677 25.59,34.0127871 25.59,32.5924645 L28.1724,32.5924645 L28.1724,30.0239484 Z" id="Fill-17" fill="#2E2E2F" sketch:type="MSShapeGroup"></path>
                <path d="M48.63684,37.1783161 C51.17604,37.1783161 53.24724,35.1182516 53.24724,32.5927032 C53.24724,30.0671548 51.17604,28.0070903 48.63684,28.0070903 C46.10244,28.0070903 44.02644,30.0671548 44.02644,32.5927032 C44.02644,35.1182516 46.10244,37.1783161 48.63684,37.1783161" id="Fill-19" fill="#C9C8C9" sketch:type="MSShapeGroup"></path>
                <path d="M48.63684,30.0239484 C50.06364,30.0239484 51.22044,31.174529 51.22044,32.5924645 C51.22044,34.0127871 50.06364,35.1633677 48.63684,35.1633677 C47.21004,35.1633677 46.05324,34.0127871 46.05324,32.5924645 L48.63684,32.5924645 L48.63684,30.0239484 Z" id="Fill-21" fill="#2E2E2F" sketch:type="MSShapeGroup"></path>
                <path d="M38.40636,67.7088065 L38.40636,44.0001613 C47.81316,44.0001613 55.43916,49.307871 55.43916,55.8544839 C55.43916,62.4010968 47.81316,67.7088065 38.40636,67.7088065" id="Fill-23" fill="#B8B7B7" sketch:type="MSShapeGroup"></path>
                <path d="M48.81852,50.1068323 C51.17172,50.1068323 53.08092,52.0045742 53.08092,54.3451226 C53.08092,56.685671 51.17172,58.5834129 48.81852,58.5834129 C46.46532,58.5834129 44.55972,56.685671 44.55972,54.3451226 C44.55972,52.0045742 46.46532,50.1068323 48.81852,50.1068323 M27.17412,50.1068323 C29.52732,50.1068323 31.43652,52.0045742 31.43652,54.3451226 C31.43652,56.685671 29.52732,58.5834129 27.17412,58.5834129 C24.82212,58.5834129 22.91292,56.685671 22.91292,54.3451226 C22.91292,52.0045742 24.82212,50.1068323 27.17412,50.1068323" id="Fill-25" fill="#2E2E2F" sketch:type="MSShapeGroup"></path>
                <path d="M24.08484,18.5710161 C24.08484,18.5710161 16.80684,16.8236613 14.68524,12.8157258 C12.56364,8.80779032 17.68164,4.48356452 18.76764,3.61346774 C19.85484,2.74337097 23.70204,0.423112903 23.70204,0.423112903 C23.70204,0.423112903 4.79604,2.3471129 3.52284,14.1608548 C2.25204,25.9745968 16.56084,30.3191129 18.84444,30.5721452 C21.12684,30.826371 26.53644,25.7633387 24.08484,18.5710161" id="Fill-27" fill="#CCC2C1" sketch:type="MSShapeGroup"></path>
                <path d="M52.72428,18.5710161 C52.72428,18.5710161 60.00228,16.8236613 62.12388,12.8157258 C64.24548,8.80779032 59.12868,4.48356452 58.04148,3.61346774 C56.95308,2.74337097 53.10948,0.423112903 53.10948,0.423112903 C53.10948,0.423112903 72.01188,2.3471129 73.28508,14.1608548 C74.55948,25.9745968 60.25188,30.3191129 57.96468,30.5721452 C55.68108,30.826371 50.27388,25.7633387 52.72428,18.5710161" id="Fill-29" fill="#BAAEAE" sketch:type="MSShapeGroup"></path>
                <path d="M44.2224,66.9167677 C43.788,69.4208323 41.352,71.337671 38.406,71.337671 C35.46,71.337671 33.0216,69.4208323 32.5872,66.9167677 C34.4088,67.4299935 36.366,67.7092839 38.406,67.7092839 C40.4436,67.7092839 42.402,67.4299935 44.2224,66.9167677" id="Fill-31" fill="#2E2E2F" sketch:type="MSShapeGroup"></path>
            </g>
        </g>
    </g>
</svg>
