<?xml version="1.0" encoding="UTF-8" standalone="no"?>
<!--

    Copyright (C) 2017-2018 Dremio Corporation

    Licensed under the Apache License, Version 2.0 (the "License");
    you may not use this file except in compliance with the License.
    You may obtain a copy of the License at

        http://www.apache.org/licenses/LICENSE-2.0

    Unless required by applicable law or agreed to in writing, software
    distributed under the License is distributed on an "AS IS" BASIS,
    WITHOUT WARRANTIES OR CONDITIONS OF ANY KIND, either express or implied.
    See the License for the specific language governing permissions and
    limitations under the License.

-->
<svg width="110px" height="110px" viewBox="0 0 110 110" version="1.1" xmlns="http://www.w3.org/2000/svg" xmlns:xlink="http://www.w3.org/1999/xlink" xmlns:sketch="http://www.bohemiancoding.com/sketch/ns">
    <!-- Generator: Sketch 3.5.2 (25235) - http://www.bohemiancoding.com/sketch -->
    <title>Avatar/Cat-Gold</title>
    <desc>Created with Sketch.</desc>
    <defs>
        <path id="path-1" d="M0,0.8019 L72.7478182,0.8019 L72.7478182,55 L0,55"></path>
        <path id="path-3" d="M0,0.8019 L72.7478182,0.8019 L72.7478182,55 L0,55"></path>
    </defs>
    <g id="Avatars" stroke="none" stroke-width="1" fill="none" fill-rule="evenodd" sketch:type="MSPage">
        <g id="Avatar/Cat-Gold" sketch:type="MSArtboardGroup">
            <g id="Background-Circle" sketch:type="MSLayerGroup" fill="#46B4D5">
                <circle id="Aqua" sketch:type="MSShapeGroup" cx="55" cy="55" r="55"></circle>
            </g>
            <g id="Page-1" sketch:type="MSLayerGroup" transform="translate(19.000000, 27.000000)">
                <path d="M63.1933348,0.98175 L52.1061833,4.07495 C50.4039561,4.54905 49.1364106,5.88335 48.7503955,7.60045 L46.2495924,18.77865 C45.8823803,20.41765 46.3944864,22.08305 47.6222136,23.23805 C48.8466227,24.39305 50.5466379,24.81105 52.172547,24.35675 L63.2608045,21.26355 C64.9630318,20.78835 66.2350015,19.45515 66.6165924,17.73805 L69.1173955,6.55985 C69.4846076,4.92085 68.9736076,3.25545 67.7458803,2.10155 C66.5192591,0.94545 64.8192439,0.52855 63.1933348,0.98175" id="Fill-1" fill="#EDA944" sketch:type="MSShapeGroup"></path>
                <path d="M64.0152485,3.8929 L52.928097,6.985 C52.3042788,7.1599 51.8596424,7.6274 51.7180667,8.2566 L49.2172636,19.4348 C49.0812182,20.0365 49.2604,20.6184 49.7105667,21.0419 C50.1618394,21.4665 50.7569,21.6117 51.3552788,21.4456 L62.4380061,18.3524 C63.0629303,18.1786 63.5075667,17.71 63.6480364,17.0819 L66.1499455,5.9037 C66.287097,5.302 66.105703,4.7201 65.6544303,4.2955 C65.2053697,3.8731 64.6114152,3.7268 64.0152485,3.8929" id="Fill-3" fill="#2E2E2F" sketch:type="MSShapeGroup"></path>
                <path d="M9.55581061,0.98175 L20.6418561,4.07495 C22.3440833,4.54905 23.6138409,5.88335 23.99875,7.60045 L26.499553,18.77865 C26.8656591,20.41765 26.3546591,22.08305 25.1324621,23.23805 C23.9014167,24.39305 22.2014015,24.81105 20.5754924,24.35675 L9.48834091,21.26355 C7.78500758,20.78835 6.51525,19.45515 6.13255303,17.73805 L3.63175,6.55985 C3.26453788,4.92085 3.77553788,3.25545 5.00326515,2.10155 C6.23099242,0.94545 7.92768939,0.52855 9.55581061,0.98175" id="Fill-5" fill="#EDA944" sketch:type="MSShapeGroup"></path>
                <path d="M8.73389697,3.8929 L19.8199424,6.985 C20.4448667,7.1599 20.889503,7.6274 21.0310788,8.2566 L23.5318818,19.4348 C23.6668212,20.0365 23.4876394,20.6184 23.0374727,21.0419 C22.5906242,21.4665 21.9955636,21.6117 21.3982909,21.4456 L10.3089273,18.3524 C9.68732121,18.1786 9.24047273,17.71 9.09889697,17.0819 L6.60030606,5.9037 C6.46647273,5.302 6.64565455,4.7201 7.09250303,4.2955 C7.5426697,3.8731 8.13662424,3.7268 8.73389697,3.8929" id="Fill-7" fill="#6D6D6E" sketch:type="MSShapeGroup"></path>
                <path d="M61.1258864,26.4 L61.1269924,26.4066 L61.1269924,26.4209 C61.22875,27.0963 61.3028561,27.7805 61.3470985,28.4713 C62.1512045,32.714 65.0833712,36.2098 68.9921894,37.8257 C67.0068106,47.5035 53.1600379,55 36.3711439,55 C19.6043712,55 5.77087121,47.5244 3.75562879,37.8664 C7.59144697,36.2945 10.4860076,32.9197 11.3741742,28.8024 C11.4206288,27.9015 11.51575,27.0149 11.6562197,26.1426 L11.6562197,26.1316 L11.6606439,26.1129 C11.9061894,24.6378 12.2734015,23.2078 12.75675,21.8328 L12.7611742,21.8141 L12.7633864,21.8119 C16.1988106,12.1418 25.4698106,5.2118 36.3711439,5.2118 C48.92825,5.2118 59.3252197,14.41 61.1258864,26.4" id="Fill-9" fill="#F0B76A" sketch:type="MSShapeGroup"></path>
                <path d="M61.1258864,26.4 L61.1269924,26.4066 L61.1269924,26.4209 C61.22875,27.0963 61.3028561,27.7805 61.3470985,28.4713 C62.1512045,32.714 65.0833712,36.2098 68.9921894,37.8257 C67.0068106,47.5035 53.1600379,55 36.3711439,55 L36.3711439,5.2118 C48.92825,5.2118 59.3252197,14.41 61.1258864,26.4" id="Fill-11" fill="#EDA944" sketch:type="MSShapeGroup"></path>
                <path d="M45.7123788,35.17734 C44.840803,33.74734 44.5421667,32.06764 44.8164697,30.46714 L50.4474242,30.46714 L50.4474242,24.86704 C52.0567424,24.59424 53.746803,24.89124 55.1835758,25.75804 C56.7928939,28.39584 56.4500152,31.87954 54.1582576,34.15764 C51.8665,36.43794 48.3647121,36.77564 45.7123788,35.17734" id="Fill-13" fill="#2E2E2F" sketch:type="MSShapeGroup"></path>
                <path d="M27.0356606,35.17734 C28.6438727,32.53954 28.3065242,29.05584 26.0114485,26.77664 C24.961797,25.73384 23.6588576,25.09804 22.3006152,24.86704 L22.3006152,30.46714 L16.6685545,30.46714 C16.9008273,31.81904 17.5412364,33.11484 18.5886758,34.15764 C20.8815394,36.43794 24.3833273,36.77564 27.0356606,35.17734" id="Fill-15" fill="#6D6D6E" sketch:type="MSShapeGroup"></path>
                <g id="Group-19">
                    <mask id="mask-2" sketch:name="Clip 18" fill="white">
                        <use xlink:href="#path-1"></use>
                    </mask>
                    <g id="Clip-18"></g>
                    <path d="M20.6888636,41.05288 C21.0450152,40.72618 21.4122273,40.40938 21.7905,40.10468 C18.6371212,38.10708 14.8588182,36.51648 11.5561212,36.15898 C10.1613788,36.00718 4.37668182,35.41978 3.01512121,36.10398 C2.67334848,36.27668 2.53619697,36.69468 2.70874242,37.03458 C2.88128788,37.37448 3.28831818,37.51858 3.62898485,37.34588 C4.85671212,36.86958 10.1580606,37.39978 11.4045909,37.53508 C14.3688333,37.85628 17.7865606,39.26978 20.6888636,41.05288 M18.1604091,43.77208 C15.7226515,42.94708 11.9111667,42.61158 9.69904545,42.52688 C7.63292424,42.44768 2.92884848,42.59508 1.07619697,43.78858 C0.752121212,43.99538 0.319651515,43.90298 0.111712121,43.58288 C-0.0973333333,43.26278 -0.00442424242,42.83378 0.317439394,42.62588 C2.48531818,41.23218 7.32433333,41.05178 9.7510303,41.14418 C12.2783788,41.23988 16.5378182,41.63478 19.1116212,42.64458 C18.7831212,43.00978 18.4656818,43.38598 18.1604091,43.77208 M15.6784091,47.66498 C14.1255,47.60668 12.5548939,47.65178 11.1634697,47.76398 C9.46456061,47.90038 6.56557576,48.62968 5.548,50.18728 C5.34448485,50.50958 4.91422727,50.60638 4.59015152,50.40398 C4.26386364,50.20158 4.1665303,49.77258 4.37004545,49.45028 C5.60993939,47.48128 8.90489394,46.55618 11.0484394,46.38348 C12.7008939,46.25038 14.5922576,46.20858 16.4172576,46.31418 C16.1540152,46.75528 15.9095758,47.20518 15.6784091,47.66498" id="Fill-17" fill="#6D6D6E" sketch:type="MSShapeGroup" mask="url(#mask-2)"></path>
                </g>
                <path d="M49.6440924,53.29082 C45.5748955,54.34242 41.0876076,54.92652 36.3713652,54.92652 C31.6562288,54.92652 27.1733652,54.34352 23.1085924,53.29192 L23.1085924,47.98222 C23.1085924,44.61292 25.8803803,41.85632 29.2671379,41.85632 L43.4822288,41.85632 C46.8689864,41.85632 49.6440924,44.61292 49.6440924,47.98222 L49.6440924,53.29082 Z" id="Fill-20" fill="#FFFFFF" sketch:type="MSShapeGroup"></path>
                <path d="M49.6440924,53.29082 L49.3288652,53.37002 L48.9594409,53.46242 L48.6420015,53.53722 L48.2648348,53.62522 L47.8931985,53.70882 L47.5646985,53.77812 L47.1941682,53.85622 L46.8501833,53.92442 L46.4641682,54.00032 L46.16885,54.05422 L45.713153,54.13562 L45.4134106,54.18622 L44.9344864,54.26542 L44.7365015,54.29622 C44.5562136,54.32372 44.3748197,54.35012 44.1934258,54.37652 L44.0219864,54.40182 C43.8206833,54.42932 43.6204864,54.45682 43.4225015,54.48212 L43.2731833,54.50082 C43.0818348,54.52392 42.8904864,54.54812 42.6958197,54.56902 L42.500047,54.59212 C42.2932136,54.61412 42.0863803,54.63612 41.879547,54.65702 L41.8375167,54.66142 L41.7822136,54.66692 C41.5632136,54.68782 41.3486379,54.70762 41.1274258,54.72632 L41.0002288,54.73622 C40.7812288,54.75492 40.5644409,54.77252 40.3421227,54.78682 L40.3011985,54.79012 L40.2945621,54.79122 L40.2669106,54.79342 C40.0324258,54.80882 39.7968348,54.82422 39.5612439,54.83632 L39.4937742,54.84072 C38.9905167,54.86932 38.4839409,54.89022 37.975153,54.90452 L37.9441833,54.90562 C37.6875773,54.91222 37.4365015,54.91772 37.1765773,54.92212 L37.1555621,54.92212 C36.8934258,54.92432 36.6323955,54.92652 36.3713652,54.92652 L36.3713652,41.85632 L43.4822288,41.85632 C46.8689864,41.85632 49.6440924,44.61292 49.6440924,47.98222 L49.6440924,53.29082 Z" id="Fill-22" fill="#E3E4E4" sketch:type="MSShapeGroup"></path>
                <path d="M29.0501288,36.68346 L36.2395227,36.68346 L43.4289167,36.68346 C44.6842955,39.98786 38.9195076,41.97006 36.9064773,42.55196 C36.9241742,42.61026 36.9308106,42.67076 36.9308106,42.73346 L36.9308106,46.78806 C37.0137652,46.95196 37.0502652,47.12466 37.0458409,47.29626 C38.0556742,47.70436 41.0519924,47.74836 41.6547955,47.74836 C43.6224773,47.74836 46.0524924,47.46016 47.6983106,46.27656 C48.0655227,46.01146 48.6937652,45.43286 48.8475076,44.98406 C48.9724924,44.62436 49.3706742,44.43076 49.7334621,44.55396 C50.0940379,44.67716 50.2898106,45.07206 50.1659318,45.43286 C49.9071136,46.18306 49.1384015,46.94976 48.5134773,47.39856 C46.6055227,48.76916 43.946553,49.13326 41.6547955,49.13326 C40.3739773,49.13326 37.5413561,49.11346 36.2395227,48.42816 C34.9277348,49.11346 32.0951136,49.13326 30.8142955,49.13326 C28.5236439,49.13326 25.8635682,48.76916 23.9556136,47.39856 C23.3340076,46.94976 22.5619773,46.18306 22.3031591,45.43286 C22.1825985,45.07206 22.373947,44.67716 22.7367348,44.55396 C23.1017348,44.43076 23.4965985,44.62436 23.6204773,44.98406 C23.7753258,45.43286 24.4035682,46.01146 24.7707803,46.27656 C26.4199167,47.46016 28.8466136,47.74836 30.8142955,47.74836 C31.4170985,47.74836 34.4134167,47.70436 35.4243561,47.29626 C35.4177197,47.12466 35.4553258,46.95196 35.5415985,46.78806 L35.5415985,42.73346 C35.5415985,42.67076 35.5482348,42.61026 35.5626136,42.55196 C33.5495833,41.97006 27.7859015,39.98786 29.0501288,36.68346" id="Fill-24" fill="#6D6D6E" sketch:type="MSShapeGroup"></path>
                <g id="Group-28">
                    <mask id="mask-4" sketch:name="Clip 27" fill="white">
                        <use xlink:href="#path-3"></use>
                    </mask>
                    <g id="Clip-27"></g>
                    <path d="M50.9542212,40.10809 C51.3313879,40.41169 51.6974939,40.72849 52.0547515,41.05519 C54.9570545,39.27209 58.3769939,37.85639 61.3434485,37.53519 C62.594403,37.39989 67.8935394,36.86969 69.1179485,37.34599 C69.4608273,37.51869 69.8678576,37.37459 70.040403,37.03469 C70.2129485,36.69369 70.0746909,36.27679 69.7329182,36.10409 C68.3713576,35.41989 62.5877667,36.00729 61.1919182,36.15909 C57.8936455,36.51659 54.1087061,38.10829 50.9542212,40.10809 M53.6308879,42.64689 C56.2035848,41.63599 60.4674485,41.23999 62.995903,41.14319 C65.4248121,41.05079 70.2605091,41.23119 72.4294939,42.62599 C72.7513576,42.83279 72.8442667,43.26289 72.6407515,43.58299 C72.4294939,43.90309 71.9970242,43.99549 71.6784788,43.78869 C69.8180848,42.59519 65.1151152,42.44779 63.0501,42.52699 C60.8357667,42.61169 57.0231758,42.94719 54.5809939,43.77439 C54.2768273,43.38719 53.9593879,43.01209 53.6308879,42.64689 M56.3252515,46.31429 C58.1502515,46.20869 60.0449333,46.25049 61.6996,46.38359 C63.8442515,46.55629 67.1392061,47.48139 68.3791,49.45039 C68.5848273,49.77269 68.4830697,50.20169 68.1589939,50.40409 C67.8338121,50.60649 67.4035545,50.50969 67.2022515,50.18739 C66.1824636,48.62979 63.2823727,47.90049 61.5867818,47.76409 C60.1920394,47.65079 58.6170091,47.60569 57.0685242,47.66509 C56.8362515,47.20639 56.5873879,46.75539 56.3252515,46.31429" id="Fill-26" fill="#2E2E2F" sketch:type="MSShapeGroup" mask="url(#mask-4)"></path>
                </g>
                <path d="M36.3713652,48.49449 L36.3713652,36.68379 L43.4291379,36.68379 C44.6845167,39.98819 38.9197288,41.96929 36.9055924,42.55229 C36.9243955,42.60949 36.9310318,42.67109 36.9310318,42.73379 L36.9310318,46.78839 C37.0139864,46.95229 37.0504864,47.12499 37.0449561,47.29659 C38.0547894,47.70469 41.0511076,47.74759 41.6539106,47.74759 C43.6226985,47.74759 46.0527136,47.46049 47.6985318,46.27579 C48.0657439,46.01179 48.6939864,45.43319 48.8477288,44.98439 C48.9727136,44.62359 49.3708955,44.43109 49.7336833,44.55429 C50.0942591,44.67749 50.2900318,45.07239 50.166153,45.43319 C49.9062288,46.18229 49.1386227,46.94899 48.5136985,47.39779 C46.6057439,48.76949 43.9467742,49.13359 41.6539106,49.13359 C40.4162288,49.13359 37.7296076,49.11489 36.3713652,48.49449" id="Fill-29" fill="#2E2E2F" sketch:type="MSShapeGroup"></path>
            </g>
        </g>
    </g>
</svg>
