<?xml version="1.0" encoding="UTF-8" standalone="no"?>
<!--

    Copyright (C) 2017-2018 Dremio Corporation

    Licensed under the Apache License, Version 2.0 (the "License");
    you may not use this file except in compliance with the License.
    You may obtain a copy of the License at

        http://www.apache.org/licenses/LICENSE-2.0

    Unless required by applicable law or agreed to in writing, software
    distributed under the License is distributed on an "AS IS" BASIS,
    WITHOUT WARRANTIES OR CONDITIONS OF ANY KIND, either express or implied.
    See the License for the specific language governing permissions and
    limitations under the License.

-->
<svg width="110px" height="110px" viewBox="0 0 110 110" version="1.1" xmlns="http://www.w3.org/2000/svg" xmlns:xlink="http://www.w3.org/1999/xlink" xmlns:sketch="http://www.bohemiancoding.com/sketch/ns">
    <!-- Generator: Sketch 3.5.2 (25235) - http://www.bohemiancoding.com/sketch -->
    <title>Avatar/Cat-White</title>
    <desc>Created with Sketch.</desc>
    <defs>
        <path id="path-1" d="M0,0.8019 L72.7478182,0.8019 L72.7478182,55 L0,55"></path>
        <path id="path-3" d="M0,0.8019 L72.7478182,0.8019 L72.7478182,55 L0,55"></path>
    </defs>
    <g id="Avatars" stroke="none" stroke-width="1" fill="none" fill-rule="evenodd" sketch:type="MSPage">
        <g id="Avatar/Cat-White" sketch:type="MSArtboardGroup">
            <g id="Background-Circle" sketch:type="MSLayerGroup" fill="#3ACBAC">
                <circle id="Green" sketch:type="MSShapeGroup" cx="55" cy="55" r="55"></circle>
            </g>
            <g id="Page-1" sketch:type="MSLayerGroup" transform="translate(19.000000, 27.000000)">
                <path d="M63.1938879,0.98175 L52.1067364,4.07495 C50.403403,4.55015 49.1369636,5.88335 48.7498424,7.60045 L46.2490394,18.77865 C45.8829333,20.41875 46.3939333,22.08305 47.6227667,23.23805 C48.8460697,24.39305 50.5460848,24.81105 52.1731,24.35675 L63.2591455,21.26355 C64.9624788,20.78945 66.2355545,19.45515 66.6160394,17.73805 L69.1168424,6.55985 C69.4829485,4.92085 68.9719485,3.25545 67.7453273,2.10155 C66.5198121,0.94655 64.819797,0.52855 63.1938879,0.98175" id="Fill-1" fill="#2E2E2F" sketch:type="MSShapeGroup"></path>
                <path d="M64.0148061,3.8929 L52.9265485,6.9861 C52.3027303,7.1599 51.8603061,7.6274 51.7187303,8.2566 L49.2157152,19.4348 C49.0818818,20.0376 49.2610636,20.6184 49.7101242,21.043 C50.161397,21.4665 50.7575636,21.6117 51.3515182,21.4456 L62.4386697,18.3524 C63.0624879,18.1786 63.5082303,17.7111 63.6487,17.0819 L66.1506091,5.9037 C66.2877606,5.302 66.1052606,4.7201 65.6550939,4.2955 C65.2049273,3.8731 64.6109727,3.7268 64.0148061,3.8929" id="Fill-3" fill="#DF3E52" sketch:type="MSShapeGroup"></path>
                <path d="M9.55636364,0.98175 L20.641303,4.07495 C22.3446364,4.55015 23.6132879,5.88335 23.998197,7.60045 L26.4978939,18.77865 C26.8651061,20.41875 26.3541061,22.08305 25.1274848,23.23805 C23.9019697,24.39305 22.2019545,24.81105 20.5749394,24.35675 L9.48778788,21.26355 C7.78556061,20.78945 6.51580303,19.45515 6.13089394,17.73805 L3.63009091,6.55985 C3.26398485,4.92085 3.77498485,3.25545 5.00160606,2.10155 C6.23154545,0.94655 7.92824242,0.52855 9.55636364,0.98175" id="Fill-5" fill="#474749" sketch:type="MSShapeGroup"></path>
                <path d="M8.73223788,3.8929 L19.8204955,6.9861 C20.4443136,7.1599 20.8900561,7.6274 21.0316318,8.2566 L23.5313288,19.4348 C23.6662682,20.0376 23.4870864,20.6184 23.0380258,21.043 C22.586753,21.4665 21.9927985,21.6117 21.3988439,21.4456 L10.3094803,18.3524 C9.68787424,18.1786 9.2399197,17.7111 9.09945,17.0819 L6.59754091,5.9037 C6.46702576,5.302 6.64620758,4.7201 7.09305606,4.2955 C7.54211667,3.8731 8.13607121,3.7268 8.73223788,3.8929" id="Fill-7" fill="#E05565" sketch:type="MSShapeGroup"></path>
                <path d="M61.1264394,26.4 L61.1264394,26.4066 L61.1264394,26.4066 L61.1275455,26.4209 C61.228197,27.0963 61.3034091,27.7805 61.3476515,28.4724 C62.1517576,32.714 65.0839242,36.2098 68.9916364,37.8257 C67.0073636,47.5046 53.1605909,55 36.371697,55 C19.6027121,55 5.77142424,47.5244 3.75507576,37.8664 C7.58978788,36.2956 10.4865606,32.9197 11.3736212,28.8024 C11.4200758,27.9026 11.515197,27.0149 11.6556667,26.1437 L11.6556667,26.1316 L11.661197,26.1129 C11.9001061,24.6389 12.2695303,23.2089 12.757303,21.8328 L12.7606212,21.8141 L12.7628333,21.813 C16.1982576,12.1418 25.4703636,5.2129 36.371697,5.2129 C48.927697,5.2129 59.3257727,14.41 61.1264394,26.4" id="Fill-9" fill="#FFFFFF" sketch:type="MSShapeGroup"></path>
                <path d="M61.1264394,26.4 L61.1264394,26.4066 L61.1264394,26.4066 L61.1275455,26.4209 C61.228197,27.0963 61.3034091,27.7805 61.3476515,28.4724 C62.1517576,32.714 65.0839242,36.2098 68.9916364,37.8257 C67.0073636,47.5046 53.1605909,55 36.371697,55 L36.371697,5.2129 C48.927697,5.2129 59.3257727,14.41 61.1264394,26.4" id="Fill-11" fill="#E3E4E4" sketch:type="MSShapeGroup"></path>
                <path d="M45.7117152,35.17734 C44.8401394,33.74624 44.541503,32.06764 44.8158061,30.46824 L50.4467606,30.46824 L50.4467606,24.86704 C52.0560788,24.59424 53.7472455,24.89124 55.1829121,25.75804 C56.7933364,28.39584 56.4493515,31.87954 54.1587,34.15764 C51.8669424,36.43794 48.3640485,36.77674 45.7117152,35.17734" id="Fill-13" fill="#2E2E2F" sketch:type="MSShapeGroup"></path>
                <path d="M27.036103,35.17734 C28.6432091,32.53954 28.3080727,29.05694 26.0107848,26.77664 C24.9622394,25.73384 23.6593,25.09804 22.2999515,24.86704 L22.2999515,30.46824 L16.668997,30.46824 C16.9001636,31.81904 17.5394667,33.11484 18.5891182,34.15764 C20.8808758,36.43794 24.3837697,36.77674 27.036103,35.17734" id="Fill-15" fill="#6D6D6E" sketch:type="MSShapeGroup"></path>
                <path d="M29.0506818,36.68346 L36.2400758,36.68346 L43.4228333,36.68346 C44.6837424,39.98786 38.9178485,41.97006 36.9070303,42.55306 C36.9247273,42.61026 36.9313636,42.67076 36.9313636,42.73346 L36.9313636,46.78806 C37.0143182,46.95196 37.0508182,47.12466 37.0452879,47.29626 C38.0562273,47.70546 41.0525455,47.74836 41.6542424,47.74836 C43.6219242,47.74836 46.0530455,47.45906 47.6966515,46.27656 C48.0649697,46.01256 48.6932121,45.43396 48.8480606,44.98406 C48.9719394,44.62436 49.3712273,44.43076 49.7340152,44.55396 C50.0945909,44.67826 50.2903636,45.07206 50.1642727,45.43396 C49.9076667,46.18306 49.1378485,46.94976 48.5140303,47.39856 C46.6060758,48.76916 43.9448939,49.13326 41.6542424,49.13326 C40.3734242,49.13326 37.5419091,49.11456 36.2400758,48.42816 C34.9260758,49.11456 32.0934545,49.13326 30.8148485,49.13326 C28.5219848,49.13326 25.8641212,48.76916 23.9550606,47.39856 C23.3301364,46.94976 22.5625303,46.18306 22.3026061,45.43396 C22.1831515,45.07206 22.3733939,44.67826 22.7361818,44.55396 C23.0989697,44.43076 23.4960455,44.62436 23.6210303,44.98406 C23.7736667,45.43396 24.4030152,46.01256 24.7702273,46.27656 C26.4171515,47.45906 28.8460606,47.74836 30.8148485,47.74836 C31.4176515,47.74836 34.4128636,47.70546 35.422697,47.29626 C35.4171667,47.12466 35.4558788,46.95196 35.5421515,46.78806 L35.5421515,42.73346 C35.5421515,42.67076 35.5487879,42.61026 35.5631667,42.55306 C33.5490303,41.97006 27.7831364,39.98786 29.0506818,36.68346" id="Fill-17" fill="#6D6D6E" sketch:type="MSShapeGroup"></path>
                <g id="Group-21">
                    <mask id="mask-2" sketch:name="Clip 20" fill="white">
                        <use xlink:href="#path-1"></use>
                    </mask>
                    <g id="Clip-20"></g>
                    <path d="M20.6883106,41.05332 C21.0455682,40.72552 21.4127803,40.40982 21.7888409,40.10512 C18.6365682,38.10642 14.8582652,36.51692 11.5555682,36.15942 C10.1597197,36.00762 4.37612879,35.42022 3.01456818,36.10442 C2.67279545,36.27602 2.53453788,36.69402 2.70708333,37.03502 C2.87962879,37.37492 3.28776515,37.51792 3.62953788,37.34632 C4.85615909,36.86892 10.1552955,37.40022 11.4040379,37.53552 C14.3682803,37.85672 17.7860076,39.27022 20.6883106,41.05332 M18.1598561,43.77252 C15.7187803,42.94752 11.9095076,42.61202 9.69738636,42.52732 C7.63237121,42.44922 2.92940152,42.59442 1.07564394,43.78792 C0.753780303,43.99582 0.319098485,43.90342 0.11005303,43.58332 C-0.096780303,43.26322 -0.00387121212,42.83312 0.317992424,42.62632 C2.48476515,41.23152 7.3237803,41.05112 9.75158333,41.14462 C12.2778258,41.24142 16.5372652,41.63522 19.1110682,42.64392 C18.7814621,43.01022 18.4640227,43.38642 18.1598561,43.77252 M15.6745379,47.66542 C14.126053,47.60602 12.5532348,47.65222 11.1640227,47.76442 C9.46400758,47.90082 6.56502273,48.63012 5.54744697,50.18772 C5.34503788,50.51002 4.9147803,50.60682 4.58849242,50.40442 C4.26441667,50.20202 4.16487121,49.77302 4.36949242,49.45072 C5.60938636,47.48172 8.90544697,46.55772 11.0478864,46.38392 C12.7003409,46.25082 14.5917045,46.20902 16.4178106,46.31462 C16.1523561,46.75462 15.9101288,47.20562 15.6745379,47.66542" id="Fill-19" fill="#6D6D6E" sketch:type="MSShapeGroup" mask="url(#mask-2)"></path>
                </g>
                <g id="Group-24">
                    <mask id="mask-4" sketch:name="Clip 23" fill="white">
                        <use xlink:href="#path-3"></use>
                    </mask>
                    <g id="Clip-23"></g>
                    <path d="M50.9536682,40.10809 C51.3308348,40.41279 51.698047,40.72849 52.0541985,41.05519 C54.9576076,39.27209 58.377547,37.85749 61.3428955,37.53519 C62.5949561,37.39989 67.8940924,36.86969 69.1185015,37.34599 C69.4613803,37.51869 69.8661985,37.37569 70.0387439,37.03469 C70.2123955,36.69369 70.0741379,36.27679 69.7323652,36.10409 C68.3708045,35.41989 62.5861076,36.00729 61.1913652,36.15909 C57.8886682,36.51659 54.108153,38.10829 50.9536682,40.10809 M53.6292288,42.64689 C56.2041379,41.63599 60.4668955,41.24109 62.9964561,41.14429 C65.4242591,41.05079 70.2610621,41.23119 72.430047,42.62599 C72.7519106,42.83279 72.8448197,43.26289 72.6368803,43.58299 C72.4278348,43.90309 71.9964712,43.99549 71.6735015,43.78869 C69.8186379,42.59519 65.1156682,42.44889 63.0484409,42.52699 C60.8352136,42.61169 57.0237288,42.94719 54.5804409,43.77439 C54.2762742,43.38719 53.9588348,43.01209 53.6292288,42.64689 M56.3258045,46.31539 C58.1508045,46.20869 60.0443803,46.25049 61.699047,46.38469 C63.8448045,46.55739 67.137547,47.48249 68.3774409,49.45039 C68.5820621,49.77269 68.4836227,50.20169 68.1573348,50.40409 C67.8332591,50.60649 67.4030015,50.50969 67.2028045,50.18739 C66.1819106,48.62979 63.2829258,47.90049 61.5873348,47.76409 C60.1903803,47.65189 58.6164561,47.60569 57.0690773,47.66509 C56.8334864,47.20639 56.5868348,46.75539 56.3258045,46.31539" id="Fill-22" fill="#2E2E2F" sketch:type="MSShapeGroup" mask="url(#mask-4)"></path>
                </g>
                <path d="M36.3719182,48.49449 L36.3719182,36.68379 L43.4230545,36.68379 C44.6839636,39.98819 38.9180697,41.96929 36.9061455,42.55339 C36.9249485,42.60949 36.9315848,42.67109 36.9315848,42.73379 L36.9315848,46.78839 C37.0145394,46.95229 37.0510394,47.12499 37.044403,47.29659 C38.0553424,47.70469 41.0516606,47.74759 41.6533576,47.74759 C43.6221455,47.74759 46.0532667,47.45939 47.6968727,46.27579 C48.0640848,46.01289 48.6934333,45.43319 48.8482818,44.98439 C48.9721606,44.62359 49.3714485,44.43109 49.7342364,44.55429 C50.0948121,44.67749 50.2905848,45.07239 50.1644939,45.43319 C49.9067818,46.18339 49.1380697,46.95009 48.5131455,47.39889 C46.606297,48.76949 43.9451152,49.13359 41.6533576,49.13359 C40.4167818,49.13359 37.7279485,49.11489 36.3719182,48.49449" id="Fill-25" fill="#2E2E2F" sketch:type="MSShapeGroup"></path>
            </g>
        </g>
    </g>
</svg>
