<?xml version="1.0" encoding="UTF-8" standalone="no"?>
<!--

    Copyright (C) 2017-2018 Dremio Corporation

    Licensed under the Apache License, Version 2.0 (the "License");
    you may not use this file except in compliance with the License.
    You may obtain a copy of the License at

        http://www.apache.org/licenses/LICENSE-2.0

    Unless required by applicable law or agreed to in writing, software
    distributed under the License is distributed on an "AS IS" BASIS,
    WITHOUT WARRANTIES OR CONDITIONS OF ANY KIND, either express or implied.
    See the License for the specific language governing permissions and
    limitations under the License.

-->
<svg width="110px" height="110px" viewBox="0 0 110 110" version="1.1" xmlns="http://www.w3.org/2000/svg" xmlns:xlink="http://www.w3.org/1999/xlink" xmlns:sketch="http://www.bohemiancoding.com/sketch/ns">
    <!-- Generator: Sketch 3.5.2 (25235) - http://www.bohemiancoding.com/sketch -->
    <title>Avatar/Cheetah</title>
    <desc>Created with Sketch.</desc>
    <defs>
        <path id="path-1" d="M0,0.190176471 L76.8096,0.190176471 L76.8096,61 L0,61"></path>
        <path id="path-3" d="M0,0.190176471 L76.8096,0.190176471 L76.8096,61 L0,61"></path>
        <path id="path-5" d="M0,0.190176471 L76.8096,0.190176471 L76.8096,61 L0,61"></path>
    </defs>
    <g id="Avatars" stroke="none" stroke-width="1" fill="none" fill-rule="evenodd" sketch:type="MSPage">
        <g id="Avatar/Cheetah" sketch:type="MSArtboardGroup">
            <g id="Background-Circle" sketch:type="MSLayerGroup" fill="#2A394A">
                <circle id="Dark-Blue" sketch:type="MSShapeGroup" cx="55" cy="55" r="55"></circle>
            </g>
            <g id="Page-1" sketch:type="MSLayerGroup" transform="translate(17.000000, 24.000000)">
                <g id="Group-3">
                    <mask id="mask-2" sketch:name="Clip 2" fill="white">
                        <use xlink:href="#path-1"></use>
                    </mask>
                    <g id="Clip-2"></g>
                    <path d="M20.18952,24.1271745 C26.80272,24.1271745 32.19672,18.750802 32.19672,12.1580176 C32.19672,5.56642941 26.80272,0.190056863 20.18952,0.190056863 C13.57512,0.190056863 8.18112,5.56642941 8.18112,12.1580176 C8.18112,18.750802 13.57512,24.1271745 20.18952,24.1271745" id="Fill-1" fill="#EDA944" sketch:type="MSShapeGroup" mask="url(#mask-2)"></path>
                </g>
                <path d="M20.18952,18.6366961 C23.76792,18.6366961 26.68872,15.7266373 26.68872,12.1575392 C26.68872,8.59083333 23.76792,5.67957843 20.18952,5.67957843 C16.60872,5.67957843 13.68912,8.59083333 13.68912,12.1575392 C13.68912,15.7266373 16.60872,18.6366961 20.18952,18.6366961" id="Fill-4" fill="#612A0E" sketch:type="MSShapeGroup"></path>
                <g id="Group-8">
                    <mask id="mask-4" sketch:name="Clip 7" fill="white">
                        <use xlink:href="#path-3"></use>
                    </mask>
                    <g id="Clip-7"></g>
                    <path d="M56.6184,24.1271745 C63.2328,24.1271745 68.6268,18.750802 68.6268,12.1580176 C68.6268,5.56642941 63.2328,0.190056863 56.6184,0.190056863 C50.0076,0.190056863 44.6112,5.56642941 44.6112,12.1580176 C44.6112,18.750802 50.0076,24.1271745 56.6184,24.1271745" id="Fill-6" fill="#EDA944" sketch:type="MSShapeGroup" mask="url(#mask-4)"></path>
                </g>
                <path d="M56.6184,18.6366961 C60.1992,18.6366961 63.1188,15.7266373 63.1188,12.1575392 C63.1188,8.59083333 60.1992,5.67957843 56.6184,5.67957843 C53.04,5.67957843 50.1192,8.59083333 50.1192,12.1575392 C50.1192,15.7266373 53.04,18.6366961 56.6184,18.6366961" id="Fill-9" fill="#612A0E" sketch:type="MSShapeGroup"></path>
                <path d="M65.62776,28.4243255 L65.63136,28.432698 L65.63256,28.4482471 C65.74296,29.1934039 65.82216,29.9457373 65.87136,30.7088353 C66.75816,35.385502 69.98016,39.2392667 74.28336,41.0202275 C72.10056,51.6904431 56.86776,59.954149 38.39976,59.954149 C19.95816,59.954149 4.74216,51.7143647 2.52456,41.0656784 C6.74136,39.3337569 9.92736,35.6127569 10.90776,31.0736392 C10.95816,30.0808941 11.06016,29.102502 11.21496,28.142051 L11.21496,28.1300902 L11.21976,28.1085608 C11.48256,26.4830902 11.88936,24.9066588 12.42456,23.3900314 L12.43056,23.368502 L12.43296,23.3673059 C16.21056,12.7066588 26.40936,5.06730588 38.39976,5.06730588 C52.21176,5.06730588 63.64896,15.2064627 65.62776,28.4243255" id="Fill-11" fill="#EDA944" sketch:type="MSShapeGroup"></path>
                <path d="M52.79928,58.1745039 C48.38448,59.319151 43.51728,59.9542686 38.39928,59.9542686 C33.28488,59.9542686 28.42128,59.319151 24.01128,58.1768961 L24.01128,52.4022294 C24.01128,48.7386412 27.01728,45.7424647 30.69288,45.7424647 L46.11408,45.7424647 C49.78968,45.7424647 52.79928,48.7398373 52.79928,52.4022294 L52.79928,58.1745039 Z" id="Fill-13" fill="#FFFFFF" sketch:type="MSShapeGroup"></path>
                <path d="M68.06292,50.7107353 C62.33532,55.6098725 53.28972,59.0234804 42.86892,59.7901667 C42.93972,49.5828333 51.26052,41.3286961 61.51932,41.3286961 C63.82212,41.3286961 66.02772,41.7461275 68.06292,42.5068333 L68.06292,50.7107353 Z" id="Fill-15" fill="#E3E4E4" sketch:type="MSShapeGroup"></path>
                <path d="M65.62776,28.4243255 L65.63136,28.432698 L65.63256,28.4482471 C65.74296,29.1934039 65.82216,29.9457373 65.87136,30.7088353 C66.75816,35.385502 69.98016,39.2392667 74.28336,41.0202275 C72.10056,51.6904431 56.86776,59.954149 38.39976,59.954149 L38.39976,5.06730588 C52.21176,5.06730588 63.64896,15.2064627 65.62776,28.4243255" id="Fill-17" fill="#D3913C" sketch:type="MSShapeGroup"></path>
                <path d="M52.79928,58.1745039 L52.45848,58.2606216 L52.05888,58.3610922 L51.71328,58.4436216 L51.30048,58.5393078 L50.89968,58.6290137 L50.54448,58.7055627 L50.14248,58.7904843 L49.77048,58.8646412 L49.34928,58.9471706 L49.02888,59.0057784 L48.53688,59.0942882 L48.21048,59.1493078 L47.69088,59.2342294 L47.47488,59.2677196 C47.28048,59.2976216 47.08368,59.3275235 46.88688,59.3550333 L46.69968,59.3825431 C46.48128,59.4136412 46.26648,59.4423471 46.04928,59.4698569 L45.88848,59.4901902 C45.67968,59.5165039 45.47208,59.5416216 45.26328,59.5655431 L45.04848,59.5894647 C44.82408,59.6145824 44.60208,59.6385039 44.37528,59.6600333 L44.32968,59.6660137 L44.26968,59.670798 C44.03448,59.6947196 43.79928,59.716249 43.56168,59.7365824 L43.42248,59.7473471 C43.18368,59.7676804 42.94848,59.7856216 42.70848,59.8023667 L42.66408,59.8059549 L42.65328,59.8059549 L42.62688,59.8083471 C42.37248,59.8250922 42.11808,59.8418373 41.86128,59.8561902 L41.78928,59.8609745 C41.24208,59.8908765 40.69248,59.913602 40.13928,59.9303471 L40.10808,59.9303471 C39.82968,59.9387196 39.55248,59.9447 39.27408,59.9482882 L39.25008,59.9482882 C38.96808,59.9518765 38.68368,59.9542686 38.39928,59.9542686 L38.39928,45.7424647 L46.11408,45.7424647 C49.78968,45.7424647 52.79928,48.7398373 52.79928,52.4022294 L52.79928,58.1745039 Z" id="Fill-19" fill="#E3E4E4" sketch:type="MSShapeGroup"></path>
                <path d="M47.48484,37.4965804 C46.63764,36.103149 46.34964,34.4681098 46.61244,32.9096196 L52.08564,32.9096196 L52.08564,27.455502 C53.65164,27.1899725 55.29084,27.4782275 56.68884,28.3226588 C58.25004,30.8930314 57.91884,34.2839137 55.69284,36.5038353 C53.46564,38.7225608 50.06244,39.0538745 47.48484,37.4965804" id="Fill-21" fill="#612A0E" sketch:type="MSShapeGroup"></path>
                <path d="M29.33604,37.4965804 C30.89964,34.9274039 30.56604,31.5353255 28.34004,29.3154039 C27.32004,28.2999333 26.05764,27.6791686 24.73404,27.455502 L24.73404,32.9096196 L19.26084,32.9096196 C19.48644,34.2253059 20.10924,35.4871686 21.12684,36.5038353 C23.35764,38.7225608 26.75844,39.0538745 29.33604,37.4965804" id="Fill-23" fill="#612A0E" sketch:type="MSShapeGroup"></path>
                <g id="Group-27">
                    <mask id="mask-6" sketch:name="Clip 26" fill="white">
                        <use xlink:href="#path-5"></use>
                    </mask>
                    <g id="Clip-26"></g>
                    <path d="M51.14928,50.8456529 C50.80848,50.8444569 50.53008,51.1171627 50.52888,51.4532608 C50.52648,51.7905549 50.80128,52.066849 51.13848,52.0692412 C51.62688,52.0728294 52.15008,52.0943588 52.68528,52.1386137 C55.90848,52.3945745 59.83368,53.3669863 62.21808,55.1347902 C63.61248,56.168202 65.84928,58.1106333 67.00848,59.8401627 C67.19088,60.1152608 67.34928,60.3867706 67.47048,60.6475157 C67.61328,60.9525157 67.98048,61.0852804 68.28528,60.9429471 C68.59248,60.8006137 68.72568,60.4346137 68.58288,60.1296137 C67.59648,58.0209275 64.75728,55.4924176 62.95128,54.1540059 C62.14968,53.5595549 61.19928,53.0488294 60.16248,52.6182412 C58.86648,52.0788098 57.43728,51.6661627 56.01168,51.3755157 C54.31248,51.0286529 52.61568,50.8540255 51.14928,50.8456529 M50.50008,49.2070255 C50.16168,49.2261627 49.90128,49.5156137 49.92168,49.8517118 C49.93968,50.1890059 50.23008,50.4473588 50.56848,50.4282216 C51.17568,50.3935353 51.86928,50.3696137 52.62048,50.358849 C57.14088,50.3002412 63.80208,50.7667118 66.90168,52.7617706 C67.71888,53.2856529 70.21728,54.8943784 71.52288,56.0198882 C71.82888,56.2842216 72.07128,56.5234373 72.20808,56.7148098 C72.38928,56.9982804 72.76848,57.0748294 73.05168,56.8930255 C73.33608,56.7112216 73.42008,56.3308686 73.23648,56.0485941 C72.51168,54.9230843 68.65008,52.4256725 67.56768,51.7343392 C67.36248,51.6003784 67.14168,51.4759863 66.91128,51.3551824 C64.54248,50.1220255 60.92328,49.5156137 57.45048,49.2692216 C54.86088,49.0862216 52.35168,49.1017706 50.50008,49.2070255 M50.17968,47.1497706 C55.25328,46.2347706 63.73128,45.5853 68.60808,47.3590843 C70.90128,48.1963392 73.27728,49.3960059 75.08208,51.0729078 C75.64248,51.593202 76.42248,52.4352412 76.75248,53.1457118 C76.89648,53.4519078 76.75848,53.8155157 76.45128,53.957849 C76.15008,54.0989863 75.77808,53.9638294 75.63768,53.6576333 C75.57408,53.5224765 75.48288,53.3741627 75.37368,53.2210647 C75.04848,52.7617706 74.56728,52.265398 74.24928,51.9675745 C72.56688,50.4066922 70.32048,49.2871627 68.18208,48.5085157 C64.04928,47.003849 56.97288,47.3686529 52.06968,48.0827118 C51.47688,48.1688294 50.91888,48.2597314 50.39928,48.3542216 C50.06568,48.4128294 49.75008,48.192751 49.68528,47.8602412 C49.62528,47.5289275 49.84848,47.2095745 50.17968,47.1497706 M25.66848,52.0692412 C26.00808,52.066849 26.28048,51.7905549 26.27808,51.4532608 C26.27568,51.1171627 25.99968,50.8444569 25.66128,50.8456529 C24.51648,50.8528294 23.23128,50.9592804 21.91728,51.1709863 C19.89648,51.4951235 17.80128,52.0656529 16.01808,52.8933392 C15.22488,53.2617314 14.49168,53.6815549 13.85808,54.1540059 C12.04968,55.4924176 9.21168,58.0209275 8.22408,60.1296137 C8.08128,60.4346137 8.21568,60.8006137 8.52048,60.9429471 C8.82648,61.0852804 9.19368,60.9525157 9.33648,60.6475157 C9.45888,60.3951431 9.60888,60.133202 9.78288,59.8664765 C10.93608,58.1309667 13.18848,56.1741824 14.58888,55.1347902 C17.11968,53.2593392 21.38808,52.2785549 24.70848,52.0991431 C25.03848,52.081202 25.36008,52.0716333 25.66848,52.0692412 M26.23848,50.4282216 C26.57568,50.4473588 26.86728,50.1890059 26.88528,49.8517118 C26.90808,49.5156137 26.65008,49.2261627 26.30928,49.2070255 C24.59928,49.1101431 22.31808,49.0886137 19.93728,49.2309471 C16.22328,49.4534176 12.25728,50.0753784 9.76008,51.4281431 C9.57888,51.5262216 9.40848,51.6278882 9.23928,51.7343392 C8.16408,52.4256725 4.29648,54.9230843 3.57048,56.0485941 C3.38688,56.3308686 3.47208,56.7112216 3.75888,56.8930255 C4.03848,57.0748294 4.41768,56.9982804 4.60008,56.7148098 C4.73448,56.5258294 4.97088,56.2925941 5.27088,56.0330451 C6.57168,54.9075353 9.08568,53.2880451 9.90528,52.7617706 C13.11648,50.6949471 20.14848,50.2691431 24.66648,50.3672216 C25.23288,50.3803784 25.76328,50.4007118 26.23848,50.4282216 M26.40888,48.3542216 C25.98048,48.2764765 25.52328,48.2011235 25.04928,48.1293588 C20.13528,47.385398 12.85008,46.9703588 8.62488,48.5085157 C6.50808,49.2811824 4.28208,50.3863588 2.60808,51.9257118 C2.26488,52.2414765 1.76688,52.7498098 1.42968,53.225849 C1.32408,53.3753588 1.23288,53.5224765 1.17048,53.6588294 C1.02768,53.9638294 0.66288,54.0989863 0.35808,53.957849 C0.04848,53.8155157 -0.08592,53.4519078 0.05808,53.1457118 C0.38208,52.4352412 1.16448,51.593202 1.72248,51.0729078 C3.52848,49.3960059 5.90808,48.1963392 8.20848,47.3590843 C13.07448,45.5853 21.55728,46.2347706 26.62608,47.1497706 C26.95968,47.2095745 27.18048,47.5289275 27.12288,47.8602412 C27.06168,48.192751 26.74128,48.4128294 26.40888,48.3542216" id="Fill-25" fill="#2E2E2F" sketch:type="MSShapeGroup" mask="url(#mask-6)"></path>
                </g>
                <path d="M39.0204,50.9208863 C39.036,50.9735137 39.0432,51.0297294 39.0432,51.0871412 L39.0432,54.8189059 C39.12,54.9696118 39.1584,55.1286902 39.1488,55.2865725 C40.0764,55.6621412 42.8268,55.7016118 43.38,55.7016118 C45.1884,55.7016118 47.418,55.4360824 48.93,54.3464549 C49.2672,54.1060431 49.8444,53.5713961 49.986,53.158749 C50.1,52.8274353 50.4648,52.6492196 50.7996,52.7628471 C51.1296,52.8764745 51.3084,53.2400824 51.1992,53.5713961 C50.958,54.2615333 50.2584,54.9672196 49.6788,55.3798667 C47.9256,56.6417294 45.4836,56.9754353 43.38,56.9754353 C42.2076,56.9754353 39.6048,56.9586902 38.4048,56.3283569 C37.2048,56.9586902 34.602,56.9754353 33.4272,56.9754353 C31.3236,56.9754353 28.8816,56.6417294 27.1296,55.3798667 C26.5584,54.9672196 25.8492,54.2615333 25.6128,53.5713961 C25.4988,53.2400824 25.6764,52.8764745 26.0088,52.7628471 C26.3436,52.6492196 26.7084,52.8274353 26.8224,53.158749 C26.9628,53.5713961 27.5412,54.1060431 27.8772,54.3464549 C29.3892,55.4360824 31.62,55.7016118 33.4272,55.7016118 C33.9804,55.7016118 36.732,55.6621412 37.6584,55.2865725 C37.6584,55.1286902 37.6884,54.9696118 37.7652,54.8189059 L37.7652,51.0871412 C37.7652,51.0297294 37.7724,50.9735137 37.7868,50.9208863 L39.0204,50.9208863 Z" id="Fill-28" fill="#2E2E2F" sketch:type="MSShapeGroup"></path>
                <path d="M31.80516,45.5198745 L38.40516,45.5198745 L45.00516,45.5198745 C46.16316,48.5603059 40.86876,50.3843255 39.02076,50.9213647 L37.78596,50.9213647 C35.93916,50.3843255 30.64836,48.5603059 31.80516,45.5198745" id="Fill-30" fill="#DF3E52" sketch:type="MSShapeGroup"></path>
                <path d="M12.28404,35.5939784 C13.02444,35.5939784 13.62444,36.1920176 13.62444,36.9311941 C13.62444,37.6691745 13.02444,38.2672137 12.28404,38.2672137 C11.54364,38.2672137 10.94364,37.6691745 10.94364,36.9311941 C10.94364,36.1920176 11.54364,35.5939784 12.28404,35.5939784 M5.88324,42.2776647 C6.72444,42.2776647 7.40844,42.9570373 7.40844,43.7954882 C7.40844,44.6351353 6.72444,45.3145078 5.88324,45.3145078 C5.04204,45.3145078 4.35924,44.6351353 4.35924,43.7954882 C4.35924,42.9570373 5.04204,42.2776647 5.88324,42.2776647 M22.07844,14.4520961 C22.97604,14.4520961 23.70564,15.1781157 23.70564,16.0739784 C23.70564,16.9698412 22.97604,17.6958608 22.07844,17.6958608 C21.17964,17.6958608 20.45244,16.9698412 20.45244,16.0739784 C20.45244,15.1781157 21.17964,14.4520961 22.07844,14.4520961 M35.50884,10.4428412 C35.95044,10.4428412 36.29964,10.7968804 36.29964,11.2322529 C36.29964,11.6688216 35.95044,12.0216647 35.50884,12.0216647 C35.06844,12.0216647 34.71324,11.6688216 34.71324,11.2322529 C34.71324,10.7968804 35.06844,10.4428412 35.50884,10.4428412 M35.14044,27.3314686 C35.78004,27.3314686 36.29964,27.8481745 36.29964,28.4868804 C36.29964,29.1231941 35.78004,29.6399 35.14044,29.6399 C34.50084,29.6399 33.98244,29.1231941 33.98244,28.4868804 C33.98244,27.8481745 34.50084,27.3314686 35.14044,27.3314686 M29.60004,41.6700569 C30.13284,41.6700569 30.56964,42.1042333 30.56964,42.6424686 C30.56964,43.1783118 30.13284,43.6136843 29.60004,43.6136843 C29.05764,43.6136843 28.61844,43.1783118 28.61844,42.6424686 C28.61844,42.1042333 29.05764,41.6700569 29.60004,41.6700569 M22.70844,39.8472333 C23.61564,39.8472333 24.35244,40.5816255 24.35244,41.4870569 C24.35244,42.3936843 23.61564,43.1280765 22.70844,43.1280765 C21.80004,43.1280765 21.06084,42.3936843 21.06084,41.4870569 C21.06084,40.5816255 21.80004,39.8472333 22.70844,39.8472333 M14.30004,40.2718412 C15.70884,40.2718412 16.85844,41.4140961 16.85844,42.8242725 C16.85844,44.2332529 15.70884,45.3755078 14.30004,45.3755078 C12.88164,45.3755078 11.73564,44.2332529 11.73564,42.8242725 C11.73564,41.4140961 12.88164,40.2718412 14.30004,40.2718412 M35.87124,34.4397627 C37.08324,34.4397627 38.06604,35.419351 38.06604,36.6273902 C38.06604,37.8342333 37.08324,38.8138216 35.87124,38.8138216 C34.66164,38.8138216 33.67764,37.8342333 33.67764,36.6273902 C33.67764,35.419351 34.66164,34.4397627 35.87124,34.4397627 M15.75924,27.1484686 C16.76724,27.1484686 17.58564,27.9653902 17.58564,28.9724882 C17.58564,29.9783902 16.76724,30.7941157 15.75924,30.7941157 C14.74884,30.7941157 13.92924,29.9783902 13.92924,28.9724882 C13.92924,27.9653902 14.74884,27.1484686 15.75924,27.1484686 M23.50044,20.4659784 C24.54204,20.4659784 25.38804,21.3104098 25.38804,22.350998 C25.38804,23.3903902 24.54204,24.2336255 23.50044,24.2336255 C22.45764,24.2336255 21.60924,23.3903902 21.60924,22.350998 C21.60924,21.3104098 22.45764,20.4659784 23.50044,20.4659784 M32.82444,17.5511353 C34.37364,17.5511353 35.62764,18.8022333 35.62764,20.3451745 C35.62764,21.8881157 34.37364,23.1404098 32.82444,23.1404098 C31.27644,23.1404098 30.02124,21.8881157 30.02124,20.3451745 C30.02124,18.8022333 31.27644,17.5511353 32.82444,17.5511353 M27.83124,9.81729216 C28.70844,9.81729216 29.41164,10.5229784 29.41164,11.3925275 C29.41164,12.2632725 28.70844,12.9677627 27.83124,12.9677627 C26.95884,12.9677627 26.25084,12.2632725 26.25084,11.3925275 C26.25084,10.5229784 26.95884,9.81729216 27.83124,9.81729216" id="Fill-32" fill="#803B1B" sketch:type="MSShapeGroup"></path>
                <path d="M63.85008,35.5939784 C63.10848,35.5939784 62.50848,36.1920176 62.50848,36.9311941 C62.50848,37.6691745 63.10848,38.2672137 63.85008,38.2672137 C64.58928,38.2672137 65.18928,37.6691745 65.18928,36.9311941 C65.18928,36.1920176 64.58928,35.5939784 63.85008,35.5939784 M70.24968,42.2776647 C69.40848,42.2776647 68.72568,42.9570373 68.72568,43.7954882 C68.72568,44.6351353 69.40848,45.3145078 70.24968,45.3145078 C71.09088,45.3145078 71.77248,44.6351353 71.77248,43.7954882 C71.77248,42.9570373 71.09088,42.2776647 70.24968,42.2776647 M58.62648,17.1863314 C57.72648,17.1863314 56.99928,17.912351 56.99928,18.8082137 C56.99928,19.7028804 57.72648,20.4289 58.62648,20.4289 C59.52408,20.4289 60.25728,19.7028804 60.25728,18.8082137 C60.25728,17.912351 59.52408,17.1863314 58.62648,17.1863314 M41.35848,7.28280196 C40.92048,7.28280196 40.56648,7.63684118 40.56648,8.0734098 C40.56648,8.50878235 40.92048,8.86282157 41.35848,8.86282157 C41.79648,8.86282157 42.15048,8.50878235 42.15048,8.0734098 C42.15048,7.63684118 41.79648,7.28280196 41.35848,7.28280196 M42.57648,34.3189588 C41.93688,34.3189588 41.41968,34.8344686 41.41968,35.4719784 C41.41968,36.1106843 41.93688,36.6273902 42.57648,36.6273902 C43.21728,36.6273902 43.73448,36.1106843 43.73448,35.4719784 C43.73448,34.8344686 43.21728,34.3189588 42.57648,34.3189588 M46.53768,41.6700569 C46.00008,41.6700569 45.56328,42.1042333 45.56328,42.6424686 C45.56328,43.1783118 46.00008,43.6136843 46.53768,43.6136843 C47.07648,43.6136843 47.51448,43.1783118 47.51448,42.6424686 C47.51448,42.1042333 47.07648,41.6700569 46.53768,41.6700569 M53.42568,39.8472333 C52.51728,39.8472333 51.78048,40.5816255 51.78048,41.4870569 C51.78048,42.3936843 52.51728,43.1280765 53.42568,43.1280765 C54.33528,43.1280765 55.07208,42.3936843 55.07208,41.4870569 C55.07208,40.5816255 54.33528,39.8472333 53.42568,39.8472333 M61.83768,40.2718412 C60.42408,40.2718412 59.27808,41.4140961 59.27808,42.8242725 C59.27808,44.2332529 60.42408,45.3755078 61.83768,45.3755078 C63.25128,45.3755078 64.39968,44.2332529 64.39968,42.8242725 C64.39968,41.4140961 63.25128,40.2718412 61.83768,40.2718412 M50.25888,10.8291745 C49.24848,10.8291745 48.42648,11.6449 48.42648,12.650802 C48.42648,13.6579 49.24848,14.4736255 50.25888,14.4736255 C51.26688,14.4736255 52.08408,13.6579 52.08408,12.650802 C52.08408,11.6449 51.26688,10.8291745 50.25888,10.8291745 M42.76008,14.0872922 C41.71608,14.0872922 40.87128,14.9317235 40.87128,15.9711157 C40.87128,17.0117039 41.71608,17.8549392 42.76008,17.8549392 C43.80528,17.8549392 44.65008,17.0117039 44.65008,15.9711157 C44.65008,14.9317235 43.80528,14.0872922 42.76008,14.0872922 M44.46648,21.5603902 C42.91728,21.5603902 41.66328,22.8114882 41.66328,24.3544294 C41.66328,25.8985667 42.91728,27.1496647 44.46648,27.1496647 C46.01568,27.1496647 47.26968,25.8985667 47.26968,24.3544294 C47.26968,22.8114882 46.01568,21.5603902 44.46648,21.5603902 M52.69008,21.0269392 C51.81888,21.0269392 51.11088,21.7314294 51.11088,22.6021745 C51.11088,23.4717235 51.81888,24.1774098 52.69008,24.1774098 C53.56368,24.1774098 54.27048,23.4717235 54.27048,22.6021745 C54.27048,21.7314294 53.56368,21.0269392 52.69008,21.0269392" id="Fill-34" fill="#803B1B" sketch:type="MSShapeGroup"></path>
            </g>
        </g>
    </g>
</svg>
