<?xml version="1.0" encoding="UTF-8" standalone="no"?>
<!--

    Copyright (C) 2017-2018 Dremio Corporation

    Licensed under the Apache License, Version 2.0 (the "License");
    you may not use this file except in compliance with the License.
    You may obtain a copy of the License at

        http://www.apache.org/licenses/LICENSE-2.0

    Unless required by applicable law or agreed to in writing, software
    distributed under the License is distributed on an "AS IS" BASIS,
    WITHOUT WARRANTIES OR CONDITIONS OF ANY KIND, either express or implied.
    See the License for the specific language governing permissions and
    limitations under the License.

-->
<svg width="110px" height="110px" viewBox="0 0 110 110" version="1.1" xmlns="http://www.w3.org/2000/svg" xmlns:xlink="http://www.w3.org/1999/xlink" xmlns:sketch="http://www.bohemiancoding.com/sketch/ns">
    <!-- Generator: Sketch 3.5.2 (25235) - http://www.bohemiancoding.com/sketch -->
    <title>Avatar/Chick-Hatch</title>
    <desc>Created with Sketch.</desc>
    <defs>
        <path id="path-1" d="M0,0.807296875 L60.3397647,0.807296875 L60.3397647,77 L0,77"></path>
        <path id="path-3" d="M0,0.807296875 L60.3397647,0.807296875 L60.3397647,77 L0,77"></path>
        <path id="path-5" d="M0,0.807296875 L60.3397647,0.807296875 L60.3397647,77 L0,77 L0,0.807296875 Z"></path>
    </defs>
    <g id="Avatars" stroke="none" stroke-width="1" fill="none" fill-rule="evenodd" sketch:type="MSPage">
        <g id="Avatar/Chick-Hatch" sketch:type="MSArtboardGroup">
            <g id="Background-Circle" sketch:type="MSLayerGroup" fill="#3ACBAC">
                <circle id="Green" sketch:type="MSShapeGroup" cx="55" cy="55" r="55"></circle>
            </g>
            <g id="Page-1" sketch:type="MSLayerGroup" transform="translate(25.000000, 17.000000)">
                <g id="Group-3">
                    <mask id="mask-2" sketch:name="Clip 2" fill="white">
                        <use xlink:href="#path-1"></use>
                    </mask>
                    <g id="Clip-2"></g>
                    <path d="M45.6717765,23.3692594 L45.6717765,16.3983531 C45.6717765,7.82247813 38.6962471,0.80705625 30.1706,0.80705625 C21.6449529,0.80705625 14.6694235,7.82247813 14.6694235,16.3983531 L14.6694235,23.3692594 C7.90679608,27.7955563 3.50163922,35.0395719 3.50163922,43.2268375 C3.50163922,56.7018375 15.439698,67.6262125 30.1706,67.6262125 C44.8991098,67.6262125 56.8407569,56.7018375 56.8407569,43.2268375 C56.8407569,35.0395719 52.4320118,27.7955563 45.6717765,23.3692594" id="Fill-1" fill="#C9C8C9" sketch:type="MSShapeGroup" mask="url(#mask-2)"></path>
                </g>
                <g id="Group-6">
                    <mask id="mask-4" sketch:name="Clip 5" fill="white">
                        <use xlink:href="#path-3"></use>
                    </mask>
                    <g id="Clip-5"></g>
                    <path d="M30.1706,0.80705625 L30.1706,0.80705625 L30.1706,67.6262125 C15.439698,67.6262125 3.50163922,56.7018375 3.50163922,43.2268375 C3.50163922,35.0395719 7.90679608,27.7955563 14.6694235,23.3692594 L14.6694235,16.3983531 C14.6694235,7.82247813 21.6449529,0.80705625 30.1706,0.80705625" id="Fill-4" fill="#E3E4E4" sketch:type="MSShapeGroup" mask="url(#mask-4)"></path>
                </g>
                <path d="M24.3759588,8.60222344 C27.9809392,8.60222344 30.8981745,11.5402547 30.8981745,15.1628641 C30.8981745,18.7854734 27.9809392,21.7235047 24.3759588,21.7235047 C20.7733706,21.7235047 17.8549392,18.7854734 17.8549392,15.1628641 C17.8549392,11.5402547 20.7733706,8.60222344 24.3759588,8.60222344" id="Fill-7" fill="#FFFFFF" sketch:type="MSShapeGroup"></path>
                <path d="M35.9629686,8.60222344 C39.5655569,8.60222344 42.4851843,11.5402547 42.4851843,15.1628641 C42.4851843,18.7854734 39.5655569,21.7235047 35.9629686,21.7235047 C32.3603804,21.7235047 29.4407529,18.7854734 29.4407529,15.1628641 C29.4407529,11.5402547 32.3603804,8.60222344 35.9629686,8.60222344" id="Fill-9" fill="#FFFFFF" sketch:type="MSShapeGroup"></path>
                <path d="M35.9629686,12.7832031 C37.2690863,12.7832031 38.3300078,13.8491719 38.3300078,15.1629844 C38.3300078,16.4767969 37.2690863,17.5427656 35.9629686,17.5427656 C34.6592431,17.5427656 33.5959294,16.4767969 33.5959294,15.1629844 L35.9629686,15.1629844 L35.9629686,12.7832031 Z" id="Fill-11" fill="#2E2E2F" sketch:type="MSShapeGroup"></path>
                <path d="M24.3759588,12.7832031 C25.6820765,12.7832031 26.742998,13.8491719 26.742998,15.1629844 C26.742998,16.4767969 25.6820765,17.5427656 24.3759588,17.5427656 C23.0698412,17.5427656 22.0089196,16.4767969 22.0089196,15.1629844 L24.3759588,15.1629844 L24.3759588,12.7832031 Z" id="Fill-13" fill="#2E2E2F" sketch:type="MSShapeGroup"></path>
                <path d="M30.1706,20.3150062 C32.6153843,20.3150062 35.9548353,22.7224594 34.5996784,24.768975 L30.1706,31.4499281 L25.7427176,24.768975 C24.3851686,22.7224594 27.7234235,20.3150062 30.1706,20.3150062" id="Fill-15" fill="#F6B726" sketch:type="MSShapeGroup"></path>
                <g id="Group-19">
                    <mask id="mask-6" sketch:name="Clip 18" fill="white">
                        <use xlink:href="#path-5"></use>
                    </mask>
                    <g id="Clip-18"></g>
                    <path d="M59.5784608,39.8904516 C60.0760294,42.0657016 60.3403627,44.3299828 60.3403627,46.6532172 C60.3403627,63.3441703 46.7624804,76.9996391 30.1704804,76.9996391 C13.5784804,76.9996391 -0.000598039216,63.3441703 -0.000598039216,46.6532172 C-0.000598039216,44.3299828 0.263735294,42.0657016 0.761303922,39.8904516 L3.56132353,42.7057641 L10.2139118,36.0151859 L16.8676961,42.7057641 L23.5190882,36.0151859 L30.1704804,42.7057641 L36.8206765,36.0151859 L43.4732647,42.7057641 L50.127049,36.0151859 L56.7772451,42.7057641 L59.5784608,39.8904516 Z" id="Fill-17" fill="#FFFFFF" sketch:type="MSShapeGroup" mask="url(#mask-6)"></path>
                </g>
            </g>
        </g>
    </g>
</svg>
