<?xml version="1.0" encoding="UTF-8" standalone="no"?>
<!--

    Copyright (C) 2017-2018 Dremio Corporation

    Licensed under the Apache License, Version 2.0 (the "License");
    you may not use this file except in compliance with the License.
    You may obtain a copy of the License at

        http://www.apache.org/licenses/LICENSE-2.0

    Unless required by applicable law or agreed to in writing, software
    distributed under the License is distributed on an "AS IS" BASIS,
    WITHOUT WARRANTIES OR CONDITIONS OF ANY KIND, either express or implied.
    See the License for the specific language governing permissions and
    limitations under the License.

-->
<svg width="110px" height="110px" viewBox="0 0 110 110" version="1.1" xmlns="http://www.w3.org/2000/svg" xmlns:xlink="http://www.w3.org/1999/xlink" xmlns:sketch="http://www.bohemiancoding.com/sketch/ns">
    <!-- Generator: Sketch 3.5.2 (25235) - http://www.bohemiancoding.com/sketch -->
    <title>Avatar/Chicken</title>
    <desc>Created with Sketch.</desc>
    <defs>
        <path id="path-1" d="M0,1.29723077 L59.343913,1.29723077 L59.343913,85 L0,85"></path>
    </defs>
    <g id="Avatars" stroke="none" stroke-width="1" fill="none" fill-rule="evenodd" sketch:type="MSPage">
        <g id="Avatar/Chicken" sketch:type="MSArtboardGroup">
            <g id="Background-Circle" sketch:type="MSLayerGroup" fill="#FFBB57">
                <circle id="Gold" sketch:type="MSShapeGroup" cx="55" cy="55" r="55"></circle>
            </g>
            <g id="Page-1" sketch:type="MSLayerGroup" transform="translate(25.000000, 12.000000)">
                <g id="Group-3">
                    <mask id="mask-2" sketch:name="Clip 2" fill="white">
                        <use xlink:href="#path-1"></use>
                    </mask>
                    <g id="Clip-2"></g>
                    <path d="M46.9158261,35.9296308 L46.9158261,28.1998615 C46.9158261,18.6916308 39.1562609,10.9121692 29.6736522,10.9121692 C20.1871304,10.9121692 12.4288696,18.6916308 12.4288696,28.1998615 L12.4288696,35.9296308 C4.90408696,40.8360923 -0.000260869565,48.8692462 -0.000260869565,57.9472462 C-0.000260869565,72.8876308 13.2845217,84.9994769 29.6736522,84.9994769 C46.0601739,84.9994769 59.3436522,72.8876308 59.3436522,57.9472462 C59.3436522,48.8692462 54.4393043,40.8360923 46.9158261,35.9296308" id="Fill-1" fill="#96634B" sketch:type="MSShapeGroup" mask="url(#mask-2)"></path>
                </g>
                <path d="M29.673913,10.9123 L29.673913,10.9123 L29.673913,84.9996077 C13.2847826,84.9996077 0,72.8877615 0,57.9473769 C0,48.8680692 4.90434783,40.8362231 12.4278261,35.9297615 L12.4278261,28.1999923 C12.4278261,18.6917615 20.1873913,10.9123 29.673913,10.9123" id="Fill-4" fill="#AB8170" sketch:type="MSShapeGroup"></path>
                <path d="M53.645087,51.4546846 C54.2203043,53.5574538 54.5281304,55.7726846 54.5281304,58.0598385 C54.5281304,71.8219923 43.4007391,82.9792231 29.6737826,82.9792231 C15.9442174,82.9792231 4.81552174,71.8219923 4.81552174,58.0598385 C4.81552174,55.7726846 5.12334783,53.5574538 5.70247826,51.4546846 C5.84986957,51.4664538 6.00378261,51.4729923 6.15769565,51.4729923 C8.09465217,51.4729923 9.80204348,50.5288385 10.8624783,49.0773 C11.9203043,50.5288385 13.6381304,51.4729923 15.5633478,51.4729923 C17.4963913,51.4729923 19.209,50.5288385 20.2668261,49.0773 C21.3259565,50.5288385 23.0398696,51.4729923 24.969,51.4729923 C26.9059565,51.4729923 28.6146522,50.5288385 29.6737826,49.0773 C30.7316087,50.5288385 32.4494348,51.4729923 34.3746522,51.4729923 C36.3076957,51.4729923 38.0203043,50.5288385 39.0781304,49.0773 C40.1372609,50.5288385 41.8511739,51.4729923 43.7803043,51.4729923 C45.7133478,51.4729923 47.4259565,50.5288385 48.4824783,49.0773 C49.542913,50.5288385 51.2542174,51.4729923 53.1859565,51.4729923 C53.3411739,51.4729923 53.4937826,51.4664538 53.645087,51.4546846" id="Fill-6" fill="#E3E4E4" sketch:type="MSShapeGroup"></path>
                <path d="M29.673913,82.9797462 C15.9443478,82.9797462 4.81434783,71.8225154 4.81434783,58.0590538 C4.81434783,55.7719 5.12347826,53.5579769 5.7026087,51.4552077 C5.85,51.4656692 6.0026087,51.4722077 6.15782609,51.4722077 C8.09478261,51.4722077 9.80217391,50.5293615 10.8626087,49.0765154 C11.9204348,50.5293615 13.6382609,51.4722077 15.5634783,51.4722077 C17.4965217,51.4722077 19.2091304,50.5293615 20.2669565,49.0765154 C21.326087,50.5293615 23.04,51.4722077 24.9691304,51.4722077 C26.906087,51.4722077 28.6147826,50.5293615 29.673913,49.0765154 L29.673913,82.9797462 Z" id="Fill-8" fill="#FFFFFF" sketch:type="MSShapeGroup"></path>
                <path d="M24.4335652,36.7469385 L29.6744348,36.7469385 L34.9087826,36.7469385 L34.9087826,44.8886308 L29.6744348,44.8886308 L24.4335652,44.8886308 L24.4335652,36.7469385 Z" id="Fill-10" fill="#DF3E52" sketch:type="MSShapeGroup"></path>
                <path d="M23.226,19.5553615 C27.2329565,19.5553615 30.486,22.8115154 30.486,26.8287462 C30.486,30.8472846 27.2329565,34.1047462 23.226,34.1047462 C19.2190435,34.1047462 15.9751304,30.8472846 15.9751304,26.8287462 C15.9751304,22.8115154 19.2190435,19.5553615 23.226,19.5553615" id="Fill-12" fill="#FFFFFF" sketch:type="MSShapeGroup"></path>
                <path d="M36.1167391,19.5553615 C40.1236957,19.5553615 43.3728261,22.8115154 43.3728261,26.8287462 C43.3728261,30.8472846 40.1236957,34.1047462 36.1167391,34.1047462 C32.1097826,34.1047462 28.8619565,30.8472846 28.8619565,26.8287462 C28.8619565,22.8115154 32.1097826,19.5553615 36.1167391,19.5553615" id="Fill-14" fill="#FFFFFF" sketch:type="MSShapeGroup"></path>
                <path d="M36.1167391,24.191 C37.571087,24.191 38.7528261,25.3718462 38.7528261,26.8299231 C38.7528261,28.2866923 37.571087,29.4675385 36.1167391,29.4675385 C34.6623913,29.4675385 33.4845652,28.2866923 33.4845652,26.8299231 L36.1167391,26.8299231 L36.1167391,24.191 Z" id="Fill-16" fill="#2E2E2F" sketch:type="MSShapeGroup"></path>
                <path d="M23.226,24.191 C24.6803478,24.191 25.8581739,25.3718462 25.8581739,26.8299231 C25.8581739,28.2866923 24.6803478,29.4675385 23.226,29.4675385 C21.7716522,29.4675385 20.5938261,28.2866923 20.5938261,26.8299231 L23.226,26.8299231 L23.226,24.191 Z" id="Fill-18" fill="#2E2E2F" sketch:type="MSShapeGroup"></path>
                <path d="M25.002913,7.15778462 C25.002913,7.15778462 21.9911739,6.80732308 21.7694348,7.25324615 C21.5476957,7.69916923 28.3185652,14.8247846 29.6737826,14.0833231 C29.6737826,14.0833231 31.6407391,10.6401692 29.0268261,6.5314 C29.6163913,4.67447692 29.6816087,2.19901538 30.2137826,2.50109231 C31.2520435,3.09609231 31.4711739,5.84224615 32.135087,4.43255385 C32.802913,3.02155385 33.7655217,3.68978462 33.9872609,7.47555385 C34.209,11.2626308 31.0276957,13.3405538 29.6737826,14.0833231 C27.6259565,11.6523231 26.105087,9.23047692 25.002913,7.15909231 L25.002913,7.15778462 Z" id="Fill-20" fill="#DB1F26" sketch:type="MSShapeGroup"></path>
                <path d="M29.673913,14.0831923 C29.673913,14.0831923 31.8704348,10.2411923 28.5404348,5.83165385 C25.2104348,1.42342308 22.5104348,1.29788462 22.5104348,1.29788462 C22.5104348,1.29788462 24.2673913,7.6585 29.673913,14.0831923" id="Fill-22" fill="#DF3E52" sketch:type="MSShapeGroup"></path>
                <path d="M29.673913,32.5416615 C32.3947826,32.5416615 36.1069565,35.2119692 34.5978261,37.4808154 L29.673913,44.8888923 L24.7473913,37.4808154 C23.2356522,35.2106615 26.9530435,32.5416615 29.673913,32.5416615" id="Fill-24" fill="#F6B726" sketch:type="MSShapeGroup"></path>
            </g>
        </g>
    </g>
</svg>
