<?xml version="1.0" encoding="UTF-8" standalone="no"?>
<!--

    Copyright (C) 2017-2018 Dremio Corporation

    Licensed under the Apache License, Version 2.0 (the "License");
    you may not use this file except in compliance with the License.
    You may obtain a copy of the License at

        http://www.apache.org/licenses/LICENSE-2.0

    Unless required by applicable law or agreed to in writing, software
    distributed under the License is distributed on an "AS IS" BASIS,
    WITHOUT WARRANTIES OR CONDITIONS OF ANY KIND, either express or implied.
    See the License for the specific language governing permissions and
    limitations under the License.

-->
<svg width="110px" height="110px" viewBox="0 0 110 110" version="1.1" xmlns="http://www.w3.org/2000/svg" xmlns:xlink="http://www.w3.org/1999/xlink" xmlns:sketch="http://www.bohemiancoding.com/sketch/ns">
    <!-- Generator: Sketch 3.5.2 (25235) - http://www.bohemiancoding.com/sketch -->
    <title>Avatar/Cougar</title>
    <desc>Created with Sketch.</desc>
    <defs>
        <path id="path-1" d="M0,0.190176471 L76.8096,0.190176471 L76.8096,61 L0,61"></path>
        <path id="path-3" d="M0,0.190176471 L76.8096,0.190176471 L76.8096,61 L0,61"></path>
        <path id="path-5" d="M0,0.190176471 L76.8096,0.190176471 L76.8096,61 L0,61"></path>
    </defs>
    <g id="Avatars" stroke="none" stroke-width="1" fill="none" fill-rule="evenodd" sketch:type="MSPage">
        <g id="Avatar/Cougar" sketch:type="MSArtboardGroup">
            <g id="Background-Circle" sketch:type="MSLayerGroup" fill="#3ACBAC">
                <circle id="Green" sketch:type="MSShapeGroup" cx="55" cy="55" r="55"></circle>
            </g>
            <g id="Page-1" sketch:type="MSLayerGroup" transform="translate(17.000000, 24.000000)">
                <g id="Group-3">
                    <mask id="mask-2" sketch:name="Clip 2" fill="white">
                        <use xlink:href="#path-1"></use>
                    </mask>
                    <g id="Clip-2"></g>
                    <path d="M20.82756,24.1271745 C27.44196,24.1271745 32.83596,18.750802 32.83596,12.1580176 C32.83596,5.56642941 27.44196,0.190056863 20.82756,0.190056863 C14.21316,0.190056863 8.82036,5.56642941 8.82036,12.1580176 C8.82036,18.750802 14.21316,24.1271745 20.82756,24.1271745" id="Fill-1" fill="#F7AD6C" sketch:type="MSShapeGroup" mask="url(#mask-2)"></path>
                </g>
                <path d="M20.82756,18.6366961 C24.40836,18.6366961 27.32676,15.7266373 27.32676,12.1575392 C27.32676,8.59083333 24.40836,5.67957843 20.82756,5.67957843 C17.24916,5.67957843 14.32836,8.59083333 14.32836,12.1575392 C14.32836,15.7266373 17.24916,18.6366961 20.82756,18.6366961" id="Fill-4" fill="#5A5B5C" sketch:type="MSShapeGroup"></path>
                <g id="Group-8">
                    <mask id="mask-4" sketch:name="Clip 7" fill="white">
                        <use xlink:href="#path-3"></use>
                    </mask>
                    <g id="Clip-7"></g>
                    <path d="M57.25764,24.1271745 C63.87204,24.1271745 69.26604,18.750802 69.26604,12.1580176 C69.26604,5.56642941 63.87204,0.190056863 57.25764,0.190056863 C50.64924,0.190056863 45.25044,5.56642941 45.25044,12.1580176 C45.25044,18.750802 50.64924,24.1271745 57.25764,24.1271745" id="Fill-6" fill="#F7AD6C" sketch:type="MSShapeGroup" mask="url(#mask-4)"></path>
                </g>
                <path d="M57.25764,18.6366961 C60.83724,18.6366961 63.75924,15.7266373 63.75924,12.1575392 C63.75924,8.59083333 60.83724,5.67957843 57.25764,5.67957843 C53.67804,5.67957843 50.75844,8.59083333 50.75844,12.1575392 C50.75844,15.7266373 53.67804,18.6366961 57.25764,18.6366961" id="Fill-9" fill="#2E2E2F" sketch:type="MSShapeGroup"></path>
                <path d="M66.2682,28.4243255 L66.2706,28.432698 L66.2706,28.4482471 C66.3822,29.1934039 66.4614,29.9457373 66.5106,30.7088353 L66.5274,30.7889725 L66.5274,52.3913451 C59.8986,57.0213647 50.043,59.954149 39.039,59.954149 C28.0386,59.954149 18.1878,57.0225608 11.559,52.3973255 L11.559,30.7937569 C11.6142,29.8978941 11.7138,29.0127961 11.859,28.142051 L11.859,28.1300902 L11.859,28.1085608 C12.1218,26.4830902 12.5286,24.9066588 13.0638,23.3900314 L13.0698,23.368502 L13.0722,23.3673059 C16.8498,12.7066588 27.0486,5.06730588 39.039,5.06730588 C52.851,5.06730588 64.2882,15.2064627 66.2682,28.4243255" id="Fill-11" fill="#F7AD6C" sketch:type="MSShapeGroup"></path>
                <path d="M53.43492,58.1745039 C49.02372,59.319151 44.15892,59.9542686 39.03852,59.9542686 C33.92412,59.9542686 29.06052,59.319151 24.65052,58.1768961 L24.65052,52.4022294 C24.65052,48.7386412 27.65892,45.7424647 31.33212,45.7424647 L46.75332,45.7424647 C50.42892,45.7424647 53.43492,48.7398373 53.43492,52.4022294 L53.43492,58.1745039 Z" id="Fill-13" fill="#FFFFFF" sketch:type="MSShapeGroup"></path>
                <path d="M66.2682,28.4243255 L66.2706,28.432698 L66.2706,28.4482471 C66.3822,29.1934039 66.4614,29.9457373 66.5106,30.7088353 L66.5274,30.7901686 L66.5274,52.3913451 C59.8986,57.0213647 50.043,59.954149 39.039,59.954149 L39.039,5.06730588 C52.851,5.06730588 64.2882,15.2064627 66.2682,28.4243255" id="Fill-15" fill="#F68E2C" sketch:type="MSShapeGroup"></path>
                <path d="M53.43492,58.1745039 L53.09892,58.2606216 L52.69212,58.3610922 L52.35252,58.4436216 L51.93972,58.5393078 L51.53652,58.6290137 L51.18372,58.7055627 L50.78172,58.7904843 L50.40972,58.8646412 L49.98612,58.9471706 L49.66812,59.0057784 L49.17492,59.0942882 L48.84972,59.1493078 L48.33012,59.2342294 L48.11412,59.2677196 C47.91972,59.2976216 47.72292,59.3275235 47.52612,59.3550333 L47.33772,59.3825431 C47.12172,59.4136412 46.90932,59.4423471 46.68612,59.4698569 L46.52772,59.4901902 C46.31892,59.5165039 46.11132,59.5416216 45.90132,59.5655431 L45.68772,59.5894647 C45.46332,59.6145824 45.24012,59.6385039 45.01452,59.6600333 L44.96892,59.6660137 L44.90892,59.670798 C44.67372,59.6947196 44.43732,59.716249 44.19972,59.7365824 L44.06172,59.7473471 C43.82292,59.7676804 43.58532,59.7856216 43.34892,59.8023667 L43.30332,59.8059549 L43.29252,59.8059549 L43.26612,59.8083471 C43.01292,59.8250922 42.75972,59.8418373 42.50052,59.8561902 L42.42732,59.8609745 C41.88132,59.8908765 41.33172,59.913602 40.77852,59.9303471 L40.74972,59.9303471 C40.46892,59.9387196 40.19172,59.9447 39.91332,59.9482882 L39.88932,59.9482882 C39.60612,59.9518765 39.32292,59.9542686 39.03852,59.9542686 L39.03852,45.7424647 L46.75332,45.7424647 C50.42892,45.7424647 53.43492,48.7398373 53.43492,52.4022294 L53.43492,58.1745039 Z" id="Fill-17" fill="#E3E4E4" sketch:type="MSShapeGroup"></path>
                <path d="M48.12288,37.4965804 C47.27688,36.103149 46.98648,34.4681098 47.25888,32.9096196 L52.72488,32.9096196 L52.72488,27.455502 C54.28968,27.1899725 55.92888,27.4782275 57.32688,28.3226588 C58.88928,30.8930314 58.55808,34.2839137 56.33208,36.5038353 C54.10848,38.7225608 50.70048,39.0538745 48.12288,37.4965804" id="Fill-19" fill="#2E2E2F" sketch:type="MSShapeGroup"></path>
                <path d="M29.97516,37.4965804 C31.53756,34.9274039 31.20516,31.5353255 28.97916,29.3154039 C27.95916,28.2999333 26.69916,27.6791686 25.37316,27.455502 L25.37316,32.9096196 L19.89996,32.9096196 C20.12556,34.2253059 20.74836,35.4871686 21.76716,36.5038353 C23.99916,38.7225608 27.39996,39.0538745 29.97516,37.4965804" id="Fill-21" fill="#5A5B5C" sketch:type="MSShapeGroup"></path>
                <path d="M39.65952,50.9208863 C39.67392,50.9735137 39.68232,51.0297294 39.68232,51.0871412 L39.68232,54.8189059 C39.75912,54.9696118 39.79152,55.1286902 39.78792,55.2865725 C40.71552,55.6621412 43.46592,55.7016118 44.01912,55.7016118 C45.82632,55.7016118 48.05832,55.4360824 49.56912,54.3464549 C49.90872,54.1060431 50.48352,53.5713961 50.62512,53.158749 C50.73792,52.8274353 51.10872,52.6492196 51.43632,52.7628471 C51.76872,52.8764745 51.94752,53.2400824 51.83352,53.5713961 C51.59832,54.2615333 50.89152,54.9672196 50.31792,55.3798667 C48.56472,56.6417294 46.12392,56.9754353 44.01912,56.9754353 C42.84912,56.9754353 40.24272,56.9586902 39.04272,56.3283569 C37.84272,56.9586902 35.24112,56.9754353 34.06632,56.9754353 C31.96272,56.9754353 29.52072,56.6417294 27.76752,55.3798667 C27.19872,54.9672196 26.48832,54.2615333 26.25072,53.5713961 C26.13672,53.2400824 26.31552,52.8764745 26.64912,52.7628471 C26.98272,52.6492196 27.34752,52.8274353 27.46032,53.158749 C27.60192,53.5713961 28.18032,54.1060431 28.51632,54.3464549 C30.02832,55.4360824 32.25912,55.7016118 34.06632,55.7016118 C34.61952,55.7016118 37.36992,55.6621412 38.29872,55.2865725 C38.29272,55.1286902 38.32632,54.9696118 38.40552,54.8189059 L38.40552,51.0871412 C38.40552,51.0297294 38.41152,50.9735137 38.42592,50.9208863 L39.65952,50.9208863 Z" id="Fill-23" fill="#2E2E2F" sketch:type="MSShapeGroup"></path>
                <path d="M32.442,45.5198745 L39.0432,45.5198745 L45.648,45.5198745 C46.8012,48.5603059 41.5092,50.3843255 39.66,50.9213647 L38.4252,50.9213647 C36.5772,50.3843255 31.284,48.5603059 32.442,45.5198745" id="Fill-25" fill="#DF3E52" sketch:type="MSShapeGroup"></path>
                <g id="Group-29">
                    <mask id="mask-6" sketch:name="Clip 28" fill="white">
                        <use xlink:href="#path-5"></use>
                    </mask>
                    <g id="Clip-28"></g>
                    <path d="M51.14856,50.8456529 C50.80896,50.8444569 50.53056,51.1171627 50.52816,51.4532608 C50.52576,51.7905549 50.80056,52.066849 51.13896,52.0692412 C51.62616,52.0728294 52.14936,52.0943588 52.68456,52.1386137 C55.90896,52.3945745 59.83416,53.3669863 62.21856,55.1347902 C63.61176,56.168202 65.84856,58.1106333 67.00896,59.8401627 C67.19016,60.1152608 67.34856,60.3867706 67.47096,60.6475157 C67.61376,60.9525157 67.97976,61.0852804 68.28576,60.9429471 C68.59296,60.8006137 68.72496,60.4346137 68.58216,60.1296137 C67.59576,58.0209275 64.75776,55.4924176 62.95056,54.1540059 C62.15016,53.5595549 61.19856,53.0488294 60.16296,52.6182412 C58.86576,52.0788098 57.43776,51.6661627 56.01216,51.3755157 C54.31176,51.0286529 52.61496,50.8540255 51.14856,50.8456529 M50.49936,49.2070255 C50.16096,49.2261627 49.90176,49.5156137 49.92096,49.8517118 C49.93896,50.1890059 50.23056,50.4473588 50.56896,50.4282216 C51.17496,50.3935353 51.86856,50.3696137 52.62096,50.358849 C57.14136,50.3002412 63.80256,50.7667118 66.90216,52.7617706 C67.71816,53.2856529 70.21656,54.8943784 71.52216,56.0198882 C71.82816,56.2842216 72.07056,56.5234373 72.20856,56.7148098 C72.38976,56.9982804 72.76776,57.0748294 73.05216,56.8930255 C73.33656,56.7112216 73.41936,56.3308686 73.23576,56.0485941 C72.51096,54.9230843 68.64936,52.4256725 67.56816,51.7343392 C67.36176,51.6003784 67.14216,51.4759863 66.91056,51.3551824 C64.54176,50.1220255 60.92376,49.5156137 57.44976,49.2692216 C54.86136,49.0862216 52.35096,49.1017706 50.49936,49.2070255 M50.18016,47.1497706 C55.25376,46.2347706 63.73176,45.5853 68.60856,47.3590843 C70.90176,48.1963392 73.27776,49.3960059 75.08256,51.0729078 C75.64296,51.593202 76.42296,52.4352412 76.75176,53.1457118 C76.89576,53.4519078 76.75896,53.8155157 76.45176,53.957849 C76.14936,54.0989863 75.77856,53.9638294 75.63696,53.6576333 C75.57336,53.5224765 75.48216,53.3741627 75.37416,53.2210647 C75.04776,52.7617706 74.56656,52.265398 74.24856,51.9675745 C72.56616,50.4066922 70.32096,49.2871627 68.18136,48.5085157 C64.04856,47.003849 56.97216,47.3686529 52.06896,48.0827118 C51.47616,48.1688294 50.91816,48.2597314 50.39856,48.3542216 C50.06616,48.4128294 49.74936,48.192751 49.68456,47.8602412 C49.62456,47.5289275 49.84776,47.2095745 50.18016,47.1497706 M25.66896,52.0692412 C26.00856,52.066849 26.27976,51.7905549 26.27736,51.4532608 C26.27616,51.1171627 25.99896,50.8444569 25.66056,50.8456529 C24.51576,50.8528294 23.23176,50.9592804 21.91656,51.1709863 C19.89576,51.4951235 17.80176,52.0656529 16.01736,52.8933392 C15.22416,53.2617314 14.49216,53.6815549 13.85856,54.1540059 C12.04896,55.4924176 9.21216,58.0209275 8.22336,60.1296137 C8.08056,60.4346137 8.21496,60.8006137 8.52096,60.9429471 C8.82696,61.0852804 9.19296,60.9525157 9.33576,60.6475157 C9.45936,60.3951431 9.60576,60.133202 9.78216,59.8664765 C10.93536,58.1309667 13.18776,56.1741824 14.58816,55.1347902 C17.12016,53.2593392 21.38736,52.2785549 24.70896,52.0991431 C25.03776,52.081202 25.35936,52.0716333 25.66896,52.0692412 M26.23896,50.4282216 C26.57616,50.4473588 26.86776,50.1890059 26.88576,49.8517118 C26.90856,49.5156137 26.64936,49.2261627 26.30856,49.2070255 C24.59856,49.1101431 22.31856,49.0886137 19.93656,49.2309471 C16.22256,49.4534176 12.25296,50.0753784 9.75936,51.4281431 C9.57816,51.5262216 9.40896,51.6278882 9.23976,51.7343392 C8.16336,52.4256725 4.29576,54.9230843 3.57096,56.0485941 C3.38736,56.3308686 3.47136,56.7112216 3.75936,56.8930255 C4.03896,57.0748294 4.41696,56.9982804 4.59936,56.7148098 C4.73376,56.5258294 4.97016,56.2925941 5.27016,56.0330451 C6.57096,54.9075353 9.08496,53.2880451 9.90576,52.7617706 C13.11696,50.6949471 20.14776,50.2691431 24.66576,50.3672216 C25.23336,50.3803784 25.76256,50.4007118 26.23896,50.4282216 M26.40936,48.3542216 C25.97976,48.2764765 25.52376,48.2011235 25.04856,48.1293588 C20.13456,47.385398 12.84936,46.9703588 8.62416,48.5085157 C6.50856,49.2811824 4.28256,50.3863588 2.60856,51.9257118 C2.26416,52.2414765 1.76616,52.7498098 1.42896,53.225849 C1.32336,53.3753588 1.23336,53.5224765 1.16976,53.6588294 C1.02816,53.9638294 0.66336,54.0989863 0.35856,53.957849 C0.04896,53.8155157 -0.08664,53.4519078 0.05856,53.1457118 C0.38256,52.4352412 1.16376,51.593202 1.72296,51.0729078 C3.52896,49.3960059 5.90856,48.1963392 8.20896,47.3590843 C13.07376,45.5853 21.55296,46.2347706 26.62656,47.1497706 C26.96016,47.2095745 27.18096,47.5289275 27.12216,47.8602412 C27.06216,48.192751 26.74056,48.4128294 26.40936,48.3542216" id="Fill-27" fill="#D19477" sketch:type="MSShapeGroup" mask="url(#mask-6)"></path>
                </g>
            </g>
        </g>
    </g>
</svg>
