<?xml version="1.0" encoding="UTF-8" standalone="no"?>
<!--

    Copyright (C) 2017-2018 Dremio Corporation

    Licensed under the Apache License, Version 2.0 (the "License");
    you may not use this file except in compliance with the License.
    You may obtain a copy of the License at

        http://www.apache.org/licenses/LICENSE-2.0

    Unless required by applicable law or agreed to in writing, software
    distributed under the License is distributed on an "AS IS" BASIS,
    WITHOUT WARRANTIES OR CONDITIONS OF ANY KIND, either express or implied.
    See the License for the specific language governing permissions and
    limitations under the License.

-->
<svg width="110px" height="110px" viewBox="0 0 110 110" version="1.1" xmlns="http://www.w3.org/2000/svg" xmlns:xlink="http://www.w3.org/1999/xlink" xmlns:sketch="http://www.bohemiancoding.com/sketch/ns">
    <!-- Generator: Sketch 3.5.2 (25235) - http://www.bohemiancoding.com/sketch -->
    <title>Avatar/Cow-Brown</title>
    <desc>Created with Sketch.</desc>
    <defs>
        <path id="path-1" d="M0,0.709176471 L83.7014615,0.709176471 L83.7014615,66 L0,66"></path>
        <path id="path-3" d="M0,0.709176471 L83.7014615,0.709176471 L83.7014615,66 L0,66"></path>
        <path id="path-5" d="M0,0.709176471 L83.7014615,0.709176471 L83.7014615,66 L0,66 L0,0.709176471 Z"></path>
    </defs>
    <g id="Avatars" stroke="none" stroke-width="1" fill="none" fill-rule="evenodd" sketch:type="MSPage">
        <g id="Avatar/Cow-Brown" sketch:type="MSArtboardGroup">
            <g id="Background-Circle" sketch:type="MSLayerGroup" fill="#C0E9F5">
                <circle id="Light-Blue" sketch:type="MSShapeGroup" cx="55" cy="55" r="55"></circle>
            </g>
            <g id="Page-1" sketch:type="MSLayerGroup" transform="translate(13.000000, 22.000000)">
                <g id="Group-3">
                    <mask id="mask-2" sketch:name="Clip 2" fill="white">
                        <use xlink:href="#path-1"></use>
                    </mask>
                    <g id="Clip-2"></g>
                    <path d="M64.1296231,4.86432941 C69.1080077,2.02115294 77.3059308,-0.401435294 82.5105462,3.19232941 L83.5619308,3.91703529 L83.6704692,5.1788 C83.9254692,8.12550588 82.5811615,11.0372706 80.8497769,13.3576235 C78.8058538,16.1050353 75.9890846,18.3956235 73.0153923,20.0960941 C68.0370077,22.9392706 59.8390846,25.3618588 54.6344692,21.7668 L53.5857,21.0420941 L53.4771615,19.7803294 C53.2195462,16.8336235 54.5664692,13.9231529 56.2952385,11.6015059 C58.3391615,8.85538824 61.1559308,6.56350588 64.1296231,4.86432941" id="Fill-1" fill="#2E2E2F" sketch:type="MSShapeGroup" mask="url(#mask-2)"></path>
                </g>
                <path d="M66.0706308,8.18296471 C61.2230154,10.9510824 58.2153231,15.1013176 58.4886308,18.2395529 C61.1000923,20.0448471 66.2354,19.5427294 71.0790923,16.7772 C75.9214769,14.0090824 78.9304769,9.86014118 78.6584769,6.71802353 C76.0457077,4.91531765 70.9090923,5.41614118 66.0706308,8.18296471" id="Fill-4" fill="#BC9A8A" sketch:type="MSShapeGroup"></path>
                <g id="Group-8">
                    <mask id="mask-4" sketch:name="Clip 7" fill="white">
                        <use xlink:href="#path-3"></use>
                    </mask>
                    <g id="Clip-7"></g>
                    <path d="M19.5697462,4.86432941 C14.5887462,2.02115294 6.39082308,-0.401435294 1.18751538,3.19232941 L0.141361538,3.91703529 L0.0315153846,5.1788 C-0.227407692,8.12550588 1.1169,11.0372706 2.84566923,13.3576235 C4.8909,16.1050353 7.70897692,18.3956235 10.6813615,20.0960941 C15.6597462,22.9392706 23.8576692,25.3618588 29.0609769,21.7668 L30.1110538,21.0420941 L30.2209,19.7803294 C30.4772077,16.8336235 29.1315923,13.9231529 27.4028231,11.6015059 C25.3575923,8.85538824 22.5408231,6.56350588 19.5697462,4.86432941" id="Fill-6" fill="#2E2E2F" sketch:type="MSShapeGroup" mask="url(#mask-4)"></path>
                </g>
                <path d="M17.6324,8.18296471 C22.4734769,10.9510824 25.4798615,15.1013176 25.2078615,18.2395529 C22.5964,20.0448471 17.4610923,19.5427294 12.6200154,16.7772 C7.77501538,14.0090824 4.77386154,9.86014118 5.04586154,6.71802353 C7.65209231,4.91531765 12.7887077,5.41614118 17.6324,8.18296471" id="Fill-9" fill="#BC9A8A" sketch:type="MSShapeGroup"></path>
                <path d="M41.8490308,66 C56.2414923,66 67.9780308,51.3350588 67.9780308,33.3545882 C67.9780308,15.3741176 56.2414923,0.709176471 41.8490308,0.709176471 C27.4591846,0.709176471 15.7239538,15.3741176 15.7239538,33.3545882 C15.7239538,51.3350588 27.4591846,66 41.8490308,66" id="Fill-11" fill="#AB8170" sketch:type="MSShapeGroup"></path>
                <g id="Group-15">
                    <mask id="mask-6" sketch:name="Clip 14" fill="white">
                        <use xlink:href="#path-5"></use>
                    </mask>
                    <g id="Clip-14"></g>
                    <path d="M41.8490308,0.708917647 C56.2768,0.708917647 67.9780308,15.3246824 67.9780308,33.3556235 C67.9780308,51.3839765 56.2768,65.9997412 41.8490308,65.9997412 L41.8490308,0.708917647 Z" id="Fill-13" fill="#96634B" sketch:type="MSShapeGroup" mask="url(#mask-6)"></path>
                </g>
                <path d="M54.3742385,4.69868235 C62.4780077,10.2413882 67.9781615,20.9968 67.9781615,33.3556235 C67.9781615,34.7364471 67.9062385,36.0991529 67.7715462,37.4359765 C66.2912385,37.8306824 64.7377,38.0429176 63.1292385,38.0429176 C53.2496231,38.0429176 45.2413154,30.0685647 45.2413154,20.2319765 C45.2413154,13.5633882 48.9237769,7.75021176 54.3742385,4.69868235" id="Fill-16" fill="#2E2E2F" sketch:type="MSShapeGroup"></path>
                <path d="M41.8490308,60.4746353 C52.0725692,60.4746353 60.4117231,54.7015765 60.4117231,47.6214588 C60.4117231,40.5426353 52.0725692,34.7682824 41.8490308,34.7682824 C31.6254923,34.7682824 23.2863385,40.5426353 23.2863385,47.6214588 C23.2863385,54.7015765 31.6254923,60.4746353 41.8490308,60.4746353" id="Fill-18" fill="#BC9A8A" sketch:type="MSShapeGroup"></path>
                <path d="M30.6978154,27.3711059 C33.4648923,27.3711059 35.7232769,25.1374588 35.7232769,22.4004 C35.7232769,19.6620471 33.4648923,17.4284 30.6978154,17.4284 C27.9320462,17.4284 25.6736615,19.6620471 25.6736615,22.4004 C25.6736615,25.1374588 27.9320462,27.3711059 30.6978154,27.3711059" id="Fill-20" fill="#FFFFFF" sketch:type="MSShapeGroup"></path>
                <path d="M30.6978154,19.6139059 C32.2526615,19.6139059 33.5198154,20.8614353 33.5198154,22.4001412 C33.5198154,23.9388471 32.2526615,25.1863765 30.6978154,25.1863765 C29.1442769,25.1863765 27.8836615,23.9388471 27.8836615,22.4001412 L30.6978154,22.4001412 L30.6978154,19.6139059 Z" id="Fill-22" fill="#2E2E2F" sketch:type="MSShapeGroup"></path>
                <path d="M52.9976308,27.3711059 C55.7660154,27.3711059 58.0217846,25.1374588 58.0217846,22.4004 C58.0217846,19.6620471 55.7660154,17.4284 52.9976308,17.4284 C50.2318615,17.4284 47.9747846,19.6620471 47.9747846,22.4004 C47.9747846,25.1374588 50.2318615,27.3711059 52.9976308,27.3711059" id="Fill-24" fill="#E3E4E4" sketch:type="MSShapeGroup"></path>
                <path d="M52.9988077,19.6139059 C54.5536538,19.6139059 55.8142692,20.8614353 55.8142692,22.4001412 C55.8142692,23.9388471 54.5536538,25.1863765 52.9988077,25.1863765 C51.4465769,25.1863765 50.1833462,23.9388471 50.1833462,22.4001412 L52.9988077,22.4001412 L52.9988077,19.6139059 Z" id="Fill-26" fill="#2E2E2F" sketch:type="MSShapeGroup"></path>
                <path d="M41.8490308,60.4746353 L41.8490308,34.7682824 C52.1013385,34.7682824 60.4117231,40.5232235 60.4117231,47.6214588 C60.4117231,54.7222824 52.1013385,60.4746353 41.8490308,60.4746353" id="Fill-28" fill="#AB8170" sketch:type="MSShapeGroup"></path>
                <path d="M53.1967923,43.1355294 C54.7934846,43.1355294 56.0776385,44.4115294 56.0776385,45.9864706 C56.0776385,47.5588235 54.7934846,48.8348235 53.1967923,48.8348235 C51.6079462,48.8348235 50.3185615,47.5588235 50.3185615,45.9864706 C50.3185615,44.4115294 51.6079462,43.1355294 53.1967923,43.1355294 M29.6112538,43.1355294 C31.2014077,43.1355294 32.4907923,44.4115294 32.4907923,45.9864706 C32.4907923,47.5588235 31.2014077,48.8348235 29.6112538,48.8348235 C28.0211,48.8348235 26.7330231,47.5588235 26.7330231,45.9864706 C26.7330231,44.4115294 28.0211,43.1355294 29.6112538,43.1355294" id="Fill-30" fill="#2E2E2F" sketch:type="MSShapeGroup"></path>
            </g>
        </g>
    </g>
</svg>
