<?xml version="1.0" encoding="UTF-8" standalone="no"?>
<!--

    Copyright (C) 2017-2018 Dremio Corporation

    Licensed under the Apache License, Version 2.0 (the "License");
    you may not use this file except in compliance with the License.
    You may obtain a copy of the License at

        http://www.apache.org/licenses/LICENSE-2.0

    Unless required by applicable law or agreed to in writing, software
    distributed under the License is distributed on an "AS IS" BASIS,
    WITHOUT WARRANTIES OR CONDITIONS OF ANY KIND, either express or implied.
    See the License for the specific language governing permissions and
    limitations under the License.

-->
<svg width="110px" height="110px" viewBox="0 0 110 110" version="1.1" xmlns="http://www.w3.org/2000/svg" xmlns:xlink="http://www.w3.org/1999/xlink" xmlns:sketch="http://www.bohemiancoding.com/sketch/ns">
    <!-- Generator: Sketch 3.5.2 (25235) - http://www.bohemiancoding.com/sketch -->
    <title>Avatar/Cow</title>
    <desc>Created with Sketch.</desc>
    <defs>
        <path id="path-1" d="M0,0.654254902 L76.8096,0.654254902 L76.8096,61 L0,61 L0,0.654254902 Z"></path>
    </defs>
    <g id="Avatars" stroke="none" stroke-width="1" fill="none" fill-rule="evenodd" sketch:type="MSPage">
        <g id="Avatar/Cow" sketch:type="MSArtboardGroup">
            <g id="Background-Circle" sketch:type="MSLayerGroup" fill="#3ACBAC">
                <circle id="Green" sketch:type="MSShapeGroup" cx="55" cy="55" r="55"></circle>
            </g>
            <g id="Page-1" sketch:type="MSLayerGroup" transform="translate(16.000000, 24.000000)">
                <path d="M58.85244,4.49581961 C63.41964,1.86683922 70.94244,-0.372219608 75.71724,2.9492902 L76.67964,3.61909412 L76.78044,4.78527059 C77.01564,7.50993725 75.78204,10.1999176 74.19564,12.3444863 C72.31884,14.8825647 69.73284,17.0008196 67.00884,18.5712706 C62.43684,21.200251 54.91404,23.4393098 50.13924,20.1178 L49.17564,19.4468 L49.07484,18.2806235 C48.84084,15.5571529 50.07324,12.8671725 51.66084,10.7214078 C53.53764,8.18332941 56.12244,6.06627059 58.85244,4.49581961" id="Fill-1" fill="#2E2E2F" sketch:type="MSShapeGroup"></path>
                <path d="M60.62784,7.56304314 C56.18424,10.1202588 53.42544,13.9572784 53.67504,16.8577686 C56.07144,18.525102 60.78384,18.0610235 65.22864,15.5050039 C69.67224,12.9465922 72.43104,9.11076863 72.18024,6.20908235 C69.78504,4.54174902 65.07144,5.00463137 60.62784,7.56304314" id="Fill-3" fill="#F9C6C5" sketch:type="MSShapeGroup"></path>
                <path d="M17.9586,4.49581961 C13.3902,1.86683922 5.8674,-0.372219608 1.0926,2.9492902 L0.1302,3.61909412 L0.0294,4.78527059 C-0.207,7.50993725 1.0278,10.1999176 2.6154,12.3444863 C4.491,14.8825647 7.0758,17.0008196 9.8082,18.5712706 C14.373,21.200251 21.8958,23.4393098 26.6718,20.1178 L27.6342,19.4468 L27.7338,18.2806235 C27.9702,15.5571529 26.7354,12.8671725 25.1574,10.7214078 C23.2722,8.18332941 20.6886,6.06627059 17.9586,4.49581961" id="Fill-5" fill="#2E2E2F" sketch:type="MSShapeGroup"></path>
                <path d="M16.18212,7.56304314 C20.62572,10.1202588 23.38572,13.9572784 23.13492,16.8577686 C20.73852,18.525102 16.02612,18.0610235 11.58132,15.5050039 C7.13772,12.9465922 4.37772,9.11076863 4.62852,6.20908235 C7.02492,4.54174902 11.73732,5.00463137 16.18212,7.56304314" id="Fill-7" fill="#FADBDA" sketch:type="MSShapeGroup"></path>
                <path d="M38.40552,61 C51.60912,61 62.37792,47.4460392 62.37792,30.8265294 C62.37792,14.2082157 51.60912,0.654254902 38.40552,0.654254902 C25.20552,0.654254902 14.42952,14.2082157 14.42952,30.8265294 C14.42952,47.4460392 25.20552,61 38.40552,61" id="Fill-9" fill="#FFFFFF" sketch:type="MSShapeGroup"></path>
                <g id="Group-13">
                    <mask id="mask-2" sketch:name="Clip 12" fill="white">
                        <use xlink:href="#path-1"></use>
                    </mask>
                    <g id="Clip-12"></g>
                    <path d="M38.40552,0.654015686 C51.64512,0.654015686 62.37792,14.1625255 62.37792,30.8274863 C62.37792,47.491251 51.64512,60.9997608 38.40552,60.9997608 L38.40552,0.654015686 Z" id="Fill-11" fill="#E3E4E4" sketch:type="MSShapeGroup" mask="url(#mask-2)"></path>
                </g>
                <path d="M14.61648,34.598602 C14.49288,33.3630529 14.43048,32.1047784 14.43048,30.8273667 C14.43048,19.4048176 19.47408,9.46540588 26.91048,4.34260196 C31.91328,7.16415098 35.29128,12.5357392 35.29128,18.6991314 C35.29128,27.7905235 27.94248,35.1595627 18.87648,35.1595627 C17.40528,35.1595627 15.97488,34.9634059 14.61648,34.598602" id="Fill-14" fill="#5A5B5C" sketch:type="MSShapeGroup"></path>
                <path d="M49.90044,4.34272157 C57.33444,9.46552549 62.37804,19.4049373 62.37804,30.8274863 C62.37804,32.103702 62.31564,33.3631725 62.19324,34.5987216 C60.83364,34.9647216 59.40924,35.1596824 57.93204,35.1596824 C48.86724,35.1596824 41.51724,27.7906431 41.51724,18.699251 C41.51724,12.5358588 44.89644,7.16307451 49.90044,4.34272157" id="Fill-16" fill="#2E2E2F" sketch:type="MSShapeGroup"></path>
                <path d="M38.40552,55.8926255 C47.78592,55.8926255 55.43832,50.5569196 55.43832,44.0131745 C55.43832,37.4694294 47.78592,32.1337235 38.40552,32.1337235 C29.02272,32.1337235 21.37032,37.4694294 21.37032,44.0131745 C21.37032,50.5569196 29.02272,55.8926255 38.40552,55.8926255" id="Fill-18" fill="#FADBDA" sketch:type="MSShapeGroup"></path>
                <path d="M28.17276,25.2980157 C30.71196,25.2980157 32.78316,23.2323882 32.78316,20.7026824 C32.78316,18.1717804 30.71196,16.107349 28.17276,16.107349 C25.63356,16.107349 23.56356,18.1717804 23.56356,20.7026824 C23.56356,23.2323882 25.63356,25.2980157 28.17276,25.2980157" id="Fill-20" fill="#FFFFFF" sketch:type="MSShapeGroup"></path>
                <path d="M28.17384,18.1280039 C29.60784,18.1280039 30.75864,19.2798275 30.75864,20.7019647 C30.75864,22.125298 29.60784,23.2783176 28.17384,23.2783176 C26.74704,23.2783176 25.58904,22.125298 25.58904,20.7019647 L28.17384,20.7019647 L28.17384,18.1280039 Z" id="Fill-22" fill="#2E2E2F" sketch:type="MSShapeGroup"></path>
                <path d="M48.6372,25.2980157 C51.1752,25.2980157 53.2476,23.2323882 53.2476,20.7026824 C53.2476,18.1717804 51.1752,16.107349 48.6372,16.107349 C46.098,16.107349 44.0268,18.1717804 44.0268,20.7026824 C44.0268,23.2323882 46.098,25.2980157 48.6372,25.2980157" id="Fill-24" fill="#E3E4E4" sketch:type="MSShapeGroup"></path>
                <path d="M48.6372,18.1280039 C50.064,18.1280039 51.2196,19.2798275 51.2196,20.7019647 C51.2196,22.125298 50.064,23.2783176 48.6372,23.2783176 C47.2104,23.2783176 46.0596,22.125298 46.0596,20.7019647 L48.6372,20.7019647 L48.6372,18.1280039 Z" id="Fill-26" fill="#2E2E2F" sketch:type="MSShapeGroup"></path>
                <path d="M38.40552,55.8926255 L38.40552,32.1337235 C47.81232,32.1337235 55.43832,37.4526843 55.43832,44.0131745 C55.43832,50.5736647 47.81232,55.8926255 38.40552,55.8926255" id="Fill-28" fill="#F9C6C5" sketch:type="MSShapeGroup"></path>
                <path d="M48.81996,39.8670882 C50.27796,39.8670882 51.46116,41.0464216 51.46116,42.5008529 C51.46116,43.9552843 50.27796,45.1346176 48.81996,45.1346176 C47.35956,45.1346176 46.17636,43.9552843 46.17636,42.5008529 C46.17636,41.0464216 47.35956,39.8670882 48.81996,39.8670882 M27.17556,39.8670882 C28.63476,39.8670882 29.81676,41.0464216 29.81676,42.5008529 C29.81676,43.9552843 28.63476,45.1346176 27.17556,45.1346176 C25.71516,45.1346176 24.53316,43.9552843 24.53316,42.5008529 C24.53316,41.0464216 25.71516,39.8670882 27.17556,39.8670882" id="Fill-30" fill="#DF3E52" sketch:type="MSShapeGroup"></path>
            </g>
        </g>
    </g>
</svg>
