<?xml version="1.0" encoding="UTF-8" standalone="no"?>
<!--

    Copyright (C) 2017-2018 Dremio Corporation

    Licensed under the Apache License, Version 2.0 (the "License");
    you may not use this file except in compliance with the License.
    You may obtain a copy of the License at

        http://www.apache.org/licenses/LICENSE-2.0

    Unless required by applicable law or agreed to in writing, software
    distributed under the License is distributed on an "AS IS" BASIS,
    WITHOUT WARRANTIES OR CONDITIONS OF ANY KIND, either express or implied.
    See the License for the specific language governing permissions and
    limitations under the License.

-->
<svg width="110px" height="110px" viewBox="0 0 110 110" version="1.1" xmlns="http://www.w3.org/2000/svg" xmlns:xlink="http://www.w3.org/1999/xlink" xmlns:sketch="http://www.bohemiancoding.com/sketch/ns">
    <!-- Generator: Sketch 3.5.2 (25235) - http://www.bohemiancoding.com/sketch -->
    <title>Avatar/Cub</title>
    <desc>Created with Sketch.</desc>
    <defs>
        <path id="path-1" d="M0,0.184153846 L69.391875,0.184153846 L69.391875,57 L0,57"></path>
        <path id="path-3" d="M0,0.184153846 L69.391875,0.184153846 L69.391875,57 L0,57"></path>
        <path id="path-5" d="M0,0.184153846 L69.391875,0.184153846 L69.391875,57 L0,57"></path>
        <path id="path-7" d="M0,0.184153846 L69.391875,0.184153846 L69.391875,57 L0,57"></path>
    </defs>
    <g id="Avatars" stroke="none" stroke-width="1" fill="none" fill-rule="evenodd" sketch:type="MSPage">
        <g id="Avatar/Cub" sketch:type="MSArtboardGroup">
            <g id="Background-Circle" sketch:type="MSLayerGroup" fill="#3ACBAC">
                <circle id="Green" sketch:type="MSShapeGroup" cx="55" cy="55" r="55"></circle>
            </g>
            <g id="Page-1" sketch:type="MSLayerGroup" transform="translate(20.000000, 26.000000)">
                <g id="Group-3">
                    <mask id="mask-2" sketch:name="Clip 2" fill="white">
                        <use xlink:href="#path-1"></use>
                    </mask>
                    <g id="Clip-2"></g>
                    <path d="M61.3035938,14.8494865 C62.453125,10.5668135 62.6357812,3.97125577 58.8984375,0.819813462 L58.1459375,0.184044231 L57.176875,0.356140385 C54.910625,0.759525 52.9921875,2.34894808 51.5932813,4.10608269 C49.9373437,6.18329423 48.78125,8.74390962 48.094375,11.3023327 C46.948125,15.5839096 46.7621875,22.1805635 50.4984375,25.3320058 L51.2520313,25.967775 L52.2210937,25.7945827 C54.4873438,25.3911981 56.4079688,23.801775 57.8046875,22.0457365 C59.460625,19.9674288 60.62,17.4079096 61.3035938,14.8494865" id="Fill-1" fill="#803B1B" sketch:type="MSShapeGroup" mask="url(#mask-2)"></path>
                </g>
                <path d="M58.7957344,14.1761192 C57.5762031,18.7569462 54.8013594,22.1396769 52.1522969,22.6132154 L52.1522969,22.6121192 C50.0862031,20.8736192 49.3774531,16.5558692 50.6035469,11.9750423 C51.8252656,7.39421538 54.5957344,4.01258077 57.2491719,3.53794615 C59.3108906,5.27644615 60.0207344,9.59529231 58.7957344,14.1761192" id="Fill-4" fill="#F27E67" sketch:type="MSShapeGroup"></path>
                <g id="Group-8">
                    <mask id="mask-4" sketch:name="Clip 7" fill="white">
                        <use xlink:href="#path-3"></use>
                    </mask>
                    <g id="Clip-7"></g>
                    <path d="M7.88189062,14.8494865 C6.73782812,10.5668135 6.55079687,3.97125577 10.2870469,0.819813462 L11.0406406,0.184044231 L12.0097031,0.356140385 C14.2748594,0.759525 16.1965781,2.34894808 17.5922031,4.10608269 C19.2503281,6.18329423 20.4075156,8.74390962 21.0922031,11.3023327 C22.2373594,15.5839096 22.4243906,22.1805635 18.6881406,25.3320058 L17.9334531,25.967775 L16.9643906,25.7945827 C14.6992344,25.3911981 12.7818906,23.801775 11.3818906,22.0457365 C9.72704687,19.9674288 8.56657812,17.4079096 7.88189062,14.8494865" id="Fill-6" fill="#803B1B" sketch:type="MSShapeGroup" mask="url(#mask-4)"></path>
                </g>
                <path d="M10.38975,14.1761192 C11.61475,18.7569462 14.3830313,22.1396769 17.0364688,22.6132154 L17.0364688,22.6121192 C19.0981875,20.8736192 19.8124063,16.5558692 18.5852188,11.9750423 C17.359125,7.39421538 14.5908438,4.01258077 11.9374063,3.53794615 C9.877875,5.27644615 9.16475,9.59529231 10.38975,14.1761192" id="Fill-9" fill="#F27E67" sketch:type="MSShapeGroup"></path>
                <g id="Group-13">
                    <mask id="mask-6" sketch:name="Clip 12" fill="white">
                        <use xlink:href="#path-5"></use>
                    </mask>
                    <g id="Clip-12"></g>
                    <path d="M60.8294531,19.3026115 C60.3547656,18.5758615 59.8407031,17.8765154 59.2916406,17.1990923 C57.1074219,14.5069385 54.3719531,12.2302269 51.2296094,10.4643231 C50.3622656,9.97763077 49.4653906,9.52711154 48.5400781,9.12043846 C46.2136719,8.09882308 43.7144531,7.33261154 41.0872656,6.86126538 C43.3316406,4.78186154 42.6327344,2.10834231 42.6327344,2.10834231 C42.3921094,2.27934231 42.1613281,2.43828462 41.9327344,2.59284231 C41.8616406,2.63997692 41.7927344,2.68491923 41.7227344,2.73095769 C41.5608594,2.83838077 41.4000781,2.94251538 41.2447656,3.04226538 C41.1747656,3.08501538 41.1058594,3.13105385 41.0369531,3.17270769 C40.8575781,3.28451538 40.6825781,3.39193846 40.5086719,3.49497692 C40.4758594,3.51470769 40.4408594,3.53663077 40.4091406,3.55636154 C40.2046094,3.67474615 40.0055469,3.78655385 39.8130469,3.89288077 C39.7583594,3.92247692 39.7069531,3.94988077 39.6544531,3.97838077 C39.5122656,4.05401538 39.3733594,4.12745769 39.2366406,4.19651538 C39.1819531,4.22720769 39.1185156,4.25680385 39.0616406,4.2864 C38.9205469,4.35545769 38.7816406,4.42122692 38.6471094,4.4859 C38.6088281,4.50234231 38.5716406,4.52207308 38.5311719,4.53961154 C38.3616406,4.61634231 38.1953906,4.68868846 38.0346094,4.75665 C37.9974219,4.77199615 37.9635156,4.78515 37.9274219,4.7994 C37.8016406,4.84982308 37.6802344,4.89805385 37.5621094,4.94299615 C37.5150781,4.95943846 37.4680469,4.97697692 37.4221094,4.99451538 C37.3127344,5.03397692 37.2000781,5.07234231 37.0928906,5.10851538 C37.0567969,5.11947692 37.0228906,5.13263077 36.9846094,5.14359231 C36.8446094,5.18743846 36.7089844,5.22909231 36.5810156,5.26526538 L36.5394531,5.27513077 C36.4235156,5.30582308 36.3108594,5.33432308 36.2025781,5.35953462 C36.1741406,5.36830385 36.1369531,5.37378462 36.1030469,5.38255385 C36.0111719,5.40228462 35.9214844,5.41982308 35.8372656,5.43736154 L35.7541406,5.45161154 C35.5353906,5.48997692 35.3297656,5.51518846 35.1438281,5.52943846 L35.0902344,5.53272692 C35.0169531,5.53820769 34.9436719,5.54259231 34.8725781,5.54368846 L34.8233594,5.54588077 C34.7435156,5.54807308 34.6669531,5.54807308 34.5925781,5.54588077 L34.5925781,44.1820154 C34.9764844,44.1951692 35.3636719,44.2170923 35.7453906,44.2444962 L35.7497656,44.2444962 C35.9039844,44.2565538 36.0560156,44.2697077 36.2069531,44.2828615 C36.2539844,44.2872462 36.3032031,44.2905346 36.3502344,44.2960154 C36.4814844,44.3080731 36.6127344,44.3223231 36.7396094,44.3365731 C36.8107031,44.3442462 36.8741406,44.3519192 36.9397656,44.3584962 C37.0578906,44.3727462 37.1760156,44.3880923 37.2886719,44.4023423 C37.3652344,44.4133038 37.4407031,44.4220731 37.5172656,44.4330346 C37.6233594,44.4472846 37.7283594,44.4637269 37.8355469,44.4801692 C37.9164844,44.4922269 37.9974219,44.5053808 38.0761719,44.5174385 C38.1735156,44.5338808 38.2697656,44.5503231 38.3649219,44.5678615 C38.4513281,44.5832077 38.5355469,44.5985538 38.6186719,44.6139 C38.7083594,44.6314385 38.7947656,44.6489769 38.8800781,44.6665154 C38.9653906,44.68515 39.0507031,44.7026885 39.1360156,44.7213231 C39.2169531,44.7399577 39.2967969,44.7585923 39.3755469,44.7772269 C39.4597656,44.7980538 39.5450781,44.8188808 39.6249219,44.8397077 C39.6982031,44.8583423 39.7736719,44.8769769 39.8414844,44.8967077 C39.9246094,44.9208231 40.0044531,44.9449385 40.0842969,44.9679577 C40.1488281,44.9876885 40.2122656,45.0074192 40.2757031,45.02715 C40.3555469,45.0534577 40.4310156,45.0786692 40.5075781,45.1049769 C40.5655469,45.1269 40.6224219,45.1466308 40.6760156,45.1674577 C40.7514844,45.1959577 40.8225781,45.2244577 40.8958594,45.25515 C40.9407031,45.2748808 40.9910156,45.2946115 41.0391406,45.3165346 C41.1080469,45.3472269 41.1703906,45.3790154 41.2338281,45.4119 C41.2775781,45.4327269 41.3180469,45.4535538 41.3574219,45.4743808 C41.4197656,45.5094577 41.4755469,45.5445346 41.5346094,45.5807077 C41.5652344,45.6015346 41.5991406,45.6212654 41.6286719,45.6420923 L41.6822656,45.6804577 C41.7183594,45.7078615 41.7511719,45.7363615 41.7850781,45.7626692 L41.8528906,45.8163808 C41.9163281,45.8766692 41.9721094,45.9369577 42.0180469,45.9994385 C43.4235156,47.9133231 41.0500781,52.0008808 35.0924219,52.2102462 L35.0924219,53.8807846 L35.0836719,53.9553231 C35.3997656,54.2052462 36.5558594,55.0361308 37.8071094,54.8530731 C38.6722656,54.7270154 39.4411719,54.1285154 40.0864844,53.0762077 C40.2166406,52.8624577 40.4966406,52.7955923 40.7110156,52.9282269 C40.9242969,53.0586692 40.9899219,53.3392846 40.8575781,53.5508423 C40.0635156,54.8464962 39.0780469,55.5874962 37.9328906,55.7530154 C37.7688281,55.7771308 37.6003906,55.7891885 37.4385156,55.7891885 C36.2496094,55.7891885 35.2335156,55.1874 34.7292969,54.8256692 L34.6953906,54.8541692 C34.6614844,54.8837654 34.6264844,54.9111692 34.5925781,54.9396692 L34.5925781,56.9960538 C34.6669531,56.99715 34.7358594,57.0004385 34.8080469,57.0004385 C65.8125781,57.0004385 79.6791406,48.0492462 60.8294531,19.3026115" id="Fill-11" fill="#803B1B" sketch:type="MSShapeGroup" mask="url(#mask-6)"></path>
                </g>
                <g id="Group-16">
                    <mask id="mask-8" sketch:name="Clip 15" fill="white">
                        <use xlink:href="#path-7"></use>
                    </mask>
                    <g id="Clip-15"></g>
                    <path d="M34.59225,56.9962731 L34.59225,54.9398885 C33.8999063,55.5175615 33.152875,55.7740615 32.3642813,55.6929462 C30.3211563,55.4802923 28.8205313,53.0468308 28.7570938,52.9448885 C28.6269375,52.7300423 28.69475,52.4516192 28.9102188,52.3200808 C29.1213125,52.1896385 29.4013125,52.2576 29.5314688,52.47135 C29.5445938,52.4943692 30.8625625,54.6263885 32.4583438,54.7897154 C33.0752188,54.8511 33.6527188,54.60885 34.220375,54.0552923 C34.1974063,54.0026769 34.185375,53.9423885 34.185375,53.8810038 L34.185375,52.2126577 C28.76475,52.0131577 25.2100625,48.3224077 27.4686563,45.6861577 C27.55725,45.5831192 27.6513125,45.4811769 27.7552188,45.3814269 C28.769125,44.4310615 31.6544375,44.0846769 34.579125,44.1822346 L34.59225,44.1822346 L34.59225,5.54500385 C33.9283438,5.52527308 33.6231875,5.36413846 33.6231875,5.36413846 C33.8102188,5.11531154 34.167875,4.84894615 34.59225,4.58586923 L34.59225,3.56535 C28.5383438,4.85113846 25.1006875,7.66277308 25.1006875,7.66277308 L25.102875,7.66606154 C23.401,8.15713846 21.7713125,8.78194615 20.2225625,9.51856154 C19.3180313,9.94935 18.4452188,10.4163115 17.6030313,10.9238308 C14.7002188,12.6721962 12.1725625,14.8688885 10.1392813,17.4338885 C9.59678125,18.1178885 9.0881875,18.8260038 8.6200625,19.5604269 C-9.95728125,48.6402923 2.729125,56.9995615 34.8077188,56.9995615 C34.736625,56.9995615 34.666625,56.9973692 34.59225,56.9962731" id="Fill-14" fill="#8A5033" sketch:type="MSShapeGroup" mask="url(#mask-8)"></path>
                </g>
                <path d="M36.9485156,3.418575 C36.8927344,3.44049808 36.8347656,3.46570962 36.7778906,3.49092115 C36.8347656,3.46570962 36.8927344,3.44049808 36.9485156,3.418575" id="Fill-17" fill="#F6911E" sketch:type="MSShapeGroup"></path>
                <path d="M37.4654219,3.2034 C37.4140156,3.22422692 37.3582344,3.24615 37.2991719,3.27136154 C37.3582344,3.24615 37.4140156,3.22422692 37.4654219,3.2034" id="Fill-19" fill="#F6911E" sketch:type="MSShapeGroup"></path>
                <path d="M35.2010313,4.24167692 C35.1365,4.27565769 35.0730625,4.30963846 35.0085313,4.34581154 C35.0730625,4.30963846 35.1365,4.27565769 35.2010313,4.24167692" id="Fill-21" fill="#F6911E" sketch:type="MSShapeGroup"></path>
                <path d="M38.5313906,4.53928269 C38.5718594,4.52174423 38.6079531,4.50310962 38.6462344,4.48557115 C38.6079531,4.50310962 38.5718594,4.52174423 38.5313906,4.53928269" id="Fill-23" fill="#F6911E" sketch:type="MSShapeGroup"></path>
                <path d="M35.9466406,3.86701154 C35.8744531,3.90099231 35.8011719,3.93606923 35.7289844,3.97333846 C35.8011719,3.93606923 35.8744531,3.90099231 35.9466406,3.86701154" id="Fill-25" fill="#F6911E" sketch:type="MSShapeGroup"></path>
                <path d="M34.8849375,4.41508846 C34.8072812,4.46112692 34.7285312,4.50497308 34.6541562,4.55101154 C34.7285312,4.50497308 34.8072812,4.46003077 34.8849375,4.41508846" id="Fill-27" fill="#F6911E" sketch:type="MSShapeGroup"></path>
                <path d="M37.2047812,3.31093269 C37.1599375,3.32847115 37.1129062,3.34820192 37.0680625,3.36793269 C37.1129062,3.34820192 37.1599375,3.32847115 37.2047812,3.31093269" id="Fill-29" fill="#F6911E" sketch:type="MSShapeGroup"></path>
                <path d="M40.4091406,3.55603269 C40.4408594,3.53630192 40.4758594,3.51437885 40.5086719,3.49464808 C40.4758594,3.51437885 40.4408594,3.53630192 40.4091406,3.55603269" id="Fill-31" fill="#F6911E" sketch:type="MSShapeGroup"></path>
                <path d="M39.0612031,4.28661923 C39.1191719,4.25702308 39.1815156,4.22633077 39.2362031,4.19673462 C39.1815156,4.22633077 39.1191719,4.25702308 39.0612031,4.28661923" id="Fill-33" fill="#F6911E" sketch:type="MSShapeGroup"></path>
                <path d="M36.1784063,3.27289615 C36.7045,3.19068462 37.2502813,3.12053077 37.8146563,3.06791538 C37.2502813,3.12053077 36.7066875,3.19178077 36.1784063,3.27289615" id="Fill-35" fill="#F6911E" sketch:type="MSShapeGroup"></path>
                <path d="M41.0372813,3.17226923 C41.1050938,3.13061538 41.1750938,3.08567308 41.244,3.04292308 C41.1750938,3.08567308 41.1050938,3.13061538 41.0372813,3.17226923" id="Fill-37" fill="#F6911E" sketch:type="MSShapeGroup"></path>
                <path d="M41.7229531,2.73019038 C41.7918594,2.68415192 41.8618594,2.64030577 41.9318594,2.59317115 C41.8618594,2.64030577 41.7918594,2.68524808 41.7229531,2.73019038" id="Fill-39" fill="#F6911E" sketch:type="MSShapeGroup"></path>
                <path d="M37.6406406,3.13269808 C37.6067344,3.14694808 37.5706406,3.16339038 37.5236094,3.18092885 C37.5706406,3.16229423 37.6067344,3.14694808 37.6406406,3.13269808" id="Fill-41" fill="#F6911E" sketch:type="MSShapeGroup"></path>
                <path d="M34.5954219,3.56469231 C35.0635469,3.46603846 35.5447969,3.37725 36.0402656,3.29613462 C35.5426094,3.37615385 35.0635469,3.46603846 34.5954219,3.56469231" id="Fill-43" fill="#F6911E" sketch:type="MSShapeGroup"></path>
                <path d="M36.2659063,3.71881154 C36.2079375,3.74511923 36.1510625,3.77142692 36.092,3.79883077 C36.1510625,3.77142692 36.2090313,3.74511923 36.2659063,3.71881154" id="Fill-45" fill="#F6911E" sketch:type="MSShapeGroup"></path>
                <path d="M35.5706094,4.05116538 C35.4907656,4.09062692 35.4109219,4.13228077 35.3310781,4.17283846 C35.4109219,4.13118462 35.4907656,4.09062692 35.5706094,4.05116538" id="Fill-47" fill="#F6911E" sketch:type="MSShapeGroup"></path>
                <path d="M37.7549375,3.08830385 L37.695875,3.11132308 L37.7549375,3.08830385 Z" id="Fill-49" fill="#F6911E" sketch:type="MSShapeGroup"></path>
                <path d="M36.6002656,3.56787115 C36.5368281,3.59637115 36.4766719,3.62487115 36.4044844,3.65556346 C36.4766719,3.62487115 36.5368281,3.59637115 36.6002656,3.56787115" id="Fill-51" fill="#F6911E" sketch:type="MSShapeGroup"></path>
                <path d="M37.8147656,3.06692885 L37.7863281,3.07679423 L37.8147656,3.06692885 Z" id="Fill-53" fill="#F6911E" sketch:type="MSShapeGroup"></path>
                <path d="M39.6540156,3.97838077 C39.7065156,3.94988077 39.7590156,3.92247692 39.8126094,3.89288077 C39.7590156,3.92247692 39.7065156,3.94988077 39.6540156,3.97838077" id="Fill-55" fill="#F6911E" sketch:type="MSShapeGroup"></path>
                <path d="M34.59225,4.58641731 L34.6545937,4.55024423 C34.7289687,4.50530192 34.806625,4.46035962 34.885375,4.41541731 C34.9258437,4.39239808 34.9695938,4.36937885 35.0089688,4.34635962 C35.0724063,4.31018654 35.1369375,4.27620577 35.2014688,4.242225 C35.2463125,4.21810962 35.2867812,4.19618654 35.331625,4.17316731 C35.410375,4.13151346 35.4902187,4.09095577 35.5711563,4.05149423 C35.6269375,4.02409038 35.6750625,3.99887885 35.7286563,3.97257115 C35.8008437,3.93639808 35.8752188,3.90132115 35.9463125,3.86734038 C35.9955312,3.843225 36.0436562,3.82239808 36.0917813,3.79828269 C36.1508437,3.771975 36.2077187,3.74457115 36.2656875,3.71826346 C36.311625,3.69743654 36.3586563,3.67660962 36.4045937,3.65578269 C36.4767813,3.62509038 36.5369375,3.59659038 36.600375,3.56809038 C36.661625,3.54178269 36.7206875,3.515475 36.7775625,3.49135962 C36.8355313,3.46505192 36.8935,3.44093654 36.9481875,3.41901346 C36.9875625,3.40037885 37.0269375,3.38393654 37.0685,3.36859038 C37.1133437,3.34776346 37.160375,3.32912885 37.2052188,3.31049423 C37.23475,3.29734038 37.2686563,3.28309038 37.2992812,3.27103269 C37.3583437,3.24582115 37.414125,3.22389808 37.4655313,3.20307115 L37.5245937,3.18114808 C37.5705313,3.16251346 37.606625,3.14716731 37.6405312,3.13291731 L37.6963125,3.11099423 L37.755375,3.087975 L37.786,3.07591731 L37.8144375,3.06714808 C37.2511562,3.12085962 36.705375,3.19101346 36.1781875,3.273225 C36.1311562,3.28199423 36.0874062,3.28857115 36.040375,3.29624423 C35.5449063,3.37626346 35.0636562,3.46505192 34.5955313,3.56480192 L34.59225,3.56480192 L34.59225,4.58641731 Z" id="Fill-57" fill="#808083" sketch:type="MSShapeGroup"></path>
                <path d="M46.73025,14.6272962 C53.1100937,14.6272962 58.2835313,19.8121038 58.2835313,26.2081615 C58.2835313,32.6042192 53.1100937,37.7879308 46.73025,37.7879308 C40.3493125,37.7879308 35.1747813,32.6042192 35.1747813,26.2081615 C35.1747813,19.8121038 40.3493125,14.6272962 46.73025,14.6272962" id="Fill-59" fill="#474749" sketch:type="MSShapeGroup"></path>
                <path d="M22.4563281,14.6272962 C28.8372656,14.6272962 34.0150781,19.8121038 34.0150781,26.2081615 C34.0150781,32.6042192 28.8372656,37.7879308 22.4563281,37.7879308 C16.0764844,37.7879308 10.9019531,32.6042192 10.9019531,26.2081615 C10.9019531,19.8121038 16.0764844,14.6272962 22.4563281,14.6272962" id="Fill-61" fill="#F6C99D" sketch:type="MSShapeGroup"></path>
                <path d="M22.3698125,24.6864808 L46.8162187,24.6864808 L46.8162187,44.5860577 C46.8162187,51.3230192 41.3146562,56.8355769 34.5935625,56.8355769 L34.5924688,56.8355769 C27.8691875,56.8355769 22.3698125,51.3230192 22.3698125,44.5860577 L22.3698125,24.6864808 Z" id="Fill-63" fill="#F6C99D" sketch:type="MSShapeGroup"></path>
                <path d="M46.1022188,48.6995942 C44.4058125,53.4305942 39.8776875,56.8352481 34.5926875,56.8352481 C29.3087813,56.8352481 24.7806563,53.4305942 23.08425,48.6995942 C25.1251875,44.3829404 29.5100313,41.3981135 34.5926875,41.3981135 C39.67425,41.3981135 44.0601875,44.3829404 46.1022188,48.6995942" id="Fill-65" fill="#E3E4E4" sketch:type="MSShapeGroup"></path>
                <path d="M46.73025,18.3128942 C51.0800937,18.3128942 54.6063438,21.8479904 54.6063438,26.2073942 C54.6063438,30.5667981 51.0800937,34.1007981 46.73025,34.1007981 C42.3782188,34.1007981 38.8519687,30.5667981 38.8519687,26.2073942 C38.8519687,21.8479904 42.3782188,18.3128942 46.73025,18.3128942" id="Fill-67" fill="#E9E9E9" sketch:type="MSShapeGroup"></path>
                <path d="M22.4563281,18.3128942 C26.8061719,18.3128942 30.3324219,21.8479904 30.3324219,26.2073942 C30.3324219,30.5667981 26.8061719,34.1007981 22.4563281,34.1007981 C18.1097656,34.1007981 14.5802344,30.5667981 14.5802344,26.2073942 C14.5802344,21.8479904 18.1097656,18.3128942 22.4563281,18.3128942" id="Fill-69" fill="#FFFFFF" sketch:type="MSShapeGroup"></path>
                <path d="M46.73025,22.3090327 C49.1157187,22.3090327 51.0472813,24.0541096 51.0472813,26.2080519 C51.0472813,28.3608981 49.1157187,30.105975 46.73025,30.105975 C44.3436875,30.105975 42.4110313,28.3608981 42.4110313,26.2080519 L46.73025,26.2080519 L46.73025,22.3090327 Z" id="Fill-71" fill="#8A5033" sketch:type="MSShapeGroup"></path>
                <path d="M22.4563281,22.3090327 C24.8407031,22.3090327 26.7733594,24.0541096 26.7733594,26.2080519 C26.7733594,28.3608981 24.8407031,30.105975 22.4563281,30.105975 C20.0708594,30.105975 18.1382031,28.3608981 18.1382031,26.2080519 L22.4563281,26.2080519 L22.4563281,22.3090327 Z" id="Fill-73" fill="#2E2E2F" sketch:type="MSShapeGroup"></path>
                <path d="M34.5665469,53.0093423 C33.3142031,53.0652462 31.7271719,52.5752654 30.6684219,51.9614192 C29.8732656,51.5010346 28.5727969,50.5353231 28.3693594,49.5498808 C28.3037344,49.2330923 28.5071719,48.9206885 28.8243594,48.8527269 C29.1404531,48.7869577 29.4510781,48.9864577 29.5199844,49.3054385 C29.5724844,49.5038423 29.7256094,49.7186885 29.9246719,49.9280538 C30.3326406,50.3533615 30.9331094,50.7534577 31.2557656,50.9419962 C31.8726406,51.29715 32.7148281,51.6139385 33.5220156,51.7553423 C33.8709219,51.8167269 34.2143594,51.8463231 34.5337344,51.8320731 L34.5665469,51.8320731 L34.6070156,51.8320731 C35.1287344,51.8550923 35.7335781,51.7575346 36.3187344,51.5898231 C36.8896719,51.4264962 37.4409219,51.1941115 37.8762344,50.9419962 C38.1737344,50.7699 38.6954531,50.4224192 39.0924844,50.0409577 C39.3473281,49.7976115 39.5507656,49.5411115 39.6120156,49.3087269 C39.6831094,48.9919385 39.9915469,48.7869577 40.3087344,48.8527269 C40.6248281,48.9206885 40.8293594,49.2330923 40.7626406,49.5498808 C40.5613906,50.5342269 39.2598281,51.5010346 38.4646719,51.9614192 C37.4059219,52.5752654 35.8188906,53.0652462 34.5665469,53.0093423" id="Fill-75" fill="#474749" sketch:type="MSShapeGroup"></path>
                <path d="M31.2982031,36.0167654 C32.3624219,36.0167654 33.2253906,36.8816308 33.2253906,37.9481885 C33.2253906,39.0158423 32.3624219,39.8807077 31.2982031,39.8807077 C30.2328906,39.8807077 29.3688281,39.0158423 29.3688281,37.9481885 C29.3688281,36.8816308 30.2328906,36.0167654 31.2982031,36.0167654 M37.8880469,35.9575731 C38.9533594,35.9575731 39.8185156,36.8224385 39.8185156,37.8889962 C39.8185156,38.95665 38.9533594,39.8215154 37.8880469,39.8215154 C36.8227344,39.8215154 35.9597656,38.95665 35.9597656,37.8889962 C35.9597656,36.8224385 36.8227344,35.9575731 37.8880469,35.9575731" id="Fill-77" fill="#2E2E2F" sketch:type="MSShapeGroup"></path>
                <path d="M46.73025,14.6272962 C53.1100937,14.6272962 58.2835313,19.8121038 58.2835313,26.2081615 C58.2835313,32.6042192 53.1100937,37.7879308 46.73025,37.7879308 C40.3493125,37.7879308 35.1747813,32.6042192 35.1747813,26.2081615 C35.1747813,19.8121038 40.3493125,14.6272962 46.73025,14.6272962" id="Fill-79" fill="#F2C192" sketch:type="MSShapeGroup"></path>
                <path d="M34.59225,24.6864808 L46.816,24.6864808 L46.816,44.5860577 C46.816,51.3230192 41.3144375,56.8355769 34.59225,56.8355769 L34.59225,24.6864808 Z" id="Fill-81" fill="#F2C192" sketch:type="MSShapeGroup"></path>
                <path d="M46.1022188,48.6995942 C44.4058125,53.4305942 39.8776875,56.8352481 34.5926875,56.8352481 L34.5926875,41.3981135 C39.67425,41.3981135 44.0601875,44.3829404 46.1022188,48.6995942" id="Fill-83" fill="#E3E4E4" sketch:type="MSShapeGroup"></path>
                <path d="M46.73025,18.3128942 C51.0800937,18.3128942 54.6063438,21.8479904 54.6063438,26.2073942 C54.6063438,30.5667981 51.0800937,34.1007981 46.73025,34.1007981 C42.3782188,34.1007981 38.8519687,30.5667981 38.8519687,26.2073942 C38.8519687,21.8479904 42.3782188,18.3128942 46.73025,18.3128942" id="Fill-85" fill="#E3E4E4" sketch:type="MSShapeGroup"></path>
                <path d="M46.73025,22.3090327 C49.1157187,22.3090327 51.0472813,24.0541096 51.0472813,26.2080519 C51.0472813,28.3608981 49.1157187,30.105975 46.73025,30.105975 C44.3436875,30.105975 42.4110313,28.3608981 42.4110313,26.2080519 L46.73025,26.2080519 L46.73025,22.3090327 Z" id="Fill-87" fill="#2E2E2F" sketch:type="MSShapeGroup"></path>
                <path d="M34.59225,51.8322923 L34.6075625,51.8322923 C35.1281875,51.8553115 35.734125,51.7577538 36.3181875,51.5900423 C36.8902188,51.4256192 37.440375,51.1943308 37.8767813,50.9422154 C38.1731875,50.7701192 38.6949062,50.4215423 39.0919375,50.0411769 C39.347875,49.7978308 39.5502187,49.5413308 39.6125625,49.3089462 C39.6825625,48.9921577 39.991,48.7871769 40.3092813,48.8529462 C40.625375,48.9209077 40.8288125,49.2322154 40.7631875,49.5501 C40.5608438,50.5344462 39.260375,51.5012538 38.464125,51.9616385 C37.4119375,52.5700038 35.8413125,53.0588885 34.59225,53.0106577 L34.59225,51.8322923 Z" id="Fill-89" fill="#2E2E2F" sketch:type="MSShapeGroup"></path>
                <path d="M37.888375,35.9573538 C38.9536875,35.9573538 39.8188437,36.8222192 39.8188437,37.8898731 C39.8188437,38.9564308 38.9536875,39.8212962 37.888375,39.8212962 C36.8219687,39.8212962 35.959,38.9564308 35.959,37.8898731 C35.959,36.8222192 36.8219687,35.9573538 37.888375,35.9573538" id="Fill-91" fill="#2E2E2F" sketch:type="MSShapeGroup"></path>
            </g>
        </g>
    </g>
</svg>
