<?xml version="1.0" encoding="UTF-8" standalone="no"?>
<!--

    Copyright (C) 2017-2018 Dremio Corporation

    Licensed under the Apache License, Version 2.0 (the "License");
    you may not use this file except in compliance with the License.
    You may obtain a copy of the License at

        http://www.apache.org/licenses/LICENSE-2.0

    Unless required by applicable law or agreed to in writing, software
    distributed under the License is distributed on an "AS IS" BASIS,
    WITHOUT WARRANTIES OR CONDITIONS OF ANY KIND, either express or implied.
    See the License for the specific language governing permissions and
    limitations under the License.

-->
<svg width="110px" height="110px" viewBox="0 0 110 110" version="1.1" xmlns="http://www.w3.org/2000/svg" xmlns:xlink="http://www.w3.org/1999/xlink" xmlns:sketch="http://www.bohemiancoding.com/sketch/ns">
    <!-- Generator: Sketch 3.5.2 (25235) - http://www.bohemiancoding.com/sketch -->
    <title>Avatar/Deer</title>
    <desc>Created with Sketch.</desc>
    <defs>
        <path id="path-1" d="M0,1.31249231 L58.9187111,1.31249231 L58.9187111,86 L0,86 L0,1.31249231 Z"></path>
        <path id="path-3" d="M0,1.31249231 L58.9187111,1.31249231 L58.9187111,86 L0,86 L0,1.31249231 Z"></path>
        <path id="path-5" d="M0,1.31249231 L58.9187111,1.31249231 L58.9187111,86 L0,86 L0,1.31249231 Z"></path>
    </defs>
    <g id="Avatars" stroke="none" stroke-width="1" fill="none" fill-rule="evenodd" sketch:type="MSPage">
        <g id="Avatar/Deer" sketch:type="MSArtboardGroup">
            <g id="Background-Circle" sketch:type="MSLayerGroup" fill="#C0E9F5">
                <circle id="Light-Blue" sketch:type="MSShapeGroup" cx="55" cy="55" r="55"></circle>
            </g>
            <g id="Page-1" sketch:type="MSLayerGroup" transform="translate(26.000000, 12.000000)">
                <path d="M48.4931489,42.2344677 C52.5090822,41.1482215 57.9528156,38.18056 58.7565267,33.6212369 L58.9177933,32.7016985 L58.3225489,31.9859138 C56.9406378,30.3175138 54.7392822,29.4932369 52.6546156,29.1756985 C50.1897267,28.7986215 47.5648822,29.0566215 45.1655489,29.7062523 C41.1535489,30.7924985 35.7045711,33.7588369 34.90086,38.3194831 L34.7395933,39.2390215 L35.3361489,39.9548062 C36.7285489,41.6232062 38.9181044,42.4474831 41.0027711,42.7650215 C43.4689711,43.1420985 46.0938156,42.8840985 48.4931489,42.2344677" id="Fill-1" fill="#803B1B" sketch:type="MSShapeGroup"></path>
                <path d="M47.8606689,39.8563692 C43.56678,41.0180308 39.5167578,40.3432615 37.8857356,38.3890769 L37.8870467,38.3890769 C38.3288911,35.8725846 41.50178,33.2462769 45.79698,32.0846154 C50.0934911,30.9229538 54.1422022,31.5964 55.7719133,33.5519077 C55.3287578,36.0684 52.1558689,38.6947077 47.8606689,39.8563692" id="Fill-3" fill="#DF3E52" sketch:type="MSShapeGroup"></path>
                <path d="M10.4273978,42.2344677 C6.41146444,41.1482215 0.965108889,38.18056 0.162708889,33.6212369 L0.000131111111,32.7016985 L0.596686667,31.9859138 C1.98908667,30.3175138 4.17995333,29.4932369 6.26330889,29.1756985 C8.72950889,28.7986215 11.3543533,29.0566215 13.7536867,29.7062523 C17.7735533,30.7924985 23.2146644,33.7588369 24.0170644,38.3194831 L24.1783311,39.2390215 L23.5830867,39.9548062 C22.1972422,41.6232062 19.99982,42.4474831 17.9151533,42.7650215 C15.4502644,43.1420985 12.82542,42.8840985 10.4273978,42.2344677" id="Fill-5" fill="#803B1B" sketch:type="MSShapeGroup"></path>
                <path d="M11.0585667,39.8563692 C15.3537667,41.0180308 19.4024778,40.3432615 21.0335,38.3890769 C20.5903444,35.8725846 17.4174556,33.2462769 13.1222556,32.0846154 C8.82705556,30.9229538 4.77703333,31.5964 3.14732222,33.5519077 C3.59047778,36.0684 6.76336667,38.6947077 11.0585667,39.8563692" id="Fill-7" fill="#DF3E52" sketch:type="MSShapeGroup"></path>
                <path d="M29.4602733,86 C41.8686289,86 51.9890956,73.1052923 51.9890956,57.2945231 C51.9890956,41.4837538 41.8686289,28.5890462 29.4602733,28.5890462 C17.0558511,28.5890462 6.93145111,41.4837538 6.93145111,57.2945231 C6.93145111,73.1052923 17.0558511,86 29.4602733,86" id="Fill-9" fill="#8A5033" sketch:type="MSShapeGroup"></path>
                <g id="Group-13">
                    <mask id="mask-2" sketch:name="Clip 12" fill="white">
                        <use xlink:href="#path-1"></use>
                    </mask>
                    <g id="Clip-12"></g>
                    <path d="M29.4602733,28.5895754 C41.9014067,28.5895754 51.9890956,41.4406215 51.9890956,57.2950523 C51.9890956,73.14816 41.9014067,86.0005292 29.4602733,86.0005292 L29.4602733,28.5895754 Z" id="Fill-11" fill="#803B1B" sketch:type="MSShapeGroup" mask="url(#mask-2)"></path>
                </g>
                <path d="M38.6162867,43.43344 C41.0090644,43.43344 42.95082,46.5360554 42.95082,50.3637169 C42.95082,54.1900554 41.0090644,57.2939938 38.6162867,57.2939938 C36.22482,57.2939938 34.2843756,54.1900554 34.2843756,50.3637169 C34.2843756,46.5360554 36.22482,43.43344 38.6162867,43.43344 M19.3875311,43.43344 C21.7789978,43.43344 23.72862,46.5360554 23.72862,50.3637169 C23.72862,54.1900554 21.7789978,57.2939938 19.3875311,57.2939938 C16.9947533,57.2939938 15.0543089,54.1900554 15.0543089,50.3637169 C15.0543089,46.5360554 16.9947533,43.43344 19.3875311,43.43344" id="Fill-14" fill="#DFD7C5" sketch:type="MSShapeGroup"></path>
                <path d="M19.3875311,47.9144369 C20.7261756,47.9144369 21.8157089,49.0112677 21.8157089,50.3634523 C21.8157089,51.71696 20.7261756,52.8137908 19.3875311,52.8137908 C18.0462644,52.8137908 16.9593533,51.71696 16.9593533,50.3634523 L19.3875311,50.3634523 L19.3875311,47.9144369 Z" id="Fill-16" fill="#2E2E2F" sketch:type="MSShapeGroup"></path>
                <path d="M38.6162867,47.9144369 C39.9575533,47.9144369 41.0457756,49.0112677 41.0457756,50.3634523 C41.0457756,51.71696 39.9575533,52.8137908 38.6162867,52.8137908 C37.2763311,52.8137908 36.1881089,51.71696 36.1881089,50.3634523 L38.6162867,50.3634523 L38.6162867,47.9144369 Z" id="Fill-18" fill="#2E2E2F" sketch:type="MSShapeGroup"></path>
                <path d="M41.0170622,71.0481723 C41.0170622,72.5234031 40.3339733,73.8967569 39.1592178,75.0491569 C38.6111733,73.5646646 37.6029289,72.5697108 36.44784,72.5697108 C34.7079956,72.5697108 33.2985511,74.8242338 33.2985511,77.6066646 C33.2985511,77.7350031 33.3011733,77.8606954 33.3077289,77.9863877 C32.1041289,78.2576185 30.8087511,78.4058031 29.4609289,78.4058031 C28.1091733,78.4058031 26.8151067,78.2576185 25.6115067,77.9863877 C25.6180622,77.8606954 25.6206844,77.7350031 25.6206844,77.6066646 C25.6206844,74.8242338 24.2164844,72.5697108 22.4713956,72.5697108 C21.3176178,72.5697108 20.3067511,73.5646646 19.7587067,75.0491569 C18.5918178,73.8967569 17.9021733,72.5234031 17.9021733,71.0481723 C17.9021733,66.9850031 23.0771289,63.6905415 29.4609289,63.6905415 C35.8434178,63.6905415 41.0170622,66.9850031 41.0170622,71.0481723" id="Fill-20" fill="#474749" sketch:type="MSShapeGroup"></path>
                <path d="M29.4602733,78.4052738 L29.4602733,63.6913354 C35.8427622,63.6913354 41.0164067,66.9857969 41.0164067,71.0476431 C41.0164067,72.5241969 40.3346289,73.8975508 39.1598733,75.0486277 C38.6118289,73.5654585 37.6022733,72.5691815 36.4471844,72.5691815 C34.7086511,72.5691815 33.2992067,74.8250277 33.2992067,77.6061354 C33.2992067,77.7344738 33.3018289,77.8614892 33.3083844,77.9871815 C32.1047844,78.2570892 30.8080956,78.4052738 29.4602733,78.4052738" id="Fill-22" fill="#2E2E2F" sketch:type="MSShapeGroup"></path>
                <g id="Group-26">
                    <mask id="mask-4" sketch:name="Clip 25" fill="white">
                        <use xlink:href="#path-3"></use>
                    </mask>
                    <g id="Clip-25"></g>
                    <path d="M17.44512,17.21032 L12.4248756,17.21032 C11.46252,17.21032 10.6758533,16.4177969 10.6758533,15.4453354 L10.6758533,6.91678154 C10.6758533,5.94299692 11.46252,5.15179692 12.4248756,5.15179692 C13.3872311,5.15179692 14.1738978,5.94299692 14.1738978,6.91678154 L14.1738978,13.6803508 L17.44512,13.6803508 L17.44512,3.07721231 C17.44512,2.10475077 18.22392,1.31222769 19.1928311,1.31222769 C20.1499422,1.31222769 20.93792,2.10475077 20.93792,3.07721231 L20.93792,24.6632123 L25.4206089,24.6632123 C26.3829644,24.6632123 27.1696311,25.4557354 27.1696311,26.4281969 L27.1696311,32.3992431 C27.1696311,33.3703815 26.3829644,34.1642277 25.4206089,34.1642277 C24.4582533,34.1642277 23.6728978,33.3703815 23.6728978,32.3992431 L23.6728978,28.1931815 L6.82380889,28.1931815 C5.86407556,28.1931815 5.07478667,27.4006585 5.07478667,26.4281969 L5.07478667,15.4453354 C5.07478667,14.4728738 5.86407556,13.6803508 6.82380889,13.6803508 C7.78878667,13.6803508 8.57283111,14.4728738 8.57283111,15.4453354 L8.57283111,24.6632123 L17.44512,24.6632123 L17.44512,17.21032 Z" id="Fill-24" fill="#EF7721" sketch:type="MSShapeGroup" mask="url(#mask-4)"></path>
                </g>
                <g id="Group-29">
                    <mask id="mask-6" sketch:name="Clip 28" fill="white">
                        <use xlink:href="#path-5"></use>
                    </mask>
                    <g id="Clip-28"></g>
                    <path d="M41.48172,17.21032 L46.4927867,17.21032 C47.4577644,17.21032 48.24312,16.4177969 48.24312,15.4453354 L48.24312,6.91678154 C48.24312,5.94299692 47.4577644,5.15179692 46.4927867,5.15179692 C45.5304311,5.15179692 44.7437644,5.94299692 44.7437644,6.91678154 L44.7437644,13.6803508 L41.48172,13.6803508 L41.48172,3.07721231 C41.48172,2.10475077 40.6950533,1.31222769 39.7340089,1.31222769 C38.7690311,1.31222769 37.9862978,2.10475077 37.9862978,3.07721231 L37.9862978,24.6632123 L33.5062311,24.6632123 C32.5346978,24.6632123 31.7545867,25.4557354 31.7545867,26.4281969 L31.7545867,32.3992431 C31.7545867,33.3703815 32.5346978,34.1642277 33.5062311,34.1642277 C34.4620311,34.1642277 35.2539422,33.3703815 35.2539422,32.3992431 L35.2539422,28.1931815 L52.0938533,28.1931815 C53.0601422,28.1931815 53.8428756,27.4006585 53.8428756,26.4281969 L53.8428756,15.4453354 C53.8428756,14.4728738 53.0601422,13.6803508 52.0938533,13.6803508 C51.1301867,13.6803508 50.3448311,14.4728738 50.3448311,15.4453354 L50.3448311,24.6632123 L41.48172,24.6632123 L41.48172,17.21032 Z" id="Fill-27" fill="#EF7721" sketch:type="MSShapeGroup" mask="url(#mask-6)"></path>
                </g>
            </g>
        </g>
    </g>
</svg>
