<?xml version="1.0" encoding="UTF-8" standalone="no"?>
<!--

    Copyright (C) 2017-2018 Dremio Corporation

    Licensed under the Apache License, Version 2.0 (the "License");
    you may not use this file except in compliance with the License.
    You may obtain a copy of the License at

        http://www.apache.org/licenses/LICENSE-2.0

    Unless required by applicable law or agreed to in writing, software
    distributed under the License is distributed on an "AS IS" BASIS,
    WITHOUT WARRANTIES OR CONDITIONS OF ANY KIND, either express or implied.
    See the License for the specific language governing permissions and
    limitations under the License.

-->
<svg width="110px" height="110px" viewBox="0 0 110 110" version="1.1" xmlns="http://www.w3.org/2000/svg" xmlns:xlink="http://www.w3.org/1999/xlink" xmlns:sketch="http://www.bohemiancoding.com/sketch/ns">
    <!-- Generator: Sketch 3.5.2 (25235) - http://www.bohemiancoding.com/sketch -->
    <title>Avatar/Elephant</title>
    <desc>Created with Sketch.</desc>
    <defs>
        <path id="path-1" d="M0,1.16244898 L83.7027692,1.16244898 L83.7027692,64 L0,64"></path>
        <path id="path-3" d="M0,1.16244898 L83.7027692,1.16244898 L83.7027692,64 L0,64"></path>
        <path id="path-5" d="M0,1.16244898 L83.7027692,1.16244898 L83.7027692,64 L0,64"></path>
        <path id="path-7" d="M0,1.16244898 L83.7027692,1.16244898 L83.7027692,64 L0,64 L0,1.16244898 Z"></path>
    </defs>
    <g id="Avatars" stroke="none" stroke-width="1" fill="none" fill-rule="evenodd" sketch:type="MSPage">
        <g id="Avatar/Elephant" sketch:type="MSArtboardGroup">
            <g id="Background-Circle" sketch:type="MSLayerGroup" fill="#2A394A">
                <circle id="Dark-Blue" sketch:type="MSShapeGroup" cx="55" cy="55" r="55"></circle>
            </g>
            <g id="Page-1" sketch:type="MSLayerGroup" transform="translate(13.000000, 24.000000)">
                <g id="Group-3">
                    <mask id="mask-2" sketch:name="Clip 2" fill="white">
                        <use xlink:href="#path-1"></use>
                    </mask>
                    <g id="Clip-2"></g>
                    <path d="M20.0061231,6.06746122 C31.0574308,6.06746122 40.0125077,15.0144 40.0125077,26.0498286 C40.0125077,37.0852571 31.0574308,46.0321959 20.0061231,46.0321959 C8.95743077,46.0321959 -0.000261538462,37.0852571 -0.000261538462,26.0498286 C-0.000261538462,15.0144 8.95743077,6.06746122 20.0061231,6.06746122" id="Fill-1" fill="#6DB4D3" sketch:type="MSShapeGroup" mask="url(#mask-2)"></path>
                </g>
                <g id="Group-6">
                    <mask id="mask-4" sketch:name="Clip 5" fill="white">
                        <use xlink:href="#path-3"></use>
                    </mask>
                    <g id="Clip-5"></g>
                    <path d="M63.6963846,6.06746122 C74.7450769,6.06746122 83.7027692,15.0144 83.7027692,26.0498286 C83.7027692,37.0852571 74.7450769,46.0321959 63.6963846,46.0321959 C52.6476923,46.0321959 43.69,37.0852571 43.69,26.0498286 C43.69,15.0144 52.6476923,6.06746122 63.6963846,6.06746122" id="Fill-4" fill="#88C1DC" sketch:type="MSShapeGroup" mask="url(#mask-4)"></path>
                </g>
                <g id="Group-9">
                    <mask id="mask-6" sketch:name="Clip 8" fill="white">
                        <use xlink:href="#path-5"></use>
                    </mask>
                    <g id="Clip-8"></g>
                    <path d="M41.8525615,1.16179592 C56.0671769,1.16179592 67.5905615,12.6713469 67.5905615,26.8702041 C67.5905615,28.3892245 67.4571769,29.876898 67.2034846,31.3240816 C68.8394077,33.6058776 69.7534846,36.1475918 69.7534846,38.8251429 C69.7534846,48.736 57.2597923,56.7699592 41.8525615,56.7699592 C26.4427154,56.7699592 13.9503308,48.736 13.9503308,38.8251429 C13.9503308,36.1475918 14.8631,33.6058776 16.4990231,31.3240816 C16.2466385,29.876898 16.1119462,28.3892245 16.1119462,26.8702041 C16.1119462,12.6713469 27.6366385,1.16179592 41.8525615,1.16179592" id="Fill-7" fill="#88C1DC" sketch:type="MSShapeGroup" mask="url(#mask-6)"></path>
                </g>
                <g id="Group-12">
                    <mask id="mask-8" sketch:name="Clip 11" fill="white">
                        <use xlink:href="#path-7"></use>
                    </mask>
                    <g id="Clip-11"></g>
                    <path d="M41.8525615,1.16179592 C56.0671769,1.16179592 67.5905615,12.6713469 67.5905615,26.8702041 C67.5905615,28.3892245 67.4571769,29.876898 67.2034846,31.3240816 C68.8394077,33.6058776 69.7534846,36.1475918 69.7534846,38.8251429 C69.7534846,48.736 57.2597923,56.7699592 41.8525615,56.7699592 L41.8525615,1.16179592 Z" id="Fill-10" fill="#6DB4D3" sketch:type="MSShapeGroup" mask="url(#mask-8)"></path>
                </g>
                <path d="M30.7180846,35.4004898 C33.4001615,35.4004898 35.5892385,33.4321633 35.5892385,31.018449 C35.5892385,28.6047347 33.4001615,26.6364082 30.7180846,26.6364082 C28.0347,26.6364082 25.8469308,28.6047347 25.8469308,31.018449 C25.8469308,33.4321633 28.0347,35.4004898 30.7180846,35.4004898" id="Fill-13" fill="#FFFFFF" sketch:type="MSShapeGroup"></path>
                <path d="M30.7180846,28.5622857 C32.2245462,28.5622857 33.4472385,29.6620408 33.4472385,31.019102 C33.4472385,32.3748571 32.2245462,33.4746122 30.7180846,33.4746122 C29.2155462,33.4746122 27.9889308,32.3748571 27.9889308,31.019102 L30.7180846,31.019102 L30.7180846,28.5622857 Z" id="Fill-15" fill="#2E2E2F" sketch:type="MSShapeGroup"></path>
                <path d="M52.3371154,35.4004898 C55.0191923,35.4004898 57.2108846,33.4321633 57.2108846,31.018449 C57.2108846,28.6047347 55.0191923,26.6364082 52.3371154,26.6364082 C49.6537308,26.6364082 47.4672692,28.6047347 47.4672692,31.018449 C47.4672692,33.4321633 49.6537308,35.4004898 52.3371154,35.4004898" id="Fill-17" fill="#E3E4E4" sketch:type="MSShapeGroup"></path>
                <path d="M52.3371154,28.5622857 C53.8435769,28.5622857 55.0662692,29.6620408 55.0662692,31.019102 C55.0662692,32.3748571 53.8435769,33.4746122 52.3371154,33.4746122 C50.8306538,33.4746122 49.6079615,32.3748571 49.6079615,31.019102 L52.3371154,31.019102 L52.3371154,28.5622857 Z" id="Fill-19" fill="#2E2E2F" sketch:type="MSShapeGroup"></path>
                <path d="M66.3755846,54.8875755 L67.4570462,56.1845551 C67.4570462,56.1845551 62.6996615,62.8810449 53.7249692,63.8528 C44.7476615,64.8245551 37.0702,60.9362286 34.6915077,53.1595755 C32.3115077,45.3829224 31.8852,33.3940245 41.5032769,34.1489633 C41.5032769,34.1489633 46.5862769,33.7179429 48.5321231,36.9584327 C50.4792769,40.1976163 49.6148923,46.2475755 49.8306615,50.2430041 C50.0477385,54.2397388 52.7533538,56.6155755 55.3465077,56.8323918 C57.9409692,57.047902 66.3755846,54.8875755 66.3755846,54.8875755" id="Fill-21" fill="#6DB4D3" sketch:type="MSShapeGroup"></path>
                <path d="M29.6618615,46.1924571 C29.6618615,46.1924571 28.5254769,51.7552327 24.4729385,52.2959673 C20.4164769,52.8353959 19.1179385,51.5397224 19.1179385,51.5397224 C19.1179385,51.5397224 20.7944,54.7253551 24.0387846,55.3731918 C27.2831692,56.0210286 30.8165538,53.167151 32.1490923,51.4848653 C33.4816308,49.8038857 32.3648615,44.9503347 29.6618615,46.1924571" id="Fill-23" fill="#FFFFFF" sketch:type="MSShapeGroup"></path>
                <path d="M54.0381615,45.4368653 C54.0381615,45.4368653 55.1745462,50.9996408 59.2297,51.5390694 C63.2848538,52.0798041 64.5820846,50.7828245 64.5820846,50.7828245 C64.5820846,50.7828245 62.9056231,53.9710694 59.6638538,54.6176 C56.4168538,55.2654367 52.8834692,52.4102531 51.5535462,50.7292735 C50.2183923,49.0482939 51.3364692,44.1947429 54.0381615,45.4368653" id="Fill-25" fill="#E3E4E4" sketch:type="MSShapeGroup"></path>
                <path d="M41.5294308,36.8142367 C44.2716615,36.8142367 46.6765077,38.2705633 48.0064308,40.4517878 L48.0038154,40.4517878 C46.2828923,39.3206857 44.0127385,38.6323592 41.5294308,38.6323592 C39.0395846,38.6323592 36.7707385,39.3206857 35.0524308,40.4517878 L35.0472,40.4517878 C36.3784308,38.2705633 38.7819692,36.8142367 41.5294308,36.8142367" id="Fill-27" fill="#5A5B5C" sketch:type="MSShapeGroup"></path>
                <path d="M41.5294308,41.1343673 C44.2716615,41.1343673 46.6765077,42.5906939 48.0064308,44.7719184 L48.0038154,44.7719184 C46.2828923,43.6408163 44.0127385,42.9537959 41.5294308,42.9537959 C39.0395846,42.9537959 36.7707385,43.6408163 35.0524308,44.7719184 L35.0472,44.7719184 C36.3784308,42.5906939 38.7819692,41.1343673 41.5294308,41.1343673" id="Fill-29" fill="#5A5B5C" sketch:type="MSShapeGroup"></path>
                <path d="M41.1949231,45.4858449 C43.8926923,44.9856 46.5224615,45.9795592 48.2316154,47.8812735 L48.2316154,47.8825796 C46.3289231,47.0845388 43.9724615,46.8193959 41.5296923,47.2739265 C39.0816923,47.727151 36.9763077,48.8164571 35.4933846,50.2414367 L35.4881538,50.2427429 C36.3983077,47.855151 38.4971538,45.9860898 41.1949231,45.4858449" id="Fill-31" fill="#5A5B5C" sketch:type="MSShapeGroup"></path>
                <path d="M41.8065308,50.2377796 C44.1080692,49.4149224 46.5639154,49.9138612 48.3384538,51.3440653 L48.3319154,51.3453714 C46.5495308,50.9130449 44.4402231,51.0162286 42.3531462,51.7620245 C40.2660692,52.5104327 38.5699923,53.7682286 37.4689154,55.2323918 L37.4649923,55.233698 C37.9253,53.0054531 39.5036846,51.0606367 41.8065308,50.2377796" id="Fill-33" fill="#5A5B5C" sketch:type="MSShapeGroup"></path>
                <path d="M44.0515769,54.785698 C45.8967308,53.8936163 47.9890385,54.0908408 49.5948846,55.1239837 L49.5922692,55.1265959 C48.0675,54.9241469 46.3165,55.1997388 44.6439615,56.0082286 C42.9727308,56.8180245 41.6702692,58.0196571 40.8830385,59.3375347 L40.8791154,59.3401469 C41.0635,57.4397388 42.2051154,55.6790857 44.0515769,54.785698" id="Fill-35" fill="#5A5B5C" sketch:type="MSShapeGroup"></path>
                <path d="M47.3630462,59.1088327 C47.8207385,57.6812408 48.9845846,56.6742204 50.3393538,56.3450776 L50.3380462,56.3476898 C49.4618923,57.0529959 48.7256615,58.1187918 48.3111231,59.4118531 C47.8965846,60.7062204 47.8782769,61.9992816 48.1803538,63.0820571 L48.1790462,63.0846694 C47.2636615,62.0293224 46.9053538,60.5364245 47.3630462,59.1088327" id="Fill-37" fill="#5A5B5C" sketch:type="MSShapeGroup"></path>
                <path d="M51.4227769,59.9143184 C51.4633154,58.8459102 52.0674692,57.9316245 52.9383923,57.4457469 L52.9383923,57.4483592 C52.4728538,58.1001143 52.1694692,58.9726041 52.1328538,59.9417469 C52.1001615,60.9095837 52.3290077,61.8029714 52.7448538,62.4899918 L52.7448538,62.491298 C51.9131615,61.9401143 51.3809308,60.9814204 51.4227769,59.9143184" id="Fill-39" fill="#5A5B5C" sketch:type="MSShapeGroup"></path>
            </g>
        </g>
    </g>
</svg>
