<?xml version="1.0" encoding="UTF-8" standalone="no"?>
<!--

    Copyright (C) 2017-2018 Dremio Corporation

    Licensed under the Apache License, Version 2.0 (the "License");
    you may not use this file except in compliance with the License.
    You may obtain a copy of the License at

        http://www.apache.org/licenses/LICENSE-2.0

    Unless required by applicable law or agreed to in writing, software
    distributed under the License is distributed on an "AS IS" BASIS,
    WITHOUT WARRANTIES OR CONDITIONS OF ANY KIND, either express or implied.
    See the License for the specific language governing permissions and
    limitations under the License.

-->
<svg width="110px" height="110px" viewBox="0 0 110 110" version="1.1" xmlns="http://www.w3.org/2000/svg" xmlns:xlink="http://www.w3.org/1999/xlink" xmlns:sketch="http://www.bohemiancoding.com/sketch/ns">
    <!-- Generator: Sketch 3.5.2 (25235) - http://www.bohemiancoding.com/sketch -->
    <title>Avatar/Fox</title>
    <desc>Created with Sketch.</desc>
    <defs></defs>
    <g id="Avatars" stroke="none" stroke-width="1" fill="none" fill-rule="evenodd" sketch:type="MSPage">
        <g id="Avatar/Fox" sketch:type="MSArtboardGroup">
            <g id="Background-Circle" sketch:type="MSLayerGroup" fill="#3ACBAC">
                <circle id="Green" sketch:type="MSShapeGroup" cx="55" cy="55" r="55"></circle>
            </g>
            <g id="Page-1" sketch:type="MSLayerGroup" transform="translate(23.000000, 23.000000)">
                <path d="M39.8865,35.5303 C37.8835,32.6533 37.5385,28.8373 37.9195,25.4393 C38.3835,21.3153 39.9295,17.1993 41.9975,13.6193 C44.0645,10.0383 46.8535,6.6393 50.1955,4.1763 C52.9475,2.1483 56.4245,0.5343 59.9195,0.8353 C60.7445,0.9063 61.4275,1.3003 61.9035,1.9813 C63.9115,4.8593 64.2525,8.6753 63.8705,12.0723 C63.4085,16.1973 61.8605,20.3123 59.7935,23.8923 C57.7255,27.4733 54.9365,30.8723 51.5955,33.3363 C48.8435,35.3633 45.3685,36.9773 41.8715,36.6763 C41.0445,36.6053 40.3615,36.2113 39.8865,35.5303 M4.0915,0.8353 C7.5865,0.5353 11.0615,2.1483 13.8125,4.1763 C17.1545,6.6393 19.9435,10.0383 22.0115,13.6193 C24.0775,17.1993 25.6275,21.3153 26.0915,25.4393 C26.4705,28.8373 26.1335,32.6523 24.1205,35.5303 C23.6465,36.2113 22.9655,36.6053 22.1365,36.6763 C18.6405,36.9773 15.1695,35.3633 12.4135,33.3363 C9.0725,30.8723 6.2825,27.4733 4.2155,23.8923 C2.1485,20.3123 0.5995,16.1973 0.1375,12.0723 C-0.2445,8.6753 0.0955,4.8593 2.1055,1.9813 C2.5795,1.3003 3.2625,0.9063 4.0915,0.8353" id="Fill-1" fill="#2E2E2F" sketch:type="MSShapeGroup"></path>
                <path d="M44.3415,14.9707 C40.1155,22.2837 39.3515,30.0397 42.1035,33.9837 C46.8945,34.3957 53.2285,29.8547 57.4505,22.5407 C61.6745,15.2277 62.4395,7.4717 59.6865,3.5287 C54.8945,3.1157 48.5615,7.6567 44.3415,14.9707 M19.6695,14.9707 C23.8925,22.2837 24.6565,30.0397 21.9045,33.9837 C17.1125,34.3957 10.7785,29.8547 6.5565,22.5407 C2.3335,15.2277 1.5695,7.4717 4.3215,3.5297 L4.3215,3.5287 C9.1125,3.1157 15.4465,7.6567 19.6695,14.9707" id="Fill-3" fill="#F68E2C" sketch:type="MSShapeGroup"></path>
                <path d="M53.6911,37.5478 L53.6931,37.5558 L53.6931,37.5548 L53.6931,37.5678 C53.7811,38.1618 53.8441,38.7648 53.8841,39.3738 C54.5911,43.1108 57.1561,46.1918 60.5871,47.6138 C58.8451,56.1418 46.7161,62.7458 32.0031,62.7458 C17.3091,62.7458 5.1891,56.1598 3.4241,47.6508 C6.7831,46.2668 9.3201,43.2928 10.0971,39.6648 C10.1381,38.8718 10.2221,38.0898 10.3451,37.3218 L10.3451,37.3128 L10.3501,37.2958 C10.5591,35.9968 10.8831,34.7358 11.3101,33.5248 L11.3141,33.5078 L11.3161,33.5068 C14.3261,24.9858 22.4501,18.8818 32.0031,18.8818 C43.0051,18.8818 52.1131,26.9848 53.6911,37.5478" id="Fill-5" fill="#F68E2C" sketch:type="MSShapeGroup"></path>
                <path d="M53.6911,37.5478 L53.6931,37.5558 L53.6931,37.5548 L53.6931,37.5678 C53.7811,38.1618 53.8441,38.7648 53.8841,39.3738 C54.5911,43.1108 57.1561,46.1918 60.5871,47.6138 C58.8451,56.1418 46.7161,62.7458 32.0031,62.7458 L32.0031,18.8818 C43.0051,18.8818 52.1131,26.9848 53.6911,37.5478" id="Fill-7" fill="#EF7721" sketch:type="MSShapeGroup"></path>
                <path d="M29.6941,62.6904 C16.0581,62.0444 5.0971,55.7114 3.4241,47.6524 C5.6641,46.7364 8.1151,46.2304 10.6841,46.2304 C20.3591,46.2304 28.3611,53.3844 29.6941,62.6904" id="Fill-9" fill="#FFFFFF" sketch:type="MSShapeGroup"></path>
                <path d="M34.3142,62.6904 C47.9492,62.0444 58.9112,55.7114 60.5862,47.6524 C58.3442,46.7364 55.8932,46.2304 53.3242,46.2304 C43.6482,46.2304 35.6462,53.3844 34.3142,62.6904" id="Fill-11" fill="#FFFFFF" sketch:type="MSShapeGroup"></path>
                <path d="M37.8083,63 C37.1693,60.389 34.8123,58.451 32.0053,58.451 C29.1953,58.451 26.8413,60.389 26.2003,63 L37.8083,63 Z" id="Fill-13" fill="#2E2E2F" sketch:type="MSShapeGroup"></path>
                <path d="M40.1863,45.2812 C39.4243,44.0212 39.1613,42.5422 39.4013,41.1322 L44.3363,41.1322 L44.3363,36.1982 C45.7463,35.9582 47.2243,36.2182 48.4853,36.9822 C49.8943,39.3072 49.5953,42.3762 47.5913,44.3842 C45.5803,46.3912 42.5103,46.6902 40.1863,45.2812 M23.8223,45.2812 C25.2303,42.9572 24.9313,39.8882 22.9243,37.8812 C22.0053,36.9622 20.8633,36.4022 19.6743,36.1982 L19.6743,41.1322 L14.7383,41.1322 C14.9413,42.3222 15.5023,43.4652 16.4243,44.3842 C18.4283,46.3912 21.4983,46.6902 23.8223,45.2812" id="Fill-15" fill="#2E2E2F" sketch:type="MSShapeGroup"></path>
            </g>
        </g>
    </g>
</svg>
