<?xml version="1.0" encoding="UTF-8" standalone="no"?>
<!--

    Copyright (C) 2017-2018 Dremio Corporation

    Licensed under the Apache License, Version 2.0 (the "License");
    you may not use this file except in compliance with the License.
    You may obtain a copy of the License at

        http://www.apache.org/licenses/LICENSE-2.0

    Unless required by applicable law or agreed to in writing, software
    distributed under the License is distributed on an "AS IS" BASIS,
    WITHOUT WARRANTIES OR CONDITIONS OF ANY KIND, either express or implied.
    See the License for the specific language governing permissions and
    limitations under the License.

-->
<svg width="110px" height="110px" viewBox="0 0 110 110" version="1.1" xmlns="http://www.w3.org/2000/svg" xmlns:xlink="http://www.w3.org/1999/xlink" xmlns:sketch="http://www.bohemiancoding.com/sketch/ns">
    <!-- Generator: Sketch 3.5.2 (25235) - http://www.bohemiancoding.com/sketch -->
    <title>Avatar/Gazelle</title>
    <desc>Created with Sketch.</desc>
    <defs>
        <path id="path-1" d="M0,1.1904 L74,1.1904 L74,78 L0,78"></path>
    </defs>
    <g id="Avatars" stroke="none" stroke-width="1" fill="none" fill-rule="evenodd" sketch:type="MSPage">
        <g id="Avatar/Gazelle" sketch:type="MSArtboardGroup">
            <g id="Background-Circle" sketch:type="MSLayerGroup" fill="#FFBB57">
                <circle id="Gold" sketch:type="MSShapeGroup" cx="55" cy="55" r="55"></circle>
            </g>
            <g id="Page-1" sketch:type="MSLayerGroup" transform="translate(18.000000, 16.000000)">
                <path d="M59.6400613,32.00856 C63.0798677,31.08216 67.7442548,28.54896 68.4341258,24.65736 L68.5713839,23.87256 L68.0629323,23.26296 C66.8693839,21.83736 64.9907387,21.13416 63.2051903,20.86296 C61.0938032,20.54136 58.8463516,20.76216 56.7898677,21.31656 C53.3500613,22.24296 48.6856742,24.77616 47.9969968,28.66776 L47.8597387,29.45256 L48.3705774,30.06216 C49.5629323,31.48656 51.4403839,32.18976 53.2247387,32.46216 C55.3373194,32.78256 57.584771,32.56176 59.6400613,32.00856" id="Fill-1" fill="#803B1B" sketch:type="MSShapeGroup"></path>
                <path d="M59.098071,29.97876 C55.4195548,30.96996 51.9511032,30.39516 50.5582323,28.72596 C50.9342,26.57916 53.6531032,24.33756 57.3316194,23.34636 C61.0125226,22.35396 64.4821677,22.92996 65.8774258,24.59916 C65.5002645,26.74596 62.7789742,28.98756 59.098071,29.97876" id="Fill-3" fill="#D1BC89" sketch:type="MSShapeGroup"></path>
                <path d="M12.4470387,32.00856 C9.00723226,31.08216 4.34284516,28.54896 3.65416774,24.65736 L3.51690968,23.87256 L4.02536129,23.26296 C5.21771613,21.83736 7.09636129,21.13416 8.88190968,20.86296 C10.9932968,20.54136 13.2419419,20.76216 15.2984258,21.31656 C18.7370387,22.24296 23.4050065,24.77616 24.0889097,28.66776 L24.2273613,29.45256 L23.7165226,30.06216 C22.5241677,31.48656 20.6479097,32.18976 18.8623613,32.46216 C16.7497806,32.78256 14.502329,32.56176 12.4470387,32.00856" id="Fill-5" fill="#803B1B" sketch:type="MSShapeGroup"></path>
                <path d="M12.9879548,29.97876 C16.6676645,30.96996 20.1349226,30.39516 21.5325677,28.72596 C21.1542129,26.57916 18.4353097,24.33756 14.7544065,23.34636 C11.0758903,22.35396 7.61340645,22.92996 6.2109871,24.59916 C6.59053548,26.74596 9.30824516,28.98756 12.9879548,29.97876" id="Fill-7" fill="#D1BC89" sketch:type="MSShapeGroup"></path>
                <path d="M31.3212161,60.84732 C31.3212161,60.84732 32.0719581,65.16132 35.0498613,68.58252 C38.026571,72.00372 38.3619581,77.77212 37.5563129,77.98812 C36.7554419,78.20532 41.0331194,75.41052 41.0331194,71.94252 C41.0331194,68.47452 38.2402161,66.39012 40.7407,61.09692 C43.2387968,55.80492 33.5603129,56.07132 31.3212161,60.84732" id="Fill-9" fill="#2E2E2F" sketch:type="MSShapeGroup"></path>
                <path d="M37.0010742,62.30436 C47.628429,62.30436 56.2995581,51.29916 56.2995581,37.80636 C56.2995581,24.31236 47.628429,13.30716 37.0010742,13.30716 C26.3713323,13.30716 17.7013968,24.31236 17.7013968,37.80636 C17.7013968,51.29916 26.3713323,62.30436 37.0010742,62.30436" id="Fill-11" fill="#8A5033" sketch:type="MSShapeGroup"></path>
                <path d="M37.0010742,13.30668 C47.6582677,13.30668 56.2995581,24.27588 56.2995581,37.80588 C56.2995581,51.33588 47.6582677,62.30388 37.0010742,62.30388 L37.0010742,13.30668 Z" id="Fill-13" fill="#803B1B" sketch:type="MSShapeGroup"></path>
                <path d="M44.8442387,25.97568 C46.8935613,25.97568 48.5537871,28.62408 48.5537871,31.89048 C48.5537871,35.15688 46.8935613,37.80528 44.8442387,37.80528 C42.7996903,37.80528 41.1334968,35.15688 41.1334968,31.89048 C41.1334968,28.62408 42.7996903,25.97568 44.8442387,25.97568 M28.3708839,25.97568 C30.4202065,25.97568 32.0828194,28.62408 32.0828194,31.89048 C32.0828194,35.15688 30.4202065,37.80528 28.3708839,37.80528 C26.3215613,37.80528 24.6601419,35.15688 24.6601419,31.89048 C24.6601419,28.62408 26.3215613,25.97568 28.3708839,25.97568" id="Fill-15" fill="#DFD7C5" sketch:type="MSShapeGroup"></path>
                <path d="M28.3711226,29.79948 C29.5217032,29.79948 30.4502839,30.73548 30.4502839,31.88988 C30.4502839,33.04548 29.5217032,33.98028 28.3711226,33.98028 C27.222929,33.98028 26.2919613,33.04548 26.2919613,31.88988 L28.3711226,31.88988 L28.3711226,29.79948 Z" id="Fill-17" fill="#2E2E2F" sketch:type="MSShapeGroup"></path>
                <path d="M44.8442387,29.79948 C45.9924323,29.79948 46.9269806,30.73548 46.9269806,31.88988 C46.9269806,33.04548 45.9924323,33.98028 44.8442387,33.98028 C43.6960452,33.98028 42.7638839,33.04548 42.7638839,31.88988 L44.8442387,31.88988 L44.8442387,29.79948 Z" id="Fill-19" fill="#2E2E2F" sketch:type="MSShapeGroup"></path>
                <path d="M40.5619065,16.62876 C41.9667129,13.05156 45.090229,7.51716 50.9923258,7.51716 C59.7135839,7.51716 67.0276484,9.32076 70.1356484,7.51716 C73.2436484,5.71236 73.7676161,1.19076 73.7676161,1.19076 C73.7676161,1.19076 75.1473581,8.60196 71.1800032,10.90476 C67.2174226,13.20636 64.9866806,13.96716 59.8114548,13.96716 C55.672229,13.96716 52.9020032,18.91476 51.602229,21.52236 C48.7914226,27.16236 38.1175194,22.85796 40.5619065,16.62876" id="Fill-21" fill="#612A0E" sketch:type="MSShapeGroup"></path>
                <g id="Group-25">
                    <mask id="mask-2" sketch:name="Clip 24" fill="white">
                        <use xlink:href="#path-1"></use>
                    </mask>
                    <g id="Clip-24"></g>
                    <path d="M33.4378548,16.62876 C32.0330484,13.05156 28.9083387,7.51716 23.0074355,7.51716 C14.2861774,7.51716 6.9721129,9.32076 3.8641129,7.51716 C0.754919355,5.71236 0.232145161,1.19076 0.232145161,1.19076 C0.232145161,1.19076 -1.14759677,8.60196 2.81975806,10.90476 C6.7871129,13.20636 9.01308065,13.96716 14.1883065,13.96716 C18.3323065,13.96716 21.0977581,18.91476 22.3987258,21.52236 C25.2178871,27.16236 35.8870161,22.85796 33.4378548,16.62876" id="Fill-23" fill="#612A0E" sketch:type="MSShapeGroup" mask="url(#mask-2)"></path>
                </g>
                <path d="M43.2136129,47.18952 C43.2136129,47.98032 42.8483871,48.71592 42.2146129,49.33272 C41.9198065,48.53832 41.3803226,48.00432 40.7596774,48.00432 C39.8215484,48.00432 39.0660323,49.21272 39.0660323,50.70192 C39.0660323,50.77152 39.0660323,50.83872 39.0696129,50.90592 C38.4215161,51.05112 37.726871,51.13032 37.0011935,51.13032 C36.273129,51.13032 35.5784839,51.05112 34.9303871,50.90592 C34.9339677,50.83872 34.9351613,50.77152 34.9351613,50.70192 C34.9351613,49.21272 34.1784516,48.00432 33.2427097,48.00432 C32.6280323,48.00432 32.0813871,48.53832 31.7853871,49.33272 C31.1528065,48.71592 30.7875806,47.98032 30.7875806,47.18952 C30.7875806,45.01392 33.5733226,43.24872 37.0011935,43.24872 C40.4362258,43.24872 43.2136129,45.01392 43.2136129,47.18952" id="Fill-26" fill="#474749" sketch:type="MSShapeGroup"></path>
                <path d="M37.0010742,51.13008 L37.0010742,43.24968 C40.4361065,43.24968 43.2134935,45.01368 43.2134935,47.18928 C43.2134935,47.98008 42.8482677,48.71568 42.2144935,49.33248 C41.9196871,48.53808 41.3802032,48.00408 40.7595581,48.00408 C39.821429,48.00408 39.0659129,49.21248 39.0659129,50.70288 C39.0659129,50.77128 39.0659129,50.83848 39.0694935,50.90568 C38.4213968,51.05208 37.7267516,51.13008 37.0010742,51.13008" id="Fill-28" fill="#2E2E2F" sketch:type="MSShapeGroup"></path>
            </g>
        </g>
    </g>
</svg>
