<?xml version="1.0" encoding="UTF-8" standalone="no"?>
<!--

    Copyright (C) 2017-2018 Dremio Corporation

    Licensed under the Apache License, Version 2.0 (the "License");
    you may not use this file except in compliance with the License.
    You may obtain a copy of the License at

        http://www.apache.org/licenses/LICENSE-2.0

    Unless required by applicable law or agreed to in writing, software
    distributed under the License is distributed on an "AS IS" BASIS,
    WITHOUT WARRANTIES OR CONDITIONS OF ANY KIND, either express or implied.
    See the License for the specific language governing permissions and
    limitations under the License.

-->
<svg width="110px" height="110px" viewBox="0 0 110 110" version="1.1" xmlns="http://www.w3.org/2000/svg" xmlns:xlink="http://www.w3.org/1999/xlink" xmlns:sketch="http://www.bohemiancoding.com/sketch/ns">
    <!-- Generator: Sketch 3.5.2 (25235) - http://www.bohemiancoding.com/sketch -->
    <title>Avatar/Hen</title>
    <desc>Created with Sketch.</desc>
    <defs>
        <path id="path-1" d="M0,1.29723077 L58.7569565,1.29723077 L58.7569565,85 L0,85"></path>
    </defs>
    <g id="Avatars" stroke="none" stroke-width="1" fill="none" fill-rule="evenodd" sketch:type="MSPage">
        <g id="Avatar/Hen" sketch:type="MSArtboardGroup">
            <g id="Background-Circle" sketch:type="MSLayerGroup" fill="#3ACBAC">
                <circle id="Green" sketch:type="MSShapeGroup" cx="55" cy="55" r="55"></circle>
            </g>
            <g id="Page-1" sketch:type="MSLayerGroup" transform="translate(25.000000, 12.000000)">
                <path d="M15.2636087,32.0838385 C15.2623043,32.1688385 15.2596957,32.2512231 15.2596957,32.3362231 L15.2596957,39.5036846 C13.8653478,40.4138385 12.5688261,41.4390692 11.3923043,42.5649923 C11.1836087,42.2668385 10.9696957,41.9294538 10.7440435,41.5476077 C8.62186957,37.9566846 0.000130434783,36.5522231 0.000130434783,36.5522231 C0.000130434783,36.5522231 0.631434783,35.8748385 4.41273913,35.0941462 C8.20056522,34.3147615 12.7683913,37.3839154 12.7683913,37.3839154 C12.7683913,37.3839154 10.4844783,33.1169154 8.56708696,30.9317615 C6.64447826,28.7453 1.09056522,30.6179154 1.09056522,30.6179154 C1.09056522,30.6179154 1.401,29.2134538 2.86056522,28.3804538 C4.3083913,27.5487615 6.07186957,26.8203769 8.73013043,27.6520692 C10.8040435,28.3085308 13.6605652,30.8363 15.2636087,32.0838385 M16.4023043,26.4058385 C15.5883913,26.1822231 14.4092609,25.9533769 13.187087,26.0396846 C10.9592609,26.1953 10.7440435,26.4045308 10.7440435,26.4045308 C10.7440435,26.4045308 14.1483913,27.3839923 15.714913,28.5530692 C15.9040435,27.8168385 16.1231739,27.0989154 16.4023043,26.4058385" id="Fill-1" fill="#2E2E2F" sketch:type="MSShapeGroup"></path>
                <g id="Group-5">
                    <mask id="mask-2" sketch:name="Clip 4" fill="white">
                        <use xlink:href="#path-1"></use>
                    </mask>
                    <g id="Clip-4"></g>
                    <path d="M47.2342174,39.5034231 L47.2342174,32.3372692 C47.2342174,23.5208077 40.0394348,16.3088846 31.2468261,16.3088846 C22.4542174,16.3088846 15.2594348,23.5208077 15.2594348,32.3372692 L15.2594348,39.5034231 C8.28769565,44.0541923 3.73682609,51.5001923 3.73682609,59.9178077 C3.73682609,73.7701923 16.0537826,85.0006538 31.2468261,85.0006538 C46.4476957,85.0006538 58.7568261,73.7701923 58.7568261,59.9178077 C58.7568261,51.5001923 54.2137826,44.0541923 47.2342174,39.5034231" id="Fill-3" fill="#EF7721" sketch:type="MSShapeGroup" mask="url(#mask-2)"></path>
                </g>
                <path d="M31.2469565,16.3091462 L31.2469565,16.3091462 L31.2469565,84.9996077 C16.053913,84.9996077 3.73695652,73.7704538 3.73695652,59.9180692 C3.73695652,51.5004538 8.28782609,44.0531462 15.2595652,39.5036846 L15.2595652,32.3362231 C15.2595652,23.5210692 22.4543478,16.3091462 31.2469565,16.3091462" id="Fill-6" fill="#F79A46" sketch:type="MSShapeGroup"></path>
                <path d="M52.412087,50.8684462 C53.6225217,53.6747538 54.2929565,56.7700615 54.2929565,60.0209846 C54.2929565,72.7814462 43.9742609,83.1266 31.2464348,83.1266 C18.519913,83.1266 8.19991304,72.7814462 8.19991304,60.0209846 C8.19991304,56.7700615 8.87165217,53.6747538 10.0886087,50.8684462 C14.612087,57.7612923 22.3977391,62.3107538 31.2464348,62.3107538 C40.0964348,62.3107538 47.882087,57.7612923 52.412087,50.8684462" id="Fill-8" fill="#2E2E2F" sketch:type="MSShapeGroup"></path>
                <path d="M31.2469565,83.1266 C18.5191304,83.1266 8.20043478,72.7814462 8.20043478,60.0209846 C8.20043478,56.7700615 8.87217391,53.6760615 10.0878261,50.8684462 C14.6113043,57.7612923 22.3982609,62.3107538 31.2469565,62.3107538 L31.2469565,83.1266 Z" id="Fill-10" fill="#474749" sketch:type="MSShapeGroup"></path>
                <path d="M26.3926957,40.2613615 L31.2474783,40.2613615 L36.1035652,40.2613615 L36.1035652,47.8093615 L31.2474783,47.8093615 L26.3926957,47.8093615 L26.3926957,40.2613615 Z" id="Fill-12" fill="#DF3E52" sketch:type="MSShapeGroup"></path>
                <path d="M25.2717391,24.3225538 C28.9865217,24.3225538 31.9982609,27.3420154 31.9982609,31.0663231 C31.9982609,34.7919385 28.9865217,37.8114 25.2717391,37.8114 C21.5569565,37.8114 18.543913,34.7919385 18.543913,31.0663231 C18.543913,27.3420154 21.5569565,24.3225538 25.2717391,24.3225538" id="Fill-14" fill="#DF3E52" sketch:type="MSShapeGroup"></path>
                <path d="M37.2223043,24.3225538 C40.9383913,24.3225538 43.9488261,27.3420154 43.9488261,31.0663231 C43.9488261,34.7919385 40.9383913,37.8114 37.2223043,37.8114 C33.5127391,37.8114 30.4957826,34.7919385 30.4957826,31.0663231 C30.4957826,27.3420154 33.5127391,24.3225538 37.2223043,24.3225538" id="Fill-16" fill="#DF3E52" sketch:type="MSShapeGroup"></path>
                <path d="M37.2223043,28.6204154 C38.5696957,28.6204154 39.6614348,29.7149538 39.6614348,31.0671077 C39.6614348,32.4179538 38.5696957,33.5124923 37.2223043,33.5124923 C35.874913,33.5124923 34.7831739,32.4179538 34.7831739,31.0671077 L37.2223043,31.0671077 L37.2223043,28.6204154 Z" id="Fill-18" fill="#2E2E2F" sketch:type="MSShapeGroup"></path>
                <path d="M25.2717391,28.6204154 C26.6178261,28.6204154 27.7108696,29.7149538 27.7108696,31.0671077 C27.7108696,32.4179538 26.6178261,33.5124923 25.2717391,33.5124923 C23.9243478,33.5124923 22.8313043,32.4179538 22.8313043,31.0671077 L25.2717391,31.0671077 L25.2717391,28.6204154 Z" id="Fill-20" fill="#2E2E2F" sketch:type="MSShapeGroup"></path>
                <path d="M24.3597391,9.51398462 C24.3597391,9.51398462 20.144087,9.0236 19.8271304,9.64736923 C19.5166957,10.2724462 29.0084348,20.2632154 30.9075652,19.2222923 C30.9075652,19.2222923 33.6701739,14.3942923 30.0010435,8.63521538 C30.828,6.0316 30.9206087,2.56229231 31.6627826,2.98598462 C33.1158261,3.81898462 33.4275652,7.67013846 34.3614783,5.69290769 C35.3006087,3.71436923 36.6453913,4.65198462 36.9571304,9.95990769 C37.2675652,15.2678308 32.808,18.1813692 30.9075652,19.2222923 C28.0406087,15.8144462 25.9066957,12.4196769 24.3597391,9.5166 L24.3597391,9.51398462 Z" id="Fill-22" fill="#DB1F26" sketch:type="MSShapeGroup"></path>
                <path d="M30.906913,19.2220308 C30.906913,19.2220308 33.989087,13.8356462 29.3273478,7.65418462 C24.6551739,1.47403077 20.8660435,1.29749231 20.8660435,1.29749231 C20.8660435,1.29749231 23.3312609,10.2146462 30.906913,19.2220308" id="Fill-24" fill="#DF3E52" sketch:type="MSShapeGroup"></path>
                <path d="M31.2469565,36.3624769 C33.7695652,36.3624769 37.2130435,38.8379385 35.8147826,40.9420154 L31.2469565,47.8100154 L26.6791304,40.9420154 C25.2808696,38.8379385 28.7269565,36.3624769 31.2469565,36.3624769" id="Fill-26" fill="#F6B726" sketch:type="MSShapeGroup"></path>
            </g>
        </g>
    </g>
</svg>
