<?xml version="1.0" encoding="UTF-8" standalone="no"?>
<!--

    Copyright (C) 2017-2018 Dremio Corporation

    Licensed under the Apache License, Version 2.0 (the "License");
    you may not use this file except in compliance with the License.
    You may obtain a copy of the License at

        http://www.apache.org/licenses/LICENSE-2.0

    Unless required by applicable law or agreed to in writing, software
    distributed under the License is distributed on an "AS IS" BASIS,
    WITHOUT WARRANTIES OR CONDITIONS OF ANY KIND, either express or implied.
    See the License for the specific language governing permissions and
    limitations under the License.

-->
<svg width="110px" height="110px" viewBox="0 0 110 110" version="1.1" xmlns="http://www.w3.org/2000/svg" xmlns:xlink="http://www.w3.org/1999/xlink" xmlns:sketch="http://www.bohemiancoding.com/sketch/ns">
    <!-- Generator: Sketch 3.5.2 (25235) - http://www.bohemiancoding.com/sketch -->
    <title>Avatar/Horse</title>
    <desc>Created with Sketch.</desc>
    <defs>
        <path id="path-1" d="M0,0.334756098 L54.175,0.334756098 L54.175,90 L0,90 L0,0.334756098 Z"></path>
    </defs>
    <g id="Avatars" stroke="none" stroke-width="1" fill="none" fill-rule="evenodd" sketch:type="MSPage">
        <g id="Avatar/Horse" sketch:type="MSArtboardGroup">
            <g id="Background-Circle" sketch:type="MSLayerGroup" fill="#C0E9F5">
                <circle id="Light-Blue" sketch:type="MSShapeGroup" cx="55" cy="55" r="55"></circle>
            </g>
            <g id="Page-1" sketch:type="MSLayerGroup" transform="translate(27.000000, 10.000000)">
                <path d="M50.96531,24.8509756 C51.98501,21.0402439 52.15221,15.1693902 48.81261,12.3640244 L48.13831,11.7976829 L47.27151,11.952439 C45.24641,12.3113415 43.54031,13.725 42.28081,15.2890244 C40.80131,17.1373171 39.76291,19.4158537 39.15241,21.6932927 C38.12831,25.505122 37.96221,31.374878 41.30181,34.1802439 L41.97721,34.7454878 L42.84181,34.5918293 C44.87021,34.2329268 46.58291,32.8181707 47.83251,31.2552439 C49.31531,29.4058537 50.34931,27.1284146 50.96531,24.8509756" id="Fill-1" fill="#2E2E2F" sketch:type="MSShapeGroup"></path>
                <path d="M48.7201,24.251378 C47.6245,28.3277195 45.1495,31.3394268 42.7779,31.7597927 L42.7779,31.7597927 C40.9343,30.2122317 40.2996,26.3696707 41.3941,22.2922317 C42.4886,18.2158902 44.9647,15.2052805 47.3451,14.7838171 C49.1799,16.331378 49.8201,20.173939 48.7201,24.251378" id="Fill-3" fill="#8E5523" sketch:type="MSShapeGroup"></path>
                <path d="M3.2076,24.8509756 C2.1824,21.0402439 2.0152,15.1693902 5.3592,12.3640244 L6.0302,11.7976829 L6.897,11.952439 C8.9199,12.3113415 10.6359,13.725 11.8877,15.2890244 C13.3661,17.1373171 14.4045,19.4158537 15.015,21.6932927 C16.0402,25.505122 16.2052,31.374878 12.8656,34.1802439 L12.1924,34.7454878 L11.3245,34.5918293 C9.3038,34.2329268 7.5856,32.8181707 6.3349,31.2552439 C4.8576,29.4058537 3.8181,27.1284146 3.2076,24.8509756" id="Fill-5" fill="#2E2E2F" sketch:type="MSShapeGroup"></path>
                <path d="M5.4538,24.251378 C6.5428,28.3277195 9.0211,31.3394268 11.3894,31.7597927 L11.3894,31.7597927 C13.233,30.2122317 13.8677,26.3696707 12.7732,22.2922317 C11.6842,18.2158902 9.2092,15.2052805 6.8321,14.7838171 C4.9951,16.331378 4.3538,20.173939 5.4538,24.251378" id="Fill-7" fill="#8E5523" sketch:type="MSShapeGroup"></path>
                <path d="M17.7397,25.1710244 C21.3961,22.8902927 24.5993,22.1329756 27.148,22.0616341 C27.3449,15.5048049 27.6243,5.7617561 27.6243,3.37895122 C27.6243,-0.296780488 27.5297,-1.69726829 22.8712,5.30297561 C19.0201,11.1035854 17.9806,21.7016341 17.7397,25.1710244 M27.3262,22.0572439 C27.8289,19.0554146 28.7265,15.5004146 30.3149,13.1165122 C33.55,8.25431707 33.6149,9.2267561 33.6149,11.7785854 C33.6149,13.2756585 33.4576,18.9522439 33.3245,23.391878 C32.6601,23.0230976 30.525,22.004561 27.3262,22.0572439" id="Fill-9" fill="#2E2E2F" sketch:type="MSShapeGroup"></path>
                <g id="Group-13">
                    <mask id="mask-2" sketch:name="Clip 12" fill="white">
                        <use xlink:href="#path-1"></use>
                    </mask>
                    <g id="Clip-12"></g>
                    <path d="M27.11544,20.2946707 L27.24194,20.2957683 L27.24304,20.2935732 C29.55964,20.2738171 31.10074,20.6338171 31.58254,20.7644268 L31.58144,20.7743049 C44.39974,23.531378 54.17544,37.8699146 54.17544,55.146622 C54.17544,74.3967439 42.04354,89.9996707 27.08464,89.9996707 C12.12354,89.9996707 0.00044,74.3967439 0.00044,55.146622 C0.00044,38.9071098 8.62774,25.2611341 20.31084,21.3922317 C22.95964,20.586622 25.27184,20.3199146 27.11544,20.2946707 L27.11544,20.2946707 Z" id="Fill-11" fill="#8E5523" sketch:type="MSShapeGroup" mask="url(#mask-2)"></path>
                </g>
                <path d="M27.08431,90 C12.12321,90 0.00011,74.3959756 0.00011,55.1469512 C0.00011,38.9063415 8.62851,25.2614634 20.31161,21.392561 C22.94061,20.5913415 25.24621,20.3235366 27.08431,20.295 L27.08431,90 Z" id="Fill-14" fill="#996539" sketch:type="MSShapeGroup"></path>
                <path d="M31.41127,57.5141707 C40.90867,58.733561 48.05207,64.016122 48.05207,70.3501463 C48.05207,77.5852683 38.72847,83.4495366 27.22467,83.4495366 C15.71977,83.4495366 6.38957,77.5852683 6.38957,70.3501463 C6.38957,63.1424634 15.64277,57.2979512 27.08387,57.2496585 L27.08387,50.2000244 L31.41127,57.5141707 Z" id="Fill-16" fill="#C9AC79" sketch:type="MSShapeGroup"></path>
                <path d="M27.08431,83.448878 C15.64321,83.4027805 6.38891,77.5560732 6.38891,70.3494878 C6.38891,64.0813171 13.39151,58.841561 22.74591,57.554122 L22.74371,57.5530244 L27.08431,50.2004634 L27.08431,57.2500976 L27.08431,60.7129024 L27.08431,83.448878 Z" id="Fill-18" fill="#D1BC89" sketch:type="MSShapeGroup"></path>
                <path d="M39.96531,65.776939 C41.74181,65.776939 43.18831,67.0775488 43.18831,68.6810854 C43.18831,70.2857195 41.74181,71.5852317 39.96531,71.5852317 C38.17891,71.5852317 36.72581,70.2857195 36.72581,68.6810854 C36.72581,67.0775488 38.17891,65.776939 39.96531,65.776939 M13.48831,65.776939 C15.27361,65.776939 16.72121,67.0775488 16.72121,68.6810854 C16.72121,70.2857195 15.27361,71.5852317 13.48831,71.5852317 C11.70411,71.5852317 10.26531,70.2857195 10.26531,68.6810854 C10.26531,67.0775488 11.70411,65.776939 13.48831,65.776939" id="Fill-20" fill="#2E2E2F" sketch:type="MSShapeGroup"></path>
                <path d="M14.575,48.9368415 C17.6748,48.9368415 20.2092,46.6605 20.2092,43.8694024 C20.2092,41.0783049 17.6748,38.803061 14.575,38.803061 C11.4664,38.803061 8.9342,41.0783049 8.9342,43.8694024 C8.9342,46.6605 11.4664,48.9368415 14.575,48.9368415" id="Fill-22" fill="#DFD7C5" sketch:type="MSShapeGroup"></path>
                <path d="M14.575,41.0299024 C16.3152,41.0299024 17.7342,42.300878 17.7342,43.8692927 C17.7342,45.4388049 16.3152,46.7097805 14.575,46.7097805 C12.8271,46.7097805 11.4125,45.4388049 11.4125,43.8692927 L14.575,43.8692927 L14.575,41.0299024 Z" id="Fill-24" fill="#2E2E2F" sketch:type="MSShapeGroup"></path>
                <path d="M39.6,48.9368415 C42.7009,48.9368415 45.2342,46.6605 45.2342,43.8694024 C45.2342,41.0783049 42.7009,38.803061 39.6,38.803061 C36.4914,38.803061 33.9592,41.0783049 33.9592,43.8694024 C33.9592,46.6605 36.4914,48.9368415 39.6,48.9368415" id="Fill-26" fill="#DFD7C5" sketch:type="MSShapeGroup"></path>
                <path d="M39.6,41.0299024 C41.3413,41.0299024 42.7592,42.300878 42.7592,43.8692927 C42.7592,45.4388049 41.3413,46.7097805 39.6,46.7097805 C37.8521,46.7097805 36.4375,45.4388049 36.4375,43.8692927 L39.6,43.8692927 L39.6,41.0299024 Z" id="Fill-28" fill="#2E2E2F" sketch:type="MSShapeGroup"></path>
                <path d="M34.08394,82.7221829 C33.57134,85.0248659 30.69484,86.7875488 27.22544,86.7875488 C23.74944,86.7875488 20.87184,85.0248659 20.35814,82.7221829 C22.50864,83.1930366 24.81644,83.4498659 27.22544,83.4498659 C29.62564,83.4498659 31.93454,83.1930366 34.08394,82.7221829" id="Fill-30" fill="#2E2E2F" sketch:type="MSShapeGroup"></path>
            </g>
        </g>
    </g>
</svg>
