<?xml version="1.0" encoding="UTF-8" standalone="no"?>
<!--

    Copyright (C) 2017-2018 Dremio Corporation

    Licensed under the Apache License, Version 2.0 (the "License");
    you may not use this file except in compliance with the License.
    You may obtain a copy of the License at

        http://www.apache.org/licenses/LICENSE-2.0

    Unless required by applicable law or agreed to in writing, software
    distributed under the License is distributed on an "AS IS" BASIS,
    WITHOUT WARRANTIES OR CONDITIONS OF ANY KIND, either express or implied.
    See the License for the specific language governing permissions and
    limitations under the License.

-->
<svg width="110px" height="110px" viewBox="0 0 110 110" version="1.1" xmlns="http://www.w3.org/2000/svg" xmlns:xlink="http://www.w3.org/1999/xlink" xmlns:sketch="http://www.bohemiancoding.com/sketch/ns">
    <!-- Generator: Sketch 3.5.2 (25235) - http://www.bohemiancoding.com/sketch -->
    <title>Avatar/Horse-2</title>
    <desc>Created with Sketch.</desc>
    <defs>
        <path id="path-1" d="M0,1.09883077 L50.5864565,1.09883077 L50.5864565,72 L0,72"></path>
        <path id="path-3" d="M0,1.09883077 L50.5864565,1.09883077 L50.5864565,72 L0,72"></path>
        <path id="path-5" d="M0,1.09883077 L50.5864565,1.09883077 L50.5864565,72 L0,72"></path>
    </defs>
    <g id="Avatars" stroke="none" stroke-width="1" fill="none" fill-rule="evenodd" sketch:type="MSPage">
        <g id="Avatar/Horse-2" sketch:type="MSArtboardGroup">
            <g id="Background-Circle" sketch:type="MSLayerGroup" fill="#FFBB57">
                <circle id="Gold" sketch:type="MSShapeGroup" cx="55" cy="55" r="55"></circle>
            </g>
            <g id="Page-1" sketch:type="MSLayerGroup" transform="translate(30.000000, 20.000000)">
                <g id="Group-3">
                    <mask id="mask-2" sketch:name="Clip 2" fill="white">
                        <use xlink:href="#path-1"></use>
                    </mask>
                    <g id="Clip-2"></g>
                    <path d="M47.5895413,13.3020554 C48.545237,9.73971692 48.701563,4.24999385 45.5816935,1.62697846 L44.953063,1.09860923 L44.1448239,1.24260923 C42.2544978,1.57824 40.6524326,2.89971692 39.4838674,4.36187077 C38.1024326,6.09097846 37.1334326,8.22217846 36.563563,10.3500554 C35.6067587,13.9135015 35.45265,19.4032246 38.5703022,22.0251323 L39.20115,22.5535015 L40.0082804,22.4106092 C41.8986065,22.0749785 43.499563,20.7523938 44.6681283,19.29024 C46.049563,17.56224 47.018563,15.43104 47.5895413,13.3020554" id="Fill-1" fill="#2E2E2F" sketch:type="MSShapeGroup" mask="url(#mask-2)"></path>
                </g>
                <path d="M45.4966565,12.7416738 C44.4744391,16.5532431 42.1628087,19.3689969 39.9476348,19.7622277 C38.2313739,18.3155815 37.633787,14.7222277 38.6560043,10.9106585 C39.6782217,7.09908923 41.9898522,4.28333538 44.2050261,3.89010462 C45.9257217,5.33785846 46.5188739,8.93010462 45.4966565,12.7416738" id="Fill-4" fill="#8E5523" sketch:type="MSShapeGroup"></path>
                <g id="Group-8">
                    <mask id="mask-4" sketch:name="Clip 7" fill="white">
                        <use xlink:href="#path-3"></use>
                    </mask>
                    <g id="Clip-7"></g>
                    <path d="M2.99802391,13.3020554 C2.04232826,9.73971692 1.88600217,4.24999385 5.00919783,1.62697846 L5.63450217,1.09860923 L6.4427413,1.24260923 C8.33528478,1.57824 9.93513261,2.89971692 11.1070239,4.36187077 C12.4862413,6.09097846 13.4541326,8.22217846 14.0251109,10.3500554 C14.9808065,13.9135015 15.1360239,19.4032246 12.017263,22.0251323 L11.39085,22.5535015 L10.5792848,22.4106092 C8.6889587,22.0749785 7.08800217,20.7523938 5.91943696,19.29024 C4.53800217,17.56224 3.56900217,15.43104 2.99802391,13.3020554" id="Fill-6" fill="#2E2E2F" sketch:type="MSShapeGroup" mask="url(#mask-4)"></path>
                </g>
                <path d="M5.0909087,12.7416738 C6.11866957,16.5532431 8.42697391,19.3689969 10.6399304,19.7622277 C12.3628435,18.3155815 12.954887,14.7222277 11.9315609,10.9106585 C10.9093435,7.09908923 8.59771304,4.28333538 6.38253913,3.89010462 C4.66184348,5.33785846 4.0686913,8.93010462 5.0909087,12.7416738" id="Fill-9" fill="#8E5523" sketch:type="MSShapeGroup"></path>
                <g id="Group-13">
                    <mask id="mask-6" sketch:name="Clip 12" fill="white">
                        <use xlink:href="#path-5"></use>
                    </mask>
                    <g id="Clip-12"></g>
                    <path d="M25.3236065,9.04220308 L25.4411283,9.04331077 L25.442237,9.03998769 C27.6075196,9.02558769 29.0443891,9.31580308 29.4945196,9.42103385 L29.4934109,9.42989538 C41.4662152,11.6497108 50.5863457,23.2040492 50.5863457,37.1233108 C50.5863457,52.6321108 39.263237,65.2044185 25.2947804,65.2044185 C11.3241065,65.2044185 -0.000110869565,52.6321108 -0.000110869565,37.1233108 C-0.000110869565,24.0381415 8.06121522,13.0431877 18.9707804,9.92724923 C21.4398457,9.27814154 23.6018022,9.06214154 25.3236065,9.04220308" id="Fill-11" fill="#8E5523" sketch:type="MSShapeGroup" mask="url(#mask-6)"></path>
                </g>
                <path d="M25.294337,65.2045292 C11.323663,65.2045292 0.000554347826,52.6311138 0.000554347826,37.1234215 C0.000554347826,24.0382523 8.06077174,13.0432985 18.970337,9.92736 C21.4260978,9.28157538 23.5802935,9.06446769 25.294337,9.04231385 L25.294337,65.2045292 Z" id="Fill-14" fill="#996539" sketch:type="MSShapeGroup"></path>
                <path d="M28.5706435,41.0305846 C35.7062087,42.4860923 41.074513,48.7955077 41.074513,56.3566154 C41.074513,64.9955077 34.0675565,71.9994462 25.4219478,71.9994462 C16.7774478,71.9994462 9.76938261,64.9955077 9.76938261,56.3566154 C9.76938261,47.7520615 16.7209043,40.7713846 25.3188391,40.7148923 L25.3188391,38.1350769 L28.5706435,41.0305846 Z" id="Fill-16" fill="#C9AC79" sketch:type="MSShapeGroup"></path>
                <path d="M25.3192826,71.9983385 C16.7213478,71.9429538 9.76982609,64.9611692 9.76982609,56.3566154 C9.76982609,48.8719385 15.033913,42.6156923 22.0630435,41.0782154 L22.0586087,41.076 L25.3192826,38.1350769 L25.3192826,40.7148923 L25.3192826,44.8499077 L25.3192826,71.9983385 Z" id="Fill-18" fill="#D1BC89" sketch:type="MSShapeGroup"></path>
                <path d="M34.9922087,50.8964677 C36.3326217,50.8964677 37.4191435,52.4494523 37.4191435,54.3646523 C37.4191435,56.2798523 36.3326217,57.8328369 34.9922087,57.8328369 C33.650687,57.8328369 32.5630565,56.2798523 32.5630565,54.3646523 C32.5630565,52.4494523 33.650687,50.8964677 34.9922087,50.8964677 M15.1033174,50.8964677 C16.4448391,50.8964677 17.5335783,52.4494523 17.5335783,54.3646523 C17.5335783,56.2798523 16.4448391,57.8328369 15.1033174,57.8328369 C13.7629043,57.8328369 12.6774913,56.2798523 12.6774913,54.3646523 C12.6774913,52.4494523 13.7629043,50.8964677 15.1033174,50.8964677" id="Fill-20" fill="#2E2E2F" sketch:type="MSShapeGroup"></path>
                <path d="M13.6096826,35.8226585 C16.5089217,35.8226585 18.8748783,33.6947815 18.8748783,31.0850585 C18.8748783,28.4753354 16.5089217,26.3463508 13.6096826,26.3463508 C10.7104435,26.3463508 8.34559565,28.4753354 8.34559565,31.0850585 C8.34559565,33.6947815 10.7104435,35.8226585 13.6096826,35.8226585" id="Fill-22" fill="#DFD7C5" sketch:type="MSShapeGroup"></path>
                <path d="M13.6096826,28.4300308 C15.2394652,28.4300308 16.5599217,29.6185846 16.5599217,31.0851692 C16.5599217,32.5517538 15.2394652,33.7403077 13.6096826,33.7403077 C11.9843348,33.7403077 10.6594435,32.5517538 10.6594435,31.0851692 L13.6096826,31.0851692 L13.6096826,28.4300308 Z" id="Fill-24" fill="#2E2E2F" sketch:type="MSShapeGroup"></path>
                <path d="M36.9767739,35.8226585 C39.876013,35.8226585 42.2419696,33.6947815 42.2419696,31.0850585 C42.2419696,28.4753354 39.876013,26.3463508 36.9767739,26.3463508 C34.0775348,26.3463508 31.712687,28.4753354 31.712687,31.0850585 C31.712687,33.6947815 34.0775348,35.8226585 36.9767739,35.8226585" id="Fill-26" fill="#DFD7C5" sketch:type="MSShapeGroup"></path>
                <path d="M36.9778826,28.4300308 C38.6076652,28.4300308 39.927013,29.6185846 39.927013,31.0851692 C39.927013,32.5517538 38.6076652,33.7403077 36.9778826,33.7403077 C35.3481,33.7403077 34.0287522,32.5517538 34.0287522,31.0851692 L36.9778826,31.0851692 L36.9778826,28.4300308 Z" id="Fill-28" fill="#2E2E2F" sketch:type="MSShapeGroup"></path>
                <path d="M36.173413,12.2046646 C36.173413,12.2046646 34.1422826,4.08195692 29.0711087,2.34952615 C24.0032609,0.618203077 18.6061304,3.95235692 18.6061304,3.95235692 C18.6061304,3.95235692 22.1373261,3.88921846 22.9721739,4.91494154 C23.8114565,5.94177231 18.3655435,4.65241846 15.8454783,6.45463385 C13.3320652,8.25574154 9.83856522,12.3043569 9.10571739,14.85648 C8.37286957,17.4086031 8.27086957,20.5644185 8.27086957,20.5644185 C8.27086957,20.5644185 10.5614348,18.4863877 11.8231304,18.0510646 C13.0859348,17.6146338 12.1867826,18.0621415 13.3420435,21.5258954 C14.4973043,24.9907569 17.901,26.1449723 17.901,26.1449723 C17.901,26.1449723 15.3321522,22.1041108 18.221413,20.6929108 C21.1095652,19.2817108 20.2148478,23.1951877 21.8801087,26.2734646 C23.5498043,29.3517415 25.2937826,30.1215877 25.2937826,30.1215877 C25.2937826,30.1215877 26.4390652,20.4370338 27.9790435,19.9230646 C29.5201304,19.4102031 30.611087,19.9230646 29.7130435,21.5912492 C28.8138913,23.2594338 28.3637609,24.3494031 28.3637609,24.3494031 C28.3637609,24.3494031 37.8009783,18.38448 36.173413,12.2046646" id="Fill-30" fill="#2E2E2F" sketch:type="MSShapeGroup"></path>
            </g>
        </g>
    </g>
</svg>
