<?xml version="1.0" encoding="UTF-8" standalone="no"?>
<!--

    Copyright (C) 2017-2018 Dremio Corporation

    Licensed under the Apache License, Version 2.0 (the "License");
    you may not use this file except in compliance with the License.
    You may obtain a copy of the License at

        http://www.apache.org/licenses/LICENSE-2.0

    Unless required by applicable law or agreed to in writing, software
    distributed under the License is distributed on an "AS IS" BASIS,
    WITHOUT WARRANTIES OR CONDITIONS OF ANY KIND, either express or implied.
    See the License for the specific language governing permissions and
    limitations under the License.

-->
<svg width="110px" height="110px" viewBox="0 0 110 110" version="1.1" xmlns="http://www.w3.org/2000/svg" xmlns:xlink="http://www.w3.org/1999/xlink" xmlns:sketch="http://www.bohemiancoding.com/sketch/ns">
    <!-- Generator: Sketch 3.5.2 (25235) - http://www.bohemiancoding.com/sketch -->
    <title>Avatar/Jaguar</title>
    <desc>Created with Sketch.</desc>
    <defs>
        <path id="path-1" d="M0,0.205764706 L83.7014615,0.205764706 L83.7014615,66 L0,66"></path>
        <path id="path-3" d="M0,0.205764706 L83.7014615,0.205764706 L83.7014615,66 L0,66"></path>
    </defs>
    <g id="Avatars" stroke="none" stroke-width="1" fill="none" fill-rule="evenodd" sketch:type="MSPage">
        <g id="Avatar/Jaguar" sketch:type="MSArtboardGroup">
            <g id="Background-Circle" sketch:type="MSLayerGroup" fill="#3ACBAC">
                <circle id="Green" sketch:type="MSShapeGroup" cx="55" cy="55" r="55"></circle>
            </g>
            <g id="Page-1" sketch:type="MSLayerGroup" transform="translate(13.000000, 22.000000)">
                <g id="Group-3">
                    <mask id="mask-2" sketch:name="Clip 2" fill="white">
                        <use xlink:href="#path-1"></use>
                    </mask>
                    <g id="Clip-2"></g>
                    <path d="M22.6973538,26.1048118 C29.9053538,26.1048118 35.7847385,20.2877529 35.7847385,13.1545765 C35.7847385,6.02269412 29.9053538,0.205635294 22.6973538,0.205635294 C15.4893538,0.205635294 9.61127692,6.02269412 9.61127692,13.1545765 C9.61127692,20.2877529 15.4893538,26.1048118 22.6973538,26.1048118" id="Fill-1" fill="#F7AD6C" sketch:type="MSShapeGroup" mask="url(#mask-2)"></path>
                </g>
                <path d="M22.6973538,20.1642941 C26.5982,20.1642941 29.7798154,17.0157059 29.7798154,13.1540588 C29.7798154,9.295 26.5982,6.14511765 22.6973538,6.14511765 C18.7965077,6.14511765 15.6148923,9.295 15.6148923,13.1540588 C15.6148923,17.0157059 18.7965077,20.1642941 22.6973538,20.1642941" id="Fill-4" fill="#5A5B5C" sketch:type="MSShapeGroup"></path>
                <g id="Group-8">
                    <mask id="mask-4" sketch:name="Clip 7" fill="white">
                        <use xlink:href="#path-3"></use>
                    </mask>
                    <g id="Clip-7"></g>
                    <path d="M62.3956231,26.1048118 C69.6036231,26.1048118 75.4830077,20.2877529 75.4830077,13.1545765 C75.4830077,6.02269412 69.6036231,0.205635294 62.3956231,0.205635294 C55.1889308,0.205635294 49.3108538,6.02269412 49.3108538,13.1545765 C49.3108538,20.2877529 55.1889308,26.1048118 62.3956231,26.1048118" id="Fill-6" fill="#F7AD6C" sketch:type="MSShapeGroup" mask="url(#mask-4)"></path>
                </g>
                <path d="M62.3956231,20.1642941 C66.3003923,20.1642941 69.4807,17.0157059 69.4807,13.1540588 C69.4807,9.295 66.3003923,6.14511765 62.3956231,6.14511765 C58.4960846,6.14511765 55.3131615,9.295 55.3131615,13.1540588 C55.3131615,17.0157059 58.4960846,20.1642941 62.3956231,20.1642941" id="Fill-9" fill="#2E2E2F" sketch:type="MSShapeGroup"></path>
                <path d="M72.2148231,30.7541882 L72.2174385,30.7632471 L72.2187462,30.7632471 L72.2187462,30.7800706 C72.3390538,31.5863059 72.4253615,32.4003059 72.4802846,33.2259529 L72.4972846,33.3126588 L72.4972846,56.6857176 C65.2709769,61.6939529 54.5335154,64.8684235 42.5445923,64.8684235 C30.5582846,64.8684235 19.8234385,61.6965412 12.5958231,56.6921882 L12.5958231,33.3178353 C12.6559769,32.3485412 12.7645154,31.3908941 12.9227462,30.4487765 L12.9227462,30.4358353 L12.9227462,30.4125412 C13.2091308,28.6538353 13.6537462,26.9481882 14.2369769,25.3072471 L14.2422077,25.2839529 L14.2461308,25.2826588 C18.3627462,13.7481882 29.4755154,5.48265882 42.5445923,5.48265882 C57.5935154,5.48265882 70.0597462,16.4528941 72.2148231,30.7541882" id="Fill-11" fill="#F7AD6C" sketch:type="MSShapeGroup"></path>
                <path d="M58.2362462,62.9429059 C53.4226308,64.1813765 48.1212462,64.8685529 42.5439385,64.8685529 C36.9692462,64.8685529 31.6678615,64.1813765 26.8620923,62.9454941 L26.8620923,56.6974941 C26.8620923,52.7336118 30.1404769,49.4918471 34.1433231,49.4918471 L50.9537077,49.4918471 C54.9539385,49.4918471 58.2362462,52.7349059 58.2362462,56.6974941 L58.2362462,62.9429059 Z" id="Fill-13" fill="#FFFFFF" sketch:type="MSShapeGroup"></path>
                <path d="M72.2148231,30.7541882 L72.2174385,30.7632471 L72.2187462,30.7632471 L72.2187462,30.7800706 C72.3390538,31.5863059 72.4253615,32.4003059 72.4789769,33.2259529 L72.4972846,33.3139529 L72.4972846,56.6857176 C65.2709769,61.6939529 54.5335154,64.8684235 42.5445923,64.8684235 L42.5445923,5.48265882 C57.5935154,5.48265882 70.0597462,16.4528941 72.2148231,30.7541882" id="Fill-15" fill="#F68E2C" sketch:type="MSShapeGroup"></path>
                <path d="M58.2362462,62.9429059 L57.8622462,63.0360824 L57.4202462,63.1447882 L57.0501692,63.2340824 L56.6016308,63.3376118 L56.1661692,63.4359647 L55.7777846,63.5174941 L55.3384,63.6080824 L54.9330154,63.6896118 L54.4766308,63.7789059 L54.1248615,63.8423176 L53.5887077,63.9380824 L53.2343231,63.9976118 L52.6667846,64.0894941 L52.4340154,64.1257294 C52.2195538,64.1580824 52.0050923,64.1904353 51.7906308,64.2202 L51.5892462,64.2499647 C51.3499385,64.2823176 51.1184769,64.3146706 50.8804769,64.3444353 L50.7026308,64.3664353 C50.4750923,64.3949059 50.2488615,64.4220824 50.0213231,64.4479647 L49.7898615,64.4738471 C49.5440154,64.5010235 49.3007846,64.5269059 49.0562462,64.5502 L49.0039385,64.5553765 L48.9385538,64.5618471 C48.6822462,64.5877294 48.4285538,64.6110235 48.1670154,64.6330235 L48.0166308,64.6446706 C47.7564,64.6666706 47.5014,64.6860824 47.2372462,64.7042 L47.1888615,64.7080824 L47.1784,64.7080824 L47.1483231,64.7106706 C46.8724,64.7300824 46.5964769,64.7469059 46.3140154,64.7624353 L46.2355538,64.7676118 C45.6405538,64.8012588 45.0403231,64.8258471 44.4374769,64.8426706 L44.4021692,64.8439647 C44.1000923,64.8517294 43.7993231,64.8582 43.4959385,64.8620824 L43.4710923,64.8620824 C43.1637846,64.8659647 42.8512462,64.8685529 42.5439385,64.8685529 L42.5439385,49.4918471 L50.9537077,49.4918471 C54.9539385,49.4918471 58.2362462,52.7349059 58.2362462,56.6974941 L58.2362462,62.9429059 Z" id="Fill-17" fill="#E3E4E4" sketch:type="MSShapeGroup"></path>
                <path d="M52.4422538,40.5694235 C51.5190231,39.0630706 51.2077923,37.2927176 51.4994077,35.6077765 L57.4572538,35.6077765 L57.4572538,29.7053059 C59.1637923,29.4180118 60.9487923,29.7311882 62.4722538,30.6448353 C64.1748692,33.4246 63.8126385,37.0947176 61.3868692,39.4953059 C58.9637154,41.8971882 55.2511769,42.2543647 52.4422538,40.5694235" id="Fill-19" fill="#2E2E2F" sketch:type="MSShapeGroup"></path>
                <path d="M32.6660231,40.5694235 C34.3712538,37.7896588 34.0090231,34.1195412 31.5806385,31.7176588 C30.4691,30.6189529 29.0894846,29.9486 27.6497154,29.7053059 L27.6497154,35.6077765 L21.6866385,35.6077765 C21.9324846,37.0313059 22.6098692,38.3966 23.7201,39.4953059 C26.1471769,41.8971882 29.8571,42.2543647 32.6660231,40.5694235" id="Fill-21" fill="#2E2E2F" sketch:type="MSShapeGroup"></path>
                <path d="M43.2194923,55.0947294 C43.2351846,55.1516706 43.2430308,55.2124941 43.2430308,55.2759059 L43.2430308,59.3122588 C43.3267231,59.4753176 43.3633385,59.6474353 43.3607231,59.8182588 C44.3689538,60.2246118 47.3674923,60.2673176 47.9703385,60.2673176 C49.9397231,60.2673176 52.3707231,59.9800235 54.0171077,58.8010824 C54.3871846,58.5396706 55.0148769,57.9624941 55.1678769,57.5160235 C55.2934154,57.1575529 55.6948769,56.9647294 56.0531846,57.0876706 C56.4154154,57.2106118 56.6102615,57.6040235 56.4860308,57.9624941 C56.2271077,58.7092 55.4581846,59.4727294 54.8331077,59.9192 C52.9238769,61.2844941 50.2627231,61.6455529 47.9703385,61.6455529 C46.6874923,61.6455529 43.8550308,61.6274353 42.5460308,60.9454353 C41.2383385,61.6274353 38.4032615,61.6455529 37.1230308,61.6455529 C34.8319538,61.6455529 32.1708,61.2844941 30.2602615,59.9192 C29.6338769,59.4727294 28.8662615,58.7092 28.6073385,57.9624941 C28.4857231,57.6040235 28.6779538,57.2106118 29.0401846,57.0876706 C29.4037231,56.9647294 29.7999538,57.1575529 29.9254923,57.5160235 C30.0824154,57.9624941 30.7088,58.5396706 31.0749538,58.8010824 C32.7239538,59.9800235 35.1536462,60.2673176 37.1230308,60.2673176 C37.7258769,60.2673176 40.7244154,60.2246118 41.7352615,59.8182588 C41.7287231,59.6474353 41.7666462,59.4753176 41.8516462,59.3122588 L41.8516462,55.2759059 C41.8516462,55.2124941 41.8581846,55.1516706 41.8738769,55.0947294 L43.2194923,55.0947294 Z" id="Fill-23" fill="#2E2E2F" sketch:type="MSShapeGroup"></path>
                <path d="M35.3529385,49.2510118 L42.5465538,49.2510118 L49.7401692,49.2510118 C51.0020923,52.5406588 45.2338615,54.5141882 43.2200154,55.0952471 L41.8730923,55.0952471 C39.8605538,54.5141882 34.0910154,52.5406588 35.3529385,49.2510118" id="Fill-25" fill="#DF3E52" sketch:type="MSShapeGroup"></path>
                <path d="M55.7358077,55.0138471 C55.3683462,55.0112588 55.0649615,55.3076118 55.0623462,55.6712588 C55.0610385,56.0362 55.3591923,56.3351412 55.7305769,56.3377294 C56.2601923,56.3403176 56.8264231,56.3649059 57.4122692,56.4114941 C60.9260385,56.6884353 65.2074231,57.7418471 67.8018846,59.6545529 C69.3201154,60.7726706 71.7576538,62.8730235 73.0221923,64.7443176 C73.2209615,65.0432588 73.3922692,65.3370235 73.5256538,65.6178471 C73.6825769,65.9478471 74.0801154,66.0927882 74.4188077,65.9374941 C74.7483462,65.7834941 74.8935,65.3887882 74.7365769,65.0587882 C73.6616538,62.7759647 70.5689615,60.0414941 68.5995769,58.5920824 C67.7273462,57.9502 66.6890385,57.3963176 65.5618077,56.9317294 C64.1481923,56.3467882 62.5920385,55.9016118 61.0385,55.5858471 C59.1855,55.2105529 57.3377308,55.0229059 55.7358077,55.0138471 M55.0296538,53.2396118 C54.6635,53.2616118 54.3797308,53.5747882 54.4006538,53.9384353 C54.4228846,54.3020824 54.7380385,54.5816118 55.1055,54.5609059 C55.7671923,54.5246706 56.5230385,54.4987882 57.3429615,54.4871412 C62.2690385,54.4237294 69.5280385,54.9284353 72.9058077,57.0857294 C73.7950385,57.6538471 76.5189615,59.3944353 77.9391154,60.6109059 C78.2738846,60.8982 78.5380385,61.1570235 78.6884231,61.3627882 C78.8871923,61.6707882 79.2978077,61.7536118 79.6077308,61.5569059 C79.9189615,61.3602 80.0078846,60.9486706 79.8130385,60.6419647 C79.0179615,59.4242 74.8032692,56.7233765 73.6315769,55.9740824 C73.4066538,55.8304353 73.1673462,55.6945529 72.9162692,55.5638471 C70.3335769,54.2296118 66.3908846,53.5747882 62.6051154,53.3082 C59.7857308,53.1089059 57.0500385,53.1270235 55.0296538,53.2396118 M54.6831154,51.0137294 C60.2120385,50.0250235 69.4521923,49.3223176 74.7653462,51.2414941 C77.2656538,52.1473765 79.8535769,53.4453765 81.8216538,55.2584353 C82.4323462,55.8213765 83.2823462,56.7337294 83.6406538,57.5024353 C83.7936538,57.8337294 83.6471923,58.2271412 83.3124231,58.3798471 C82.9776538,58.5325529 82.5788077,58.3876118 82.4284231,58.0563176 C82.3565,57.9087882 82.2558077,57.7483176 82.1381154,57.5826706 C81.7837308,57.0870235 81.2580385,56.5499647 80.9101923,56.2264353 C79.0794231,54.5389059 76.6314231,53.3263176 74.2998077,52.4851412 C69.7961154,50.8558471 62.0833462,51.2518471 56.7401154,52.0231412 C56.0967308,52.1176118 55.4873462,52.2159647 54.9224231,52.3169059 C54.5601923,52.3816118 54.2097308,52.1422 54.1443462,51.7837294 C54.0789615,51.4252588 54.3221923,51.0797294 54.6831154,51.0137294 M27.9708846,56.3377294 C28.3422692,56.3351412 28.6378077,56.0362 28.6351923,55.6712588 C28.6338846,55.3076118 28.3318077,55.0112588 27.9643462,55.0138471 C26.7155,55.0203176 25.3162692,55.1367882 23.8830385,55.3645529 C21.6808846,55.7165529 19.3989615,56.3338471 17.4544231,57.2293765 C16.5900385,57.6292588 15.7936538,58.0822 15.1018846,58.5920824 C13.1311923,60.0414941 10.0385,62.7759647 8.96096154,65.0587882 C8.80534615,65.3887882 8.95180769,65.7834941 9.28526923,65.9374941 C9.61873077,66.0927882 10.0188846,65.9478471 10.1784231,65.6178471 C10.3078846,65.3447882 10.4713462,65.0626706 10.6609615,64.7740824 C11.9189615,62.8963176 14.3748077,60.7791412 15.8995769,59.6545529 C18.6561923,57.6240824 23.3089615,56.5629059 26.9260385,56.3700824 C27.2843462,56.3493765 27.6348077,56.3403176 27.9708846,56.3377294 M28.5959615,54.5609059 C28.9608077,54.5816118 29.2785769,54.3020824 29.3034231,53.9384353 C29.3230385,53.5747882 29.0366538,53.2616118 28.6691923,53.2396118 C26.8018077,53.1347882 24.3211154,53.1114941 21.7266538,53.2667882 C17.6780385,53.5074941 13.3574231,54.1791412 10.6348077,55.6440824 C10.4373462,55.7489059 10.2529615,55.8602 10.0698846,55.9740824 C8.89688462,56.7233765 4.68088462,59.4242 3.89103846,60.6419647 C3.69357692,60.9486706 3.78119231,61.3602 4.09634615,61.5569059 C4.40365385,61.7536118 4.81426923,61.6707882 5.01303846,61.3627882 C5.1595,61.1596118 5.41580769,60.9072588 5.74273077,60.6264353 C7.16026923,59.4086706 9.90511538,57.6564353 10.7943462,57.0857294 C14.2950385,54.8507882 21.9568077,54.3887882 26.8789615,54.4962 C27.4975,54.5091412 28.0755,54.5324353 28.5959615,54.5609059 M28.7790385,52.3169059 C28.3108846,52.2340824 27.8152692,52.1525529 27.2948077,52.0736118 C21.9476538,51.2699647 13.9995,50.8209059 9.39903846,52.4851412 C7.09226923,53.3198471 4.6665,54.5169059 2.84226923,56.1811412 C2.46696154,56.5227882 1.92557692,57.0727882 1.55680769,57.5878471 C1.44173077,57.7496118 1.34496154,57.9087882 1.27303846,58.0576118 C1.12003846,58.3876118 0.7225,58.5325529 0.390346154,58.3798471 C0.0529615385,58.2271412 -0.0935,57.8337294 0.0634230769,57.5024353 C0.417807692,56.7337294 1.26911538,55.8213765 1.8785,55.2584353 C3.84526923,53.4453765 6.43842308,52.1473765 8.94526923,51.2414941 C14.2479615,49.3223176 23.4920385,50.0250235 29.0157308,51.0137294 C29.3792692,51.0797294 29.6211923,51.4252588 29.5545,51.7837294 C29.4904231,52.1422 29.1412692,52.3816118 28.7790385,52.3169059" id="Fill-27" fill="#2E2E2F" sketch:type="MSShapeGroup"></path>
                <path d="M15.334,36.7092 C16.1212308,36.7092 16.7567692,37.3394353 16.7567692,38.1159059 C16.7567692,38.8949647 16.1212308,39.5239059 15.334,39.5239059 C14.5493846,39.5239059 13.9112308,38.8949647 13.9112308,38.1159059 C13.9112308,37.3394353 14.5493846,36.7092 15.334,36.7092 M25.7262308,14.4413176 C26.6769231,14.4413176 27.4523846,15.2061412 27.4523846,16.1482588 C27.4523846,17.0916706 26.6769231,17.8577882 25.7262308,17.8577882 C24.7716154,17.8577882 23.9987692,17.0916706 23.9987692,16.1482588 C23.9987692,15.2061412 24.7716154,14.4413176 25.7262308,14.4413176 M39.9696154,10.2173176 C40.4377692,10.2173176 40.8104615,10.5900235 40.8104615,11.0494353 C40.8104615,11.5088471 40.4377692,11.8802588 39.9696154,11.8802588 C39.5053846,11.8802588 39.1300769,11.5088471 39.1300769,11.0494353 C39.1300769,10.5900235 39.5053846,10.2173176 39.9696154,10.2173176 M39.5825385,28.0062588 C40.2599231,28.0062588 40.8104615,28.5497882 40.8104615,29.2227294 C40.8104615,29.8930824 40.2599231,30.4379059 39.5825385,30.4379059 C38.9025385,30.4379059 38.3546154,29.8930824 38.3546154,29.2227294 C38.3546154,28.5497882 38.9025385,28.0062588 39.5825385,28.0062588 M33.6979231,43.1073176 C34.2693846,43.1073176 34.7323077,43.5667294 34.7323077,44.1309647 C34.7323077,44.6964941 34.2693846,45.1559059 33.6979231,45.1559059 C33.1251538,45.1559059 32.6635385,44.6964941 32.6635385,44.1309647 C32.6635385,43.5667294 33.1251538,43.1073176 33.6979231,43.1073176 M26.3905385,43.0477882 C27.3543077,43.0477882 28.1376154,43.8216706 28.1376154,44.7754353 C28.1376154,45.7317882 27.3543077,46.5030824 26.3905385,46.5030824 C25.4267692,46.5030824 24.6460769,45.7317882 24.6460769,44.7754353 C24.6460769,43.8216706 25.4267692,43.0477882 26.3905385,43.0477882 M17.4681538,41.6359059 C18.9706923,41.6359059 20.1842308,42.8394353 20.1842308,44.3237882 C20.1842308,45.8068471 18.9706923,47.0103765 17.4681538,47.0103765 C15.9669231,47.0103765 14.756,45.8068471 14.756,44.3237882 C14.756,42.8394353 15.9669231,41.6359059 17.4681538,41.6359059 M37.8236923,35.4940235 C39.1117692,35.4940235 40.1526923,36.5241412 40.1526923,37.7962588 C40.1526923,39.0683765 39.1117692,40.0997882 37.8236923,40.0997882 C36.5382308,40.0997882 35.496,39.0683765 35.496,37.7962588 C35.496,36.5241412 36.5382308,35.4940235 37.8236923,35.4940235 M19.0190769,27.8147294 C20.0926923,27.8147294 20.9596923,28.6740235 20.9596923,29.7339059 C20.9596923,30.7937882 20.0926923,31.6530824 19.0190769,31.6530824 C17.9480769,31.6530824 17.0797692,30.7937882 17.0797692,29.7339059 C17.0797692,28.6740235 17.9480769,27.8147294 19.0190769,27.8147294 M27.2326923,20.7760235 C28.3416154,20.7760235 29.2360769,21.6637882 29.2360769,22.7612 C29.2360769,23.8547294 28.3416154,24.7424941 27.2326923,24.7424941 C26.1250769,24.7424941 25.2266923,23.8547294 25.2266923,22.7612 C25.2266923,21.6637882 26.1250769,20.7760235 27.2326923,20.7760235 M37.1253846,17.7037882 C38.7678462,17.7037882 40.0977692,19.0224941 40.0977692,20.6479059 C40.0977692,22.2733176 38.7678462,23.5920235 37.1253846,23.5920235 C35.4829231,23.5920235 34.1503846,22.2733176 34.1503846,20.6479059 C34.1503846,19.0224941 35.4829231,17.7037882 37.1253846,17.7037882 M70.0360769,36.7092 C69.2501538,36.7092 68.6133077,37.3394353 68.6133077,38.1159059 C68.6133077,38.8949647 69.2501538,39.5239059 70.0360769,39.5239059 C70.8233077,39.5239059 71.4588462,38.8949647 71.4588462,38.1159059 C71.4588462,37.3394353 70.8233077,36.7092 70.0360769,36.7092 M64.4953846,17.3207294 C63.5420769,17.3207294 62.7692308,18.0842588 62.7692308,19.0289647 C62.7692308,19.9710824 63.5420769,20.7359059 64.4953846,20.7359059 C65.4473846,20.7359059 66.2215385,19.9710824 66.2215385,19.0289647 C66.2215385,18.0842588 65.4473846,17.3207294 64.4953846,17.3207294 M46.1772308,6.89014118 C45.7116923,6.89014118 45.3416154,7.26284706 45.3416154,7.72225882 C45.3416154,8.18167059 45.7116923,8.55437647 46.1772308,8.55437647 C46.6414615,8.55437647 47.0180769,8.18167059 47.0180769,7.72225882 C47.0180769,7.26284706 46.6414615,6.89014118 46.1772308,6.89014118 M47.4692308,35.3646118 C46.7944615,35.3646118 46.2413077,35.9094353 46.2413077,36.5810824 C46.2413077,37.2527294 46.7944615,37.7962588 47.4692308,37.7962588 C48.1492308,37.7962588 48.7023846,37.2527294 48.7023846,36.5810824 C48.7023846,35.9094353 48.1492308,35.3646118 47.4692308,35.3646118 M51.6734615,43.1073176 C51.102,43.1073176 50.6377692,43.5667294 50.6377692,44.1309647 C50.6377692,44.6964941 51.102,45.1559059 51.6734615,45.1559059 C52.2436154,45.1559059 52.7078462,44.6964941 52.7078462,44.1309647 C52.7078462,43.5667294 52.2436154,43.1073176 51.6734615,43.1073176 M58.9795385,42.9675529 C58.0157692,42.9675529 57.2337692,43.7414353 57.2337692,44.6952 C57.2337692,45.6502588 58.0157692,46.4228471 58.9795385,46.4228471 C59.9446154,46.4228471 60.7253077,45.6502588 60.7253077,44.6952 C60.7253077,43.7414353 59.9446154,42.9675529 58.9795385,42.9675529 M67.9019231,41.6359059 C66.4033077,41.6359059 65.1871538,42.8394353 65.1871538,44.3237882 C65.1871538,45.8068471 66.4033077,47.0103765 67.9019231,47.0103765 C69.4057692,47.0103765 70.6166923,45.8068471 70.6166923,44.3237882 C70.6166923,42.8394353 69.4057692,41.6359059 67.9019231,41.6359059 M55.6213846,10.6249647 C54.5438462,10.6249647 53.6781538,11.4842588 53.6781538,12.5441412 C53.6781538,13.6040235 54.5438462,14.4633176 55.6213846,14.4633176 C56.6871538,14.4633176 57.5554615,13.6040235 57.5554615,12.5441412 C57.5554615,11.4842588 56.6871538,10.6249647 55.6213846,10.6249647 M47.6666923,14.0569647 C46.5564615,14.0569647 45.6580769,14.9460235 45.6580769,16.0408471 C45.6580769,17.1369647 46.5564615,18.0247294 47.6666923,18.0247294 C48.7743077,18.0247294 49.6674615,17.1369647 49.6674615,16.0408471 C49.6674615,14.9460235 48.7743077,14.0569647 47.6666923,14.0569647 M49.4739231,21.9277882 C47.8327692,21.9277882 46.4989231,23.2464941 46.4989231,24.8719059 C46.4989231,26.4973176 47.8327692,27.8147294 49.4739231,27.8147294 C51.1176923,27.8147294 52.4489231,26.4973176 52.4489231,24.8719059 C52.4489231,23.2464941 51.1176923,21.9277882 49.4739231,21.9277882 M58.2014615,21.3661412 C57.2743077,21.3661412 56.5223846,22.1089647 56.5223846,23.0252 C56.5223846,23.9414353 57.2743077,24.6829647 58.2014615,24.6829647 C59.126,24.6829647 59.8753077,23.9414353 59.8753077,23.0252 C59.8753077,22.1089647 59.126,21.3661412 58.2014615,21.3661412 M31.8292308,9.55990588 C32.7550769,9.55990588 33.5043846,10.3027294 33.5043846,11.2189647 C33.5043846,12.1352 32.7550769,12.8780235 31.8292308,12.8780235 C30.9033846,12.8780235 30.1501538,12.1352 30.1501538,11.2189647 C30.1501538,10.3027294 30.9033846,9.55990588 31.8292308,9.55990588" id="Fill-29" fill="#803B1B" sketch:type="MSShapeGroup"></path>
            </g>
        </g>
    </g>
</svg>
