<?xml version="1.0" encoding="UTF-8" standalone="no"?>
<!--

    Copyright (C) 2017-2018 Dremio Corporation

    Licensed under the Apache License, Version 2.0 (the "License");
    you may not use this file except in compliance with the License.
    You may obtain a copy of the License at

        http://www.apache.org/licenses/LICENSE-2.0

    Unless required by applicable law or agreed to in writing, software
    distributed under the License is distributed on an "AS IS" BASIS,
    WITHOUT WARRANTIES OR CONDITIONS OF ANY KIND, either express or implied.
    See the License for the specific language governing permissions and
    limitations under the License.

-->
<svg width="110px" height="110px" viewBox="0 0 110 110" version="1.1" xmlns="http://www.w3.org/2000/svg" xmlns:xlink="http://www.w3.org/1999/xlink" xmlns:sketch="http://www.bohemiancoding.com/sketch/ns">
    <!-- Generator: Sketch 3.5.2 (25235) - http://www.bohemiancoding.com/sketch -->
    <title>Avatar/Koala</title>
    <desc>Created with Sketch.</desc>
    <defs>
        <path id="path-1" d="M0,0.30475 L76.8096,0.30475 L76.8096,53 L0,53"></path>
        <path id="path-3" d="M0,0.30475 L76.8096,0.30475 L76.8096,53 L0,53"></path>
        <path id="path-5" d="M0,0.30475 L76.8096,0.30475 L76.8096,53 L0,53 L0,0.30475 Z"></path>
    </defs>
    <g id="Avatars" stroke="none" stroke-width="1" fill="none" fill-rule="evenodd" sketch:type="MSPage">
        <g id="Avatar/Koala" sketch:type="MSArtboardGroup">
            <g id="Background-Circle" sketch:type="MSLayerGroup" fill="#2A394A">
                <circle id="Dark-Blue" sketch:type="MSShapeGroup" cx="55" cy="55" r="55"></circle>
            </g>
            <g id="Page-1" sketch:type="MSLayerGroup" transform="translate(17.000000, 29.000000)">
                <g id="Group-3">
                    <mask id="mask-2" sketch:name="Clip 2" fill="white">
                        <use xlink:href="#path-1"></use>
                    </mask>
                    <g id="Clip-2"></g>
                    <path d="M46.97556,4.3248 C46.97556,4.3248 50.38836,0.305231818 58.43196,0.305231818 C66.48036,0.305231818 73.57716,4.58257273 76.03836,8.86111818 C78.49956,13.1384591 74.28516,15.2584591 74.28516,15.2584591 C74.28516,15.2584591 73.56756,15.8968682 74.64996,17.2568 C75.71916,18.6155273 75.24156,20.3753682 74.56596,21.8148 C73.88676,23.2542318 72.37476,24.1745045 71.25876,24.2142545 C70.14996,24.2540045 70.88196,24.9935955 70.83996,25.7922091 C70.80156,26.5920273 69.68676,28.2314136 67.33596,29.3118909 C64.98516,30.3899591 60.16596,28.5915727 60.16596,28.5915727 C60.16596,28.5915727 43.83516,11.0401409 46.97556,4.3248" id="Fill-1" fill="#A0895F" sketch:type="MSShapeGroup" mask="url(#mask-2)"></path>
                </g>
                <g id="Group-6">
                    <mask id="mask-4" sketch:name="Clip 5" fill="white">
                        <use xlink:href="#path-3"></use>
                    </mask>
                    <g id="Clip-5"></g>
                    <path d="M29.83332,4.3248 C29.83332,4.3248 26.42052,0.305231818 18.37572,0.305231818 C10.32972,0.305231818 3.23172,4.58257273 0.77052,8.86111818 C-1.68828,13.1384591 2.52372,15.2584591 2.52372,15.2584591 C2.52372,15.2584591 3.24012,15.8968682 2.16372,17.2568 C1.08852,18.6155273 1.56612,20.3753682 2.24412,21.8148 C2.92092,23.2542318 4.43412,24.1745045 5.55012,24.2142545 C6.66372,24.2540045 5.92812,24.9935955 5.96772,25.7922091 C6.00852,26.5920273 7.12332,28.2314136 9.47292,29.3118909 C11.82252,30.3899591 16.64292,28.5915727 16.64292,28.5915727 C16.64292,28.5915727 32.97372,11.0401409 29.83332,4.3248" id="Fill-4" fill="#A0895F" sketch:type="MSShapeGroup" mask="url(#mask-4)"></path>
                </g>
                <path d="M56.84868,5.84867045 C62.91828,5.84867045 67.83948,10.7885114 67.83948,16.8823068 C67.83948,22.9773068 62.91828,27.9171477 56.84868,27.9171477 C50.77668,27.9171477 45.85788,22.9773068 45.85788,16.8823068 C45.85788,10.7885114 50.77668,5.84867045 56.84868,5.84867045 M20.98188,5.84867045 C27.05388,5.84867045 31.97508,10.7885114 31.97508,16.8823068 C31.97508,22.9773068 27.05388,27.9171477 20.98188,27.9171477 C14.91108,27.9171477 9.98988,22.9773068 9.98988,16.8823068 C9.98988,10.7885114 14.91108,5.84867045 20.98188,5.84867045" id="Fill-7" fill="#2E2E2F" sketch:type="MSShapeGroup"></path>
                <path d="M38.91552,53 C52.57752,53 63.71952,41.8157955 63.71952,28.10325 C63.71952,14.3895 52.57752,3.20529545 38.91552,3.20529545 C25.25352,3.20529545 14.11152,14.3895 14.11152,28.10325 C14.11152,41.8157955 25.25352,53 38.91552,53" id="Fill-9" fill="#D1BC89" sketch:type="MSShapeGroup"></path>
                <g id="Group-13">
                    <mask id="mask-6" sketch:name="Clip 12" fill="white">
                        <use xlink:href="#path-5"></use>
                    </mask>
                    <g id="Clip-12"></g>
                    <path d="M38.91552,3.20553636 C52.61472,3.20553636 63.71952,14.3524 63.71952,28.1022864 C63.71952,41.8533773 52.61472,53.0002409 38.91552,53.0002409 L38.91552,3.20553636 Z" id="Fill-11" fill="#C9AC79" sketch:type="MSShapeGroup" mask="url(#mask-6)"></path>
                </g>
                <path d="M52.8678,23.6310136 C54.1518,23.6310136 55.1922,24.6765591 55.1922,25.9642182 C55.1922,27.2542864 54.1518,28.2986273 52.8678,28.2986273 C51.5838,28.2986273 50.5434,27.2542864 50.5434,25.9642182 C50.5434,24.6765591 51.5838,23.6310136 52.8678,23.6310136 M24.963,23.6310136 C26.2482,23.6310136 27.2886,24.6765591 27.2886,25.9642182 C27.2886,27.2542864 26.2482,28.2986273 24.963,28.2986273 C23.679,28.2986273 22.6386,27.2542864 22.6386,25.9642182 C22.6386,24.6765591 23.679,23.6310136 24.963,23.6310136" id="Fill-14" fill="#2E2E2F" sketch:type="MSShapeGroup"></path>
                <path d="M38.43036,21.0378682 L39.36036,21.0378682 C42.53676,21.0378682 44.83836,23.6577545 45.13116,26.8305273 L45.95796,35.7333227 C46.15956,37.9111409 44.17476,39.7095273 41.99916,39.7095273 L35.79636,39.7095273 C33.61596,39.7095273 31.63356,37.9111409 31.83516,35.7333227 L32.65956,26.8305273 C32.95716,23.65655 35.25876,21.0378682 38.43036,21.0378682" id="Fill-16" fill="#474749" sketch:type="MSShapeGroup"></path>
                <path d="M42.59868,41.1793136 C42.59868,43.0415409 41.09868,44.5508364 39.24108,44.5508364 C37.38468,44.5508364 35.87988,43.0415409 35.87988,41.1793136 L42.59868,41.1793136 Z" id="Fill-18" fill="#803B1B" sketch:type="MSShapeGroup"></path>
                <path d="M38.91552,39.7100091 L38.91552,21.03835 L39.36072,21.03835 C42.53712,21.03835 44.83872,23.6582364 45.13152,26.8298045 L45.95832,35.7338045 C46.15992,37.9104182 44.17512,39.7100091 41.99832,39.7100091 L38.91552,39.7100091 Z" id="Fill-20" fill="#2E2E2F" sketch:type="MSShapeGroup"></path>
            </g>
        </g>
    </g>
</svg>
