<?xml version="1.0" encoding="UTF-8" standalone="no"?>
<!--

    Copyright (C) 2017-2018 Dremio Corporation

    Licensed under the Apache License, Version 2.0 (the "License");
    you may not use this file except in compliance with the License.
    You may obtain a copy of the License at

        http://www.apache.org/licenses/LICENSE-2.0

    Unless required by applicable law or agreed to in writing, software
    distributed under the License is distributed on an "AS IS" BASIS,
    WITHOUT WARRANTIES OR CONDITIONS OF ANY KIND, either express or implied.
    See the License for the specific language governing permissions and
    limitations under the License.

-->
<svg width="110px" height="110px" viewBox="0 0 110 110" version="1.1" xmlns="http://www.w3.org/2000/svg" xmlns:xlink="http://www.w3.org/1999/xlink" xmlns:sketch="http://www.bohemiancoding.com/sketch/ns">
    <!-- Generator: Sketch 3.5.2 (25235) - http://www.bohemiancoding.com/sketch -->
    <title>Avatar/Lion</title>
    <desc>Created with Sketch.</desc>
    <defs>
        <path id="path-1" d="M0,1.1904 L76.8084,1.1904 L76.8084,78 L0,78"></path>
    </defs>
    <g id="Avatars" stroke="none" stroke-width="1" fill="none" fill-rule="evenodd" sketch:type="MSPage">
        <g id="Avatar/Lion" sketch:type="MSArtboardGroup">
            <g id="Background-Circle" sketch:type="MSLayerGroup" fill="#FFBB57">
                <circle id="Gold" sketch:type="MSShapeGroup" cx="55" cy="55" r="55"></circle>
            </g>
            <g id="Page-1" sketch:type="MSLayerGroup" transform="translate(17.000000, 16.000000)">
                <g id="Group-3">
                    <mask id="mask-2" sketch:name="Clip 2" fill="white">
                        <use xlink:href="#path-1"></use>
                    </mask>
                    <g id="Clip-2"></g>
                    <path d="M29.51364,1.19064 L47.29404,1.19064 C63.52764,1.19064 76.80804,14.47104 76.80804,30.70464 L76.80804,40.30824 C76.80804,61.03824 59.84964,78.00024 39.11604,78.00024 L37.69284,78.00024 C16.96044,78.00024 -0.00036,61.03824 -0.00036,40.30824 L-0.00036,30.70464 C-0.00036,14.47104 13.28124,1.19064 29.51364,1.19064" id="Fill-1" fill="#8E5523" sketch:type="MSShapeGroup" mask="url(#mask-2)"></path>
                </g>
                <path d="M20.69292,34.39284 C27.12252,34.39284 32.36892,29.14764 32.36892,22.71684 C32.36892,16.28604 27.12252,11.04084 20.69292,11.04084 C14.26332,11.04084 9.01812,16.28604 9.01812,22.71684 C9.01812,29.14764 14.26332,34.39284 20.69292,34.39284" id="Fill-4" fill="#DAA990" sketch:type="MSShapeGroup"></path>
                <path d="M20.69292,29.03616 C24.17292,29.03616 27.01332,26.19816 27.01332,22.71696 C27.01332,19.23576 24.17292,16.39656 20.69292,16.39656 C17.21172,16.39656 14.37252,19.23576 14.37252,22.71696 C14.37252,26.19816 17.21172,29.03616 20.69292,29.03616" id="Fill-6" fill="#5A5B5C" sketch:type="MSShapeGroup"></path>
                <path d="M56.11524,34.39284 C62.54484,34.39284 67.79004,29.14764 67.79004,22.71684 C67.79004,16.28604 62.54484,11.04084 56.11524,11.04084 C49.68444,11.04084 44.43924,16.28604 44.43924,22.71684 C44.43924,29.14764 49.68444,34.39284 56.11524,34.39284" id="Fill-8" fill="#DAA990" sketch:type="MSShapeGroup"></path>
                <path d="M56.11524,29.03616 C59.60004,29.03616 62.43444,26.19816 62.43444,22.71696 C62.43444,19.23576 59.60004,16.39656 56.11524,16.39656 C52.63404,16.39656 49.79964,19.23576 49.79964,22.71696 C49.79964,26.19816 52.63404,29.03616 56.11524,29.03616" id="Fill-10" fill="#2E2E2F" sketch:type="MSShapeGroup"></path>
                <path d="M64.8762,38.58456 L64.8786,38.59296 L64.8786,38.60856 C64.9866,39.33336 65.0634,40.06896 65.1126,40.81296 L65.127,40.89096 L65.127,61.96536 C58.6818,66.48096 49.101,69.34296 38.3994,69.34296 C27.7074,69.34296 18.1266,66.48336 11.6802,61.97136 L11.6802,40.89696 C11.7342,40.02216 11.8302,39.15936 11.967,38.30856 L11.967,38.29656 L11.9718,38.27616 C12.2274,36.69096 12.6222,35.15256 13.1442,33.67296 L13.1502,33.65376 L13.1514,33.65136 C16.8258,23.25216 26.7414,15.79896 38.3994,15.79896 C51.831,15.79896 62.9502,25.69056 64.8762,38.58456" id="Fill-12" fill="#DAA990" sketch:type="MSShapeGroup"></path>
                <path d="M52.4004,67.60788 C48.1092,68.72388 43.3752,69.34308 38.4,69.34308 C33.4272,69.34308 28.7004,68.72388 24.4092,67.60908 L24.4092,61.97628 C24.4092,58.40268 27.3324,55.47948 30.9084,55.47948 L45.9012,55.47948 C49.4748,55.47948 52.4004,58.40268 52.4004,61.97628 L52.4004,67.60788 Z" id="Fill-14" fill="#FFFFFF" sketch:type="MSShapeGroup"></path>
                <path d="M64.8762,38.58456 L64.8786,38.59296 L64.8786,38.60856 C64.9866,39.33336 65.0634,40.06896 65.1126,40.81296 L65.127,40.89216 L65.127,61.96536 C58.6818,66.48096 49.101,69.34296 38.3994,69.34296 L38.3994,15.79896 C51.831,15.79896 62.9502,25.69056 64.8762,38.58456" id="Fill-16" fill="#D19477" sketch:type="MSShapeGroup"></path>
                <path d="M52.4004,67.60788 L52.0704,67.69188 L51.6756,67.78908 L51.3492,67.86828 L50.9508,67.96188 L50.5584,68.05068 L50.2092,68.12508 L49.818,68.20668 L49.4568,68.27988 L49.044,68.35908 L48.7356,68.41788 L48.2568,68.50308 L47.9388,68.55708 L47.4336,68.64108 L47.226,68.67348 C47.0352,68.70228 46.8444,68.73108 46.6584,68.75868 L46.4712,68.78508 C46.26,68.81388 46.05,68.84388 45.8352,68.87028 L45.6816,68.89068 C45.4788,68.91588 45.276,68.93988 45.072,68.96388 L44.8656,68.98668 C44.6508,69.01068 44.4288,69.03468 44.2116,69.05628 L44.1672,69.06108 L44.1084,69.06588 C43.878,69.08868 43.65,69.11028 43.4196,69.12948 L43.2828,69.14148 C43.0584,69.15948 42.822,69.17868 42.5892,69.19548 L42.5508,69.19908 L42.5352,69.19908 L42.5112,69.20028 C42.264,69.21708 42.0156,69.23268 41.7648,69.24828 L41.7,69.25188 C41.1648,69.28188 40.6296,69.30348 40.092,69.31908 L40.0596,69.32028 C39.7908,69.32748 39.522,69.33348 39.2508,69.33708 L39.2256,69.33708 C38.952,69.34068 38.676,69.34308 38.4,69.34308 L38.4,55.47948 L45.9012,55.47948 C49.4748,55.47948 52.4004,58.40268 52.4004,61.97628 L52.4004,67.60788 Z" id="Fill-18" fill="#E3E4E4" sketch:type="MSShapeGroup"></path>
                <path d="M47.23356,47.43456 C46.41036,46.07496 46.12836,44.48016 46.38636,42.95976 L51.70836,42.95976 L51.70836,37.63896 C53.22876,37.37976 54.82356,37.66176 56.18316,38.48496 C57.70236,40.99176 57.37836,44.30136 55.21356,46.46616 C53.05116,48.63096 49.74036,48.95376 47.23356,47.43456" id="Fill-20" fill="#2E2E2F" sketch:type="MSShapeGroup"></path>
                <path d="M29.58636,47.43456 C31.10796,44.92776 30.78396,41.61816 28.61796,39.45336 C27.62676,38.46216 26.40036,37.85856 25.11156,37.63896 L25.11156,42.95976 L19.79196,42.95976 C20.01036,44.24376 20.61396,45.47496 21.60876,46.46616 C23.77116,48.63096 27.08076,48.95376 29.58636,47.43456" id="Fill-22" fill="#5A5B5C" sketch:type="MSShapeGroup"></path>
                <path d="M39.00468,60.53028 C39.01788,60.58308 39.02508,60.63708 39.02508,60.69348 L39.02508,64.33308 C39.10068,64.47948 39.13188,64.63548 39.12708,64.78908 C40.02948,65.15628 42.70788,65.19468 43.24308,65.19468 C44.99988,65.19468 47.16948,64.93548 48.63828,63.87348 C48.96708,63.63588 49.52748,63.11628 49.66548,62.71308 C49.77708,62.39028 50.13108,62.21628 50.45748,62.32788 C50.77788,62.43828 50.95188,62.79348 50.84148,63.11628 C50.61108,63.78948 49.92588,64.47708 49.36788,64.88028 C47.66388,66.11148 45.28788,66.43788 43.24308,66.43788 C42.10068,66.43788 39.57108,66.42108 38.40468,65.80548 C37.23588,66.42108 34.70748,66.43788 33.56628,66.43788 C31.52028,66.43788 29.14908,66.11148 27.44028,64.88028 C26.88228,64.47708 26.19708,63.78948 25.96668,63.11628 C25.85748,62.79348 26.02788,62.43828 26.35668,62.32788 C26.67708,62.21628 27.03108,62.39028 27.14148,62.71308 C27.27948,63.11628 27.84108,63.63588 28.16868,63.87348 C29.63868,64.93548 31.80828,65.19468 33.56628,65.19468 C34.10748,65.19468 36.77748,65.15628 37.67868,64.78908 C37.67508,64.63548 37.70748,64.47948 37.78188,64.33308 L37.78188,60.69348 C37.78188,60.63708 37.78908,60.58308 37.80468,60.53028 L39.00468,60.53028 Z" id="Fill-24" fill="#2E2E2F" sketch:type="MSShapeGroup"></path>
                <path d="M31.98516,55.26156 L38.40516,55.26156 L44.82276,55.26156 C45.94956,58.22796 40.80156,60.00756 39.00516,60.53076 L37.80516,60.53076 C36.00876,60.00756 30.86076,58.22796 31.98516,55.26156" id="Fill-26" fill="#DF3E52" sketch:type="MSShapeGroup"></path>
                <path d="M50.1726,60.45768 C49.8438,60.45528 49.5738,60.72288 49.5726,61.05048 C49.5702,61.37928 49.8366,61.64928 50.1654,61.65048 C50.6406,61.65408 51.1458,61.67688 51.669,61.71888 C54.807,61.96848 58.6206,62.91768 60.939,64.64088 C62.2938,65.65008 64.4682,67.54368 65.5938,69.23088 C65.7738,69.49968 65.9262,69.76488 66.0486,70.01928 C66.1842,70.31688 66.5406,70.44648 66.8382,70.30848 C67.137,70.16808 67.2666,69.81168 67.1262,69.51408 C66.1662,67.45608 63.4074,64.99008 61.6518,63.68328 C60.8718,63.10488 59.9502,62.60688 58.9398,62.18568 C57.6786,61.66008 56.2902,61.25808 54.9042,60.97368 C53.2518,60.63528 51.6018,60.46608 50.1726,60.45768 M49.5438,58.85808 C49.215,58.87728 48.9618,59.15928 48.981,59.48688 C49.0002,59.81568 49.2822,60.06888 49.611,60.04968 C50.2026,60.01608 50.8746,59.99208 51.6078,59.98248 C56.007,59.92608 62.4786,60.38088 65.493,62.32608 C66.2862,62.83848 68.715,64.40688 69.9846,65.50488 C70.2834,65.76288 70.5174,65.99568 70.6518,66.18288 C70.8294,66.45888 71.1978,66.53448 71.4726,66.35808 C71.7486,66.17928 71.8302,65.80848 71.6526,65.53248 C70.9494,64.43448 67.1862,61.99848 66.1398,61.32408 C65.9394,61.19448 65.7258,61.07208 65.5002,60.95448 C63.201,59.75088 59.6802,59.15928 56.307,58.91928 C53.7846,58.74048 51.345,58.75608 49.5438,58.85808 M49.2342,56.85168 C54.1662,55.96008 62.4102,55.32648 67.1502,57.05688 C69.3822,57.87288 71.6922,59.04288 73.4502,60.67968 C73.9926,61.18608 74.751,62.00808 75.069,62.70048 C75.207,62.99928 75.0762,63.35448 74.7786,63.49248 C74.4798,63.63048 74.1246,63.49968 73.9866,63.20088 C73.9254,63.06888 73.8366,62.92368 73.731,62.77488 C73.413,62.32728 72.9486,61.84248 72.6342,61.55208 C71.001,60.02928 68.8158,58.93608 66.7374,58.17768 C62.7174,56.70768 55.8366,57.06528 51.069,57.76128 C50.4978,57.84648 49.9518,57.93408 49.4502,58.02648 C49.1226,58.08408 48.8106,57.86808 48.7578,57.54408 C48.6942,57.22128 48.9102,56.91048 49.2342,56.85168 M25.401,61.65048 C25.7286,61.64928 25.995,61.37928 25.9926,61.05048 C25.9914,60.72288 25.7214,60.45528 25.3926,60.45768 C24.279,60.46368 23.031,60.56808 21.7518,60.77448 C19.7874,61.09128 17.751,61.64688 16.0158,62.45568 C15.2502,62.81448 14.5326,63.22368 13.9134,63.68328 C12.1578,64.99008 9.3966,67.45608 8.439,69.51408 C8.301,69.81168 8.4282,70.16808 8.7258,70.30848 C9.0246,70.44648 9.381,70.31688 9.519,70.01928 C9.6342,69.77328 9.7818,69.51768 9.9522,69.25848 C11.0742,67.56408 13.2642,65.65488 14.6262,64.64088 C17.0874,62.81088 21.2382,61.85448 24.4662,61.68048 C24.7866,61.66248 25.101,61.65288 25.401,61.65048 M25.9578,60.04968 C26.283,60.06888 26.565,59.81568 26.5842,59.48688 C26.607,59.15928 26.3502,58.87728 26.0214,58.85808 C24.357,58.76328 22.143,58.74288 19.827,58.88328 C16.215,59.09928 12.357,59.70528 9.9306,61.02528 C9.7578,61.12128 9.585,61.21968 9.4254,61.32408 C8.379,61.99848 4.6182,64.43448 3.9126,65.53248 C3.735,65.80848 3.8154,66.17928 4.0926,66.35808 C4.3686,66.53448 4.7358,66.45888 4.9134,66.18288 C5.0502,65.99928 5.2734,65.77128 5.565,65.51808 C6.831,64.42008 9.2754,62.83968 10.0722,62.32608 C13.1946,60.31008 20.0334,59.89368 24.423,59.99088 C24.9762,60.00288 25.4922,60.02328 25.9578,60.04968 M26.1186,58.02648 C25.707,57.95088 25.2594,57.87768 24.795,57.80688 C20.019,57.08208 12.9318,56.67768 8.8278,58.17768 C6.765,58.93128 4.6074,60.01008 2.9754,61.51008 C2.643,61.81848 2.1582,62.31408 1.8318,62.77968 C1.7286,62.92488 1.641,63.06768 1.5786,63.20088 C1.4406,63.49968 1.0854,63.63048 0.7866,63.49248 C0.489,63.35448 0.357,62.99928 0.501,62.70048 C0.8142,62.00808 1.5726,61.18608 2.1174,60.67968 C3.873,59.04288 6.183,57.87288 8.4174,57.05688 C13.1562,55.32648 21.4002,55.96008 26.331,56.85168 C26.6562,56.91048 26.871,57.22128 26.8122,57.54408 C26.757,57.86808 26.4426,58.08408 26.1186,58.02648" id="Fill-28" fill="#2E2E2F" sketch:type="MSShapeGroup"></path>
            </g>
        </g>
    </g>
</svg>
