<?xml version="1.0" encoding="UTF-8" standalone="no"?>
<!--

    Copyright (C) 2017-2018 Dremio Corporation

    Licensed under the Apache License, Version 2.0 (the "License");
    you may not use this file except in compliance with the License.
    You may obtain a copy of the License at

        http://www.apache.org/licenses/LICENSE-2.0

    Unless required by applicable law or agreed to in writing, software
    distributed under the License is distributed on an "AS IS" BASIS,
    WITHOUT WARRANTIES OR CONDITIONS OF ANY KIND, either express or implied.
    See the License for the specific language governing permissions and
    limitations under the License.

-->
<svg width="110px" height="110px" viewBox="0 0 110 110" version="1.1" xmlns="http://www.w3.org/2000/svg" xmlns:xlink="http://www.w3.org/1999/xlink" xmlns:sketch="http://www.bohemiancoding.com/sketch/ns">
    <!-- Generator: Sketch 3.5.2 (25235) - http://www.bohemiancoding.com/sketch -->
    <title>Avatar/Llama</title>
    <desc>Created with Sketch.</desc>
    <defs>
        <path id="path-1" d="M0,1.09883077 L67.3726452,1.09883077 L67.3726452,72 L0,72 L0,1.09883077 Z"></path>
        <path id="path-3" d="M0,1.09883077 L67.3726452,1.09883077 L67.3726452,72 L0,72 L0,1.09883077 Z"></path>
    </defs>
    <g id="Avatars" stroke="none" stroke-width="1" fill="none" fill-rule="evenodd" sketch:type="MSPage">
        <g id="Avatar/Llama" sketch:type="MSArtboardGroup">
            <g id="Background-Circle" sketch:type="MSLayerGroup" fill="#3ACBAC">
                <circle id="Green" sketch:type="MSShapeGroup" cx="55" cy="55" r="55"></circle>
            </g>
            <g id="Page-1" sketch:type="MSLayerGroup" transform="translate(21.000000, 20.000000)">
                <g id="Group-3">
                    <mask id="mask-2" sketch:name="Clip 2" fill="white">
                        <use xlink:href="#path-1"></use>
                    </mask>
                    <g id="Clip-2"></g>
                    <path d="M39.7515935,3.90018462 L39.8678516,3.92344615 L39.8864968,3.83704615 C40.181529,2.68172308 41.3090129,1.99716923 42.4057871,2.30621538 C43.4279806,2.59421538 44.0652065,3.64430769 43.9050774,4.71876923 C44.4019161,3.76504615 45.5118516,3.33636923 46.4901742,3.75950769 C47.5408839,4.21366154 48.0421097,5.47753846 47.6088839,6.58190769 C47.5869484,6.64172308 47.5617226,6.69932308 47.5375935,6.75581538 L47.6374,6.8112 C47.6626258,6.7536 47.6900452,6.696 47.7218516,6.63950769 C48.2888839,5.60603077 49.5490774,5.25046154 50.5295935,5.84750769 C51.4454,6.40356923 51.7996581,7.58990769 51.3861742,8.58572308 C52.101271,7.80036923 53.2770129,7.68849231 54.1182387,8.36307692 C55.0208839,9.08750769 55.1941742,10.4466462 54.5043032,11.3959385 C54.4384968,11.4912 54.3606258,11.5776 54.2816581,11.6562462 L54.3814645,11.7515077 C54.4461742,11.6562462 54.5174645,11.5665231 54.5986258,11.4812308 C55.4025613,10.6371692 56.7033355,10.6360615 57.5050774,11.4812308 C58.2530774,12.2676923 58.3046258,13.5094154 57.6619161,14.3601231 C58.5437226,13.7963077 59.7074,14.0089846 60.3534,14.8884923 C61.0465613,15.8344615 60.8820452,17.1936 59.9815935,17.9246769 C59.8510774,18.0310154 59.7106903,18.1174154 59.5648194,18.1872 L59.6591419,18.3400615 C59.7764968,18.2237538 59.9070129,18.1196308 60.0506903,18.0321231 C61.0334,17.4350769 62.2924968,17.7895385 62.859529,18.8241231 C63.3881742,19.7878154 63.1326258,21.0007385 62.301271,21.6465231 C63.2927548,21.3419077 64.3643032,21.8625231 64.7712065,22.8904615 C65.2088194,23.9926154 64.7141742,25.2609231 63.6689484,25.7217231 C63.4759161,25.8048 63.2784968,25.8557538 63.083271,25.8768 L63.1501742,26.0983385 C63.3179806,25.9875692 63.5044323,25.9011692 63.7073355,25.8446769 C64.8041097,25.5356308 65.9304968,26.2190769 66.2288194,27.3744 C66.5030129,28.4477538 65.9546258,29.5510154 64.9938516,29.9475692 C66.0237226,29.9243077 66.9307548,30.7196308 67.0722387,31.8228923 C67.2246903,33.0070154 66.4339161,34.0958769 65.3086258,34.2564923 C65.0783032,34.2886154 64.8567548,34.2786462 64.6363032,34.2343385 L64.6516581,34.5012923 C64.8600452,34.4259692 65.0859806,34.3849846 65.3174,34.3849846 C66.4569484,34.3860923 67.3727548,35.3542154 67.3727548,36.5494154 C67.3727548,37.6615385 66.5754,38.5776 65.5488194,38.6994462 C66.5523677,38.9575385 67.2345613,39.9732923 67.0974645,41.0776615 C66.9515935,42.2617846 65.9206258,43.0992 64.7953355,42.9474462 C64.5726903,42.9175385 64.3632065,42.8499692 64.1723677,42.7536 L64.1274,43.0039385 C64.3390774,42.9917538 64.5551419,43.0139077 64.7712065,43.0748308 C65.8679806,43.3838769 66.5194645,44.5702154 66.2288194,45.7244308 C65.9546258,46.7988923 64.9565613,47.4668308 63.9343677,47.3051077 C64.8381097,47.8279385 65.2472065,48.9943385 64.8446903,50.0222769 C64.4136581,51.1277538 63.2126903,51.6561231 62.1619806,51.2030769 C61.9864968,51.1266462 61.8263677,51.0269538 61.6826903,50.9106462 L61.5971419,51.0989538 C61.7726258,51.1465846 61.9437226,51.2196923 62.1071419,51.3193846 C63.0898516,51.9164308 63.4287548,53.2390154 62.859529,54.2758154 C62.3319806,55.2372923 61.2055935,55.6116923 60.2579806,55.1774769 C61.0037871,55.9296 61.111271,57.1657846 60.4707548,58.0508308 C59.7841742,59.0001231 58.4910774,59.184 57.5906258,58.4584615 C57.4754645,58.3687385 57.3734645,58.2668308 57.283529,58.1582769 L57.1859161,58.2823385 C57.2999806,58.3598769 57.4085613,58.4529231 57.5050774,58.5570462 C58.3090129,59.4022154 58.3090129,60.7713231 57.5050774,61.6164923 C56.759271,62.4029538 55.5813355,62.4572308 54.7719161,61.7804308 C55.3082387,62.7097846 55.1064323,63.9337846 54.2684968,64.6139077 C53.3702387,65.3427692 52.0782387,65.1688615 51.3850774,64.2228923 C51.3324323,64.1497846 51.2841742,64.0744615 51.2403032,63.9969231 L51.1415935,64.0711385 C51.1942387,64.1420308 51.2403032,64.2162462 51.2841742,64.2948923 C51.8490129,65.3305846 51.5144968,66.6531692 50.5295935,67.2502154 C49.6148839,67.8062769 48.4610774,67.5382154 47.8490774,66.6653538 C48.1364323,67.7076923 47.6406903,68.8353231 46.6689484,69.2628923 C45.6182387,69.7225846 44.4128839,69.2030769 43.9763677,68.1009231 C43.9599161,68.0588308 43.9445613,68.0178462 43.9314,67.9757538 L43.8239161,68.0167385 C43.8370774,68.0577231 43.8491419,68.0998154 43.8601097,68.1430154 C44.1551419,69.2961231 43.5025613,70.4835692 42.4057871,70.7915077 C41.3846903,71.0795077 40.337271,70.5068308 39.9599806,69.4955077 C39.9808194,70.5821538 39.2251419,71.5358769 38.1777226,71.6832 C37.0524323,71.8427077 36.0214645,71.0119385 35.8657226,69.8289231 L35.8580452,69.7536 L35.747271,69.7624615 L35.747271,69.8366769 C35.747271,71.0318769 34.8226903,72 33.6908194,72 C32.6291419,72 31.7583032,71.1603692 31.6431419,70.0792615 C31.3985613,71.1348923 30.4334,71.8515692 29.3837871,71.7097846 C28.2584968,71.5569231 27.4622387,70.4724923 27.6135935,69.2872615 L27.6201742,69.1986462 L27.5050129,69.1742769 L27.485271,69.2617846 C27.1924323,70.416 26.0649484,71.1016615 24.9681742,70.7915077 C23.9470774,70.5035077 23.3120452,69.4545231 23.4666903,68.3800615 C22.9709484,69.3337846 21.8621097,69.7635692 20.8837871,69.3404308 C19.8341742,68.8862769 19.3329484,67.6212923 19.7628839,66.5158154 C19.7870129,66.4571077 19.8122387,66.3995077 19.8440452,66.3430154 L19.7365613,66.2876308 C19.7113355,66.3452308 19.6817226,66.4017231 19.6521097,66.4582154 C19.0839806,67.4939077 17.8270774,67.8483692 16.843271,67.2502154 C15.9285613,66.6941538 15.5732065,65.5100308 15.9866903,64.5131077 C15.2748839,65.2984615 14.0947548,65.4103385 13.2557226,64.7346462 C12.3530774,64.0102154 12.1786903,62.6521846 12.8674645,61.7028923 C12.9365613,61.6076308 13.0111419,61.5212308 13.0901097,61.4414769 L12.9924968,61.3473231 C12.9277871,61.4414769 12.8554,61.5323077 12.7742387,61.6164923 C11.9714,62.4616615 10.669529,62.4616615 9.86669032,61.6164923 C9.11869032,60.8300308 9.06714194,59.5883077 9.71204516,58.7387077 C8.83133548,59.3025231 7.66546452,59.0909538 7.01946452,58.2103385 C6.32520645,57.2643692 6.4930129,55.9052308 7.39127097,55.1752615 C7.5217871,55.0678154 7.66217419,54.9814154 7.80804516,54.9116308 L7.71372258,54.7587692 C7.59856129,54.8750769 7.46694839,54.9792 7.32327097,55.0667077 C6.33836774,55.6637538 5.08365806,55.3104 4.51333548,54.2758154 C3.98688387,53.3110154 4.24133548,52.0969846 5.07269032,51.4523077 C4.08120645,51.7580308 3.00856129,51.2352 2.60056129,50.2083692 C2.16404516,49.1062154 2.66198065,47.8390154 3.71159355,47.3782154 C3.89804516,47.2940308 4.09327097,47.2419692 4.29069032,47.2220308 L4.22269032,47.0004923 C4.05488387,47.1112615 3.86843226,47.1976615 3.66662581,47.2541538 C2.57094839,47.5643077 1.44127097,46.8786462 1.15281935,45.7244308 C0.878625806,44.6510769 1.42043226,43.5478154 2.3877871,43.1512615 C1.34914194,43.1745231 0.442109677,42.3792 0.301722581,41.2759385 C0.150367742,40.0918154 0.938948387,39.0018462 2.06752903,38.8423385 C2.29565806,38.8102154 2.5237871,38.8190769 2.73765806,38.8644923 L2.72010968,38.5975385 C2.51281935,38.6717538 2.28907742,38.7127385 2.05656129,38.7127385 C0.924690323,38.7127385 0.000109677419,37.7446154 0.00120645161,36.5494154 C0.00120645161,35.4372923 0.797464516,34.5212308 1.82294839,34.3993846 C0.820496774,34.1401846 0.141593548,33.1244308 0.276496774,32.0211692 C0.422367742,30.8370462 1.45223871,29.9996308 2.57752903,30.1513846 C2.80017419,30.1812923 3.00965806,30.2488615 3.20269032,30.3452308 L3.24656129,30.0948923 C3.03488387,30.1070769 2.81662581,30.0849231 2.60165806,30.024 C1.50598065,29.7138462 0.854496774,28.5286154 1.15281935,27.3744 C1.4270129,26.2999385 2.41849677,25.632 3.43849677,25.7937231 C2.53365806,25.272 2.12565806,24.1044923 2.52817419,23.0765538 C2.96030323,21.9710769 4.16127097,21.4427077 5.21198065,21.8968615 C5.38746452,21.9721846 5.54759355,22.0707692 5.68907742,22.1870769 L5.77462581,21.9998769 C5.60133548,21.9511385 5.42914194,21.8791385 5.26681935,21.7794462 C4.28410968,21.1824 3.94630323,19.8587077 4.51333548,18.8241231 C5.04198065,17.8615385 6.16836774,17.4871385 7.1137871,17.9213538 C6.37017419,17.1692308 6.26159355,15.9319385 6.90430323,15.048 C7.59746452,14.0976 8.88288387,13.9148308 9.7910129,14.6392615 C9.89849677,14.7300923 9.9994,14.8308923 10.0893355,14.9394462 L10.1858516,14.8164923 C10.0728839,14.7378462 9.96649677,14.6459077 9.86669032,14.5417846 C9.06494839,13.6966154 9.06385161,12.3264 9.86669032,11.4812308 C10.6146903,10.6958769 11.7937226,10.6404923 12.6009484,11.3184 C12.0657226,10.3890462 12.2664323,9.16504615 13.103271,8.48492308 C14.0026258,7.75606154 15.2946258,7.92996923 15.9888839,8.87593846 C16.0426258,8.94904615 16.0897871,9.02436923 16.1336581,9.1008 L16.2345613,9.02658462 C16.1819161,8.9568 16.1347548,8.88258462 16.0908839,8.80283077 C15.5238516,7.76935385 15.8605613,6.44566154 16.843271,5.84750769 C17.7579806,5.29255385 18.9106903,5.56061538 19.5248839,6.43458462 C19.2364323,5.39113846 19.7310774,4.26350769 20.7126903,3.83593846 C21.7557226,3.37624615 22.9588839,3.89686154 23.3964968,4.99790769 C23.4140452,5.03889231 23.4283032,5.08098462 23.4414645,5.12307692 L23.5500452,5.08209231 C23.5357871,5.04110769 23.5248194,4.99901538 23.5138516,4.95692308 C23.2264968,3.80270769 23.8714,2.61526154 24.9681742,2.30621538 C25.9881742,2.01932308 27.0355935,2.592 27.4128839,3.60221538 C27.3909484,2.51667692 28.1477226,1.56295385 29.1951419,1.41563077 C30.3193355,1.25612308 31.3601742,2.08689231 31.5060452,3.27101538 L31.5148194,3.34523077 L31.6343677,3.33636923 L31.6343677,3.26215385 C31.6343677,2.06695385 32.551271,1.09883077 33.6908194,1.09883077 C34.7437226,1.09883077 35.6156581,1.93846154 35.7286258,3.01956923 C35.9764968,1.96283077 36.9405613,1.24726154 37.9890774,1.38904615 C39.1154645,1.54190769 39.9106258,2.62633846 39.7680452,3.81046154 L39.7515935,3.90018462 Z" id="Fill-1" fill="#8A5033" sketch:type="MSShapeGroup" mask="url(#mask-2)"></path>
                </g>
                <g id="Group-6">
                    <mask id="mask-4" sketch:name="Clip 5" fill="white">
                        <use xlink:href="#path-3"></use>
                    </mask>
                    <g id="Clip-5"></g>
                    <path d="M39.7515935,3.90018462 L39.8678516,3.92344615 L39.8875935,3.83704615 C40.1826258,2.68283077 41.3090129,1.99716923 42.4057871,2.30621538 C43.4279806,2.59421538 44.0652065,3.64430769 43.9061742,4.71987692 C44.4019161,3.76393846 45.5118516,3.33636923 46.4901742,3.75950769 C47.5408839,4.21366154 48.0421097,5.47753846 47.6088839,6.58190769 C47.5869484,6.64172308 47.5617226,6.70043077 47.5375935,6.75581538 L47.6374,6.8112 C47.6626258,6.7536 47.6900452,6.696 47.7207548,6.63950769 C48.2888839,5.60603077 49.5490774,5.25046154 50.5284968,5.84750769 C51.4443032,6.40356923 51.7996581,7.58990769 51.3861742,8.58572308 C52.101271,7.80036923 53.2770129,7.68849231 54.1182387,8.36307692 C55.0208839,9.08750769 55.1941742,10.4466462 54.5043032,11.3959385 C54.4384968,11.4912 54.3606258,11.5776 54.2816581,11.6573538 L54.3814645,11.7515077 C54.4461742,11.6573538 54.5185613,11.5665231 54.5986258,11.4812308 C55.4025613,10.6360615 56.7033355,10.6360615 57.5050774,11.4812308 C58.2530774,12.2676923 58.3046258,13.5094154 57.6608194,14.3601231 C58.5437226,13.7963077 59.7074,14.0078769 60.3534,14.8884923 C61.0465613,15.8344615 60.8820452,17.1936 59.9815935,17.9246769 C59.8510774,18.0310154 59.7106903,18.1174154 59.5648194,18.1872 L59.6591419,18.3400615 C59.7764968,18.2237538 59.9070129,18.1196308 60.0506903,18.0321231 C61.0334,17.4350769 62.2924968,17.7895385 62.859529,18.8241231 C63.3881742,19.7878154 63.1326258,21.0018462 62.3023677,21.6465231 C63.2916581,21.3419077 64.3643032,21.8625231 64.7712065,22.8904615 C65.2088194,23.9926154 64.715271,25.2598154 63.6689484,25.7206154 C63.4759161,25.8048 63.2784968,25.8557538 63.083271,25.8768 L63.1501742,26.0983385 C63.3190774,25.9875692 63.505529,25.9011692 63.7073355,25.8446769 C64.8041097,25.5345231 65.9304968,26.2190769 66.2288194,27.3732923 C66.5030129,28.4477538 65.9546258,29.5510154 64.9938516,29.9475692 C66.0237226,29.9243077 66.9307548,30.7196308 67.0722387,31.8228923 C67.2246903,33.0070154 66.4339161,34.0958769 65.3086258,34.2564923 C65.0783032,34.2886154 64.8567548,34.2786462 64.6374,34.2343385 L64.6516581,34.5012923 C64.8600452,34.4259692 65.0859806,34.3849846 65.3174,34.3849846 C66.4569484,34.3860923 67.3727548,35.3542154 67.3727548,36.5494154 C67.3727548,37.6615385 66.5754,38.5776 65.5488194,38.6994462 C66.5523677,38.9575385 67.2345613,39.9732923 67.0974645,41.0776615 C66.9515935,42.2617846 65.9206258,43.0992 64.7953355,42.9474462 C64.5726903,42.9164308 64.3632065,42.8499692 64.1723677,42.7536 L64.1274,43.0039385 C64.3390774,42.9917538 64.5551419,43.0139077 64.7712065,43.0748308 C65.8679806,43.3838769 66.5194645,44.5702154 66.2288194,45.7244308 C65.9546258,46.7988923 64.9554645,47.4668308 63.9343677,47.3051077 C64.8381097,47.8279385 65.2472065,48.9943385 64.8446903,50.0222769 C64.4136581,51.1277538 63.2126903,51.6561231 62.1619806,51.2030769 C61.9864968,51.1266462 61.8263677,51.0269538 61.6826903,50.9106462 L61.5971419,51.0989538 C61.7726258,51.1465846 61.9437226,51.2196923 62.1082387,51.3193846 C63.0898516,51.9164308 63.4276581,53.2390154 62.859529,54.2758154 C62.3319806,55.2372923 61.2055935,55.6116923 60.2579806,55.1774769 C61.0037871,55.9296 61.111271,57.1657846 60.4707548,58.0508308 C59.7841742,59.0012308 58.4899806,59.184 57.5906258,58.4584615 C57.4754645,58.3687385 57.3734645,58.2668308 57.2824323,58.1582769 L57.1859161,58.2823385 C57.2999806,58.3598769 57.4085613,58.4529231 57.5050774,58.5570462 C58.3090129,59.4022154 58.3101097,60.7713231 57.5050774,61.6164923 C56.7581742,62.4029538 55.5813355,62.4572308 54.7719161,61.7804308 C55.3082387,62.7097846 55.1064323,63.9337846 54.2684968,64.6139077 C53.3702387,65.3427692 52.0782387,65.1688615 51.3839806,64.2228923 C51.3324323,64.1497846 51.2841742,64.0744615 51.2403032,63.9969231 L51.1415935,64.0711385 C51.1942387,64.1420308 51.2403032,64.2162462 51.2841742,64.2948923 C51.8490129,65.3305846 51.5134,66.6531692 50.5284968,67.2502154 C49.6137871,67.8062769 48.4610774,67.5382154 47.8490774,66.6653538 C48.1364323,67.7076923 47.6406903,68.8353231 46.6689484,69.2628923 C45.6182387,69.7225846 44.4128839,69.2030769 43.9763677,68.1009231 C43.9599161,68.0588308 43.9445613,68.0178462 43.9314,67.9757538 L43.8239161,68.0167385 C43.8370774,68.0577231 43.8480452,68.0998154 43.8601097,68.1430154 C44.1551419,69.2961231 43.5025613,70.4835692 42.4057871,70.7915077 C41.3846903,71.0795077 40.337271,70.5079385 39.9599806,69.4955077 C39.9808194,70.5821538 39.2251419,71.5358769 38.1777226,71.6832 C37.0524323,71.8427077 36.0214645,71.0119385 35.8657226,69.8289231 L35.8580452,69.7536 L35.747271,69.7624615 L35.747271,69.8366769 C35.747271,71.0318769 34.8226903,72 33.6908194,72 L33.6908194,1.09883077 C34.7437226,1.09883077 35.6156581,1.93956923 35.7286258,3.01956923 C35.9764968,1.96283077 36.9405613,1.24726154 37.9890774,1.38904615 C39.1154645,1.54190769 39.9106258,2.62633846 39.7680452,3.81046154 L39.7515935,3.90018462 Z" id="Fill-4" fill="#803B1B" sketch:type="MSShapeGroup" mask="url(#mask-4)"></path>
                </g>
                <path d="M8.53312258,21.6216 C13.2338968,21.6216 17.0660258,17.7491077 17.0660258,13.0026462 C17.0660258,8.25618462 13.2338968,4.38369231 8.53312258,4.38369231 C3.83344516,4.38369231 0.000219354839,8.25618462 0.000219354839,13.0026462 C0.000219354839,17.7491077 3.83344516,21.6216 8.53312258,21.6216" id="Fill-7" fill="#9F735F" sketch:type="MSShapeGroup"></path>
                <path d="M8.53312258,18.4857231 C11.5262194,18.4857231 13.9621548,16.0233231 13.9621548,13.0026462 C13.9621548,9.98307692 11.5262194,7.51956923 8.53312258,7.51956923 C5.54331613,7.51956923 3.10409032,9.98307692 3.10409032,13.0026462 C3.10409032,16.0233231 5.54331613,18.4857231 8.53312258,18.4857231" id="Fill-9" fill="#2E2E2F" sketch:type="MSShapeGroup"></path>
                <path d="M58.8390839,21.6216 C63.5398581,21.6216 67.3719871,17.7491077 67.3719871,13.0026462 C67.3719871,8.25618462 63.5398581,4.38369231 58.8390839,4.38369231 C54.1383097,4.38369231 50.3050839,8.25618462 50.3050839,13.0026462 C50.3050839,17.7491077 54.1383097,21.6216 58.8390839,21.6216" id="Fill-11" fill="#8A5033" sketch:type="MSShapeGroup"></path>
                <path d="M58.8390839,18.4857231 C61.8288903,18.4857231 64.2681161,16.0233231 64.2681161,13.0026462 C64.2681161,9.98307692 61.8288903,7.51956923 58.8390839,7.51956923 C55.8481806,7.51956923 53.4100516,9.98307692 53.4100516,13.0026462 C53.4100516,16.0233231 55.8481806,18.4857231 58.8390839,18.4857231" id="Fill-13" fill="#2E2E2F" sketch:type="MSShapeGroup"></path>
                <path d="M48.6896452,16.9772677 C56.7158387,16.9772677 63.223,23.5492062 63.223,31.6564062 C63.223,39.7636062 56.7158387,46.3344369 48.6896452,46.3344369 C40.6623548,46.3344369 34.1540968,39.7636062 34.1540968,31.6564062 C34.1540968,23.5492062 40.6623548,16.9772677 48.6896452,16.9772677" id="Fill-15" fill="#474749" sketch:type="MSShapeGroup"></path>
                <path d="M18.1566581,16.9772677 C26.1839484,16.9772677 32.6911097,23.5492062 32.6911097,31.6564062 C32.6911097,39.7636062 26.1839484,46.3344369 18.1566581,46.3344369 C10.1304645,46.3344369 3.62220645,39.7636062 3.62220645,31.6564062 C3.62220645,23.5492062 10.1304645,16.9772677 18.1566581,16.9772677" id="Fill-17" fill="#DAA990" sketch:type="MSShapeGroup"></path>
                <path d="M19.5298194,29.9152246 L47.3176903,29.9152246 L47.3176903,52.7093169 C47.3176903,60.4288246 41.0649806,66.7426708 33.4237548,66.7426708 C25.7836258,66.7426708 19.5298194,60.4288246 19.5298194,52.7093169 L19.5298194,29.9152246 Z" id="Fill-19" fill="#DAA990" sketch:type="MSShapeGroup"></path>
                <path d="M48.6896452,57.3425723 C46.4401613,63.66528 40.433129,68.2178954 33.4236452,68.2178954 C26.4141613,68.2178954 20.407129,63.66528 18.1565484,57.3425723 C20.8644839,51.5737108 26.682871,47.5826954 33.4236452,47.5826954 C40.1655161,47.5826954 45.9839032,51.5737108 48.6896452,57.3425723" id="Fill-21" fill="#F6C99D" sketch:type="MSShapeGroup"></path>
                <path d="M48.6896452,21.6497354 C54.1636452,21.6497354 58.5979032,26.1303508 58.5979032,31.6566277 C58.5979032,37.1829046 54.1636452,41.6624123 48.6896452,41.6624123 C43.2178387,41.6624123 38.7813871,37.1829046 38.7813871,31.6566277 C38.7813871,26.1303508 43.2178387,21.6497354 48.6896452,21.6497354" id="Fill-23" fill="#E9E9E9" sketch:type="MSShapeGroup"></path>
                <path d="M18.1566581,21.6497354 C23.6295613,21.6497354 28.0693032,26.1303508 28.0693032,31.6566277 C28.0693032,37.1829046 23.6295613,41.6624123 18.1566581,41.6624123 C12.6859484,41.6624123 8.24949677,37.1829046 8.24949677,31.6566277 C8.24949677,26.1303508 12.6859484,21.6497354 18.1566581,21.6497354" id="Fill-25" fill="#FFFFFF" sketch:type="MSShapeGroup"></path>
                <path d="M48.6885484,26.7144369 C51.6882258,26.7144369 54.120871,28.9264985 54.120871,31.6558523 C54.120871,34.3863138 51.6882258,36.5983754 48.6885484,36.5983754 C45.6899677,36.5983754 43.2573226,34.3863138 43.2573226,31.6558523 L48.6885484,31.6558523 L48.6885484,26.7144369 Z" id="Fill-27" fill="#8A5033" sketch:type="MSShapeGroup"></path>
                <path d="M18.1566581,26.7144369 C21.1563355,26.7144369 23.5900774,28.9264985 23.5900774,31.6558523 C23.5900774,34.3863138 21.1563355,36.5983754 18.1566581,36.5983754 C15.1580774,36.5983754 12.7254323,34.3863138 12.7254323,31.6558523 L18.1566581,31.6558523 L18.1566581,26.7144369 Z" id="Fill-29" fill="#2E2E2F" sketch:type="MSShapeGroup"></path>
                <path d="M33.3979806,61.6553723 C32.1992065,61.7096492 30.6790774,61.2355569 29.6689484,60.6440492 C28.9055935,60.2009723 27.6607548,59.2682954 27.4666258,58.3178954 C27.4019161,58.0121723 27.5971419,57.7097723 27.9009484,57.6466338 C28.2069484,57.5823877 28.5019806,57.7740185 28.5655935,58.0819569 C28.6182387,58.2735877 28.7641097,58.4818338 28.9549484,58.6823262 C29.3486903,59.09328 29.9157226,59.4787569 30.2283032,59.6604185 C30.8161742,60.0038031 31.6255935,60.3073108 32.3977226,60.4457723 C32.7322387,60.5055877 33.0601742,60.5321723 33.3617871,60.5199877 C33.3738516,60.51888 33.3848194,60.51888 33.3979806,60.51888 C33.4133355,60.51888 33.4232065,60.51888 33.4341742,60.5199877 C33.9364968,60.5421415 34.5166903,60.4479877 35.0738516,60.2862646 C35.6211419,60.1278646 36.1508839,59.9041108 36.5698516,59.6604185 C36.8517226,59.4953723 37.3507548,59.1597415 37.7302387,58.7919877 C37.9737226,58.5571569 38.1700452,58.3090338 38.2281742,58.08528 C38.2928839,57.7795569 38.5912065,57.5823877 38.8972065,57.6466338 C39.1977226,57.7097723 39.3940452,58.0121723 39.3293355,58.3178954 C39.1363032,59.2682954 37.8947548,60.2009723 37.1292065,60.6440492 C36.1157871,61.2355569 34.5967548,61.7096492 33.3979806,61.6553723" id="Fill-31" fill="#474749" sketch:type="MSShapeGroup"></path>
                <path d="M30.2694323,49.8570092 C31.2883355,49.8570092 32.1153032,50.6911015 32.1153032,51.7212554 C32.1153032,52.7491938 31.2883355,53.5843938 30.2694323,53.5843938 C29.2494323,53.5843938 28.4235613,52.7491938 28.4235613,51.7212554 C28.4235613,50.6911015 29.2494323,49.8570092 30.2694323,49.8570092 M36.5769806,49.7994092 C37.5969806,49.7994092 38.4228516,50.6335015 38.4228516,51.6636554 C38.4228516,52.6938092 37.5969806,53.5267938 36.5769806,53.5267938 C35.5569806,53.5267938 34.7322065,52.6938092 34.7322065,51.6636554 C34.7322065,50.6335015 35.5569806,49.7994092 36.5769806,49.7994092" id="Fill-33" fill="#2E2E2F" sketch:type="MSShapeGroup"></path>
                <path d="M48.6896452,16.9772677 C56.7158387,16.9772677 63.223,23.5492062 63.223,31.6564062 C63.223,39.7636062 56.7158387,46.3344369 48.6896452,46.3344369 C40.6623548,46.3344369 34.1540968,39.7636062 34.1540968,31.6564062 C34.1540968,23.5492062 40.6623548,16.9772677 48.6896452,16.9772677" id="Fill-35" fill="#D19477" sketch:type="MSShapeGroup"></path>
                <path d="M33.4237548,29.9152246 L47.3176903,29.9152246 L47.3176903,52.7093169 C47.3176903,60.4277169 41.0649806,66.7426708 33.4237548,66.7426708 L33.4237548,29.9152246 Z" id="Fill-37" fill="#D19477" sketch:type="MSShapeGroup"></path>
                <path d="M48.6896452,57.3425723 C46.4401613,63.66528 40.433129,68.2178954 33.4236452,68.2178954 L33.4236452,47.5826954 C40.1655161,47.5826954 45.9839032,51.5737108 48.6896452,57.3425723" id="Fill-39" fill="#F2C192" sketch:type="MSShapeGroup"></path>
                <path d="M48.6896452,21.6497354 C54.1636452,21.6497354 58.5979032,26.1303508 58.5979032,31.6566277 C58.5979032,37.1829046 54.1636452,41.6624123 48.6896452,41.6624123 C43.2178387,41.6624123 38.7813871,37.1829046 38.7813871,31.6566277 C38.7813871,26.1303508 43.2178387,21.6497354 48.6896452,21.6497354" id="Fill-41" fill="#E3E4E4" sketch:type="MSShapeGroup"></path>
                <path d="M48.6885484,26.7144369 C51.6893226,26.7144369 54.120871,28.9264985 54.120871,31.6558523 C54.120871,34.3863138 51.6893226,36.5983754 48.6885484,36.5983754 C45.6899677,36.5983754 43.2573226,34.3863138 43.2573226,31.6558523 L48.6885484,31.6558523 L48.6885484,26.7144369 Z" id="Fill-43" fill="#2E2E2F" sketch:type="MSShapeGroup"></path>
                <path d="M33.4237548,60.5191015 L33.4347226,60.5202092 C33.9370452,60.5423631 34.5161419,60.4482092 35.0744,60.2864862 C35.6216903,60.1280862 36.1503355,59.9043323 36.5693032,59.66064 C36.8511742,59.4955938 37.3502065,59.1588554 37.7307871,58.7922092 C37.9731742,58.5573785 38.1694968,58.3092554 38.2287226,58.0855015 C38.2923355,57.7797785 38.5917548,57.5826092 38.8966581,57.6468554 C39.198271,57.7099938 39.3934968,58.0123938 39.3298839,58.3181169 C39.1357548,59.2685169 37.8942065,60.2000862 37.1297548,60.6442708 C36.1229161,61.2313477 34.6181419,61.7032246 33.4237548,61.6567015 L33.4237548,60.5191015 Z" id="Fill-45" fill="#2E2E2F" sketch:type="MSShapeGroup"></path>
                <path d="M36.5769806,49.7996308 C37.5969806,49.7996308 38.4228516,50.6337231 38.4228516,51.6638769 C38.4228516,52.6929231 37.5969806,53.5270154 36.5769806,53.5270154 C35.5569806,53.5270154 34.7322065,52.6929231 34.7322065,51.6638769 C34.7322065,50.6337231 35.5569806,49.7996308 36.5769806,49.7996308" id="Fill-47" fill="#2E2E2F" sketch:type="MSShapeGroup"></path>
            </g>
        </g>
    </g>
</svg>
