<?xml version="1.0" encoding="UTF-8" standalone="no"?>
<!--

    Copyright (C) 2017-2018 Dremio Corporation

    Licensed under the Apache License, Version 2.0 (the "License");
    you may not use this file except in compliance with the License.
    You may obtain a copy of the License at

        http://www.apache.org/licenses/LICENSE-2.0

    Unless required by applicable law or agreed to in writing, software
    distributed under the License is distributed on an "AS IS" BASIS,
    WITHOUT WARRANTIES OR CONDITIONS OF ANY KIND, either express or implied.
    See the License for the specific language governing permissions and
    limitations under the License.

-->
<svg width="110px" height="110px" viewBox="0 0 110 110" version="1.1" xmlns="http://www.w3.org/2000/svg" xmlns:xlink="http://www.w3.org/1999/xlink" xmlns:sketch="http://www.bohemiancoding.com/sketch/ns">
    <!-- Generator: Sketch 3.5.2 (25235) - http://www.bohemiancoding.com/sketch -->
    <title>Avatar/Lynx</title>
    <desc>Created with Sketch.</desc>
    <defs>
        <path id="path-1" d="M0,0.773555556 L71.1116308,0.773555556 L71.1116308,59 L0,59 L0,0.773555556 Z"></path>
    </defs>
    <g id="Avatars" stroke="none" stroke-width="1" fill="none" fill-rule="evenodd" sketch:type="MSPage">
        <g id="Avatar/Lynx" sketch:type="MSArtboardGroup">
            <g id="Background-Circle" sketch:type="MSLayerGroup" fill="#C0E9F5">
                <circle id="Light-Blue" sketch:type="MSShapeGroup" cx="55" cy="55" r="55"></circle>
            </g>
            <g id="Page-1" sketch:type="MSLayerGroup" transform="translate(20.000000, 25.000000)">
                <path d="M62.9210215,15.3917889 C64.0829908,11.1230296 64.2701908,4.5489 60.4863138,1.4076963 L59.7231138,0.773992593 L58.7416985,0.94552963 C56.4476677,1.3476037 54.5036677,2.93186296 53.0869292,4.68328889 C51.4098831,6.75375185 50.2368369,9.30604815 49.5445292,11.8561593 C48.38256,16.1238259 48.1942523,22.6990481 51.9781292,25.8402519 L52.7424369,26.4739556 L53.7238523,26.3013259 C56.0178831,25.8992519 57.9596677,24.3149926 59.3775138,22.5646593 C61.0534523,20.4931037 62.2287138,17.9419 62.9210215,15.3917889" id="Fill-1" fill="#323031" sketch:type="MSShapeGroup"></path>
                <path d="M60.3810831,14.7206093 C59.1437908,19.2865537 56.3368985,22.6582944 53.6518523,23.1302944 L53.6518523,23.1292019 C51.5616369,21.39635 50.8427446,17.0926278 52.0822523,12.5266833 C53.3228677,7.96073889 56.1275446,4.59009074 58.8148062,4.11809074 C60.9028062,5.84985 61.6216985,10.1546648 60.3810831,14.7206093" id="Fill-3" fill="#F27E67" sketch:type="MSShapeGroup"></path>
                <path d="M8.82254769,15.3917889 C7.65947077,11.1230296 7.46894769,4.5489 11.2539323,1.4076963 L12.01824,0.773992593 L12.9985477,0.94552963 C15.2925785,1.3476037 17.2354708,2.93186296 18.6533169,4.68328889 C20.3292554,6.75375185 21.5045169,9.30604815 22.1968246,11.8561593 C23.3610092,16.1238259 23.5459938,22.6990481 19.7621169,25.8402519 L18.9989169,26.4739556 L18.0208246,26.3013259 C15.7223631,25.8992519 13.7805785,24.3149926 12.3627323,22.5646593 C10.6867938,20.4931037 9.51485538,17.9419 8.82254769,15.3917889" id="Fill-5" fill="#404041" sketch:type="MSShapeGroup"></path>
                <path d="M11.3613785,14.7206093 C12.5986708,19.2865537 15.40224,22.6582944 18.0895015,23.1302944 L18.0895015,23.1292019 C20.1786092,21.39635 20.8975015,17.0926278 19.6579938,12.5266833 C18.4162708,7.96073889 15.6127015,4.59009074 12.9276554,4.11809074 C10.83744,5.84985 10.11744,10.1546648 11.3613785,14.7206093" id="Fill-7" fill="#F27E67" sketch:type="MSShapeGroup"></path>
                <path d="M62.4418338,19.8304463 C61.95888,19.1060574 61.4393723,18.4089833 60.8844185,17.7337611 C58.6712492,15.0503537 55.9020185,12.7810389 52.7185108,11.0208722 C51.8401108,10.5357611 50.9318031,10.0867056 49.9946954,9.6813537 C47.6386338,8.66305741 45.1130954,7.89933519 42.44688,7.42952037 C44.7198646,5.35687222 44.0120492,2.69203889 44.0120492,2.69203889 C43.7694646,2.86248333 43.5346338,3.02090926 43.3031262,3.17496481 C43.2311262,3.2219463 43.1624492,3.26674259 43.0904492,3.31263148 C42.9309415,3.41970556 42.76368,3.52350185 42.6074954,3.62292778 C42.5354954,3.66663148 42.4690338,3.71142778 42.3959262,3.7529463 C42.2142646,3.86439074 42.0348185,3.97146481 41.8620185,4.07416852 C41.82768,4.09383519 41.7922338,4.11568704 41.7578954,4.1353537 C41.5529723,4.2533537 41.3513723,4.36479815 41.1564185,4.47077963 C41.1021415,4.50027963 41.0511877,4.52759444 40.9958031,4.55600185 C40.8529108,4.63139074 40.7155569,4.70459444 40.5759877,4.77342778 C40.5128492,4.80402037 40.4530338,4.83352037 40.3954338,4.86302037 C40.2536492,4.9318537 40.1151877,4.99740926 39.9767262,5.06187222 C39.9368492,5.07826111 39.8969723,5.09792778 39.8582031,5.11540926 C39.6854031,5.19189074 39.5192492,5.26509444 39.3553108,5.33174259 C39.3176492,5.34703889 39.2844185,5.36015 39.2467569,5.3743537 C39.1193723,5.42461296 38.9964185,5.47268704 38.8767877,5.51748333 C38.8291569,5.53387222 38.7815262,5.5513537 38.7350031,5.56883519 C38.6209108,5.60816852 38.5123569,5.64750185 38.4015877,5.68246481 C38.3661415,5.69339074 38.32848,5.70650185 38.2919262,5.71742778 C38.1501415,5.76113148 38.0127877,5.80265 37.8809723,5.83870556 L37.8410954,5.84853889 C37.72368,5.87913148 37.6095877,5.90753889 37.4977108,5.93266852 C37.4655877,5.94140926 37.4390031,5.94796481 37.4002338,5.95561296 C37.3071877,5.97527963 37.2152492,5.99276111 37.1277415,6.00915 L37.0457723,6.0244463 C36.8220185,6.06268704 36.6159877,6.08781667 36.4287877,6.10311296 L36.3767262,6.10529815 C36.2969723,6.11076111 36.2238646,6.11513148 36.15408,6.11622407 L36.1031262,6.11840926 C36.0200492,6.12059444 35.9425108,6.12059444 35.8694031,6.11840926 L35.8694031,57.4014278 C35.9425108,57.4025204 36.0156185,57.4057981 36.0876185,57.4057981 C67.4873723,57.4057981 81.52848,48.483687 62.4418338,19.8304463" id="Fill-9" fill="#C9AC79" sketch:type="MSShapeGroup"></path>
                <path d="M35.8690708,57.4016463 L35.8690708,6.11753519 C35.1967015,6.09786852 34.8887631,5.93835 34.8887631,5.93835 C35.0781785,5.68923889 35.4381785,5.42373889 35.8690708,5.16151667 L35.8690708,4.14431296 C29.7379938,5.42592407 26.2565169,8.22842407 26.2565169,8.22842407 L26.2587323,8.23170185 C24.5351631,8.72118333 22.8835938,9.34396111 21.3128862,10.0781833 C20.4012554,10.5075722 19.5151015,10.9730167 18.6643938,11.478887 C15.7245785,13.2215722 13.1635938,15.4111278 11.1066092,17.9677944 C10.5560862,18.6495722 10.0399015,19.355387 9.56580923,20.0874241 C-9.24612923,49.072813 3.60088615,57.4049241 36.0872862,57.4049241 C36.0152862,57.4049241 35.9421785,57.4027389 35.8690708,57.4016463" id="Fill-11" fill="#D1BC89" sketch:type="MSShapeGroup"></path>
                <g id="Group-15">
                    <mask id="mask-2" sketch:name="Clip 14" fill="white">
                        <use xlink:href="#path-1"></use>
                    </mask>
                    <g id="Clip-14"></g>
                    <path d="M52.8003692,56.3453278 C47.6562462,58.0519574 41.9793231,59.0003278 36.0121846,59.0003278 C30.0528,59.0003278 24.3769846,58.05305 19.2339692,56.3486056 L19.2339692,47.7378833 C19.2339692,42.2749204 22.7398154,37.8051241 27.0265846,37.8051241 L45.0088615,37.8051241 C49.2945231,37.8051241 52.8003692,42.2749204 52.8003692,47.7378833 L52.8003692,56.3453278 Z" id="Fill-13" fill="#E3E4E4" sketch:type="MSShapeGroup" mask="url(#mask-2)"></path>
                </g>
                <path d="M53.0091692,56.2792259 L52.6059692,56.4114296 L52.1208,56.5654852 L51.7142769,56.6900407 L51.2235692,56.8364481 L50.7428308,56.9741148 L50.3185846,57.0910222 L49.8389538,57.2188556 L49.3914462,57.3346704 L48.8874462,57.4592259 L48.5075077,57.5499111 L47.9182154,57.6843 L47.5283077,57.7695222 L46.9102154,57.8995407 L46.6521231,57.9498 C46.4184,57.9967815 46.1824615,58.0415778 45.9476308,58.0841889 L45.7238769,58.1246148 C45.4691077,58.1715963 45.2043692,58.2174852 44.9429538,58.2590037 L44.7546462,58.2906889 C44.5054154,58.3300222 44.2561846,58.368263 44.0058462,58.4054111 L43.7499692,58.4425593 C43.4841231,58.4808 43.2149538,58.5168556 42.9457846,58.5507259 L42.8915077,58.5572815 L42.8195077,58.5671148 C42.5381538,58.6020778 42.2556923,58.6348556 41.9743385,58.6654481 L41.8059692,58.6840222 C41.5224,58.7135222 41.2388308,58.7419296 40.9530462,58.7670593 L40.8998769,58.7725222 L40.8888,58.7736148 L40.8555692,58.7758 C40.5531692,58.8031148 40.2452308,58.8282444 39.9428308,58.8500963 L39.8542154,58.8566519 C39.2051077,58.9025407 38.5460308,58.9385963 37.8836308,58.9626333 L37.8437538,58.9637259 C37.5136615,58.9757444 37.1824615,58.9844852 36.8512615,58.9899481 L36.8213538,58.9899481 C36.4824,58.9965037 36.1445538,58.9997815 35.8044923,58.9997815 L35.8044923,37.2779481 L45.0238154,37.2779481 C49.4169231,37.2779481 53.0091692,41.8591889 53.0091692,47.4576333 L53.0091692,56.2792259 Z" id="Fill-16" fill="#B8B7B7" sketch:type="MSShapeGroup"></path>
                <path d="M44.4212308,36.9880833 C43.6403077,35.715213 43.3722462,34.2216389 43.6214769,32.7979907 L48.6692308,32.7979907 L48.6692308,27.8146759 C50.1136615,27.573213 51.6267692,27.8376204 52.9172308,28.6089907 C54.3594462,30.9558796 54.0537231,34.0544722 51.9978462,36.0812315 C49.9452923,38.1090833 46.8005538,38.4106389 44.4212308,36.9880833" id="Fill-18" fill="#2E2E2F" sketch:type="MSShapeGroup"></path>
                <path d="M27.6696,36.9880833 C29.1107077,34.6411944 28.8072,31.5426019 26.7502154,29.51475 C25.8086769,28.5871389 24.6411692,28.0200833 23.4204923,27.8146759 L23.4204923,32.7979907 L18.3705231,32.7979907 C18.5776615,34.0009352 19.1525538,35.1525278 20.0929846,36.0812315 C22.1488615,38.1090833 25.2902769,38.4106389 27.6696,36.9880833" id="Fill-20" fill="#5A5B5C" sketch:type="MSShapeGroup"></path>
                <path d="M36.6090092,43.2608759 C36.6223015,43.3100426 36.6289477,43.3613944 36.6289477,43.4138389 L36.6289477,50.2021167 C36.7009477,50.3397833 36.7308554,50.4850981 36.7264246,50.6293204 C37.5826708,50.9723944 40.1226092,51.00845 40.6365785,51.00845 C42.30144,51.00845 44.3617477,50.7658944 45.7585477,49.7716352 C46.0687015,49.5498389 46.6003938,49.0636352 46.7311015,48.6855981 C46.8352246,48.3818574 47.1763938,48.2201537 47.4799015,48.32395 C47.7900554,48.4277463 47.9517785,48.7598944 47.8465477,49.0636352 C47.6272246,49.6929685 46.9759015,50.3375981 46.4464246,50.7145426 C44.8291938,51.8683204 42.5761477,52.1731537 40.6365785,52.1731537 C39.5477169,52.1731537 37.1473477,52.1567648 36.0396554,51.5798759 C34.9319631,52.1567648 32.5304862,52.1731537 31.4460554,52.1731537 C29.5042708,52.1731537 27.2523323,51.8683204 25.6317785,50.7145426 C25.1011938,50.3375981 24.4498708,49.6929685 24.2316554,49.0636352 C24.1264246,48.7598944 24.2914708,48.4277463 24.5994092,48.32395 C24.9073477,48.2201537 25.2418708,48.3818574 25.3482092,48.6855981 C25.4789169,49.0636352 26.0128246,49.5498389 26.3229785,49.7716352 C27.7186708,50.7658944 29.7778708,51.00845 31.4460554,51.00845 C31.9567015,51.00845 34.4977477,50.9723944 35.3517785,50.6293204 C35.3473477,50.4850981 35.3783631,50.3397833 35.4536862,50.2021167 L35.4536862,43.4138389 C35.4536862,43.3613944 35.4559015,43.3100426 35.4703015,43.2608759 L36.6090092,43.2608759 Z" id="Fill-22" fill="#2E2E2F" sketch:type="MSShapeGroup"></path>
                <path d="M29.9455754,37.5413722 L36.0400985,37.5413722 L42.1324062,37.5413722 C43.2013292,41.6069093 38.3152985,44.0455759 36.6094523,44.7612241 L35.4696369,44.7612241 C33.7637908,44.0455759 28.8766523,41.6069093 29.9455754,37.5413722" id="Fill-24" fill="#DF3E52" sketch:type="MSShapeGroup"></path>
                <path d="M47.2121723,46.5733981 C46.8998031,46.5723056 46.6428185,46.8214167 46.6417108,47.1284352 C46.6394954,47.4365463 46.8931569,47.6889352 47.2055262,47.6911204 C47.6552492,47.6933056 48.13488,47.7140648 48.6311262,47.7533981 C51.6074954,47.987213 55.2318646,48.8765833 57.4328492,50.4903426 C58.71888,51.4354352 60.7825108,53.208713 61.8536492,54.7886019 C62.0220185,55.0409907 62.1682338,55.2879167 62.2823262,55.5261019 C62.4130338,55.8058056 62.7497723,55.9270833 63.0333415,55.7959722 C63.3158031,55.6670463 63.4387569,55.332713 63.3069415,55.0541019 C62.3953108,53.1267685 59.7767262,50.8181204 58.1074338,49.5944167 C57.3697108,49.0513981 56.4902031,48.5848611 55.5342646,48.1915278 C54.3368492,47.6987685 53.0186954,47.3218241 51.7038646,47.0563241 C50.1342646,46.7394722 48.5679877,46.5810463 47.2121723,46.5733981 M46.6140185,45.0754537 C46.3027569,45.0929352 46.0634954,45.3573426 46.0823262,45.6643611 C46.0978338,45.9724722 46.3658954,46.2095648 46.6782646,46.1909907 C47.2376492,46.1603981 47.8823262,46.1374537 48.5746338,46.128713 C52.7462031,46.0740833 58.8972185,46.501287 61.7550646,48.3226389 C62.5127262,48.802287 64.8156185,50.2718241 66.0207877,51.2988611 C66.3021415,51.5414167 66.5270031,51.7599352 66.6543877,51.9336574 C66.8216492,52.1926019 67.1705723,52.264713 67.4319877,52.0975463 C67.6956185,51.9314722 67.7742646,51.5840278 67.6025723,51.3250833 C66.9335262,50.2980463 63.3623262,48.016713 62.3698338,47.3841019 C62.1793108,47.2628241 61.9777108,47.1481019 61.7639262,47.03775 C59.5762338,45.911287 56.2376492,45.3573426 53.0297723,45.1322685 C50.6415877,44.9651019 48.3242954,44.9803981 46.6140185,45.0754537 M46.32048,43.1961944 C51.0082338,42.3614537 58.8296492,41.7670833 63.3279877,43.3873981 C65.4481108,44.1533056 67.6413415,45.2491759 69.3073108,46.7798981 C69.8246031,47.2562685 70.5446031,48.0265463 70.8481108,48.6733611 C70.9777108,48.9541574 70.8547569,49.2863056 70.5711877,49.4152315 C70.2876185,49.54525 69.9497723,49.421787 69.8179569,49.1420833 C69.7603569,49.0175278 69.6761723,48.8831389 69.5753723,48.743287 C69.2751877,48.3237315 68.8310031,47.8703056 68.5352492,47.59825 C66.98448,46.1724167 64.9130954,45.14975 62.9358646,44.4373796 C59.1209723,43.0628981 52.5900185,43.3961389 48.06288,44.0495093 C47.5167877,44.1281759 47.0006031,44.2101204 46.52208,44.2964352 C46.2152492,44.3510648 45.9183877,44.1489352 45.8630031,43.8451944 C45.8076185,43.5425463 46.0136492,43.2508241 46.32048,43.1961944 M23.6936492,47.6911204 C24.0049108,47.6889352 24.2574646,47.4365463 24.2563569,47.1284352 C24.2552492,46.8214167 23.9982646,46.5723056 23.6870031,46.5733981 C22.6291569,46.5788611 21.4439262,46.678287 20.2298954,46.8694907 C18.3656492,47.1655833 16.4327262,47.68675 14.78448,48.4439167 C14.0522954,48.7804352 13.3777108,49.1639352 12.7928492,49.5944167 C11.1235569,50.8181204 8.50275692,53.1267685 7.59001846,55.0541019 C7.45820308,55.332713 7.58226462,55.6670463 7.86694154,55.7959722 C8.14718769,55.9270833 8.48614154,55.8058056 8.61795692,55.5261019 C8.72983385,55.2955648 8.86940308,55.056287 9.03001846,54.8137315 C10.0934031,53.227287 12.1725415,51.4408981 13.4663262,50.4903426 C15.8046646,48.7771574 19.7425108,47.8812315 22.8086031,47.7173426 C23.1121108,47.7020463 23.4089723,47.692213 23.6936492,47.6911204 M24.2209108,46.1909907 C24.5321723,46.2095648 24.8013415,45.9724722 24.8179569,45.6643611 C24.83568,45.3573426 24.5953108,45.0929352 24.2851569,45.0754537 C22.7022646,44.9869537 20.60208,44.9683796 18.4033108,45.0983981 C14.9750031,45.3005278 11.3107569,45.8686759 9.00897231,47.1043981 C8.84060308,47.1950833 8.68441846,47.2868611 8.52934154,47.3841019 C7.53684923,48.016713 3.96564923,50.2980463 3.29771077,51.3250833 C3.12712615,51.5840278 3.20466462,51.9314722 3.46829538,52.0975463 C3.72860308,52.264713 4.07752615,52.1926019 4.24589538,51.9336574 C4.36995692,51.763213 4.58928,51.5490648 4.86620308,51.3108796 C6.06694154,50.2838426 8.38644923,48.8044722 9.14632615,48.3226389 C12.1082954,46.4357315 18.5982646,46.0456759 22.7676185,46.1363611 C23.2926646,46.147287 23.7811569,46.1658611 24.2209108,46.1909907 M24.3770954,44.2964352 C23.9816492,44.2265093 23.5607262,44.1565833 23.1198646,44.0910278 C18.58608,43.4114352 11.8590646,43.0333981 7.96109538,44.4373796 C6.00491077,45.1431944 3.95235692,46.1538426 2.40823385,47.5589167 C2.08921846,47.8462685 1.63063385,48.311713 1.31937231,48.7465648 C1.22078769,48.8842315 1.13881846,49.0175278 1.08232615,49.1420833 C0.948295385,49.421787 0.611556923,49.54525 0.331310769,49.4152315 C0.0444184615,49.2863056 -0.0796430769,48.9541574 0.0543876923,48.6733611 C0.353464615,48.0265463 1.07457231,47.2562685 1.59075692,46.7798981 C3.25672615,45.2491759 5.45106462,44.1533056 7.57672615,43.3873981 C12.0684185,41.7670833 19.8953723,42.3614537 24.5775877,43.1961944 C24.8855262,43.2508241 25.0904492,43.5425463 25.0361723,43.8451944 C24.9807877,44.1489352 24.6839262,44.3510648 24.3770954,44.2964352" id="Fill-26" fill="#5A5B5C" sketch:type="MSShapeGroup"></path>
            </g>
        </g>
    </g>
</svg>
