<?xml version="1.0" encoding="UTF-8" standalone="no"?>
<!--

    Copyright (C) 2017-2018 Dremio Corporation

    Licensed under the Apache License, Version 2.0 (the "License");
    you may not use this file except in compliance with the License.
    You may obtain a copy of the License at

        http://www.apache.org/licenses/LICENSE-2.0

    Unless required by applicable law or agreed to in writing, software
    distributed under the License is distributed on an "AS IS" BASIS,
    WITHOUT WARRANTIES OR CONDITIONS OF ANY KIND, either express or implied.
    See the License for the specific language governing permissions and
    limitations under the License.

-->
<svg width="110px" height="110px" viewBox="0 0 110 110" version="1.1" xmlns="http://www.w3.org/2000/svg" xmlns:xlink="http://www.w3.org/1999/xlink" xmlns:sketch="http://www.bohemiancoding.com/sketch/ns">
    <!-- Generator: Sketch 3.5.2 (25235) - http://www.bohemiancoding.com/sketch -->
    <title>Avatar/Monkey-Gold</title>
    <desc>Created with Sketch.</desc>
    <defs>
        <path id="path-1" d="M0,1.13509434 L76.8096,1.13509434 L76.8096,64 L0,64 L0,1.13509434 Z"></path>
    </defs>
    <g id="Avatars" stroke="none" stroke-width="1" fill="none" fill-rule="evenodd" sketch:type="MSPage">
        <g id="Avatar/Monkey-Gold" sketch:type="MSArtboardGroup">
            <g id="Background-Circle" sketch:type="MSLayerGroup" fill="#C0E9F5">
                <circle id="Light-Blue" sketch:type="MSShapeGroup" cx="55" cy="55" r="55"></circle>
            </g>
            <g id="Page-1" sketch:type="MSLayerGroup" transform="translate(17.000000, 23.000000)">
                <path d="M9.72888,41.0672302 C15.08808,41.0672302 19.45728,36.6693434 19.45728,31.2776453 C19.45728,25.8847396 15.08808,21.4868528 9.72888,21.4868528 C4.36968,21.4868528 0.00048,25.8847396 0.00048,31.2776453 C0.00048,36.6693434 4.36968,41.0672302 9.72888,41.0672302" id="Fill-1" fill="#F68E2C" sketch:type="MSShapeGroup"></path>
                <path d="M9.72888,37.5053283 C13.13808,37.5053283 15.91848,34.7074415 15.91848,31.2768 C15.91848,27.8461585 13.13808,25.0482717 9.72888,25.0482717 C6.31968,25.0482717 3.53928,27.8461585 3.53928,31.2768 C3.53928,34.7074415 6.31968,37.5053283 9.72888,37.5053283" id="Fill-3" fill="#2E2E2F" sketch:type="MSShapeGroup"></path>
                <path d="M67.08048,41.0672302 C72.43848,41.0672302 76.80888,36.6693434 76.80888,31.2776453 C76.80888,25.8847396 72.43848,21.4868528 67.08048,21.4868528 C61.72248,21.4868528 57.34968,25.8847396 57.34968,31.2776453 C57.34968,36.6693434 61.72248,41.0672302 67.08048,41.0672302" id="Fill-5" fill="#F68E2C" sketch:type="MSShapeGroup"></path>
                <path d="M67.08048,37.5053283 C70.48848,37.5053283 73.26768,34.7074415 73.26768,31.2768 C73.26768,27.8461585 70.48848,25.0482717 67.08048,25.0482717 C63.67248,25.0482717 60.89088,27.8461585 60.89088,31.2768 C60.89088,34.7074415 63.67248,37.5053283 67.08048,37.5053283" id="Fill-7" fill="#2E2E2F" sketch:type="MSShapeGroup"></path>
                <path d="M38.40588,64 C55.61028,64 69.63948,49.8801509 69.63948,32.5675472 C69.63948,15.2549434 55.61028,1.13509434 38.40588,1.13509434 C21.20028,1.13509434 7.16988,15.2549434 7.16988,32.5675472 C7.16988,49.8801509 21.20028,64 38.40588,64" id="Fill-9" fill="#F79A46" sketch:type="MSShapeGroup"></path>
                <path d="M51.71952,15.8278038 C58.72272,15.8278038 64.39872,21.5395019 64.39872,28.5843321 C64.39872,35.6291623 58.72272,41.3408604 51.71952,41.3408604 C44.71872,41.3408604 39.04752,35.6291623 39.04752,28.5843321 C39.04752,21.5395019 44.71872,15.8278038 51.71952,15.8278038" id="Fill-11" fill="#474749" sketch:type="MSShapeGroup"></path>
                <path d="M25.08984,15.8278038 C32.09064,15.8278038 37.76544,21.5395019 37.76544,28.5843321 C37.76544,35.6291623 32.09064,41.3408604 25.08984,41.3408604 C18.08784,41.3408604 12.41304,35.6291623 12.41304,28.5843321 C12.41304,21.5395019 18.08784,15.8278038 25.08984,15.8278038" id="Fill-13" fill="#474749" sketch:type="MSShapeGroup"></path>
                <path d="M24.99612,26.9098264 L51.81372,26.9098264 L51.81372,48.8304302 C51.81372,56.2532226 45.78012,62.3247698 38.40612,62.3247698 C31.02852,62.3247698 24.99612,56.2532226 24.99612,48.8304302 L24.99612,26.9098264 Z" id="Fill-15" fill="#474749" sketch:type="MSShapeGroup"></path>
                <path d="M51.03048,53.3619925 C49.16928,58.5725585 44.20128,62.3244075 38.40528,62.3244075 C32.60808,62.3244075 27.63888,58.5725585 25.77768,53.3619925 C28.01688,48.6078792 32.82888,45.3185208 38.40528,45.3185208 C43.98048,45.3185208 48.79248,48.6078792 51.03048,53.3619925" id="Fill-17" fill="#F6C99D" sketch:type="MSShapeGroup"></path>
                <path d="M51.71952,19.8879396 C56.49192,19.8879396 60.36312,23.7822792 60.36312,28.5846943 C60.36312,33.3871094 56.49192,37.2802415 51.71952,37.2802415 C46.94832,37.2802415 43.07832,33.3871094 43.07832,28.5846943 C43.07832,23.7822792 46.94832,19.8879396 51.71952,19.8879396" id="Fill-19" fill="#E9E9E9" sketch:type="MSShapeGroup"></path>
                <path d="M25.08984,19.8879396 C29.86224,19.8879396 33.73104,23.7822792 33.73104,28.5846943 C33.73104,33.3871094 29.86224,37.2802415 25.08984,37.2802415 C20.31624,37.2802415 16.44984,33.3871094 16.44984,28.5846943 C16.44984,23.7822792 20.31624,19.8879396 25.08984,19.8879396" id="Fill-21" fill="#FFFFFF" sketch:type="MSShapeGroup"></path>
                <path d="M51.71952,24.2900528 C54.33552,24.2900528 56.45832,26.2124679 56.45832,28.5840906 C56.45832,30.9557132 54.33552,32.8781283 51.71952,32.8781283 C49.10832,32.8781283 46.98072,30.9557132 46.98072,28.5840906 L51.71952,28.5840906 L51.71952,24.2900528 Z" id="Fill-23" fill="#8A5033" sketch:type="MSShapeGroup"></path>
                <path d="M25.08984,24.2900528 C27.70944,24.2900528 29.82624,26.2124679 29.82624,28.5840906 C29.82624,30.9557132 27.70944,32.8781283 25.08984,32.8781283 C22.47264,32.8781283 20.35224,30.9557132 20.35224,28.5840906 L25.08984,28.5840906 L25.08984,24.2900528 Z" id="Fill-25" fill="#8A5033" sketch:type="MSShapeGroup"></path>
                <path d="M38.3742,58.1097057 C37.0002,58.1724981 35.2614,57.631517 34.0986,56.9564981 C33.2274,56.4481208 31.7994,55.3842717 31.5774,54.2986868 C31.5018,53.9497057 31.7274,53.6055547 32.0742,53.5318943 C32.421,53.4594415 32.763,53.6780075 32.8386,54.0294038 C32.8998,54.2491774 33.063,54.4858566 33.2838,54.7152906 C33.729,55.1838189 34.3854,55.6245736 34.7418,55.8322717 C35.4162,56.223517 36.3486,56.5712906 37.2306,56.7282717 C37.6146,56.7958943 37.9902,56.8284981 38.3322,56.8140075 C38.3502,56.8128 38.3598,56.8128 38.3742,56.8128 C38.3886,56.8128 38.4018,56.8128 38.4162,56.8140075 C38.9934,56.8381585 39.6582,56.7306868 40.2966,56.5459321 C40.9242,56.3660075 41.529,56.1100075 42.009,55.8322717 C42.333,55.6438943 42.9054,55.2598943 43.3434,54.8408755 C43.6194,54.5715925 43.8486,54.2890264 43.9122,54.034234 C43.9854,53.6840453 44.3274,53.4594415 44.6742,53.5318943 C45.0234,53.6055547 45.2502,53.9497057 45.1758,54.2986868 C44.9502,55.3842717 43.5258,56.4481208 42.651,56.9564981 C41.4918,57.631517 39.7494,58.1724981 38.3742,58.1097057" id="Fill-27" fill="#474749" sketch:type="MSShapeGroup"></path>
                <path d="M34.78836,39.3903094 C35.95836,39.3903094 36.90636,40.3430642 36.90636,41.5192151 C36.90636,42.6941585 35.95836,43.6469132 34.78836,43.6469132 C33.62076,43.6469132 32.67396,42.6941585 32.67396,41.5192151 C32.67396,40.3430642 33.62076,39.3903094 34.78836,39.3903094 M42.02076,39.3251019 C43.18836,39.3251019 44.13516,40.2778566 44.13516,41.4540075 C44.13516,42.6301585 43.18836,43.5829132 42.02076,43.5829132 C40.85196,43.5829132 39.90636,42.6301585 39.90636,41.4540075 C39.90636,40.2778566 40.85196,39.3251019 42.02076,39.3251019" id="Fill-29" fill="#8A5033" sketch:type="MSShapeGroup"></path>
                <g id="Group-33">
                    <mask id="mask-2" sketch:name="Clip 32" fill="white">
                        <use xlink:href="#path-1"></use>
                    </mask>
                    <g id="Clip-32"></g>
                    <path d="M38.40588,1.13557736 C55.65948,1.13557736 69.63948,15.2083321 69.63948,32.5680302 C69.63948,49.9265208 55.65948,64.000483 38.40588,64.000483 L38.40588,1.13557736 Z" id="Fill-31" fill="#F68E2C" sketch:type="MSShapeGroup" mask="url(#mask-2)"></path>
                </g>
                <path d="M51.71952,15.8278038 C58.72272,15.8278038 64.39872,21.5395019 64.39872,28.5843321 C64.39872,35.6291623 58.72272,41.3408604 51.71952,41.3408604 C44.71872,41.3408604 39.04752,35.6291623 39.04752,28.5843321 C39.04752,21.5395019 44.71872,15.8278038 51.71952,15.8278038" id="Fill-34" fill="#2E2E2F" sketch:type="MSShapeGroup"></path>
                <path d="M38.40588,26.9098264 L51.81348,26.9098264 L51.81348,48.8304302 C51.81348,56.2532226 45.78108,62.3247698 38.40588,62.3247698 L38.40588,26.9098264 Z" id="Fill-36" fill="#2E2E2F" sketch:type="MSShapeGroup"></path>
                <path d="M51.03048,53.3619925 C49.16928,58.5725585 44.20128,62.3244075 38.40528,62.3244075 L38.40528,45.3185208 C43.98048,45.3185208 48.79248,48.6078792 51.03048,53.3619925" id="Fill-38" fill="#F2C192" sketch:type="MSShapeGroup"></path>
                <path d="M51.71952,19.8879396 C56.49192,19.8879396 60.36312,23.7822792 60.36312,28.5846943 C60.36312,33.3871094 56.49192,37.2802415 51.71952,37.2802415 C46.94832,37.2802415 43.07832,33.3871094 43.07832,28.5846943 C43.07832,23.7822792 46.94832,19.8879396 51.71952,19.8879396" id="Fill-40" fill="#E3E4E4" sketch:type="MSShapeGroup"></path>
                <path d="M51.71952,24.2900528 C54.33552,24.2900528 56.45832,26.2124679 56.45832,28.5840906 C56.45832,30.9557132 54.33552,32.8781283 51.71952,32.8781283 C49.10832,32.8781283 46.98072,30.9557132 46.98072,28.5840906 L51.71952,28.5840906 L51.71952,24.2900528 Z" id="Fill-42" fill="#803B1B" sketch:type="MSShapeGroup"></path>
                <path d="M38.40588,56.8124377 L38.41668,56.8136453 C38.99268,56.8377962 39.65868,56.7315321 40.29588,56.5455698 C40.92468,56.3656453 41.52948,56.1096453 42.00948,55.8319094 C42.33348,55.6435321 42.90588,55.2595321 43.34268,54.8405132 C43.61988,54.5724377 43.84788,54.2886642 43.91268,54.0338717 C43.98468,53.683683 44.32788,53.4590792 44.67468,53.5315321 C45.02388,53.6051925 45.24948,53.9493434 45.17628,54.2983245 C44.95068,55.3839094 43.52628,56.448966 42.65148,56.9561358 C41.49948,57.6275321 39.77388,58.1648906 38.40588,58.1105509 L38.40588,56.8124377 Z" id="Fill-44" fill="#2E2E2F" sketch:type="MSShapeGroup"></path>
                <path d="M42.02112,39.3254642 C43.18872,39.3254642 44.13552,40.2782189 44.13552,41.4543698 C44.13552,42.6293132 43.18872,43.5820679 42.02112,43.5820679 C40.85112,43.5820679 39.90552,42.6293132 39.90552,41.4543698 C39.90552,40.2782189 40.85112,39.3254642 42.02112,39.3254642" id="Fill-46" fill="#803B1B" sketch:type="MSShapeGroup"></path>
            </g>
        </g>
    </g>
</svg>
