<?xml version="1.0" encoding="UTF-8" standalone="no"?>
<!--

    Copyright (C) 2017-2018 Dremio Corporation

    Licensed under the Apache License, Version 2.0 (the "License");
    you may not use this file except in compliance with the License.
    You may obtain a copy of the License at

        http://www.apache.org/licenses/LICENSE-2.0

    Unless required by applicable law or agreed to in writing, software
    distributed under the License is distributed on an "AS IS" BASIS,
    WITHOUT WARRANTIES OR CONDITIONS OF ANY KIND, either express or implied.
    See the License for the specific language governing permissions and
    limitations under the License.

-->
<svg width="110px" height="110px" viewBox="0 0 110 110" version="1.1" xmlns="http://www.w3.org/2000/svg" xmlns:xlink="http://www.w3.org/1999/xlink" xmlns:sketch="http://www.bohemiancoding.com/sketch/ns">
    <!-- Generator: Sketch 3.5.2 (25235) - http://www.bohemiancoding.com/sketch -->
    <title>Avatar/Monkey-White</title>
    <desc>Created with Sketch.</desc>
    <defs>
        <path id="path-1" d="M0,0.497 L76.8108,0.497 L76.8108,71 L0,71"></path>
    </defs>
    <g id="Avatars" stroke="none" stroke-width="1" fill="none" fill-rule="evenodd" sketch:type="MSPage">
        <g id="Avatar/Monkey-White" sketch:type="MSArtboardGroup">
            <g id="Background-Circle" sketch:type="MSLayerGroup" fill="#2A394A">
                <circle id="Dark-Blue" sketch:type="MSShapeGroup" cx="55" cy="55" r="55"></circle>
            </g>
            <g id="Page-1" sketch:type="MSLayerGroup" transform="translate(17.000000, 20.000000)">
                <g id="Group-3">
                    <mask id="mask-2" sketch:name="Clip 2" fill="white">
                        <use xlink:href="#path-1"></use>
                    </mask>
                    <g id="Clip-2"></g>
                    <path d="M31.01376,10.6437424 C34.42536,9.71231864 37.40256,9.40304746 39.77496,9.37296271 C39.95976,6.69542034 40.21776,2.71340339 40.21776,1.73986102 C40.21776,0.239233898 40.13136,-0.333579661 35.78976,2.52567458 C32.19936,4.89635254 31.23816,9.22614915 31.01376,10.6437424 M39.93816,9.37055593 C40.40976,8.14550508 41.24376,6.69301356 42.72456,5.7182678 C45.73296,3.73267458 45.79296,4.12979322 45.79296,5.17192881 C45.79296,5.78325085 45.64776,8.10338644 45.52656,9.91569153 C44.90976,9.7652678 42.91776,9.35009831 39.93816,9.37055593" id="Fill-1" fill="#E3E4E4" sketch:type="MSShapeGroup" mask="url(#mask-2)"></path>
                </g>
                <path d="M9.729,48.1461831 C15.087,48.1461831 19.4586,43.7634373 19.4586,38.3903017 C19.4586,33.0159627 15.087,28.6332169 9.729,28.6332169 C4.3746,28.6332169 0.0006,33.0159627 0.0006,38.3903017 C0.0006,43.7634373 4.3746,48.1461831 9.729,48.1461831" id="Fill-4" fill="#E3E4E4" sketch:type="MSShapeGroup"></path>
                <path d="M9.729,44.5971458 C13.1382,44.5971458 15.9186,41.8088915 15.9186,38.390061 C15.9186,34.9712305 13.1382,32.1829763 9.729,32.1829763 C6.3234,32.1829763 3.5394,34.9712305 3.5394,38.390061 C3.5394,41.8088915 6.3234,44.5971458 9.729,44.5971458" id="Fill-6" fill="#70411A" sketch:type="MSShapeGroup"></path>
                <path d="M67.0794,48.1461831 C72.4374,48.1461831 76.8102,43.7634373 76.8102,38.3903017 C76.8102,33.0159627 72.4374,28.6332169 67.0794,28.6332169 C61.725,28.6332169 57.351,33.0159627 57.351,38.3903017 C57.351,43.7634373 61.725,48.1461831 67.0794,48.1461831" id="Fill-8" fill="#E3E4E4" sketch:type="MSShapeGroup"></path>
                <path d="M67.0794,44.5971458 C70.4898,44.5971458 73.2714,41.8088915 73.2714,38.390061 C73.2714,34.9712305 70.4898,32.1829763 67.0794,32.1829763 C63.6714,32.1829763 60.8922,34.9712305 60.8922,38.390061 C60.8922,41.8088915 63.6714,44.5971458 67.0794,44.5971458" id="Fill-10" fill="#70411A" sketch:type="MSShapeGroup"></path>
                <path d="M38.40708,71 C55.61028,71 69.64068,56.9299661 69.64068,39.6769661 C69.64068,22.4239661 55.61028,8.35272881 38.40708,8.35272881 C21.20028,8.35272881 7.17468,22.4239661 7.17468,39.6769661 C7.17468,56.9299661 21.20028,71 38.40708,71" id="Fill-12" fill="#FFFFFF" sketch:type="MSShapeGroup"></path>
                <path d="M51.71844,22.9937712 C58.72524,22.9937712 64.39524,28.6858051 64.39524,35.7063814 C64.39524,42.7269576 58.72524,48.4189915 51.71844,48.4189915 C44.71764,48.4189915 39.04284,42.7269576 39.04284,35.7063814 C39.04284,28.6858051 44.71764,22.9937712 51.71844,22.9937712" id="Fill-14" fill="#474749" sketch:type="MSShapeGroup"></path>
                <path d="M25.08876,22.9937712 C32.09196,22.9937712 37.76556,28.6858051 37.76556,35.7063814 C37.76556,42.7269576 32.09196,48.4189915 25.08876,48.4189915 C18.08796,48.4189915 12.41196,42.7269576 12.41196,35.7063814 C12.41196,28.6858051 18.08796,22.9937712 25.08876,22.9937712" id="Fill-16" fill="#996539" sketch:type="MSShapeGroup"></path>
                <path d="M24.99384,34.0369186 L51.81504,34.0369186 L51.81504,55.8832576 C51.81504,63.2792915 45.77904,69.331139 38.40744,69.331139 L38.40384,69.331139 C31.02744,69.331139 24.99384,63.2792915 24.99384,55.8832576 L24.99384,34.0369186 Z" id="Fill-18" fill="#996539" sketch:type="MSShapeGroup"></path>
                <path d="M51.0294,60.399339 C49.1742,65.5919661 44.2026,69.3308983 38.4066,69.3308983 C32.6094,69.3308983 27.639,65.5919661 25.7778,60.399339 C28.0158,55.6603898 32.8278,52.3835593 38.4066,52.3835593 C43.9794,52.3835593 48.7938,55.6603898 51.0294,60.399339" id="Fill-20" fill="#8E5523" sketch:type="MSShapeGroup"></path>
                <path d="M51.71844,27.0399288 C56.49324,27.0399288 60.36204,30.920861 60.36204,35.7067424 C60.36204,40.4926237 56.49324,44.3723525 51.71844,44.3723525 C46.94604,44.3723525 43.07724,40.4926237 43.07724,35.7067424 C43.07724,30.920861 46.94604,27.0399288 51.71844,27.0399288" id="Fill-22" fill="#E9E9E9" sketch:type="MSShapeGroup"></path>
                <path d="M25.08876,27.0399288 C29.86116,27.0399288 33.73236,30.920861 33.73236,35.7067424 C33.73236,40.4926237 29.86116,44.3723525 25.08876,44.3723525 C20.31516,44.3723525 16.44756,40.4926237 16.44756,35.7067424 C16.44756,30.920861 20.31516,27.0399288 25.08876,27.0399288" id="Fill-24" fill="#FFFFFF" sketch:type="MSShapeGroup"></path>
                <path d="M51.71844,31.4268864 C54.33444,31.4268864 56.45964,33.3426831 56.45964,35.7073441 C56.45964,38.0708017 54.33444,39.9865983 51.71844,39.9865983 C49.10244,39.9865983 46.98204,38.0708017 46.98204,35.7073441 L51.71844,35.7073441 L51.71844,31.4268864 Z" id="Fill-26" fill="#8A5033" sketch:type="MSShapeGroup"></path>
                <path d="M25.08876,31.4268864 C27.70956,31.4268864 29.82756,33.3426831 29.82756,35.7073441 C29.82756,38.0708017 27.70956,39.9865983 25.08876,39.9865983 C22.47396,39.9865983 20.35116,38.0708017 20.35116,35.7073441 L25.08876,35.7073441 L25.08876,31.4268864 Z" id="Fill-28" fill="#2E2E2F" sketch:type="MSShapeGroup"></path>
                <path d="M38.3754,65.1305864 C37.0002,65.1919593 35.2602,64.6540441 34.0986,63.9801458 C33.2262,63.474722 31.7994,62.4145356 31.5762,61.3326881 C31.503,60.9837051 31.7262,60.6419424 32.0754,60.5673322 C32.4234,60.4951288 32.7618,60.7141458 32.8374,61.0643322 C32.8938,61.2833492 33.0618,61.5180102 33.2826,61.7478576 C33.7302,62.2147729 34.3842,62.6540102 34.743,62.8609932 C35.415,63.2508915 36.3438,63.5974678 37.2294,63.7539085 C37.6134,63.8212983 37.989,63.8537898 38.3334,63.8381458 C38.3478,63.8369424 38.3586,63.8369424 38.3754,63.8369424 C38.3898,63.8369424 38.403,63.8369424 38.4174,63.8381458 C38.9922,63.8634169 39.6594,63.7563153 40.2954,63.5721966 C40.9242,63.3928915 41.5278,63.1377729 42.0066,62.8609932 C42.3342,62.672061 42.9066,62.2905864 43.3422,61.8718068 C43.6242,61.6046542 43.8438,61.323061 43.9134,61.0679424 C43.9842,60.7201627 44.3262,60.4951288 44.6754,60.5673322 C45.0234,60.6419424 45.2454,60.9837051 45.1746,61.3326881 C44.9502,62.4133322 43.5246,63.474722 42.6522,63.9801458 C41.4906,64.6540441 39.7494,65.1919593 38.3754,65.1305864" id="Fill-30" fill="#474749" sketch:type="MSShapeGroup"></path>
                <path d="M34.78956,46.4757576 C35.95956,46.4757576 36.90756,47.4240288 36.90756,48.5961305 C36.90756,49.7682322 35.95956,50.7177068 34.78956,50.7177068 C33.62316,50.7177068 32.67396,49.7682322 32.67396,48.5961305 C32.67396,47.4240288 33.62316,46.4757576 34.78956,46.4757576 M42.02316,46.4107746 C43.18716,46.4107746 44.13396,47.3602492 44.13396,48.5311475 C44.13396,49.7032492 43.18716,50.6527237 42.02316,50.6527237 C40.85316,50.6527237 39.90396,49.7032492 39.90396,48.5311475 C39.90396,47.3602492 40.85316,46.4107746 42.02316,46.4107746" id="Fill-32" fill="#2E2E2F" sketch:type="MSShapeGroup"></path>
                <path d="M38.40708,8.35272881 C55.66068,8.35272881 69.63828,22.3770339 69.63828,39.6769661 C69.63828,56.9756949 55.66068,71 38.40708,71 L38.40708,8.35272881 Z" id="Fill-34" fill="#E3E4E4" sketch:type="MSShapeGroup"></path>
                <path d="M51.71844,22.9937712 C58.72524,22.9937712 64.39524,28.6858051 64.39524,35.7063814 C64.39524,42.7269576 58.72524,48.4189915 51.71844,48.4189915 C44.71764,48.4189915 39.04284,42.7269576 39.04284,35.7063814 C39.04284,28.6858051 44.71764,22.9937712 51.71844,22.9937712" id="Fill-36" fill="#8E5523" sketch:type="MSShapeGroup"></path>
                <path d="M38.40708,34.0369186 L51.81468,34.0369186 L51.81468,55.8832576 C51.81468,63.2792915 45.77988,69.331139 38.40708,69.331139 L38.40708,34.0369186 Z" id="Fill-38" fill="#8E5523" sketch:type="MSShapeGroup"></path>
                <path d="M51.0294,60.399339 C49.1742,65.5919661 44.2026,69.3308983 38.4066,69.3308983 L38.4066,52.3835593 C43.9794,52.3835593 48.7938,55.6603898 51.0294,60.399339" id="Fill-40" fill="#70411A" sketch:type="MSShapeGroup"></path>
                <path d="M51.71844,27.0399288 C56.49324,27.0399288 60.36204,30.920861 60.36204,35.7067424 C60.36204,40.4926237 56.49324,44.3723525 51.71844,44.3723525 C46.94604,44.3723525 43.07724,40.4926237 43.07724,35.7067424 C43.07724,30.920861 46.94604,27.0399288 51.71844,27.0399288" id="Fill-42" fill="#E3E4E4" sketch:type="MSShapeGroup"></path>
                <path d="M51.71844,31.4268864 C54.33684,31.4268864 56.45964,33.3426831 56.45964,35.7073441 C56.45964,38.0708017 54.33684,39.9853949 51.71844,39.9853949 C49.10244,39.9853949 46.98204,38.0708017 46.98204,35.7073441 L51.71844,35.7073441 L51.71844,31.4268864 Z" id="Fill-44" fill="#2E2E2F" sketch:type="MSShapeGroup"></path>
                <path d="M38.40708,63.8379051 L38.41788,63.8391085 C38.99148,63.8631763 39.65988,63.7560746 40.29468,63.5719559 C40.92468,63.3926508 41.52828,63.1375322 42.00708,62.8607525 C42.33348,62.6730237 42.90708,62.2903458 43.34148,61.8727695 C43.62468,61.6044136 43.84308,61.3228203 43.91388,61.0689051 C43.98348,60.719922 44.32668,60.4960915 44.67588,60.5682949 C45.02388,60.6417017 45.24468,60.9834644 45.17508,61.3324475 C44.94948,62.4130915 43.52508,63.4756847 42.65268,63.9811085 C41.49708,64.6489898 39.77508,65.1857017 38.40708,65.1315492 L38.40708,63.8379051 Z" id="Fill-46" fill="#2E2E2F" sketch:type="MSShapeGroup"></path>
                <path d="M42.02352,46.4105339 C43.18752,46.4105339 44.13432,47.3600085 44.13432,48.5321102 C44.13432,49.7030085 43.18752,50.6524831 42.02352,50.6524831 C40.85232,50.6524831 39.90312,49.7030085 39.90312,48.5321102 C39.90312,47.3600085 40.85232,46.4105339 42.02352,46.4105339" id="Fill-48" fill="#2E2E2F" sketch:type="MSShapeGroup"></path>
            </g>
        </g>
    </g>
</svg>
