<?xml version="1.0" encoding="UTF-8" standalone="no"?>
<!--

    Copyright (C) 2017-2018 Dremio Corporation

    Licensed under the Apache License, Version 2.0 (the "License");
    you may not use this file except in compliance with the License.
    You may obtain a copy of the License at

        http://www.apache.org/licenses/LICENSE-2.0

    Unless required by applicable law or agreed to in writing, software
    distributed under the License is distributed on an "AS IS" BASIS,
    WITHOUT WARRANTIES OR CONDITIONS OF ANY KIND, either express or implied.
    See the License for the specific language governing permissions and
    limitations under the License.

-->
<svg width="110px" height="110px" viewBox="0 0 110 110" version="1.1" xmlns="http://www.w3.org/2000/svg" xmlns:xlink="http://www.w3.org/1999/xlink" xmlns:sketch="http://www.bohemiancoding.com/sketch/ns">
    <!-- Generator: Sketch 3.5.2 (25235) - http://www.bohemiancoding.com/sketch -->
    <title>Avatar/Monkey-Black</title>
    <desc>Created with Sketch.</desc>
    <defs>
        <path id="path-1" d="M0,0.290862069 L76.8084,0.290862069 L76.8084,70 L0,70"></path>
    </defs>
    <g id="Avatars" stroke="none" stroke-width="1" fill="none" fill-rule="evenodd" sketch:type="MSPage">
        <g id="Avatar/Monkey-Black" sketch:type="MSArtboardGroup">
            <g id="Background-Circle" sketch:type="MSLayerGroup" fill="#C0E9F5">
                <circle id="Light-Blue" sketch:type="MSShapeGroup" cx="55" cy="55" r="55"></circle>
            </g>
            <g id="Page-1" sketch:type="MSLayerGroup" transform="translate(17.000000, 20.000000)">
                <path d="M9.72768,47.0795862 C15.08688,47.0795862 19.45608,42.684069 19.45608,37.2952759 C19.45608,31.9052759 15.08688,27.5097586 9.72768,27.5097586 C4.36968,27.5097586 0.00048,31.9052759 0.00048,37.2952759 C0.00048,42.684069 4.36968,47.0795862 9.72768,47.0795862" id="Fill-1" fill="#2E2E2F" sketch:type="MSShapeGroup"></path>
                <path d="M9.72768,43.5208103 C13.13688,43.5208103 15.91728,40.7232241 15.91728,37.294431 C15.91728,33.8656379 13.13688,31.0692586 9.72768,31.0692586 C6.31848,31.0692586 3.53808,33.8656379 3.53808,37.294431 C3.53808,40.7232241 6.31848,43.5208103 9.72768,43.5208103" id="Fill-3" fill="#5A5B5C" sketch:type="MSShapeGroup"></path>
                <path d="M67.07928,47.0795862 C72.43728,47.0795862 76.80768,42.684069 76.80768,37.2952759 C76.80768,31.9052759 72.43728,27.5097586 67.07928,27.5097586 C61.72008,27.5097586 57.34968,31.9052759 57.34968,37.2952759 C57.34968,42.684069 61.72008,47.0795862 67.07928,47.0795862" id="Fill-5" fill="#2E2E2F" sketch:type="MSShapeGroup"></path>
                <path d="M67.07928,43.5208103 C70.48728,43.5208103 73.26888,40.7232241 73.26888,37.294431 C73.26888,33.8656379 70.48728,31.0692586 67.07928,31.0692586 C63.66888,31.0692586 60.88968,33.8656379 60.88968,37.294431 C60.88968,40.7232241 63.66888,43.5208103 67.07928,43.5208103" id="Fill-7" fill="#5A5B5C" sketch:type="MSShapeGroup"></path>
                <g id="Group-11">
                    <mask id="mask-2" sketch:name="Clip 10" fill="white">
                        <use xlink:href="#path-1"></use>
                    </mask>
                    <g id="Clip-10"></g>
                    <path d="M38.40468,7.17005172 C55.65828,7.17005172 69.63828,21.2352241 69.63828,38.585569 C69.63828,55.9347069 55.65828,69.9998793 38.40468,69.9998793 C21.15828,69.9998793 7.16868,55.9347069 7.16868,38.585569 C7.16868,27.0621207 13.33668,16.990569 22.53228,11.5233276 L20.50068,3.89091379 C23.06148,4.64763793 25.18188,6.6897069 25.92348,9.47401724 C25.94988,9.56574138 25.97148,9.65746552 25.99188,9.74918966 C26.44908,9.55125862 26.90748,9.36418966 27.37188,9.18798276 L25.04148,0.444017241 C28.41348,1.44091379 31.20108,4.12625862 32.17788,7.78918966 L32.17788,7.79522414 C32.72868,7.68298276 33.28188,7.58643103 33.84228,7.50436207 L31.92108,0.290741379 C34.67268,1.10418966 36.95028,3.29712069 37.75068,6.28781034 C37.82508,6.5835 37.88748,6.88039655 37.93308,7.17608621 C38.08908,7.17367241 38.24988,7.17005172 38.40468,7.17005172" id="Fill-9" fill="#5A5B5C" sketch:type="MSShapeGroup" mask="url(#mask-2)"></path>
                </g>
                <path d="M51.71832,21.8537586 C58.71912,21.8537586 64.39992,27.5623793 64.39992,34.6046207 C64.39992,41.6456552 58.71912,47.353069 51.71832,47.353069 C44.71752,47.353069 39.04152,41.6456552 39.04152,34.6046207 C39.04152,27.5623793 44.71752,21.8537586 51.71832,21.8537586" id="Fill-12" fill="#474749" sketch:type="MSShapeGroup"></path>
                <path d="M25.08864,21.8537586 C32.08944,21.8537586 37.76544,27.5623793 37.76544,34.6046207 C37.76544,41.6456552 32.08944,47.353069 25.08864,47.353069 C18.08664,47.353069 12.41184,41.6456552 12.41184,34.6046207 C12.41184,27.5623793 18.08664,21.8537586 25.08864,21.8537586" id="Fill-14" fill="#F6C99D" sketch:type="MSShapeGroup"></path>
                <path d="M24.99252,32.9292069 L51.81372,32.9292069 L51.81372,54.8392069 C51.81372,62.2567931 45.77892,68.3262759 38.40492,68.3262759 C31.02732,68.3262759 24.99252,62.2567931 24.99252,54.8392069 L24.99252,32.9292069 Z" id="Fill-16" fill="#F6C99D" sketch:type="MSShapeGroup"></path>
                <path d="M51.02928,59.3683276 C49.16808,64.5760862 44.20128,68.3259138 38.40528,68.3259138 C32.60688,68.3259138 27.63768,64.5760862 25.77648,59.3683276 C28.01568,54.615569 32.82768,51.3291897 38.40528,51.3291897 C43.97928,51.3291897 48.79128,54.615569 51.02928,59.3683276" id="Fill-18" fill="#DFB99E" sketch:type="MSShapeGroup"></path>
                <path d="M51.71832,25.9117069 C56.49192,25.9117069 60.35952,29.8039483 60.35952,34.6037759 C60.35952,39.4036034 56.49192,43.2946379 51.71832,43.2946379 C46.94592,43.2946379 43.07712,39.4036034 43.07712,34.6037759 C43.07712,29.8039483 46.94592,25.9117069 51.71832,25.9117069" id="Fill-20" fill="#E9E9E9" sketch:type="MSShapeGroup"></path>
                <path d="M25.08864,25.9117069 C29.86104,25.9117069 33.72984,29.8039483 33.72984,34.6037759 C33.72984,39.4036034 29.86104,43.2946379 25.08864,43.2946379 C20.31384,43.2946379 16.45104,39.4036034 16.45104,34.6037759 C16.45104,29.8039483 20.31384,25.9117069 25.08864,25.9117069" id="Fill-22" fill="#FFFFFF" sketch:type="MSShapeGroup"></path>
                <path d="M51.71832,30.3114483 C54.33432,30.3114483 56.45712,32.2328276 56.45712,34.6043793 C56.45712,36.9735172 54.33432,38.8961034 51.71832,38.8961034 C49.10112,38.8961034 46.98072,36.9735172 46.98072,34.6043793 L51.71832,34.6043793 L51.71832,30.3114483 Z" id="Fill-24" fill="#8A5033" sketch:type="MSShapeGroup"></path>
                <path d="M25.08744,30.3114483 C27.70824,30.3114483 29.82504,32.2328276 29.82504,34.6043793 C29.82504,36.9735172 27.70824,38.8961034 25.08744,38.8961034 C22.47024,38.8961034 20.35104,36.9735172 20.35104,34.6043793 L25.08744,34.6043793 L25.08744,30.3114483 Z" id="Fill-26" fill="#2E2E2F" sketch:type="MSShapeGroup"></path>
                <path d="M38.373,64.1139655 C37.0002,64.1755172 35.259,63.6348276 34.0998,62.9601724 C33.225,62.4532759 31.7994,61.3887931 31.575,60.305 C31.5042,59.955 31.7262,59.6110345 32.073,59.5374138 C32.421,59.465 32.7618,59.6834483 32.835,60.0346552 C32.8938,60.2543103 33.0618,60.4908621 33.2826,60.7201724 C33.7278,61.1884483 34.3842,61.6289655 34.743,61.8365517 C35.415,62.2287931 36.3426,62.5763793 37.2282,62.732069 C37.611,62.8008621 37.9878,62.8322414 38.3322,62.8177586 C38.3502,62.8165517 38.3586,62.8165517 38.373,62.8165517 C38.3886,62.8165517 38.4042,62.8165517 38.4162,62.8177586 C38.9922,62.8418966 39.657,62.7344828 40.2978,62.5510345 C40.923,62.37 41.5278,62.1153448 42.0078,61.8365517 C42.3318,61.6482759 42.9042,61.2644828 43.3398,60.8456897 C43.6182,60.5765517 43.8438,60.2941379 43.911,60.0394828 C43.9842,59.6906897 44.3262,59.465 44.6742,59.5374138 C45.0222,59.6110345 45.2502,59.955 45.1722,60.305 C44.9502,61.3887931 43.5222,62.4532759 42.6498,62.9601724 C41.4882,63.6348276 39.7494,64.1755172 38.373,64.1139655" id="Fill-28" fill="#474749" sketch:type="MSShapeGroup"></path>
                <path d="M34.78824,45.4041724 C35.95704,45.4041724 36.90504,46.3564138 36.90504,47.5307241 C36.90504,48.7062414 35.95704,49.6584828 34.78824,49.6584828 C33.61944,49.6584828 32.67264,48.7062414 32.67264,47.5307241 C32.67264,46.3564138 33.61944,45.4041724 34.78824,45.4041724 M42.01704,45.339 C43.18584,45.339 44.13384,46.2912414 44.13384,47.4655517 C44.13384,48.641069 43.18584,49.5933103 42.01704,49.5933103 C40.85064,49.5933103 39.90504,48.641069 39.90504,47.4655517 C39.90504,46.2912414 40.85064,45.339 42.01704,45.339" id="Fill-30" fill="#2E2E2F" sketch:type="MSShapeGroup"></path>
                <path d="M38.40468,7.17005172 C55.65828,7.17005172 69.63828,21.2352241 69.63828,38.585569 C69.63828,55.9347069 55.65828,69.9998793 38.40468,69.9998793 L38.40468,7.17005172 Z" id="Fill-32" fill="#2E2E2F" sketch:type="MSShapeGroup"></path>
                <path d="M51.71832,21.8537586 C58.71912,21.8537586 64.39992,27.5623793 64.39992,34.6046207 C64.39992,41.6456552 58.71912,47.353069 51.71832,47.353069 C44.71752,47.353069 39.04152,41.6456552 39.04152,34.6046207 C39.04152,27.5623793 44.71752,21.8537586 51.71832,21.8537586" id="Fill-34" fill="#F2C192" sketch:type="MSShapeGroup"></path>
                <path d="M38.40468,32.9292069 L51.81348,32.9292069 L51.81348,54.8392069 C51.81348,62.2567931 45.77868,68.3262759 38.40468,68.3262759 L38.40468,32.9292069 Z" id="Fill-36" fill="#F2C192" sketch:type="MSShapeGroup"></path>
                <path d="M51.02928,59.3683276 C49.16808,64.5760862 44.20128,68.3259138 38.40528,68.3259138 L38.40528,51.3291897 C43.97928,51.3291897 48.79128,54.615569 51.02928,59.3683276" id="Fill-38" fill="#D9A986" sketch:type="MSShapeGroup"></path>
                <path d="M51.71832,25.9117069 C56.49192,25.9117069 60.35952,29.8039483 60.35952,34.6037759 C60.35952,39.4036034 56.49192,43.2946379 51.71832,43.2946379 C46.94592,43.2946379 43.07712,39.4036034 43.07712,34.6037759 C43.07712,29.8039483 46.94592,25.9117069 51.71832,25.9117069" id="Fill-40" fill="#E3E4E4" sketch:type="MSShapeGroup"></path>
                <path d="M51.71832,30.3114483 C54.33552,30.3114483 56.45712,32.2328276 56.45712,34.6043793 C56.45712,36.9735172 54.33552,38.8948966 51.71832,38.8948966 C49.10112,38.8948966 46.98072,36.9735172 46.98072,34.6043793 L51.71832,34.6043793 L51.71832,30.3114483 Z" id="Fill-42" fill="#2E2E2F" sketch:type="MSShapeGroup"></path>
                <path d="M38.40468,62.8169138 L38.41668,62.8181207 C38.99148,62.8422586 39.65748,62.7348448 40.29708,62.5501897 C40.92348,62.3703621 41.52708,62.1157069 42.00828,61.8369138 C42.33108,61.6486379 42.90468,61.2648448 43.33908,60.8460517 C43.61868,60.5769138 43.84308,60.2945 43.91148,60.0398448 C43.98348,59.6898448 44.32668,59.4653621 44.67468,59.5377759 C45.02268,59.6113966 45.25068,59.9553621 45.17268,60.3053621 C44.95068,61.3879483 43.52268,62.4536379 42.65028,62.9605345 C41.49708,63.6303621 39.77268,64.1686379 38.40468,64.1143276 L38.40468,62.8169138 Z" id="Fill-44" fill="#2E2E2F" sketch:type="MSShapeGroup"></path>
                <path d="M42.01752,45.3387586 C43.18632,45.3387586 44.13432,46.291 44.13432,47.4665172 C44.13432,48.6408276 43.18632,49.593069 42.01752,49.593069 C40.84992,49.593069 39.90432,48.6408276 39.90432,47.4665172 C39.90432,46.291 40.84992,45.3387586 42.01752,45.3387586" id="Fill-46" fill="#2E2E2F" sketch:type="MSShapeGroup"></path>
            </g>
        </g>
    </g>
</svg>
