<?xml version="1.0" encoding="UTF-8" standalone="no"?>
<!--

    Copyright (C) 2017-2018 Dremio Corporation

    Licensed under the Apache License, Version 2.0 (the "License");
    you may not use this file except in compliance with the License.
    You may obtain a copy of the License at

        http://www.apache.org/licenses/LICENSE-2.0

    Unless required by applicable law or agreed to in writing, software
    distributed under the License is distributed on an "AS IS" BASIS,
    WITHOUT WARRANTIES OR CONDITIONS OF ANY KIND, either express or implied.
    See the License for the specific language governing permissions and
    limitations under the License.

-->
<svg width="110px" height="110px" viewBox="0 0 110 110" version="1.1" xmlns="http://www.w3.org/2000/svg" xmlns:xlink="http://www.w3.org/1999/xlink" xmlns:sketch="http://www.bohemiancoding.com/sketch/ns">
    <!-- Generator: Sketch 3.5.2 (25235) - http://www.bohemiancoding.com/sketch -->
    <title>Avatar/MountainGoat</title>
    <desc>Created with Sketch.</desc>
    <defs>
        <path id="path-1" d="M0,1.1904 L74.7948571,1.1904 L74.7948571,78 L0,78"></path>
        <path id="path-3" d="M0,1.1904 L74.7948571,1.1904 L74.7948571,78 L0,78"></path>
    </defs>
    <g id="Avatars" stroke="none" stroke-width="1" fill="none" fill-rule="evenodd" sketch:type="MSPage">
        <g id="Avatar/MountainGoat" sketch:type="MSArtboardGroup">
            <g id="Background-Circle" sketch:type="MSLayerGroup" fill="#3ACBAC">
                <circle id="Green" sketch:type="MSShapeGroup" cx="55" cy="55" r="55"></circle>
            </g>
            <g id="Page-1" sketch:type="MSLayerGroup" transform="translate(18.000000, 17.000000)">
                <path d="M60.2800635,32.00856 C63.7579683,31.08216 68.4711746,28.54896 69.1684444,24.65736 L69.3059683,23.87256 L68.7920635,23.26296 C67.5869206,21.83736 65.688127,21.13416 63.8894603,20.86296 C61.7506032,20.54136 59.4766349,20.76216 57.4065397,21.31656 C53.9226032,22.24296 49.2081905,24.77616 48.5133333,28.66776 L48.3733968,29.45256 L48.8897143,30.06216 C50.0948571,31.48656 51.9912381,32.18976 53.7959365,32.46216 C55.9311746,32.78256 58.2075556,32.56176 60.2800635,32.00856" id="Fill-1" fill="#FFFFFF" sketch:type="MSShapeGroup"></path>
                <path d="M59.733346,29.97876 C56.0153778,30.96996 52.5085206,30.39516 51.0970921,28.72596 C51.4795048,26.57796 54.2275683,24.33756 57.9479492,23.34636 C61.6659175,22.35396 65.1715683,22.92996 66.5829968,24.59796 L66.5829968,24.59916 C66.2029968,26.74596 63.453727,28.98756 59.733346,29.97876" id="Fill-3" fill="#2E2E2F" sketch:type="MSShapeGroup"></path>
                <path d="M12.5821016,32.00856 C9.10419683,31.08216 4.38978413,28.54896 3.69492698,24.65736 L3.55499048,23.87256 L4.07613333,23.26296 C5.28248254,21.83736 7.17283175,21.13416 8.97753016,20.86296 C11.1115619,20.54136 13.3843238,20.76216 15.4616571,21.31656 C18.9383556,22.24296 23.6527683,24.77616 24.3488317,28.66776 L24.4875619,29.45256 L23.9808952,30.06216 C22.774546,31.48656 20.8697206,32.18976 19.0650222,32.46216 C16.9297841,32.78256 14.6582286,32.56176 12.5821016,32.00856" id="Fill-5" fill="#FFFFFF" sketch:type="MSShapeGroup"></path>
                <path d="M13.1286984,29.97876 C16.8466667,30.96996 20.3619683,30.39516 21.763746,28.72596 C21.380127,26.57796 18.6344762,24.33756 14.9140952,23.34636 C11.196127,22.35396 7.69530159,22.92996 6.28628571,24.59796 L6.28628571,24.59916 C6.66146032,26.74596 9.40831746,28.98756 13.1286984,29.97876" id="Fill-7" fill="#2E2E2F" sketch:type="MSShapeGroup"></path>
                <path d="M31.6574984,60.84732 C31.6574984,60.84732 32.4259429,65.16012 35.4273397,68.58132 C38.4359746,72.00372 38.772546,77.77092 37.960673,77.98812 C37.1500063,78.20532 41.4735619,75.41052 41.4735619,71.94252 C41.4735619,68.47452 38.6519111,66.39012 41.1768,61.09692 C43.7028952,55.80492 33.9218159,56.07132 31.6574984,60.84732" id="Fill-9" fill="#2E2E2F" sketch:type="MSShapeGroup"></path>
                <path d="M37.398273,62.30376 C48.1408127,62.30376 56.9037333,51.29856 56.9037333,37.80576 C56.9037333,24.31176 48.1408127,13.30656 37.398273,13.30656 C26.6557333,13.30656 17.8988444,24.31176 17.8988444,37.80576 C17.8988444,51.29856 26.6557333,62.30376 37.398273,62.30376" id="Fill-11" fill="#FFFFFF" sketch:type="MSShapeGroup"></path>
                <path d="M37.398273,13.30668 C48.1697651,13.30668 56.9037333,24.27588 56.9037333,37.80588 C56.9037333,51.33588 48.1697651,62.30388 37.398273,62.30388 L37.398273,13.30668 Z" id="Fill-13" fill="#E3E4E4" sketch:type="MSShapeGroup"></path>
                <path d="M45.3255556,25.9758 C47.3980635,25.9758 49.0760952,28.6242 49.0760952,31.8906 C49.0760952,35.157 47.3980635,37.8042 45.3255556,37.8042 C43.254254,37.8042 41.5750159,35.157 41.5750159,31.8906 C41.5750159,28.6242 43.254254,25.9758 45.3255556,25.9758 M28.6767302,25.9758 C30.7480317,25.9758 32.4284762,28.6242 32.4284762,31.8906 C32.4284762,35.157 30.7480317,37.8042 28.6767302,37.8042 C26.6054286,37.8042 24.9358413,35.157 24.9358413,31.8906 C24.9358413,28.6242 26.6054286,25.9758 28.6767302,25.9758" id="Fill-15" fill="#C9C8C9" sketch:type="MSShapeGroup"></path>
                <path d="M28.6769714,29.79948 C29.8374794,29.79948 30.7784317,30.73548 30.7784317,31.88988 C30.7784317,33.04428 29.8374794,33.98028 28.6769714,33.98028 C27.5152571,33.98028 26.5755111,33.04428 26.5755111,31.88988 L28.6769714,31.88988 L28.6769714,29.79948 Z" id="Fill-17" fill="#2E2E2F" sketch:type="MSShapeGroup"></path>
                <path d="M45.3255556,29.79948 C46.4872698,29.79948 47.4270159,30.73548 47.4270159,31.88988 C47.4270159,33.04428 46.4872698,33.98028 45.3255556,33.98028 C44.1638413,33.98028 43.2240952,33.04428 43.2240952,31.88988 L45.3255556,31.88988 L45.3255556,29.79948 Z" id="Fill-19" fill="#2E2E2F" sketch:type="MSShapeGroup"></path>
                <g id="Group-23">
                    <mask id="mask-2" sketch:name="Clip 22" fill="white">
                        <use xlink:href="#path-1"></use>
                    </mask>
                    <g id="Clip-22"></g>
                    <path d="M40.9972952,16.62816 C42.4159619,13.05096 45.5753905,7.51656 51.5407873,7.51656 C60.355581,7.51656 67.7468825,9.32136 70.8882159,7.51656 C74.0307556,5.71176 74.5603429,1.19016 74.5603429,1.19016 C74.5603429,1.19016 75.9536762,8.60136 71.9437714,10.90416 C67.935073,13.20696 65.6840254,13.96776 60.4532952,13.96776 C56.2696762,13.96776 53.470946,18.91536 52.154819,21.52296 C49.315073,27.16296 38.5278984,22.85736 40.9972952,16.62816" id="Fill-21" fill="#2E2E2F" sketch:type="MSShapeGroup" mask="url(#mask-2)"></path>
                </g>
                <g id="Group-26">
                    <mask id="mask-4" sketch:name="Clip 25" fill="white">
                        <use xlink:href="#path-3"></use>
                    </mask>
                    <g id="Clip-25"></g>
                    <path d="M33.7968381,16.62816 C32.3781714,13.05096 29.2187429,7.51656 23.2545524,7.51656 C14.4397587,7.51656 7.04725079,9.32136 3.90712381,7.51656 C0.763377778,5.71176 0.233790476,1.19016 0.233790476,1.19016 C0.233790476,1.19016 -1.15713016,8.60136 2.85156825,10.90416 C6.86026667,13.20696 9.11131429,13.96776 14.3420444,13.96776 C18.5244571,13.96776 21.3231873,18.91536 22.6405206,21.52296 C25.4887111,27.16296 36.2674413,22.85736 33.7968381,16.62816" id="Fill-24" fill="#2E2E2F" sketch:type="MSShapeGroup" mask="url(#mask-4)"></path>
                </g>
                <path d="M47.8559937,47.18952 C47.8559937,48.50472 47.2383429,49.73112 46.1743429,50.75832 C45.6785333,49.43472 44.765327,48.54672 43.7206286,48.54672 C42.1475492,48.54672 40.8724381,50.55792 40.8724381,53.03832 C40.8724381,53.15352 40.8748508,53.26632 40.8796762,53.37912 C39.7903429,53.62032 38.6189778,53.75232 37.3981524,53.75232 C36.1761206,53.75232 35.0047556,53.62032 33.9142159,53.37912 C33.9202476,53.26632 33.9226603,53.15352 33.9226603,53.03832 C33.9226603,50.55792 32.6475492,48.54672 31.0744698,48.54672 C30.0297714,48.54672 29.1153587,49.43472 28.6207556,50.75832 C27.5567556,49.73112 26.9378984,48.50472 26.9378984,47.18952 C26.9378984,43.56552 31.6221524,40.62672 37.3981524,40.62672 C43.1753587,40.62672 47.8559937,43.56552 47.8559937,47.18952" id="Fill-27" fill="#474749" sketch:type="MSShapeGroup"></path>
                <path d="M37.398273,53.75208 L37.398273,40.62648 C43.1754794,40.62648 47.8561143,43.56528 47.8561143,47.18928 C47.8561143,48.50448 47.2384635,49.73088 46.1744635,50.75808 C45.678654,49.43448 44.7654476,48.54648 43.7207492,48.54648 C42.1464635,48.54648 40.8725587,50.55768 40.8725587,53.03928 C40.8725587,53.15328 40.8749714,53.26608 40.8797968,53.37888 C39.7904635,53.62008 38.6190984,53.75208 37.398273,53.75208" id="Fill-29" fill="#2E2E2F" sketch:type="MSShapeGroup"></path>
            </g>
        </g>
    </g>
</svg>
