<?xml version="1.0" encoding="UTF-8" standalone="no"?>
<!--

    Copyright (C) 2017-2018 Dremio Corporation

    Licensed under the Apache License, Version 2.0 (the "License");
    you may not use this file except in compliance with the License.
    You may obtain a copy of the License at

        http://www.apache.org/licenses/LICENSE-2.0

    Unless required by applicable law or agreed to in writing, software
    distributed under the License is distributed on an "AS IS" BASIS,
    WITHOUT WARRANTIES OR CONDITIONS OF ANY KIND, either express or implied.
    See the License for the specific language governing permissions and
    limitations under the License.

-->
<svg width="110px" height="110px" viewBox="0 0 110 110" version="1.1" xmlns="http://www.w3.org/2000/svg" xmlns:xlink="http://www.w3.org/1999/xlink" xmlns:sketch="http://www.bohemiancoding.com/sketch/ns">
    <!-- Generator: Sketch 3.5.2 (25235) - http://www.bohemiancoding.com/sketch -->
    <title>Avatar/Owl-Tan</title>
    <desc>Created with Sketch.</desc>
    <defs>
        <path id="path-1" d="M0,1.09883077 L71.2102154,1.09883077 L71.2102154,72 L0,72"></path>
        <path id="path-3" d="M0,1.09883077 L71.2102154,1.09883077 L71.2102154,72 L0,72"></path>
    </defs>
    <g id="Avatars" stroke="none" stroke-width="1" fill="none" fill-rule="evenodd" sketch:type="MSPage">
        <g id="Avatar/Owl-Tan" sketch:type="MSArtboardGroup">
            <g id="Background-Circle" sketch:type="MSLayerGroup" fill="#46B4D5">
                <circle id="Aqua" sketch:type="MSShapeGroup" cx="55" cy="55" r="55"></circle>
            </g>
            <g id="Page-1" sketch:type="MSLayerGroup" transform="translate(20.000000, 20.000000)">
                <g id="Group-3">
                    <mask id="mask-2" sketch:name="Clip 2" fill="white">
                        <use xlink:href="#path-1"></use>
                    </mask>
                    <g id="Clip-2"></g>
                    <path d="M35.6062154,72 C55.2156923,72 71.2107692,57.8603077 71.2107692,40.5227077 C71.2107692,23.1862154 55.2156923,9.04652308 35.6062154,9.04652308 C15.9945231,9.04652308 -0.000553846154,23.1862154 -0.000553846154,40.5227077 C-0.000553846154,57.8603077 15.9945231,72 35.6062154,72" id="Fill-1" fill="#2E2E2F" sketch:type="MSShapeGroup" mask="url(#mask-2)"></path>
                </g>
                <g id="Group-6">
                    <mask id="mask-4" sketch:name="Clip 5" fill="white">
                        <use xlink:href="#path-3"></use>
                    </mask>
                    <g id="Clip-5"></g>
                    <path d="M35.6062154,9.04596923 C38.7731077,9.04596923 41.8292308,9.53889231 44.6915077,10.4494154 L57.8353846,1.09827692 L56.3887385,17.4212308 C62.0568,22.8744 65.5848,30.5385231 65.5848,39.0256615 C65.5848,55.5834462 52.1684308,69.0053538 35.6062154,69.0053538 C19.0484308,69.0053538 5.62541538,55.5834462 5.62541538,39.0256615 C5.62541538,30.5385231 9.15341538,22.8744 14.8214769,17.4212308 L13.3748308,1.09827692 L26.5198154,10.4494154 C29.3854154,9.53889231 32.4382154,9.04596923 35.6062154,9.04596923" id="Fill-4" fill="#D1BC89" sketch:type="MSShapeGroup" mask="url(#mask-4)"></path>
                </g>
                <path d="M35.6062154,9.04596923 C52.1684308,9.04596923 65.5848,22.4678769 65.5848,39.0256615 C65.5848,55.5834462 52.1684308,69.0053538 35.6062154,69.0053538 L35.6062154,9.04596923 Z" id="Fill-7" fill="#C9AC79" sketch:type="MSShapeGroup"></path>
                <path d="M47.73888,15.9701538 C54.1634954,15.9701538 59.3696492,21.1774154 59.3696492,27.5998154 C59.3696492,34.0233231 54.1634954,39.2294769 47.73888,39.2294769 C41.3220185,39.2294769 36.1103262,34.0233231 36.1103262,27.5998154 C36.1103262,21.1774154 41.3220185,15.9701538 47.73888,15.9701538 M23.4715569,15.9701538 C29.8939569,15.9701538 35.1012185,21.1774154 35.1012185,27.5998154 C35.1012185,34.0233231 29.8939569,39.2294769 23.4715569,39.2294769 C17.0480492,39.2294769 11.8407877,34.0233231 11.8407877,27.5998154 C11.8407877,21.1774154 17.0480492,15.9701538 23.4715569,15.9701538" id="Fill-9" fill="#FFFFFF" sketch:type="MSShapeGroup"></path>
                <path d="M23.4713354,19.5917538 C27.8932431,19.5917538 31.4788431,23.1773538 31.4788431,27.6003692 C31.4788431,32.0233846 27.8932431,35.6078769 23.4713354,35.6078769 C19.0472123,35.6078769 15.46272,32.0233846 15.46272,27.6003692 C15.46272,23.1773538 19.0472123,19.5917538 23.4713354,19.5917538 M47.7386585,19.5917538 C52.1616738,19.5917538 55.7483815,23.1773538 55.7483815,27.6003692 C55.7483815,32.0233846 52.1616738,35.6078769 47.7386585,35.6078769 C43.3167508,35.6078769 39.7322585,32.0233846 39.7322585,27.6003692 C39.7322585,23.1773538 43.3167508,19.5917538 47.7386585,19.5917538" id="Fill-11" fill="#EF7721" sketch:type="MSShapeGroup"></path>
                <path d="M35.2762338,36.8091692 C38.53728,36.8091692 42.9968492,40.0070769 41.1857723,42.7242462 L35.2762338,51.5979692 L29.3534031,42.7242462 C27.5434338,40.0059692 32.0030031,36.8091692 35.2762338,36.8091692" id="Fill-13" fill="#2E2E2F" sketch:type="MSShapeGroup"></path>
                <path d="M47.73888,22.6919631 C50.4505108,22.6919631 52.6481723,24.8885169 52.6481723,27.6001477 C52.6481723,30.3106708 50.4505108,32.5083323 47.73888,32.5083323 C45.0283569,32.5083323 42.8306954,30.3106708 42.8306954,27.6001477 L47.73888,27.6001477 L47.73888,22.6919631 Z M23.4715569,22.6919631 C26.1831877,22.6919631 28.3797415,24.8885169 28.3797415,27.6001477 C28.3797415,30.3106708 26.1831877,32.5083323 23.4715569,32.5083323 C20.7599262,32.5083323 18.5622646,30.3106708 18.5622646,27.6001477 L23.4715569,27.6001477 L23.4715569,22.6919631 Z" id="Fill-15" fill="#2E2E2F" sketch:type="MSShapeGroup"></path>
            </g>
        </g>
    </g>
</svg>
