<?xml version="1.0" encoding="UTF-8" standalone="no"?>
<!--

    Copyright (C) 2017-2018 Dremio Corporation

    Licensed under the Apache License, Version 2.0 (the "License");
    you may not use this file except in compliance with the License.
    You may obtain a copy of the License at

        http://www.apache.org/licenses/LICENSE-2.0

    Unless required by applicable law or agreed to in writing, software
    distributed under the License is distributed on an "AS IS" BASIS,
    WITHOUT WARRANTIES OR CONDITIONS OF ANY KIND, either express or implied.
    See the License for the specific language governing permissions and
    limitations under the License.

-->
<svg width="110px" height="110px" viewBox="0 0 110 110" version="1.1" xmlns="http://www.w3.org/2000/svg" xmlns:xlink="http://www.w3.org/1999/xlink" xmlns:sketch="http://www.bohemiancoding.com/sketch/ns">
    <!-- Generator: Sketch 3.5.2 (25235) - http://www.bohemiancoding.com/sketch -->
    <title>Avatar/Owl-Grey</title>
    <desc>Created with Sketch.</desc>
    <defs>
        <path id="path-1" d="M0,1.1904 L59.8744902,1.1904 L59.8744902,78 L0,78"></path>
        <path id="path-3" d="M0,1.1904 L59.8744902,1.1904 L59.8744902,78 L0,78 L0,1.1904 Z"></path>
    </defs>
    <g id="Avatars" stroke="none" stroke-width="1" fill="none" fill-rule="evenodd" sketch:type="MSPage">
        <g id="Avatar/Owl-Grey" sketch:type="MSArtboardGroup">
            <g id="Background-Circle" sketch:type="MSLayerGroup" fill="#2A394A">
                <circle id="Dark-Blue" sketch:type="MSShapeGroup" cx="55" cy="55" r="55"></circle>
            </g>
            <g id="Page-1" sketch:type="MSLayerGroup" transform="translate(24.000000, 17.000000)">
                <path d="M29.938202,72.90588 C46.4249471,72.90588 59.8736529,58.08108 59.8736529,39.90228 C59.8736529,21.72588 46.4249471,6.89988 29.938202,6.89988 C13.4490647,6.89988 0.000358823529,21.72588 0.000358823529,39.90228 C0.000358823529,58.08108 13.4490647,72.90588 29.938202,72.90588" id="Fill-1" fill="#2E2E2F" sketch:type="MSShapeGroup"></path>
                <g id="Group-5">
                    <mask id="mask-2" sketch:name="Clip 4" fill="white">
                        <use xlink:href="#path-1"></use>
                    </mask>
                    <g id="Clip-4"></g>
                    <path d="M30.2197588,2.57988 C32.6824843,2.57988 35.0686608,3.10548 37.3172882,4.08348 L52.7048373,1.19028 L45.4015824,10.10388 C51.5697588,16.98228 55.5574843,27.94308 55.5574843,40.28988 C55.5574843,61.11708 44.2078961,77.99988 30.2197588,77.99988 C16.2304255,77.99988 4.88801373,61.11708 4.88801373,40.28988 C4.88801373,27.94308 8.87454314,16.98228 15.0355431,10.10388 L7.73228824,1.19028 L23.1198373,4.08348 C25.373249,3.10548 27.7546412,2.57988 30.2197588,2.57988" id="Fill-3" fill="#CDCBCB" sketch:type="MSShapeGroup" mask="url(#mask-2)"></path>
                </g>
                <g id="Group-8">
                    <mask id="mask-4" sketch:name="Clip 7" fill="white">
                        <use xlink:href="#path-3"></use>
                    </mask>
                    <g id="Clip-7"></g>
                    <path d="M30.2197588,2.57988 C32.6824843,2.57988 35.0686608,3.10548 37.3172882,4.08348 L52.7048373,1.19028 L45.4015824,10.10388 C51.5697588,16.98228 55.5574843,27.94308 55.5574843,40.28988 C55.5574843,61.11708 44.2078961,77.99988 30.2197588,77.99988 L30.2197588,2.57988 Z" id="Fill-6" fill="#B5B5B4" sketch:type="MSShapeGroup" mask="url(#mask-4)"></path>
                </g>
                <path d="M40.421351,11.31324 C45.8228412,11.31324 50.2004882,15.70524 50.2004882,21.12324 C50.2004882,26.54004 45.8228412,30.93324 40.421351,30.93324 C35.0210569,30.93324 30.6422137,26.54004 30.6422137,21.12324 C30.6422137,15.70524 35.0210569,11.31324 40.421351,11.31324 M20.0222333,11.31324 C25.4165471,11.31324 29.7941941,15.70524 29.7941941,21.12324 C29.7941941,26.54004 25.4165471,30.93324 20.0222333,30.93324 C14.6171549,30.93324 10.2383118,26.54004 10.2383118,21.12324 C10.2383118,15.70524 14.6171549,11.31324 20.0222333,11.31324" id="Fill-9" fill="#FFFFFF" sketch:type="MSShapeGroup"></path>
                <path d="M20.0227118,14.36784 C23.7353392,14.36784 26.751849,17.39184 26.751849,21.12264 C26.751849,24.85464 23.7353392,27.87864 20.0227118,27.87864 C16.2981235,27.87864 13.2828098,24.85464 13.2828098,21.12264 C13.2828098,17.39184 16.2981235,14.36784 20.0227118,14.36784 M40.4218294,14.36784 C44.1452216,14.36784 47.155751,17.39184 47.155751,21.12264 C47.155751,24.85464 44.1452216,27.87864 40.4218294,27.87864 C36.7020255,27.87864 33.6891039,24.85464 33.6891039,21.12264 C33.6891039,17.39184 36.7020255,14.36784 40.4218294,14.36784" id="Fill-11" fill="#EF7721" sketch:type="MSShapeGroup"></path>
                <path d="M29.938202,28.89144 C32.684398,28.89144 36.4341039,31.58904 34.9103,33.88104 L29.938202,41.36664 L24.9637118,33.88104 C23.4399078,31.58904 27.1991824,28.89144 29.938202,28.89144" id="Fill-13" fill="#2E2E2F" sketch:type="MSShapeGroup"></path>
                <path d="M11.4784059,47.5266 C14.3765039,51.2454 16.9444843,51.4398 19.7983275,47.547 C19.974151,47.3082 20.2504451,47.1918 20.5255431,47.2134 C20.7886804,47.193 21.0625824,47.3022 21.2348176,47.5266 C24.1341118,51.2454 26.7020922,51.4398 29.5547392,47.547 C29.7293667,47.3082 30.0068569,47.1918 30.2843471,47.2134 C30.5462882,47.193 30.817798,47.3022 30.9924255,47.5266 C33.8917196,51.2454 36.4692686,51.4398 39.3123471,47.547 C39.4726216,47.3274 39.722602,47.211 39.9749745,47.211 L39.9797588,47.211 L39.9881314,47.211 L40.0084647,47.211 L40.0180333,47.211 L40.0264059,47.2122 C40.2584451,47.2266 40.4749353,47.3334 40.6244451,47.5266 C43.5237392,51.2454 46.0917196,51.4398 48.9431706,47.547 C49.2122882,47.1798 49.7289941,47.1006 50.092602,47.3706 C50.4574059,47.6394 50.5363471,48.1566 50.2720137,48.5226 C46.9744255,53.019 43.3790137,53.133 39.9941118,49.3398 C36.856798,53.0418 33.4838569,52.8858 30.2963078,49.2666 C27.1506216,53.0442 23.7465824,52.9086 20.5410922,49.2666 C17.1884843,53.2794 13.5619745,52.8762 10.184249,48.543 C9.9079549,48.1842 9.96775882,47.6646 10.3253863,47.385 C10.6818176,47.1054 11.2033078,47.169 11.4784059,47.5266 M35.5877588,54.0966 C38.4870529,57.8154 41.0562294,58.0086 43.9076804,54.1158 C44.175602,53.7498 44.6935039,53.6706 45.0559157,53.9394 C45.4207196,54.2082 45.4996608,54.7254 45.2353275,55.0926 C41.9162098,59.6166 38.2968765,59.7018 34.8940333,55.8354 C31.7387784,59.613 28.3467,59.4786 25.1364255,55.8354 C21.7850137,59.8482 18.1585039,59.4474 14.7831706,55.1118 C14.5008961,54.7542 14.5642882,54.2346 14.9207196,53.9538 C15.2783471,53.6742 15.7950529,53.739 16.0749353,54.0966 C18.9778176,57.8154 21.5410137,58.0086 24.3936608,54.1158 C24.5670922,53.8782 24.8469745,53.7618 25.1196804,53.7822 C25.3864059,53.7618 25.6555235,53.871 25.8325431,54.0966 C28.7306412,57.8154 31.2986216,58.0086 34.1512686,54.1158 C34.3270922,53.8782 34.6033863,53.7618 34.8784843,53.7822 C35.1416216,53.7618 35.4155235,53.871 35.5877588,54.0966 M21.1726216,60.6138 C20.8939353,60.2574 20.3760333,60.1938 20.0231902,60.4722 C19.6631706,60.7518 19.5997784,61.2726 19.8784647,61.6302 C23.2633667,65.9646 26.8838961,66.3678 30.2377,62.3538 C33.638151,66.2214 37.268249,66.135 40.5730137,61.611 C40.8421314,61.245 40.7619941,60.7278 40.4043667,60.4578 C40.0335824,60.1902 39.5168765,60.2682 39.250151,60.6342 C36.3975039,64.5282 33.8295235,64.3338 30.9302294,60.6138 C30.7544059,60.3894 30.4888765,60.2814 30.2197588,60.3018 C29.9446608,60.2802 29.6659745,60.3966 29.4937392,60.6342 C26.6410922,64.5282 24.0719157,64.3338 21.1726216,60.6138 M26.0550137,66.7422 C28.9495235,70.461 31.5187,70.6542 34.3761314,66.7614 C34.6392686,66.3954 35.1559745,66.3162 35.5231706,66.5862 C35.8843863,66.8538 35.9657196,67.3722 35.6954059,67.7382 C32.1849157,72.5298 28.3323471,72.3438 24.7584647,67.7574 C24.4785824,67.3998 24.5419745,66.8802 24.9019941,66.6006 C25.2572294,66.321 25.7727392,66.3846 26.0550137,66.7422 M16.0749353,41.3298 C18.9778176,45.0498 21.5410137,45.243 24.3936608,41.349 C24.5670922,41.1114 24.8469745,40.995 25.1196804,41.0166 C25.3864059,40.9962 25.6555235,41.1042 25.8325431,41.3298 C28.7306412,45.0498 31.2986216,45.243 34.1512686,41.349 C34.3270922,41.1114 34.6033863,40.995 34.8784843,41.0166 C35.1416216,40.9962 35.4155235,41.1042 35.5877588,41.3298 C38.4870529,45.0498 41.0562294,45.243 43.9076804,41.349 C44.175602,40.983 44.6935039,40.9038 45.0559157,41.1738 C45.4207196,41.4426 45.4996608,41.9598 45.2353275,42.3258 C41.9162098,46.8498 38.2968765,46.9362 34.8940333,43.0698 C31.7387784,46.8462 28.3467,46.7118 25.1364255,43.0698 C21.7850137,47.0826 18.1585039,46.6806 14.7831706,42.345 C14.5008961,41.9874 14.5642882,41.4678 14.9207196,41.1882 C15.2783471,40.9086 15.7950529,40.9722 16.0749353,41.3298" id="Fill-15" fill="#7D7C7D" sketch:type="MSShapeGroup"></path>
                <path d="M40.421351,16.98228 C42.7010765,16.98228 44.5490176,18.83628 44.5490176,21.12348 C44.5490176,23.40948 42.7010765,25.26348 40.421351,25.26348 C38.1416255,25.26348 36.2936843,23.40948 36.2936843,21.12348 L40.421351,21.12348 L40.421351,16.98228 Z M20.0222333,16.98228 C22.2959784,16.98228 24.1439196,18.83628 24.1439196,21.12348 C24.1439196,23.40948 22.2959784,25.26348 20.0222333,25.26348 C17.7365275,25.26348 15.8885863,23.40948 15.8885863,21.12348 L20.0222333,21.12348 L20.0222333,16.98228 Z" id="Fill-17" fill="#2E2E2F" sketch:type="MSShapeGroup"></path>
            </g>
        </g>
    </g>
</svg>
