<?xml version="1.0" encoding="UTF-8" standalone="no"?>
<!--

    Copyright (C) 2017-2018 Dremio Corporation

    Licensed under the Apache License, Version 2.0 (the "License");
    you may not use this file except in compliance with the License.
    You may obtain a copy of the License at

        http://www.apache.org/licenses/LICENSE-2.0

    Unless required by applicable law or agreed to in writing, software
    distributed under the License is distributed on an "AS IS" BASIS,
    WITHOUT WARRANTIES OR CONDITIONS OF ANY KIND, either express or implied.
    See the License for the specific language governing permissions and
    limitations under the License.

-->
<svg width="110px" height="110px" viewBox="0 0 110 110" version="1.1" xmlns="http://www.w3.org/2000/svg" xmlns:xlink="http://www.w3.org/1999/xlink" xmlns:sketch="http://www.bohemiancoding.com/sketch/ns">
    <!-- Generator: Sketch 3.5.2 (25235) - http://www.bohemiancoding.com/sketch -->
    <title>Avatar/Penguin</title>
    <desc>Created with Sketch.</desc>
    <defs>
        <path id="path-1" d="M0,1.1904 L64.3536111,1.1904 L64.3536111,78 L0,78"></path>
        <path id="path-3" d="M0,1.1904 L64.3536111,1.1904 L64.3536111,78 L0,78 L0,1.1904 Z"></path>
    </defs>
    <g id="Avatars" stroke="none" stroke-width="1" fill="none" fill-rule="evenodd" sketch:type="MSPage">
        <g id="Avatar/Penguin" sketch:type="MSArtboardGroup">
            <g id="Background-Circle" sketch:type="MSLayerGroup" fill="#C0E9F5">
                <path d="M55,110 C85.3756612,110 110,85.3756612 110,55 C110,24.6243388 85.3756612,0 55,0 C24.6243388,0 0,24.6243388 0,55 C0,85.3756612 24.6243388,110 55,110 Z" id="Light-Blue" sketch:type="MSShapeGroup"></path>
            </g>
            <g id="Page-1" sketch:type="MSLayerGroup" transform="translate(23.000000, 17.000000)">
                <g id="Group-3">
                    <mask id="mask-2" sketch:name="Clip 2" fill="white">
                        <use xlink:href="#path-1"></use>
                    </mask>
                    <g id="Clip-2"></g>
                    <path d="M32.0430741,1.19064 C42.4539074,1.19064 50.8918704,9.60384 50.8918704,19.98144 C50.8918704,41.28624 59.1396481,34.43664 59.1396481,50.98704 C59.1396481,65.90544 47.0075185,78.00024 32.0430741,78.00024 C18.1908519,78.00024 6.7677037,67.63584 5.14751852,54.26304 L0.117240741,61.67424 C0.117240741,61.67424 -0.353407407,59.67744 0.589092593,54.98064 C1.2427037,51.72024 4.50112963,45.29424 6.43548148,41.66544 C6.864,40.65864 7.35751852,39.81264 7.87992593,39.01224 L7.88474074,39.00744 C10.2548333,35.38584 13.1942778,32.70384 13.1942778,19.98144 C13.1942778,9.60384 21.6334444,1.19064 32.0430741,1.19064" id="Fill-1" fill="#1295B7" sketch:type="MSShapeGroup" mask="url(#mask-2)"></path>
                </g>
                <g id="Group-6">
                    <mask id="mask-4" sketch:name="Clip 5" fill="white">
                        <use xlink:href="#path-3"></use>
                    </mask>
                    <g id="Clip-5"></g>
                    <path d="M32.0430741,1.19064 C42.4539074,1.19064 50.8918704,9.60384 50.8918704,19.98144 C50.8918704,32.96904 53.9565,35.49384 56.349463,39.23544 L56.4698333,39.00744 C56.4698333,39.00744 62.8241852,50.28384 63.7654815,54.98064 C64.7079815,59.67744 64.2349259,61.67424 64.2349259,61.67424 L58.9783519,53.92584 C57.5098333,67.46184 46.0156667,78.00024 32.0430741,78.00024 L32.0430741,1.19064 Z" id="Fill-4" fill="#0080AA" sketch:type="MSShapeGroup" mask="url(#mask-4)"></path>
                </g>
                <path d="M24.0238796,27.33048 C23.9600833,27.33048 23.8986944,27.32928 23.8324907,27.32808 C23.8986944,27.32928 23.9600833,27.33048 24.0238796,27.33048 M40.2546204,27.32808 C40.1920278,27.33048 40.1258241,27.33048 40.0620278,27.33048 C40.1258241,27.33048 40.1908241,27.33048 40.2546204,27.32808 M16.4766574,22.04448 C16.3827685,25.86888 15.9807315,29.89488 14.7481389,33.44808 C13.8273056,36.10728 12.6356389,37.90368 11.0768426,40.18008 C10.2414722,41.40048 9.58063889,42.49488 9.12082407,43.91328 C8.40462037,46.12128 8.25776852,48.68448 8.25776852,50.98728 C8.25776852,64.08528 18.9033241,74.70288 32.0429537,74.70288 C45.1825833,74.70288 55.8329537,64.08528 55.8329537,50.98728 C55.8329537,48.68448 55.6824907,46.12128 54.9650833,43.91328 C54.5052685,42.49488 53.8480463,41.40048 53.0090648,40.18008 C51.4514722,37.90368 50.2586019,36.10728 49.3377685,33.44808 C48.1075833,29.89488 47.7043426,25.86888 47.60925,22.04448 C47.9149907,21.19848 48.0811019,20.28648 48.0811019,19.33608 C48.0811019,14.92128 44.4916574,11.34168 40.0620278,11.34168 C35.6348056,11.34168 32.0429537,14.92128 32.0429537,19.33608 C32.0429537,14.92128 28.4535093,11.34168 24.0238796,11.34168 C19.59425,11.34168 16.0048056,14.92128 16.0048056,19.33608 C16.0048056,20.28648 16.1757315,21.19848 16.4766574,22.04448" id="Fill-7" fill="#FFFFFF" sketch:type="MSShapeGroup"></path>
                <path d="M40.2551019,27.32808 C40.1913056,27.33048 40.1263056,27.33048 40.0625093,27.33048 C40.1263056,27.33048 40.1901019,27.33048 40.2551019,27.32808 L40.2551019,27.32808 Z M32.0434352,74.70288 C45.1830648,74.70288 55.8322315,64.08528 55.8322315,50.98728 C55.8322315,48.68448 55.6817685,46.12128 54.9655648,43.91328 C54.50575,42.49488 53.8485278,41.40048 53.0095463,40.18008 C51.4519537,37.90368 50.2590833,36.10728 49.33825,33.44808 C48.1068611,29.89488 47.7036204,25.86888 47.6085278,22.04448 C47.9142685,21.19848 48.0815833,20.28648 48.0815833,19.33608 C48.0815833,14.92128 44.4921389,11.34168 40.0625093,11.34168 C35.6340833,11.34168 32.0434352,14.92128 32.0434352,19.33608 L32.0434352,74.70288 Z" id="Fill-9" fill="#E1E2E3" sketch:type="MSShapeGroup"></path>
                <path d="M34.0802222,19.33596 C34.0802222,22.63116 36.7572593,25.30116 40.0626296,25.30116 C43.368,25.30116 46.045037,22.63116 46.045037,19.33596 C46.045037,16.04076 43.368,13.37076 40.0626296,13.37076 C36.7572593,13.37076 34.0802222,16.04076 34.0802222,19.33596" id="Fill-11" fill="#F6B726" sketch:type="MSShapeGroup"></path>
                <path d="M30.0071296,19.33596 C30.0071296,16.04076 27.3288889,13.37076 24.0235185,13.37076 C20.7181481,13.37076 18.0411111,16.04076 18.0411111,19.33596 C18.0411111,22.63116 20.7181481,25.30116 24.0235185,25.30116 C27.3288889,25.30116 30.0071296,22.63116 30.0071296,19.33596" id="Fill-13" fill="#F7BD42" sketch:type="MSShapeGroup"></path>
                <path d="M36.5945185,19.33596 C36.5945185,21.24756 38.1485,22.79676 40.0623889,22.79676 C41.9810926,22.79676 43.5326667,21.24756 43.5326667,19.33596 C43.5326667,17.42436 41.9810926,15.87636 40.0623889,15.87636 L40.0623889,19.33596 L36.5945185,19.33596 Z" id="Fill-15" fill="#2E2E2F" sketch:type="MSShapeGroup"></path>
                <path d="M27.4939167,19.33596 C27.4939167,17.42436 25.9423426,15.87636 24.0236389,15.87636 L24.0236389,19.33596 L20.5533611,19.33596 C20.5533611,21.24756 22.1061389,22.79676 24.0236389,22.79676 C25.9423426,22.79676 27.4939167,21.24756 27.4939167,19.33596" id="Fill-17" fill="#2E2E2F" sketch:type="MSShapeGroup"></path>
                <path d="M32.0430741,25.24104 C34.2795556,25.24104 37.3333519,27.42384 36.093537,29.27784 L32.0430741,35.33424 L27.9938148,29.27784 C26.7564074,27.42264 29.8077963,25.24104 32.0430741,25.24104" id="Fill-19" fill="#F6B726" sketch:type="MSShapeGroup"></path>
                <path d="M44.1188704,71.24064 C48.5256296,71.24064 52.2715556,74.06304 53.6365556,77.99424 L34.5987778,77.99424 C35.9649815,74.06304 39.7109074,71.24064 44.1188704,71.24064 M19.9677593,71.24064 C24.3757222,71.24064 28.1216481,74.06304 29.4878519,77.99424 L10.4488704,77.99424 C11.8186852,74.06304 15.5597963,71.24064 19.9677593,71.24064" id="Fill-21" fill="#F6B726" sketch:type="MSShapeGroup"></path>
            </g>
        </g>
    </g>
</svg>
