<?xml version="1.0" encoding="UTF-8" standalone="no"?>
<!--

    Copyright (C) 2017-2018 Dremio Corporation

    Licensed under the Apache License, Version 2.0 (the "License");
    you may not use this file except in compliance with the License.
    You may obtain a copy of the License at

        http://www.apache.org/licenses/LICENSE-2.0

    Unless required by applicable law or agreed to in writing, software
    distributed under the License is distributed on an "AS IS" BASIS,
    WITHOUT WARRANTIES OR CONDITIONS OF ANY KIND, either express or implied.
    See the License for the specific language governing permissions and
    limitations under the License.

-->
<svg width="110px" height="110px" viewBox="0 0 110 110" version="1.1" xmlns="http://www.w3.org/2000/svg" xmlns:xlink="http://www.w3.org/1999/xlink" xmlns:sketch="http://www.bohemiancoding.com/sketch/ns">
    <!-- Generator: Sketch 3.5.2 (25235) - http://www.bohemiancoding.com/sketch -->
    <title>Avatar/Pig</title>
    <desc>Created with Sketch.</desc>
    <defs>
        <path id="path-1" d="M0,1.10827907 L83.7027692,1.10827907 L83.7027692,56 L0,56"></path>
        <path id="path-3" d="M0,1.10827907 L83.7027692,1.10827907 L83.7027692,56 L0,56 L0,1.10827907 Z"></path>
    </defs>
    <g id="Avatars" stroke="none" stroke-width="1" fill="none" fill-rule="evenodd" sketch:type="MSPage">
        <g id="Avatar/Pig" sketch:type="MSArtboardGroup">
            <g id="Background-Circle" sketch:type="MSLayerGroup" fill="#46B4D5">
                <circle id="Aqua" sketch:type="MSShapeGroup" cx="55" cy="55" r="55"></circle>
            </g>
            <g id="Page-1" sketch:type="MSLayerGroup" transform="translate(13.000000, 27.000000)">
                <path d="M4.60176923,29.0219349 L15.606,28.894307 C17.2955385,28.8747721 18.8072308,27.9540279 19.5813846,26.4628651 L24.6709231,16.7449116 C25.4176154,15.3201674 25.3587692,13.654493 24.5153077,12.2831442 C23.6692308,10.9144 22.2033077,10.1082605 20.5896154,10.1277953 L9.58538462,10.2567256 C7.89584615,10.2749581 6.39069231,11.1957023 5.61523077,12.6881674 L0.520461538,22.4061209 C-0.224923077,23.8308651 -0.166076923,25.4965395 0.677384615,26.866586 C1.52346154,28.2353302 2.98807692,29.0414698 4.60176923,29.0219349" id="Fill-1" fill="#F9C6C5" sketch:type="MSShapeGroup"></path>
                <path d="M4.56868462,26.1285581 L15.5729154,26.0009302 C16.1927615,25.9931163 16.7197615,25.6701395 17.0061462,25.1244651 L22.0943769,15.4065116 C22.3689923,14.8829767 22.3493769,14.3008372 22.0381462,13.7981395 C21.7282231,13.2954419 21.2156077,13.0154419 20.6232231,13.0219535 L9.61899231,13.1495814 C9.00045385,13.1573953 8.47214615,13.4803721 8.18706923,14.0260465 L3.09753077,23.744 C2.82291538,24.2675349 2.84383846,24.8496744 3.15376154,25.3510698 C3.46368462,25.8537674 3.98022308,26.1363721 4.56868462,26.1285581" id="Fill-3" fill="#DF3E52" sketch:type="MSShapeGroup"></path>
                <path d="M79.0994308,29.0219349 L68.0952,28.894307 C66.4056615,28.8747721 64.9044308,27.9540279 64.1198154,26.4628651 L59.0302769,16.7449116 C58.2848923,15.3201674 58.3424308,13.654493 59.1872,12.2831442 C60.0332769,10.9144 61.4978923,10.1082605 63.1115846,10.1277953 L74.1171231,10.2567256 C75.8053538,10.2749581 77.3105077,11.1957023 78.0925077,12.6881674 L83.1807385,22.4061209 C83.9274308,23.8308651 83.8698923,25.4965395 83.0238154,26.866586 C82.1803538,28.2353302 80.7131231,29.0414698 79.0994308,29.0219349" id="Fill-5" fill="#F9C6C5" sketch:type="MSShapeGroup"></path>
                <path d="M79.1339538,26.1285581 L68.1297231,26.0009302 C67.5190308,25.9931163 66.9828769,25.6701395 66.6978,25.1244651 L61.6069538,15.4065116 C61.3336462,14.8829767 61.3611077,14.3008372 61.6644923,13.7981395 C61.9744154,13.2954419 62.4844154,13.0154419 63.0781077,13.0219535 L74.0823385,13.1495814 C74.7113385,13.1573953 75.2291846,13.4803721 75.5155692,14.0260465 L80.6051077,23.744 C80.8797231,24.2675349 80.8588,24.8496744 80.5488769,25.3510698 C80.2389538,25.8537674 79.7263385,26.1363721 79.1339538,26.1285581" id="Fill-7" fill="#DF3E52" sketch:type="MSShapeGroup"></path>
                <g id="Group-11">
                    <mask id="mask-2" sketch:name="Clip 10" fill="white">
                        <use xlink:href="#path-1"></use>
                    </mask>
                    <g id="Clip-10"></g>
                    <path d="M41.8519077,1.10775814 C57.0721385,1.10775814 69.4102154,13.3952 69.4102154,28.5542698 C69.4102154,43.7120372 57.0721385,55.9994791 41.8519077,55.9994791 C26.6303692,55.9994791 14.2922923,43.7120372 14.2922923,28.5542698 C14.2922923,13.3952 26.6303692,1.10775814 41.8519077,1.10775814" id="Fill-9" fill="#F9D2D1" sketch:type="MSShapeGroup" mask="url(#mask-2)"></path>
                </g>
                <g id="Group-14">
                    <mask id="mask-4" sketch:name="Clip 13" fill="white">
                        <use xlink:href="#path-3"></use>
                    </mask>
                    <g id="Clip-13"></g>
                    <path d="M41.8519077,1.10775814 C57.0721385,1.10775814 69.4102154,13.3952 69.4102154,28.5542698 C69.4102154,43.7120372 57.0721385,55.9994791 41.8519077,55.9994791 L41.8519077,1.10775814 Z" id="Fill-12" fill="#F9C6C5" sketch:type="MSShapeGroup" mask="url(#mask-4)"></path>
                </g>
                <path d="M41.8519077,29.2368186 C50.6265231,29.2368186 57.7246769,34.1895628 57.7246769,40.2974698 C57.7246769,46.4053767 50.6265231,51.3568186 41.8519077,51.3568186 C33.0851385,51.3568186 25.9778308,46.4053767 25.9778308,40.2974698 C25.9778308,34.1895628 33.0851385,29.2368186 41.8519077,29.2368186" id="Fill-15" fill="#F49B9D" sketch:type="MSShapeGroup"></path>
                <path d="M41.8519077,51.3573395 L41.8519077,29.2373395 C50.6265231,29.2373395 57.7246769,34.1887814 57.7246769,40.2966884 C57.7246769,46.4045953 50.6265231,51.3573395 41.8519077,51.3573395" id="Fill-17" fill="#F17D7E" sketch:type="MSShapeGroup"></path>
                <path d="M50.1131231,36.4479256 C52.5598154,36.4479256 54.5501231,38.4235535 54.5501231,40.8602047 C54.5501231,43.2981581 52.5598154,45.2724837 50.1131231,45.2724837 C47.6651231,45.2724837 45.6800462,43.2981581 45.6800462,40.8602047 C45.6800462,38.4235535 47.6651231,36.4479256 50.1131231,36.4479256 M33.5891231,36.4479256 C36.0371231,36.4479256 38.0208923,38.4235535 38.0208923,40.8602047 C38.0208923,43.2981581 36.0371231,45.2724837 33.5891231,45.2724837 C31.1424308,45.2724837 29.1586615,43.2981581 29.1586615,40.8602047 C29.1586615,38.4235535 31.1424308,36.4479256 33.5891231,36.4479256" id="Fill-19" fill="#DF3E52" sketch:type="MSShapeGroup"></path>
                <path d="M57.6182308,20.253507 C59.8164615,20.253507 61.5988462,22.0285767 61.5988462,24.217786 C61.5988462,26.4082977 59.8164615,28.1820651 57.6182308,28.1820651 C55.4226154,28.1820651 53.6363077,26.4082977 53.6363077,24.217786 L57.6182308,24.217786 L57.6182308,20.253507 Z M26.0845385,20.253507 C28.288,20.253507 30.0651538,22.0285767 30.0651538,24.217786 C30.0651538,26.4082977 28.288,28.1820651 26.0845385,28.1820651 C23.885,28.1820651 22.1039231,26.4082977 22.1039231,24.217786 L26.0845385,24.217786 L26.0845385,20.253507 Z" id="Fill-21" fill="#2E2E2F" sketch:type="MSShapeGroup"></path>
            </g>
        </g>
    </g>
</svg>
