<?xml version="1.0" encoding="UTF-8" standalone="no"?>
<!--

    Copyright (C) 2017-2018 Dremio Corporation

    Licensed under the Apache License, Version 2.0 (the "License");
    you may not use this file except in compliance with the License.
    You may obtain a copy of the License at

        http://www.apache.org/licenses/LICENSE-2.0

    Unless required by applicable law or agreed to in writing, software
    distributed under the License is distributed on an "AS IS" BASIS,
    WITHOUT WARRANTIES OR CONDITIONS OF ANY KIND, either express or implied.
    See the License for the specific language governing permissions and
    limitations under the License.

-->
<svg width="110px" height="110px" viewBox="0 0 110 110" version="1.1" xmlns="http://www.w3.org/2000/svg" xmlns:xlink="http://www.w3.org/1999/xlink" xmlns:sketch="http://www.bohemiancoding.com/sketch/ns">
    <!-- Generator: Sketch 3.5.2 (25235) - http://www.bohemiancoding.com/sketch -->
    <title>Avatar/PolarBear</title>
    <desc>Created with Sketch.</desc>
    <defs>
        <path id="path-1" d="M0,1.10658462 L71.9213538,1.10658462 L71.9213538,72 L0,72 L0,1.10658462 Z"></path>
        <path id="path-3" d="M0,1.10658462 L71.9213538,1.10658462 L71.9213538,72 L0,72 L0,1.10658462 Z"></path>
    </defs>
    <g id="Avatars" stroke="none" stroke-width="1" fill="none" fill-rule="evenodd" sketch:type="MSPage">
        <g id="Avatar/PolarBear" sketch:type="MSArtboardGroup">
            <g id="Background-Circle" sketch:type="MSLayerGroup" fill="#46B4D5">
                <circle id="Aqua" sketch:type="MSShapeGroup" cx="55" cy="55" r="55"></circle>
            </g>
            <g id="Page-1" sketch:type="MSLayerGroup" transform="translate(20.000000, 20.000000)">
                <g id="Group-3">
                    <mask id="mask-2" sketch:name="Clip 2" fill="white">
                        <use xlink:href="#path-1"></use>
                    </mask>
                    <g id="Clip-2"></g>
                    <path d="M42.4341415,3.90771692 L42.5559877,3.93097846 L42.5781415,3.84457846 C42.8916185,2.69036308 44.09568,2.00470154 45.2665108,2.31374769 C46.3575877,2.60285538 47.0343877,3.65184 46.8682338,4.72630154 C47.3977108,3.77257846 48.5818338,3.34390154 49.6263877,3.76704 C50.7473723,4.22119385 51.2868185,5.48396308 50.8249108,6.58944 C50.7972185,6.64925538 50.7706338,6.70685538 50.7407262,6.76334769 L50.8514954,6.81873231 C50.87808,6.76113231 50.9079877,6.70353231 50.9423262,6.64704 C51.5471262,5.61245538 52.8918646,5.25799385 53.9397415,5.85504 C54.9156185,6.41110154 55.2944492,7.59744 54.8546954,8.59214769 C55.6167877,7.80790154 56.8729108,7.69602462 57.7701415,8.37060923 C58.7338338,9.09504 58.9188185,10.4530708 58.1844185,11.4023631 C58.1102031,11.4976246 58.0293415,11.5840246 57.9451569,11.6637785 L58.0514954,11.7579323 C58.1201723,11.6637785 58.1977108,11.5729477 58.2830031,11.4887631 C59.1414646,10.6447015 60.5305108,10.6435938 61.3867569,11.4887631 C62.1854031,12.2741169 62.2407877,13.51584 61.5529108,14.3665477 C62.4944492,13.8027323 63.7394954,14.0143015 64.4318031,14.8960246 C65.1695262,15.8408862 64.9934031,17.1989169 64.0308185,17.9299938 C63.8901415,18.0363323 63.7406031,18.12384 63.5855262,18.1925169 L63.6863262,18.3464862 C63.8103877,18.2301785 63.9499569,18.1260554 64.1083569,18.03744 C65.1540185,17.4403938 66.4976492,17.7948554 67.1024492,18.82944 C67.6718031,19.7931323 67.39488,21.0071631 66.5054031,21.65184 C67.5643569,21.3472246 68.7097108,21.8689477 69.1472492,22.8957785 C69.6102646,23.9979323 69.0830031,25.2651323 67.9642338,25.7259323 C67.7626338,25.8101169 67.5510646,25.8610708 67.3406031,25.8821169 L67.4126031,26.1036554 C67.5920492,25.9928862 67.7914338,25.9064862 68.0074338,25.8488862 C69.1771569,25.53984 70.3823262,26.2243938 70.6958031,27.3786092 C70.9871262,28.4530708 70.40448,29.5552246 69.3787569,29.9528862 C70.4798031,29.9285169 71.4490338,30.7249477 71.59968,31.8271015 C71.7602954,33.0112246 70.9184492,34.1000862 69.7166031,34.2595938 C69.4718031,34.2928246 69.2303262,34.2828554 69.0010338,34.2385477 L69.0154338,34.5055015 C69.2402954,34.4301785 69.4773415,34.3903015 69.7265723,34.3903015 C70.9394954,34.3903015 71.9209108,35.3584246 71.9209108,36.5536246 C71.9209108,37.66464 71.0679877,38.5807015 69.9735877,38.7036554 C71.0447262,38.9617477 71.7702646,39.9775015 71.6318031,41.0807631 C71.4711877,42.2659938 70.3701415,43.1023015 69.1694031,42.9505477 C68.9312492,42.9195323 68.7086031,42.8541785 68.5025723,42.7567015 L68.4560492,43.00704 C68.6820185,42.9948554 68.9146338,43.0170092 69.1428185,43.0779323 C70.3136492,43.3880862 71.00928,44.5733169 70.6958031,45.7275323 C70.4033723,46.8019938 69.3399877,47.4688246 68.2500185,47.3071015 C69.2159262,47.8299323 69.65568,48.99744 69.2214646,50.0242708 C68.7617723,51.1297477 67.4790646,51.6581169 66.3569723,51.2050708 C66.17088,51.12864 66.0002954,51.0300554 65.8463262,50.9137477 L65.7554954,51.1009477 C65.9415877,51.1496862 66.1254646,51.2216862 66.30048,51.3213785 C67.3483569,51.9184246 67.7094646,53.2421169 67.1024492,54.2767015 C66.5386338,55.2392862 65.33568,55.6136862 64.3265723,55.1794708 C65.1207877,55.9304862 65.2359877,57.1688862 64.5514338,58.0517169 C63.8170338,59.0021169 62.4379569,59.1848862 61.47648,58.4604554 C61.3546338,58.3696246 61.2471877,58.2688246 61.1486031,58.1602708 L61.0466954,58.2832246 C61.1663262,58.3618708 61.2815262,58.4538092 61.3867569,58.5579323 C62.2441108,59.4031015 62.2452185,60.7733169 61.3867569,61.6173785 C60.5903262,62.40384 59.33088,62.4581169 58.4679877,61.7813169 C59.0406646,62.7095631 58.8257723,63.9346708 57.9329723,64.6136862 C56.9714954,65.3425477 55.5935262,65.16864 54.85248,64.2237785 C54.79488,64.1506708 54.7472492,64.0753477 54.7018338,63.9989169 L54.5910646,64.0720246 C54.6464492,64.1429169 54.7018338,64.2171323 54.7428185,64.2957785 C55.3487262,65.3303631 54.9898338,66.6540554 53.9397415,67.2511015 C52.9627569,67.8060554 51.7321108,67.5379938 51.0785723,66.66624 C51.3842954,67.7074708 50.8548185,68.8351015 49.8146954,69.2626708 C48.6959262,69.7234708 47.4110031,69.2028554 46.9479877,68.1007015 C46.9269415,68.0597169 46.9092185,68.0187323 46.8948185,67.97664 L46.7807262,68.0165169 C46.7940185,68.0586092 46.8095262,68.1007015 46.8183877,68.1427938 C47.1329723,69.2970092 46.4395569,70.4833477 45.2665108,70.7923938 C44.1787569,71.0792862 43.0622031,70.5066092 42.65568,69.4963938 C42.6789415,70.5819323 41.8714338,71.5356554 40.75488,71.6829785 C39.5541415,71.8435938 38.4464492,71.0117169 38.2858338,69.8287015 L38.2769723,69.7544862 L38.1518031,69.76224 L38.1540185,69.8364554 C38.1540185,71.0316554 37.1714954,71.9997785 35.9574646,71.9997785 C34.8309415,71.9997785 33.90048,71.1601477 33.7764185,70.0801477 C33.5172185,71.1346708 32.4848492,71.8513477 31.3649723,71.7095631 C30.1642338,71.5567015 29.3146338,70.4722708 29.4697108,69.2881477 L29.4830031,69.1984246 L29.3633723,69.1751631 L29.3390031,69.2626708 C29.0244185,70.4157785 27.8214646,71.10144 26.6506338,70.7923938 C25.5606646,70.5043938 24.8838646,69.4543015 25.0489108,68.37984 C24.5194338,69.3346708 23.3353108,69.7633477 22.2929723,69.3402092 C21.1697723,68.8860554 20.6336492,67.6221785 21.0944492,66.5167015 C21.1199262,66.4568862 21.1487262,66.3992862 21.1753108,66.3439015 L21.0656492,66.2885169 C21.0379569,66.3461169 21.0102646,66.4037169 20.9759262,66.4591015 C20.3700185,67.4936862 19.0274954,67.8481477 17.9774031,67.2511015 C17.0004185,66.69504 16.62048,65.5098092 17.0624492,64.5139938 C16.2992492,65.29824 15.0464492,65.4112246 14.1470031,64.73664 C13.1833108,64.0111015 12.9972185,62.6541785 13.7327262,61.7037785 C13.8069415,61.6085169 13.8855877,61.5221169 13.9719877,61.4423631 L13.8656492,61.3482092 C13.8002954,61.4423631 13.7194338,61.5331938 13.6330338,61.6173785 C12.77568,62.4625477 11.3866338,62.4625477 10.5281723,61.6173785 C9.73174154,60.8320246 9.67635692,59.5903015 10.3642338,58.7395938 C9.42491077,59.3034092 8.17875692,59.09184 7.48866462,58.2112246 C6.74872615,57.2652554 6.92595692,55.9072246 7.88632615,55.1761477 C8.02589538,55.0698092 8.17875692,54.9823015 8.33051077,54.9136246 L8.23081846,54.7607631 C8.10786462,54.8759631 7.96718769,54.9811938 7.81321846,55.0687015 C6.76312615,55.6657477 5.42060308,55.3112862 4.81469538,54.2767015 C4.24977231,53.3130092 4.52337231,52.0989785 5.41063385,51.4543015 C4.35168,51.7589169 3.20743385,51.2383015 2.77211077,50.2103631 C2.30798769,49.1082092 2.83414154,47.8410092 3.95401846,47.3802092 C4.15672615,47.2960246 4.36718769,47.2450708 4.57875692,47.2240246 L4.50564923,47.0035938 C4.32398769,47.1132554 4.12460308,47.1996554 3.91081846,47.2572554 C2.73998769,47.5663015 1.53481846,46.8817477 1.22134154,45.7275323 C0.933341538,44.6541785 1.51266462,43.5509169 2.53949538,43.1543631 C1.44066462,43.1776246 0.470326154,42.3823015 0.316356923,41.27904 C0.155741538,40.0960246 0.998695385,39.0060554 2.19943385,38.8465477 C2.44644923,38.8133169 2.68792615,38.8232862 2.91721846,38.8675938 L2.90060308,38.60064 C2.67795692,38.6759631 2.43869538,38.7169477 2.19057231,38.7169477 C0.978756923,38.71584 -0.000443076923,37.7477169 -0.000443076923,36.5536246 C-0.000443076923,35.4415015 0.846941538,34.52544 1.94134154,34.4035938 C0.874633846,34.1443938 0.147987692,33.12864 0.29088,32.0253785 C0.447064615,30.8412554 1.54589538,30.00384 2.74884923,30.1555938 C2.98589538,30.1866092 3.20964923,30.2530708 3.41568,30.34944 L3.46220308,30.0991015 C3.23512615,30.1112862 3.00361846,30.0891323 2.77321846,30.0293169 C1.60349538,29.7191631 0.907864615,28.5328246 1.22134154,27.3786092 C1.51377231,26.3052554 2.57715692,25.6373169 3.66712615,25.79904 C2.70121846,25.2762092 2.26589538,24.1098092 2.69457231,23.0818708 C3.15537231,21.9763938 4.44029538,21.4480246 5.56017231,21.9021785 C5.74737231,21.9775015 5.91795692,22.0760862 6.07081846,22.1923938 L6.16164923,22.0051938 C5.97444923,21.9575631 5.79278769,21.8844554 5.61777231,21.7847631 C4.56989538,21.1877169 4.20989538,19.8651323 4.81469538,18.82944 C5.37851077,17.8668554 6.58146462,17.4924554 7.59057231,17.9277785 C6.79524923,17.1756554 6.68115692,15.9383631 7.36571077,15.0544246 C8.10121846,14.1051323 9.47918769,13.9212554 10.4417723,14.6456862 C10.5625108,14.7365169 10.6710646,14.8373169 10.7663262,14.9458708 L10.8704492,14.8229169 C10.7541415,14.7442708 10.6356185,14.6523323 10.5281723,14.5482092 C9.67303385,13.70304 9.67192615,12.3328246 10.5281723,11.4887631 C11.3268185,10.7023015 12.5862646,10.6480246 13.4480492,11.3248246 C12.8775877,10.3965785 13.09248,9.17257846 13.98528,8.49245538 C14.9445415,7.76248615 16.3247262,7.93750154 17.0646646,8.88236308 C17.1233723,8.95547077 17.1721108,9.02968615 17.2186338,9.10833231 L17.3249723,9.03522462 C17.2718031,8.96322462 17.2197415,8.89011692 17.1732185,8.81036308 C16.5695262,7.77577846 16.9284185,6.45208615 17.9774031,5.85504 C18.9543877,5.30008615 20.1839262,5.56814769 20.83968,6.44100923 C20.5317415,5.39867077 21.0601108,4.27104 22.1024492,3.84347077 C23.2223262,3.38267077 24.5083569,3.90328615 24.9735877,5.00544 C24.9913108,5.04642462 25.0068185,5.08851692 25.0256492,5.12950154 L25.1364185,5.08851692 C25.1231262,5.04753231 25.1098338,5.00654769 25.0987569,4.96334769 C24.78528,3.81024 25.4798031,2.62279385 26.6506338,2.31374769 C27.7406031,2.02685538 28.8582646,2.59953231 29.2625723,3.60974769 C29.2382031,2.52420923 30.0468185,1.57048615 31.1633723,1.42316308 C32.3641108,1.26365538 33.4718031,2.09442462 33.6324185,3.27744 L33.6401723,3.35276308 L33.7653415,3.34390154 L33.7642338,3.26968615 C33.7642338,2.07448615 34.7456492,1.10636308 35.9574646,1.10636308 C37.0873108,1.10636308 38.0177723,1.94599385 38.1396185,3.02710154 C38.4010338,1.97036308 39.4322954,1.25479385 40.5521723,1.39657846 C41.7540185,1.54944 42.6025108,2.63387077 42.4485415,3.81910154 L42.4341415,3.90771692 Z" id="Fill-1" fill="#FFFFFF" sketch:type="MSShapeGroup" mask="url(#mask-2)"></path>
                </g>
                <g id="Group-6">
                    <mask id="mask-4" sketch:name="Clip 5" fill="white">
                        <use xlink:href="#path-3"></use>
                    </mask>
                    <g id="Clip-5"></g>
                    <path d="M67.4123815,47.0033723 L67.3968738,47.0498954 C67.4400738,47.0532185 67.4788431,47.0576492 67.5165046,47.0631877 C67.4810585,47.0443569 67.44672,47.0244185 67.4123815,47.0033723 L67.4123815,47.0033723 Z M69.0152123,38.6004185 L69.0107815,38.6834954 C69.0728123,38.6713108 69.1403815,38.6613415 69.1990892,38.6546954 C69.1403815,38.6391877 69.0761354,38.6214646 69.0152123,38.6004185 L69.0152123,38.6004185 Z M68.4558277,30.0999877 L68.4680123,30.1675569 C68.5178585,30.1442954 68.5677046,30.1221415 68.6197662,30.1022031 C68.5643815,30.1033108 68.5089969,30.1033108 68.4558277,30.0999877 L68.4558277,30.0999877 Z M65.7552738,22.00608 L65.7707815,22.0249108 L65.8173046,21.9894646 L65.7552738,22.00608 Z M42.43392,3.90749538 L42.5568738,3.93075692 L42.57792,3.84435692 C42.8913969,2.69014154 44.0954585,2.00448 45.2662892,2.31463385 C46.3573662,2.60263385 47.0352738,3.65161846 46.8680123,4.72718769 C47.3985969,3.77346462 48.5816123,3.34368 49.6261662,3.76681846 C50.7471508,4.22097231 51.2865969,5.48484923 50.8246892,6.59032615 C50.7969969,6.64903385 50.77152,6.70663385 50.7405046,6.76312615 L50.8512738,6.81961846 C50.8778585,6.76091077 50.9088738,6.70441846 50.9421046,6.64681846 C51.5480123,5.61223385 52.8927508,5.25888 53.93952,5.85592615 C54.9165046,6.41198769 55.2953354,7.59721846 54.8544738,8.59303385 C55.6176738,7.80768 56.8726892,7.69691077 57.76992,8.37038769 C58.7336123,9.09481846 58.9185969,10.4528492 58.1841969,11.4021415 C58.1110892,11.4974031 58.02912,11.5838031 57.9449354,11.6635569 L58.0512738,11.7588185 C58.1199508,11.6635569 58.1985969,11.5738338 58.2838892,11.4885415 C59.1412431,10.64448 60.5302892,10.6433723 61.3876431,11.4885415 C62.1851815,12.2738954 62.2405662,13.5167262 61.5526892,14.3663262 C62.4953354,13.8025108 63.7403815,14.01408 64.4326892,14.8969108 C65.1704123,15.8406646 64.9931815,17.1998031 64.0305969,17.9297723 C63.88992,18.0372185 63.7414892,18.1236185 63.5853046,18.1922954 L63.6872123,18.3462646 C63.8101662,18.2299569 63.9497354,18.1269415 64.1092431,18.0383262 C65.1537969,17.44128 66.4974277,17.7946338 67.1033354,18.8292185 C67.6715815,19.7940185 67.3946585,21.0069415 66.5062892,21.6516185 C67.5652431,21.3470031 68.7094892,21.8687262 69.1470277,22.8955569 C69.6100431,23.9977108 69.0827815,25.2660185 67.9640123,25.7268185 C67.7624123,25.8098954 67.5508431,25.8608492 67.3414892,25.8830031 L67.4123815,26.1034338 C67.5918277,25.9926646 67.7912123,25.9062646 68.0072123,25.8486646 C69.1780431,25.5407262 70.3832123,26.2241723 70.6955815,27.3783877 C70.9880123,28.4528492 70.4042585,29.5561108 69.3785354,29.9526646 C70.4806892,29.9282954 71.44992,30.7247262 71.5994585,31.82688 C71.7611815,33.0121108 70.9182277,34.1009723 69.7163815,34.26048 C69.4715815,34.2926031 69.2312123,34.2837415 69.00192,34.2383262 L69.0152123,34.50528 C69.2400738,34.4299569 69.47712,34.39008 69.7263508,34.39008 C70.9403815,34.39008 71.9206892,35.3582031 71.9206892,36.5534031 C71.9206892,37.6644185 71.0688738,38.58048 69.9744738,38.7034338 C71.0445046,38.9615262 71.7711508,39.97728 71.6326892,41.0805415 C71.4709662,42.2657723 70.36992,43.1031877 69.1691815,42.9503262 C68.9310277,42.9204185 68.7083815,42.8539569 68.5023508,42.7575877 L68.4558277,43.0068185 C68.6817969,42.9946338 68.9144123,43.0167877 69.1425969,43.0777108 C70.3134277,43.3878646 71.0090585,44.5730954 70.6955815,45.7273108 C70.4031508,46.8017723 69.3397662,47.4686031 68.2497969,47.30688 C69.2157046,47.8297108 69.6554585,48.9972185 69.2223508,50.0251569 C68.7626585,51.1306338 67.4799508,51.6578954 66.3567508,51.2048492 C66.1706585,51.1295262 66.0011815,51.0298338 65.8461046,50.9135262 L65.7552738,51.1007262 C65.9413662,51.1494646 66.1252431,51.2225723 66.3002585,51.3211569 C67.3481354,51.9182031 67.7103508,53.2418954 67.1033354,54.27648 C66.5384123,55.2390646 65.3354585,55.6134646 64.3263508,55.1792492 C65.1216738,55.9313723 65.2357662,57.1686646 64.5512123,58.0526031 C63.8168123,59.0018954 62.4388431,59.1846646 61.4773662,58.4613415 C61.3544123,58.3705108 61.2480738,58.2686031 61.1494892,58.1600492 L61.0464738,58.2841108 C61.1661046,58.3616492 61.2813046,58.4535877 61.3876431,58.5588185 C62.2438892,59.40288 62.2449969,60.7730954 61.3876431,61.6171569 C60.5901046,62.4036185 59.3306585,62.4590031 58.4688738,61.7810954 C59.0404431,62.7104492 58.8255508,63.9355569 57.9327508,64.6134646 C56.9712738,65.3434338 55.5933046,65.1684185 54.8522585,64.2235569 C54.7946585,64.1504492 54.7470277,64.0762338 54.7016123,63.9986954 L54.5919508,64.0729108 C54.6473354,64.1426954 54.7016123,64.2169108 54.7425969,64.2955569 C55.3485046,65.3301415 54.9896123,66.6538338 53.93952,67.25088 C52.9625354,67.8058338 51.7329969,67.53888 51.0783508,66.6660185 C51.3840738,67.7072492 50.8557046,68.8359877 49.8144738,69.2635569 C48.6968123,69.7232492 47.4107815,69.2026338 46.9477662,68.10048 C46.92672,68.0594954 46.9089969,68.0196185 46.8957046,67.9764185 L46.7805046,68.0174031 C46.7949046,68.0583877 46.8093046,68.10048 46.8181662,68.14368 C47.1327508,69.2967877 46.4393354,70.4831262 45.2662892,70.7921723 C44.1785354,71.0790646 43.0630892,70.5063877 42.6554585,69.4961723 C42.67872,70.5817108 41.8712123,71.5354338 40.7557662,71.6827569 C39.5550277,71.8433723 38.4473354,71.0114954 38.2856123,69.82848 L38.2767508,69.7542646 L38.1515815,69.7620185 L38.1537969,69.8362338 C38.1537969,71.0314338 37.1712738,71.9995569 35.9583508,71.9995569 L35.9583508,1.10614154 C37.0870892,1.10614154 38.0175508,1.94577231 38.1393969,3.02688 C38.40192,1.97124923 39.4320738,1.25457231 40.5519508,1.39635692 C41.7537969,1.54921846 42.6033969,2.63364923 42.44832,3.81998769 L42.43392,3.90749538 Z" id="Fill-4" fill="#E3E4E4" sketch:type="MSShapeGroup" mask="url(#mask-4)"></path>
                </g>
                <path d="M36.6013662,52.34544 C36.6168738,52.4052554 36.6246277,52.4672862 36.6246277,52.5315323 L36.6246277,56.6920246 C36.7110277,56.8603938 36.7475815,57.0376246 36.7431508,57.2137477 C37.7744123,57.6324554 40.8305354,56.1171323 41.44752,56.1171323 L41.44752,57.5371938 C40.1393354,57.5371938 37.2493662,59.0791015 35.9168123,58.3746092 C34.70832,59.01264 32.2259815,57.5272246 30.7959508,57.5360862 L30.7959508,56.1127015 C31.8493662,56.0949785 34.2098585,57.5715323 35.0860431,57.2137477 C35.0816123,57.0376246 35.1181662,56.8603938 35.2045662,56.6920246 L35.2045662,52.5315323 C35.2045662,52.4672862 35.2134277,52.4052554 35.2289354,52.34544 L36.6013662,52.34544 Z" id="Fill-7" fill="#2E2E2F" sketch:type="MSShapeGroup"></path>
                <path d="M31.31712,47.0141169 L36.1200738,47.0141169 L40.9241354,47.0141169 C41.7704123,50.4047631 37.9134277,52.4384862 36.5697969,53.03664 L35.6725662,53.03664 C34.32672,52.4384862 30.4752738,50.4047631 31.31712,47.0141169" id="Fill-9" fill="#2E2E2F" sketch:type="MSShapeGroup"></path>
                <path d="M46.1585354,25.8230769 C48.4326277,25.8230769 50.2769354,27.6673846 50.2769354,29.9425846 C50.2769354,32.2155692 48.4326277,34.0598769 46.1585354,34.0598769 C43.8844431,34.0598769 42.0401354,32.2155692 42.0401354,29.9425846 L46.1585354,29.9425846 L46.1585354,25.8230769 Z" id="Fill-11" fill="#2E2E2F" sketch:type="MSShapeGroup"></path>
                <path d="M25.9863508,25.8230769 C28.2615508,25.8230769 30.1058585,27.6673846 30.1058585,29.9425846 C30.1058585,32.2155692 28.2615508,34.0598769 25.9863508,34.0598769 C23.7122585,34.0598769 21.8690585,32.2155692 21.8690585,29.9425846 L25.9863508,29.9425846 L25.9863508,25.8230769 Z" id="Fill-13" fill="#2E2E2F" sketch:type="MSShapeGroup"></path>
            </g>
        </g>
    </g>
</svg>
