<?xml version="1.0" encoding="UTF-8" standalone="no"?>
<!--

    Copyright (C) 2017-2018 Dremio Corporation

    Licensed under the Apache License, Version 2.0 (the "License");
    you may not use this file except in compliance with the License.
    You may obtain a copy of the License at

        http://www.apache.org/licenses/LICENSE-2.0

    Unless required by applicable law or agreed to in writing, software
    distributed under the License is distributed on an "AS IS" BASIS,
    WITHOUT WARRANTIES OR CONDITIONS OF ANY KIND, either express or implied.
    See the License for the specific language governing permissions and
    limitations under the License.

-->
<svg width="110px" height="110px" viewBox="0 0 110 110" version="1.1" xmlns="http://www.w3.org/2000/svg" xmlns:xlink="http://www.w3.org/1999/xlink" xmlns:sketch="http://www.bohemiancoding.com/sketch/ns">
    <!-- Generator: Sketch 3.5.2 (25235) - http://www.bohemiancoding.com/sketch -->
    <title>Avatar/Puma</title>
    <desc>Created with Sketch.</desc>
    <defs>
        <path id="path-1" d="M0,0.190176471 L76.8084,0.190176471 L76.8084,61 L0,61"></path>
        <path id="path-3" d="M0,0.190176471 L76.8084,0.190176471 L76.8084,61 L0,61"></path>
        <path id="path-5" d="M0,0.190176471 L76.8084,0.190176471 L76.8084,61 L0,61"></path>
    </defs>
    <g id="Avatars" stroke="none" stroke-width="1" fill="none" fill-rule="evenodd" sketch:type="MSPage">
        <g id="Avatar/Puma" sketch:type="MSArtboardGroup">
            <g id="Background-Circle" sketch:type="MSLayerGroup" fill="#3ACBAC">
                <circle id="Green" sketch:type="MSShapeGroup" cx="55" cy="55" r="55"></circle>
            </g>
            <g id="Page-1" sketch:type="MSLayerGroup" transform="translate(17.000000, 24.000000)">
                <g id="Group-3">
                    <mask id="mask-2" sketch:name="Clip 2" fill="white">
                        <use xlink:href="#path-1"></use>
                    </mask>
                    <g id="Clip-2"></g>
                    <path d="M20.18808,24.1271745 C26.80248,24.1271745 32.19768,18.750802 32.19768,12.1580176 C32.19768,5.56642941 26.80248,0.190056863 20.18808,0.190056863 C13.57488,0.190056863 8.18088,5.56642941 8.18088,12.1580176 C8.18088,18.750802 13.57488,24.1271745 20.18808,24.1271745" id="Fill-1" fill="#DAA990" sketch:type="MSShapeGroup" mask="url(#mask-2)"></path>
                </g>
                <path d="M20.18808,18.6366961 C23.76768,18.6366961 26.68848,15.7266373 26.68848,12.1575392 C26.68848,8.59083333 23.76768,5.67957843 20.18808,5.67957843 C16.60968,5.67957843 13.68888,8.59083333 13.68888,12.1575392 C13.68888,15.7266373 16.60968,18.6366961 20.18808,18.6366961" id="Fill-4" fill="#5A5B5C" sketch:type="MSShapeGroup"></path>
                <g id="Group-8">
                    <mask id="mask-4" sketch:name="Clip 7" fill="white">
                        <use xlink:href="#path-3"></use>
                    </mask>
                    <g id="Clip-7"></g>
                    <path d="M56.61816,24.1271745 C63.23136,24.1271745 68.62656,18.750802 68.62656,12.1580176 C68.62656,5.56642941 63.23136,0.190056863 56.61816,0.190056863 C50.00736,0.190056863 44.60976,5.56642941 44.60976,12.1580176 C44.60976,18.750802 50.00736,24.1271745 56.61816,24.1271745" id="Fill-6" fill="#DAA990" sketch:type="MSShapeGroup" mask="url(#mask-4)"></path>
                </g>
                <path d="M56.61816,18.6366961 C60.20016,18.6366961 63.11856,15.7266373 63.11856,12.1575392 C63.11856,8.59083333 60.20016,5.67957843 56.61816,5.67957843 C53.03856,5.67957843 50.11896,8.59083333 50.11896,12.1575392 C50.11896,15.7266373 53.03856,18.6366961 56.61816,18.6366961" id="Fill-9" fill="#2E2E2F" sketch:type="MSShapeGroup"></path>
                <path d="M65.62872,28.4243255 L65.63112,28.432698 L65.63112,28.4482471 C65.74392,29.1934039 65.82192,29.9457373 65.87232,30.7088353 C66.75792,35.385502 69.97872,39.2392667 74.28312,41.0202275 C72.10152,51.6904431 56.86752,59.954149 38.40072,59.954149 C19.95792,59.954149 4.74072,51.7143647 2.52312,41.0656784 C6.74232,39.3337569 9.92712,35.6127569 10.90752,31.0736392 C10.95792,30.0808941 11.05992,29.102502 11.21352,28.142051 L11.21352,28.1300902 L11.22072,28.1085608 C11.48352,26.4830902 11.88912,24.9066588 12.42552,23.3900314 L12.43032,23.368502 L12.43272,23.3673059 C16.21032,12.7066588 26.40912,5.06730588 38.40072,5.06730588 C52.21152,5.06730588 63.64992,15.2064627 65.62872,28.4243255" id="Fill-11" fill="#DAA990" sketch:type="MSShapeGroup"></path>
                <path d="M52.80024,58.1745039 C48.38544,59.319151 43.51704,59.9542686 38.40024,59.9542686 C33.28464,59.9542686 28.42104,59.319151 24.01104,58.1768961 L24.01104,52.4022294 C24.01104,48.7386412 27.01824,45.7424647 30.69264,45.7424647 L46.11504,45.7424647 C49.78944,45.7424647 52.80024,48.7398373 52.80024,52.4022294 L52.80024,58.1745039 Z" id="Fill-13" fill="#FFFFFF" sketch:type="MSShapeGroup"></path>
                <path d="M68.06388,50.7107353 C62.33628,55.6098725 53.29068,59.0234804 42.86868,59.7901667 C42.93948,49.5828333 51.26148,41.3286961 61.51908,41.3286961 C63.82188,41.3286961 66.02748,41.7461275 68.06388,42.5068333 L68.06388,50.7107353 Z" id="Fill-15" fill="#E3E4E4" sketch:type="MSShapeGroup"></path>
                <path d="M65.62872,28.4243255 L65.63112,28.432698 L65.63112,28.4482471 C65.74392,29.1934039 65.82192,29.9457373 65.87232,30.7088353 C66.75792,35.385502 69.97872,39.2392667 74.28312,41.0202275 C72.10152,51.6904431 56.86752,59.954149 38.40072,59.954149 L38.40072,5.06730588 C52.21152,5.06730588 63.64992,15.2064627 65.62872,28.4243255" id="Fill-17" fill="#D19477" sketch:type="MSShapeGroup"></path>
                <path d="M52.80024,58.1745039 L52.45824,58.2606216 L52.05864,58.3610922 L51.71424,58.4436216 L51.30144,58.5393078 L50.90064,58.6290137 L50.54424,58.7055627 L50.14224,58.7904843 L49.76904,58.8646412 L49.35024,58.9471706 L49.02984,59.0057784 L48.53544,59.0942882 L48.21024,59.1493078 L47.69064,59.2342294 L47.47584,59.2677196 C47.28024,59.2976216 47.08464,59.3275235 46.88784,59.3550333 L46.70064,59.3825431 C46.48224,59.4136412 46.26504,59.4423471 46.05024,59.4698569 L45.88944,59.4901902 C45.68064,59.5165039 45.47184,59.5416216 45.26184,59.5655431 L45.04944,59.5894647 C44.82504,59.6145824 44.60064,59.6385039 44.37504,59.6600333 L44.33064,59.6660137 L44.27064,59.670798 C44.03424,59.6947196 43.80024,59.716249 43.56144,59.7365824 L43.42224,59.7473471 C43.18464,59.7676804 42.94944,59.7856216 42.70824,59.8023667 L42.66504,59.8059549 L42.65304,59.8059549 L42.62664,59.8083471 C42.37344,59.8250922 42.11664,59.8418373 41.86104,59.8561902 L41.78784,59.8609745 C41.24184,59.8908765 40.69224,59.913602 40.14024,59.9303471 L40.10784,59.9303471 C39.82944,59.9387196 39.55224,59.9447 39.27504,59.9482882 L39.25104,59.9482882 C38.96664,59.9518765 38.68344,59.9542686 38.40024,59.9542686 L38.40024,45.7424647 L46.11504,45.7424647 C49.78944,45.7424647 52.80024,48.7398373 52.80024,52.4022294 L52.80024,58.1745039 Z" id="Fill-19" fill="#E3E4E4" sketch:type="MSShapeGroup"></path>
                <path d="M47.4846,37.4965804 C46.6374,36.103149 46.3506,34.4681098 46.6134,32.9096196 L52.0866,32.9096196 L52.0866,27.455502 C53.6514,27.1899725 55.2906,27.4782275 56.6886,28.3226588 C58.251,30.8930314 57.9186,34.2839137 55.6926,36.5038353 C53.4654,38.7225608 50.061,39.0538745 47.4846,37.4965804" id="Fill-21" fill="#2E2E2F" sketch:type="MSShapeGroup"></path>
                <path d="M29.3358,37.4965804 C30.9006,34.9274039 30.5658,31.5353255 28.3398,29.3154039 C27.3198,28.2999333 26.0574,27.6791686 24.7338,27.455502 L24.7338,32.9096196 L19.2618,32.9096196 C19.4874,34.2253059 20.109,35.4871686 21.1278,36.5038353 C23.3574,38.7225608 26.7582,39.0538745 29.3358,37.4965804" id="Fill-23" fill="#5A5B5C" sketch:type="MSShapeGroup"></path>
                <g id="Group-27">
                    <mask id="mask-6" sketch:name="Clip 26" fill="white">
                        <use xlink:href="#path-5"></use>
                    </mask>
                    <g id="Clip-26"></g>
                    <path d="M51.15024,50.8456529 C50.80824,50.8444569 50.52984,51.1171627 50.52864,51.4532608 C50.52624,51.7905549 50.80104,52.066849 51.13944,52.0692412 C51.62664,52.0728294 52.15104,52.0943588 52.68384,52.1386137 C55.90824,52.3945745 59.83464,53.3669863 62.21904,55.1347902 C63.61224,56.168202 65.85024,58.1106333 67.00824,59.8401627 C67.19064,60.1152608 67.35024,60.3867706 67.47144,60.6475157 C67.61424,60.9525157 67.97904,61.0852804 68.28624,60.9429471 C68.59344,60.8006137 68.72544,60.4346137 68.58264,60.1296137 C67.59744,58.0209275 64.75704,55.4924176 62.95104,54.1540059 C62.15064,53.5595549 61.20024,53.0488294 60.16344,52.6182412 C58.86624,52.0788098 57.43704,51.6661627 56.01264,51.3755157 C54.31344,51.0286529 52.61544,50.8540255 51.15024,50.8456529 M50.50104,49.2070255 C50.16144,49.2261627 49.90224,49.5156137 49.92144,49.8517118 C49.93944,50.1890059 50.22984,50.4473588 50.56824,50.4282216 C51.17544,50.3935353 51.86904,50.3696137 52.62144,50.358849 C57.14184,50.3002412 63.80784,50.7667118 66.90144,52.7617706 C67.71744,53.2856529 70.21704,54.8943784 71.52144,56.0198882 C71.82744,56.2842216 72.07104,56.5234373 72.20784,56.7148098 C72.39024,56.9982804 72.76824,57.0748294 73.05144,56.8930255 C73.33704,56.7112216 73.41984,56.3308686 73.23624,56.0485941 C72.51144,54.9230843 68.64264,52.4256725 67.56744,51.7343392 C67.36104,51.6003784 67.14264,51.4759863 66.91104,51.3551824 C64.54224,50.1220255 60.92424,49.5156137 57.45024,49.2692216 C54.86184,49.0862216 52.35144,49.1017706 50.50104,49.2070255 M50.18064,47.1497706 C55.25304,46.2347706 63.73224,45.5853 68.60784,47.3590843 C70.90224,48.1963392 73.27824,49.3960059 75.08304,51.0729078 C75.64344,51.593202 76.42344,52.4352412 76.75224,53.1457118 C76.89264,53.4519078 76.75944,53.8155157 76.45224,53.957849 C76.15104,54.0989863 75.77904,53.9638294 75.63624,53.6576333 C75.57504,53.5224765 75.48264,53.3741627 75.37344,53.2210647 C75.04944,52.7617706 74.56704,52.265398 74.25024,51.9675745 C72.56664,50.4066922 70.32144,49.2871627 68.18064,48.5085157 C64.05024,47.003849 56.97264,47.3686529 52.06944,48.0827118 C51.47664,48.1688294 50.91744,48.2597314 50.40024,48.3542216 C50.06664,48.4128294 49.75104,48.192751 49.68504,47.8602412 C49.62504,47.5289275 49.84944,47.2095745 50.18064,47.1497706 M25.66824,52.0692412 C26.00784,52.066849 26.27904,51.7905549 26.27784,51.4532608 C26.27664,51.1171627 26.00064,50.8444569 25.66104,50.8456529 C24.51624,50.8528294 23.23104,50.9592804 21.91704,51.1709863 C19.89744,51.4951235 17.80224,52.0656529 16.01784,52.8933392 C15.22344,53.2617314 14.49264,53.6815549 13.85784,54.1540059 C12.05064,55.4924176 9.21264,58.0209275 8.22504,60.1296137 C8.07984,60.4346137 8.21424,60.8006137 8.52144,60.9429471 C8.82744,61.0852804 9.19344,60.9525157 9.33624,60.6475157 C9.45864,60.3951431 9.60864,60.133202 9.78264,59.8664765 C10.93464,58.1309667 13.18704,56.1741824 14.58864,55.1347902 C17.12064,53.2593392 21.38784,52.2785549 24.70944,52.0991431 C25.03824,52.081202 25.35984,52.0716333 25.66824,52.0692412 M26.23944,50.4282216 C26.57664,50.4473588 26.86824,50.1890059 26.88624,49.8517118 C26.90784,49.5156137 26.65104,49.2261627 26.30904,49.2070255 C24.59424,49.1101431 22.31904,49.0886137 19.93704,49.2309471 C16.22424,49.4534176 12.25704,50.0753784 9.75984,51.4281431 C9.57744,51.5262216 9.40824,51.6278882 9.24024,51.7343392 C8.16384,52.4256725 4.29744,54.9230843 3.57144,56.0485941 C3.38784,56.3308686 3.47064,56.7112216 3.75864,56.8930255 C4.03944,57.0748294 4.41744,56.9982804 4.60104,56.7148098 C4.73424,56.5258294 4.97064,56.2925941 5.27064,56.0330451 C6.57144,54.9075353 9.08544,53.2880451 9.90864,52.7617706 C13.11744,50.6949471 20.14944,50.2691431 24.66504,50.3672216 C25.23384,50.3803784 25.76424,50.4007118 26.23944,50.4282216 M26.40864,48.3542216 C25.98024,48.2764765 25.52424,48.2011235 25.05024,48.1293588 C20.13504,47.385398 12.85104,46.9703588 8.62464,48.5085157 C6.50784,49.2811824 4.28304,50.3863588 2.60784,51.9257118 C2.26344,52.2414765 1.76664,52.7498098 1.42944,53.225849 C1.32264,53.3753588 1.23384,53.5224765 1.16904,53.6588294 C1.02744,53.9638294 0.66264,54.0989863 0.35784,53.957849 C0.04944,53.8155157 -0.08616,53.4519078 0.05784,53.1457118 C0.38304,52.4352412 1.16424,51.593202 1.72344,51.0729078 C3.52824,49.3960059 5.90784,48.1963392 8.20824,47.3590843 C13.07424,45.5853 21.55704,46.2347706 26.62584,47.1497706 C26.95944,47.2095745 27.18144,47.5289275 27.12144,47.8602412 C27.06264,48.192751 26.74104,48.4128294 26.40864,48.3542216" id="Fill-25" fill="#2E2E2F" sketch:type="MSShapeGroup" mask="url(#mask-6)"></path>
                </g>
                <path d="M39.02016,50.9208863 C39.03456,50.9735137 39.04296,51.0297294 39.04296,51.0871412 L39.04296,54.8189059 C39.12096,54.9696118 39.15816,55.1286902 39.14976,55.2865725 C40.07736,55.6621412 42.82656,55.7016118 43.37976,55.7016118 C45.18696,55.7016118 47.41776,55.4360824 48.92976,54.3464549 C49.26696,54.1060431 49.84416,53.5713961 49.98696,53.158749 C50.09976,52.8274353 50.46456,52.6492196 50.79696,52.7628471 C51.13056,52.8764745 51.30816,53.2400824 51.20016,53.5713961 C50.95776,54.2615333 50.25816,54.9672196 49.67856,55.3798667 C47.92656,56.6417294 45.48456,56.9754353 43.37976,56.9754353 C42.20736,56.9754353 39.60456,56.9586902 38.40456,56.3283569 C37.20456,56.9586902 34.60176,56.9754353 33.42816,56.9754353 C31.32336,56.9754353 28.88136,56.6417294 27.12816,55.3798667 C26.55816,54.9672196 25.84896,54.2615333 25.61256,53.5713961 C25.49976,53.2400824 25.67736,52.8764745 26.00976,52.7628471 C26.34216,52.6492196 26.70816,52.8274353 26.82096,53.158749 C26.96376,53.5713961 27.54096,54.1060431 27.87816,54.3464549 C29.39016,55.4360824 31.62096,55.7016118 33.42816,55.7016118 C33.98136,55.7016118 36.73056,55.6621412 37.65816,55.2865725 C37.65816,55.1286902 37.68696,54.9696118 37.76376,54.8189059 L37.76376,51.0871412 C37.76376,51.0297294 37.77336,50.9735137 37.78776,50.9208863 L39.02016,50.9208863 Z" id="Fill-28" fill="#2E2E2F" sketch:type="MSShapeGroup"></path>
                <path d="M31.80492,45.5198745 L38.40492,45.5198745 L45.00492,45.5198745 C46.16172,48.5603059 40.86972,50.3843255 39.02052,50.9213647 L37.78692,50.9213647 C35.93772,50.3843255 30.64932,48.5603059 31.80492,45.5198745" id="Fill-30" fill="#DF3E52" sketch:type="MSShapeGroup"></path>
            </g>
        </g>
    </g>
</svg>
