<?xml version="1.0" encoding="UTF-8" standalone="no"?>
<!--

    Copyright (C) 2017-2018 Dremio Corporation

    Licensed under the Apache License, Version 2.0 (the "License");
    you may not use this file except in compliance with the License.
    You may obtain a copy of the License at

        http://www.apache.org/licenses/LICENSE-2.0

    Unless required by applicable law or agreed to in writing, software
    distributed under the License is distributed on an "AS IS" BASIS,
    WITHOUT WARRANTIES OR CONDITIONS OF ANY KIND, either express or implied.
    See the License for the specific language governing permissions and
    limitations under the License.

-->
<svg width="110px" height="110px" viewBox="0 0 110 110" version="1.1" xmlns="http://www.w3.org/2000/svg" xmlns:xlink="http://www.w3.org/1999/xlink" xmlns:sketch="http://www.bohemiancoding.com/sketch/ns">
    <!-- Generator: Sketch 3.5.2 (25235) - http://www.bohemiancoding.com/sketch -->
    <title>Avatar/Rabbit</title>
    <desc>Created with Sketch.</desc>
    <defs>
        <path id="path-1" d="M0,0.237403509 L52.894,0.237403509 L52.894,68 L0,68"></path>
        <path id="path-3" d="M0,0.237403509 L52.894,0.237403509 L52.894,68 L0,68"></path>
        <path id="path-5" d="M0,0.237403509 L52.894,0.237403509 L52.894,68 L0,68"></path>
        <path id="path-7" d="M0,0.237403509 L52.894,0.237403509 L52.894,68 L0,68"></path>
    </defs>
    <g id="Avatars" stroke="none" stroke-width="1" fill="none" fill-rule="evenodd" sketch:type="MSPage">
        <g id="Avatar/Rabbit" sketch:type="MSArtboardGroup">
            <g id="Background-Circle" sketch:type="MSLayerGroup" fill="#2A394A">
                <circle id="Dark-Blue" sketch:type="MSShapeGroup" cx="55" cy="55" r="55"></circle>
            </g>
            <g id="Page-1" sketch:type="MSLayerGroup" transform="translate(29.000000, 21.000000)">
                <g id="Group-3">
                    <mask id="mask-2" sketch:name="Clip 2" fill="white">
                        <use xlink:href="#path-1"></use>
                    </mask>
                    <g id="Clip-2"></g>
                    <path d="M3.12194091,25.5046526 C3.12194091,17.1120211 4.93237273,4.95672281 10.1914182,1.02823158 L11.2514182,0.237284211 L12.3114182,1.02823158 C14.7891682,2.87974035 16.5044409,6.72591579 17.5704636,10.6257754 C18.8340318,15.2390386 19.3808955,20.4905474 19.3808955,25.5046526 C19.3796909,33.8972842 17.5692591,46.0513895 12.3114182,49.9798807 L11.2514182,50.7720211 L10.1902136,49.9798807 C7.71487273,48.1295649 5.9996,44.2821965 4.93116818,40.3823368 C3.6676,35.7714596 3.12194091,30.5187579 3.12194091,25.5046526" id="Fill-1" fill="#FFFFFF" sketch:type="MSShapeGroup" mask="url(#mask-2)"></path>
                </g>
                <path d="M5.62402273,25.5046526 C5.62402273,35.5233193 8.01384091,43.9445825 11.2516591,46.3627579 C14.4882727,43.9457754 16.8792955,35.5233193 16.8792955,25.5034596 C16.8792955,15.485986 14.4882727,7.06352982 11.2516591,4.64535439 C8.01384091,7.06352982 5.62402273,15.485986 5.62402273,25.5046526" id="Fill-4" fill="#F9C6C5" sketch:type="MSShapeGroup"></path>
                <g id="Group-8">
                    <mask id="mask-4" sketch:name="Clip 7" fill="white">
                        <use xlink:href="#path-3"></use>
                    </mask>
                    <g id="Clip-7"></g>
                    <path d="M50.2122,25.5046526 C50.2122,17.1120211 48.4017682,4.95672281 43.1439273,1.02823158 L42.0839273,0.237284211 L41.0239273,1.02823158 C38.5461773,2.87974035 36.8321091,6.72591579 35.7636773,10.6257754 C34.5013136,15.2390386 33.95445,20.4905474 33.95445,25.5046526 C33.95445,33.8972842 35.7648818,46.0513895 41.0239273,49.9798807 L42.0839273,50.7720211 L43.1439273,49.9798807 C45.6216773,48.1295649 47.3357455,44.2821965 48.4041773,40.3823368 C49.6665409,35.7714596 50.2122,30.5187579 50.2122,25.5046526" id="Fill-6" fill="#FFFFFF" sketch:type="MSShapeGroup" mask="url(#mask-4)"></path>
                </g>
                <path d="M47.7113227,25.5046526 C47.7113227,35.5233193 45.3215045,43.9445825 42.0836864,46.3627579 C38.8470727,43.9457754 36.45605,35.5233193 36.45605,25.5034596 C36.45605,15.485986 38.8470727,7.06352982 42.0836864,4.64535439 C45.3215045,7.06352982 47.7113227,15.485986 47.7113227,25.5046526" id="Fill-9" fill="#F9C6C5" sketch:type="MSShapeGroup"></path>
                <g id="Group-13">
                    <mask id="mask-6" sketch:name="Clip 12" fill="white">
                        <use xlink:href="#path-5"></use>
                    </mask>
                    <g id="Clip-12"></g>
                    <path d="M46.5185818,44.9057684 L46.5185818,44.9117333 L46.5185818,44.9236632 C46.5980818,45.4688561 46.6571045,46.021207 46.6944455,46.5783298 C47.3485136,50.0045754 49.7214682,52.8271719 52.8942409,54.1311018 C51.2861727,61.9463298 40.0574,67.9995228 26.4436273,67.9995228 C12.8491273,67.9995228 1.6324,61.9642246 0.000240909091,54.1645053 C3.11278636,52.8963649 5.45683182,50.1704 6.17594545,46.8455579 C6.2169,46.1190316 6.29158182,45.4032421 6.40480909,44.6981895 L6.40480909,44.6898386 L6.40842273,44.6743298 C6.60235455,43.4837333 6.90228636,42.3289263 7.29737727,41.2182596 L7.30099091,41.2027509 L7.30219545,41.2015579 C10.0883091,33.3934877 17.6094909,27.7984 26.4436273,27.7984 C36.6316727,27.7984 45.0550591,35.2247158 46.5185818,44.9057684" id="Fill-11" fill="#FFFFFF" sketch:type="MSShapeGroup" mask="url(#mask-6)"></path>
                </g>
                <g id="Group-16">
                    <mask id="mask-8" sketch:name="Clip 15" fill="white">
                        <use xlink:href="#path-7"></use>
                    </mask>
                    <g id="Clip-15"></g>
                    <path d="M46.5185818,44.9057684 L46.5185818,44.9117333 L46.5185818,44.9236632 C46.5980818,45.4688561 46.6571045,46.021207 46.6944455,46.5783298 C47.3485136,50.0045754 49.7214682,52.8271719 52.8942409,54.1311018 C51.2861727,61.9463298 40.0574,67.9995228 26.4436273,67.9995228 L26.4436273,27.7984 C36.6316727,27.7984 45.0550591,35.2247158 46.5185818,44.9057684" id="Fill-14" fill="#E3E4E4" sketch:type="MSShapeGroup" mask="url(#mask-8)"></path>
                </g>
                <path d="M39.5583568,43.2316561 C41.3567432,43.2316561 42.8130386,44.6751649 42.8130386,46.4550947 C42.8130386,48.2350246 41.3567432,49.6785333 39.5583568,49.6785333 C37.761175,49.6785333 36.303675,48.2350246 36.303675,46.4550947 L39.5583568,46.4550947 L39.5583568,43.2316561 Z M13.7774705,43.2316561 C15.5746523,43.2316561 17.0321523,44.6751649 17.0321523,46.4550947 C17.0321523,48.2350246 15.5746523,49.6785333 13.7774705,49.6785333 C11.9790841,49.6785333 10.5227886,48.2350246 10.5227886,46.4550947 L13.7774705,46.4550947 L13.7774705,43.2316561 Z" id="Fill-17" fill="#2E2E2F" sketch:type="MSShapeGroup"></path>
                <path d="M23.3039795,54.0424632 L26.668275,54.0424632 L30.0301614,54.0424632 C30.7697523,54.0424632 31.3756386,54.6413404 31.3756386,55.3750246 C31.3756386,56.1075158 30.7697523,56.707586 30.0301614,56.707586 L28.0125477,56.707586 L28.0125477,61.7026035 L29.6121841,61.7026035 C30.0723205,61.7026035 30.4517523,62.078393 30.4517523,62.5364982 C30.4517523,62.9934105 30.0723205,63.3692 29.6121841,63.3692 L26.668275,63.3692 L23.7255705,63.3692 C23.263025,63.3692 22.8860023,62.9934105 22.8860023,62.5364982 C22.8860023,62.078393 23.263025,61.7026035 23.7255705,61.7026035 L25.3227977,61.7026035 L25.3227977,56.707586 L23.3039795,56.707586 C22.5643886,56.707586 21.9597068,56.1075158 21.9597068,55.3750246 C21.9597068,54.6413404 22.5643886,54.0424632 23.3039795,54.0424632" id="Fill-19" fill="#DF3E52" sketch:type="MSShapeGroup"></path>
            </g>
        </g>
    </g>
</svg>
