<?xml version="1.0" encoding="UTF-8" standalone="no"?>
<!--

    Copyright (C) 2017-2018 Dremio Corporation

    Licensed under the Apache License, Version 2.0 (the "License");
    you may not use this file except in compliance with the License.
    You may obtain a copy of the License at

        http://www.apache.org/licenses/LICENSE-2.0

    Unless required by applicable law or agreed to in writing, software
    distributed under the License is distributed on an "AS IS" BASIS,
    WITHOUT WARRANTIES OR CONDITIONS OF ANY KIND, either express or implied.
    See the License for the specific language governing permissions and
    limitations under the License.

-->
<svg width="110px" height="110px" viewBox="0 0 110 110" version="1.1" xmlns="http://www.w3.org/2000/svg" xmlns:xlink="http://www.w3.org/1999/xlink" xmlns:sketch="http://www.bohemiancoding.com/sketch/ns">
    <!-- Generator: Sketch 3.5.2 (25235) - http://www.bohemiancoding.com/sketch -->
    <title>Avatar/Racoon</title>
    <desc>Created with Sketch.</desc>
    <defs>
        <path id="path-1" d="M0,0.184153846 L69.391875,0.184153846 L69.391875,57 L0,57"></path>
        <path id="path-3" d="M0,0.184153846 L69.391875,0.184153846 L69.391875,57 L0,57"></path>
        <path id="path-5" d="M0,0.184153846 L69.391875,0.184153846 L69.391875,57 L0,57"></path>
    </defs>
    <g id="Avatars" stroke="none" stroke-width="1" fill="none" fill-rule="evenodd" sketch:type="MSPage">
        <g id="Avatar/Racoon" sketch:type="MSArtboardGroup">
            <g id="Background-Circle" sketch:type="MSLayerGroup" fill="#FFBB57">
                <circle id="Gold" sketch:type="MSShapeGroup" cx="55" cy="55" r="55"></circle>
            </g>
            <g id="Page-1" sketch:type="MSLayerGroup" transform="translate(20.000000, 26.000000)">
                <g id="Group-3">
                    <mask id="mask-2" sketch:name="Clip 2" fill="white">
                        <use xlink:href="#path-1"></use>
                    </mask>
                    <g id="Clip-2"></g>
                    <path d="M61.303375,14.8494865 C62.454,10.5668135 62.6355625,3.97125577 58.8993125,0.819813462 L58.1479063,0.184044231 L57.1755625,0.356140385 C54.9104063,0.759525 52.9919687,2.34894808 51.5930625,4.10608269 C49.937125,6.18329423 48.782125,8.74390962 48.09525,11.3023327 C46.9479062,15.5839096 46.760875,22.1805635 50.4982187,25.3320058 L51.2507187,25.967775 L52.2241563,25.7945827 C54.4860312,25.3911981 56.403375,23.801775 57.8055625,22.0457365 C59.4582188,19.9674288 60.6197813,17.4079096 61.303375,14.8494865" id="Fill-1" fill="#323031" sketch:type="MSShapeGroup" mask="url(#mask-2)"></path>
                </g>
                <path d="M58.7954062,14.1761192 C57.5715,18.7569462 54.802125,22.1396769 52.1486875,22.6132154 L52.1486875,22.6121192 C50.0869688,20.8736192 49.377125,16.5558692 50.6043125,11.9750423 C51.8260312,7.39421538 54.5954063,4.01258077 57.24775,3.53794615 C59.3105625,5.27644615 60.0204063,9.59529231 58.7954062,14.1761192" id="Fill-4" fill="#F27E67" sketch:type="MSShapeGroup"></path>
                <g id="Group-8">
                    <mask id="mask-4" sketch:name="Clip 7" fill="white">
                        <use xlink:href="#path-3"></use>
                    </mask>
                    <g id="Clip-7"></g>
                    <path d="M7.88265625,14.8494865 C6.73640625,10.5668135 6.549375,3.97125577 10.2867188,0.819813462 L11.0403125,0.184044231 L12.009375,0.356140385 C14.2745313,0.759525 16.1973438,2.34894808 17.591875,4.10608269 C19.2510938,6.18329423 20.4082813,8.74390962 21.091875,11.3023327 C22.238125,15.5839096 22.4240625,22.1805635 18.6867188,25.3320058 L17.933125,25.967775 L16.9640625,25.7945827 C14.6989063,25.3911981 12.7815625,23.801775 11.3815625,22.0457365 C9.72671875,19.9674288 8.56625,17.4079096 7.88265625,14.8494865" id="Fill-6" fill="#404041" sketch:type="MSShapeGroup" mask="url(#mask-4)"></path>
                </g>
                <path d="M10.3895313,14.1761192 C11.6189063,18.7569462 14.3839063,22.1396769 17.03625,22.6132154 L17.03625,22.6121192 C19.0990625,20.8736192 19.8089062,16.5558692 18.5839063,11.9750423 C17.3610938,7.39421538 14.590625,4.01258077 11.9371875,3.53794615 C9.874375,5.27644615 9.16453125,9.59529231 10.3895313,14.1761192" id="Fill-9" fill="#F27E67" sketch:type="MSShapeGroup"></path>
                <g id="Group-13">
                    <mask id="mask-6" sketch:name="Clip 12" fill="white">
                        <use xlink:href="#path-5"></use>
                    </mask>
                    <g id="Clip-12"></g>
                    <path d="M60.8302188,19.3026115 C60.3555312,18.5758615 59.8392812,17.8765154 59.2902187,17.1990923 C57.1070937,14.5069385 54.3727187,12.2302269 51.2292812,10.4643231 C50.3619375,9.97763077 49.4650625,9.52711154 48.53975,9.12043846 C46.2133437,8.09882308 43.7152187,7.33261154 41.0869375,6.86126538 C43.3324063,4.78186154 42.6313125,2.10834231 42.6313125,2.10834231 C42.392875,2.27934231 42.1599062,2.43828462 41.9313125,2.59284231 C41.8602188,2.63997692 41.7924062,2.68491923 41.7224062,2.73095769 C41.5605312,2.83838077 41.39975,2.94251538 41.2433438,3.04226538 C41.1744375,3.08501538 41.1055312,3.13105385 41.036625,3.17270769 C40.85725,3.28451538 40.6800625,3.39193846 40.5127187,3.49497692 C40.4755313,3.51470769 40.441625,3.53663077 40.406625,3.55636154 C40.2031875,3.67474615 40.0052187,3.78655385 39.811625,3.89288077 C39.7580313,3.92247692 39.7055312,3.94988077 39.654125,3.97838077 C39.5119375,4.05401538 39.3730312,4.12745769 39.2374063,4.19651538 C39.17725,4.22720769 39.1192813,4.25680385 39.0613125,4.2864 C38.919125,4.35545769 38.7813125,4.42122692 38.6467812,4.4859 C38.6085,4.50234231 38.5680313,4.52207308 38.5308438,4.53961154 C38.3602187,4.61634231 38.1950625,4.68868846 38.0342812,4.75665 C37.9970938,4.77199615 37.9631875,4.78515 37.926,4.7994 C37.8013125,4.84982308 37.6799062,4.89805385 37.5606875,4.94299615 C37.5136562,4.95943846 37.4677188,4.97697692 37.4217813,4.99451538 C37.3080312,5.03397692 37.19975,5.07234231 37.0936562,5.10851538 C37.0564688,5.11947692 37.0236563,5.13263077 36.9831875,5.14359231 C36.8442813,5.18743846 36.7075625,5.22909231 36.5785,5.26526538 L36.539125,5.27513077 C36.4220938,5.30582308 36.3105313,5.33432308 36.2033438,5.35953462 C36.16725,5.36830385 36.1377187,5.37378462 36.1038125,5.38255385 C36.0119375,5.40228462 35.92225,5.41982308 35.8336563,5.43736154 L35.7538125,5.45161154 C35.532875,5.48997692 35.3283438,5.51518846 35.1445937,5.52943846 L35.0899062,5.53272692 C35.0133438,5.53820769 34.94225,5.54259231 34.8733438,5.54368846 L34.8219375,5.54588077 C34.7442813,5.54807308 34.6644375,5.54807308 34.59225,5.54588077 L34.59225,44.1820154 C34.9761562,44.1951692 35.3633437,44.2170923 35.7461562,44.2444962 L35.7494375,44.2444962 C35.9036563,44.2565538 36.0556875,44.2697077 36.2055312,44.2828615 C36.25475,44.2872462 36.302875,44.2905346 36.3499063,44.2960154 C36.4811562,44.3080731 36.6102188,44.3223231 36.740375,44.3365731 C36.8070937,44.3442462 36.8738125,44.3519192 36.9394375,44.3584962 C37.0575625,44.3727462 37.1724062,44.3880923 37.2894375,44.4023423 C37.3670937,44.4133038 37.440375,44.4220731 37.5158438,44.4330346 C37.6230313,44.4472846 37.7280313,44.4637269 37.834125,44.4801692 C37.9150625,44.4922269 37.996,44.5053808 38.0758437,44.5174385 C38.1731875,44.5338808 38.2683437,44.5503231 38.3645938,44.5678615 C38.4499063,44.5832077 38.5352187,44.5985538 38.6183438,44.6139 C38.709125,44.6314385 38.7933437,44.6489769 38.87975,44.6665154 C38.9661562,44.68515 39.0514687,44.7026885 39.1345937,44.7213231 C39.2155312,44.7399577 39.295375,44.7585923 39.374125,44.7772269 C39.4649062,44.7980538 39.5425625,44.8188808 39.6235,44.8397077 C39.697875,44.8583423 39.7700625,44.8769769 39.8400625,44.8967077 C39.9231875,44.9208231 40.004125,44.9449385 40.082875,44.9679577 C40.1485,44.9876885 40.2130313,45.0074192 40.275375,45.02715 C40.354125,45.0534577 40.4317813,45.0786692 40.50725,45.1049769 C40.564125,45.1269 40.6231875,45.1466308 40.6756875,45.1674577 C40.75225,45.1959577 40.8211562,45.2244577 40.8911563,45.25515 C40.9414687,45.2748808 40.9906875,45.2946115 41.0377188,45.3165346 C41.1077187,45.3472269 41.1700625,45.3790154 41.2335,45.4119 C41.2750625,45.4327269 41.3177188,45.4535538 41.3570937,45.4743808 C41.4238125,45.5094577 41.4752187,45.5445346 41.5320938,45.5807077 C41.5638125,45.6015346 41.5988125,45.6212654 41.6283437,45.6420923 L41.6819375,45.6804577 C41.7180313,45.7078615 41.7508438,45.7363615 41.7858437,45.7626692 L41.8492813,45.8163808 C41.9149062,45.8766692 41.9717813,45.9369577 42.0177188,45.9994385 C43.4231875,47.9133231 41.0442813,52.0008808 35.091,52.2102462 L35.091,53.8807846 L35.0833438,53.9553231 C35.3983437,54.2052462 36.5544375,55.0361308 37.8056875,54.8530731 C38.6730312,54.7270154 39.43975,54.1285154 40.0861563,53.0762077 C40.2163125,52.8624577 40.4952187,52.7955923 40.7117813,52.9282269 C40.922875,53.0586692 40.9895937,53.3392846 40.85725,53.5508423 C40.0631875,54.8464962 39.0777188,55.5874962 37.930375,55.7530154 C37.764125,55.7771308 37.6000625,55.7891885 37.4381875,55.7891885 C36.2492813,55.7891885 35.2331875,55.1874 34.7289687,54.8256692 L34.6961563,54.8541692 C34.6611562,54.8837654 34.6261563,54.9111692 34.59225,54.9396692 L34.59225,56.9960538 C34.6644375,56.99715 34.736625,57.0004385 34.8077187,57.0004385 C65.81225,57.0004385 79.6799062,48.0492462 60.8302188,19.3026115" id="Fill-11" fill="#808083" sketch:type="MSShapeGroup" mask="url(#mask-6)"></path>
                </g>
                <path d="M34.5919219,56.9962731 L34.5919219,54.9398885 C33.8984844,55.5175615 33.1525469,55.7740615 32.3639531,55.6929462 C30.3219219,55.4802923 28.8212969,53.0468308 28.7567656,52.9448885 C28.6266094,52.7300423 28.6944219,52.4516192 28.9109844,52.3200808 C29.1220781,52.1896385 29.4009844,52.2576 29.5300469,52.47135 C29.5431719,52.4943692 30.8622344,54.6263885 32.4580156,54.7897154 C33.0748906,54.8511 33.6512969,54.60885 34.2233281,54.0552923 C34.1981719,54.0026769 34.1850469,53.9423885 34.1850469,53.8810038 L34.1850469,52.2126577 C28.7644219,52.0131577 25.2086406,48.3224077 27.4661406,45.6861577 C27.5536406,45.5831192 27.6487969,45.4811769 27.7548906,45.3814269 C28.7698906,44.4310615 31.6541094,44.0846769 34.5787969,44.1822346 L34.5919219,44.1822346 L34.5919219,5.54500385 C33.9269219,5.52527308 33.6228594,5.36413846 33.6228594,5.36413846 C33.8120781,5.11531154 34.1653594,4.84894615 34.5919219,4.58586923 L34.5919219,3.56535 C28.5369219,4.85113846 25.1003594,7.66277308 25.1003594,7.66277308 L25.1014531,7.66606154 C23.4006719,8.15713846 21.7687969,8.78194615 20.2189531,9.51856154 C19.3198906,9.94935 18.4437969,10.4163115 17.6037969,10.9238308 C14.7009844,12.6721962 12.1722344,14.8688885 10.1400469,17.4338885 C9.59754688,18.1178885 9.08785938,18.8260038 8.61864063,19.5604269 C-9.95651563,48.6402923 2.73207813,56.9995615 34.8073906,56.9995615 C34.7362969,56.9995615 34.6641094,56.9973692 34.5919219,56.9962731" id="Fill-14" fill="#919396" sketch:type="MSShapeGroup"></path>
                <path d="M36.9481875,3.418575 C36.8924063,3.44049808 36.8344375,3.46570962 36.7775625,3.49092115 C36.8344375,3.46570962 36.8924063,3.44049808 36.9481875,3.418575" id="Fill-16" fill="#F6911E" sketch:type="MSShapeGroup"></path>
                <path d="M37.4652031,3.2034 C37.4137969,3.22422692 37.3569219,3.24615 37.2989531,3.27136154 C37.3569219,3.24615 37.4137969,3.22422692 37.4652031,3.2034" id="Fill-18" fill="#F6911E" sketch:type="MSShapeGroup"></path>
                <path d="M37.4213437,4.99473462 C37.4672812,4.97719615 37.5132188,4.95965769 37.56025,4.94321538 C37.5132188,4.95965769 37.4672812,4.97719615 37.4213437,4.99473462" id="Fill-20" fill="#F6911E" sketch:type="MSShapeGroup"></path>
                <path d="M35.2017969,4.24167692 C35.1361719,4.27565769 35.0727344,4.30963846 35.0082031,4.34581154 C35.0727344,4.30963846 35.1361719,4.27565769 35.2017969,4.24167692" id="Fill-22" fill="#F6911E" sketch:type="MSShapeGroup"></path>
                <path d="M36.9834063,5.14414038 C37.023875,5.13208269 37.0555938,5.11892885 37.093875,5.10906346 C37.0555938,5.11892885 37.023875,5.13208269 36.9834063,5.14414038" id="Fill-24" fill="#F6911E" sketch:type="MSShapeGroup"></path>
                <path d="M38.5311719,4.53928269 C38.5683594,4.52174423 38.6077344,4.50310962 38.6460156,4.48557115 C38.6077344,4.50310962 38.5683594,4.52174423 38.5311719,4.53928269" id="Fill-26" fill="#F6911E" sketch:type="MSShapeGroup"></path>
                <path d="M35.9463125,3.86701154 C35.8752188,3.90099231 35.8008437,3.93606923 35.7286563,3.97333846 C35.8008437,3.93606923 35.8752188,3.90099231 35.9463125,3.86701154" id="Fill-28" fill="#F6911E" sketch:type="MSShapeGroup"></path>
                <path d="M34.8835156,4.41508846 C34.8058594,4.46112692 34.7282031,4.50497308 34.6538281,4.55101154 C34.7282031,4.50497308 34.8058594,4.46003077 34.8835156,4.41508846" id="Fill-30" fill="#F6911E" sketch:type="MSShapeGroup"></path>
                <path d="M37.9254531,4.7994 C37.9626406,4.78515 37.9965469,4.77199615 38.0348281,4.75665 C37.9965469,4.77199615 37.9626406,4.78515 37.9254531,4.7994" id="Fill-32" fill="#F6911E" sketch:type="MSShapeGroup"></path>
                <path d="M35.7540312,5.45128269 L35.833875,5.43703269 L35.7540312,5.45128269 Z" id="Fill-34" fill="#F6911E" sketch:type="MSShapeGroup"></path>
                <path d="M37.2055469,3.31093269 C37.1574219,3.32847115 37.1136719,3.34820192 37.0688281,3.36793269 C37.1136719,3.34820192 37.1607031,3.32847115 37.2055469,3.31093269" id="Fill-36" fill="#F6911E" sketch:type="MSShapeGroup"></path>
                <path d="M35.0896875,5.533275 L35.144375,5.52998654 L35.0896875,5.533275 Z" id="Fill-38" fill="#F6911E" sketch:type="MSShapeGroup"></path>
                <path d="M36.539125,5.27469231 L36.5785,5.26482692 L36.539125,5.27469231 Z" id="Fill-40" fill="#F6911E" sketch:type="MSShapeGroup"></path>
                <path d="M36.1032656,5.38277308 C36.1371719,5.37400385 36.1677969,5.36742692 36.2038906,5.35975385 C36.1688906,5.36742692 36.1371719,5.37400385 36.1032656,5.38277308" id="Fill-42" fill="#F6911E" sketch:type="MSShapeGroup"></path>
                <path d="M40.4067344,3.55603269 C40.4417344,3.53630192 40.4745469,3.51437885 40.5128281,3.49464808 C40.4745469,3.51437885 40.4417344,3.53630192 40.4067344,3.55603269" id="Fill-44" fill="#F6911E" sketch:type="MSShapeGroup"></path>
                <path d="M39.060875,4.28661923 C39.1199375,4.25702308 39.1768125,4.22633077 39.2369688,4.19673462 C39.1768125,4.22633077 39.1199375,4.25702308 39.060875,4.28661923" id="Fill-46" fill="#F6911E" sketch:type="MSShapeGroup"></path>
                <path d="M36.1834375,3.27289615 C36.7040625,3.19068462 37.2509375,3.12053077 37.8098438,3.06791538 C37.2509375,3.12053077 36.70625,3.19178077 36.1834375,3.27289615" id="Fill-48" fill="#F6911E" sketch:type="MSShapeGroup"></path>
                <path d="M41.0369531,3.17226923 C41.1047656,3.13061538 41.1747656,3.08567308 41.2425781,3.04292308 C41.1747656,3.08567308 41.1047656,3.13061538 41.0369531,3.17226923" id="Fill-50" fill="#F6911E" sketch:type="MSShapeGroup"></path>
                <path d="M41.722625,2.73019038 C41.792625,2.68415192 41.8604375,2.64030577 41.9315313,2.59317115 C41.8604375,2.64030577 41.792625,2.68524808 41.722625,2.73019038" id="Fill-52" fill="#F6911E" sketch:type="MSShapeGroup"></path>
                <path d="M37.6403125,3.13269808 C37.6053125,3.14694808 37.5714062,3.16339038 37.5254688,3.18092885 C37.5648437,3.16229423 37.6053125,3.14694808 37.6403125,3.13269808" id="Fill-54" fill="#F6911E" sketch:type="MSShapeGroup"></path>
                <path d="M34.5950938,3.56469231 C35.0643125,3.46603846 35.5444688,3.37725 36.0399375,3.29613462 C35.5444688,3.37615385 35.0643125,3.46603846 34.5950938,3.56469231" id="Fill-56" fill="#F6911E" sketch:type="MSShapeGroup"></path>
                <path d="M34.8727969,5.54390769 L34.8213906,5.54500385 L34.8727969,5.54390769 Z" id="Fill-58" fill="#F6911E" sketch:type="MSShapeGroup"></path>
                <path d="M36.2656875,3.71881154 C36.2077188,3.74511923 36.1508438,3.77142692 36.0917813,3.79883077 C36.1508438,3.77142692 36.2088125,3.74511923 36.2656875,3.71881154" id="Fill-60" fill="#F6911E" sketch:type="MSShapeGroup"></path>
                <path d="M35.5692969,4.05116538 C35.4894531,4.09062692 35.4096094,4.13228077 35.3297656,4.17283846 C35.4096094,4.13118462 35.4894531,4.09062692 35.5692969,4.05116538" id="Fill-62" fill="#F6911E" sketch:type="MSShapeGroup"></path>
                <path d="M37.7546094,3.08830385 L37.6944531,3.11132308 L37.7546094,3.08830385 Z" id="Fill-64" fill="#F6911E" sketch:type="MSShapeGroup"></path>
                <path d="M36.6010312,3.56787115 C36.5354062,3.59637115 36.470875,3.62487115 36.4041562,3.65556346 C36.4774375,3.62487115 36.5354062,3.59637115 36.6010312,3.56787115" id="Fill-66" fill="#F6911E" sketch:type="MSShapeGroup"></path>
                <path d="M37.8101719,3.06692885 L37.7850156,3.07679423 L37.8101719,3.06692885 Z" id="Fill-68" fill="#F6911E" sketch:type="MSShapeGroup"></path>
                <path d="M39.6536875,3.97838077 C39.7061875,3.94988077 39.7586875,3.92247692 39.8122813,3.89288077 C39.7586875,3.92247692 39.7061875,3.94988077 39.6536875,3.97838077" id="Fill-70" fill="#F6911E" sketch:type="MSShapeGroup"></path>
                <path d="M34.5919219,4.58641731 L34.6542656,4.55024423 C34.7286406,4.50530192 34.8052031,4.46035962 34.8839531,4.41541731 C34.9266094,4.39239808 34.9670781,4.36937885 35.0086406,4.34635962 C35.0720781,4.31018654 35.1366094,4.27620577 35.2022344,4.242225 C35.2437969,4.21810962 35.2864531,4.19618654 35.3302031,4.17316731 C35.4089531,4.13151346 35.4887969,4.09095577 35.5697344,4.05149423 C35.6233281,4.02409038 35.6747344,3.99887885 35.7283281,3.97257115 C35.8005156,3.93639808 35.8748906,3.90132115 35.9459844,3.86734038 C35.9952031,3.843225 36.0433281,3.82239808 36.0914531,3.79828269 C36.1505156,3.771975 36.2084844,3.74457115 36.2653594,3.71826346 C36.3112969,3.69743654 36.3583281,3.67660962 36.4042656,3.65578269 C36.4775469,3.62509038 36.5355156,3.59659038 36.6011406,3.56809038 C36.6612969,3.54178269 36.7192656,3.515475 36.7772344,3.49135962 C36.8352031,3.46505192 36.8931719,3.44093654 36.9478594,3.41901346 C36.9872344,3.40037885 37.0266094,3.38393654 37.0692656,3.36859038 C37.1141094,3.34776346 37.1578594,3.32912885 37.2059844,3.31049423 C37.2344219,3.29734038 37.2672344,3.28309038 37.2989531,3.27103269 C37.3580156,3.24582115 37.4137969,3.22389808 37.4652031,3.20307115 L37.5253594,3.18114808 C37.5712969,3.16251346 37.6052031,3.14716731 37.6402031,3.13291731 L37.6948906,3.11099423 L37.7550469,3.087975 L37.7845781,3.07591731 L37.8097344,3.06714808 C37.2519219,3.12085962 36.7050469,3.19101346 36.1833281,3.273225 C36.1308281,3.28199423 36.0870781,3.28857115 36.0400469,3.29624423 C35.5445781,3.37626346 35.0644219,3.46505192 34.5952031,3.56480192 L34.5919219,3.56480192 L34.5919219,4.58641731 Z" id="Fill-72" fill="#808083" sketch:type="MSShapeGroup"></path>
                <path d="M34.579125,52.2208788 L34.579125,52.2208788 C34.4467813,52.2197827 34.3155313,52.2175904 34.185375,52.2121096 L34.185375,53.8815519 C34.185375,53.9429365 34.1974063,54.0021288 34.2236563,54.0558404 C33.6505313,54.6093981 33.0752188,54.8505519 32.4583438,54.7902635 C30.8625625,54.6269365 29.5435,52.4938212 29.530375,52.4718981 C29.4013125,52.2570519 29.1224063,52.1901865 28.9102188,52.3206288 C28.69475,52.4510712 28.6269375,52.7305904 28.7570938,52.9443404 C28.8205313,53.0473788 30.3211563,55.4808404 32.3642813,55.6923981 C33.1517812,55.7735135 33.8988125,55.5181096 34.59225,54.9393404 C34.6261563,54.9108404 34.6611563,54.8845327 34.6961563,54.8538404 L34.6961563,52.2208788 L34.579125,52.2208788" id="Fill-74" fill="#616264" sketch:type="MSShapeGroup"></path>
                <path d="M34.6965937,52.2204404 L34.6965937,54.8544981 L34.7283125,54.8249019 C35.233625,55.1877288 36.2497187,55.7884212 37.438625,55.7884212 C37.5994062,55.7884212 37.7645625,55.7774596 37.9340938,55.7533442 C39.0781562,55.587825 40.0625312,54.846825 40.8576875,53.5511712 C40.9900313,53.3396135 40.9222187,53.0589981 40.7122187,52.9285558 C40.4956562,52.7959212 40.21675,52.8616904 40.0865937,53.0765365 C39.4401875,54.1277481 38.6734688,54.7273442 37.806125,54.8534019 C36.5537813,55.0364596 35.3987812,54.205575 35.0837812,53.9556519 L35.0903437,53.8811135 L35.0903437,52.210575 C35.0433125,52.2127673 34.997375,52.2193442 34.94925,52.2204404 C34.8628437,52.2215365 34.7797188,52.2204404 34.6965937,52.2204404" id="Fill-76" fill="#2E2E2F" sketch:type="MSShapeGroup"></path>
                <path d="M38.3644844,44.5681904 C38.4497969,44.5835365 38.5351094,44.5977865 38.6182344,44.6142288 C38.5351094,44.5977865 38.4497969,44.5835365 38.3644844,44.5681904" id="Fill-78" fill="#3B2313" sketch:type="MSShapeGroup"></path>
                <path d="M38.8793125,44.666625 C38.9657188,44.6852596 39.0510313,44.7027981 39.1341563,44.7214327 C39.0510313,44.7027981 38.9657188,44.6852596 38.8793125,44.666625" id="Fill-80" fill="#3B2313" sketch:type="MSShapeGroup"></path>
                <path d="M37.8336875,44.4798404 C37.914625,44.4918981 37.9955625,44.5050519 38.0765,44.5182058 C37.9955625,44.5039558 37.914625,44.4918981 37.8336875,44.4798404" id="Fill-82" fill="#3B2313" sketch:type="MSShapeGroup"></path>
                <path d="M39.3739063,44.7774462 C39.458125,44.7982731 39.5423438,44.8191 39.624375,44.8399269 C39.5423438,44.8180038 39.4646875,44.7982731 39.3739063,44.7774462" id="Fill-84" fill="#3B2313" sketch:type="MSShapeGroup"></path>
                <path d="M36.2058594,44.2834096 C36.2550781,44.2877942 36.3032031,44.2910827 36.3502344,44.2965635 C36.3032031,44.2910827 36.2550781,44.2877942 36.2058594,44.2834096" id="Fill-86" fill="#3B2313" sketch:type="MSShapeGroup"></path>
                <path d="M36.7399375,44.3364635 C36.8066563,44.3441365 36.873375,44.3518096 36.9400938,44.3583865 C36.873375,44.3518096 36.80775,44.3441365 36.7399375,44.3364635" id="Fill-88" fill="#3B2313" sketch:type="MSShapeGroup"></path>
                <path d="M41.0380469,45.316425 C41.1058594,45.3471173 41.1703906,45.3800019 41.2338281,45.4117904 C41.1703906,45.3800019 41.1069531,45.3471173 41.0380469,45.316425" id="Fill-90" fill="#3B2313" sketch:type="MSShapeGroup"></path>
                <path d="M35.7465938,44.2449346 L35.749875,44.2449346 L35.7465938,44.2449346 Z" id="Fill-92" fill="#3B2313" sketch:type="MSShapeGroup"></path>
                <path d="M37.2888906,44.4022327 C37.3665469,44.4131942 37.4409219,44.4219635 37.5163906,44.432925 C37.4409219,44.4219635 37.3665469,44.4131942 37.2888906,44.4022327" id="Fill-94" fill="#3B2313" sketch:type="MSShapeGroup"></path>
                <path d="M41.3573125,45.4743808 C41.4240313,45.5094577 41.4743438,45.5445346 41.5323125,45.5807077 C41.4743438,45.5445346 41.4240313,45.5094577 41.3573125,45.4743808" id="Fill-96" fill="#3B2313" sketch:type="MSShapeGroup"></path>
                <path d="M39.8395156,44.8968173 C39.9226406,44.9198365 40.0035781,44.9450481 40.0834219,44.9669712 C40.0035781,44.9450481 39.9226406,44.9198365 39.8395156,44.8968173" id="Fill-98" fill="#3B2313" sketch:type="MSShapeGroup"></path>
                <path d="M40.6759062,45.1671288 C40.751375,45.1956288 40.821375,45.225225 40.8902812,45.2559173 C40.821375,45.225225 40.751375,45.1956288 40.6759062,45.1671288" id="Fill-100" fill="#3B2313" sketch:type="MSShapeGroup"></path>
                <path d="M40.275375,45.0273692 C40.354125,45.0525808 40.4317813,45.0788885 40.50725,45.1051962 C40.4317813,45.0788885 40.354125,45.0525808 40.275375,45.0273692" id="Fill-102" fill="#3B2313" sketch:type="MSShapeGroup"></path>
                <path d="M41.8497188,45.8163808 C41.9153438,45.8766692 41.971125,45.9369577 42.0170625,45.9994385 C41.971125,45.9369577 41.9153438,45.8766692 41.8497188,45.8163808" id="Fill-104" fill="#3B2313" sketch:type="MSShapeGroup"></path>
                <path d="M41.785625,45.7627788 C41.750625,45.7364712 41.7178125,45.7079712 41.6817188,45.6805673 L41.628125,45.6422019 C41.685,45.6816635 41.7353125,45.7222212 41.785625,45.7627788" id="Fill-106" fill="#3B2313" sketch:type="MSShapeGroup"></path>
                <path d="M34.579125,52.2204404 L34.579125,44.1823442 C31.6544375,44.0847865 28.7702188,44.4322673 27.7552188,45.3826327 C27.649125,45.4812865 27.5539687,45.5832288 27.4664688,45.6851712 C25.2089688,48.3225173 28.76475,52.0132673 34.185375,52.2127673 C34.3155312,52.2182481 34.4467813,52.2204404 34.579125,52.2204404" id="Fill-108" fill="#616264" sketch:type="MSShapeGroup"></path>
                <path d="M34.579125,44.1822346 L34.579125,52.2203308 L34.579125,52.2214269 C34.6174063,52.2214269 34.6556875,52.2203308 34.6961563,52.2203308 C34.780375,52.2214269 34.8635,52.2225231 34.9499063,52.2203308 C34.9980313,52.2192346 35.0439688,52.2126577 35.091,52.2104654 C41.0442813,52.0011 43.4231875,47.9124462 42.0177188,45.9996577 C41.9717813,45.9371769 41.9149063,45.8768885 41.8492813,45.8166 L41.7858438,45.7628885 C41.7355313,45.7223308 41.6852188,45.6817731 41.6283438,45.6423115 C41.5988125,45.6203885 41.5638125,45.6017538 41.5320938,45.5798308 C41.4752188,45.5447538 41.4238125,45.5096769 41.3570938,45.4746 C41.3177188,45.4526769 41.2750625,45.4329462 41.2335,45.4121192 C41.1700625,45.3792346 41.106625,45.34635 41.0377188,45.3167538 C40.9906875,45.2948308 40.9414688,45.2751 40.8911563,45.2553692 C40.8211563,45.2246769 40.75225,45.1950808 40.6756875,45.1665808 C40.6231875,45.1457538 40.564125,45.1271192 40.50725,45.1051962 C40.4317813,45.0788885 40.354125,45.0536769 40.275375,45.0273692 C40.2130313,45.0076385 40.1485,44.9879077 40.082875,44.9670808 C40.004125,44.9440615 39.9231875,44.9199462 39.8400625,44.8969269 C39.7700625,44.8771962 39.697875,44.8585615 39.6235,44.8399269 C39.5425625,44.8180038 39.4583438,44.7982731 39.374125,44.7774462 C39.295375,44.7588115 39.2155312,44.7401769 39.1345938,44.7215423 C39.0514688,44.7029077 38.9661563,44.6853692 38.87975,44.6667346 C38.7944375,44.6491962 38.709125,44.6316577 38.6183438,44.6141192 C38.5352187,44.5976769 38.4499063,44.5834269 38.3645938,44.5680808 C38.2683437,44.5505423 38.1731875,44.5330038 38.0758438,44.5176577 C37.996,44.5045038 37.9150625,44.4924462 37.834125,44.4792923 C37.7280313,44.46285 37.6230313,44.4475038 37.5169375,44.4332538 C37.440375,44.4222923 37.3670938,44.4135231 37.2894375,44.4025615 C37.1724063,44.3872154 37.0575625,44.3718692 36.9394375,44.3587154 C36.8738125,44.3510423 36.806,44.3444654 36.740375,44.3367923 C36.6102188,44.3225423 36.4811563,44.3082923 36.3499063,44.2962346 C36.302875,44.2907538 36.25475,44.2874654 36.2055313,44.2830808 C36.0556875,44.2699269 35.9036563,44.2567731 35.7494375,44.2447154 L35.7461563,44.2447154 C35.3633438,44.2162154 34.9761563,44.1953885 34.59225,44.1822346 L34.579125,44.1822346 Z" id="Fill-110" fill="#2E2E2F" sketch:type="MSShapeGroup"></path>
                <path d="M28.8284063,26.9001635 C32.412625,30.4922596 31.8898125,36.8400865 27.661375,41.0789135 C23.4296563,45.3177404 17.09575,45.8417019 13.5115313,42.2507019 C9.933875,38.6586058 10.4545,32.3107788 14.68075,28.0719519 C18.911375,23.8342212 25.246375,23.3091635 28.8284063,26.9001635" id="Fill-112" fill="#9A9C9E" sketch:type="MSShapeGroup"></path>
                <path d="M40.3565313,26.9001635 C36.7755938,30.4922596 37.2973125,36.8400865 41.5246562,41.0789135 C45.7552813,45.3177404 52.0891875,45.8417019 55.6723125,42.2507019 C59.2565313,38.6586058 58.7337188,32.3107788 54.5041875,28.0719519 C50.2735625,23.8342212 43.9396563,23.3091635 40.3565313,26.9001635" id="Fill-114" fill="#9A9C9E" sketch:type="MSShapeGroup"></path>
                <path d="M19.3670312,35.6415519 C19.3670312,37.8634558 21.1651562,39.6655327 23.38,39.6655327 C25.5970312,39.6655327 27.3951562,37.8634558 27.3951562,35.6415519 C27.3951562,33.4185519 25.5970312,31.616475 23.38,31.616475 L23.38,35.6415519 L19.3670312,35.6415519 L19.3670312,35.6415519 Z" id="Fill-116" fill="#404041" sketch:type="MSShapeGroup"></path>
                <path d="M41.7354219,35.6411135 L41.7354219,35.6411135 C41.7354219,37.8641135 43.5335469,39.6650942 45.7538594,39.6650942 C47.9687031,39.6650942 49.7668281,37.8641135 49.7668281,35.6411135 C49.7668281,33.4181135 47.9687031,31.6171327 45.7538594,31.6171327 L45.7538594,35.6411135 L41.7354219,35.6411135 Z" id="Fill-118" fill="#323031" sketch:type="MSShapeGroup"></path>
            </g>
        </g>
    </g>
</svg>
