<?xml version="1.0" encoding="UTF-8" standalone="no"?>
<!--

    Copyright (C) 2017-2018 Dremio Corporation

    Licensed under the Apache License, Version 2.0 (the "License");
    you may not use this file except in compliance with the License.
    You may obtain a copy of the License at

        http://www.apache.org/licenses/LICENSE-2.0

    Unless required by applicable law or agreed to in writing, software
    distributed under the License is distributed on an "AS IS" BASIS,
    WITHOUT WARRANTIES OR CONDITIONS OF ANY KIND, either express or implied.
    See the License for the specific language governing permissions and
    limitations under the License.

-->
<svg width="110px" height="110px" viewBox="0 0 110 110" version="1.1" xmlns="http://www.w3.org/2000/svg" xmlns:xlink="http://www.w3.org/1999/xlink" xmlns:sketch="http://www.bohemiancoding.com/sketch/ns">
    <!-- Generator: Sketch 3.5.2 (25235) - http://www.bohemiancoding.com/sketch -->
    <title>Avatar/Ram</title>
    <desc>Created with Sketch.</desc>
    <defs>
        <path id="path-1" d="M0,1.04354098 L76.8096,1.04354098 L76.8096,73 L0,73 L0,1.04354098 Z"></path>
        <path id="path-3" d="M0,1.04354098 L76.8096,1.04354098 L76.8096,73 L0,73 L0,1.04354098 Z"></path>
        <path id="path-5" d="M0,1.04354098 L76.8096,1.04354098 L76.8096,73 L0,73"></path>
        <path id="path-7" d="M0,1.04354098 L76.8096,1.04354098 L76.8096,73 L0,73"></path>
    </defs>
    <g id="Avatars" stroke="none" stroke-width="1" fill="none" fill-rule="evenodd" sketch:type="MSPage">
        <g id="Avatar/Ram" sketch:type="MSArtboardGroup">
            <g id="Background-Circle" sketch:type="MSLayerGroup" fill="#FFBB57">
                <circle id="Gold" sketch:type="MSShapeGroup" cx="55" cy="55" r="55"></circle>
            </g>
            <g id="Page-1" sketch:type="MSLayerGroup" transform="translate(17.000000, 19.000000)">
                <g id="Group-3">
                    <mask id="mask-2" sketch:name="Clip 2" fill="white">
                        <use xlink:href="#path-1"></use>
                    </mask>
                    <g id="Clip-2"></g>
                    <path d="M43.65,3.8857541 L43.7484,3.90968852 L43.7676,3.82113115 C44.0232,2.64954098 44.9952,1.9542459 45.9432,2.26898361 C46.8276,2.56098361 47.376,3.62606557 47.2416,4.71747541 C47.6712,3.74813115 48.6288,3.31252459 49.476,3.74214754 C50.3832,4.20288525 50.8176,5.48577049 50.4444,6.60829508 C50.4252,6.66932787 50.4024,6.72677049 50.3784,6.78421311 L50.4684,6.84045902 C50.4888,6.78181967 50.514,6.72437705 50.5404,6.66693443 C51.0312,5.61621311 52.1184,5.256 52.9692,5.8627377 C53.7612,6.42759016 54.0684,7.62909836 53.7096,8.64152459 C54.3276,7.8445082 55.3452,7.73081967 56.076,8.41534426 C56.8524,9.15132787 57.0024,10.5287541 56.4096,11.4933115 C56.3472,11.5890492 56.2824,11.6776066 56.214,11.7589836 L56.2992,11.8547213 C56.358,11.7589836 56.4192,11.6668361 56.4864,11.5806721 C57.1812,10.722623 58.3092,10.722623 59.0016,11.5806721 C59.6484,12.3788852 59.6928,13.6390328 59.1348,14.5018689 C59.8992,13.9286393 60.906,14.1440492 61.464,15.038 C62.0628,15.9977705 61.92,17.3775902 61.1424,18.1183607 C61.0284,18.2272623 60.9096,18.3158197 60.7824,18.3852295 L60.864,18.5408033 C60.9636,18.4235246 61.0776,18.3170164 61.2024,18.228459 C62.0532,17.6217213 63.1404,17.9819344 63.63,19.0326557 C64.0872,20.0091803 63.8676,21.2418033 63.1476,21.8964098 C64.0092,21.5876557 64.932,22.1166066 65.2848,23.1589508 C65.6628,24.2778852 65.2344,25.5643607 64.3284,26.031082 C64.1628,26.1172459 63.9936,26.1687049 63.8268,26.1902459 L63.8808,26.4140328 C64.0284,26.3027377 64.188,26.2141803 64.3644,26.1567377 C65.3112,25.8431967 66.2856,26.5372951 66.5412,27.7088852 C66.7776,28.7990984 66.306,29.9180328 65.4768,30.3213279 C66.3672,30.2973934 67.1508,31.1051803 67.2768,32.2241148 C67.4088,33.425623 66.726,34.5313934 65.7492,34.6941475 C65.5488,34.726459 65.3532,34.7168852 65.1672,34.6714098 L65.1792,34.9430656 C65.3604,34.8664754 65.5596,34.8257869 65.7588,34.8257869 C66.7368,34.8257869 67.5324,35.8070984 67.5324,37.0205738 C67.5324,38.149082 66.8436,39.0801311 65.958,39.2033934 C66.8268,39.4654754 67.4112,40.4958525 67.2948,41.6159836 C67.17,42.8186885 66.2784,43.6683607 65.3088,43.5139836 C65.112,43.4828689 64.9308,43.4158525 64.7652,43.3177213 L64.7268,43.5714262 C64.9104,43.559459 65.0976,43.581 65.2836,43.6432295 C66.2316,43.9579672 66.7944,45.1618689 66.5412,46.333459 C66.306,47.4224754 65.442,48.1010164 64.5612,47.9370656 C65.3424,48.4672131 65.6952,49.6507705 65.3472,50.6955082 C64.9752,51.8168361 63.9348,52.3529672 63.0276,51.8922295 C62.8752,51.8144426 62.7372,51.7151148 62.6136,51.5966393 L62.5392,51.786918 C62.6904,51.8359836 62.838,51.9089836 62.9808,52.0107049 C63.8292,52.6174426 64.1232,53.9589672 63.63,55.0096885 C63.1752,55.9874098 62.1996,56.3667705 61.3812,55.926377 C62.0268,56.6898852 62.1192,57.9440492 61.5636,58.8415902 C60.9696,59.8061475 59.8524,59.9916393 59.076,59.2568525 C58.9752,59.1647049 58.8864,59.0629836 58.8096,58.9516885 L58.7268,59.0773443 C58.8252,59.1575246 58.9164,59.2496721 59.0016,59.3561803 C59.6952,60.2142295 59.6964,61.603623 59.0016,62.4616721 C58.3596,63.2598852 57.3348,63.3149344 56.6376,62.6280164 C57.1008,63.5710328 56.9268,64.8132295 56.2032,65.502541 C55.4268,66.2433115 54.3096,66.0661967 53.7096,65.1064262 C53.6628,65.0322295 53.6232,64.9568361 53.5824,64.8778525 L53.4984,64.9520492 C53.5416,65.0238525 53.5824,65.1004426 53.6232,65.1794262 C54.1104,66.2301475 53.82,67.5728689 52.9692,68.1796066 C52.1784,68.7432623 51.18,68.4704098 50.6508,67.5848361 C50.8992,68.6427377 50.4768,69.7868033 49.6284,70.2212131 C48.726,70.6879344 47.6796,70.1601803 47.3016,69.0412459 C47.2872,69.0005574 47.2752,68.9574754 47.2644,68.9155902 L47.1768,68.9574754 C47.1816,68.9993607 47.1912,69.0412459 47.2008,69.0843279 C47.454,70.255918 46.8912,71.4598197 45.9432,71.7733607 C45.0612,72.0653607 44.1588,71.4837541 43.8288,70.4581639 C43.8468,71.5591475 43.194,72.5284918 42.288,72.678082 C41.316,72.8396393 40.4232,71.9971475 40.2888,70.7956393 L40.2816,70.7190492 L40.1808,70.728623 L40.182,70.8040164 C40.182,72.0162951 39.3864,73 38.406,73 C37.4904,73 36.7368,72.1467377 36.6372,71.050541 C36.426,72.1216066 35.5908,72.8492131 34.6836,72.7044098 C33.7116,72.5500328 33.0252,71.4490492 33.1476,70.2463443 L33.1596,70.1565902 L33.06,70.1326557 L33.042,70.2200164 C32.7888,71.3916066 31.8144,72.0869016 30.8652,71.7733607 C29.9808,71.4813607 29.4324,70.4162787 29.568,69.3248689 C29.1384,70.2930164 28.1796,70.728623 27.3336,70.299 C26.4252,69.8382623 25.992,68.555377 26.3652,67.4340492 C26.3844,67.3730164 26.4096,67.3155738 26.43,67.2581311 L26.3412,67.2018852 C26.3232,67.2605246 26.2944,67.3179672 26.2692,67.3754098 C25.7784,68.4261311 24.6912,68.7863443 23.8404,68.1796066 C23.0484,67.6147541 22.7412,66.4120492 23.1,65.4008197 C22.4808,66.1978361 21.4644,66.3115246 20.7372,65.6258033 C19.9596,64.8910164 19.8096,63.5135902 20.4024,62.5490328 C20.4624,62.4520984 20.526,62.3647377 20.5956,62.2833607 L20.5104,62.187623 C20.454,62.2833607 20.3916,62.3755082 20.3232,62.4616721 C19.6284,63.3197213 18.5016,63.3197213 17.8092,62.4616721 C17.1612,61.663459 17.1168,60.4033115 17.676,59.5404754 C16.9104,60.1125082 15.906,59.8982951 15.3444,59.0043443 C14.7456,58.0445738 14.8896,56.6647541 15.6672,55.9239836 C15.78,55.815082 15.9012,55.7265246 16.026,55.6571148 L15.9444,55.5003443 C15.846,55.6188197 15.732,55.7241311 15.6096,55.8138852 C14.7588,56.4194262 13.6692,56.0604098 13.1784,55.0096885 C12.726,54.0319672 12.942,52.800541 13.662,52.1459344 C12.8088,52.4558852 11.8776,51.9257377 11.526,50.8833934 C11.1468,49.764459 11.5752,48.4779836 12.48,48.0112623 C12.6456,47.9250984 12.816,47.8724426 12.9852,47.8520984 L12.9276,47.6271148 C12.7812,47.7396066 12.6252,47.8281639 12.4452,47.8856066 C11.4984,48.1991475 10.5252,47.5050492 10.2684,46.333459 C10.0308,45.2432459 10.506,44.1243115 11.334,43.7210164 C10.4412,43.7449508 9.6588,42.9371639 9.5364,41.8182295 C9.4092,40.6155246 10.0872,39.5109508 11.0604,39.3481967 C11.2596,39.3158852 11.4588,39.325459 11.6424,39.3709344 L11.628,39.0992787 C11.4492,39.1758689 11.2596,39.2165574 11.0532,39.2165574 C10.0752,39.2165574 9.276,38.2340492 9.276,37.0205738 C9.276,35.8932623 9.966,34.9622131 10.8528,34.8389508 C9.9852,34.5768689 9.3984,33.5452951 9.5148,32.4263607 C9.6396,31.2236557 10.5312,30.3727869 11.5092,30.5271639 C11.6976,30.5594754 11.8776,30.6264918 12.0444,30.724623 L12.0816,30.4697213 C11.8992,30.4828852 11.712,30.4601475 11.526,30.3991148 C10.5768,30.084377 10.014,28.8804754 10.2684,27.7088852 C10.506,26.6198689 11.3664,25.9413279 12.2484,26.1052787 C11.4672,25.5751311 11.1144,24.3915738 11.4612,23.3468361 C11.8344,22.2255082 12.876,21.689377 13.782,22.1501148 C13.9332,22.2267049 14.076,22.3272295 14.196,22.4457049 L14.2704,22.2554262 C14.1192,22.2063607 13.9752,22.1321639 13.8276,22.0316393 C12.9792,21.4249016 12.6864,20.0821803 13.1784,19.0326557 C13.6344,18.0549344 14.6088,17.6755738 15.426,18.1159672 C14.7828,17.352459 14.6904,16.0970984 15.2448,15.1995574 C15.8412,14.235 16.9596,14.0495082 17.7372,14.7842951 C17.8344,14.8776393 17.9232,14.9793607 18,15.089459 L18.084,14.965 C17.9856,14.8848197 17.8944,14.7914754 17.8092,14.6861639 C17.1144,13.8281148 17.1132,12.4375246 17.8092,11.5806721 C18.4596,10.782459 19.476,10.7274098 20.1768,11.4143279 C19.7088,10.4713115 19.8828,9.22911475 20.6088,8.53980328 C21.384,7.79903279 22.5,7.97614754 23.1012,8.93591803 C23.1468,9.01011475 23.1888,9.0855082 23.226,9.1644918 L23.3112,9.08909836 C23.2692,9.0184918 23.226,8.94190164 23.1888,8.86172131 C22.6992,7.81219672 22.9896,6.46947541 23.8404,5.8627377 C24.63,5.29908197 25.6284,5.57193443 26.1588,6.4575082 C25.9104,5.39960656 26.3376,4.25434426 27.1812,3.81993443 C28.0872,3.35321311 29.1276,3.88216393 29.5092,4.99990164 C29.526,5.04178689 29.5332,5.08486885 29.5464,5.1267541 L29.6388,5.08606557 C29.6268,5.04298361 29.6184,5.00109836 29.6088,4.95801639 C29.358,3.78762295 29.9172,2.58252459 30.8652,2.26898361 C31.7484,1.97698361 32.6532,2.55859016 32.9796,3.58418033 C32.9616,2.482 33.6156,1.51385246 34.5252,1.3642623 C35.4936,1.20270492 36.3888,2.04519672 36.5232,3.24670492 L36.5268,3.32209836 L36.6276,3.31372131 L36.6276,3.23952459 C36.6276,2.02604918 37.4232,1.04234426 38.406,1.04234426 C39.3192,1.04234426 40.0752,1.89440984 40.176,2.99180328 C40.3824,1.9207377 41.2188,1.19313115 42.126,1.33793443 C43.0992,1.49231148 43.7856,2.59329508 43.662,3.79480328 L43.65,3.8857541 Z" id="Fill-1" fill="#996539" sketch:type="MSShapeGroup" mask="url(#mask-2)"></path>
                </g>
                <g id="Group-6">
                    <mask id="mask-4" sketch:name="Clip 5" fill="white">
                        <use xlink:href="#path-3"></use>
                    </mask>
                    <g id="Clip-5"></g>
                    <path d="M63.88128,47.6280721 L63.86928,47.6747443 C63.90288,47.6783344 63.93288,47.6819246 63.96528,47.6891049 C63.93768,47.6699574 63.90888,47.6496131 63.88128,47.6280721 L63.88128,47.6280721 Z M65.17968,39.1002361 L65.17608,39.1840066 C65.22648,39.1708426 65.27808,39.1612689 65.32968,39.1528918 C65.27808,39.1385311 65.22888,39.1193836 65.17968,39.1002361 L65.17968,39.1002361 Z M64.72728,30.4706787 L64.73688,30.5400885 C64.77648,30.5161541 64.81728,30.4934164 64.85808,30.4730721 C64.81368,30.4754656 64.77048,30.4730721 64.72728,30.4706787 L64.72728,30.4706787 Z M62.53968,22.2551869 L62.54808,22.2755311 L62.58648,22.2396295 L62.53968,22.2551869 Z M43.65048,3.88551475 L43.74888,3.90944918 L43.76688,3.82208852 C44.02248,2.64930164 44.99568,1.95520328 45.94368,2.26874426 C46.82688,2.56074426 47.37648,3.62582623 47.24208,4.71723607 C47.67048,3.7478918 48.62928,3.31348197 49.47528,3.74310492 C50.38368,4.2026459 50.81688,5.48672787 50.44488,6.60805574 C50.42568,6.66908852 50.40288,6.72772787 50.37888,6.78397377 L50.46768,6.84021967 C50.48928,6.78158033 50.51328,6.7241377 50.54088,6.66669508 C51.03168,5.61597377 52.11768,5.25576066 52.96848,5.86249836 C53.76048,6.42735082 54.06768,7.63005574 53.70888,8.64128525 C54.32808,7.84426885 55.34568,7.73058033 56.07528,8.41510492 C56.85288,9.15108852 57.00288,10.5285148 56.40888,11.4930721 C56.34768,11.5888098 56.28288,11.6785639 56.21328,11.7587443 L56.29968,11.854482 C56.35728,11.7587443 56.41848,11.6665967 56.48688,11.5804328 C57.18168,10.7235803 58.30848,10.7235803 59.00208,11.5804328 C59.64888,12.3786459 59.69328,13.6387934 59.13528,14.5016295 C59.89968,13.9284 60.90528,14.1438098 61.46328,15.0377607 C62.06208,15.9975311 61.91928,17.3773508 61.14288,18.1181213 C61.02888,18.227023 60.90888,18.3155803 60.78288,18.3849902 L60.86328,18.5405639 C60.96288,18.4232852 61.07688,18.316777 61.20288,18.2282197 C62.05368,17.621482 63.14088,17.9816951 63.63048,19.0324164 C64.08768,20.008941 63.86688,21.2415639 63.14808,21.8961705 C64.00848,21.5874164 64.93248,22.1163672 65.28528,23.1587115 C65.66208,24.2776459 65.23488,25.5641213 64.32888,26.0320393 C64.16208,26.1170066 63.99408,26.1684656 63.82608,26.1900066 L63.88128,26.4137934 C64.02768,26.3024984 64.18848,26.213941 64.36368,26.1564984 C65.31048,25.8429574 66.28608,26.5370557 66.54168,27.7086459 C66.77808,28.798859 66.30528,29.9189902 65.47608,30.3210885 C66.36648,30.2971541 67.15128,31.104941 67.27608,32.2238754 C67.40808,33.4253836 66.72528,34.5311541 65.74968,34.6939082 C65.54928,34.7262197 65.35368,34.7166459 65.16648,34.6711705 L65.17968,34.9428262 C65.35968,34.8662361 65.55888,34.8255475 65.75808,34.8255475 C66.73728,34.8255475 67.53288,35.806859 67.53288,37.0203344 C67.53288,38.1500393 66.84408,39.0798918 65.95728,39.2031541 C66.82608,39.4652361 67.41048,40.4956131 67.29528,41.6157443 C67.16928,42.8184492 66.27768,43.6681213 65.30808,43.5137443 C65.11128,43.4838262 64.93128,43.4156131 64.76448,43.317482 L64.72728,43.5711869 C64.90968,43.5592197 65.09808,43.5819574 65.28408,43.6429902 C66.23208,43.9577279 66.79488,45.1616295 66.54168,46.3332197 C66.30528,47.4234328 65.44248,48.100777 64.56048,47.9368262 C65.34288,48.4669738 65.69568,49.6505311 65.34768,50.6952689 C64.97448,51.8177934 63.93528,52.3527279 63.02688,51.8919902 C62.87568,51.8154 62.73768,51.7148754 62.61288,51.5964 L62.53968,51.7866787 C62.69088,51.8357443 62.83848,51.909941 62.98128,52.0116623 C63.82968,52.6172033 64.12248,53.9587279 63.63048,55.0094492 C63.17448,55.9871705 62.20008,56.3665311 61.38168,55.9261377 C62.02608,56.6896459 62.11848,57.9450066 61.56288,58.8425475 C60.96888,59.8059082 59.85288,59.9914 59.07528,59.2566131 C58.97448,59.1644656 58.88688,59.0627443 58.80888,58.9514492 L58.72608,59.0771049 C58.82568,59.1572852 58.91568,59.2494328 59.00208,59.355941 C59.69568,60.2139902 59.69688,61.6045803 59.00208,62.4614328 C58.35888,63.2596459 57.33528,63.3146951 56.63808,62.627777 C57.10128,63.5707934 56.92608,64.8129902 56.20368,65.5023016 C55.42608,66.2430721 54.30888,66.0659574 53.70888,65.1061869 C53.66208,65.0319902 53.62248,64.9565967 53.58288,64.8776131 L53.49888,64.9530066 C53.54208,65.0248098 53.58288,65.1002033 53.62248,65.1803836 C54.10968,66.2299082 53.81928,67.5738262 52.96848,68.1793672 C52.17768,68.743023 51.18048,68.4713672 50.65128,67.5845967 C50.89968,68.6424984 50.47608,69.7877607 49.62768,70.2209738 C48.72528,70.6888918 47.68008,70.159941 47.30208,69.0422033 C47.28768,69.000318 47.27448,68.9572361 47.26368,68.9153508 L47.17608,68.9572361 C47.18208,68.9991213 47.19168,69.0410066 47.20128,69.0840885 C47.45448,70.2556787 46.89168,71.460777 45.94368,71.7731213 C45.06048,72.0651213 44.15808,71.4835148 43.82928,70.4579246 C43.84728,71.5589082 43.19448,72.5282525 42.28848,72.6778426 C41.31528,72.8394 40.42248,71.9969082 40.28928,70.7954 L40.28208,70.7188098 L40.18128,70.7283836 L40.18248,70.803777 C40.18248,72.0160557 39.38688,72.9997607 38.40528,72.9997607 L38.40528,1.04330164 C39.31848,1.04330164 40.07448,1.89536721 40.17528,2.99276066 C40.38288,1.92049836 41.21808,1.1928918 42.12528,1.33769508 C43.09968,1.49207213 43.78608,2.59305574 43.66128,3.79456393 L43.65048,3.88551475 Z" id="Fill-4" fill="#8E5523" sketch:type="MSShapeGroup" mask="url(#mask-4)"></path>
                </g>
                <path d="M27.1992,21.0407541 C31.65,21.0407541 35.496,23.6292623 37.3032,27.3785902 C37.6668,27.3414918 38.0316,27.3223443 38.406,27.3223443 C38.8596,27.3223443 39.3012,27.3510656 39.7368,27.4061148 C41.5404,23.6412295 45.3924,21.0407541 49.854,21.0407541 C56.0436,21.0407541 61.0596,26.0442459 61.0596,32.2157377 C61.0596,38.3872295 56.0436,43.3907213 49.854,43.3907213 C49.5588,43.3907213 49.2648,43.3787541 48.9768,43.3560164 L48.9768,54.3000328 C48.9768,60.0969508 44.2176,64.8395574 38.406,64.8395574 C32.5908,64.8395574 27.8352,60.0969508 27.8352,54.3000328 L27.8352,43.3727705 C27.6252,43.383541 27.4128,43.3907213 27.1992,43.3907213 C21.0108,43.3907213 15.9936,38.3872295 15.9936,32.2157377 C15.9936,26.0442459 21.0108,21.0407541 27.1992,21.0407541" id="Fill-7" fill="#D1BC89" sketch:type="MSShapeGroup"></path>
                <path d="M38.40588,64.839677 L38.40588,27.3212672 C38.85948,27.3212672 39.30108,27.3511852 39.73668,27.4062344 C41.54028,23.6413492 45.39228,21.0408738 49.85388,21.0408738 C56.04348,21.0408738 61.05948,26.0431689 61.05948,32.2158574 C61.05948,38.3861525 56.04348,43.390841 49.85388,43.390841 C49.55868,43.390841 49.26468,43.3788738 48.97668,43.3561361 L48.97668,54.2989557 C48.97668,60.0970705 44.21748,64.839677 38.40588,64.839677" id="Fill-9" fill="#C9AC79" sketch:type="MSShapeGroup"></path>
                <path d="M49.85388,29.6217246 C51.45108,29.6217246 52.74468,30.9117902 52.74468,32.5046262 C52.74468,34.0962656 51.45108,35.3875279 49.85388,35.3875279 C48.25788,35.3875279 46.96428,34.0962656 46.96428,32.5046262 L49.85388,32.5046262 L49.85388,29.6217246 Z M26.95788,29.6217246 C28.55148,29.6217246 29.84508,30.9117902 29.84508,32.5046262 C29.84508,34.0962656 28.55148,35.3875279 26.95788,35.3875279 C25.35948,35.3875279 24.06348,34.0962656 24.06348,32.5046262 L26.95788,32.5046262 L26.95788,29.6217246 Z" id="Fill-11" fill="#2E2E2F" sketch:type="MSShapeGroup"></path>
                <path d="M34.7532,50.7863393 L38.5272,50.7863393 L42.3012,50.7863393 C43.1316,50.7863393 43.812,51.4636836 43.812,52.2918148 C43.812,53.1199459 43.1316,53.7972902 42.3012,53.7972902 L40.0356,53.7972902 L40.0356,59.4434213 L41.8284,59.4434213 C42.3492,59.4434213 42.7752,59.8670607 42.7752,60.385241 L42.7752,60.385241 C42.7752,60.9022246 42.3492,61.3270607 41.8284,61.3270607 L38.5272,61.3270607 L35.226,61.3270607 C34.7088,61.3270607 34.2792,60.9022246 34.2792,60.385241 L34.2792,60.385241 C34.2792,59.8670607 34.7088,59.4434213 35.226,59.4434213 L37.0176,59.4434213 L37.0176,53.7972902 L34.7532,53.7972902 C33.9264,53.7972902 33.2424,53.1199459 33.2424,52.2918148 C33.2424,51.4636836 33.9264,50.7863393 34.7532,50.7863393" id="Fill-13" fill="#2E2E2F" sketch:type="MSShapeGroup"></path>
                <g id="Group-17">
                    <mask id="mask-6" sketch:name="Clip 16" fill="white">
                        <use xlink:href="#path-5"></use>
                    </mask>
                    <g id="Clip-16"></g>
                    <path d="M35.74224,9.40132295 C35.74224,9.40132295 28.34064,1.04342131 18.14184,1.04342131 C7.94304,1.04342131 0.00024,9.9542082 0.00024,17.2446344 C0.00024,24.5350607 4.42224,31.8266836 11.82504,31.8266836 C19.22544,31.8266836 20.57784,24.542241 20.57784,20.3956016 C20.57784,16.2477656 18.14184,13.914159 15.25344,13.914159 C12.36624,13.914159 10.71624,15.1264377 10.71624,15.1264377 C10.71624,15.1264377 15.70944,14.9947984 14.98224,19.6751754 C14.26104,24.3555525 7.85184,24.0862902 8.12544,19.4956672 C8.39304,14.9050443 12.00624,13.1937328 14.71224,13.0142246 C17.41824,12.8347164 23.32704,15.4208311 24.34464,17.9530934 C25.36224,20.4853557 37.36704,16.3447 35.74224,9.40132295" id="Fill-15" fill="#FFFFFF" sketch:type="MSShapeGroup" mask="url(#mask-6)"></path>
                </g>
                <g id="Group-20">
                    <mask id="mask-8" sketch:name="Clip 19" fill="white">
                        <use xlink:href="#path-7"></use>
                    </mask>
                    <g id="Clip-19"></g>
                    <path d="M41.06724,9.40132295 C41.06724,9.40132295 48.46884,1.04342131 58.66764,1.04342131 C68.86644,1.04342131 76.80924,9.9542082 76.80924,17.2446344 C76.80924,24.5350607 72.38724,31.8266836 64.98564,31.8266836 C57.58524,31.8266836 56.23164,24.542241 56.23164,20.3956016 C56.23164,16.2477656 58.66764,13.914159 61.55844,13.914159 C64.44324,13.914159 66.09324,15.1264377 66.09324,15.1264377 C66.09324,15.1264377 61.10844,14.9947984 61.82604,19.6751754 C62.54844,24.3555525 68.95764,24.0862902 68.68644,19.4956672 C68.41644,14.9050443 64.80564,13.1937328 62.09724,13.0142246 C59.38884,12.8347164 53.48244,15.4208311 52.46484,17.9530934 C51.44724,20.4853557 39.44244,16.3447 41.06724,9.40132295" id="Fill-18" fill="#E3E4E4" sketch:type="MSShapeGroup" mask="url(#mask-8)"></path>
                </g>
            </g>
        </g>
    </g>
</svg>
