<?xml version="1.0" encoding="UTF-8" standalone="no"?>
<!--

    Copyright (C) 2017-2018 Dremio Corporation

    Licensed under the Apache License, Version 2.0 (the "License");
    you may not use this file except in compliance with the License.
    You may obtain a copy of the License at

        http://www.apache.org/licenses/LICENSE-2.0

    Unless required by applicable law or agreed to in writing, software
    distributed under the License is distributed on an "AS IS" BASIS,
    WITHOUT WARRANTIES OR CONDITIONS OF ANY KIND, either express or implied.
    See the License for the specific language governing permissions and
    limitations under the License.

-->
<svg width="110px" height="110px" viewBox="0 0 110 110" version="1.1" xmlns="http://www.w3.org/2000/svg" xmlns:xlink="http://www.w3.org/1999/xlink" xmlns:sketch="http://www.bohemiancoding.com/sketch/ns">
    <!-- Generator: Sketch 3.5.2 (25235) - http://www.bohemiancoding.com/sketch -->
    <title>Avatar/Sheep</title>
    <desc>Created with Sketch.</desc>
    <defs>
        <path id="path-1" d="M0,0.958868852 L70.9011692,0.958868852 L70.9011692,67 L0,67 L0,0.958868852 Z"></path>
        <path id="path-3" d="M0,0.958868852 L70.9011692,0.958868852 L70.9011692,67 L0,67 L0,0.958868852 Z"></path>
    </defs>
    <g id="Avatars" stroke="none" stroke-width="1" fill="none" fill-rule="evenodd" sketch:type="MSPage">
        <g id="Avatar/Sheep" sketch:type="MSArtboardGroup">
            <g id="Background-Circle" sketch:type="MSLayerGroup" fill="#2A394A">
                <circle id="Dark-Blue" sketch:type="MSShapeGroup" cx="55" cy="55" r="55"></circle>
            </g>
            <g id="Page-1" sketch:type="MSLayerGroup" transform="translate(20.000000, 21.000000)">
                <path d="M3.89796923,7.87513607 L13.2203077,7.98277541 C14.6503385,8.00034918 15.9252923,8.7757918 16.5865846,10.0345131 L20.8988308,18.229382 C21.5302154,19.4320869 21.4803692,20.8368902 20.7659077,21.9923656 C20.0492308,23.1467426 18.8086154,23.8266279 17.4417231,23.8101525 L8.11938462,23.7025131 C6.68935385,23.6849393 5.4144,22.9094967 4.75532308,21.6518738 L0.440861538,13.4559066 C-0.190523077,12.2532016 -0.140676923,10.8494967 0.574892308,9.69402131 C1.29046154,8.5385459 2.53107692,7.85975902 3.89796923,7.87513607" id="Fill-1" fill="#FFFFFF" sketch:type="MSShapeGroup"></path>
                <path d="M3.86983385,10.3153639 L13.1910646,10.4230033 C13.7172185,10.4295934 14.1614031,10.7019869 14.4062031,11.1622 L18.7151262,19.3592656 C18.9477415,19.7997082 18.9322338,20.289577 18.6674954,20.7146426 C18.4049723,21.1386098 17.9707569,21.3758557 17.4689723,21.3703639 L8.14774154,21.2616262 C7.62491077,21.2550361 7.17740308,20.983741 6.93481846,20.5224295 L2.62368,12.3264623 C2.39106462,11.8860197 2.40989538,11.3950525 2.67131077,10.9710852 C2.93383385,10.547118 3.37137231,10.3098721 3.86983385,10.3153639" id="Fill-3" fill="#DF3E52" sketch:type="MSShapeGroup"></path>
                <path d="M67.00176,7.87513607 L57.6805292,7.98277541 C56.2493908,8.00034918 54.9788677,8.7757918 54.3131446,10.0345131 L50.0031138,18.229382 C49.3695138,19.4320869 49.41936,20.8368902 50.1349292,21.9923656 C50.8516062,23.1467426 52.0933292,23.8266279 53.4591138,23.8101525 L62.7803446,23.7025131 C64.2125908,23.6849393 65.4875446,22.9094967 66.1488369,21.6518738 L70.4588677,13.4559066 C71.09136,12.2532016 71.0426215,10.8494967 70.3270523,9.69402131 C69.6103754,8.5385459 68.3686523,7.85975902 67.00176,7.87513607" id="Fill-5" fill="#FFFFFF" sketch:type="MSShapeGroup"></path>
                <path d="M67.0310031,10.3153639 L57.7097723,10.4230033 C57.1869415,10.4295934 56.7383262,10.7019869 56.4979569,11.1622 L52.1846031,19.3592656 C51.9530954,19.7997082 51.9719262,20.289577 52.2333415,20.7146426 C52.4958646,21.1386098 52.9289723,21.3758557 53.4307569,21.3703639 L62.7530954,21.2616262 C63.2792492,21.2550361 63.7245415,20.983741 63.9660185,20.5224295 L68.2771569,12.3264623 C68.5097723,11.8860197 68.4920492,11.3950525 68.2295262,10.9710852 C67.9670031,10.547118 67.5327877,10.3098721 67.0310031,10.3153639" id="Fill-7" fill="#DF3E52" sketch:type="MSShapeGroup"></path>
                <g id="Group-11">
                    <mask id="mask-2" sketch:name="Clip 10" fill="white">
                        <use xlink:href="#path-1"></use>
                    </mask>
                    <g id="Clip-10"></g>
                    <path d="M40.2949662,3.56692623 L40.3880123,3.5899918 L40.4001969,3.50761475 C40.63392,2.43341803 41.5333662,1.79527049 42.4095508,2.08304098 C43.2248123,2.35104098 43.7310277,3.32858197 43.6069662,4.33028689 C44.00352,3.44171311 44.8885662,3.04081148 45.6694892,3.43622131 C46.5069046,3.85909016 46.9078892,5.03653279 46.5633969,6.06569672 C46.5445662,6.12061475 46.5257354,6.17553279 46.5024738,6.22715574 L46.5855508,6.27877869 C46.6043815,6.22495902 46.6287508,6.17113934 46.6520123,6.11951639 C47.1061662,5.15515574 48.1097354,4.82564754 48.8939815,5.38141803 C49.6250585,5.89984426 49.9086277,7.00369672 49.5785354,7.93181148 C50.1478892,7.20030328 51.0872123,7.09595902 51.7584738,7.72422131 C52.4795815,8.39971311 52.6180431,9.66392623 52.06752,10.5492049 C52.0187815,10.6370738 51.95232,10.7183525 51.8902892,10.793041 L51.9722585,10.8809098 C52.0232123,10.793041 52.0785969,10.7084672 52.1417354,10.6293852 C52.7830892,9.84186066 53.82432,9.84186066 54.4645662,10.6293852 C55.0649354,11.3619918 55.1003815,12.5185656 54.5853046,13.3104836 C55.2953354,12.7854672 56.2213662,12.9820738 56.7364431,13.8025492 C57.2891815,14.6834344 57.1562585,15.9487459 56.4395815,16.6308279 C56.3332431,16.7296803 56.2246892,16.810959 56.1061662,16.8746639 L56.1825969,17.0174508 C56.2745354,16.9098115 56.3786585,16.8131557 56.4949662,16.7307787 C57.28032,16.1750082 58.2827815,16.503418 58.7358277,17.468877 C59.1567508,18.3662377 58.9540431,19.4964508 58.2894277,20.0972541 C59.0858585,19.8127787 59.9376738,20.2993525 60.2622277,21.2560246 C60.6111508,22.2829918 60.2168123,23.4637295 59.3793969,23.8920902 C59.2276431,23.9700738 59.0703508,24.0184016 58.9141662,24.0381721 L58.9662277,24.2435656 C59.1024738,24.141418 59.2509046,24.0601393 59.4126277,24.007418 C60.2865969,23.7196475 61.1871508,24.3566967 61.4219815,25.4319918 C61.6401969,26.4325984 61.2059815,27.4595656 60.4372431,27.8297131 C61.2624738,27.8077459 61.9880123,28.5491393 62.0987815,29.5761066 C62.2239508,30.679959 61.5892431,31.6937459 60.6942277,31.843123 C60.5103508,31.8727787 60.3264738,31.8639918 60.1547815,31.8222541 L60.1658585,32.071582 C60.33312,32.0012869 60.5169969,31.9639426 60.7008738,31.9639426 C61.6036431,31.9639426 62.3380431,32.8656967 62.3369354,33.9794344 C62.3369354,35.0151885 61.70112,35.8675164 60.8847508,35.9817459 C61.6833969,36.2222869 62.2261662,37.1690738 62.11872,38.196041 C62.0024123,39.2998934 61.1793969,40.0797295 60.2799508,39.938041 C60.10272,39.9094836 59.9354585,39.8479754 59.7825969,39.7579098 L59.7471508,39.9907623 C59.9166277,39.9797787 60.0894277,40.0006475 60.2622277,40.0566639 C61.1361969,40.3455328 61.6568123,41.4504836 61.4219815,42.5257787 C61.2059815,43.5252869 60.4084431,44.1480574 59.5942892,43.997582 C60.3153969,44.4841557 60.6410585,45.5704344 60.3264738,46.5282049 C59.9764431,47.5584672 59.0160738,48.0505328 58.1786585,47.6276639 C58.0379815,47.5573689 57.9105969,47.4651066 57.7965046,47.3563689 L57.7289354,47.5310082 C57.8673969,47.576041 58.0047508,47.6441393 58.1354585,47.7364016 C58.9185969,48.2932705 59.1899815,49.5256311 58.7358277,50.4888934 C58.3137969,51.3862541 57.4154585,51.7355328 56.6600123,51.3302377 C57.2548431,52.0309918 57.3401354,53.1831721 56.8283815,54.0069426 C56.2789662,54.8922213 55.2488123,55.0624672 54.5277046,54.3880738 C54.4379815,54.3024016 54.3560123,54.209041 54.2862277,54.1079918 L54.2064738,54.2222213 C54.2984123,54.2958115 54.3837046,54.3814836 54.4645662,54.4781393 C55.1025969,55.2645656 55.1048123,56.5408607 54.4645662,57.3283852 C53.8708431,58.0598934 52.9248738,58.1115164 52.2801969,57.4810574 C52.7077662,58.3465656 52.5471508,59.4866639 51.88032,60.1193197 C51.16032,60.7992049 50.1323815,60.6366475 49.5785354,59.7557623 C49.5342277,59.6876639 49.4954585,59.6184672 49.4600123,59.5459754 L49.3846892,59.6140738 C49.4223508,59.6799754 49.4600123,59.7491721 49.4954585,59.8238607 C49.9473969,60.787123 49.6793354,62.0194836 48.8939815,62.5763525 C48.1640123,63.0936803 47.24352,62.8443525 46.7572431,62.0304672 C46.9876431,63.001418 46.5888738,64.0514508 45.8101662,64.4512541 C44.9738585,64.8785164 44.0123815,64.3941393 43.6645662,63.3671721 C43.6501662,63.3298279 43.6379815,63.2902869 43.6280123,63.2518443 L43.5416123,63.2902869 C43.5515815,63.3276311 43.5604431,63.3671721 43.5726277,63.4078115 C43.8041354,64.4820082 43.2846277,65.586959 42.4095508,65.8747295 C41.5953969,66.1427295 40.7624123,65.6089262 40.4577969,64.6676311 C40.4744123,65.6792213 39.8718277,66.5666967 39.0344123,66.7050902 C38.1371815,66.8533689 37.3108431,66.080123 37.1889969,64.9773689 L37.1823508,64.9081721 L37.0893046,64.9158607 L37.09152,64.983959 C37.09152,66.0976967 36.3560123,67.0005492 35.4521354,67.0005492 C34.6058585,67.0005492 33.9113354,66.217418 33.8193969,65.2113197 C33.6233354,66.1943525 32.8534892,66.8621557 32.0160738,66.7292541 C31.1177354,66.5875656 30.4830277,65.5770738 30.5982277,64.4732213 L30.6093046,64.3908443 L30.5173662,64.368877 L30.5007508,64.4501557 C30.26592,65.5243525 29.3664738,66.1625 28.4913969,65.8747295 C27.6750277,65.6067295 27.1688123,64.6291885 27.2939815,63.6274836 C26.8974277,64.5160574 26.0123815,64.9158607 25.2314585,64.5215492 C24.3918277,64.0986803 23.9919508,62.9212377 24.3375508,61.8920738 C24.3552738,61.8371557 24.3752123,61.7833361 24.3973662,61.7306148 L24.3153969,61.6789918 C24.2954585,61.7328115 24.2721969,61.7855328 24.2478277,61.8382541 C23.7947815,62.8026148 22.7912123,63.1332213 22.0058585,62.5763525 C21.28032,62.0579262 20.99232,60.9540738 21.3257354,60.025959 C20.7508431,60.7574672 19.8126277,60.8618115 19.1413662,60.2335492 C18.4246892,59.5580574 18.2829046,58.2938443 18.8334277,57.4085656 C18.8877046,57.3195984 18.9464123,57.239418 19.0117662,57.1647295 L18.9320123,57.0768607 C18.8799508,57.1647295 18.8223508,57.2493033 18.7592123,57.3283852 C18.1178585,58.1159098 17.0799508,58.1159098 16.4397046,57.3283852 C15.8415508,56.5957787 15.7994585,55.4392049 16.3145354,54.6472869 C15.6100431,55.1723033 14.6829046,54.9756967 14.1645046,54.1552213 C13.6117662,53.2743361 13.7435815,52.0090246 14.4624738,51.3269426 C14.5654892,51.2280902 14.6795815,51.1468115 14.7925662,51.0831066 L14.7183508,50.9403197 C14.6264123,51.0490574 14.5222892,51.1446148 14.4059815,51.2269918 C13.6239508,51.7827623 12.6170585,51.4532541 12.1640123,50.4888934 C11.7430892,49.5915328 11.9469046,48.4613197 12.6104123,47.8605164 C11.8239508,48.1449918 10.9632738,47.658418 10.6376123,46.7017459 C10.2886892,45.6747787 10.6841354,44.494041 11.5193354,44.0656803 C11.6733046,43.9865984 11.8294892,43.9393689 11.9856738,43.9195984 L11.9325046,43.7142049 C11.7984738,43.8174508 11.6500431,43.8976311 11.48832,43.9503525 C10.6154585,44.238123 9.71379692,43.6010738 9.47896615,42.5257787 C9.25853538,41.5251721 9.69828923,40.4982049 10.4625969,40.1280574 C9.63847385,40.1500246 8.91625846,39.4086311 8.80216615,38.3816639 C8.68585846,37.2778115 9.31059692,36.2640246 10.2100431,36.1146475 C10.39392,36.0838934 10.5777969,36.0937787 10.7461662,36.134418 L10.7339815,35.8861885 C10.5711508,35.9564836 10.39392,35.9938279 10.2033969,35.9938279 C9.29730462,35.9938279 8.56179692,35.0920738 8.56179692,33.9794344 C8.56179692,32.942582 9.19872,32.0891557 10.0173046,31.9760246 C9.21755077,31.7354836 8.67699692,30.7886967 8.78333538,29.7617295 C8.89742769,28.657877 9.72044308,27.878041 10.62432,28.0197295 C10.79712,28.0482869 10.9632738,28.1097951 11.1172431,28.1998607 L11.1526892,27.9670082 C10.9876431,27.9779918 10.8104123,27.957123 10.63872,27.9011066 C9.76253538,27.6122377 9.24413538,26.5072869 9.47896615,25.4319918 C9.69828923,24.4324836 10.4925046,23.8097131 11.3110892,23.9601885 C10.5855508,23.4736148 10.2587815,22.3873361 10.5800123,21.4284672 C10.9245046,20.3993033 11.8837662,19.9072377 12.7211815,20.3301066 C12.8618585,20.4004016 12.9903508,20.4926639 13.1033354,20.6014016 L13.1720123,20.4267623 C13.0324431,20.3817295 12.8961969,20.3136311 12.7643815,20.2213689 C11.9801354,19.6655984 11.7098585,18.4321393 12.1640123,17.468877 C12.5860431,16.5715164 13.4854892,16.2233361 14.2398277,16.6275328 C13.6461046,15.9267787 13.5597046,14.7745984 14.0725662,13.9508279 C14.6219815,13.0655492 15.6554585,12.8953033 16.3721354,13.5696967 C16.4618585,13.6553689 16.5438277,13.7498279 16.6180431,13.8497787 L16.6922585,13.7355492 C16.6014277,13.661959 16.5172431,13.5762869 16.4397046,13.4796311 C15.7972431,12.6932049 15.7972431,11.4158115 16.4397046,10.6293852 C17.0400738,9.89677869 17.9760738,9.8462541 18.6207508,10.4767131 C18.1931815,9.61120492 18.3537969,8.47110656 19.0239508,7.83845082 C19.7384123,7.15966393 20.7718892,7.32112295 21.3257354,8.2020082 C21.3656123,8.27010656 21.4043815,8.34040164 21.43872,8.41179508 L21.5184738,8.34369672 C21.4785969,8.27779508 21.43872,8.20859836 21.4043815,8.13390984 C20.9568738,7.1717459 21.2205046,5.93718852 22.0058585,5.38141803 C22.7358277,4.86409016 23.65632,5.11341803 24.1470277,5.92730328 C23.9166277,4.95635246 24.3120738,3.90631967 25.0907815,3.50651639 C25.9259815,3.0792541 26.8874585,3.56363115 27.2397046,4.59059836 C27.2507815,4.62794262 27.2618585,4.66748361 27.2729354,4.70592623 L27.3582277,4.66748361 C27.3482585,4.62904098 27.3393969,4.59059836 27.3316431,4.55105738 C27.1001354,3.47686066 27.61632,2.37081148 28.4913969,2.08304098 C29.3110892,1.81504098 30.1418585,2.34884426 30.4431508,3.29013934 C30.4265354,2.27854918 31.0302277,1.38997541 31.8654277,1.25268033 C32.7626585,1.10440164 33.5901046,1.87764754 33.7108431,2.98040164 L33.7163815,3.04959836 L33.8094277,3.0430082 L33.8094277,2.97381148 C33.8094277,1.86007377 34.5438277,0.958319672 35.4521354,0.958319672 C36.2939815,0.958319672 36.9896123,1.74035246 37.0815508,2.74645082 C37.2753969,1.76231967 38.0485662,1.09561475 38.8848738,1.22741803 C39.7876431,1.37020492 40.41792,2.38069672 40.30272,3.48454918 L40.2949662,3.56692623 Z" id="Fill-9" fill="#FFFFFF" sketch:type="MSShapeGroup" mask="url(#mask-2)"></path>
                </g>
                <g id="Group-14">
                    <mask id="mask-4" sketch:name="Clip 13" fill="white">
                        <use xlink:href="#path-3"></use>
                    </mask>
                    <g id="Clip-13"></g>
                    <path d="M58.9666708,43.7139852 L58.9555938,43.7568213 C58.9877169,43.7601164 59.0154092,43.7645098 59.0442092,43.7700016 C59.0187323,43.7524279 58.9932554,43.7337557 58.9666708,43.7139852 L58.9666708,43.7139852 Z M60.1663015,35.8870672 L60.1629785,35.9639525 C60.2083938,35.9529689 60.2560246,35.9430836 60.3036554,35.9364934 C60.2571323,35.9222148 60.2117169,35.9057393 60.1663015,35.8870672 L60.1663015,35.8870672 Z M59.7475938,27.9667885 L59.7575631,28.0304934 C59.7930092,28.0085262 59.8306708,27.9887557 59.86944,27.9689852 C59.8284554,27.971182 59.7874708,27.9700836 59.7475938,27.9667885 L59.7475938,27.9667885 Z M57.7293785,20.4265426 L57.7360246,20.4452148 L57.7714708,20.4122639 L57.7293785,20.4265426 Z M40.2954092,3.56670656 L40.3884554,3.58977213 L40.3995323,3.50849344 C40.6332554,2.43319836 41.5338092,1.79505082 42.4099938,2.08282131 C43.2252554,2.35082131 43.7314708,3.3283623 43.6074092,4.33006721 C44.0028554,3.44149344 44.8890092,3.04169016 45.6699323,3.43600164 C46.5073477,3.85887049 46.9072246,5.03631311 46.56384,6.06547705 C46.5450092,6.12039508 46.5261785,6.17531311 46.5029169,6.22693607 L46.5848862,6.27855902 C46.6048246,6.22473934 46.6280862,6.17091967 46.6524554,6.11929672 C47.1066092,5.15603443 48.1090708,4.82542787 48.8933169,5.38229672 C49.6243938,5.89962459 49.9079631,7.00347705 49.5778708,7.9315918 C50.1483323,7.20008361 51.0876554,7.09573934 51.7578092,7.72400164 C52.4800246,8.39949344 52.6184862,9.66370656 52.0668554,10.5500836 C52.0192246,10.6379525 51.9527631,10.7181328 51.8896246,10.7928213 L51.9727015,10.8806902 C52.0225477,10.7928213 52.0779323,10.7082475 52.1421785,10.6291656 C52.7835323,9.84273934 53.8236554,9.84164098 54.4650092,10.6291656 C55.0653785,11.3617721 55.1008246,12.5194443 54.5857477,13.3102639 C55.2957785,12.7852475 56.2207015,12.9818541 56.7357785,13.8034279 C57.2885169,14.6832148 57.1555938,15.9496246 56.4400246,16.6306082 C56.3336862,16.7294607 56.2240246,16.8107393 56.1066092,16.8744443 L56.1819323,17.0172311 C56.2738708,16.9095918 56.3791015,16.8129361 56.4954092,16.730559 C57.2807631,16.1747885 58.2832246,16.5042967 58.7362708,17.4686574 C59.1571938,18.366018 58.9533785,19.4962311 58.2898708,20.0970344 C59.0851938,19.812559 59.9381169,20.2991328 60.2626708,21.2558049 C60.6104862,22.2827721 60.2172554,23.4635098 59.37984,23.8929689 C59.2269785,23.9698541 59.0707938,24.018182 58.9146092,24.0379525 L58.9666708,24.2433459 C59.1018092,24.1411984 59.2513477,24.0599197 59.4119631,24.0071984 C60.2859323,23.7194279 61.1875938,24.356477 61.4224246,25.4317721 C61.64064,26.433477 61.2053169,27.4593459 60.4376862,27.8294934 C61.2618092,27.8075262 61.9884554,28.5489197 62.0981169,29.5758869 C62.2232862,30.6797393 61.5885785,31.6946246 60.6946708,31.8429033 C60.5107938,31.872559 60.3269169,31.8637721 60.1541169,31.8220344 L60.1663015,32.0713623 C60.3324554,32.0010672 60.5163323,31.963723 60.7002092,31.963723 C61.6040862,31.963723 62.3384862,32.865477 62.3373785,33.9792148 C62.3373785,35.0149689 61.7015631,35.8672967 60.8840862,35.9815262 C61.68384,36.2220672 62.2255015,37.1688541 62.1191631,38.1969197 C62.0017477,39.2996738 61.17984,40.0795098 60.2803938,39.9378213 C60.1020554,39.9103623 59.9359015,39.8477557 59.7819323,39.7576902 L59.7475938,39.9905426 C59.9159631,39.979559 60.0898708,40.0004279 60.2626708,40.0564443 C61.13664,40.3453131 61.6572554,41.4502639 61.4224246,42.525559 C61.2053169,43.5261656 60.4088862,44.1478377 59.5936246,43.9973623 C60.31584,44.4839361 60.6415015,45.5702148 60.3269169,46.5290836 C59.9768862,47.5582475 59.0165169,48.0503131 58.1791015,47.6274443 C58.0384246,47.5571492 57.91104,47.4648869 57.79584,47.3561492 L57.7293785,47.5318869 C57.86784,47.5758213 58.0051938,47.6439197 58.1359015,47.736182 C58.91904,48.2930508 59.1893169,49.5254115 58.7362708,50.4886738 C58.31424,51.3860344 57.4159015,51.7353131 56.6604554,51.330018 C57.2541785,52.0307721 57.3394708,53.1829525 56.8277169,54.006723 C56.2783015,54.8920016 55.2492554,55.0622475 54.52704,54.3878541 C54.4384246,54.3032803 54.3564554,54.2088213 54.2855631,54.1077721 L54.2069169,54.2220016 C54.2977477,54.2955918 54.38304,54.3812639 54.4650092,54.4779197 C55.10304,55.2654443 55.1052554,56.5417393 54.4650092,57.3281656 C53.8701785,58.0596738 52.9253169,58.1112967 52.28064,57.4808377 C52.7082092,58.3463459 52.5475938,59.4864443 51.8807631,60.1191 C51.1607631,60.7989852 50.1317169,60.6364279 49.5778708,59.7555426 C49.5335631,59.6874443 49.4947938,59.6182475 49.4604554,59.5457557 L49.3851323,59.6149525 C49.4227938,59.6808541 49.4604554,59.7500508 49.4947938,59.823641 C49.9467323,60.7869033 49.6786708,62.0203623 48.8933169,62.5761328 C48.1644554,63.0934607 47.2439631,62.8441328 46.7576862,62.0302475 C46.9880862,63.0022967 46.5882092,64.0523295 45.8106092,64.4510344 C44.9731938,64.8793951 44.0128246,64.3939197 43.6650092,63.3669525 C43.6506092,63.3296082 43.6384246,63.2900672 43.6273477,63.2516246 L43.5409477,63.2900672 C43.5520246,63.3274115 43.5608862,63.3669525 43.5730708,63.4075918 C43.8034708,64.4817885 43.2850708,65.5878377 42.4099938,65.8745098 C41.5947323,66.1425098 40.7617477,65.6098049 40.45824,64.6674115 C40.4748554,65.6790016 39.8722708,66.5675754 39.0348554,66.7048705 C38.1365169,66.8531492 37.3101785,66.0799033 37.18944,64.9771492 L37.1827938,64.9079525 L37.0897477,64.915641 L37.0919631,64.9848377 C37.0919631,66.097477 36.3564554,67.0003295 35.4514708,67.0003295 L35.4514708,0.9581 C36.2933169,0.9581 36.9889477,1.74013279 37.0808862,2.74623115 C37.27584,1.76319836 38.0479015,1.09539508 38.8842092,1.22719836 C39.7880862,1.36998525 40.4183631,2.38047705 40.3020554,3.48432951 L40.2954092,3.56670656 Z" id="Fill-12" fill="#E3E4E4" sketch:type="MSShapeGroup" mask="url(#mask-4)"></path>
                </g>
                <path d="M25.11072,19.3119262 C29.2180431,19.3119262 32.7648738,21.6876803 34.4341662,25.1299426 C34.7686892,25.0947951 35.1065354,25.0772213 35.4521354,25.0772213 C35.8708431,25.0772213 36.2795815,25.1024836 36.6805662,25.1541066 C38.34432,21.6986639 41.90112,19.3119262 46.01952,19.3119262 C51.7318892,19.3119262 56.3631508,23.9041721 56.3631508,29.568418 C56.3631508,35.2326639 51.7318892,39.8249098 46.01952,39.8249098 C45.7470277,39.8249098 45.4756431,39.8139262 45.2064738,39.7930574 L45.2064738,49.8375656 C45.2064738,55.1580246 40.8166892,59.5119262 35.4521354,59.5119262 C30.0842585,59.5119262 25.6944738,55.1580246 25.6944738,49.8375656 L25.6944738,39.8084344 C25.5006277,39.8183197 25.3034585,39.8249098 25.11072,39.8249098 C19.3950277,39.8249098 14.7626585,35.2326639 14.7626585,29.568418 C14.7626585,23.9041721 19.3950277,19.3119262 25.11072,19.3119262" id="Fill-15" fill="#D1BC89" sketch:type="MSShapeGroup"></path>
                <path d="M35.4520246,59.5114869 L35.4520246,25.076782 C35.8707323,25.076782 36.2794708,25.1031426 36.6804554,25.1547656 C38.3442092,21.699323 41.9010092,19.3114869 46.0194092,19.3114869 C51.7317785,19.3114869 56.36304,23.9037328 56.36304,29.5679787 C56.36304,35.233323 51.7317785,39.8244705 46.0194092,39.8244705 C45.7469169,39.8244705 45.4755323,39.8134869 45.2063631,39.7937164 L45.2063631,49.8371262 C45.2063631,55.1575852 40.8165785,59.5114869 35.4520246,59.5114869" id="Fill-17" fill="#C9AC79" sketch:type="MSShapeGroup"></path>
                <path d="M46.0194092,27.1876115 C47.4948554,27.1876115 48.68784,28.3727426 48.68784,29.8335623 C48.68784,31.2954803 47.4948554,32.4795131 46.0194092,32.4795131 C44.5461785,32.4795131 43.3509785,31.2954803 43.3509785,29.8335623 L46.0194092,29.8335623 L46.0194092,27.1876115 Z M24.88464,27.1876115 C26.3556554,27.1876115 27.54864,28.3727426 27.54864,29.8335623 C27.54864,31.2954803 26.3556554,32.4795131 24.88464,32.4795131 C23.4091938,32.4795131 22.2128862,31.2954803 22.2128862,29.8335623 L24.88464,29.8335623 L24.88464,27.1876115 Z" id="Fill-19" fill="#2E2E2F" sketch:type="MSShapeGroup"></path>
                <path d="M32.08032,46.6126689 L35.5617969,46.6126689 L39.0488123,46.6126689 C39.81312,46.6126689 40.4411815,47.234341 40.4411815,47.9944066 C40.4411815,48.7544721 39.81312,49.3761443 39.0488123,49.3761443 L36.9563815,49.3761443 L36.9563815,54.5593082 L38.6112738,54.5593082 C39.0942277,54.5593082 39.4830277,54.9470295 39.4830277,55.4226197 C39.4830277,55.8982098 39.0942277,56.2859311 38.6112738,56.2859311 L35.5617969,56.2859311 L32.5145354,56.2859311 C32.0393354,56.2859311 31.6427815,55.8982098 31.6427815,55.4226197 C31.6427815,54.9470295 32.0393354,54.5593082 32.5145354,54.5593082 L34.1694277,54.5593082 L34.1694277,49.3761443 L32.08032,49.3761443 C31.3126892,49.3761443 30.6846277,48.7544721 30.6846277,47.9944066 C30.6846277,47.234341 31.3126892,46.6126689 32.08032,46.6126689" id="Fill-21" fill="#2E2E2F" sketch:type="MSShapeGroup"></path>
            </g>
        </g>
    </g>
</svg>
