<?xml version="1.0" encoding="UTF-8" standalone="no"?>
<!--

    Copyright (C) 2017-2018 Dremio Corporation

    Licensed under the Apache License, Version 2.0 (the "License");
    you may not use this file except in compliance with the License.
    You may obtain a copy of the License at

        http://www.apache.org/licenses/LICENSE-2.0

    Unless required by applicable law or agreed to in writing, software
    distributed under the License is distributed on an "AS IS" BASIS,
    WITHOUT WARRANTIES OR CONDITIONS OF ANY KIND, either express or implied.
    See the License for the specific language governing permissions and
    limitations under the License.

-->
<svg width="110px" height="110px" viewBox="0 0 110 110" version="1.1" xmlns="http://www.w3.org/2000/svg" xmlns:xlink="http://www.w3.org/1999/xlink" xmlns:sketch="http://www.bohemiancoding.com/sketch/ns">
    <!-- Generator: Sketch 3.5.2 (25235) - http://www.bohemiancoding.com/sketch -->
    <title>Avatar/SnowLeopard</title>
    <desc>Created with Sketch.</desc>
    <defs>
        <path id="path-1" d="M0,0.190176471 L76.8084,0.190176471 L76.8084,61 L0,61"></path>
        <path id="path-3" d="M0,0.190176471 L76.8084,0.190176471 L76.8084,61 L0,61"></path>
        <path id="path-5" d="M0,0.190176471 L76.8084,0.190176471 L76.8084,61 L0,61"></path>
    </defs>
    <g id="Avatars" stroke="none" stroke-width="1" fill="none" fill-rule="evenodd" sketch:type="MSPage">
        <g id="Avatar/SnowLeopard" sketch:type="MSArtboardGroup">
            <g id="Background-Circle" sketch:type="MSLayerGroup" fill="#FFBB57">
                <circle id="Gold" sketch:type="MSShapeGroup" cx="55" cy="55" r="55"></circle>
            </g>
            <g id="Page-1" sketch:type="MSLayerGroup" transform="translate(17.000000, 25.000000)">
                <g id="Group-3">
                    <mask id="mask-2" sketch:name="Clip 2" fill="white">
                        <use xlink:href="#path-1"></use>
                    </mask>
                    <g id="Clip-2"></g>
                    <path d="M20.82684,24.1271745 C27.44124,24.1271745 32.83644,18.750802 32.83644,12.1580176 C32.83644,5.56642941 27.44124,0.190056863 20.82684,0.190056863 C14.21364,0.190056863 8.81964,5.56642941 8.81964,12.1580176 C8.81964,18.750802 14.21364,24.1271745 20.82684,24.1271745" id="Fill-1" fill="#FFFFFF" sketch:type="MSShapeGroup" mask="url(#mask-2)"></path>
                </g>
                <path d="M20.82684,18.6372941 C24.40764,18.6372941 27.32604,15.7260392 27.32604,12.1581373 C27.32604,8.59143137 24.40764,5.68017647 20.82684,5.68017647 C17.24844,5.68017647 14.32764,8.59143137 14.32764,12.1581373 C14.32764,15.7260392 17.24844,18.6372941 20.82684,18.6372941" id="Fill-4" fill="#5A5B5C" sketch:type="MSShapeGroup"></path>
                <g id="Group-8">
                    <mask id="mask-4" sketch:name="Clip 7" fill="white">
                        <use xlink:href="#path-3"></use>
                    </mask>
                    <g id="Clip-7"></g>
                    <path d="M57.258,24.1271745 C63.8724,24.1271745 69.2652,18.750802 69.2652,12.1580176 C69.2652,5.56642941 63.8724,0.190056863 57.258,0.190056863 C50.6436,0.190056863 45.2508,5.56642941 45.2508,12.1580176 C45.2508,18.750802 50.6436,24.1271745 57.258,24.1271745" id="Fill-6" fill="#FFFFFF" sketch:type="MSShapeGroup" mask="url(#mask-4)"></path>
                </g>
                <path d="M57.258,18.6372941 C60.8388,18.6372941 63.7584,15.7260392 63.7584,12.1581373 C63.7584,8.59143137 60.8388,5.68017647 57.258,5.68017647 C53.6784,5.68017647 50.7588,8.59143137 50.7588,12.1581373 C50.7588,15.7260392 53.6784,18.6372941 57.258,18.6372941" id="Fill-9" fill="#2E2E2F" sketch:type="MSShapeGroup"></path>
                <path d="M66.26748,28.4244451 L66.26988,28.4328176 L66.27108,28.4483667 C66.38268,29.1935235 66.46188,29.9458569 66.51108,30.7089549 L66.52788,30.7890922 L66.52788,52.3914647 C59.89668,57.0202882 50.04228,59.9542686 39.03828,59.9542686 C28.03908,59.9542686 18.18828,57.0226804 11.55828,52.3974451 L11.55828,30.7938765 C11.61348,29.8980137 11.71428,29.0129157 11.85828,28.1421706 L11.85828,28.1302098 L11.85948,28.1086804 C12.12228,26.4832098 12.52788,24.9067784 13.06428,23.3889549 L13.06908,23.3698176 L13.07148,23.3674255 C16.85028,12.7067784 27.04908,5.06742549 39.03828,5.06742549 C52.85148,5.06742549 64.28748,15.2065824 66.26748,28.4244451" id="Fill-11" fill="#FFFFFF" sketch:type="MSShapeGroup"></path>
                <path d="M53.43888,58.175102 C49.02408,59.319749 44.15808,59.9548667 39.03888,59.9548667 C33.92448,59.9548667 29.06088,59.319749 24.64968,58.1774941 L24.64968,52.4028275 C24.64968,48.7392392 27.65808,45.7418667 31.33128,45.7418667 L46.75728,45.7418667 C50.42808,45.7418667 53.43888,48.7392392 53.43888,52.4028275 L53.43888,58.175102 Z" id="Fill-13" fill="#E3E4E4" sketch:type="MSShapeGroup"></path>
                <path d="M66.26748,28.4244451 L66.26988,28.4328176 L66.27108,28.4483667 C66.38268,29.1935235 66.46188,29.9458569 66.51108,30.7089549 L66.52788,30.7902882 L66.52788,52.3914647 C59.89668,57.0202882 50.04228,59.9542686 39.03828,59.9542686 L39.03828,5.06742549 C52.85148,5.06742549 64.28748,15.2065824 66.26748,28.4244451" id="Fill-15" fill="#E1E2E3" sketch:type="MSShapeGroup"></path>
                <path d="M53.43888,58.175102 L53.09808,58.2612196 L52.69248,58.3616902 L52.35888,58.4430235 L51.94008,58.5387098 L51.53928,58.6308078 L51.18288,58.7061608 L50.78208,58.7898863 L50.40888,58.8652392 L49.98888,58.9465725 L49.66848,59.0063765 L49.17528,59.0936902 L48.84888,59.1499059 L48.33048,59.2348275 L48.11568,59.2683176 C47.92008,59.2982196 47.72328,59.3281216 47.52648,59.3556314 L47.33928,59.3819451 C47.12088,59.4130431 46.90848,59.4429451 46.68888,59.4704549 L46.52808,59.4907882 C46.31928,59.517102 46.11168,59.5422196 45.90168,59.5661412 L45.68808,59.5900627 C45.46368,59.6151804 45.24048,59.6379059 45.01368,59.6606314 L44.96928,59.6654157 L44.90928,59.6713961 C44.67288,59.6941216 44.43888,59.7168471 44.20008,59.7359843 L44.06088,59.7479451 C43.82328,59.7682784 43.58808,59.7862196 43.34688,59.8029647 L43.30848,59.8065529 L43.29168,59.8065529 L43.26648,59.807749 C43.01208,59.8268863 42.75888,59.8424353 42.49968,59.8567882 L42.42648,59.8615725 C41.88048,59.8914745 41.33208,59.9142 40.77888,59.929749 L40.74648,59.9309451 C40.46928,59.9393176 40.19088,59.944102 39.91368,59.9476902 L39.88968,59.9488863 C39.60888,59.9524745 39.32328,59.9548667 39.03888,59.9548667 L39.03888,45.7418667 L46.75728,45.7418667 C50.42808,45.7418667 53.43888,48.7392392 53.43888,52.4028275 L53.43888,58.175102 Z" id="Fill-17" fill="#B8B7B7" sketch:type="MSShapeGroup"></path>
                <path d="M48.12324,37.4965804 C47.27604,36.103149 46.98924,34.4681098 47.25804,32.9096196 L52.72524,32.9096196 L52.72524,27.4543059 C54.29004,27.1899725 55.92924,27.4782275 57.32724,28.3226588 C58.88964,30.8930314 58.55844,34.2839137 56.33244,36.5038353 C54.10764,38.7225608 50.70084,39.0538745 48.12324,37.4965804" id="Fill-19" fill="#2E2E2F" sketch:type="MSShapeGroup"></path>
                <path d="M29.97444,37.4965804 C31.53924,34.9274039 31.20444,31.5353255 28.97844,29.3154039 C27.95844,28.2999333 26.69364,27.6791686 25.37364,27.4543059 L25.37364,32.9096196 L19.90044,32.9096196 C20.12604,34.2253059 20.74764,35.4871686 21.76644,36.5038353 C23.99364,38.7225608 27.39684,39.0538745 29.97444,37.4965804" id="Fill-21" fill="#5A5B5C" sketch:type="MSShapeGroup"></path>
                <path d="M39.6588,50.9210059 C39.6744,50.9736333 39.6828,51.029849 39.6828,51.0884569 L39.6828,54.8190255 C39.7596,54.9697314 39.792,55.1288098 39.7884,55.2854961 C40.716,55.6622608 43.4664,55.7017314 44.0196,55.7017314 C45.8268,55.7017314 48.0576,55.436202 49.5684,54.3465745 C49.908,54.1049667 50.4828,53.5715157 50.6256,53.1588686 C50.7384,52.8275549 51.108,52.6505353 51.4356,52.7629667 C51.7692,52.8765941 51.9468,53.240202 51.8388,53.5715157 C51.5976,54.2616529 50.892,54.9673392 50.3184,55.3799863 C48.5652,56.641849 46.1232,56.9755549 44.0196,56.9755549 C42.8436,56.9755549 40.242,56.9588098 39.042,56.3284765 C37.842,56.9588098 35.2404,56.9755549 34.0668,56.9755549 C31.962,56.9755549 29.52,56.641849 27.768,55.3799863 C27.1944,54.9673392 26.4888,54.2616529 26.2512,53.5715157 C26.1384,53.240202 26.316,52.8765941 26.6484,52.7629667 C26.982,52.6505353 27.3468,52.8275549 27.4608,53.1588686 C27.6048,53.5715157 28.1796,54.1049667 28.5168,54.3465745 C30.0288,55.436202 32.2596,55.7017314 34.0668,55.7017314 C34.62,55.7017314 37.3704,55.6622608 38.2968,55.2854961 C38.292,55.1288098 38.3268,54.9697314 38.4048,54.8190255 L38.4048,51.0884569 C38.4048,51.029849 38.412,50.9736333 38.4264,50.9210059 L39.6588,50.9210059 Z" id="Fill-23" fill="#2E2E2F" sketch:type="MSShapeGroup"></path>
                <path d="M32.44128,45.5198745 L39.04248,45.5198745 L45.64488,45.5198745 C46.80168,48.5603059 41.50848,50.3843255 39.65928,50.9213647 L38.42568,50.9213647 C36.57768,50.3843255 31.28808,48.5603059 32.44128,45.5198745" id="Fill-25" fill="#DF3E52" sketch:type="MSShapeGroup"></path>
                <g id="Group-29">
                    <mask id="mask-6" sketch:name="Clip 28" fill="white">
                        <use xlink:href="#path-5"></use>
                    </mask>
                    <g id="Clip-28"></g>
                    <path d="M51.14556,50.846251 C50.80836,50.8438588 50.53116,51.1177608 50.52876,51.4538588 C50.52636,51.7911529 50.80116,52.0674471 51.13956,52.0686431 C51.62676,52.0722314 52.14636,52.0949569 52.68876,52.1380157 C55.90836,52.3939765 59.83596,53.3675843 62.21796,55.1353882 C63.61236,56.1688 65.84796,58.1100353 67.00836,59.8395647 C67.19076,60.1158588 67.34796,60.3873686 67.47036,60.6469176 C67.61316,60.9519176 67.98036,61.0858784 68.28876,60.942349 C68.59236,60.8000157 68.72556,60.4352118 68.58276,60.1302118 C67.59636,58.0203294 64.75716,55.4930157 62.95116,54.1534078 C62.14956,53.5601529 61.19796,53.0482314 60.16236,52.6176431 C58.86636,52.0782118 57.43956,51.6667608 56.01156,51.3749176 C54.31236,51.0280549 52.61556,50.8546235 51.14556,50.846251 M50.49876,49.2064275 C50.16156,49.2267608 49.90116,49.5162118 49.92156,49.8523098 C49.93956,50.1884078 50.23116,50.4467608 50.56956,50.4276235 C51.17556,50.3941333 51.86916,50.3702118 52.62036,50.3594471 C57.14076,50.3008392 63.80196,50.7673098 66.90516,52.7623686 C67.71876,53.286251 70.21716,54.8949765 71.52156,56.0192902 C71.82876,56.2848196 72.06996,56.5240353 72.20796,56.7142118 C72.39036,56.9988784 72.76836,57.0754275 73.05876,56.8936235 C73.33596,56.7106235 73.41996,56.3314667 73.23876,56.0479961 C72.51156,54.9236824 68.64396,52.4250745 67.56876,51.7337412 C67.36236,51.6009765 67.14156,51.4753882 66.91116,51.3557804 C64.54236,50.1226235 60.92316,49.5162118 57.45036,49.2698196 C54.86076,49.0856235 52.35156,49.1023686 50.49876,49.2064275 M50.17956,47.1491725 C55.25796,46.2365647 63.73116,45.585898 68.60796,47.3596824 C70.90116,48.1969373 73.27716,49.3966039 75.08196,51.0723098 C75.64236,51.5926039 76.42356,52.4358392 76.75236,53.1463098 C76.89396,53.4525059 76.75836,53.8161137 76.45116,53.957251 C76.14396,54.0983882 75.77796,53.9632314 75.63876,53.6570353 C75.57396,53.5218784 75.48276,53.3735647 75.37476,53.2204667 C75.04716,52.7623686 74.56716,52.2659961 74.24556,51.9681725 C72.56676,50.4072902 70.32036,49.2865647 68.18196,48.5079176 C64.04796,47.003251 56.97156,47.369251 52.06956,48.0821137 C51.47676,48.1694275 50.91876,48.2603294 50.39796,48.3536235 C50.06676,48.4134275 49.74636,48.1921529 49.68876,47.8608392 C49.62516,47.5295255 49.84716,47.2089765 50.17956,47.1491725 M25.66956,52.0686431 C26.00796,52.0674471 26.28036,51.7911529 26.27796,51.4538588 C26.27556,51.1177608 25.99956,50.8438588 25.66116,50.846251 C24.51636,50.8522314 23.23116,50.9598784 21.91716,51.1703882 C19.89636,51.4957216 17.80116,52.066251 16.01796,52.8939373 C15.22476,53.2635255 14.49156,53.6821529 13.85796,54.1534078 C12.04956,55.4930157 9.21156,58.0203294 8.22396,60.1302118 C8.08116,60.4352118 8.21556,60.8000157 8.52036,60.942349 C8.82636,61.0858784 9.19356,60.9519176 9.33876,60.6469176 C9.45876,60.3945451 9.60876,60.1338 9.78276,59.8670745 C10.93596,58.1303686 13.18956,56.1735843 14.58876,55.1353882 C17.11956,53.2587412 21.38796,52.2779569 24.70836,52.0997412 C25.03956,52.0818 25.35996,52.0710353 25.66956,52.0686431 M26.23956,50.4276235 C26.57556,50.4467608 26.86716,50.1884078 26.88876,49.8523098 C26.90796,49.5162118 26.64636,49.2267608 26.30916,49.2064275 C24.59436,49.1095451 22.31796,49.0880157 19.93956,49.2315451 C16.22316,49.4540157 12.25716,50.0747804 9.75996,51.4275451 C9.57876,51.5256235 9.40836,51.6272902 9.23916,51.7337412 C8.16396,52.4250745 4.29636,54.9236824 3.57156,56.0479961 C3.38796,56.3314667 3.47076,56.7106235 3.75876,56.8936235 C4.03956,57.0754275 4.41756,56.9988784 4.59996,56.7142118 C4.73916,56.5264275 4.96956,56.2931922 5.26956,56.0336431 C6.57156,54.9081333 9.08796,53.2886431 9.90516,52.7623686 C13.11636,50.6955451 20.14836,50.2697412 24.66636,50.3678196 C25.23276,50.3797804 25.76316,50.4013098 26.23956,50.4276235 M26.40876,48.3536235 C25.98036,48.2770745 25.52316,48.2005255 25.04676,48.1287608 C20.13876,47.3848 12.84636,46.9709569 8.62476,48.5079176 C6.50796,49.2805843 4.28196,50.3869569 2.60796,51.9251137 C2.26476,52.2408784 1.76676,52.7492118 1.42956,53.225251 C1.32396,53.3759569 1.23276,53.5218784 1.17036,53.6594275 C1.02876,53.9644275 0.66276,54.0983882 0.35796,53.957251 C0.04956,53.8161137 -0.08604,53.4525059 0.05796,53.1463098 C0.38316,52.4358392 1.16436,51.5926039 1.72356,51.0723098 C3.52956,49.3966039 5.90796,48.1969373 8.20836,47.3596824 C13.07436,45.585898 21.55716,46.2365647 26.62716,47.1491725 C26.96076,47.2089765 27.18156,47.5295255 27.12156,47.8608392 C27.06156,48.1921529 26.74116,48.4134275 26.40876,48.3536235" id="Fill-27" fill="#5A5B5C" sketch:type="MSShapeGroup" mask="url(#mask-6)"></path>
                </g>
            </g>
        </g>
    </g>
</svg>
