<?xml version="1.0" encoding="UTF-8" standalone="no"?>
<!--

    Copyright (C) 2017-2018 Dremio Corporation

    Licensed under the Apache License, Version 2.0 (the "License");
    you may not use this file except in compliance with the License.
    You may obtain a copy of the License at

        http://www.apache.org/licenses/LICENSE-2.0

    Unless required by applicable law or agreed to in writing, software
    distributed under the License is distributed on an "AS IS" BASIS,
    WITHOUT WARRANTIES OR CONDITIONS OF ANY KIND, either express or implied.
    See the License for the specific language governing permissions and
    limitations under the License.

-->
<svg width="110px" height="110px" viewBox="0 0 110 110" version="1.1" xmlns="http://www.w3.org/2000/svg" xmlns:xlink="http://www.w3.org/1999/xlink" xmlns:sketch="http://www.bohemiancoding.com/sketch/ns">
    <!-- Generator: Sketch 3.5.2 (25235) - http://www.bohemiancoding.com/sketch -->
    <title>Avatar/Tapir</title>
    <desc>Created with Sketch.</desc>
    <defs>
        <path id="path-1" d="M0,0.991166667 L66.4179375,0.991166667 L66.4179375,76 L0,76"></path>
        <path id="path-3" d="M0,0.991166667 L66.4179375,0.991166667 L66.4179375,76 L0,76"></path>
    </defs>
    <g id="Avatars" stroke="none" stroke-width="1" fill="none" fill-rule="evenodd" sketch:type="MSPage">
        <g id="Avatar/Tapir" sketch:type="MSArtboardGroup">
            <g id="Background-Circle" sketch:type="MSLayerGroup" fill="#C0E9F5">
                <circle id="Light-Blue" sketch:type="MSShapeGroup" cx="55" cy="55" r="55"></circle>
            </g>
            <g id="Page-1" sketch:type="MSLayerGroup" transform="translate(21.000000, 17.000000)">
                <path d="M11.4568953,27.6000333 C15.5219109,27.6000333 18.8363172,24.2570889 18.8363172,20.1594222 C18.8363172,16.0607 15.5219109,12.7177556 11.4568953,12.7177556 C7.39187969,12.7177556 4.07747344,16.0607 4.07747344,20.1594222 C4.07747344,24.2570889 7.39187969,27.6000333 11.4568953,27.6000333" id="Fill-1" fill="#9F735F" sketch:type="MSShapeGroup"></path>
                <path d="M11.4568953,24.8921111 C14.0489578,24.8921111 16.1510828,22.7662222 16.1510828,20.159 C16.1510828,17.5517778 14.0489578,15.4248333 11.4568953,15.4248333 C8.87216094,15.4248333 6.76375469,17.5517778 6.76375469,20.159 C6.76375469,22.7662222 8.87216094,24.8921111 11.4568953,24.8921111" id="Fill-3" fill="#2E2E2F" sketch:type="MSShapeGroup"></path>
                <path d="M54.9625078,27.6000333 C59.0233359,27.6000333 62.3387891,24.2570889 62.3387891,20.1594222 C62.3387891,16.0607 59.0233359,12.7177556 54.9625078,12.7177556 C50.8943516,12.7177556 47.5788984,16.0607 47.5788984,20.1594222 C47.5788984,24.2570889 50.8943516,27.6000333 54.9625078,27.6000333" id="Fill-5" fill="#8A5033" sketch:type="MSShapeGroup"></path>
                <path d="M54.9625078,24.8921111 C57.5441016,24.8921111 59.6535547,22.7662222 59.6535547,20.159 C59.6535547,17.5517778 57.5441016,15.4248333 54.9625078,15.4248333 C52.3725391,15.4248333 50.2672734,17.5517778 50.2672734,20.159 C50.2672734,22.7662222 52.3725391,24.8921111 54.9625078,24.8921111" id="Fill-7" fill="#2E2E2F" sketch:type="MSShapeGroup"></path>
                <g id="Group-11">
                    <mask id="mask-2" sketch:name="Clip 10" fill="white">
                        <use xlink:href="#path-1"></use>
                    </mask>
                    <g id="Clip-10"></g>
                    <path d="M58.2227906,24.4869889 C57.7684469,23.4958222 57.2753687,22.5373778 56.7519312,21.6137667 C54.6592281,17.9351556 52.0420406,14.8233778 49.0343687,12.4103778 C48.2041969,11.7443222 47.3447125,11.1299889 46.4601031,10.5726556 C44.2334,9.17721111 41.8412906,8.12904444 39.3266969,7.48726667 C41.4748844,4.64465556 40.8048844,0.991377778 40.8048844,0.991377778 C40.5756187,1.22465556 40.3536813,1.44315556 40.1348844,1.65321111 C40.0668375,1.7176 40.0019312,1.77882222 39.9349312,1.84215556 C39.7831344,1.98887778 39.6261031,2.13032222 39.4784937,2.26754444 C39.4094,2.32771111 39.3476344,2.38893333 39.2785406,2.44593333 C39.1068531,2.60004444 38.9372594,2.74571111 38.7729,2.8861 C38.7414937,2.91248889 38.7079937,2.9431 38.6755406,2.96948889 C38.4808219,3.13204444 38.2913375,3.2851 38.1060406,3.42971111 C38.0547437,3.47087778 38.0055406,3.50676667 37.9542437,3.54687778 C37.8212906,3.65032222 37.6893844,3.7506 37.5595719,3.84454444 C37.4988531,3.88571111 37.4423219,3.92793333 37.3878844,3.96698889 C37.2538844,4.06093333 37.123025,4.15171111 36.9921656,4.23932222 C36.9544781,4.26254444 36.9188844,4.28893333 36.88015,4.31321111 C36.7168375,4.41876667 36.5587594,4.51798889 36.4038219,4.60982222 C36.369275,4.63093333 36.3378687,4.64993333 36.3001813,4.66893333 C36.1808375,4.73754444 36.0646344,4.80404444 35.9526187,4.86421111 C35.9065562,4.88848889 35.8625875,4.91065556 35.8175719,4.93493333 C35.7107906,4.98876667 35.6050562,5.04154444 35.5024625,5.0901 C35.4689625,5.10593333 35.4365094,5.12387778 35.3988219,5.13971111 C35.2658687,5.19987778 35.1350094,5.25582222 35.0114781,5.30543333 L34.9727437,5.31915556 C34.8628219,5.36137778 34.7539469,5.40043333 34.6513531,5.43421111 C34.6178531,5.44582222 34.5874937,5.45426667 34.5560875,5.46482222 C34.46815,5.49226667 34.3823062,5.5176 34.3016969,5.53871111 L34.2221344,5.55876667 C34.0096188,5.61154444 33.8159469,5.64637778 33.6379781,5.66643333 L33.5898219,5.67171111 C33.5165406,5.6791 33.4453531,5.68332222 33.3783531,5.68648889 L33.3312437,5.68754444 C33.2548219,5.69071111 33.1794469,5.69071111 33.1103531,5.68754444 L33.1103531,75.9949333 C33.1794469,75.9959889 33.2474937,76.0002111 33.3165875,76.0002111 C62.9913062,76.0002111 76.2646344,63.7684333 58.2227906,24.4869889" id="Fill-9" fill="#D3913C" sketch:type="MSShapeGroup" mask="url(#mask-2)"></path>
                </g>
                <g id="Group-14">
                    <mask id="mask-4" sketch:name="Clip 13" fill="white">
                        <use xlink:href="#path-3"></use>
                    </mask>
                    <g id="Clip-13"></g>
                    <path d="M33.1100391,75.9953556 L33.1100391,5.68796667 C32.4745859,5.66052222 32.1825078,5.44096667 32.1825078,5.44096667 C32.3615234,5.10107778 32.7017578,4.73585556 33.1100391,4.37802222 L33.1100391,2.98257778 C27.3145391,4.73902222 24.0252578,8.58124444 24.0252578,8.58124444 L24.0263047,8.58441111 C22.3984141,9.2568 20.8364766,10.1096889 19.3530547,11.1198556 C18.4904297,11.7046333 17.6539766,12.3443 16.8489297,13.0378 C14.0694766,15.4265222 11.6511953,18.4285222 9.70505469,21.9340222 C9.18580469,22.8681889 8.69900781,23.8350778 8.24989844,24.8389111 C-9.53022656,64.5774111 2.61247656,75.9995778 33.3162734,75.9995778 C33.2471797,75.9995778 33.1791328,75.9953556 33.1100391,75.9953556" id="Fill-12" fill="#EDA944" sketch:type="MSShapeGroup" mask="url(#mask-4)"></path>
                </g>
                <path d="M48.1067328,24.9539667 C56.0598422,24.9539667 62.5096391,31.4551333 62.5096391,39.4741889 C62.5096391,47.4943 56.0598422,53.9954667 48.1067328,53.9954667 C40.1525766,53.9954667 33.7048734,47.4943 33.7048734,39.4741889 C33.7048734,31.4551333 40.1525766,24.9539667 48.1067328,24.9539667" id="Fill-15" fill="#474749" sketch:type="MSShapeGroup"></path>
                <path d="M17.8576984,24.9539667 C25.8087141,24.9539667 32.2553703,31.4551333 32.2553703,39.4741889 C32.2553703,47.4943 25.8087141,53.9954667 17.8576984,53.9954667 C9.90354219,53.9954667 3.45374531,47.4943 3.45374531,39.4741889 C3.45374531,31.4551333 9.90354219,24.9539667 17.8576984,24.9539667" id="Fill-17" fill="#8A5033" sketch:type="MSShapeGroup"></path>
                <path d="M19.2143437,37.7515222 L46.7482031,37.7515222 L46.7482031,60.3003 C46.7482031,67.9351333 40.5527969,74.1819111 32.98075,74.1819111 L32.98075,74.1819111 C25.4087031,74.1819111 19.2143437,67.9351333 19.2143437,60.3003 L19.2143437,37.7515222 Z" id="Fill-19" fill="#8A5033" sketch:type="MSShapeGroup"></path>
                <path d="M48.1067328,64.8831 C45.8768891,71.1372667 39.9285453,75.6413222 32.9814828,75.6413222 C26.0354672,75.6413222 20.0829359,71.1372667 17.8572797,64.8831 C20.5372797,59.1757111 26.3055609,55.2289889 32.9814828,55.2289889 C39.6605453,55.2289889 45.4246391,59.1757111 48.1067328,64.8831" id="Fill-21" fill="#F6C99D" sketch:type="MSShapeGroup"></path>
                <path d="M48.1067328,29.5761389 C53.5284984,29.5761389 57.9243266,34.0073611 57.9243266,39.4740833 C57.9243266,44.9418611 53.5284984,49.3730833 48.1067328,49.3730833 C42.6849672,49.3730833 38.2891391,44.9418611 38.2891391,39.4740833 C38.2891391,34.0073611 42.6849672,29.5761389 48.1067328,29.5761389" id="Fill-23" fill="#E9E9E9" sketch:type="MSShapeGroup"></path>
                <path d="M17.8576984,29.5761389 C23.2773703,29.5761389 27.6721516,34.0073611 27.6721516,39.4740833 C27.6721516,44.9418611 23.2773703,49.3730833 17.8576984,49.3730833 C12.4338391,49.3730833 8.03801094,44.9418611 8.03801094,39.4740833 C8.03801094,34.0073611 12.4338391,29.5761389 17.8576984,29.5761389" id="Fill-25" fill="#FFFFFF" sketch:type="MSShapeGroup"></path>
                <path d="M48.1056859,34.5859111 C51.0788109,34.5859111 53.4887172,36.7740778 53.4887172,39.4741889 C53.4887172,42.1743 51.0788109,44.3635222 48.1056859,44.3635222 C45.1346547,44.3635222 42.7237016,42.1743 42.7237016,39.4741889 L48.1056859,39.4741889 L48.1056859,34.5859111 Z" id="Fill-27" fill="#8A5033" sketch:type="MSShapeGroup"></path>
                <path d="M17.8576984,34.5859111 C20.8266359,34.5859111 23.2365422,36.7740778 23.2365422,39.4741889 C23.2365422,42.1743 20.8266359,44.3635222 17.8576984,44.3635222 C14.8814328,44.3635222 12.4778078,42.1743 12.4778078,39.4741889 L17.8576984,39.4741889 L17.8576984,34.5859111 Z" id="Fill-29" fill="#2E2E2F" sketch:type="MSShapeGroup"></path>
                <path d="M32.9545781,73.7249611 C30.8419844,73.8210167 28.1609375,72.9860722 26.372875,71.9452944 C25.0297344,71.1631278 22.8333906,69.5206833 22.4900156,67.8465722 C22.3800938,67.3082389 22.7234687,66.77835 23.257375,66.66435 C23.7923281,66.5514056 24.3178594,66.8881278 24.4309219,67.4306833 C24.5199062,67.7684611 24.7795312,68.1347389 25.1176719,68.4894056 C25.8044219,69.2124611 26.8125625,69.8911833 27.3663594,70.2120722 C28.4006719,70.81585 29.8286094,71.3520722 31.1916406,71.5937944 C31.7820781,71.69935 32.361,71.7479056 32.8928125,71.7246833 C32.9116563,71.7236278 32.9357344,71.7236278 32.9545781,71.7236278 C32.9786563,71.7236278 32.9995938,71.7236278 33.0236719,71.7257389 C33.9093281,71.7647944 34.9279375,71.5980167 35.9161875,71.3130167 C36.8793125,71.03435 37.8110312,70.6406278 38.5469844,70.2120722 C39.0473906,69.9207389 39.9288594,69.3285722 40.5999062,68.6825722 C41.029125,68.2677389 41.3745938,67.8317944 41.4792812,67.4380722 C41.5912969,66.8986833 42.1189219,66.5514056 42.6528281,66.66435 C43.1877813,66.77835 43.5353437,67.3082389 43.4212344,67.8465722 C43.0778594,69.5206833 40.8815156,71.1631278 39.538375,71.9452944 C37.7492656,72.9860722 35.0724063,73.8210167 32.9545781,73.7249611" id="Fill-31" fill="#474749" sketch:type="MSShapeGroup"></path>
                <path d="M28.1813516,58.9497167 C29.7370078,58.9497167 30.9995391,60.2216611 30.9995391,61.7923278 C30.9995391,63.3629944 29.7370078,64.6359944 28.1813516,64.6359944 C26.6246484,64.6359944 25.3610703,63.3629944 25.3610703,61.7923278 C25.3610703,60.2216611 26.6246484,58.9497167 28.1813516,58.9497167 M37.8209766,58.8621056 C39.3787266,58.8621056 40.6402109,60.1351056 40.6402109,61.7057722 C40.6402109,63.2764389 39.3787266,64.5494389 37.8209766,64.5494389 C36.2653203,64.5494389 35.0006953,63.2764389 35.0006953,61.7057722 C35.0006953,60.1351056 36.2653203,58.8621056 37.8209766,58.8621056" id="Fill-33" fill="#2E2E2F" sketch:type="MSShapeGroup"></path>
                <path d="M48.1067328,24.9539667 C56.0598422,24.9539667 62.5096391,31.4551333 62.5096391,39.4741889 C62.5096391,47.4943 56.0598422,53.9954667 48.1067328,53.9954667 C40.1525766,53.9954667 33.7048734,47.4943 33.7048734,39.4741889 C33.7048734,31.4551333 40.1525766,24.9539667 48.1067328,24.9539667" id="Fill-35" fill="#8A5033" sketch:type="MSShapeGroup"></path>
                <path d="M32.9811687,37.7515222 L46.747575,37.7515222 L46.747575,60.3003 C46.747575,67.9351333 40.5521687,74.1819111 32.9811687,74.1819111 L32.9811687,37.7515222 Z" id="Fill-37" fill="#8A5033" sketch:type="MSShapeGroup"></path>
                <path d="M48.1067328,64.8831 C45.8768891,71.1372667 39.9285453,75.6413222 32.9814828,75.6413222 L32.9814828,55.2289889 C39.6605453,55.2289889 45.4246391,59.1757111 48.1067328,64.8831" id="Fill-39" fill="#F2C192" sketch:type="MSShapeGroup"></path>
                <path d="M48.1067328,29.5761389 C53.5284984,29.5761389 57.9243266,34.0073611 57.9243266,39.4740833 C57.9243266,44.9418611 53.5284984,49.3730833 48.1067328,49.3730833 C42.6849672,49.3730833 38.2891391,44.9418611 38.2891391,39.4740833 C38.2891391,34.0073611 42.6849672,29.5761389 48.1067328,29.5761389" id="Fill-41" fill="#FFFFFF" sketch:type="MSShapeGroup"></path>
                <path d="M48.1056859,34.5859111 C51.0788109,34.5859111 53.4887172,36.7740778 53.4887172,39.4741889 C53.4887172,42.1743 51.0788109,44.3624667 48.1056859,44.3624667 C45.1336078,44.3624667 42.7237016,42.1743 42.7237016,39.4741889 L48.1056859,39.4741889 L48.1056859,34.5859111 Z" id="Fill-43" fill="#2E2E2F" sketch:type="MSShapeGroup"></path>
                <path d="M33.0006406,71.7241556 L33.022625,71.7262667 C33.9093281,71.7642667 34.9279375,71.5985444 35.9161875,71.3135444 C36.8793125,71.0348778 37.8110313,70.6411556 38.5469844,70.2115444 C39.0473906,69.9202111 39.9288594,69.3291 40.5999063,68.6820444 C41.029125,68.2682667 41.3745938,67.8312667 41.4792813,67.4375444 C41.5912969,66.8992111 42.1189219,66.5519333 42.6528281,66.6638222 C43.1877813,66.7778222 43.5353438,67.3077111 43.4212344,67.8471 C43.0778594,69.5201556 40.8815156,71.1626 39.538375,71.9458222 C37.762875,72.9792111 35.108,73.8088778 33.0006406,73.7276 L33.0006406,71.7241556 Z" id="Fill-45" fill="#2E2E2F" sketch:type="MSShapeGroup"></path>
                <path d="M37.8209766,58.8615778 C39.3787266,58.8615778 40.6402109,60.1345778 40.6402109,61.7052444 C40.6402109,63.2759111 39.3787266,64.5499667 37.8209766,64.5499667 C36.2653203,64.5499667 35.0006953,63.2759111 35.0006953,61.7052444 C35.0006953,60.1345778 36.2653203,58.8615778 37.8209766,58.8615778" id="Fill-47" fill="#2E2E2F" sketch:type="MSShapeGroup"></path>
            </g>
        </g>
    </g>
</svg>
