<?xml version="1.0" encoding="UTF-8" standalone="no"?>
<!--

    Copyright (C) 2017-2018 Dremio Corporation

    Licensed under the Apache License, Version 2.0 (the "License");
    you may not use this file except in compliance with the License.
    You may obtain a copy of the License at

        http://www.apache.org/licenses/LICENSE-2.0

    Unless required by applicable law or agreed to in writing, software
    distributed under the License is distributed on an "AS IS" BASIS,
    WITHOUT WARRANTIES OR CONDITIONS OF ANY KIND, either express or implied.
    See the License for the specific language governing permissions and
    limitations under the License.

-->
<svg width="110px" height="110px" viewBox="0 0 110 110" version="1.1" xmlns="http://www.w3.org/2000/svg" xmlns:xlink="http://www.w3.org/1999/xlink" xmlns:sketch="http://www.bohemiancoding.com/sketch/ns">
    <!-- Generator: Sketch 3.5.2 (25235) - http://www.bohemiancoding.com/sketch -->
    <title>Avatar/Tiger</title>
    <desc>Created with Sketch.</desc>
    <defs>
        <path id="path-1" d="M0,0.190176471 L76.8084,0.190176471 L76.8084,61 L0,61"></path>
        <path id="path-3" d="M0,0.190176471 L76.8084,0.190176471 L76.8084,61 L0,61"></path>
        <path id="path-5" d="M0,0.190176471 L76.8084,0.190176471 L76.8084,61 L0,61"></path>
    </defs>
    <g id="Avatars" stroke="none" stroke-width="1" fill="none" fill-rule="evenodd" sketch:type="MSPage">
        <g id="Avatar/Tiger" sketch:type="MSArtboardGroup">
            <g id="Background-Circle" sketch:type="MSLayerGroup" fill="#FFBB57">
                <circle id="Gold" sketch:type="MSShapeGroup" cx="55" cy="55" r="55"></circle>
            </g>
            <g id="Page-1" sketch:type="MSLayerGroup" transform="translate(17.000000, 24.000000)">
                <g id="Group-3">
                    <mask id="mask-2" sketch:name="Clip 2" fill="white">
                        <use xlink:href="#path-1"></use>
                    </mask>
                    <g id="Clip-2"></g>
                    <path d="M20.18856,24.1271745 C26.80296,24.1271745 32.19816,18.750802 32.19816,12.1580176 C32.19816,5.56642941 26.80296,0.190056863 20.18856,0.190056863 C13.57416,0.190056863 8.18136,5.56642941 8.18136,12.1580176 C8.18136,18.750802 13.57416,24.1271745 20.18856,24.1271745" id="Fill-1" fill="#EF7721" sketch:type="MSShapeGroup" mask="url(#mask-2)"></path>
                </g>
                <path d="M20.18856,18.6366961 C23.76816,18.6366961 26.68896,15.7266373 26.68896,12.1575392 C26.68896,8.59083333 23.76816,5.67957843 20.18856,5.67957843 C16.61016,5.67957843 13.68936,8.59083333 13.68936,12.1575392 C13.68936,15.7266373 16.61016,18.6366961 20.18856,18.6366961" id="Fill-4" fill="#5A5B5C" sketch:type="MSShapeGroup"></path>
                <g id="Group-8">
                    <mask id="mask-4" sketch:name="Clip 7" fill="white">
                        <use xlink:href="#path-3"></use>
                    </mask>
                    <g id="Clip-7"></g>
                    <path d="M56.61864,24.1271745 C63.23184,24.1271745 68.62704,18.750802 68.62704,12.1580176 C68.62704,5.56642941 63.23184,0.190056863 56.61864,0.190056863 C50.00784,0.190056863 44.61024,5.56642941 44.61024,12.1580176 C44.61024,18.750802 50.00784,24.1271745 56.61864,24.1271745" id="Fill-6" fill="#EF7721" sketch:type="MSShapeGroup" mask="url(#mask-4)"></path>
                </g>
                <path d="M56.61864,18.6366961 C60.20064,18.6366961 63.11904,15.7266373 63.11904,12.1575392 C63.11904,8.59083333 60.20064,5.67957843 56.61864,5.67957843 C53.03904,5.67957843 50.11824,8.59083333 50.11824,12.1575392 C50.11824,15.7266373 53.03904,18.6366961 56.61864,18.6366961" id="Fill-9" fill="#2E2E2F" sketch:type="MSShapeGroup"></path>
                <path d="M65.6292,28.4243255 L65.6316,28.432698 L65.6316,28.4482471 C65.7432,29.1934039 65.8212,29.9457373 65.8728,30.7088353 C66.7584,35.385502 69.9792,39.2392667 74.2836,41.0202275 C72.102,51.6904431 56.868,59.954149 38.4012,59.954149 C19.9584,59.954149 4.7412,51.7143647 2.5236,41.0656784 C6.7428,39.3337569 9.9276,35.6127569 10.9032,31.0736392 C10.9584,30.0808941 11.0592,29.102502 11.214,28.142051 L11.214,28.1300902 L11.22,28.1085608 C11.4828,26.4830902 11.8896,24.9066588 12.4248,23.3900314 L12.4308,23.368502 L12.4332,23.3673059 C16.2108,12.7066588 26.4084,5.06730588 38.4012,5.06730588 C52.212,5.06730588 63.6504,15.2064627 65.6292,28.4243255" id="Fill-11" fill="#F68E2C" sketch:type="MSShapeGroup"></path>
                <path d="M52.80072,58.1745039 C48.38472,59.319151 43.51632,59.9542686 38.40072,59.9542686 C33.28512,59.9542686 28.42032,59.319151 24.01152,58.1768961 L24.01152,52.4022294 C24.01152,48.7386412 27.01872,45.7424647 30.69312,45.7424647 L46.11552,45.7424647 C49.78992,45.7424647 52.80072,48.7398373 52.80072,52.4022294 L52.80072,58.1745039 Z" id="Fill-13" fill="#FFFFFF" sketch:type="MSShapeGroup"></path>
                <path d="M33.93936,59.7911235 C19.87896,58.7577118 8.31936,52.9088882 4.03416,45.0949078 C7.16256,42.7326529 11.06256,41.3284569 15.28776,41.3284569 C25.55016,41.3284569 33.86856,49.5837902 33.93936,59.7911235 M72.76656,45.0901235 C68.48376,52.9053 56.92656,58.7565157 42.86856,59.7899275 C42.93936,49.5825941 51.26256,41.3284569 61.51776,41.3284569 C65.74416,41.3284569 69.63936,42.7302608 72.76656,45.0901235" id="Fill-15" fill="#FFFFFF" sketch:type="MSShapeGroup"></path>
                <path d="M68.06316,50.7107353 C62.33676,55.6098725 53.28876,59.0234804 42.86916,59.7901667 C42.93876,49.5828333 51.26196,41.3286961 61.51836,41.3286961 C63.82236,41.3286961 66.02796,41.7461275 68.06316,42.5068333 L68.06316,50.7107353 Z" id="Fill-17" fill="#E3E4E4" sketch:type="MSShapeGroup"></path>
                <path d="M65.6292,28.4243255 L65.6316,28.432698 L65.6316,28.4482471 C65.7432,29.1934039 65.8212,29.9457373 65.8728,30.7088353 C66.7584,35.385502 69.9792,39.2392667 74.2836,41.0202275 C72.102,51.6904431 56.868,59.954149 38.4012,59.954149 L38.4012,5.06730588 C52.212,5.06730588 63.6504,15.2064627 65.6292,28.4243255" id="Fill-19" fill="#EF7721" sketch:type="MSShapeGroup"></path>
                <path d="M47.48388,37.4965804 C46.63788,36.103149 46.35108,34.4681098 46.61388,32.9096196 L52.08708,32.9096196 L52.08708,27.455502 C53.65188,27.1899725 55.29108,27.4782275 56.68788,28.3226588 C58.25028,30.8930314 57.91788,34.2839137 55.69188,36.5038353 C53.46468,38.7225608 50.06148,39.0538745 47.48388,37.4965804" id="Fill-21" fill="#2E2E2F" sketch:type="MSShapeGroup"></path>
                <path d="M29.33628,37.4965804 C30.90108,34.9274039 30.56628,31.5353255 28.34028,29.3154039 C27.32028,28.2999333 26.05788,27.6791686 24.73308,27.455502 L24.73308,32.9096196 L19.26108,32.9096196 C19.48788,34.2253059 20.10948,35.4871686 21.12828,36.5038353 C23.35788,38.7225608 26.75868,39.0538745 29.33628,37.4965804" id="Fill-23" fill="#5A5B5C" sketch:type="MSShapeGroup"></path>
                <path d="M38.49444,20.5055686 C41.36124,20.5055686 43.87044,22.0233922 45.26244,24.2959412 L31.72764,24.2959412 C33.11844,22.0233922 35.62884,20.5055686 38.49444,20.5055686 M38.49444,14.0527255 C42.26484,14.0527255 45.56724,16.0477843 47.39484,19.0379804 L29.59404,19.0379804 C31.42164,16.0477843 34.72404,14.0527255 38.49444,14.0527255 M38.49444,8.30556863 C41.57244,8.30556863 44.26764,9.93582353 45.76164,12.3770196 L31.22724,12.3770196 C32.72004,9.93582353 35.41764,8.30556863 38.49444,8.30556863" id="Fill-25" fill="#5A5B5C" sketch:type="MSShapeGroup"></path>
                <path d="M6.80112,38.3166118 C7.63752,37.5272 8.38032,36.6349255 9.00912,35.6613176 L15.99192,39.0091412 L6.80112,38.3166118 Z M10.93392,30.5660235 C10.99152,29.7467098 11.08632,28.9381608 11.21472,28.1415725 L11.21472,28.1296118 L11.22072,28.1092784 C11.31312,27.5339647 11.42352,26.9658275 11.55192,26.4036706 L17.42832,34.9843373 L10.93392,30.5660235 Z" id="Fill-27" fill="#5A5B5C" sketch:type="MSShapeGroup"></path>
                <path d="M65.6292,28.4243255 L65.6316,28.432698 L65.6316,28.4482471 C65.7288,29.0989137 65.8032,29.7603451 65.8524,30.4253647 L59.1504,34.9836196 L65.1912,26.1649333 C65.3664,26.906502 65.514,27.6600314 65.6292,28.4243255 L65.6292,28.4243255 Z M67.5948,35.2431686 C68.2584,36.3483451 69.0636,37.3554431 69.9948,38.2369529 L59.7384,39.0096196 L67.5948,35.2431686 Z" id="Fill-29" fill="#2E2E2F" sketch:type="MSShapeGroup"></path>
                <path d="M72.76596,45.0900039 C72.43236,45.7000039 72.05316,46.2968471 71.63436,46.8817294 L71.62716,46.891298 C70.53756,48.4043373 69.16476,49.8276706 67.55076,51.1397686 L67.52076,51.1648863 C67.40076,51.2617686 67.27716,51.358651 67.15716,51.4555333 L67.15116,51.4579255 C66.64956,51.8526314 66.11676,52.2377686 65.56836,52.6109451 L65.53476,52.6348667 C65.40516,52.7221804 65.27316,52.8106902 65.13876,52.8968078 L65.10876,52.9195333 C64.55796,53.2795529 63.98676,53.6276118 63.39756,53.9649059 L63.32796,54.0031804 C62.74956,54.333298 62.15076,54.6502588 61.53756,54.9552588 L61.45116,55.0007098 C61.30836,55.0700824 61.16676,55.1382588 61.02396,55.2064353 L60.93636,55.248298 C60.30156,55.5509059 59.65236,55.8391608 58.98516,56.1154549 L58.95036,56.1310039 C58.78836,56.1979843 58.62636,56.2637686 58.46196,56.3283569 L58.38276,56.3594549 C57.90516,56.5496314 57.41796,56.7326314 56.92476,56.909651 L56.79756,56.9539059 C56.64396,57.0077294 56.48796,57.062749 56.33436,57.1153765 L56.22636,57.1512588 C55.53756,57.3844941 54.83436,57.6057686 54.11796,57.8126902 L53.97636,57.8533569 C53.82156,57.8976118 53.66436,57.9418667 53.50836,57.9849255 L53.35716,58.0267882 C53.16996,58.0758275 52.98276,58.1260627 52.80036,58.1739059 L52.73676,58.190651 L52.71036,58.1966314 L52.68636,58.2026118 L52.66116,58.2097882 L52.63596,58.2157686 L52.61196,58.2229451 L52.58796,58.2277294 L52.58676,58.2277294 L52.56156,58.2349059 L52.53756,58.2408863 L52.51116,58.2480627 L52.48716,58.2540431 L52.31196,58.297102 L52.28676,58.3042784 L52.26156,58.3102588 L52.23756,58.3162392 L52.11036,58.3473373 L52.08756,58.3533176 L52.01076,58.3724549 L51.98676,58.3772392 L51.93516,58.3903961 L51.90996,58.3963765 L51.88596,58.4023569 L51.85956,58.4083373 L51.83436,58.4143176 L51.75876,58.4322588 L51.75876,58.4334549 L51.71916,58.4418275 L51.66756,58.4537882 L51.56076,58.4789059 L51.55716,58.481298 L51.55116,58.4824941 L51.54276,58.4824941 L51.53796,58.4848863 L51.53196,58.4860824 L51.52356,58.4884745 L51.51516,58.4896706 L51.50796,58.4908667 L51.50076,58.4932588 L51.49236,58.4944549 L51.48636,58.4968471 L51.47796,58.4980431 L51.47076,58.5004353 L51.46356,58.5016314 L51.45876,58.5040235 L51.45036,58.5052196 L51.43956,58.5076118 L51.43356,58.5088078 L51.42396,58.5112 L51.41676,58.5123961 L51.40956,58.5135922 L51.40236,58.5159843 L51.39396,58.5183765 L51.38676,58.5195725 L51.37956,58.5219647 L51.37236,58.5219647 L51.36396,58.5243569 L51.35796,58.5255529 L51.34956,58.5279451 L51.34116,58.5291412 L51.31836,58.5351216 L51.31116,58.5363176 L51.28836,58.542298 L51.28116,58.5434941 L51.27396,58.5446902 L51.25716,58.5482784 L51.25116,58.5494745 L51.24276,58.5518667 L51.22716,58.5554549 L51.21996,58.5578471 L51.21276,58.5590431 L51.20076,58.5626314 L51.18876,58.5638275 L51.18276,58.5662196 L51.00156,58.6056902 L50.99316,58.6080824 L50.98596,58.6092784 L50.97876,58.6116706 L50.95716,58.6164549 L50.95116,58.6188471 L50.94156,58.6200431 L50.93436,58.6224353 L50.92476,58.6224353 L50.91756,58.6248275 L50.91036,58.6260235 L50.90796,58.6260235 L50.90796,58.6272196 L50.89476,58.6296118 L50.88756,58.6308078 L50.88036,58.6332 L50.87316,58.6343961 L50.86476,58.6355922 L50.66676,58.678651 L50.65956,58.6810431 L50.65236,58.6822392 L50.64396,58.6834353 L50.63796,58.6858275 L50.62956,58.6870235 L50.62236,58.6906118 L50.60796,58.6918078 L50.60076,58.6942 L50.59116,58.6953961 L50.58396,58.6965922 L50.57556,58.6989843 L50.56836,58.7001804 L50.56116,58.7025725 L50.55876,58.7037686 L50.54556,58.7049647 L50.53836,58.7073569 L50.53116,58.7085529 L50.52396,58.709749 L50.51436,58.7121412 C49.87956,58.846102 49.23756,58.9704941 48.58596,59.0853176 L48.57636,59.0865137 L48.49476,59.1008667 L48.48756,59.1020627 L48.47916,59.1032588 L48.47076,59.1044549 L48.43836,59.1104353 L48.42876,59.1116314 L48.42156,59.1140235 L48.41196,59.1152196 L48.36396,59.1235922 L48.35796,59.1247882 L48.34956,59.1259843 L48.23196,59.1463176 L48.22476,59.1475137 L48.21516,59.1487098 L48.20796,59.1499059 L48.20076,59.151102 L48.19116,59.152298 L48.18276,59.1534941 L48.17436,59.1558863 C47.95716,59.1929647 47.73276,59.227651 47.50956,59.2623373 L47.50116,59.2635333 L47.47716,59.2683176 L47.46756,59.2695137 L47.44116,59.273102 L47.43516,59.274298 L47.41716,59.2766902 L47.40876,59.2778863 C44.52876,59.7204353 41.50956,59.9548667 38.40036,59.9548667 L38.40036,45.7430627 L46.11516,45.7430627 C47.07396,45.7430627 47.98596,45.9463961 48.81276,46.3135922 C52.14276,43.2229255 56.60796,41.3283373 61.51836,41.3283373 C65.74356,41.3283373 69.63876,42.7301412 72.76596,45.0900039" id="Fill-31" fill="#E3E4E4" sketch:type="MSShapeGroup"></path>
                <g id="Group-35">
                    <mask id="mask-6" sketch:name="Clip 34" fill="white">
                        <use xlink:href="#path-5"></use>
                    </mask>
                    <g id="Clip-34"></g>
                    <path d="M51.15072,50.8456529 C50.80872,50.8444569 50.53032,51.1171627 50.52792,51.4532608 C50.52672,51.7905549 50.80152,52.066849 51.13872,52.0692412 C51.62832,52.0728294 52.15152,52.0943588 52.68432,52.1386137 C55.90872,52.3945745 59.83512,53.3669863 62.21952,55.1347902 C63.61272,56.168202 65.85072,58.1106333 67.00872,59.8401627 C67.18992,60.1152608 67.35072,60.3867706 67.47192,60.6475157 C67.61352,60.9525157 67.97952,61.0852804 68.28672,60.9429471 C68.59272,60.8006137 68.72592,60.4346137 68.58192,60.1296137 C67.59792,58.0209275 64.75752,55.4924176 62.95152,54.1540059 C62.14992,53.5595549 61.20072,53.0488294 60.16272,52.6182412 C58.86552,52.0788098 57.43752,51.6661627 56.01192,51.3755157 C54.31272,51.0286529 52.61472,50.8540255 51.15072,50.8456529 M50.49792,49.2070255 C50.16192,49.2261627 49.90152,49.5156137 49.92192,49.8517118 C49.93992,50.1890059 50.23032,50.4473588 50.56872,50.4282216 C51.17592,50.3935353 51.86952,50.3696137 52.62072,50.358849 C57.14232,50.3002412 63.80232,50.7667118 66.90192,52.7617706 C67.71792,53.2856529 70.21632,54.8943784 71.52192,56.0198882 C71.82792,56.2842216 72.07032,56.5234373 72.20832,56.7148098 C72.39072,56.9982804 72.76872,57.0748294 73.05192,56.8930255 C73.33632,56.7112216 73.42032,56.3308686 73.23672,56.0485941 C72.51072,54.9230843 68.64312,52.4256725 67.56792,51.7343392 C67.36152,51.6003784 67.14192,51.4759863 66.91152,51.3551824 C64.54152,50.1220255 60.92592,49.5156137 57.45072,49.2692216 C54.86112,49.0862216 52.35192,49.1017706 50.49792,49.2070255 M50.17992,47.1497706 C55.25352,46.2347706 63.73272,45.5853 68.60832,47.3590843 C70.90152,48.1963392 73.27752,49.3960059 75.08352,51.0729078 C75.64392,51.593202 76.42512,52.4352412 76.75272,53.1457118 C76.89312,53.4519078 76.75872,53.8155157 76.45152,53.957849 C76.14432,54.0989863 75.77832,53.9638294 75.63672,53.6576333 C75.57552,53.5224765 75.48312,53.3741627 75.37512,53.2210647 C75.04992,52.7617706 74.56632,52.265398 74.24592,51.9675745 C72.56712,50.4066922 70.32072,49.2871627 68.18112,48.5085157 C64.05072,47.003849 56.97192,47.3686529 52.06872,48.0827118 C51.47832,48.1688294 50.91792,48.2597314 50.40072,48.3542216 C50.06712,48.4128294 49.75152,48.192751 49.68432,47.8602412 C49.62672,47.5289275 49.84992,47.2095745 50.17992,47.1497706 M25.66872,52.0692412 C26.00832,52.066849 26.27952,51.7905549 26.27832,51.4532608 C26.27592,51.1171627 26.00112,50.8444569 25.66152,50.8456529 C24.51552,50.8528294 23.23152,50.9592804 21.91632,51.1709863 C19.89792,51.4951235 17.80152,52.0656529 16.01712,52.8933392 C15.22512,53.2617314 14.49312,53.6815549 13.85832,54.1540059 C12.04992,55.4924176 9.21192,58.0209275 8.22432,60.1296137 C8.08032,60.4346137 8.21472,60.8006137 8.52192,60.9429471 C8.82672,61.0852804 9.19392,60.9525157 9.33672,60.6475157 C9.45912,60.3951431 9.60912,60.133202 9.78312,59.8664765 C10.93512,58.1309667 13.18752,56.1741824 14.58912,55.1347902 C17.11992,53.2593392 21.38832,52.2785549 24.70872,52.0991431 C25.03752,52.081202 25.35912,52.0716333 25.66872,52.0692412 M26.23872,50.4282216 C26.57592,50.4473588 26.86752,50.1890059 26.88672,49.8517118 C26.90832,49.5156137 26.65152,49.2261627 26.30832,49.2070255 C24.59472,49.1101431 22.31832,49.0886137 19.93752,49.2309471 C16.22352,49.4534176 12.25752,50.0753784 9.75912,51.4281431 C9.57792,51.5262216 9.40872,51.6278882 9.23952,51.7343392 C8.16432,52.4256725 4.29792,54.9230843 3.57192,56.0485941 C3.38712,56.3308686 3.47112,56.7112216 3.75912,56.8930255 C4.03992,57.0748294 4.41792,56.9982804 4.60152,56.7148098 C4.73352,56.5258294 4.97112,56.2925941 5.27112,56.0330451 C6.57192,54.9075353 9.08592,53.2880451 9.90552,52.7617706 C13.11672,50.6949471 20.14992,50.2691431 24.66552,50.3672216 C25.23312,50.3803784 25.76352,50.4007118 26.23872,50.4282216 M26.40912,48.3542216 C25.97952,48.2764765 25.52472,48.2011235 25.05072,48.1293588 C20.13552,47.385398 12.85152,46.9703588 8.62512,48.5085157 C6.50832,49.2811824 4.28232,50.3863588 2.60832,51.9257118 C2.26392,52.2414765 1.76712,52.7498098 1.42872,53.225849 C1.32432,53.3753588 1.23312,53.5224765 1.16952,53.6588294 C1.02792,53.9638294 0.66312,54.0989863 0.35832,53.957849 C0.04992,53.8155157 -0.08688,53.4519078 0.05832,53.1457118 C0.38352,52.4352412 1.16472,51.593202 1.72512,51.0729078 C3.52872,49.3960059 5.90832,48.1963392 8.20872,47.3590843 C13.07592,45.5853 21.55752,46.2347706 26.62752,47.1497706 C26.95992,47.2095745 27.18192,47.5289275 27.12192,47.8602412 C27.06192,48.192751 26.74152,48.4128294 26.40912,48.3542216" id="Fill-33" fill="#2E2E2F" sketch:type="MSShapeGroup" mask="url(#mask-6)"></path>
                </g>
                <path d="M39.02064,50.9208863 C39.03504,50.9735137 39.04224,51.0297294 39.04224,51.0871412 L39.04224,54.8189059 C39.12144,54.9696118 39.15864,55.1286902 39.15024,55.2865725 C40.07664,55.6621412 42.82704,55.7016118 43.38024,55.7016118 C45.18744,55.7016118 47.41824,55.4360824 48.93024,54.3464549 C49.26744,54.1060431 49.84464,53.5713961 49.98744,53.158749 C50.10024,52.8274353 50.46504,52.6492196 50.79744,52.7628471 C51.13104,52.8764745 51.30864,53.2400824 51.19584,53.5713961 C50.95704,54.2615333 50.25144,54.9672196 49.67904,55.3798667 C47.92704,56.6417294 45.48504,56.9754353 43.38024,56.9754353 C42.20784,56.9754353 39.60504,56.9586902 38.40504,56.3283569 C37.20504,56.9586902 34.60224,56.9754353 33.42864,56.9754353 C31.32384,56.9754353 28.88184,56.6417294 27.12864,55.3798667 C26.55864,54.9672196 25.84944,54.2615333 25.61184,53.5713961 C25.50024,53.2400824 25.67784,52.8764745 26.01024,52.7628471 C26.34384,52.6492196 26.70864,52.8274353 26.82144,53.158749 C26.96424,53.5713961 27.54144,54.1060431 27.87744,54.3464549 C29.39064,55.4360824 31.62024,55.7016118 33.42864,55.7016118 C33.98064,55.7016118 36.73104,55.6621412 37.65864,55.2865725 C37.65864,55.1286902 37.68744,54.9696118 37.76424,54.8189059 L37.76424,51.0871412 C37.76424,51.0297294 37.77264,50.9735137 37.78704,50.9208863 L39.02064,50.9208863 Z" id="Fill-36" fill="#2E2E2F" sketch:type="MSShapeGroup"></path>
                <path d="M31.80192,45.5198745 L38.40552,45.5198745 L45.00552,45.5198745 C46.16232,48.5603059 40.86912,50.3843255 39.02112,50.9213647 L37.78632,50.9213647 C35.93832,50.3843255 30.64512,48.5603059 31.80192,45.5198745" id="Fill-38" fill="#DF3E52" sketch:type="MSShapeGroup"></path>
                <path d="M38.40072,12.3766608 L38.40072,8.30640588 L38.49432,8.30640588 C41.57352,8.30640588 44.26872,9.93546471 45.76152,12.3766608 L38.40072,12.3766608 Z M38.40072,19.0376216 L38.40072,14.0523667 L38.49432,14.0523667 C42.26472,14.0523667 45.56712,16.0474255 47.39472,19.0376216 L38.40072,19.0376216 Z M38.40072,24.2955824 L38.40072,20.5064059 L38.49432,20.5052098 C41.36112,20.5052098 43.87152,22.0230333 45.26232,24.2955824 L38.40072,24.2955824 Z" id="Fill-40" fill="#2E2E2F" sketch:type="MSShapeGroup"></path>
            </g>
        </g>
    </g>
</svg>
