<?xml version="1.0" encoding="UTF-8" standalone="no"?>
<!--

    Copyright (C) 2017-2018 Dremio Corporation

    Licensed under the Apache License, Version 2.0 (the "License");
    you may not use this file except in compliance with the License.
    You may obtain a copy of the License at

        http://www.apache.org/licenses/LICENSE-2.0

    Unless required by applicable law or agreed to in writing, software
    distributed under the License is distributed on an "AS IS" BASIS,
    WITHOUT WARRANTIES OR CONDITIONS OF ANY KIND, either express or implied.
    See the License for the specific language governing permissions and
    limitations under the License.

-->
<svg width="110px" height="110px" viewBox="0 0 110 110" version="1.1" xmlns="http://www.w3.org/2000/svg" xmlns:xlink="http://www.w3.org/1999/xlink" xmlns:sketch="http://www.bohemiancoding.com/sketch/ns">
    <!-- Generator: Sketch 3.5.2 (25235) - http://www.bohemiancoding.com/sketch -->
    <title>Avatar/Turkey</title>
    <desc>Created with Sketch.</desc>
    <defs>
        <path id="path-1" d="M0,0.893373134 L76.6228305,0.893373134 L76.6228305,87 L0,87"></path>
        <path id="path-3" d="M0,0.893373134 L76.6228305,0.893373134 L76.6228305,87 L0,87"></path>
        <path id="path-5" d="M0,0.893373134 L76.6228305,0.893373134 L76.6228305,87 L0,87"></path>
        <path id="path-7" d="M0,0.893373134 L76.6228305,0.893373134 L76.6228305,87 L0,87"></path>
    </defs>
    <g id="Avatars" stroke="none" stroke-width="1" fill="none" fill-rule="evenodd" sketch:type="MSPage">
        <g id="Avatar/Turkey" sketch:type="MSArtboardGroup">
            <g id="Background-Circle" sketch:type="MSLayerGroup" fill="#C0E9F5">
                <circle id="Light-Blue" sketch:type="MSShapeGroup" cx="55" cy="55" r="55"></circle>
            </g>
            <g id="Page-1" sketch:type="MSLayerGroup" transform="translate(17.000000, 12.000000)">
                <path d="M4.18540678,39.4541104 C4.44381356,34.8716776 4.70091525,30.3957224 4.95801695,25.801603 C5.09766102,23.3110657 7.28237288,21.190603 9.76725424,21.5282149 L10.3963051,21.6139164 L9.92125424,21.190603 C8.06020339,19.5207224 8.2820678,16.492603 10.1039661,14.7798716 L20.0917797,5.38517015 C21.9123729,3.67243881 24.9649661,3.62439403 26.5349831,5.56566269 L26.934339,6.06039403 L26.888661,5.4280209 C26.6824576,2.9413791 28.9337288,0.893632836 31.4407966,0.893632836 L45.183339,0.893632836 C47.6917119,0.893632836 49.9455932,2.94397612 49.7406949,5.4280209 L49.7211186,5.69681194 L49.8268305,5.56566269 C51.3968475,3.62439403 54.4494407,3.67243881 56.2700339,5.38517015 L66.2591525,14.7798716 C68.0784407,16.492603 68.3003051,19.5207224 66.4392542,21.190603 L65.9642034,21.6152149 L66.5971695,21.5282149 C69.0781356,21.190603 71.2615424,23.3110657 71.4037966,25.801603 C71.6622034,30.3957224 71.918,34.8716776 72.1764068,39.4541104 C72.3173559,41.9433493 70.3884407,44.2962448 67.882678,44.2365134 L57.580339,43.9910955 L63.2887797,51.0562746 C64.8561864,52.9975433 64.926661,55.7555731 63.108678,57.467006 L59.9477627,60.437991 C58.1297797,62.1494239 55.3669153,61.9273791 53.5058644,60.2574985 L45.8658983,53.4117672 L45.0436949,63.6076478 C44.8427119,66.0890955 42.9921017,68.1420358 40.4902542,68.1420358 L36.1404068,68.1420358 C33.6385593,68.1420358 31.7827288,66.092991 31.5804407,63.6076478 L30.7399661,53.1910209 L22.8559492,60.2574985 C20.9935932,61.9273791 18.2320339,62.1494239 16.4127458,60.437991 L13.2531356,57.467006 C11.4351525,55.7555731 11.5056271,52.9975433 13.0756441,51.0562746 L18.7840847,43.9910955 L8.47913559,44.2365134 C5.97337288,44.2962448 4.04837288,41.9433493 4.18540678,39.4541104" id="Fill-1" fill="#474749" sketch:type="MSShapeGroup"></path>
                <g id="Group-5">
                    <mask id="mask-2" sketch:name="Clip 4" fill="white">
                        <use xlink:href="#path-1"></use>
                    </mask>
                    <g id="Clip-4"></g>
                    <path d="M23.5717881,83.4562433 C23.1084831,83.4848104 22.6517034,83.501691 22.1857881,83.501691 C9.93365254,83.501691 -0.000652542373,73.3759299 -0.000652542373,60.8868851 C-0.000652542373,48.8003776 9.30460169,38.9278254 21.0151271,38.3058403 C13.5108898,43.1804373 8.62595763,51.1428851 8.62595763,60.1376463 C8.62595763,70.1166761 14.637178,78.8244672 23.5717881,83.4562433" id="Fill-3" fill="#2E2E2F" sketch:type="MSShapeGroup" mask="url(#mask-2)"></path>
                </g>
                <g id="Group-8">
                    <mask id="mask-4" sketch:name="Clip 7" fill="white">
                        <use xlink:href="#path-3"></use>
                    </mask>
                    <g id="Clip-7"></g>
                    <path d="M55.5654186,38.2741567 L55.5654186,30.5986791 C55.5654186,21.1559328 47.8014695,13.4324104 38.3121983,13.4324104 C28.8229271,13.4324104 21.0602831,21.1559328 21.0602831,30.5986791 L21.0602831,38.2741567 C13.5312492,43.1461567 8.62543559,51.1228881 8.62543559,60.1371269 C8.62543559,74.9725746 21.9164186,87.0006493 38.3121983,87.0006493 C54.7092831,87.0006493 67.998961,74.9725746 67.998961,60.1371269 C67.998961,51.1228881 63.0931475,43.1461567 55.5654186,38.2741567" id="Fill-6" fill="#C9C8C9" sketch:type="MSShapeGroup" mask="url(#mask-4)"></path>
                </g>
                <path d="M38.3125898,13.4326701 L38.3125898,13.4326701 L38.3125898,86.9996104 C21.9168102,86.9996104 8.62582712,74.9728343 8.62582712,60.1373866 C8.62582712,51.1218493 13.5316407,43.1464164 21.0593695,38.2744164 L21.0593695,30.5989388 C21.0593695,21.1561925 28.8233186,13.4326701 38.3125898,13.4326701" id="Fill-9" fill="#E3E4E4" sketch:type="MSShapeGroup"></path>
                <path d="M31.862339,22.0150254 C35.8715593,22.0150254 39.1238305,25.248309 39.1238305,29.2373239 C39.1238305,33.2276373 35.8715593,36.4609209 31.862339,36.4609209 C27.8531186,36.4609209 24.6047627,33.2276373 24.6047627,29.2373239 C24.6047627,25.248309 27.8531186,22.0150254 31.862339,22.0150254" id="Fill-11" fill="#FFFFFF" sketch:type="MSShapeGroup"></path>
                <path d="M44.7602305,22.0150254 C48.7694508,22.0150254 52.0191119,25.248309 52.0191119,29.2373239 C52.0191119,33.2276373 48.7694508,36.4609209 44.7602305,36.4609209 C40.7549254,36.4609209 37.5013492,33.2276373 37.5013492,29.2373239 C37.5013492,25.248309 40.7549254,22.0150254 44.7602305,22.0150254" id="Fill-13" fill="#FFFFFF" sketch:type="MSShapeGroup"></path>
                <path d="M44.7602305,26.6181045 C46.2154,26.6181045 47.3965017,27.7919552 47.3965017,29.2384925 C47.3965017,30.6850299 46.2154,31.8575821 44.7602305,31.8575821 C43.3076712,31.8575821 42.1265695,30.6850299 42.1265695,29.2384925 L44.7602305,29.2384925 L44.7602305,26.6181045 Z" id="Fill-15" fill="#2E2E2F" sketch:type="MSShapeGroup"></path>
                <path d="M31.862339,26.6181045 C33.3175085,26.6181045 34.4986102,27.7919552 34.4986102,29.2384925 C34.4986102,30.6850299 33.3175085,31.8575821 31.862339,31.8575821 C30.4097797,31.8575821 29.228678,30.6850299 29.228678,29.2384925 L31.862339,29.2384925 L31.862339,26.6181045 Z" id="Fill-17" fill="#2E2E2F" sketch:type="MSShapeGroup"></path>
                <path d="M38.3125898,16.581291 C38.3125898,16.581291 40.5116576,12.7649776 37.1797763,8.38770896 C33.8492,4.0104403 31.1463695,3.88578358 31.1463695,3.88578358 C31.1463695,3.88578358 32.9056237,10.2017239 38.3125898,16.581291" id="Fill-19" fill="#C9C8C9" sketch:type="MSShapeGroup"></path>
                <path d="M38.3125898,32.0301537 C42.6167593,32.0301537 48.4922508,36.2230343 46.1065559,39.7848403 L38.3125898,51.4168701 L30.5186237,39.7848403 C28.1303186,36.2230343 34.0123356,32.0301537 38.3125898,32.0301537" id="Fill-21" fill="#F6B726" sketch:type="MSShapeGroup"></path>
                <g id="Group-25">
                    <mask id="mask-6" sketch:name="Clip 24" fill="white">
                        <use xlink:href="#path-5"></use>
                    </mask>
                    <g id="Clip-24"></g>
                    <path d="M53.0597864,83.4562433 C53.515261,83.4848104 53.977261,83.501691 54.4366508,83.501691 C66.6927017,83.501691 76.6230915,73.3759299 76.6230915,60.8868851 C76.6230915,48.8003776 67.3191424,38.9278254 55.6125322,38.3058403 C63.1128542,43.1804373 67.9990915,51.1428851 67.9990915,60.1376463 C67.9990915,70.1166761 61.9865661,78.8244672 53.0597864,83.4562433" id="Fill-23" fill="#2E2E2F" sketch:type="MSShapeGroup" mask="url(#mask-6)"></path>
                </g>
                <g id="Group-28">
                    <mask id="mask-8" sketch:name="Clip 27" fill="white">
                        <use xlink:href="#path-7"></use>
                    </mask>
                    <g id="Clip-27"></g>
                    <path d="M32.0637136,61.109709 L31.5181881,61.2564403 C31.6969847,61.2057985 31.8796966,61.1564552 32.0637136,61.109709 M14.9109847,76.6684254 C20.3453576,82.9583955 28.806222,87.0006493 38.3124593,87.0006493 L38.3124593,60.3228134 C38.1206119,60.3228134 37.9287644,60.3254104 37.7369169,60.329306 L37.5333237,60.3357985 L37.152239,60.3500821 L36.9277644,60.3604701 C36.7933407,60.3682612 36.6550017,60.3773507 36.5218831,60.3864403 L36.3639678,60.3968284 C36.1747305,60.4111119 35.9867983,60.4279925 35.797561,60.4461716 L35.6500864,60.4630522 C35.505222,60.4786343 35.3642729,60.4942164 35.2246288,60.511097 L35.0301712,60.5370672 C34.8957475,60.5539478 34.7600186,60.5721269 34.6282051,60.592903 L34.4624593,60.6175746 C34.2941034,60.6435448 34.1231373,60.6708134 33.9573915,60.7006791 L33.902578,60.7097687 C33.7159508,60.7435299 33.5319339,60.7785896 33.3479169,60.8149478 L33.1834763,60.8500075 L32.7697644,60.9396045 L32.6170695,60.9746642 C32.4695949,61.0084254 32.3260356,61.0460821 32.1733407,61.0824403 L32.0637136,61.109709 C31.8796966,61.1564552 31.6969847,61.2057985 31.5181881,61.2564403 L31.5025271,61.2603358 L31.4568492,61.2746194 C31.3015441,61.3200672 31.1384085,61.3681119 30.9752729,61.4174552 L30.8121373,61.468097 L30.437578,61.5888582 L30.2509508,61.6511866 C30.1321881,61.6914403 30.0134254,61.7329925 29.8946627,61.7771418 L29.7236966,61.8394701 C29.5553407,61.8992015 29.3909,61.9602313 29.2290695,62.0251567 L29.0711542,62.0887836 C28.9510864,62.1368284 28.8284085,62.1848731 28.7122559,62.2329179 L28.512578,62.3173209 L28.2071881,62.4510672 L28.0088153,62.5406642 C27.8783068,62.5977985 27.7504085,62.6588284 27.6212051,62.7198582 L27.5285441,62.7614104 L27.5089678,62.7717985 C27.3536627,62.8471119 27.1996627,62.9224254 27.0456627,63.0016343 L26.8407644,63.1081119 L26.5706119,63.2496493 L26.3591881,63.3626194 L26.0655441,63.5262313 L25.8723915,63.635306 C25.726222,63.7210075 25.5826627,63.806709 25.4338831,63.8950075 L25.2981542,63.9768134 L24.986239,64.170291 L24.7761203,64.3079328 L24.5216288,64.4728433 L24.3310864,64.6013955 L24.046578,64.7974701 L23.8795271,64.9130373 C23.7437983,65.0091269 23.6080695,65.1078134 23.4736458,65.2065 L23.2648322,65.3649179 L23.0638492,65.5194403 L22.8328492,65.6999328 L22.6253407,65.8661418 L22.429578,66.0245597 L22.168561,66.2440075 L21.8931881,66.4842313 L21.6530525,66.693291 L21.4507644,66.8789776 L21.2576119,67.0581716 L21.0566288,67.2490522 L20.8634763,67.4360373 L20.6885949,67.6126343 L20.4158322,67.8905149 L20.1574254,68.156709 L19.9825441,68.3501866 L19.7802559,68.5657388 L19.627561,68.7384403 L19.4317983,68.9604851 L19.2686627,69.1513657 L19.0924763,69.3617239 C18.9932898,69.4811866 18.8954085,69.6032463 18.7988322,69.725306 L18.7936119,69.7317985 L18.6069847,69.9694254 L18.4686458,70.1499179 L18.2781034,70.4031269 L18.1697814,70.5511567 C18.1006119,70.6472463 18.0314424,70.7420373 17.9622729,70.8381269 L17.9165949,70.9030522 C17.6816797,71.2406642 17.4532898,71.5821716 17.2340356,71.9314701 L17.1387644,72.0795 L16.9547475,72.3833507 L16.8907983,72.4911269 C16.6832898,72.8417239 16.4836119,73.1962164 16.2930695,73.5572015 L16.2317305,73.6714701 L16.0672898,73.996097 L15.9968153,74.1324403 C15.9406966,74.2415149 15.8871881,74.3544851 15.8336797,74.4674552 L15.7801712,74.5817239 C15.6052898,74.9517985 15.4395441,75.3296642 15.284239,75.7088284 L15.2346458,75.825694 L15.100222,76.165903 L15.0441034,76.3139328 C14.9984254,76.432097 14.9553576,76.5502612 14.9109847,76.6684254" id="Fill-26" fill="#E3E4E4" sketch:type="MSShapeGroup" mask="url(#mask-8)"></path>
                </g>
                <path d="M38.3125898,60.3221642 L38.3125898,87 C28.8063525,87 20.3454881,82.9577463 14.9111153,76.6690746 C18.3682847,67.1367313 27.5404203,60.3221642 38.3125898,60.3221642" id="Fill-29" fill="#FFFFFF" sketch:type="MSShapeGroup"></path>
                <path d="M38.3125898,60.3221642 L38.3125898,87 C47.8162169,87 56.2796915,82.9577463 61.7127593,76.6690746 C58.2555898,67.1367313 49.0847593,60.3221642 38.3125898,60.3221642" id="Fill-31" fill="#E3E4E4" sketch:type="MSShapeGroup"></path>
            </g>
        </g>
    </g>
</svg>
