<?xml version="1.0" encoding="UTF-8" standalone="no"?>
<!--

    Copyright (C) 2017-2018 Dremio Corporation

    Licensed under the Apache License, Version 2.0 (the "License");
    you may not use this file except in compliance with the License.
    You may obtain a copy of the License at

        http://www.apache.org/licenses/LICENSE-2.0

    Unless required by applicable law or agreed to in writing, software
    distributed under the License is distributed on an "AS IS" BASIS,
    WITHOUT WARRANTIES OR CONDITIONS OF ANY KIND, either express or implied.
    See the License for the specific language governing permissions and
    limitations under the License.

-->
<svg width="110px" height="110px" viewBox="0 0 110 110" version="1.1" xmlns="http://www.w3.org/2000/svg" xmlns:xlink="http://www.w3.org/1999/xlink" xmlns:sketch="http://www.bohemiancoding.com/sketch/ns">
    <!-- Generator: Sketch 3.5.2 (25235) - http://www.bohemiancoding.com/sketch -->
    <title>Avatar/Zebra</title>
    <desc>Created with Sketch.</desc>
    <defs>
        <path id="path-1" d="M0,0.305 L49.25,0.305 L49.25,82 L0,82 L0,0.305 Z"></path>
        <path id="path-3" d="M0,0.305 L49.25,0.305 L49.25,82 L0,82 L0,0.305 Z"></path>
    </defs>
    <g id="Avatars" stroke="none" stroke-width="1" fill="none" fill-rule="evenodd" sketch:type="MSPage">
        <g id="Avatar/Zebra" sketch:type="MSArtboardGroup">
            <g id="Background-Circle" sketch:type="MSLayerGroup" fill="#46B4D5">
                <circle id="Aqua" sketch:type="MSShapeGroup" cx="55" cy="55" r="55"></circle>
            </g>
            <g id="Page-1" sketch:type="MSLayerGroup" transform="translate(30.000000, 14.000000)">
                <path d="M46.3321,22.6416 C47.2591,19.1696 47.4111,13.8206 44.3751,11.2646 L43.7621,10.7496 L42.9741,10.8896 C41.1331,11.2166 39.5821,12.5046 38.4371,13.9296 C37.0921,15.6146 36.1481,17.6906 35.5931,19.7656 C34.6621,23.2376 34.5111,28.5866 37.5471,31.1426 L38.1611,31.6576 L38.9471,31.5176 C40.7911,31.1906 42.3481,29.9016 43.4841,28.4776 C44.8321,26.7926 45.7721,24.7166 46.3321,22.6416" id="Fill-1" fill="#5A5B5C" sketch:type="MSShapeGroup"></path>
                <path d="M44.291,22.0957 C43.295,25.8107 41.045,28.5537 38.889,28.9377 L38.889,28.9367 C37.213,27.5277 36.636,24.0257 37.631,20.3117 C38.626,16.5967 40.877,13.8537 43.041,13.4697 C44.709,14.8797 45.291,18.3817 44.291,22.0957" id="Fill-3" fill="#DF3E52" sketch:type="MSShapeGroup"></path>
                <path d="M2.916,22.6416 C1.984,19.1696 1.832,13.8206 4.872,11.2646 L5.482,10.7496 L6.27,10.8896 C8.109,11.2166 9.669,12.5046 10.807,13.9296 C12.151,15.6146 13.095,17.6906 13.65,19.7656 C14.582,23.2376 14.732,28.5866 11.696,31.1426 L11.084,31.6576 L10.295,31.5176 C8.458,31.1906 6.896,29.9016 5.759,28.4776 C4.416,26.7926 3.471,24.7166 2.916,22.6416" id="Fill-5" fill="#5A5B5C" sketch:type="MSShapeGroup"></path>
                <path d="M4.958,22.0957 C5.948,25.8107 8.201,28.5537 10.354,28.9377 L10.354,28.9367 C12.03,27.5277 12.607,24.0257 11.612,20.3117 C10.622,16.5967 8.372,13.8537 6.211,13.4697 C4.541,14.8797 3.958,18.3817 4.958,22.0957" id="Fill-7" fill="#DF3E52" sketch:type="MSShapeGroup"></path>
                <path d="M16.127,22.9336 C19.451,20.8556 22.363,20.1656 24.68,20.1006 C24.859,14.1276 25.113,5.2496 25.113,3.0786 C25.113,-0.2704 25.027,-1.5454 20.792,4.8316 C17.291,10.1166 16.346,19.7736 16.127,22.9336 M24.842,20.0966 C25.299,17.3626 26.115,14.1226 27.559,11.9506 C30.5,7.5216 30.559,8.4076 30.559,10.7316 C30.559,12.0956 30.416,17.2686 30.295,21.3126 C29.691,20.9776 27.75,20.0486 24.842,20.0966" id="Fill-9" fill="#5A5B5C" sketch:type="MSShapeGroup"></path>
                <g id="Group-13">
                    <mask id="mask-2" sketch:name="Clip 12" fill="white">
                        <use xlink:href="#path-1"></use>
                    </mask>
                    <g id="Clip-12"></g>
                    <path d="M24.6504,18.4912 L24.7654,18.4922 L24.7664,18.4892 C26.8724,18.4722 28.2734,18.8002 28.7114,18.9192 L28.7104,18.9282 C40.3634,21.4392 49.2504,34.5042 49.2504,50.2452 C49.2504,67.7832 38.2214,82.0002 24.6224,82.0002 C11.0214,82.0002 0.0004,67.7832 0.0004,50.2452 C0.0004,35.4492 7.8434,23.0152 18.4644,19.4912 C20.8724,18.7572 22.9744,18.5132 24.6504,18.4902 L24.6504,18.4912 Z" id="Fill-11" fill="#E3E4E4" sketch:type="MSShapeGroup" mask="url(#mask-2)"></path>
                </g>
                <path d="M24.6221,82 C11.0211,82 0.0001,67.783 0.0001,50.245 C0.0001,35.449 7.8441,23.016 18.4651,19.491 C20.8551,18.762 22.9511,18.517 24.6221,18.491 L24.6221,82 Z" id="Fill-14" fill="#FFFFFF" sketch:type="MSShapeGroup"></path>
                <path d="M28.5557,52.4023 C37.1897,53.5123 43.6837,58.3273 43.6837,64.0963 C43.6837,70.6883 35.2077,76.0333 24.7497,76.0333 C14.2907,76.0333 5.8087,70.6883 5.8087,64.0963 C5.8087,57.5303 14.2207,52.2043 24.6217,52.1613 L24.6217,39.3163 L28.5557,52.4023 Z" id="Fill-16" fill="#5A5B5C" sketch:type="MSShapeGroup"></path>
                <path d="M24.6221,76.0312 C14.2211,75.9892 5.8081,70.6622 5.8081,64.0962 C5.8081,58.3852 12.1741,53.6112 20.6781,52.4382 L20.6761,52.4372 L24.6221,39.3162 L24.6221,52.1612 L24.6221,55.3162 L24.6221,76.0312 Z" id="Fill-18" fill="#6D6D6E" sketch:type="MSShapeGroup"></path>
                <path d="M36.3321,59.9306 C37.9471,59.9306 39.2621,61.1156 39.2621,62.5766 C39.2621,64.0376 37.9471,65.2226 36.3321,65.2226 C34.7081,65.2226 33.3871,64.0376 33.3871,62.5766 C33.3871,61.1156 34.7081,59.9306 36.3321,59.9306 M12.2621,59.9306 C13.8851,59.9306 15.2011,61.1156 15.2011,62.5766 C15.2011,64.0376 13.8851,65.2226 12.2621,65.2226 C10.6401,65.2226 9.3321,64.0376 9.3321,62.5766 C9.3321,61.1156 10.6401,59.9306 12.2621,59.9306" id="Fill-20" fill="#2E2E2F" sketch:type="MSShapeGroup"></path>
                <path d="M13.25,44.5869 C16.068,44.5869 18.372,42.5139 18.372,39.9709 C18.372,37.4279 16.068,35.3539 13.25,35.3539 C10.424,35.3539 8.122,37.4279 8.122,39.9709 C8.122,42.5139 10.424,44.5869 13.25,44.5869" id="Fill-22" fill="#DFD7C5" sketch:type="MSShapeGroup"></path>
                <path d="M13.25,37.3828 C14.832,37.3828 16.122,38.5408 16.122,39.9708 C16.122,41.3998 14.832,42.5578 13.25,42.5578 C11.661,42.5578 10.375,41.3998 10.375,39.9708 L13.25,39.9708 L13.25,37.3828 Z" id="Fill-24" fill="#2E2E2F" sketch:type="MSShapeGroup"></path>
                <path d="M36,44.5869 C38.819,44.5869 41.122,42.5139 41.122,39.9709 C41.122,37.4279 38.819,35.3539 36,35.3539 C33.174,35.3539 30.872,37.4279 30.872,39.9709 C30.872,42.5139 33.174,44.5869 36,44.5869" id="Fill-26" fill="#DFD7C5" sketch:type="MSShapeGroup"></path>
                <path d="M36,37.3828 C37.583,37.3828 38.872,38.5408 38.872,39.9708 C38.872,41.3998 37.583,42.5578 36,42.5578 C34.411,42.5578 33.125,41.3998 33.125,39.9708 L36,39.9708 L36,37.3828 Z" id="Fill-28" fill="#2E2E2F" sketch:type="MSShapeGroup"></path>
                <mask id="mask-4" sketch:name="Clip 31" fill="white">
                    <use xlink:href="#path-3"></use>
                </mask>
                <g id="Clip-31"></g>
                <path d="M20.5,77.891 L24.75,77.891 L24.75,72.711 L20.5,72.711 L20.5,77.891 Z" id="Fill-30" fill="#E3E4E4" sketch:type="MSShapeGroup" mask="url(#mask-4)"></path>
                <path d="M24.75,77.891 L29,77.891 L29,72.711 L24.75,72.711 L24.75,77.891 Z" id="Fill-32" fill="#C9C8C9" sketch:type="MSShapeGroup" mask="url(#mask-4)"></path>
                <path d="M14.3321,21.3916 C15.4251,20.7396 16.5661,20.1876 17.7501,19.7466 L18.5271,30.1246 L14.3321,21.3916 Z M31.5001,19.7486 C32.6761,20.1906 33.8181,20.7406 34.9161,21.3916 L30.7151,30.1246 L31.5001,19.7486 Z" id="Fill-33" fill="#5A5B5C" sketch:type="MSShapeGroup" mask="url(#mask-4)"></path>
                <path d="M0.1221,53.4404 C0.0431,52.4484 0.0031,51.4424 0.0001,50.4264 L7.4111,53.9914 L0.1221,53.4404 Z M49.2501,50.0294 L49.2501,50.2454 C49.2501,51.3024 49.2081,52.3474 49.1271,53.3784 L41.0061,53.9914 L49.2501,50.0294 Z" id="Fill-34" fill="#5A5B5C" sketch:type="MSShapeGroup" mask="url(#mask-4)"></path>
                <path d="M0.7364,42.4941 C1.1014,40.6231 1.5934,38.8161 2.2084,37.0931 L10.3864,49.0811 L0.7364,42.4941 Z M46.9804,36.9251 C47.6054,38.6671 48.1124,40.4931 48.4864,42.3891 L38.6814,49.0811 L46.9804,36.9251 Z" id="Fill-35" fill="#5A5B5C" sketch:type="MSShapeGroup" mask="url(#mask-4)"></path>
            </g>
        </g>
    </g>
</svg>
