<svg xmlns="http://www.w3.org/2000/svg" id="entities/arctic-source" fill="none" viewBox="0 0 24 24">
  <path fill="#44B7C9" d="M6.5 2A2.5 2.5 0 0 0 4 4.5v15A2.5 2.5 0 0 0 6.5 22h13.25a.75.75 0 1 0 0-1.5H6.5a1 1 0 0 1-1-1h14.25a.75.75 0 0 0 .75-.75V4.5A2.5 2.5 0 0 0 18 2H6.5ZM19 18H5.5V4.5a1 1 0 0 1 1-1H18a1 1 0 0 1 1 1V18Z"/>
  <path fill="#44B7C9" d="M13.227 5.078A.162.162 0 0 0 13.084 5a.17.17 0 0 0-.141.081l-1.26 2.08-.761-.824a.169.169 0 0 0-.132-.053.167.167 0 0 0-.126.076L8.55 9.773h7.573c-.56-.984-2.897-4.695-2.897-4.695Z"/>
  <path fill="#C5E8ED" d="M14.902 9.774h-2.29a.018.018 0 0 1-.011-.005l-.175-.147-.994-.836c-.094-.079-.154-.044-.134.076l.058.332.038.227a.019.019 0 0 1 0 .013l-.114.165-.115.167a.02.02 0 0 1-.015.008H9.07c-.018 0-.026-.013-.015-.028l.138-.215 1.503-2.328.145-.223c.013-.02.028-.019.033.006l.055.26.041.202.047.223a.014.014 0 0 1 0 .009l-.067.217-.094.303c-.036.118.026.173.139.126l.545-.234a.818.818 0 0 0 .32-.278l1.087-1.79.149-.246c.018-.03.033-.026.033.01v1.089l-.057.218-.055.215c-.032.142-.034.289-.007.432l.065.288a.777.777 0 0 0 .218.36l1.417 1.177.21.174c.02.018.01.033-.018.033Z"/>
  <path fill="#44B7C9" d="M16.889 9.758H7.694a.194.194 0 0 0 0 .388h.75l.366 1.467c.08.32.125.365.184.381l.962.256.583 2.111a.169.169 0 0 0 .118.118l.8.219.81 1.227a.167.167 0 0 0 .14.075.165.165 0 0 0 .14-.082l.729-1.244a.195.195 0 0 0 .01-.019l.498-1.177.827-.667a.19.19 0 0 0 .03-.032l.474-.662 1.052-1.852.035-.119h.687a.195.195 0 0 0 0-.388Z"/>
  <path fill="#83CDD9" d="M9.73 10.212a.172.172 0 0 0-.174.218l.08.356a.514.514 0 0 0 .25.313l.344.162a.533.533 0 0 1 .256.311l.507 2.032c.029.119.05.116.044-.006l-.112-2.811c0-.122.033-.132.085-.02 0 0 .607 1.293.607 1.113 0-.18.286-1.06.286-1.06.038-.117.093-.115.125 0l.678 2.56c.031.118.115.133.186.033l2.16-3.019c.072-.1.03-.18-.093-.18l-5.228-.002Z"/>
</svg>
