<svg id="entities/dataplane" viewBox="0 0 24 24" fill="none" xmlns="http://www.w3.org/2000/svg">
<path fill-rule="evenodd" clip-rule="evenodd" d="M9.41667 2H14.172C14.1945 2 14.2164 2.00259 14.2382 2.00516C14.2435 2.00579 14.2487 2.00641 14.254 2.007C14.274 2.01 14.294 2.013 14.313 2.014C14.528 2.029 14.74 2.07 14.937 2.152C14.9915 2.17493 15.0441 2.20517 15.0958 2.23485L15.103 2.239L15.153 2.268L15.2 2.292C15.228 2.30474 15.2551 2.31944 15.281 2.336C15.359 2.389 15.429 2.452 15.5 2.516L15.536 2.546C15.5532 2.55827 15.5695 2.57163 15.585 2.586L21.414 8.414C21.7891 8.78899 21.9999 9.29761 22 9.828V20C22 20.5304 21.7893 21.0391 21.4142 21.4142C21.0391 21.7893 20.5304 22 20 22H9.41667C9.00245 22 8.66667 21.6642 8.66667 21.25C8.66667 20.8358 9.00245 20.5 9.41667 20.5H20C20.1326 20.5 20.2598 20.4473 20.3536 20.3536C20.4473 20.2598 20.5 20.1326 20.5 20V10H16C15.4696 10 14.9609 9.78929 14.5858 9.41421C14.2107 9.03914 14 8.53043 14 8V3.5H9.41667C9.00245 3.5 8.66667 3.16421 8.66667 2.75C8.66667 2.33579 9.00245 2 9.41667 2ZM19.378 8.5L15.5 4.621V8C15.5 8.13261 15.5527 8.25979 15.6464 8.35355C15.7402 8.44732 15.8674 8.5 16 8.5H19.378Z" fill="#505862"/>
<path d="M7.41667 5.66667C7.83088 5.66667 8.16667 5.33088 8.16667 4.91667C8.16667 4.50245 7.83088 4.16667 7.41667 4.16667C7.00245 4.16667 6.66667 4.50245 6.66667 4.91667C6.66667 5.33088 7.00245 5.66667 7.41667 5.66667Z" fill="#505862"/>
<path d="M9.75 5.66667C10.1642 5.66667 10.5 5.33088 10.5 4.91667C10.5 4.50245 10.1642 4.16667 9.75 4.16667C9.33579 4.16667 9 4.50245 9 4.91667C9 5.33088 9.33579 5.66667 9.75 5.66667Z" fill="#505862"/>
<path d="M12.8333 4.91667C12.8333 5.33088 12.4975 5.66667 12.0833 5.66667C11.6691 5.66667 11.3333 5.33088 11.3333 4.91667C11.3333 4.50245 11.6691 4.16667 12.0833 4.16667C12.4975 4.16667 12.8333 4.50245 12.8333 4.91667Z" fill="#505862"/>
<path d="M2.75 8.5C3.16421 8.5 3.5 8.16421 3.5 7.75C3.5 7.33579 3.16421 7 2.75 7C2.33579 7 2 7.33579 2 7.75C2 8.16421 2.33579 8.5 2.75 8.5Z" fill="#505862"/>
<path d="M8.16667 7.75C8.16667 8.16421 7.83088 8.5 7.41667 8.5C7.00245 8.5 6.66667 8.16421 6.66667 7.75C6.66667 7.33579 7.00245 7 7.41667 7C7.83088 7 8.16667 7.33579 8.16667 7.75Z" fill="#505862"/>
<path d="M9.75 8.5C10.1642 8.5 10.5 8.16421 10.5 7.75C10.5 7.33579 10.1642 7 9.75 7C9.33579 7 9 7.33579 9 7.75C9 8.16421 9.33579 8.5 9.75 8.5Z" fill="#505862"/>
<path d="M12.8333 7.75C12.8333 8.16421 12.4975 8.5 12.0833 8.5C11.6691 8.5 11.3333 8.16421 11.3333 7.75C11.3333 7.33579 11.6691 7 12.0833 7C12.4975 7 12.8333 7.33579 12.8333 7.75Z" fill="#505862"/>
<path d="M2.75 11.3333C3.16421 11.3333 3.5 10.9975 3.5 10.5833C3.5 10.1691 3.16421 9.83333 2.75 9.83333C2.33579 9.83333 2 10.1691 2 10.5833C2 10.9975 2.33579 11.3333 2.75 11.3333Z" fill="#505862"/>
<path d="M5.83333 10.5833C5.83333 10.9975 5.49755 11.3333 5.08333 11.3333C4.66912 11.3333 4.33333 10.9975 4.33333 10.5833C4.33333 10.1691 4.66912 9.83333 5.08333 9.83333C5.49755 9.83333 5.83333 10.1691 5.83333 10.5833Z" fill="#505862"/>
<path d="M9.75 11.3333C10.1642 11.3333 10.5 10.9975 10.5 10.5833C10.5 10.1691 10.1642 9.83333 9.75 9.83333C9.33579 9.83333 9 10.1691 9 10.5833C9 10.9975 9.33579 11.3333 9.75 11.3333Z" fill="#505862"/>
<path d="M12.8333 10.5833C12.8333 10.9975 12.4975 11.3333 12.0833 11.3333C11.6691 11.3333 11.3333 10.9975 11.3333 10.5833C11.3333 10.1691 11.6691 9.83333 12.0833 9.83333C12.4975 9.83333 12.8333 10.1691 12.8333 10.5833Z" fill="#505862"/>
<path d="M5.08333 14.1667C5.49755 14.1667 5.83333 13.8309 5.83333 13.4167C5.83333 13.0025 5.49755 12.6667 5.08333 12.6667C4.66912 12.6667 4.33333 13.0025 4.33333 13.4167C4.33333 13.8309 4.66912 14.1667 5.08333 14.1667Z" fill="#505862"/>
<path d="M8.16667 13.4167C8.16667 13.8309 7.83088 14.1667 7.41667 14.1667C7.00245 14.1667 6.66667 13.8309 6.66667 13.4167C6.66667 13.0025 7.00245 12.6667 7.41667 12.6667C7.83088 12.6667 8.16667 13.0025 8.16667 13.4167Z" fill="#505862"/>
<path d="M9.75 14.1667C10.1642 14.1667 10.5 13.8309 10.5 13.4167C10.5 13.0025 10.1642 12.6667 9.75 12.6667C9.33579 12.6667 9 13.0025 9 13.4167C9 13.8309 9.33579 14.1667 9.75 14.1667Z" fill="#505862"/>
<path d="M12.8333 13.4167C12.8333 13.8309 12.4975 14.1667 12.0833 14.1667C11.6691 14.1667 11.3333 13.8309 11.3333 13.4167C11.3333 13.0025 11.6691 12.6667 12.0833 12.6667C12.4975 12.6667 12.8333 13.0025 12.8333 13.4167Z" fill="#505862"/>
<path d="M2.75 17C3.16421 17 3.5 16.6642 3.5 16.25C3.5 15.8358 3.16421 15.5 2.75 15.5C2.33579 15.5 2 15.8358 2 16.25C2 16.6642 2.33579 17 2.75 17Z" fill="#505862"/>
<path d="M8.16667 16.25C8.16667 16.6642 7.83088 17 7.41667 17C7.00245 17 6.66667 16.6642 6.66667 16.25C6.66667 15.8358 7.00245 15.5 7.41667 15.5C7.83088 15.5 8.16667 15.8358 8.16667 16.25Z" fill="#505862"/>
<path d="M9.75 17C10.1642 17 10.5 16.6642 10.5 16.25C10.5 15.8358 10.1642 15.5 9.75 15.5C9.33579 15.5 9 15.8358 9 16.25C9 16.6642 9.33579 17 9.75 17Z" fill="#505862"/>
<path d="M12.8333 16.25C12.8333 16.6642 12.4975 17 12.0833 17C11.6691 17 11.3333 16.6642 11.3333 16.25C11.3333 15.8358 11.6691 15.5 12.0833 15.5C12.4975 15.5 12.8333 15.8358 12.8333 16.25Z" fill="#505862"/>
<path d="M5.08333 19.8333C5.49755 19.8333 5.83333 19.4975 5.83333 19.0833C5.83333 18.6691 5.49755 18.3333 5.08333 18.3333C4.66912 18.3333 4.33333 18.6691 4.33333 19.0833C4.33333 19.4975 4.66912 19.8333 5.08333 19.8333Z" fill="#505862"/>
<path d="M10.5 19.0833C10.5 19.4975 10.1642 19.8333 9.75 19.8333C9.33579 19.8333 9 19.4975 9 19.0833C9 18.6691 9.33579 18.3333 9.75 18.3333C10.1642 18.3333 10.5 18.6691 10.5 19.0833Z" fill="#505862"/>
<path d="M12.0833 19.8333C12.4975 19.8333 12.8333 19.4975 12.8333 19.0833C12.8333 18.6691 12.4975 18.3333 12.0833 18.3333C11.6691 18.3333 11.3333 18.6691 11.3333 19.0833C11.3333 19.4975 11.6691 19.8333 12.0833 19.8333Z" fill="#505862"/>
</svg>
