<svg id="datalake" viewBox="0 0 24 24" fill="none" xmlns="http://www.w3.org/2000/svg">
  <path fill-rule="evenodd" clip-rule="evenodd" d="M4 6C4 5.31 4.315 4.707 4.774 4.22C5.229 3.738 5.853 3.337 6.567 3.018C7.996 2.377 9.917 2 12 2C14.083 2 16.004 2.377 17.433 3.018C18.147 3.338 18.771 3.738 19.226 4.22C19.685 4.707 20 5.31 20 6V18C20 18.69 19.685 19.293 19.226 19.78C18.771 20.262 18.147 20.663 17.433 20.983C16.004 21.623 14.083 22 12 22C9.917 22 7.996 21.623 6.567 20.983C5.853 20.663 5.229 20.263 4.774 19.78C4.315 19.293 4 18.69 4 18V6ZM5.5 6C5.5 6.207 5.59 6.46 5.865 6.75C6.144 7.046 6.582 7.346 7.18 7.614C8.375 8.149 10.079 8.5 12 8.5C13.921 8.5 15.625 8.15 16.82 7.614C17.418 7.346 17.856 7.046 18.135 6.75C18.41 6.46 18.5 6.207 18.5 6C18.5 5.793 18.41 5.54 18.135 5.25C17.856 4.954 17.418 4.654 16.82 4.386C15.625 3.851 13.92 3.5 12 3.5C10.079 3.5 8.375 3.85 7.18 4.386C6.582 4.654 6.144 4.954 5.865 5.25C5.59 5.54 5.5 5.793 5.5 6ZM18.5 8.392C18.18 8.612 17.82 8.809 17.433 8.982C16.004 9.623 14.083 10 12 10C9.917 10 7.996 9.623 6.567 8.982C6.19439 8.81768 5.83729 8.62022 5.5 8.392V10C5.5 10.207 5.59 10.46 5.865 10.75C6.144 11.046 6.582 11.346 7.18 11.614C8.375 12.149 10.079 12.5 12 12.5C13.921 12.5 15.625 12.15 16.82 11.614C17.418 11.346 17.856 11.046 18.135 10.75C18.41 10.46 18.5 10.207 18.5 10V8.392ZM5.5 14V12.392C5.83729 12.6202 6.19439 12.8177 6.567 12.982C7.996 13.623 9.917 14 12 14C14.083 14 16.004 13.623 17.433 12.982C17.82 12.809 18.18 12.612 18.5 12.392V14C18.5 14.207 18.41 14.46 18.135 14.75C17.856 15.046 17.418 15.346 16.82 15.614C15.625 16.15 13.921 16.5 12 16.5C10.079 16.5 8.375 16.149 7.18 15.614C6.582 15.346 6.144 15.046 5.865 14.75C5.59 14.46 5.5 14.207 5.5 14ZM5.5 16.392V18C5.5 18.207 5.59 18.46 5.865 18.75C6.144 19.046 6.582 19.346 7.18 19.614C8.375 20.149 10.079 20.5 12 20.5C13.921 20.5 15.625 20.15 16.82 19.614C17.418 19.346 17.856 19.046 18.135 18.75C18.41 18.46 18.5 18.207 18.5 18V16.392C18.18 16.612 17.82 16.809 17.433 16.982C16.004 17.623 14.083 18 12 18C9.917 18 7.996 17.623 6.567 16.982C6.19439 16.8177 5.83729 16.6202 5.5 16.392Z" fill="currentColor" />
</svg>
