<svg xmlns="http://www.w3.org/2000/svg" id="entities/datalake-source" fill="none" viewBox="0 0 24 24">
  <path fill="#5EB825" fill-rule="evenodd" d="M4 6c0-.69.315-1.293.774-1.78.455-.482 1.079-.883 1.793-1.202C7.996 2.377 9.917 2 12 2c2.083 0 4.004.377 5.433 1.018.714.32 1.338.72 1.793 1.202.459.487.774 1.09.774 1.78v12c0 .69-.315 1.293-.774 1.78-.455.482-1.079.883-1.793 1.203C16.004 21.623 14.083 22 12 22c-2.083 0-4.004-.377-5.433-1.017-.714-.32-1.338-.72-1.793-1.203C4.315 19.293 4 18.69 4 18V6Zm1.5 0c0 .207.09.46.365.75.279.296.717.596 1.315.864 1.195.535 2.899.886 4.82.886 1.921 0 3.625-.35 4.82-.886.598-.268 1.036-.568 1.315-.864.275-.29.365-.543.365-.75 0-.207-.09-.46-.365-.75-.279-.296-.717-.596-1.315-.864-1.195-.535-2.9-.886-4.82-.886-1.921 0-3.625.35-4.82.886-.598.268-1.036.568-1.315.864-.275.29-.365.543-.365.75Zm13 2.392c-.32.22-.68.417-1.067.59C16.004 9.623 14.083 10 12 10c-2.083 0-4.004-.377-5.433-1.018a6.8 6.8 0 0 1-1.067-.59V10c0 .207.09.46.365.75.279.296.717.596 1.315.864 1.195.535 2.899.886 4.82.886 1.921 0 3.625-.35 4.82-.886.598-.268 1.036-.568 1.315-.864.275-.29.365-.543.365-.75V8.392ZM5.5 14v-1.608a6.8 6.8 0 0 0 1.067.59C7.996 13.623 9.917 14 12 14c2.083 0 4.004-.377 5.433-1.018.387-.173.747-.37 1.067-.59V14c0 .207-.09.46-.365.75-.279.296-.717.596-1.315.864-1.195.536-2.899.886-4.82.886-1.921 0-3.625-.351-4.82-.886-.598-.268-1.036-.568-1.315-.864-.275-.29-.365-.543-.365-.75Zm0 2.392V18c0 .207.09.46.365.75.279.296.717.596 1.315.864 1.195.535 2.899.886 4.82.886 1.921 0 3.625-.35 4.82-.886.598-.268 1.036-.568 1.315-.864.275-.29.365-.543.365-.75v-1.608c-.32.22-.68.417-1.067.59C16.004 17.623 14.083 18 12 18c-2.083 0-4.004-.377-5.433-1.018a6.8 6.8 0 0 1-1.067-.59Z" clip-rule="evenodd"/>
</svg>
