<svg width="24" height="24" viewBox="0 0 24 24" fill="none" xmlns="http://www.w3.org/2000/svg">
<path fill-rule="evenodd" clip-rule="evenodd" d="M4.774 4.22C4.315 4.707 4 5.31 4 6V18C4 18.69 4.315 19.293 4.774 19.78C5.229 20.263 5.853 20.663 6.567 20.983C7.996 21.623 9.917 22 12 22C12.2669 22 12.5312 21.9938 12.7921 21.9817C12.3727 21.5412 12.0144 21.042 11.731 20.4977C9.92019 20.4667 8.31892 20.1239 7.18 19.614C6.582 19.346 6.144 19.046 5.865 18.75C5.59 18.46 5.5 18.207 5.5 18V16.392C5.83729 16.6202 6.19439 16.8177 6.567 16.982C7.76804 17.5207 9.31664 17.873 11.0169 17.9717C11.0057 17.8159 11 17.6586 11 17.5C11 17.1505 11.0276 16.8074 11.0807 16.4728C9.53791 16.3809 8.18054 16.0619 7.18 15.614C6.582 15.346 6.144 15.046 5.865 14.75C5.59 14.46 5.5 14.207 5.5 14V12.392C5.83729 12.6202 6.19439 12.8177 6.567 12.982C7.996 13.623 9.917 14 12 14C12.0073 14 12.0146 14 12.0218 14C12.4029 13.4047 12.8784 12.8757 13.4271 12.434C12.9689 12.4771 12.4915 12.5 12 12.5C10.079 12.5 8.375 12.149 7.18 11.614C6.582 11.346 6.144 11.046 5.865 10.75C5.59 10.46 5.5 10.207 5.5 10V8.392C5.83729 8.62022 6.19439 8.81768 6.567 8.982C7.996 9.623 9.917 10 12 10C14.083 10 16.004 9.623 17.433 8.982C17.82 8.809 18.18 8.612 18.5 8.392V10C18.5 10.207 18.41 10.46 18.135 10.75C18.0536 10.8364 17.9586 10.9231 17.8501 11.0093C18.6085 11.0495 19.3324 11.2198 20 11.4982V6C20 5.31 19.685 4.707 19.226 4.22C18.771 3.738 18.147 3.338 17.433 3.018C16.004 2.377 14.083 2 12 2C9.917 2 7.996 2.377 6.567 3.018C5.853 3.337 5.229 3.738 4.774 4.22ZM5.865 6.75C5.59 6.46 5.5 6.207 5.5 6C5.5 5.793 5.59 5.54 5.865 5.25C6.144 4.954 6.582 4.654 7.18 4.386C8.375 3.85 10.079 3.5 12 3.5C13.92 3.5 15.625 3.851 16.82 4.386C17.418 4.654 17.856 4.954 18.135 5.25C18.41 5.54 18.5 5.793 18.5 6C18.5 6.207 18.41 6.46 18.135 6.75C17.856 7.046 17.418 7.346 16.82 7.614C15.625 8.15 13.921 8.5 12 8.5C10.079 8.5 8.375 8.149 7.18 7.614C6.582 7.346 6.144 7.046 5.865 6.75Z" fill="#CA3F32"/>
<path d="M23 17.5C23 18.9587 22.4205 20.3576 21.3891 21.3891C20.3576 22.4205 18.9587 23 17.5 23C16.0413 23 14.6424 22.4205 13.6109 21.3891C12.5795 20.3576 12 18.9587 12 17.5C12 16.0413 12.5795 14.6424 13.6109 13.6109C14.6424 12.5795 16.0413 12 17.5 12C18.9587 12 20.3576 12.5795 21.3891 13.6109C22.4205 14.6424 23 16.0413 23 17.5ZM15.854 15.146C15.7602 15.0521 15.633 14.9993 15.5004 14.9992C15.3677 14.9991 15.2404 15.0517 15.1465 15.1455C15.0526 15.2393 14.9998 15.3665 14.9997 15.4991C14.9996 15.6318 15.0522 15.7591 15.146 15.853L16.793 17.5L15.146 19.146C15.0521 19.2399 14.9994 19.3672 14.9994 19.5C14.9994 19.6328 15.0521 19.7601 15.146 19.854C15.2399 19.9479 15.3672 20.0006 15.5 20.0006C15.6328 20.0006 15.7601 19.9479 15.854 19.854L17.5 18.207L19.146 19.854C19.1925 19.9005 19.2477 19.9374 19.3084 19.9625C19.3692 19.9877 19.4343 20.0006 19.5 20.0006C19.5657 20.0006 19.6308 19.9877 19.6916 19.9625C19.7523 19.9374 19.8075 19.9005 19.854 19.854C19.9005 19.8075 19.9374 19.7523 19.9625 19.6916C19.9877 19.6308 20.0006 19.5657 20.0006 19.5C20.0006 19.4343 19.9877 19.3692 19.9625 19.3084C19.9374 19.2477 19.9005 19.1925 19.854 19.146L18.207 17.5L19.854 15.853C19.9478 15.7591 20.0004 15.6318 20.0003 15.4991C20.0002 15.3665 19.9474 15.2393 19.8535 15.1455C19.7596 15.0517 19.6323 14.9991 19.4996 14.9992C19.367 14.9993 19.2398 15.0521 19.146 15.146L17.5 16.794L15.854 15.147V15.146Z" fill="#CA3F32"/>
</svg>
