<svg id="entities/empty-dremio-catalog" viewBox="0 0 56 57" fill="none" xmlns="http://www.w3.org/2000/svg">
<rect width="56" height="56" transform="translate(0 0.5)" fill="white"/>
<path d="M9.33301 11C9.33301 9.45291 9.94759 7.96918 11.0416 6.87522C12.1355 5.78125 13.6192 5.16667 15.1663 5.16667H41.9997C42.7657 5.16667 43.5243 5.31756 44.232 5.61071C44.9397 5.90386 45.5828 6.33354 46.1245 6.87522C46.6661 7.41689 47.0958 8.05995 47.389 8.76768C47.6821 9.47542 47.833 10.234 47.833 11V44.25C47.833 44.7141 47.6486 45.1593 47.3204 45.4874C46.9923 45.8156 46.5471 46 46.083 46H12.833C12.833 46.6188 13.0788 47.2123 13.5164 47.6499C13.954 48.0875 14.5475 48.3333 15.1663 48.3333H46.083C46.5471 48.3333 46.9923 48.5177 47.3204 48.8459C47.6486 49.1741 47.833 49.6192 47.833 50.0833C47.833 50.5475 47.6486 50.9926 47.3204 51.3208C46.9923 51.649 46.5471 51.8333 46.083 51.8333H15.1663C13.6192 51.8333 12.1355 51.2188 11.0416 50.1248C9.94759 49.0308 9.33301 47.5471 9.33301 46V11ZM12.833 42.5H44.333V11C44.333 10.3812 44.0872 9.78767 43.6496 9.35009C43.212 8.9125 42.6185 8.66667 41.9997 8.66667H15.1663C14.5475 8.66667 13.954 8.9125 13.5164 9.35009C13.0788 9.78767 12.833 10.3812 12.833 11V42.5Z" fill="#B0B7BF"/>
<path d="M41.3862 13.4246C41.261 13.257 40.913 13.3461 40.6117 13.484L39.8563 13.8914C39.8627 14.163 39.9221 14.4304 40.0345 14.6787C39.8308 14.5068 39.6908 14.2713 39.6356 14.0103L37.9636 14.9142C37.9339 15.2664 38.0082 15.6186 38.18 15.9263C37.9191 15.8605 37.6899 15.3895 37.6835 15.0648L35.9691 15.9921C35.9627 16.4398 36.073 16.8833 36.2873 17.2758C35.9118 17.0297 35.6656 16.6286 35.6126 16.183L33.9576 17.0806H33.9533C33.9385 17.6217 34.087 18.15 34.3798 18.602C33.9194 18.3134 33.6223 17.8232 33.5756 17.2843L32.1391 18.0609C28.8375 13.6198 18.5593 17.4901 17.5769 25.2433C17.2522 27.6665 17.9652 30.113 19.5396 31.9845C20.7405 33.3467 22.0497 33.9175 22.786 36.0605C24.2268 34.8235 23.987 33.4252 22.9473 32.2009C23.7027 31.8168 24.1992 31.0657 24.2565 30.2212C24.3137 29.3767 23.9212 28.564 23.2231 28.0845C22.6375 30.2021 20.6175 31.7723 20.0637 30.4101C20.0552 30.3803 20.0467 30.3528 20.0403 30.3231C19.7581 28.9354 21.7569 27.9614 25.0819 26.648V26.6332C25.0861 26.5568 25.0946 26.4804 25.0946 26.4061C25.0946 26.1324 25.05 25.8672 24.9545 25.6295C24.8654 25.3982 24.6766 25.1818 24.5026 25.0991L24.4474 25.063C24.4283 25.0503 24.4114 25.0333 24.4007 25.0163C24.3159 24.8869 24.3286 24.715 24.371 24.6132C24.4135 24.5071 24.4686 24.4286 24.5281 24.3564C24.6448 24.2185 24.7742 24.1103 24.9057 24.0106C25.171 23.8132 25.4511 23.6541 25.7418 23.514C26.0303 23.374 26.3316 23.2573 26.6414 23.1639C26.9533 23.0748 27.2759 23.0027 27.626 23.0069H27.6344C27.7618 23.0133 27.8615 23.1215 27.8551 23.2488C27.8551 23.3103 27.8254 23.3655 27.783 23.4058C27.5135 23.6626 27.4116 24.1718 27.3459 24.6471C27.3162 24.8423 27.2907 25.0418 27.261 25.2391C27.261 25.2497 27.2568 25.2603 27.2546 25.2731C27.227 25.4619 27.1952 25.6529 27.157 25.8417C30.187 24.6704 32.1985 23.6244 33.425 21.8696V21.876C33.9406 21.2267 33.582 20.8554 33.2213 21.2161C33.13 21.3031 33.0346 21.3837 32.9348 21.458C32.9348 21.458 32.9306 21.458 32.9306 21.4622C32.833 21.5365 32.7311 21.6023 32.625 21.6638C31.9842 22.033 31.2246 22.1709 30.4798 22.033C29.0688 21.7996 29.003 21.5832 29.2428 21.3731C30.8809 21.9248 32.6844 21.3116 33.6478 19.8793C33.7814 19.6883 33.6902 19.5122 33.4908 19.3149L40.9766 14.1036C41.2058 13.9424 41.505 13.5944 41.3798 13.4246H41.384H41.3862ZM18.8033 22.9878C18.7163 23.0048 18.6251 22.9793 18.5572 22.9199C18.4914 22.8605 18.4574 22.7714 18.4659 22.6823C18.4723 22.4828 18.6166 22.3131 18.8139 22.2749V22.2919C18.8988 22.2728 18.9879 22.294 19.0537 22.3513C19.1195 22.4086 19.1534 22.4934 19.1449 22.5804C19.1386 22.7799 18.9964 22.9475 18.8033 22.9878ZM19.6987 21.8654C19.5757 21.8908 19.4483 21.8569 19.355 21.7741C19.2616 21.6914 19.2107 21.5704 19.2192 21.4452C19.2298 21.1545 19.4335 20.9084 19.7178 20.8448V20.8384C19.843 20.8108 19.9724 20.8447 20.0679 20.9296C20.1634 21.0145 20.2143 21.1376 20.2037 21.2649C20.208 21.5619 19.9937 21.8166 19.6987 21.8654ZM21.3623 20.8384C21.2816 20.8554 21.1967 20.8341 21.1352 20.779C21.0737 20.7238 21.0397 20.6453 21.044 20.5625C21.0525 20.3716 21.1883 20.2103 21.375 20.1658C21.4577 20.1488 21.5426 20.17 21.6063 20.2273C21.6699 20.2825 21.7017 20.3652 21.6933 20.448C21.689 20.6389 21.5511 20.8023 21.3623 20.8384ZM21.3389 19.943C21.2286 19.9663 21.114 19.9366 21.0312 19.8623C20.9464 19.7881 20.9039 19.6777 20.9145 19.5653C20.9336 19.3107 21.1119 19.0963 21.358 19.0306C21.4683 19.0072 21.5829 19.0369 21.6657 19.1112C21.7506 19.1855 21.793 19.2958 21.7824 19.4083C21.7633 19.6629 21.585 19.8772 21.3389 19.943ZM26.652 17.0976C26.5841 17.3437 26.3613 17.5134 26.1067 17.5113C25.9943 17.5113 25.8903 17.454 25.8245 17.3628C25.7587 17.2716 25.7396 17.157 25.7715 17.0488C25.8394 16.8005 26.0664 16.6308 26.3231 16.635H26.3295C26.4398 16.6392 26.5438 16.6944 26.6053 16.7856C26.669 16.8769 26.686 16.9915 26.652 17.0976ZM27.5644 17.0848C27.4753 17.0679 27.3989 17.0127 27.3565 16.9342C27.314 16.8557 27.3077 16.7602 27.3416 16.6774C27.4265 16.4759 27.6366 16.3592 27.8509 16.3889C27.9442 16.4037 28.0249 16.4631 28.0694 16.5459C28.114 16.6308 28.114 16.7284 28.0737 16.8154C27.9824 17.0084 27.7745 17.1188 27.5644 17.0848ZM28.5426 20.5244C28.2731 20.5986 27.9867 20.4755 27.8551 20.2294C27.7236 19.9812 27.7787 19.6756 27.9909 19.4931C28.1776 19.3319 28.4429 19.3 28.6614 19.4146C28.88 19.5292 29.0073 19.7647 28.9797 20.0109C28.9542 20.257 28.7802 20.4607 28.5426 20.5265V20.5244Z" fill="#B0B7BF"/>
<path d="M27.2362 23.5072C27.0983 23.5241 26.9392 23.5645 26.797 23.6048C26.5127 23.6833 26.2305 23.7894 25.9589 23.9146C25.6873 24.0398 25.4242 24.184 25.1886 24.3538C25.0719 24.4387 24.9616 24.532 24.8767 24.6275C24.8364 24.6742 24.8025 24.7251 24.7876 24.7633C24.7834 24.7697 24.7812 24.7782 24.7812 24.7782C24.9765 24.863 24.9913 24.9161 25.108 25.0476C25.2205 25.1749 25.3096 25.3192 25.3754 25.4699C25.5048 25.7733 25.5621 26.0937 25.5663 26.4056C25.5727 26.7175 25.5388 27.0252 25.4836 27.3244L25.4369 27.5472C25.422 27.6151 25.4051 27.7148 25.3902 27.7403C25.3626 27.8188 25.3669 27.806 25.3669 27.8082C25.4136 27.8018 25.5366 27.7466 25.6364 27.6936C25.8528 27.6066 26.0331 27.4581 26.1965 27.2968C26.5297 26.9722 26.7143 26.5223 26.8267 26.0598C26.9434 25.5951 26.9774 25.107 27.024 24.6105C27.0495 24.3602 27.0771 24.1098 27.1344 23.8509C27.1535 23.7533 27.1811 23.6536 27.2193 23.5517C27.2299 23.522 27.2235 23.5326 27.2384 23.5029V23.5072H27.2362Z" fill="#B0B7BF"/>
</svg>
