<svg id="entities/file" viewBox="0 0 24 24" fill="none" xmlns="http://www.w3.org/2000/svg">
<path d="M8.75 11.5C8.55109 11.5 8.36032 11.579 8.21967 11.7197C8.07902 11.8603 8 12.0511 8 12.25C8 12.4489 8.07902 12.6397 8.21967 12.7803C8.36032 12.921 8.55109 13 8.75 13H15.25C15.4489 13 15.6397 12.921 15.7803 12.7803C15.921 12.6397 16 12.4489 16 12.25C16 12.0511 15.921 11.8603 15.7803 11.7197C15.6397 11.579 15.4489 11.5 15.25 11.5H8.75ZM8.75 14.25C8.55109 14.25 8.36032 14.329 8.21967 14.4697C8.07902 14.6103 8 14.8011 8 15C8 15.1989 8.07902 15.3897 8.21967 15.5303C8.36032 15.671 8.55109 15.75 8.75 15.75H15.25C15.4489 15.75 15.6397 15.671 15.7803 15.5303C15.921 15.3897 16 15.1989 16 15C16 14.8011 15.921 14.6103 15.7803 14.4697C15.6397 14.329 15.4489 14.25 15.25 14.25H8.75ZM8.75 17C8.55109 17 8.36032 17.079 8.21967 17.2197C8.07902 17.3603 8 17.5511 8 17.75C8 17.9489 8.07902 18.1397 8.21967 18.2803C8.36032 18.421 8.55109 18.5 8.75 18.5H15.25C15.4489 18.5 15.6397 18.421 15.7803 18.2803C15.921 18.1397 16 17.9489 16 17.75C16 17.5511 15.921 17.3603 15.7803 17.2197C15.6397 17.079 15.4489 17 15.25 17H8.75ZM13.585 2.586L19.414 8.414C19.7891 8.78899 19.9999 9.29761 20 9.828V20C20 20.5304 19.7893 21.0391 19.4142 21.4142C19.0391 21.7893 18.5304 22 18 22H6C5.46957 22 4.96086 21.7893 4.58579 21.4142C4.21071 21.0391 4 20.5304 4 20V4C4 3.46957 4.21071 2.96086 4.58579 2.58579C4.96086 2.21071 5.46957 2 6 2H12.172C12.2 2 12.227 2.004 12.254 2.007C12.274 2.01 12.294 2.013 12.313 2.014C12.528 2.029 12.74 2.07 12.937 2.152C12.994 2.176 13.049 2.208 13.103 2.239L13.153 2.268L13.2 2.292C13.228 2.30474 13.2551 2.31944 13.281 2.336C13.359 2.389 13.429 2.452 13.5 2.516C13.5116 2.52644 13.5236 2.53645 13.536 2.546C13.5532 2.55827 13.5695 2.57163 13.585 2.586ZM18 20.5C18.1326 20.5 18.2598 20.4473 18.3536 20.3536C18.4473 20.2598 18.5 20.1326 18.5 20V10H14C13.4696 10 12.9609 9.78929 12.5858 9.41421C12.2107 9.03914 12 8.53043 12 8V3.5H6C5.86739 3.5 5.74021 3.55268 5.64645 3.64645C5.55268 3.74021 5.5 3.86739 5.5 4V20C5.5 20.1326 5.55268 20.2598 5.64645 20.3536C5.74021 20.4473 5.86739 20.5 6 20.5H18ZM17.378 8.5L13.5 4.621V8C13.5 8.13261 13.5527 8.25979 13.6464 8.35355C13.7402 8.44732 13.8674 8.5 14 8.5H17.378Z" fill="#505862"/>
</svg>
