<svg id="entities/home" viewBox="0 0 24 24" fill="none" xmlns="http://www.w3.org/2000/svg">
<path d="M10.55 2.53198C10.9558 2.19 11.4693 2.00244 12 2.00244C12.5307 2.00244 13.0442 2.19 13.45 2.53198L20.2 8.22398C20.707 8.65198 21 9.28098 21 9.94398V19.747C21 20.2111 20.8156 20.6562 20.4874 20.9844C20.1592 21.3126 19.7141 21.497 19.25 21.497H15.75C15.2859 21.497 14.8408 21.3126 14.5126 20.9844C14.1844 20.6562 14 20.2111 14 19.747V14.247C14 14.1807 13.9737 14.1171 13.9268 14.0702C13.8799 14.0233 13.8163 13.997 13.75 13.997H10.25C10.1837 13.997 10.1201 14.0233 10.0732 14.0702C10.0263 14.1171 10 14.1807 10 14.247V19.747C10 20.2111 9.81563 20.6562 9.48744 20.9844C9.15925 21.3126 8.71413 21.497 8.25 21.497H4.75C4.52019 21.497 4.29262 21.4517 4.0803 21.3638C3.86798 21.2758 3.67507 21.1469 3.51256 20.9844C3.35006 20.8219 3.22116 20.629 3.13321 20.4167C3.04527 20.2044 3 19.9768 3 19.747V9.94398C3 9.28098 3.293 8.65198 3.8 8.22398L10.55 2.53198ZM12.483 3.67898C12.3478 3.56516 12.1767 3.50275 12 3.50275C11.8233 3.50275 11.6522 3.56516 11.517 3.67898L4.767 9.36998C4.68347 9.44029 4.6163 9.528 4.57018 9.62697C4.52406 9.72594 4.50011 9.83379 4.5 9.94298V19.746C4.5 19.884 4.612 19.996 4.75 19.996H8.25C8.3163 19.996 8.37989 19.9696 8.42678 19.9228C8.47366 19.8759 8.5 19.8123 8.5 19.746V14.246C8.5 13.279 9.284 12.496 10.25 12.496H13.75C14.716 12.496 15.5 13.279 15.5 14.246V19.746C15.5 19.884 15.612 19.996 15.75 19.996H19.25C19.3163 19.996 19.3799 19.9696 19.4268 19.9228C19.4737 19.8759 19.5 19.8123 19.5 19.746V9.94398C19.4999 9.83479 19.4759 9.72694 19.4298 9.62797C19.3837 9.529 19.3165 9.44129 19.233 9.37098L12.483 3.67898Z" fill="currentColor"/>
</svg>
