<svg xmlns="http://www.w3.org/2000/svg" id="entities/nessie-source-degraded" fill="none" viewBox="0 0 24 24">
  <path fill="#FFA940" fill-rule="evenodd" d="M18.5 6c0 .23-.226.843-1.514 1.487-1.199.6-2.96 1.013-4.986 1.013-2.027 0-3.787-.414-4.986-1.013C5.726 6.843 5.5 6.23 5.5 6c0-.23.226-.843 1.514-1.487C8.213 3.913 9.974 3.5 12 3.5c2.027 0 3.787.414 4.986 1.013C18.274 5.157 18.5 5.77 18.5 6Zm0 2.332V10c0 .172-.125.555-.722 1.006a6.467 6.467 0 0 1 2.222.492V6c0-2.21-3.582-4-8-4S4 3.79 4 6v8c0 2.043 3.062 3.728 7.017 3.97a6.592 6.592 0 0 1 .064-1.499c-1.638-.103-3.054-.478-4.067-.984C5.726 14.843 5.5 14.23 5.5 14v-1.668C6.952 13.342 9.322 14 12 14h.022a6.534 6.534 0 0 1 1.411-1.57c-.459.045-.938.07-1.433.07-2.027 0-3.787-.414-4.986-1.013C5.726 10.843 5.5 10.23 5.5 10V8.332C6.952 9.342 9.322 10 12 10s5.048-.658 6.5-1.668Zm-7.272 10.881c-.214.13-.394.311-.521.527H4.793a1.5 1.5 0 1 0 .012 1.5h5.89a1.5 1.5 0 0 0 1.97.605 6.487 6.487 0 0 1-1.437-2.631Z" clip-rule="evenodd"/>
  <path fill="#FFA940" fill-rule="evenodd" d="M21.39 21.39a5.5 5.5 0 1 0-7.78-7.78 5.5 5.5 0 0 0 7.78 7.78Zm-5.826-6.424 1.954 1.773 1.958-1.78a.454.454 0 0 1 .416-.111c.15.035.269.141.307.278a.363.363 0 0 1-.122.378l-2.561 2.323-2.553-2.315a.363.363 0 0 1-.122-.378.408.408 0 0 1 .307-.279c.15-.035.31.008.416.111Zm0 2.88 1.954 1.773 1.958-1.78a.454.454 0 0 1 .416-.111c.15.035.269.141.307.278a.363.363 0 0 1-.122.378l-2.561 2.323-2.553-2.315a.363.363 0 0 1-.122-.378.408.408 0 0 1 .307-.279c.15-.034.31.008.416.111Z" clip-rule="evenodd"/>
</svg>
