<svg xmlns="http://www.w3.org/2000/svg" id="entities/nessie-source" fill="none" viewBox="0 0 24 24">
  <path fill="#666ABB" fill-rule="evenodd" d="M16.986 7.487C18.274 6.843 18.5 6.23 18.5 6c0-.23-.226-.843-1.514-1.487C15.787 3.913 14.026 3.5 12 3.5c-2.027 0-3.787.414-4.986 1.013C5.726 5.157 5.5 5.77 5.5 6c0 .23.226.843 1.514 1.487C8.213 8.087 9.974 8.5 12 8.5c2.027 0 3.787-.414 4.986-1.013ZM18.5 10V8.332C17.048 9.342 14.678 10 12 10s-5.048-.658-6.5-1.668V10c0 .23.226.843 1.514 1.487 1.199.6 2.96 1.013 4.986 1.013 2.027 0 3.787-.414 4.986-1.013C18.274 10.843 18.5 10.23 18.5 10Zm1.5 0V6c0-2.21-3.582-4-8-4S4 3.79 4 6v8c0 2.083 3.183 3.794 7.25 3.983V19.2c-.224.13-.412.316-.543.539H4.793a1.5 1.5 0 1 0 .012 1.5h5.89a1.5 1.5 0 0 0 2.61 0h5.89a1.5 1.5 0 1 0 .011-1.5h-5.912a1.507 1.507 0 0 0-.544-.54v-1.217c4.067-.19 7.25-1.9 7.25-3.983v-4Zm-1.5 2.5V14c0 .23-.226.843-1.514 1.487-1.199.6-2.96 1.013-4.986 1.013-2.027 0-3.787-.414-4.986-1.013C5.726 14.843 5.5 14.23 5.5 14v-1.668C6.952 13.342 9.322 14 12 14s5.048-.658 6.5-1.668v.168Z" clip-rule="evenodd"/>
</svg>
