<svg id="entities/space" viewBox="0 0 24 24" fill="none" xmlns="http://www.w3.org/2000/svg">
<path fill-rule="evenodd" clip-rule="evenodd" d="M6.3335 5C6.3335 3.89543 7.22893 3 8.3335 3H19.0002C20.1047 3 21.0002 3.89543 21.0002 5V15.6667C21.0002 16.7712 20.1047 17.6667 19.0002 17.6667H8.3335C7.22893 17.6667 6.3335 16.7712 6.3335 15.6667V5ZM7.8335 5.5C7.8335 4.94772 8.28121 4.5 8.8335 4.5H18.5002C19.0524 4.5 19.5002 4.94772 19.5002 5.5V15.1667C19.5002 15.719 19.0524 16.1667 18.5002 16.1667H8.8335C8.28121 16.1667 7.8335 15.719 7.8335 15.1667V5.5Z" fill="#43B8C9"/>
<path d="M3.75 7.66675C4.16421 7.66675 4.5 8.00253 4.5 8.41675V18.4168C4.5 18.7438 4.57962 18.9393 4.6605 19.0606C4.7445 19.1866 4.86188 19.28 5.00208 19.3501C5.14521 19.4217 5.29742 19.4612 5.42017 19.4816C5.47977 19.4916 5.5278 19.4963 5.55799 19.4984C5.57296 19.4995 5.58315 19.4999 5.58773 19.5001L15.5833 19.5001C15.9975 19.5001 16.3333 19.8359 16.3333 20.2501C16.3333 20.6643 15.9975 21.0001 15.5833 21.0001H5.58333V20.2501C5.58333 21.0001 5.58371 21.0001 5.58333 21.0001L5.58178 21.0001L5.58005 21.0001L5.57605 21.0001L5.56598 20.9999L5.53776 20.9992C5.51549 20.9985 5.48628 20.9971 5.45112 20.9946C5.38105 20.9896 5.28585 20.9799 5.17358 20.9612C4.95258 20.9244 4.64646 20.8493 4.33126 20.6917C4.01312 20.5327 3.67216 20.2823 3.41242 19.8927C3.14955 19.4984 3 19.0063 3 18.4168V8.41675C3 8.00253 3.33579 7.66675 3.75 7.66675Z" fill="#43B8C9"/>
<path d="M7.83333 5.5C7.83333 4.94772 8.28104 4.5 8.83333 4.5H18.5C19.0523 4.5 19.5 4.94772 19.5 5.5V15.1667C19.5 15.719 19.0523 16.1667 18.5 16.1667H8.83333C8.28104 16.1667 7.83333 15.719 7.83333 15.1667V5.5Z" fill="#D2EDF2"/>
</svg>
