<svg id="entities/space-locked" viewBox="0 0 24 25" fill="none" xmlns="http://www.w3.org/2000/svg">
<path fill-rule="evenodd" clip-rule="evenodd" d="M8.3335 3.5C7.22893 3.5 6.3335 4.39543 6.3335 5.5V16.1667C6.3335 17.2712 7.22893 18.1667 8.3335 18.1667H12V17C12 16.887 12.0075 16.7757 12.022 16.6667H8.8335C8.28121 16.6667 7.8335 16.219 7.8335 15.6667V6C7.8335 5.44772 8.28121 5 8.8335 5H18.5002C19.0524 5 19.5002 5.44772 19.5002 6V11.6275C20.4068 12.2599 21 13.3107 21 14.5V14.55C21.0001 14.55 21.0001 14.55 21.0002 14.55V5.5C21.0002 4.39543 20.1047 3.5 19.0002 3.5H8.3335ZM12 20.0001V21.5001H5.58333L5.58178 21.5001L5.58005 21.5001L5.57605 21.5001L5.56598 21.4999L5.53776 21.4992C5.51549 21.4985 5.48628 21.4971 5.45112 21.4946C5.38105 21.4896 5.28585 21.4799 5.17358 21.4612C4.95258 21.4244 4.64646 21.3493 4.33126 21.1917C4.01312 21.0327 3.67216 20.7823 3.41242 20.3927C3.14955 19.9984 3 19.5063 3 18.9168V8.91675C3 8.50253 3.33579 8.16675 3.75 8.16675C4.16421 8.16675 4.5 8.50253 4.5 8.91675V18.9168C4.5 19.2438 4.57962 19.4393 4.6605 19.5606C4.7445 19.6866 4.86188 19.78 5.00208 19.8501C5.14521 19.9217 5.29742 19.9612 5.42017 19.9816C5.47977 19.9916 5.5278 19.9963 5.55799 19.9984C5.57296 19.9995 5.58315 19.9999 5.58773 20.0001L12 20.0001Z" fill="#43B8C9"/>
<path fill-rule="evenodd" clip-rule="evenodd" d="M8.83331 5C8.28103 5 7.83331 5.44772 7.83331 6V15.6667C7.83331 16.219 8.28103 16.6667 8.83331 16.6667H12.022C12.163 15.6088 12.9655 14.76 14 14.55V14.5C14 12.567 15.567 11 17.5 11C18.2436 11 18.9331 11.2319 19.5 11.6273V6C19.5 5.44772 19.0523 5 18.5 5H8.83331Z" fill="#D2EDF2"/>
<path fill-rule="evenodd" clip-rule="evenodd" d="M15 14.5V15.5H14.5C13.6716 15.5 13 16.1716 13 17V22C13 22.8284 13.6716 23.5 14.5 23.5H20.5C21.3284 23.5 22 22.8284 22 22V17C22 16.1716 21.3284 15.5 20.5 15.5H20V14.5C20 13.1193 18.8807 12 17.5 12C16.1193 12 15 13.1193 15 14.5ZM17.5 13.5C16.9477 13.5 16.5 13.9477 16.5 14.5V15.5H18.5V14.5C18.5 13.9477 18.0523 13.5 17.5 13.5ZM17.5 20.5C18.0523 20.5 18.5 20.0523 18.5 19.5C18.5 18.9477 18.0523 18.5 17.5 18.5C16.9477 18.5 16.5 18.9477 16.5 19.5C16.5 20.0523 16.9477 20.5 17.5 20.5Z" fill="#43B8C9"/>
</svg>
