<?xml version="1.0" encoding="UTF-8" standalone="no"?>
<!--

    Copyright (C) 2017-2019 Dremio Corporation

    Licensed under the Apache License, Version 2.0 (the "License");
    you may not use this file except in compliance with the License.
    You may obtain a copy of the License at

        http://www.apache.org/licenses/LICENSE-2.0

    Unless required by applicable law or agreed to in writing, software
    distributed under the License is distributed on an "AS IS" BASIS,
    WITHOUT WARRANTIES OR CONDITIONS OF ANY KIND, either express or implied.
    See the License for the specific language governing permissions and
    limitations under the License.

-->
<svg width="24px" height="24px" viewBox="0 0 24 24" version="1.1" xmlns="http://www.w3.org/2000/svg" xmlns:xlink="http://www.w3.org/1999/xlink">
    <title>Icon/Copy</title>
    <g id="Icon/Copy" stroke="none" stroke-width="1" fill="none" fill-rule="evenodd">
        <path d="M8,7.00100238 L8,8.00100238 L6.5,8.00100238 C5.67157288,8.00100238 5,8.67257526 5,9.50100238 L5,18.5010024 C5,19.3294295 5.67157288,20.0010024 6.5,20.0010024 L13.5,20.0010024 C14.3284271,20.0010024 15,19.3294295 15,18.5010024 L15,17.0010024 L16,17.0010024 L16,18.5010024 C16,19.8817143 14.8807119,21.0010024 13.5,21.0010024 L6.5,21.0010024 C5.11928813,21.0010024 4,19.8817143 4,18.5010024 L4,9.50100238 C4,8.12029051 5.11928813,7.00100238 6.5,7.00100238 L8,7.00100238 Z M16,4.00100238 L10.5,4.00100238 C9.67157288,4.00100238 9,4.67257526 9,5.50100238 L9,14.5010024 C9,15.3294295 9.67157288,16.0010024 10.5,16.0010024 L17.5,16.0010024 C18.3284271,16.0010024 19,15.3294295 19,14.5010024 L19,7.00100238 L16.5,7.00100238 C16.2238576,7.00100238 16,6.77714475 16,6.50100238 L16,4.00100238 Z M20,6.52897986 L20,14.5010024 C20,15.8817143 18.8807119,17.0010024 17.5,17.0010024 L10.5,17.0010024 C9.11928813,17.0010024 8,15.8817143 8,14.5010024 L8,5.50100238 C8,4.12029051 9.11928813,3.00100238 10.5,3.00100238 L16.4720225,3.00100238 C16.6047688,2.99258291 16.7429463,3.03684187 16.8535534,3.14744899 L19.8535534,6.14744899 C19.9641605,6.25805611 20.0084195,6.39623363 20,6.52897986 Z M17,6.00100238 L18.2928932,6.00100238 L17,4.70810916 L17,6.00100238 Z" id="Shape" fill="#43B8C9"></path>
    </g>
</svg>