<?xml version="1.0" encoding="UTF-8" standalone="no"?>
<!--

    Copyright (C) 2017-2019 Dremio Corporation

    Licensed under the Apache License, Version 2.0 (the "License");
    you may not use this file except in compliance with the License.
    You may obtain a copy of the License at

        http://www.apache.org/licenses/LICENSE-2.0

    Unless required by applicable law or agreed to in writing, software
    distributed under the License is distributed on an "AS IS" BASIS,
    WITHOUT WARRANTIES OR CONDITIONS OF ANY KIND, either express or implied.
    See the License for the specific language governing permissions and
    limitations under the License.

-->
<svg width="24" height="25" viewBox="0 0 24 25" fill="none" xmlns="http://www.w3.org/2000/svg">
<path d="M12 2.5C17.523 2.5 22 6.977 22 12.5C22 18.023 17.523 22.5 12 22.5C6.477 22.5 2 18.023 2 12.5C2 6.977 6.477 2.5 12 2.5ZM12 4C9.74566 4 7.58365 4.89553 5.98959 6.48959C4.39553 8.08365 3.5 10.2457 3.5 12.5C3.5 14.7543 4.39553 16.9163 5.98959 18.5104C7.58365 20.1045 9.74566 21 12 21C14.2543 21 16.4163 20.1045 18.0104 18.5104C19.6045 16.9163 20.5 14.7543 20.5 12.5C20.5 10.2457 19.6045 8.08365 18.0104 6.48959C16.4163 4.89553 14.2543 4 12 4ZM15.446 8.897L15.53 8.97C15.657 9.09699 15.7342 9.26534 15.7476 9.44445C15.761 9.62356 15.7097 9.80153 15.603 9.946L15.53 10.03L13.061 12.5L15.531 14.97C15.6579 15.0971 15.7349 15.2655 15.7481 15.4446C15.7613 15.6237 15.7098 15.8016 15.603 15.946L15.53 16.03C15.403 16.157 15.2347 16.2342 15.0555 16.2476C14.8764 16.261 14.6985 16.2097 14.554 16.103L14.47 16.03L12 13.561L9.53 16.031C9.40289 16.1579 9.23447 16.2349 9.05536 16.2481C8.87626 16.2613 8.69835 16.2098 8.554 16.103L8.47 16.03C8.34298 15.903 8.26575 15.7347 8.25236 15.5555C8.23896 15.3764 8.29029 15.1985 8.397 15.054L8.47 14.97L10.939 12.5L8.469 10.03C8.34213 9.90289 8.26509 9.73447 8.25188 9.55536C8.23866 9.37626 8.29016 9.19835 8.397 9.054L8.47 8.97C8.59699 8.84298 8.76534 8.76575 8.94445 8.75236C9.12356 8.73896 9.30153 8.79029 9.446 8.897L9.53 8.97L12 11.439L14.47 8.969C14.5971 8.84213 14.7655 8.76509 14.9446 8.75188C15.1237 8.73866 15.3016 8.79016 15.446 8.897Z" fill="#CA3F32"/>
</svg>
