<?xml version="1.0" encoding="UTF-8" standalone="no"?>
<!--

    Copyright (C) 2017-2019 Dremio Corporation

    Licensed under the Apache License, Version 2.0 (the "License");
    you may not use this file except in compliance with the License.
    You may obtain a copy of the License at

        http://www.apache.org/licenses/LICENSE-2.0

    Unless required by applicable law or agreed to in writing, software
    distributed under the License is distributed on an "AS IS" BASIS,
    WITHOUT WARRANTIES OR CONDITIONS OF ANY KIND, either express or implied.
    See the License for the specific language governing permissions and
    limitations under the License.

-->
<svg width="24" height="24" viewBox="0 0 24 24" fill="none" xmlns="http://www.w3.org/2000/svg">
<g clip-path="url(#clip0)">
<path d="M10.0243 15.827L10.3934 14.8976C10.8004 15.0593 11.2362 15.1433 11.6846 15.1433C13.6175 15.1433 15.1846 13.5763 15.1846 11.6433C15.1846 11.2986 15.1349 10.9611 15.0382 10.638L15.9962 10.3513C16.1207 10.7672 16.1846 11.2013 16.1846 11.6433C16.1846 14.1286 14.1698 16.1433 11.6846 16.1433C11.1093 16.1433 10.5483 16.0351 10.0243 15.827ZM1.67701 11.5854C1.54361 11.7296 1.41883 11.8681 1.30299 12C1.41883 12.1319 1.54361 12.2704 1.67701 12.4146C2.40477 13.2011 3.23262 13.9883 4.14219 14.7213C4.68716 15.1605 5.24589 15.5669 5.8159 15.934L5.27449 16.7747C2.09157 14.7251 0 12 0 12C0 12 5.37258 4.99997 12 4.99997C13.4247 4.99997 14.7915 5.32347 16.0593 5.83139L15.2926 6.60934C14.1845 6.20952 13.0849 5.99997 12 5.99997C9.36693 5.99997 6.69516 7.22125 4.14219 9.27859C3.23262 10.0116 2.40477 10.7989 1.67701 11.5854ZM22.323 12.4146C22.4564 12.2704 22.5812 12.1319 22.697 12C22.5812 11.8681 22.4564 11.7296 22.323 11.5854C21.5952 10.7989 20.7674 10.0116 19.8578 9.27859C19.4767 8.9715 19.0884 8.68005 18.6937 8.40659L19.2632 7.58456C22.1419 9.57899 24 12 24 12C24 12 18.6274 19 12 19C10.7116 19 9.4706 18.7354 8.30729 18.3092L9.10681 17.5265C10.0803 17.8379 11.0459 18 12 18C14.6331 18 17.3048 16.7787 19.8578 14.7213C20.7674 13.9883 21.5952 13.2011 22.323 12.4146ZM13.9841 7.95999L13.5427 8.8573C13.067 8.6233 12.5428 8.49997 12 8.49997C10.067 8.49997 8.5 10.067 8.5 12C8.5 12.5002 8.60471 12.9848 8.80465 13.4306L7.89221 13.8398C7.63483 13.2659 7.5 12.642 7.5 12C7.5 9.51469 9.51472 7.49997 12 7.49997C12.6967 7.49997 13.3718 7.65879 13.9841 7.95999ZM20.7178 2.72418L21.4249 3.43129L3.2291 21.6271L2.522 20.92L20.7178 2.72418Z" fill="#6E7987"/>
</g>
<defs>
<clipPath id="clip0">
<rect width="24" height="24" fill="white"/>
</clipPath>
</defs>
</svg>
