<?xml version="1.0" encoding="UTF-8" standalone="no"?>
<!--

    Copyright (C) 2017-2019 Dremio Corporation

    Licensed under the Apache License, Version 2.0 (the "License");
    you may not use this file except in compliance with the License.
    You may obtain a copy of the License at

        http://www.apache.org/licenses/LICENSE-2.0

    Unless required by applicable law or agreed to in writing, software
    distributed under the License is distributed on an "AS IS" BASIS,
    WITHOUT WARRANTIES OR CONDITIONS OF ANY KIND, either express or implied.
    See the License for the specific language governing permissions and
    limitations under the License.

-->
<svg width="20" height="20" viewBox="0 0 20 20" fill="none" xmlns="http://www.w3.org/2000/svg">
<path d="M10 1.66589C14.6034 1.66589 18.335 5.39756 18.335 10.0009C18.335 14.6034 14.6034 18.3351 10 18.3351C5.39671 18.3351 1.66504 14.6034 1.66504 10.0009C1.66504 5.39756 5.39671 1.66589 10 1.66589ZM10 2.91589C9.06321 2.90573 8.13367 3.08148 7.26522 3.43295C6.39677 3.78443 5.60665 4.30466 4.94059 4.96353C4.27453 5.62241 3.74576 6.40684 3.38489 7.27143C3.02402 8.13602 2.8382 9.0636 2.8382 10.0005C2.8382 10.9374 3.02402 11.8649 3.38489 12.7295C3.74576 13.5941 4.27453 14.3785 4.94059 15.0374C5.60665 15.6963 6.39677 16.2165 7.26522 16.568C8.13367 16.9195 9.06321 17.0952 10 17.0851C11.8601 17.0565 13.6342 16.2976 14.9395 14.9722C16.2448 13.6467 16.9764 11.8611 16.9764 10.0009C16.9764 8.14066 16.2448 6.35504 14.9395 5.02961C13.6342 3.70417 11.8601 2.94526 10 2.91673V2.91589ZM9.99671 8.74923C10.1479 8.74903 10.294 8.80364 10.408 8.90293C10.522 9.00221 10.5961 9.13946 10.6167 9.28923L10.6225 9.37423L10.625 13.9592C10.625 14.1176 10.5648 14.27 10.4567 14.3857C10.3486 14.5014 10.2006 14.5718 10.0426 14.5826C9.88465 14.5934 9.72846 14.5438 9.60562 14.4439C9.48278 14.3439 9.40246 14.2011 9.38087 14.0442L9.37504 13.9601L9.37254 9.37506C9.37254 9.2093 9.43839 9.05033 9.5556 8.93312C9.67281 8.81591 9.83178 8.75006 9.99754 8.75006L9.99671 8.74923ZM10 5.83589C10.1115 5.83236 10.2226 5.85128 10.3266 5.8915C10.4307 5.93173 10.5255 5.99246 10.6057 6.07007C10.6858 6.14769 10.7495 6.24061 10.793 6.34332C10.8365 6.44603 10.8589 6.55643 10.8589 6.66798C10.8589 6.77952 10.8365 6.88992 10.793 6.99263C10.7495 7.09535 10.6858 7.18827 10.6057 7.26588C10.5255 7.3435 10.4307 7.40422 10.3266 7.44445C10.2226 7.48468 10.1115 7.50359 10 7.50006C9.78391 7.49322 9.57893 7.40256 9.42847 7.24726C9.27801 7.09196 9.19388 6.88421 9.19388 6.66798C9.19388 6.45174 9.27801 6.244 9.42847 6.0887C9.57893 5.9334 9.78391 5.84273 10 5.83589Z" fill="#505862"/>
</svg>
