<?xml version="1.0" encoding="UTF-8" standalone="no"?>
<!--

    Copyright (C) 2017-2019 Dremio Corporation

    Licensed under the Apache License, Version 2.0 (the "License");
    you may not use this file except in compliance with the License.
    You may obtain a copy of the License at

        http://www.apache.org/licenses/LICENSE-2.0

    Unless required by applicable law or agreed to in writing, software
    distributed under the License is distributed on an "AS IS" BASIS,
    WITHOUT WARRANTIES OR CONDITIONS OF ANY KIND, either express or implied.
    See the License for the specific language governing permissions and
    limitations under the License.

-->
<svg width="24" height="24" viewBox="0 0 24 24" fill="none" xmlns="http://www.w3.org/2000/svg">
  <path d="M13.75 2C14.3201 1.99993 14.869 2.2163 15.2858 2.60537C15.7025 2.99444 15.956 3.52721 15.995 4.096L16 4.25C16 4.165 15.995 4.082 15.986 4H17.75C18.0455 4 18.3381 4.0582 18.611 4.17127C18.884 4.28434 19.1321 4.45008 19.341 4.65901C19.5499 4.86794 19.7157 5.11598 19.8287 5.38896C19.9418 5.66194 20 5.95453 20 6.25V19.75C20 20.0455 19.9418 20.3381 19.8287 20.611C19.7157 20.884 19.5499 21.1321 19.341 21.341C19.1321 21.5499 18.884 21.7157 18.611 21.8287C18.3381 21.9418 18.0455 22 17.75 22H6.25C5.65326 22 5.08097 21.7629 4.65901 21.341C4.23705 20.919 4 20.3467 4 19.75V6.25C4 5.65326 4.23705 5.08097 4.65901 4.65901C5.08097 4.23705 5.65326 4 6.25 4H8.014C8.007 4.058 8.004 4.117 8.001 4.176L8 4.25C8 3.65326 8.23705 3.08097 8.65901 2.65901C9.08097 2.23705 9.65326 2 10.25 2H13.75ZM13.75 6.5H10.25C9.87334 6.50011 9.5027 6.40557 9.17211 6.22507C8.84152 6.04457 8.56158 5.7839 8.358 5.467L8.379 5.5H6.25C6.05109 5.5 5.86032 5.57902 5.71967 5.71967C5.57902 5.86032 5.5 6.05109 5.5 6.25V19.75C5.5 20.164 5.836 20.5 6.25 20.5H17.75C17.9489 20.5 18.1397 20.421 18.2803 20.2803C18.421 20.1397 18.5 19.9489 18.5 19.75V6.25C18.5 6.05109 18.421 5.86032 18.2803 5.71967C18.1397 5.57902 17.9489 5.5 17.75 5.5H15.621L15.642 5.467C15.4384 5.7839 15.1585 6.04457 14.8279 6.22507C14.4973 6.40557 14.1267 6.50011 13.75 6.5ZM13.75 3.5H10.25C10.0511 3.5 9.86032 3.57902 9.71967 3.71967C9.57902 3.86032 9.5 4.05109 9.5 4.25C9.5 4.44891 9.57902 4.63968 9.71967 4.78033C9.86032 4.92098 10.0511 5 10.25 5H13.75C13.9489 5 14.1397 4.92098 14.2803 4.78033C14.421 4.63968 14.5 4.44891 14.5 4.25C14.5 4.05109 14.421 3.86032 14.2803 3.71967C14.1397 3.57902 13.9489 3.5 13.75 3.5ZM8 14.5H12C12.1989 14.5 12.3897 14.421 12.5303 14.2803C12.671 14.1397 12.75 13.9489 12.75 13.75C12.75 13.5511 12.671 13.3603 12.5303 13.2197C12.3897 13.079 12.1989 13 12 13H8C7.80109 13 7.61032 13.079 7.46967 13.2197C7.32902 13.3603 7.25 13.5511 7.25 13.75C7.25 13.9489 7.32902 14.1397 7.46967 14.2803C7.61032 14.421 7.80109 14.5 8 14.5ZM8 10.5H16C16.1989 10.5 16.3897 10.421 16.5303 10.2803C16.671 10.1397 16.75 9.94891 16.75 9.75C16.75 9.55109 16.671 9.36032 16.5303 9.21967C16.3897 9.07902 16.1989 9 16 9H8C7.80109 9 7.61032 9.07902 7.46967 9.21967C7.32902 9.36032 7.25 9.55109 7.25 9.75C7.25 9.94891 7.32902 10.1397 7.46967 10.2803C7.61032 10.421 7.80109 10.5 8 10.5ZM8 18.5H14C14.1989 18.5 14.3897 18.421 14.5303 18.2803C14.671 18.1397 14.75 17.9489 14.75 17.75C14.75 17.5511 14.671 17.3603 14.5303 17.2197C14.3897 17.079 14.1989 17 14 17H8C7.80109 17 7.61032 17.079 7.46967 17.2197C7.32902 17.3603 7.25 17.5511 7.25 17.75C7.25 17.9489 7.32902 18.1397 7.46967 18.2803C7.61032 18.421 7.80109 18.5 8 18.5Z" fill="#505862"/>
</svg>