<?xml version="1.0" encoding="UTF-8" standalone="no"?>
<!--

    Copyright (C) 2017-2019 Dremio Corporation

    Licensed under the Apache License, Version 2.0 (the "License");
    you may not use this file except in compliance with the License.
    You may obtain a copy of the License at

        http://www.apache.org/licenses/LICENSE-2.0

    Unless required by applicable law or agreed to in writing, software
    distributed under the License is distributed on an "AS IS" BASIS,
    WITHOUT WARRANTIES OR CONDITIONS OF ANY KIND, either express or implied.
    See the License for the specific language governing permissions and
    limitations under the License.

-->
<svg width="24px" height="24px" viewBox="0 0 24 24" version="1.1" xmlns="http://www.w3.org/2000/svg" xmlns:xlink="http://www.w3.org/1999/xlink">
    <title>Icon/X (Large)</title>
    <g id="Icon/X-(Large)" stroke="none" stroke-width="1" fill="none" fill-rule="evenodd">
        <polygon id="Path" points="0 0 24 0 24 24 0 24"></polygon>
        <path d="M12,4 C12.2454599,4 12.4496084,4.17687516 12.4919443,4.41012437 L12.5,4.5 L12.5,11.5 L19.5,11.5 C19.7761424,11.5 20,11.7238576 20,12 C20,12.2454599 19.8231248,12.4496084 19.5898756,12.4919443 L19.5,12.5 L12.5,12.5 L12.5,19.5 C12.5,19.7761424 12.2761424,20 12,20 C11.7545401,20 11.5503916,19.8231248 11.5080557,19.5898756 L11.5,19.5 L11.5,12.5 L4.5,12.5 C4.22385763,12.5 4,12.2761424 4,12 C4,11.7545401 4.17687516,11.5503916 4.41012437,11.5080557 L4.5,11.5 L11.5,11.5 L11.5,4.5 C11.5,4.22385763 11.7238576,4 12,4 Z" id="Combined-Shape" fill="#7F8B95" transform="translate(12.000000, 12.000000) rotate(45.000000) translate(-12.000000, -12.000000) "></path>
    </g>
</svg>