<svg id="sources/ADL" viewBox="0 0 40 40" fill="none" xmlns="http://www.w3.org/2000/svg">
<path d="M16.85 36.6329C13.4633 36.2831 10.296 35.4509 8.69 34.4886C7.89645 34.0132 7.1305 33.2793 6.93193 32.8042C6.80575 32.5021 6.76489 30.2294 6.70054 19.9319C6.64549 11.1231 6.6571 7.40448 6.73978 7.3538C6.80473 7.31366 7.03347 7.52665 7.25181 7.83055C7.92882 8.7729 9.03015 9.43634 11.0264 10.1043C12.3339 10.5418 14.2544 10.9536 15.8032 11.1286C17.6776 11.3403 20.6829 11.4838 21.7535 11.4126C26.9039 11.0704 30.4878 10.0043 32.2041 8.30432C32.5885 7.92355 32.9232 7.61201 32.9479 7.61201C32.9726 7.61201 32.9917 13.1779 32.9904 19.9807C32.9876 34.0342 33.0744 32.7957 32.0256 33.7389C30.719 34.9138 28.2255 35.8221 24.7747 36.3803C23.6367 36.5644 22.7437 36.6174 20.3211 36.6446C18.6545 36.6634 17.0926 36.6583 16.8501 36.6332L16.85 36.6329ZM16.9602 9.52529C14.6691 9.29351 12.5257 8.81774 11.3298 8.27553C7.66998 6.61608 9.54672 4.49329 15.4727 3.58952C17.0792 3.34452 20.8016 3.2528 22.6143 3.41358C26.0605 3.71927 28.622 4.43879 29.7314 5.41285C31.4422 6.91495 29.2403 8.55974 24.4946 9.32478C23.3963 9.50183 18.1169 9.6424 16.9602 9.52538V9.52529Z" fill="#9FA0A1"/>
<path d="M16.2438 36.5358C14.3092 36.3156 12.6555 35.9736 11.1451 35.4811C9.54919 34.9608 8.46229 34.4002 7.70187 33.7052C6.67191 32.7638 6.74568 33.9258 6.83471 20.0472C6.87779 13.3291 6.92793 7.83279 6.94611 7.83279C6.96429 7.83279 7.20003 8.06832 7.46997 8.35619C9.02462 10.0141 12.7106 11.1371 17.7387 11.485L19.6597 11.6179V24.2588L20.2382 24.1867C21.6482 24.011 22.8143 23.4213 23.7273 22.4225C24.0266 22.095 24.2953 21.8271 24.3244 21.8271C24.3536 21.8271 24.6993 22.1489 25.0926 22.5422C26.3648 23.8144 28.1053 24.4174 29.731 24.1488C30.6479 23.9974 31.6153 23.5867 32.2569 23.0766C32.51 22.8753 32.7543 22.7102 32.7998 22.7096C32.8452 22.7091 32.8824 24.8919 32.8824 27.5603C32.8824 32.9905 32.9035 32.8284 32.0958 33.6094C30.8142 34.8486 28.113 35.8401 24.5632 36.3741C22.5235 36.681 18.2471 36.7646 16.2439 36.5366L16.2438 36.5358ZM15.9411 9.31138C13.6454 9.03327 11.5317 8.43062 10.5376 7.77083C8.24802 6.25088 10.029 4.62669 14.9766 3.72259C16.1622 3.50593 16.6688 3.48099 19.88 3.4812C23.1363 3.48141 23.5911 3.50456 24.8936 3.73641C26.4781 4.01846 28.3361 4.59194 29.0826 5.02937C31.8919 6.67581 29.3955 8.64941 23.654 9.32101C21.9029 9.52585 17.6678 9.52059 15.9411 9.31142V9.31138Z" fill="#58B2D6"/>
<path d="M15.9135 36.3045C12.3035 35.8695 9.27719 34.8713 7.89025 33.658C6.9226 32.8115 7.00686 33.9854 6.91974 20.1378C6.87716 13.3693 6.87317 7.83189 6.91088 7.83189C6.94858 7.83189 7.20029 8.06742 7.47023 8.35529C9.02489 10.0132 12.7108 11.1362 17.739 11.4841L19.66 11.617V36.4812L18.4204 36.4694C17.7386 36.4628 16.6105 36.3888 15.9136 36.3048L15.9135 36.3045ZM15.9414 9.3104C13.6457 9.0323 11.5319 8.42964 10.5379 7.76985C8.24831 6.2499 10.0293 4.62572 14.9769 3.72162C16.1625 3.50495 16.6691 3.48002 19.8803 3.48023C23.1366 3.48044 23.5914 3.50358 24.8939 3.73543C26.4784 4.01749 28.3364 4.59096 29.0828 5.02839C31.8922 6.67484 29.3958 8.64843 23.6543 9.32004C21.9032 9.52488 17.668 9.51961 15.9414 9.31045V9.3104Z" fill="#B3D131"/>
<path d="M15.9136 36.3045C12.3035 35.8695 9.2772 34.8713 7.89025 33.658C6.9226 32.8115 7.00686 33.9854 6.91974 20.1378C6.87716 13.3693 6.87317 7.83189 6.91088 7.83189C6.94858 7.83189 7.20029 8.06742 7.47023 8.35529C9.02489 10.0132 12.7108 11.1362 17.739 11.4841L19.66 11.617V36.4812L18.4204 36.4694C17.7386 36.4629 16.6105 36.3888 15.9136 36.3048L15.9136 36.3045ZM16.9603 9.29939C16.0587 9.22109 14.1774 8.90984 13.3171 8.69662C12.4014 8.4697 12.0716 8.33167 12.1818 8.22146C12.3111 8.09218 14.4088 7.61364 15.6636 7.42719C17.295 7.18479 22.1636 7.15024 23.6819 7.3703C25.5946 7.64754 27.5936 8.11163 27.5936 8.27849C27.5936 8.51422 25.0695 9.06883 23.1393 9.25723C22.0417 9.36437 18.0241 9.39178 16.9603 9.2994V9.29939Z" fill="#3897C4"/>
<path d="M9.79793 24.1374C8.99219 24.0162 8.11094 23.6485 7.48396 23.1722L6.93301 22.7536L6.9047 15.2929C6.88912 11.1896 6.89953 7.83221 6.92783 7.83221C6.95613 7.83221 7.20014 8.06774 7.47008 8.35561C9.02474 10.0135 12.7107 11.1366 17.7388 11.4844L19.6599 11.6173V24.1701L18.9338 24.1118C17.8899 24.028 16.7257 23.4323 15.8318 22.5244C15.4535 22.1403 15.114 21.826 15.0773 21.826C15.0406 21.826 14.7798 22.0828 14.4979 22.3968C13.2819 23.7505 11.5326 24.3984 9.79797 24.1372L9.79793 24.1374ZM16.9602 9.29939C16.0586 9.22109 14.1773 8.90984 13.3169 8.69662C12.4013 8.4697 12.0715 8.33167 12.1816 8.22146C12.3109 8.09218 14.4087 7.61364 15.6635 7.42719C17.2949 7.18479 22.1635 7.15024 23.6817 7.3703C25.5945 7.64754 27.5935 8.11163 27.5935 8.27849C27.5935 8.51422 25.0694 9.06883 23.1392 9.25723C22.0416 9.36437 18.024 9.39179 16.9602 9.2994V9.29939Z" fill="#7EB900"/>
<path d="M9.79793 24.1373C8.99219 24.016 8.11094 23.6483 7.48396 23.172L6.93301 22.7534L6.9047 15.2927C6.88912 11.1894 6.89953 7.83203 6.92783 7.83203C6.95613 7.83203 7.20014 8.06756 7.47008 8.35543C9.02474 10.0133 12.7107 11.1364 17.7388 11.4842L19.6599 11.6172V24.1699L18.9338 24.1116C17.8899 24.0278 16.7257 23.4321 15.8318 22.5242C15.4535 22.1401 15.114 21.8258 15.0773 21.8258C15.0406 21.8258 14.7798 22.0827 14.4979 22.3966C13.2819 23.7504 11.5326 24.3982 9.79797 24.137L9.79793 24.1373Z" fill="#3E3E3F"/>
</svg>
