<svg id="sources/AMAZONELASTIC" viewBox="0 0 40 40" fill="none" xmlns="http://www.w3.org/2000/svg">
<g clip-path="url(#clip0_1031_40790)">
<path d="M36.6666 3.33325H3.33325V36.6666H36.6666V3.33325Z" fill="url(#paint0_linear_1031_40790)"/>
<path fill-rule="evenodd" clip-rule="evenodd" d="M21.775 24.7208C19.9346 24.7208 18.4375 23.2237 18.4375 21.3837C18.4375 19.5433 19.9346 18.0463 21.775 18.0463C23.6154 18.0463 25.1125 19.5433 25.1125 21.3837C25.1125 23.2237 23.6154 24.7208 21.775 24.7208ZM21.775 17.2129C19.475 17.2129 17.6042 19.0837 17.6042 21.3837C17.6042 23.6833 19.475 25.5542 21.775 25.5542C24.075 25.5542 25.9458 23.6833 25.9458 21.3837C25.9458 19.0837 24.075 17.2129 21.775 17.2129ZM30.2283 28.8942C29.9571 29.1946 29.4904 29.2196 29.1883 28.9488L25.7133 25.8142C26.0804 25.4875 26.41 25.1208 26.6871 24.7137L30.1733 27.8546C30.4746 28.1263 30.4987 28.5933 30.2283 28.8942ZM16.6713 21.3837C16.6713 18.5692 18.9608 16.2796 21.775 16.2796C24.5892 16.2796 26.8787 18.5692 26.8787 21.3837C26.8787 24.1979 24.5892 26.4875 21.775 26.4875C18.9608 26.4875 16.6713 24.1979 16.6713 21.3837ZM27.1096 23.9729C27.4917 23.1892 27.7121 22.3125 27.7121 21.3837C27.7121 18.1096 25.0487 15.4462 21.775 15.4462C18.5012 15.4462 15.8379 18.1096 15.8379 21.3837C15.8379 24.6575 18.5012 27.3208 21.775 27.3208C22.9829 27.3208 24.1067 26.9562 25.0454 26.3342L28.6308 29.5683C28.93 29.8371 29.3054 29.9696 29.68 29.9692C30.1096 29.9692 30.5375 29.795 30.8475 29.4521C31.425 28.8096 31.3733 27.8154 30.7317 27.2358L27.1096 23.9729ZM31.25 11.6667V25.8333H30.4167V12.0833H27.0833V16.6667H26.25V11.6667C26.25 11.4367 26.4367 11.25 26.6667 11.25H30.8333C31.0637 11.25 31.25 11.4367 31.25 11.6667ZM24.5833 28.75H25.4167V30.8333C25.4167 31.0637 25.2304 31.25 25 31.25H20.8333C20.6029 31.25 20.4167 31.0637 20.4167 30.8333V28.3333H21.25V30.4167H24.5833V28.75ZM21.25 14.1667H20.4167V9.16667C20.4167 8.93667 20.6029 8.75 20.8333 8.75H25C25.2304 8.75 25.4167 8.93667 25.4167 9.16667V15H24.5833V9.58333H21.25V14.1667ZM18.75 27.9167H19.5833V30.8333C19.5833 31.0637 19.3971 31.25 19.1667 31.25H15C14.77 31.25 14.5833 31.0637 14.5833 30.8333V24.5833H15.4167V30.4167H18.75V27.9167ZM15.4167 18.3333H14.5833V12.9167C14.5833 12.6867 14.77 12.5 15 12.5H19.1667C19.3971 12.5 19.5833 12.6867 19.5833 12.9167V14.5833H18.75V13.3333H15.4167V18.3333ZM9.58333 30.4167H12.9167V16.25H9.58333V30.4167ZM13.3333 15.4167H9.16667C8.93667 15.4167 8.75 15.6033 8.75 15.8333V30.8333C8.75 31.0637 8.93667 31.25 9.16667 31.25H13.3333C13.5637 31.25 13.75 31.0637 13.75 30.8333V15.8333C13.75 15.6033 13.5637 15.4167 13.3333 15.4167Z" fill="white"/>
</g>
<defs>
<linearGradient id="paint0_linear_1031_40790" x1="3.33325" y1="36.6666" x2="36.6666" y2="3.33325" gradientUnits="userSpaceOnUse">
<stop stop-color="#4D27A8"/>
<stop offset="1" stop-color="#A166FF"/>
</linearGradient>
<clipPath id="clip0_1031_40790">
<rect width="33.3333" height="33.3333" fill="white" transform="translate(3.33325 3.33325)"/>
</clipPath>
</defs>
</svg>
