<svg id='sources/AWSGLUE' version="1.1" xmlns="http://www.w3.org/2000/svg" xmlns:xlink="http://www.w3.org/1999/xlink" x="0px" y="0px"
	viewBox="0 0 100 100" style="enable-background:new 0 0 100 100;" xml:space="preserve">
<g>
	<polygon points="32.1,45 22.7,44.5 22.7,28 32.1,29.8" fill="#F58536"/>
	<polygon points="84,45.2 75.2,45.5 67.8,45 77.1,44.5" fill="#6B3A19"/>
	<polygon points="67.8,34.9 77.3,33.5 77.3,44.5 67.8,45" fill="#9D5025"/>
	<polygon points="15.9,62.2 50,70.9 50,50 15.9,50" fill="#9D5025"/>
	<polygon points="39.8,75.8 50,79.5 50,91.2 39.8,86.1" fill="#9D5025"/>
	<polygon points="39.8,13.9 50,8.8 50,41.8 39.8,42.8" fill="#9D5025"/>
	<polygon points="15.9,45.2 22.7,44.5 22.7,28 15.9,30.7" fill="#9D5025"/>
	<polygon points="84.1,50 50,50 50,70.9 84.1,62.2" fill="#F58536"/>
	<polygon points="60.2,13.9 50,8.8 50,41.8 60.2,42.8" fill="#F58536"/>
	<polygon points="84.1,35.5 77.3,33.5 77.3,44.5 84.1,45.2" fill="#F58536"/>
	<polygon points="60.2,75.8 50,79.5 50,91.2 60.2,86.1" fill="#F58536"/>
	<polygon points="60.2,75.8 50,73 39.8,75.8 50,79.5" fill="#FBBF93"/>
	<polygon points="39.8,42.8 50,41.8 60.2,42.8 50,43.6" fill="#6B3A19"/>
	<polygon points="15.9,45.2 22.6,44.5 32.1,45 24.8,45.5" fill="#6B3A19"/>
</g>
</svg>
