<svg id="sources/ELASTIC" viewBox="0 0 40 40" fill="none" xmlns="http://www.w3.org/2000/svg">
<g clip-path="url(#clip0_1031_41569)">
<path d="M36.6614 20.8324C36.6614 18.0302 34.9201 15.6088 32.3355 14.6566C32.4449 14.0643 32.4996 13.4632 32.4986 12.8609C32.4986 7.66444 28.2817 3.44751 23.0852 3.44751C20.0653 3.44751 17.2359 4.88944 15.4674 7.36522C14.5968 6.68501 13.5357 6.33136 12.4202 6.33136C9.67232 6.33136 7.41424 8.56222 7.41424 11.3374C7.41424 11.9359 7.5231 12.5345 7.71346 13.0786C5.10174 13.9764 3.33325 16.4794 3.33325 19.2544C3.33325 22.0568 5.07453 24.5053 7.68625 25.4575C7.57752 26.0289 7.5231 26.6275 7.5231 27.2531C7.5231 32.4224 11.74 36.6394 16.9093 36.6394C19.9564 36.6394 22.7588 35.1703 24.5271 32.7217C25.3977 33.4018 26.486 33.7828 27.6015 33.7828C30.3494 33.7828 32.6075 31.5518 32.6075 28.7768C32.6075 28.1782 32.4986 27.5797 32.3083 27.0355C34.8655 26.1105 36.6612 23.6075 36.6612 20.8324H36.6614Z" fill="white"/>
<path d="M16.3653 17.7035L23.7927 21.1044L31.3017 14.5204C31.4112 13.974 31.4658 13.418 31.4649 12.8608C31.4649 8.23576 27.7104 4.4812 23.0853 4.4812C20.3102 4.4812 17.7257 5.84149 16.1749 8.12677L14.9233 14.602L16.3653 17.7036V17.7035Z" fill="#F4BD19"/>
<path d="M8.66559 25.5663C8.55687 26.1104 8.50244 26.6818 8.50244 27.2531C8.50244 31.8781 12.2841 35.6599 16.9092 35.6599C19.7116 35.6599 22.2962 34.2724 23.8741 31.987L25.0984 25.5118L23.4388 22.3559L15.9842 18.9551L8.66559 25.5663V25.5663Z" fill="#3CBEB1"/>
<path d="M8.61138 12.6976L13.699 13.8947L14.8416 8.0996C14.1343 7.55545 13.2908 7.28345 12.3931 7.28345C10.1893 7.28345 8.36646 9.07903 8.36646 11.31C8.36646 11.7725 8.4481 12.2623 8.61125 12.6976H8.61138Z" fill="#E9478C"/>
<path d="M8.17603 13.9219C5.89074 14.6565 4.31274 16.8603 4.31274 19.2544C4.31274 21.5943 5.75467 23.6892 7.93123 24.5053L15.0866 18.0301L13.7806 15.228L8.17603 13.922V13.9219Z" fill="#2C458F"/>
<path d="M25.1802 31.9599C25.8875 32.5042 26.731 32.8034 27.6016 32.8034C29.8053 32.8034 31.6281 31.0078 31.6281 28.7768C31.6281 28.2871 31.5465 27.8244 31.3834 27.3892L26.2957 26.1921L25.1802 31.9599V31.9599Z" fill="#95C63D"/>
<path d="M26.2139 24.8589L31.8184 26.1649C34.1037 25.4032 35.6817 23.2266 35.6817 20.8323C35.6817 18.4925 34.2398 16.4249 32.0632 15.5815L24.7175 22.0022L26.2139 24.859V24.8589Z" fill="#176655"/>
</g>
<defs>
<clipPath id="clip0_1031_41569">
<rect width="33.3333" height="33.3333" fill="white" transform="translate(3.33325 3.33325)"/>
</clipPath>
</defs>
</svg>
