<svg id="sources/GCS" viewBox="0 0 40 40" fill="none" xmlns="http://www.w3.org/2000/svg">
<path d="M10.5704 33.1728L3.73444 21.3322C3.47162 20.877 3.33325 20.3606 3.33325 19.835C3.33325 19.3093 3.47162 18.7929 3.73444 18.3377L10.5704 6.49739C10.8332 6.0421 11.2113 5.66403 11.6666 5.40118C12.1219 5.13833 12.6384 4.99997 13.1641 5H26.8359C27.3616 5.00001 27.878 5.1384 28.3333 5.40124C28.7885 5.66409 29.1666 6.04214 29.4294 6.49739L36.2653 18.3377C36.5282 18.793 36.6666 19.3094 36.6666 19.8351C36.6666 20.3608 36.5282 20.8772 36.2653 21.3325L29.4294 33.1726C29.1666 33.6278 28.7885 34.0059 28.3333 34.2687C27.878 34.5315 27.3616 34.6699 26.8359 34.6699H13.1641C12.6384 34.67 12.1219 34.5317 11.6666 34.2688C11.2113 34.006 10.8332 33.6279 10.5704 33.1726V33.1728Z" fill="url(#paint0_linear_1031_53161)"/>
<path opacity="0.07" d="M16.1751 17.1989L14.3496 19.0192L15.9009 20.5708L14.365 23.2989L25.9886 34.9228L28.8053 34.9233L34.306 25.0439L25.5959 16.333L16.1751 17.1989Z" fill="black"/>
<path d="M25.3906 16.2593H14.6C14.4264 16.2593 14.2844 16.4015 14.2844 16.5754V18.8062C14.2844 18.9796 14.4266 19.1218 14.6 19.1218H25.3906C25.5643 19.1218 25.7065 18.9796 25.7065 18.8062V16.5749C25.7065 16.4015 25.5646 16.259 25.3909 16.259L25.3906 16.2593ZM23.7201 18.3361C23.549 18.3356 23.3851 18.2674 23.2642 18.1464C23.1433 18.0253 23.0753 17.8613 23.075 17.6903C23.0749 17.6055 23.0916 17.5216 23.124 17.4433C23.1564 17.3651 23.2039 17.2939 23.2638 17.234C23.3237 17.1741 23.3948 17.1266 23.4731 17.0942C23.5514 17.0618 23.6353 17.0452 23.7201 17.0452C24.0768 17.0452 24.3659 17.3325 24.3659 17.6903C24.3659 17.7751 24.3492 17.8591 24.3167 17.9374C24.2843 18.0158 24.2367 18.087 24.1767 18.1469C24.1168 18.2069 24.0456 18.2545 23.9672 18.2869C23.8889 18.3194 23.8049 18.3361 23.7201 18.3361V18.3361ZM25.3906 20.5473L14.6 20.5478C14.4264 20.5478 14.2844 20.69 14.2844 20.864V23.0944C14.2844 23.2679 14.4266 23.4103 14.6 23.4103H25.3906C25.5643 23.4103 25.7065 23.2679 25.7065 23.0944V20.8634C25.7065 20.69 25.5646 20.5473 25.3909 20.5473H25.3906ZM23.7201 22.6244C23.549 22.624 23.385 22.5558 23.2641 22.4347C23.1432 22.3137 23.0752 22.1496 23.075 21.9785C23.0749 21.8938 23.0916 21.8099 23.124 21.7316C23.1564 21.6533 23.2039 21.5822 23.2638 21.5223C23.3237 21.4624 23.3948 21.4148 23.4731 21.3825C23.5514 21.3501 23.6353 21.3334 23.7201 21.3335C23.807 21.33 23.8937 21.3441 23.9751 21.375C24.0564 21.4058 24.1307 21.4528 24.1934 21.5131C24.2561 21.5733 24.3061 21.6456 24.3402 21.7257C24.3743 21.8057 24.3918 21.8918 24.3918 21.9788C24.3918 22.0658 24.3743 22.1519 24.3402 22.2319C24.3061 22.312 24.2561 22.3843 24.1934 22.4446C24.1307 22.5048 24.0564 22.5518 23.9751 22.5826C23.8937 22.6135 23.807 22.6276 23.7201 22.6241" fill="white"/>
<defs>
<linearGradient id="paint0_linear_1031_53161" x1="20" y1="5.00026" x2="20" y2="34.6239" gradientUnits="userSpaceOnUse">
<stop stop-color="#4387FD"/>
<stop offset="1" stop-color="#4683EA"/>
</linearGradient>
</defs>
</svg>
