<svg id="sources/HDFS" viewBox="0 0 40 40" fill="none" xmlns="http://www.w3.org/2000/svg">
<g clip-path="url(#clip0_1031_53173)">
<path d="M15.6927 13.8263L13.4848 14.1849L11.4705 15.0681L9.75965 16.1443L8.13153 18.131L7.21187 19.1052L6.32228 19.4331L6.08713 18.8581L6.49845 18.2644L6.5909 17.4272L6.86629 17.4384L7.16733 17.713L7.08608 16.8601L6.75236 16.6362L6.76278 16.3112L5.97228 16.7583L5.25653 17.6028L5.10718 18.3575L5.41343 18.962L5.69884 19.9887L6.27944 20.2635L6.89012 20.2336L7.46929 19.8971L7.08296 21.8564L7.46929 24.0363L7.04403 25.0428L5.65106 26.5437L5.89871 27.4403L6.55861 28.4793L7.80275 29.3547L8.46265 29.4452L9.19637 29.4699L8.73856 31.3492L10.4219 32.0389L12.519 32.315L13.2365 31.8459L13.2917 30.5764L14.0921 29.2518L14.1473 28.2032L16.0789 28.3413L17.8725 28.1758L16.0789 29.2518L16.3826 30.5489L17.5138 32.315L18.6176 32.784L19.5007 32.4252L19.8593 31.7078L21.7082 30.3005L22.0669 30.6039L24.9645 30.7144L25.5439 30.2454L25.599 29.4173L25.406 29.0588L25.2679 26.8236L24.3021 24.8919L24.4677 24.0364L25.0472 24.3401L26.6753 25.8577L27.4755 25.913L28.3585 25.5541L29.2417 24.8919L29.6831 23.457L32.2771 23.6225L33.85 23.0156L35.1193 21.8289L36.03 20.118L36.2505 18.1036L36.0574 15.7579L35.5608 13.6609L35.0641 12.9987L34.3744 12.7778L33.16 14.1023L32.0563 14.4887L31.0904 12.8881L30.1246 12.0052L29.6003 11.6741L27.503 9.93553L25.8198 9.02485L24.1365 8.88696L22.1774 9.21808L20.4664 9.85259L19.2798 10.8185L18.3417 11.95L17.3759 12.226L15.6925 13.8264" fill="#FFFF00"/>
<path d="M9.28988 18.8066C7.39899 21.0121 7.81904 23.6869 8.34313 26.3078C8.06351 25.6012 7.78382 24.8946 7.50407 24.188L7.19482 22.2444C7.22425 21.5819 7.25355 20.9194 7.28324 20.2571L8.07803 18.358L9.27048 16.5913L11.1254 15.0458L13.1569 14.2066L15.542 13.8975L13.3336 16.4148C11.5604 16.9898 10.515 17.3773 9.28975 18.8066" fill="#FFFFCC"/>
<path d="M18.1919 12.0864C16.8774 13.369 16.1593 14.3364 15.3226 15.8381C14.7243 16.9123 14.0531 17.9471 13.4238 19.0064C13.1057 19.5426 13.0756 19.992 12.9804 20.6104L12.053 19.5062C12.2004 19.0646 12.3475 18.6229 12.4946 18.1814L13.9963 15.4873L17.1762 12.3515C17.5148 12.2631 17.8533 12.175 18.1919 12.0864V12.0864ZM24.6841 8.90674C23.6311 9.3014 21.8827 9.43148 21.7614 10.6398C21.675 11.4981 21.8261 11.9294 22.3434 12.8375C21.0657 11.5152 20.7497 11.7198 18.2803 12.1307L19.3402 10.6291L21.1951 9.4807L23.5801 8.95075L24.6843 8.90674" fill="#FFFFCC"/>
<path d="M27.5895 25.2531C27.94 25.4695 27.9324 25.6263 27.8738 25.7746C28.1503 25.6639 28.4268 25.5532 28.7033 25.4429L29.2408 24.7212L29.6396 23.6931L29.1298 23.3099L26.902 23.5942C26.847 23.7442 26.7916 23.8944 26.7362 24.0446C26.752 24.2578 26.768 24.4712 26.7836 24.6843C26.8547 24.8109 26.9259 24.9372 26.9972 25.0636C27.1077 25.1188 27.2181 25.1743 27.3288 25.2295C27.4159 25.2373 27.5026 25.2454 27.5895 25.2531V25.2531ZM27.3822 21.4433C26.2654 21.7656 26.2741 21.8544 25.9444 22.9623C26.3797 22.2639 26.702 21.9114 27.3822 21.4433ZM34.8072 13.1528C34.6087 13.2446 34.4153 13.2886 34.2913 13.4703C34.0241 13.8612 33.7952 14.1899 33.3534 14.4643C33.1309 14.6026 32.9008 14.6922 32.6649 14.7657C32.4692 14.8265 32.3514 14.7721 32.1849 14.892C32.2839 14.909 32.3827 14.9264 32.4815 14.9437H33.1352L33.941 14.4462L34.415 13.9484L34.8072 13.1528V13.1528ZM17.0192 15.631C16.58 16.8332 16.196 17.8636 15.5306 18.9519C16.3832 18.0332 16.9003 17.2522 17.3887 16.2135C17.5785 15.8099 17.6143 15.3364 18.1429 15.5125C18.1666 15.9156 18.2517 16.3182 18.2754 16.7211C18.561 14.6744 19.3662 13.8183 21.2379 13.0239L19.65 13.2136L18.1568 13.5454L17.4222 14.6118L17.0192 15.631V15.631ZM20.6453 15.5836C21.049 17.4833 21.6302 19.3067 21.8827 21.2367C22.0466 22.4907 22.0645 23.0932 21.4336 24.1752C20.744 24.1306 20.3159 24.2083 19.6488 24.4269C16.9935 25.2974 15.4705 26.5773 13.6814 23.9984L15.3949 24.806C15.8021 24.7259 16.2093 24.6461 16.6163 24.5657C17.3353 24.1472 18.0542 23.7285 18.7732 23.3099L20.4557 22.9778L21.0009 20.703L20.5979 17.6929C20.5823 17.219 20.5664 16.745 20.5505 16.2711C20.5823 16.0419 20.6139 15.8127 20.6453 15.5837V15.5836ZM25.2194 27.3388C24.9964 28.8823 25.7331 29.7119 25.428 30.1382C25.3417 30.2588 25.2246 30.4695 25.094 30.5273C24.6272 30.7334 23.9854 30.4886 23.9397 30.6093H22.3992L21.7831 30.3487L22.731 29.2347C23.0391 28.5634 23.3473 27.8918 23.6552 27.2201L24.2477 25.1821H24.5559L25.2194 27.3388" fill="#CCCC00"/>
<path d="M22.6302 22.8517C22.7553 23.5525 22.9726 23.7191 23.3023 24.3974C23.0829 25.5042 22.7304 26.8202 22.3062 27.7968C22.1273 28.2086 21.983 28.4357 21.6674 28.754C21.1349 29.2917 20.5967 29.7599 19.9929 30.2261C19.558 30.5611 19.2547 30.3931 18.7183 30.3172C18.4902 30.7306 18.4273 30.9605 18.0074 31.1704C17.3618 31.493 16.7841 30.7976 16.2773 30.3882C16.6432 30.9598 17.0091 31.531 17.3747 32.1025C17.6276 32.3395 17.8804 32.5764 18.1332 32.8135L18.7731 32.9084L19.6261 32.3868C19.7764 32.1025 19.9264 31.818 20.0765 31.5338C20.3925 31.2968 20.7087 31.0598 21.0244 30.8226C21.4117 30.4909 21.7988 30.159 22.1859 29.8273L22.9205 28.7844L23.5839 27.5521C23.8686 26.699 24.1529 25.8458 24.4374 24.9926C24.461 24.6687 24.4846 24.3448 24.5084 24.0208C24.1529 23.8629 23.7975 23.7047 23.4419 23.5468C23.1812 23.302 22.8908 23.0967 22.6302 22.8517V22.8517ZM14.1278 27.7891C15.3239 27.7891 16.5872 27.7227 17.6829 27.2202C17.9928 26.7554 18.2989 26.3754 18.6782 25.9644C18.333 26.6165 18.2247 26.9849 18.1332 27.718L17.7777 28.2395C16.8771 28.2631 15.9765 28.2868 15.0759 28.3106C14.7834 28.2788 14.4913 28.2473 14.1989 28.2158C14.1673 28.1839 14.1358 28.1524 14.1041 28.1209C14.1122 28.0102 14.12 27.8997 14.1278 27.7891V27.7891ZM13.9621 26.9597L13.8691 26.118C13.6648 27.3482 13.7139 28.1727 13.1478 29.2747C12.7249 29.7645 12.2042 30.2103 11.6078 30.449C11.6582 30.7511 11.6733 30.9399 11.644 31.1614C11.5389 31.9583 9.94518 31.6062 9.28945 31.5744L12.4452 32.3869L13.1561 32.1025C13.2353 31.6445 13.3143 31.186 13.3932 30.7279L14.0568 29.4956L14.1752 28.7372L13.962 26.9598L13.9621 26.9597ZM12.1844 20.0155C12.1514 20.6139 12.1127 20.8632 12.3766 21.3913C12.7118 22.0627 13.1236 22.6937 13.4879 23.3572L13.6064 22.03C13.1325 21.3584 12.6585 20.687 12.1845 20.0157L12.1844 20.0155ZM7.31941 24.5339C7.21667 24.7521 7.11433 24.9706 7.01159 25.189C7.29388 26.1402 7.54506 26.7426 8.08268 27.5735C7.98893 27.9101 7.91888 28.0573 7.70352 28.3317C7.23034 28.259 6.81016 28.2379 6.33061 28.2395C6.8599 28.6501 7.3892 29.0611 7.91849 29.4719C8.17917 29.4243 8.43997 29.3769 8.70065 29.3296L9.48281 28.5476L8.36888 26.8174C8.01888 26.0563 7.66914 25.295 7.31941 24.5339V24.5339ZM34.8105 12.8383C35.1329 14.2885 35.5487 15.6269 35.5101 17.1123C35.4627 18.9346 35.1076 21.2365 33.4191 22.3353C31.5282 23.5661 29.3084 22.9839 27.2338 22.4566L29.7697 23.4994C30.5597 23.539 31.3498 23.5786 32.1398 23.6179C32.677 23.4599 33.2142 23.302 33.7512 23.1439C34.17 22.7963 34.5887 22.4489 35.0075 22.1011L35.9554 20.1105L36.3108 17.8115C36.2162 17.0609 36.1211 16.3105 36.0265 15.5599L35.5051 13.3322C35.2736 13.1675 35.0421 13.0028 34.8105 12.8383V12.8383ZM6.59206 17.1607C5.73373 17.7195 5.3965 17.9648 5.49064 19.0003L5.74714 19.9306L6.11082 20.1767L6.56003 20.3265L7.37279 20.1339C7.51198 19.7025 7.65092 19.2713 7.78985 18.8399L6.6349 19.4068H6.36759C6.26781 19.2535 6.16798 19.1002 6.06811 18.9469L6.43178 18.4122L6.62423 17.3961C6.70626 17.421 6.78829 17.4461 6.87019 17.4709C6.97006 17.5495 7.0698 17.6279 7.16967 17.7062L7.12683 17.1715L6.9237 16.8293C6.856 16.7721 6.78829 16.7153 6.72058 16.6581L6.59206 17.1607V17.1607ZM25.8511 9.00122C26.6131 9.70877 27.5481 10.3236 28.1575 11.1882C28.3933 11.5228 28.6553 11.6941 28.1536 12.1668C28.6837 12.0154 28.8808 12.0318 29.3053 12.0833C30.0774 12.1767 30.8011 13.2744 30.8472 14.0609C30.8381 14.1344 30.6327 14.3015 30.0357 14.4663C30.024 14.4892 29.6988 14.4218 29.7068 14.4439C29.7689 14.6136 29.8518 14.6396 29.9784 14.7189C30.0058 14.9077 30.0235 15.199 30.1521 15.4055C30.5278 15.3987 30.895 15.4398 31.2628 15.5125C31.3865 15.7179 31.368 15.9232 31.3576 16.1287L31.7842 16.0577C31.7448 15.7338 31.7053 15.4099 31.6658 15.086C31.7921 14.8727 31.9184 14.6593 32.045 14.4463L31.4998 13.2137C31.1523 12.8819 30.8047 12.55 30.457 12.2183L30.3567 12.2133C29.9658 11.9734 29.5748 11.7335 29.1839 11.4935L27.2712 9.92869L25.8511 9.00122V9.00122ZM27.1346 14.8407C27.0943 14.911 27.0337 15.0232 26.9559 15.1011C27.2732 15.4012 27.4299 15.6023 27.543 16.0269C27.1842 16.2049 26.8256 16.3831 26.4669 16.561L25.5562 17.434C25.1566 17.2189 25.0571 17.0538 24.8637 16.6437C24.6385 16.7034 24.4253 16.7609 24.2394 16.6925C24.3574 16.6934 24.4298 16.664 24.5477 16.5911L25.1272 15.9891C25.4683 15.7308 25.8095 15.4722 26.1506 15.214L26.8205 14.9956C26.9058 14.9606 27.0493 14.8758 27.1346 14.8407" fill="#CCCC00"/>
<path d="M28.1248 15.9113C26.9834 16.5259 25.8905 17.1439 25.3069 18.3109C25.3069 16.8295 26.7942 16.1774 28.1247 15.9112L28.1248 15.9113ZM25.0803 12.9971C24.2328 13.5749 23.6336 14.7411 23.7089 15.8776C23.4329 14.8934 23.5306 13.9636 24.3781 13.2839C24.5214 13.2145 24.6642 13.1449 24.8073 13.0755C24.8983 13.0494 24.9892 13.0234 25.0803 12.9971" fill="#CCCC00"/>
<path d="M36.485 15.68C36.3314 14.7109 36.0766 13.7701 35.7229 13.0937C35.68 13.011 35.6146 12.9272 35.5336 12.8472C35.3579 12.674 35.0979 12.51 34.8293 12.4177C34.5447 12.3197 34.2445 12.2998 34.0062 12.4243C33.9444 12.4569 33.8868 12.4985 33.8357 12.5506C33.6814 12.7069 33.5512 12.897 33.4208 13.0872C33.2759 13.2992 33.1301 13.5122 32.9556 13.661C32.7534 13.8339 32.5004 13.9389 32.2617 14.0347C32.1612 13.791 32.0405 13.5562 31.9006 13.3328C31.7375 13.0726 31.5517 12.829 31.3472 12.5854C31.1977 12.4059 31.0282 12.2442 30.8419 12.1032C30.6656 11.9687 30.4851 11.8554 30.275 11.7239C29.7116 11.371 29.2317 10.9502 28.7424 10.5208C28.52 10.3257 28.2954 10.1289 28.0757 9.94774C26.9104 8.9868 25.8234 8.52079 24.6609 8.44774C23.5063 8.37508 22.2872 8.69227 20.8477 9.29826C20.1529 9.59058 19.637 9.93615 19.1875 10.3516C18.7582 10.7488 18.3938 11.2061 17.9931 11.7401C17.7601 11.7566 17.5536 11.7911 17.3427 11.8755C17.1105 11.9684 16.8766 12.119 16.5964 12.3662C16.4014 12.5383 16.2103 12.7149 16.0235 12.8958C15.8523 13.0619 15.6841 13.231 15.519 13.4032C14.2086 13.6138 13.1409 13.8462 12.1846 14.2165C11.2068 14.5954 10.3448 15.1165 9.4595 15.9014C9.11092 16.2093 8.79314 16.5505 8.51067 16.92C8.2414 17.2727 8.01093 17.6436 7.80871 18.0346C7.63163 18.2306 7.45415 18.4283 7.26209 18.6014C7.07485 18.77 6.87524 18.9121 6.65154 18.9981L6.65167 18.9983C6.5216 19.0484 6.46782 19.0777 6.46196 19.0757C6.45545 19.0721 6.4518 19.0526 6.44269 19.0166C6.76391 18.7101 6.81444 18.2597 6.84412 17.8126C6.88266 17.8587 6.91964 17.9155 6.95806 17.9748C7.0005 18.0403 7.04399 18.1079 7.09608 18.1737L7.31418 18.4488L7.39074 18.1056C7.45506 17.8179 7.50324 17.435 7.42824 17.103C7.3798 16.8875 7.2798 16.6954 7.10558 16.5593C7.12225 16.5158 7.138 16.4757 7.1535 16.4362C7.20819 16.2962 7.26457 16.1526 7.31235 16.0169L7.40689 15.748L7.12563 15.7967C6.75141 15.8618 5.94724 16.3037 5.38083 16.8914C5.17055 17.1097 4.98969 17.351 4.87107 17.6041C4.74763 17.8675 4.69229 18.1432 4.74021 18.419C4.78187 18.6601 4.90258 18.8968 5.12172 19.12C5.16169 19.2811 5.19854 19.4208 5.23799 19.5468C5.28318 19.6902 5.33175 19.8184 5.39255 19.9448C5.5574 20.2875 5.82016 20.4968 6.12433 20.5945C6.36873 20.673 6.63904 20.6769 6.90415 20.6188C6.85032 20.9347 6.81787 21.2537 6.80701 21.5739C6.79022 22.0212 6.80662 22.5153 6.85584 23.0888C6.86665 23.2147 6.88293 23.3531 6.90389 23.5036C6.92212 23.632 6.94373 23.758 6.96704 23.8832C6.91756 24.0183 6.86769 24.1537 6.81795 24.2889L6.58657 24.9187L6.07745 25.4233C5.91899 25.5799 5.76052 25.7369 5.60219 25.8938C5.58917 25.9069 5.53565 25.9582 5.48721 26.0049C5.16625 26.3138 5.10271 26.3751 5.19385 26.9186C5.25224 27.2664 5.36578 27.6027 5.53018 27.9147C5.68774 28.2148 5.8992 28.507 6.17055 28.7791C6.5091 29.1185 7.06405 29.5401 7.64504 29.7609C7.97707 29.8869 8.31926 29.9487 8.64049 29.8971C8.62408 29.9466 8.6082 29.9958 8.5901 30.0455C8.53926 30.1865 8.48279 30.3255 8.42082 30.4619C8.02668 31.3259 8.43124 31.777 9.06093 32.0642C9.37539 32.2074 9.74922 32.3048 10.0965 32.3954C10.1676 32.4136 10.2387 32.4324 10.3283 32.4566C10.7397 32.5678 11.4508 32.7721 12.1003 32.8131C12.8091 32.8579 13.4485 32.7116 13.6198 32.0754C13.6875 31.8231 13.727 31.63 13.743 31.4409C13.7577 31.2653 13.7521 31.088 13.7315 30.8685C13.9336 30.4205 14.0193 30.2946 14.1671 30.0786C14.196 30.0359 14.231 29.9849 14.2416 29.9687C14.4 29.7339 14.4742 29.5673 14.5012 29.3797C14.5272 29.1985 14.5051 29.0181 14.4724 28.7423C14.4693 28.7161 14.4646 28.6778 14.4577 28.6272C14.8659 28.6802 15.2769 28.7083 15.6884 28.7116C15.895 28.7129 16.1013 28.7067 16.3077 28.6959C16.255 28.7229 16.2033 28.7497 16.1468 28.7787L16.07 28.8182C15.5226 29.0997 15.4998 29.6329 15.6711 30.1815C15.8256 30.6761 16.1435 31.1812 16.343 31.4884C16.7623 32.1346 17.1624 32.6816 17.6476 32.9789C18.156 33.2905 18.737 33.3272 19.4869 32.9213C19.8684 32.7148 19.9887 32.5043 20.1507 32.2204C20.2003 32.1338 20.255 32.0394 20.3159 31.9463C20.4735 31.8419 20.8658 31.5183 21.2508 31.2C21.382 31.0916 21.513 30.9838 21.6607 30.8634C21.7626 30.9382 21.8855 30.9902 22.034 31.0256C22.227 31.0718 22.4568 31.0927 22.7322 31.1125C22.9383 31.1276 23.6105 31.127 24.0447 31.1269C24.1788 31.1269 24.2902 31.1269 24.357 31.1273C24.8053 31.13 25.1671 31.1065 25.4406 30.9515C25.732 30.7863 25.9048 30.4937 25.9425 29.969C25.9589 29.7359 25.9621 29.5922 25.9296 29.4454C25.8994 29.3079 25.8404 29.1833 25.7391 29.001C25.733 28.7742 25.7269 28.5474 25.7209 28.3207C25.7147 28.0802 25.7079 27.8394 25.7016 27.5989C25.694 27.3153 25.6627 27.0849 25.6052 26.8582C25.5481 26.633 25.4666 26.4165 25.3575 26.1566C25.2896 25.9929 25.2255 25.8276 25.1651 25.661L25.0078 25.7186L25.032 25.7097L25.1651 25.661V25.6604C25.0713 25.4075 24.9789 25.1613 24.8494 24.8979C24.8578 24.8471 24.8662 24.7924 24.8744 24.7341L25.1244 24.975L25.4929 25.33C25.7739 25.6007 26.0308 25.847 26.3326 26.0248C26.6447 26.2091 26.9957 26.316 27.4501 26.2944C27.9259 26.272 28.435 26.0716 28.8541 25.7623C29.2596 25.463 29.585 25.0593 29.7208 24.6126L29.8385 24.2251L29.9325 23.9158C30.5997 24.0289 31.3159 24.0653 32.0075 23.9929C32.675 23.9227 33.3198 23.7528 33.8759 23.4562C34.6934 23.02 35.3063 22.3776 35.7468 21.6147H35.747C36.2392 20.7621 36.5149 19.7574 36.6195 18.7235C36.7035 17.8944 36.6577 16.7671 36.485 15.68V15.68ZM27.8408 22.6485C27.4563 22.5191 27.189 22.3303 26.8513 22.1174C26.9432 22.5319 26.985 22.9701 26.8626 23.3838C26.6683 24.0403 26.3545 25.1143 27.2458 25.3125C27.585 25.3877 27.7389 25.3769 28.2177 25.1298C27.8302 25.2175 27.6347 25.1962 27.3683 25.1467C27.1269 25.1023 26.9989 24.9491 26.9315 24.7682C27.0158 24.829 27.1533 24.8621 27.3885 24.9187C28.0492 25.0781 28.6787 24.7599 28.8019 24.3018C28.8735 24.0341 28.8614 23.8935 29.0136 23.5286C29.1504 23.5709 29.2916 23.6093 29.4367 23.6445L29.1911 24.4451C28.9789 25.1379 28.1514 25.6964 27.4209 25.6836C26.7457 25.6717 26.3174 25.2487 25.8511 24.8339C25.53 24.548 25.2209 24.2747 24.9147 24.0039C24.0742 23.7386 23.4005 23.4287 22.6204 22.8513C23.1756 23.5036 23.552 23.8648 24.3262 24.1894C24.2137 25.3379 23.8145 26.1754 23.4743 27.2744C23.3201 27.7713 22.1044 29.7629 21.7674 29.957C21.5271 30.0954 20.0222 31.3629 19.7392 31.5302C19.5283 31.8101 19.3433 32.1971 19.0262 32.3645C18.0603 32.8754 17.4396 31.8974 16.9198 31.0715C16.6832 30.6951 16.0259 29.6113 16.5989 29.3076C17.1405 29.0208 17.4439 28.8158 17.9967 28.4528C18.0779 28.6009 18.2171 28.7438 18.3079 28.8916L18.2477 28.4065C18.2112 28.1135 18.2128 27.8756 18.236 27.5808C18.2586 27.2954 18.281 27.01 18.3034 26.7244C18.2202 27.0147 18.0541 27.3048 17.9711 27.5948C17.9379 27.7109 17.9105 27.8047 17.8946 27.8916C16.6545 28.145 15.4233 28.1608 14.183 27.9395C14.1038 27.4803 14.0074 27.0018 13.9266 26.6587C13.9021 27.0428 13.9179 28.105 13.9159 28.6998C13.9143 29.1605 13.8951 29.3183 13.6573 29.7103C13.4349 30.0772 13.3408 30.1605 13.0292 30.7806C13.0552 31.1718 13.0556 31.4303 12.9517 31.8017C12.7789 32.419 11.035 31.9407 10.5751 31.8147C10.0086 31.6597 8.83749 31.4293 9.13203 30.6741C9.39114 30.0095 9.55547 29.3087 9.68216 28.3787C8.64426 26.8836 7.67915 24.8347 7.49387 23.0194C7.34999 21.6099 7.43631 20.7423 7.74126 19.88C8.2246 18.5139 8.9009 17.3313 9.98581 16.3791C11.4494 15.0949 12.8173 14.5793 14.9595 14.2531C14.4444 14.8299 13.9348 15.4395 13.3793 16.0933C12.8169 16.7552 12.483 17.4237 12.1258 18.1477C11.6326 19.1476 11.6432 19.5281 12.297 20.4059C12.8604 21.1625 13.1646 21.503 13.4107 22.2432C13.2076 22.6619 13.1336 23.016 13.0654 23.5877C13.7552 24.342 14.268 24.8587 14.9378 25.0178C15.595 25.1741 16.1435 25.1438 16.7315 24.8433C18.0372 24.1759 19.2452 23.3139 20.718 23.2782C21.3994 21.6032 21.3305 20.2035 21.0034 18.5828C20.78 17.4759 20.6903 16.4278 20.6209 15.2994C20.3447 16.4615 20.2928 17.4834 20.4977 18.6411C20.7448 20.036 20.9369 21.5773 20.2497 22.8033C18.9178 22.9053 17.7765 23.7156 16.5762 24.3372C16.0937 24.5872 15.5913 24.6115 15.0573 24.4649C14.5616 24.3287 14.2271 24.0007 13.6931 23.3849C13.6847 22.7665 13.8242 22.4812 14.1082 21.9211C14.5645 21.0217 15.068 20.1846 15.6206 19.2998C14.944 20.1165 14.3029 20.7989 13.7703 21.6201C13.5667 21.0402 13.2755 20.7457 12.7934 20.0925C12.3224 19.4546 12.2732 19.1755 12.6254 18.4372C12.9794 17.6954 13.2797 17.0434 13.8824 16.3927C14.9237 15.2681 15.8778 14.0165 17.0166 12.9089C17.6349 12.3076 17.886 12.3283 18.7062 12.2041C19.4476 12.0916 20.1713 11.9498 20.9273 11.7743C20.1961 11.8424 19.4894 11.8674 18.7775 11.885L18.7554 11.8856C19.4559 10.9912 19.8623 10.4928 20.9997 9.99852C23.8002 8.78237 25.5796 8.65086 27.7795 10.5C28.3497 10.9794 28.8476 11.4446 29.4256 11.858C29.216 11.876 29.0354 11.9136 28.7965 12.0074C29.0872 11.9519 29.423 12.0069 29.7248 12.0621C29.8095 12.117 29.8967 12.1707 29.9857 12.2231C30.3939 12.4636 30.6255 12.5964 30.9015 12.9809C31.1932 13.3873 31.4364 13.7934 31.6506 14.2411C31.5103 14.1908 31.3924 14.1485 31.2875 14.1174C31.1704 14.0637 31.042 14.0398 30.9135 14.0478C30.785 14.0557 30.6604 14.0953 30.5509 14.163L30.534 14.1708C30.3082 14.2808 29.9584 14.4061 29.7245 14.4441C29.8439 14.4852 30.1079 14.5007 30.2324 14.4514C30.2491 14.4449 30.266 14.4397 30.2834 14.4356C30.2257 14.5339 30.1901 14.6436 30.1793 14.757C30.1647 14.9068 30.1937 15.0575 30.2627 15.1912L30.2634 15.1927C30.2845 15.2424 30.3139 15.2881 30.3462 15.3212C30.2393 15.3606 30.1301 15.4057 30.0174 15.4545C30.5394 15.3751 31.01 15.3614 31.5193 15.4285C31.5528 15.589 31.5867 15.7592 31.6182 15.9322L31.4289 15.9471C31.4238 15.9475 31.4187 15.9479 31.4137 15.9484C31.1726 15.7558 30.9041 15.7882 30.5373 15.872C29.4217 16.1263 29.6838 16.7522 29.1708 17.6954C29.7036 17.0441 29.664 16.3626 30.5324 16.1569C30.7347 16.1091 30.8725 16.049 31.0095 16.0696C30.763 16.1936 30.5498 16.3992 30.4652 16.6378C30.2269 17.3109 30.3748 17.878 30.113 18.5066C30.4372 17.9446 30.4569 17.3962 30.747 16.8048C30.8512 16.5925 31.2376 16.2527 31.4749 16.2475L31.6702 16.2432C31.7275 16.6171 31.7622 16.9886 31.7401 17.2967C31.6996 17.8589 31.5535 18.6934 31.4661 19.0128C31.7599 18.6351 31.8937 17.8352 32.0228 17.272C32.1571 16.6858 32.1232 15.9822 32.0056 15.3523C31.8441 14.4881 32.7342 14.6287 33.2509 14.2214C33.6307 13.922 33.8923 13.444 34.2405 13.1052C34.5859 12.7692 35.1298 13.2628 35.2656 13.5911C35.8547 15.0165 36.1231 17.2588 35.9676 18.6957C35.7928 20.3079 35.0142 22.0679 33.5922 22.8617C31.7794 23.8734 29.642 23.2553 27.8408 22.6485V22.6485ZM25.2651 29.8092C25.2059 30.4744 24.9842 30.5183 24.4001 30.5082C24.1347 30.5035 23.0779 30.4987 22.8097 30.4756C22.4308 30.4429 22.218 30.4091 22.1023 30.3226C22.6976 29.8856 23.7091 28.0815 23.9063 27.4602C24.1149 26.804 24.3432 26.2313 24.513 25.6248C24.5911 25.8783 24.6527 26.1295 24.7664 26.3988C24.9561 26.8488 25.0489 27.1268 25.0624 27.6095L25.1054 29.1372C25.2686 29.4226 25.294 29.4836 25.2651 29.8091V29.8092ZM7.3492 24.7699C7.7272 26.0776 8.37121 27.3626 9.08515 28.4429V28.4618C9.04023 28.6476 8.98854 28.8283 8.88007 28.9735C8.36965 29.6563 7.07173 28.6541 6.69595 28.2708C6.28527 27.8513 6.01039 27.3548 5.9449 26.8889C5.89724 26.5493 5.9436 26.541 6.18058 26.3006L7.13918 25.3302L7.3492 24.7699V24.7699ZM6.62719 16.5459C6.53032 16.7539 6.46157 16.9115 6.41482 17.0738C6.21131 17.7767 6.50688 18.404 5.86873 18.9135C6.1686 19.5184 6.1548 19.7599 6.85233 19.4803C7.12134 19.3722 7.34321 19.2212 7.54139 19.0423C7.44546 19.2915 7.35727 19.5436 7.27694 19.7983C7.26314 19.8412 7.24998 19.8846 7.23735 19.9276C6.73852 20.1393 6.0824 20.2738 5.83136 19.7496C5.70948 19.495 5.6406 19.2453 5.55167 18.9237C4.73018 18.0726 5.95818 16.9489 6.62719 16.5459V16.5459ZM7.03097 17.4475C6.92954 17.3459 6.84842 17.2773 6.7173 17.2921C6.72837 17.2062 6.74308 17.1233 6.76378 17.0454C6.7742 17.0053 6.7854 16.966 6.79738 16.9265C6.96743 17.0256 7.01222 17.2052 7.03097 17.4474V17.4475ZM31.6637 14.2686C31.6946 14.3339 31.7251 14.4005 31.7551 14.4678C31.7303 14.486 31.7068 14.5052 31.6847 14.5253C31.6443 14.4309 31.5859 14.3452 31.5127 14.273C31.5617 14.2712 31.612 14.2696 31.6638 14.2686H31.6637ZM7.94686 18.1317L7.94673 18.1316V18.1317H7.94686ZM14.2619 28.4323H14.2621H14.2619ZM21.6659 30.6427H21.6658H21.6659ZM24.6751 24.923H24.6753L24.6752 24.9231L24.6751 24.923ZM6.71209 19.1548H6.71196L6.70636 19.1405L6.71196 19.1549L6.71209 19.1548ZM35.5995 21.5295L35.6034 21.5319L35.5995 21.5295ZM3.81338 18.9501C3.94411 17.47 4.23187 16.8309 5.28344 15.717C3.96442 16.6464 3.63525 17.0688 3.81338 18.95" fill="black"/>
<path d="M3.47317 17.7412C3.61835 17.075 3.75376 16.8236 4.16457 16.2768C3.49804 16.7423 3.41132 16.9335 3.47304 17.7412H3.47317ZM18.9484 8.45483C18.1582 8.64533 18.0075 8.79142 17.7705 9.56603C18.1487 8.99884 18.3664 8.81434 18.9484 8.45483" fill="black"/>
<path d="M20.1944 8.34217C18.6271 8.72629 18.1666 8.99946 17.646 10.816C18.3077 9.48553 18.8088 8.99569 20.1944 8.34204V8.34217ZM23.5699 14.964C23.737 14.2239 24.0339 13.5108 25.1832 12.959C23.6598 13.3405 23.3741 13.9805 23.5699 14.9642V14.964ZM33.2636 15.0152C34.1658 14.6936 34.6007 13.9682 34.8167 13.1148C34.4636 13.8301 33.9186 14.4282 33.1784 14.7946C32.7812 14.9913 32.5274 14.9226 32.0838 14.8806C32.5349 15.0101 32.8207 15.173 33.2636 15.0152ZM27.1175 15.7405C27.0018 15.4979 26.7955 15.3104 26.5429 15.2185C26.7643 15.1004 26.9816 14.9763 27.1511 14.822C26.6544 15.0519 26.0762 14.9958 25.6499 15.2837C25.2745 15.5374 24.7562 16.341 24.3747 16.6818C24.651 16.5745 24.9173 16.3889 25.1625 16.1935C25.1638 16.3791 25.2157 16.5609 25.3126 16.7192C25.4095 16.8776 25.5477 17.0066 25.7124 17.0923C25.5713 17.277 25.459 17.482 25.3793 17.7004C26.1057 16.8394 27.159 16.1892 28.1493 15.9112C27.8725 15.9073 27.5448 15.959 27.2109 16.0687C27.1984 15.9548 27.1669 15.8439 27.1175 15.7405V15.7405ZM26.0724 22.2459C26.0371 22.4689 25.9887 22.7459 25.9534 22.969C26.0478 22.7166 26.1613 22.4234 26.2711 22.1828C26.3875 21.9281 26.453 21.9041 26.7 21.7698C26.8751 21.6745 27.1931 21.5435 27.3682 21.4482C27.188 21.4785 26.8651 21.5448 26.6849 21.5751C26.2036 21.6564 26.147 21.772 26.0724 22.2459V22.2459ZM17.8514 13.6388C17.2928 14.1909 16.7502 16.0854 16.5769 16.8435C16.8499 16.2138 17.5333 14.4523 18.0575 14.0043C18.2023 13.8805 18.3034 13.8044 18.4122 13.7491C18.0369 14.3784 18.0645 14.5349 18.1962 15.378C18.308 14.5208 18.6044 14.1897 19.0907 13.5502C19.6237 13.4165 20.1227 13.2562 20.6696 13.043C20.0536 13.1126 19.4371 13.1766 18.82 13.2349C18.302 13.284 18.2186 13.2756 17.8512 13.6388" fill="black"/>
<path d="M25.461 16.8638C25.4122 16.7612 25.4061 16.6434 25.4441 16.5363C25.4821 16.4292 25.561 16.3416 25.6636 16.2927C25.7195 16.2662 25.7805 16.2521 25.8423 16.2513C25.9042 16.2505 25.9655 16.263 26.0221 16.2881C26.0787 16.3131 26.1292 16.3501 26.1702 16.3964C26.2112 16.4428 26.2417 16.4974 26.2597 16.5566C26.0558 16.7081 25.8689 16.8862 25.7122 17.0927C25.6067 17.0502 25.5132 16.9732 25.4608 16.8638H25.461ZM30.2311 15.0185C30.2483 14.8421 30.3987 14.712 30.5751 14.729C30.66 14.7374 30.7381 14.7791 30.7924 14.8449C30.8466 14.9107 30.8726 14.9953 30.8647 15.0802C30.861 15.1166 30.8512 15.1522 30.8357 15.1853C30.6742 15.213 30.5127 15.2602 30.3463 15.3214C30.2768 15.2501 30.2213 15.1202 30.2311 15.0185" fill="#FFFFCC"/>
</g>
<defs>
<clipPath id="clip0_1031_53173">
<rect width="33.3333" height="25" fill="white" transform="translate(3.33325 8.33325)"/>
</clipPath>
</defs>
</svg>
