<svg id="sources/MYSQL" viewBox="0 0 40 40" fill="none" xmlns="http://www.w3.org/2000/svg">
<path fill-rule="evenodd" clip-rule="evenodd" d="M33.4731 28.5382C31.7327 28.4898 30.3825 28.6682 29.2508 29.1442C28.925 29.2751 28.402 29.2751 28.3591 29.6852C28.5333 29.8573 28.5542 30.1389 28.7069 30.3774C28.9679 30.8103 29.4254 31.3935 29.8386 31.696L31.2312 32.6912C32.08 33.2099 33.0375 33.5129 33.8643 34.0321C34.3433 34.335 34.8218 34.7243 35.3008 35.0491C35.5447 35.2221 35.6925 35.5038 35.9974 35.6114V35.546C35.8452 35.3521 35.8013 35.0709 35.6496 34.8537L34.9959 34.2269C34.3652 33.3834 33.5814 32.6476 32.7326 32.0426C32.0361 31.5666 30.5132 30.9179 30.2303 30.1181L30.1873 30.0696C30.6654 30.0211 31.2312 29.8529 31.6887 29.723C32.4292 29.5291 33.1033 29.5718 33.8643 29.3774L34.9096 29.0744V28.8805C34.5179 28.4912 34.235 27.972 33.8218 27.6046C32.7121 26.653 31.4927 25.7227 30.2303 24.9442C29.5557 24.5118 28.685 24.2302 27.9669 23.8632C27.705 23.7333 27.2704 23.6683 27.1182 23.4521C26.7255 22.977 26.5085 22.3493 26.2255 21.7865L24.4412 18.0233C24.0495 17.1798 23.8095 16.3363 23.3315 15.5578C21.0896 11.8808 18.6517 9.65335 14.9084 7.46853C14.1036 7.01431 13.146 6.81895 12.128 6.58141L10.4959 6.49415C10.1471 6.34291 9.79934 5.93183 9.49447 5.73696C8.25403 4.95843 5.05464 3.27145 4.14004 5.49457C3.55226 6.90039 5.01074 8.28438 5.50584 8.99844C5.87656 9.4958 6.35459 10.0581 6.61653 10.6205C6.76287 10.9879 6.81165 11.3777 6.96433 11.7669C7.31212 12.7185 7.63894 13.7787 8.09599 14.6658C8.33988 15.12 8.59597 15.5965 8.90084 16.0071C9.07498 16.2495 9.37984 16.3533 9.44472 16.7425C9.13985 17.1754 9.11888 17.8235 8.94474 18.365C8.16087 20.8092 8.46573 23.837 9.57545 25.6365C9.92421 26.177 10.7461 27.3671 11.8612 26.9123C12.8407 26.5231 12.6222 25.2903 12.9051 24.2088C12.9709 23.9495 12.927 23.7764 13.0573 23.6029V23.6514L13.9499 25.4464C14.6245 26.5061 15.8001 27.6094 16.7791 28.3453C17.301 28.7346 17.7146 29.4055 18.3673 29.643V29.5776H18.3244C18.1937 29.3837 17.9976 29.2964 17.8234 29.1452C17.4317 28.7559 16.9966 28.2799 16.6918 27.8475C15.7781 26.6365 14.9733 25.2952 14.2548 23.9112C13.906 23.2408 13.6011 22.5054 13.3192 21.8349C13.1875 21.5751 13.1875 21.1854 12.9704 21.0564C12.6436 21.5315 12.1656 21.9435 11.9251 22.5272C11.5115 23.457 11.4685 24.6034 11.3164 25.793C11.2286 25.8148 11.2676 25.793 11.2286 25.8415C10.533 25.6689 10.293 24.9544 10.032 24.3494C9.37936 22.8137 9.27009 20.3482 9.83592 18.5744C9.98811 18.1202 10.6417 16.6926 10.3808 16.2602C10.2491 15.8491 9.81494 15.6116 9.57495 15.2868C9.29204 14.8757 8.98815 14.357 8.79206 13.9028C8.27013 12.6909 8.00916 11.3505 7.44284 10.1391C7.1809 9.57676 6.72434 8.99262 6.35411 8.47392C5.94046 7.88979 5.48438 7.47871 5.15757 6.78695C5.04879 6.54457 4.8966 6.15967 5.07074 5.89984C5.11366 5.72678 5.20147 5.65745 5.37463 5.61867C5.65755 5.37629 6.46337 5.68363 6.74628 5.81258C7.55113 6.13737 8.22574 6.43986 8.90035 6.8936C9.20521 7.1098 9.53203 7.52088 9.92373 7.62947H10.3813C11.0778 7.78072 11.8607 7.67795 12.5129 7.87185C13.6665 8.24027 14.7109 8.78029 15.6474 9.36492C18.498 11.16 20.8492 13.7123 22.4374 16.7624C22.6984 17.2598 22.8071 17.714 23.0471 18.2332C23.5047 19.2933 24.0705 20.3744 24.5266 21.4132C24.9841 22.4298 25.4192 23.4686 26.0719 24.3121C26.3987 24.7663 27.704 25.0038 28.2913 25.2419C28.7269 25.4358 29.401 25.6103 29.7937 25.8478C30.5332 26.302 31.2732 26.8212 31.9692 27.3186C32.317 27.5774 33.4058 28.1184 33.4706 28.5499L33.4731 28.5382ZM11.2788 9.74303C10.9781 9.74039 10.6784 9.77673 10.3871 9.85114V9.89961H10.43C10.6042 10.2457 10.9091 10.4837 11.1266 10.7867L11.6276 11.8251L11.6705 11.7766C11.9754 11.5604 12.128 11.2143 12.128 10.6956C11.9973 10.5443 11.9758 10.3926 11.8671 10.2414C11.7363 10.0252 11.4534 9.91658 11.2788 9.744V9.74303Z" fill="#00678C"/>
</svg>
