<svg id="sources/NESSIE" viewBox="0 0 24 24" fill="none" xmlns="http://www.w3.org/2000/svg">
  <path d="M18.5935 19.4136C18.5935 19.4136 20.0475 18.7738 20.6337 18.1289C21.22 17.484 22.2752 16.0624 22.2459 15.6667C22.2166 15.271 21.9821 15.4029 21.3959 15.8719C20.8096 16.3409 19.9156 16.8099 19.1681 16.6487C19.1681 16.6487 18.714 16.5542 18.5064 16.4604C18.2988 16.3667 17.8703 15.5564 17.5488 15.168C17.2274 14.7796 16.6984 13.8153 16.0488 13.5541C15.3992 13.2929 14.4751 12.7907 13.5845 12.8911C12.6938 12.9916 11.8768 13.1121 11.1335 13.6345C10.3902 14.1568 10.1826 14.8131 9.28525 14.7595C8.38791 14.7059 8.30754 13.7818 8.42139 13.1322C8.53524 12.4827 9.11113 11.3442 9.55312 10.6813C9.9951 10.0183 10.5107 8.93348 10.5107 8.93348C10.5107 8.93348 11.234 7.41335 11.2005 6.36868C11.167 5.324 10.7987 4.43335 10.6179 4.22575C10.4371 4.01815 9.97503 3.62975 9.94824 3.64316C9.92145 3.65654 8.33436 3.73022 7.98613 3.70343C7.63789 3.67664 7.23399 3.6884 7.23399 3.6884C7.23399 3.6884 6.51958 3.91103 6.47937 4.60746C6.43917 5.3039 6.66687 5.83294 7.37672 6.06733C8.08656 6.30172 9.23167 6.08743 9.23167 6.08743C9.23167 6.08743 9.35221 7.5071 8.95712 8.37096C8.56203 9.23483 7.20932 10.9558 7.18922 10.9759C7.16912 10.996 6.16465 12.6099 5.88337 13.8622C5.6021 15.1144 5.64899 15.9247 5.64899 15.9247C5.64899 15.9247 5.82311 17.7663 6.6267 18.7641C7.4303 19.7619 7.54414 19.8489 7.54414 19.8489C7.54414 19.8489 7.36334 20.3378 7.37672 20.8735C7.39009 21.4092 7.591 21.9583 7.77181 21.9115C7.95261 21.8646 8.34102 21.4427 8.54861 21.3289C8.75621 21.215 8.88344 21.1682 8.96381 21.0074C9.04418 20.8467 9.05755 20.6324 9.05755 20.6324L9.67644 20.7984C9.67644 20.7984 9.9348 21.7441 10.2361 22.186C10.5375 22.628 10.725 22.8624 10.9125 22.7486C11.1 22.6347 11.1067 22.2999 11.3813 21.9784C11.6559 21.657 11.8366 21.6302 11.9572 21.3757C12.0777 21.1213 12.0442 20.8266 12.0442 20.8266C12.0442 20.8266 13.8657 20.753 14.3546 20.7061C14.8434 20.6592 16.8658 20.1972 16.8658 20.1972C16.8658 20.1972 17.2408 20.974 17.7497 21.3088C18.2587 21.6436 18.6404 21.5632 18.7007 21.4159C18.7609 21.2686 18.473 20.9874 18.5332 20.7865C18.5935 20.5856 18.8681 20.2039 18.8882 19.9628C18.9083 19.7217 18.5935 19.4136 18.5935 19.4136Z" fill="#00A79D"/>
  <path d="M6.98654 5.29511C6.98654 5.29511 7.08896 5.19588 7.53707 5.26311C7.98517 5.33034 8.31809 5.54479 8.31809 5.54479C8.31809 5.54479 8.04282 5.71444 7.73875 5.67921C7.43468 5.64399 6.98654 5.29511 6.98654 5.29511Z" fill="#EF4136"/>
  <path d="M6.93533 5.28218C6.94545 5.2923 6.99295 5.20215 7.49547 5.26618C7.998 5.33018 8.31807 5.49344 8.31807 5.51905C8.31807 5.54467 8.31488 5.55424 8.31807 5.54466C8.32126 5.53505 8.55495 5.34941 8.52614 5.18299C8.49733 5.01654 8.36291 4.89812 8.11965 4.95573C7.87639 5.01334 7.87639 5.11576 7.72274 5.09338C7.56909 5.07096 7.47309 5.04538 7.34825 4.89173C7.2234 4.73808 7.08256 4.62605 6.92253 4.71247C6.76249 4.79886 6.64726 4.99412 6.93533 5.28218Z" fill="black"/>
  <path d="M7.9861 3.70326C7.9861 3.70326 7.04507 3.52467 6.87576 3.24955C6.70645 2.97442 6.38903 2.90037 6.75935 2.57234C7.12967 2.2443 8.39414 1.99039 8.87558 1.97449C9.35702 1.95862 10.0871 2.46121 10.4151 2.82629C10.7431 3.19133 10.632 3.52995 10.394 3.64104C10.1559 3.75217 8.42987 3.76017 7.9861 3.70326Z" fill="#EF4136"/>
  <path d="M15.3814 20.6001C15.3789 20.588 16.8283 20.2002 16.8283 20.2002L17.0427 20.5258C17.0427 20.5258 16.9974 20.8927 16.9767 21.1442C16.9561 21.3957 16.7212 21.5894 16.5274 21.6142C16.3337 21.6389 15.5092 21.2102 15.3814 20.6001Z" fill="#008E85"/>
  <path d="M7.1551 4.59012C6.98004 4.52067 6.73977 4.58867 6.68888 4.78901C6.64354 4.9676 6.73967 5.18457 6.8872 5.2848C6.89433 5.28964 6.90142 5.2927 6.90838 5.29462C6.96156 5.35748 7.02714 5.41297 7.09339 5.46379C7.31211 5.63169 7.54347 5.749 7.82334 5.76557C8.06233 5.77973 8.33251 5.71905 8.48613 5.52137C8.61288 5.35822 8.63493 5.12501 8.48814 4.96612C8.33322 4.79845 8.1272 4.85277 7.94398 4.93613C7.86075 4.97398 7.78673 5.01845 7.6903 4.99526C7.59914 4.97328 7.52956 4.90091 7.46562 4.83748C7.3704 4.74306 7.283 4.64088 7.1551 4.59012ZM7.64754 5.59811C7.463 5.55993 7.30737 5.46406 7.15759 5.35408C7.12414 5.32954 7.09504 5.3039 7.06831 5.27734C7.2511 5.3009 7.43836 5.28255 7.62297 5.32003C7.64747 5.32501 7.67181 5.33055 7.69608 5.33633C7.69298 5.33707 7.68979 5.33778 7.68677 5.33852C7.62085 5.35479 7.56858 5.38622 7.5183 5.43106C7.49272 5.45388 7.52525 5.48786 7.55251 5.47539C7.60297 5.45233 7.66031 5.43492 7.7152 5.42658C7.76482 5.41906 7.815 5.42974 7.86213 5.41018C7.87285 5.40571 7.88008 5.39821 7.88364 5.38964C8.00404 5.42937 8.12102 5.47882 8.23467 5.53677C8.06021 5.63243 7.83732 5.63741 7.64754 5.59811ZM7.80922 5.1483C7.95352 5.1242 8.09914 5.00313 8.24502 5.00911C8.52774 5.02067 8.45033 5.35455 8.30337 5.48931C8.30082 5.48682 8.29789 5.48447 8.29416 5.48252C8.08774 5.37543 7.871 5.29459 7.6426 5.24867C7.44909 5.20978 7.20535 5.1597 7.01245 5.21606C7.00035 5.20141 6.98865 5.18649 6.97746 5.17126C6.92088 5.05479 6.82441 4.83042 6.98952 4.78877C7.15766 4.74639 7.31584 4.96581 7.43685 5.05109C7.54999 5.13079 7.67093 5.17139 7.80922 5.1483Z" fill="black"/>
  <path d="M8.3325 4.56527C8.38056 4.53098 8.43347 4.50516 8.49377 4.5092C8.55569 4.51333 8.59559 4.55024 8.64752 4.57901C8.71837 4.61827 8.78116 4.5419 8.75128 4.47528C8.65891 4.2693 8.34944 4.31189 8.24366 4.47642C8.20974 4.52913 8.27905 4.60338 8.3325 4.56527Z" fill="black"/>
  <path d="M7.0108 4.27406C6.98949 4.31984 7.03194 4.35863 7.07648 4.33974C7.15171 4.30787 7.22213 4.27049 7.30448 4.30888C7.36421 4.33671 7.39578 4.39906 7.45195 4.43247C7.4819 4.45029 7.52529 4.43419 7.53353 4.39926C7.59574 4.13567 7.11453 4.05137 7.0108 4.27406Z" fill="black"/>
  <path d="M12.0107 14.2199C12.1093 14.2936 12.2278 14.2406 12.3237 14.1933C12.4911 14.1109 12.6626 14.0249 12.822 13.9287C13.0039 13.8188 12.9372 13.591 12.7272 13.5774C12.4592 13.5601 12.1138 13.7678 11.9335 13.9507C11.891 13.9938 11.9099 14.0484 11.9498 14.0724C11.9441 14.1259 11.961 14.1828 12.0107 14.2199Z" fill="black"/>
  <path d="M13.7918 14.2078C13.613 14.2085 13.4087 14.2295 13.2608 14.3366C13.2353 14.3551 13.2302 14.4006 13.2591 14.4163C13.242 14.4575 13.2402 14.5072 13.2644 14.5613C13.3274 14.7023 13.4916 14.7177 13.6186 14.6657C13.6965 14.6338 13.7561 14.5706 13.8413 14.5959C13.9101 14.6163 13.961 14.6683 14.0336 14.683C14.2695 14.7307 14.4602 14.4603 14.2405 14.2978C14.121 14.2095 13.9331 14.2073 13.7918 14.2078Z" fill="black"/>
  <path d="M14.1595 13.6562C14.3248 13.7439 14.5714 13.7764 14.757 13.7989C14.8726 13.8129 15.0024 13.7664 14.986 13.6271C14.9686 13.4794 14.7654 13.4359 14.6472 13.4137C14.4668 13.3799 14.2878 13.3979 14.1194 13.4697C14.0688 13.4913 14.0747 13.5623 14.1107 13.5943C14.1159 13.6187 14.1311 13.6412 14.1595 13.6562Z" fill="black"/>
  <path d="M22.2631 15.4451C22.1673 15.3117 21.9887 15.2537 21.8462 15.3455C21.8183 15.3635 21.8069 15.3896 21.807 15.4155C21.6988 15.4644 21.5968 15.5541 21.5082 15.6187C21.353 15.7321 21.1987 15.8465 21.0381 15.9522C20.7148 16.1649 20.368 16.3481 19.9951 16.4569C19.4262 16.6228 18.7862 16.5907 18.3053 16.2438C18.3039 16.2392 18.3022 16.2344 18.2999 16.2297C18.1079 15.8409 17.8651 15.4745 17.6187 15.118C17.3795 14.7721 17.1205 14.4378 16.8272 14.1358C16.2872 13.5798 15.6301 13.1663 14.8822 12.9552C13.4478 12.5505 11.8553 12.8799 10.7297 13.862C10.3749 14.1715 10.023 14.5532 9.54781 14.6665C9.22845 14.7427 8.8311 14.6737 8.6271 14.4107C8.62815 14.4053 8.62835 14.3997 8.62694 14.3934C8.54973 14.0578 8.48297 13.73 8.50475 13.3835C8.52579 13.0482 8.60398 12.7197 8.72263 12.4059C8.96502 11.765 9.3589 11.1959 9.71877 10.6177C10.428 9.47811 11.0327 8.30624 11.2786 6.97457C11.3459 6.60983 11.3656 6.24422 11.3329 5.87447C11.3014 5.51733 11.2613 5.10278 11.0546 4.8019C10.9106 4.39901 10.635 4.02899 10.3223 3.74459C10.4191 3.71393 10.5081 3.66251 10.5805 3.5818C10.7219 3.42439 10.7386 3.27639 10.6528 3.0864C10.559 2.87867 10.3599 2.73615 10.1952 2.58775C10.0601 2.46597 9.92287 2.3465 9.77278 2.24462C9.899 2.24177 9.93406 2.03131 9.80031 2.01202C9.69641 1.99699 9.59325 1.97817 9.49016 1.95894C9.61413 1.8701 9.72431 1.7625 9.81013 1.6384C9.82724 1.61366 9.82677 1.57229 9.81013 1.54748C9.80357 1.53766 9.79853 1.53084 9.78905 1.52368C9.78529 1.52086 9.78156 1.518 9.77783 1.51518C9.75194 1.49555 9.71339 1.50176 9.6869 1.51518C9.57547 1.57171 9.46576 1.62714 9.35487 1.68035C9.36334 1.66926 9.37181 1.6582 9.38028 1.64714C9.45957 1.54334 9.54509 1.44072 9.58465 1.31434C9.61171 1.22788 9.51174 1.16217 9.43806 1.20163C9.32183 1.26395 9.23517 1.37131 9.14845 1.46822C9.13325 1.48519 9.11809 1.50217 9.1029 1.51914C9.10451 1.38449 9.10354 1.23659 9.0267 1.12462C8.99188 1.07387 8.90169 1.0584 8.87063 1.12462C8.79907 1.27719 8.82441 1.45847 8.80778 1.62382C8.807 1.63158 8.80593 1.63958 8.80475 1.64765C8.76062 1.5183 8.72129 1.38829 8.69443 1.24808C8.6746 1.14462 8.50257 1.14311 8.48384 1.24808C8.46435 1.35743 8.45625 1.47168 8.46129 1.5855C8.39816 1.53017 8.33534 1.47447 8.27248 1.41884C8.13947 1.30119 7.96159 1.47982 8.07813 1.61319C8.12099 1.66227 8.16394 1.71124 8.20677 1.76035C8.09934 1.77155 7.99319 1.78734 7.88465 1.80691C7.7912 1.82375 7.77615 1.96563 7.84636 2.0136C7.44324 2.10264 7.04351 2.2297 6.68028 2.41787C6.41292 2.55639 6.35783 2.8662 6.47605 3.12553C6.56956 3.33067 6.73789 3.47293 6.94297 3.53588C6.93678 3.5863 6.95672 3.63948 7.00579 3.68029C6.94667 3.72967 6.88818 3.77975 6.83342 3.83481C6.78953 3.87894 6.75268 3.92358 6.71877 3.97007C6.2267 4.46483 6.32519 5.35017 6.81752 5.80509C7.44922 6.38879 8.35443 6.36321 9.14949 6.17303C9.21614 6.41562 9.17658 6.72839 9.15853 6.9693C9.13557 7.27565 9.08435 7.57931 9.01339 7.8781C8.89312 8.38452 8.70062 8.87501 8.42606 9.31753C8.41749 9.31965 8.40915 9.32368 8.40186 9.33061C7.1021 10.5604 6.0862 12.1466 5.64243 13.889C5.21611 15.5629 5.38664 17.4676 6.40801 18.9024C6.69961 19.3121 7.05594 19.6792 7.46546 19.9691C7.32132 20.3274 7.25605 20.7051 7.29954 21.0938C7.32764 21.345 7.39719 21.9286 7.72589 21.9797C7.89709 22.0063 8.04257 21.836 8.167 21.7449C8.37467 21.593 8.58751 21.4489 8.79241 21.2932C8.94344 21.1784 9.16011 20.9826 9.20441 20.7769C9.35964 20.8045 9.51746 20.8145 9.67645 20.7982C9.69614 20.9101 9.72035 21.0216 9.74969 21.1323C9.88724 21.6515 10.1228 22.2108 10.4759 22.6221C10.6068 22.7746 10.7995 22.8695 10.9932 22.7699C11.2411 22.6424 11.2657 22.3548 11.4019 22.142C11.6512 21.7523 12.1728 21.5783 12.1867 21.0507C12.1877 21.0117 12.1857 20.9732 12.1811 20.9352C12.1837 20.9359 12.1859 20.9369 12.1886 20.9374C12.5647 21.0143 12.9674 20.9966 13.3487 20.9787C13.7392 20.9604 14.1285 20.924 14.5158 20.8717C14.7862 20.8351 15.059 20.7924 15.3307 20.7405C15.3309 20.7411 15.3309 20.7416 15.331 20.7422C15.4823 21.2505 16.0313 21.7621 16.5899 21.7249C16.8345 21.7086 17.043 21.5639 17.0942 21.3153C17.1318 21.1323 17.079 20.9468 17.07 20.7641C17.28 21.0487 17.5404 21.2962 17.8381 21.488C18.0448 21.6213 18.2981 21.729 18.5437 21.6412C18.7306 21.5743 18.8744 21.4005 18.8613 21.1957C18.8473 20.9752 18.5756 20.8103 18.6989 20.5895C18.8126 20.3858 18.9677 20.2535 18.9692 20.0018C18.9707 19.7638 18.8701 19.5629 18.7161 19.4064C20.2508 18.7943 21.5385 17.5418 22.2249 16.0405C22.308 15.8584 22.3935 15.6267 22.2631 15.4451ZM9.63682 2.2454C9.79658 2.34025 9.94277 2.45746 10.0813 2.58106C10.2313 2.71491 10.495 2.92012 10.5428 3.12456C10.6117 3.41972 10.2922 3.45336 10.0537 3.45427C10.0733 3.41057 10.0842 3.36469 10.0827 3.31881C10.0763 3.12493 10.1109 2.98156 10.0042 2.8097C9.89631 2.63568 9.71702 2.5145 9.56189 2.38577C9.5349 2.36335 9.50791 2.34096 9.48088 2.31854C9.46626 2.29524 9.45053 2.27215 9.43413 2.24929C9.50169 2.24741 9.56925 2.24614 9.63682 2.2454ZM8.21672 2.40019C8.3101 2.35726 8.39399 2.30896 8.47924 2.2538C8.45759 2.35484 8.43567 2.45676 8.42976 2.55904C8.42112 2.70778 8.6225 2.70993 8.67013 2.59158C8.70253 2.51111 8.72371 2.42493 8.74361 2.33891C8.78902 2.43188 8.83793 2.52264 8.89668 2.6103C8.94391 2.68076 9.08851 2.66462 9.07561 2.56183C9.06388 2.46842 9.04576 2.3784 9.02411 2.28923C9.05033 2.29824 9.07638 2.30832 9.10182 2.32109C9.19517 2.36788 9.26976 2.41128 9.34125 2.48936C9.37917 2.53081 9.43009 2.52808 9.46811 2.50335C9.56727 2.57178 9.66613 2.64082 9.76068 2.71467C9.84482 2.78039 9.92663 2.85403 9.94754 2.96254C9.96018 3.02805 9.95951 3.12318 9.90189 3.1697C9.87826 3.18879 9.83641 3.19017 9.80986 3.20634C9.70068 3.27286 9.58492 3.42405 9.54256 3.54708C9.4912 3.54425 9.44129 3.54086 9.39467 3.53498C9.13265 3.50197 8.87305 3.44889 8.61436 3.39693C8.3662 3.34708 8.10223 3.34247 7.84845 3.33696C7.75984 3.14234 7.6827 2.9058 7.79262 2.7423C7.88364 2.60691 8.02744 2.51531 8.151 2.40936C8.17204 2.41256 8.19453 2.41037 8.21672 2.40019ZM6.88347 2.8743C6.84112 2.61682 7.05094 2.54741 7.24973 2.46244C7.54344 2.33689 7.86747 2.21219 8.1943 2.1335C8.15773 2.16459 8.12199 2.19679 8.08663 2.23165C8.06294 2.25501 8.05332 2.28076 8.05356 2.30533C7.98825 2.35756 7.92408 2.41148 7.85853 2.46113C7.71978 2.56627 7.62441 2.67733 7.52021 2.81578C7.42041 2.94839 7.37954 3.06859 7.42731 3.23565C7.43678 3.26882 7.44862 3.29908 7.46142 3.32819C7.36724 3.32983 7.27366 3.33753 7.18398 3.35844C7.08653 3.1977 6.9141 3.06035 6.88347 2.8743ZM8.85813 20.9622C8.75655 21.0705 8.62801 21.1546 8.51225 21.2465C8.3949 21.3397 8.28048 21.4367 8.16509 21.5323C8.04472 21.632 7.7871 21.9221 7.64932 21.7416C7.48038 21.5202 7.44378 21.1281 7.43413 20.86C7.42405 20.5794 7.46304 20.295 7.54915 20.0273C7.70095 20.129 7.86001 20.2195 8.02532 20.2981C8.06448 20.3234 8.10478 20.3463 8.1427 20.3683C8.29349 20.4559 8.44952 20.5322 8.61124 20.5974C8.73167 20.6459 8.8552 20.6901 8.98088 20.7252C8.96704 20.8092 8.9309 20.8845 8.85813 20.9622ZM16.6571 21.4595C16.1694 21.5725 15.7495 21.0705 15.5222 20.7024C15.9599 20.6112 16.3923 20.4931 16.8051 20.3336C16.8273 20.3771 16.8501 20.4198 16.8735 20.4613C16.8886 20.4881 16.9042 20.5145 16.9202 20.5408C16.7945 20.8494 17.0581 21.3665 16.6571 21.4595ZM22.1269 15.8166C22.0928 15.9276 22.0355 16.0334 21.9837 16.1369C21.8842 16.3361 21.7743 16.5301 21.6551 16.7181C21.4066 17.11 21.1168 17.4746 20.7927 17.8066C20.1735 18.4409 19.4245 18.9495 18.6197 19.3196C18.4268 19.165 18.1795 19.0672 17.9445 19.037C17.8689 19.0273 17.8597 19.1321 17.9093 19.1668C18.1227 19.3163 18.3847 19.4037 18.5704 19.5901C18.6753 19.6954 18.7492 19.8255 18.7532 19.9775C18.7569 20.1192 18.6772 20.2222 18.5946 20.329C18.4709 20.4888 18.3696 20.6547 18.4403 20.861C18.4739 20.9593 18.5481 21.0356 18.5864 21.1306C18.6395 21.2624 18.5321 21.3658 18.405 21.3888C18.1532 21.4343 17.8539 21.1797 17.6759 21.0286C17.4896 20.8706 17.3222 20.6881 17.1807 20.489C16.8785 20.0634 16.7529 19.6028 16.6327 19.1039C16.6159 19.0342 16.5199 19.0554 16.5144 19.1199C16.4866 19.4456 16.5676 19.7871 16.6966 20.0989C15.9793 20.2868 15.27 20.4786 14.5336 20.5837C14.1511 20.6383 13.766 20.6746 13.3802 20.6943C12.994 20.7141 12.5986 20.6944 12.2149 20.7434C12.1876 20.7469 12.1645 20.7612 12.1475 20.7806C12.085 20.5769 11.9563 20.3912 11.8256 20.2272C11.707 20.0786 11.5796 19.9368 11.4546 19.7937C11.3221 19.642 11.2173 19.5177 11.0325 19.432C10.9714 19.4037 10.8874 19.451 10.9108 19.5256C11.0664 20.0206 11.6005 20.2997 11.8273 20.7634C12.0544 21.2278 11.666 21.4869 11.3994 21.8035C11.2694 21.9579 11.1966 22.1202 11.125 22.3073C11.0754 22.437 11.0129 22.5975 10.8638 22.636C10.7257 22.6717 10.6186 22.5593 10.5376 22.4603C10.2309 22.0859 10.0161 21.6158 9.87907 21.1549C9.72048 20.6217 9.66425 20.0584 9.70905 19.5043C9.71134 19.4761 9.66327 19.4691 9.65914 19.4975C9.60203 19.8893 9.60068 20.2827 9.65625 20.6709C9.48999 20.6129 9.32008 20.5658 9.15063 20.5172C9.14112 20.5038 9.13083 20.4905 9.11883 20.4773C9.0904 20.4461 9.0388 20.4499 9.00771 20.4752C8.9143 20.4471 8.82142 20.4174 8.72993 20.3835C8.67998 20.3649 8.6304 20.3453 8.58099 20.3252C8.57725 20.2912 8.55981 20.2587 8.52418 20.238C7.24166 19.4941 6.31722 18.2419 6.01763 16.7855C5.66771 15.0845 6.12956 13.2952 6.94391 11.7948C7.16589 11.3858 7.40902 10.9826 7.65722 10.5891C7.8867 10.2253 8.14438 9.88123 8.39534 9.53229C8.3988 9.5296 8.40209 9.52654 8.40502 9.52268C8.76559 9.04701 9.01114 8.49498 9.1668 7.92042C9.24404 7.63528 9.29379 7.34308 9.32236 7.04913C9.33688 6.89978 9.34532 6.74983 9.347 6.59978C9.34875 6.44469 9.31826 6.27669 9.34102 6.12358C9.38505 6.11141 9.42875 6.09894 9.47177 6.08604C9.5714 6.05615 9.53003 5.90388 9.42872 5.9299C8.63436 6.13414 7.73016 6.31703 7.01205 5.79454C6.71591 5.57908 6.53393 5.27299 6.50727 4.90688C6.48505 4.60187 6.56011 4.27619 6.76526 4.04486C6.81497 4.0014 6.86552 3.95871 6.91457 3.91595C6.98058 3.8584 7.04979 3.80244 7.12334 3.7537C7.31157 3.84856 7.53534 3.87279 7.74021 3.90136C8.00983 3.93898 8.30099 3.98187 8.57218 3.94765C8.83204 3.91484 9.09184 3.8815 9.35174 3.84893C9.52979 3.82661 9.76206 3.83319 9.94841 3.778C9.9863 3.78109 10.0244 3.78251 10.0625 3.7822C10.3188 3.98637 10.5292 4.23541 10.6974 4.51871C10.8108 4.70977 10.8847 4.90704 10.9449 5.11084C10.9849 5.36516 11.0614 5.61662 11.0844 5.87441C11.1136 6.19982 11.1025 6.52994 11.07 6.85474C11.0001 7.55246 10.7454 8.24701 10.4564 8.88153C10.1765 9.49619 9.84862 10.0861 9.48979 10.658C9.14072 11.2144 8.77557 11.7687 8.54764 12.3887C8.3464 12.936 8.21853 13.6522 8.45003 14.218C8.44065 14.228 8.43604 14.2425 8.44129 14.2604C8.63087 14.9059 9.4673 14.9469 9.96942 14.6766C10.3336 14.4806 10.6209 14.1742 10.9356 13.912C11.239 13.6591 11.5821 13.4533 11.9469 13.3019C13.4005 12.6988 15.1693 12.9251 16.3697 13.96C16.7473 14.2855 17.071 14.6682 17.3608 15.0726C17.5923 15.3955 17.7925 15.7392 18.0136 16.0684C18.0021 16.0869 18.0003 16.1118 18.0184 16.133C18.0619 16.1838 18.1083 16.2311 18.1572 16.275C18.1637 16.2839 18.1698 16.293 18.1763 16.3019C18.1906 16.3214 18.2088 16.3312 18.2271 16.3338C18.693 16.7049 19.3548 16.7996 19.9316 16.6848C20.3332 16.6048 20.7078 16.4208 21.0529 16.2049C21.2318 16.093 21.4056 15.9716 21.5729 15.8431C21.6972 15.7477 21.8888 15.627 21.9602 15.4781C22.0285 15.4543 22.0902 15.4988 22.1261 15.5609C22.1721 15.6407 22.1527 15.7326 22.1269 15.8166Z" fill="black"/>
  <path d="M10.272 16.7737C10.2799 16.8358 10.602 18.8059 12.4952 19.3443C14.3884 19.8827 16.3163 18.3195 16.2468 17.2774C16.1773 16.2353 14.5621 16.3569 14.0584 16.3221C13.5547 16.2874 10.0288 14.8805 10.272 16.7737Z" fill="#53C0A5"/>
  <path d="M17.4105 17.8852C17.4625 17.8888 18.1053 17.8505 18.0011 17.3295C17.8969 16.8084 17.0805 16.7563 16.9937 16.9995C16.9068 17.2426 16.9069 17.8505 17.4105 17.8852Z" fill="#53C0A5"/>
  <path d="M7.29492 13.0474C7.31293 13.115 6.98443 14.8134 7.52779 16.2106C8.07115 17.6078 9.02204 18.2288 8.88621 18.6169C8.75038 19.0051 7.5084 18.6946 6.71273 16.948C5.91707 15.2015 7.06204 12.1742 7.29492 13.0474Z" fill="#53C0A5"/>
</svg>
