<svg id="sources/OPENSEARCH" viewBox="0 0 24 24" fill="none" xmlns="http://www.w3.org/2000/svg">
<g clip-path="url(#clip0_5596_46781)">
<path d="M21.2929 9.34375C20.9024 9.34375 20.5859 9.66031 20.5859 10.0508C20.5859 15.8692 15.8692 20.5859 10.0508 20.5859C9.66031 20.5859 9.34375 20.9024 9.34375 21.2929C9.34375 21.6834 9.66031 22 10.0508 22C16.6502 22 22 16.6502 22 10.0508C22 9.66031 21.6834 9.34375 21.2929 9.34375Z" fill="#005EB8"/>
<path d="M17.0254 13.875C17.7054 12.7658 18.363 11.2868 18.2336 9.21628C17.9656 4.92727 14.0809 1.67355 10.4127 2.02617C8.97666 2.16421 7.50212 3.33475 7.63312 5.43141C7.69006 6.34253 8.136 6.88028 8.86075 7.29372C9.55056 7.68725 10.4368 7.93653 11.4415 8.21909C12.6551 8.56044 14.0628 8.94384 15.1447 9.74116C16.4414 10.6967 17.3278 11.8045 17.0254 13.875Z" fill="#003B5C"/>
<path d="M3.22457 6.375C2.54461 7.48422 1.88703 8.96319 2.0164 11.0337C2.2844 15.3227 6.16909 18.5764 9.83731 18.2238C11.2733 18.0858 12.7479 16.9152 12.6169 14.8186C12.5599 13.9075 12.114 13.3697 11.3893 12.9563C10.6994 12.5627 9.81319 12.3135 8.8085 12.0309C7.59494 11.6896 6.18722 11.3062 5.10529 10.5088C3.80858 9.55325 2.92216 8.44553 3.22457 6.375Z" fill="#005EB8"/>
</g>
<defs>
<clipPath id="clip0_5596_46781">
<rect width="20" height="20" fill="white" transform="translate(2 2)"/>
</clipPath>
</defs>
</svg>
