<svg id="sources/ORACLE" viewBox="0 0 40 40" fill="none" xmlns="http://www.w3.org/2000/svg">
<path fill-rule="evenodd" clip-rule="evenodd" d="M6.38422 13.051C8.33773 11.0975 10.9872 10 13.7499 10H26.2499C29.0126 10 31.6621 11.0975 33.6156 13.051C35.5691 15.0045 36.6666 17.654 36.6666 20.4167C36.6666 23.1793 35.5691 25.8289 33.6156 27.7824C31.6621 29.7359 29.0126 30.8333 26.2499 30.8333H13.7499C10.9872 30.8333 8.33773 29.7359 6.38422 27.7824C4.43072 25.8289 3.33325 23.1793 3.33325 20.4167C3.33325 17.654 4.43072 15.0045 6.38422 13.051ZM13.7499 14.1667C12.0923 14.1667 10.5026 14.8251 9.3305 15.9972C8.1584 17.1694 7.49992 18.7591 7.49992 20.4167C7.49992 22.0743 8.1584 23.664 9.3305 24.8361C10.5026 26.0082 12.0923 26.6667 13.7499 26.6667H26.2499C27.9075 26.6667 29.4972 26.0082 30.6693 24.8361C31.8414 23.664 32.4999 22.0743 32.4999 20.4167C32.4999 18.7591 31.8414 17.1694 30.6693 15.9972C29.4972 14.8251 27.9075 14.1667 26.2499 14.1667H13.7499Z" fill="#C74634"/>
</svg>
