<?xml version="1.0" encoding="UTF-8"?>
<!--

    Copyright (C) 2017-2019 Dremio Corporation

    Licensed under the Apache License, Version 2.0 (the "License");
    you may not use this file except in compliance with the License.
    You may obtain a copy of the License at

        http://www.apache.org/licenses/LICENSE-2.0

    Unless required by applicable law or agreed to in writing, software
    distributed under the License is distributed on an "AS IS" BASIS,
    WITHOUT WARRANTIES OR CONDITIONS OF ANY KIND, either express or implied.
    See the License for the specific language governing permissions and
    limitations under the License.

-->
<svg id="sources/POLARIS" viewBox="0 0 48 48" xmlns="http://www.w3.org/2000/svg">
  <path transform="translate(4, 4) scale(0.4)"  d="M0.491429 5.03474C-1.08469 3.10836 1.46771 0.555933 3.39409 2.13205L47.3252 38.0753C48.1183 38.7242 49.2431 38.7761 50.0926 38.2029L74.0858 22.0137C75.9658 20.7454 78.2177 22.9977 76.9494 24.8774L60.7598 48.872C60.187 49.721 60.2384 50.845 60.8863 51.6381L96.5095 95.2474C98.0833 97.1736 95.5331 99.7238 93.6069 98.15L49.9974 62.5269C49.2043 61.8791 48.0803 61.8277 47.2314 62.4004L23.2367 78.5907C21.3571 79.8589 19.1048 77.6063 20.3731 75.727L36.5622 51.7333C37.1354 50.8838 37.0835 49.7589 36.4346 48.9659L0.491429 5.03474Z" fill="#007880"/>
</svg>
