<svg id="sources/POSTGRES" viewBox="0 0 40 40" fill="none" xmlns="http://www.w3.org/2000/svg">
<path d="M27.487 27.6013C27.699 25.8348 27.6355 25.5758 28.9512 25.8619L29.2853 25.8913C30.297 25.9373 31.6205 25.7286 32.398 25.3673C34.0718 24.5907 35.0643 23.294 33.4139 23.6347C29.6492 24.4114 29.3904 23.1366 29.3904 23.1366C33.3656 17.2383 35.0274 9.75101 33.593 7.91827C29.6807 2.91921 22.9086 5.28315 22.7953 5.34453L22.7592 5.35119C21.9321 5.18522 21.0912 5.09761 20.2477 5.08952C18.5441 5.06153 17.2514 5.53614 16.2708 6.27991C16.2708 6.27991 4.18965 1.30263 4.75169 12.5393C4.87122 14.9297 8.17802 30.6269 12.122 25.8856C13.5635 24.1519 14.9566 22.686 14.9566 22.686C15.6582 23.1596 16.5024 23.3751 17.3452 23.2958L17.4123 23.2385C17.3921 23.4637 17.4011 23.6906 17.4392 23.9136C16.4233 25.0488 16.7218 25.2481 14.6905 25.6662C12.6354 26.0898 13.8428 26.8439 14.6309 27.041C15.5865 27.2799 17.7973 27.6185 19.2915 25.5272L19.232 25.7658C19.6306 26.0847 19.6036 28.0576 19.6601 29.4672C19.7167 30.8769 19.8111 32.1924 20.0985 32.968C20.3858 33.7434 20.7249 35.7411 23.3945 35.169C25.6256 34.6909 27.3315 34.0027 27.487 27.6013" fill="black"/>
<path d="M22.5247 36.6668C21.6937 36.6669 20.7863 36.4497 20.0362 35.7417C19.3119 35.0581 19.0271 34.1854 18.8569 33.6639C18.8302 33.5821 18.805 33.505 18.7862 33.4542C18.4449 32.5332 18.3297 31.2167 18.2618 29.5234C18.2518 29.273 18.2443 29.0053 18.2367 28.7322C18.232 28.5639 18.2265 28.3688 18.2195 28.1648C17.0721 28.6679 15.7273 28.7577 14.2914 28.3987C13.8948 28.2998 13.5158 28.1401 13.168 27.9252C12.9435 27.7872 12.7425 27.6143 12.5725 27.4129C11.4278 28.3661 10.3396 28.2264 9.74059 28.0268C8.67199 27.6703 7.72012 26.6776 6.83056 24.992C6.20323 23.8032 5.59684 22.2558 5.02814 20.3926C4.03866 17.1509 3.41016 13.7327 3.35398 12.6093C3.17699 9.07085 4.13397 6.53733 6.19834 5.07913C7.90308 3.87487 10.2337 3.50483 13.1255 3.97965C14.1296 4.14794 15.1186 4.39617 16.0832 4.72195C17.2814 4.01089 18.6838 3.66498 20.2708 3.69023C21.0768 3.70019 21.8807 3.77377 22.6751 3.91028C24.0093 3.51528 25.3949 3.32118 26.7863 3.33437C30.0858 3.37377 32.8207 4.66059 34.6952 7.05578C35.4035 7.96073 36.0097 9.96135 34.8754 14.3529C34.1739 17.0689 32.9553 19.9541 31.4569 22.4842C32.0203 22.4593 32.5805 22.3857 33.1311 22.2641C33.487 22.1805 33.8548 22.1602 34.2177 22.204C34.876 22.3024 35.3851 22.7124 35.5794 23.3008C36.1463 25.0171 33.7386 26.2881 32.9871 26.6369C32.0363 27.0786 30.488 27.3471 29.2217 27.2894L29.1631 27.2854L28.9355 27.2655C28.9287 27.3232 28.922 27.3812 28.9154 27.4378C28.9056 27.5218 28.8953 27.6099 28.8844 27.7021C28.7995 30.9651 28.33 33.0358 27.3644 34.4107C26.343 35.865 24.9311 36.271 23.6878 36.5374C23.3057 36.6211 22.9158 36.6645 22.5247 36.6668V36.6668ZM20.1063 24.673C20.905 25.312 20.9739 26.4776 21.0346 28.6543C21.0419 28.9157 21.049 29.1718 21.0585 29.4112C21.0871 30.1225 21.1539 31.7884 21.4108 32.4818C21.4488 32.5842 21.4823 32.6868 21.5178 32.7956C21.8077 33.6843 21.9278 34.0521 23.1013 33.8006C24.1362 33.5789 24.6665 33.382 25.0739 32.8021C25.6835 31.9341 26.0246 30.1729 26.0879 27.5673L27.4862 27.6013L26.0975 27.4345C26.111 27.3216 26.1236 27.2149 26.1351 27.1143C26.2566 26.0712 26.3525 25.2473 27.0969 24.7153C27.5668 24.3797 28.0951 24.3348 28.5535 24.3766C28.2871 24.1138 28.1015 23.7802 28.0189 23.4152L27.9023 22.8406L28.2299 22.3545C29.9643 19.7812 31.3966 16.6174 32.1598 13.6745C33.0155 10.3745 32.6386 8.97487 32.4909 8.7807C29.3806 4.80642 23.9681 6.42878 23.3715 6.62409L23.2671 6.6807L22.7432 6.77722L22.4749 6.72152C21.7339 6.57393 20.9807 6.49604 20.2251 6.48886C18.9648 6.46748 17.9478 6.76454 17.1166 7.39501L16.4783 7.87908L15.7377 7.57395C14.2893 6.98189 10.0376 5.78932 7.80944 7.36794C6.58212 8.23746 6.02364 9.95386 6.14947 12.4695C6.193 13.3402 6.78441 16.609 7.75974 19.7527C9.09988 24.0726 10.2826 25.2724 10.6187 25.3701C10.6608 25.3525 10.8097 25.2748 11.0461 24.9906C12.5004 23.2416 13.884 21.7831 13.9422 21.7219L14.752 20.8697L15.7311 21.5203C16.0549 21.7392 16.4291 21.8719 16.8185 21.9058L19.142 19.9251L18.8052 23.3745C18.7964 23.4831 18.8021 23.5924 18.8222 23.6994L18.9235 24.3535L18.4821 24.8468C18.4781 24.8512 18.4742 24.8557 18.4702 24.8601L19.5559 25.3611L20.1063 24.673Z" fill="black"/>
<path d="M33.4144 23.6347C29.6493 24.4113 29.3905 23.1366 29.3905 23.1366C33.3658 17.2379 35.0276 9.75044 33.5935 7.91792C29.6812 2.91917 22.9087 5.28326 22.7957 5.34464L22.7593 5.35115C21.9321 5.1852 21.0911 5.09759 20.2474 5.08948C18.5438 5.06156 17.2515 5.5361 16.2709 6.27972C16.2709 6.27972 4.18954 1.30267 4.75143 12.5393C4.87096 14.9298 8.1777 30.6269 12.1218 25.8857C13.5634 24.1519 14.9563 22.686 14.9563 22.686C15.6578 23.1596 16.5019 23.3751 17.3445 23.2958L17.412 23.2386C17.392 23.4638 17.401 23.6907 17.439 23.9136C16.4229 25.0489 16.7215 25.2482 14.6903 25.6663C12.6351 26.0898 13.8425 26.8439 14.6308 27.041C15.5864 27.28 17.7974 27.6186 19.2913 25.5273L19.2317 25.7659C19.6298 26.0848 19.9094 27.84 19.8625 29.4312C19.8157 31.0224 19.7844 32.1148 20.0981 32.968C20.4118 33.8213 20.7244 35.7412 23.3946 35.169C25.6257 34.6909 26.7819 33.4519 26.9427 31.3851C27.0569 29.9157 27.3152 30.1329 27.3315 28.8193L27.5387 28.1974C27.7776 26.2056 27.5766 25.563 28.9512 25.8619L29.2853 25.8912C30.297 25.9372 31.6212 25.7285 32.3983 25.3673C34.0718 24.5906 35.0643 23.294 33.4142 23.6347H33.4144Z" fill="#336791"/>
<path d="M22.6573 35.8006C20.4106 35.8008 19.6994 34.0224 19.4083 33.2948C18.9818 32.2282 18.8891 28.2413 18.9864 24.7633C18.9881 24.702 19.0019 24.6417 19.0269 24.5857C19.0519 24.5298 19.0876 24.4793 19.1322 24.4372C19.1767 24.3951 19.229 24.3622 19.2863 24.3403C19.3435 24.3184 19.4045 24.308 19.4658 24.3098C19.527 24.3115 19.5874 24.3252 19.6433 24.3502C19.6992 24.3753 19.7497 24.4111 19.7918 24.4556C19.8339 24.5001 19.8668 24.5525 19.8886 24.6098C19.9105 24.667 19.9208 24.728 19.9191 24.7893C19.8107 28.6628 19.9635 32.1704 20.2745 32.9483C20.7565 34.1531 21.4878 35.2071 23.5535 34.7645C25.5458 34.3373 26.2545 33.62 26.5865 31.6945C26.8403 30.2233 27.3426 26.0337 27.4047 25.206C27.4092 25.1449 27.4257 25.0852 27.4533 25.0305C27.4809 24.9757 27.519 24.927 27.5655 24.8869C27.6119 24.8469 27.6658 24.8165 27.724 24.7973C27.7823 24.7781 27.8437 24.7706 27.9048 24.7752C27.966 24.7798 28.0256 24.7964 28.0803 24.8241C28.135 24.8517 28.1838 24.8899 28.2237 24.9364C28.2637 24.9829 28.2941 25.0368 28.3132 25.0951C28.3323 25.1533 28.3397 25.2148 28.335 25.2759C28.2703 26.1382 27.7697 30.3242 27.5058 31.8531C27.1119 34.1377 26.0937 35.174 23.749 35.6768C23.3905 35.7564 23.0246 35.7979 22.6573 35.8006V35.8006Z" fill="white"/>
<path d="M10.593 27.1918C10.3944 27.1913 10.1972 27.1586 10.009 27.0951C8.55195 26.6092 7.16732 24.2467 5.89351 20.0735C4.9257 16.9028 4.31259 13.592 4.25875 12.5156C4.09875 9.31675 4.9242 7.05247 6.71224 5.78571C8.21067 4.72416 10.3104 4.40178 12.9528 4.82726C14.1407 5.01903 15.3056 5.33331 16.4287 5.76506C16.4855 5.78819 16.5372 5.82229 16.5807 5.8654C16.6243 5.9085 16.659 5.95978 16.6827 6.01629C16.7065 6.0728 16.7189 6.13344 16.7192 6.19474C16.7195 6.25604 16.7077 6.3168 16.6845 6.37355C16.6613 6.43029 16.6272 6.48191 16.584 6.52545C16.5409 6.56899 16.4896 6.6036 16.433 6.6273C16.3765 6.65099 16.3158 6.66331 16.2545 6.66356C16.1932 6.6638 16.1325 6.65195 16.0758 6.6287C16.0074 6.60089 10.3601 4.34253 7.25 6.54815C5.74048 7.61862 5.04762 9.61069 5.19056 12.469C5.23577 13.3728 5.80751 16.5959 6.78584 19.8011C7.91654 23.5054 9.1989 25.8414 10.3042 26.2101C10.4738 26.2666 10.9896 26.4387 11.7366 25.5407C13.1717 23.8141 14.4901 22.436 14.5032 22.4223C14.5889 22.3333 14.7064 22.2819 14.8299 22.2794C14.9535 22.2769 15.0729 22.3235 15.1621 22.409C15.2513 22.4945 15.303 22.6119 15.3057 22.7354C15.3085 22.859 15.2621 22.9785 15.1768 23.0679C15.1638 23.0814 13.8671 24.4371 12.454 26.1372C11.776 26.9522 11.1245 27.1918 10.593 27.1918Z" fill="white"/>
<path d="M29.3637 23.5566C29.2791 23.5565 29.1961 23.5334 29.1236 23.4898C29.0511 23.4462 28.9919 23.3837 28.9522 23.309C28.9125 23.2342 28.8938 23.1501 28.8982 23.0657C28.9027 22.9812 28.93 22.8995 28.9772 22.8293C32.9879 16.8778 34.4014 9.69442 33.1997 8.15863C31.687 6.22573 29.5506 5.21538 26.8498 5.1557C25.5417 5.12934 24.2382 5.3174 22.9909 5.71242C22.8834 5.7707 22.7573 5.78464 22.6397 5.75127C22.522 5.71789 22.422 5.63984 22.3611 5.53377C22.3002 5.4277 22.2831 5.30203 22.3136 5.18357C22.3441 5.06511 22.4196 4.96324 22.5242 4.89972C22.6986 4.79421 24.5355 4.19601 26.7332 4.22071C29.7476 4.25269 32.2377 5.41559 33.9344 7.58364C34.3553 8.12146 34.5593 9.0017 34.5407 10.1999C34.5239 11.2913 34.3181 12.6305 33.9457 14.0724C33.1329 17.2191 31.604 20.601 29.751 23.3508C29.7083 23.4142 29.6506 23.4662 29.5831 23.5021C29.5155 23.538 29.4402 23.5567 29.3637 23.5566V23.5566Z" fill="white"/>
<path d="M29.5696 26.3154C28.8764 26.3155 28.2541 26.2176 27.8816 25.9944C27.4891 25.7594 27.4142 25.4382 27.4044 25.2676C27.3025 23.4787 28.2602 23.1242 28.7914 22.9711C28.7238 22.8742 28.6349 22.7631 28.5433 22.6487C28.2443 22.2751 27.8349 21.7635 27.5186 20.997C27.4703 20.8798 27.3165 20.604 27.1385 20.2847C26.1674 18.5432 24.1467 14.9193 25.4528 13.0523C26.0532 12.194 27.2375 11.8502 28.9788 12.0273C28.7473 11.3394 28.1671 10.064 27.0956 8.79773C25.8522 7.32842 23.6488 5.56513 20.2129 5.50881C18.4691 5.48001 17.0378 6.01521 15.9632 7.09905C13.5542 9.52867 13.6359 13.9501 13.637 13.9944C13.6401 14.118 13.594 14.2378 13.5088 14.3275C13.4236 14.4171 13.3064 14.4692 13.1828 14.4725C13.0591 14.4757 12.9393 14.4297 12.8496 14.3446C12.7599 14.2595 12.7076 14.1423 12.7043 14.0187C12.6991 13.8216 12.6082 9.16148 15.2975 6.44537C16.5583 5.17192 18.218 4.54338 20.2283 4.57591C23.9764 4.63738 26.3888 6.54269 27.7525 8.13023C29.2389 9.86052 29.9681 11.7719 30.0283 12.4107C30.0764 12.923 29.6827 13.0195 29.6377 13.0289L29.4695 13.0327C27.341 12.6919 26.5259 13.146 26.2173 13.5871C25.2461 14.9753 27.1432 18.3775 27.9533 19.8303C28.1615 20.2036 28.3119 20.4733 28.3812 20.6412C28.6465 21.2845 28.9932 21.7177 29.2717 22.0657C29.5195 22.3752 29.7344 22.6437 29.8134 22.9626C29.8542 23.0287 30.3721 23.734 33.2939 23.131C34.0616 22.9724 34.5236 23.1121 34.6672 23.5463C34.9444 24.385 33.4156 25.3506 32.5684 25.744C31.8142 26.094 30.6118 26.3154 29.5696 26.3154ZM28.3339 25.1776C28.4474 25.2701 28.9294 25.4205 29.8764 25.3762C30.7338 25.3359 31.6363 25.1481 32.1756 24.8978C32.6597 24.6819 33.1076 24.3928 33.5036 24.0404C33.4967 24.0418 33.4896 24.0432 33.4826 24.0447C31.5661 24.4403 30.2084 24.386 29.4473 23.8837C29.3998 23.8523 29.3564 23.8203 29.3168 23.7881C29.253 23.8103 29.1869 23.8288 29.1191 23.8479C28.6881 23.969 28.2807 24.0833 28.3339 25.1776Z" fill="white"/>
<path d="M15.9772 27.6396C15.4757 27.6364 14.9765 27.5716 14.4908 27.4467C14.3427 27.4098 13.0437 27.061 13.061 26.2305C13.0768 25.4704 14.1612 25.2469 14.5694 25.1627C16.0048 24.8672 16.0976 24.7493 16.5435 24.1833C16.6757 24.0154 16.8402 23.8065 17.0647 23.5557C17.811 22.7207 18.5148 23.0124 18.8154 23.137C19.287 23.3324 19.68 23.8039 19.8413 24.3674C19.9873 24.8773 19.9173 25.3688 19.6441 25.7512C18.7568 26.9937 17.4847 27.6394 15.9772 27.6396ZM14.0946 26.2739C14.286 26.3968 14.4963 26.4873 14.7171 26.5416C15.962 26.8531 17.6953 26.8745 18.8849 25.209C19.0258 25.0116 18.9827 24.7578 18.9444 24.6241C18.8633 24.341 18.6635 24.0839 18.4582 23.9989C18.205 23.8939 18.0654 23.836 17.7602 24.1777L17.7599 24.178C17.555 24.4069 17.407 24.5948 17.2764 24.7606C16.7069 25.4836 16.4462 25.7289 14.7577 26.0765C14.5299 26.1169 14.3074 26.1831 14.0946 26.2739V26.2739Z" fill="white"/>
<path d="M17.3452 24.3137C17.2338 24.3136 17.1262 24.2736 17.0417 24.201C16.9572 24.1284 16.9015 24.028 16.8846 23.9179C16.8751 23.8559 16.8684 23.7936 16.8644 23.731C15.7405 23.6919 14.6778 23.2094 13.9086 22.3891C12.8835 21.3195 12.4169 19.8379 12.6286 18.3241C12.8564 16.6951 12.7711 15.2567 12.7253 14.4839C12.7126 14.2681 12.7033 14.1122 12.704 14.0035C12.705 13.8612 12.7075 13.4836 13.9368 12.8604C14.3696 12.641 15.2371 12.2584 16.1854 12.1602C17.7671 11.9964 18.8105 12.702 19.123 14.1469C19.9572 18.0049 19.1886 19.7125 18.6274 20.9594C18.5235 21.1902 18.4254 21.4083 18.3471 21.6188L18.2775 21.8056C17.9836 22.5936 17.7298 23.2741 17.8069 23.7764C17.817 23.8429 17.8126 23.9108 17.7941 23.9755C17.7755 24.0401 17.7432 24.1 17.6994 24.1511C17.6555 24.2021 17.6012 24.243 17.54 24.2711C17.4789 24.2992 17.4124 24.3137 17.3452 24.3137L17.3452 24.3137ZM13.6406 14.1394C13.6441 14.2173 13.65 14.316 13.6567 14.4287C13.7044 15.2338 13.7932 16.7325 13.5526 18.4534C13.3808 19.6823 13.756 20.8815 14.5822 21.7435C14.8876 22.0711 15.2561 22.3335 15.6655 22.5149C16.075 22.6964 16.5169 22.7931 16.9647 22.7994C17.0856 22.3514 17.2321 21.9108 17.4034 21.4796L17.4725 21.2941C17.5617 21.0539 17.6661 20.8219 17.7766 20.5764C18.3129 19.3848 18.9804 17.9019 18.2111 14.3441C18.0625 13.6569 17.705 13.2575 17.1182 13.123C15.8325 12.8284 14.0296 13.7945 13.6406 14.1394H13.6406Z" fill="white"/>
<path d="M16.2084 13.9396C16.1868 14.0922 16.4878 14.4994 16.8802 14.5538C17.2719 14.6085 17.6073 14.2902 17.6285 14.1378C17.6498 13.9851 17.3492 13.817 16.9566 13.7624C16.5646 13.7077 16.2292 13.7873 16.2084 13.9396H16.2084Z" fill="white"/>
<path d="M16.9652 14.7151C16.9296 14.7152 16.894 14.7127 16.8587 14.7078C16.5914 14.6608 16.3528 14.512 16.193 14.2926C16.1328 14.2128 16.0348 14.0581 16.0543 13.9182C16.0603 13.8791 16.0742 13.8415 16.0952 13.8079C16.1161 13.7742 16.1436 13.7452 16.1761 13.7224C16.3315 13.6048 16.6388 13.561 16.9781 13.6083C17.3944 13.6663 17.8237 13.8634 17.7825 14.1591C17.7496 14.3953 17.3761 14.7151 16.9652 14.7151ZM16.3647 13.969C16.3886 14.0733 16.6115 14.3596 16.9015 14.3998C17.0125 14.41 17.1241 14.3898 17.2244 14.3414C17.3248 14.293 17.4101 14.2182 17.4712 14.1251C17.4375 14.0756 17.2578 13.9613 16.9351 13.9164C16.6171 13.872 16.4141 13.9306 16.3647 13.969H16.3647Z" fill="white"/>
<path d="M28.141 13.6283C28.1622 13.7809 27.8616 14.1881 27.4691 14.2426C27.0771 14.2972 26.7417 13.9789 26.7202 13.8265C26.6995 13.6738 27.0002 13.5057 27.3923 13.4511C27.7845 13.3964 28.1197 13.476 28.141 13.6283V13.6283Z" fill="white"/>
<path d="M27.381 14.3264C26.9948 14.3265 26.6686 14.0181 26.6432 13.8374C26.6116 13.6051 26.9907 13.4286 27.3815 13.3741C27.773 13.3197 28.1855 13.3858 28.2178 13.6177L28.2179 13.6176C28.2324 13.7218 28.1533 13.8821 28.0164 14.0259C27.8748 14.1803 27.6861 14.2835 27.4797 14.3196C27.447 14.3242 27.414 14.3265 27.381 14.3264ZM27.6354 13.5113C27.5576 13.5115 27.48 13.5172 27.403 13.5282C26.9935 13.5852 26.788 13.7483 26.7972 13.816C26.8119 13.9204 27.1071 14.214 27.4583 14.1656C27.6298 14.1344 27.7864 14.0476 27.9038 13.9187C28.0222 13.7943 28.0692 13.6784 28.0639 13.6391C28.0564 13.5855 27.9028 13.5113 27.6354 13.5113Z" fill="white"/>
<path d="M28.706 22.421C28.6215 22.4209 28.5387 22.3979 28.4663 22.3543C28.3939 22.3108 28.3346 22.2485 28.2949 22.1739C28.2551 22.0994 28.2364 22.0155 28.2406 21.9311C28.2448 21.8467 28.2718 21.7651 28.3188 21.6949C29.2302 20.3337 29.0629 18.941 28.901 17.5942C28.8315 17.0163 28.7597 16.4188 28.7784 15.844C28.8008 15.3251 28.8563 14.8081 28.9447 14.2963C29.0301 13.7416 29.1108 13.2176 29.0773 12.5974C29.0707 12.4738 29.1133 12.3527 29.196 12.2606C29.2786 12.1685 29.3945 12.1131 29.518 12.1064C29.6416 12.0997 29.7627 12.1424 29.8548 12.2251C29.9468 12.3077 30.0023 12.4235 30.009 12.5471C30.0477 13.264 29.9557 13.861 29.8668 14.4383C29.7846 14.9131 29.7325 15.3927 29.7109 15.874C29.6945 16.378 29.759 16.9147 29.8274 17.4828C30.001 18.9278 30.1978 20.5656 29.0941 22.214C29.0514 22.2778 28.9937 22.33 28.926 22.3661C28.8583 22.4022 28.7827 22.4211 28.706 22.421V22.421Z" fill="white"/>
</svg>
