<svg id="sources/REDSHIFT" viewBox="0 0 40 40" fill="none" xmlns="http://www.w3.org/2000/svg">
<path d="M36.6666 3.33325H3.33325V36.6666H36.6666V3.33325Z" fill="url(#paint0_linear_1031_40831)"/>
<path fill-rule="evenodd" clip-rule="evenodd" d="M24.9267 17.9889C24.4867 17.9889 24.1275 17.6313 24.1275 17.1914C24.1275 16.7506 24.4867 16.393 24.9267 16.393C25.3675 16.393 25.7267 16.7506 25.7267 17.1914C25.7267 17.6313 25.3675 17.9889 24.9267 17.9889ZM22.8992 22.8442C22.4592 22.8442 22.1 22.4866 22.1 22.0458C22.1 21.6059 22.4592 21.2483 22.8992 21.2483C23.3408 21.2483 23.6992 21.6059 23.6992 22.0458C23.6992 22.4866 23.3408 22.8442 22.8992 22.8442ZM18.0342 22.035C17.5942 22.035 17.2358 21.6774 17.2358 21.2366C17.2358 20.7967 17.5942 20.439 18.0342 20.439C18.4758 20.439 18.8342 20.7967 18.8342 21.2366C18.8342 21.6774 18.4758 22.035 18.0342 22.035ZM16.0083 26.4853C15.5675 26.4853 15.2083 26.1277 15.2083 25.6877C15.2083 25.2478 15.5675 24.8893 16.0083 24.8893C16.4483 24.8893 16.8075 25.2478 16.8075 25.6877C16.8075 26.1277 16.4483 26.4853 16.0083 26.4853ZM24.9267 15.5613C24.0267 15.5613 23.2942 16.2923 23.2942 17.1914C23.2942 17.7419 23.5708 18.2276 23.9917 18.5229L23.2308 20.4499C23.1233 20.4282 23.0125 20.4166 22.8992 20.4166C22.1833 20.4166 21.5808 20.8823 21.3617 21.5235L19.6575 21.1368C19.6042 20.2852 18.9017 19.6074 18.0342 19.6074C17.1342 19.6074 16.4025 20.3384 16.4025 21.2366C16.4025 21.6566 16.5667 22.0367 16.8283 22.3253L16.085 24.066C16.0583 24.0643 16.0342 24.0576 16.0083 24.0576C15.1075 24.0576 14.375 24.7887 14.375 25.6877C14.375 26.5859 15.1075 27.317 16.0083 27.317C16.9083 27.317 17.6408 26.5859 17.6408 25.6877C17.6408 25.1105 17.3375 24.6065 16.8842 24.3163L17.54 22.7819C17.6967 22.8318 17.8608 22.8667 18.0342 22.8667C18.6767 22.8667 19.2275 22.4916 19.4942 21.9527L21.2983 22.3619C21.4467 23.1095 22.1075 23.6759 22.8992 23.6759C23.8 23.6759 24.5325 22.9449 24.5325 22.0458C24.5325 21.5601 24.315 21.1285 23.975 20.8299L24.7742 18.8048C24.8258 18.8098 24.875 18.8206 24.9267 18.8206C25.8275 18.8206 26.56 18.0896 26.56 17.1914C26.56 16.2923 25.8275 15.5613 24.9267 15.5613ZM20.4167 30.8349C16.3625 30.8349 13.3333 29.6182 13.3333 28.5304V12.9914C14.7192 14.1067 17.6275 14.6989 20.4167 14.6989C23.2058 14.6989 26.1142 14.1067 27.5 12.9914V28.5304C27.5 29.6182 24.4708 30.8349 20.4167 30.8349ZM20.4167 9.16492C24.5908 9.16492 27.5 10.4033 27.5 11.5161C27.5 12.628 24.5908 13.8672 20.4167 13.8672C16.2425 13.8672 13.3333 12.628 13.3333 11.5161C13.3333 10.4033 16.2425 9.16492 20.4167 9.16492ZM28.3333 11.5161C28.3333 9.44852 24.2542 8.33325 20.4167 8.33325C16.5783 8.33325 12.5 9.44852 12.5 11.5161C12.5 11.5194 12.5017 11.5227 12.5017 11.526H12.5V28.5304C12.5 30.5671 16.5783 31.6666 20.4167 31.6666C24.2542 31.6666 28.3333 30.5671 28.3333 28.5304V11.526H28.3317C28.3317 11.5227 28.3333 11.5194 28.3333 11.5161Z" fill="white"/>
<defs>
<linearGradient id="paint0_linear_1031_40831" x1="3.33325" y1="36.6666" x2="36.6666" y2="3.33325" gradientUnits="userSpaceOnUse">
<stop stop-color="#4D27A8"/>
<stop offset="1" stop-color="#A166FF"/>
</linearGradient>
</defs>
</svg>
