<?xml version="1.0" encoding="UTF-8"?>
<!--

    Copyright (C) 2017-2019 Dremio Corporation

    Licensed under the Apache License, Version 2.0 (the "License");
    you may not use this file except in compliance with the License.
    You may obtain a copy of the License at

        http://www.apache.org/licenses/LICENSE-2.0

    Unless required by applicable law or agreed to in writing, software
    distributed under the License is distributed on an "AS IS" BASIS,
    WITHOUT WARRANTIES OR CONDITIONS OF ANY KIND, either express or implied.
    See the License for the specific language governing permissions and
    limitations under the License.

-->
<svg id="sources/RESTCATALOG" viewBox="0 0 48 48" xmlns="http://www.w3.org/2000/svg">
  <path d="M33.9702 11.1772C35.2492 12.6061 35.8163 14.385 36.2223 16.1774C38.3088 25.4086 32.7607 34.2839 23.5157 36.2705C13.412 38.4418 4.82904 31.3857 3.54026 22.5469C2.96927 18.9125 3.62341 15.1913 5.40003 11.9696C5.56373 11.6676 5.67091 11.3061 6.05027 11.1715L10.8215 11.2503L9.19427 14.6909C9.19427 14.8088 9.19427 14.9267 9.19427 15.0447C10.3694 18.4544 12.5598 21.2565 14.6385 24.1239C14.8619 25.3412 14.6963 26.624 15.2387 27.7875C16.7542 29.4991 18.269 31.212 19.7832 32.9261C19.8949 33.0531 20.0294 33.1339 20.1678 32.9454C20.8602 32.5223 21.0622 31.7454 21.4448 31.1126C22.314 29.6818 23.2585 28.2895 23.9451 26.7529L24.1562 26.4183C25.0065 26.0874 25.5431 25.3259 26.2953 24.8624C26.5467 24.7243 26.752 24.5151 26.8858 24.261C27.0196 24.007 27.0755 23.7192 27.0469 23.4335C27.0027 21.9969 27.0313 20.5488 27.0293 19.1179C27.3704 18.7809 27.6913 18.4245 27.9914 18.0506C28.7241 17.0217 29.8778 16.3198 30.3085 15.062C30.3845 15.0719 30.4618 15.0589 30.5306 15.0246C30.5988 14.9904 30.6553 14.9364 30.693 14.8697C30.997 14.4082 30.6703 14.0216 30.5378 13.6158C30.2838 12.835 29.7972 12.1311 29.7472 11.2811L33.9702 11.1772Z" fill="#287ABE"/>
  <path d="M10.8235 11.2502L6.05225 11.1713C6.68105 9.53474 7.925 8.36354 9.20989 7.28658C11.4211 5.43074 13.9577 4.14991 16.8218 3.63259C21.8028 2.74601 26.3337 3.8249 30.3436 6.92887C31.8376 8.08276 33.1933 9.39051 33.9741 11.1713L29.7433 11.2636L26.2817 11.2213V10.054L28.7625 10.0405L28.843 9.99629L28.7644 9.86553C28.3467 9.45608 27.8479 9.13863 27.2996 8.93361C26.752 8.72858 26.1674 8.64052 25.5834 8.6751C22.1718 8.75586 18.7582 8.70779 15.3465 8.70009C14.15 8.70009 13.1542 9.21165 12.1947 9.84435C11.31 9.88281 11.2944 10.6386 11.0658 11.2156L10.8235 11.2502Z" fill="#B8E1F2"/>
  <path d="M9.19421 15.0406C9.19421 14.9226 9.19421 14.8047 9.19421 14.6868C11.1884 14.0944 13.0196 13.1098 14.8963 12.2443C15.4907 11.9693 16.3098 11.9924 16.6274 11.2308C17.7694 11.2789 18.9348 11.0385 20.056 11.3808C20.0651 14.0732 20.0742 16.7721 20.0832 19.4773H19.9066C17.7155 18.5407 15.5407 17.5676 13.3308 16.6811C11.9595 16.1368 10.7039 15.2675 9.19421 15.0406Z" fill="#B6E0F2"/>
  <path d="M9.19421 15.0407C10.7019 15.2657 11.9576 16.1331 13.3366 16.687C15.5465 17.5735 17.7214 18.5466 19.9118 19.4832C19.737 20.3044 18.9237 20.5006 18.4119 20.9833C17.2446 22.0871 15.8486 22.9275 14.7352 24.0987C14.7047 24.1125 14.6722 24.1204 14.6391 24.1218C12.5617 21.2544 10.3713 18.4543 9.19421 15.0407Z" fill="#90D4F0"/>
  <path d="M27.0313 19.1099C27.0313 20.5484 27.0047 21.9946 27.0488 23.4255C27.0774 23.7112 27.0215 23.9989 26.8877 24.253C26.7539 24.5071 26.5486 24.7162 26.2973 24.8544C25.545 25.3178 25.0085 26.0794 24.1582 26.4102C23.2507 25.2563 22.6855 23.8793 21.8716 22.6677C21.3182 21.8446 21.0889 20.7831 20.1411 20.2446C20.1411 20.0625 20.1444 19.8805 20.1509 19.6984L20.5179 19.5061C20.6835 19.71 20.9161 19.683 21.1311 19.6638C23.0941 19.4843 25.0611 19.2997 27.0313 19.1099Z" fill="#4D8AC8"/>
  <path d="M15.2388 27.7893C14.6964 26.6239 14.8542 25.3431 14.6405 24.1239C14.6743 24.1224 14.7068 24.1146 14.7366 24.1008C16.4678 24.1739 18.1983 24.2181 19.9178 24.4854C19.9178 25.8316 19.9145 27.1778 19.908 28.524C19.5611 28.5106 19.2155 28.4733 18.8739 28.4125C17.6585 28.224 16.4853 27.7932 15.2388 27.7893Z" fill="#B6E0F2"/>
  <path d="M19.9066 28.5221C19.9066 27.1759 19.9092 25.8297 19.9157 24.4835C20.3139 23.0872 19.9774 21.6526 20.1333 20.2526C21.083 20.791 21.3143 21.8545 21.8638 22.6757C22.6797 23.8892 23.2429 25.2585 24.151 26.4182L23.9393 26.7528L20.0716 28.5317C20.0164 28.534 19.9612 28.5308 19.9066 28.5221Z" fill="#58AFDD"/>
  <path d="M26.272 11.2271L29.7336 11.2693C29.7836 12.1194 30.2702 12.8233 30.5242 13.6041C30.6567 14.0118 30.9834 14.3964 30.6801 14.8579C30.6041 14.8519 30.5287 14.8666 30.4605 14.9005C30.393 14.9344 30.3358 14.9862 30.2949 15.0503C29.5738 15.1849 28.9489 15.5676 28.2967 15.8599C27.6452 16.1522 27.0664 16.6407 26.2947 16.6195C26.2947 14.8349 26.2921 13.0508 26.2856 11.2675L26.272 11.2271Z" fill="#4D8AC8"/>
  <path d="M26.2986 16.6215C27.0684 16.6427 27.6452 16.1522 28.3006 15.8619C28.9567 15.5714 29.5777 15.1868 30.2987 15.0522C29.8661 16.3118 28.7144 17.0119 27.9817 18.0408C27.6816 18.4147 27.3607 18.7711 27.0203 19.1081C25.052 19.294 23.0838 19.4793 21.1162 19.6639C20.9005 19.6831 20.668 19.7101 20.5023 19.5063C21.8619 18.8773 23.2312 18.2696 24.5759 17.61C25.1716 17.3215 25.8621 17.185 26.2986 16.6215Z" fill="#266FA8"/>
  <path d="M19.9065 28.5221C19.963 28.528 20.0201 28.528 20.0773 28.5221C20.1078 29.994 20.1384 31.4684 20.1676 32.9453C20.0292 33.1377 19.8967 33.0511 19.783 32.9261C18.2663 31.2171 16.7514 29.5067 15.2385 27.7951C16.4831 27.7951 17.6563 28.2298 18.8717 28.4183C19.2134 28.4765 19.5596 28.5112 19.9065 28.5221Z" fill="#90D4F0"/>
  <path d="M16.6352 11.2347C16.3098 12.004 15.4907 11.9732 14.9041 12.2481C13.0274 13.1136 11.1963 14.0982 9.20203 14.6906L10.8312 11.2501L11.0696 11.2193L16.6352 11.2347Z" fill="#90D4F0"/>
  <path d="M20.1658 32.9394C20.1366 31.4675 20.1061 29.9932 20.0756 28.5161L23.9432 26.7372C23.2566 28.2758 22.3121 29.6662 21.4429 31.097C21.0701 31.7374 20.8583 32.5144 20.1658 32.9394Z" fill="#266FA8"/>
  <path d="M30.3007 15.0561C30.3416 14.992 30.3987 14.9402 30.4663 14.9063C30.5345 14.8724 30.6099 14.8577 30.6859 14.8637C30.6482 14.9305 30.591 14.9844 30.5228 15.0187C30.454 15.053 30.3767 15.066 30.3007 15.0561Z" fill="#266FA8"/>
  <path d="M12.189 9.8483C13.1504 9.21562 14.1449 8.69444 15.3408 8.70406C18.7543 8.70406 22.1679 8.75983 25.5776 8.67906C26.1622 8.6442 26.7482 8.73229 27.2964 8.93767C27.8453 9.14304 28.3442 9.46113 28.7625 9.87143C28.7625 9.93041 28.7625 9.98939 28.7625 10.0483L26.2623 10.0618H13.3966C12.9815 10.0618 12.5618 10.0868 12.189 9.8483Z" fill="#F4FAFD"/>
  <path d="M12.1889 9.84816C12.5618 10.0867 12.9814 10.0597 13.3965 10.0597H26.2622V11.2271L26.2778 11.2694L20.0639 11.3867C18.9329 11.0463 17.7773 11.2848 16.6353 11.2367L11.058 11.2233C11.2905 10.6425 11.3042 9.88669 12.1889 9.84816Z" fill="#E9F6FD"/>
  <path d="M28.7625 10.0407C28.7625 9.98172 28.7625 9.92274 28.7625 9.86376L28.8411 9.99452L28.7625 10.0407Z" fill="#E9F6FD"/>
  <path d="M20.0637 11.3866L26.2894 11.2732C26.2894 13.0578 26.2926 14.8419 26.2985 16.6253C25.8619 17.1888 25.1734 17.3254 24.5836 17.6157C23.237 18.2754 21.8696 18.8831 20.51 19.5119L20.143 19.7043L20.091 19.4869L20.0637 11.3866Z" fill="#68C1EA"/>
</svg>
