<svg id="sources/SNOWFLAKE" viewBox="0 0 40 40" fill="none" xmlns="http://www.w3.org/2000/svg">
<path d="M8.93101 11.6491L15.435 15.5491C15.7952 15.7655 16.218 15.8537 16.6347 15.7991C17.0513 15.7445 17.4372 15.5505 17.7295 15.2486C17.9248 15.0603 18.0799 14.8344 18.1853 14.5845C18.2908 14.3345 18.3444 14.0658 18.343 13.7946V5.97807C18.356 5.63571 18.2765 5.29617 18.1127 4.99523C17.9489 4.69429 17.7071 4.44308 17.4125 4.26807C17.118 4.09306 16.7818 4.00069 16.4393 4.00069C16.0967 4.00069 15.7605 4.09306 15.466 4.26807C15.1715 4.44308 14.9296 4.69429 14.7658 4.99523C14.6021 5.29617 14.5225 5.63571 14.5355 5.97807V10.4261L10.842 8.21107C10.6242 8.08179 10.3827 7.99748 10.1318 7.96313C9.88083 7.92878 9.62555 7.94508 9.38101 8.01107C8.88801 8.14357 8.47201 8.48107 8.23101 8.93307C7.70251 9.88307 8.01101 11.0731 8.93101 11.6441M24.566 15.5441L31.07 11.6441C31.99 11.0726 32.299 9.87757 31.77 8.93207C31.6504 8.70898 31.4868 8.51242 31.2892 8.35424C31.0916 8.19606 30.8639 8.07954 30.6201 8.0117C30.3762 7.94386 30.1211 7.92611 29.8702 7.95951C29.6192 7.99292 29.3777 8.07679 29.16 8.20607L25.51 10.3911V5.97107C25.5193 5.71526 25.4769 5.46021 25.3854 5.22114C25.2939 4.98208 25.1552 4.7639 24.9775 4.57965C24.7998 4.3954 24.5868 4.24885 24.3512 4.14875C24.1156 4.04866 23.8622 3.99707 23.6063 3.99707C23.3503 3.99707 23.0969 4.04866 22.8613 4.14875C22.6258 4.24885 22.4127 4.3954 22.2351 4.57965C22.0574 4.7639 21.9186 4.98208 21.8271 5.22114C21.7356 5.46021 21.6932 5.71526 21.7025 5.97107V13.6326C21.6634 14.043 21.7495 14.4556 21.9495 14.8161C22.1905 15.2676 22.6065 15.6011 23.0995 15.7381C23.3438 15.8064 23.5995 15.8239 23.8507 15.7895C24.102 15.7551 24.3436 15.6695 24.5605 15.5381M18.777 19.9851C18.7835 19.8601 18.831 19.7351 18.913 19.6451L19.673 18.8551C19.763 18.7713 19.8793 18.7215 20.002 18.7141H20.0305C20.153 18.7213 20.269 18.7712 20.3585 18.8551L21.1185 19.6451C21.2008 19.7401 21.2487 19.86 21.2545 19.9856V20.0156C21.2485 20.1414 21.2006 20.2616 21.1185 20.3571L20.3585 21.1471C20.2694 21.2317 20.1532 21.282 20.0305 21.2891H20.002C19.879 21.2821 19.762 21.2316 19.673 21.1471L18.913 20.3571C18.8309 20.2616 18.783 20.1414 18.777 20.0156V19.9851ZM16.475 19.6601V20.3421C16.4835 20.5135 16.5489 20.6771 16.661 20.8071L19.241 23.4856C19.3627 23.6007 19.5213 23.669 19.6885 23.6786H20.3445C20.5118 23.669 20.6703 23.6007 20.792 23.4856L23.372 20.8071C23.4841 20.6771 23.5496 20.5135 23.558 20.3421V19.6601C23.5496 19.4887 23.4841 19.325 23.372 19.1951L20.792 16.5166C20.6703 16.4015 20.5118 16.3331 20.3445 16.3236H19.6885C19.5213 16.3331 19.3627 16.4015 19.241 16.5166L16.661 19.2001C16.5493 19.3302 16.4838 19.4938 16.475 19.6651M5.56601 17.8101L9.24851 20.0186L5.56601 22.2251C5.12342 22.5008 4.80389 22.9362 4.67366 23.4411C4.54343 23.946 4.61249 24.4817 4.86651 24.9371C4.98597 25.1605 5.14946 25.3573 5.34712 25.5158C5.54477 25.6743 5.77248 25.791 6.01651 25.8591C6.50951 25.9961 7.03751 25.9256 7.47751 25.6631L13.9815 21.7631C14.5815 21.3821 14.9315 20.7241 14.9315 20.0171C14.9315 19.6699 14.8445 19.3282 14.6786 19.0232C14.5126 18.7183 14.273 18.4597 13.9815 18.2711L7.47751 14.3711C7.25971 14.2418 7.01821 14.1575 6.76727 14.1231C6.51633 14.0888 6.26105 14.1051 6.01651 14.1711C5.52351 14.3036 5.10751 14.6411 4.86651 15.0931C4.33801 16.0431 4.64651 17.2321 5.56651 17.8041M25.064 20.0251C25.0583 20.3729 25.1433 20.7162 25.3108 21.0211C25.4783 21.3259 25.7224 21.5819 26.019 21.7636L32.519 25.6636C32.959 25.9256 33.486 25.9966 33.979 25.8596C34.472 25.7226 34.8875 25.3896 35.129 24.9381C35.3843 24.4829 35.4539 23.9468 35.3235 23.4415C35.1931 22.9363 34.8727 22.5008 34.429 22.2261L30.751 20.0191L34.4335 17.8106C35.3535 17.2391 35.662 16.0456 35.1335 15.0996C35.0143 14.876 34.8509 14.679 34.6532 14.5205C34.4555 14.362 34.2277 14.2453 33.9835 14.1776C33.49 14.0406 32.9625 14.1106 32.5235 14.3776L26.0235 18.2776C25.7247 18.4606 25.4791 18.7189 25.3115 19.0266C25.1439 19.3344 25.0601 19.6807 25.0685 20.0311M16.741 24.2541C16.2921 24.1674 15.8271 24.2501 15.4355 24.4861L8.93151 28.3861C8.01151 28.9576 7.70351 30.1511 8.23151 31.0971C8.47301 31.5486 8.88851 31.8821 9.38151 32.0186C9.62565 32.0863 9.88098 32.1039 10.1321 32.0702C10.3832 32.0365 10.6249 31.9523 10.8425 31.8226L14.536 29.6076V34.0226C14.5258 34.2789 14.5675 34.5346 14.6586 34.7745C14.7497 35.0143 14.8883 35.2332 15.066 35.4182C15.2438 35.6032 15.4571 35.7503 15.6931 35.8508C15.9291 35.9513 16.183 36.0032 16.4395 36.0032C16.696 36.0032 16.9499 35.9513 17.186 35.8508C17.422 35.7503 17.6353 35.6032 17.813 35.4182C17.9908 35.2332 18.1293 35.0143 18.2204 34.7745C18.3115 34.5346 18.3532 34.2789 18.343 34.0226V26.2001C18.3498 25.7378 18.1925 25.2882 17.8991 24.9309C17.6057 24.5736 17.1952 24.3319 16.7405 24.2486M31.0705 28.3866L24.5665 24.4866C24.3489 24.3569 24.1072 24.2727 23.8561 24.239C23.605 24.2053 23.3497 24.2228 23.1055 24.2906C22.8614 24.3583 22.6336 24.4749 22.4359 24.6333C22.2382 24.7917 22.0748 24.9886 21.9555 25.2121C21.7555 25.5731 21.6694 25.9862 21.7085 26.3971V34.0221C21.6983 34.2784 21.74 34.5341 21.8311 34.774C21.9222 35.0138 22.0608 35.2327 22.2385 35.4177C22.4163 35.6027 22.6296 35.7498 22.8656 35.8503C23.1016 35.9508 23.3555 36.0027 23.612 36.0027C23.8685 36.0027 24.1224 35.9508 24.3585 35.8503C24.5945 35.7498 24.8078 35.6027 24.9855 35.4177C25.1633 35.2327 25.3019 35.0138 25.3929 34.774C25.484 34.5341 25.5257 34.2784 25.5155 34.0221V29.6401L29.159 31.8251C29.3768 31.9544 29.6183 32.0387 29.8693 32.073C30.1202 32.1074 30.3755 32.0911 30.62 32.0251C31.113 31.8926 31.529 31.5551 31.77 31.1031C32.2985 30.1531 31.99 28.9631 31.07 28.3921" fill="#29B5E8"/>
</svg>
