<svg xmlns="http://www.w3.org/2000/svg" id="sources/SNOWFLAKE" data-name="Layer 1" viewBox="0 0 300 300">
  <g fill="#31bef0">
    <path d="M128 106a18.49 18.49 0 0 0 5.66-13.83v-72.3a18.24 18.24 0 0 0-36.47 0v41.49L62 40.61c-8.8-5.65-20.12-3.14-25.15 5.66-5.66 8.8-3.14 20.12 5.66 25.15.63 0 .63.63 1.26.63l62.86 36.46c6.29 4.4 15.72 3.14 21.38-2.52ZM101 150c0-6.92-3.14-13.2-9.43-16.35l-62.9-36.46c-8.8-5.66-20.12-3.14-25.15 5.66C-2.14 111.65.38 123 9.18 128c.63 0 .63.63 1.26.63l35.83 20.75-35.83 20.74c-8.8 5-12.58 15.71-7.55 25.15s15.72 12.57 25.11 7.54h1.25l62.87-36.46c5.66-3.15 8.8-9.43 8.8-16.35ZM133.66 207.21v72.92a18.24 18.24 0 0 1-36.47 0v-40.86L61.36 260c-8.8 5.65-20.12 3.14-25.15-5.66-5.66-8.8-3.14-20.12 5.66-25.15.63 0 .63-.63 1.26-.63L106 192.12a18.89 18.89 0 0 1 25.77 7.54c1.26 1.89 2.51 5 1.89 7.55ZM166.34 209.1v71a18.24 18.24 0 0 0 36.47 0v-40.83L238 259.39c8.8 5.65 20.12 3.14 25.15-5.66 5.66-8.81 3.14-20.12-5.66-25.15-.63 0-.63-.63-1.26-.63l-62.86-36.46a18.5 18.5 0 0 0-25.15 6.92c-1.26 3.14-2.51 7.54-1.89 10.69ZM199 150c0-6.92 3.14-13.2 9.43-16.35l62.86-36.46c8.8-5.66 20.12-3.14 25.15 5.66 5.66 8.8 3.14 20.12-5.66 25.14-.63 0-.63.63-1.26.63l-35.83 20.75 35.83 20.75c8.81 5 12.58 15.71 7.55 25.14-5 8.8-15.72 12.57-25.15 7.54-.63 0-.63-.62-1.26-.62l-62.86-36.47A15.56 15.56 0 0 1 199 150ZM166.34 90.91v-71a18.24 18.24 0 0 1 36.47 0v40.82L238 40.61c8.8-5.65 20.12-3.14 25.15 5.66 5.66 8.8 3.14 20.12-5.66 25.15-.63 0-.63.62-1.26.62l-62.86 36.47a18.51 18.51 0 0 1-25.15-6.92c-1.26-3.14-2.51-6.91-1.89-10.68ZM182.06 142.46l-24.52-25.15a5.68 5.68 0 0 0-4.4-1.89h-6.28a5.68 5.68 0 0 0-4.4 1.89l-25.15 25.15a5.68 5.68 0 0 0-1.89 4.39v6.29a5.68 5.68 0 0 0 1.89 4.4l25.15 25.15a5.68 5.68 0 0 0 4.4 1.89h6.28a5.68 5.68 0 0 0 4.4-1.89l25.15-25.15a11.63 11.63 0 0 0 1.26-4.4v-6.29a5.68 5.68 0 0 0-1.89-4.39Zm-20.75 10.69-7.54 7.54a4.54 4.54 0 0 1-6.28 0l-7.55-7.54a4.81 4.81 0 0 1-1.26-3.15 4.76 4.76 0 0 1 1.26-3.14l7.55-7.55a4.54 4.54 0 0 1 6.28 0l7.54 7.55a4.76 4.76 0 0 1 1.26 3.14 4.81 4.81 0 0 1-1.26 3.15Z" class="cls-1"/>
  </g>
</svg>
