<svg id="sources/TERADATA" viewBox="0 0 40 40" fill="none" xmlns="http://www.w3.org/2000/svg">
<g clip-path="url(#clip0_1031_41264)">
<path d="M10.4889 20.9391H7.0833C7.19996 21.5835 7.65552 21.978 8.20552 21.978C8.55552 21.978 8.99441 21.9335 9.31663 21.3835L10.3722 21.6057C9.97774 22.5391 9.17774 22.9891 8.19996 22.9891C6.9333 22.9891 5.90552 22.028 5.90552 20.6224C5.90552 19.2169 6.93885 18.2446 8.21663 18.2446C9.41107 18.2446 10.4389 19.1669 10.4833 20.5335V20.9391H10.4889ZM7.11663 20.1057H9.27774C9.12774 19.5335 8.69441 19.278 8.22218 19.278C7.77218 19.2835 7.26107 19.5502 7.11663 20.1057" fill="#3D4952"/>
<path d="M23.1165 22.8612H21.9332V22.4779C21.5721 22.8112 21.0832 23.0001 20.4554 23.0001C19.3165 23.0001 18.261 22.039 18.261 20.6334C18.261 19.2279 19.3165 18.2556 20.4554 18.2556C21.0832 18.2556 21.5777 18.4445 21.9332 18.7779V16.6667H23.1165V22.8612ZM21.9332 20.6279C21.9332 19.8001 21.2943 19.2834 20.661 19.2834C19.9443 19.2834 19.4054 19.8056 19.4054 20.6279C19.4054 21.4556 19.9443 21.9612 20.661 21.9612C21.2999 21.9612 21.9332 21.4501 21.9332 20.6279Z" fill="#3D4952"/>
<path d="M32.7999 18.3945H31.1666V19.3834H32.7999C33.2555 19.3834 33.561 19.5779 33.561 20.0279V20.1001H32.2722C31.1444 20.1001 30.4944 20.6723 30.4944 21.5334C30.4944 22.4112 31.1777 22.9945 32.1999 22.9945C32.811 22.9945 33.2555 22.789 33.561 22.4945V22.8612H34.6944V19.939C34.6944 18.8723 33.9444 18.4168 32.7999 18.3945V18.3945ZM33.561 21.0501C33.561 21.6223 33.0166 22.0556 32.3888 22.0556C31.9333 22.0556 31.6277 21.839 31.6277 21.5112C31.6277 21.2056 31.8777 21.0001 32.2555 21.0001H33.5666V21.0501H33.561Z" fill="#3D4952"/>
<path d="M25.8056 18.3945H24.1722V19.3834H25.8056C26.2611 19.3834 26.5667 19.5779 26.5667 20.0279V20.1001H25.2778C24.15 20.1001 23.5 20.6723 23.5 21.5334C23.5 22.4112 24.1833 22.9945 25.2056 22.9945C25.8167 22.9945 26.2611 22.789 26.5667 22.4945V22.8612H27.6944V19.939C27.6944 18.8723 26.9444 18.4168 25.8056 18.3945V18.3945ZM26.5667 21.0501C26.5667 21.6223 26.0222 22.0556 25.3944 22.0556C24.9389 22.0556 24.6333 21.839 24.6333 21.5112C24.6333 21.2056 24.8833 21.0001 25.2611 21.0001H26.5722V21.0501H26.5667Z" fill="#3D4952"/>
<path d="M15.9667 18.3945H14.3334V19.3834H15.9667C16.4222 19.3834 16.7278 19.5779 16.7278 20.0279V20.1001H15.4389C14.3111 20.1001 13.6611 20.6723 13.6611 21.5334C13.6611 22.4112 14.3445 22.9945 15.3667 22.9945C15.9778 22.9945 16.4222 22.789 16.7278 22.4945V22.8612H17.8611V19.939C17.8611 18.8723 17.1111 18.4168 15.9667 18.3945V18.3945ZM16.7278 21.0501C16.7278 21.6223 16.1834 22.0556 15.5556 22.0556C15.1 22.0556 14.7945 21.839 14.7945 21.5112C14.7945 21.2056 15.0445 21.0001 15.4222 21.0001H16.7334V21.0501H16.7278Z" fill="#3D4952"/>
<path d="M13.7 18.3889C12.9722 18.3889 12.4556 18.6777 12.0945 19.2V18.3833H10.9111V22.8555H12.0945V21.4111C12.0945 20.1666 12.5945 19.3833 13.6889 19.3833H13.7445V18.3889C13.7278 18.3889 13.7167 18.3889 13.7 18.3889" fill="#3D4952"/>
<path d="M5.68325 21.778C5.50547 21.8446 5.31659 21.8891 5.17214 21.8891C4.7777 21.8891 4.51659 21.6557 4.51659 21.1168V19.3502H5.7277V18.3835H4.51659V17.2891H3.33325V19.3557V21.2113C3.33325 22.4391 4.03325 22.9946 5.08881 22.9946C5.46103 22.9946 5.82214 22.9168 6.2777 22.6668C6.03881 22.4224 5.81103 22.1224 5.68325 21.778Z" fill="#3D4952"/>
<path d="M30.1221 21.878C30.0721 21.8835 30.0277 21.8891 29.9888 21.8891C29.5943 21.8891 29.3332 21.6557 29.3332 21.1168V19.3502H30.5777V18.3835H29.3332V17.2891H28.1499V19.3557V21.2113C28.1499 22.4391 28.8499 22.9946 29.9055 22.9946C30.1666 22.9946 30.3943 22.9557 30.6666 22.8502C30.3166 22.6002 30.1832 22.1891 30.1221 21.878" fill="#3D4952"/>
<path d="M36.6666 22.1779C36.6666 22.6001 36.3444 22.9279 35.8889 22.9279C35.4389 22.9279 35.1111 22.6057 35.1111 22.1779C35.1111 21.7724 35.4333 21.4224 35.8889 21.4224C36.3444 21.4224 36.6666 21.7779 36.6666 22.1779Z" fill="#F06F37"/>
</g>
<defs>
<clipPath id="clip0_1031_41264">
<rect width="33.3333" height="6.33333" fill="white" transform="translate(3.33325 16.6667)"/>
</clipPath>
</defs>
</svg>
