<svg id="sources/VAST"  xmlns="http://www.w3.org/2000/svg" viewBox="0 0 48 48" >
  <style type="text/css">
    .st0{fill:#1FD9FE;}
  </style>
  <g>
    <g>
      <path d="M14.3,23.9c-0.8,0.5-1.9,0.3-2.5-0.6L0.5,4.6C-0.5,3.1,0,0.8,2.1,0c0.1,0,0.1,0,0.2,0h12c1,0,1.8,0.9,1.8,1.9v2.2
			c0,1-0.8,1.8-1.8,1.8h-3H8.1l8.6,14.3c0.5,0.8,0.3,1.9-0.6,2.5L14.3,23.9z">
      </path>
      <path class="st0" d="M22.7,5.9c-1,0-1.7-0.8-1.8-1.8l0-1.9c0-1.5,1.2-2.1,2.7-2.1l21.8,0c1.8,0,3.2,1.6,2.8,3.8
			c0,0.1,0,0.1-0.1,0.2l-6,10c-0.5,0.8-1.6,1.1-2.4,0.6l-2-1.2c-0.8-0.5-1.1-1.6-0.5-2.4l3.1-5.1L22.7,5.9z">
      </path>
      <path d="M32.9,18.1c0.5-0.8,1.6-1.1,2.4-0.6l1.7,1c1.3,0.8,1.2,2.1,0.4,3.4l-11,18.3c-0.9,1.5-2.7,1.9-4.4,0.4
			c0,0-0.1-0.1-0.1-0.2l-6-10.1c-0.4-0.9-0.1-1.9,0.8-2.3l2-1.1c0.9-0.4,1.9-0.1,2.4,0.8l3,5.1L32.9,18.1z">
      </path>
    </g>
  </g>
</svg>
