<svg id="settings/queue" viewBox="0 0 24 24" fill="none" xmlns="http://www.w3.org/2000/svg">
<path fill-rule="evenodd" clip-rule="evenodd" d="M8.91024 5.2687C8.58375 3.9653 7.40461 3 6 3C4.34315 3 3 4.34315 3 6C3 7.57289 4.21046 8.86306 5.75066 8.98979V14.2314C5.75066 15.4249 6.22477 16.5695 7.06868 17.4134C7.91259 18.2573 9.05719 18.7314 10.2507 18.7314H11.9407L11.2511 19.421C11.1774 19.4896 11.1183 19.5724 11.0773 19.6644C11.0363 19.7564 11.0143 19.8557 11.0125 19.9564C11.0107 20.0571 11.0293 20.1572 11.067 20.2506C11.1047 20.3439 11.1609 20.4288 11.2321 20.5C11.3033 20.5712 11.3881 20.6274 11.4815 20.6651C11.5749 20.7028 11.6749 20.7213 11.7756 20.7196C11.8763 20.7178 11.9756 20.6957 12.0676 20.6547C12.1596 20.6138 12.2424 20.5546 12.3111 20.481L14.2807 18.5114C14.4211 18.3708 14.5 18.1802 14.5 17.9814C14.5 17.7827 14.4211 17.592 14.2807 17.4514L12.3483 15.519C12.2796 15.4454 12.1968 15.3862 12.1048 15.3453C12.0128 15.3043 11.9135 15.2822 11.8128 15.2804C11.7121 15.2787 11.6121 15.2972 11.5187 15.3349C11.4253 15.3726 11.3405 15.4288 11.2693 15.5C11.198 15.5712 11.1419 15.6561 11.1042 15.7494C11.0664 15.8428 11.0479 15.9429 11.0497 16.0436C11.0515 16.1443 11.0735 16.2436 11.1145 16.3356C11.1555 16.4276 11.2146 16.5104 11.2883 16.579L11.9407 17.2314H10.2507C9.45501 17.2314 8.69195 16.9153 8.12934 16.3527C7.56673 15.7901 7.25066 15.0271 7.25066 14.2314V8.72768C8.05644 8.35761 8.67005 7.641 8.90061 6.76871L11.9407 6.76871L11.2326 7.47681C11.1001 7.61899 11.028 7.80703 11.0314 8.00134C11.0349 8.19564 11.1136 8.38102 11.251 8.51843C11.3884 8.65585 11.5738 8.73456 11.7681 8.73799C11.9624 8.74142 12.1504 8.66929 12.2926 8.53681L14.2807 6.54871C14.4211 6.40808 14.5 6.21746 14.5 6.01871C14.5 5.81996 14.4211 5.62933 14.2807 5.48871L12.311 3.51898C12.2423 3.4453 12.1595 3.38619 12.0675 3.3452C11.9755 3.30421 11.8762 3.28217 11.7755 3.28039C11.6748 3.27861 11.5748 3.29714 11.4814 3.33486C11.388 3.37258 11.3032 3.42872 11.232 3.49994C11.1607 3.57116 11.1046 3.656 11.0669 3.74938C11.0291 3.84277 11.0106 3.9428 11.0124 4.0435C11.0142 4.14421 11.0362 4.24352 11.0772 4.33552C11.1182 4.42752 11.1773 4.51032 11.251 4.57898L11.9407 5.26871L8.91024 5.2687ZM7.5 6C7.5 6.82843 6.82843 7.5 6 7.5C5.17157 7.5 4.5 6.82843 4.5 6C4.5 5.17157 5.17157 4.5 6 4.5C6.82843 4.5 7.5 5.17157 7.5 6Z" fill="currentColor"/>
<path fill-rule="evenodd" clip-rule="evenodd" d="M18 9C19.6569 9 21 7.65685 21 6C21 4.34315 19.6569 3 18 3C16.3431 3 15 4.34315 15 6C15 7.65685 16.3431 9 18 9ZM18 7.5C18.8284 7.5 19.5 6.82843 19.5 6C19.5 5.17157 18.8284 4.5 18 4.5C17.1716 4.5 16.5 5.17157 16.5 6C16.5 6.82843 17.1716 7.5 18 7.5Z" fill="currentColor"/>
<path fill-rule="evenodd" clip-rule="evenodd" d="M21 18C21 19.6569 19.6569 21 18 21C16.3431 21 15 19.6569 15 18C15 16.3431 16.3431 15 18 15C19.6569 15 21 16.3431 21 18ZM19.5 18C19.5 18.8284 18.8284 19.5 18 19.5C17.1716 19.5 16.5 18.8284 16.5 18C16.5 17.1716 17.1716 16.5 18 16.5C18.8284 16.5 19.5 17.1716 19.5 18Z" fill="currentColor"/>
</svg>
