<svg viewBox="0 0 24 24" fill="none" xmlns="http://www.w3.org/2000/svg">
  <path
    d="M10.1942 7.13849C10.2862 5.75749 11.8692 5.02449 12.9822 5.84849L13.3542 6.12349C13.433 6.18585 13.5236 6.23173 13.6205 6.25841C13.7174 6.28508 13.8187 6.292 13.9184 6.27876C14.018 6.26551 14.114 6.23238 14.2005 6.18131C14.2871 6.13025 14.3625 6.06231 14.4223 5.98152C14.4822 5.90073 14.5251 5.80875 14.5487 5.71103C14.5722 5.61332 14.5759 5.51186 14.5594 5.4127C14.543 5.31354 14.5068 5.21869 14.453 5.13379C14.3992 5.04889 14.3289 4.97568 14.2462 4.91849L13.8752 4.64349C11.8092 3.11249 8.86821 4.47349 8.69721 7.03849L8.53217 9.53849H6.25017C6.05125 9.53849 5.86049 9.61751 5.71984 9.75816C5.57918 9.89881 5.50016 10.0896 5.50016 10.2885C5.50016 10.4874 5.57918 10.6782 5.71984 10.8188C5.86049 10.9595 6.05125 11.0385 6.25017 11.0385H8.43217L7.83813 16.8718C7.74213 18.3178 6.03013 19.0268 4.93913 18.0718L4.74413 17.9008C4.59442 17.7698 4.39879 17.7036 4.20028 17.7169C4.00177 17.7301 3.81665 17.8216 3.68563 17.9713C3.55462 18.121 3.48844 18.3167 3.50166 18.5152C3.51488 18.7137 3.60642 18.8988 3.75613 19.0298L3.95213 19.2018C5.97713 20.9738 9.15513 19.6568 9.33514 16.9718L9.93517 11.0385H12.7502C12.7781 11.0385 12.8059 11.0369 12.8334 11.0339V11.0385C13.3033 11.0385 14.0727 11.2933 14.3333 11.7885L14.9169 14.0953L11.3027 17.7095C11.229 17.7781 11.1699 17.8609 11.1289 17.9529C11.0879 18.0449 11.0659 18.1442 11.0641 18.2449C11.0623 18.3456 11.0808 18.4457 11.1186 18.5391C11.1563 18.6324 11.2124 18.7173 11.2836 18.7885C11.3549 18.8597 11.4397 18.9159 11.5331 18.9536C11.6265 18.9913 11.7265 19.0098 11.8272 19.008C11.9279 19.0063 12.0272 18.9842 12.1192 18.9432C12.2112 18.9022 12.294 18.8431 12.3627 18.7695L15.4812 15.6509L16.2287 17.7384C16.3862 18.0376 16.609 18.2974 16.8806 18.4986C17.1523 18.6998 17.4657 18.8373 17.7978 18.9007C18.1298 18.9641 18.4719 18.9519 18.7986 18.8649C19.1253 18.778 19.4281 18.6185 19.6847 18.3984L20.0067 18.1234C20.1579 17.994 20.2515 17.8098 20.2668 17.6114C20.2822 17.413 20.2182 17.2166 20.0887 17.0654C19.9593 16.9142 19.7751 16.8207 19.5767 16.8053C19.3783 16.7899 19.1819 16.854 19.0307 16.9834L18.7087 17.2594C18.6232 17.3328 18.5222 17.3859 18.4133 17.4149C18.3045 17.4439 18.1904 17.448 18.0797 17.4268C17.9691 17.4057 17.8646 17.3599 17.774 17.2928C17.6835 17.2258 17.6092 17.1391 17.5567 17.0394L16.5922 14.5409L20.2154 10.9168C20.2871 10.8476 20.3442 10.7649 20.3836 10.6734C20.4229 10.5819 20.4437 10.4835 20.4446 10.3839C20.4455 10.2843 20.4266 10.1856 20.3889 10.0934C20.3512 10.0012 20.2956 9.91742 20.2252 9.84697C20.1548 9.77652 20.0711 9.72079 19.9789 9.68303C19.8868 9.64528 19.788 9.62626 19.6884 9.62707C19.5889 9.62789 19.4904 9.64853 19.3989 9.6878C19.3074 9.72706 19.2246 9.78416 19.1554 9.85576L16.0269 12.9843L15.5 10.9552C14.9435 9.89768 13.9086 9.53851 12.8334 9.53857V9.54312C12.8059 9.54005 12.7781 9.53849 12.7502 9.53849H10.0352L10.1942 7.13849Z"
    fill="currentColor" />
</svg>