<svg id="column-types/array" viewBox="0 0 24 24" fill="none" xmlns="http://www.w3.org/2000/svg">
<path d="M5.25 21.0081C4.95453 21.0081 4.66194 20.9499 4.38896 20.8368C4.11598 20.7237 3.86794 20.558 3.65901 20.349C3.45008 20.1401 3.28434 19.8921 3.17127 19.6191C3.0582 19.3461 3 19.0535 3 18.7581V5.25806C3 4.66132 3.23705 4.08902 3.65901 3.66707C4.08097 3.24511 4.65326 3.00806 5.25 3.00806H8.25C8.44891 3.00806 8.63968 3.08707 8.78033 3.22773C8.92098 3.36838 9 3.55914 9 3.75806C9 3.95697 8.92098 4.14773 8.78033 4.28839C8.63968 4.42904 8.44891 4.50806 8.25 4.50806H5.25C5.05109 4.50806 4.86032 4.58707 4.71967 4.72773C4.57902 4.86838 4.5 5.05914 4.5 5.25806V18.7581C4.5 19.1721 4.836 19.5081 5.25 19.5081H8.25C8.44891 19.5081 8.63968 19.5871 8.78033 19.7277C8.92098 19.8684 9 20.0591 9 20.2581C9 20.457 8.92098 20.6477 8.78033 20.7884C8.63968 20.929 8.44891 21.0081 8.25 21.0081H5.25Z" fill="currentColor"/>
<path d="M18.75 21C19.0455 21 19.3381 20.9418 19.611 20.8287C19.884 20.7157 20.1321 20.5499 20.341 20.341C20.5499 20.1321 20.7157 19.884 20.8287 19.611C20.9418 19.3381 21 19.0455 21 18.75V5.25C21 4.65326 20.7629 4.08097 20.341 3.65901C19.919 3.23705 19.3467 3 18.75 3H15.75C15.5511 3 15.3603 3.07902 15.2197 3.21967C15.079 3.36032 15 3.55109 15 3.75C15 3.94891 15.079 4.13968 15.2197 4.28033C15.3603 4.42098 15.5511 4.5 15.75 4.5H18.75C18.9489 4.5 19.1397 4.57902 19.2803 4.71967C19.421 4.86032 19.5 5.05109 19.5 5.25V18.75C19.5 19.164 19.164 19.5 18.75 19.5H15.75C15.5511 19.5 15.3603 19.579 15.2197 19.7197C15.079 19.8603 15 20.0511 15 20.25C15 20.4489 15.079 20.6397 15.2197 20.7803C15.3603 20.921 15.5511 21 15.75 21H18.75Z" fill="currentColor"/>
</svg>
