<svg  id="column-types/geo" viewBox="0 0 24 24" fill="none" xmlns="http://www.w3.org/2000/svg">
<path d="M5.84301 4.56789C7.47595 2.93495 9.69069 2.01758 12 2.01758C14.3093 2.01758 16.5241 2.93495 18.157 4.56789C19.79 6.20083 20.7073 8.41557 20.7073 10.7249C20.7073 13.0342 19.79 15.249 18.157 16.8819L16.97 18.0559C16.095 18.9139 14.96 20.0179 13.564 21.3679C13.1444 21.7736 12.5836 22.0004 12 22.0004C11.4164 22.0004 10.8556 21.7736 10.436 21.3679L6.94501 17.9719C6.50601 17.5409 6.13901 17.1779 5.84301 16.8819C5.03443 16.0734 4.39302 15.1135 3.95541 14.0571C3.51781 13.0006 3.29257 11.8684 3.29257 10.7249C3.29257 9.58142 3.51781 8.44914 3.95541 7.39272C4.39302 6.3363 5.03443 5.37642 5.84301 4.56789V4.56789ZM17.096 5.62789C15.7442 4.27635 13.9109 3.51716 11.9993 3.51735C10.0877 3.51754 8.25456 4.27708 6.90301 5.62889C5.55147 6.9807 4.79229 8.81404 4.79247 10.7256C4.79266 12.6372 5.55221 14.4703 6.90401 15.8219L8.39001 17.2899C9.41649 18.2928 10.4458 19.2928 11.478 20.2899C11.6179 20.4252 11.8049 20.5009 11.9995 20.5009C12.1941 20.5009 12.3811 20.4252 12.521 20.2899L15.915 16.9899C16.385 16.5289 16.778 16.1399 17.095 15.8219C18.4465 14.4703 19.2058 12.6372 19.2058 10.7259C19.2058 8.81453 18.4465 6.98146 17.095 5.62989L17.096 5.62789ZM12 7.99889C12.3942 7.99889 12.7846 8.07654 13.1488 8.2274C13.513 8.37827 13.844 8.5994 14.1227 8.87816C14.4015 9.15692 14.6226 9.48786 14.7735 9.85208C14.9244 10.2163 15.002 10.6067 15.002 11.0009C15.002 11.3951 14.9244 11.7855 14.7735 12.1497C14.6226 12.5139 14.4015 12.8449 14.1227 13.1236C13.844 13.4024 13.513 13.6235 13.1488 13.7744C12.7846 13.9252 12.3942 14.0029 12 14.0029C11.2135 13.9885 10.464 13.666 9.91278 13.1047C9.36161 12.5433 9.0528 11.7881 9.0528 11.0014C9.0528 10.2147 9.36161 9.45944 9.91278 8.89812C10.464 8.33679 11.2135 8.01425 12 7.99989V7.99889ZM12 9.49889C11.8028 9.49889 11.6075 9.53774 11.4252 9.61322C11.243 9.68871 11.0774 9.79934 10.9379 9.93882C10.7985 10.0783 10.6878 10.2439 10.6123 10.4261C10.5369 10.6083 10.498 10.8036 10.498 11.0009C10.498 11.1981 10.5369 11.3935 10.6123 11.5757C10.6878 11.7579 10.7985 11.9235 10.9379 12.063C11.0774 12.2024 11.243 12.3131 11.4252 12.3886C11.6075 12.464 11.8028 12.5029 12 12.5029C12.3982 12.5029 12.7801 12.3447 13.0617 12.0631C13.3433 11.7815 13.5015 11.3996 13.5015 11.0014C13.5015 10.6032 13.3433 10.2213 13.0617 9.93967C12.7801 9.65808 12.3982 9.49989 12 9.49989V9.49889Z" fill="currentColor"/>
</svg>
