<?xml version="1.0" encoding="UTF-8" standalone="no"?>
<!--

    Copyright (C) 2017-2018 Dremio Corporation

    Licensed under the Apache License, Version 2.0 (the "License");
    you may not use this file except in compliance with the License.
    You may obtain a copy of the License at

        http://www.apache.org/licenses/LICENSE-2.0

    Unless required by applicable law or agreed to in writing, software
    distributed under the License is distributed on an "AS IS" BASIS,
    WITHOUT WARRANTIES OR CONDITIONS OF ANY KIND, either express or implied.
    See the License for the specific language governing permissions and
    limitations under the License.

-->
<!DOCTYPE svg PUBLIC "-//W3C//DTD SVG 1.1//EN" "http://www.w3.org/Graphics/SVG/1.1/DTD/svg11.dtd">
<svg width="100%" height="100%" viewBox="0 0 100 100" version="1.1" xmlns="http://www.w3.org/2000/svg" xmlns:xlink="http://www.w3.org/1999/xlink" xml:space="preserve" style="fill-rule:evenodd;clip-rule:evenodd;stroke-linejoin:round;stroke-miterlimit:1.41421;">
    <g id="g14">
        <path id="path48" d="M22.707,63.451c-3.047,1.382 -8.977,4.475 -8.415,7.827c0.774,2.061 3.189,-0.117 4.08,-0.984c1.921,-1.805 3.444,-4.313 4.335,-6.843m18.188,-7.406c-2.015,5.273 -7.898,7.781 -9.539,6.891c-0.821,-0.446 0.07,-2.11 0.093,-3.258c-1.195,0.468 -3.164,1.336 -4.359,1.828c2.86,2.132 4.336,5.812 4.313,9.304c0,3.584 -1.476,6.888 -4.242,9.162c4.922,7.287 2.415,13.567 -4.359,18.465l-0.423,0.281l-0.141,-0.491c-1.006,-3.469 -2.273,-6.398 -4.664,-9.164c-1.195,-1.382 -2.555,-2.648 -3.891,-3.913c-1.757,-1.664 -3.444,-3.35 -5.039,-5.154c-6.703,-7.125 -9.353,-19.474 -8.484,-29.012c0.444,-4.921 1.946,-9.631 4.242,-13.99c1.828,-3.468 4.148,-6.655 6.821,-9.513c5.906,-6.328 13.735,-11.32 22.056,-13.78c7.312,-2.178 15.679,-2.554 22.641,1.031c1.125,0.586 2.813,1.617 3.751,2.39c0.586,0.539 1.171,1.102 1.734,1.641c0.07,0.047 0.141,0.117 0.188,0.186l32.556,-16.614c2.695,-1.335 4.71,-1.335 5.531,-0.373c0.961,1.124 -0.374,3.466 -2.273,4.85l-27.893,20.246c0.492,1.617 -0.328,3.96 -1.547,5.343c3.728,1.289 0.446,6.749 -1.195,8.694c-4.664,5.531 -13.219,9.866 -20.836,13.029c-2.04,0.867 -3.212,1.243 -5.041,1.921" style="fill:#393c42;"/>
        <path id="path52" d="M66.421,36.948c2.086,-2.625 0.633,-4.148 -0.821,-2.672c-2.86,2.929 -7.195,3.936 -11.109,3.304c-5.721,-0.961 -5.976,-1.828 -5.016,-2.672c6.75,2.461 14.602,-0.749 17.859,-6.069c1.407,-2.015 -3.304,-3.632 -6.093,-7.405c-13.337,-17.997 -55.081,-2.296 -59.066,29.176c-1.219,9.466 1.429,19.94 7.947,27.322c4.874,5.531 10.171,7.828 13.171,16.522c5.837,-5.015 4.922,-10.686 0.658,-15.654c7.288,-3.796 6.233,-13.663 1.1,-16.662c-2.39,8.788 -10.97,15.279 -12.962,9.046c-1.288,-6.351 9.166,-10.568 25.924,-16.919c14.016,-5.25 23.064,-9.585 28.408,-17.317" style="fill:#55bfce;"/>
        <path id="path56" d="M66.421,36.948c2.086,-2.625 0.633,-4.148 -0.821,-2.672c-2.46,2.531 -6.164,3.633 -9.539,3.468c-5.766,-0.422 -10.361,-1.546 -14.579,-1.102c-8.298,0.844 -16.384,6.093 -20.72,10.522c-7.313,7.5 -15.376,23.059 -7.242,26.083c-0.61,-0.376 -1.102,-1.055 -1.431,-2.063c-1.288,-6.351 9.166,-10.568 25.924,-16.919c14.016,-5.25 23.064,-9.585 28.408,-17.317" style="fill:#fff;"/>
        <path id="path60" d="M30.535,49.226c4.313,2.109 3.446,9.514 2.814,11.367c8.179,-2.321 5.742,-14.435 9.54,-18.139c-4.759,-0.141 -13.667,4.64 -12.354,6.772" style="fill:#55bfce;"/>
        <path id="path64" d="M44.365,27.292c1.171,-0.609 2.602,-0.187 3.235,0.985c0.609,1.148 0.163,2.577 -0.986,3.211c-1.148,0.609 -2.6,0.186 -3.211,-0.984c-0.632,-1.15 -0.187,-2.578 0.962,-3.212" style="fill:#393c42;"/>
        <path id="path68" d="M64.218,28.3l32.814,-22.848c0.913,-0.655 2.133,-2.062 1.64,-2.742c-0.491,-0.679 -1.921,-0.304 -3.14,0.235l-35.488,19.168c-1.147,2.391 1.173,7.429 4.174,6.187" style="fill:#55bfce;"/>
        <path id="path72" d="M61.335,23.778l34.291,-20.176c1.499,-0.891 2.086,-0.868 2.998,-0.962c-0.515,-0.585 -1.921,-0.234 -3.093,0.304l-35.486,19.169c-0.867,1.805 0.258,5.156 2.156,6.117c-0.679,-1.477 -1.124,-3.023 -0.866,-4.452" style="fill:#fff;"/>
        <path id="path76" d="M10.824,32.752c1.124,-0.187 1.993,0.587 1.969,1.736c0,1.147 -0.913,2.226 -2.038,2.413c-1.103,0.186 -1.971,-0.586 -1.946,-1.711c0,-1.148 0.913,-2.226 2.015,-2.438" style="fill:#25abad;"/>
        <path id="path80" d="M17.481,25.418c0.984,-0.164 1.758,0.515 1.733,1.524c-0.023,1.031 -0.82,1.967 -1.804,2.155c-0.984,0.165 -1.758,-0.516 -1.734,-1.523c0.023,-1.007 0.82,-1.969 1.805,-2.156" style="fill:#25abad;"/>
        <path id="path84" d="M37.615,15.717c1.008,0.046 1.617,0.89 1.359,1.874c-0.234,0.985 -1.242,1.734 -2.226,1.687c-0.987,-0.046 -1.595,-0.891 -1.36,-1.874c0.233,-0.985 1.242,-1.735 2.227,-1.687" style="fill:#25abad;"/>
        <path id="path88" d="M43.779,14.709c0.82,0.187 1.218,0.937 0.891,1.733c-0.329,0.774 -1.266,1.267 -2.062,1.102c-0.821,-0.187 -1.22,-0.938 -0.892,-1.734c0.328,-0.773 1.265,-1.266 2.063,-1.101" style="fill:#25abad;"/>
        <path id="path92" d="M17.551,30.011c0.726,-0.117 1.313,0.398 1.289,1.148c0,0.75 -0.61,1.453 -1.336,1.571c-0.726,0.141 -1.289,-0.375 -1.289,-1.126c0.024,-0.749 0.609,-1.453 1.336,-1.593" style="fill:#25abad;"/>
        <path id="path96" d="M7.167,38.634c0.751,-0.14 1.36,0.399 1.337,1.173c0,0.796 -0.632,1.522 -1.383,1.663c-0.774,0.117 -1.36,-0.398 -1.36,-1.171c0.024,-0.797 0.633,-1.547 1.406,-1.665" style="fill:#25abad;"/>
        <path id="path100" d="M68.53,17.544l-1.522,0.82c0.116,2.226 1.944,4.922 3.256,5.367c-1.031,-1.57 -1.968,-4.289 -1.734,-6.187m8.18,-4.428l-1.335,0.726c0.164,1.991 1.804,4.382 2.624,4.522c-0.633,-0.96 -1.453,-3.631 -1.289,-5.248m8.087,-4.383l-1.032,0.563c-0.023,1.311 0.938,3.28 2.015,3.562c-0.515,-0.821 -1.148,-2.508 -0.983,-4.125m7.782,-4.194l-0.892,0.492c0.071,0.867 1.079,2.484 1.641,2.741c-0.211,-0.632 -0.844,-1.92 -0.749,-3.233" style="fill:#25abad;"/>
    </g>
</svg>
