<svg xmlns="http://www.w3.org/2000/svg" fill="none" viewBox="0 0 692 426"><g clip-path="url(#a)"><path fill="#D2EDF3" d="M137.97 23.51H118.2v17.18h19.77V23.51ZM160.91 23.51h-19.77v17.18h19.77V23.51ZM160.91 43.8601h-19.77v17.18h19.77v-17.18ZM115.04 64.21H95.27v17.18h19.77V64.21ZM137.97 64.21H118.2v17.18h19.77V64.21ZM160.91 64.21h-19.77v17.18h19.77V64.21ZM115.04 84.55H95.27v17.18h19.77V84.55ZM137.97 84.55H118.2v17.18h19.77V84.55ZM160.91 84.55h-19.77v17.18h19.77V84.55ZM115.04 104.9H95.27v17.18h19.77V104.9ZM137.97 104.9H118.2v17.18h19.77V104.9ZM160.91 104.9h-19.77v17.18h19.77V104.9ZM115.04 125.25H95.27v17.18h19.77v-17.18ZM137.97 125.25H118.2v17.18h19.77v-17.18ZM160.91 125.25h-19.77v17.18h19.77v-17.18ZM115.04 145.59H95.27v17.18h19.77v-17.18ZM137.97 145.59H118.2v17.18h19.77v-17.18ZM115.04 165.94H95.27v17.18h19.77v-17.18ZM160.91 165.94h-19.77v17.18h19.77v-17.18ZM115.04 186.29H95.27v17.18h19.77v-17.18ZM115.04 206.63H95.27v17.18h19.77v-17.18ZM137.97 206.63H118.2v17.18h19.77v-17.18ZM160.91 206.63h-19.77v17.18h19.77v-17.18ZM115.04 226.98H95.27v17.18h19.77v-17.18ZM137.97 226.98H118.2v17.18h19.77v-17.18ZM160.91 226.98h-19.77v17.18h19.77v-17.18ZM115.04 247.33H95.27v17.18h19.77v-17.18ZM137.97 247.33H118.2v17.18h19.77v-17.18ZM160.91 247.33h-19.77v17.18h19.77v-17.18ZM115.04 267.67H95.27v17.18h19.77v-17.18ZM137.97 267.67H118.2v17.18h19.77v-17.18ZM160.91 267.67h-19.77v17.18h19.77v-17.18Z"/><path fill="#A8DFE6" d="M115.04 288.02H95.27v17.18h19.77v-17.18ZM137.97 288.02H118.2v17.18h19.77v-17.18ZM160.91 288.02h-19.77v17.18h19.77v-17.18ZM115.04 308.37H95.27v17.18h19.77v-17.18ZM137.97 308.37H118.2v17.18h19.77v-17.18ZM160.91 308.37h-19.77v17.18h19.77v-17.18ZM115.04 328.71H95.27v17.18h19.77v-17.18ZM137.97 328.71H118.2v17.18h19.77v-17.18ZM160.91 328.71h-19.77v17.18h19.77v-17.18Z"/><path fill="#D2EDF3" d="M92.1 84.55H72.33v17.18H92.1V84.55ZM92.1 104.9H72.33v17.18H92.1V104.9ZM92.1 145.59H72.33v17.18H92.1v-17.18ZM92.1 165.94H72.33v17.18H92.1v-17.18ZM92.1 186.29H72.33v17.18H92.1v-17.18ZM92.1 206.63H72.33v17.18H92.1v-17.18ZM92.1 226.98H72.33v17.18H92.1v-17.18ZM92.1 247.33H72.33v17.18H92.1v-17.18ZM92.1 267.67H72.33v17.18H92.1v-17.18Z"/><path fill="#A8DFE6" d="M92.1 288.02H72.33v17.18H92.1v-17.18ZM92.1 308.37H72.33v17.18H92.1v-17.18ZM92.1 328.71H72.33v17.18H92.1v-17.18Z"/><path fill="#D2EDF3" d="M69.16 84.55H49.39v17.18h19.77V84.55ZM69.16 104.9H49.39v17.18h19.77V104.9ZM69.16 145.59H49.39v17.18h19.77v-17.18ZM69.16 165.94H49.39v17.18h19.77v-17.18ZM69.16 186.29H49.39v17.18h19.77v-17.18ZM69.16 206.63H49.39v17.18h19.77v-17.18ZM69.16 226.98H49.39v17.18h19.77v-17.18ZM69.16 247.33H49.39v17.18h19.77v-17.18Z"/><path fill="#A8DFE6" d="M69.16 288.02H49.39v17.18h19.77v-17.18ZM69.16 308.37H49.39v17.18h19.77v-17.18ZM69.16 328.71H49.39v17.18h19.77v-17.18Z"/><path fill="#D2EDF3" d="M46.2199 64.21H26.45v17.18h19.7699V64.21ZM46.2199 104.9H26.45v17.18h19.7699V104.9ZM46.2199 145.59H26.45v17.18h19.7699v-17.18ZM46.2199 165.94H26.45v17.18h19.7699v-17.18ZM46.2199 186.29H26.45v17.18h19.7699v-17.18ZM46.2199 206.63H26.45v17.18h19.7699v-17.18ZM23.29 145.59H3.52002v17.18H23.29v-17.18ZM23.29 165.94H3.52002v17.18H23.29v-17.18ZM23.29 206.63H3.52002v17.18H23.29v-17.18ZM46.2199 247.33H26.45v17.18h19.7699v-17.18Z"/><path fill="#A8DFE6" d="M46.2199 308.37H26.45v17.18h19.7699v-17.18Z"/><path fill="#D2EDF3" d="M183.85 23.51h-19.77v17.18h19.77V23.51ZM206.79 23.51h-19.77v17.18h19.77V23.51ZM229.72 23.51h-19.77v17.18h19.77V23.51ZM252.66 23.51h-19.77v17.18h19.77V23.51ZM183.85 43.8601h-19.77v17.18h19.77v-17.18ZM206.79 43.8601h-19.77v17.18h19.77v-17.18ZM229.72 43.8601h-19.77v17.18h19.77v-17.18ZM252.66 43.8601h-19.77v17.18h19.77v-17.18ZM183.85 64.21h-19.77v17.18h19.77V64.21ZM206.79 64.21h-19.77v17.18h19.77V64.21ZM229.72 64.21h-19.77v17.18h19.77V64.21ZM252.66 64.21h-19.77v17.18h19.77V64.21ZM183.85 84.55h-19.77v17.18h19.77V84.55ZM206.79 84.55h-19.77v17.18h19.77V84.55ZM252.66 84.55h-19.77v17.18h19.77V84.55ZM183.85 104.9h-19.77v17.18h19.77V104.9ZM252.66 104.9h-19.77v17.18h19.77V104.9ZM206.79 125.25h-19.77v17.18h19.77v-17.18ZM252.66 125.25h-19.77v17.18h19.77v-17.18ZM183.85 145.59h-19.77v17.18h19.77v-17.18ZM206.79 145.59h-19.77v17.18h19.77v-17.18ZM252.66 145.59h-19.77v17.18h19.77v-17.18ZM183.85 165.94h-19.77v17.18h19.77v-17.18ZM206.79 165.94h-19.77v17.18h19.77v-17.18ZM252.66 165.94h-19.77v17.18h19.77v-17.18ZM183.85 206.63h-19.77v17.18h19.77v-17.18ZM206.79 206.63h-19.77v17.18h19.77v-17.18ZM252.66 206.63h-19.77v17.18h19.77v-17.18ZM183.85 226.98h-19.77v17.18h19.77v-17.18ZM206.79 226.98h-19.77v17.18h19.77v-17.18ZM252.66 226.98h-19.77v17.18h19.77v-17.18ZM183.85 247.33h-19.77v17.18h19.77v-17.18ZM206.79 247.33h-19.77v17.18h19.77v-17.18ZM252.66 247.33h-19.77v17.18h19.77v-17.18ZM183.85 267.67h-19.77v17.18h19.77v-17.18ZM206.79 267.67h-19.77v17.18h19.77v-17.18ZM229.72 267.67h-19.77v17.18h19.77v-17.18ZM252.66 267.67h-19.77v17.18h19.77v-17.18Z"/><path fill="#A8DFE6" d="M183.85 288.02h-19.77v17.18h19.77v-17.18ZM206.79 288.02h-19.77v17.18h19.77v-17.18ZM229.72 288.02h-19.77v17.18h19.77v-17.18ZM252.66 288.02h-19.77v17.18h19.77v-17.18ZM183.85 308.37h-19.77v17.18h19.77v-17.18ZM206.79 308.37h-19.77v17.18h19.77v-17.18ZM229.72 308.37h-19.77v17.18h19.77v-17.18ZM252.66 308.37h-19.77v17.18h19.77v-17.18ZM183.85 328.71h-19.77v17.18h19.77v-17.18ZM206.79 328.71h-19.77v17.18h19.77v-17.18ZM229.72 328.71h-19.77v17.18h19.77v-17.18ZM252.66 328.71h-19.77v17.18h19.77v-17.18Z"/><path fill="#D2EDF3" d="M275.6 23.51h-19.77v17.18h19.77V23.51ZM298.54 23.51h-19.77v17.18h19.77V23.51ZM321.48 23.51h-19.77v17.18h19.77V23.51ZM275.6 43.8601h-19.77v17.18h19.77v-17.18ZM298.54 43.8601h-19.77v17.18h19.77v-17.18ZM321.48 43.8601h-19.77v17.18h19.77v-17.18ZM275.6 64.21h-19.77v17.18h19.77V64.21ZM298.54 64.21h-19.77v17.18h19.77V64.21ZM321.48 64.21h-19.77v17.18h19.77V64.21ZM275.6 84.55h-19.77v17.18h19.77V84.55ZM298.54 84.55h-19.77v17.18h19.77V84.55ZM275.6 104.9h-19.77v17.18h19.77V104.9ZM321.48 104.9h-19.77v17.18h19.77V104.9ZM275.6 125.25h-19.77v17.18h19.77v-17.18ZM321.48 125.25h-19.77v17.18h19.77v-17.18ZM275.6 145.59h-19.77v17.18h19.77v-17.18ZM321.48 145.59h-19.77v17.18h19.77v-17.18ZM275.6 165.94h-19.77v17.18h19.77v-17.18ZM321.48 165.94h-19.77v17.18h19.77v-17.18ZM275.6 186.29h-19.77v17.18h19.77v-17.18ZM321.48 186.29h-19.77v17.18h19.77v-17.18ZM275.6 206.63h-19.77v17.18h19.77v-17.18ZM321.48 206.63h-19.77v17.18h19.77v-17.18ZM275.6 226.98h-19.77v17.18h19.77v-17.18ZM321.48 226.98h-19.77v17.18h19.77v-17.18ZM275.6 247.33h-19.77v17.18h19.77v-17.18ZM298.54 247.33h-19.77v17.18h19.77v-17.18ZM275.6 267.67h-19.77v17.18h19.77v-17.18ZM298.54 267.67h-19.77v17.18h19.77v-17.18ZM321.48 267.67h-19.77v17.18h19.77v-17.18Z"/><path fill="#A8DFE6" d="M275.6 288.02h-19.77v17.18h19.77v-17.18ZM298.54 288.02h-19.77v17.18h19.77v-17.18ZM321.48 288.02h-19.77v17.18h19.77v-17.18ZM275.6 308.37h-19.77v17.18h19.77v-17.18ZM298.54 308.37h-19.77v17.18h19.77v-17.18ZM321.48 308.37h-19.77v17.18h19.77v-17.18ZM275.6 328.71h-19.77v17.18h19.77v-17.18ZM298.54 328.71h-19.77v17.18h19.77v-17.18ZM321.48 328.71h-19.77v17.18h19.77v-17.18Z"/><path fill="#D2EDF3" d="M413.23 23.51h-19.77v17.18h19.77V23.51ZM436.16 23.51h-19.77v17.18h19.77V23.51ZM459.1 23.51h-19.77v17.18h19.77V23.51ZM413.23 43.8601h-19.77v17.18h19.77v-17.18ZM436.16 43.8601h-19.77v17.18h19.77v-17.18ZM459.1 43.8601h-19.77v17.18h19.77v-17.18ZM413.23 64.21h-19.77v17.18h19.77V64.21ZM436.16 64.21h-19.77v17.18h19.77V64.21ZM459.1 64.21h-19.77v17.18h19.77V64.21ZM413.23 84.55h-19.77v17.18h19.77V84.55ZM436.16 84.55h-19.77v17.18h19.77V84.55ZM459.1 84.55h-19.77v17.18h19.77V84.55ZM413.23 104.9h-19.77v17.18h19.77V104.9ZM436.16 104.9h-19.77v17.18h19.77V104.9ZM459.1 104.9h-19.77v17.18h19.77V104.9ZM413.23 125.25h-19.77v17.18h19.77v-17.18ZM436.16 125.25h-19.77v17.18h19.77v-17.18ZM459.1 125.25h-19.77v17.18h19.77v-17.18ZM413.23 145.59h-19.77v17.18h19.77v-17.18ZM436.16 145.59h-19.77v17.18h19.77v-17.18ZM413.23 165.94h-19.77v17.18h19.77v-17.18ZM459.1 165.94h-19.77v17.18h19.77v-17.18ZM413.23 186.29h-19.77v17.18h19.77v-17.18ZM413.23 206.63h-19.77v17.18h19.77v-17.18ZM436.16 206.63h-19.77v17.18h19.77v-17.18ZM459.1 206.63h-19.77v17.18h19.77v-17.18ZM413.23 226.98h-19.77v17.18h19.77v-17.18ZM436.16 226.98h-19.77v17.18h19.77v-17.18ZM459.1 226.98h-19.77v17.18h19.77v-17.18ZM413.23 247.33h-19.77v17.18h19.77v-17.18ZM436.16 247.33h-19.77v17.18h19.77v-17.18ZM459.1 247.33h-19.77v17.18h19.77v-17.18ZM413.23 267.67h-19.77v17.18h1.78l17.99-12.39v-4.79ZM413.23 277.44l-6.44 7.41h6.44v-7.41ZM416.39 267.67v2.61l3.79-2.61h-3.79ZM436.17 267.67h-14.45l-5.33 6.13v11.05h19.78v-17.18ZM459.1 267.67h-19.77v17.18h19.77v-17.18Z"/><path fill="#A8DFE6" d="M413.23 288.02h-9.19l-1.33 1.53-1.61-2.39c.24.62.68 1.57 1.46 2.57l-5.6 6.44-3.1-3.77c.34.87 1.07 2.4 2.57 3.81.1.09.19.16.29.24l-3.25 3.75v5h19.77v-17.18h-.01ZM436.16 288.02h-19.77v17.18h19.77v-17.18ZM459.1 288.02h-19.77v17.18h19.77v-17.18ZM413.23 308.37h-19.77v17.18h19.77v-17.18ZM436.16 308.37h-19.77v17.18h19.77v-17.18ZM459.1 308.37h-19.77v17.18h19.77v-17.18ZM413.23 328.71h-19.77v17.18h19.77v-17.18ZM436.16 328.71h-19.77v17.18h19.77v-17.18ZM459.1 328.71h-19.77v17.18h19.77v-17.18Z"/><path fill="#D2EDF3" d="M482.04 23.51h-19.77v17.18h19.77V23.51ZM504.98 23.51h-19.77v17.18h19.77V23.51ZM527.92 23.51h-19.77v17.18h19.77V23.51ZM550.85 23.51h-19.77v17.18h19.77V23.51ZM482.04 43.8601h-19.77v17.18h19.77v-17.18ZM504.98 43.8601h-19.77v17.18h19.77v-17.18ZM527.92 43.8601h-19.77v17.18h19.77v-17.18ZM550.85 43.8601h-19.77v17.18h19.77v-17.18ZM482.04 64.21h-19.77v17.18h19.77V64.21ZM504.98 64.21h-19.77v17.18h19.77V64.21ZM527.92 64.21h-19.77v17.18h19.77V64.21ZM550.85 64.21h-19.77v17.18h19.77V64.21ZM482.04 84.55h-19.77v17.18h19.77V84.55ZM504.98 84.55h-19.77v17.18h19.77V84.55ZM550.85 84.55h-19.77v17.18h19.77V84.55ZM482.04 104.9h-19.77v17.18h19.77V104.9ZM550.85 104.9h-19.77v17.18h19.77V104.9ZM504.98 125.25h-19.77v17.18h19.77v-17.18ZM550.85 125.25h-19.77v17.18h19.77v-17.18ZM482.04 145.59h-19.77v17.18h19.77v-17.18ZM504.98 145.59h-19.77v17.18h19.77v-17.18ZM550.85 145.59h-19.77v17.18h19.77v-17.18ZM482.04 165.94h-19.77v17.18h19.77v-17.18ZM504.98 165.94h-19.77v17.18h19.77v-17.18ZM550.85 165.94h-19.77v17.18h19.77v-17.18ZM482.04 206.63h-19.77v17.18h19.77v-17.18ZM504.98 206.63h-19.77v17.18h19.77v-17.18ZM550.85 206.63h-19.77v17.18h19.77v-17.18ZM482.04 226.98h-19.77v17.18h19.77v-17.18ZM504.98 226.98h-19.77v17.18h19.77v-17.18ZM550.85 226.98h-19.77v17.18h19.77v-17.18ZM482.04 247.33h-19.77v17.18h19.77v-17.18ZM504.98 247.33h-19.77v17.18h19.77v-17.18ZM550.85 247.33h-19.77v17.18h19.77v-17.18ZM482.04 267.67h-19.77v17.18h19.77v-17.18ZM504.98 267.67h-19.77v17.18h19.77v-17.18ZM527.92 267.67h-19.77v17.18h19.77v-17.18ZM550.85 267.67h-19.77v17.18h19.77v-17.18Z"/><path fill="#A8DFE6" d="M482.04 288.02h-19.77v17.18h19.77v-17.18ZM504.98 288.02h-19.77v17.18h19.77v-17.18ZM527.92 288.02h-19.77v17.18h19.77v-17.18ZM550.85 288.02h-19.77v17.18h19.77v-17.18ZM482.04 308.37h-19.77v17.18h19.77v-17.18ZM504.98 308.37h-19.77v17.18h19.77v-17.18ZM527.92 308.37h-19.77v17.18h19.77v-17.18ZM550.85 308.37h-19.77v17.18h19.77v-17.18ZM482.04 328.71h-19.77v17.18h19.77v-17.18ZM504.98 328.71h-19.77v17.18h19.77v-17.18ZM527.92 328.71h-19.77v17.18h19.77v-17.18ZM550.85 328.71h-19.77v17.18h19.77v-17.18Z"/><path fill="#D2EDF3" d="M573.79 23.51h-19.77v17.18h19.77V23.51ZM573.79 43.8601h-19.77v17.18h19.77v-17.18ZM573.79 64.21h-19.77v17.18h19.77V64.21ZM573.79 84.55h-19.77v17.18h19.77V84.55ZM573.79 104.9h-19.77v17.18h19.77V104.9ZM573.79 125.25h-19.77v17.18h19.77v-17.18ZM573.79 145.59h-19.77v17.18h19.77v-17.18ZM573.79 165.94h-19.77v17.18h19.77v-17.18ZM573.79 186.29h-19.77v17.18h19.77v-17.18ZM573.79 206.63h-19.77v17.18h19.77v-17.18ZM573.79 226.98h-19.77v17.18h19.77v-17.18ZM573.79 247.33h-19.77v17.18h19.77v-17.18ZM573.79 267.67h-19.77v17.18h19.77v-17.18Z"/><path fill="#A8DFE6" d="M573.79 288.02h-19.77v17.18h19.77v-17.18ZM573.79 308.37h-19.77v17.18h19.77v-17.18ZM573.79 328.71h-19.77v17.18h19.77v-17.18Z"/><path fill="#D2EDF3" d="M596.73 43.8601h-19.77v17.18h19.77v-17.18ZM596.73 64.21h-19.77v17.18h19.77V64.21ZM596.73 84.55h-19.77v17.18h19.77V84.55ZM596.73 104.9h-19.77v17.18h19.77V104.9ZM596.73 125.25h-19.77v17.18h19.77v-17.18ZM596.73 145.59h-19.77v17.18h19.77v-17.18ZM596.73 165.94h-19.77v17.18h19.77v-17.18ZM596.73 186.29h-19.77v17.18h19.77v-17.18ZM596.73 206.63h-19.77v17.18h19.77v-17.18ZM596.73 226.98h-19.77v17.18h19.77v-17.18ZM596.73 247.33h-19.77v17.18h19.77v-17.18ZM596.73 267.67h-19.77v17.18h19.77v-17.18Z"/><path fill="#A8DFE6" d="M596.73 288.02h-19.77v17.18h19.77v-17.18ZM596.73 308.37h-19.77v17.18h19.77v-17.18ZM596.73 328.71h-19.77v17.18h19.77v-17.18Z"/><path fill="#D2EDF3" d="M599.9 101.73h19.77V84.55H599.9v17.18ZM642.61 65.1699h-19.78v17.18h19.78v-17.18ZM619.67 104.9H599.9v17.18h19.77V104.9ZM619.67 125.25H599.9v17.18h19.77v-17.18ZM619.67 145.59H599.9v17.18h19.77v-17.18ZM619.67 165.94H599.9v17.18h19.77v-17.18ZM619.67 186.29H599.9v17.18h19.77v-17.18ZM619.67 206.63H599.9v17.18h19.77v-17.18ZM619.67 226.98H599.9v17.18h19.77v-17.18ZM619.67 267.67H599.9v17.18h19.77v-17.18Z"/><path fill="#A8DFE6" d="M619.67 288.02H599.9v17.18h19.77v-17.18ZM619.67 328.71H599.9v17.18h19.77v-17.18Z"/><path fill="#D2EDF3" d="M642.6 104.9h-19.77v17.18h19.77V104.9ZM642.6 145.59h-19.77v17.18h19.77v-17.18ZM642.6 165.94h-19.77v17.18h19.77v-17.18ZM642.6 186.29h-19.77v17.18h19.77v-17.18ZM642.6 206.63h-19.77v17.18h19.77v-17.18ZM642.6 226.98h-19.77v17.18h19.77v-17.18ZM642.6 267.67h-19.77v17.18h19.77v-17.18ZM665.54 145.59h-19.77v17.18h19.77v-17.18ZM665.54 165.94h-19.77v17.18h19.77v-17.18Z"/><path fill="#fff" d="M665.54 186.29h26.11v-23.51h-22.94v-20.35H622.83v-17.18h22.94v-23.51h-22.94V85.52h22.94V62.01h-26.1v19.38H599.9v-40.7h-22.94V20.35h-68.81V0H160.9v20.35H115.02v23.51h22.94v17.18H92.1v20.35H49.39V61.04h-26.1v23.51h22.94v17.18H23.29v23.51h68.82v17.18H.349976V186.29H23.29v17.18H.349976v23.51H46.23v17.18H23.29v23.51H69.17v17.18H46.23v20.35H23.29v23.51h22.94v20.35h576.63v-23.51h-22.94v-17.18H645.8v-20.35h19.77v20.35h26.1v-23.51h-22.94v-20.35h-68.82v-17.18h68.82V203.46h-22.94v-17.18h19.75v.01Zm0 57.87h-19.77v-17.18h19.77v17.18Zm-22.93 0h-19.77v-17.18h19.77v17.18Zm-22.94 0H599.9v-17.18h19.77v17.18Zm3.16 23.51h19.77v17.18h-19.77v-17.18Zm22.94 0h19.77v17.18h-19.77v-17.18Zm42.71 37.53h-19.77v-17.18h19.77v17.18Zm-45.87 0h-19.77v-17.18h19.77v17.18Zm-22.94 0H599.9v-17.18h19.77v17.18Zm0 40.69H599.9v-17.18h19.77v17.18Zm-22.94 0h-19.77v-17.18h19.77v17.18Zm-22.94 0h-19.77v-17.18h19.77v17.18Zm-22.94 0h-19.77v-17.18h19.77v17.18Zm-22.93 0h-19.77v-17.18h19.77v17.18Zm-22.94 0h-19.77v-17.18h19.77v17.18Zm-22.94 0h-19.77v-17.18h19.77v17.18Zm-22.94 0h-19.77v-17.18h19.77v17.18Zm-22.93 0H416.4v-17.18h19.77v17.18Zm-22.94 0h-19.77v-17.18h19.77v17.18Zm-22.94 0h-19.77v-17.18h19.77v17.18Zm-22.94 0h-19.77v-17.18h19.77v17.18Zm-22.94 0h-19.77v-17.18h19.77v17.18Zm-22.93 0h-19.77v-17.18h19.77v17.18Zm-22.94 0h-19.77v-17.18h19.77v17.18Zm-22.94 0h-19.77v-17.18h19.77v17.18Zm-22.94 0h-19.77v-17.18h19.77v17.18Zm-22.93 0h-19.78v-17.18h19.77v17.18h.01Zm-22.94 0h-19.77v-17.18h19.77v17.18Zm-22.94 0h-19.77v-17.18h19.77v17.18Zm-22.94 0h-19.77v-17.18h19.77v17.18Zm-22.93 0h-19.77v-17.18h19.77v17.18Zm-22.94 0H95.27v-17.18h19.77v17.18Zm-22.94 0H72.33v-17.18H92.1v17.18Zm-22.94 0H49.39v-17.18h19.77v17.18Zm-42.71-37.52h19.77v17.18H26.45v-17.18Zm22.94-20.35h19.77v17.18H49.39v-17.18Zm-3.16-23.51H26.45v-17.18h19.77v17.18h.01Zm-22.94-40.7H3.51998v-17.18H23.29v17.18ZM3.51998 145.59H23.29v17.18H3.51998v-17.18Zm22.93002 0h19.77v17.18H26.45v-17.18Zm22.94 0h19.77v17.18H49.39v-17.18Zm22.94 0H92.1v17.18H72.33v-17.18Zm-3.17-23.51H49.39V104.9h19.77v17.18Zm-22.93 0H26.45V104.9h19.77v17.18h.01ZM26.45 64.21h19.77v17.18H26.45V64.21Zm22.94 20.34h19.77v17.18H49.39V84.55Zm22.94 0H92.1v17.18H72.33V84.55Zm22.94-20.34h19.77v17.18H95.27V64.21Zm22.93 0h19.77v17.18H118.2V64.21Zm0-40.7h19.77v17.18H118.2V23.51Zm22.94 0h19.77v17.18h-19.77V23.51Zm22.94-20.34h19.77v17.18h-19.77V3.17Zm22.94 0h19.77v17.18h-19.77V3.17Zm22.93 0h19.77v17.18h-19.77V3.17Zm22.94 0h19.77v17.18h-19.77V3.17Zm22.94 0h19.77v17.18h-19.77V3.17Zm22.94 0h19.77v17.18h-19.77V3.17Zm22.94 0h19.77v17.18h-19.77V3.17Zm22.93 0h19.77v17.18h-19.77V3.17Zm22.94 0h19.77v17.18h-19.77V3.17Zm22.94 0h19.77v17.18h-19.77V3.17Zm22.94 0h19.77v17.18h-19.77V3.17Zm22.93 0h19.77v17.18h-19.77V3.17Zm22.94 0h19.77v17.18h-19.77V3.17Zm22.94 0h19.77v17.18h-19.77V3.17Zm22.94 0h19.77v17.18h-19.77V3.17Zm45.87 20.34h19.77v17.18h-19.77V23.51Zm22.94 0h19.77v17.18h-19.77V23.51Zm65.65 62.01v16.21H599.9V84.55h19.77v.97Zm22.94 36.56h-19.77V104.9h19.77v17.18Zm3.16 23.51h19.77v17.18h-19.77v-17.18Zm42.71 37.53h-19.77v-17.18h19.77v17.18Zm-22.94 0h-19.77v-17.18h19.77v17.18Zm-68.81 61.04h-19.77v-17.18h19.77v17.18Zm0 61.04h-19.77v-17.18h19.77v17.18Zm-547.34 3.17h19.77v17.18H49.39v-17.18Zm22.94-20.35H92.1v17.18H72.33v-17.18Zm22.94-142.43h19.77v17.18H95.27v-17.18Zm0-61.04h19.77v17.18H95.27V84.55Zm45.87-20.34h19.77v17.18h-19.77V64.21Zm22.94-40.7h19.77v17.18h-19.77V23.51Zm455.59 98.57H599.9V104.9h19.77v17.18Zm0 81.39H599.9v-17.18h19.77v17.18Zm0 20.34H599.9v-17.18h19.77v17.18Zm-45.88 40.7h-19.77v-17.18h19.77v17.18Zm0 61.04h-19.77v-17.18h19.77v17.18ZM72.33 308.37H92.1v17.18H72.33v-17.18Zm22.94-40.7h19.77v17.18H95.27v-17.18Zm-22.94-40.69H92.1v17.18H72.33v-17.18Zm-22.94-40.69h19.77v17.18H49.39v-17.18Zm0-20.35h19.77v17.18H49.39v-17.18Zm68.81-40.69h19.77v17.18H118.2v-17.18Zm45.88-81.39h19.77v17.18h-19.77V43.86Zm409.71 37.53h-19.77V64.21h19.77v17.18Zm22.94 40.69h-19.77V104.9h19.77v17.18Zm0 20.35h-19.77v-17.18h19.77v17.18Zm0 40.69h-19.77v-17.18h19.77v17.18Zm0 20.35h-19.77v-17.18h19.77v17.18Zm-45.88 40.69h-19.77v-17.18h19.77v17.18Zm0 20.35h-19.77v-17.18h19.77v17.18Zm0 20.34h-19.77v-17.18h19.77v17.18Zm0 20.35h-19.77v-17.18h19.77v17.18ZM118.2 288.02h19.77v17.18H118.2v-17.18Zm0-20.35h19.77v17.18H118.2v-17.18Zm0-20.34h19.77v17.18H118.2v-17.18Zm-22.93-40.7h19.77v17.18H95.27v-17.18Zm0-20.34h19.77v17.18H95.27v-17.18Zm45.87-40.7h19.77v17.18h-19.77v-17.18Zm0-20.34h19.77v17.18h-19.77v-17.18Zm0-20.35h19.77v17.18h-19.77V104.9Zm45.88-40.69h19.77v17.18h-19.77V64.21Zm363.83 37.52h-19.77V84.55h19.77v17.18Zm22.94 40.7h-19.77v-17.18h19.77v17.18Zm0 20.34h-19.77v-17.18h19.77v17.18Zm-45.87 61.04h-19.77v-17.18h19.77v17.18Zm0 20.35h-19.77v-17.18h19.77v17.18Zm0 20.35h-19.77v-17.18h19.77v17.18Zm0 20.34h-19.77v-17.18h19.77v17.18Zm-134.46 0v-17.18h19.77v4.79l-17.98 12.39h-1.79Zm-252.32-17.18h19.77v17.18h-19.77v-17.18Zm0-20.34h19.77v17.18h-19.77v-17.18Zm0-20.35h19.77v17.18h-19.77v-17.18Zm0-20.35h19.77v17.18h-19.77v-17.18Zm22.94-40.69h19.77v17.18h-19.77v-17.18Zm0-20.35h19.77v17.18h-19.77v-17.18Zm0-20.34h19.77v17.18h-19.77v-17.18Zm45.87-40.7h19.77v17.18h-19.77V84.55Zm317.97 37.53h-19.77V104.9h19.77v17.18Zm22.93 40.69h-19.77v-17.18h19.77v17.18Zm-22.93 0h-19.77v-17.18h19.77v17.18Zm-22.94 40.7h-19.77v-17.18h19.77v17.18Zm0 20.34h-19.77v-17.18h19.77v17.18Zm0 20.35h-19.77v-17.18h19.77v17.18Zm0 20.35h-19.77v-17.18h19.77v17.18Zm-340.9-17.18h19.77v17.18h-19.77v-17.18Zm0-20.35h19.77v17.18h-19.77v-17.18Zm22.94-40.69h19.77v17.18h-19.77v-17.18Zm0-20.35h19.77v17.18h-19.77v-17.18Zm0-20.35h19.77v17.18h-19.77v-17.18Zm45.87-40.69h19.77v17.18h-19.77V104.9Zm272.09 37.53h-19.77v-17.18h19.77v17.18Zm0 20.34h-19.77v-17.18h19.77v17.18Zm-22.94 20.35h-19.77v-17.18h19.77v17.18Zm0 20.35h-19.77v-17.18h19.77v17.18Zm0 20.34h-19.77v-17.18h19.77v17.18Zm0 20.35h-19.77v-17.18h19.77v17.18Zm-272.09-17.18h19.77v17.18h-19.77v-17.18Zm0-20.35h19.77v17.18h-19.77v-17.18Zm0-20.34h19.77v17.18h-19.77v-17.18Zm0-20.35h19.77v17.18h-19.77v-17.18Zm45.88-40.69h19.77v17.18h-19.77v-17.18Zm203.27 37.52h-19.77v-17.18h19.77v17.18Zm0 20.35h-19.77v-17.18h19.77v17.18Zm0 20.35h-19.77v-17.18h19.77v17.18Zm0 20.34h-19.77v-17.18h19.77v17.18Zm-226.21-17.18h19.77v17.18h-19.77v-17.18Zm0-20.34h19.77v17.18h-19.77v-17.18Zm45.88-40.7h19.77v17.18h-19.77v-17.18Zm157.4 37.53H416.4v-17.18h19.77v17.18Zm0 20.35H416.4v-17.18h19.77v17.18Zm-134.46-17.18h19.77v17.18h-19.77v-17.18Zm0-20.35h19.77v17.18h-19.77v-17.18Zm42.7 0v17.18h-19.77v-17.18h19.77Zm68.82 17.18h-19.77v-17.18h19.77v17.18Zm-22.94 0h-19.77v-17.18h19.77v17.18Zm-22.94 0h-19.77v-17.18h19.77v17.18Zm-22.94-20.35h-19.77v-17.18h19.77v17.18Zm-19.77 23.52h19.77v17.18h-19.77v-17.18Zm22.94 0h19.77v17.18h-19.77v-17.18Zm22.94 0h19.77v17.18h-19.77v-17.18Zm22.94 0h19.77v17.18h-19.77v-17.18Zm-26.11-23.52h-19.77v-17.18h19.77v17.18Zm-45.87-17.18v17.18h-19.77v-17.18h19.77Zm-22.94 40.7v17.18h-19.77v-17.18h19.77Zm137.63-23.52H416.4v-17.18h19.77v17.18Zm-22.94 0h-19.77v-17.18h19.77v17.18Zm-22.94 0h-19.77v-17.18h19.77v17.18Zm-22.94-20.34h-19.77v-17.18h19.77v17.18Zm-22.94 0h-19.77v-17.18h19.77v17.18Zm-22.93 0h-19.77v-17.18h19.77v17.18Zm-22.94 23.51v17.18h-19.77v-17.18h19.77Zm-22.94 20.35v17.18h-19.77v-17.18h19.77Zm-19.77 20.34h19.77v17.18h-19.77v-17.18Zm22.94 0h19.77v17.18h-19.77v-17.18Zm22.94 0h19.77v17.18h-19.77v-17.18Zm22.93 0h19.77v17.18h-19.77v-17.18Zm22.94 0h19.77v17.18h-19.77v-17.18Zm22.94 0h19.77v17.18h-19.77v-17.18Zm22.94 0h19.77v17.18h-19.77v-17.18Zm22.93 0h19.77v17.18h-19.77v-17.18Zm-26.1-64.2h-19.77v-17.18h19.77v17.18Zm-91.75-17.18v17.18h-19.77v-17.18h19.77Zm-22.94 40.69v17.18h-19.77v-17.18h19.77Zm183.5-23.51h-19.77v-17.18h19.77v17.18Zm-22.93 0H416.4v-17.18h19.77v17.18Zm-22.94 0h-19.77v-17.18h19.77v17.18Zm-22.94-20.35h-19.77V104.9h19.77v17.18Zm-22.94 0h-19.77V104.9h19.77v17.18Zm-22.94 0h-19.77V104.9h19.77v17.18Zm-22.93 0h-19.77V104.9h19.77v17.18Zm-22.94 0h-19.77V104.9h19.77v17.18Zm-22.94 23.51v17.18h-19.77v-17.18h19.77Zm-22.94 20.35v17.18h-19.77v-17.18h19.77Zm-19.77 61.04h19.77v17.18h-19.77v-17.18Zm22.94 0h19.77v17.18h-19.77v-17.18Zm22.94 0h19.77v17.18h-19.77v-17.18Zm22.94 0h19.77v17.18h-19.77v-17.18Zm22.93 0h19.77v17.18h-19.77v-17.18Zm22.94 0h19.77v17.18h-19.77v-17.18Zm22.94 0h19.77v17.18h-19.77v-17.18Zm22.94 0h19.77v17.18h-19.77v-17.18Zm22.93 0h19.77v17.18h-19.77v-17.18Zm22.94 0h19.77v17.18h-19.77v-17.18Zm22.94-64.21v-17.18h19.77v17.18h-19.77Zm19.77-20.34h-19.77v-17.18h19.77v17.18Zm-68.81-20.35h-19.77V104.9h19.77v17.18ZM275.6 104.9v17.18h-19.77V104.9h19.77Zm-22.94 40.69v17.18h-19.77v-17.18h19.77Zm-45.87 81.39v17.18h-19.77v-17.18h19.77Zm275.25-104.9h-19.77V104.9h19.77v17.18Zm-22.94 0h-19.77V104.9h19.77v17.18Zm-22.93 0H416.4V104.9h19.77v17.18Zm-22.94-20.35h-19.77V84.55h19.77v17.18Zm-22.94 0h-19.77V84.55h19.77v17.18Zm-22.94 0h-19.77V84.55h19.77v17.18Zm-22.94 0h-19.77V84.55h19.77v17.18Zm-22.93 0h-19.77V84.55h19.77v17.18Zm-22.94 0h-19.77V84.55h19.77v17.18Zm-22.94 0h-19.77V84.55h19.77v17.18Zm-22.94 23.52v17.18h-19.77v-17.18h19.77Zm-22.93 20.34v17.18h-19.78v-17.18h19.78Zm-22.94 61.04v17.18h-19.77v-17.18h19.77Zm-19.77 40.7h19.77v17.18h-19.77v-17.18Zm22.93 0h19.77v17.18h-19.77v-17.18Zm22.94 0h19.77v17.18h-19.77v-17.18Zm22.94 0h19.77v17.18h-19.77v-17.18Zm22.94 0h19.77v17.18h-19.77v-17.18Zm22.94 0h19.77v17.18h-19.77v-17.18Zm22.93 0h19.77v17.18h-19.77v-17.18Zm22.94 0h19.77v17.18h-19.77v-17.18Zm22.94 0h19.77v17.18h-19.77v-17.18Zm22.94 0h19.77v17.18h-19.77v-17.18Zm22.93 0h19.77v17.18h-19.77v-17.18Zm22.94 0h19.77v17.18h-19.77v-17.18Zm22.94 0h19.77v17.18h-19.77v-17.18Zm22.94-64.21v-17.18h19.77v17.18h-19.77Zm19.77-61.04h-19.77V104.9h19.77v17.18Zm-68.81-20.35H416.4V84.55h19.77v17.18ZM252.66 84.55v17.18h-19.77V84.55h19.77Zm-22.93 40.7v17.18h-19.78v-17.18h19.78Zm-45.88 81.38v17.18h-19.77v-17.18h19.77Zm232.54 61.04h3.78l-3.78 2.61v-2.61Zm91.76-84.55v-17.18h19.77v17.18h-19.77Zm19.77-40.69h-19.77v-17.18h19.77v17.18Zm-22.94-40.7h-19.77V84.55h19.77v17.18Zm-22.94 0h-19.77V84.55h19.77v17.18Zm-22.94 0h-19.77V84.55h19.77v17.18Zm-22.93-20.34H416.4V64.21h19.77v17.18Zm-22.94 0h-19.77V64.21h19.77v17.18Zm-22.94 0h-19.77V64.21h19.77v17.18Zm-22.94 0h-19.77V64.21h19.77v17.18Zm-22.94 0h-19.77V64.21h19.77v17.18Zm-22.93 0h-19.77V64.21h19.77v17.18Zm-22.94 0h-19.77V64.21h19.77v17.18Zm-22.94 0h-19.77V64.21h19.77v17.18Zm-22.94 0h-19.77V64.21h19.77v17.18Zm-22.93 23.51v17.18h-19.78V104.9h19.78Zm-22.94 20.35v17.18h-19.77v-17.18h19.77Zm-22.94 61.04v17.18h-19.77v-17.18h19.77Zm-19.77 81.38h19.77v17.18h-19.77v-17.18Zm22.94 0h19.77v17.18h-19.77v-17.18Zm22.93 0h19.77v17.18h-19.77v-17.18Zm22.94 0h19.77v17.18h-19.77v-17.18Zm22.94 0h19.77v17.18h-19.77v-17.18Zm22.94 0h19.77v17.18h-19.77v-17.18Zm22.94 0h19.77v17.18h-19.77v-17.18Zm22.93 0h19.77v17.18h-19.77v-17.18Zm22.94 0h19.77v17.18h-19.77v-17.18Zm22.94 0h19.77v17.18h-19.77v-17.18Zm42.71 9.77v7.41h-6.44l6.44-7.41Zm3.16-3.64 5.32-6.13h14.45v17.18h-19.77V273.8Zm22.94-6.13h19.77v17.18h-19.77v-17.18Zm22.94 0h19.77v17.18h-19.77v-17.18Zm22.94 0h19.77v17.18h-19.77v-17.18Zm22.94-64.2v-17.18h19.77v17.18h-19.77Zm22.93-20.35v-17.18h19.77v17.18h-19.77Zm19.77-40.69h-19.77v-17.18h19.77v17.18Zm-22.93-40.7h-19.77V84.55h19.77v17.18ZM459.1 81.39h-19.77V64.21h19.77v17.18ZM229.73 64.21v17.18h-19.78V64.21h19.78Zm-22.94 40.69v17.18h-19.77V104.9h19.77Zm-45.88 81.39v17.18h-19.77v-17.18h19.77Zm-42.71 20.34h19.77v17.18H118.2v-17.18Zm412.88-3.16v-17.18h19.77v17.18h-19.77Zm42.71-20.35h-19.77v-17.18h19.77v17.18Zm-22.94-61.04h-19.77V104.9h19.77v17.18Zm-22.93-40.69h-19.77V64.21h19.77v17.18Zm-22.94 0h-19.77V64.21h19.77v17.18Zm-22.94 0h-19.77V64.21h19.77v17.18ZM459.1 61.04h-19.77V43.86h19.77v17.18Zm-22.93 0H416.4V43.86h19.77v17.18Zm-22.94 0h-19.77V43.86h19.77v17.18Zm-22.94 0h-19.77V43.86h19.77v17.18Zm-22.94 0h-19.77V43.86h19.77v17.18Zm-22.94 0h-19.77V43.86h19.77v17.18Zm-22.93 0h-19.77V43.86h19.77v17.18Zm-22.94 0h-19.77V43.86h19.77v17.18Zm-22.94 0h-19.77V43.86h19.77v17.18Zm-22.94 0h-19.77V43.86h19.77v17.18Zm-22.93 0h-19.78V43.86h19.77v17.18h.01Zm-22.94 23.51v17.18h-19.77V84.55h19.77Zm-22.94 20.35v17.18h-19.77V104.9h19.77Zm-22.94 61.04v17.18h-19.77v-17.18h19.77Zm-22.93 20.35v17.18h-19.77v-17.18h19.77Zm-19.78 40.69h19.77v17.18H118.2v-17.18Zm22.94 61.04h19.77v17.18h-19.77v-17.18Zm22.94 0h19.77v17.18h-19.77v-17.18Zm22.94 0h19.77v17.18h-19.77v-17.18Zm22.93 0h19.77v17.18h-19.77v-17.18Zm22.94 0h19.77v17.18h-19.77v-17.18Zm22.94 0h19.77v17.18h-19.77v-17.18Zm22.94 0h19.77v17.18h-19.77v-17.18Zm22.94 0h19.77v17.18h-19.77v-17.18Zm22.93 0h19.77v17.18h-19.77v-17.18Zm22.94 0h19.77v17.18h-19.77v-17.18Zm22.94 0h19.77v.25l-13.54 9.33c-.26.18-.55.27-.85.28-.01.14-.03.27-.03.41 0 2.7 1.61 5.22 3.76 6.92h-9.11v-17.19Zm20.55 14.84c-.59-.34-1.24-.8-1.88-1.4-1.51-1.41-2.24-2.95-2.57-3.81l4.45 5.21Zm-.78.98v1.36h-1.18l1.18-1.36Zm3.17-3.64 3.25-3.75c-.1-.08-.19-.15-.29-.24-1.51-1.41-2.24-2.95-2.57-3.81l3.1 3.77 5.6-6.44c-.77-1.01-1.22-1.96-1.46-2.57l1.61 2.39 1.33-1.53h9.19v17.18h-19.77v-5h.01Zm22.93-12.18h19.77v17.18h-19.77v-17.18Zm22.94 0h19.77v17.18h-19.77v-17.18Zm22.94 0h19.77v17.18h-19.77v-17.18Zm22.94 0h19.77v17.18h-19.77v-17.18Zm22.94 0h19.77v17.18h-19.77v-17.18Zm22.93-64.21v-17.18h19.77v17.18h-19.77Zm22.94-20.34v-17.18h19.77v17.18h-19.77Zm19.77-81.39h-19.77V104.9h19.77v17.18Zm-22.94-40.69h-19.77V64.21h19.77v17.18Zm-68.81-20.35h-19.77V43.86h19.77v17.18ZM206.79 43.86v17.18h-19.77V43.86h19.77Zm-22.94 40.69v17.18h-19.77V84.55h19.77Zm-45.87 81.39v17.18h-19.77v-17.18h19.77Zm-65.65 20.35H92.1v17.18H72.33v-17.18Zm22.94 40.69h19.77v17.18H95.27v-17.18Zm458.75-3.17v-17.18h19.77v17.18h-19.77Zm42.71-61.04h-19.77v-17.18h19.77v17.18Zm-22.94-61.04h-19.77V84.55h19.77v17.18Zm-22.94-40.69h-19.77V43.86h19.77v17.18Zm-22.93 0h-19.77V43.86h19.77v17.18Zm-22.94 0h-19.77V43.86h19.77v17.18Zm-22.94-20.35h-19.77V23.51h19.77v17.18Zm-22.94 0h-19.77V23.51h19.77v17.18Zm-22.93 0H416.4V23.51h19.77v17.18Zm-22.94 0h-19.77V23.51h19.77v17.18Zm-22.94 0h-19.77V23.51h19.77v17.18Zm-22.94 0h-19.77V23.51h19.77v17.18Zm-22.94 0h-19.77V23.51h19.77v17.18Zm-22.93 0h-19.77V23.51h19.77v17.18Zm-22.94 0h-19.77V23.51h19.77v17.18Zm-22.94 0h-19.77V23.51h19.77v17.18Zm-22.94 0h-19.77V23.51h19.77v17.18Zm-22.93 0h-19.78V23.51h19.77v17.18h.01Zm-22.94 0h-19.77V23.51h19.77v17.18Zm-22.94 23.52v17.18h-19.77V64.21h19.77Zm-22.94 20.34v17.18h-19.77V84.55h19.77Zm-22.93 17.18h-19.77V84.55h19.77v17.18Zm-19.78 3.17h19.77v17.18H118.2V104.9Zm19.78 40.69v17.18h-19.77v-17.18h19.77Zm-22.94 20.35v17.18H95.27v-17.18h19.77ZM92.1 183.12H72.33v-17.18H92.1v17.18Zm-19.77 23.51H92.1v17.18H72.33v-17.18Zm22.94 40.7h19.77v17.18H95.27v-17.18Zm19.77 40.69v17.18H95.27v-17.18h19.77Zm-19.77 20.35h19.77v17.18H95.27v-17.18Zm22.93 0h19.77v17.18H118.2v-17.18Zm22.94 0h19.77v17.18h-19.77v-17.18Zm22.94 0h19.77v17.18h-19.77v-17.18Zm22.94 0h19.77v17.18h-19.77v-17.18Zm22.93 0h19.77v17.18h-19.77v-17.18Zm22.94 0h19.77v17.18h-19.77v-17.18Zm22.94 0h19.77v17.18h-19.77v-17.18Zm22.94 0h19.77v17.18h-19.77v-17.18Zm22.94 0h19.77v17.18h-19.77v-17.18Zm22.93 0h19.77v17.18h-19.77v-17.18Zm22.94 0h19.77v17.18h-19.77v-17.18Zm22.94 0h19.77v17.18h-19.77v-17.18Zm22.94 0h19.77v17.18h-19.77v-17.18Zm22.93 0h19.77v17.18h-19.77v-17.18Zm22.94 0h19.77v17.18h-19.77v-17.18Zm22.94 0h19.77v17.18h-19.77v-17.18Zm22.94 0h19.77v17.18h-19.77v-17.18Zm22.94 0h19.77v17.18h-19.77v-17.18Zm22.93 0h19.77v17.18h-19.77v-17.18Zm22.94-3.17v-17.18h19.77v17.18h-19.77Zm19.77-20.35h-19.77v-17.18h19.77v17.18Zm-19.77-40.69v-17.18h19.77v17.18h-19.77Zm22.94-20.35v-17.18h19.77v17.18h-19.77Zm22.94-40.69v-17.18h19.77v17.18H599.9Zm19.77-20.35H599.9v-17.18h19.77v17.18Zm-22.94-61.04h-19.77V84.55h19.77v17.18Zm-22.94-40.69h-19.77V43.86h19.77v17.18Zm-68.81-20.35h-19.77V23.51h19.77v17.18ZM95.27 104.9h19.77v17.18H95.27V104.9Zm-68.82 61.04h19.77v17.18H26.45v-17.18Zm22.94 40.69h19.77v17.18H49.39v-17.18Zm22.94 40.7H92.1v17.18H72.33v-17.18Zm524.4 37.52h-19.77v-17.18h19.77v17.18Zm45.88-61.04h-19.77v-17.18h19.77v17.18Zm-19.78-57.87h19.77v17.18h-19.77v-17.18Zm19.78-3.17h-19.77v-17.18h19.77v17.18Zm-22.94-20.34H599.9v-17.18h19.77v17.18Zm-22.94-61.04h-19.77V64.21h19.77v17.18Zm0-20.35h-19.77V43.86h19.77v17.18Zm-68.81-20.35h-19.77V23.51h19.77v17.18Zm-386.78 3.17h19.77v17.18h-19.77V43.86ZM72.33 104.9H92.1v17.18H72.33V104.9Zm22.94 20.35h19.77v17.18H95.27v-17.18ZM3.51998 165.94H23.29v17.18H3.51998v-17.18ZM26.45 186.29h19.77v17.18H26.45v-17.18Zm0 20.34h19.77v17.18H26.45v-17.18Zm22.94 20.35h19.77v17.18H49.39v-17.18Zm0 20.35h19.77v17.18H49.39v-17.18Zm22.94 20.34H92.1v17.18H72.33v-17.18Zm524.4 57.88h-19.77v-17.18h19.77v17.18Zm22.94-40.7H599.9v-17.18h19.77v17.18Zm-22.94-20.34h-19.77v-17.18h19.77v17.18Zm68.81-40.7h-19.77v-17.18h19.77v17.18Zm-22.93-20.34h-19.77v-17.18h19.77v17.18ZM622.83 81.39V65.17h19.77v17.18h-19.77v-.96Z"/><path fill="#D2EDF3" d="M688.48 165.94h-19.77v17.18h19.77v-17.18ZM665.54 206.63h-19.77v17.18h19.77v-17.18ZM665.54 226.98h-19.77v17.18h19.77v-17.18ZM665.54 267.67h-19.77v17.18h19.77v-17.18Z"/><path fill="#A8DFE6" d="M642.6 288.02h-19.77v17.18h19.77v-17.18ZM688.48 288.02h-19.77v17.18h19.77v-17.18Z"/><path fill="#D2EDF3" d="M344.41 23.51h-19.77v17.18h19.77V23.51ZM367.35 23.51h-19.77v17.18h19.77V23.51ZM390.29 23.51h-19.77v17.18h19.77V23.51ZM183.85 3.16992h-19.77V20.3499h19.77V3.16992ZM206.79 3.16992h-19.77V20.3499h19.77V3.16992ZM229.72 3.16992h-19.77V20.3499h19.77V3.16992ZM252.66 3.16992h-19.77V20.3499h19.77V3.16992ZM275.6 3.16992h-19.77V20.3499h19.77V3.16992ZM298.54 3.16992h-19.77V20.3499h19.77V3.16992ZM321.48 3.16992h-19.77V20.3499h19.77V3.16992ZM413.23 3.16992h-19.77V20.3499h19.77V3.16992ZM436.16 3.16992h-19.77V20.3499h19.77V3.16992ZM459.1 3.16992h-19.77V20.3499h19.77V3.16992ZM482.04 3.16992h-19.77V20.3499h19.77V3.16992ZM504.98 3.16992h-19.77V20.3499h19.77V3.16992ZM344.41 3.16992h-19.77V20.3499h19.77V3.16992ZM367.35 3.16992h-19.77V20.3499h19.77V3.16992ZM390.29 3.16992h-19.77V20.3499h19.77V3.16992ZM344.41 43.8601h-19.77v17.18h19.77v-17.18ZM367.35 43.8601h-19.77v17.18h19.77v-17.18ZM390.29 43.8601h-19.77v17.18h19.77v-17.18ZM344.41 64.21h-19.77v17.18h19.77V64.21ZM367.35 64.21h-19.77v17.18h19.77V64.21ZM390.29 64.21h-19.77v17.18h19.77V64.21ZM390.29 84.55h-19.77v17.18h19.77V84.55ZM344.41 104.9h-19.77v17.18h19.77V104.9ZM367.35 104.9h-19.77v17.18h19.77V104.9ZM344.41 125.25h-19.77v17.18h19.77v-17.18ZM367.35 125.25h-19.77v17.18h19.77v-17.18ZM344.41 145.59h-19.77v17.18h19.77v-17.18ZM367.35 145.59h-19.77v17.18h19.77v-17.18ZM344.41 165.94h-19.77v17.18h19.77v-17.18ZM367.35 165.94h-19.77v17.18h19.77v-17.18ZM344.41 186.29h-19.77v17.18h19.77v-17.18ZM367.35 186.29h-19.77v17.18h19.77v-17.18ZM344.41 206.63h-19.77v17.18h19.77v-17.18ZM367.35 206.63h-19.77v17.18h19.77v-17.18ZM344.41 226.98h-19.77v17.18h19.77v-17.18ZM367.35 226.98h-19.77v17.18h19.77v-17.18ZM390.29 247.33h-19.77v17.18h19.77v-17.18ZM344.41 267.67h-19.77v17.18h19.77v-17.18ZM367.35 267.67h-19.77v17.18h19.77v-17.18ZM390.29 267.67h-19.77v17.18h19.77v-17.18Z"/><path fill="#A8DFE6" d="M344.41 288.02h-19.77v17.18h19.77v-17.18ZM367.35 288.02h-19.77v17.18h19.77v-17.18ZM390.29 303.84l-1.18 1.36h1.18v-1.36ZM375.87 298.28c0-.14.02-.27.03-.41.29-.01.59-.1.85-.28l13.54-9.33v-.25h-19.77v17.18h9.11c-2.14-1.69-3.76-4.21-3.76-6.91ZM344.41 308.37h-19.77v17.18h19.77v-17.18ZM367.35 308.37h-19.77v17.18h19.77v-17.18ZM390.29 308.37h-19.77v17.18h19.77v-17.18ZM344.41 328.71h-19.77v17.18h19.77v-17.18ZM367.35 328.71h-19.77v17.18h19.77v-17.18ZM390.29 328.71h-19.77v17.18h19.77v-17.18Z"/><path fill="#1C6C79" d="M160.91 145.59h-19.77v17.18h19.77v-17.18ZM137.97 165.94H118.2v17.18h19.77v-17.18ZM137.97 186.29H118.2v17.18h19.77v-17.18ZM160.91 186.29h-19.77v17.18h19.77v-17.18ZM229.72 84.55h-19.77v17.18h19.77V84.55ZM206.79 104.9h-19.77v17.18h19.77V104.9ZM229.72 104.9h-19.77v17.18h19.77V104.9ZM183.85 125.25h-19.77v17.18h19.77v-17.18ZM229.72 125.25h-19.77v17.18h19.77v-17.18ZM229.72 145.59h-19.77v17.18h19.77v-17.18ZM229.72 165.94h-19.77v17.18h19.77v-17.18ZM183.85 186.29h-19.77v17.18h19.77v-17.18ZM206.79 186.29h-19.77v17.18h19.77v-17.18ZM229.72 186.29h-19.77v17.18h19.77v-17.18ZM252.66 186.29h-19.77v17.18h19.77v-17.18ZM229.72 206.63h-19.77v17.18h19.77v-17.18ZM229.72 226.98h-19.77v17.18h19.77v-17.18ZM229.72 247.33h-19.77v17.18h19.77v-17.18ZM459.1 145.59h-19.77v17.18h19.77v-17.18ZM436.16 165.94h-19.77v17.18h19.77v-17.18ZM436.16 186.29h-19.77v17.18h19.77v-17.18ZM459.1 186.29h-19.77v17.18h19.77v-17.18ZM527.92 84.55h-19.77v17.18h19.77V84.55ZM504.98 104.9h-19.77v17.18h19.77V104.9ZM527.92 104.9h-19.77v17.18h19.77V104.9ZM482.04 125.25h-19.77v17.18h19.77v-17.18ZM527.92 125.25h-19.77v17.18h19.77v-17.18ZM527.92 145.59h-19.77v17.18h19.77v-17.18ZM527.92 165.94h-19.77v17.18h19.77v-17.18ZM482.04 186.29h-19.77v17.18h19.77v-17.18ZM504.98 186.29h-19.77v17.18h19.77v-17.18ZM527.92 186.29h-19.77v17.18h19.77v-17.18ZM550.85 186.29h-19.77v17.18h19.77v-17.18ZM527.92 206.63h-19.77v17.18h19.77v-17.18ZM527.92 226.98h-19.77v17.18h19.77v-17.18ZM527.92 247.33h-19.77v17.18h19.77v-17.18Z"/><path fill="#42B8C9" d="M321.48 84.55h-19.77v17.18h19.77V84.55ZM298.54 104.9h-19.77v17.18h19.77V104.9ZM298.54 125.25h-19.77v17.18h19.77v-17.18ZM298.54 145.59h-19.77v17.18h19.77v-17.18ZM298.54 165.94h-19.77v17.18h19.77v-17.18ZM298.54 186.29h-19.77v17.18h19.77v-17.18ZM298.54 206.63h-19.77v17.18h19.77v-17.18ZM298.54 226.98h-19.77v17.18h19.77v-17.18ZM321.48 247.33h-19.77v17.18h19.77v-17.18ZM344.41 84.55h-19.77v17.18h19.77V84.55ZM367.35 84.55h-19.77v17.18h19.77V84.55ZM390.29 104.9h-19.77v17.18h19.77V104.9ZM390.29 125.25h-19.77v17.18h19.77v-17.18ZM390.29 145.59h-19.77v17.18h19.77v-17.18ZM390.29 165.94h-19.77v17.18h19.77v-17.18ZM390.29 186.29h-19.77v17.18h19.77v-17.18ZM390.29 206.63h-19.77v17.18h19.77v-17.18ZM390.29 226.98h-19.77v17.18h19.77v-17.18ZM344.41 247.33h-19.77v17.18h19.77v-17.18ZM367.35 247.33h-19.77v17.18h19.77v-17.18Z"/><path fill="#A8DFE6" d="M389.18 301.45c.64.6 1.29 1.06 1.88 1.4l-4.46-5.21c.35.87 1.08 2.4 2.58 3.81Z"/><path fill="#1C6C79" d="M282.64 402.22c-.42.09-.84.19-1.26.28.42-.09.84-.18 1.26-.28Z"/><path fill="#1C6C79" d="M510.73 363.67c-26.05.02-52.1.05-78.15.07l8.34-8.07c-15.94.23-31.89.45-47.83.68-1.01.01-2.02.03-3.03.04.35-9.67 1.31-19.35 2.89-28.88 2.59-.27 4.59-1.09 5.78-2.87 1.22-1.82 1.78-4.96.48-7.44-1.17-2.24-3.45-3.21-5.1-3.62-.12-1.35-.37-2.69-.75-3.99-.31-1.05-.71-2.08-1.19-3.07l42.25-48.63.92-1.1c.45-.57.41-1.39-.09-1.9-.47-.49-1.24-.57-1.82-.19-17.76 12.24-35.52 24.48-53.28 36.71-2.1-2.34-4.43-4.4-6.98-6.12-7.85-5.3-17.49-7.47-28.63-6.47-7.87.71-14.27 2.82-17.38 4.02-4.66 1.79-16.82 7.67-29 23.55-11.6 15.11-17.4 33.55-20.16 50.37-19.74-.11-39.48-.22-59.23-.34 4.9 3.39 9.81 6.78 14.71 10.18l.01.08-88.99 3.98 90.68 11.87.02.22c-4.87 10.59-9.73 21.18-14.6 31.76 7.19-.63 32.48-5.74 58.48-11.5 0-.01 0-.02-.01-.03l3.82-.82 54.75-11.73 53.1 29.25c3.42 2 6.84 4 10.27 6.01 7.39-8.32 14.78-16.63 22.17-24.95h87.42l-33.43-19.51c11.18-5.85 22.37-11.71 33.56-17.56Zm-210.07-55.35c11.7-15.24 23.22-20.82 27.63-22.52 23.62-9.08 38.97-.67 43.11 2.12 2.22 1.5 4.27 3.29 6.13 5.3l-2.57 1.77c-.72.5-.9 1.48-.41 2.2.32.46.84.7 1.36.68.29-.01.59-.1.85-.28l47.27-32.57-20.47 23.56c-.5-.66-.92-1.38-1.23-2.15-.32-.81-1.23-1.22-2.05-.9-.81.32-1.22 1.23-.9 2.05.49 1.25 1.19 2.42 2.06 3.44l-3.69 4.24c-.08-.07-.16-.13-.24-.2-.95-.89-1.7-2.01-2.18-3.23-.32-.81-1.23-1.22-2.05-.9-.81.32-1.22 1.23-.9 2.05.65 1.66 1.67 3.18 2.97 4.39.11.1.22.19.33.28l-3.53 4.06c-.09-.08-.18-.16-.29-.22-.58-.34-1.11-.74-1.6-1.19-.95-.89-1.71-2.01-2.18-3.23-.32-.82-1.24-1.22-2.05-.9-.81.32-1.22 1.23-.9 2.05.65 1.66 1.67 3.18 2.97 4.39.6.56 1.27 1.05 1.97 1.48l-1 1.15c-.01.01-.01.02-.02.03-.04.05-.07.09-.1.14-.03.04-.05.08-.08.12-.02.04-.03.08-.05.11 0 .01-.01.02-.01.02l-.06.15c-.01.05-.02.09-.03.14-.01.05-.02.1-.03.16-.01.05 0 .1 0 .15v.15c0 .05.02.1.02.15.01.05.02.11.03.16.01.04.03.08.05.12.02.06.04.11.07.17.01.01.01.02.01.03.6 1.09 1.08 2.25 1.43 3.43.43 1.44.66 2.94.7 4.45l.03 1.36 1.35.17c.72.09 3.14.53 4.01 2.2.72 1.37.28 3.33-.31 4.21-1.69 2.53-9.04 1.45-16.14.39-8.15-1.21-17.39-2.58-24.68-.25-1.94.62-7.08 2.26-9.57 7.06-.72 1.38-1.15 2.91-1.29 4.55-.08.87.57 1.64 1.44 1.71.05 0 .09.01.14.01.19 0 .37-.04.54-.1.56-.21.98-.72 1.03-1.35.11-1.22.42-2.35.95-3.36 1.89-3.63 5.98-4.94 7.73-5.5.44-.14.89-.26 1.35-.37 6.42-1.55 14.61-.34 21.9.74 3.81.56 7.28 1.07 10.24 1.18-1.85 11.41-2.86 23.04-2.98 34.58-.14 13.44 2.2 39.5 4.17 54.01l-40.13-22.1-12.66-6.97-58.78 12.59c-1.14-14.67-2.47-60.38 21.32-91.36Z"/><path fill="#1C6C79" d="M280.39 402.72c-.39.09-.79.18-1.18.26.39-.08.78-.17 1.18-.26Z"/><path fill="#fff" d="M349.29 336.94c.44-.76 1.4-1.02 2.16-.58.76.44 1.02 1.4.58 2.16-1.22 2.13-3.52 3.44-5.95 3.44-.18 0-.36-.01-.54-.02-.03 0-.06-.01-.09-.01-1.99 16.21 2.49 39.6 5.32 52.15l40.13 22.1c-1.96-14.51-4.31-40.57-4.17-54.01.12-11.54 1.13-23.17 2.98-34.58-2.96-.11-6.43-.62-10.24-1.18-7.29-1.08-15.48-2.29-21.9-.74-.45.11-.9.24-1.35.37-1.75.56-5.84 1.87-7.73 5.5-.53 1.01-.84 2.14-.95 3.36-.05.63-.47 1.14-1.03 1.35-.08.41-.31 1.6-.49 2.54 1.35.01 2.61-.69 3.27-1.85Z"/><path fill="#D2EDF3" d="m279.34 399.69 58.78-12.59 12.66 6.97c-2.82-12.54-7.31-35.94-5.32-52.15-2.57-.24-4.82-1.93-5.75-4.34-.32-.81.09-1.73.9-2.05.82-.32 1.73.09 2.05.9.51 1.31 1.74 2.23 3.14 2.34h.15c.17-.88.36-1.72.57-2.54-.17.06-.35.1-.54.1-.05 0-.09 0-.14-.01-.87-.08-1.52-.84-1.44-1.71.14-1.64.58-3.17 1.29-4.55 2.49-4.79 7.63-6.44 9.57-7.06 7.29-2.33 16.52-.96 24.68.25 7.1 1.05 14.45 2.14 16.14-.39.59-.88 1.03-2.84.31-4.21-.87-1.67-3.29-2.11-4.01-2.2l-1.35-.17-.03-1.36c-.04-1.51-.27-3.01-.7-4.45-.35-1.19-.83-2.34-1.43-3.43-.01-.01-.01-.02-.01-.03-.03-.06-.05-.11-.07-.17-.02-.04-.03-.08-.05-.12-.02-.05-.02-.1-.03-.16-.01-.05-.02-.1-.02-.15v-.3c.01-.05.02-.1.03-.16.01-.05.02-.09.03-.14l.06-.15c0-.01.01-.02.01-.02-.55.58-1.34 1.21-2.4 1.51-4.19 1.16-10.56-3.53-10.55-8.88 0-.14.02-.27.03-.41-.52.02-1.04-.22-1.36-.68-.5-.72-.31-1.71.41-2.2l2.57-1.77c-1.86-2.02-3.9-3.8-6.13-5.3-4.14-2.79-19.49-11.2-43.11-2.12-4.41 1.7-15.93 7.29-27.63 22.52-23.78 30.99-22.45 76.7-21.31 91.38Zm48.97-87.19 10.77-10.77c.41-.42 1.02-.57 1.59-.39l12.71 3.92c.71.22 1.17.89 1.11 1.63l-.67 9.12c-.04.48-.29.92-.69 1.2l-9.89 6.71c-.27.18-.58.27-.89.27-.47 0-.94-.21-1.25-.61l-6.89-8.78c-.53-.68-.42-1.66.25-2.21l5.97-4.83c.44-.36 1.04-.45 1.57-.25l6.13 2.37c.44.17.78.53.93.98.15.45.09.94-.17 1.34l-2.91 4.59c-.43.68-1.3.93-2.02.58l-2.45-1.18c-.79-.38-1.12-1.33-.74-2.11.38-.79 1.33-1.12 2.11-.74l1.18.57 1.12-1.77-3.48-1.34-4.04 3.28 5.01 6.4 8.03-5.45.52-7.09-10.59-3.27-9.24 9.24 4.47 7.88c.43.76.16 1.73-.6 2.16-.76.43-1.73.16-2.16-.6l-5.06-8.93c-.34-.64-.23-1.41.27-1.92ZM279.07 402.99c0 .01 0 .02.01.03.04-.01.09-.02.13-.03.39-.09.79-.18 1.18-.26.33-.07.66-.15 1-.22.42-.09.84-.19 1.26-.28.08-.02.16-.04.24-.05l-3.82.81Z"/><path fill="#1C6C79" d="M346.09 341.96c2.43 0 4.72-1.31 5.95-3.44.44-.76.17-1.73-.58-2.16-.76-.43-1.73-.17-2.16.58-.67 1.16-1.92 1.86-3.25 1.84h-.24c-1.4-.11-2.63-1.03-3.14-2.34-.32-.81-1.23-1.22-2.05-.9-.81.32-1.22 1.23-.9 2.05.94 2.41 3.19 4.1 5.75 4.34.03 0 .06.01.09.01.18.01.35.02.53.02ZM333.12 323.33c.43.76 1.4 1.03 2.16.6.76-.43 1.03-1.4.6-2.16l-4.47-7.88 9.24-9.24 10.59 3.27-.52 7.09-8.03 5.45-5.01-6.4 4.04-3.28 3.48 1.34-1.12 1.77-1.18-.57c-.79-.38-1.73-.05-2.11.74-.38.79-.05 1.73.74 2.11l2.45 1.18c.72.35 1.59.1 2.02-.58l2.91-4.59c.25-.4.31-.89.17-1.34-.14-.45-.49-.81-.93-.98l-6.13-2.37c-.53-.2-1.13-.11-1.57.25l-5.97 4.83c-.67.54-.78 1.53-.25 2.21l6.89 8.78c.31.4.78.61 1.25.61.31 0 .62-.09.89-.27l9.89-6.71c.4-.27.65-.71.69-1.2l.67-9.12c.05-.74-.41-1.41-1.11-1.63l-12.71-3.92c-.56-.17-1.17-.02-1.59.39l-10.77 10.77c-.5.5-.61 1.28-.26 1.9l5.05 8.95Z"/></g><defs><clipPath id="a"><path fill="#fff" d="M0 0h691.3v425.7H0z" transform="translate(.349976)"/></clipPath></defs></svg>
