<svg id="editor/bold" viewBox="0 0 24 24" fill="none" xmlns="http://www.w3.org/2000/svg">
<path d="M13.25 12H7.25M13.25 12C13.25 12 15.25 11 15.25 8.49999C15.25 6.93305 14.2679 5.85718 13.5348 5.27236C13.0494 4.88512 12.4267 4.75 11.8058 4.74999L10.75 4.74998L8.75 4.74997C8.1474 4.73319 7.78024 4.89661 7.56016 5.07513C7.28544 5.29797 7.25 5.67921 7.25 6.03294V12M13.25 12C13.25 12 16.75 12.5 16.75 15.5C16.75 17.6058 15.5182 18.603 14.7839 19.0104C14.4435 19.1992 14.0522 19.25 13.6629 19.25H8.5C7.80964 19.25 7.25 18.6903 7.25 18V18V12" stroke="currentColor" stroke-width="1.5" stroke-linecap="round"/>
</svg>
