<svg id="narwhal/error" xmlns="http://www.w3.org/2000/svg" fill="none" viewBox="0 0 124 117"><path fill="#fff" d="M63.7336 51.0996c-5.1511-1.0951-13.6313-11.144-13.6313-11.144-.0992.3773-.1653.7626-.1977 1.1514-.2809-.3204-.4403-.5089-.4403-.5089s-.3781 1.2591-.1944 3.1596c.3372 3.4889 1.6459 5.9797 2.5129 7.5911 1.3798 2.5645 2.7848 4.1493 4.6862 6.2942.5287.5964 1.1564 1.162 2.2822 2.1473l.4405-.8159c.0659.0578.1279.1125.1976.1734l4.3443-8.0482Z"/><path fill="#E2E2E2" d="M58.7512 59.7903c-1.1259-.9854-1.7535-1.5509-2.2822-2.1473-1.9014-2.1449-3.3064-3.7297-4.6862-6.2942-.867-1.6114-2.1757-4.1022-2.5129-7.5912-.1837-1.9005.1944-3.1596.1944-3.1596s8.4802 10.049 13.6312 11.144"/><path fill="#fff" d="M110.699 80.9032c-1.412.5398-2.633 1.3343-3.622 2.5634-.935.9711-1.695 2.2592-2.247 3.9961-.563 1.7728-.953 3.1398-1.776 4.2092-2.437 2.4758-7.0035 3.1864-8.6539 3.2649-1.7678.0841-4.8435-.4025-6.706-3.5827-.0778-.1327-.952-2.2018-.6549-3.6928.5112-2.5663 5.6304-11.9334 7.0188-14.7423.0608-.1231.1145-.2336.1603-.3304l.3682-1.0412c.4644.4867.9023.9171 1.2858 1.2933 2.8329 2.7799 6.5147 5.1494 6.7797 4.8424.075-.0861-.129-.3733-.235-.5303-.249-.3713-.465-.7639-.645-1.1732 1.045.6883 1.762 1.0914 1.762 1.0914s-1.901-2.7707-2.104-8.9268c-.088-2.6872-.131-4.2254-.263-5.4418-.258-2.3973-.752-4.2436-1.5302-5.6826l.8982-2.5814c.676-3.1851.991-6.8713.764-10.1274-.113-1.6059-.3-2.7757-.369-3.1919-1.0057-6.0128-4.0876-13.0726-7.4642-16.7728-6.9806-7.6496-18.3814-10.8671-28.5549-4.0952-.3641.2636-.7049.5579-1.0188.8796-.16.1324-.3214.2657-.4784.3959-.0687.0403-.1296.0928-.1796.1548L39.4123 1.70958C37.446.0745391 35.9653-.432818 35.1574.383574c-.0966.100066-.1735.217488-.2265.346087-.0883.052949-.17.116348-.2431.188828-.9463.954441.2288 3.188461 1.5463 4.765101L57.2586 31.1323c-.4156.9613-.5799 3.1661-.1655 4.8041l-.0011-.0003c.0011.0031.0023.0059.0034.0089.1025.4496.2838.8774.5356 1.2636.0061.0117.0111.0242.0172.0359-.0051.0395-.0088.0675-.0116.0883-.0127.0685-.0215.1376-.0261.2072-.1066.0549-.2089.1178-.306.1881-.1638.0062-.3955.2185-.5995.667-.4129.6868-.5009 1.6034-.4158 2.5941.016 1.2804.2604 2.9593.9373 5.1051.4325 1.371.7114 3.0717.8942 4.7494.032 1.4493.1631 3.4595.3373 5.5213.0042.1916.0079.3726.0106.5313.0867 5.1096.981 9.6969 2.1718 13.8444.9711 3.9253 2.2322 7.6494 3.6557 10.7268.2098.4536.4332.9321.6653 1.4214.2805.742.5519 1.4712.7999 2.1771 1.2861 3.6602 3.8151 6.4034 6.1639 8.2976 1.5434 1.5596 3.2776 2.9177 5.1616 4.0422.7732.4605 6.587 3.2942 13.6453 2.7712 1.7792-.131 4.94-.365 8.4538-1.8488 1.3051-.551 3.1641-1.3448 3.2571-1.168.027.0518-.132.2795-.174.3319-.684.8555-2.6167 4.0579-1.184 7.6559.215.54.95 2.329 2.676 3.404 1.493.93 3.629 1.077 6.049.697 2.242-.352 4.086-1.934 4.42-2.231.361-.321 1.14-.928 1.285-1.161-.016-.009-.03-.018-.046-.028.19-.149.363-.319.515-.507-5.91-3.471-7.715-6.6317-7.715-6.6317-.16-.3649-.907-2.2599.367-4.3926.257-.4064.546-.7926.862-1.1553 1.089-1.2036 2.546-2.5682 3.658-3.3105 1.774-1.1848 5.176-3.0952 9.307-2.9057.632.0289.988.0986 1.055-.057.038-.0865-.019-.2454-.148-.4519.359.0237.568.032.618-.083.354-.8141-7.2-7.7588-13.289-5.4311Z"/><path fill="#E2E2E2" d="m59.4954 62.9587.0011.003c.003.0183.0063.037.0093.0553-.0032-.0188-.0071-.04-.0104-.0583ZM60.8284 69.4366c-.568-2.3572-.9972-4.4942-1.3226-6.4197.339 1.9009 1.1214 5.7754 2.2073 9.6669-.3525-1.1736-.6497-2.2714-.8847-3.2472ZM67.2094 85.7657c-.8899-1.5596-1.7004-3.1632-2.4284-4.8047.6822 1.252 1.3935 2.6769 2.216 4.1765l.2124.6282ZM64.7658 80.9326c-1.1589-2.1239-2.1993-5.1907-3.0526-8.2487.847 2.821 1.8716 5.5856 3.0679 8.2771-.0051-.0093-.0103-.019-.0153-.0284Z"/><path fill="#383C42" d="M59.1951 59.4348c-.0117-.0079-.0229-.0166-.0336-.0258-1.2031-1.0529-1.7903-1.5883-2.3129-2.1779-1.9346-2.1822-3.3325-3.7588-4.7315-6.3591-.8233-1.5304-2.2015-4.0915-2.5524-7.7212-.1879-1.9459.1913-3.2388.2077-3.2928.0178-.0597.0514-.1136.0972-.1559.0458-.0423.1021-.0716.163-.0847.0607-.0128.1237-.0091.1824.0109s.111.0555.1512.1027c.0838.0994 8.4643 9.9718 13.441 11.0303.0443.0094.0862.0275.1235.0533.0372.0257.069.0586.0934.0967.0245.0381.0411.0807.049.1253.0079.0445.0069.0902-.003.1344-.0193.0897-.0733.168-.1502.218-.0769.0499-.1705.0674-.2602.0486-4.5709-.9724-11.5007-8.5965-13.36-10.7226-.1111.7833-.1275 1.5771-.0486 2.3643.3375 3.4915 1.6746 5.9763 2.4735 7.461 1.361 2.5301 2.7366 4.0817 4.6408 6.2294.4977.5617 1.0714 1.084 2.2516 2.1168.0657.0582.1069.1392.1153.2267.0083.0874-.0168.1747-.0704.2443-.0535.0696-.1315.1163-.2181.1307-.0867.0143-.1755-.0047-.2487-.0534Z"/><path fill="#E2E2E2" d="M94.058 72.919c-1.3883 2.8089-6.5075 12.176-7.0188 14.7422-.297 1.491.5771 3.5601.6549 3.6928 1.8626 3.1802 4.9383 3.6668 6.7061 3.5828 1.7315-.0824 6.6778-.8558 9.0018-3.6387.912-1.0914 1.307-2.5093 1.898-4.3704 1.081-3.4027 2.956-5.0907 5.399-6.0245 6.089-2.3277 13.643 4.6169 13.289 5.431-.068.1557-.424.0859-1.055.057-4.131-.1894-7.533 1.7209-9.308 2.9057-1.714 1.1446-4.255 3.7714-4.989 5.0007-1.274 2.1328-.527 4.0277-.367 4.3927 0 0 1.805 3.1607 7.715 6.6317-.145.233-.924.84-1.284 1.161-.334.297-2.178 1.879-4.421 2.231-2.419.38-4.556.233-6.048-.697-1.726-1.075-2.462-2.864-2.676-3.404-1.433-3.598.5-6.8004 1.184-7.6559.042-.0525.201-.28.174-.332-.093-.1767-1.952.6171-3.2574 1.1682-3.5138 1.4837-6.6747 1.7176-8.4539 1.8492-7.0582.5225-12.872-2.3112-13.6452-2.7716-5.3751-3.2013-8.3654-7.7331-10.5596-11.7335l-7.5004-22.1757c-1.2134-7.2095-.9512-11.4045-.9086-12.7415.034-1.0665-.4683-3.8751-.7301-4.9091-.6054-2.3901-2.8025-6.4733-.2473-7.7712.0316-.2972 0 0 .0387-.3023-1.0515-1.4589-.714-4.6261-.1703-5.8837L36.7036 5.14864c-1.3174-1.57659-2.4925-3.81063-1.5462-4.765067.8079-.816393 2.2886-.3090272 4.2549 1.325997L63.2342 21.6814c.05-.0621.1108-.1145.1796-.1548.157-.1302.3183-.2635.4783-.3959.3139-.3217.6548-.616 1.0189-.8796 10.1734-6.7719 21.5742-3.5545 28.5548 4.0952 3.3766 3.7002 6.4585 10.7599 7.4642 16.7728.069.4161.257 1.586.369 3.1919.228 3.2561-.088 6.9423-.764 10.1274l-1.2375 3.5567c-.7504-2.3411-1.9642-3.8758-3.7658-4.9164-.8667-.5007-1.5537-.7387-2.0228-.7704-1.9161-.1299-3.9022 1.1134-4.5025 3.5671-.1671.6828-.3657 2.1018.3058 4.6393 1.4863 5.6158 4.793 9.6463 5.3148 10.249.0554.0639.1126.1271.1693.1906l-.5779 1.6342c-.0458.0968-.0995.2074-.1604.3305Z"/><path fill="#fff" fill-rule="evenodd" d="M77.1499 96.6227s-12.9182-7.42-4.5768-23.0537c1.0152-1.9027 3.9739-7.6617 5.0024-10.1042 2.1149-5.0224.7241-18.0542-3.7771-21.6853-.7081-.5712-1.5745-.7808-2.497-1.3626-6.3679-4.0163-8.3458-3.4084-13.8527-2.6286-.6291.0891-2.2833 1.7726-.2222 8.306 1.056 3.3475 1.2058 8.6625 1.2421 10.802.2015 11.8743 4.7535 20.9434 7.2927 28.1698 2.7831 7.9208 11.3886 11.5566 11.3886 11.5566Z" clip-rule="evenodd"/><path fill="#E2E2E2" d="M103.534 77.071s-1.901-2.7707-2.104-8.9268c-.088-2.6871-.131-4.2254-.263-5.4418-.501-4.653-1.882-7.2431-4.5278-8.7714-.8668-.5007-1.5538-.7387-2.0229-.7705-1.9162-.1297-3.9022 1.1135-4.5025 3.5672-.1671.6829-.3657 2.1018.3058 4.6393 1.4863 5.6158 4.9735 9.1019 5.4952 9.7045 2.9006 3.3502 7.6192 5.9995 7.6192 5.9995Z"/><path fill="#fff" fill-rule="evenodd" d="M61.6351 24.6699 37.0164 2.42678c-1.0491-.94202-1.5215-1.03033-2.2351-1.26653.5097-.347252 1.5747.17183 2.4205.78944L62.9454 23.651c.3894 1.5149-1.3157 4.1041-2.9938 4.4829.7906-.9878 1.766-2.2748 1.7998-3.3972" clip-rule="evenodd"/><path fill="#B4B4B4" fill-rule="evenodd" d="M89.7638 24.8227c-.6094-.2318-1.1859.1149-1.2844.7692-.0476.3248.0137.6562.1745.9423.1608.2862.4119.511.714.6392.5963.2262 1.1725-.1213 1.2849-.769.0476-.3248-.0138-.6563-.1747-.9425s-.4121-.511-.7143-.6392M83.1796 23.4579c-.5343-.0994-.9615.2455-.9711.8063.0061.2736.1013.5378.2712.7524s.4051.3679.6701.4367c.5342.0994.9627-.2456.9716-.806-.0062-.2738-.1015-.538-.2715-.7527-.1699-.2146-.4053-.368-.6703-.4367M98.7241 43.9708c-.7356-.6398-1.7098-.46-2.2011.3928-.2434.428-.3349.9257-.2596 1.4122.0753.4866.313.9333.6744 1.2676.7193.6289 1.6931.4498 2.1733-.386.2411-.4278.3338-.9232.2638-1.4092s-.2988-.9351-.6508-1.2774M97.1277 35.6208c-.6443-.5598-1.5076-.4067-1.9366.3429-.2105.3819-.2894.8225-.2246 1.2538.0648.4312.2697.8291.5832 1.1323.6432.5601 1.5082.4071 1.9368-.3419.429-.7495.2749-1.8099-.3588-2.3871M95.0425 38.9568c-.476-.4097-1.1316-.2936-1.4463.2669-.1573.28-.2156.6049-.1653.9221.0503.3172.2061.6081.4423.8258.466.4275 1.1037.3004 1.4357-.2494.1524-.2836.2087-.6088.1607-.9271-.0481-.3182-.1979-.6123-.4271-.8383M98.7806 49.9157c-.4838-.4374-1.1663-.3148-1.4922.2627-.1655.2928-.2288.6323-.1799.9651.049.3328.2073.6397.4502.8724.5112.4313 1.1662.3149 1.5085-.2518.3348-.595.2242-1.4165-.2866-1.8484" clip-rule="evenodd"/><path fill="#B4B4B4" fill-rule="evenodd" d="M92.1867 72.4251c-.025-.1038-.0742-.2003-.1435-.2816-.0693-.0813-.1568-.1451-.2554-.1863-.0986-.0411-.2055-.0584-.312-.0505-.1065.0079-.2097.0408-.3012.096-.214.115-.3836.2982-.4817.5204-.0981.2223-.1192.471-.0599.7066.0262.1039.076.2003.1456.2818.0696.0815.157.1458.2555.1879.0985.0422.2054.061.3124.055.107-.0059.2111-.0365.3044-.0893.2153-.1167.3852-.3024.4824-.5273.0972-.2248.116-.4758.0534-.7127" clip-rule="evenodd" opacity=".6"/><path fill="#B4B4B4" fill-rule="evenodd" d="m38.1872 2.16848.7057.59551c-.2132.76251-1.3869 2.03177-1.9304 2.16406.2968-.52878 1.0812-1.57008 1.2247-2.75957Zm6.1772 5.10796.8178.6829c-.2067 1.17705-1.3998 2.76836-2.4035 2.83216.5987-.6434 1.452-2.04104 1.5857-3.51506Zm6.4149 5.32946 1.0588.8823c-.4898 1.7519-2.3586 3.6014-3.1107 3.584.7275-.7479 1.9174-2.9924 2.0519-4.4663Zm6.4897 5.3868 1.2088.9992c-.4882 1.9694-2.5761 4.0592-3.8173 4.228 1.186-1.2235 2.4879-3.4901 2.6085-5.2272Z" clip-rule="evenodd"/><path fill="#383C42" d="M107.771 109.788c-1.719.039-3.123-.276-4.191-.941-.845-.527-2.02-1.574-2.814-3.569-1.392-3.497.251-6.5415.952-7.6055-.661.2409-1.641.6548-2.2589.9162l-.1402.0591c-3.5655 1.5052-6.8155 1.7462-8.5614 1.8752-7.7602.574-13.7882-2.7847-13.8456-2.8191-7.5705-4.5085-10.7942-11.4781-12.9274-16.0903-2.3643-5.1107-4.2388-11.813-5.1435-18.3885-.4526-3.291-1.0047-9.3199-1.0665-12.4631-.0197-.9997-.4522-3.7746-.7194-4.8304-.0779-.3065-.174-.6501-.2774-1.0188-.7002-2.499-1.7502-6.2461.5118-7.5911-1.0355-1.6004-.9055-4.739-.4248-6.1246L35.9698 5.90521C34.5545 4.21116 33.3045 1.8233 34.4446.673485c.9434-.953362 2.5305-.514279 4.717 1.303795L62.7621 21.7636l.5573-.4769c.2868-.2902.5988-.5545.9323-.7897 10.8342-7.2118 22.3706-3.1124 28.9977 4.1497 3.3455 3.6664 6.5206 10.7947 7.5496 16.95.166.994.295 2.1091.373 3.2251.22 3.1529-.06 6.8796-.77 10.2241l-.313.9084c-.015.0428-.038.0823-.068.1161-.0301.0339-.0666.0614-.1073.0812-.0408.0197-.085.0312-.1302.0337-.0452.0026-.0905-.0038-.1332-.0188-.0863-.0309-.1569-.0948-.1963-.1775-.0395-.0828-.0447-.1778-.0144-.2644l.3015-.8661c.6849-3.2415.9609-6.8975.7449-9.9884-.076-1.094-.203-2.1863-.365-3.1585-1.0096-6.0376-4.1124-13.0173-7.378-16.5959-6.4296-7.0456-17.6159-11.0274-28.112-4.0404-.2997.2131-.5801.4521-.8379.7143l-.2943.2613-.3362.2783c-.0156.0129-.0322.0243-.0498.0343-.0302.0185-.057.0419-.0795.0693-.0284.0359-.0638.0658-.1039.0878-.0402.022-.0843.0357-.1299.0404-.0455.0047-.0916.0001-.1353-.0133-.0438-.0134-.0845-.0355-.1196-.0649L38.7229 2.5111c-1.0496-.87311-2.9402-2.209219-3.7914-1.34774-.7214.72746.2416 2.71237 1.5656 4.29699L57.5227 30.9107c.0409.0495.0673.1093.0763.1729.009.0636.0003.1284-.0252.1873-.5368 1.2417-.5936 4.4489.3538 5.763.0516.0718.074.1606.0626.2484-.0078.062-.0147.114-.0235.1589h.0002l-.0146.1358c-.0061.0574-.0263.1123-.059.1599-.0326.0476-.0766.0863-.128.1126-1.9716 1.0014-.981 4.536-.3256 6.8752.1049.3747.2027.7241.2816 1.0358.2559 1.0105.7187 3.8567.7409 4.988.0612 3.1196.6102 9.1098 1.0601 12.3817.8954 6.5098 2.7491 13.1401 5.0854 18.191 2.0974 4.5345 5.267 11.387 12.6541 15.7861 1.1727.6989 6.8902 3.2107 13.445 2.7246 1.7068-.1262 4.884-.3614 8.3461-1.8233l.1402-.0591c3.0909-1.3068 3.3499-1.3405 3.5539-.9506.039.074.143.2717-.21.711-.11.1374-2.681 3.4211-1.133 7.3101.725 1.821 1.78 2.765 2.538 3.237 1.329.828 3.286 1.048 5.814.65 2.116-.332 3.908-1.849 4.247-2.149.106-.095.248-.214.4-.341.153-.128.384-.322.563-.483-5.624-3.388-7.391-6.4064-7.465-6.5358-.257-.5837-.939-2.5503.37-4.7443.749-1.2532 3.297-3.9109 5.095-5.1108 3.161-2.1109 6.363-3.1075 9.513-2.9629.144.0065.274.0151.389.0229.077.005.157.0102.23.0138-.367-.5964-1.821-2.0779-4.078-3.399-1.841-1.0777-5.415-2.6998-8.669-1.4558-2.636 1.0078-4.238 2.7984-5.193 5.8064l-.145.4568c-.524 1.6639-.938 2.9782-1.817 4.031-2.285 2.7364-7.0495 3.657-9.2494 3.7617-1.4092.0634-4.9165-.1646-7.0183-3.753-.1125-.1917-1.016-2.3305-.6959-3.937.4037-2.0264 3.5354-8.0449 5.6076-12.0277.7349-1.4127 1.3155-2.5286 1.5984-3.1259l.1792-.5213c.0147-.0428.0377-.0823.0677-.1162s.0665-.0615.1073-.0812c.0407-.0198.085-.0312.1302-.0338.0452-.0025.0905.0039.1332.019.0863.031.1569.0948.1964.1775.0394.0828.0446.1778.0144.2644l-.1934.5556c-.3027.6439-.8859 1.7647-1.6242 3.1841-2.0542 3.9476-5.158 9.9132-5.5424 11.842-.2613 1.3107.5041 3.2407.6166 3.4535 1.9088 3.2586 5.1031 3.4715 6.3907 3.4075 2.0961-.0995 6.6239-.9624 8.7559-3.5155.791-.9475 1.187-2.2041 1.688-3.7948l.145-.4582c1.011-3.1843 2.792-5.1681 5.604-6.243 5.301-2.0262 11.254 2.5642 12.921 4.3321.901.9545.903 1.3365.805 1.5623-.149.3432-.51.3195-1.01.2862-.111-.0074-.236-.0159-.375-.0223-3.002-.1348-6.065.8209-9.102 2.8486-1.683 1.1235-4.179 3.7076-4.885 4.8904-1.139 1.9085-.554 3.6012-.347 4.0746.002-.0001 1.833 3.1001 7.574 6.4721.039.023.074.055.102.092.027.037.047.08.058.125.011.045.013.091.006.137-.007.046-.023.09-.048.129-.123.198-.461.488-.963.909-.146.122-.283.237-.385.328-.51.453-2.349 1.961-4.595 2.314-.692.111-1.391.177-2.092.196Z"/><path fill="#383C42" d="M102.595 78.0562c.06-.0006.119-.0139.174-.039.055-.0252.103-.0616.143-.1069.244-.2835-.008-.6545-.211-.9528-1.702-2.5143-1.612-6.2225-1.578-7.6184.005-.2168.009-.3823.006-.4851-.016-.5224-.004-1.0453.035-1.5665.041-.6798.093-1.5256.08-3.2646l-.001-.4177c-.001-.5976-.001-1.275-.042-1.6194-.483-4.0856-2.4256-6.8227-3.497-7.7957-.0335-.0304-.0727-.0538-.1153-.069-.0426-.0152-.0877-.0218-.1329-.0195-.0452.0024-.0894.0137-.1302.0332-.0408.0195-.0773.0469-.1074.0806-.0611.0685-.0927.1583-.088.25.0048.0917.0454.1777.1132.2396 1.0003.9083 2.8156 3.481 3.2746 7.3624.036.3039.037.9883.037 1.5383l.001.422c.013 1.7155-.038 2.5482-.078 3.2176-.041.5426-.053 1.0869-.037 1.6308.003.0945-.001.2465-.005.4456-.035 1.411-.124 5.0852 1.547 7.7927-1.175-.6338-3.7147-2.4061-5.8714-4.5223-2.0174-1.9796-5.3937-5.2927-6.4606-10.6679-.6115-3.0803-.5427-4.4462-.1868-6.0262.0105-.0442.0121-.09.0047-.1348-.0073-.0448-.0234-.0877-.0474-.1262-.024-.0386-.0553-.072-.0923-.0983-.0369-.0264-.0787-.0452-.1229-.0554-.0443-.0101-.0901-.0114-.1348-.0037-.0448.0076-.0876.024-.1259.0482-.0384.0243-.0716.0559-.0977.093-.0261.0371-.0446.0791-.0545.1234-.3774 1.6759-.4528 3.1127.183 6.3156 1.109 5.5859 4.581 8.9931 6.6559 11.0292 2.5908 2.5422 6.1627 4.9851 6.9557 4.9673l.007-.0001Zm-.262-.3855-.005.0001.005-.0001Z"/><path fill="#F1F1F1" d="M78.9657 36.1376c.0362.0222.6584.4648.9684.4215.1062-.0148.2048-.027.2925-.0368.1137-.0106.2283.006.3342.0486.106.0425.2002.1098.2749.1961.0374.0545.0892.0976.1496.1245.0603.0269.127.0366.1926.0279.2824-.0796.6441-.1958.6441-.1958s-.526 1.1247-1.6837.772c-.3045-.0911-.5767-.2673-.7845-.5079-.2077-.2406-.3424-.5356-.3881-.8501Z"/><path fill="#383C42" d="M62.9558 37.0084c3.0126.3186 6.2127 1.31 8.7143 2.8183 3.0088 1.8142 4.8963 4.2439 5.4583 7.027.0088.045.0085.0912-.0008.1361-.0092.0449-.0273.0874-.0532.1252-.0259.0379-.0591.0701-.0976.095-.0384.0249-.0815.0418-.1266.0499-.0914.0177-.1861-.0011-.2637-.0524-.0777-.0513-.1322-.1311-.1518-.2221-.5225-2.5874-2.2974-4.8589-5.1331-6.5686-4.5878-2.7659-10.4764-3.3157-13.6877-2.4286-.0897.0255-.1858.0146-.2676-.0303-.0817-.0448-.1425-.1201-.1693-.2094-.0126-.044-.0164-.0901-.0109-.1355.0054-.0455.0198-.0894.0424-.1292.0226-.0398.0529-.0747.0892-.1026.0362-.028.0777-.0484.122-.0601 1.5832-.4376 3.5177-.5262 5.5361-.3127Z"/><path fill="#383C42" fill-rule="evenodd" d="M81.3852 34.3169c-.1782-.1122-.3769-.1881-.5845-.2232-.2076-.0352-.4201-.029-.6253.0182-.2053.0473-.3991.1346-.5705.257-.1713.1224-.3168.2774-.428.4562-.22.3616-.2901.7948-.1955 1.2074.0945.4125.3463.7719.7017 1.0016.177.112.3744.1877.5809.2227.2064.0351.4178.0287.6217-.0186.204-.0474.3966-.1348.5665-.2571.1699-.1224.3138-.2773.4233-.4558.2263-.3583.3017-.7916.2098-1.2053-.0918-.4136-.3435-.7743-.7001-1.0031" clip-rule="evenodd"/><g opacity=".8"><path fill="#F1F1F1" d="M81.1443 41.3545c-1.0084-.0485-1.277-1.3274.1685-3.4999 1.2508 2.3746.8219 3.5476-.1685 3.4999Z" opacity=".8"/><path fill="#fff" d="M81.1833 41.2223c.1494.0151.2996-.0194.4273-.0982.1278-.0788.2261-.1975.2797-.3377-.1441.0832-.3091.1233-.4753.1155-.5871-.0282-.9127-.482-.8056-1.2782-.3089.9961-.0303 1.5695.5739 1.5986ZM81.6808 39.0859c.0413.2376.0053.4422-.0805.4571-.0856.0149-.1885-.1656-.2298-.4031-.0413-.2377-.0052-.4423.0804-.4572.0857-.0149.1887.1657.2299.4032Z" opacity=".8"/></g><path fill="#fff" fill-rule="evenodd" d="M31.323 48.7088c-5.6741 2.3502-10.7538 7.017-14.1218 12.9736-3.3681 5.9566-4.7484 12.715-3.8375 18.7887.911 6.0736 4.0387 10.9648 8.695 13.5976 4.6563 2.6328 10.4598 2.7915 16.1338.4412 5.6741-2.3502 10.7539-7.017 14.1219-12.9735 3.368-5.9566 4.7484-12.7151 3.8374-18.7887-.911-6.0736-4.0386-10.9649-8.6949-13.5977-4.6563-2.6328-10.4599-2.7915-16.1339-.4412Zm10.8931 9.7099-.2409-.1091c-.4065-.1374-.8751-.0906-1.3205.1317-.4455.2223-.8383.6055-1.1069 1.0798l-5.2188 9.2297-7.2145-4.0768-.2409-.1091c-.4068-.1369-.8755-.0896-1.3209.1332s-.8379.6064-1.1062 1.081l-.1498.3024c-.2106.5003-.2683 1.0333-.1627 1.5021.1057.4687.3676.8422.7383 1.0524l7.215 4.0795-5.2162 9.2287-.1498.3024c-.2102.5005-.2675 1.0335-.1614 1.5021.1061.4686.3685.8416.7395 1.0513l.2409.1091c.4065.1374.8751.0907 1.3206-.1317.4454-.2223.8382-.6054 1.1069-1.0798l5.2187-9.2297 7.2146 4.0768.2409.1091c.4067.1369.8754.0897 1.3208-.1332.4454-.2228.8379-.6064 1.1062-1.081l.1498-.3024c.2106-.5003.2683-1.0333.1627-1.5021-.1056-.4687-.3676-.8422-.7383-1.0524l-7.215-4.0795 5.2163-9.2287.1498-.3024c.2102-.5005.2675-1.0335.1614-1.5021-.1061-.4686-.3686-.8416-.7396-1.0513Z" clip-rule="evenodd"/><path fill="#fff" fill-rule="evenodd" d="M59.9272 61.1838c-2.2318-14.88-15.3093-22.2743-29.2103-16.5163-13.9011 5.758-23.36037 22.4874-21.12858 37.3674 2.23178 14.88 15.30928 22.2741 29.21038 16.5163 13.9011-5.758 23.3603-22.4874 21.1285-37.3674Zm-42.726.4986c3.368-5.9566 8.4477-10.6234 14.1218-12.9736 5.674-2.3503 11.4776-2.1916 16.1339.4412s7.7839 7.5241 8.6949 13.5977c.911 6.0736-.4694 12.8321-3.8374 18.7887-3.368 5.9565-8.4478 10.6233-14.1219 12.9735-5.674 2.3503-11.4775 2.1916-16.1338-.4412-4.6563-2.6328-7.784-7.524-8.695-13.5976-.9109-6.0737.4694-12.8321 3.8375-18.7887Z" clip-rule="evenodd"/><path fill="#fff" d="m41.9752 58.3096.2409.1091c.371.2097.6335.5827.7396 1.0513.1061.4686.0488 1.0016-.1614 1.5021l-.1498.3024-5.2163 9.2287 7.215 4.0795c.3707.2102.6327.5837.7383 1.0524.1056.4688.0479 1.0018-.1627 1.5021l-.1498.3024c-.2683.4746-.6608.8582-1.1062 1.081-.4454.2229-.9141.2701-1.3208.1332l-.2409-.1091-7.2146-4.0768-5.2187 9.2297c-.2687.4744-.6615.8575-1.1069 1.0798-.4455.2224-.9141.2691-1.3206.1317l-.2409-.1091c-.371-.2097-.6334-.5827-.7395-1.0513-.1061-.4686-.0488-1.0016.1614-1.5021l.1498-.3024 5.2162-9.2287-7.215-4.0795c-.3707-.2102-.6326-.5837-.7383-1.0524-.1056-.4688-.0479-1.0018.1627-1.5021l.1498-.3024c.2683-.4746.6608-.8582 1.1062-1.081s.9141-.2701 1.3209-.1332l.2409.1091 7.2145 4.0768 5.2188-9.2297c.2686-.4743.6614-.8575 1.1069-1.0798.4454-.2223.914-.2691 1.3205-.1317Z"/><path fill="#CA3F32" fill-rule="evenodd" d="M34.9485 49.9842c-5.5539 2.3006-10.5262 6.8685-13.8229 12.6991-3.2968 5.8305-4.6479 12.4459-3.7563 18.391.8917 5.9451 3.9532 10.7328 8.511 13.3099 4.5577 2.5771 10.2384 2.7324 15.7924.4319s10.5262-6.8685 13.823-12.699c3.2967-5.8306 4.6479-12.446 3.7562-18.3911-.8917-5.9451-3.9532-10.7328-8.5109-13.3099-4.5578-2.577-10.2385-2.7324-15.7925-.4319Zm10.6626 9.5044-.2358-.1068c-.3979-.1344-.8565-.0887-1.2926.129-.436.2176-.8205.5926-1.0834 1.0569l-5.1083 9.0344-7.0619-3.9905-.2358-.1068c-.3982-.134-.8569-.0878-1.2929.1303-.436.2182-.8202.5936-1.0828 1.0582l-.1466.296c-.2062.4897-.2627 1.0114-.1593 1.4703.1034.4588.3598.8243.7227 1.0301l7.0623 3.9932-5.1059 9.0334-.1466.296c-.2058.4899-.2618 1.0116-.158 1.4703.1039.4587.3607.8238.7239 1.0291l.2358.1068c.3979.1344.8566.0887 1.2926-.1289.436-.2177.8205-.5927 1.0835-1.057l5.1083-9.0344 7.0619 3.9906.2358.1067c.3981.134.8569.0878 1.2928-.1303.436-.2181.8202-.5936 1.0829-1.0582l.1466-.296c.2061-.4897.2626-1.0114.1592-1.4703-.1034-.4588-.3598-.8243-.7227-1.0301l-7.0622-3.9932 5.1058-9.0334.1466-.296c.2058-.4899.2619-1.0116.158-1.4703-.1038-.4586-.3607-.8238-.7239-1.0291Z" clip-rule="evenodd"/><path fill="#CA3F32" fill-rule="evenodd" d="M62.9474 62.1953c-2.1846-14.5651-14.9853-21.803-28.5922-16.1668C20.7483 51.6646 11.4893 68.04 13.6738 82.605c2.1846 14.5651 14.9853 21.803 28.5922 16.1668 13.6069-5.6361 22.866-22.0115 20.6814-36.5765Zm-41.8218.488c3.2967-5.8306 8.269-10.3985 13.8229-12.6991 5.554-2.3005 11.2347-2.1451 15.7925.4319 4.5577 2.5771 7.6192 7.3648 8.5109 13.3099.8917 5.9451-.4595 12.5605-3.7562 18.3911-3.2968 5.8305-8.269 10.3985-13.823 12.699-5.554 2.3005-11.2347 2.1452-15.7924-.4319-4.5578-2.5771-7.6193-7.3648-8.511-13.3099-.8916-5.9451.4595-12.5605 3.7563-18.391Z" clip-rule="evenodd"/></svg>
