<svg id="narwhal/error-with-color" viewBox="0 0 160 160" fill="none" xmlns="http://www.w3.org/2000/svg">
<path fill-rule="evenodd" clip-rule="evenodd" d="M90.8212 22.3157C110.677 19.3742 134.036 9.05981 148.037 23.5235C162.478 38.4414 153.586 62.4769 149.447 82.8779C145.116 104.226 143.854 129.976 124.469 139.699C104.947 149.49 83.4771 135.33 63.8134 125.829C44.112 116.31 18.0874 108.587 15.0277 86.8192C12.0422 65.5794 35.1639 51.6889 51.4446 37.8334C62.767 28.1975 76.1481 24.4895 90.8212 22.3157Z" fill="#F9FCFF"/>
<path d="M53.8999 84.2457C60.6985 68.8169 58.9198 53.2054 49.9271 49.3764C40.9344 45.5474 28.1329 54.9509 21.3343 70.3796C14.5357 85.8084 16.3144 101.42 25.3071 105.249C34.2998 109.078 47.1012 99.6745 53.8999 84.2457Z" fill="#2A394A"/>
<path d="M55.4957 84.9244C62.2943 69.4956 60.5156 53.8841 51.5229 50.0551C42.5302 46.2261 29.7288 55.6296 22.9301 71.0584C16.1315 86.4871 17.9102 102.099 26.9029 105.928C35.8957 109.757 48.6971 100.353 55.4957 84.9244Z" fill="white"/>
<path fill-rule="evenodd" clip-rule="evenodd" d="M40.9696 63.1647C40.4587 63.1193 39.8248 63.4903 39.3139 64.1336L29.5258 76.4584C29.0279 77.0853 28.7223 77.876 28.7223 78.5373V91.7966C28.7223 92.4578 29.0279 92.8909 29.5258 92.9352L39.3139 93.8049C39.8248 93.8503 40.4587 93.4794 40.9696 92.8361L50.7576 80.5113C51.2555 79.8844 51.5611 79.0936 51.5611 78.4324V65.1731C51.5611 64.5118 51.2555 64.0787 50.7576 64.0345L40.9696 63.1647ZM40.1417 71.0166C40.8174 70.6212 43.0405 70.6458 43.0405 71.4191L43.9517 80.5113C43.9517 81.2846 41.6453 82.6738 40.9696 83.0692C40.2939 83.4646 38.9182 81.3742 38.9182 80.6009V73.1328C38.9182 72.3594 39.466 71.412 40.1417 71.0166ZM43.9517 85.1603C43.9517 85.9336 41.894 88.0508 41.2182 88.4462C40.5425 88.8416 38.9182 86.5084 38.9182 85.7351C38.9182 84.9617 39.466 84.0143 40.1417 83.6189C40.8174 83.2235 43.9517 84.3869 43.9517 85.1603Z" fill="#2A394A"/>
<path fill-rule="evenodd" clip-rule="evenodd" d="M42.1844 64.3593C41.6735 64.3139 41.0396 64.6849 40.5287 65.3282L30.7406 77.653C30.2428 78.2799 29.9371 79.0706 29.9371 79.7319V92.9912C29.9371 93.6524 30.2428 94.0855 30.7406 94.1297L40.5287 94.9995C41.0396 95.0449 41.6735 94.674 42.1844 94.0307L51.9725 81.7059C52.4703 81.079 52.776 80.2882 52.776 79.627V66.3677C52.776 65.7064 52.4703 65.2733 51.9725 65.2291L42.1844 64.3593ZM41.3566 72.2112C42.0323 71.8158 42.5801 72.1221 42.5801 72.8955V80.3636C42.5801 81.1369 42.0323 82.0844 41.3566 82.4798C40.6808 82.8752 40.133 82.5688 40.133 81.7954V74.3274C40.133 73.554 40.6808 72.6066 41.3566 72.2112ZM42.5801 85.4978C42.5801 86.2711 42.0323 87.2185 41.3566 87.614C40.6808 88.0094 40.133 87.703 40.133 86.9296C40.133 86.1563 40.6808 85.2088 41.3566 84.8134C42.0323 84.418 42.5801 84.7244 42.5801 85.4978Z" fill="#CA3F32"/>
<path d="M75.7151 75.913C70.2391 74.1858 62.0973 62.488 62.0973 62.488C61.9498 62.8826 61.8372 63.2892 61.7608 63.7032C61.4899 63.3291 61.3367 63.1096 61.3367 63.1096C61.3367 63.1096 60.7929 64.4211 60.7912 66.4815C60.7878 70.2638 61.9448 73.0784 62.7154 74.9014C63.9417 77.8027 65.2991 79.6548 67.1361 82.1614C67.6469 82.8584 68.2684 83.5329 69.3863 84.7113L69.9508 83.8825C70.0162 83.9516 70.0778 84.0169 70.1469 84.0898L75.7151 75.913Z" fill="white"/>
<path d="M69.3863 84.7112C68.2683 83.5327 67.6469 82.8582 67.1361 82.1612C65.2991 79.6546 63.9417 77.8025 62.7154 74.9012C61.9448 73.0782 60.7878 70.2636 60.7912 66.4812C60.793 64.4209 61.3367 63.1094 61.3367 63.1094C61.3367 63.1094 69.4785 74.8072 74.9544 76.5344" fill="#97E8EC"/>
<path d="M69.9058 84.3773C69.894 84.3675 69.8827 84.3571 69.8721 84.346C68.6776 83.0866 68.0967 82.4489 67.5918 81.7599C65.7228 79.2096 64.3722 77.3672 63.1289 74.4254C62.3971 72.694 61.1722 69.7964 61.1756 65.8616C61.1776 63.752 61.7261 62.4044 61.7496 62.3481C61.7753 62.2859 61.8175 62.2317 61.8716 62.1911C61.9258 62.1506 61.99 62.1252 62.0576 62.1176C62.1248 62.1103 62.1928 62.1212 62.2545 62.1489C62.3161 62.1767 62.369 62.2203 62.4077 62.2753C62.4882 62.391 70.5405 73.8886 75.8309 75.5578C75.8779 75.5727 75.9216 75.5967 75.9593 75.6283C75.997 75.6599 76.028 75.6986 76.0505 75.7421C76.073 75.7857 76.0866 75.8332 76.0904 75.8819C76.0943 75.9306 76.0883 75.9795 76.0729 76.0259C76.0424 76.1201 75.9755 76.1985 75.8867 76.2439C75.798 76.2893 75.6946 76.298 75.5991 76.2682C70.7402 74.7348 64.0247 65.8066 62.2314 63.3248C62.0277 64.1539 61.926 65.0045 61.9283 65.8582C61.9249 69.6434 63.1134 72.4545 63.8234 74.1342C65.033 76.9966 66.3621 78.8099 68.2017 81.3198C68.6826 81.9762 69.2501 82.5984 70.4219 83.8337C70.4871 83.9033 70.5232 83.9947 70.523 84.0894C70.5228 84.1842 70.4863 84.2753 70.4208 84.3443C70.3553 84.4133 70.2657 84.4551 70.1701 84.4612C70.0745 84.4674 69.9801 84.4374 69.9058 84.3773L69.9058 84.3773Z" fill="#383C42"/>
<path d="M123.543 112.942C121.953 113.371 120.544 114.093 119.34 115.307C118.222 116.25 117.261 117.551 116.478 119.357C115.679 121.201 115.111 122.627 114.104 123.687C111.196 126.084 106.164 126.359 104.364 126.266C102.436 126.167 99.149 125.315 97.4637 121.701C97.3934 121.551 96.6634 119.235 97.1438 117.666C97.9705 114.965 104.519 105.455 106.324 102.588C106.403 102.462 106.473 102.349 106.533 102.25L107.043 101.172C107.496 101.744 107.925 102.253 108.302 102.698C111.083 105.986 114.829 108.925 115.149 108.623C115.239 108.539 115.049 108.209 114.95 108.029C114.719 107.603 114.526 107.159 114.374 106.7C115.435 107.551 116.171 108.06 116.171 108.06C116.171 108.06 114.401 104.882 114.833 98.2502C115.021 95.3553 115.137 93.699 115.123 92.3789C115.097 89.7772 114.756 87.7417 114.064 86.1133L115.312 83.4378C116.383 80.0901 117.116 76.1659 117.213 72.6452C117.261 70.9089 117.182 69.6327 117.15 69.1784C116.696 62.6145 114.098 54.7042 110.824 50.3697C104.056 41.4087 92.0204 36.7335 80.2594 42.9159C79.8363 43.16 79.4351 43.4394 79.0603 43.7513C78.8726 43.8763 78.6833 44.0022 78.4991 44.1252C78.4202 44.1611 78.3486 44.2109 78.2877 44.2722L54.5422 20.2775C52.5808 18.3114 51.0271 17.6081 50.0637 18.3983C49.9482 18.4954 49.8523 18.6132 49.7812 18.7456C49.6797 18.793 49.5843 18.8524 49.4972 18.9223C48.3689 19.8459 49.408 22.3704 50.6714 24.2044L70.8003 53.7804C70.2473 54.7681 69.8355 57.1179 70.112 58.9212L70.1108 58.9207C70.1116 58.9241 70.1127 58.9272 70.1136 58.9306C70.1772 59.4243 70.3288 59.903 70.5612 60.3447C70.5666 60.3579 70.5707 60.3719 70.5761 60.3851C70.5664 60.427 70.5594 60.4566 70.5542 60.4786C70.5331 60.5508 70.5163 60.6242 70.5038 60.6983C70.3823 60.7458 70.2646 60.8024 70.1518 60.8676C69.9733 60.8567 69.6993 61.0599 69.4304 61.5196C68.9094 62.2129 68.7169 63.1877 68.7043 64.2605C68.5861 65.637 68.6737 67.466 69.1813 69.8424C69.5056 71.3608 69.6283 73.2168 69.6492 75.0378C69.5305 76.5974 69.4599 78.7699 69.4307 81.0024C69.415 81.2085 69.3999 81.4033 69.386 81.574C68.9392 87.0697 69.4242 92.091 70.2778 96.6718C70.9163 100.991 71.8911 105.124 73.1105 108.581C73.2902 109.091 73.4821 109.628 73.6823 110.178C73.9082 111.005 74.1256 111.817 74.3201 112.602C75.3287 116.67 77.7836 119.886 80.1329 122.171C81.6432 124.011 83.382 125.655 85.3082 127.064C86.0987 127.641 92.11 131.306 99.8275 131.501C101.773 131.55 105.229 131.637 109.2 130.42C110.675 129.968 112.778 129.315 112.86 129.514C112.884 129.573 112.687 129.8 112.636 129.852C111.803 130.698 109.366 133.929 110.54 137.946C110.716 138.549 111.325 140.548 113.084 141.888C114.606 143.046 116.91 143.433 119.577 143.284C122.049 143.146 124.218 141.644 124.612 141.361C125.037 141.055 125.947 140.487 126.129 140.252C126.113 140.24 126.099 140.229 126.083 140.217C126.305 140.077 126.51 139.913 126.695 139.728C120.647 135.368 119.022 131.781 119.022 131.781C118.888 131.372 118.277 129.257 119.885 127.104C120.208 126.695 120.562 126.311 120.944 125.956C122.253 124.78 123.98 123.47 125.265 122.792C127.317 121.71 131.212 120.023 135.677 120.669C136.359 120.767 136.738 120.88 136.828 120.72C136.878 120.632 136.833 120.455 136.714 120.219C137.102 120.283 137.328 120.315 137.394 120.196C137.865 119.36 130.4 111.095 123.543 112.942Z" fill="white"/>
<path d="M69.8588 88.1931L69.8596 88.1964C69.8608 88.216 69.8623 88.2362 69.8635 88.2558C69.8621 88.2356 69.8602 88.2128 69.8588 88.1931Z" fill="#97E8EC"/>
<path d="M70.6199 95.2916C70.2529 92.6997 70.0132 90.3592 69.8639 88.2568C70.0306 90.3342 70.4698 94.5782 71.2366 98.873C70.9781 97.575 70.7717 96.3644 70.6199 95.2916Z" fill="#97E8EC"/>
<path d="M106.324 102.588C104.52 105.455 97.9706 114.965 97.1438 117.666C96.6635 119.235 97.3933 121.55 97.4637 121.701C99.149 125.315 102.436 126.167 104.364 126.266C106.253 126.363 111.705 126.062 114.522 123.322C115.627 122.248 116.206 120.768 117.045 118.833C118.578 115.295 120.793 113.683 123.544 112.942C130.4 111.094 137.865 119.36 137.394 120.196C137.305 120.356 136.925 120.243 136.243 120.144C131.779 119.499 127.884 121.186 125.832 122.268C123.849 123.314 120.812 125.862 119.886 127.103C118.278 129.257 118.888 131.372 119.022 131.781C119.022 131.781 120.647 135.368 126.696 139.728C126.514 139.962 125.604 140.531 125.178 140.836C124.784 141.12 122.615 142.621 120.143 142.759C117.477 142.908 115.173 142.521 113.651 141.363C111.891 140.024 111.282 138.024 111.106 137.422C109.932 133.404 112.37 130.173 113.203 129.328C113.254 129.276 113.45 129.049 113.426 128.99C113.344 128.79 111.242 129.444 109.767 129.896C105.795 131.113 102.339 131.025 100.394 130.976C92.6764 130.781 86.6652 127.117 85.8746 126.54C80.3786 122.527 77.6122 117.341 75.6539 112.811L69.8596 88.1965C69.3057 80.3255 70.0345 75.8491 70.2224 74.4181C70.3721 73.2766 70.1243 70.2071 69.9495 69.0688C69.5454 66.4377 67.5926 61.8181 70.5038 60.6981C70.5696 60.3823 70.5038 60.6981 70.5779 60.3776C69.5908 58.6985 70.2926 55.3339 71.016 54.0418L51.2376 23.68C49.9744 21.8461 48.9353 19.3216 50.0637 18.398C51.0271 17.6079 52.5808 18.3112 54.5422 20.2773L78.2877 44.2719C78.3486 44.2107 78.4202 44.1609 78.4991 44.1249C78.6833 44.0019 78.8725 43.8761 79.0603 43.7511C79.4351 43.4392 79.8363 43.1597 80.2595 42.9157C92.0203 36.7333 104.056 41.4084 110.824 50.3695C114.098 54.704 116.696 62.6143 117.15 69.1781C117.182 69.6325 117.262 70.9086 117.213 72.645C117.116 76.1656 116.383 80.0899 115.312 83.4375L113.592 87.124C113.025 84.53 111.87 82.7521 110.024 81.442C109.137 80.8116 108.416 80.4825 107.91 80.3982C105.844 80.0537 103.556 81.1761 102.645 83.7464C102.391 84.4618 102.025 85.9641 102.486 88.7606C103.504 94.9497 106.667 99.6314 107.17 100.334C107.223 100.409 107.279 100.483 107.333 100.557L106.533 102.25C106.473 102.349 106.403 102.462 106.324 102.588Z" fill="#97E8EC"/>
<path d="M75.8181 113.508C75.0172 111.738 74.3071 109.929 73.6906 108.089C74.2986 109.506 74.9199 111.112 75.654 112.811L75.8181 113.508Z" fill="#97E8EC"/>
<path d="M73.6769 108.057C72.6437 105.652 71.8391 102.248 71.2365 98.8728C71.8573 101.993 72.6769 105.071 73.6905 108.089C73.686 108.078 73.6814 108.067 73.6769 108.057Z" fill="#97E8EC"/>
<path fill-rule="evenodd" clip-rule="evenodd" d="M85.4595 126.229C85.4595 126.229 72.2216 116.879 82.932 100.986C84.2355 99.0514 88.0571 93.1844 89.4322 90.6718C92.2598 85.5053 92.1299 71.3636 87.628 66.983C86.9197 66.2938 86.0015 65.976 85.0616 65.2525C78.5741 60.2584 76.3626 60.6994 70.302 60.9472C69.6096 60.9755 67.6356 62.6062 69.1813 69.842C69.9732 73.5494 69.5731 79.2724 69.386 81.5736C68.3475 94.3452 72.3288 104.57 74.3201 112.602C76.5027 121.404 85.4595 126.229 85.4595 126.229Z" fill="white"/>
<path d="M116.171 108.06C116.171 108.06 114.401 104.882 114.833 98.2498C115.021 95.3549 115.137 93.6986 115.124 92.3785C115.072 87.3286 113.847 84.3997 111.136 82.4754C110.249 81.8451 109.528 81.516 109.022 81.4317C106.956 81.0872 104.668 82.2096 103.757 84.7799C103.503 85.4953 103.137 86.9976 103.597 89.7941C104.616 95.9832 108.033 100.1 108.535 100.803C111.329 104.71 116.171 108.06 116.171 108.06Z" fill="#97E8EC"/>
<path d="M76.3626 60.6996C79.5993 61.3642 82.9682 62.7712 85.5242 64.6585C88.5984 66.9286 90.3901 69.7396 90.7055 72.788C90.7103 72.8372 90.7051 72.8869 90.6903 72.9341C90.6755 72.9813 90.6513 73.025 90.6192 73.0629C90.5871 73.1007 90.5477 73.1318 90.5033 73.1544C90.4588 73.1769 90.4103 73.1906 90.3605 73.1944C90.2594 73.2036 90.1586 73.1733 90.0797 73.1099C90.0009 73.0465 89.9502 72.955 89.9386 72.8552C89.6453 70.0211 87.959 67.392 85.0617 65.2527C80.3742 61.7917 74.0399 60.5711 70.46 61.1799C70.3599 61.1976 70.2567 61.1756 70.1727 61.1187C70.0887 61.0618 70.0307 60.9745 70.0111 60.8757C70.002 60.8271 70.0028 60.7772 70.0135 60.729C70.0242 60.6808 70.0445 60.6352 70.0733 60.5948C70.102 60.5545 70.1386 60.5203 70.181 60.4942C70.2233 60.4681 70.2705 60.4506 70.3197 60.4427C72.0848 60.1423 74.1942 60.2543 76.3626 60.6996Z" fill="#383C42"/>
<path d="M115.047 109.018C115.113 109.023 115.178 109.015 115.24 108.994C115.303 108.973 115.359 108.939 115.407 108.895C115.702 108.617 115.467 108.191 115.279 107.849C113.698 104.967 114.188 100.995 114.372 99.5001C114.401 99.2679 114.423 99.0906 114.43 98.9798C114.469 98.4172 114.537 97.857 114.635 97.3016C114.751 96.5761 114.896 95.6734 115.067 93.8048L115.11 93.3562C115.172 92.7144 115.243 91.987 115.236 91.6129C115.144 87.1742 113.325 84.0274 112.265 82.8679C112.232 82.8317 112.192 82.8023 112.147 82.7814C112.102 82.7606 112.054 82.7486 112.005 82.7463C111.956 82.744 111.906 82.7514 111.86 82.768C111.814 82.7846 111.771 82.8101 111.735 82.843C111.661 82.9101 111.617 83.0031 111.613 83.1021C111.608 83.201 111.643 83.2978 111.71 83.3715C112.7 84.4538 114.398 87.4105 114.486 91.6274C114.492 91.9575 114.421 92.6925 114.363 93.2831L114.32 93.7363C114.151 95.5797 114.009 96.4684 113.894 97.1828C113.792 97.7611 113.721 98.3443 113.681 98.93C113.675 99.0318 113.654 99.1945 113.628 99.4079C113.441 100.919 112.955 104.855 114.483 107.941C113.274 107.135 110.705 104.96 108.588 102.457C106.607 100.115 103.293 96.1961 102.704 90.3104C102.366 86.9374 102.586 85.4781 103.139 83.8197C103.155 83.7734 103.162 83.7244 103.159 83.6755C103.155 83.6266 103.142 83.5788 103.121 83.5349C103.099 83.4909 103.068 83.4517 103.031 83.4194C102.993 83.3872 102.95 83.3625 102.903 83.3469C102.856 83.3313 102.807 83.325 102.757 83.3284C102.708 83.3318 102.66 83.3448 102.615 83.3668C102.571 83.3887 102.532 83.419 102.5 83.4561C102.467 83.4932 102.443 83.5362 102.427 83.5827C101.84 85.3419 101.606 86.8765 101.957 90.3838C102.57 96.5003 105.978 100.53 108.015 102.939C110.558 105.946 114.177 108.951 115.04 109.017L115.047 109.018ZM114.804 108.576L114.799 108.575L114.804 108.576Z" fill="#383C42"/>
<path fill-rule="evenodd" clip-rule="evenodd" d="M76.2354 47.3096L51.8652 20.7908C50.8261 19.667 50.3227 19.5216 49.573 19.1916C50.1631 18.8733 51.2642 19.5446 52.117 20.2983L77.7656 46.3558C78.0279 48.024 75.9028 50.6217 74.041 50.8488C75.0038 49.8728 76.199 48.5953 76.3545 47.3937" fill="white"/>
<path fill-rule="evenodd" clip-rule="evenodd" d="M106.755 50.4846C106.118 50.1704 105.455 50.481 105.279 51.173C105.193 51.5166 105.224 51.879 105.369 52.2035C105.513 52.528 105.762 52.7962 106.076 52.9663C106.699 53.2729 107.362 52.9615 107.552 52.2781C107.638 51.9344 107.607 51.5719 107.462 51.2474C107.318 50.9228 107.069 50.6546 106.755 50.4846" fill="#21AAAD"/>
<path fill-rule="evenodd" clip-rule="evenodd" d="M99.7517 48.3146C99.1822 48.1507 98.6819 48.4753 98.6121 49.0764C98.5898 49.3709 98.6652 49.6647 98.8269 49.9133C98.9886 50.162 99.2277 50.3518 99.508 50.454C100.077 50.6179 100.579 50.2933 100.648 49.6925C100.67 49.3979 100.595 49.104 100.433 48.8553C100.271 48.6066 100.032 48.4168 99.7517 48.3146" fill="#21AAAD"/>
<path fill-rule="evenodd" clip-rule="evenodd" d="M114.454 72.0041C113.724 71.2385 112.647 71.3272 112.023 72.1903C111.714 72.6238 111.562 73.1484 111.592 73.6789C111.622 74.2094 111.833 74.7145 112.19 75.1122C112.904 75.8644 113.98 75.7763 114.59 74.9303C114.897 74.4968 115.05 73.9747 115.026 73.4454C115.001 72.9161 114.8 72.4094 114.454 72.0041" fill="#21AAAD"/>
<path fill-rule="evenodd" clip-rule="evenodd" d="M113.605 62.8671C112.965 62.1971 112.012 62.2691 111.467 63.028C111.198 63.4156 111.065 63.8802 111.09 64.3502C111.115 64.8202 111.295 65.2694 111.603 65.6285C112.242 66.2987 113.197 66.227 113.742 65.4687C114.287 64.7098 114.232 63.5547 113.605 62.8671" fill="#21AAAD"/>
<path fill-rule="evenodd" clip-rule="evenodd" d="M110.988 66.2262C110.515 65.7353 109.791 65.7898 109.39 66.3579C109.19 66.6417 109.092 66.9843 109.113 67.3303C109.134 67.6763 109.272 68.0054 109.506 68.2644C109.966 68.7733 110.672 68.7051 111.091 68.1502C111.286 67.8621 111.382 67.5189 111.363 67.172C111.345 66.8252 111.213 66.4933 110.988 66.2262" fill="#21AAAD"/>
<path fill-rule="evenodd" clip-rule="evenodd" d="M113.886 78.3932C113.407 77.8717 112.654 77.9303 112.239 78.5155C112.028 78.8121 111.923 79.17 111.941 79.5325C111.959 79.895 112.098 80.2416 112.337 80.5175C112.847 81.0353 113.57 80.9804 114.002 80.4086C114.428 79.8055 114.395 78.9116 113.886 78.3932" fill="#21AAAD"/>
<path opacity="0.6" fill-rule="evenodd" clip-rule="evenodd" d="M104.345 101.857C104.329 101.743 104.285 101.634 104.219 101.539C104.152 101.445 104.064 101.367 103.961 101.312C103.859 101.257 103.744 101.227 103.628 101.224C103.511 101.221 103.396 101.246 103.291 101.295C103.046 101.396 102.843 101.574 102.713 101.803C102.583 102.031 102.534 102.295 102.573 102.555C102.59 102.669 102.634 102.778 102.701 102.873C102.768 102.968 102.856 103.046 102.959 103.102C103.061 103.158 103.175 103.19 103.292 103.195C103.409 103.2 103.525 103.178 103.632 103.131C103.878 103.029 104.082 102.848 104.211 102.617C104.341 102.386 104.388 102.118 104.345 101.857" fill="#21AAAD"/>
<path fill-rule="evenodd" clip-rule="evenodd" d="M53.1636 20.6387L53.8667 21.3536C53.5545 22.1496 52.146 23.3868 51.5419 23.4707C51.9202 22.9347 52.8818 21.9005 53.1636 20.6387L53.1636 20.6387ZM59.3286 26.7846L60.144 27.6054C59.795 28.8471 58.3313 30.4281 57.235 30.3891C57.953 29.7624 59.0273 28.353 59.3286 26.7846ZM65.728 33.1938L66.784 34.2545C66.0668 36.0831 63.8423 37.8689 63.0277 37.7698C63.8967 37.0446 65.426 34.7619 65.728 33.1938L65.728 33.1938ZM72.2026 39.6724L73.4091 40.8747C72.6706 42.9371 70.1828 44.9575 68.8175 45.006C70.2345 43.8192 71.8878 41.5248 72.2026 39.6724Z" fill="#21AAAD"/>
<path d="M117.307 143.644C115.437 143.501 113.945 143.013 112.857 142.184C111.995 141.528 110.831 140.279 110.18 138.051C109.039 134.148 111.145 131.054 112.019 129.987C111.276 130.175 110.168 130.514 109.469 130.729L109.311 130.777C105.281 132.012 101.727 131.922 99.8185 131.874C91.3335 131.66 85.1454 127.408 85.0867 127.365C77.3459 121.714 74.5842 113.885 72.7568 108.704C70.7313 102.964 69.406 95.5663 69.1201 88.4091C68.9773 84.8269 69.0163 78.2943 69.282 74.9127C69.3665 73.8371 69.1908 70.8113 69.0124 69.649C68.9604 69.3115 68.8924 68.9323 68.8191 68.5254C68.3236 65.7671 67.5806 61.6313 70.1785 60.4292C69.2239 58.6 69.6973 55.2438 70.3658 53.8076L50.361 24.4137C49.0039 22.4432 47.8998 19.7455 49.2592 18.6329C50.3843 17.7102 52.0606 18.3516 54.2417 20.5378L77.7666 44.3096L78.422 43.8572C78.7642 43.5762 79.1308 43.3259 79.5177 43.109C92.0425 36.525 104.132 42.1617 110.557 50.6688C113.801 54.9636 116.493 62.9576 116.958 69.6769C117.033 70.7619 117.055 71.9731 117.022 73.1798C116.927 76.5888 116.228 80.5603 115.103 84.0755L114.667 85.0173C114.646 85.0617 114.617 85.1016 114.581 85.1347C114.545 85.1679 114.502 85.1936 114.456 85.2104C114.41 85.2272 114.36 85.2348 114.311 85.2327C114.262 85.2307 114.213 85.2189 114.169 85.1983C114.078 85.1558 114.008 85.0797 113.974 84.9866C113.94 84.8935 113.945 84.791 113.987 84.7012L114.406 83.8035C115.493 80.3963 116.179 76.5002 116.272 73.1582C116.305 71.9754 116.283 70.7889 116.21 69.7277C115.753 63.1367 113.124 55.3102 109.958 51.1181C103.724 42.8647 92.0023 37.3918 79.8683 43.7705C79.5204 43.9673 79.1907 44.1939 78.883 44.4478L78.536 44.6969L78.1415 44.9598C78.1232 44.9719 78.1039 44.9824 78.0838 44.9913C78.0491 45.0079 78.0174 45.0302 77.9902 45.0571C77.9555 45.0927 77.914 45.1209 77.8681 45.1403C77.8222 45.1596 77.7728 45.1697 77.7228 45.1698C77.6729 45.1699 77.6234 45.1601 77.5773 45.141C77.5312 45.1219 77.4894 45.0938 77.4544 45.0585L53.709 21.064C52.662 20.0142 50.7511 18.3771 49.7358 19.211C48.8757 19.9149 49.711 22.1493 50.9805 23.9925L71.1105 53.5704C71.1496 53.628 71.1719 53.695 71.175 53.7642C71.178 53.8334 71.1617 53.9021 71.1278 53.9626C70.4136 55.2384 70.0124 58.6761 70.9016 60.1885C70.9501 60.2712 70.965 60.3689 70.9434 60.4619C70.9283 60.5277 70.9153 60.5828 70.901 60.6301L70.9012 60.6301L70.8709 60.7743C70.8583 60.8353 70.8305 60.8921 70.79 60.9397C70.7496 60.9873 70.6977 61.0242 70.6392 61.0469C68.3929 61.9111 69.0939 65.8125 69.5577 68.3942C69.6319 68.8079 69.7011 69.1935 69.7538 69.5366C69.9246 70.649 70.1256 73.7547 70.0299 74.9717C69.7661 78.3281 69.7279 84.8187 69.8698 88.3801C70.1526 95.4658 71.4628 102.784 73.4643 108.457C75.2611 113.55 77.9763 121.248 85.5297 126.762C86.7288 127.638 92.6695 130.947 99.8367 131.127C101.703 131.174 105.177 131.261 109.09 130.062L109.248 130.014C112.742 128.941 113.027 128.933 113.207 129.373C113.241 129.457 113.333 129.68 112.903 130.114C112.77 130.25 109.631 133.501 110.9 137.842C111.494 139.875 112.539 141.002 113.312 141.59C114.667 142.621 116.768 143.066 119.555 142.91C121.887 142.78 123.994 141.343 124.392 141.057C124.518 140.967 124.685 140.854 124.864 140.733C125.043 140.612 125.314 140.43 125.526 140.275C119.778 136.035 118.18 132.605 118.114 132.459C117.896 131.804 117.364 129.62 119.018 127.404C119.963 126.139 123.011 123.558 125.089 122.462C128.745 120.534 132.326 119.806 135.731 120.299C135.886 120.321 136.026 120.344 136.15 120.365C136.233 120.378 136.32 120.393 136.398 120.404C136.064 119.725 134.641 117.978 132.332 116.318C130.447 114.964 126.739 112.84 123.075 113.827C120.107 114.627 118.178 116.378 116.823 119.506L116.617 119.981C115.872 121.711 115.283 123.078 114.218 124.114C111.447 126.808 106.178 127.287 103.779 127.163C102.242 127.081 98.4589 126.46 96.5572 122.382C96.4554 122.164 95.701 119.771 96.2186 118.081C96.8713 115.948 100.908 109.821 103.579 105.766C104.527 104.328 105.275 103.192 105.646 102.581L105.895 102.04C105.916 101.996 105.945 101.956 105.981 101.923C106.017 101.89 106.06 101.864 106.106 101.847C106.152 101.83 106.202 101.823 106.251 101.825C106.3 101.827 106.349 101.839 106.394 101.859C106.484 101.902 106.554 101.978 106.588 102.071C106.622 102.164 106.618 102.267 106.576 102.356L106.307 102.932C105.91 103.591 105.158 104.732 104.207 106.177C101.559 110.196 97.5577 116.269 96.9363 118.299C96.5138 119.679 97.1403 121.833 97.2399 122.073C98.967 125.777 102.412 126.347 103.817 126.416C106.103 126.534 111.109 126.092 113.693 123.579C114.652 122.646 115.215 121.339 115.928 119.685L116.134 119.208C117.569 115.898 119.712 113.958 122.879 113.105C128.848 111.497 134.823 117.063 136.447 119.14C137.323 120.261 137.286 120.671 137.155 120.903C136.957 121.256 136.568 121.192 136.028 121.103C135.908 121.083 135.773 121.06 135.624 121.038C132.379 120.572 128.953 121.271 125.441 123.123C123.495 124.149 120.512 126.656 119.62 127.851C118.181 129.778 118.638 131.658 118.812 132.189C118.815 132.189 120.474 135.714 126.349 139.949C126.389 139.978 126.424 140.016 126.45 140.059C126.476 140.102 126.493 140.149 126.5 140.199C126.507 140.248 126.505 140.299 126.492 140.347C126.479 140.395 126.457 140.441 126.426 140.48C126.272 140.68 125.874 140.955 125.285 141.353C125.113 141.469 124.952 141.577 124.831 141.664C124.23 142.096 122.074 143.518 119.598 143.657C118.835 143.703 118.07 143.698 117.307 143.644V143.644Z" fill="#383C42"/>
<path fill-rule="evenodd" clip-rule="evenodd" d="M96.6539 59.7821C96.4723 59.6425 96.2647 59.5398 96.0431 59.4798C95.8214 59.4199 95.59 59.4038 95.3623 59.4325C95.1345 59.4613 94.9148 59.5343 94.7158 59.6474C94.5169 59.7604 94.3425 59.9113 94.2028 60.0914C93.9258 60.4562 93.8038 60.9138 93.8628 61.3669C93.9217 61.82 94.157 62.2328 94.5185 62.5175C94.6988 62.6567 94.9051 62.7591 95.1255 62.8188C95.3459 62.8785 95.576 62.8943 95.8024 62.8653C96.0289 62.8364 96.2471 62.7631 96.4446 62.6499C96.642 62.5367 96.8146 62.3857 96.9524 62.2058C97.2359 61.8453 97.3637 61.3882 97.3078 60.9342C97.2518 60.4801 97.0168 60.066 96.6539 59.7821" fill="#383C42"/>
<g opacity="0.8">
<path opacity="0.8" d="M95.6474 67.3131C94.5579 67.1531 94.4017 65.7511 96.2009 63.5731C97.3073 66.2567 96.7175 67.4704 95.6474 67.3131Z" fill="#D2EDF2"/>
<path opacity="0.8" d="M95.7037 67.1751C95.8643 67.2073 96.031 67.1863 96.178 67.1154C96.3251 67.0445 96.4443 66.9276 96.5173 66.7827C96.3521 66.8566 96.1688 66.882 95.9892 66.8559C95.3549 66.7627 95.0494 66.2406 95.25 65.3971C94.8091 66.4336 95.0509 67.0791 95.7037 67.1751Z" fill="white"/>
<path opacity="0.8" d="M96.47 64.9345C96.4897 65.194 96.4289 65.4099 96.3342 65.4167C96.2397 65.4235 96.1471 65.2187 96.1274 64.9592C96.1078 64.6996 96.1686 64.4837 96.2631 64.4769C96.3578 64.4701 96.4504 64.675 96.47 64.9345Z" fill="white"/>
</g>
<path d="M93.8346 61.478C93.8715 61.5058 94.5001 62.0477 94.8413 62.0343C94.9581 62.0298 95.0664 62.0273 95.1627 62.0261C95.2872 62.0269 95.4098 62.057 95.5203 62.114C95.6308 62.1711 95.726 62.2534 95.798 62.354C95.8328 62.4166 95.8844 62.4684 95.9471 62.5038C96.0098 62.5391 96.0812 62.5566 96.1532 62.5543C96.4682 62.499 96.8732 62.413 96.8732 62.413C96.8732 62.413 96.1832 63.5643 94.9638 63.0618C94.6428 62.9314 94.366 62.713 94.1659 62.4324C93.9659 62.1518 93.8509 61.8207 93.8346 61.478V61.478Z" fill="#D2EDF2"/>
</svg>
