<svg id="narwhal/generating" viewBox="0 0 160 160" fill="none" xmlns="http://www.w3.org/2000/svg">
<path fill-rule="evenodd" clip-rule="evenodd" d="M87.629 15.2298C115.491 16.0488 137.518 38.7236 143.682 65.7852C148.545 87.137 127.741 101.648 110.374 115.08C89.904 130.912 67.6866 154.945 45.3677 141.822C18.766 126.181 10.6263 91.3472 20.37 62.1604C29.916 33.5654 57.3734 14.3404 87.629 15.2298Z" fill="#F9FCFF"/>
<path opacity="0.4" d="M108.845 147.503C124.854 147.503 137.832 142.18 137.832 135.614C137.832 129.048 124.854 123.725 108.845 123.725C92.8364 123.725 79.8586 129.048 79.8586 135.614C79.8586 142.18 92.8364 147.503 108.845 147.503Z" fill="#CBECF7"/>
<path d="M70.7059 57.5928C70.6902 57.3599 70.6902 57.1263 70.7059 56.8934C70.7059 56.8934 71.0537 57.1571 71.6498 57.5851C71.6116 57.3367 71.5849 57.1189 71.5658 56.9202C71.5658 56.7176 71.539 56.538 71.5352 56.4004C71.5282 56.2629 71.5282 56.1252 71.5352 55.9877C71.5375 55.9789 71.5375 55.9697 71.5352 55.9609C74.3702 58.2217 77.3795 60.2547 80.535 62.0411C82.8738 63.2945 88.8546 66.2219 90.6851 66.2448V66.3327H90.8495L90.9641 68.3772L92.1985 77.358C91.9454 77.2695 91.6979 77.1662 91.4571 77.0484L87.8992 76.093C86.7495 75.6 85.6292 75.0412 84.5438 74.4192L84.0776 74.186C83.1274 73.6851 82.2097 73.1248 81.3299 72.5084C79.5881 71.2985 77.9529 69.942 76.4421 68.4537C76.0599 68.0715 75.6778 67.6473 75.2956 67.1887C74.2865 66.0422 73.3907 64.8008 72.6205 63.4818C72.4371 63.1608 72.2613 62.8207 72.0893 62.4653C71.7219 61.7068 71.4103 60.9226 71.1569 60.1188C71.0527 59.7963 70.966 59.4685 70.897 59.1367C70.7983 58.627 70.7345 58.1111 70.7059 57.5928Z" fill="white"/>
<path fill-rule="evenodd" clip-rule="evenodd" d="M84.1006 74.1592C83.153 73.6535 82.2356 73.0933 81.3528 72.4815C78.9873 70.7274 77.2408 69.4242 75.3147 67.1581C73.4597 65.1146 72.0514 62.7067 71.1798 60.0881C70.8323 59.06 70.6718 57.978 70.7059 56.8933C70.7059 56.8933 71.0575 57.1685 71.6575 57.6118C71.5596 57.0582 71.5224 56.4957 71.5467 55.9341C71.5467 55.9341 85.4725 66.2523 90.8762 66.2982L87.9298 76.0661L84.1006 74.1592Z" fill="white"/>
<path d="M91.7628 77.4767C90.0125 76.7964 82.014 72.9748 81.3605 72.4857C78.9911 70.7316 77.2485 69.4284 75.3186 67.1622C73.4636 65.1188 72.0552 62.7109 71.1836 60.0923C70.8361 59.0642 70.6756 57.9822 70.7097 56.8975C70.7097 56.8975 85.4992 67.2616 90.903 67.296C90.7739 69.0413 90.7739 70.7938 90.903 72.5392C91.0967 74.1998 91.3838 75.8483 91.7628 77.4767Z" fill="#31D3DB"/>
<path d="M92.294 77.6751C92.3523 77.6601 92.4063 77.6315 92.4514 77.5917C92.4966 77.5518 92.5317 77.5018 92.5539 77.4459C92.5833 77.3576 92.5769 77.2614 92.5362 77.1778C92.4955 77.0942 92.4236 77.03 92.3361 76.9987C90.4826 76.3643 83.0305 71.7135 82.4 71.2473C80.0344 69.4931 78.3223 68.2244 76.4192 65.9773C74.5944 63.9744 73.2093 61.6117 72.353 59.0411C72.1089 58.2759 71.9563 57.4844 71.8983 56.6832C74.1568 58.4564 85.9158 66.5429 90.689 66.5696C90.7349 66.5701 90.7806 66.5615 90.8232 66.5443C90.8658 66.527 90.9046 66.5015 90.9373 66.4691C90.97 66.4368 90.996 66.3983 91.0137 66.3558C91.0314 66.3134 91.0405 66.2679 91.0405 66.2219C91.0405 66.1293 91.004 66.0404 90.9389 65.9746C90.8738 65.9088 90.7854 65.8713 90.6928 65.8703C85.4725 65.8359 71.86 55.7584 71.7607 55.6781C71.711 55.638 71.6513 55.6122 71.588 55.6034C71.5247 55.5947 71.4602 55.6033 71.4014 55.6285C71.3416 55.6522 71.2897 55.6925 71.2518 55.7446C71.2139 55.7967 71.1916 55.8584 71.1874 55.9227C71.1484 57.053 71.3154 58.1809 71.6804 59.2513C72.5616 61.9159 73.9939 64.3652 75.8842 66.4397C77.8408 68.7327 79.5758 70.0396 81.9987 71.8243C82.6789 72.3249 90.1616 76.9987 92.1182 77.679C92.1766 77.6873 92.236 77.686 92.294 77.6751Z" fill="#383C42"/>
<path d="M66.1315 13.8281C66.3362 13.6591 66.5889 13.5588 66.8538 13.5414C66.9225 13.3674 67.0343 13.2135 67.1786 13.0943C68.0881 12.3567 69.5518 13.0255 71.3823 14.8905L93.6239 37.6403C93.663 37.6064 93.7038 37.5745 93.7462 37.5448C93.9427 37.404 94.1482 37.2763 94.3615 37.1626C94.7106 36.876 95.084 36.6203 95.4774 36.3983C106.583 30.6086 117.887 35.076 124.216 43.5676C127.273 47.6758 129.681 55.1584 130.078 61.3609C130.105 61.7889 130.174 62.9965 130.12 64.636C130.001 67.8693 129.495 71.0767 128.614 74.1899L128.312 74.9275C128.901 75.2141 129.333 75.4396 129.703 75.6497C131.072 76.33 131.859 76.7504 132.298 76.972C134.068 77.8471 135.623 78.6917 136.934 79.4713C138.443 80.2692 139.871 81.2138 141.195 82.2916C142.182 83.1516 142.948 84.2369 143.427 85.4557C143.906 86.6744 144.084 87.9906 143.946 89.2928C143.832 90.1402 143.536 90.9528 143.077 91.6745C142.619 92.3963 142.009 93.0101 141.29 93.4736C139.38 94.7118 136.238 95.3423 132.998 95.8353C130.678 96.1869 128.03 96.3933 126.566 96.5996C124.923 96.848 121.927 98.048 121.778 98.1283C121.628 98.2085 120.715 98.6824 120.578 98.5104C120.534 98.3338 120.541 98.1485 120.597 97.9754C120.291 98.113 119.936 98.2429 119.832 98.1512C119.786 97.7986 119.852 97.4405 120.02 97.127C120.66 95.944 121.443 94.8441 122.351 93.8519C123.539 92.5679 124.999 91.1768 128.396 89.8278C130.861 88.838 133.101 88.1922 133.12 87.6801C133.12 87.6571 133.12 87.638 133.12 87.6189C131.951 87.8215 129.21 88.8801 125.16 87.4164C124.544 87.2069 123.943 86.958 123.36 86.6712C122.014 89.1323 120.604 91.429 119.251 93.55L119.362 93.5309C119.527 93.5042 119.592 93.8061 119.481 94.2646C119.653 94.2646 119.786 96.6952 116.546 98.0136L116.267 98.1168C116.236 98.155 116.213 98.1971 116.187 98.2353V103.838C114.754 104.356 113.283 104.763 111.788 105.057C110.057 107.854 108.31 110.873 107.523 112.803C107.308 113.324 107.131 113.861 106.996 114.408C106.709 115.555 106.461 116.518 106.675 117.702C106.728 118.023 106.992 119.885 108.528 120.886C109.172 121.218 109.835 121.509 110.515 121.757C113.928 123.255 117.681 126.786 122.064 131.861C122.565 132.451 123.12 132.992 123.723 133.478C125.389 134.812 126.91 135.007 126.868 135.316C126.841 135.511 126.207 135.649 125.312 135.698C125.641 135.84 125.836 135.939 125.817 136.05C125.771 136.378 124.028 136.535 122.194 136.398C113.603 135.733 105.494 128.468 104.81 127.845C104.638 127.975 104.458 128.105 104.256 128.227L103.969 128.403C103.727 128.603 103.471 128.787 103.205 128.953C100.468 130.669 98.3856 131.533 94.2354 133.436C94.0521 133.516 93.8735 133.607 93.7004 133.707C93.3423 134.036 93.0053 134.387 92.6915 134.758C92.2558 135.247 92.0418 135.603 91.9004 135.545C91.8507 135.545 91.8125 135.442 91.7934 135.316C91.7399 135.37 91.694 135.427 91.6443 135.484C91.2087 135.977 90.9909 136.329 90.8495 136.271C90.5132 136.145 90.8724 133.722 91.7131 131.617C92.7832 128.942 94.0672 128.177 97.9423 122.69C98.6493 121.684 99.4709 120.481 99.3334 118.975C99.2073 117.588 98.3092 116.644 97.9843 116.254C95.9842 113.818 94.141 111.258 92.466 108.588C90.7774 106.732 89.4998 104.54 88.717 102.156C87.9527 99.7028 87.1196 96.9894 86.4241 94.0277C85.9942 93.5808 85.6566 93.0536 85.4305 92.4762C85.1229 91.8073 84.9057 91.1005 84.7846 90.3743C84.5989 89.6039 84.5574 88.8057 84.6623 88.0202L84.6967 88.0813L84.7196 87.917C84.9119 88.2917 85.1411 88.6463 85.4037 88.9756C85.0942 87.1107 84.8458 85.154 84.6929 83.1324C83.7222 73.6128 84.6165 68.3352 84.8228 66.799C84.968 65.7213 84.754 62.8207 84.5935 61.7468C84.4483 61.0437 84.3413 60.3978 84.2649 59.794C83.9171 57.6692 83.6572 55.124 84.8649 53.8935C85.2126 53.3011 85.5719 53.1521 85.6941 53.3508C85.7553 53.0566 85.6942 53.3508 85.7629 53.0566V53.0183C85.5453 52.6026 85.4054 52.1506 85.3502 51.6846C85.0942 49.9802 85.4992 47.7637 86.0228 46.835L67.2092 18.8381C66.0321 17.084 65.0653 14.7108 66.1315 13.8281Z" fill="white"/>
<path fill-rule="evenodd" clip-rule="evenodd" d="M67.1786 13.0943C68.0881 12.3567 69.5518 13.0255 71.3823 14.8905L93.6239 37.6403C93.681 37.5834 93.7484 37.538 93.8227 37.5066L94.3539 37.155C94.7133 36.8677 95.0969 36.6119 95.5003 36.3907C106.602 30.5971 117.906 35.0646 124.235 43.5561C127.292 47.6643 129.7 55.147 130.097 61.3494C130.124 61.7774 130.193 62.985 130.139 64.6245C130.02 67.8578 129.515 71.0652 128.633 74.1784L128.332 74.916C130.281 75.8561 130.468 76.1771 132.623 77.209C136.498 79.0701 139.77 80.977 141.214 82.2725C142.202 83.1323 142.968 84.2176 143.447 85.4364C143.926 86.6552 144.104 87.9715 143.966 89.2737C143.847 90.1187 143.548 90.9281 143.087 91.6465C142.627 92.3648 142.017 92.9751 141.298 93.4354C139.387 94.6736 136.246 95.3041 133.005 95.7971C130.686 96.1487 128.037 96.3551 126.574 96.5614C124.93 96.8098 121.934 98.0098 121.785 98.0901C121.636 98.1703 120.723 98.6404 120.585 98.4722C120.54 98.1197 120.605 97.7616 120.772 97.448C121.414 96.2661 122.197 95.1663 123.104 94.1729C124.292 92.8889 125.752 91.4978 129.146 90.1488C131.61 89.159 133.85 88.5132 133.869 88.0011C133.88 87.9143 133.863 87.8263 133.82 87.75C133.778 87.6736 133.712 87.613 133.632 87.5769C132.963 87.2788 129.998 89.1055 125.175 87.3782C124.559 87.1694 123.958 86.9205 123.375 86.633C121.514 90.0418 119.511 93.1297 117.727 95.885C117.249 96.6149 116.71 97.4136 116.148 98.2697C115.327 99.5041 109.212 108.645 107.523 112.792C107.311 113.312 107.136 113.847 106.999 114.393C106.713 115.52 106.464 116.502 106.675 117.687C106.732 118.012 106.996 119.873 108.532 120.87C109.175 121.204 109.838 121.495 110.519 121.742C113.932 123.244 117.685 126.771 122.068 131.846C122.569 132.436 123.124 132.977 123.727 133.463C125.389 134.804 126.914 134.991 126.872 135.301C126.83 135.61 125.079 135.79 123.249 135.649C114.272 134.984 105.807 127.065 105.807 127.065C105.456 127.279 104.951 127.803 104.256 128.235C101.519 129.951 99.4404 130.81 95.2863 132.714C94.2691 133.174 93.3807 133.877 92.6991 134.762C92.2635 135.255 92.0494 135.607 91.908 135.549C91.5718 135.423 91.931 133 92.7717 130.894C93.8379 128.219 95.122 127.455 98.9971 121.967C99.7079 120.966 100.526 119.758 100.392 118.257C100.262 116.869 99.3639 115.922 99.0391 115.532C96.6671 112.656 94.5266 109.597 92.638 106.383C88.8699 99.7601 86.8559 91.066 86.1413 85.7846C84.5591 74.1211 85.6407 67.7849 85.8738 66.069C86.019 64.9914 85.805 62.0908 85.6445 61.0169C85.2623 58.5253 84.0012 53.668 86.7451 52.6094C86.8139 52.3114 86.7451 52.6094 86.8177 52.3075C85.8967 50.7178 86.3706 47.2898 87.0585 46.0784L68.2563 18.0585C67.0754 16.3541 66.1124 13.9465 67.1786 13.0943Z" fill="#97E8EC"/>
<path fill-rule="evenodd" clip-rule="evenodd" d="M96.1309 111.756C96.1309 111.756 90.3106 102.29 97.3806 91.238C98.5691 89.3807 102.245 83.8891 103.552 81.5236C106.778 75.6842 111.448 59.7406 104.783 60.6157C97.9614 61.4909 90.3297 61.124 85.6942 53.3547C85.3617 52.7968 83.1758 54.9101 84.5897 61.7622C85.3158 65.2704 84.9108 70.6741 84.7235 72.8448C83.6764 84.9057 86.34 94.7386 88.7209 102.175C90.7807 108.588 96.1309 111.756 96.1309 111.756Z" fill="white"/>
<path d="M100.942 61.483C102.277 61.5007 103.607 61.3217 104.89 60.9518C104.937 60.9409 104.982 60.9204 105.021 60.8915C105.06 60.8626 105.092 60.8259 105.116 60.7838C105.14 60.7418 105.155 60.6952 105.161 60.647C105.166 60.5988 105.161 60.55 105.146 60.5038C105.132 60.4575 105.108 60.4148 105.076 60.3782C105.044 60.3417 105.005 60.3121 104.961 60.2914C104.918 60.2706 104.87 60.2592 104.821 60.2577C104.773 60.2563 104.725 60.2649 104.68 60.283C101.493 61.269 95.5997 60.8677 90.9565 58.1735C88.0826 56.5035 86.2597 54.2411 85.6789 51.6157C85.6523 51.5322 85.5956 51.4617 85.5198 51.4178C85.444 51.374 85.3545 51.36 85.269 51.3787C85.1834 51.3973 85.1079 51.4472 85.0572 51.5186C85.0064 51.59 84.9842 51.6778 84.9948 51.7647C85.6177 54.5889 87.5591 57.0117 90.6049 58.7773C93.77 60.5298 97.3244 61.4601 100.942 61.483Z" fill="#383C42"/>
<path fill-rule="evenodd" clip-rule="evenodd" d="M110.286 52.2198C110.118 52.0773 109.923 51.9702 109.712 51.9048C109.502 51.8395 109.28 51.8172 109.061 51.8394C108.842 51.8615 108.63 51.9276 108.436 52.0338C108.243 52.1399 108.074 52.2839 107.937 52.4571C107.801 52.6303 107.701 52.8292 107.644 53.0419C107.586 53.2546 107.572 53.4767 107.602 53.695C107.632 53.9133 107.706 54.1232 107.819 54.3123C107.932 54.5014 108.083 54.6657 108.261 54.7955C108.604 55.0455 109.03 55.1526 109.451 55.0945C109.871 55.0364 110.252 54.8175 110.515 54.4839C110.777 54.1503 110.9 53.7279 110.857 53.3057C110.815 52.8834 110.61 52.4942 110.286 52.2198Z" fill="#383C42"/>
<path fill-rule="evenodd" clip-rule="evenodd" d="M91.3539 40.5142L68.5429 15.3644C67.9767 14.6702 67.2332 14.142 66.3914 13.8357C66.9493 13.5338 67.9811 14.1759 68.7837 14.8867L92.8138 39.6199C93.0507 41.1944 91.0367 43.6402 89.2826 43.8466C90.1921 42.9256 91.3272 41.7256 91.4838 40.5944" fill="white"/>
<g opacity="0.6">
<path opacity="0.6" fill-rule="evenodd" clip-rule="evenodd" d="M119.217 42.226C119.087 42.1532 118.941 42.1124 118.792 42.1066C118.642 42.1009 118.494 42.1306 118.358 42.1932C118.223 42.2558 118.104 42.3495 118.011 42.4668C117.919 42.5841 117.855 42.7216 117.826 42.868C117.742 43.193 117.77 43.5367 117.904 43.8443C118.038 44.1518 118.272 44.4055 118.567 44.5648C118.698 44.632 118.843 44.6683 118.99 44.671C119.137 44.6737 119.282 44.6427 119.416 44.5803C119.549 44.518 119.666 44.4259 119.758 44.3113C119.85 44.1967 119.915 44.0625 119.947 43.919C120.026 43.5958 119.998 43.2556 119.866 42.9501C119.734 42.6445 119.506 42.3903 119.217 42.226Z" fill="#21AAAD"/>
<path opacity="0.6" fill-rule="evenodd" clip-rule="evenodd" d="M115.973 39.6427C115.854 39.601 115.728 39.5874 115.604 39.6029C115.479 39.6183 115.36 39.6624 115.256 39.7316C115.151 39.8009 115.064 39.8935 115.002 40.002C114.939 40.1106 114.903 40.2322 114.895 40.3573C114.873 40.6376 114.944 40.9173 115.098 41.153C115.251 41.3886 115.478 41.567 115.743 41.6604C115.861 41.7028 115.987 41.7172 116.112 41.7023C116.236 41.6874 116.355 41.6437 116.46 41.5747C116.565 41.5058 116.652 41.4133 116.714 41.3048C116.777 41.1963 116.813 41.0747 116.821 40.9496C116.843 40.6688 116.772 40.3885 116.618 40.1522C116.465 39.9159 116.238 39.7368 115.973 39.6427Z" fill="#21AAAD"/>
</g>
<g opacity="0.6">
<path opacity="0.6" fill-rule="evenodd" clip-rule="evenodd" d="M127.208 64.0095C127.063 63.8397 126.879 63.7063 126.673 63.6202C126.467 63.534 126.243 63.4974 126.02 63.5134C125.797 63.5294 125.581 63.5975 125.389 63.7122C125.197 63.8269 125.035 63.985 124.915 64.1739C124.62 64.5812 124.473 65.0772 124.498 65.5796C124.523 66.082 124.718 66.5608 125.053 66.9369C125.197 67.1029 125.378 67.233 125.581 67.3169C125.784 67.4008 126.004 67.4362 126.223 67.4202C126.442 67.4043 126.655 67.3374 126.844 67.225C127.033 67.1126 127.193 66.9577 127.311 66.7725C127.605 66.3666 127.755 65.874 127.736 65.3733C127.717 64.8725 127.531 64.3924 127.208 64.0095Z" fill="#21AAAD"/>
<path opacity="0.6" fill-rule="evenodd" clip-rule="evenodd" d="M126.444 55.365C126.315 55.2162 126.154 55.0995 125.972 55.0241C125.791 54.9488 125.594 54.9169 125.398 54.931C125.202 54.9451 125.012 55.0048 124.843 55.1054C124.675 55.206 124.532 55.3446 124.426 55.5102C124.172 55.8756 124.046 56.3146 124.067 56.759C124.089 57.2034 124.256 57.6283 124.544 57.9675C124.672 58.1165 124.833 58.2335 125.014 58.3091C125.195 58.3848 125.391 58.4171 125.587 58.4033C125.783 58.3896 125.972 58.3302 126.141 58.23C126.31 58.1298 126.453 57.9914 126.558 57.8261C126.81 57.4594 126.935 57.0206 126.914 56.5763C126.894 56.132 126.728 55.7067 126.444 55.365Z" fill="#21AAAD"/>
<path opacity="0.6" fill-rule="evenodd" clip-rule="evenodd" d="M123.979 58.5253C123.882 58.4158 123.761 58.3303 123.625 58.2754C123.49 58.2205 123.343 58.1977 123.197 58.2088C123.052 58.2199 122.91 58.2646 122.785 58.3394C122.659 58.4142 122.552 58.517 122.473 58.6399C122.284 58.907 122.191 59.2304 122.209 59.5573C122.227 59.8841 122.355 60.1953 122.572 60.4399C122.667 60.5513 122.786 60.639 122.92 60.6958C123.054 60.7526 123.2 60.777 123.346 60.7669C123.491 60.7569 123.632 60.7127 123.758 60.6379C123.883 60.5632 123.989 60.46 124.067 60.3367C124.247 60.0649 124.336 59.7425 124.32 59.4166C124.305 59.0906 124.185 58.7783 123.979 58.5253Z" fill="#21AAAD"/>
<path opacity="0.6" fill-rule="evenodd" clip-rule="evenodd" d="M126.646 70.032C126.548 69.9169 126.424 69.8263 126.285 69.7676C126.146 69.7089 125.994 69.6838 125.843 69.6942C125.693 69.7046 125.546 69.7503 125.416 69.8275C125.286 69.9048 125.176 70.0115 125.095 70.1391C124.889 70.4196 124.786 70.7618 124.801 71.1092C124.816 71.4566 124.949 71.7884 125.179 72.0498C125.278 72.1645 125.402 72.2548 125.542 72.3138C125.682 72.3727 125.833 72.3988 125.985 72.3899C126.136 72.3811 126.284 72.3375 126.415 72.2626C126.547 72.1878 126.66 72.0836 126.746 71.9581C126.949 71.6732 127.051 71.3276 127.033 70.9777C127.015 70.6279 126.878 70.2945 126.646 70.032Z" fill="#21AAAD"/>
</g>
<g opacity="0.6">
<path opacity="0.6" fill-rule="evenodd" clip-rule="evenodd" d="M120.226 88.3756C120.202 88.2159 120.142 88.0638 120.049 87.9316C119.956 87.7995 119.834 87.6908 119.692 87.6143C119.55 87.5378 119.392 87.4956 119.23 87.4911C119.069 87.4866 118.909 87.5199 118.762 87.5884C118.425 87.7229 118.144 87.9687 117.965 88.2849C117.786 88.6011 117.721 88.9688 117.78 89.3272C117.805 89.4834 117.866 89.6318 117.958 89.7605C118.049 89.8892 118.17 89.9948 118.31 90.0689C118.449 90.1431 118.605 90.1837 118.763 90.1876C118.921 90.1915 119.078 90.1586 119.221 90.0915C119.554 89.9562 119.833 89.7147 120.015 89.4044C120.197 89.0941 120.271 88.7324 120.226 88.3756Z" fill="#21AAAD"/>
<path opacity="0.6" fill-rule="evenodd" clip-rule="evenodd" d="M117.539 91.8343C117.524 91.7259 117.483 91.6227 117.421 91.5328C117.358 91.443 117.276 91.3691 117.179 91.317C117.083 91.265 116.976 91.2363 116.867 91.2332C116.757 91.2301 116.649 91.2527 116.55 91.2993C116.319 91.3917 116.127 91.5587 116.003 91.7735C115.879 91.9883 115.831 92.2384 115.866 92.484C115.882 92.5927 115.922 92.6962 115.985 92.7865C116.048 92.8769 116.13 92.9516 116.226 93.0048C116.322 93.058 116.429 93.0884 116.539 93.0935C116.649 93.0986 116.758 93.0783 116.859 93.0343C117.092 92.9411 117.286 92.7716 117.41 92.5535C117.533 92.3355 117.579 92.0818 117.539 91.8343Z" fill="#21AAAD"/>
</g>
<path fill-rule="evenodd" clip-rule="evenodd" d="M68.2257 17.8978C68.7913 17.8214 70.1365 16.6558 70.4231 15.9068L69.7658 15.2266C69.5021 16.4189 68.5811 17.3858 68.2257 17.8978ZM73.553 24.4519C74.5848 24.4939 75.9721 23.0073 76.3045 21.8379L75.5402 21.0736C75.2323 22.3738 74.5398 23.551 73.553 24.4519ZM78.9682 31.453C79.7325 31.5524 81.8344 29.8747 82.5184 28.1511L81.5324 27.1422C81.242 28.6174 79.786 30.7613 78.9682 31.453ZM84.3795 38.3051C85.6636 38.2669 88.0177 36.3714 88.7247 34.4262L87.5782 33.2797C87.2916 35.0338 85.7209 37.193 84.3795 38.3051Z" fill="#21AAAD"/>
<path d="M123.631 136.818C124.777 136.818 126.088 136.692 126.169 136.111C126.226 135.71 125.855 135.557 125.29 135.316C124.43 134.978 123.624 134.517 122.897 133.948C122.316 133.483 121.781 132.962 121.3 132.393C116.408 126.725 112.812 123.58 109.61 122.174L109.182 122.002C108.657 121.812 108.147 121.588 107.653 121.329C107.042 120.924 106.25 120.099 105.956 118.421V118.375C105.761 117.267 105.994 116.323 106.27 115.23C106.404 114.699 106.575 114.178 106.782 113.671C108.28 110.006 113.278 102.37 115.35 99.2558C115.934 98.3807 116.473 97.5705 116.951 96.8329C118.063 95.1323 120.845 90.8101 122.76 87.4051C122.8 87.3244 122.809 87.2314 122.783 87.1448C122.758 87.0582 122.7 86.9846 122.622 86.9389C122.541 86.8935 122.445 86.8821 122.356 86.9071C122.266 86.9322 122.19 86.9917 122.144 87.0726C120.234 90.4624 117.467 94.7693 116.366 96.4622C115.888 97.1922 115.35 97.9909 114.788 98.8431C112.678 102.007 107.653 109.681 106.128 113.407C105.912 113.945 105.731 114.497 105.585 115.058C105.299 116.182 105.031 117.244 105.257 118.497C105.597 120.466 106.537 121.436 107.267 121.914C107.792 122.204 108.339 122.452 108.903 122.655C109.078 122.72 109.22 122.778 109.304 122.816C112.399 124.173 115.919 127.264 120.723 132.825C121.239 133.431 121.811 133.988 122.431 134.487C123.208 135.1 124.072 135.593 124.995 135.951L125.083 135.989C124.128 136.117 123.161 136.135 122.202 136.042C113.446 135.362 105.058 127.608 104.978 127.532C104.924 127.479 104.853 127.445 104.778 127.436C104.703 127.427 104.626 127.443 104.561 127.482C104.354 127.62 104.154 127.771 103.965 127.933C103.66 128.194 103.338 128.436 103.002 128.655C100.709 130.092 98.8824 130.925 95.8557 132.301L94.0749 133.115C93.0417 133.579 92.1368 134.287 91.438 135.179L91.3692 135.255C91.2584 135.381 91.159 135.496 91.0749 135.599C91.2084 134.279 91.5301 132.984 92.0303 131.755C92.6571 130.184 93.3717 129.278 94.671 127.635C95.5653 126.488 96.6774 125.09 98.2213 122.9C98.9015 121.941 99.8302 120.607 99.6811 118.952C99.5413 117.901 99.0732 116.921 98.3436 116.151L98.2519 116.036C95.8904 113.178 93.7601 110.137 91.8813 106.941C88.3158 100.674 86.2062 92.2585 85.4228 86.4688C83.9324 75.4703 84.819 69.2144 85.1095 67.1584L85.1515 66.8488C85.312 65.7023 85.0674 62.7024 84.9222 61.7012C84.8763 61.3763 84.8076 61.0094 84.7426 60.6235C84.3222 58.1815 83.6802 54.5089 85.7973 53.6835C85.8524 53.6633 85.9015 53.6296 85.9402 53.5855C85.9789 53.5415 86.006 53.4884 86.019 53.4313L86.0457 53.2975C86.0639 53.2452 86.0779 53.1915 86.0878 53.137C86.1092 53.0504 86.0969 52.9588 86.0534 52.881C85.2203 51.444 85.6139 48.2033 86.2941 46.9957C86.3301 46.9385 86.3492 46.8722 86.3492 46.8046C86.3492 46.737 86.3301 46.6708 86.2941 46.6136L67.4958 18.5976C66.3035 16.8511 65.5315 14.7378 66.3493 14.0766C67.3085 13.3123 69.1009 14.8409 70.083 15.8422L92.317 38.5997C92.3485 38.6343 92.3869 38.662 92.4296 38.681C92.4723 38.7001 92.5186 38.7101 92.5654 38.7105C92.6579 38.7074 92.7462 38.6707 92.8138 38.6073C92.8378 38.5803 92.8679 38.5594 92.9017 38.5462L92.959 38.5156L93.6583 38.0226C93.9495 37.7854 94.2601 37.5732 94.587 37.3883C106.052 31.4342 117.066 36.6545 122.897 44.4773C125.859 48.4517 128.289 55.8503 128.691 62.0795C128.756 63.0769 128.767 64.1966 128.733 65.3202C128.643 68.4174 128.171 71.4916 127.326 74.4729C127.302 74.5621 127.313 74.6575 127.359 74.7381C127.404 74.8187 127.48 74.878 127.569 74.9028C127.658 74.9276 127.754 74.916 127.834 74.8705C127.915 74.825 127.974 74.7493 127.999 74.6601C128.86 71.6258 129.34 68.4961 129.428 65.3431C129.467 64.1967 129.451 63.0502 129.386 62.0336C128.985 55.686 126.49 48.1231 123.459 44.0531C117.455 35.9934 106.098 30.6241 94.2736 36.7921C93.9106 36.9958 93.5654 37.2297 93.2418 37.4914L93.0927 37.6099L92.6189 37.9195L70.5913 15.3721C68.5467 13.297 66.9722 12.6894 65.9098 13.5645C64.6258 14.6078 65.6538 17.1568 66.9226 19.0256L85.6101 46.8734C84.9719 48.2263 84.5056 51.3944 85.3961 53.1255C82.9464 54.2491 83.6229 58.1586 84.0776 60.7687C84.1426 61.1508 84.2076 61.5063 84.2534 61.8311C84.4139 62.9241 84.6356 65.7635 84.4827 66.7991L84.4407 67.1049C84.1464 69.1838 83.2445 75.5123 84.7502 86.5949C85.5413 92.4496 87.6814 100.964 91.2928 107.319C93.1892 110.551 95.3413 113.626 97.7283 116.514L97.8277 116.633C98.4602 117.296 98.8691 118.14 98.9971 119.048C99.1308 120.45 98.3207 121.601 97.6672 122.518C96.1385 124.692 95.0226 126.095 94.1322 127.226C92.7985 128.923 92.0571 129.855 91.396 131.518C90.6507 133.394 90.1998 135.744 90.4673 136.363C90.5177 136.484 90.6139 136.58 90.7348 136.631C91.0673 136.757 91.2889 136.493 91.5947 136.126C91.6826 136.016 91.7896 135.886 91.9119 135.744L91.9768 135.672C92.6126 134.856 93.4377 134.208 94.3806 133.784C95.0188 133.486 95.6112 133.218 96.1615 132.97C99.2187 131.583 101.061 130.746 103.396 129.278C103.759 129.048 104.105 128.793 104.431 128.514C104.538 128.426 104.638 128.342 104.729 128.273C106.109 129.492 113.962 136.142 122.171 136.78C122.485 136.784 123.039 136.818 123.631 136.818Z" fill="#383C42"/>
<path d="M119.947 98.537C120.406 98.4776 120.846 98.317 121.235 98.067C121.476 97.9485 124.353 96.8097 125.912 96.5727C126.551 96.4772 127.403 96.3855 128.393 96.2746C129.631 96.1409 131.037 95.9918 132.344 95.7931C135.52 95.3154 138.741 94.6887 140.771 93.3779C141.534 92.8874 142.182 92.2364 142.668 91.4702C143.155 90.7039 143.468 89.8408 143.587 88.941C143.729 87.5847 143.543 86.214 143.045 84.9444C142.547 83.6749 141.751 82.5435 140.725 81.6456C139.242 80.3195 136.315 78.5349 132.47 76.6355L131.832 76.3107C130.789 75.7719 128.844 74.7821 125.286 73.1273C125.244 73.108 125.198 73.0972 125.152 73.0955C125.105 73.0937 125.059 73.1012 125.016 73.1173C124.972 73.1335 124.932 73.158 124.898 73.1896C124.864 73.2211 124.837 73.2591 124.818 73.3012C124.798 73.3434 124.787 73.3889 124.786 73.4353C124.784 73.4816 124.791 73.5278 124.808 73.5713C124.824 73.6148 124.848 73.6546 124.88 73.6886C124.911 73.7226 124.949 73.75 124.991 73.7693C128.534 75.4012 130.468 76.3986 131.511 76.9374L132.157 77.2661C135.944 79.1463 138.818 80.889 140.251 82.173C141.193 82.9984 141.924 84.0381 142.381 85.2046C142.837 86.3711 143.008 87.6302 142.876 88.8761C142.771 89.6723 142.492 90.4357 142.061 91.113C141.629 91.7903 141.054 92.3651 140.377 92.797C138.466 94.0352 135.176 94.6581 132.23 95.0899C130.938 95.2887 129.554 95.4377 128.309 95.5676C127.311 95.6746 126.455 95.7702 125.802 95.8695C124.12 96.1218 121.074 97.3409 120.895 97.4364C120.672 97.556 120.442 97.6631 120.207 97.7574C120.233 97.603 120.279 97.4526 120.344 97.3103C120.976 96.1457 121.746 95.0615 122.637 94.081C123.811 92.8161 125.236 91.4747 128.553 90.1448C129.218 89.8773 129.872 89.6404 130.464 89.4149C132.608 88.6162 133.479 88.2684 133.502 87.6837C133.516 87.5257 133.481 87.3672 133.401 87.2302C133.32 87.0933 133.2 86.9846 133.055 86.9194C132.761 86.7856 132.367 86.8812 131.717 87.0302C129.362 87.6725 126.864 87.5616 124.575 86.713L124.483 86.6786C122.411 86.0234 120.591 84.7482 119.267 83.0252C119.241 82.987 119.207 82.9545 119.168 82.9297C119.128 82.905 119.084 82.8886 119.039 82.8814C118.993 82.8742 118.946 82.8765 118.901 82.8881C118.856 82.8997 118.814 82.9203 118.778 82.9488C118.74 82.9757 118.707 83.01 118.683 83.0495C118.659 83.0891 118.642 83.1332 118.635 83.1791C118.628 83.2251 118.63 83.272 118.642 83.3171C118.653 83.3622 118.673 83.4046 118.701 83.4418C120.099 85.287 122.037 86.6508 124.246 87.3436L124.334 87.378C126.75 88.2766 129.387 88.3955 131.874 87.7181C132.166 87.6263 132.47 87.5761 132.776 87.5691C132.776 87.5691 132.776 87.5691 132.795 87.6226C132.581 87.8748 131.328 88.3449 130.216 88.769C129.616 88.9945 128.966 89.2391 128.305 89.5066C124.865 90.89 123.36 92.2964 122.133 93.6186C121.201 94.6334 120.4 95.7606 119.748 96.974C119.634 97.1421 119.32 98.0631 119.611 98.388C119.654 98.4343 119.706 98.4714 119.763 98.4971C119.821 98.5227 119.884 98.5363 119.947 98.537Z" fill="#383C42"/>
<path d="M93.9067 89.2506C93.9067 89.2506 95.3245 87.5959 96.964 87.6952L100.231 88.043C100.314 88.172 100.427 88.2793 100.56 88.3557C100.693 88.4322 100.843 88.4757 100.996 88.4825C101.267 88.4851 101.53 88.384 101.73 88.1997L103.186 88.3564L103.147 88.7194L103.583 88.7691L103.361 90.8862L101.913 90.7334C101.718 90.5453 101.466 90.4275 101.197 90.3985C100.928 90.3694 100.657 90.4308 100.426 90.5729L100.342 91.3372L99.9792 91.9028L99.7232 94.3524L99.3945 97.4326C99.496 97.8839 99.5599 98.3427 99.5856 98.8046C99.6238 99.523 99.2034 101.728 99.1194 102.171C99.0872 102.893 99.1359 103.616 99.2646 104.327C99.2817 104.418 99.2759 104.511 99.2477 104.599C99.2194 104.687 99.1696 104.767 99.1027 104.83C99.0359 104.894 98.9541 104.94 98.8649 104.965C98.7757 104.989 98.6819 104.99 98.592 104.969L96.8111 104.785C96.7222 104.748 96.6422 104.692 96.5763 104.622C96.5105 104.551 96.4602 104.468 96.429 104.376H96.406C96.406 104.376 95.7984 104.12 96.1156 103.589C96.3907 102.977 96.5983 102.336 96.7347 101.678C96.7347 101.678 96.6353 99.0759 97.0328 98.1434C97.4302 97.211 97.5793 96.9243 97.5793 96.9243L97.6137 96.5842L98.164 91.3945L97.8812 90.8442C97.8949 90.3777 97.7841 89.916 97.5602 89.5067C97.3613 89.3884 97.14 89.313 96.9103 89.2853C96.6806 89.2577 96.4476 89.2784 96.2264 89.3461C95.6318 89.4878 95.052 89.6861 94.4953 89.9385L94.2813 89.6672C94.4009 89.5323 94.5285 89.4046 94.6634 89.285C94.4754 89.3514 94.2916 89.4292 94.1131 89.5181L93.9067 89.2506Z" fill="white"/>
<path opacity="0.6" d="M97.6404 96.5842L98.1869 91.3983L97.9079 90.8442C97.9079 90.8442 98.0187 88.4595 95.8519 88.9334C95.2573 89.0736 94.6776 89.2707 94.1207 89.5219L93.9106 89.2506C93.9106 89.2506 95.3245 87.5959 96.9678 87.6952L100.235 88.043C100.318 88.1718 100.431 88.2789 100.564 88.3553C100.697 88.4318 100.846 88.4754 101 88.4825C101.269 88.4852 101.53 88.3855 101.729 88.2035L103.186 88.3564L102.96 90.4735L101.512 90.3207C101.317 90.1335 101.066 90.0162 100.798 89.9872C100.529 89.9581 100.259 90.019 100.029 90.1601L99.9448 90.9245L99.5818 91.4862L99.3257 93.9359L99.0429 96.611L97.6404 96.5842Z" fill="#AFB1B3"/>
<path d="M99.0582 96.638L99.0162 97.0392C99.1177 97.4919 99.1829 97.952 99.2111 98.415C99.2455 99.1296 98.8289 101.339 98.741 101.778C98.7087 102.5 98.7574 103.223 98.8863 103.933C98.9042 104.024 98.8991 104.118 98.8714 104.206C98.8436 104.294 98.7942 104.373 98.7276 104.437C98.6609 104.501 98.5793 104.548 98.4902 104.572C98.401 104.596 98.3072 104.597 98.2175 104.575L96.4366 104.396C96.4366 104.396 95.8252 104.136 96.1424 103.609C96.4199 102.99 96.6276 102.343 96.7614 101.679C96.7614 101.679 96.6659 99.08 97.0634 98.1475C97.4608 97.215 97.606 96.9284 97.606 96.9284L97.6442 96.5845L99.0582 96.638Z" fill="#31D3DB"/>
<path d="M98.5958 105.34L96.8149 105.156C96.7792 105.154 96.7442 105.145 96.7118 105.129C96.5844 105.074 96.4692 104.995 96.3728 104.895C96.2764 104.795 96.2007 104.678 96.15 104.549C96.112 104.43 96.1015 104.304 96.1194 104.181C96.1373 104.058 96.183 103.941 96.2532 103.838C96.5081 103.269 96.6978 102.672 96.8188 102.061C96.8188 101.633 96.7423 99.355 97.1474 98.4188C97.4531 97.7079 97.606 97.3678 97.6672 97.2417L98.2327 91.8915L97.9996 91.4253C97.9713 91.3726 97.9581 91.313 97.9614 91.2533C97.9614 91.2533 97.9958 90.3017 97.4799 89.8699C97.3148 89.7551 97.1251 89.6805 96.9261 89.652C96.7271 89.6235 96.5241 89.6418 96.3334 89.7056C95.7665 89.8383 95.2137 90.0251 94.6825 90.2635C94.61 90.3019 94.5265 90.3137 94.4462 90.2969C94.366 90.2802 94.2941 90.2359 94.243 90.1718L94.0252 89.9005C93.974 89.8372 93.9461 89.7583 93.9461 89.6769C93.9461 89.5955 93.974 89.5166 94.0252 89.4533C94.0902 89.3845 95.5768 87.6763 97.3844 87.7757L100.652 88.1234C100.707 88.1311 100.76 88.1508 100.807 88.1812C100.854 88.2116 100.894 88.2519 100.923 88.2992C100.98 88.3781 101.053 88.4429 101.139 88.4887C101.224 88.5344 101.319 88.5598 101.416 88.5629C101.587 88.5571 101.75 88.4923 101.879 88.3795C101.917 88.3449 101.963 88.3186 102.012 88.3022C102.061 88.2857 102.113 88.2795 102.165 88.2839L103.621 88.4368C103.714 88.4462 103.799 88.4915 103.858 88.5629C103.887 88.5991 103.908 88.6408 103.921 88.6854C103.933 88.7301 103.937 88.7768 103.931 88.8228L103.709 90.9399C103.698 91.0308 103.651 91.1138 103.58 91.1715C103.509 91.2292 103.418 91.2571 103.327 91.2495L101.879 91.0928C101.8 91.0852 101.726 91.0516 101.668 90.9972C101.551 90.8814 101.403 90.8021 101.241 90.7689C101.08 90.7356 100.912 90.7499 100.759 90.81L100.698 91.4023C100.693 91.4582 100.675 91.5121 100.644 91.559L100.331 92.052L99.7614 97.4404C99.8588 97.8923 99.9215 98.351 99.9486 98.8124C99.8807 99.9695 99.7223 101.119 99.4748 102.252C99.4553 102.91 99.4988 103.57 99.6047 104.22C99.6433 104.369 99.6443 104.525 99.6076 104.674C99.571 104.824 99.4977 104.962 99.3945 105.076C99.3179 105.165 99.2229 105.237 99.1161 105.287C99.0093 105.336 98.8931 105.362 98.7754 105.363C98.715 105.36 98.6548 105.353 98.5958 105.34ZM98.8022 102.122C99.0451 101.042 99.1998 99.9441 99.2646 98.8391C99.2398 98.3991 99.1784 97.962 99.0811 97.5322C99.0754 97.4929 99.0754 97.453 99.0811 97.4137L99.6658 91.8839C99.6703 91.8292 99.6887 91.7765 99.7193 91.731L100.033 91.238L100.109 90.5387C100.114 90.4869 100.131 90.437 100.158 90.3926C100.185 90.3483 100.222 90.3107 100.266 90.2826C100.542 90.1035 100.868 90.0183 101.197 90.0396C101.525 90.061 101.838 90.1877 102.089 90.4011L103.079 90.5043L103.228 89.0826L102.265 88.9795C102.015 89.1615 101.713 89.2556 101.405 89.247C101.223 89.2392 101.044 89.1945 100.88 89.1157C100.716 89.0369 100.569 88.9255 100.449 88.7884L97.35 88.4597C96.5763 88.4707 95.8321 88.758 95.2519 89.2699C95.5589 89.1627 95.8715 89.0721 96.1882 88.9986C96.4837 88.907 96.7969 88.8876 97.1015 88.9421C97.4061 88.9967 97.6931 89.1235 97.9385 89.3119C98.6034 89.8699 98.6646 90.8406 98.6684 91.1616L98.9092 91.6431C98.9414 91.7026 98.9534 91.771 98.9436 91.838L98.3589 97.3678C98.3564 97.4101 98.346 97.4516 98.3283 97.4901C98.3283 97.4901 98.1831 97.7844 97.7933 98.6901C97.4875 99.3971 97.4914 101.365 97.5219 102.072C97.524 102.103 97.524 102.133 97.5219 102.164C97.3822 102.865 97.1603 103.548 96.8608 104.197C96.8608 104.231 96.8111 104.293 96.8226 104.327C96.8527 104.384 96.8993 104.431 96.9563 104.461L98.7181 104.644C98.8289 104.667 98.8671 104.644 98.8824 104.625C98.8977 104.606 98.9665 104.465 98.9741 104.465C98.8153 103.694 98.7575 102.907 98.8022 102.122Z" fill="#383C42"/>
<path d="M84.6661 88.0469C86.8788 92.3538 93.9449 93.9283 95.6952 94.3448C97.9689 94.8908 100.294 95.1957 102.631 95.2544C102.689 95.2544 102.777 95.9423 102.834 95.9423C107.069 96.0098 111.302 95.7042 115.483 95.0289C115.621 95.006 115.441 94.3219 115.575 94.299C117.547 93.9742 118.904 93.6837 119.313 93.6531C119.485 93.6531 119.63 96.0798 116.381 97.4059C111.906 99.2288 93.4787 100.043 86.2789 93.4735C85.1706 92.4455 84.3719 89.7475 84.6661 88.0469Z" fill="white"/>
<path opacity="0.7" d="M84.8458 88.6509C87.0546 92.9578 94.1246 94.5323 95.871 94.9488C106.036 97.3679 118.12 94.368 119.492 94.261C119.668 94.261 119.813 96.6877 116.565 98.0138C112.09 99.8366 93.6583 100.654 86.4623 94.0813C85.3311 93.0533 84.5477 90.3553 84.8458 88.6509Z" fill="#21AAAD"/>
<path d="M105.735 99.1259C110.473 99.1259 114.581 98.5298 116.397 97.796C119.339 96.596 120.073 94.2954 119.874 93.5923C119.848 93.4705 119.777 93.3632 119.675 93.2922C119.573 93.2212 119.447 93.1918 119.324 93.2101L117.872 93.4738C117.226 93.5961 116.469 93.7375 115.629 93.8827C115.581 93.8888 115.536 93.9044 115.495 93.9286C115.454 93.9528 115.419 93.985 115.39 94.0233C115.362 94.0616 115.342 94.1052 115.332 94.1515C115.321 94.1978 115.319 94.2458 115.328 94.2926C115.336 94.3394 115.354 94.384 115.38 94.4238C115.406 94.4636 115.439 94.4977 115.479 94.524C115.519 94.5503 115.563 94.5684 115.61 94.5771C115.657 94.5857 115.705 94.5848 115.751 94.5744C116.595 94.4292 117.356 94.284 118.002 94.1617C118.468 94.0776 118.869 93.9974 119.213 93.9439C119.167 94.5056 118.529 96.1909 116.137 97.1616C111.876 98.9004 93.4864 99.7603 86.405 93.298C85.5719 92.5337 85.0445 90.6229 85.0139 89.0752C86.7183 91.3949 90.1119 93.2178 95.1182 94.5056L95.4239 94.5859C97.7807 95.1974 100.198 95.546 102.631 95.6253C102.678 95.6271 102.724 95.6198 102.767 95.6037C102.81 95.5877 102.85 95.5632 102.884 95.5318C102.918 95.5004 102.945 95.4626 102.964 95.4207C102.984 95.3787 102.995 95.3333 102.996 95.2871C102.998 95.241 102.991 95.1949 102.975 95.1516C102.959 95.1082 102.934 95.0685 102.903 95.0346C102.871 95.0007 102.834 94.9733 102.792 94.9541C102.75 94.9348 102.704 94.9239 102.658 94.9222C100.276 94.8426 97.9108 94.5017 95.6035 93.9056L95.2902 93.8254C89.8215 92.4152 86.3782 90.386 85.0445 87.8026C85.0115 87.737 84.9586 87.6837 84.8934 87.65C84.8282 87.6164 84.754 87.6042 84.6814 87.6153C84.6095 87.6295 84.5431 87.664 84.4903 87.7148C84.4374 87.7656 84.4003 87.8306 84.3834 87.9019C84.0776 89.7019 84.6815 92.6789 85.9311 93.8177C90.3412 97.8266 98.7258 99.1259 105.735 99.1259Z" fill="#383C42"/>
<path d="M106.801 87.9399C106.998 87.9528 107.192 87.994 107.378 88.0622C107.604 88.0772 107.824 88.1369 108.027 88.2379C108.23 88.3389 108.41 88.4792 108.558 88.6506C108.706 88.822 108.818 89.0211 108.889 89.2363C108.959 89.4515 108.986 89.6786 108.968 89.9042L108.203 96.0952H106.254V95.992H105.838L105.073 89.8011C105.073 89.8011 104.875 88.131 106.801 87.9399Z" fill="white"/>
<path d="M110.061 94.4518V94.3678H110.24L110.114 90.0456C110.089 89.8972 110.097 89.7452 110.136 89.5999C110.175 89.4546 110.244 89.3193 110.34 89.2031C110.436 89.0869 110.555 88.9925 110.69 88.9263C110.825 88.86 110.973 88.8233 111.123 88.8188C111.256 88.7658 111.397 88.7335 111.54 88.7233C111.852 88.7009 112.161 88.8015 112.4 89.0035C112.639 89.2056 112.79 89.4931 112.82 89.8048L112.957 94.3028H113.508L113.542 95.6518L113.125 95.6939V95.7282L109.686 96.0875L109.648 94.4633L110.061 94.4518Z" fill="white"/>
<path opacity="0.6" d="M112.529 94.3986L112.392 89.8967C112.364 89.5853 112.214 89.2976 111.975 89.0958C111.736 88.8941 111.427 88.7947 111.115 88.8191C110.965 88.8247 110.818 88.8622 110.683 88.9291C110.548 88.996 110.429 89.0908 110.334 89.2071C110.238 89.3235 110.169 89.4587 110.13 89.6039C110.09 89.7492 110.082 89.9011 110.106 90.0496L110.236 94.4521H109.636L109.675 96.0801L113.114 95.6979L113.08 94.3489L112.529 94.3986Z" fill="#AFB1B3"/>
<path opacity="0.4" d="M108.536 89.7934L107.791 95.9844H105.842L105.077 89.7934C105.077 89.7934 104.882 88.131 106.812 87.9399C106.801 87.9399 108.612 88.0126 108.536 89.7934Z" fill="#AFB1B3"/>
<path d="M109.854 96.2556C109.818 96.2232 109.789 96.1837 109.769 96.1397C109.748 96.0957 109.737 96.048 109.736 95.9996L109.698 94.3754C109.698 94.2807 109.733 94.1894 109.797 94.1194C109.829 94.086 109.868 94.0594 109.91 94.041C109.953 94.0227 109.999 94.0129 110.045 94.0124H110.294L110.175 89.9959C110.131 89.5884 110.241 89.1791 110.485 88.8494C110.612 88.7022 110.769 88.5835 110.946 88.5012C111.122 88.4189 111.314 88.3748 111.509 88.3717C111.711 88.3545 111.915 88.3778 112.108 88.4402C112.302 88.5027 112.481 88.603 112.635 88.7354C112.789 88.8677 112.915 89.0294 113.006 89.2111C113.096 89.3927 113.15 89.5907 113.164 89.7933L113.282 93.9436H113.489C113.536 93.9417 113.583 93.9495 113.627 93.9666C113.671 93.9837 113.711 94.0097 113.745 94.0429C113.778 94.0752 113.805 94.1138 113.823 94.1564C113.841 94.1991 113.851 94.2449 113.852 94.2913L113.882 95.6404C113.886 95.7287 113.856 95.8152 113.798 95.8816C113.739 95.948 113.657 95.9889 113.569 95.9958L110.129 96.3779H110.091C110 96.3669 109.916 96.3235 109.854 96.2556ZM113.152 94.6506H112.95C112.858 94.6507 112.769 94.6155 112.702 94.5522C112.635 94.4889 112.595 94.4024 112.59 94.3104L112.461 89.8392C112.452 89.7291 112.422 89.6218 112.372 89.5235C112.322 89.4251 112.253 89.3378 112.168 89.2666C112.084 89.1955 111.986 89.1418 111.881 89.1089C111.776 89.076 111.665 89.0644 111.555 89.0749C111.458 89.0739 111.361 89.0931 111.272 89.1312C111.182 89.1694 111.102 89.2256 111.035 89.2965C110.907 89.4858 110.851 89.7152 110.878 89.9424L111.012 94.3487C111.014 94.4426 110.978 94.5332 110.913 94.6009C110.881 94.6351 110.843 94.6625 110.8 94.6816C110.757 94.7006 110.711 94.7109 110.664 94.7117H110.416L110.439 95.606L113.175 95.3193L113.152 94.6506Z" fill="#383C42"/>
<path d="M105.918 96.1374L105.154 89.9388C105.113 89.4133 105.266 88.8909 105.585 88.4714C105.789 88.2412 106.037 88.0547 106.315 87.9233C106.593 87.7919 106.895 87.7184 107.202 87.707H107.248C107.533 87.7063 107.815 87.7644 108.077 87.8777C108.338 87.991 108.573 88.157 108.768 88.3654C108.962 88.5738 109.112 88.8201 109.206 89.0889C109.301 89.3576 109.34 89.6431 109.319 89.9274V89.9579L108.574 96.1489C108.565 96.234 108.525 96.3129 108.462 96.3702C108.398 96.4274 108.316 96.4589 108.23 96.4585H106.281C106.191 96.4608 106.104 96.429 106.036 96.3694C105.969 96.3099 105.927 96.227 105.918 96.1374ZM108.616 89.8739C108.627 89.6852 108.6 89.4962 108.536 89.3184C108.472 89.1405 108.373 88.9776 108.243 88.8396C108.114 88.7016 107.958 88.5913 107.785 88.5155C107.612 88.4397 107.425 88.4 107.236 88.3987C107.028 88.4074 106.823 88.457 106.633 88.5449C106.444 88.6328 106.273 88.7571 106.132 88.9108C105.928 89.1831 105.826 89.5188 105.845 89.8586L106.571 95.7285H107.905L108.616 89.8739Z" fill="#383C42"/>
<path d="M115.72 95.1855V103.41C115.72 103.41 109.224 105.939 102.727 105.038V96.053C104.861 96.2846 107.014 96.2961 109.151 96.0874C114.096 95.6327 115.72 95.1855 115.72 95.1855Z" fill="white"/>
<path d="M116.194 95.6289V103.857C116.194 103.857 109.697 106.387 103.182 105.481V96.4926C105.317 96.7242 107.471 96.737 109.61 96.5308C114.566 96.0837 116.194 95.6289 116.194 95.6289Z" fill="white"/>
<path opacity="0.7" d="M116.202 95.6138V103.842C116.202 103.842 109.705 106.372 103.208 105.466V96.4927C105.343 96.7244 107.495 96.7372 109.633 96.531C114.597 96.0685 116.202 95.6138 116.202 95.6138Z" fill="#21AAAD"/>
<path d="M105.62 105.55C109.092 105.508 112.532 104.884 115.797 103.704C115.863 103.678 115.92 103.633 115.961 103.574C116.001 103.516 116.022 103.446 116.022 103.375V94.3218C116.022 94.2286 115.985 94.1391 115.919 94.0732C115.853 94.0073 115.764 93.9702 115.671 93.9702C115.577 93.9702 115.488 94.0073 115.422 94.0732C115.356 94.1391 115.319 94.2286 115.319 94.3218V103.111C114.146 103.532 108.578 105.355 103.01 104.678V95.3154C103.01 95.2222 102.973 95.1327 102.907 95.0668C102.841 95.0009 102.751 94.9638 102.658 94.9638C102.565 94.9638 102.475 95.0009 102.41 95.0668C102.344 95.1327 102.307 95.2222 102.307 95.3154V105.003C102.308 105.088 102.339 105.17 102.395 105.234C102.451 105.297 102.528 105.339 102.612 105.351C103.609 105.487 104.614 105.553 105.62 105.55Z" fill="#383C42"/>
<path d="M105.589 96.5118C108.964 96.445 112.328 96.1064 115.648 95.499C115.739 95.4805 115.819 95.4269 115.872 95.3497C115.924 95.2725 115.944 95.1779 115.927 95.0863C115.908 94.9948 115.855 94.914 115.778 94.8612C115.701 94.8084 115.606 94.7877 115.514 94.8035C115.441 94.8035 107.871 96.2404 102.868 95.6672C102.776 95.657 102.683 95.6842 102.61 95.7426C102.537 95.801 102.491 95.8859 102.48 95.9786C102.47 96.0714 102.497 96.1644 102.556 96.2371C102.614 96.3098 102.699 96.3564 102.792 96.3665C103.721 96.4687 104.655 96.5171 105.589 96.5118Z" fill="#383C42"/>
<path d="M117.62 44.8094C110.071 41.5229 102.523 38.2312 94.9768 34.9345C94.8927 34.5141 95.0456 34.3192 95.4965 34.2695C96.4213 34.1701 97.3385 33.9944 98.2595 33.8873C98.4262 33.885 98.5888 33.8357 98.7287 33.7451C98.8686 33.6545 98.9802 33.5263 99.0506 33.3753C100.265 31.1314 102.007 29.2166 104.126 27.7958C109.262 24.2149 114.757 23.3436 120.509 26.0073C125.912 28.5066 128.897 32.8861 129.604 38.8095C129.986 41.9967 129.222 44.9699 127.854 47.8247C127.334 48.9062 127.365 48.9176 126.356 48.8412L125.897 48.6386C125.943 48.5737 125.828 48.5431 125.763 48.5049C125.702 48.4017 126.146 48.5928 126.039 48.6081L119.271 45.5508L117.62 44.8094ZM127.097 47.7406C128.427 44.9776 129.226 42.0999 128.897 39.0044C128.37 34.0466 126.011 30.211 121.82 27.4977C121.434 27.3009 120.991 27.248 120.57 27.3486C118.831 27.5206 117.39 28.3652 116.087 29.4505C113.952 31.2648 112.254 33.5379 111.119 36.1C111.056 36.2456 110.982 36.3861 110.897 36.5204C110.787 36.6809 110.634 36.7917 110.431 36.6847C110.389 36.6658 110.352 36.6382 110.321 36.6039C110.29 36.5695 110.267 36.5292 110.252 36.4853C110.238 36.4414 110.233 36.3951 110.237 36.3491C110.242 36.3032 110.256 36.2587 110.278 36.2185C110.45 35.8364 110.619 35.4274 110.817 35.0453C112.216 32.3702 113.982 30.0276 116.45 28.2467C117.341 27.6656 118.29 27.1801 119.282 26.7983C119.538 26.7677 119.825 26.8671 120.046 26.5843C119.404 26.2748 118.781 26.0225 118.063 26.2022C116.374 26.2862 115.006 27.0964 113.714 28.1129C111.452 29.8823 109.854 32.1753 108.605 34.7319C108.524 34.8962 108.452 35.0606 108.368 35.2211C108.284 35.3816 108.184 35.6758 107.878 35.5536C107.573 35.4313 107.599 35.1905 107.718 34.9345C109.388 31.453 111.54 28.3805 114.979 26.4238C115.476 26.1693 115.986 25.941 116.508 25.7397L117.153 25.6404C116.227 25.3469 115.251 25.2416 114.283 25.3308C112.953 25.541 111.906 26.3092 110.913 27.1308C108.774 28.9388 107.075 31.2102 105.945 33.7727C105.887 33.8988 105.83 34.0211 105.761 34.1549C105.654 34.3459 105.501 34.5026 105.272 34.4071C105.043 34.3115 105.035 34.0708 105.131 33.83C105.595 32.7456 106.159 31.7068 106.816 30.7269C108.053 28.7335 109.701 27.0268 111.65 25.7206C111.742 25.6595 111.822 25.5907 111.99 25.4646C111.44 25.4329 110.888 25.5095 110.366 25.6901C105.666 26.89 102.245 29.6721 100.155 34.0593C100.113 34.1711 100.037 34.2675 99.9391 34.3357C99.8409 34.4039 99.7243 34.4408 99.6047 34.4415C99.1538 34.4873 98.7066 34.5791 98.2595 34.6478C97.7783 34.6712 97.3032 34.7652 96.8494 34.9268L100.958 36.7306C106.152 38.9981 111.346 41.2655 116.538 43.533C119.595 44.8744 122.63 46.2463 125.676 47.5954C125.907 47.6888 126.143 47.7705 126.383 47.8399C126.665 48.1036 126.876 48.203 127.097 47.7482V47.7406Z" fill="#3E444A"/>
<path d="M114.299 25.3311C112.969 25.5412 111.922 26.3094 110.928 27.131C108.789 28.9391 107.09 31.2105 105.96 33.7729C105.903 33.899 105.845 34.0213 105.777 34.1551C105.67 34.3462 105.517 34.5028 105.287 34.4073C105.058 34.3118 105.05 34.071 105.146 33.8302C105.61 32.7459 106.175 31.707 106.831 30.7271C108.069 28.7337 109.717 27.0271 111.666 25.7209C111.757 25.6597 111.838 25.5909 112.006 25.4648C111.455 25.4331 110.903 25.5097 110.382 25.6903C105.681 26.8903 102.261 29.6724 100.17 34.0595C100.128 34.1713 100.053 34.2677 99.9544 34.3359C99.8561 34.4041 99.7396 34.441 99.62 34.4417C99.169 34.4876 98.7219 34.5793 98.2748 34.6481C97.7936 34.6714 97.3185 34.7654 96.8646 34.927L100.973 36.7308C106.168 38.9983 111.361 41.2658 116.553 43.5332C119.611 44.8746 122.645 46.2466 125.691 47.5956C125.922 47.6891 126.158 47.7707 126.398 47.8402C129.512 41.4925 128.332 34.4341 123.341 29.5271C122.465 28.7454 121.541 28.0204 120.574 27.3565C118.835 27.5285 117.394 28.373 116.091 29.4584C113.956 31.2727 112.257 33.5457 111.123 36.1079C111.06 36.2534 110.986 36.394 110.901 36.5283C110.79 36.6888 110.638 36.7996 110.435 36.6926C110.393 36.6736 110.355 36.6461 110.325 36.6117C110.294 36.5774 110.27 36.537 110.256 36.4932C110.242 36.4493 110.236 36.4029 110.241 36.357C110.246 36.3111 110.26 36.2666 110.282 36.2264C110.454 35.8442 110.622 35.4353 110.821 35.0532C112.22 32.378 113.985 30.0354 116.454 28.2546C117.344 27.6735 118.294 27.188 119.286 26.8062L118.078 26.2177C116.389 26.3017 115.021 27.1119 113.729 28.1285C111.467 29.8978 109.869 32.1908 108.62 34.7474C108.54 34.9118 108.467 35.0761 108.383 35.2366C108.299 35.3971 108.199 35.6914 107.894 35.5691C107.588 35.4468 107.615 35.206 107.733 34.95C109.388 31.4532 111.539 28.3807 114.979 26.424C115.476 26.1696 115.986 25.9412 116.508 25.74L114.299 25.3311Z" fill="#21A9AC"/>
<path d="M120.57 27.3564C121.537 28.0203 122.462 28.7453 123.337 29.5271C128.328 34.434 129.509 41.4925 126.394 47.8401C126.665 48.1038 126.875 48.2223 127.097 47.7484C128.427 44.9854 129.226 42.1077 128.897 39.0123C128.37 34.0544 126.011 30.2188 121.82 27.5055C121.434 27.3087 120.991 27.2559 120.57 27.3564Z" fill="#FEFEFE"/>
<path d="M23.4504 74.8057C25.4901 71.329 27.8748 68.2655 30.4474 65.6914L60.7542 82.9203C59.7778 86.3647 58.2967 89.8922 56.2758 93.3343C56.1302 93.5837 55.98 93.8284 55.8274 94.0754L23.0795 75.459C23.2016 75.242 23.3213 75.0227 23.448 74.8057H23.4504Z" fill="#CFECF1"/>
<path d="M54.9379 58.364L59.7871 61.125L59.1722 62.3301C62.4887 67.2612 63.038 74.8588 60.7518 82.9227L30.445 65.6937C38.3785 57.7545 48.0911 54.4994 54.9355 58.364H54.9379Z" fill="#CFECF1"/>
<path d="M55.8298 94.0754C49.5182 104.374 38.7728 112.539 29.5461 111.325L29.6399 112.539L24.7907 109.778C15.8667 104.739 15.1555 89.4813 23.0843 75.459L55.8321 94.0754H55.8298Z" fill="#CFECF1"/>
<path d="M28.3021 77.567C36.6275 63.3692 50.7247 56.0072 59.7895 61.123C68.8543 66.2411 69.4529 81.8979 61.1274 96.0956C53.7995 108.592 39.8502 118.304 29.64 112.54C20.5751 107.422 19.9766 91.7647 28.3021 77.567Z" fill="#2A394A"/>
<path d="M33.7452 111.06C41.5261 111.06 51.1214 103.959 57.0832 93.7941C62.0757 85.2846 63.9065 76.0111 61.9818 68.9907C61.1579 65.9849 59.651 63.6163 57.6043 62.0396C58.0503 62.215 58.4821 62.4182 58.8976 62.6536C61.5663 64.1611 63.4957 66.846 64.4745 70.4128C66.3968 77.4332 64.566 86.7067 59.5759 95.2161C53.6164 105.381 44.0188 112.48 36.2402 112.482C34.1818 112.482 32.2594 111.986 30.5319 111.011C30.1211 110.778 29.7339 110.51 29.3583 110.222C30.7291 110.776 32.1984 111.058 33.7499 111.058L33.7452 111.06Z" fill="#CFECF1"/>
<path d="M24.955 103.252C23.0303 96.2319 24.8634 86.9607 29.8535 78.449C35.8835 68.1665 45.3191 61.2593 53.3348 61.2593C54.8675 61.2593 56.2969 61.5225 57.6043 62.0373C59.651 63.614 61.1579 65.9826 61.9818 68.9884C63.9041 76.0088 62.0733 85.2824 57.0832 93.7918C51.1237 103.956 41.5261 111.055 33.7452 111.058C32.196 111.058 30.7243 110.776 29.3536 110.222C27.2928 108.647 25.7788 106.272 24.9526 103.25L24.955 103.252Z" fill="white"/>
<path d="M34.2428 81.5031C38.9231 73.5224 46.8472 69.3854 51.9405 72.2619C57.0363 75.1384 57.3719 83.9387 52.6916 91.9195C48.5723 98.9445 40.7327 104.402 34.9939 101.161C29.9005 98.2842 29.5625 89.4839 34.2428 81.5031Z" fill="#2A394A"/>
<path d="M43.7771 70.5601C43.3147 70.784 42.7725 70.4539 42.7725 69.946V67.9791C42.7725 67.6005 43.0847 67.2935 43.4696 67.2935C43.8545 67.2935 44.1667 67.6005 44.1667 67.9791V69.946C44.1667 70.2069 44.0165 70.4447 43.7771 70.5601Z" fill="#2A394A"/>
<path d="M27.1403 95.9938L29.0274 94.9203C29.4968 94.6525 30.1001 94.948 30.1494 95.4766C30.1775 95.786 30.0414 96.0676 29.7832 96.2154L27.9007 97.2866C27.781 97.3558 27.6519 97.3881 27.5228 97.3881C27.26 97.3881 27.0041 97.2543 26.8633 97.0142C26.6544 96.6563 26.7788 96.1992 27.1426 95.9938H27.1403Z" fill="#2A394A"/>
<path d="M57.9048 78.5226L59.7919 77.4491C60.2614 77.1813 60.8646 77.4768 60.9139 78.0055C60.9421 78.3148 60.8036 78.5965 60.5477 78.7442L58.6653 79.8154C58.5456 79.8846 58.4165 79.917 58.2874 79.917C58.0245 79.917 57.7687 79.7831 57.6278 79.543C57.4189 79.1851 57.5433 78.728 57.9048 78.5226Z" fill="#2A394A"/>
<path d="M43.1551 102.894C43.6339 102.668 44.1878 103.009 44.1878 103.531V105.452C44.1878 105.842 43.8663 106.16 43.4672 106.16C43.0682 106.16 42.7467 105.844 42.7467 105.452V103.531C42.7467 103.259 42.9039 103.012 43.1527 102.894H43.1551Z" fill="#2A394A"/>
<path d="M55.0013 68.1059C54.506 67.8451 53.8887 68.0251 53.6188 68.5076L44.3615 85.2333C44.0939 85.7181 44.277 86.3299 44.7699 86.5953C44.9201 86.6738 45.0891 86.7154 45.2558 86.7154C45.629 86.7154 45.974 86.5145 46.1524 86.1913L55.4097 69.4657C55.6773 68.9809 55.4942 68.3714 55.0013 68.1036V68.1059Z" fill="#A363BE"/>
<path d="M43.5001 86.1104C42.9368 86.1104 42.4791 86.5605 42.4791 87.1146V98.2142C42.4791 98.7683 42.9368 99.2185 43.5001 99.2185C44.0634 99.2185 44.5211 98.7683 44.5211 98.2142V87.1146C44.5211 86.5605 44.0634 86.1104 43.5001 86.1104Z" fill="#A363BE"/>
<path d="M40.0427 83.7331C41.8594 80.6327 44.9389 79.0259 46.9176 80.1432L48.3095 80.9328L47.8424 81.009C48.8751 82.5442 48.6827 85.266 47.211 87.78C45.8473 90.1048 43.4367 91.9793 41.3735 91.7092L41.728 92.1617L40.3361 91.3722C38.3574 90.2548 38.226 86.8358 40.045 83.7354L40.0427 83.7331Z" fill="white"/>
<path d="M41.728 92.1593C42.181 92.4155 42.6668 92.531 43.1691 92.531C45.1361 92.531 47.3284 90.7418 48.6029 88.5694C50.4219 85.469 50.2905 82.05 48.3118 80.9327C47.8846 80.6926 47.4082 80.5771 46.9035 80.5771C45.0657 80.5771 42.864 82.0916 41.4369 84.5225C39.6202 87.6229 39.7493 91.0419 41.728 92.1593Z" fill="#A363BE"/>
<path d="M48.063 83.2965C47.941 82.851 47.7391 82.5439 47.4598 82.387C47.3026 82.2969 47.1195 82.2554 46.9012 82.2554C46.8848 82.2554 46.8636 82.2623 46.8449 82.2623C46.8613 82.3108 46.8824 82.3569 46.8965 82.41C47.1523 83.3427 47.0397 84.998 45.9576 86.8425C44.9225 88.6086 43.2419 89.9383 42.0331 89.9614C42.1575 90.3146 42.3383 90.5686 42.5777 90.7025C42.7561 90.8017 42.9485 90.8525 43.1692 90.8525C44.3803 90.8525 46.082 89.5112 47.1242 87.7313C48.2062 85.8868 48.3189 84.2315 48.063 83.2988V83.2965Z" fill="white"/>
<path d="M45.9576 86.8429C47.0397 84.9984 47.1523 83.3431 46.8965 82.4104C46.8824 82.3573 46.8613 82.3112 46.8448 82.2627C45.7651 82.2973 44.0892 83.357 42.9133 85.3608C41.8312 87.2054 41.7186 88.8606 41.9744 89.7933C41.9909 89.8533 42.012 89.9041 42.0331 89.9595C43.2419 89.9387 44.9225 88.6067 45.9576 86.8406V86.8429Z" fill="url(#paint0_linear_704_115534)"/>
<path d="M45.9576 86.8429C47.0397 84.9984 47.1523 83.3431 46.8965 82.4104C46.8824 82.3573 46.8613 82.3112 46.8448 82.2627C45.7651 82.2973 44.0892 83.357 42.9133 85.3608C41.8312 87.2054 41.7186 88.8606 41.9744 89.7933C41.9909 89.8533 42.012 89.9041 42.0331 89.9595C43.2419 89.9387 44.9225 88.6067 45.9576 86.8406V86.8429Z" fill="#CFECF1"/>
<defs>
<linearGradient id="paint0_linear_704_115534" x1="41.8594" y1="86.1134" x2="48.178" y2="86.1134" gradientUnits="userSpaceOnUse">
<stop stop-color="#EEF2FC"/>
<stop offset="0.39" stop-color="#E9EEFB"/>
<stop offset="0.84" stop-color="#DBE4F9"/>
<stop offset="1" stop-color="#D5DFF9"/>
</linearGradient>
</defs>
</svg>
