<svg width="692" height="350" viewBox="0 0 692 350" fill="none" xmlns="http://www.w3.org/2000/svg">
<path d="M137.97 23.5098H118.2V40.6898H137.97V23.5098Z" fill="#D2EDF3"/>
<path d="M160.91 23.5098H141.14V40.6898H160.91V23.5098Z" fill="#D2EDF3"/>
<path d="M160.91 43.8604H141.14V61.0404H160.91V43.8604Z" fill="#D2EDF3"/>
<path d="M115.04 64.21H95.27V81.39H115.04V64.21Z" fill="#D2EDF3"/>
<path d="M137.97 64.21H118.2V81.39H137.97V64.21Z" fill="#D2EDF3"/>
<path d="M160.91 64.21H141.14V81.39H160.91V64.21Z" fill="#D2EDF3"/>
<path d="M115.04 84.5498H95.27V101.73H115.04V84.5498Z" fill="#D2EDF3"/>
<path d="M137.97 84.5498H118.2V101.73H137.97V84.5498Z" fill="#D2EDF3"/>
<path d="M160.91 84.5498H141.14V101.73H160.91V84.5498Z" fill="#D2EDF3"/>
<path d="M115.04 104.9H95.27V122.08H115.04V104.9Z" fill="#D2EDF3"/>
<path d="M137.97 104.9H118.2V122.08H137.97V104.9Z" fill="#D2EDF3"/>
<path d="M160.91 104.9H141.14V122.08H160.91V104.9Z" fill="#D2EDF3"/>
<path d="M115.04 125.25H95.27V142.43H115.04V125.25Z" fill="#D2EDF3"/>
<path d="M137.97 125.25H118.2V142.43H137.97V125.25Z" fill="#D2EDF3"/>
<path d="M160.91 125.25H141.14V142.43H160.91V125.25Z" fill="#D2EDF3"/>
<path d="M115.04 145.59H95.27V162.77H115.04V145.59Z" fill="#D2EDF3"/>
<path d="M137.97 145.59H118.2V162.77H137.97V145.59Z" fill="#D2EDF3"/>
<path d="M115.04 165.939H95.27V183.119H115.04V165.939Z" fill="#D2EDF3"/>
<path d="M160.91 165.939H141.14V183.119H160.91V165.939Z" fill="#D2EDF3"/>
<path d="M115.04 186.29H95.27V203.47H115.04V186.29Z" fill="#D2EDF3"/>
<path d="M115.04 206.63H95.27V223.81H115.04V206.63Z" fill="#D2EDF3"/>
<path d="M137.97 206.63H118.2V223.81H137.97V206.63Z" fill="#D2EDF3"/>
<path d="M160.91 206.63H141.14V223.81H160.91V206.63Z" fill="#D2EDF3"/>
<path d="M115.04 226.979H95.27V244.16H115.04V226.979Z" fill="#D2EDF3"/>
<path d="M137.97 226.979H118.2V244.16H137.97V226.979Z" fill="#D2EDF3"/>
<path d="M160.91 226.979H141.14V244.16H160.91V226.979Z" fill="#D2EDF3"/>
<path d="M115.04 247.33H95.27V264.51H115.04V247.33Z" fill="#D2EDF3"/>
<path d="M137.97 247.33H118.2V264.51H137.97V247.33Z" fill="#D2EDF3"/>
<path d="M160.91 247.33H141.14V264.51H160.91V247.33Z" fill="#D2EDF3"/>
<path d="M115.04 267.67H95.27V284.85H115.04V267.67Z" fill="#D2EDF3"/>
<path d="M137.97 267.67H118.2V284.85H137.97V267.67Z" fill="#D2EDF3"/>
<path d="M160.91 267.67H141.14V284.85H160.91V267.67Z" fill="#D2EDF3"/>
<path d="M115.04 288.02H95.27V305.2H115.04V288.02Z" fill="#D2EDF3"/>
<path d="M137.97 288.02H118.2V305.2H137.97V288.02Z" fill="#D2EDF3"/>
<path d="M160.91 288.02H141.14V305.2H160.91V288.02Z" fill="#D2EDF3"/>
<path d="M115.04 308.37H95.27V325.55H115.04V308.37Z" fill="#D2EDF3"/>
<path d="M137.97 308.37H118.2V325.55H137.97V308.37Z" fill="#D2EDF3"/>
<path d="M160.91 308.37H141.14V325.55H160.91V308.37Z" fill="#D2EDF3"/>
<path d="M115.04 328.71H95.27V345.89H115.04V328.71Z" fill="#D2EDF3"/>
<path d="M137.97 328.71H118.2V345.89H137.97V328.71Z" fill="#D2EDF3"/>
<path d="M160.91 328.71H141.14V345.89H160.91V328.71Z" fill="#D2EDF3"/>
<path d="M92.1 84.5498H72.33V101.73H92.1V84.5498Z" fill="#D2EDF3"/>
<path d="M92.1 104.9H72.33V122.08H92.1V104.9Z" fill="#D2EDF3"/>
<path d="M92.1 145.59H72.33V162.77H92.1V145.59Z" fill="#D2EDF3"/>
<path d="M92.1 165.939H72.33V183.119H92.1V165.939Z" fill="#D2EDF3"/>
<path d="M92.1 186.29H72.33V203.47H92.1V186.29Z" fill="#D2EDF3"/>
<path d="M92.1 206.63H72.33V223.81H92.1V206.63Z" fill="#D2EDF3"/>
<path d="M92.1 226.979H72.33V244.16H92.1V226.979Z" fill="#D2EDF3"/>
<path d="M92.1 247.33H72.33V264.51H92.1V247.33Z" fill="#D2EDF3"/>
<path d="M92.1 267.67H72.33V284.85H92.1V267.67Z" fill="#D2EDF3"/>
<path d="M92.1 288.02H72.33V305.2H92.1V288.02Z" fill="#D2EDF3"/>
<path d="M92.1 308.37H72.33V325.55H92.1V308.37Z" fill="#D2EDF3"/>
<path d="M92.1 328.71H72.33V345.89H92.1V328.71Z" fill="#D2EDF3"/>
<path d="M69.16 84.5498H49.39V101.73H69.16V84.5498Z" fill="#D2EDF3"/>
<path d="M69.16 104.9H49.39V122.08H69.16V104.9Z" fill="#D2EDF3"/>
<path d="M69.16 145.59H49.39V162.77H69.16V145.59Z" fill="#D2EDF3"/>
<path d="M69.16 165.939H49.39V183.119H69.16V165.939Z" fill="#D2EDF3"/>
<path d="M69.16 186.29H49.39V203.47H69.16V186.29Z" fill="#D2EDF3"/>
<path d="M69.16 206.63H49.39V223.81H69.16V206.63Z" fill="#D2EDF3"/>
<path d="M69.16 226.979H49.39V244.16H69.16V226.979Z" fill="#D2EDF3"/>
<path d="M69.16 247.33H49.39V264.51H69.16V247.33Z" fill="#D2EDF3"/>
<path d="M69.16 288.02H49.39V305.2H69.16V288.02Z" fill="#D2EDF3"/>
<path d="M69.16 308.37H49.39V325.55H69.16V308.37Z" fill="#D2EDF3"/>
<path d="M69.16 328.71H49.39V345.89H69.16V328.71Z" fill="#D2EDF3"/>
<path d="M46.2199 64.21H26.45V81.39H46.2199V64.21Z" fill="#D2EDF3"/>
<path d="M46.2199 104.9H26.45V122.08H46.2199V104.9Z" fill="#D2EDF3"/>
<path d="M46.2199 145.59H26.45V162.77H46.2199V145.59Z" fill="#D2EDF3"/>
<path d="M46.2199 165.939H26.45V183.119H46.2199V165.939Z" fill="#D2EDF3"/>
<path d="M46.2199 186.29H26.45V203.47H46.2199V186.29Z" fill="#D2EDF3"/>
<path d="M46.2199 206.63H26.45V223.81H46.2199V206.63Z" fill="#D2EDF3"/>
<path d="M23.29 145.59H3.51996V162.77H23.29V145.59Z" fill="#D2EDF3"/>
<path d="M23.29 165.939H3.51996V183.119H23.29V165.939Z" fill="#D2EDF3"/>
<path d="M23.29 206.63H3.51996V223.81H23.29V206.63Z" fill="#D2EDF3"/>
<path d="M46.2199 247.33H26.45V264.51H46.2199V247.33Z" fill="#D2EDF3"/>
<path d="M46.2199 308.37H26.45V325.55H46.2199V308.37Z" fill="#D2EDF3"/>
<path d="M183.85 23.5098H164.08V40.6898H183.85V23.5098Z" fill="#D2EDF3"/>
<path d="M206.79 23.5098H187.02V40.6898H206.79V23.5098Z" fill="#D2EDF3"/>
<path d="M229.72 23.5098H209.95V40.6898H229.72V23.5098Z" fill="#D2EDF3"/>
<path d="M252.66 23.5098H232.89V40.6898H252.66V23.5098Z" fill="#D2EDF3"/>
<path d="M183.85 43.8604H164.08V61.0404H183.85V43.8604Z" fill="#D2EDF3"/>
<path d="M206.79 43.8604H187.02V61.0404H206.79V43.8604Z" fill="#D2EDF3"/>
<path d="M229.72 43.8604H209.95V61.0404H229.72V43.8604Z" fill="#D2EDF3"/>
<path d="M252.66 43.8604H232.89V61.0404H252.66V43.8604Z" fill="#D2EDF3"/>
<path d="M183.85 64.21H164.08V81.39H183.85V64.21Z" fill="#D2EDF3"/>
<path d="M206.79 64.21H187.02V81.39H206.79V64.21Z" fill="#D2EDF3"/>
<path d="M229.72 64.21H209.95V81.39H229.72V64.21Z" fill="#D2EDF3"/>
<path d="M252.66 64.21H232.89V81.39H252.66V64.21Z" fill="#D2EDF3"/>
<path d="M183.85 84.5498H164.08V101.73H183.85V84.5498Z" fill="#D2EDF3"/>
<path d="M206.79 84.5498H187.02V101.73H206.79V84.5498Z" fill="#D2EDF3"/>
<path d="M252.66 84.5498H232.89V101.73H252.66V84.5498Z" fill="#D2EDF3"/>
<path d="M183.85 104.9H164.08V122.08H183.85V104.9Z" fill="#D2EDF3"/>
<path d="M252.66 104.9H232.89V122.08H252.66V104.9Z" fill="#D2EDF3"/>
<path d="M206.79 125.25H187.02V142.43H206.79V125.25Z" fill="#D2EDF3"/>
<path d="M252.66 125.25H232.89V142.43H252.66V125.25Z" fill="#D2EDF3"/>
<path d="M183.85 145.59H164.08V162.77H183.85V145.59Z" fill="#D2EDF3"/>
<path d="M206.79 145.59H187.02V162.77H206.79V145.59Z" fill="#D2EDF3"/>
<path d="M252.66 145.59H232.89V162.77H252.66V145.59Z" fill="#D2EDF3"/>
<path d="M183.85 165.939H164.08V183.119H183.85V165.939Z" fill="#D2EDF3"/>
<path d="M206.79 165.939H187.02V183.119H206.79V165.939Z" fill="#D2EDF3"/>
<path d="M252.66 165.939H232.89V183.119H252.66V165.939Z" fill="#D2EDF3"/>
<path d="M183.85 206.63H164.08V223.81H183.85V206.63Z" fill="#D2EDF3"/>
<path d="M206.79 206.63H187.02V223.81H206.79V206.63Z" fill="#D2EDF3"/>
<path d="M252.66 206.63H232.89V223.81H252.66V206.63Z" fill="#D2EDF3"/>
<path d="M183.85 226.979H164.08V244.16H183.85V226.979Z" fill="#D2EDF3"/>
<path d="M206.79 226.979H187.02V244.16H206.79V226.979Z" fill="#D2EDF3"/>
<path d="M252.66 226.979H232.89V244.16H252.66V226.979Z" fill="#D2EDF3"/>
<path d="M183.85 247.33H164.08V264.51H183.85V247.33Z" fill="#D2EDF3"/>
<path d="M206.79 247.33H187.02V264.51H206.79V247.33Z" fill="#D2EDF3"/>
<path d="M252.66 247.33H232.89V264.51H252.66V247.33Z" fill="#D2EDF3"/>
<path d="M183.85 267.67H164.08V284.85H183.85V267.67Z" fill="#D2EDF3"/>
<path d="M206.79 267.67H187.02V284.85H206.79V267.67Z" fill="#D2EDF3"/>
<path d="M229.72 267.67H209.95V284.85H229.72V267.67Z" fill="#D2EDF3"/>
<path d="M252.66 267.67H232.89V284.85H252.66V267.67Z" fill="#D2EDF3"/>
<path d="M183.85 288.02H164.08V305.2H183.85V288.02Z" fill="#D2EDF3"/>
<path d="M206.79 288.02H187.02V305.2H206.79V288.02Z" fill="#D2EDF3"/>
<path d="M229.72 288.02H209.95V305.2H229.72V288.02Z" fill="#D2EDF3"/>
<path d="M252.66 288.02H232.89V305.2H252.66V288.02Z" fill="#D2EDF3"/>
<path d="M183.85 308.37H164.08V325.55H183.85V308.37Z" fill="#D2EDF3"/>
<path d="M206.79 308.37H187.02V325.55H206.79V308.37Z" fill="#D2EDF3"/>
<path d="M229.72 308.37H209.95V325.55H229.72V308.37Z" fill="#D2EDF3"/>
<path d="M252.66 308.37H232.89V325.55H252.66V308.37Z" fill="#D2EDF3"/>
<path d="M183.85 328.71H164.08V345.89H183.85V328.71Z" fill="#D2EDF3"/>
<path d="M206.79 328.71H187.02V345.89H206.79V328.71Z" fill="#D2EDF3"/>
<path d="M229.72 328.71H209.95V345.89H229.72V328.71Z" fill="#D2EDF3"/>
<path d="M252.66 328.71H232.89V345.89H252.66V328.71Z" fill="#D2EDF3"/>
<path d="M275.6 23.5098H255.83V40.6898H275.6V23.5098Z" fill="#D2EDF3"/>
<path d="M298.54 23.5098H278.77V40.6898H298.54V23.5098Z" fill="#D2EDF3"/>
<path d="M321.48 23.5098H301.71V40.6898H321.48V23.5098Z" fill="#D2EDF3"/>
<path d="M275.6 43.8604H255.83V61.0404H275.6V43.8604Z" fill="#D2EDF3"/>
<path d="M298.54 43.8604H278.77V61.0404H298.54V43.8604Z" fill="#D2EDF3"/>
<path d="M321.48 43.8604H301.71V61.0404H321.48V43.8604Z" fill="#D2EDF3"/>
<path d="M275.6 64.21H255.83V81.39H275.6V64.21Z" fill="#D2EDF3"/>
<path d="M298.54 64.21H278.77V81.39H298.54V64.21Z" fill="#D2EDF3"/>
<path d="M321.48 64.21H301.71V81.39H321.48V64.21Z" fill="#D2EDF3"/>
<path d="M275.6 84.5498H255.83V101.73H275.6V84.5498Z" fill="#D2EDF3"/>
<path d="M298.54 84.5498H278.77V101.73H298.54V84.5498Z" fill="#D2EDF3"/>
<path d="M275.6 104.9H255.83V122.08H275.6V104.9Z" fill="#D2EDF3"/>
<path d="M321.48 104.9H301.71V122.08H321.48V104.9Z" fill="#D2EDF3"/>
<path d="M275.6 125.25H255.83V142.43H275.6V125.25Z" fill="#D2EDF3"/>
<path d="M321.48 125.25H301.71V142.43H321.48V125.25Z" fill="#D2EDF3"/>
<path d="M275.6 145.59H255.83V162.77H275.6V145.59Z" fill="#D2EDF3"/>
<path d="M321.48 145.59H301.71V162.77H321.48V145.59Z" fill="#D2EDF3"/>
<path d="M275.6 165.939H255.83V183.119H275.6V165.939Z" fill="#D2EDF3"/>
<path d="M321.48 165.939H301.71V183.119H321.48V165.939Z" fill="#D2EDF3"/>
<path d="M275.6 186.29H255.83V203.47H275.6V186.29Z" fill="#D2EDF3"/>
<path d="M321.48 186.29H301.71V203.47H321.48V186.29Z" fill="#D2EDF3"/>
<path d="M275.6 206.63H255.83V223.81H275.6V206.63Z" fill="#D2EDF3"/>
<path d="M321.48 206.63H301.71V223.81H321.48V206.63Z" fill="#D2EDF3"/>
<path d="M275.6 226.979H255.83V244.16H275.6V226.979Z" fill="#D2EDF3"/>
<path d="M321.48 226.979H301.71V244.16H321.48V226.979Z" fill="#D2EDF3"/>
<path d="M275.6 247.33H255.83V264.51H275.6V247.33Z" fill="#D2EDF3"/>
<path d="M298.54 247.33H278.77V264.51H298.54V247.33Z" fill="#D2EDF3"/>
<path d="M275.6 267.67H255.83V284.85H275.6V267.67Z" fill="#D2EDF3"/>
<path d="M298.54 267.67H278.77V284.85H298.54V267.67Z" fill="#D2EDF3"/>
<path d="M321.48 267.67H301.71V284.85H321.48V267.67Z" fill="#D2EDF3"/>
<path d="M275.6 288.02H255.83V305.2H275.6V288.02Z" fill="#D2EDF3"/>
<path d="M298.54 288.02H278.77V305.2H298.54V288.02Z" fill="#D2EDF3"/>
<path d="M321.48 288.02H301.71V305.2H321.48V288.02Z" fill="#D2EDF3"/>
<path d="M275.6 308.37H255.83V325.55H275.6V308.37Z" fill="#D2EDF3"/>
<path d="M298.54 308.37H278.77V325.55H298.54V308.37Z" fill="#D2EDF3"/>
<path d="M321.48 308.37H301.71V325.55H321.48V308.37Z" fill="#D2EDF3"/>
<path d="M275.6 328.71H255.83V345.89H275.6V328.71Z" fill="#D2EDF3"/>
<path d="M298.54 328.71H278.77V345.89H298.54V328.71Z" fill="#D2EDF3"/>
<path d="M321.48 328.71H301.71V345.89H321.48V328.71Z" fill="#D2EDF3"/>
<path d="M413.23 23.5098H393.46V40.6898H413.23V23.5098Z" fill="#D2EDF3"/>
<path d="M436.16 23.5098H416.39V40.6898H436.16V23.5098Z" fill="#D2EDF3"/>
<path d="M459.1 23.5098H439.33V40.6898H459.1V23.5098Z" fill="#D2EDF3"/>
<path d="M413.23 43.8604H393.46V61.0404H413.23V43.8604Z" fill="#D2EDF3"/>
<path d="M436.16 43.8604H416.39V61.0404H436.16V43.8604Z" fill="#D2EDF3"/>
<path d="M459.1 43.8604H439.33V61.0404H459.1V43.8604Z" fill="#D2EDF3"/>
<path d="M413.23 64.21H393.46V81.39H413.23V64.21Z" fill="#D2EDF3"/>
<path d="M436.16 64.21H416.39V81.39H436.16V64.21Z" fill="#D2EDF3"/>
<path d="M459.1 64.21H439.33V81.39H459.1V64.21Z" fill="#D2EDF3"/>
<path d="M413.23 84.5498H393.46V101.73H413.23V84.5498Z" fill="#D2EDF3"/>
<path d="M436.16 84.5498H416.39V101.73H436.16V84.5498Z" fill="#D2EDF3"/>
<path d="M459.1 84.5498H439.33V101.73H459.1V84.5498Z" fill="#1C6C79"/>
<path d="M413.23 104.9H393.46V122.08H413.23V104.9Z" fill="#D2EDF3"/>
<path d="M436.16 104.9H416.39V122.08H436.16V104.9Z" fill="#D2EDF3"/>
<path d="M459.1 104.9H439.33V122.08H459.1V104.9Z" fill="#D2EDF3"/>
<path d="M413.23 125.25H393.46V142.43H413.23V125.25Z" fill="#D2EDF3"/>
<path d="M436.16 125.25H416.39V142.43H436.16V125.25Z" fill="#D2EDF3"/>
<path d="M459.1 125.25H439.33V142.43H459.1V125.25Z" fill="#D2EDF3"/>
<path d="M413.23 145.59H393.46V162.77H413.23V145.59Z" fill="#D2EDF3"/>
<path d="M436.16 145.59H416.39V162.77H436.16V145.59Z" fill="#D2EDF3"/>
<path d="M413.23 165.939H393.46V183.119H413.23V165.939Z" fill="#D2EDF3"/>
<path d="M459.1 165.939H439.33V183.119H459.1V165.939Z" fill="#1C6C79"/>
<path d="M413.23 186.29H393.46V203.47H413.23V186.29Z" fill="#D2EDF3"/>
<path d="M413.23 206.63H393.46V223.81H413.23V206.63Z" fill="#D2EDF3"/>
<path d="M436.16 206.63H416.39V223.81H436.16V206.63Z" fill="#D2EDF3"/>
<path d="M459.1 206.63H439.33V223.81H459.1V206.63Z" fill="#D2EDF3"/>
<path d="M413.23 226.979H393.46V244.16H413.23V226.979Z" fill="#D2EDF3"/>
<path d="M436.16 226.979H416.39V244.16H436.16V226.979Z" fill="#D2EDF3"/>
<path d="M459.1 226.979H439.33V244.16H459.1V226.979Z" fill="#D2EDF3"/>
<path d="M413.23 247.33H393.46V264.51H413.23V247.33Z" fill="#D2EDF3"/>
<path d="M436.16 247.33H416.39V264.51H436.16V247.33Z" fill="#D2EDF3"/>
<path d="M459.1 247H439.33V264.18H459.1V247Z" fill="#1C6C79"/>
<path d="M436.17 267.67H421.72L416.39 273.8V284.85H436.17V267.67Z" fill="#D2EDF3"/>
<path d="M459.1 267.67H439.33V284.85H459.1V267.67Z" fill="#D2EDF3"/>
<path d="M413.23 288.02H404.04L402.71 289.55L401.1 287.16C401.34 287.78 401.78 288.73 402.56 289.73L396.96 296.17L393.86 292.4C394.2 293.27 394.93 294.8 396.43 296.21C396.53 296.3 396.62 296.37 396.72 296.45L393.47 300.2V305.2H413.24V288.02H413.23Z" fill="#D2EDF3"/>
<path d="M435.77 267.67H416V284.85H435.77V267.67Z" fill="#D2EDF3"/>
<path d="M436.16 288.02H416.39V305.2H436.16V288.02Z" fill="#D2EDF3"/>
<path d="M459.1 288.02H439.33V305.2H459.1V288.02Z" fill="#D2EDF3"/>
<path d="M413.23 308.37H393.46V325.55H413.23V308.37Z" fill="#D2EDF3"/>
<path d="M436.16 308.37H416.39V325.55H436.16V308.37Z" fill="#D2EDF3"/>
<path d="M459.1 308.37H439.33V325.55H459.1V308.37Z" fill="#D2EDF3"/>
<path d="M413.23 328.71H393.46V345.89H413.23V328.71Z" fill="#D2EDF3"/>
<path d="M436.16 328.71H416.39V345.89H436.16V328.71Z" fill="#D2EDF3"/>
<path d="M459.1 328.71H439.33V345.89H459.1V328.71Z" fill="#D2EDF3"/>
<path d="M482.04 23.5098H462.27V40.6898H482.04V23.5098Z" fill="#D2EDF3"/>
<path d="M504.98 23.5098H485.21V40.6898H504.98V23.5098Z" fill="#D2EDF3"/>
<path d="M527.92 23.5098H508.15V40.6898H527.92V23.5098Z" fill="#D2EDF3"/>
<path d="M550.85 23.5098H531.08V40.6898H550.85V23.5098Z" fill="#D2EDF3"/>
<path d="M482.04 43.8604H462.27V61.0404H482.04V43.8604Z" fill="#D2EDF3"/>
<path d="M504.98 43.8604H485.21V61.0404H504.98V43.8604Z" fill="#D2EDF3"/>
<path d="M527.92 43.8604H508.15V61.0404H527.92V43.8604Z" fill="#D2EDF3"/>
<path d="M550.85 43.8604H531.08V61.0404H550.85V43.8604Z" fill="#D2EDF3"/>
<path d="M482.04 64.21H462.27V81.39H482.04V64.21Z" fill="#D2EDF3"/>
<path d="M504.98 64.21H485.21V81.39H504.98V64.21Z" fill="#D2EDF3"/>
<path d="M527.92 64.21H508.15V81.39H527.92V64.21Z" fill="#D2EDF3"/>
<path d="M435.77 267.67H416V284.85H435.77V267.67Z" fill="#D2EDF3"/>
<path d="M550.85 64.21H531.08V81.39H550.85V64.21Z" fill="#D2EDF3"/>
<path d="M482.04 84.5498H462.27V101.73H482.04V84.5498Z" fill="#1C6C79"/>
<path d="M504.98 84.5498H485.21V101.73H504.98V84.5498Z" fill="#1C6C79"/>
<path d="M550.85 84.5498H531.08V101.73H550.85V84.5498Z" fill="#D2EDF3"/>
<path d="M482.04 104.9H462.27V122.08H482.04V104.9Z" fill="#D2EDF3"/>
<path d="M550.85 104.9H531.08V122.08H550.85V104.9Z" fill="#D2EDF3"/>
<path d="M504.98 125.25H485.21V142.43H504.98V125.25Z" fill="#D2EDF3"/>
<path d="M550.85 125.25H531.08V142.43H550.85V125.25Z" fill="#D2EDF3"/>
<path d="M482.04 145.59H462.27V162.77H482.04V145.59Z" fill="#D2EDF3"/>
<path d="M504.98 145.59H485.21V162.77H504.98V145.59Z" fill="#D2EDF3"/>
<path d="M550.85 145.59H531.08V162.77H550.85V145.59Z" fill="#D2EDF3"/>
<path d="M482.04 165.939H462.27V183.119H482.04V165.939Z" fill="#1C6C79"/>
<path d="M504.98 165.939H485.21V183.119H504.98V165.939Z" fill="#1C6C79"/>
<path d="M550.85 165.939H531.08V183.119H550.85V165.939Z" fill="#D2EDF3"/>
<path d="M482.04 206.63H462.27V223.81H482.04V206.63Z" fill="#D2EDF3"/>
<path d="M504.98 206.63H485.21V223.81H504.98V206.63Z" fill="#D2EDF3"/>
<path d="M550.85 206.63H531.08V223.81H550.85V206.63Z" fill="#D2EDF3"/>
<path d="M482.04 226.979H462.27V244.16H482.04V226.979Z" fill="#D2EDF3"/>
<path d="M504.98 226.979H485.21V244.16H504.98V226.979Z" fill="#D2EDF3"/>
<path d="M550.85 226.979H531.08V244.16H550.85V226.979Z" fill="#D2EDF3"/>
<path d="M482.04 247H462.27V264.18H482.04V247Z" fill="#1C6C79"/>
<path d="M504.98 247H485.21V264.18H504.98V247Z" fill="#1C6C79"/>
<path d="M550.85 247.33H531.08V264.51H550.85V247.33Z" fill="#D2EDF3"/>
<path d="M482.04 267.67H462.27V284.85H482.04V267.67Z" fill="#D2EDF3"/>
<path d="M504.98 267.67H485.21V284.85H504.98V267.67Z" fill="#D2EDF3"/>
<path d="M527.92 267.67H508.15V284.85H527.92V267.67Z" fill="#D2EDF3"/>
<path d="M550.85 267.67H531.08V284.85H550.85V267.67Z" fill="#D2EDF3"/>
<path d="M482.04 288.02H462.27V305.2H482.04V288.02Z" fill="#D2EDF3"/>
<path d="M504.98 288.02H485.21V305.2H504.98V288.02Z" fill="#D2EDF3"/>
<path d="M527.92 288.02H508.15V305.2H527.92V288.02Z" fill="#D2EDF3"/>
<path d="M550.85 288.02H531.08V305.2H550.85V288.02Z" fill="#D2EDF3"/>
<path d="M482.04 308.37H462.27V325.55H482.04V308.37Z" fill="#D2EDF3"/>
<path d="M504.98 308.37H485.21V325.55H504.98V308.37Z" fill="#D2EDF3"/>
<path d="M527.92 308.37H508.15V325.55H527.92V308.37Z" fill="#D2EDF3"/>
<path d="M550.85 308.37H531.08V325.55H550.85V308.37Z" fill="#D2EDF3"/>
<path d="M482.04 328.71H462.27V345.89H482.04V328.71Z" fill="#D2EDF3"/>
<path d="M504.98 328.71H485.21V345.89H504.98V328.71Z" fill="#D2EDF3"/>
<path d="M527.92 328.71H508.15V345.89H527.92V328.71Z" fill="#D2EDF3"/>
<path d="M550.85 328.71H531.08V345.89H550.85V328.71Z" fill="#D2EDF3"/>
<path d="M573.79 23.5098H554.02V40.6898H573.79V23.5098Z" fill="#D2EDF3"/>
<path d="M573.79 43.8604H554.02V61.0404H573.79V43.8604Z" fill="#D2EDF3"/>
<path d="M573.79 64.21H554.02V81.39H573.79V64.21Z" fill="#D2EDF3"/>
<path d="M573.79 84.5498H554.02V101.73H573.79V84.5498Z" fill="#D2EDF3"/>
<path d="M573.79 104.9H554.02V122.08H573.79V104.9Z" fill="#D2EDF3"/>
<path d="M573.79 125.25H554.02V142.43H573.79V125.25Z" fill="#D2EDF3"/>
<path d="M573.79 145.59H554.02V162.77H573.79V145.59Z" fill="#D2EDF3"/>
<path d="M573.79 165.939H554.02V183.119H573.79V165.939Z" fill="#D2EDF3"/>
<path d="M573.79 186.29H554.02V203.47H573.79V186.29Z" fill="#D2EDF3"/>
<path d="M573.79 206.63H554.02V223.81H573.79V206.63Z" fill="#D2EDF3"/>
<path d="M573.79 226.979H554.02V244.16H573.79V226.979Z" fill="#D2EDF3"/>
<path d="M573.79 247.33H554.02V264.51H573.79V247.33Z" fill="#D2EDF3"/>
<path d="M573.79 267.67H554.02V284.85H573.79V267.67Z" fill="#D2EDF3"/>
<path d="M573.79 288.02H554.02V305.2H573.79V288.02Z" fill="#D2EDF3"/>
<path d="M573.79 308.37H554.02V325.55H573.79V308.37Z" fill="#D2EDF3"/>
<path d="M573.79 328.71H554.02V345.89H573.79V328.71Z" fill="#D2EDF3"/>
<path d="M596.73 43.8604H576.96V61.0404H596.73V43.8604Z" fill="#D2EDF3"/>
<path d="M596.73 64.21H576.96V81.39H596.73V64.21Z" fill="#D2EDF3"/>
<path d="M596.73 84.5498H576.96V101.73H596.73V84.5498Z" fill="#D2EDF3"/>
<path d="M596.73 104.9H576.96V122.08H596.73V104.9Z" fill="#D2EDF3"/>
<path d="M596.73 125.25H576.96V142.43H596.73V125.25Z" fill="#D2EDF3"/>
<path d="M596.73 145.59H576.96V162.77H596.73V145.59Z" fill="#D2EDF3"/>
<path d="M596.73 165.939H576.96V183.119H596.73V165.939Z" fill="#D2EDF3"/>
<path d="M596.73 186.29H576.96V203.47H596.73V186.29Z" fill="#D2EDF3"/>
<path d="M596.73 206.63H576.96V223.81H596.73V206.63Z" fill="#D2EDF3"/>
<path d="M596.73 226.979H576.96V244.16H596.73V226.979Z" fill="#D2EDF3"/>
<path d="M596.73 247.33H576.96V264.51H596.73V247.33Z" fill="#D2EDF3"/>
<path d="M596.73 267.67H576.96V284.85H596.73V267.67Z" fill="#D2EDF3"/>
<path d="M596.73 288.02H576.96V305.2H596.73V288.02Z" fill="#D2EDF3"/>
<path d="M596.73 308.37H576.96V325.55H596.73V308.37Z" fill="#D2EDF3"/>
<path d="M596.73 328.71H576.96V345.89H596.73V328.71Z" fill="#D2EDF3"/>
<path d="M599.9 101.73H619.67V85.5198V84.5498H599.9V101.73Z" fill="#D2EDF3"/>
<path d="M642.61 65.1699H622.83V81.3899V82.3499H642.61V65.1699Z" fill="#D2EDF3"/>
<path d="M619.67 104.9H599.9V122.08H619.67V104.9Z" fill="#D2EDF3"/>
<path d="M619.67 125.25H599.9V142.43H619.67V125.25Z" fill="#D2EDF3"/>
<path d="M619.67 145.59H599.9V162.77H619.67V145.59Z" fill="#D2EDF3"/>
<path d="M619.67 165.939H599.9V183.119H619.67V165.939Z" fill="#D2EDF3"/>
<path d="M619.67 186.29H599.9V203.47H619.67V186.29Z" fill="#D2EDF3"/>
<path d="M619.67 206.63H599.9V223.81H619.67V206.63Z" fill="#D2EDF3"/>
<path d="M619.67 226.979H599.9V244.16H619.67V226.979Z" fill="#D2EDF3"/>
<path d="M619.67 267.67H599.9V284.85H619.67V267.67Z" fill="#D2EDF3"/>
<path d="M619.67 288.02H599.9V305.2H619.67V288.02Z" fill="#D2EDF3"/>
<path d="M619.67 328.71H599.9V345.89H619.67V328.71Z" fill="#D2EDF3"/>
<path d="M642.6 104.9H622.83V122.08H642.6V104.9Z" fill="#D2EDF3"/>
<path d="M642.6 145.59H622.83V162.77H642.6V145.59Z" fill="#D2EDF3"/>
<path d="M642.6 165.939H622.83V183.119H642.6V165.939Z" fill="#D2EDF3"/>
<path d="M642.6 186.29H622.83V203.47H642.6V186.29Z" fill="#D2EDF3"/>
<path d="M642.6 206.63H622.83V223.81H642.6V206.63Z" fill="#D2EDF3"/>
<path d="M642.6 226.979H622.83V244.16H642.6V226.979Z" fill="#D2EDF3"/>
<path d="M642.6 267.67H622.83V284.85H642.6V267.67Z" fill="#D2EDF3"/>
<path d="M665.54 145.59H645.77V162.77H665.54V145.59Z" fill="#D2EDF3"/>
<path d="M665.54 165.939H645.77V183.119H665.54V165.939Z" fill="#D2EDF3"/>
<path d="M688.48 165.939H668.71V183.119H688.48V165.939Z" fill="#D2EDF3"/>
<path d="M665.54 206.63H645.77V223.81H665.54V206.63Z" fill="#D2EDF3"/>
<path d="M665.54 226.979H645.77V244.16H665.54V226.979Z" fill="#D2EDF3"/>
<path d="M665.54 267.67H645.77V284.85H665.54V267.67Z" fill="#D2EDF3"/>
<path d="M642.6 288.02H622.83V305.2H642.6V288.02Z" fill="#D2EDF3"/>
<path d="M688.48 288.02H668.71V305.2H688.48V288.02Z" fill="#D2EDF3"/>
<path d="M344.41 23.5098H324.64V40.6898H344.41V23.5098Z" fill="#D2EDF3"/>
<path d="M367.35 23.5098H347.58V40.6898H367.35V23.5098Z" fill="#D2EDF3"/>
<path d="M390.29 23.5098H370.52V40.6898H390.29V23.5098Z" fill="#D2EDF3"/>
<path d="M183.85 3.16992H164.08V20.3499H183.85V3.16992Z" fill="#D2EDF3"/>
<path d="M206.79 3.16992H187.02V20.3499H206.79V3.16992Z" fill="#D2EDF3"/>
<path d="M229.72 3.16992H209.95V20.3499H229.72V3.16992Z" fill="#D2EDF3"/>
<path d="M252.66 3.16992H232.89V20.3499H252.66V3.16992Z" fill="#D2EDF3"/>
<path d="M275.6 3.16992H255.83V20.3499H275.6V3.16992Z" fill="#D2EDF3"/>
<path d="M298.54 3.16992H278.77V20.3499H298.54V3.16992Z" fill="#D2EDF3"/>
<path d="M321.48 3.16992H301.71V20.3499H321.48V3.16992Z" fill="#D2EDF3"/>
<path d="M413.23 3.16992H393.46V20.3499H413.23V3.16992Z" fill="#D2EDF3"/>
<path d="M436.16 3.16992H416.39V20.3499H436.16V3.16992Z" fill="#D2EDF3"/>
<path d="M459.1 3.16992H439.33V20.3499H459.1V3.16992Z" fill="#D2EDF3"/>
<path d="M482.04 3.16992H462.27V20.3499H482.04V3.16992Z" fill="#D2EDF3"/>
<path d="M504.98 3.16992H485.21V20.3499H504.98V3.16992Z" fill="#D2EDF3"/>
<path d="M344.41 3.16992H324.64V20.3499H344.41V3.16992Z" fill="#D2EDF3"/>
<path d="M367.35 3.16992H347.58V20.3499H367.35V3.16992Z" fill="#D2EDF3"/>
<path d="M390.29 3.16992H370.52V20.3499H390.29V3.16992Z" fill="#D2EDF3"/>
<path d="M344.41 43.8604H324.64V61.0404H344.41V43.8604Z" fill="#D2EDF3"/>
<path d="M367.35 43.8604H347.58V61.0404H367.35V43.8604Z" fill="#D2EDF3"/>
<path d="M390.29 43.8604H370.52V61.0404H390.29V43.8604Z" fill="#D2EDF3"/>
<path d="M344.41 64.21H324.64V81.39H344.41V64.21Z" fill="#D2EDF3"/>
<path d="M367.35 64.21H347.58V81.39H367.35V64.21Z" fill="#D2EDF3"/>
<path d="M390.29 64.21H370.52V81.39H390.29V64.21Z" fill="#D2EDF3"/>
<path d="M390.29 84.5498H370.52V101.73H390.29V84.5498Z" fill="#D2EDF3"/>
<path d="M344.41 104.9H324.64V122.08H344.41V104.9Z" fill="#D2EDF3"/>
<path d="M367.35 104.9H347.58V122.08H367.35V104.9Z" fill="#D2EDF3"/>
<path d="M344.41 125.25H324.64V142.43H344.41V125.25Z" fill="#D2EDF3"/>
<path d="M367.35 125.25H347.58V142.43H367.35V125.25Z" fill="#D2EDF3"/>
<path d="M344.41 145.59H324.64V162.77H344.41V145.59Z" fill="#D2EDF3"/>
<path d="M367.35 145.59H347.58V162.77H367.35V145.59Z" fill="#D2EDF3"/>
<path d="M344.41 165.939H324.64V183.119H344.41V165.939Z" fill="#D2EDF3"/>
<path d="M367.35 165.939H347.58V183.119H367.35V165.939Z" fill="#D2EDF3"/>
<path d="M344.41 186.29H324.64V203.47H344.41V186.29Z" fill="#D2EDF3"/>
<path d="M367.35 186.29H347.58V203.47H367.35V186.29Z" fill="#D2EDF3"/>
<path d="M344.41 206.63H324.64V223.81H344.41V206.63Z" fill="#D2EDF3"/>
<path d="M367.35 206.63H347.58V223.81H367.35V206.63Z" fill="#D2EDF3"/>
<path d="M344.41 226.979H324.64V244.16H344.41V226.979Z" fill="#D2EDF3"/>
<path d="M367.35 226.979H347.58V244.16H367.35V226.979Z" fill="#D2EDF3"/>
<path d="M390.29 247.33H370.52V264.51H390.29V247.33Z" fill="#D2EDF3"/>
<path d="M344.41 267.67H324.64V284.85H344.41V267.67Z" fill="#D2EDF3"/>
<path d="M367.35 267.67H347.58V284.85H367.35V267.67Z" fill="#D2EDF3"/>
<path d="M390.29 267.67H370.52V284.85H390.29V267.67Z" fill="#D2EDF3"/>
<path d="M412.77 268H393V285.18H412.77V268Z" fill="#D2EDF3"/>
<path d="M344.41 288.02H324.64V305.2H344.41V288.02Z" fill="#D2EDF3"/>
<path d="M367.35 288.02H347.58V305.2H367.35V288.02Z" fill="#D2EDF3"/>
<path d="M390.29 303.84L389.11 305.2H390.29V303.84Z" fill="#D2EDF3"/>
<path d="M375.87 298.28C375.87 298.14 375.89 298.01 375.9 297.87C376.19 297.86 376.49 297.77 376.75 297.59L390.29 288.26V288.01H370.52V305.19H379.63C377.49 303.5 375.87 300.98 375.87 298.28Z" fill="#D2EDF3"/>
<path d="M344.41 308.37H324.64V325.55H344.41V308.37Z" fill="#D2EDF3"/>
<path d="M367.35 308.37H347.58V325.55H367.35V308.37Z" fill="#D2EDF3"/>
<path d="M390.29 308.37H370.52V325.55H390.29V308.37Z" fill="#D2EDF3"/>
<path d="M390.29 288H370.52V305.18H390.29V288Z" fill="#D2EDF3"/>
<path d="M344.41 328.71H324.64V345.89H344.41V328.71Z" fill="#D2EDF3"/>
<path d="M367.35 328.71H347.58V345.89H367.35V328.71Z" fill="#D2EDF3"/>
<path d="M390.29 328.71H370.52V345.89H390.29V328.71Z" fill="#D2EDF3"/>
<path d="M160.91 145.59H141.14V162.77H160.91V145.59Z" fill="#1C6C79"/>
<path d="M137.97 165.939H118.2V183.119H137.97V165.939Z" fill="#1C6C79"/>
<path d="M137.97 186.29H118.2V203.47H137.97V186.29Z" fill="#1C6C79"/>
<path d="M160.91 186.29H141.14V203.47H160.91V186.29Z" fill="#1C6C79"/>
<path d="M229.72 84.5498H209.95V101.73H229.72V84.5498Z" fill="#1C6C79"/>
<path d="M206.79 104.9H187.02V122.08H206.79V104.9Z" fill="#1C6C79"/>
<path d="M229.72 104.9H209.95V122.08H229.72V104.9Z" fill="#1C6C79"/>
<path d="M183.85 125.25H164.08V142.43H183.85V125.25Z" fill="#1C6C79"/>
<path d="M229.72 125.25H209.95V142.43H229.72V125.25Z" fill="#1C6C79"/>
<path d="M229.72 145.59H209.95V162.77H229.72V145.59Z" fill="#1C6C79"/>
<path d="M229.72 165.939H209.95V183.119H229.72V165.939Z" fill="#1C6C79"/>
<path d="M183.85 186.29H164.08V203.47H183.85V186.29Z" fill="#1C6C79"/>
<path d="M206.79 186.29H187.02V203.47H206.79V186.29Z" fill="#1C6C79"/>
<path d="M229.72 186.29H209.95V203.47H229.72V186.29Z" fill="#1C6C79"/>
<path d="M252.66 186.29H232.89V203.47H252.66V186.29Z" fill="#1C6C79"/>
<path d="M229.72 206.63H209.95V223.81H229.72V206.63Z" fill="#1C6C79"/>
<path d="M229.72 226.979H209.95V244.16H229.72V226.979Z" fill="#1C6C79"/>
<path d="M229.72 247.33H209.95V264.51H229.72V247.33Z" fill="#1C6C79"/>
<path d="M459.1 145.59H439.33V162.77H459.1V145.59Z" fill="#D2EDF3"/>
<path d="M436.16 165.939H416.39V183.119H436.16V165.939Z" fill="#D2EDF3"/>
<path d="M436.16 186.29H416.39V203.47H436.16V186.29Z" fill="#D2EDF3"/>
<path d="M459.1 186.29H439.33V203.47H459.1V186.29Z" fill="#D2EDF3"/>
<path d="M527.92 84.5498H508.15V101.73H527.92V84.5498Z" fill="#D2EDF3"/>
<path d="M504.98 104.9H485.21V122.08H504.98V104.9Z" fill="#D2EDF3"/>
<path d="M527.92 104.9H508.15V122.08H527.92V104.9Z" fill="#1C6C79"/>
<path d="M482.04 125.25H462.27V142.43H482.04V125.25Z" fill="#D2EDF3"/>
<path d="M527.92 125.25H508.15V142.43H527.92V125.25Z" fill="#1C6C79"/>
<path d="M527.92 145.59H508.15V162.77H527.92V145.59Z" fill="#1C6C79"/>
<path d="M527.92 165.939H508.15V183.119H527.92V165.939Z" fill="#D2EDF3"/>
<path d="M482.04 186.29H462.27V203.47H482.04V186.29Z" fill="#D2EDF3"/>
<path d="M504.98 186.29H485.21V203.47H504.98V186.29Z" fill="#D2EDF3"/>
<path d="M527.92 186.29H508.15V203.47H527.92V186.29Z" fill="#1C6C79"/>
<path d="M550.85 186.29H531.08V203.47H550.85V186.29Z" fill="#D2EDF3"/>
<path d="M527.92 206.63H508.15V223.81H527.92V206.63Z" fill="#1C6C79"/>
<path d="M527.92 226.979H508.15V244.16H527.92V226.979Z" fill="#1C6C79"/>
<path d="M527.92 247.33H508.15V264.51H527.92V247.33Z" fill="#D2EDF3"/>
<path d="M321.48 84.5498H301.71V101.73H321.48V84.5498Z" fill="#42B8C9"/>
<path d="M298.54 104.9H278.77V122.08H298.54V104.9Z" fill="#42B8C9"/>
<path d="M298.54 125.25H278.77V142.43H298.54V125.25Z" fill="#42B8C9"/>
<path d="M298.54 145.59H278.77V162.77H298.54V145.59Z" fill="#42B8C9"/>
<path d="M298.54 165.939H278.77V183.119H298.54V165.939Z" fill="#42B8C9"/>
<path d="M298.54 186.29H278.77V203.47H298.54V186.29Z" fill="#42B8C9"/>
<path d="M298.54 206.63H278.77V223.81H298.54V206.63Z" fill="#42B8C9"/>
<path d="M298.54 226.979H278.77V244.16H298.54V226.979Z" fill="#42B8C9"/>
<path d="M321.48 247.33H301.71V264.51H321.48V247.33Z" fill="#42B8C9"/>
<path d="M344.41 84.5498H324.64V101.73H344.41V84.5498Z" fill="#42B8C9"/>
<path d="M367.35 84.5498H347.58V101.73H367.35V84.5498Z" fill="#42B8C9"/>
<path d="M390.29 104.9H370.52V122.08H390.29V104.9Z" fill="#42B8C9"/>
<path d="M390.29 125.25H370.52V142.43H390.29V125.25Z" fill="#42B8C9"/>
<path d="M390.29 145.59H370.52V162.77H390.29V145.59Z" fill="#42B8C9"/>
<path d="M390.29 165.939H370.52V183.119H390.29V165.939Z" fill="#42B8C9"/>
<path d="M390.29 186.29H370.52V203.47H390.29V186.29Z" fill="#42B8C9"/>
<path d="M390.29 206.63H370.52V223.81H390.29V206.63Z" fill="#42B8C9"/>
<path d="M390.29 226.979H370.52V244.16H390.29V226.979Z" fill="#42B8C9"/>
<path d="M344.41 247.33H324.64V264.51H344.41V247.33Z" fill="#42B8C9"/>
<path d="M367.35 247.33H347.58V264.51H367.35V247.33Z" fill="#42B8C9"/>
<path d="M389.18 301.45C389.82 302.05 390.47 302.51 391.06 302.85L386.6 297.64C386.95 298.51 387.68 300.04 389.18 301.45Z" fill="#D2EDF3"/>
</svg>
