<svg id="narwhal/query" viewBox="0 0 161 160" fill="none" xmlns="http://www.w3.org/2000/svg">
<path fill-rule="evenodd" clip-rule="evenodd" d="M88.129 15.2296C115.991 16.0486 138.018 38.7233 144.182 65.7849C149.045 87.1368 128.241 101.648 110.874 115.08C90.4041 130.912 68.1866 154.945 45.8678 141.822C19.266 126.181 11.1263 91.347 20.87 62.1602C30.4161 33.5652 57.8734 14.3402 88.129 15.2296Z" fill="#F9FCFF"/>
<path opacity="0.4" d="M109.345 147.503C125.354 147.503 138.332 142.18 138.332 135.614C138.332 129.048 125.354 123.725 109.345 123.725C93.3364 123.725 80.3586 129.048 80.3586 135.614C80.3586 142.18 93.3364 147.503 109.345 147.503Z" fill="#CBECF7"/>
<path d="M60.1195 95.522L70.7435 90.0151C71.3447 89.6568 71.8479 89.1552 72.208 88.555C72.5681 87.9548 72.7739 87.2748 72.8072 86.5757V42.6658C72.7608 41.9338 72.5515 41.2214 72.1944 40.5807C71.8374 39.9399 71.3417 39.3871 70.7435 38.9626L69.0582 37.8888C68.4373 37.5265 67.7399 37.3152 67.0222 37.2721C66.3046 37.2289 65.5869 37.3551 64.9271 37.6404L18.5675 60.6921C17.9658 61.0503 17.462 61.5518 17.1013 62.1519C16.7405 62.7521 16.534 63.4322 16.5 64.1316V108.042C16.5454 108.774 16.7548 109.487 17.1126 110.128C17.4705 110.769 17.9676 111.322 18.5675 111.745L20.249 112.822C20.8699 113.185 21.5673 113.396 22.2849 113.439C23.0025 113.482 23.7202 113.356 24.3801 113.071L53.2407 99.0761" fill="#CFECF1"/>
<path opacity="0.2" d="M16.5 108.042C16.5457 108.775 16.7551 109.488 17.1129 110.13C17.4707 110.771 17.9677 111.324 18.5675 111.748L20.249 112.822C20.8172 113.147 21.4472 113.349 22.0982 113.414C22.7492 113.48 23.4068 113.409 24.0285 113.204C23.054 113.514 22.3126 112.922 22.3126 111.741V67.8576C22.3348 67.1494 22.5445 66.4597 22.9203 65.8589L17.1038 62.1482C16.7307 62.7499 16.5225 63.4392 16.5 64.1469V108.042Z" fill="#21AAAD"/>
<path opacity="0.5" d="M72.7384 42.0772C72.4976 41.183 71.6989 40.8582 70.7435 41.3473L24.3801 64.3914C23.7694 64.731 23.2652 65.2338 22.9241 65.8436L17.1115 62.152C17.4544 61.5426 17.9581 61.0389 18.5675 60.696L64.9232 37.6404C65.5847 37.3583 66.3028 37.2342 67.0205 37.278C67.7383 37.3218 68.4359 37.5322 69.0582 37.8926L70.7435 38.9703C71.7855 39.7087 72.5006 40.8224 72.7384 42.0772Z" fill="white"/>
<path d="M45.7848 81.3859L33.1277 96.7333L33.1965 87.8787L41.2524 79.0127L41.1148 79.4866V78.5006L41.2447 78.8827L33.2767 76.2268L33.3417 67.376L45.8497 72.9555L45.7848 81.3859Z" fill="#5F6DB2"/>
<path d="M64.8277 79.0012L64.8965 85.8801L50.3401 93.9054L50.2675 87.0265L64.8277 79.0012Z" fill="#5F6DB2"/>
<path d="M71.2059 57.5928C71.1902 57.3599 71.1902 57.1263 71.2059 56.8934C71.2059 56.8934 71.5537 57.1571 72.1499 57.5851C72.1117 57.3367 72.0849 57.1189 72.0658 56.9202C72.0658 56.7176 72.039 56.538 72.0352 56.4004C72.0283 56.2629 72.0283 56.1252 72.0352 55.9877C72.0375 55.9789 72.0375 55.9697 72.0352 55.9609C74.8702 58.2217 77.8795 60.2547 81.035 62.0411C83.3738 63.2945 89.3546 66.2219 91.1852 66.2448V66.3327H91.3495L91.4641 68.3772L92.6985 77.358C92.4455 77.2695 92.1979 77.1662 91.9571 77.0484L88.3992 76.093C87.2495 75.6 86.1292 75.0412 85.0439 74.4192L84.5776 74.186C83.6274 73.6851 82.7097 73.1248 81.8299 72.5084C80.0881 71.2985 78.4529 69.942 76.9421 68.4537C76.56 68.0715 76.1778 67.6473 75.7957 67.1887C74.7866 66.0422 73.8907 64.8008 73.1206 63.4818C72.9371 63.1608 72.7613 62.8207 72.5894 62.4653C72.222 61.7068 71.9103 60.9226 71.6569 60.1188C71.5528 59.7963 71.466 59.4685 71.397 59.1367C71.2984 58.627 71.2345 58.1111 71.2059 57.5928Z" fill="white"/>
<path fill-rule="evenodd" clip-rule="evenodd" d="M84.6006 74.1593C83.653 73.6536 82.7356 73.0935 81.8528 72.4816C79.4873 70.7275 77.7408 69.4244 75.8147 67.1582C73.9597 65.1148 72.5514 62.7068 71.6798 60.0883C71.3323 59.0602 71.1718 57.9781 71.2059 56.8934C71.2059 56.8934 71.5575 57.1686 72.1575 57.6119C72.0596 57.0584 72.0224 56.4958 72.0467 55.9342C72.0467 55.9342 85.9725 66.2525 91.3762 66.2983L88.4298 76.0663L84.6006 74.1593Z" fill="white"/>
<path d="M92.2628 77.4764C90.5126 76.7962 82.514 72.9746 81.8605 72.4854C79.4911 70.7313 77.7485 69.4282 75.8186 67.162C73.9636 65.1186 72.5553 62.7106 71.6836 60.0921C71.3361 59.064 71.1756 57.9819 71.2098 56.8972C71.2098 56.8972 85.9993 67.2613 91.403 67.2957C91.2739 69.0411 91.2739 70.7936 91.403 72.5389C91.5968 74.1996 91.8839 75.848 92.2628 77.4764Z" fill="#31D3DB"/>
<path d="M92.794 77.6751C92.8523 77.6601 92.9063 77.6315 92.9514 77.5917C92.9966 77.5518 93.0317 77.5018 93.0539 77.4459C93.0833 77.3576 93.0769 77.2614 93.0362 77.1778C92.9955 77.0942 92.9236 77.03 92.8361 76.9987C90.9826 76.3643 83.5305 71.7135 82.9 71.2473C80.5344 69.4931 78.8223 68.2244 76.9192 65.9773C75.0944 63.9744 73.7093 61.6117 72.853 59.0411C72.6089 58.2759 72.4563 57.4844 72.3983 56.6832C74.6568 58.4564 86.4158 66.5429 91.189 66.5696C91.2349 66.5701 91.2806 66.5615 91.3232 66.5443C91.3658 66.527 91.4046 66.5015 91.4373 66.4691C91.47 66.4368 91.496 66.3983 91.5137 66.3558C91.5314 66.3134 91.5405 66.2679 91.5405 66.2219C91.5405 66.1293 91.504 66.0404 91.4389 65.9746C91.3738 65.9088 91.2854 65.8713 91.1928 65.8703C85.9725 65.8359 72.36 55.7584 72.2607 55.6781C72.211 55.638 72.1513 55.6122 72.088 55.6034C72.0247 55.5947 71.9602 55.6033 71.9014 55.6285C71.8416 55.6522 71.7897 55.6925 71.7518 55.7446C71.7139 55.7967 71.6916 55.8584 71.6874 55.9227C71.6484 57.053 71.8154 58.1809 72.1804 59.2513C73.0616 61.9159 74.4939 64.3652 76.3842 66.4397C78.3408 68.7327 80.0758 70.0396 82.4987 71.8243C83.1789 72.3249 90.6616 76.9987 92.6182 77.679C92.6766 77.6873 92.736 77.686 92.794 77.6751Z" fill="#383C42"/>
<path d="M66.6315 13.8281C66.8362 13.6591 67.0889 13.5588 67.3538 13.5414C67.4226 13.3674 67.5343 13.2135 67.6786 13.0943C68.5882 12.3567 70.0518 13.0255 71.8824 14.8905L94.124 37.6403C94.163 37.6064 94.2039 37.5745 94.2462 37.5448C94.4427 37.404 94.6482 37.2763 94.8615 37.1626C95.2107 36.876 95.584 36.6203 95.9774 36.3983C107.083 30.6086 118.387 35.076 124.716 43.5676C127.773 47.6758 130.181 55.1584 130.578 61.3609C130.605 61.7889 130.674 62.9965 130.62 64.636C130.501 67.8693 129.995 71.0767 129.114 74.1899L128.812 74.9275C129.401 75.2141 129.833 75.4396 130.203 75.6497C131.572 76.33 132.359 76.7504 132.798 76.972C134.568 77.8471 136.123 78.6917 137.434 79.4713C138.943 80.2692 140.371 81.2138 141.695 82.2916C142.682 83.1516 143.448 84.2369 143.927 85.4557C144.406 86.6744 144.584 87.9906 144.447 89.2928C144.332 90.1402 144.036 90.9528 143.577 91.6745C143.119 92.3963 142.509 93.0101 141.791 93.4736C139.88 94.7118 136.738 95.3423 133.498 95.8353C131.178 96.1869 128.53 96.3933 127.066 96.5996C125.423 96.848 122.427 98.048 122.278 98.1283C122.128 98.2085 121.215 98.6824 121.078 98.5104C121.034 98.3338 121.041 98.1485 121.097 97.9754C120.791 98.113 120.436 98.2429 120.332 98.1512C120.286 97.7986 120.352 97.4405 120.52 97.127C121.16 95.944 121.943 94.8441 122.851 93.8519C124.039 92.5679 125.499 91.1768 128.897 89.8278C131.361 88.838 133.601 88.1922 133.62 87.6801C133.62 87.6571 133.62 87.638 133.62 87.6189C132.451 87.8215 129.711 88.8801 125.66 87.4164C125.044 87.2069 124.443 86.958 123.86 86.6712C122.514 89.1323 121.104 91.429 119.751 93.55L119.862 93.5309C120.027 93.5042 120.092 93.8061 119.981 94.2646C120.153 94.2646 120.286 96.6952 117.046 98.0136L116.767 98.1168C116.736 98.155 116.713 98.1971 116.687 98.2353V103.838C115.254 104.356 113.783 104.763 112.288 105.057C110.557 107.854 108.81 110.873 108.023 112.803C107.808 113.324 107.631 113.861 107.496 114.408C107.209 115.555 106.961 116.518 107.175 117.702C107.228 118.023 107.492 119.885 109.028 120.886C109.672 121.218 110.335 121.509 111.015 121.757C114.428 123.255 118.181 126.786 122.564 131.861C123.065 132.451 123.62 132.992 124.223 133.478C125.889 134.812 127.41 135.007 127.368 135.316C127.341 135.511 126.707 135.649 125.813 135.698C126.141 135.84 126.336 135.939 126.317 136.05C126.271 136.378 124.528 136.535 122.694 136.398C114.103 135.733 105.994 128.468 105.31 127.845C105.138 127.975 104.958 128.105 104.756 128.227L104.469 128.403C104.227 128.603 103.971 128.787 103.705 128.953C100.968 130.669 98.8856 131.533 94.7354 133.436C94.5521 133.516 94.3735 133.607 94.2004 133.707C93.8423 134.036 93.5053 134.387 93.1915 134.758C92.7558 135.247 92.5418 135.603 92.4004 135.545C92.3507 135.545 92.3125 135.442 92.2934 135.316C92.2399 135.37 92.1941 135.427 92.1444 135.484C91.7087 135.977 91.4909 136.329 91.3495 136.271C91.0132 136.145 91.3724 133.722 92.2132 131.617C93.2832 128.942 94.5673 128.177 98.4423 122.69C99.1493 121.684 99.971 120.481 99.8334 118.975C99.7073 117.588 98.8092 116.644 98.4844 116.254C96.4842 113.818 94.641 111.258 92.966 108.588C91.2774 106.732 89.9998 104.54 89.217 102.156C88.4527 99.7028 87.6196 96.9894 86.9241 94.0277C86.4943 93.5808 86.1566 93.0536 85.9305 92.4762C85.6229 91.8073 85.4057 91.1005 85.2846 90.3743C85.0989 89.6039 85.0575 88.8057 85.1624 88.0202L85.1967 88.0813L85.2197 87.917C85.412 88.2917 85.6411 88.6463 85.9037 88.9756C85.5942 87.1107 85.3458 85.154 85.1929 83.1324C84.2222 73.6128 85.1165 68.3352 85.3229 66.799C85.4681 65.7213 85.2541 62.8207 85.0936 61.7468C84.9483 61.0437 84.8413 60.3978 84.7649 59.794C84.4171 57.6692 84.1573 55.124 85.3649 53.8935C85.7127 53.3011 86.0719 53.1521 86.1942 53.3508C86.2553 53.0566 86.1942 53.3508 86.263 53.0566V53.0183C86.0453 52.6026 85.9054 52.1506 85.8502 51.6846C85.5942 49.9802 85.9993 47.7637 86.5228 46.835L67.7092 18.8381C66.5322 17.084 65.5653 14.7108 66.6315 13.8281Z" fill="white"/>
<path fill-rule="evenodd" clip-rule="evenodd" d="M67.6786 13.0943C68.5881 12.3567 70.0518 13.0255 71.8823 14.8905L94.1239 37.6403C94.1809 37.5834 94.2484 37.538 94.3226 37.5066L94.8538 37.155C95.2133 36.8677 95.5968 36.6119 96.0003 36.3907C107.102 30.5971 118.406 35.0646 124.735 43.5561C127.792 47.6643 130.2 55.147 130.597 61.3494C130.624 61.7774 130.693 62.985 130.639 64.6245C130.52 67.8578 130.015 71.0652 129.133 74.1784L128.831 74.916C130.781 75.8561 130.968 76.1771 133.123 77.209C136.998 79.0701 140.269 80.977 141.714 82.2725C142.702 83.1323 143.468 84.2176 143.947 85.4364C144.426 86.6552 144.604 87.9715 144.466 89.2737C144.347 90.1187 144.048 90.9281 143.587 91.6465C143.127 92.3648 142.517 92.9751 141.798 93.4354C139.887 94.6736 136.746 95.3041 133.505 95.7971C131.186 96.1487 128.537 96.3551 127.074 96.5614C125.43 96.8098 122.434 98.0098 122.285 98.0901C122.136 98.1703 121.223 98.6404 121.085 98.4722C121.039 98.1197 121.105 97.7616 121.272 97.448C121.914 96.2661 122.697 95.1663 123.604 94.1729C124.792 92.8889 126.252 91.4978 129.645 90.1488C132.11 89.159 134.35 88.5132 134.369 88.0011C134.38 87.9143 134.363 87.8263 134.32 87.75C134.278 87.6736 134.212 87.613 134.132 87.5769C133.463 87.2788 130.498 89.1055 125.675 87.3782C125.059 87.1694 124.458 86.9205 123.875 86.633C122.014 90.0418 120.011 93.1297 118.227 95.885C117.749 96.6149 117.21 97.4136 116.648 98.2697C115.827 99.5041 109.712 108.645 108.023 112.792C107.811 113.312 107.636 113.847 107.499 114.393C107.213 115.52 106.964 116.502 107.175 117.687C107.232 118.012 107.496 119.873 109.032 120.87C109.675 121.204 110.338 121.495 111.019 121.742C114.432 123.244 118.185 126.771 122.568 131.846C123.069 132.436 123.624 132.977 124.226 133.463C125.889 134.804 127.414 134.991 127.372 135.301C127.33 135.61 125.579 135.79 123.749 135.649C114.772 134.984 106.307 127.065 106.307 127.065C105.956 127.279 105.451 127.803 104.756 128.235C102.019 129.951 99.9404 130.81 95.7863 132.714C94.7691 133.174 93.8806 133.877 93.1991 134.762C92.7634 135.255 92.5494 135.607 92.408 135.549C92.0717 135.423 92.4309 133 93.2717 130.894C94.3379 128.219 95.622 127.455 99.497 121.967C100.208 120.966 101.026 119.758 100.892 118.257C100.762 116.869 99.8639 115.922 99.5391 115.532C97.167 112.656 95.0266 109.597 93.1379 106.383C89.3699 99.7601 87.3559 91.066 86.6413 85.7846C85.0591 74.1211 86.1406 67.7849 86.3737 66.069C86.519 64.9914 86.305 62.0908 86.1444 61.0169C85.7623 58.5253 84.5012 53.668 87.2451 52.6094C87.3138 52.3114 87.2451 52.6094 87.3177 52.3075C86.3967 50.7178 86.8705 47.2898 87.5584 46.0784L68.7563 18.0585C67.5754 16.3541 66.6124 13.9465 67.6786 13.0943Z" fill="#97E8EC"/>
<path fill-rule="evenodd" clip-rule="evenodd" d="M96.6309 111.756C96.6309 111.756 90.8106 102.29 97.8806 91.238C99.0691 89.3807 102.745 83.8891 104.052 81.5236C107.278 75.6842 111.948 59.7406 105.283 60.6157C98.4614 61.4909 90.8297 61.124 86.1942 53.3547C85.8617 52.7968 83.6758 54.9101 85.0897 61.7622C85.8158 65.2704 85.4108 70.6741 85.2235 72.8448C84.1764 84.9057 86.84 94.7386 89.2209 102.175C91.2807 108.588 96.6309 111.756 96.6309 111.756Z" fill="white"/>
<path d="M101.442 61.4831C102.777 61.5008 104.107 61.3219 105.39 60.9519C105.437 60.941 105.482 60.9205 105.521 60.8916C105.56 60.8627 105.592 60.826 105.616 60.784C105.64 60.7419 105.655 60.6953 105.661 60.6471C105.666 60.5989 105.661 60.5501 105.646 60.5039C105.632 60.4576 105.608 60.4149 105.576 60.3783C105.544 60.3418 105.505 60.3122 105.461 60.2915C105.418 60.2707 105.37 60.2593 105.321 60.2579C105.273 60.2564 105.225 60.265 105.18 60.2831C101.993 61.2691 96.0997 60.8678 91.4564 58.1736C88.5826 56.5036 86.7597 54.2412 86.1788 51.6158C86.1523 51.5323 86.0956 51.4618 86.0198 51.4179C85.9439 51.3741 85.8545 51.3601 85.7689 51.3788C85.6834 51.3974 85.6078 51.4473 85.5571 51.5187C85.5064 51.5901 85.4842 51.6779 85.4948 51.7648C86.1177 54.589 88.0591 57.0119 91.1049 58.7774C94.27 60.53 97.8243 61.4603 101.442 61.4831Z" fill="#383C42"/>
<path fill-rule="evenodd" clip-rule="evenodd" d="M110.786 52.2196C110.618 52.0772 110.423 51.9701 110.212 51.9047C110.002 51.8394 109.78 51.8171 109.561 51.8392C109.342 51.8614 109.129 51.9275 108.936 52.0337C108.743 52.1398 108.574 52.2838 108.437 52.457C108.301 52.6302 108.201 52.8291 108.144 53.0418C108.086 53.2545 108.072 53.4766 108.102 53.6949C108.132 53.9131 108.206 54.1231 108.319 54.3122C108.432 54.5013 108.582 54.6656 108.761 54.7954C109.104 55.0453 109.53 55.1525 109.951 55.0944C110.371 55.0363 110.752 54.8174 111.015 54.4838C111.277 54.1502 111.4 53.7278 111.357 53.3056C111.315 52.8833 111.11 52.494 110.786 52.2196Z" fill="#383C42"/>
<path fill-rule="evenodd" clip-rule="evenodd" d="M91.8539 40.5142L69.0429 15.3644C68.4767 14.6702 67.7332 14.142 66.8914 13.8357C67.4493 13.5338 68.4811 14.1759 69.2837 14.8867L93.3138 39.6199C93.5507 41.1944 91.5367 43.6402 89.7826 43.8466C90.6921 42.9256 91.8272 41.7256 91.9838 40.5944" fill="white"/>
<g opacity="0.6">
<path opacity="0.6" fill-rule="evenodd" clip-rule="evenodd" d="M119.717 42.2262C119.587 42.1535 119.441 42.1126 119.292 42.1069C119.142 42.1012 118.994 42.1308 118.858 42.1934C118.723 42.256 118.604 42.3498 118.511 42.4671C118.419 42.5843 118.355 42.7218 118.326 42.8683C118.242 43.1933 118.27 43.537 118.404 43.8445C118.538 44.1521 118.772 44.4057 119.067 44.5651C119.198 44.6322 119.343 44.6686 119.49 44.6712C119.637 44.6739 119.782 44.6429 119.916 44.5806C120.049 44.5182 120.166 44.4262 120.258 44.3115C120.35 44.1969 120.415 44.0627 120.447 43.9192C120.526 43.596 120.498 43.2558 120.366 42.9503C120.234 42.6448 120.006 42.3905 119.717 42.2262Z" fill="#21AAAD"/>
<path opacity="0.6" fill-rule="evenodd" clip-rule="evenodd" d="M116.473 39.6429C116.354 39.6013 116.228 39.5877 116.104 39.6031C115.979 39.6185 115.86 39.6626 115.756 39.7319C115.651 39.8012 115.564 39.8937 115.502 40.0023C115.439 40.1108 115.403 40.2324 115.395 40.3575C115.373 40.6379 115.444 40.9176 115.598 41.1532C115.751 41.3889 115.978 41.5673 116.243 41.6607C116.361 41.7031 116.487 41.7174 116.612 41.7025C116.736 41.6876 116.855 41.644 116.96 41.575C117.065 41.506 117.152 41.4136 117.214 41.3051C117.277 41.1966 117.313 41.075 117.321 40.9499C117.343 40.669 117.272 40.3887 117.118 40.1525C116.965 39.9162 116.738 39.7371 116.473 39.6429Z" fill="#21AAAD"/>
</g>
<g opacity="0.6">
<path opacity="0.6" fill-rule="evenodd" clip-rule="evenodd" d="M127.708 64.0092C127.563 63.8393 127.379 63.706 127.173 63.6198C126.967 63.5336 126.743 63.4971 126.52 63.5131C126.297 63.529 126.081 63.5971 125.889 63.7118C125.697 63.8265 125.535 63.9847 125.415 64.1735C125.12 64.5809 124.973 65.0768 124.998 65.5792C125.023 66.0816 125.218 66.5605 125.553 66.9365C125.697 67.1025 125.878 67.2326 126.081 67.3165C126.284 67.4004 126.504 67.4358 126.723 67.4199C126.942 67.4039 127.155 67.3371 127.344 67.2246C127.533 67.1122 127.693 66.9573 127.811 66.7722C128.105 66.3663 128.255 65.8737 128.236 65.3729C128.217 64.8721 128.031 64.392 127.708 64.0092Z" fill="#21AAAD"/>
<path opacity="0.6" fill-rule="evenodd" clip-rule="evenodd" d="M126.944 55.3648C126.815 55.216 126.654 55.0992 126.472 55.0239C126.291 54.9485 126.094 54.9166 125.898 54.9307C125.702 54.9449 125.512 55.0046 125.343 55.1051C125.175 55.2057 125.032 55.3443 124.926 55.51C124.672 55.8753 124.546 56.3144 124.567 56.7588C124.589 57.2032 124.756 57.628 125.044 57.9673C125.172 58.1162 125.333 58.2332 125.514 58.3089C125.695 58.3846 125.891 58.4168 126.087 58.4031C126.283 58.3893 126.472 58.33 126.641 58.2298C126.81 58.1295 126.953 57.9912 127.058 57.8259C127.31 57.4592 127.435 57.0203 127.414 56.5761C127.394 56.1318 127.228 55.7065 126.944 55.3648Z" fill="#21AAAD"/>
<path opacity="0.6" fill-rule="evenodd" clip-rule="evenodd" d="M124.479 58.5252C124.382 58.4157 124.261 58.3302 124.125 58.2753C123.99 58.2204 123.843 58.1976 123.697 58.2087C123.552 58.2198 123.41 58.2645 123.285 58.3393C123.159 58.4141 123.052 58.5169 122.973 58.6398C122.784 58.9069 122.691 59.2303 122.709 59.5571C122.727 59.884 122.855 60.1951 123.072 60.4398C123.167 60.5512 123.286 60.6388 123.42 60.6957C123.554 60.7525 123.7 60.7769 123.846 60.7668C123.991 60.7568 124.132 60.7126 124.258 60.6378C124.383 60.5631 124.489 60.4599 124.567 60.3366C124.747 60.0648 124.836 59.7424 124.82 59.4164C124.805 59.0905 124.685 58.7782 124.479 58.5252Z" fill="#21AAAD"/>
<path opacity="0.6" fill-rule="evenodd" clip-rule="evenodd" d="M127.146 70.032C127.048 69.9169 126.924 69.8263 126.785 69.7676C126.646 69.7089 126.494 69.6838 126.343 69.6942C126.193 69.7046 126.046 69.7503 125.916 69.8275C125.786 69.9048 125.676 70.0115 125.595 70.1391C125.389 70.4196 125.286 70.7618 125.301 71.1092C125.316 71.4566 125.449 71.7884 125.679 72.0498C125.778 72.1645 125.902 72.2548 126.042 72.3138C126.182 72.3727 126.333 72.3988 126.485 72.3899C126.636 72.3811 126.784 72.3375 126.915 72.2626C127.047 72.1878 127.16 72.0836 127.246 71.9581C127.449 71.6732 127.551 71.3276 127.533 70.9777C127.515 70.6279 127.378 70.2945 127.146 70.032Z" fill="#21AAAD"/>
</g>
<g opacity="0.6">
<path opacity="0.6" fill-rule="evenodd" clip-rule="evenodd" d="M120.726 88.3756C120.702 88.2159 120.642 88.0638 120.549 87.9316C120.456 87.7995 120.334 87.6908 120.192 87.6143C120.05 87.5378 119.892 87.4956 119.73 87.4911C119.569 87.4866 119.408 87.5199 119.262 87.5884C118.925 87.7229 118.644 87.9687 118.465 88.2849C118.286 88.6011 118.221 88.9688 118.28 89.3272C118.305 89.4834 118.366 89.6318 118.457 89.7605C118.549 89.8892 118.67 89.9948 118.81 90.0689C118.949 90.1431 119.104 90.1837 119.263 90.1876C119.421 90.1915 119.578 90.1586 119.721 90.0915C120.054 89.9562 120.333 89.7147 120.515 89.4044C120.697 89.0941 120.771 88.7324 120.726 88.3756Z" fill="#21AAAD"/>
<path opacity="0.6" fill-rule="evenodd" clip-rule="evenodd" d="M118.039 91.8342C118.024 91.7258 117.983 91.6226 117.921 91.5327C117.858 91.4429 117.776 91.369 117.679 91.3169C117.583 91.2649 117.476 91.2362 117.367 91.2331C117.257 91.23 117.149 91.2526 117.05 91.2991C116.819 91.3916 116.627 91.5586 116.503 91.7734C116.379 91.9881 116.331 92.2383 116.366 92.4838C116.382 92.5925 116.422 92.6961 116.485 92.7864C116.548 92.8767 116.63 92.9514 116.726 93.0047C116.822 93.0579 116.929 93.0883 117.039 93.0934C117.149 93.0985 117.258 93.0782 117.359 93.0341C117.592 92.941 117.786 92.7715 117.91 92.5534C118.033 92.3353 118.079 92.0817 118.039 91.8342Z" fill="#21AAAD"/>
</g>
<path fill-rule="evenodd" clip-rule="evenodd" d="M68.7257 17.8981C69.2913 17.8217 70.6365 16.6561 70.9231 15.907L70.2658 15.2268C70.0021 16.4191 69.0811 17.386 68.7257 17.8981ZM74.053 24.4521C75.0848 24.4941 76.4721 23.0075 76.8045 21.8381L76.0402 21.0738C75.7323 22.374 75.0398 23.5512 74.053 24.4521ZM79.4682 31.4532C80.2325 31.5526 82.3344 29.8749 83.0184 28.1514L82.0324 27.1425C81.742 28.6176 80.286 30.7615 79.4682 31.4532ZM84.8795 38.3053C86.1636 38.2671 88.5177 36.3716 89.2247 34.4264L88.0782 33.28C87.7916 35.0341 86.2209 37.1932 84.8795 38.3053Z" fill="#21AAAD"/>
<path d="M124.131 136.818C125.277 136.818 126.588 136.692 126.668 136.111C126.726 135.71 126.355 135.557 125.79 135.316C124.93 134.978 124.124 134.517 123.397 133.948C122.815 133.483 122.28 132.962 121.8 132.393C116.908 126.725 113.312 123.58 110.11 122.174L109.682 122.002C109.157 121.812 108.647 121.588 108.153 121.329C107.541 120.924 106.75 120.099 106.456 118.421V118.375C106.261 117.267 106.494 116.323 106.77 115.23C106.904 114.699 107.075 114.178 107.282 113.671C108.78 110.006 113.778 102.37 115.85 99.2557C116.434 98.3806 116.973 97.5704 117.451 96.8328C118.563 95.1322 121.345 90.81 123.26 87.405C123.3 87.3243 123.309 87.2313 123.283 87.1447C123.257 87.0581 123.2 86.9845 123.122 86.9388C123.041 86.8934 122.945 86.882 122.856 86.907C122.766 86.9321 122.69 86.9916 122.644 87.0725C120.734 90.4622 117.967 94.7692 116.866 96.4621C116.388 97.192 115.85 97.9908 115.288 98.843C113.178 102.007 108.153 109.681 106.628 113.407C106.412 113.945 106.231 114.496 106.085 115.058C105.799 116.181 105.531 117.244 105.757 118.497C106.097 120.465 107.037 121.436 107.767 121.914C108.292 122.204 108.839 122.451 109.403 122.655C109.578 122.72 109.72 122.778 109.804 122.816C112.899 124.172 116.419 127.264 121.223 132.824C121.739 133.431 122.311 133.987 122.931 134.487C123.708 135.1 124.572 135.593 125.495 135.951L125.583 135.989C124.628 136.117 123.661 136.135 122.702 136.042C113.946 135.362 105.558 127.608 105.478 127.532C105.424 127.479 105.353 127.445 105.278 127.436C105.203 127.427 105.126 127.443 105.061 127.482C104.854 127.62 104.654 127.771 104.465 127.933C104.16 128.194 103.838 128.435 103.502 128.655C101.209 130.092 99.3824 130.925 96.3557 132.301L94.5749 133.115C93.5417 133.579 92.6368 134.287 91.938 135.179L91.8692 135.255C91.7584 135.381 91.659 135.496 91.5749 135.599C91.7084 134.278 92.0301 132.984 92.5303 131.754C93.1571 130.184 93.8717 129.278 95.171 127.635C96.0653 126.488 97.1774 125.09 98.7213 122.9C99.4015 121.941 100.33 120.607 100.181 118.952C100.041 117.901 99.5732 116.921 98.8436 116.151L98.7519 116.036C96.3904 113.178 94.2601 110.137 92.3813 106.941C88.8157 100.674 86.7062 92.2584 85.9228 86.4687C84.4324 75.4702 85.319 69.2143 85.6094 67.1583L85.6515 66.8487C85.812 65.7022 85.5674 62.7023 85.4222 61.701C85.3763 61.3762 85.3075 61.0093 85.2426 60.6233C84.8222 58.1814 84.1802 54.5088 86.2973 53.6834C86.3524 53.6631 86.4015 53.6295 86.4402 53.5854C86.4789 53.5414 86.506 53.4883 86.519 53.4311L86.5457 53.2974C86.5639 53.245 86.5779 53.1914 86.5878 53.1369C86.6092 53.0503 86.5969 52.9587 86.5534 52.8808C85.7203 51.4439 86.1139 48.2032 86.7941 46.9956C86.8301 46.9384 86.8492 46.8721 86.8492 46.8045C86.8492 46.7369 86.8301 46.6707 86.7941 46.6134L67.9958 18.5974C66.8034 16.851 66.0315 14.7376 66.8493 14.0765C67.8085 13.3122 69.6008 14.8408 70.583 15.8421L92.8169 38.5996C92.8485 38.6342 92.8868 38.6618 92.9296 38.6809C92.9723 38.7 93.0185 38.71 93.0653 38.7104C93.1579 38.7073 93.2462 38.6706 93.3137 38.6072C93.3378 38.5802 93.3679 38.5592 93.4016 38.5461L93.459 38.5155L94.1583 38.0225C94.4495 37.7853 94.7601 37.5731 95.087 37.3881C106.552 31.4341 117.565 36.6544 123.397 44.4772C126.359 48.4516 128.789 55.8502 129.191 62.0794C129.256 63.0768 129.267 64.1965 129.233 65.3201C129.143 68.4173 128.671 71.4915 127.826 74.4728C127.802 74.5619 127.813 74.6574 127.859 74.738C127.904 74.8186 127.98 74.8779 128.069 74.9027C128.158 74.9275 128.254 74.9159 128.334 74.8704C128.415 74.8249 128.474 74.7492 128.499 74.66C129.36 71.6257 129.84 68.496 129.928 65.343C129.967 64.1965 129.951 63.0501 129.886 62.0335C129.485 55.6859 126.99 48.123 123.959 44.053C117.955 35.9933 106.598 30.6239 94.7736 36.792C94.4106 36.9957 94.0654 37.2296 93.7418 37.4913L93.5927 37.6098L93.1188 37.9193L71.0913 15.372C69.0467 13.2969 67.4722 12.6893 66.4098 13.5644C65.1258 14.6077 66.1538 17.1567 67.4225 19.0255L86.1101 46.8733C85.4719 48.2261 85.0056 51.3942 85.8961 53.1254C83.4464 54.249 84.1228 58.1584 84.5776 60.7686C84.6426 61.1507 84.7075 61.5061 84.7534 61.831C84.9139 62.9239 85.1356 65.7634 84.9827 66.799L84.9407 67.1048C84.6464 69.1837 83.7445 75.5122 85.2502 86.5948C86.0413 92.4495 88.1814 100.964 91.7928 107.319C93.6892 110.551 95.8412 113.626 98.2283 116.514L98.3277 116.632C98.9602 117.296 99.3691 118.14 99.4971 119.048C99.6308 120.45 98.8206 121.6 98.1672 122.518C96.6385 124.692 95.5226 126.095 94.6322 127.226C93.2985 128.923 92.5571 129.855 91.8959 131.517C91.1507 133.394 90.6998 135.744 90.9673 136.363C91.0177 136.484 91.1138 136.58 91.2348 136.631C91.5673 136.757 91.7889 136.493 92.0947 136.126C92.1826 136.015 92.2896 135.886 92.4119 135.744L92.4768 135.672C93.1126 134.856 93.9377 134.208 94.8806 133.784C95.5188 133.486 96.1111 133.218 96.6614 132.97C99.7187 131.582 101.561 130.746 103.896 129.278C104.259 129.048 104.605 128.793 104.931 128.514C105.038 128.426 105.138 128.342 105.229 128.273C106.609 129.492 114.462 136.142 122.671 136.78C122.985 136.784 123.539 136.818 124.131 136.818Z" fill="#383C42"/>
<path d="M120.447 98.5373C120.906 98.4778 121.346 98.3172 121.735 98.0672C121.976 97.9487 124.853 96.8099 126.412 96.573C127.051 96.4774 127.903 96.3857 128.893 96.2749C130.131 96.1411 131.537 95.9921 132.844 95.7934C136.02 95.3157 139.241 94.6889 141.271 93.3781C142.034 92.8877 142.682 92.2367 143.168 91.4704C143.655 90.7042 143.968 89.8411 144.087 88.9413C144.229 87.5849 144.043 86.2142 143.545 84.9447C143.047 83.6751 142.251 82.5438 141.225 81.6459C139.742 80.3198 136.815 78.5351 132.97 76.6358L132.332 76.3109C131.289 75.7721 129.344 74.7823 125.786 73.1276C125.744 73.1082 125.698 73.0974 125.652 73.0957C125.605 73.094 125.559 73.1014 125.516 73.1176C125.472 73.1337 125.432 73.1583 125.398 73.1898C125.364 73.2214 125.337 73.2593 125.318 73.3015C125.298 73.3436 125.287 73.3892 125.286 73.4355C125.284 73.4818 125.291 73.5281 125.308 73.5715C125.324 73.615 125.348 73.6549 125.38 73.6889C125.411 73.7228 125.449 73.7503 125.491 73.7696C129.034 75.4014 130.968 76.3988 132.011 76.9377L132.657 77.2663C136.444 79.1466 139.318 80.8892 140.751 82.1732C141.693 82.9987 142.424 84.0384 142.881 85.2048C143.337 86.3713 143.508 87.6304 143.376 88.8763C143.271 89.6725 142.992 90.436 142.561 91.1133C142.129 91.7906 141.554 92.3653 140.877 92.7972C138.966 94.0354 135.676 94.6583 132.73 95.0902C131.438 95.2889 130.054 95.438 128.809 95.5679C127.811 95.6749 126.955 95.7704 126.302 95.8698C124.62 96.122 121.574 97.3411 121.395 97.4366C121.172 97.5562 120.942 97.6634 120.707 97.7577C120.733 97.6032 120.779 97.4529 120.844 97.3105C121.476 96.1459 122.246 95.0617 123.137 94.0813C124.311 92.8163 125.736 91.475 129.053 90.1451C129.718 89.8776 130.372 89.6406 130.964 89.4151C133.108 88.6164 133.979 88.2687 134.002 87.684C134.016 87.5259 133.981 87.3674 133.901 87.2305C133.82 87.0935 133.7 86.9849 133.555 86.9196C133.261 86.7859 132.867 86.8814 132.217 87.0305C129.862 87.6727 127.364 87.5618 125.075 86.7133L124.983 86.6789C122.911 86.0236 121.091 84.7484 119.767 83.0255C119.741 82.9872 119.707 82.9547 119.668 82.93C119.628 82.9053 119.584 82.8888 119.539 82.8816C119.493 82.8745 119.446 82.8768 119.401 82.8884C119.356 82.8999 119.314 82.9206 119.278 82.949C119.24 82.9759 119.207 83.0102 119.183 83.0498C119.159 83.0893 119.142 83.1334 119.135 83.1794C119.128 83.2253 119.13 83.2723 119.142 83.3174C119.153 83.3625 119.173 83.4049 119.201 83.442C120.599 85.2872 122.537 86.651 124.746 87.3438L124.834 87.3782C127.25 88.2768 129.887 88.3958 132.374 87.7184C132.666 87.6265 132.97 87.5763 133.276 87.5693C133.276 87.5693 133.276 87.5693 133.295 87.6228C133.081 87.875 131.828 88.3451 130.716 88.7693C130.116 88.9948 129.466 89.2393 128.805 89.5069C125.365 90.8903 123.86 92.2966 122.633 93.6189C121.701 94.6337 120.9 95.7609 120.248 96.9742C120.134 97.1424 119.82 98.0634 120.111 98.3882C120.154 98.4346 120.206 98.4717 120.263 98.4973C120.321 98.5229 120.384 98.5365 120.447 98.5373Z" fill="#383C42"/>
<path d="M94.4067 89.2507C94.4067 89.2507 95.8245 87.596 97.464 87.6953L100.731 88.0431C100.814 88.1721 100.927 88.2794 101.06 88.3559C101.193 88.4323 101.343 88.4758 101.496 88.4826C101.767 88.4852 102.03 88.3841 102.23 88.1998L103.686 88.3565L103.647 88.7195L104.083 88.7692L103.861 90.8864L102.413 90.7335C102.218 90.5455 101.966 90.4276 101.697 90.3986C101.428 90.3695 101.157 90.4309 100.926 90.573L100.842 91.3373L100.479 91.9029L100.223 94.3525L99.8945 97.4327C99.996 97.884 100.06 98.3429 100.086 98.8047C100.124 99.5231 99.7034 101.728 99.6194 102.171C99.5872 102.893 99.6359 103.616 99.7646 104.327C99.7817 104.418 99.7759 104.511 99.7477 104.599C99.7194 104.687 99.6696 104.767 99.6027 104.831C99.5359 104.894 99.4541 104.94 99.3649 104.965C99.2757 104.989 99.1819 104.99 99.092 104.969L97.3111 104.785C97.2222 104.748 97.1422 104.692 97.0763 104.622C97.0105 104.551 96.9602 104.468 96.929 104.377H96.906C96.906 104.377 96.2984 104.12 96.6156 103.589C96.8907 102.977 97.0983 102.336 97.2347 101.679C97.2347 101.679 97.1353 99.076 97.5328 98.1435C97.9302 97.2111 98.0793 96.9245 98.0793 96.9245L98.1137 96.5843L98.664 91.3946L98.3812 90.8443C98.3949 90.3779 98.2841 89.9162 98.0602 89.5068C97.8613 89.3885 97.64 89.3131 97.4103 89.2854C97.1806 89.2578 96.9476 89.2785 96.7264 89.3463C96.1318 89.4879 95.552 89.6862 94.9953 89.9386L94.7813 89.6673C94.9009 89.5324 95.0285 89.4048 95.1634 89.2851C94.9754 89.3515 94.7916 89.4293 94.6131 89.5182L94.4067 89.2507Z" fill="white"/>
<path opacity="0.6" d="M98.1404 96.5843L98.6869 91.3985L98.4079 90.8443C98.4079 90.8443 98.5188 88.4597 96.3519 88.9335C95.7573 89.0737 95.1776 89.2708 94.6208 89.5221L94.4106 89.2507C94.4106 89.2507 95.8246 87.596 97.4678 87.6953L100.735 88.0431C100.818 88.1719 100.931 88.279 101.064 88.3554C101.197 88.4319 101.346 88.4755 101.5 88.4826C101.769 88.4853 102.03 88.3856 102.23 88.2036L103.686 88.3565L103.46 90.4736L102.012 90.3208C101.817 90.1336 101.566 90.0164 101.298 89.9873C101.029 89.9583 100.759 90.0191 100.529 90.1603L100.445 90.9246L100.082 91.4864L99.8257 93.936L99.543 96.6111L98.1404 96.5843Z" fill="#AFB1B3"/>
<path d="M99.5582 96.6379L99.5162 97.0391C99.6177 97.4918 99.6829 97.9518 99.7111 98.4149C99.7455 99.1295 99.3289 101.338 99.241 101.778C99.2087 102.5 99.2574 103.222 99.3863 103.933C99.4042 104.024 99.3991 104.117 99.3714 104.206C99.3436 104.294 99.2942 104.373 99.2276 104.437C99.1609 104.501 99.0793 104.547 98.9902 104.572C98.901 104.596 98.8072 104.597 98.7175 104.575L96.9366 104.396C96.9366 104.396 96.3252 104.136 96.6424 103.608C96.9199 102.99 97.1276 102.343 97.2614 101.679C97.2614 101.679 97.1659 99.0798 97.5634 98.1474C97.9608 97.2149 98.106 96.9283 98.106 96.9283L98.1442 96.5844L99.5582 96.6379Z" fill="#31D3DB"/>
<path d="M99.0958 105.34L97.315 105.156C97.2792 105.154 97.2443 105.145 97.2118 105.129C97.0845 105.074 96.9693 104.995 96.8728 104.895C96.7764 104.795 96.7007 104.678 96.65 104.549C96.612 104.43 96.6015 104.304 96.6194 104.181C96.6373 104.058 96.683 103.941 96.7532 103.838C97.0081 103.269 97.1978 102.672 97.3188 102.061C97.3188 101.633 97.2424 99.355 97.6475 98.4188C97.9532 97.7079 98.106 97.3678 98.1672 97.2417L98.7328 91.8915L98.4997 91.4253C98.4713 91.3726 98.4581 91.313 98.4614 91.2533C98.4614 91.2533 98.4958 90.3017 97.9799 89.8699C97.8148 89.7551 97.6252 89.6805 97.4261 89.652C97.2271 89.6235 97.0242 89.6418 96.8335 89.7056C96.2666 89.8383 95.7137 90.0251 95.1825 90.2635C95.1101 90.3019 95.0265 90.3137 94.9463 90.2969C94.866 90.2802 94.7941 90.2359 94.7431 90.1718L94.5252 89.9005C94.474 89.8372 94.4461 89.7583 94.4461 89.6769C94.4461 89.5955 94.474 89.5166 94.5252 89.4533C94.5902 89.3845 96.0768 87.6763 97.8844 87.7757L101.152 88.1234C101.207 88.1311 101.26 88.1508 101.307 88.1812C101.354 88.2116 101.394 88.2519 101.423 88.2992C101.48 88.3781 101.553 88.4429 101.639 88.4887C101.724 88.5344 101.819 88.5598 101.916 88.5629C102.087 88.5571 102.25 88.4923 102.379 88.3795C102.417 88.3449 102.463 88.3186 102.512 88.3022C102.561 88.2857 102.613 88.2795 102.665 88.2839L104.121 88.4368C104.214 88.4462 104.299 88.4915 104.358 88.5629C104.387 88.5991 104.409 88.6408 104.421 88.6854C104.433 88.7301 104.437 88.7768 104.431 88.8228L104.209 90.9399C104.198 91.0308 104.151 91.1138 104.08 91.1715C104.009 91.2292 103.918 91.2571 103.827 91.2495L102.379 91.0928C102.3 91.0852 102.226 91.0516 102.168 90.9972C102.051 90.8814 101.903 90.8021 101.741 90.7689C101.58 90.7356 101.412 90.7499 101.259 90.81L101.198 91.4023C101.193 91.4582 101.175 91.5121 101.144 91.559L100.831 92.052L100.261 97.4404C100.359 97.8923 100.421 98.351 100.449 98.8124C100.381 99.9695 100.222 101.119 99.9748 102.252C99.9553 102.91 99.9988 103.57 100.105 104.22C100.143 104.369 100.144 104.525 100.108 104.674C100.071 104.824 99.9977 104.962 99.8945 105.076C99.8179 105.165 99.723 105.237 99.6161 105.287C99.5093 105.336 99.3931 105.362 99.2754 105.363C99.215 105.36 99.1549 105.353 99.0958 105.34ZM99.3022 102.122C99.5451 101.042 99.6998 99.9441 99.7646 98.8391C99.7398 98.3991 99.6784 97.962 99.5812 97.5322C99.5755 97.4929 99.5755 97.453 99.5812 97.4137L100.166 91.8839C100.17 91.8292 100.189 91.7765 100.219 91.731L100.533 91.238L100.609 90.5387C100.614 90.4869 100.631 90.437 100.658 90.3926C100.685 90.3483 100.722 90.3107 100.766 90.2826C101.042 90.1035 101.369 90.0183 101.697 90.0396C102.025 90.061 102.338 90.1877 102.589 90.4011L103.579 90.5043L103.728 89.0826L102.765 88.9795C102.516 89.1615 102.213 89.2556 101.905 89.247C101.723 89.2392 101.544 89.1945 101.38 89.1157C101.216 89.0369 101.069 88.9255 100.949 88.7884L97.85 88.4597C97.0764 88.4707 96.3322 88.758 95.752 89.2699C96.0589 89.1627 96.3715 89.0721 96.6882 88.9986C96.9838 88.907 97.297 88.8876 97.6015 88.9421C97.9061 88.9967 98.1931 89.1235 98.4385 89.3119C99.1035 89.8699 99.1646 90.8406 99.1684 91.1616L99.4092 91.6431C99.4414 91.7026 99.4535 91.771 99.4436 91.838L98.8589 97.3678C98.8564 97.4101 98.846 97.4516 98.8283 97.4901C98.8283 97.4901 98.6831 97.7844 98.2933 98.6901C97.9876 99.3971 97.9914 101.365 98.022 102.072C98.0241 102.103 98.0241 102.133 98.022 102.164C97.8822 102.865 97.6603 103.548 97.3608 104.197C97.3608 104.231 97.3112 104.293 97.3226 104.327C97.3528 104.384 97.3994 104.431 97.4564 104.461L99.2181 104.644C99.3289 104.667 99.3672 104.644 99.3824 104.625C99.3977 104.606 99.4665 104.465 99.4742 104.465C99.3153 103.694 99.2575 102.907 99.3022 102.122Z" fill="#383C42"/>
<path d="M85.1662 88.047C87.3789 92.3539 94.445 93.9284 96.1952 94.345C98.4689 94.891 100.794 95.1958 103.131 95.2545C103.189 95.2545 103.277 95.9424 103.334 95.9424C107.569 96.0099 111.802 95.7043 115.983 95.029C116.121 95.0061 115.941 94.322 116.075 94.2991C118.047 93.9743 119.404 93.6838 119.813 93.6533C119.985 93.6533 120.13 96.08 116.881 97.4061C112.406 99.229 93.9787 100.043 86.7789 93.4736C85.6706 92.4456 84.8719 89.7476 85.1662 88.047Z" fill="white"/>
<path opacity="0.7" d="M85.3458 88.6508C87.5547 92.9577 94.6246 94.5322 96.3711 94.9487C106.536 97.3678 118.62 94.3678 119.992 94.2608C120.168 94.2608 120.313 96.6875 117.065 98.0136C112.59 99.8365 94.1584 100.654 86.9623 94.0812C85.8311 93.0532 85.0477 90.3552 85.3458 88.6508Z" fill="#21AAAD"/>
<path d="M106.235 99.1257C110.973 99.1257 115.081 98.5295 116.897 97.7958C119.839 96.5958 120.573 94.2952 120.374 93.592C120.348 93.4703 120.277 93.3629 120.175 93.2919C120.073 93.2209 119.947 93.1916 119.824 93.2099L118.372 93.4736C117.726 93.5958 116.969 93.7372 116.129 93.8825C116.081 93.8886 116.036 93.9042 115.995 93.9284C115.954 93.9525 115.919 93.9847 115.89 94.023C115.862 94.0614 115.842 94.105 115.832 94.1512C115.821 94.1975 115.819 94.2455 115.828 94.2923C115.836 94.3391 115.854 94.3838 115.88 94.4235C115.906 94.4633 115.939 94.4974 115.979 94.5237C116.019 94.5501 116.063 94.5681 116.11 94.5768C116.157 94.5855 116.205 94.5846 116.251 94.5742C117.095 94.4289 117.856 94.2837 118.502 94.1614C118.968 94.0774 119.369 93.9971 119.713 93.9436C119.667 94.5054 119.029 96.1907 116.637 97.1614C112.376 98.9002 93.9864 99.7601 86.905 93.2978C86.0719 92.5334 85.5445 90.6227 85.5139 89.0749C87.2183 91.3946 90.6119 93.2175 95.6182 94.5054L95.9239 94.5856C98.2807 95.1971 100.698 95.5457 103.131 95.6251C103.178 95.6269 103.224 95.6195 103.267 95.6035C103.31 95.5874 103.35 95.563 103.384 95.5316C103.418 95.5002 103.445 95.4624 103.464 95.4204C103.484 95.3784 103.495 95.3331 103.496 95.2869C103.498 95.2407 103.491 95.1947 103.475 95.1513C103.459 95.108 103.434 95.0683 103.403 95.0344C103.371 95.0005 103.334 94.9731 103.292 94.9538C103.25 94.9345 103.204 94.9237 103.158 94.9219C100.776 94.8424 98.4108 94.5015 96.1035 93.9054L95.7902 93.8251C90.3215 92.415 86.8782 90.3857 85.5445 87.8023C85.5115 87.7368 85.4586 87.6834 85.3934 87.6498C85.3282 87.6161 85.254 87.604 85.1814 87.6151C85.1095 87.6292 85.0431 87.6638 84.9903 87.7146C84.9374 87.7654 84.9003 87.8304 84.8834 87.9017C84.5776 89.7017 85.1815 92.6787 86.4311 93.8175C90.8412 97.8263 99.2258 99.1257 106.235 99.1257Z" fill="#383C42"/>
<path d="M107.301 87.9399C107.498 87.9528 107.692 87.994 107.878 88.0622C108.104 88.0772 108.324 88.1369 108.527 88.2379C108.73 88.3389 108.91 88.4792 109.058 88.6506C109.206 88.822 109.318 89.0211 109.389 89.2363C109.459 89.4515 109.486 89.6786 109.468 89.9042L108.703 96.0952H106.754V95.992H106.338L105.573 89.8011C105.573 89.8011 105.375 88.131 107.301 87.9399Z" fill="white"/>
<path d="M110.561 94.452V94.3679H110.74L110.614 90.0457C110.589 89.8973 110.597 89.7453 110.636 89.6C110.675 89.4547 110.744 89.3194 110.84 89.2032C110.936 89.0871 111.055 88.9927 111.19 88.9264C111.325 88.8601 111.473 88.8235 111.623 88.819C111.756 88.7659 111.897 88.7337 112.04 88.7234C112.352 88.701 112.661 88.8016 112.9 89.0037C113.139 89.2057 113.29 89.4933 113.32 89.8049L113.457 94.3029H114.008L114.042 95.6519L113.625 95.694V95.7284L110.186 96.0876L110.148 94.4634L110.561 94.452Z" fill="white"/>
<path opacity="0.6" d="M113.029 94.3984L112.892 89.8966C112.864 89.5852 112.714 89.2974 112.475 89.0957C112.236 88.894 111.927 88.7945 111.615 88.8189C111.465 88.8246 111.318 88.8621 111.183 88.929C111.048 88.9959 110.929 89.0907 110.834 89.207C110.738 89.3233 110.669 89.4586 110.63 89.6038C110.59 89.7491 110.582 89.901 110.606 90.0495L110.736 94.4519H110.136L110.175 96.0799L113.614 95.6978L113.58 94.3488L113.029 94.3984Z" fill="#AFB1B3"/>
<path opacity="0.4" d="M109.036 89.7934L108.291 95.9844H106.342L105.577 89.7934C105.577 89.7934 105.382 88.131 107.312 87.9399C107.301 87.9399 109.112 88.0126 109.036 89.7934Z" fill="#AFB1B3"/>
<path d="M110.354 96.2557C110.318 96.2233 110.289 96.1838 110.269 96.1398C110.248 96.0958 110.237 96.0482 110.236 95.9997L110.198 94.3755C110.198 94.2808 110.233 94.1896 110.297 94.1195C110.329 94.0861 110.368 94.0595 110.41 94.0411C110.453 94.0228 110.499 94.013 110.545 94.0125H110.794L110.675 89.996C110.631 89.5885 110.741 89.1792 110.985 88.8495C111.112 88.7023 111.269 88.5836 111.446 88.5013C111.622 88.419 111.814 88.3749 112.009 88.3718C112.211 88.3546 112.415 88.3779 112.608 88.4404C112.802 88.5028 112.981 88.6031 113.135 88.7355C113.289 88.8678 113.415 89.0296 113.506 89.2112C113.596 89.3929 113.65 89.5908 113.664 89.7935L113.782 93.9437H113.989C114.036 93.9418 114.083 93.9496 114.127 93.9667C114.171 93.9838 114.211 94.0098 114.245 94.0431C114.278 94.0753 114.305 94.1139 114.323 94.1566C114.341 94.1992 114.351 94.245 114.352 94.2915L114.382 95.6405C114.386 95.7288 114.356 95.8154 114.298 95.8817C114.239 95.9481 114.157 95.989 114.069 95.9959L110.629 96.378H110.591C110.5 96.367 110.416 96.3236 110.354 96.2557ZM113.652 94.6507H113.45C113.358 94.6508 113.269 94.6156 113.202 94.5523C113.135 94.489 113.095 94.4025 113.09 94.3106L112.961 89.8393C112.952 89.7292 112.922 89.6219 112.872 89.5236C112.822 89.4253 112.753 89.338 112.668 89.2668C112.584 89.1956 112.486 89.142 112.381 89.109C112.276 89.0761 112.165 89.0645 112.055 89.075C111.958 89.074 111.861 89.0932 111.772 89.1313C111.682 89.1695 111.602 89.2258 111.535 89.2966C111.407 89.486 111.351 89.7154 111.378 89.9425L111.512 94.3488C111.514 94.4427 111.478 94.5334 111.413 94.601C111.381 94.6352 111.343 94.6627 111.3 94.6817C111.257 94.7008 111.211 94.711 111.164 94.7118H110.916L110.939 95.6061L113.675 95.3195L113.652 94.6507Z" fill="#383C42"/>
<path d="M106.418 96.1372L105.654 89.9386C105.613 89.413 105.766 88.8907 106.085 88.4711C106.289 88.2409 106.537 88.0545 106.815 87.9231C107.093 87.7917 107.395 87.7181 107.702 87.7068H107.748C108.033 87.7061 108.315 87.7641 108.576 87.8774C108.838 87.9907 109.073 88.1568 109.268 88.3652C109.462 88.5736 109.612 88.8199 109.706 89.0886C109.801 89.3574 109.84 89.6429 109.819 89.9271V89.9577L109.074 96.1487C109.065 96.2338 109.025 96.3127 108.962 96.3699C108.898 96.4272 108.816 96.4586 108.73 96.4582H106.781C106.691 96.4606 106.604 96.4288 106.536 96.3692C106.469 96.3096 106.427 96.2267 106.418 96.1372ZM109.116 89.8736C109.127 89.685 109.1 89.496 109.036 89.3181C108.972 89.1403 108.873 88.9774 108.743 88.8394C108.614 88.7013 108.458 88.591 108.285 88.5152C108.112 88.4394 107.925 88.3997 107.736 88.3985C107.528 88.4071 107.323 88.4568 107.133 88.5446C106.944 88.6325 106.773 88.7569 106.632 88.9106C106.428 89.1829 106.326 89.5185 106.345 89.8583L107.071 95.7283H108.405L109.116 89.8736Z" fill="#383C42"/>
<path d="M116.22 95.1857V103.41C116.22 103.41 109.724 105.94 103.227 105.038V96.0532C105.361 96.2847 107.514 96.2962 109.651 96.0876C114.596 95.6328 116.22 95.1857 116.22 95.1857Z" fill="white"/>
<path d="M116.694 95.629V103.857C116.694 103.857 110.197 106.387 103.682 105.481V96.4927C105.817 96.7243 107.971 96.7372 110.11 96.5309C115.066 96.0838 116.694 95.629 116.694 95.629Z" fill="white"/>
<path opacity="0.7" d="M116.702 95.6136V103.842C116.702 103.842 110.205 106.371 103.708 105.466V96.4926C105.843 96.7243 107.995 96.7371 110.133 96.5308C115.097 96.0684 116.702 95.6136 116.702 95.6136Z" fill="#21AAAD"/>
<path d="M106.12 105.55C109.592 105.508 113.032 104.884 116.297 103.704C116.363 103.679 116.42 103.633 116.461 103.575C116.501 103.516 116.522 103.447 116.522 103.375V94.322C116.522 94.2288 116.485 94.1394 116.419 94.0734C116.353 94.0075 116.264 93.9705 116.171 93.9705C116.077 93.9705 115.988 94.0075 115.922 94.0734C115.856 94.1394 115.819 94.2288 115.819 94.322V103.112C114.646 103.532 109.078 105.355 103.51 104.679V95.3157C103.51 95.2224 103.473 95.133 103.407 95.067C103.341 95.0011 103.251 94.9641 103.158 94.9641C103.065 94.9641 102.975 95.0011 102.91 95.067C102.844 95.133 102.807 95.2224 102.807 95.3157V105.003C102.808 105.088 102.839 105.17 102.895 105.234C102.951 105.298 103.028 105.339 103.112 105.351C104.109 105.487 105.114 105.553 106.12 105.55Z" fill="#383C42"/>
<path d="M106.089 96.5118C109.464 96.445 112.828 96.1064 116.148 95.499C116.239 95.4805 116.319 95.4269 116.372 95.3497C116.424 95.2725 116.444 95.1779 116.427 95.0863C116.408 94.9948 116.355 94.914 116.278 94.8612C116.201 94.8084 116.106 94.7877 116.014 94.8035C115.941 94.8035 108.371 96.2404 103.368 95.6672C103.276 95.657 103.183 95.6842 103.11 95.7426C103.037 95.801 102.991 95.8859 102.98 95.9786C102.97 96.0714 102.997 96.1644 103.056 96.2371C103.114 96.3098 103.199 96.3564 103.292 96.3665C104.221 96.4687 105.155 96.5171 106.089 96.5118Z" fill="#383C42"/>
<path d="M118.12 44.8097C110.571 41.5231 103.023 38.2315 95.4768 34.9347C95.3927 34.5143 95.5455 34.3194 95.9965 34.2698C96.9213 34.1704 97.8385 33.9946 98.7595 33.8876C98.9262 33.8852 99.0888 33.8359 99.2287 33.7453C99.3686 33.6548 99.4802 33.5266 99.5506 33.3755C100.765 31.1317 102.507 29.2168 104.626 27.796C109.762 24.2152 115.257 23.3439 121.009 26.0075C126.412 28.5068 129.397 32.8863 130.104 38.8098C130.486 41.997 129.722 44.9702 128.354 47.8249C127.834 48.9064 127.865 48.9179 126.856 48.8414L126.397 48.6389C126.443 48.5739 126.328 48.5434 126.263 48.5051C126.202 48.402 126.646 48.593 126.539 48.6083L119.771 45.5511L118.12 44.8097ZM127.597 47.7408C128.927 44.9778 129.726 42.1002 129.397 39.0047C128.87 34.0468 126.511 30.2112 122.32 27.4979C121.934 27.3011 121.491 27.2483 121.07 27.3489C119.331 27.5208 117.89 28.3654 116.587 29.4507C114.452 31.2651 112.754 33.5381 111.619 36.1003C111.556 36.2458 111.482 36.3863 111.397 36.5207C111.287 36.6812 111.134 36.792 110.931 36.685C110.889 36.666 110.852 36.6385 110.821 36.6041C110.79 36.5698 110.766 36.5294 110.752 36.4855C110.738 36.4417 110.733 36.3953 110.737 36.3494C110.742 36.3035 110.756 36.259 110.778 36.2188C110.95 35.8366 111.118 35.4277 111.317 35.0455C112.716 32.3704 114.481 30.0278 116.95 28.2469C117.841 27.6658 118.79 27.1804 119.782 26.7986C120.038 26.768 120.325 26.8673 120.546 26.5846C119.904 26.275 119.281 26.0228 118.563 26.2024C116.874 26.2865 115.506 27.0966 114.214 28.1132C111.952 29.8826 110.354 32.1755 109.105 34.7322C109.024 34.8965 108.952 35.0608 108.868 35.2213C108.783 35.3818 108.684 35.6761 108.378 35.5538C108.073 35.4315 108.099 35.1908 108.218 34.9347C109.888 31.4532 112.039 28.3807 115.479 26.424C115.976 26.1696 116.486 25.9412 117.008 25.74L117.653 25.6406C116.727 25.3471 115.751 25.2419 114.783 25.3311C113.453 25.5413 112.406 26.3094 111.413 27.131C109.274 28.9391 107.575 31.2105 106.445 33.7729C106.387 33.8991 106.33 34.0213 106.261 34.1551C106.154 34.3462 106.001 34.5029 105.772 34.4073C105.543 34.3118 105.535 34.071 105.631 33.8303C106.095 32.7459 106.659 31.707 107.316 30.7271C108.553 28.7338 110.201 27.0271 112.15 25.7209C112.242 25.6597 112.322 25.5909 112.49 25.4648C111.94 25.4331 111.388 25.5097 110.866 25.6903C106.166 26.8903 102.745 29.6724 100.655 34.0596C100.613 34.1714 100.537 34.2677 100.439 34.3359C100.341 34.4041 100.224 34.441 100.105 34.4417C99.6537 34.4876 99.2066 34.5793 98.7595 34.6481C98.2783 34.6715 97.8032 34.7655 97.3493 34.9271L101.458 36.7308C106.652 38.9983 111.846 41.2658 117.038 43.5333C120.095 44.8746 123.13 46.2466 126.176 47.5956C126.407 47.6891 126.643 47.7707 126.882 47.8402C127.165 48.1039 127.375 48.2032 127.597 47.7485V47.7408Z" fill="#3E444A"/>
<path d="M114.799 25.3311C113.469 25.5412 112.422 26.3094 111.428 27.131C109.289 28.9391 107.59 31.2105 106.46 33.7729C106.403 33.899 106.345 34.0213 106.277 34.1551C106.17 34.3462 106.017 34.5028 105.787 34.4073C105.558 34.3118 105.55 34.071 105.646 33.8302C106.11 32.7459 106.675 31.707 107.331 30.7271C108.569 28.7337 110.217 27.0271 112.166 25.7209C112.257 25.6597 112.338 25.5909 112.506 25.4648C111.955 25.4331 111.403 25.5097 110.882 25.6903C106.181 26.8903 102.761 29.6724 100.67 34.0595C100.628 34.1713 100.553 34.2677 100.454 34.3359C100.356 34.4041 100.24 34.441 100.12 34.4417C99.669 34.4876 99.2219 34.5793 98.7748 34.6481C98.2936 34.6714 97.8185 34.7654 97.3646 34.927L101.473 36.7308C106.668 38.9983 111.861 41.2658 117.053 43.5332C120.111 44.8746 123.145 46.2466 126.191 47.5956C126.422 47.6891 126.658 47.7707 126.898 47.8402C130.012 41.4925 128.832 34.4341 123.841 29.5271C122.965 28.7454 122.041 28.0204 121.074 27.3565C119.335 27.5285 117.894 28.373 116.591 29.4584C114.456 31.2727 112.757 33.5457 111.623 36.1079C111.56 36.2534 111.486 36.394 111.401 36.5283C111.29 36.6888 111.138 36.7996 110.935 36.6926C110.893 36.6736 110.855 36.6461 110.825 36.6117C110.794 36.5774 110.77 36.537 110.756 36.4932C110.742 36.4493 110.736 36.4029 110.741 36.357C110.746 36.3111 110.76 36.2666 110.782 36.2264C110.954 35.8442 111.122 35.4353 111.321 35.0532C112.72 32.378 114.485 30.0354 116.954 28.2546C117.844 27.6735 118.794 27.188 119.786 26.8062L118.578 26.2177C116.889 26.3017 115.521 27.1119 114.229 28.1285C111.967 29.8978 110.369 32.1908 109.12 34.7474C109.04 34.9118 108.967 35.0761 108.883 35.2366C108.799 35.3971 108.699 35.6914 108.394 35.5691C108.088 35.4468 108.115 35.206 108.233 34.95C109.888 31.4532 112.039 28.3807 115.479 26.424C115.976 26.1696 116.486 25.9412 117.008 25.74L114.799 25.3311Z" fill="#21A9AC"/>
<path d="M121.07 27.3564C122.037 28.0203 122.962 28.7453 123.837 29.5271C128.828 34.434 130.009 41.4925 126.894 47.8401C127.165 48.1038 127.375 48.2223 127.597 47.7484C128.927 44.9854 129.726 42.1077 129.397 39.0123C128.87 34.0544 126.511 30.2188 122.32 27.5055C121.934 27.3087 121.491 27.2559 121.07 27.3564Z" fill="#FEFEFE"/>
</svg>
