<svg id="vcs/create-branch" viewBox="0 0 24 24" fill="none" xmlns="http://www.w3.org/2000/svg">
<g id="NESSIE/Create Branch">
<g id="Git Fork">
<path id="Union" fill-rule="evenodd" clip-rule="evenodd" d="M10 5.5C10 7.17556 8.82259 8.57612 7.25 8.91946V11.75H14.6667C15.4938 11.75 16.0642 11.5454 16.4668 11.277C16.874 11.0055 17.1549 10.6381 17.35 10.2479C17.5466 9.85479 17.6486 9.45258 17.7003 9.14233C17.7144 9.0576 17.7246 8.98118 17.7318 8.91544C16.1683 8.56531 15 7.1691 15 5.5C15 3.567 16.567 2 18.5 2C20.433 2 22 3.567 22 5.5C22 7.17989 20.8165 8.58336 19.2378 8.9221C19.2282 9.04317 19.2109 9.20269 19.1799 9.38892C19.1118 9.79742 18.9743 10.3535 18.6917 10.9187C18.4076 11.4869 17.9697 12.0778 17.2988 12.5251C16.6233 12.9755 15.7562 13.25 14.6667 13.25H7.25V15.0805C8.82259 15.4239 10 16.8244 10 18.5C10 20.433 8.433 22 6.5 22C4.567 22 3 20.433 3 18.5C3 16.8244 4.17741 15.4239 5.75 15.0805V8.91946C4.17741 8.57612 3 7.17556 3 5.5C3 3.567 4.567 2 6.5 2C8.433 2 10 3.567 10 5.5ZM6.5 7.5C7.60457 7.5 8.5 6.60457 8.5 5.5C8.5 4.39543 7.60457 3.5 6.5 3.5C5.39543 3.5 4.5 4.39543 4.5 5.5C4.5 6.60457 5.39543 7.5 6.5 7.5ZM6.5 20.5C7.60457 20.5 8.5 19.6046 8.5 18.5C8.5 17.3954 7.60457 16.5 6.5 16.5C5.39543 16.5 4.5 17.3954 4.5 18.5C4.5 19.6046 5.39543 20.5 6.5 20.5ZM20.5 5.5C20.5 6.60457 19.6046 7.5 18.5 7.5C17.3954 7.5 16.5 6.60457 16.5 5.5C16.5 4.39543 17.3954 3.5 18.5 3.5C19.6046 3.5 20.5 4.39543 20.5 5.5Z" fill="currentColor"/>
</g>
</g>
</svg>
