<svg id="vcs/merge" viewBox="0 0 24 24" fill="none"
  xmlns="http://www.w3.org/2000/svg">
  <g fill-rule="evenodd" clip-rule="evenodd" fill="currentColor">
    <path d="M6.5 7.5a2 2 0 1 0 0-4 2 2 0 0 0 0 4Zm0 1.5a3.5 3.5 0 1 0 0-7 3.5 3.5 0 0 0 0 7ZM6.5 20.5a2 2 0 1 0 0-4 2 2 0 0 0 0 4Zm0 1.5a3.5 3.5 0 1 0 0-7 3.5 3.5 0 0 0 0 7ZM18.5 17.5a2 2 0 1 0 0-4 2 2 0 0 0 0 4Zm0 1.5a3.5 3.5 0 1 0 0-7 3.5 3.5 0 0 0 0 7Z"/>
    <path d="M5.75 16V8h1.5v8h-1.5Z"/>
    <path d="M16 16.25h-2A8.25 8.25 0 0 1 5.75 8h1.5A6.75 6.75 0 0 0 14 14.75h2v1.5Z"/>
  </g>
</svg>
