<svg id="vcs/timestamp" viewBox="0 0 47 47" fill="none" xmlns="http://www.w3.org/2000/svg">
<path d="M23.5 9.79183C27.9148 9.79183 32.1487 11.5456 35.2704 14.6673C38.3921 17.789 40.1459 22.0229 40.1459 26.4377C40.1459 30.8524 38.3921 35.0863 35.2704 38.208C32.1487 41.3297 27.9148 43.0835 23.5 43.0835C19.0853 43.0835 14.8513 41.3297 11.7296 38.208C8.60794 35.0863 6.85419 30.8524 6.85419 26.4377C6.85419 22.0229 8.60794 17.789 11.7296 14.6673C14.8513 11.5456 19.0853 9.79183 23.5 9.79183ZM23.5 12.7293C19.8643 12.7293 16.3776 14.1736 13.8068 16.7444C11.236 19.3152 9.79169 22.802 9.79169 26.4377C9.79169 30.0733 11.236 33.5601 13.8068 36.1309C16.3776 38.7017 19.8643 40.146 23.5 40.146C27.1357 40.146 30.6225 38.7017 33.1933 36.1309C35.7641 33.5601 37.2084 30.0733 37.2084 26.4377C37.2084 22.802 35.7641 19.3152 33.1933 16.7444C30.6225 14.1736 27.1357 12.7293 23.5 12.7293ZM23.5 15.6668C23.8549 15.6668 24.1979 15.7954 24.4653 16.0287C24.7328 16.2619 24.9068 16.5842 24.9551 16.9358L24.9688 17.1356V25.9481C24.9687 26.3202 24.8273 26.6784 24.5732 26.9503C24.3192 27.2223 23.9714 27.3876 23.6001 27.413C23.2289 27.4383 22.8618 27.3218 22.5731 27.087C22.2845 26.8521 22.0957 26.5165 22.045 26.1478L22.0313 25.9481V17.1356C22.0313 16.746 22.186 16.3725 22.4615 16.097C22.7369 15.8216 23.1105 15.6668 23.5 15.6668ZM37.4962 10.0151L37.6588 10.1326L39.9265 12.0204C40.2105 12.2592 40.3935 12.5967 40.4389 12.9649C40.4842 13.3331 40.3886 13.7049 40.1711 14.0055C39.9536 14.3061 39.6304 14.5132 39.2664 14.5853C38.9024 14.6573 38.5247 14.589 38.2091 14.3939L38.0485 14.2764L35.7788 12.3886C35.4948 12.1498 35.3118 11.8123 35.2664 11.4441C35.221 11.0759 35.3167 10.7041 35.5342 10.4035C35.7517 10.1029 36.0749 9.89579 36.4389 9.82373C36.8029 9.75168 37.1806 9.82004 37.4962 10.0151ZM27.9063 4.896C28.2784 4.89611 28.6366 5.03748 28.9085 5.29153C29.1804 5.54558 29.3458 5.89337 29.3712 6.26464C29.3965 6.6359 29.28 7.00295 29.0452 7.29162C28.8103 7.58029 28.4747 7.76906 28.106 7.81979L27.9063 7.8335H19.0938C18.7216 7.83338 18.3634 7.69202 18.0915 7.43797C17.8196 7.18392 17.6543 6.83612 17.6289 6.46486C17.6035 6.09359 17.72 5.72654 17.9549 5.43787C18.1897 5.1492 18.5254 4.96043 18.894 4.9097L19.0938 4.896H27.9063Z" fill="currentColor"/>
</svg>
