<svg id="settings/bi-applications" viewBox="0 0 24 24" fill="none" xmlns="http://www.w3.org/2000/svg">
<path d="M18.25 2.99707C18.9793 2.99707 19.6788 3.2868 20.1945 3.80253C20.7103 4.31825 21 5.01773 21 5.74707V18.2471C21 18.6082 20.9289 18.9658 20.7907 19.2994C20.6525 19.6331 20.4499 19.9363 20.1945 20.1916C19.9392 20.447 19.636 20.6495 19.3024 20.7877C18.9687 20.9259 18.6111 20.9971 18.25 20.9971H5.75C5.38886 20.9971 5.03127 20.9259 4.69762 20.7877C4.36398 20.6495 4.06082 20.447 3.80546 20.1916C3.5501 19.9363 3.34753 19.6331 3.20933 19.2994C3.07113 18.9658 3 18.6082 3 18.2471V5.74707C3 5.01773 3.28973 4.31825 3.80546 3.80253C4.32118 3.2868 5.02065 2.99707 5.75 2.99707H18.25ZM18.25 4.49707H5.75C5.06 4.49707 4.5 5.05707 4.5 5.74707V18.2471C4.5 18.9371 5.06 19.4971 5.75 19.4971H18.25C18.94 19.4971 19.5 18.9371 19.5 18.2471V5.74707C19.5 5.05707 18.94 4.49707 18.25 4.49707ZM7.75 9.00007C8.13 9.00007 8.443 9.28107 8.493 9.64607L8.5 9.74707V16.2541C8.49974 16.3523 8.48013 16.4495 8.4423 16.5402C8.40446 16.6308 8.34915 16.7131 8.2795 16.7824C8.20986 16.8517 8.12725 16.9066 8.0364 16.9439C7.94555 16.9812 7.84823 17.0003 7.75 17.0001C7.56921 17.0002 7.39447 16.935 7.25795 16.8164C7.12143 16.6979 7.03231 16.5341 7.007 16.3551L7 16.2541V9.74707C7 9.33507 7.336 9.00007 7.75 9.00007ZM16.25 7.00007C16.63 7.00007 16.944 7.27507 16.993 7.63007L17 7.73007V16.2711C16.9987 16.3683 16.9783 16.4642 16.9399 16.5535C16.9015 16.6428 16.8459 16.7236 16.7762 16.7914C16.7066 16.8592 16.6242 16.9126 16.534 16.9486C16.4437 16.9846 16.3472 17.0024 16.25 17.0011C16.071 17.0029 15.8972 16.9401 15.7608 16.8242C15.6243 16.7083 15.5342 16.5471 15.507 16.3701L15.5 16.2711V7.73007C15.5013 7.63289 15.5217 7.53692 15.5601 7.44763C15.5985 7.35835 15.6541 7.27751 15.7238 7.20972C15.7934 7.14193 15.8758 7.08853 15.966 7.05255C16.0563 7.01658 16.1528 6.99875 16.25 7.00007ZM11.975 11.9971C12.1513 11.9946 12.3226 12.056 12.4571 12.17C12.5917 12.2839 12.6804 12.4427 12.707 12.6171L12.715 12.7171L12.75 16.2641C12.7508 16.4573 12.6749 16.643 12.539 16.7804C12.4031 16.9178 12.2183 16.9957 12.025 16.9971C11.8487 16.9996 11.6774 16.9382 11.5429 16.8242C11.4083 16.7102 11.3196 16.5514 11.293 16.3771L11.285 16.2771L11.25 12.7311C11.2489 12.5376 11.3247 12.3517 11.4606 12.2141C11.5966 12.0764 11.7816 11.9984 11.975 11.9971Z" fill="currentColor"/>
</svg>
