<svg id="settings/queue-control" viewBox="0 0 24 24" fill="none" xmlns="http://www.w3.org/2000/svg">
<path fill-rule="evenodd" clip-rule="evenodd" d="M6 3C7.40461 3 8.58376 3.9653 8.91024 5.2687L11.9407 5.26871L11.251 4.57898C11.1773 4.51032 11.1182 4.42752 11.0772 4.33552C11.0362 4.24352 11.0142 4.14421 11.0124 4.0435C11.0106 3.9428 11.0291 3.84277 11.0669 3.74938C11.1046 3.656 11.1607 3.57116 11.232 3.49994C11.3032 3.42872 11.388 3.37258 11.4814 3.33486C11.5748 3.29714 11.6748 3.27861 11.7755 3.28039C11.8762 3.28217 11.9755 3.30421 12.0675 3.3452C12.1595 3.38619 12.2423 3.4453 12.311 3.51898L14.2807 5.48871C14.4211 5.62933 14.5 5.81996 14.5 6.01871C14.5 6.21746 14.4211 6.40808 14.2807 6.54871L12.2926 8.53681C12.1504 8.66929 11.9624 8.74142 11.7681 8.73799C11.5738 8.73456 11.3884 8.65585 11.251 8.51843C11.1136 8.38102 11.0349 8.19564 11.0314 8.00134C11.028 7.80703 11.1001 7.61899 11.2326 7.47681L11.9407 6.76871L8.90061 6.76871C8.62431 7.81402 7.79796 8.63576 6.75 8.90549V15.0945C8.04392 15.4275 9 16.6021 9 18C9 19.6569 7.65685 21 6 21C4.34315 21 3 19.6569 3 18C3 16.6021 3.95608 15.4275 5.25 15.0945V8.90549C3.95608 8.57245 3 7.39788 3 6C3 4.34315 4.34315 3 6 3ZM6 7.5C6.82843 7.5 7.5 6.82843 7.5 6C7.5 5.17157 6.82843 4.5 6 4.5C5.17157 4.5 4.5 5.17157 4.5 6C4.5 6.82843 5.17157 7.5 6 7.5ZM18 9C19.6569 9 21 7.65685 21 6C21 4.34315 19.6569 3 18 3C16.3431 3 15 4.34315 15 6C15 7.65685 16.3431 9 18 9ZM18 7.5C18.8284 7.5 19.5 6.82843 19.5 6C19.5 5.17157 18.8284 4.5 18 4.5C17.1716 4.5 16.5 5.17157 16.5 6C16.5 6.82843 17.1716 7.5 18 7.5ZM11.837 16.4718C12.9385 16.1992 13.5929 15.0658 13.2782 13.9756L13.0801 13.2894C13.5193 12.907 14.0193 12.5969 14.5629 12.3767L15.0617 12.9015C15.8499 13.731 17.1722 13.7313 17.9608 12.902L18.4539 12.3835C18.9984 12.6063 19.4989 12.9195 19.9381 13.3053L19.7519 13.9361C19.428 15.0337 20.0894 16.1787 21.2019 16.4466L21.7408 16.5764C21.7899 16.8767 21.8155 17.1853 21.8155 17.5C21.8155 17.8008 21.7921 18.096 21.7472 18.3837L21.1635 18.5281C20.0619 18.8007 19.4075 19.9341 19.7223 21.0244L19.9203 21.7103C19.481 22.0927 18.9811 22.4029 18.4375 22.6232L17.9388 22.0984C17.1505 21.2689 15.8283 21.2687 15.0397 22.0979L14.5464 22.6166C14.0019 22.3939 13.5014 22.0807 13.0623 21.6951L13.2486 21.0638C13.5724 19.9663 12.9111 18.8213 11.7986 18.5533L11.2591 18.4234C11.2101 18.1232 11.1845 17.8147 11.1845 17.5C11.1845 17.1992 11.2079 16.904 11.2528 16.6163L11.837 16.4718ZM17.9497 17.5C17.9497 18.3284 17.3006 19 16.5 19C15.6994 19 15.0503 18.3284 15.0503 17.5C15.0503 16.6716 15.6994 16 16.5 16C17.3006 16 17.9497 16.6716 17.9497 17.5ZM7.5 18C7.5 18.8284 6.82843 19.5 6 19.5C5.17157 19.5 4.5 18.8284 4.5 18C4.5 17.1716 5.17157 16.5 6 16.5C6.82843 16.5 7.5 17.1716 7.5 18Z" fill="currentColor"/>
</svg>
