<svg id="job-state/completed" viewBox="0 0 24 24" fill="none" xmlns="http://www.w3.org/2000/svg">
<path fill-rule="evenodd" clip-rule="evenodd" d="M12 20C16.4183 20 20 16.4183 20 12C20 7.58172 16.4183 4 12 4C7.58172 4 4 7.58172 4 12C4 16.4183 7.58172 20 12 20ZM10.75 13.4399L15.22 8.96991C15.2887 8.89622 15.3715 8.83712 15.4635 8.79613C15.5555 8.75514 15.6548 8.73309 15.7555 8.73132C15.8562 8.72954 15.9562 8.74807 16.0496 8.78579C16.143 8.82351 16.2278 8.87965 16.299 8.95087C16.3703 9.02209 16.4264 9.10692 16.4641 9.20031C16.5018 9.2937 16.5204 9.39373 16.5186 9.49443C16.5168 9.59513 16.4948 9.69445 16.4538 9.78645C16.4128 9.87845 16.3537 9.96125 16.28 10.0299L11.28 15.0299C11.1394 15.1704 10.9487 15.2493 10.75 15.2493C10.5512 15.2493 10.3606 15.1704 10.22 15.0299L7.72 12.5299C7.58752 12.3877 7.5154 12.1997 7.51882 12.0054C7.52225 11.8111 7.60096 11.6257 7.73838 11.4883C7.87579 11.3509 8.06118 11.2722 8.25548 11.2687C8.44978 11.2653 8.63782 11.3374 8.78 11.4699L10.75 13.4399Z" fill="#5ABD4A"/>
</svg>
