<svg id="job-state/failed" viewBox="0 0 24 24" fill="none" xmlns="http://www.w3.org/2000/svg">
<path fill-rule="evenodd" clip-rule="evenodd" d="M12.5075 4.05386C12.1943 3.86942 11.8057 3.86942 11.4925 4.05386L5.49253 7.58748C5.18735 7.76721 5 8.09497 5 8.44915V15.5511C5 15.9052 5.18735 16.233 5.49253 16.4127L11.4925 19.9464C11.8057 20.1308 12.1943 20.1308 12.5075 19.9464L18.5075 16.4127C18.8127 16.233 19 15.9052 19 15.5511V8.44915C19 8.09497 18.8127 7.76721 18.5075 7.58748L12.5075 4.05386ZM12 7.99998C12.4142 7.99998 12.75 8.33577 12.75 8.74998V12.75C12.75 13.1642 12.4142 13.5 12 13.5C11.5858 13.5 11.25 13.1642 11.25 12.75V8.74998C11.25 8.33577 11.5858 7.99998 12 7.99998ZM12.75 15.5C12.75 15.9142 12.4142 16.25 12 16.25C11.5858 16.25 11.25 15.9142 11.25 15.5C11.25 15.0858 11.5858 14.75 12 14.75C12.4142 14.75 12.75 15.0858 12.75 15.5Z" fill="#CA3F32"/>
</svg>
