<svg id="job-state/queued" viewBox="0 0 24 24" fill="none" xmlns="http://www.w3.org/2000/svg">
<rect x="4" y="4" width="16" height="16" rx="2" fill="#8E43C9"/>
<path fill-rule="evenodd" clip-rule="evenodd" d="M16.8123 9.15012C16.931 9.05524 17 8.91158 17 8.75969V6.5C17 6.22386 16.7761 6 16.5 6H7.5C7.22386 6 7 6.22386 7 6.5V8.75969C7 8.91158 7.06904 9.05524 7.18765 9.15012L10.75 12L7.18765 14.8499C7.06905 14.9448 7 15.0884 7 15.2403V17.5C7 17.7761 7.22386 18 7.5 18H16.5C16.7761 18 17 17.7761 17 17.5V15.2403C17 15.0884 16.931 14.9448 16.8123 14.8499L13.25 12L16.8123 9.15012ZM16 15.7209C16 15.569 15.931 15.4254 15.8123 15.3305L12 12.2806L8.18765 15.3305C8.06904 15.4254 8 15.569 8 15.7209V17H16V15.7209ZM12 11.7194L15.8123 8.6695C15.931 8.57461 16 8.43095 16 8.27906V7H8V8.27906C8 8.43095 8.06904 8.57461 8.18765 8.6695L12 11.7194Z" fill="white"/>
<path d="M12 10.5L14.5756 8.35364C14.7193 8.23389 14.6346 8 14.4476 8H9.55241C9.36535 8 9.28067 8.23389 9.42437 8.35364L12 10.5Z" fill="white" fill-opacity="0.5"/>
<rect x="4" y="4" width="16" height="16" rx="2" fill="#8E43C9"/>
<path fill-rule="evenodd" clip-rule="evenodd" d="M7.5835 6.0835C7.16928 6.0835 6.8335 6.41928 6.8335 6.8335V8.8335C6.8335 9.06011 6.93595 9.27457 7.11224 9.41695L10.3105 12.0002L7.11224 14.5834C6.93595 14.7258 6.8335 14.9402 6.8335 15.1668V17.1668C6.8335 17.581 7.16928 17.9168 7.5835 17.9168H16.5002C16.9144 17.9168 17.2502 17.581 17.2502 17.1668V15.1668C17.2502 14.9378 17.1455 14.7213 16.966 14.579L13.7117 12.0002L16.966 9.42131C17.1455 9.27905 17.2502 9.06255 17.2502 8.8335V6.8335C17.2502 6.41928 16.9144 6.0835 16.5002 6.0835H7.5835ZM15.7502 8.47089L12.0038 11.4397L8.3335 8.47518V7.5835H15.7502V8.47089ZM15.7502 15.5294L12.0038 12.5606L8.3335 15.5251V16.4168H15.7502V15.5294Z" fill="white"/>
<path d="M11.9453 10.2538L9.879 8.63125C9.7545 8.53348 9.82363 8.3335 9.98194 8.3335H14.1735C14.333 8.3335 14.4014 8.53588 14.2747 8.63264L12.1493 10.2552C12.089 10.3013 12.005 10.3007 11.9453 10.2538Z" fill="#C6A1E4"/>
</svg>
