<svg id="job-state/running" viewBox="0 0 24 24" fill="none" xmlns="http://www.w3.org/2000/svg">
<path d="M12.75 4.66675C12.75 4.25253 12.4142 3.91675 12 3.91675C11.5858 3.91675 11.25 4.25253 11.25 4.66675V6.66675C11.25 7.08096 11.5858 7.41675 12 7.41675C12.4142 7.41675 12.75 7.08096 12.75 6.66675V4.66675Z" fill="#505862"/>
<path d="M12.75 17.3334C12.75 16.9192 12.4142 16.5834 12 16.5834C11.5858 16.5834 11.25 16.9192 11.25 17.3334V19.3334C11.25 19.7476 11.5858 20.0834 12 20.0834C12.4142 20.0834 12.75 19.7476 12.75 19.3334V17.3334Z" fill="#505862"/>
<path d="M3.91667 12.0001C3.91667 11.5859 4.25245 11.2501 4.66667 11.2501H6.66667C7.08088 11.2501 7.41667 11.5859 7.41667 12.0001C7.41667 12.4143 7.08088 12.7501 6.66667 12.7501H4.66667C4.25245 12.7501 3.91667 12.4143 3.91667 12.0001Z" fill="#505862"/>
<path d="M19.3333 11.2501H17.3333C16.9191 11.2501 16.5833 11.5859 16.5833 12.0001C16.5833 12.4143 16.9191 12.7501 17.3333 12.7501H19.3333C19.7476 12.7501 20.0833 12.4143 20.0833 12.0001C20.0833 11.5859 19.7476 11.2501 19.3333 11.2501Z" fill="#505862"/>
<path d="M6.13634 6.13642C6.42923 5.84353 6.90411 5.84353 7.197 6.13642L8.61121 7.55063C8.90411 7.84353 8.90411 8.3184 8.61121 8.61129C8.31832 8.90419 7.84345 8.90419 7.55055 8.61129L6.13634 7.19708C5.84344 6.90419 5.84344 6.42931 6.13634 6.13642Z" fill="#505862"/>
<path d="M16.4495 8.61129L17.8637 7.19708C18.1566 6.90419 18.1566 6.42931 17.8637 6.13642C17.5708 5.84353 17.0959 5.84353 16.803 6.13642L15.3888 7.55063C15.0959 7.84353 15.0959 8.3184 15.3888 8.61129C15.6817 8.90419 16.1566 8.90419 16.4495 8.61129Z" fill="#505862"/>
<path d="M7.197 17.8637L8.61121 16.4495C8.90411 16.1566 8.90411 15.6818 8.61121 15.3889C8.31832 15.096 7.84345 15.096 7.55055 15.3889L6.13634 16.8031C5.84344 17.096 5.84344 17.5709 6.13634 17.8637C6.42923 18.1566 6.90411 18.1566 7.197 17.8637Z" fill="#505862"/>
<path d="M16.4495 15.3889L17.8637 16.8031C18.1566 17.096 18.1566 17.5709 17.8637 17.8637C17.5708 18.1566 17.0959 18.1566 16.803 17.8637L15.3888 16.4495C15.0959 16.1566 15.0959 15.6818 15.3888 15.3889C15.6817 15.096 16.1566 15.096 16.4495 15.3889Z" fill="#505862"/>
</svg>
