<svg id="job-state/starting" viewBox="0 0 24 24" version="1.1" xmlns="http://www.w3.org/2000/svg" xmlns:xlink="http://www.w3.org/1999/xlink">
  <defs>
    <circle id="path-1" cx="12" cy="12" r="5"></circle>
    <mask id="mask-2" maskContentUnits="userSpaceOnUse" maskUnits="objectBoundingBox" x="0" y="0" width="10" height="10" fill="white">
      <use xlink:href="#path-1"></use>
    </mask>
  </defs>
  <g id="Jobs" stroke="none" stroke-width="1" fill="none" fill-rule="evenodd">
    <g id="Jobs-/-Icons" transform="translate(-27.000000, -171.000000)">
      <g id="_Icon/Job/Starting" transform="translate(24.000000, 168.000000)">
        <rect id="icon-box-24" x="0" y="0" width="24" height="24"></rect>
        <use id="Oval" stroke="#FFFFFF" mask="url(#mask-2)" stroke-width="2" stroke-linecap="round" stroke-linejoin="round" stroke-dasharray="1,4" xlink:href="#path-1"></use>
        <g id="Rectangle-2" opacity="0.5" stroke-width="1" fill-rule="evenodd" transform="translate(3.000000, 3.000000)" fill="#81D84A">
          <rect id="Rectangle" x="0" y="0" width="18" height="18" rx="9"></rect>
        </g>
        <path d="M12,7 C14.7614237,7 17,9.23857625 17,12 C17,14.7614237 14.7614237,17 12,17 C9.33456699,17 7.15626352,14.9143505 7.00804288,12.2860048 L6.44066017,12.8535534 C6.24539803,13.0488155 5.92881554,13.0488155 5.73355339,12.8535534 C5.53829124,12.6582912 5.53829124,12.3417088 5.73355339,12.1464466 L6.79421356,11.0857864 C7.15684326,10.7231567 7.72868866,10.6972546 8.12120631,11.0080801 L8.20842712,11.0857864 L9.2690873,12.1464466 C9.46434944,12.3417088 9.46434944,12.6582912 9.2690873,12.8535534 C9.07382515,13.0488155 8.75724266,13.0488155 8.56198052,12.8535534 L8.0113812,12.3040269 C8.16673245,14.3711356 9.89314539,16 12,16 C14.209139,16 16,14.209139 16,12 C16,9.790861 14.209139,8 12,8 C10.8419976,8 9.79892646,8.49207882 9.06848242,9.27854051 L8.92662054,9.43969937 L8.15892529,8.79884543 C9.07610319,7.69951506 10.4563613,7 12,7 Z" id="Combined-Shape" fill="#333333" fill-rule="evenodd"></path>
      </g>
    </g>
  </g>
</svg>
