<svg id="editor/link" viewBox="0 0 24 24" fill="none" xmlns="http://www.w3.org/2000/svg">
<path d="M9.2503 7C9.43979 6.99981 9.62234 7.07136 9.76123 7.20027C9.90013 7.32917 9.98509 7.50587 9.99902 7.69486C10.013 7.88384 9.95483 8.07109 9.83634 8.21897C9.71785 8.36685 9.54777 8.4644 9.3603 8.492L9.2503 8.5H7.0003C6.08968 8.4997 5.2148 8.85432 4.56139 9.48856C3.90797 10.1228 3.52747 10.9867 3.50066 11.897C3.47385 12.8072 3.80285 13.692 4.4178 14.3636C5.03275 15.0352 5.88525 15.4407 6.7943 15.494L7.0003 15.5H9.2503C9.43979 15.4998 9.62234 15.5714 9.76123 15.7003C9.90013 15.8292 9.98509 16.0059 9.99902 16.1949C10.013 16.3838 9.95483 16.5711 9.83634 16.719C9.71785 16.8669 9.54777 16.9644 9.3603 16.992L9.2503 17H7.0003C5.69497 17.0014 4.44087 16.4922 3.50593 15.5813C2.57098 14.6704 2.02933 13.43 1.99668 12.125C1.96404 10.8201 2.443 9.55418 3.33123 8.59766C4.21946 7.64115 5.44654 7.06992 6.7503 7.006L7.0003 7H9.2503ZM17.0003 7C18.3056 6.99865 19.5597 7.50782 20.4947 8.41872C21.4296 9.32963 21.9713 10.57 22.0039 11.875C22.0366 13.1799 21.5576 14.4458 20.6694 15.4023C19.7811 16.3589 18.5541 16.9301 17.2503 16.994L17.0003 17H14.7503C14.5608 17.0002 14.3783 16.9286 14.2394 16.7997C14.1005 16.6708 14.0155 16.4941 14.0016 16.3051C13.9876 16.1162 14.0458 15.9289 14.1643 15.781C14.2827 15.6332 14.4528 15.5356 14.6403 15.508L14.7503 15.5H17.0003C17.9109 15.5003 18.7858 15.1457 19.4392 14.5114C20.0926 13.8772 20.4731 13.0133 20.4999 12.103C20.5267 11.1928 20.1978 10.308 19.5828 9.63639C18.9678 8.96479 18.1154 8.5593 17.2063 8.506L17.0003 8.5H14.7503C14.5608 8.50019 14.3783 8.42864 14.2394 8.29974C14.1005 8.17084 14.0155 7.99413 14.0016 7.80515C13.9876 7.61617 14.0458 7.42891 14.1643 7.28103C14.2827 7.13315 14.4528 7.03561 14.6403 7.008L14.7503 7H17.0003ZM7.0003 11.25H17.0003C17.1903 11.2501 17.3732 11.3222 17.5121 11.452C17.6509 11.5817 17.7354 11.7593 17.7483 11.9489C17.7613 12.1385 17.7018 12.3259 17.5819 12.4733C17.4619 12.6207 17.2905 12.7171 17.1023 12.743L17.0003 12.75H7.0003C6.81027 12.7499 6.62736 12.6778 6.48851 12.548C6.34966 12.4183 6.26522 12.2407 6.25227 12.0511C6.23932 11.8615 6.29881 11.6741 6.41873 11.5267C6.53865 11.3793 6.71005 11.2829 6.8983 11.257L7.0003 11.25H17.0003H7.0003Z" fill="currentColor"/>
</svg>
