<?xml version="1.0" encoding="UTF-8" standalone="no"?>
<!--

    Copyright (C) 2017-2019 Dremio Corporation

    Licensed under the Apache License, Version 2.0 (the "License");
    you may not use this file except in compliance with the License.
    You may obtain a copy of the License at

        http://www.apache.org/licenses/LICENSE-2.0

    Unless required by applicable law or agreed to in writing, software
    distributed under the License is distributed on an "AS IS" BASIS,
    WITHOUT WARRANTIES OR CONDITIONS OF ANY KIND, either express or implied.
    See the License for the specific language governing permissions and
    limitations under the License.

-->
<svg width="144" height="113" viewBox="0 0 144 113" fill="none" xmlns="http://www.w3.org/2000/svg">
<path opacity="0.5" d="M64.8806 65.9849C64.8838 66.001 64.8838 66.0139 64.887 66.0269C64.8838 66.0139 64.8806 65.9978 64.8806 65.9849Z" fill="#31D3DB"/>
<path opacity="0.5" d="M65.8713 71.8422C65.3705 69.6366 64.9993 67.6417 64.7221 65.8445C65.0127 67.6202 65.688 71.2403 66.6629 74.882C66.3454 73.7856 66.077 72.758 65.8713 71.8422Z" fill="#31D3DB"/>
<path d="M98.1469 76.2546C96.745 78.9154 91.5901 87.7786 91.04 90.2269C90.7206 91.648 91.5191 93.6491 91.5945 93.7775C93.3291 96.8632 96.2925 97.3945 98.0049 97.3547C99.6818 97.3148 104.482 96.6773 106.793 94.0608C107.698 93.0337 108.111 91.6834 108.723 89.917C109.841 86.6807 111.691 85.1046 114.077 84.2634C120.018 82.1649 127.173 88.9784 126.814 89.7487C126.743 89.8948 126.401 89.824 125.794 89.7797C121.801 89.5097 118.469 91.2673 116.726 92.3652C115.045 93.4233 112.529 95.8848 111.793 97.0492C110.515 99.0636 111.198 100.896 111.345 101.251C111.345 101.251 113.022 104.319 118.665 107.767C118.518 107.989 117.751 108.551 117.396 108.852C117.067 109.131 115.249 110.605 113.07 110.893C110.724 111.203 108.656 111.017 107.237 110.096C105.591 109.029 104.917 107.298 104.721 106.78C103.413 103.3 105.351 100.277 106.035 99.4709C106.074 99.4222 106.234 99.2052 106.208 99.1565C106.123 98.9839 104.304 99.7055 103.031 100.206C99.602 101.552 96.5365 101.707 94.8153 101.795C87.9746 102.145 82.416 99.3071 81.6751 98.8466C76.5468 95.6635 73.752 91.2584 71.7157 87.3802L64.9416 65.9791C63.9257 59.0461 64.2673 55.035 64.3383 53.7556C64.3959 52.7329 63.9701 50.0323 63.7394 49.0362C63.207 46.734 61.1708 42.7761 63.6684 41.5852C63.7039 41.3018 63.6684 41.5852 63.7128 41.2974C62.7279 39.8763 63.1227 36.8525 63.6773 35.6572L44.1489 10.1078C42.9068 8.56711 41.8199 6.4022 42.7559 5.51234C43.5545 4.74643 44.9785 5.26441 46.8417 6.87149L69.4533 26.515C69.5021 26.4574 69.5686 26.4043 69.6307 26.3689C69.786 26.2494 69.9457 26.1254 70.101 26.0014C70.4204 25.7137 70.7353 25.4126 71.1035 25.1824C81.0895 18.9135 92.047 22.2383 98.6349 29.7159C101.82 33.3329 104.65 40.1596 105.493 45.9416C105.551 46.34 105.706 47.4645 105.782 49.0052C105.932 52.1308 105.547 55.6548 104.823 58.6919L103.55 62.0743C102.876 59.8164 101.736 58.32 100.015 57.284C99.185 56.7838 98.5284 56.5447 98.0759 56.5049C96.226 56.3411 94.2785 57.4877 93.6441 59.8253C93.4666 60.4761 93.2448 61.8308 93.8393 64.2746C95.1568 69.6846 98.2667 73.616 98.7591 74.2048C98.8123 74.2668 98.8655 74.3288 98.9188 74.3908L98.3243 75.9447C98.2622 76.0332 98.209 76.1351 98.1469 76.2546Z" fill="#31D3DB"/>
<path opacity="0.5" d="M71.8383 87.7927C71.0015 86.2264 70.2497 84.5865 69.574 82.9512C70.2139 84.2134 70.8762 85.6506 71.6459 87.1616L71.8383 87.7927Z" fill="#31D3DB"/>
<path opacity="0.5" d="M69.5555 83.5699C68.4355 81.4923 67.4543 78.5033 66.6629 75.5276C67.371 77.9805 68.3383 80.7864 69.574 83.5967C69.5648 83.5878 69.5602 83.5789 69.5555 83.5699Z" fill="#31D3DB"/>
<path fill-rule="evenodd" clip-rule="evenodd" d="M81.1972 98.4439C81.1972 98.4439 69.019 91.0646 77.3204 76.2794C78.3323 74.4789 81.2805 69.0329 82.3143 66.7147C84.8682 60.9988 87.996 45.7315 81.885 47.041C75.6294 48.3815 68.5196 48.6159 63.6396 41.7056C63.2891 41.2101 61.4186 43.3513 63.2497 49.6512C64.1871 52.8763 64.2178 57.9683 64.2047 60.0167C64.1433 71.3865 68.2962 80.1638 70.5698 87.136C73.0536 94.7808 81.1972 98.4439 81.1972 98.4439Z" fill="white"/>
<path d="M64.0751 70.0404C62.6174 69.8616 61.7985 69.7498 61.0382 69.562C58.3116 68.8779 56.3005 68.3727 53.7674 67.0671C52.1747 66.2488 49.7406 64.9611 47.545 62.3499C46.3482 60.9281 45.9612 59.7119 45.9612 59.7119C45.9612 59.7119 58.3836 63.1548 63.1708 61.2321" fill="#31D3DB"/>
<path d="M107.419 80.3691C107.419 80.3691 105.612 77.6957 105.548 71.8442C105.521 69.2894 105.512 67.8276 105.409 66.6687C105.016 62.2395 103.718 59.7505 101.149 58.2405C100.306 57.7444 99.6387 57.5074 99.1789 57.4679C97.2992 57.3055 95.3203 58.4424 94.6757 60.7602C94.4954 61.4055 94.27 62.7487 94.874 65.1719C96.2128 70.5361 99.5621 73.9206 100.062 74.5044C102.839 77.7528 107.419 80.3691 107.419 80.3691Z" fill="#31D3DB"/>
<path d="M64.0607 69.0722C64.0474 69.0722 64.0342 69.0722 64.0209 69.0677C62.4937 68.8804 61.7345 68.7688 61.0017 68.5814C58.2827 67.8854 56.314 67.3812 53.798 66.0651C52.3149 65.2887 49.8342 63.9904 47.5919 61.2777C46.3913 59.8232 45.994 58.5873 45.9764 58.5338C45.9411 58.4178 45.9675 58.2884 46.0558 58.1992C46.1397 58.1099 46.2677 58.0787 46.3825 58.1099C46.5016 58.1456 58.5122 61.4919 63.0498 59.6403C63.2176 59.5689 63.4118 59.6537 63.4824 59.8232C63.553 59.9927 63.4692 60.1891 63.3014 60.2604C59.1346 61.9603 49.4944 59.6224 46.8636 58.9309C47.0887 59.3993 47.4816 60.0954 48.1039 60.8449C50.258 63.4505 52.668 64.7132 54.107 65.4672C56.5568 66.7521 58.4946 67.2474 61.1695 67.93C61.8713 68.1085 62.6084 68.2156 64.1092 68.403C64.2902 68.4253 64.4182 68.5903 64.3961 68.7777C64.3652 68.9473 64.224 69.0722 64.0607 69.0722Z" fill="#383C42"/>
<path d="M77.2078 48.0924C74.3848 48.0924 71.3247 47.4674 68.8617 46.2839C65.8982 44.8566 63.9138 42.729 63.1191 40.1316C63.0664 39.9543 63.163 39.7681 63.3386 39.7149C63.5099 39.6617 63.6987 39.7593 63.7513 39.9366C64.4889 42.3523 66.3548 44.338 69.1471 45.6855C73.6648 47.8619 79.1747 47.791 82.0591 46.6208C82.226 46.5499 82.4192 46.6341 82.4894 46.8069C82.5553 46.9754 82.4762 47.1704 82.305 47.2413C80.8781 47.8131 79.0956 48.0924 77.2078 48.0924Z" fill="#383C42"/>
<path d="M106.354 81.3329C105.588 81.3329 102.192 78.9305 99.7477 76.4577C97.7907 74.4733 94.5099 71.1557 93.5624 65.8141C93.0178 62.7517 93.1196 61.3833 93.5225 59.7993C93.5668 59.6233 93.7483 59.5177 93.9254 59.5617C94.1025 59.6057 94.2132 59.7861 94.1645 59.9621C93.7882 61.4581 93.6908 62.7561 94.2132 65.7041C95.1253 70.8433 98.3132 74.0685 100.221 75.9957C102.258 78.0549 104.671 79.7973 105.791 80.4265C104.237 77.8129 104.401 74.3193 104.467 72.9729C104.476 72.7837 104.485 72.6385 104.481 72.5505C104.476 71.9125 104.507 71.5121 104.552 70.9973C104.605 70.3593 104.671 69.5673 104.698 67.9349L104.707 67.5345C104.72 67.0109 104.733 66.3597 104.702 66.0693C104.344 62.3645 102.648 59.8785 101.7 58.9897C101.567 58.8665 101.559 58.6553 101.687 58.5233C101.811 58.3913 102.023 58.3869 102.156 58.5101C103.17 59.4605 104.986 62.1049 105.362 66.0077C105.393 66.3377 105.38 66.9801 105.366 67.5521L105.357 67.9481C105.331 69.6025 105.264 70.4077 105.211 71.0545C105.171 71.5473 105.136 71.9389 105.145 72.5461C105.145 72.6429 105.14 72.8013 105.127 73.0081C105.065 74.3369 104.897 77.8657 106.486 80.2945C106.677 80.5849 106.912 80.9413 106.668 81.2053C106.615 81.2625 106.517 81.3329 106.358 81.3373C106.358 81.3329 106.354 81.3329 106.354 81.3329Z" fill="#383C42"/>
<path fill-rule="evenodd" clip-rule="evenodd" d="M86.3917 38.9732C85.7132 38.5334 84.8169 38.7093 84.3645 39.3878C83.9289 40.0536 84.1174 40.9498 84.7834 41.3979C85.4493 41.8335 86.3582 41.6618 86.798 40.9833C87.2462 40.3217 87.0535 39.4255 86.3917 38.9732Z" fill="#383C42"/>
<path fill-rule="evenodd" clip-rule="evenodd" d="M67.9126 29.32L44.5408 7.4926C43.5453 6.56763 43.0876 6.47469 42.4032 6.23128C42.9054 5.90821 43.9227 6.43044 44.7315 7.04118L69.2054 28.3729C69.5521 29.8334 67.8411 32.2764 66.2056 32.5994C66.9922 31.67 67.9659 30.4574 68.0237 29.3864" fill="white"/>
<g opacity="0.6">
<path opacity="0.6" fill-rule="evenodd" clip-rule="evenodd" d="M93.9028 28.9745C93.3073 28.7417 92.7343 29.058 92.6215 29.6774C92.4951 30.2925 92.8786 30.9734 93.4607 31.1975C94.0427 31.4259 94.6157 31.1052 94.7421 30.4946C94.8684 29.8795 94.4849 29.1986 93.9028 28.9745Z" fill="#21AAAD"/>
<path opacity="0.6" fill-rule="evenodd" clip-rule="evenodd" d="M90.6089 26.8173C90.0856 26.7119 89.6569 27.0282 89.6344 27.5641C89.6208 28.0825 90.0314 28.6009 90.5322 28.7152C91.0556 28.8206 91.4843 28.5043 91.5068 27.9683C91.5249 27.4499 91.1143 26.9315 90.6089 26.8173Z" fill="#21AAAD"/>
</g>
<g opacity="0.6">
<path opacity="0.6" fill-rule="evenodd" clip-rule="evenodd" d="M103.241 48.6581C102.552 48.0309 101.612 48.1811 101.125 48.9849C100.62 49.7799 100.773 50.9283 101.462 51.5555C102.138 52.1739 103.073 52.0193 103.552 51.2331C104.057 50.438 103.904 49.2897 103.241 48.6581Z" fill="#21AAAD"/>
<path opacity="0.6" fill-rule="evenodd" clip-rule="evenodd" d="M101.889 40.6414C101.283 40.0937 100.453 40.2218 100.028 40.9285C99.5886 41.6529 99.7247 42.6511 100.322 43.2164C100.928 43.7641 101.757 43.636 102.183 42.9293C102.609 42.2227 102.486 41.2068 101.889 40.6414Z" fill="#21AAAD"/>
<path opacity="0.6" fill-rule="evenodd" clip-rule="evenodd" d="M99.8207 43.7863C99.3729 43.3844 98.7451 43.4816 98.4291 44.0116C98.0998 44.5283 98.2096 45.2836 98.6573 45.69C99.0963 46.1096 99.7065 45.9991 100.036 45.4824C100.352 44.9524 100.26 44.2059 99.8207 43.7863Z" fill="#21AAAD"/>
<path opacity="0.6" fill-rule="evenodd" clip-rule="evenodd" d="M103.166 54.3381C102.714 53.9096 102.055 54.0112 101.73 54.5589C101.379 55.111 101.498 55.8928 101.95 56.3212C102.428 56.7452 103.06 56.6481 103.398 56.1136C103.732 55.5483 103.644 54.7621 103.166 54.3381Z" fill="#21AAAD"/>
</g>
<path opacity="0.6" fill-rule="evenodd" clip-rule="evenodd" d="M96.3851 75.4407C96.272 74.9593 95.8153 74.7453 95.3946 74.9739C94.956 75.1927 94.7163 75.7665 94.8338 76.2528C94.9695 76.7439 95.4037 76.9482 95.8288 76.7342C96.263 76.4959 96.5208 75.9319 96.3851 75.4407Z" fill="#21AAAD"/>
<path fill-rule="evenodd" clip-rule="evenodd" d="M45.5784 7.42358C45.4153 8.55107 44.6393 9.52063 44.3439 10.0164C44.8686 9.90231 46.0237 8.72217 46.2442 8.00268L45.5784 7.42358ZM49.8069 15.7065C50.7725 15.667 51.9541 14.1842 52.1789 13.0698L51.4074 12.403C51.2486 13.7981 50.3977 15.1099 49.8069 15.7065ZM55.3926 21.7958C56.1156 21.8265 57.9498 20.1112 58.4612 18.4616L57.4604 17.6017C57.2972 18.9968 56.1068 21.0983 55.3926 21.7958ZM60.9614 27.7579C62.1562 27.6219 64.2107 25.6828 64.7222 23.8271L63.5803 22.8531C63.4304 24.4983 62.1297 26.6216 60.9614 27.7579Z" fill="#21AAAD"/>
<path d="M110.77 111.677C109.106 111.677 107.753 111.346 106.738 110.689C105.93 110.168 104.817 109.144 104.094 107.221C102.825 103.854 104.48 100.981 105.181 99.9796C104.537 100.196 103.579 100.571 102.976 100.805L102.839 100.858C99.3566 102.217 96.2072 102.38 94.5172 102.464C86.9988 102.848 81.2413 99.5119 81.188 99.4766C73.9623 95.0111 70.9949 88.2863 69.0343 83.8385C66.8564 78.9097 65.1886 72.4717 64.4567 66.1706C64.0885 63.0201 63.6849 57.2528 63.6937 54.2479C63.6982 53.2948 63.3389 50.634 63.1038 49.6191C63.0373 49.3235 62.9486 48.9925 62.8554 48.6395C62.2344 46.2391 61.2985 42.6385 63.5163 41.403C62.5493 39.8542 62.7445 36.858 63.2369 35.5475L43.5735 10.9563C42.2428 9.31046 41.0851 7.0027 42.2118 5.93045C43.1433 5.03911 44.6692 5.49361 46.745 7.27628L69.1408 26.6694L69.6908 26.2282C69.9747 25.9723 70.2674 25.7075 70.609 25.4957C81.2413 18.8416 92.3127 23.0026 98.5626 30.0759C101.721 33.6457 104.635 40.5205 105.496 46.42C105.633 47.3731 105.735 48.441 105.788 49.5088C105.935 52.5226 105.58 56.0747 104.821 59.2517L104.497 60.1122C104.431 60.2843 104.24 60.3681 104.067 60.3063C103.894 60.2401 103.81 60.0504 103.872 59.8783L104.183 59.0576C104.914 55.9776 105.26 52.4917 105.118 49.5353C105.07 48.4895 104.968 47.4437 104.835 46.5127C103.987 40.7278 101.14 33.9987 98.0569 30.5084C91.9889 23.6424 81.259 19.6049 70.9549 26.0517C70.6622 26.237 70.4005 26.4709 70.1299 26.7136L69.8416 26.9563L69.5089 27.2166C69.4956 27.2298 69.4779 27.2387 69.4601 27.2475C69.4335 27.2607 69.4025 27.2872 69.3803 27.3137C69.3226 27.3799 69.2383 27.424 69.1496 27.4328C69.0609 27.4416 68.9722 27.4108 68.9057 27.3534L46.297 7.7749C45.299 6.91886 43.5026 5.60392 42.6598 6.407C41.9456 7.08654 42.8328 9.00159 44.0792 10.5416L63.8623 35.2872C63.9421 35.3842 63.9555 35.5166 63.9022 35.6313C63.3566 36.8051 63.2324 39.8674 64.1196 41.1426C64.1684 41.2132 64.1861 41.2971 64.1728 41.3809C64.1639 41.4383 64.1551 41.4912 64.1462 41.5309L64.1284 41.6589C64.1151 41.7692 64.0442 41.8663 63.9421 41.9148C62.0126 42.8282 62.8953 46.2259 63.4764 48.4719C63.5695 48.8337 63.6583 49.169 63.7248 49.4647C63.951 50.4355 64.3369 53.1624 64.3325 54.2435C64.3236 57.222 64.7273 62.9539 65.091 66.0868C65.814 72.3217 67.4641 78.689 69.6154 83.5649C71.5449 87.9377 74.4636 94.5477 81.5118 98.9073C82.6296 99.6001 88.1077 102.12 94.4551 101.798C96.1096 101.714 99.188 101.555 102.568 100.236L102.705 100.183C105.722 99 105.975 98.9735 106.165 99.353C106.201 99.4236 106.298 99.6134 105.948 100.028C105.837 100.156 103.282 103.236 104.693 106.982C105.354 108.739 106.356 109.661 107.079 110.128C108.348 110.949 110.233 111.196 112.69 110.874C114.744 110.601 116.509 109.193 116.842 108.915C116.948 108.827 117.086 108.716 117.237 108.597C117.388 108.478 117.614 108.297 117.791 108.147C112.424 104.794 110.783 101.873 110.712 101.749C110.477 101.184 109.86 99.2957 111.173 97.2262C111.923 96.0436 114.447 93.5637 116.212 92.4562C119.317 90.5103 122.435 89.6233 125.478 89.8307C125.616 89.8395 125.744 89.8528 125.855 89.8616C125.931 89.866 126.006 89.8749 126.077 89.8793C125.735 89.3012 124.36 87.8583 122.209 86.5478C120.453 85.4799 117.033 83.8561 113.857 84.9725C111.284 85.8771 109.696 87.5538 108.707 90.4044L108.556 90.8368C108.015 92.4121 107.585 93.6608 106.711 94.6448C104.44 97.2085 99.8134 97.9851 97.6843 98.0381C96.3181 98.069 92.9337 97.7777 90.9776 94.3051C90.8711 94.1197 90.0461 92.0591 90.3876 90.5323C90.8223 88.6084 93.9805 82.9251 96.0697 79.17C96.8105 77.8374 97.396 76.7828 97.6843 76.218L97.8706 75.7238C97.9371 75.5517 98.1279 75.4679 98.3009 75.5296C98.4738 75.5958 98.5581 75.7856 98.496 75.9577L98.2964 76.4827C97.9904 77.0917 97.4004 78.1507 96.6552 79.4877C94.5838 83.2119 91.4522 88.8423 91.0397 90.6735C90.7602 91.9179 91.4566 93.78 91.5631 93.9829C93.3373 97.1335 96.4246 97.4071 97.671 97.3718C99.7025 97.3232 104.098 96.5952 106.214 94.2036C106.999 93.3166 107.412 92.1253 107.931 90.6162L108.082 90.1837C109.128 87.1656 110.894 85.3079 113.635 84.3415C118.807 82.5191 124.462 87.0287 126.037 88.7541C126.889 89.6851 126.88 90.0513 126.782 90.2632C126.632 90.5897 126.281 90.5588 125.798 90.5147C125.691 90.5058 125.571 90.4926 125.434 90.4838C122.533 90.2896 119.552 91.1368 116.567 93.0078C114.917 94.0447 112.446 96.4584 111.737 97.5703C110.592 99.3663 111.124 100.999 111.315 101.453C111.315 101.453 113.023 104.454 118.501 107.794C118.576 107.843 118.634 107.918 118.652 108.006C118.669 108.094 118.656 108.187 118.607 108.262C118.483 108.447 118.15 108.716 117.658 109.109C117.516 109.224 117.379 109.33 117.277 109.414C116.775 109.837 114.961 111.236 112.783 111.523C112.078 111.629 111.399 111.677 110.77 111.677Z" fill="#383C42"/>
<path fill-rule="evenodd" clip-rule="evenodd" d="M106.536 23.4394C107.034 23.7783 107.636 23.9752 108.283 23.9752C110.001 23.9752 111.395 22.584 111.395 20.8701C111.395 19.5371 110.55 18.4042 109.37 17.9652C108.872 17.6263 108.27 17.4294 107.623 17.4294C105.905 17.4294 104.511 18.8206 104.511 20.5345C104.508 21.8675 105.352 23.0004 106.536 23.4394Z" fill="white"/>
<path opacity="0.5" d="M107.62 17.4294C105.902 17.4294 104.508 18.8206 104.508 20.5345C104.508 22.2484 105.902 23.6395 107.62 23.6395C109.337 23.6395 110.731 22.2484 110.731 20.5345C110.731 18.8206 109.337 17.4294 107.62 17.4294Z" fill="#31D3DB"/>
<path fill-rule="evenodd" clip-rule="evenodd" d="M108.283 24.2203C106.433 24.2203 104.929 22.7194 104.929 20.8732C104.929 19.027 106.433 17.5261 108.283 17.5261C110.133 17.5261 111.637 19.027 111.637 20.8732C111.637 22.7162 110.133 24.2203 108.283 24.2203ZM108.283 18.0103C106.701 18.0103 105.414 19.2949 105.414 20.8732C105.414 22.4515 106.701 23.7362 108.283 23.7362C109.865 23.7362 111.152 22.4515 111.152 20.8732C111.152 19.2949 109.865 18.0103 108.283 18.0103Z" fill="#383C42"/>
<path d="M125.993 30.8919C129.206 30.8919 131.812 28.2924 131.812 25.0854C131.812 21.8784 129.206 19.2788 125.993 19.2788C122.779 19.2788 120.173 21.8784 120.173 25.0854C120.173 28.2924 122.779 30.8919 125.993 30.8919Z" fill="white" stroke="black" stroke-width="1.25"/>
<path d="M23.4254 104.089L22.2383 100.697C22.1348 100.406 21.8533 100.21 21.5363 100.216L17.8618 100.268C17.1534 100.277 16.8461 99.3995 17.4122 98.9863L20.3525 96.8367C20.6048 96.6527 20.7083 96.3299 20.6048 96.0362L19.4177 92.644C19.188 91.992 19.9514 91.4336 20.5304 91.8306L23.5353 93.8963C23.7941 94.0738 24.1402 94.0674 24.3925 93.8834L27.3328 91.7338C27.8989 91.3206 28.6752 91.8532 28.4681 92.5148L27.3845 95.9394C27.2907 96.2331 27.404 96.5527 27.6627 96.7302L30.6677 98.7959C31.2467 99.1929 30.9653 100.08 30.2569 100.09L26.5824 100.142C26.2654 100.145 25.9904 100.348 25.8966 100.642L24.813 104.067C24.6028 104.728 23.6518 104.741 23.4254 104.089Z" fill="#31D3DB"/>
<path fill-rule="evenodd" clip-rule="evenodd" d="M22.7785 103.443L21.5913 100.051C21.4878 99.7607 21.2064 99.5638 20.8894 99.5703L17.2149 99.6219C16.5065 99.6316 16.1992 98.7537 16.7653 98.3406L19.7056 96.1909C19.9579 96.007 20.0614 95.6842 19.9579 95.3905L18.7708 91.9982C18.5411 91.3462 19.3045 90.7878 19.8835 91.1848L22.8884 93.2505C23.1472 93.4281 23.4933 93.4216 23.7456 93.2376L26.6859 91.088C27.2519 90.6749 28.0283 91.2074 27.8212 91.8691L26.7376 95.2936C26.6438 95.5874 26.757 95.9069 27.0158 96.0844L30.0208 98.1501C30.5998 98.5471 30.3184 99.4347 29.61 99.4444L25.9354 99.4961C25.6185 99.4993 25.3435 99.7026 25.2497 99.9964L24.1661 103.421C23.9559 104.083 23.0049 104.095 22.7785 103.443Z" stroke="#383C42" stroke-width="1.25"/>
<path d="M22.7978 97.2109C22.7687 97.5853 22.9272 97.9275 23.2216 98.1663C23.5192 98.4052 23.9785 98.473 24.3505 98.3761" stroke="#404041" stroke-linecap="round" stroke-linejoin="round"/>
<path d="M23.2931 95.8167L24.0371 96.3751" stroke="#404041" stroke-linecap="round" stroke-linejoin="round"/>
<path d="M25.0847 97.1335L25.8286 97.6952" stroke="#404041" stroke-linecap="round" stroke-linejoin="round"/>
<path opacity="0.5" d="M49.3576 111.303H47.0934C47.0934 110.299 46.8605 109.844 46.5694 109.266C46.2265 108.592 45.7995 107.752 45.7995 106.21C45.7995 104.667 46.2265 103.828 46.5694 103.153C46.8637 102.575 47.0934 102.12 47.0934 101.116C47.0934 100.113 46.8605 99.6575 46.5694 99.0797C46.2265 98.4051 45.7995 97.566 45.7995 96.0231C45.7995 94.4803 46.2265 93.6411 46.5694 92.9665C46.8637 92.3888 47.0934 91.9337 47.0934 90.9299C47.0934 89.9261 46.8605 89.471 46.5694 88.8964C46.2265 88.2219 45.7995 87.3827 45.7995 85.8398C45.7995 84.297 46.2265 83.4578 46.5694 82.7832C46.8637 82.2055 47.0934 81.7504 47.0934 80.7466H49.3576C49.3576 82.2894 48.9306 83.1286 48.5878 83.8032C48.2934 84.3809 48.0638 84.836 48.0638 85.8398C48.0638 86.8436 48.2967 87.2987 48.5878 87.8733C48.9306 88.5479 49.3576 89.387 49.3576 90.9299C49.3576 92.4727 48.9306 93.3119 48.5878 93.9865C48.2934 94.5642 48.0638 95.0193 48.0638 96.0231C48.0638 97.0269 48.2967 97.482 48.5878 98.0598C48.9306 98.7344 49.3576 99.5736 49.3576 101.116C49.3576 102.659 48.9306 103.498 48.5878 104.173C48.2934 104.751 48.0638 105.206 48.0638 106.21C48.0638 107.213 48.2967 107.669 48.5878 108.246C48.9306 108.918 49.3576 109.76 49.3576 111.303Z" fill="#31D3DB"/>
<path opacity="0.5" d="M35.287 80.7434H37.5513C37.5513 81.7472 37.7841 82.2023 38.0753 82.7801C38.4181 83.4546 38.8451 84.2938 38.8451 85.8367C38.8451 87.3795 38.4181 88.2187 38.0753 88.8933C37.7809 89.471 37.5513 89.9261 37.5513 90.9299C37.5513 91.9337 37.7841 92.3888 38.0753 92.9666C38.4181 93.6412 38.8451 94.4803 38.8451 96.0232C38.8451 97.566 38.4181 98.4052 38.0753 99.0798C37.7809 99.6575 37.5513 100.113 37.5513 101.116C37.5513 102.12 37.7841 102.575 38.0753 103.15C38.4181 103.824 38.8451 104.664 38.8451 106.206C38.8451 107.749 38.4181 108.588 38.0753 109.263C37.7809 109.841 37.5513 110.296 37.5513 111.3H35.287C35.287 109.757 35.714 108.918 36.0569 108.243C36.3512 107.665 36.5809 107.21 36.5809 106.206C36.5809 105.203 36.348 104.748 36.0569 104.173C35.714 103.498 35.287 102.659 35.287 101.116C35.287 99.5736 35.714 98.7344 36.0569 98.0598C36.3512 97.4821 36.5809 97.027 36.5809 96.0232C36.5809 95.0194 36.348 94.5643 36.0569 93.9865C35.714 93.3119 35.287 92.4727 35.287 90.9299C35.287 89.3871 35.714 88.5479 36.0569 87.8733C36.3512 87.2956 36.5809 86.8405 36.5809 85.8367C36.5809 84.8329 36.348 84.3778 36.0569 83.8C35.714 83.1254 35.287 82.2862 35.287 80.7434Z" fill="#31D3DB"/>
<path opacity="0.5" d="M44.5091 111.303H42.2448C42.2448 110.299 42.0119 109.844 41.7208 109.266C41.378 108.592 40.951 107.752 40.951 106.21C40.951 104.667 41.378 103.828 41.7208 103.153C42.0152 102.575 42.2448 102.12 42.2448 101.116C42.2448 100.113 42.0119 99.6575 41.7208 99.0797C41.378 98.4051 40.951 97.566 40.951 96.0231C40.951 94.4803 41.378 93.6411 41.7208 92.9665C42.0152 92.3888 42.2448 91.9337 42.2448 90.9299C42.2448 89.9261 42.0119 89.471 41.7208 88.8964C41.378 88.2219 40.951 87.3827 40.951 85.8398C40.951 84.297 41.378 83.4578 41.7208 82.7832C42.0152 82.2055 42.2448 81.7504 42.2448 80.7466H44.5091C44.5091 82.2894 44.0821 83.1286 43.7392 83.8032C43.4449 84.3809 43.2152 84.836 43.2152 85.8398C43.2152 86.8436 43.4481 87.2987 43.7392 87.8733C44.0821 88.5479 44.5091 89.387 44.5091 90.9299C44.5091 92.4727 44.0821 93.3119 43.7392 93.9865C43.4449 94.5642 43.2152 95.0193 43.2152 96.0231C43.2152 97.0269 43.4481 97.482 43.7392 98.0598C44.0821 98.7344 44.5091 99.5736 44.5091 101.116C44.5091 102.659 44.0821 103.498 43.7392 104.173C43.4449 104.751 43.2152 105.206 43.2152 106.21C43.2152 107.213 43.4481 107.669 43.7392 108.246C44.0821 108.918 44.5091 109.76 44.5091 111.303Z" fill="#31D3DB"/>
<path fill-rule="evenodd" clip-rule="evenodd" d="M48.7107 111.948H46.4465C46.4465 110.945 46.2136 110.49 45.9225 109.912C45.5796 109.237 45.1526 108.398 45.1526 106.855C45.1526 105.312 45.5796 104.473 45.9225 103.799C46.2168 103.221 46.4465 102.766 46.4465 101.762C46.4465 100.758 46.2136 100.303 45.9225 99.7252C45.5796 99.0507 45.1526 98.2115 45.1526 96.6686C45.1526 95.1258 45.5796 94.2866 45.9225 93.612C46.2168 93.0343 46.4465 92.5792 46.4465 91.5754C46.4465 90.5716 46.2136 90.1165 45.9225 89.542C45.5796 88.8674 45.1526 88.0282 45.1526 86.4854C45.1526 84.9425 45.5796 84.1033 45.9225 83.4287C46.2168 82.851 46.4465 82.3959 46.4465 81.3921H48.7107C48.7107 82.9349 48.2837 83.7741 47.9409 84.4487C47.6465 85.0264 47.4169 85.4815 47.4169 86.4854C47.4169 87.4892 47.6497 87.9443 47.9409 88.5188C48.2837 89.1934 48.7107 90.0326 48.7107 91.5754C48.7107 93.1182 48.2837 93.9574 47.9409 94.632C47.6465 95.2097 47.4169 95.6648 47.4169 96.6686C47.4169 97.6725 47.6497 98.1276 47.9409 98.7053C48.2837 99.3799 48.7107 100.219 48.7107 101.762C48.7107 103.305 48.2837 104.144 47.9409 104.819C47.6465 105.396 47.4169 105.851 47.4169 106.855C47.4169 107.859 47.6497 108.314 47.9409 108.892C48.2837 109.563 48.7107 110.406 48.7107 111.948Z" stroke="#383C42" stroke-width="1.25" stroke-linejoin="round"/>
<path fill-rule="evenodd" clip-rule="evenodd" d="M34.6401 81.3889H36.9043C36.9043 82.3927 37.1372 82.8478 37.4283 83.4256C37.7712 84.1002 38.1982 84.9394 38.1982 86.4822C38.1982 88.025 37.7712 88.8642 37.4283 89.5388C37.134 90.1165 36.9043 90.5716 36.9043 91.5754C36.9043 92.5792 37.1372 93.0343 37.4283 93.6121C37.7712 94.2867 38.1982 95.1259 38.1982 96.6687C38.1982 98.2115 37.7712 99.0507 37.4283 99.7253C37.134 100.303 36.9043 100.758 36.9043 101.762C36.9043 102.766 37.1372 103.221 37.4283 103.795C37.7712 104.47 38.1982 105.309 38.1982 106.852C38.1982 108.395 37.7712 109.234 37.4283 109.909C37.134 110.486 36.9043 110.941 36.9043 111.945H34.6401C34.6401 110.402 35.067 109.563 35.4099 108.889C35.7043 108.311 35.9339 107.856 35.9339 106.852C35.9339 105.848 35.701 105.393 35.4099 104.819C35.067 104.144 34.6401 103.305 34.6401 101.762C34.6401 100.219 35.067 99.3799 35.4099 98.7054C35.7043 98.1276 35.9339 97.6725 35.9339 96.6687C35.9339 95.6649 35.701 95.2098 35.4099 94.632C35.067 93.9575 34.6401 93.1183 34.6401 91.5754C34.6401 90.0326 35.067 89.1934 35.4099 88.5188C35.7043 87.9411 35.9339 87.486 35.9339 86.4822C35.9339 85.4784 35.701 85.0233 35.4099 84.4455C35.067 83.7709 34.6401 82.9317 34.6401 81.3889Z" stroke="#383C42" stroke-width="1.25" stroke-linejoin="round"/>
<path fill-rule="evenodd" clip-rule="evenodd" d="M43.8622 111.948H41.5979C41.5979 110.945 41.365 110.49 41.0739 109.912C40.731 109.237 40.3041 108.398 40.3041 106.855C40.3041 105.312 40.731 104.473 41.0739 103.799C41.3683 103.221 41.5979 102.766 41.5979 101.762C41.5979 100.758 41.365 100.303 41.0739 99.7252C40.731 99.0507 40.3041 98.2115 40.3041 96.6686C40.3041 95.1258 40.731 94.2866 41.0739 93.612C41.3683 93.0343 41.5979 92.5792 41.5979 91.5754C41.5979 90.5716 41.365 90.1165 41.0739 89.542C40.731 88.8674 40.3041 88.0282 40.3041 86.4854C40.3041 84.9425 40.731 84.1033 41.0739 83.4287C41.3683 82.851 41.5979 82.3959 41.5979 81.3921H43.8622C43.8622 82.9349 43.4352 83.7741 43.0923 84.4487C42.798 85.0264 42.5683 85.4815 42.5683 86.4854C42.5683 87.4892 42.8012 87.9443 43.0923 88.5188C43.4352 89.1934 43.8622 90.0326 43.8622 91.5754C43.8622 93.1182 43.4352 93.9574 43.0923 94.632C42.798 95.2097 42.5683 95.6648 42.5683 96.6686C42.5683 97.6725 42.8012 98.1276 43.0923 98.7053C43.4352 99.3799 43.8622 100.219 43.8622 101.762C43.8622 103.305 43.4352 104.144 43.0923 104.819C42.798 105.396 42.5683 105.851 42.5683 106.855C42.5683 107.859 42.8012 108.314 43.0923 108.892C43.4352 109.563 43.8622 110.406 43.8622 111.948Z" stroke="#383C42" stroke-width="1.25" stroke-linejoin="round"/>
<path d="M141.15 73.5777C143.33 71.4023 143.33 67.8712 141.15 65.6958C138.966 63.5171 135.431 63.5171 133.251 65.6958L130.178 68.7621C129.693 69.2462 129.693 70.0305 130.178 70.5147L136.32 76.6472C136.805 77.1314 137.591 77.1314 138.077 76.6472L141.15 73.5777Z" fill="#98E9ED"/>
<path d="M139.937 65.941C138.426 64.4337 135.978 64.4337 134.467 65.941" stroke="#31D3DB" stroke-width="1.25" stroke-linecap="round" stroke-linejoin="round"/>
<path fill-rule="evenodd" clip-rule="evenodd" d="M141.15 72.6095C143.33 70.434 143.33 66.903 141.15 64.7275C138.966 62.5488 135.431 62.5488 133.251 64.7275L130.178 67.7938C129.693 68.2779 129.693 69.0623 130.178 69.5464L136.32 75.679C136.805 76.1631 137.591 76.1631 138.077 75.679L141.15 72.6095Z" stroke="#31D3DB" stroke-width="1.25" stroke-linecap="round" stroke-linejoin="round"/>
<path d="M132.999 72.3577C132.999 72.3577 132.051 74.4169 130.835 75.6305C129.618 76.8441 128.428 76.9184 126.947 78.3966" fill="white"/>
<path d="M132.999 72.3577C132.999 72.3577 132.051 74.4169 130.835 75.6305C129.618 76.8441 128.428 76.9184 126.947 78.3966" stroke="black" stroke-width="1.25"/>
<path d="M134.82 74.178C134.82 74.178 133.872 76.2372 132.656 77.4476C131.439 78.6612 130.249 78.7354 128.768 80.2137" fill="white"/>
<path d="M134.82 74.178C134.82 74.178 133.872 76.2372 132.656 77.4476C131.439 78.6612 130.249 78.7354 128.768 80.2137" stroke="black" stroke-width="1.25"/>
<path d="M131.174 70.5374C131.174 70.5374 130.226 72.5966 129.01 73.8102C127.794 75.0238 126.603 75.0981 125.122 76.5763" fill="white"/>
<path d="M131.174 70.5374C131.174 70.5374 130.226 72.5966 129.01 73.8102C127.794 75.0238 126.603 75.0981 125.122 76.5763" stroke="black" stroke-width="1.25"/>
<path fill-rule="evenodd" clip-rule="evenodd" d="M47.8018 53.4051C49.0862 53.4051 50.1275 52.3661 50.1275 51.0844C50.1275 49.8027 49.0862 48.7637 47.8018 48.7637C46.5173 48.7637 45.4761 49.8027 45.4761 51.0844C45.4761 52.3661 46.5173 53.4051 47.8018 53.4051Z" fill="white" fill-opacity="0.501961" stroke="#31D3DB" stroke-width="1.25"/>
<path fill-rule="evenodd" clip-rule="evenodd" d="M43.5579 39.2872C44.3297 39.2872 44.9553 38.663 44.9553 37.8929C44.9553 37.1228 44.3297 36.4985 43.5579 36.4985C42.7862 36.4985 42.1606 37.1228 42.1606 37.8929C42.1606 38.663 42.7862 39.2872 43.5579 39.2872Z" fill="white" fill-opacity="0.501961" stroke="#31D3DB" stroke-width="1.25"/>
<path fill-rule="evenodd" clip-rule="evenodd" d="M39.5892 49.3735C41.8367 49.3735 43.6584 47.5557 43.6584 45.3131C43.6584 43.0705 41.8367 41.2527 39.5892 41.2527C37.3421 41.2527 35.5201 43.0705 35.5201 45.3131C35.5201 47.5557 37.3421 49.3735 39.5892 49.3735Z" fill="white" fill-opacity="0.501961" stroke="#31D3DB" stroke-width="1.25"/>
<path fill-rule="evenodd" clip-rule="evenodd" d="M36.9916 20.5359C38.4392 16.6899 35.0549 12.7736 30.6811 13.1743C29.2618 9.45054 25.4223 6.77808 20.893 6.77808C15.162 6.77808 10.5139 11.0535 10.5139 16.3308C5.25792 16.3308 1 20.2757 1 25.1106C1 29.9455 5.25792 33.8905 10.5139 33.8905H33.0023C37.2998 33.8905 40.7859 30.6611 40.7859 26.7032C40.7887 24.0906 39.262 21.7876 36.9916 20.5359Z" fill="white" stroke="#31D3DB" stroke-width="1.25"/>
</svg>
