<!--

    Copyright (C) 2017-2019 Dremio Corporation

    Licensed under the Apache License, Version 2.0 (the "License");
    you may not use this file except in compliance with the License.
    You may obtain a copy of the License at

        http://www.apache.org/licenses/LICENSE-2.0

    Unless required by applicable law or agreed to in writing, software
    distributed under the License is distributed on an "AS IS" BASIS,
    WITHOUT WARRANTIES OR CONDITIONS OF ANY KIND, either express or implied.
    See the License for the specific language governing permissions and
    limitations under the License.

-->
<svg id="vcs/branch" viewBox="0 0 24 24" fill="none"
  xmlns="http://www.w3.org/2000/svg">
  <path fill-rule="evenodd" clip-rule="evenodd" d="M10 5.5C10 7.17556 8.82259 8.57612 7.25 8.91946V15.0805C8.58097 15.3711 9.62887 16.419 9.91946 17.75H14.6667C15.4938 17.75 16.0642 17.5454 16.4668 17.277C16.874 17.0055 17.1549 16.6381 17.35 16.2479C17.5466 15.8548 17.6486 15.4526 17.7003 15.1423C17.7259 14.989 17.7384 14.8628 17.7444 14.7779C17.7474 14.7356 17.7488 14.704 17.7495 14.6847C17.7498 14.6751 17.7499 14.6687 17.75 14.6656L17.75 14.6643V13.9195C16.1774 13.5761 15 12.1756 15 10.5C15 8.567 16.567 7 18.5 7C20.433 7 22 8.567 22 10.5C22 12.1756 20.8226 13.5761 19.25 13.9195V14.6667H18.5C19.25 14.6667 19.25 14.667 19.25 14.6674L19.25 14.6703L19.25 14.6754C19.2499 14.6793 19.2499 14.6841 19.2498 14.6898C19.2496 14.7012 19.2493 14.7162 19.2486 14.7347C19.2474 14.7716 19.2451 14.8223 19.2406 14.8848C19.2317 15.0096 19.2142 15.1829 19.1799 15.3889C19.1118 15.7974 18.9743 16.3535 18.6917 16.9187C18.4076 17.4869 17.9697 18.0778 17.2988 18.5251C16.6233 18.9755 15.7562 19.25 14.6667 19.25H9.91946C9.57612 20.8226 8.17556 22 6.5 22C4.567 22 3 20.433 3 18.5C3 16.8244 4.17741 15.4239 5.75 15.0805V8.91946C4.17741 8.57612 3 7.17556 3 5.5C3 3.567 4.567 2 6.5 2C8.433 2 10 3.567 10 5.5ZM6.5 7.5C7.60457 7.5 8.5 6.60457 8.5 5.5C8.5 4.39543 7.60457 3.5 6.5 3.5C5.39543 3.5 4.5 4.39543 4.5 5.5C4.5 6.60457 5.39543 7.5 6.5 7.5ZM6.5 20.5C7.60457 20.5 8.5 19.6046 8.5 18.5C8.5 17.3954 7.60457 16.5 6.5 16.5C5.39543 16.5 4.5 17.3954 4.5 18.5C4.5 19.6046 5.39543 20.5 6.5 20.5ZM20.5 10.5C20.5 11.6046 19.6046 12.5 18.5 12.5C17.3954 12.5 16.5 11.6046 16.5 10.5C16.5 9.39543 17.3954 8.5 18.5 8.5C19.6046 8.5 20.5 9.39543 20.5 10.5Z" fill="currentColor"/>
</svg>
