<svg xmlns="http://www.w3.org/2000/svg" fill="none" viewBox="0 0 60 60"><path fill="#004061" d="M11.7606 42.8513c2.6579 0 4.8201-2.1623 4.8201-4.8203 0-2.6579-2.1622-4.8203-4.8201-4.8203-2.65798 0-4.82017 2.1624-4.82017 4.8203 0 2.658 2.16219 4.8203 4.82017 4.8203Zm2.8928-4.8203c0 1.5953-1.2975 2.893-2.8928 2.893-1.5953 0-2.89287-1.2977-2.89287-2.893 0-1.5953 1.29757-2.893 2.89287-2.893s2.8928 1.2977 2.8928 2.893ZM16.4228 44.5411H7.09868C4.28716 44.5411 2 46.8283 2 49.6398v3.899c0 .8142.6625 1.4764 1.47671 1.4764H20.0447c.8142 0 1.4763-.6622 1.4763-1.4764v-3.899c0-2.8115-2.2871-5.0987-5.0982-5.0987Zm3.171 8.5468H3.92729v-3.4481c0-1.7489 1.42251-3.1714 3.17139-3.1714h9.32412c1.7484 0 3.171 1.4225 3.171 3.1714v3.4481ZM48.2396 42.8513c2.6579 0 4.8201-2.1623 4.8201-4.8203 0-2.6579-2.1622-4.8203-4.8201-4.8203-2.658 0-4.8202 2.1624-4.8202 4.8203 0 2.658 2.1622 4.8203 4.8202 4.8203Zm2.8928-4.8203c0 1.5953-1.2975 2.893-2.8928 2.893-1.5953 0-2.8929-1.2977-2.8929-2.893 0-1.5953 1.2976-2.893 2.8929-2.893s2.8928 1.2977 2.8928 2.893ZM52.9018 44.5411h-9.3241c-2.8115 0-5.0987 2.2872-5.0987 5.0987v3.899c0 .8142.6625 1.4764 1.4767 1.4764h16.568c.8142 0 1.4763-.6622 1.4763-1.4764v-3.899c0-2.8115-2.2871-5.0987-5.0982-5.0987Zm3.171 8.5468H40.4063v-3.4481c0-1.7489 1.4225-3.1714 3.1714-3.1714h9.3241c1.7484 0 3.171 1.4225 3.171 3.1714v3.4481ZM29.9998 14.4406c2.658 0 4.8202-2.1623 4.8202-4.82028C34.82 6.96238 32.6578 4.8 29.9998 4.8c-2.6579 0-4.8201 2.16238-4.8201 4.82032 0 2.65798 2.1622 4.82028 4.8201 4.82028Zm2.8929-4.82028c0 1.59528-1.2976 2.89298-2.8929 2.89298s-2.8928-1.2977-2.8928-2.89298c0-1.59529 1.2975-2.89302 2.8928-2.89302 1.5953 0 2.8929 1.29773 2.8929 2.89302ZM34.662 16.1304h-9.3241c-2.8115 0-5.0986 2.2872-5.0986 5.0987v3.899c0 .8142.6625 1.4764 1.4767 1.4764h16.568c.8141 0 1.4763-.6622 1.4763-1.4764v-3.899c0-2.8115-2.2872-5.0987-5.0983-5.0987Zm3.171 8.5468H22.1666v-3.4481c0-1.7489 1.4225-3.1714 3.1713-3.1714h9.3241c1.7485 0 3.171 1.4225 3.171 3.1714v3.4481Z"/><path fill="#167A89" d="M36.1078 29.3376H23.8926c-.9474 0-1.7154.768-1.7154 1.7153v12.2152c0 .9474.768 1.7154 1.7154 1.7154h12.2152c.9474 0 1.7154-.768 1.7154-1.7154V31.0529c0-.9473-.768-1.7153-1.7154-1.7153Z"/><path fill="#fff" d="M30.8647 41.7833v-9.2455h-1.9272v9.2455h1.9272Z"/><path fill="#fff" d="M34.5238 36.1969h-9.2455v1.9273h9.2455v-1.9273Z"/></svg>
