<svg xmlns="http://www.w3.org/2000/svg" fill="none" viewBox="0 0 60 60"><path fill="#004061" d="M53.8475 13.0507c.1468.3149.229.6358.229.9625 0 .6861-.3407 1.3485-.9645 1.9756V46.004c0 1.0636-1.669 2.6892-6.3534 4.0621-4.4574 1.3065-10.4023 2.026-16.7394 2.026-14.3073 0-23.09256-3.5459-23.09256-6.0881V15.9863c-.62209-.6263-.962-1.2879-.962-1.9731 0-.3267.08219-.6476.229-.9625H5V46.004c0 5.2057 12.8904 8.0147 25.0192 8.0147 12.1289 0 25.0195-2.809 25.0195-8.0147V13.0507h-1.1912Z"/><path fill="#004061" d="M30.0207 22.0263c-12.1288 0-25.01924-2.8083-25.01924-8.0131C5.00146 8.80849 17.8919 6 30.0207 6S55.04 8.80849 55.04 14.0132c0 5.2048-12.8905 8.0131-25.0193 8.0131Zm0-14.09966c-6.3365 0-12.2812.71948-16.7392 2.02599-4.68433 1.37287-6.35339 2.99777-6.35339 4.06057 0 2.5416 8.78519 6.0865 23.09259 6.0865 6.3365 0 12.2812-.7195 16.7392-2.026 4.6844-1.3727 6.3534-2.9976 6.3534-4.0605 0-2.5415-8.7852-6.08656-23.0926-6.08656Z"/><path fill="#004061" fill-rule="evenodd" d="M41.03 40.638c-3.3508.5152-7.1065.7883-11.0108.7883-4.1692 0-7.8695-.3009-11.0202-.7903v1.9306c3.48.5202 7.2862.7864 11.0202.7864 3.7306 0 7.5333-.2657 11.0108-.7849V40.638Zm1.9266 1.6099v-1.9415c1.3568-.2598 2.6308-.5625 3.8022-.9057 4.6842-1.3723 6.3532-2.9964 6.3532-4.0587h1.9267c0 3.3015-5.1899 5.6386-12.0821 6.9059Zm-25.8842-.0017v-1.9453C10.603 39.0487 6.92664 36.9854 6.92664 35.342H5c0 3.3 5.185 5.6364 12.0724 6.9042ZM41.03 29.9748c-3.3506.5151-7.1058.7882-11.0098.7882-4.1697 0-7.8703-.301-11.0212-.7904v1.9306c3.4803.5203 7.2869.7864 11.0212.7864 3.7303 0 7.5326-.2656 11.0098-.7847v-1.9301Zm1.9266 1.61v-1.9415c1.3572-.2598 2.6315-.5626 3.8032-.9059 4.6842-1.3724 6.3532-2.9965 6.3532-4.0588h1.9267c0 3.3017-5.1905 5.6389-12.0831 6.9062Zm-25.8842-.0021c-6.8869-1.2678-12.07142-3.6042-12.07142-6.9041h1.92664c0 1.6434 3.67598 3.7066 10.14478 4.9588v1.9453Z" clip-rule="evenodd"/><path fill="#167A89" d="M20.7169 24.1104H39.443c1.4436 0 2.6156 1.1721 2.6156 2.6157v18.7262c0 1.4436-1.172 2.6157-2.6156 2.6157H20.7169c-1.4437 0-2.6158-1.1722-2.6158-2.6159V26.7263c0-1.4438 1.1721-2.6159 2.6158-2.6159Z"/><path fill="#fff" fill-rule="evenodd" d="M29.0347 42.9915V29.1197h2.1674v13.8718h-2.1674Z" clip-rule="evenodd"/><path fill="#fff" fill-rule="evenodd" d="M23.1106 35.0441h13.8718v2.1675H23.1106v-2.1675Z" clip-rule="evenodd"/></svg>
