<svg xmlns="http://www.w3.org/2000/svg" fill="none" viewBox="0 0 60 60"><path fill="#004061" fill-rule="evenodd" d="M6.6958 20.5238h47.5473v2H6.6958v-2ZM6.6958 28.3691h47.5473v2H6.6958v-2ZM6.6958 36.2143h47.5473v2H6.6958v-2ZM6.6958 44.0595h47.5473v2H6.6958v-2Z" clip-rule="evenodd"/><path fill="#004061" d="M53.144 51.7656c0 .1625-.1321.2945-.2946.2945H7.49473c-.1625 0-.29453-.132-.29453-.2945V14.9098H53.144v7.607h2V9.99331c0-1.35859-1.1051-2.46367-2.4633-2.46367H7.66348c-1.35821 0-2.46328 1.10508-2.46328 2.46367V51.7656c0 1.2652 1.02929 2.2945 2.29453 2.2945H52.8494c1.2653 0 2.2946-1.0293 2.2946-2.2945v-7.7081h-2v7.7081ZM19.8332 11.4394c0 .7319-.5934 1.3252-1.3253 1.3252-.7319 0-1.3252-.5933-1.3252-1.3252 0-.7319.5933-1.3252 1.3252-1.3252.7319 0 1.3253.5933 1.3253 1.3252Zm-4.5599 0c0 .7319-.5933 1.3252-1.3252 1.3252-.7319 0-1.3252-.5933-1.3252-1.3252 0-.7319.5933-1.3252 1.3252-1.3252.7319 0 1.3252.5933 1.3252 1.3252Zm-5.93873-1.3252c.73193 0 1.32523.5933 1.32523 1.3252 0 .7319-.5933 1.3252-1.32523 1.3252-.73188 0-1.32519-.5933-1.32519-1.3252 0-.7319.59331-1.3252 1.32519-1.3252Z"/><path fill="#004061" fill-rule="evenodd" d="M16.9219 14.9098v38.5078h-2V14.9098h2ZM7.34131 14.9098v38.5078h-2V14.9098h2ZM26.502 14.9098v38.5078h-2V14.9098h2ZM36.082 14.9098v38.5078h-2V14.9098h2ZM45.6626 14.9098v38.5078h-2V14.9098h2ZM55.2432 14.9098v38.5078h-2V14.9098h2Z" clip-rule="evenodd"/><path fill="#004061" d="M7.13525 9.6H21.5353v3.6H7.13525V9.6Z"/><rect width="37" height="24" x="3" y="33" fill="#167A89" rx="2"/><path fill="#fff" d="M9.864 37.348c.384 0 .7093.0507.976.152.2667.0987.5133.2413.74.428l-.556.66c-.1573-.1333-.3307-.2347-.52-.304-.1867-.0693-.3867-.104-.6-.104-.256 0-.492.068-.708.204-.21333.136-.38533.3547-.516.656-.128.2987-.192.6933-.192 1.184 0 .4827.06133.8733.184 1.172.12533.2987.29467.5173.508.656.216.136.46.204.732.204.288 0 .5267-.0507.716-.152.1893-.1013.36-.212.512-.332l.516.652c-.1947.192-.4387.356-.732.492-.2907.136-.644.204-1.06.204-.48267 0-.91333-.1107-1.292-.332-.37867-.2213-.676-.5467-.892-.976-.216-.4293-.324-.9587-.324-1.588 0-.6187.11067-1.1413.332-1.568.224-.4293.52533-.7547.904-.976.38133-.2213.80533-.332 1.272-.332Zm6.3569 1.756c0 .2667-.0534.5-.16.7-.104.2-.2467.368-.428.504-.1787.136-.38.2413-.604.316L16.5449 43h-1.256l-1.308-2.204h-.504V43h-1.092v-5.532h1.628c.728 0 1.2773.1347 1.648.404.3733.2693.56.68.56 1.232Zm-1.136 0c0-.2987-.0867-.5133-.26-.644-.1734-.1333-.4347-.2-.784-.2h-.564v1.76h.6c.3226 0 .5706-.072.744-.216.176-.144.264-.3773.264-.7Zm3.4409-.828v1.516h1.96v.796h-1.96v1.608h2.38V43h-3.476v-5.532h3.448l-.112.808h-2.24Zm6.1608 3.456h-1.82L22.5226 43h-1.132l1.732-5.532h1.344L26.1946 43h-1.164l-.344-1.268Zm-1.624-.82h1.42l-.708-2.624-.712 2.624Zm6.0609-2.584V43h-1.092v-4.672h-1.616v-.86h4.372l-.112.86h-1.552Zm3.7929-.052v1.516h1.96v.796h-1.96v1.608h2.38V43h-3.476v-5.532h3.448l-.112.808h-2.24ZM9.42 52.06l1.2-4.592h1.12L10.052 53H8.748l-1.68-5.532h1.164L9.42 52.06Zm6.4969-4.592v.82h-1.172v3.892h1.172V53h-3.44v-.82h1.172v-3.892h-1.172v-.82h3.44Zm2.6089.808v1.516h1.96v.796h-1.96v1.608h2.38V53h-3.476v-5.532h3.448l-.112.808h-2.24Zm7.6688-.808L25.4786 53h-1.204l-.484-4.032-.512 4.032h-1.228l-.664-5.532h1.044l.328 4.536.528-3.896h1.032l.5 3.896.408-4.536h.968Z"/></svg>
