<svg xmlns="http://www.w3.org/2000/svg" fill="none" viewBox="0 0 60 60"><path fill="#004061" d="M48.2888 26.5674c-.006-.0214-.0184-.0429-.0276-.0644-.0152-.0429-.0304-.0858-.052-.1257-.0152-.0245-.0336-.046-.052-.0675-.0248-.0337-.046-.0644-.0736-.095-.0216-.0215-.0492-.0399-.0736-.0583-.0276-.0215-.0524-.046-.0828-.0644-.0032 0-.0064 0-.0124-.0061-.0032 0-.006-.0062-.0092-.0062l-17.1488-9.433c-.2392-.1319-.5244-.1319-.7636 0L12.9241 26.04c-.0399.0153-.0828.0276-.1196.0521-.2423.1411-.3895.4017-.3895.6808v18.8079c0 .2882.1564.555.411.693l17.1488 9.433c.1196.0644.2514.0983.3833.0983h.0184c.1319 0 .2637-.0339.3833-.0983l17.149-9.433c.2544-.138.4108-.4048.4108-.693V26.7729c0-.0705-.0092-.1411-.0276-.2085l-.0032.003ZM29.5638 53.68l-15.5633-8.5623V28.113l15.5633 8.5622V53.68Zm17.1672-8.5623L31.1677 53.68V36.6782l15.5633-8.5621v17.0016Z"/><path fill="#fff" d="m45.8834 26.7771-15.508 8.528-15.496-8.532 15.496-8.528 15.508 8.532ZM30 16.9626 13.2766 26.159l-8.0393-4.6004 16.7104-9.1963L30 16.9626Z"/><path fill="#004061" fill-opacity=".6" d="M30 16.9626 13.2766 26.159l-8.0393-4.6004 16.7104-9.1963L30 16.9626Z"/><path fill="#004061" fill-rule="evenodd" d="M21.5622 11.6616c.2441-.1343.5406-.132.7826.0063l8.0523 4.6003c.2513.1436.4054.4117.4031.7011-.0024.2895-.1609.5551-.4145.6945l-16.7234 9.1964c-.2442.1343-.5408.1318-.7828-.0067l-8.03933-4.6003c-.25109-.1437-.40505-.4117-.40264-.701.00241-.2893.16081-.5547.41425-.6942l16.71042-9.1964ZM6.87203 21.5724l6.41257 3.6695 15.0796-8.2924-6.4236-3.6698-15.06857 8.2927Z" clip-rule="evenodd"/><path fill="#fff" d="M43.3884 17.9844v4.1298c0 1.2877-2.644 2.3315-5.9051 2.3315-3.2612 0-5.9052-1.0438-5.9052-2.3315v-4.1298h.16c.6172 1.0286 2.9564 1.7906 5.7452 1.7906 2.7887 0 5.1279-.762 5.7451-1.7906h.16Z"/><path fill="#004061" fill-rule="evenodd" d="M30.7778 17.1846h1.413l.233.3884c.1512.2519.6457.6243 1.6131.9297.9199.2905 2.1188.4725 3.4461.4725 1.3272 0 2.5261-.182 3.446-.4725.9674-.3054 1.4619-.6778 1.6131-.9297l.233-.3884h1.413v4.9298c0 .6167-.3198 1.1205-.7182 1.4923-.3971.3707-.9282.6677-1.5176.9004-1.1836.4674-2.7641.7388-4.4693.7388-1.7053 0-3.2857-.2714-4.4693-.7388-.5895-.2327-1.1206-.5297-1.5177-.9004-.3983-.3718-.7182-.8756-.7182-1.4923v-4.9298Zm1.6 2.3625v2.5673c0 .0271.0107.1367.21.3227.2006.1872.5343.3926 1.0135.5818.9536.3766 2.3257.627 3.8817.627 1.5559 0 2.928-.2504 3.8817-.627.4792-.1892.8129-.3946 1.0134-.5818.1993-.186.21-.2956.21-.3227V19.547c-.3639.1922-.7653.3514-1.1774.4815-1.1012.3477-2.4662.5467-3.9277.5467-1.4616 0-2.8266-.199-3.9278-.5467-.4121-.1301-.8135-.2893-1.1774-.4814Z" clip-rule="evenodd"/><path fill="#167A89" d="M43.3884 22.1143v3.7412c0 1.2877-2.644 2.3315-5.9051 2.3315-3.2612 0-5.9052-1.0438-5.9052-2.3315v-3.7412c0 1.2877 2.644 2.3315 5.9052 2.3315 3.2611 0 5.9051-1.0438 5.9051-2.3315Z"/><path fill="#004061" fill-rule="evenodd" d="M32.3778 24.2169v1.6386c0 .027.0107.1367.21.3227.2006.1872.5343.3926 1.0135.5818.9536.3766 2.3257.627 3.8817.627 1.5559 0 2.928-.2504 3.8817-.627.4792-.1892.8129-.3946 1.0134-.5818.1993-.186.21-.2957.21-.3227v-1.6386c-.201.1061-.4143.2027-.6358.2901-1.1836.4674-2.7641.7388-4.4693.7388-1.7053 0-3.2857-.2714-4.4693-.7388-.2216-.0874-.4348-.184-.6359-.2901Zm-1.6-2.1026v3.7412c0 .6167.3199 1.1205.7182 1.4923.3971.3707.9282.6677 1.5177.9004 1.1836.4673 2.764.7388 4.4693.7388 1.7052 0 3.2857-.2715 4.4693-.7388.5894-.2327 1.1205-.5297 1.5176-.9004.3984-.3718.7182-.8756.7182-1.4923v-3.7412h-1.6c0 .0271-.0107.1367-.21.3227-.2005.1872-.5342.3926-1.0134.5818-.9537.3766-2.3258.627-3.8817.627-1.556 0-2.9281-.2504-3.8817-.627-.4792-.1892-.8129-.3946-1.0135-.5818-.1993-.186-.21-.2956-.21-.3227h-1.6Z" clip-rule="evenodd"/><path fill="#fff" d="M29.1985 17.9844v4.1298c0 1.2877-2.644 2.3315-5.9052 2.3315-3.2611 0-5.9051-1.0438-5.9051-2.3315v-4.1298h.1638c.6134 1.0286 2.9526 1.7906 5.7413 1.7906 2.7888 0 5.128-.762 5.7413-1.7906h.1639Z"/><path fill="#004061" fill-rule="evenodd" d="M16.5884 17.1846h1.4182l.2327.3903c.1492.2502.6414.6223 1.6088.9279.9192.2904 2.1182.4724 3.4454.4724 1.3273 0 2.5262-.182 3.4455-.4724.9673-.3056 1.4595-.6777 1.6087-.9279l.2327-.3903h1.4183v4.9298c0 .6167-.3199 1.1205-.7182 1.4923-.3971.3707-.9283.6677-1.5177.9004-1.1836.4674-2.7641.7388-4.4693.7388-1.7052 0-3.2857-.2714-4.4693-.7388-.5894-.2327-1.1205-.5297-1.5176-.9004-.3984-.3718-.7182-.8756-.7182-1.4923v-4.9298Zm1.6 2.3618v2.568c0 .0271.0107.1367.21.3227.2005.1872.5342.3926 1.0134.5818.9537.3766 2.3258.627 3.8817.627 1.5559 0 2.928-.2504 3.8817-.627.4792-.1892.8129-.3946 1.0135-.5818.1993-.186.21-.2956.21-.3227v-2.568c-.364.1925-.7657.3519-1.1778.4821-1.1008.3477-2.4659.5467-3.9274.5467s-2.8265-.199-3.9274-.5467c-.4121-.1302-.8137-.2896-1.1777-.4821Z" clip-rule="evenodd"/><path fill="#167A89" d="M29.1985 22.1143v3.7412c0 1.2877-2.644 2.3315-5.9052 2.3315-3.2611 0-5.9051-1.0438-5.9051-2.3315v-3.7412c0 1.2877 2.644 2.3315 5.9051 2.3315 3.2612 0 5.9052-1.0438 5.9052-2.3315Z"/><path fill="#004061" fill-rule="evenodd" d="M18.1884 24.2169v1.6386c0 .027.0107.1367.21.3227.2005.1872.5342.3926 1.0134.5818.9537.3766 2.3258.627 3.8817.627 1.5559 0 2.928-.2504 3.8817-.627.4792-.1892.8129-.3946 1.0135-.5818.1993-.186.21-.2957.21-.3227v-1.6386c-.2011.1061-.4144.2027-.6359.2901-1.1836.4674-2.7641.7388-4.4693.7388-1.7052 0-3.2857-.2714-4.4693-.7388-.2215-.0874-.4348-.184-.6358-.2901Zm-1.6-2.1026v3.7412c0 .6167.3198 1.1205.7182 1.4923.3971.3707.9282.6677 1.5176.9004 1.1836.4673 2.7641.7388 4.4693.7388 1.7052 0 3.2857-.2715 4.4693-.7388.5894-.2327 1.1206-.5297 1.5177-.9004.3983-.3718.7182-.8756.7182-1.4923v-3.7412h-1.6c0 .0271-.0107.1367-.21.3227-.2006.1872-.5343.3926-1.0135.5818-.9537.3766-2.3258.627-3.8817.627-1.5559 0-2.928-.2504-3.8817-.627-.4792-.1892-.8129-.3946-1.0134-.5818-.1993-.186-.21-.2956-.21-.3227h-1.6Z" clip-rule="evenodd"/><path fill="#167A89" d="M29.1985 17.4437c0 .1867-.0572.3695-.1639.541-.6133 1.0286-2.9525 1.7906-5.7413 1.7906-2.7887 0-5.1279-.762-5.7413-1.7906-.1067-.1715-.1638-.3543-.1638-.541 0-1.2915 2.644-2.3392 5.9051-2.3392 3.2612 0 5.9052 1.0477 5.9052 2.3392ZM43.4104 17.4437c0 .1867-.0572.3695-.1638.541-.6134 1.0286-2.9526 1.7906-5.7414 1.7906-2.7887 0-5.1279-.762-5.7413-1.7906-.1066-.1715-.1638-.3543-.1638-.541 0-1.2915 2.644-2.3392 5.9051-2.3392 3.2612 0 5.9052 1.0477 5.9052 2.3392Z"/><path fill="#004061" fill-rule="evenodd" d="M18.3993 17.1165c-.1993.1866-.2109.2974-.2109.3264 0 .018.0044.0563.0431.1184l.004.0064.0038.0065c.1492.2502.6414.6223 1.6088.9279.9192.2904 2.1182.4724 3.4454.4724 1.3273 0 2.5262-.182 3.4455-.4724.9673-.3056 1.4595-.6777 1.6087-.9279l.0039-.0065.004-.0064c.0386-.0621.0431-.1005.0431-.1184 0-.029-.0116-.1398-.211-.3264-.2006-.1879-.5343-.394-1.0133-.5837-.9535-.3778-2.3253-.6291-3.8809-.6291s-2.9274.2513-3.8808.6291c-.4791.1897-.8128.3958-1.0134.5837Zm.4241-2.0713c1.1838-.469 2.7646-.7415 4.4701-.7415 1.7055 0 3.2863.2725 4.4702.7415.5896.2336 1.1207.5316 1.5177.9034.3984.3731.7173.8775.7173 1.4943 0 .3527-.1083.6778-.2806.9572-.4657.7748-1.4473 1.296-2.4972 1.6277-1.1008.3477-2.4659.5467-3.9274.5467s-2.8265-.199-3.9274-.5467c-1.0499-.3317-2.0314-.8529-2.4972-1.6277-.1723-.2794-.2805-.6045-.2805-.9572 0-.6168.3189-1.1212.7172-1.4943.397-.3718.9282-.6698 1.5178-.9034ZM32.6107 17.1165c-.1993.1866-.2109.2974-.2109.3264 0 .018.0044.0563.0431.1184l.004.0064.0038.0065c.1493.2502.6415.6223 1.6088.9279.9193.2904 2.1182.4724 3.4454.4724 1.3273 0 2.5262-.182 3.4455-.4724.9673-.3056 1.4595-.6777 1.6087-.9279l.0039-.0065.004-.0064c.0386-.0621.0431-.1005.0431-.1184 0-.029-.0116-.1398-.2109-.3264-.2007-.1879-.5344-.394-1.0134-.5837-.9534-.3778-2.3252-.6291-3.8809-.6291-1.5556 0-2.9274.2513-3.8808.6291-.4791.1897-.8127.3958-1.0134.5837Zm.4241-2.0713c1.1838-.469 2.7646-.7415 4.4701-.7415 1.7056 0 3.2863.2725 4.4702.7415.5896.2336 1.1207.5316 1.5177.9034.3984.3731.7173.8775.7173 1.4943 0 .3527-.1082.6778-.2806.9572-.4657.7748-1.4473 1.296-2.4972 1.6277-1.1008.3477-2.4659.5467-3.9274.5467s-2.8265-.199-3.9274-.5467c-1.0499-.3317-2.0314-.8529-2.4971-1.6277-.1724-.2794-.2806-.6045-.2806-.9572 0-.6168.3189-1.1212.7173-1.4943.397-.3718.9281-.6698 1.5177-.9034Z" clip-rule="evenodd"/><path fill="#167A89" d="M36.3806 11.9189v3.7412c0 1.2877-2.644 2.3316-5.9052 2.3316-3.2611 0-5.9051-1.0439-5.9051-2.3316v-3.7412c0 1.2877 2.644 2.3316 5.9051 2.3316 3.2612 0 5.9052-1.0439 5.9052-2.3316Z"/><path fill="#004061" fill-rule="evenodd" d="M25.37 14.0216v1.6385c0 .0271.0107.1368.21.3228.2005.1872.5342.3926 1.0134.5818.9537.3766 2.3258.627 3.8818.627 1.5559 0 2.928-.2504 3.8817-.627.4792-.1892.8129-.3946 1.0134-.5818.1993-.186.21-.2957.21-.3228v-1.6385c-.201.1061-.4143.2027-.6358.2901-1.1837.4673-2.7641.7388-4.4693.7388-1.7053 0-3.2857-.2715-4.4693-.7388-.2216-.0874-.4348-.184-.6359-.2901Zm-1.6-2.1027v3.7412c0 .6168.3198 1.1205.7182 1.4924.3971.3707.9282.6677 1.5177.9004 1.1836.4673 2.764.7388 4.4693.7388 1.7052 0 3.2856-.2715 4.4693-.7388.5894-.2327 1.1205-.5297 1.5176-.9004.3984-.3719.7182-.8756.7182-1.4924v-3.7412h-1.6c0 .0271-.0107.1368-.21.3228-.2005.1872-.5342.3926-1.0134.5818-.9537.3766-2.3258.627-3.8817.627-1.556 0-2.9281-.2504-3.8818-.627-.4792-.1892-.8129-.3946-1.0134-.5818-.1993-.186-.21-.2957-.21-.3228h-1.6Z" clip-rule="evenodd"/><path fill="#fff" d="M36.3806 7.78906v4.12984c0 1.2877-2.644 2.3315-5.9052 2.3315-3.2611 0-5.9051-1.0438-5.9051-2.3315V7.78906h.16c.6172 1.02864 2.9564 1.7906 5.7451 1.7906 2.7888 0 5.128-.76196 5.7452-1.7906h.16Z"/><path fill="#004061" fill-rule="evenodd" d="M23.77 6.98828h1.413l.233.38841c.1512.2519.6457.6243 1.6131.92975.9199.29043 2.1188.47244 3.4461.47244 1.3272 0 2.5261-.18201 3.446-.47244.9674-.30545 1.462-.67785 1.6131-.92975l.233-.38841h1.413v4.92982c0 .6167-.3198 1.1205-.7182 1.4923-.3971.3707-.9282.6677-1.5176.9005-1.1837.4673-2.7641.7388-4.4693.7388-1.7053 0-3.2857-.2715-4.4693-.7388-.5895-.2328-1.1206-.5298-1.5177-.9005-.3984-.3718-.7182-.8756-.7182-1.4923V6.98828Zm1.6 2.36248v2.56734c0 .0271.0107.1367.21.3227.2005.1872.5342.3926 1.0134.5819.9537.3765 2.3258.627 3.8818.627 1.5559 0 2.928-.2505 3.8817-.627.4792-.1893.8129-.3947 1.0134-.5819.1993-.186.21-.2956.21-.3227V9.35077c-.3639.19211-.7653.35131-1.1774.48143-1.1012.3477-2.4662.5467-3.9277.5467-1.4616 0-2.8266-.199-3.9278-.5467-.4121-.13012-.8135-.28933-1.1774-.48144Z" clip-rule="evenodd"/><path fill="#167A89" d="M36.382 7.2474c0 .18668-.0571.36954-.1638.54099-.6133 1.02864-2.9525 1.79059-5.7413 1.79059-2.7887 0-5.1279-.76195-5.7413-1.79059-.1067-.17145-.1638-.35431-.1638-.54099 0-1.29151 2.644-2.3392 5.9051-2.3392 3.2612 0 5.9051 1.04769 5.9051 2.3392Z"/><path fill="#004061" fill-rule="evenodd" d="M25.5829 6.92117c-.1993.18665-.2109.29744-.2109.32643 0 .01794.0044.05626.0431.11838l.0039.0064.0039.00648c.1492.25024.6414.62235 1.6088.92791.9192.2904 2.1182.4724 3.4454.4724 1.3273 0 2.5262-.182 3.4455-.4724.9673-.30556 1.4595-.67767 1.6087-.92791l.0039-.00648.004-.0064c.0386-.06212.043-.10045.043-.11838 0-.02899-.0116-.13978-.2109-.32642-.2006-.1879-.5343-.39396-1.0133-.58374-.9535-.37772-2.3253-.62904-3.8809-.62904s-2.9274.25132-3.8808.62904c-.4791.18978-.8128.39584-1.0134.58373Zm.4241-2.07125c1.1838-.469 2.7646-.74152 4.4701-.74152 1.7055 0 3.2863.27252 4.4702.74152.5896.23358 1.1207.5316 1.5177.90339.3983.37303.7172.87752.7172 1.49429 0 .35271-.1082.67783-.2805.95715-.4658.77484-1.4473 1.29606-2.4972 1.62771-1.1008.34774-2.4659.54674-3.9274.54674s-2.8266-.199-3.9274-.54674c-1.0499-.33165-2.0314-.85287-2.4972-1.62771-.1723-.27933-.2805-.60445-.2805-.95715 0-.61677.3189-1.12126.7172-1.49429.397-.37179.9282-.66981 1.5178-.90339Z" clip-rule="evenodd"/><path fill="#167A89" d="m31.1675 53.677 15.5633-8.5621V28.1133l-15.5633 8.5621V53.677Z"/><path fill="#fff" d="M55.6724 31.5779 38.949 40.7742l-8.0393-4.6003 16.7104-9.1964 8.0523 4.6004Z"/><path fill="#004061" fill-opacity=".6" d="M55.6724 31.5779 38.949 40.7742l-8.0393-4.6003 16.7104-9.1964 8.0523 4.6004Z"/><path fill="#004061" fill-rule="evenodd" d="M47.2346 26.2769c.2441-.1344.5406-.132.7825.0062l8.0523 4.6003c.2513.1436.4055.4117.4031.7012-.0023.2894-.1608.555-.4144.6945l-16.7234 9.1963c-.2443.1343-.5409.1318-.7828-.0066l-8.0394-4.6004c-.2511-.1437-.405-.4117-.4026-.701.0024-.2893.1608-.5547.4142-.6942l16.7105-9.1963Zm-14.6902 9.9108 6.4126 3.6694 15.0796-8.2924-6.4236-3.6698-15.0686 8.2928Z" clip-rule="evenodd"/><path fill="#167A89" d="m13.9971 45.1149 15.5664 8.5621V36.6754l-15.5664-8.5621v17.0016Z"/></svg>
