<svg xmlns="http://www.w3.org/2000/svg" fill="none" viewBox="0 0 28 28"><path fill="#FF981B" stroke="#FF981B" stroke-width="2" d="M14 27c7.18 0 13-5.82 13-13S21.18 1 14 1 1 6.82 1 14s5.82 13 13 13Z"/><path fill="#fff" d="M17.86 10.357h-7.72c-1.233 0-2.232 1-2.232 2.232v7.266c0 1.232 1 2.232 2.232 2.232h7.72c1.232 0 2.232-1 2.232-2.232v-7.266c0-1.232-1-2.232-2.232-2.232Z"/><path fill="#fff" d="M17.86 22.788h-7.72a2.935 2.935 0 0 1-2.932-2.933V12.59a2.935 2.935 0 0 1 2.932-2.932h7.72a2.935 2.935 0 0 1 2.932 2.932v7.265a2.935 2.935 0 0 1-2.932 2.933Zm-7.72-11.73c-.844 0-1.532.687-1.532 1.532v7.265c0 .845.688 1.532 1.532 1.532h7.72c.845 0 1.532-.687 1.532-1.532V12.59c0-.845-.687-1.532-1.532-1.532h-7.72Z"/><path fill="#fff" d="M17.593 11.057h-7.06l.001-2.341a3.538 3.538 0 0 1 3.529-3.503 3.533 3.533 0 0 1 3.53 3.53v2.314Zm-5.66-1.4h4.26v-.921a2.132 2.132 0 0 0-2.13-2.123c-1.174 0-2.13.955-2.13 2.13v.914Z"/><path fill="#FF981B" d="M15.43 13.812a1.367 1.367 0 1 0-2.125 1.138v1.92a.76.76 0 0 0 1.518 0v-1.922c.366-.245.607-.662.607-1.136Z"/></svg>
