<svg id="sql-editor/add-field" viewBox="0 0 24 24" fill="none" xmlns="http://www.w3.org/2000/svg">
<path fill-rule="evenodd" clip-rule="evenodd" d="M7.98706 4.75C7.98706 3.784 7.20406 3 6.23706 3H3.73706L3.59406 3.007C3.15635 3.04289 2.74814 3.24204 2.45045 3.56492C2.15275 3.88781 1.98735 4.31082 1.98706 4.75V19.25C1.98706 19.7141 2.17144 20.1592 2.49962 20.4874C2.82781 20.8156 3.27293 21 3.73706 21H6.23706C6.70119 21 7.14631 20.8156 7.4745 20.4874C7.80269 20.1592 7.98706 19.7141 7.98706 19.25V4.75ZM3.73706 4.5H6.23706C6.30336 4.5 6.36695 4.52634 6.41384 4.57322C6.46072 4.62011 6.48706 4.6837 6.48706 4.75V19.251C6.48706 19.3173 6.46072 19.3809 6.41384 19.4278C6.36695 19.4747 6.30336 19.501 6.23706 19.501H3.73706C3.59906 19.501 3.48706 19.389 3.48706 19.251V4.751C3.48693 4.69451 3.50594 4.63963 3.54098 4.59532C3.57603 4.55101 3.62505 4.51988 3.68006 4.507L3.73706 4.5Z" fill="currentColor"/>
<path d="M22.0131 4.75C22.0131 3.784 21.2301 3 20.2631 3H17.7631C16.7971 3 16.0131 3.784 16.0131 4.75V10.018C16.1738 10.0061 16.3362 10 16.5 10C16.8446 10 17.183 10.0268 17.5131 10.0785V4.75C17.5131 4.6837 17.5394 4.62011 17.5863 4.57322C17.6332 4.52634 17.6968 4.5 17.7631 4.5H20.2631C20.3294 4.5 20.393 4.52634 20.4398 4.57322C20.4867 4.62011 20.5131 4.6837 20.5131 4.75V11.3864C21.1041 11.8509 21.6127 12.4157 22.0131 13.0551V4.75Z" fill="currentColor"/>
<path d="M10.7371 21H11.8096C11.3832 20.5557 11.0194 20.051 10.7322 19.5C10.5964 19.4974 10.4871 19.3864 10.4871 19.25V18.9732C10.1731 18.2108 10 17.3756 10 16.5C10 15.6244 10.1731 14.7892 10.4871 14.0268V4.75C10.4871 4.6837 10.5134 4.62011 10.5603 4.57322C10.6072 4.52634 10.6708 4.5 10.7371 4.5H13.2371C13.3034 4.5 13.367 4.52634 13.4138 4.57322C13.4607 4.62011 13.4871 4.6837 13.4871 4.75V10.739C13.9562 10.4931 14.4592 10.3029 14.9871 10.177V4.75C14.9871 3.784 14.2041 3 13.2371 3H10.7371C9.77106 3 8.98706 3.784 8.98706 4.75V19.25C8.98706 19.7141 9.17144 20.1592 9.49962 20.4874C9.82781 20.8156 10.2729 21 10.7371 21Z" fill="currentColor"/>
<path fill-rule="evenodd" clip-rule="evenodd" d="M22 16.5C22 13.4624 19.5376 11 16.5 11C13.4624 11 11 13.4624 11 16.5C11 19.5376 13.4624 22 16.5 22C19.5376 22 22 19.5376 22 16.5ZM17.0006 17L17.0011 19.5035C17.0011 19.7797 16.7773 20.0035 16.5011 20.0035C16.225 20.0035 16.0011 19.7797 16.0011 19.5035L16.0006 17H13.4956C13.2197 17 12.9961 16.7762 12.9961 16.5C12.9961 16.2239 13.2197 16 13.4956 16H16.0005L16 13.4993C16 13.2231 16.2239 12.9993 16.5 12.9993C16.7761 12.9993 17 13.2231 17 13.4993L17.0005 16H19.4966C19.7725 16 19.9961 16.2239 19.9961 16.5C19.9961 16.7762 19.7725 17 19.4966 17H17.0006Z" fill="currentColor"/>
</svg>
