<svg id="sql-editor/filter-active" viewBox="0 0 24 24" fill="none" xmlns="http://www.w3.org/2000/svg">
<path d="M3.94054 4.62868C4.16654 4.43768 4.45254 4.33268 4.74854 4.33268L19.2505 4.33268C19.489 4.33264 19.7225 4.4008 19.9235 4.52914C20.1245 4.65747 20.2846 4.84062 20.3849 5.05697C20.4852 5.27333 20.5215 5.51385 20.4895 5.75017C20.4576 5.98648 20.3587 6.20873 20.2045 6.39068L15.9985 12.8577L15.9985 17.416C15.9985 17.7115 15.9403 18.0041 15.8273 18.2771C15.7142 18.55 15.5485 18.7981 15.3395 19.007C15.1306 19.2159 14.8826 19.3817 14.6096 19.4947C14.3366 19.6078 14.044 19.666 14.2485 19.666L10.2485 19.666C9.6518 19.666 9.07951 19.429 8.65755 19.007C8.23559 18.585 7.99854 18.0128 7.99854 17.416L7.99854 12.8577L3.79454 6.38968C3.58062 6.13662 3.47595 5.80897 3.50351 5.47875C3.53108 5.14854 3.68763 4.84278 3.94054 4.62868Z" fill="currentColor"/>
</svg>
