<svg id="sql-editor/sqlAutoCompleteEnabled" viewBox="0 0 24 24" fill="none" xmlns="http://www.w3.org/2000/svg">
<path fill-rule="evenodd" clip-rule="evenodd" d="M2 6.25C2 5.00736 3.00736 4 4.25 4H19.75C20.9926 4 22 5.00736 22 6.25V13.0343C21.5987 12.3987 21.0902 11.8376 20.5 11.3762V6.25C20.5 5.83579 20.1642 5.5 19.75 5.5H4.25C3.83579 5.5 3.5 5.83579 3.5 6.25V17.75C3.5 18.1642 3.83579 18.5 4.25 18.5H10.3135C10.4858 19.0335 10.7253 19.5368 11.0218 20H4.25C3.00736 20 2 18.9926 2 17.75V6.25ZM6.0529 15.2806C5.91245 15.14 5.83356 14.9494 5.83356 14.7506C5.83356 14.5519 5.91245 14.3613 6.0529 14.2206L8.32628 11.9472L6.07204 9.69291C5.99835 9.62425 5.93925 9.54145 5.89826 9.44945C5.85727 9.35745 5.83523 9.25814 5.83345 9.15744C5.83167 9.05673 5.8502 8.9567 5.88792 8.86332C5.92564 8.76993 5.98178 8.68509 6.053 8.61388C6.12422 8.54266 6.20905 8.48651 6.30244 8.44879C6.39583 8.41107 6.49586 8.39255 6.59656 8.39432C6.69727 8.3961 6.79658 8.41814 6.88858 8.45913C6.98058 8.50012 7.06338 8.55923 7.13204 8.63291L9.91629 11.4172C10.0567 11.5578 10.1356 11.7484 10.1356 11.9472C10.1356 12.1459 10.0567 12.3365 9.91629 12.4772L7.1129 15.2806C6.97227 15.4211 6.78165 15.5 6.5829 15.5C6.38415 15.5 6.19352 15.4211 6.0529 15.2806Z" fill="currentColor"/>
<path fill-rule="evenodd" clip-rule="evenodd" d="M16.5 22C19.5376 22 22 19.5376 22 16.5C22 13.4624 19.5376 11 16.5 11C13.4624 11 11 13.4624 11 16.5C11 19.5376 13.4624 22 16.5 22ZM16.4999 12.7498C16.6366 12.7498 16.7703 12.7875 16.8864 12.8571C16.9397 12.8891 16.9879 12.9269 17.0304 12.9695C17.0955 13.0345 17.1473 13.1105 17.1842 13.1929L19.6827 18.6896C19.8541 19.0667 19.6874 19.5113 19.3103 19.6827C18.9332 19.8541 18.4886 19.6874 18.3172 19.3103L17.8352 18.2499H15.1647L14.6827 19.3103C14.5113 19.6874 14.0667 19.8541 13.6896 19.6827C13.3125 19.5113 13.1458 19.0667 13.3172 18.6896L15.8156 13.1929C15.8278 13.1658 15.8416 13.1393 15.8569 13.1137C15.8889 13.0603 15.9269 13.012 15.9695 12.9695C16.1102 12.8287 16.302 12.7499 16.4999 12.7498ZM16.4999 15.3124L17.1534 16.7499H15.8465L16.4999 15.3124Z" fill="currentColor"/>
</svg>
