<?xml version="1.0" encoding="UTF-8" standalone="no"?>
<!--

    Copyright (C) 2017-2019 Dremio Corporation

    Licensed under the Apache License, Version 2.0 (the "License");
    you may not use this file except in compliance with the License.
    You may obtain a copy of the License at

        http://www.apache.org/licenses/LICENSE-2.0

    Unless required by applicable law or agreed to in writing, software
    distributed under the License is distributed on an "AS IS" BASIS,
    WITHOUT WARRANTIES OR CONDITIONS OF ANY KIND, either express or implied.
    See the License for the specific language governing permissions and
    limitations under the License.

-->
<svg width="24" height="24" viewBox="0 0 24 24" fill="none" xmlns="http://www.w3.org/2000/svg">
<path d="M11.75 2C12.0875 2 12.4171 2.03343 12.7359 2.09717C12.1112 2.49633 11.5541 2.99194 11.0856 3.56298C9.47032 3.87338 8.25 5.29418 8.25 7C8.25 7.57968 8.39093 8.12645 8.64038 8.60791C8.75074 8.8209 8.72912 9.08548 8.55949 9.2551L7.77865 10.036C7.77812 10.0365 7.77725 10.0364 7.7768 10.0358C7.77635 10.0352 7.77548 10.0352 7.77495 10.0357L3.64645 14.1642C3.55268 14.258 3.5 14.3852 3.5 14.5178V16.25C3.5 16.5261 3.72386 16.75 4 16.75H5C5.27614 16.75 5.5 16.5261 5.5 16.25V15.5C5.5 14.8096 6.05964 14.25 6.75 14.25H8C8.27614 14.25 8.5 14.0261 8.5 13.75V12.7071C8.5 12.3756 8.6317 12.0576 8.86612 11.8232L9.31855 11.3708C9.3188 11.3705 9.31886 11.371 9.31855 11.3708C9.31825 11.3706 9.31808 11.3694 9.31832 11.3691L10.0244 10.6631C10.2247 11.1496 10.4782 11.6087 10.7778 12.0329L10.1464 12.6642C10.0527 12.758 10 12.8852 10 13.0178V14.5C10 15.1904 9.44036 15.75 8.75 15.75H7.5C7.22386 15.75 7 15.9739 7 16.25V17C7 17.6904 6.44036 18.25 5.75 18.25H3.25C2.55964 18.25 2 17.6904 2 17V14.2071C2 13.8756 2.1317 13.5576 2.36612 13.3232L6.80896 8.88038C6.94493 8.74441 6.98873 8.54308 6.93661 8.35798C6.81504 7.92618 6.75 7.47068 6.75 7C6.75 4.23858 8.98858 2 11.75 2Z" fill="#505862"/>
<path d="M17.37 6.875C17.37 7.35825 16.9782 7.75 16.495 7.75C16.0117 7.75 15.62 7.35825 15.62 6.875C15.62 6.39175 16.0117 6 16.495 6C16.9782 6 17.37 6.39175 17.37 6.875Z" fill="#505862"/>
<path fill-rule="evenodd" clip-rule="evenodd" d="M13.5 12.1105C11.9949 11.1292 11 9.43078 11 7.5C11 4.46243 13.4624 2 16.5 2C19.5376 2 22 4.46243 22 7.5C22 9.43078 21.0051 11.1292 19.5 12.1105V14.7729L20.1467 15.7429C20.4772 16.2387 20.4118 16.8988 19.9905 17.3202L19.3107 18L19.8932 18.5825C20.4129 19.1023 20.3742 19.9561 19.8095 20.4267L17.5809 22.2839C17.0843 22.6977 16.3539 22.6646 15.8968 22.2075L13.8661 20.1768C13.6317 19.9424 13.5 19.6244 13.5 19.2929V12.1105ZM20.5 7.5C20.5 9.05901 19.6081 10.4097 18.3067 11.0697C18.125 11.1618 18 11.3426 18 11.5463V14.8486C18 15.0954 18.073 15.3367 18.2099 15.542L18.7849 16.4044L18.0732 17.1161C17.5851 17.6043 17.5851 18.3957 18.0732 18.8839L18.6389 19.4496L16.796 20.9854L15 19.1893V11.5463C15 11.3426 14.875 11.1618 14.6933 11.0697C13.3919 10.4097 12.5 9.05901 12.5 7.5C12.5 5.29086 14.2909 3.5 16.5 3.5C18.7091 3.5 20.5 5.29086 20.5 7.5Z" fill="#505862"/>
</svg>
