<?xml version="1.0" encoding="UTF-8"?>
<!--

    Copyright (C) 2017-2018 Dremio Corporation

    Licensed under the Apache License, Version 2.0 (the "License");
    you may not use this file except in compliance with the License.
    You may obtain a copy of the License at

        http://www.apache.org/licenses/LICENSE-2.0

    Unless required by applicable law or agreed to in writing, software
    distributed under the License is distributed on an "AS IS" BASIS,
    WITHOUT WARRANTIES OR CONDITIONS OF ANY KIND, either express or implied.
    See the License for the specific language governing permissions and
    limitations under the License.

-->
<svg width="18px" height="18px" viewBox="0 0 18 18" version="1.1" xmlns="http://www.w3.org/2000/svg" xmlns:xlink="http://www.w3.org/1999/xlink">
    <!-- Generator: Sketch 41.2 (35397) - http://www.bohemiancoding.com/sketch -->
    <title>Icon/Aggregation</title>
    <desc>Created with Sketch.</desc>
    <defs></defs>
    <g id="Elements" stroke="none" stroke-width="1" fill="none" fill-rule="evenodd">
        <g id="Elements/Icons" transform="translate(-593.000000, -877.000000)" fill="#77818F">
            <g id="Icon/Aggregation" transform="translate(592.000000, 876.000000)">
                <g id="Page-1" transform="translate(1.000000, 1.000000)">
                    <path d="M17.1722788,14.6817293 L13.67516,16.2561415 L13.67516,12.0778122 C13.687074,12.072865 13.6999225,12.0709803 13.7118365,12.0657974 L17.2991282,10.4397922 L17.2991282,14.4828959 C17.2991282,14.5688843 17.2489023,14.6470984 17.1722788,14.6817293 L17.1722788,14.6817293 Z M9.47815024,14.6928018 C9.40059223,14.6574641 9.35060001,14.5794856 9.35060001,14.4937328 L9.35060001,14.4828959 L9.35060001,10.4397922 L12.9378917,12.0657974 C12.9498057,12.0709803 12.9624205,12.072865 12.9743346,12.0778122 L12.9743346,16.2568483 L9.47815024,14.6928018 Z M8.5226916,14.6817293 L5.02557283,16.2563771 L5.02557283,12.0775766 C5.03748686,12.072865 5.05010172,12.0709803 5.06201575,12.0657974 L8.64977461,10.4397922 L8.64977461,14.4828959 C8.64977461,14.5688843 8.59954879,14.6470984 8.5226916,14.6817293 L8.5226916,14.6817293 Z M0.828563084,14.6928018 C0.751005072,14.6574641 0.700779252,14.5794856 0.700779252,14.4937328 L0.700779252,10.4397922 L4.2883045,12.0657974 C4.30021853,12.0709803 4.31283339,12.072865 4.32474742,12.0778122 L4.32474742,16.2570839 L0.828563084,14.6928018 Z M4.55999115,8.00808745 C4.63334421,7.97487001 4.71720965,7.9751056 4.79009549,8.00785186 L4.87512897,8.04648775 L4.87536258,8.04672333 L8.54815492,9.71089328 L4.77467733,11.4210022 C4.71113583,11.449508 4.63895081,11.4492724 4.57564292,11.4210022 L0.802398935,9.71089328 L4.55999115,8.00808745 Z M8.88478473,0.731584444 C8.95813779,0.698602594 9.04223684,0.698602594 9.11512268,0.731584444 L12.8729485,2.43439028 L9.09900369,4.14449923 C9.03592941,4.17347614 8.96327717,4.17324056 8.9006701,4.14449923 L5.1269589,2.43439028 L8.88478473,0.731584444 Z M12.9743346,7.20662848 C12.9743346,7.2754192 12.9411622,7.33808471 12.8888339,7.37860527 L10.2009348,8.59681348 L9.35060001,8.97963854 L9.35060001,4.80107364 C9.36228044,4.79636195 9.3751289,4.79447727 9.38680933,4.78905883 L12.9743346,3.16328917 L12.9743346,7.20662848 Z M5.36547315,7.49404175 C5.36547315,7.49380616 5.36547315,7.49380616 5.36523954,7.49380616 C5.12158591,7.38449489 5.02977778,7.24997605 5.02557283,7.21722979 L5.02557283,3.16328917 L8.61309808,4.78905883 C8.62501211,4.79447727 8.63762697,4.79636195 8.64977461,4.80107364 L8.64977461,8.98222997 L5.36547315,7.49404175 Z M17.1975085,9.71089328 L13.4242645,11.4210022 C13.3609566,11.449508 13.2883044,11.449508 13.2252301,11.4210022 L9.45198609,9.71089328 L10.4333753,9.26634505 L13.1341228,8.0502571 C13.161455,8.03777111 13.1869183,8.02222253 13.2126152,8.0073807 C13.2850338,7.97557677 13.3677312,7.97534118 13.4396826,8.00808745 L17.1975085,9.71089328 Z M17.9999536,9.71136445 C18.0001872,9.4574042 17.857686,9.23524788 17.6280489,9.13111946 L13.7272547,7.36352785 C13.7071643,7.35434005 13.6856724,7.3505707 13.6651148,7.3427964 C13.6716559,7.29827091 13.67516,7.25256748 13.67516,7.20662848 L13.67516,2.49375761 C13.67516,2.48551214 13.6732911,2.47750227 13.6728239,2.4692568 C13.6732911,2.45771316 13.67516,2.44640509 13.67516,2.43462586 C13.67516,2.1809012 13.5328924,1.95874487 13.3032553,1.85461646 L9.40246109,0.0870248488 C9.14665982,-0.0288827977 8.8537148,-0.0291183823 8.59744631,0.0870248488 L4.69688571,1.85461646 C4.46724859,1.95874487 4.32474742,2.1809012 4.32474742,2.43462586 C4.32474742,2.44640509 4.32661629,2.45771316 4.32731712,2.4692568 C4.32661629,2.47750227 4.32474742,2.48551214 4.32474742,2.49375761 L4.32474742,7.21722979 C4.32474742,7.25916386 4.32941959,7.30086234 4.33689506,7.34232524 C4.31563669,7.35009953 4.29344389,7.35410447 4.27288634,7.36352785 L0.371858528,9.13111946 C0.142455012,9.23524788 -4.61538466e-05,9.4574042 -4.61538466e-05,9.71136445 C-4.61538466e-05,9.72314368 0.0018227139,9.73445175 0.00252353931,9.74599539 C0.0018227139,9.75424086 -4.61538466e-05,9.76201515 -4.61538466e-05,9.77026061 L-4.61538466e-05,14.4937328 C-4.61538466e-05,14.8572399 0.212537552,15.1882363 0.542859927,15.3380682 L4.2992841,17.018729 C4.41889164,17.0729135 4.54714269,17.1000057 4.67539373,17.1000057 C4.80341118,17.1000057 4.93142862,17.0729135 5.05033533,17.0192002 L8.80886198,15.3267601 C8.87590761,15.2966053 8.93664581,15.2570271 8.99317906,15.2127371 C9.05345004,15.2619743 9.11956124,15.3050863 9.19244708,15.3380682 L12.9488713,17.018729 C13.0684788,17.0729135 13.1967298,17.1000057 13.3249809,17.1000057 C13.4529983,17.1000057 13.5810158,17.0729135 13.6999225,17.0192002 L17.4589163,15.3267601 C17.7876035,15.177635 17.9999536,14.846403 17.9999536,14.4828959 L17.9999536,9.77026061 C17.9999536,9.76201515 17.9980847,9.75424086 17.9976175,9.74599539 C17.9980847,9.73445175 17.9999536,9.72314368 17.9999536,9.71136445 L17.9999536,9.71136445 Z" id="Fill-1"></path>
                </g>
            </g>
        </g>
    </g>
</svg>
