<?xml version="1.0" encoding="UTF-8" standalone="no"?>
<!--

    Copyright (C) 2017-2019 Dremio Corporation

    Licensed under the Apache License, Version 2.0 (the "License");
    you may not use this file except in compliance with the License.
    You may obtain a copy of the License at

        http://www.apache.org/licenses/LICENSE-2.0

    Unless required by applicable law or agreed to in writing, software
    distributed under the License is distributed on an "AS IS" BASIS,
    WITHOUT WARRANTIES OR CONDITIONS OF ANY KIND, either express or implied.
    See the License for the specific language governing permissions and
    limitations under the License.

-->
<svg width="48" height="48" viewBox="0 0 48 48" fill="none"
    xmlns="http://www.w3.org/2000/svg">
    <path d="M26.8262 4.28357C26.7724 4.19478 26.696 4.1218 26.6049 4.07204C26.5137 4.02227 26.4111 3.99749 26.3073 4.0002C26.2036 4.00213 26.1021 4.03011 26.012 4.08156C25.922 4.133 25.8463 4.20627 25.792 4.29462L21.2139 11.8574L18.4427 8.86172C18.3816 8.79709 18.3071 8.74651 18.2245 8.71347C18.1419 8.68043 18.0532 8.66572 17.9643 8.67035C17.8716 8.67805 17.7819 8.70694 17.7022 8.7548C17.6224 8.80265 17.5547 8.8682 17.5043 8.94636L9.82007 21.3559H37.3588C35.3237 17.7788 26.8262 4.28357 26.8262 4.28357Z" fill="#83CDD9"/>
    <path d="M32.9169 21.3612H24.5887C24.5735 21.3599 24.5592 21.3534 24.5482 21.3428L23.9115 20.8092L20.2976 17.7693C19.9553 17.4823 19.7382 17.6074 19.8118 18.0454L20.0216 19.2525L20.1614 20.0768C20.167 20.0923 20.167 20.1092 20.1614 20.1247L19.7456 20.7245L19.326 21.3318C19.3195 21.3404 19.3112 21.3476 19.3017 21.3526C19.2922 21.3577 19.2816 21.3607 19.2708 21.3612H11.708C11.6418 21.3612 11.616 21.3134 11.6528 21.2582L12.157 20.478L17.6221 12.0135L18.1484 11.2002C18.1962 11.1266 18.2514 11.134 18.2698 11.2223L18.4685 12.1681L18.6194 12.9041L18.7887 13.7138C18.7923 13.7245 18.7923 13.7362 18.7887 13.7469L18.5458 14.5345L18.2036 15.6385C18.0711 16.0654 18.2992 16.2678 18.7077 16.0949L20.6914 15.2447C21.1612 15.0155 21.5624 14.6664 21.8543 14.2327L25.8068 7.72614L26.3478 6.83185C26.414 6.72145 26.4692 6.73617 26.4692 6.86497V10.8101C26.4692 10.8101 26.4692 10.8101 26.4692 10.8285L26.2632 11.6198L26.0607 12.4C25.9455 12.9166 25.9368 13.4513 26.035 13.9714L26.2742 15.0203C26.4122 15.5215 26.6861 15.9749 27.0654 16.3304L32.2177 20.6104L32.9795 21.2434C33.0531 21.306 33.0163 21.3612 32.9169 21.3612Z" fill="#C5E8ED"/>
    <path d="M40.141 21.3008H6.70659C6.6138 21.3008 6.52192 21.3191 6.43619 21.3546C6.35046 21.3901 6.27257 21.4421 6.20696 21.5077C6.14134 21.5734 6.0893 21.6512 6.05379 21.737C6.01828 21.8227 6 21.9146 6 22.0074C6 22.1002 6.01828 22.1921 6.05379 22.2778C6.0893 22.3635 6.14134 22.4414 6.20696 22.507C6.27257 22.5726 6.35046 22.6247 6.43619 22.6602C6.52192 22.6957 6.6138 22.714 6.70659 22.714H9.42993L10.7622 28.0465C11.0529 29.2095 11.2185 29.3751 11.4319 29.434L14.9318 30.3651L17.0516 38.0419C17.08 38.1438 17.1342 38.2366 17.209 38.3114C17.2838 38.3862 17.3766 38.4404 17.4785 38.4688L20.3895 39.2637L23.3336 43.7278C23.3891 43.8117 23.4646 43.8805 23.5532 43.928C23.6419 43.9756 23.7409 44.0003 23.8415 44.0001C23.9446 43.9979 24.0454 43.9694 24.1343 43.9172C24.2232 43.865 24.2972 43.791 24.3494 43.702L27.0028 39.1791C27.0165 39.1566 27.0288 39.1332 27.0396 39.1092L28.8502 34.8291L31.8569 32.4039C31.8983 32.3692 31.9354 32.3297 31.9674 32.2861L33.6897 29.8793L37.5171 23.1446L37.6422 22.714H40.141C40.3284 22.714 40.5082 22.6395 40.6407 22.507C40.7732 22.3745 40.8476 22.1948 40.8476 22.0074C40.8476 21.82 40.7732 21.6403 40.6407 21.5077C40.5082 21.3752 40.3284 21.3008 40.141 21.3008Z" fill="#44B7C9"/>
    <path d="M14.1111 22.9541C14.0121 22.9486 13.9132 22.9668 13.8227 23.0072C13.7321 23.0476 13.6526 23.1091 13.5906 23.1865C13.5287 23.264 13.4862 23.3551 13.4666 23.4523C13.447 23.5495 13.451 23.65 13.4781 23.7453L13.7652 25.0408C13.8329 25.2815 13.9483 25.5061 14.1044 25.7015C14.2606 25.8968 14.4543 26.0588 14.6742 26.1779L15.9254 26.7668C16.3736 27.0074 16.7093 27.4145 16.8602 27.9003L18.7003 35.2864C18.807 35.7206 18.8806 35.7096 18.8622 35.2643L18.4537 25.0444C18.4537 24.5991 18.5752 24.566 18.7628 24.9708C18.7628 24.9708 20.9709 29.6741 20.9709 29.019C20.9709 28.364 22.0124 25.1622 22.0124 25.1622C22.1486 24.739 22.351 24.7463 22.4651 25.1622L24.9308 34.4731C25.0449 34.9036 25.3504 34.9588 25.608 34.5945L33.4652 23.6165C33.7228 23.2485 33.5719 22.9578 33.1229 22.9578L14.1111 22.9541Z" fill="#83CDD9"/>
</svg>
