<?xml version="1.0" encoding="UTF-8" standalone="no"?>
<!--

    Copyright (C) 2017-2019 Dremio Corporation

    Licensed under the Apache License, Version 2.0 (the "License");
    you may not use this file except in compliance with the License.
    You may obtain a copy of the License at

        http://www.apache.org/licenses/LICENSE-2.0

    Unless required by applicable law or agreed to in writing, software
    distributed under the License is distributed on an "AS IS" BASIS,
    WITHOUT WARRANTIES OR CONDITIONS OF ANY KIND, either express or implied.
    See the License for the specific language governing permissions and
    limitations under the License.

-->
<svg width="16" height="4" viewBox="0 0 16 4" fill="none" xmlns="http://www.w3.org/2000/svg">
<path d="M3.75 2C3.75 2.22981 3.70474 2.45738 3.61679 2.6697C3.52884 2.88202 3.39994 3.07493 3.23744 3.23744C3.07493 3.39994 2.88202 3.52884 2.6697 3.61679C2.45738 3.70473 2.22981 3.75 2 3.75C1.77019 3.75 1.54262 3.70473 1.3303 3.61679C1.11798 3.52884 0.925066 3.39994 0.762563 3.23744C0.600061 3.07493 0.471156 2.88202 0.383211 2.6697C0.295265 2.45738 0.25 2.22981 0.25 2C0.25 1.53587 0.434375 1.09075 0.762563 0.762563C1.09075 0.434374 1.53587 0.25 2 0.25C2.46413 0.25 2.90925 0.434374 3.23744 0.762563C3.56563 1.09075 3.75 1.53587 3.75 2V2Z" fill="#505862"/>
<path d="M9.75 2C9.75 2.46413 9.56563 2.90925 9.23744 3.23744C8.90925 3.56563 8.46413 3.75 8 3.75C7.53587 3.75 7.09075 3.56563 6.76256 3.23744C6.43437 2.90925 6.25 2.46413 6.25 2C6.25 1.53587 6.43437 1.09075 6.76256 0.762563C7.09075 0.434374 7.53587 0.25 8 0.25C8.46413 0.25 8.90925 0.434374 9.23744 0.762563C9.56563 1.09075 9.75 1.53587 9.75 2V2Z" fill="#505862"/>
<path d="M14 3.75C14.4641 3.75 14.9092 3.56563 15.2374 3.23744C15.5656 2.90925 15.75 2.46413 15.75 2C15.75 1.53587 15.5656 1.09075 15.2374 0.762563C14.9092 0.434374 14.4641 0.25 14 0.25C13.5359 0.25 13.0908 0.434374 12.7626 0.762563C12.4344 1.09075 12.25 1.53587 12.25 2C12.25 2.46413 12.4344 2.90925 12.7626 3.23744C13.0908 3.56563 13.5359 3.75 14 3.75Z" fill="#505862"/>
</svg>
