<?xml version="1.0" encoding="UTF-8" standalone="no"?>
<!--

    Copyright (C) 2017-2019 Dremio Corporation

    Licensed under the Apache License, Version 2.0 (the "License");
    you may not use this file except in compliance with the License.
    You may obtain a copy of the License at

        http://www.apache.org/licenses/LICENSE-2.0

    Unless required by applicable law or agreed to in writing, software
    distributed under the License is distributed on an "AS IS" BASIS,
    WITHOUT WARRANTIES OR CONDITIONS OF ANY KIND, either express or implied.
    See the License for the specific language governing permissions and
    limitations under the License.

-->
<svg width="24" height="25" viewBox="0 0 24 25" fill="none" xmlns="http://www.w3.org/2000/svg">
<path d="M12 4C9.74566 4 7.58365 4.89553 5.98959 6.48959C4.39553 8.08365 3.5 10.2457 3.5 12.5C3.5 14.7543 4.39553 16.9163 5.98959 18.5104C7.58365 20.1045 9.74566 21 12 21C14.2543 21 16.4163 20.1045 18.0104 18.5104C19.6045 16.9163 20.5 14.7543 20.5 12.5C20.5 10.2457 19.6045 8.08365 18.0104 6.48959C16.4163 4.89553 14.2543 4 12 4ZM2 12.5C2 6.977 6.477 2.5 12 2.5C17.523 2.5 22 6.977 22 12.5C22 18.023 17.523 22.5 12 22.5C6.477 22.5 2 18.023 2 12.5ZM8 10C8 9.60218 8.15804 9.22064 8.43934 8.93934C8.72064 8.65804 9.10218 8.5 9.5 8.5H14.5C14.8978 8.5 15.2794 8.65804 15.5607 8.93934C15.842 9.22064 16 9.60218 16 10V15C16 15.3978 15.842 15.7794 15.5607 16.0607C15.2794 16.342 14.8978 16.5 14.5 16.5H9.5C9.10218 16.5 8.72064 16.342 8.43934 16.0607C8.15804 15.7794 8 15.3978 8 15V10Z" fill="#505862"/>
</svg>
