<?xml version="1.0" encoding="UTF-8" standalone="no"?>
<!--

    Copyright (C) 2017-2019 Dremio Corporation

    Licensed under the Apache License, Version 2.0 (the "License");
    you may not use this file except in compliance with the License.
    You may obtain a copy of the License at

        http://www.apache.org/licenses/LICENSE-2.0

    Unless required by applicable law or agreed to in writing, software
    distributed under the License is distributed on an "AS IS" BASIS,
    WITHOUT WARRANTIES OR CONDITIONS OF ANY KIND, either express or implied.
    See the License for the specific language governing permissions and
    limitations under the License.

-->
<svg width="20" height="20" viewBox="0 0 20 20" fill="none" xmlns="http://www.w3.org/2000/svg">
<path d="M9.99996 2.91666C8.12134 2.91666 6.31967 3.66293 4.99129 4.99132C3.6629 6.3197 2.91663 8.12137 2.91663 9.99999C2.91663 11.8786 3.6629 13.6803 4.99129 15.0087C6.31967 16.337 8.12134 17.0833 9.99996 17.0833C11.8786 17.0833 13.6803 16.337 15.0086 15.0087C16.337 13.6803 17.0833 11.8786 17.0833 9.99999C17.0833 8.12137 16.337 6.3197 15.0086 4.99132C13.6803 3.66293 11.8786 2.91666 9.99996 2.91666ZM1.66663 9.99999C1.66663 5.39749 5.39746 1.66666 9.99996 1.66666C14.6025 1.66666 18.3333 5.39749 18.3333 9.99999C18.3333 14.6025 14.6025 18.3333 9.99996 18.3333C5.39746 18.3333 1.66663 14.6025 1.66663 9.99999ZM6.66663 7.91666C6.66663 7.58514 6.79832 7.26719 7.03274 7.03277C7.26716 6.79835 7.58511 6.66666 7.91663 6.66666H12.0833C12.4148 6.66666 12.7328 6.79835 12.9672 7.03277C13.2016 7.26719 13.3333 7.58514 13.3333 7.91666V12.0833C13.3333 12.4148 13.2016 12.7328 12.9672 12.9672C12.7328 13.2016 12.4148 13.3333 12.0833 13.3333H7.91663C7.58511 13.3333 7.26716 13.2016 7.03274 12.9672C6.79832 12.7328 6.66663 12.4148 6.66663 12.0833V7.91666Z" fill="#505862"/>
</svg>
