<?xml version="1.0" encoding="UTF-8" standalone="no"?>
<!--

    Copyright (C) 2017-2018 Dremio Corporation

    Licensed under the Apache License, Version 2.0 (the "License");
    you may not use this file except in compliance with the License.
    You may obtain a copy of the License at

        http://www.apache.org/licenses/LICENSE-2.0

    Unless required by applicable law or agreed to in writing, software
    distributed under the License is distributed on an "AS IS" BASIS,
    WITHOUT WARRANTIES OR CONDITIONS OF ANY KIND, either express or implied.
    See the License for the specific language governing permissions and
    limitations under the License.

-->
<svg width="24px" height="24px" viewBox="0 0 24 24" version="1.1" xmlns="http://www.w3.org/2000/svg" xmlns:xlink="http://www.w3.org/1999/xlink" xmlns:sketch="http://www.bohemiancoding.com/sketch/ns">
    <!-- Generator: Sketch 3.5.1 (25234) - http://www.bohemiancoding.com/sketch -->
    <title>Icon/Chat</title>
    <desc>Created with Sketch.</desc>
    <defs></defs>
    <g id="Icons" stroke="none" stroke-width="1" fill="none" fill-rule="evenodd" sketch:type="MSPage">
        <g id="Icon/Chat" sketch:type="MSArtboardGroup">
            <g sketch:type="MSLayerGroup">
                <g id="icon-box-24-copy-10" sketch:type="MSShapeGroup">
                    <rect id="icon-box-24" x="0" y="0" width="24" height="24"></rect>
                </g>
                <g id="Group" transform="translate(2.000000, 4.000000)" stroke="#5ed7b9" sketch:type="MSShapeGroup" stroke-linecap="round" stroke-linejoin="round">
                    <path d="M1.32608696,13.9210526 L2.97826087,13.9210526 L2.97826087,17.5 L6.2826087,13.9210526 L18.673913,13.9210526 C19.129913,13.9210526 19.5,13.5202105 19.5,13.0263158 L19.5,1.39473684 C19.5,0.900842105 19.129913,0.5 18.673913,0.5 L1.32608696,0.5 C0.870086957,0.5 0.5,0.900842105 0.5,1.39473684 L0.5,13.0263158 C0.5,13.5202105 0.870086957,13.9210526 1.32608696,13.9210526 Z" id="Stroke-304"></path>
                    <g id="Stroke-305-+-Stroke-306-+-Stroke-307" transform="translate(5.500000, 6.000000)">
                        <path d="M1,1 C1,1.276 0.776,1.5 0.5,1.5 C0.224,1.5 0,1.276 0,1 C0,0.724 0.224,0.5 0.5,0.5 C0.776,0.5 1,0.724 1,1 L1,1 Z" id="Stroke-305"></path>
                        <path d="M9,1 C9,1.276 8.776,1.5 8.5,1.5 C8.224,1.5 8,1.276 8,1 C8,0.724 8.224,0.5 8.5,0.5 C8.776,0.5 9,0.724 9,1 L9,1 Z" id="Stroke-306"></path>
                        <path d="M5,1 C5,1.276 4.776,1.5 4.5,1.5 C4.224,1.5 4,1.276 4,1 C4,0.724 4.224,0.5 4.5,0.5 C4.776,0.5 5,0.724 5,1 L5,1 Z" id="Stroke-307"></path>
                    </g>
                </g>
            </g>
        </g>
    </g>
</svg>
