<?xml version="1.0" encoding="UTF-8" standalone="no"?>
<!--

    Copyright (C) 2017-2019 Dremio Corporation

    Licensed under the Apache License, Version 2.0 (the "License");
    you may not use this file except in compliance with the License.
    You may obtain a copy of the License at

        http://www.apache.org/licenses/LICENSE-2.0

    Unless required by applicable law or agreed to in writing, software
    distributed under the License is distributed on an "AS IS" BASIS,
    WITHOUT WARRANTIES OR CONDITIONS OF ANY KIND, either express or implied.
    See the License for the specific language governing permissions and
    limitations under the License.

-->
<svg width="24" height="25" viewBox="0 0 24 25" fill="none" xmlns="http://www.w3.org/2000/svg">
<path d="M12 2.5C17.523 2.5 22 6.978 22 12.5C22 18.022 17.523 22.5 12 22.5C6.477 22.5 2 18.022 2 12.5C2 6.978 6.477 2.5 12 2.5ZM12 4.167C7.405 4.167 3.667 7.905 3.667 12.5C3.667 17.095 7.405 20.833 12 20.833C16.595 20.833 20.333 17.095 20.333 12.5C20.333 7.905 16.595 4.167 12 4.167ZM11.999 15.002C12.264 15.002 12.5181 15.1073 12.7054 15.2946C12.8927 15.4819 12.998 15.736 12.998 16.001C12.998 16.266 12.8927 16.5201 12.7054 16.7074C12.5181 16.8947 12.264 17 11.999 17C11.734 17 11.4799 16.8947 11.2926 16.7074C11.1053 16.5201 11 16.266 11 16.001C11 15.736 11.1053 15.4819 11.2926 15.2946C11.4799 15.1073 11.734 15.002 11.999 15.002ZM11.994 7.5C12.1754 7.49977 12.3508 7.56529 12.4876 7.68444C12.6244 7.80358 12.7133 7.96828 12.738 8.148L12.745 8.249L12.749 12.751C12.7492 12.9411 12.6772 13.1242 12.5475 13.2632C12.4179 13.4023 12.2403 13.4869 12.0506 13.5C11.861 13.5131 11.6734 13.4536 11.5259 13.3337C11.3784 13.2138 11.2819 13.0423 11.256 12.854L11.249 12.752L11.245 8.251C11.2449 8.15242 11.2642 8.05479 11.3018 7.96368C11.3394 7.87257 11.3947 7.78977 11.4643 7.72002C11.534 7.65027 11.6167 7.59494 11.7078 7.55719C11.7988 7.51943 11.8964 7.5 11.995 7.5H11.994Z" fill="#505862"/>
</svg>
