<?xml version="1.0" encoding="UTF-8" standalone="no"?>
<!--

    Copyright (C) 2017-2019 Dremio Corporation

    Licensed under the Apache License, Version 2.0 (the "License");
    you may not use this file except in compliance with the License.
    You may obtain a copy of the License at

        http://www.apache.org/licenses/LICENSE-2.0

    Unless required by applicable law or agreed to in writing, software
    distributed under the License is distributed on an "AS IS" BASIS,
    WITHOUT WARRANTIES OR CONDITIONS OF ANY KIND, either express or implied.
    See the License for the specific language governing permissions and
    limitations under the License.

-->
<svg width="20" height="20" viewBox="0 0 20 20" fill="none" xmlns="http://www.w3.org/2000/svg">
<path d="M9.99998 1.66583C14.6033 1.66583 18.335 5.3975 18.335 10.0008C18.335 14.6033 14.6033 18.335 9.99998 18.335C5.39664 18.335 1.66498 14.6033 1.66498 10.0008C1.66498 5.3975 5.39664 1.66583 9.99998 1.66583ZM9.99998 2.91583C9.06315 2.90567 8.13361 3.08142 7.26516 3.43289C6.39671 3.78437 5.60659 4.3046 4.94053 4.96347C4.27447 5.62234 3.7457 6.40678 3.38483 7.27137C3.02395 8.13596 2.83814 9.06353 2.83814 10.0004C2.83814 10.9373 3.02395 11.8649 3.38483 12.7295C3.7457 13.5941 4.27447 14.3785 4.94053 15.0374C5.60659 15.6962 6.39671 16.2165 7.26516 16.5679C8.13361 16.9194 9.06315 17.0952 9.99998 17.085C11.86 17.0565 13.6342 16.2976 14.9394 14.9721C16.2447 13.6467 16.9763 11.8611 16.9763 10.0008C16.9763 8.14059 16.2447 6.35498 14.9394 5.02955C13.6342 3.70411 11.86 2.9452 9.99998 2.91667V2.91583ZM9.99664 8.74917C10.1478 8.74897 10.2939 8.80358 10.4079 8.90286C10.5219 9.00215 10.5961 9.1394 10.6166 9.28917L10.6225 9.37417L10.625 13.9592C10.6249 14.1175 10.5648 14.2699 10.4567 14.3857C10.3486 14.5014 10.2006 14.5717 10.0426 14.5825C9.88459 14.5933 9.7284 14.5437 9.60556 14.4438C9.48272 14.3439 9.4024 14.201 9.38081 14.0442L9.37498 13.96L9.37248 9.375C9.37248 9.20924 9.43833 9.05027 9.55554 8.93306C9.67275 8.81585 9.83172 8.75 9.99748 8.75L9.99664 8.74917ZM9.99998 5.83583C10.1115 5.8323 10.2225 5.85122 10.3266 5.89144C10.4306 5.93167 10.5255 5.9924 10.6056 6.07001C10.6857 6.14762 10.7494 6.24055 10.7929 6.34326C10.8364 6.44597 10.8588 6.55637 10.8588 6.66792C10.8588 6.77946 10.8364 6.88986 10.7929 6.99257C10.7494 7.09528 10.6857 7.18821 10.6056 7.26582C10.5255 7.34343 10.4306 7.40416 10.3266 7.44439C10.2225 7.48462 10.1115 7.50353 9.99998 7.5C9.78385 7.49316 9.57887 7.40249 9.42841 7.2472C9.27795 7.0919 9.19381 6.88415 9.19381 6.66792C9.19381 6.45168 9.27795 6.24393 9.42841 6.08864C9.57887 5.93334 9.78385 5.84267 9.99998 5.83583Z" fill="#0684F9"/>
</svg>
