<?xml version="1.0" encoding="UTF-8" standalone="no"?>
<!--

    Copyright (C) 2017-2019 Dremio Corporation

    Licensed under the Apache License, Version 2.0 (the "License");
    you may not use this file except in compliance with the License.
    You may obtain a copy of the License at

        http://www.apache.org/licenses/LICENSE-2.0

    Unless required by applicable law or agreed to in writing, software
    distributed under the License is distributed on an "AS IS" BASIS,
    WITHOUT WARRANTIES OR CONDITIONS OF ANY KIND, either express or implied.
    See the License for the specific language governing permissions and
    limitations under the License.

-->
<svg width="24" height="24" viewBox="0 0 24 24" fill="none" xmlns="http://www.w3.org/2000/svg">
<circle cx="12" cy="12" r="7.25" stroke="#505862" stroke-width="1.5"/>
<path d="M12.5303 8.21967C12.3897 8.07902 12.1989 8 12 8C11.8011 8 11.6103 8.07902 11.4697 8.21967C11.329 8.36032 11.25 8.55109 11.25 8.75V11.25H8.75C8.55109 11.25 8.36032 11.329 8.21967 11.4697C8.07902 11.6103 8 11.8011 8 12C8 12.1989 8.07902 12.3897 8.21967 12.5303C8.36032 12.671 8.55109 12.75 8.75 12.75H11.25V15.25C11.25 15.4489 11.329 15.6397 11.4697 15.7803C11.6103 15.921 11.8011 16 12 16C12.1989 16 12.3897 15.921 12.5303 15.7803C12.671 15.6397 12.75 15.4489 12.75 15.25V12.75H15.25C15.4489 12.75 15.6397 12.671 15.7803 12.5303C15.921 12.3897 16 12.1989 16 12C16 11.8011 15.921 11.6103 15.7803 11.4697C15.6397 11.329 15.4489 11.25 15.25 11.25H12.75V8.75C12.75 8.55109 12.671 8.36032 12.5303 8.21967Z" fill="#505862"/>
</svg>
