<?xml version="1.0" encoding="UTF-8" standalone="no"?>
<!--

    Copyright (C) 2017-2019 Dremio Corporation

    Licensed under the Apache License, Version 2.0 (the "License");
    you may not use this file except in compliance with the License.
    You may obtain a copy of the License at

        http://www.apache.org/licenses/LICENSE-2.0

    Unless required by applicable law or agreed to in writing, software
    distributed under the License is distributed on an "AS IS" BASIS,
    WITHOUT WARRANTIES OR CONDITIONS OF ANY KIND, either express or implied.
    See the License for the specific language governing permissions and
    limitations under the License.

-->
<svg width="17px" height="17px" viewBox="0 0 17 17" version="1.1" xmlns="http://www.w3.org/2000/svg" xmlns:xlink="http://www.w3.org/1999/xlink">
    <!-- Generator: Sketch 61.2 (89653) - https://sketch.com -->
    <title>Shape</title>
    <desc>Created with Sketch.</desc>
    <g id="Page-1" stroke="none" stroke-width="1" fill="none" fill-rule="evenodd">
        <g id="Combined-Shape" fill="#000000">
            <path d="M0,8.335 C0,3.73171 3.73171,0 8.335,0 C10.5456,0 12.6656,0.878149 14.2287,2.44127 C15.7919,4.00438 16.67,6.12442 16.67,8.335 C16.67,12.9383 12.9383,16.67 8.335,16.67 C3.73171,16.67 0,12.9383 0,8.335 Z M0.8335,8.335 C0.8335,12.478 4.19204,15.8365 8.335,15.8365 C10.3245,15.8365 12.2326,15.0462 13.6394,13.6394 C15.0462,12.2326 15.8365,10.3245 15.8365,8.335 C15.8365,4.19204 12.478,0.8335 8.335,0.8335 C4.19204,0.8335 0.8335,4.19204 0.8335,8.335 Z M8.335,4.1675 C8.53959,4.1675 8.70975,4.31493 8.74504,4.50934 L8.75175,4.58425 L8.75175,7.91825 L12.0858,7.91825 C12.3159,7.91825 12.5025,8.10484 12.5025,8.335 C12.5025,8.53959 12.3551,8.70975 12.1607,8.74504 L12.0858,8.75175 L8.75175,8.75175 L8.75175,12.0858 C8.75175,12.3159 8.56516,12.5025 8.335,12.5025 C8.13041,12.5025 7.96025,12.3551 7.92496,12.1607 L7.91825,12.0858 L7.91825,8.75175 L4.58425,8.75175 C4.35409,8.75175 4.1675,8.56516 4.1675,8.335 C4.1675,8.13041 4.31493,7.96025 4.50934,7.92496 L4.58425,7.91825 L7.91825,7.91825 L7.91825,4.58425 C7.91825,4.35409 8.10484,4.1675 8.335,4.1675 Z" id="Shape"></path>
        </g>
    </g>
</svg>
