<?xml version="1.0" encoding="UTF-8" standalone="no"?>
<!--

    Copyright (C) 2017-2018 Dremio Corporation

    Licensed under the Apache License, Version 2.0 (the "License");
    you may not use this file except in compliance with the License.
    You may obtain a copy of the License at

        http://www.apache.org/licenses/LICENSE-2.0

    Unless required by applicable law or agreed to in writing, software
    distributed under the License is distributed on an "AS IS" BASIS,
    WITHOUT WARRANTIES OR CONDITIONS OF ANY KIND, either express or implied.
    See the License for the specific language governing permissions and
    limitations under the License.

-->
<!DOCTYPE svg PUBLIC "-//W3C//DTD SVG 1.1//EN" "http://www.w3.org/Graphics/SVG/1.1/DTD/svg11.dtd">
<svg width="100%" height="100%" viewBox="0 0 23 28" version="1.1" xmlns="http://www.w3.org/2000/svg" xmlns:xlink="http://www.w3.org/1999/xlink" xml:space="preserve" style="fill-rule:evenodd;clip-rule:evenodd;stroke-linejoin:round;stroke-miterlimit:1.41421;">
    <path d="M10.366,23.336l-9.106,0l0,-19.779l17.242,0l0,11.427" style="fill:#67bece;fill-opacity:0;"/>
    <path d="M19.752,14.984l-2.5,0l0,-10.177l-14.742,0l0,17.279l7.856,0l0,2.5l-10.356,0l0,-22.279l19.742,0l0,12.677Z" style="fill:#67bece;"/>
    <path d="M14.192,1.76c0,-0.971 -0.789,-1.76 -1.76,-1.76l-5.102,0c-0.971,0 -1.759,0.789 -1.759,1.76l0,1.029c0,0.971 0.788,1.76 1.759,1.76l5.102,0c0.971,0 1.76,-0.789 1.76,-1.76l0,-1.029Z" style="fill:#67bece;"/>
    <path d="M12.477,0.001l0.046,0.001l0.044,0.003l0.045,0.004l0.044,0.005l0.044,0.006l0.043,0.008l0.044,0.008l0.042,0.009l0.043,0.01l0.042,0.012l0.041,0.012l0.041,0.014l0.041,0.014l0.04,0.015l0.04,0.016l0.039,0.018l0.039,0.018l0.038,0.019l0.038,0.02l0.037,0.02l0.036,0.022l0.036,0.022l0.036,0.024l0.034,0.024l0.035,0.025l0.033,0.026l0.033,0.026l0.032,0.027l0.032,0.028l0.031,0.029l0.03,0.03l0.03,0.03l0.028,0.031l0.028,0.031l0.028,0.033l0.026,0.033l0.026,0.033l0.025,0.034l0.024,0.035l0.023,0.036l0.023,0.036l0.022,0.036l0.02,0.037l0.02,0.038l0.019,0.038l0.018,0.039l0.017,0.039l0.017,0.04l0.015,0.04l0.014,0.041l0.014,0.041l0.012,0.041l0.011,0.042l0.011,0.043l0.009,0.042l0.008,0.043l0.008,0.044l0.006,0.044l0.005,0.044l0.004,0.044l0.003,0.045l0.001,0.045l0.001,0.046l0,1.029l-0.001,0.045l-0.001,0.045l-0.003,0.045l-0.004,0.045l-0.005,0.044l-0.006,0.044l-0.008,0.043l-0.008,0.043l-0.009,0.043l-0.011,0.042l-0.011,0.042l-0.012,0.042l-0.014,0.041l-0.014,0.041l-0.015,0.04l-0.017,0.04l-0.017,0.039l-0.018,0.038l-0.019,0.039l-0.02,0.037l-0.02,0.037l-0.022,0.037l-0.023,0.036l-0.023,0.035l-0.024,0.035l-0.025,0.034l-0.026,0.034l-0.026,0.033l-0.028,0.032l-0.028,0.032l-0.028,0.031l-0.03,0.03l-0.03,0.029l-0.031,0.029l-0.032,0.028l-0.032,0.028l-0.033,0.026l-0.033,0.026l-0.035,0.025l-0.034,0.024l-0.036,0.023l-0.036,0.023l-0.036,0.021l-0.037,0.021l-0.038,0.02l-0.038,0.019l-0.039,0.018l-0.039,0.017l-0.04,0.016l-0.04,0.016l-0.041,0.014l-0.041,0.013l-0.041,0.013l-0.042,0.011l-0.043,0.01l-0.042,0.01l-0.044,0.008l-0.043,0.007l-0.044,0.006l-0.044,0.005l-0.045,0.004l-0.044,0.003l-0.046,0.002l-0.045,0.001l-5.102,0l-0.045,-0.001l-0.045,-0.002l-0.045,-0.003l-0.044,-0.004l-0.045,-0.005l-0.043,-0.006l-0.044,-0.007l-0.043,-0.008l-0.043,-0.01l-0.042,-0.01l-0.042,-0.011l-0.042,-0.013l-0.041,-0.013l-0.04,-0.014l-0.041,-0.016l-0.039,-0.016l-0.04,-0.017l-0.038,-0.018l-0.038,-0.019l-0.038,-0.02l-0.037,-0.021l-0.037,-0.021l-0.036,-0.023l-0.035,-0.023l-0.035,-0.024l-0.034,-0.025l-0.034,-0.026l-0.033,-0.026l-0.032,-0.028l-0.032,-0.028l-0.031,-0.029l-0.03,-0.029l-0.029,-0.03l-0.029,-0.031l-0.028,-0.032l-0.027,-0.032l-0.027,-0.033l-0.026,-0.034l-0.025,-0.034l-0.024,-0.035l-0.023,-0.035l-0.022,-0.036l-0.022,-0.037l-0.021,-0.037l-0.02,-0.037l-0.019,-0.039l-0.018,-0.038l-0.017,-0.039l-0.016,-0.04l-0.016,-0.04l-0.014,-0.041l-0.013,-0.041l-0.013,-0.042l-0.011,-0.042l-0.01,-0.042l-0.01,-0.043l-0.008,-0.043l-0.007,-0.043l-0.006,-0.044l-0.005,-0.044l-0.004,-0.045l-0.003,-0.045l-0.002,-0.045l0,-0.045l0,-1.029l0,-0.046l0.002,-0.045l0.003,-0.045l0.004,-0.044l0.005,-0.044l0.006,-0.044l0.007,-0.044l0.008,-0.043l0.01,-0.042l0.01,-0.043l0.011,-0.042l0.013,-0.041l0.013,-0.041l0.014,-0.041l0.016,-0.04l0.016,-0.04l0.017,-0.039l0.018,-0.039l0.019,-0.038l0.02,-0.038l0.021,-0.037l0.022,-0.036l0.022,-0.036l0.023,-0.036l0.024,-0.035l0.025,-0.034l0.026,-0.033l0.027,-0.033l0.027,-0.033l0.028,-0.031l0.029,-0.031l0.029,-0.03l0.03,-0.03l0.031,-0.029l0.032,-0.028l0.032,-0.027l0.033,-0.026l0.034,-0.026l0.034,-0.025l0.035,-0.024l0.035,-0.024l0.036,-0.022l0.037,-0.022l0.037,-0.02l0.038,-0.02l0.038,-0.019l0.038,-0.018l0.04,-0.018l0.039,-0.016l0.041,-0.015l0.04,-0.014l0.041,-0.014l0.042,-0.012l0.042,-0.012l0.042,-0.01l0.043,-0.009l0.043,-0.008l0.044,-0.008l0.043,-0.006l0.045,-0.005l0.044,-0.004l0.045,-0.003l0.045,-0.001l0.045,-0.001l5.102,0l0.045,0.001Z" style="fill:#67bece;"/>
    <rect x="17.252" y="18.836" width="2.5" height="9" style="fill:#67bece;"/>
    <rect x="14.002" y="22.086" width="8.998" height="2.5" style="fill:#67bece;"/>
    <rect x="5.382" y="8.59" width="8.998" height="1.5" style="fill:#67bece;"/>
    <rect x="5.382" y="12.696" width="8.998" height="1.5" style="fill:#67bece;"/>
    <rect x="5.382" y="16.79" width="8.998" height="1.5" style="fill:#67bece;"/>
</svg>
