<?xml version="1.0" encoding="UTF-8" standalone="no"?>
<!--

    Copyright (C) 2017-2019 Dremio Corporation

    Licensed under the Apache License, Version 2.0 (the "License");
    you may not use this file except in compliance with the License.
    You may obtain a copy of the License at

        http://www.apache.org/licenses/LICENSE-2.0

    Unless required by applicable law or agreed to in writing, software
    distributed under the License is distributed on an "AS IS" BASIS,
    WITHOUT WARRANTIES OR CONDITIONS OF ANY KIND, either express or implied.
    See the License for the specific language governing permissions and
    limitations under the License.

-->
<svg width="24" height="24" viewBox="0 0 24 24" fill="none" xmlns="http://www.w3.org/2000/svg">
<path d="M16.7197 6.21967C17.0126 5.92678 17.4874 5.92678 17.7803 6.21967C18.0732 6.51256 18.0732 6.98744 17.7803 7.28033L13.0607 12L17.7803 16.7197C18.0732 17.0126 18.0732 17.4874 17.7803 17.7803C17.4874 18.0732 17.0126 18.0732 16.7197 17.7803L12 13.0607L7.28033 17.7803C6.98744 18.0732 6.51256 18.0732 6.21967 17.7803C5.92678 17.4874 5.92678 17.0126 6.21967 16.7197L10.9393 12L6.21967 7.28033C5.92678 6.98744 5.92678 6.51256 6.21967 6.21967C6.51256 5.92678 6.98744 5.92678 7.28033 6.21967L12 10.9393L16.7197 6.21967Z" fill="#505862"/>
</svg>
