<?xml version="1.0" encoding="UTF-8" standalone="no"?>
<!--

    Copyright (C) 2017-2019 Dremio Corporation

    Licensed under the Apache License, Version 2.0 (the "License");
    you may not use this file except in compliance with the License.
    You may obtain a copy of the License at

        http://www.apache.org/licenses/LICENSE-2.0

    Unless required by applicable law or agreed to in writing, software
    distributed under the License is distributed on an "AS IS" BASIS,
    WITHOUT WARRANTIES OR CONDITIONS OF ANY KIND, either express or implied.
    See the License for the specific language governing permissions and
    limitations under the License.

-->
<svg width="20px" height="15px" viewBox="0 0 20 15" version="1.1" xmlns="http://www.w3.org/2000/svg" xmlns:xlink="http://www.w3.org/1999/xlink">
    <g id="Page-1" stroke="none" stroke-width="1" fill="none" fill-rule="evenodd">
        <g id="CollapseRight" transform="translate(10.000000, 7.500000) scale(-1, 1) translate(-10.000000, -7.500000) " fill="#505862" fill-rule="nonzero">
            <path d="M0.752,1.7267485e-12 C0.93341,-0.000233583 1.10876,0.0652924 1.24555,0.184439 C1.38235,0.303585 1.47133,0.468276 1.496,0.648 L1.502,0.750001 L1.5,13.754 C1.49994,13.944 1.42776,14.1269 1.29803,14.2658 C1.1683,14.4046 0.990702,14.4891 0.80112,14.502 C0.611538,14.515 0.424108,14.4555 0.276701,14.3356 C0.129294,14.2157 0.0329014,14.0443 0.00699997,13.856 L0,13.754 L0.00200009,0.750001 C0.00200009,0.551088 0.0810176,0.360323 0.22167,0.21967 C0.362322,0.0790182 0.553088,1.7267485e-12 0.752,1.7267485e-12 Z M13.647,1.804 L13.72,1.72 C13.847,1.59298 14.0153,1.51576 14.1945,1.50236 C14.3736,1.48896 14.5515,1.54029 14.696,1.647 L14.78,1.72 L19.777,6.717 C19.904,6.84399 19.9812,7.01234 19.9946,7.19145 C20.008,7.37056 19.9567,7.54853 19.85,7.693 L19.777,7.778 L14.781,12.781 C14.6473,12.9155 14.4677,12.9945 14.2782,13.0018 C14.0887,13.0092 13.9034,12.9446 13.7597,12.8209 C13.6159,12.6972 13.5244,12.5236 13.5035,12.3351 C13.4826,12.1466 13.5339,11.9572 13.647,11.805 L13.719,11.721 L17.43,8.004 L3.753,8.004 C3.57191,8.00403 3.39693,7.93853 3.26036,7.81961 C3.1238,7.70069 3.03487,7.53637 3.01,7.357 L3.003,7.255 C3.003,7.07376 3.06864,6.89866 3.18777,6.76207 C3.30689,6.62548 3.47145,6.53665 3.651,6.512 L3.753,6.505 L17.443,6.504 L13.72,2.78 C13.593,2.65301 13.5158,2.48466 13.5024,2.30555 C13.489,2.12644 13.5403,1.94847 13.647,1.804 L13.72,1.72 L13.647,1.804 Z" id="Shape"></path>
        </g>
    </g>
</svg>