<?xml version="1.0" encoding="UTF-8" standalone="no"?>
<!--

    Copyright (C) 2017-2019 Dremio Corporation

    Licensed under the Apache License, Version 2.0 (the "License");
    you may not use this file except in compliance with the License.
    You may obtain a copy of the License at

        http://www.apache.org/licenses/LICENSE-2.0

    Unless required by applicable law or agreed to in writing, software
    distributed under the License is distributed on an "AS IS" BASIS,
    WITHOUT WARRANTIES OR CONDITIONS OF ANY KIND, either express or implied.
    See the License for the specific language governing permissions and
    limitations under the License.

-->
<svg width="20" height="20" viewBox="0 0 20 20" fill="none" xmlns="http://www.w3.org/2000/svg">
<path fill-rule="evenodd" clip-rule="evenodd" d="M13.5 3.5C13.5 1.57 11.93 0 10 0C8.07 0 6.5 1.57 6.5 3.5C6.5 5.43 8.07 7 10 7C11.93 7 13.5 5.43 13.5 3.5ZM7.5 3.5C7.5 2.121 8.622 1 10 1C11.378 1 12.5 2.121 12.5 3.5C12.5 4.879 11.378 6 10 6C8.622 6 7.5 4.879 7.5 3.5ZM17.5 14C17.776 14 18 13.776 18 13.5V8.5C18 8.224 17.776 8 17.5 8H2.5C2.224 8 2 8.224 2 8.5V13.5C2 13.776 2.224 14 2.5 14C2.776 14 3 13.776 3 13.5V9H9.5V13.5C9.5 13.776 9.724 14 10 14C10.276 14 10.5 13.776 10.5 13.5V9H17V13.5C17 13.776 17.224 14 17.5 14ZM15 17.5C15 16.121 16.122 15 17.5 15C18.878 15 20 16.121 20 17.5C20 18.879 18.878 20 17.5 20C16.122 20 15 18.879 15 17.5ZM16 17.5C16 18.327 16.673 19 17.5 19C18.327 19 19 18.327 19 17.5C19 16.673 18.327 16 17.5 16C16.673 16 16 16.673 16 17.5ZM2.5 15C1.122 15 0 16.121 0 17.5C0 18.879 1.122 20 2.5 20C3.878 20 5 18.879 5 17.5C5 16.121 3.878 15 2.5 15ZM2.5 19C1.673 19 1 18.327 1 17.5C1 16.673 1.673 16 2.5 16C3.327 16 4 16.673 4 17.5C4 18.327 3.327 19 2.5 19ZM7.5 17.5C7.5 16.121 8.622 15 10 15C11.378 15 12.5 16.121 12.5 17.5C12.5 18.879 11.378 20 10 20C8.622 20 7.5 18.879 7.5 17.5ZM8.5 17.5C8.5 18.327 9.173 19 10 19C10.827 19 11.5 18.327 11.5 17.5C11.5 16.673 10.827 16 10 16C9.173 16 8.5 16.673 8.5 17.5Z" fill="#77818F"/>
</svg>
