<?xml version="1.0" encoding="UTF-8" standalone="no"?>
<!--

    Copyright (C) 2017-2019 Dremio Corporation

    Licensed under the Apache License, Version 2.0 (the "License");
    you may not use this file except in compliance with the License.
    You may obtain a copy of the License at

        http://www.apache.org/licenses/LICENSE-2.0

    Unless required by applicable law or agreed to in writing, software
    distributed under the License is distributed on an "AS IS" BASIS,
    WITHOUT WARRANTIES OR CONDITIONS OF ANY KIND, either express or implied.
    See the License for the specific language governing permissions and
    limitations under the License.

-->
<svg width="16" height="21" viewBox="0 0 16 21" fill="none" xmlns="http://www.w3.org/2000/svg">
<path d="M1.503 2.627L1.5 4.75V15.254C1.5 16.116 1.84241 16.9426 2.4519 17.5521C3.0614 18.1616 3.88805 18.504 4.75 18.504H13.366C13.2107 18.9427 12.9233 19.3225 12.5433 19.5911C12.1633 19.8598 11.7094 20.004 11.244 20.004H4.75C3.49022 20.004 2.28204 19.5036 1.39124 18.6128C0.500445 17.722 0 16.5138 0 15.254V4.75C0 3.77 0.627 2.935 1.503 2.627ZM13.75 0C14.0455 0 14.3381 0.058198 14.611 0.171271C14.884 0.284344 15.1321 0.450078 15.341 0.65901C15.5499 0.867941 15.7157 1.11598 15.8287 1.38896C15.9418 1.66194 16 1.95453 16 2.25V15.25C16 15.5455 15.9418 15.8381 15.8287 16.111C15.7157 16.384 15.5499 16.6321 15.341 16.841C15.1321 17.0499 14.884 17.2157 14.611 17.3287C14.3381 17.4418 14.0455 17.5 13.75 17.5H4.75C4.15326 17.5 3.58097 17.2629 3.15901 16.841C2.73705 16.419 2.5 15.8467 2.5 15.25V2.25C2.5 1.65326 2.73705 1.08097 3.15901 0.65901C3.58097 0.237053 4.15326 0 4.75 0H13.75ZM13.75 1.5H4.75C4.55109 1.5 4.36032 1.57902 4.21967 1.71967C4.07902 1.86032 4 2.05109 4 2.25V15.25C4 15.664 4.336 16 4.75 16H13.75C13.9489 16 14.1397 15.921 14.2803 15.7803C14.421 15.6397 14.5 15.4489 14.5 15.25V2.25C14.5 2.05109 14.421 1.86032 14.2803 1.71967C14.1397 1.57902 13.9489 1.5 13.75 1.5Z" fill="#505862"/>
</svg>