<?xml version="1.0" encoding="UTF-8" standalone="no"?>
<!--

    Copyright (C) 2017-2019 Dremio Corporation

    Licensed under the Apache License, Version 2.0 (the "License");
    you may not use this file except in compliance with the License.
    You may obtain a copy of the License at

        http://www.apache.org/licenses/LICENSE-2.0

    Unless required by applicable law or agreed to in writing, software
    distributed under the License is distributed on an "AS IS" BASIS,
    WITHOUT WARRANTIES OR CONDITIONS OF ANY KIND, either express or implied.
    See the License for the specific language governing permissions and
    limitations under the License.

-->
<svg width="48" height="48" viewBox="0 0 48 48" fill="none" xmlns="http://www.w3.org/2000/svg">
<path fill-rule="evenodd" clip-rule="evenodd" d="M20.7138 23.6886C19.9934 25.5796 17.8773 26.4801 17.292 26.1649C16.9994 26.0073 17.292 25.3995 17.292 24.9943C16.8643 25.1519 16.1439 25.4671 15.7162 25.6472C17.5622 27.223 17.7648 29.9919 16.1889 31.8154C16.0539 31.9955 15.8963 32.1531 15.7162 32.2881C17.4721 34.922 16.5942 37.1732 14.1404 38.9291L14.0503 38.9966L14.0053 38.8165C13.6901 37.6009 13.1273 36.4753 12.3169 35.5073C11.8667 35.012 11.4165 34.5393 10.9212 34.0891C10.2909 33.5038 9.68305 32.8734 9.12026 32.2431C6.68899 29.7443 5.7435 25.3095 6.05866 21.8652C6.21624 20.1093 6.73401 18.3984 7.56695 16.8226C8.21979 15.5844 9.05272 14.4363 10.0207 13.4008C12.1819 11.0821 14.9283 9.37117 17.9674 8.44819C20.6463 7.52521 23.5503 7.66028 26.1391 8.83089C26.6119 9.07852 27.0621 9.37117 27.4898 9.70885L28.1202 10.2942L28.1877 10.3617L39.8938 4.37356C40.8618 3.90082 41.5822 3.90082 41.8973 4.23849C42.2125 4.57617 41.7623 5.49915 41.0869 5.99441L31.0242 13.2882C31.1367 13.9861 30.9341 14.6839 30.4614 15.2017C31.7896 15.6745 30.619 17.633 30.0337 18.3308C28.3453 20.3119 25.2837 21.8877 22.5373 23.0133C21.7944 23.3059 21.3666 23.441 20.7138 23.6886ZM14.1629 26.3C13.0598 26.7953 10.9212 27.9208 11.1238 29.114C11.3939 29.8569 12.2719 29.114 12.5871 28.7538C13.2849 28.0784 13.8252 27.2455 14.1404 26.3225V26.3H14.1629Z" fill="#383C42"/>
<path fill-rule="evenodd" clip-rule="evenodd" d="M29.8987 16.805C30.6415 15.8595 30.1238 15.3192 29.606 15.837C28.5479 16.85 27.0622 17.3002 25.5989 17.0301C23.5278 16.6924 23.4378 16.3772 23.798 16.0621C26.1842 16.8725 28.8181 15.972 30.2363 13.8784C30.7541 13.1581 29.0432 12.5728 28.0527 11.2446C23.2352 4.76119 8.19733 10.4116 6.77909 21.735C6.30635 25.2694 7.34189 28.8262 9.63809 31.5727C11.394 33.5537 13.3075 34.3866 14.3881 37.5158C16.4817 35.7148 16.144 33.6663 14.6132 31.8878C16.3466 31.0099 17.0219 28.8938 16.144 27.1829C15.8738 26.6651 15.4911 26.2149 15.0184 25.8772C14.1404 29.0288 11.0788 31.3701 10.3585 29.1414C9.88572 26.8452 13.6452 25.3369 19.6783 22.9957C24.721 21.1047 27.9852 19.5514 29.8987 16.7599" fill="#31D3DB"/>
<path fill-rule="evenodd" clip-rule="evenodd" d="M29.8984 16.8017C30.6413 15.8562 30.1235 15.3159 29.6058 15.8337C28.6828 16.7342 27.4221 17.1844 26.1389 17.0943C24.0679 16.9368 22.402 16.5316 20.8937 16.7116C18.0572 17.1394 15.4234 18.4676 13.4198 20.4936C10.7859 23.195 7.88193 28.8005 10.7859 29.881C10.5608 29.6784 10.4258 29.4083 10.3582 29.1381C9.88547 26.8419 13.6674 25.3336 19.6781 23.0149C24.7207 21.1239 27.9849 19.5706 29.8984 16.7792" fill="white"/>
<path fill-rule="evenodd" clip-rule="evenodd" d="M16.9766 21.2379C18.53 22.0033 18.2148 24.6597 17.9897 25.335C20.9387 24.4571 20.0608 20.1348 21.4115 18.8066C19.6781 18.7391 16.5039 20.4725 16.9766 21.2379Z" fill="#31D3DB"/>
<path fill-rule="evenodd" clip-rule="evenodd" d="M21.9519 13.3358C22.3121 13.0206 22.8749 13.0656 23.19 13.4258C23.5052 13.786 23.4602 14.3488 23.1 14.664C22.7398 14.9791 22.177 14.9341 21.8619 14.5739C21.8168 14.5289 21.7718 14.4613 21.7493 14.4163C21.5467 14.0561 21.6367 13.6059 21.9519 13.3358Z" fill="#383C42"/>
<path fill-rule="evenodd" clip-rule="evenodd" d="M29.1106 13.6927L40.9293 5.4759C41.267 5.25078 41.6947 4.73301 41.5146 4.48538C41.3345 4.23775 40.8167 4.37282 40.389 4.57543L27.6023 11.464C27.1971 12.342 28.0301 14.1429 29.1106 13.6927Z" fill="#31D3DB"/>
<path fill-rule="evenodd" clip-rule="evenodd" d="M28.0752 12.0771L40.4116 4.85078C40.7268 4.62567 41.1095 4.51311 41.4922 4.51311C41.3121 4.3105 40.7943 4.42306 40.3891 4.62567L27.6024 11.4692C27.3323 12.3022 27.67 13.1801 28.3904 13.6754C28.1202 13.1801 28.0077 12.6173 28.0752 12.0771Z" fill="white"/>
<path fill-rule="evenodd" clip-rule="evenodd" d="M9.88565 15.2903C10.0657 15.2453 10.2458 15.2903 10.4034 15.4254C10.5385 15.538 10.606 15.7406 10.606 15.9206C10.606 16.3484 10.2909 16.7311 9.86314 16.7986C9.54798 16.8661 9.23281 16.6635 9.16528 16.3484C9.16528 16.3033 9.14277 16.2358 9.16528 16.1908C9.16528 15.7631 9.48044 15.4029 9.88565 15.2903Z" fill="#21AAAD"/>
<path fill-rule="evenodd" clip-rule="evenodd" d="M12.2719 12.6626C12.542 12.5951 12.8347 12.7752 12.8797 13.0678C12.8797 13.1128 12.9022 13.1804 12.8797 13.2254C12.8572 13.6081 12.5871 13.9008 12.2269 14.0133C12.0693 14.0583 11.8892 14.0133 11.7766 13.9008C11.6416 13.7882 11.574 13.6306 11.5966 13.473C11.6416 13.0678 11.9117 12.7527 12.2719 12.6626Z" fill="#21AAAD"/>
<path fill-rule="evenodd" clip-rule="evenodd" d="M19.5204 9.16406C19.8131 9.16406 20.0382 9.41169 20.0157 9.70434C20.0157 9.74937 20.0157 9.79439 19.9932 9.83941C19.9031 10.1996 19.5655 10.4472 19.2053 10.4472C18.9126 10.4472 18.6875 10.1996 18.6875 9.90695C18.6875 9.86193 18.6875 9.8169 18.71 9.77188C18.8226 9.41169 19.1377 9.16406 19.5204 9.16406Z" fill="#21AAAD"/>
<path fill-rule="evenodd" clip-rule="evenodd" d="M21.7498 8.80377C21.9974 8.84879 22.155 9.07391 22.11 9.29903C22.11 9.34405 22.0875 9.38908 22.065 9.41159C21.9299 9.68173 21.6373 9.86182 21.3221 9.8168C21.0745 9.77178 20.9394 9.54666 20.9619 9.29903C20.9619 9.27652 20.9844 9.23149 20.9844 9.20898C21.142 8.93884 21.4346 8.75875 21.7498 8.80377Z" fill="#21AAAD"/>
<path fill-rule="evenodd" clip-rule="evenodd" d="M12.2945 14.3212C12.4971 14.2762 12.6997 14.4112 12.7448 14.6138C12.7448 14.6589 12.7448 14.6814 12.7448 14.7264C12.7448 14.9965 12.5422 15.2216 12.272 15.2892C12.0694 15.3342 11.8668 15.1991 11.8218 14.9965C11.8218 14.9515 11.8218 14.929 11.8218 14.884C11.8443 14.6138 12.0244 14.3887 12.2945 14.3212Z" fill="#21AAAD"/>
<path fill-rule="evenodd" clip-rule="evenodd" d="M8.57978 17.4082C8.78239 17.3632 9.0075 17.4758 9.05253 17.7009C9.05253 17.7459 9.07504 17.7909 9.05253 17.8359C9.05253 18.1286 8.84992 18.3762 8.55727 18.4438C8.33215 18.4888 8.10704 18.3537 8.06201 18.1286C8.06201 18.0836 8.06201 18.0385 8.06201 17.9935C8.06201 17.7009 8.28713 17.4532 8.55727 17.4082" fill="#21AAAD"/>
<path fill-rule="evenodd" clip-rule="evenodd" d="M39.2638 5.13281L38.9486 5.31291C39.0162 5.69561 39.2413 6.05579 39.5339 6.30342C39.3763 5.94324 39.2863 5.53802 39.2638 5.13281ZM36.4723 6.6411L36.1121 6.8437C36.1121 7.31645 36.4498 8.03683 36.8325 8.12687C36.5849 7.67664 36.4723 7.15887 36.5174 6.6411H36.4723ZM33.5683 8.21692L33.0956 8.48706C33.1631 9.1399 33.5233 9.72521 34.0861 10.1079C33.7709 9.5226 33.6133 8.89227 33.6133 8.23943H33.5683V8.21692ZM30.6643 9.81525L30.124 10.0854C30.1916 10.8733 30.6193 11.5937 31.2946 12.0214C30.8669 11.3686 30.6418 10.6032 30.6643 9.81525Z" fill="#21AAAD"/>
<path fill-rule="evenodd" clip-rule="evenodd" d="M22.774 25.72C22.315 26.207 22 26.81 22 27.5V39.5C22 40.19 22.315 40.793 22.774 41.28C23.229 41.763 23.853 42.163 24.567 42.483C25.996 43.123 27.917 43.5 30 43.5C32.083 43.5 34.004 43.123 35.433 42.483C36.147 42.163 36.771 41.762 37.226 41.28C37.3057 41.1955 37.381 41.1074 37.4511 41.016C37.8026 40.5579 37.3902 40.0088 36.8128 40.0088H36.6388C36.4454 40.0088 36.2681 40.1096 36.135 40.25C35.856 40.546 35.418 40.846 34.82 41.114C33.625 41.65 31.921 42 30 42C28.079 42 26.375 41.649 25.18 41.114C24.582 40.846 24.144 40.546 23.865 40.25C23.59 39.96 23.5 39.707 23.5 39.5V29.892C23.8373 30.1202 24.1944 30.3177 24.567 30.482C25.996 31.123 27.917 31.5 30 31.5C32.083 31.5 34.004 31.123 35.433 30.482C35.82 30.309 36.18 30.112 36.5 29.892V30.9688C36.5 31.383 36.8358 31.7188 37.25 31.7188C37.6642 31.7188 38 31.383 38 30.9688V27.5C38 26.81 37.685 26.207 37.226 25.72C36.771 25.238 36.147 24.838 35.433 24.518C34.004 23.877 32.083 23.5 30 23.5C27.917 23.5 25.996 23.877 24.567 24.518C23.853 24.837 23.229 25.238 22.774 25.72ZM23.865 28.25C23.59 27.96 23.5 27.707 23.5 27.5C23.5 27.293 23.59 27.04 23.865 26.75C24.144 26.454 24.582 26.154 25.18 25.886C26.375 25.35 28.079 25 30 25C31.92 25 33.625 25.351 34.82 25.886C35.418 26.154 35.856 26.454 36.135 26.75C36.41 27.04 36.5 27.293 36.5 27.5C36.5 27.707 36.41 27.96 36.135 28.25C35.856 28.546 35.418 28.846 34.82 29.114C33.625 29.65 31.921 30 30 30C28.079 30 26.375 29.649 25.18 29.114C24.582 28.846 24.144 28.546 23.865 28.25Z" fill="#A672BB"/>
<path fill-rule="evenodd" clip-rule="evenodd" d="M31.8175 32.9515C31.8175 33.2009 31.6154 33.4031 31.366 33.4031H27.4515C27.2022 33.4031 27 33.2009 27 32.9515C27 32.7022 27.2022 32.5 27.4515 32.5H31.366C31.6154 32.5 31.8175 32.7022 31.8175 32.9515Z" fill="#43B8C9"/>
<path fill-rule="evenodd" clip-rule="evenodd" d="M34.6814 32.9515C34.6814 33.2009 34.4792 33.4031 34.2298 33.4031H32.7692C32.5198 33.4031 32.3176 33.2009 32.3176 32.9515C32.3176 32.7022 32.5198 32.5 32.7692 32.5H34.2298C34.4792 32.5 34.6814 32.7022 34.6814 32.9515Z" fill="#A672BB"/>
<path fill-rule="evenodd" clip-rule="evenodd" d="M38.4231 32.9515C38.4231 33.2009 38.2209 33.4031 37.9716 33.4031H35.6329C35.3836 33.4031 35.1814 33.2009 35.1814 32.9515C35.1814 32.7022 35.3836 32.5 35.6329 32.5H37.9716C38.2209 32.5 38.4231 32.7022 38.4231 32.9515Z" fill="#43B8C9"/>
<path fill-rule="evenodd" clip-rule="evenodd" d="M31.8175 34.8539C31.8175 35.1032 31.6154 35.3054 31.366 35.3054H27.4515C27.2022 35.3054 27 35.1032 27 34.8539C27 34.6045 27.2022 34.4023 27.4515 34.4023H31.366C31.6154 34.4023 31.8175 34.6045 31.8175 34.8539Z" fill="#A672BB"/>
<path fill-rule="evenodd" clip-rule="evenodd" d="M34.6814 34.8539C34.6814 35.1032 34.4792 35.3054 34.2298 35.3054H32.7692C32.5198 35.3054 32.3176 35.1032 32.3176 34.8539C32.3176 34.6045 32.5198 34.4023 32.7692 34.4023H34.2298C34.4792 34.4023 34.6814 34.6045 34.6814 34.8539Z" fill="#43B8C9"/>
<path fill-rule="evenodd" clip-rule="evenodd" d="M38.4231 34.8539C38.4231 35.1032 38.2209 35.3054 37.9716 35.3054H35.6329C35.3836 35.3054 35.1814 35.1032 35.1814 34.8539C35.1814 34.6045 35.3836 34.4023 35.6329 34.4023H37.9716C38.2209 34.4023 38.4231 34.6045 38.4231 34.8539Z" fill="#A672BB"/>
<path fill-rule="evenodd" clip-rule="evenodd" d="M31.8175 36.7562C31.8175 37.0056 31.6154 37.2078 31.366 37.2078H27.4515C27.2022 37.2078 27 37.0056 27 36.7562C27 36.5068 27.2022 36.3047 27.4515 36.3047H31.366C31.6154 36.3047 31.8175 36.5068 31.8175 36.7562Z" fill="#43B8C9"/>
<path fill-rule="evenodd" clip-rule="evenodd" d="M34.6814 36.7562C34.6814 37.0056 34.4792 37.2078 34.2298 37.2078H32.7692C32.5198 37.2078 32.3176 37.0056 32.3176 36.7562C32.3176 36.5068 32.5198 36.3047 32.7692 36.3047H34.2298C34.4792 36.3047 34.6814 36.5068 34.6814 36.7562Z" fill="#A672BB"/>
<path fill-rule="evenodd" clip-rule="evenodd" d="M38.4231 36.7562C38.4231 37.0056 38.2209 37.2078 37.9715 37.2078H35.6329C35.3836 37.2078 35.1814 37.0056 35.1814 36.7562C35.1814 36.5068 35.3836 36.3047 35.6329 36.3047H37.9715C38.2209 36.3047 38.4231 36.5068 38.4231 36.7562Z" fill="#43B8C9"/>
<path fill-rule="evenodd" clip-rule="evenodd" d="M31.8175 38.6586C31.8175 38.9079 31.6154 39.1101 31.366 39.1101H27.4515C27.2022 39.1101 27 38.9079 27 38.6586C27 38.4092 27.2022 38.207 27.4515 38.207H31.366C31.6154 38.207 31.8175 38.4092 31.8175 38.6586Z" fill="#A672BB"/>
<path fill-rule="evenodd" clip-rule="evenodd" d="M34.6814 38.6586C34.6814 38.9079 34.4792 39.1101 34.2298 39.1101H32.7692C32.5198 39.1101 32.3176 38.9079 32.3176 38.6586C32.3176 38.4092 32.5198 38.207 32.7692 38.207H34.2298C34.4792 38.207 34.6814 38.4092 34.6814 38.6586Z" fill="#43B8C9"/>
<path fill-rule="evenodd" clip-rule="evenodd" d="M41.2643 32.9515C41.2643 33.2009 41.0622 33.4031 40.8128 33.4031H39.3746C39.1253 33.4031 38.9231 33.2009 38.9231 32.9515C38.9231 32.7022 39.1253 32.5 39.3746 32.5H40.8128C41.0622 32.5 41.2643 32.7022 41.2643 32.9515Z" fill="#A672BB"/>
<path fill-rule="evenodd" clip-rule="evenodd" d="M41.2643 34.8539C41.2643 35.1032 41.0622 35.3054 40.8128 35.3054H39.3746C39.1253 35.3054 38.9231 35.1032 38.9231 34.8539C38.9231 34.6045 39.1253 34.4023 39.3746 34.4023H40.8128C41.0622 34.4023 41.2643 34.6045 41.2643 34.8539Z" fill="#43B8C9"/>
<path fill-rule="evenodd" clip-rule="evenodd" d="M41.2643 36.7562C41.2643 37.0056 41.0622 37.2078 40.8128 37.2078H39.3746C39.1253 37.2078 38.9231 37.0056 38.9231 36.7562C38.9231 36.5068 39.1253 36.3047 39.3746 36.3047H40.8128C41.0622 36.3047 41.2643 36.5068 41.2643 36.7562Z" fill="#A672BB"/>
<path fill-rule="evenodd" clip-rule="evenodd" d="M41.2643 38.6586C41.2643 38.9079 41.0622 39.1101 40.8128 39.1101H39.3746C39.1253 39.1101 38.9231 38.9079 38.9231 38.6586C38.9231 38.4092 39.1253 38.207 39.3746 38.207H40.8128C41.0622 38.207 41.2643 38.4092 41.2643 38.6586Z" fill="#43B8C9"/>
<path fill-rule="evenodd" clip-rule="evenodd" d="M38.4231 38.6586C38.4231 38.9079 38.2209 39.1101 37.9716 39.1101H35.6329C35.3836 39.1101 35.1814 38.9079 35.1814 38.6586C35.1814 38.4092 35.3836 38.207 35.6329 38.207H37.9716C38.2209 38.207 38.4231 38.4092 38.4231 38.6586Z" fill="#A672BB"/>
</svg>
