<?xml version="1.0" encoding="UTF-8"?>
<!--

    Copyright (C) 2017-2019 Dremio Corporation

    Licensed under the Apache License, Version 2.0 (the "License");
    you may not use this file except in compliance with the License.
    You may obtain a copy of the License at

        http://www.apache.org/licenses/LICENSE-2.0

    Unless required by applicable law or agreed to in writing, software
    distributed under the License is distributed on an "AS IS" BASIS,
    WITHOUT WARRANTIES OR CONDITIONS OF ANY KIND, either express or implied.
    See the License for the specific language governing permissions and
    limitations under the License.

-->
<svg width="24px" height="24px" viewBox="0 0 24 24" version="1.1" xmlns="http://www.w3.org/2000/svg"
     xmlns:xlink="http://www.w3.org/1999/xlink">
  <!-- Generator: Sketch 64 (93537) - https://sketch.com -->
  <title>Icon/ Engine / Decommissioning@2x</title>
  <desc>Created with Sketch.</desc>
  <g id="Icon/-Engine-/-Decommissioning" stroke="none" stroke-width="1" fill="none" fill-rule="evenodd">
    <g id="Icon/HealthStatus-2" opacity="0.5" transform="translate(4.000000, 4.000000)" fill="#666666">
      <g id="Icon/HealthStatus">
        <circle id="Oval" cx="8" cy="8" r="8"></circle>
      </g>
    </g>
    <path
      d="M12.6128994,7.38127749 L12.7071068,7.46446609 L15.5355339,10.2928932 C15.9260582,10.6834175 15.9260582,11.3165825 15.5355339,11.7071068 C15.1750499,12.0675907 14.6078189,12.0953203 14.2155277,11.7902954 L14.1213203,11.7071068 L12.9995729,10.5855729 L13,16 C13,16.5522847 12.5522847,17 12,17 C11.4477153,17 11,16.5522847 11,16 L10.9995729,10.5855729 L9.87867966,11.7071068 C9.48815536,12.0976311 8.85499039,12.0976311 8.46446609,11.7071068 C8.0739418,11.3165825 8.0739418,10.6834175 8.46446609,10.2928932 L11.2928932,7.46446609 C11.6533772,7.10398213 12.2206082,7.0762526 12.6128994,7.38127749 Z"
      id="Combined-Shape" fill="#FFFFFF"
      transform="translate(12.000000, 12.085786) rotate(-180.000000) translate(-12.000000, -12.085786) "></path>
  </g>
</svg>
