<?xml version="1.0" encoding="UTF-8" standalone="no"?>
<!--

    Copyright (C) 2017-2019 Dremio Corporation

    Licensed under the Apache License, Version 2.0 (the "License");
    you may not use this file except in compliance with the License.
    You may obtain a copy of the License at

        http://www.apache.org/licenses/LICENSE-2.0

    Unless required by applicable law or agreed to in writing, software
    distributed under the License is distributed on an "AS IS" BASIS,
    WITHOUT WARRANTIES OR CONDITIONS OF ANY KIND, either express or implied.
    See the License for the specific language governing permissions and
    limitations under the License.

-->
<svg width="24" height="24" viewBox="0 0 24 24" fill="none" xmlns="http://www.w3.org/2000/svg">
<path d="M11.25 2.75C11.25 2.33579 11.5858 2 12 2C12.0389 2 12.0779 2.00022 12.1167 2.00067C12.5309 2.00541 12.8628 2.34502 12.8581 2.75921C12.8533 3.17339 12.5137 3.50531 12.0995 3.50057C12.0664 3.50019 12.0332 3.5 12 3.5C11.5858 3.5 11.25 3.16421 11.25 2.75Z" fill="#505862"/>
<path d="M14.0406 2.94448C14.1639 2.54904 14.5844 2.32842 14.9799 2.45171C15.0542 2.47488 15.1281 2.49889 15.2017 2.52373C15.5941 2.65627 15.8048 3.08185 15.6722 3.47429C15.5397 3.86672 15.1141 4.0774 14.7217 3.94486C14.6592 3.92377 14.5965 3.90339 14.5334 3.88373C14.138 3.76044 13.9173 3.33992 14.0406 2.94448Z" fill="#505862"/>
<path d="M16.7385 4.01892C16.9783 3.6812 17.4465 3.60186 17.7842 3.8417C17.8474 3.88661 17.9101 3.93224 17.9723 3.97857C18.3043 4.22617 18.3728 4.69609 18.1252 5.02815C17.8776 5.36021 17.4077 5.42867 17.0756 5.18107C17.0228 5.14166 16.9694 5.10286 16.9157 5.06467C16.578 4.82483 16.4986 4.35663 16.7385 4.01892Z" fill="#505862"/>
<path d="M18.9719 5.87481C19.3039 5.6272 19.7738 5.69567 20.0214 6.02773C20.0678 6.08986 20.1134 6.15256 20.1583 6.2158C20.3981 6.55351 20.3188 7.02171 19.9811 7.26155C19.6434 7.50138 19.1752 7.42204 18.9353 7.08433C18.8971 7.03055 18.8583 6.97723 18.8189 6.92439C18.5713 6.59233 18.6398 6.12241 18.9719 5.87481Z" fill="#505862"/>
<path d="M20.5257 8.32777C20.9181 8.19523 21.3437 8.40591 21.4763 8.79835C21.5011 8.8719 21.5251 8.94583 21.5483 9.02013C21.6716 9.41557 21.451 9.83608 21.0555 9.95937C20.6601 10.0827 20.2396 9.86204 20.1163 9.4666C20.0966 9.40353 20.0762 9.34077 20.0551 9.27833C19.9226 8.8859 20.1333 8.46032 20.5257 8.32777Z" fill="#505862"/>
<path d="M21.2408 11.1419C21.655 11.1372 21.9946 11.4691 21.9993 11.8833C21.9998 11.9221 22 11.9611 22 12C22 12.039 21.9998 12.078 21.9993 12.1169C21.9946 12.5311 21.655 12.863 21.2408 12.8583C20.8266 12.8535 20.4947 12.5139 20.4994 12.0997C20.4998 12.0665 20.5 12.0333 20.5 12C20.5 11.9668 20.4998 11.9336 20.4994 11.9005C20.4947 11.4863 20.8266 11.1467 21.2408 11.1419Z" fill="#505862"/>
<path d="M21.0522 14.0556C21.4474 14.1795 21.6673 14.6004 21.5434 14.9956C21.52 15.0702 21.4957 15.1444 21.4707 15.2182C21.3374 15.6104 20.9115 15.8203 20.5193 15.6871C20.1271 15.5539 19.9171 15.1279 20.0504 14.7357C20.0717 14.6731 20.0922 14.6101 20.1121 14.5468C20.236 14.1515 20.6569 13.9316 21.0522 14.0556Z" fill="#505862"/>
<path d="M19.9651 16.7652C20.302 17.0061 20.3798 17.4746 20.1388 17.8115C20.1161 17.8432 20.0933 17.8748 20.0702 17.9063C19.8254 18.2403 19.356 18.3126 19.0219 18.0678C18.6879 17.8229 18.6156 17.3535 18.8604 17.0195C18.88 16.9927 18.8995 16.9659 18.9188 16.9389C19.1597 16.602 19.6282 16.5242 19.9651 16.7652Z" fill="#505862"/>
<path d="M9.7095 3.00415C9.84377 3.396 9.63497 3.8225 9.24313 3.95677C5.90088 5.10206 3.5 8.27159 3.5 11.9999C3.5 16.6944 7.30558 20.4999 12 20.4999C13.9564 20.4999 15.7566 19.8399 17.1928 18.7299C17.5206 18.4766 17.9916 18.5369 18.2449 18.8647C18.4982 19.1924 18.4378 19.6634 18.1101 19.9167C16.4204 21.2226 14.2999 21.9999 12 21.9999C6.47715 21.9999 2 17.5228 2 11.9999C2 7.61112 4.82684 3.88449 8.75687 2.53777C9.14872 2.4035 9.57523 2.6123 9.7095 3.00415Z" fill="#505862"/>
<path fill-rule="evenodd" clip-rule="evenodd" d="M11 6.5C10.2176 6.5 9.58333 7.13426 9.58333 7.91667V8.75H7.75C7.33579 8.75 7 9.08579 7 9.5C7 9.91421 7.33579 10.25 7.75 10.25H8.0409L8.55459 15.6152C8.65692 16.684 9.55476 17.5 10.6284 17.5H13.442C14.5241 17.5 15.4261 16.6715 15.5178 15.5933L15.9726 10.25H16.25C16.6642 10.25 17 9.91421 17 9.5C17 9.08579 16.6642 8.75 16.25 8.75H14.4167V7.91667C14.4167 7.13426 13.7824 6.5 13 6.5H11ZM10.0478 15.4723L9.54776 10.25H14.4671L14.0232 15.4661C13.9975 15.768 13.745 16 13.442 16H10.6284C10.3278 16 10.0764 15.7715 10.0478 15.4723ZM12.9167 8.75V8H11.0833V8.75H12.9167Z" fill="#505862"/>
</svg>
