<?xml version="1.0" encoding="UTF-8" standalone="no"?>
<!--

    Copyright (C) 2017-2019 Dremio Corporation

    Licensed under the Apache License, Version 2.0 (the "License");
    you may not use this file except in compliance with the License.
    You may obtain a copy of the License at

        http://www.apache.org/licenses/LICENSE-2.0

    Unless required by applicable law or agreed to in writing, software
    distributed under the License is distributed on an "AS IS" BASIS,
    WITHOUT WARRANTIES OR CONDITIONS OF ANY KIND, either express or implied.
    See the License for the specific language governing permissions and
    limitations under the License.

-->
<svg width="24" height="24" viewBox="0 0 24 24" fill="none" xmlns="http://www.w3.org/2000/svg">
<path d="M12 2.00098C17.524 2.00098 22 6.47798 22 12.001C22 17.524 17.524 22.001 12 22.001C6.478 22.001 2 17.524 2 12.001C2 6.47798 6.478 2.00098 12 2.00098ZM12 3.50098C9.74566 3.50098 7.58365 4.39651 5.98959 5.99057C4.39553 7.58463 3.5 9.74664 3.5 12.001C3.5 14.2553 4.39553 16.4173 5.98959 18.0114C7.58365 19.6054 9.74566 20.501 12 20.501C14.2543 20.501 16.4163 19.6054 18.0104 18.0114C19.6045 16.4173 20.5 14.2553 20.5 12.001C20.5 9.74664 19.6045 7.58463 18.0104 5.99057C16.4163 4.39651 14.2543 3.50098 12 3.50098Z" fill="#505862"/>
<path d="M13.7542 8.74615V15.2461L13.7602 15.3481C13.7861 15.5364 13.8824 15.7078 14.0299 15.8277C14.1773 15.9476 14.3647 16.0071 14.5543 15.9942C14.7439 15.9812 14.9214 15.8968 15.0512 15.7579C15.1809 15.6191 15.2531 15.4362 15.2532 15.2461V8.74615L15.2462 8.64415C15.2187 8.45731 15.1218 8.28771 14.9747 8.16921C14.8277 8.05071 14.6414 7.99204 14.453 8.00492C14.2646 8.0178 14.0879 8.10128 13.9584 8.23869C13.8289 8.37609 13.7559 8.55731 13.7542 8.74615Z" fill="#505862"/>
<path d="M8.75415 15.2462V8.74616C8.75592 8.55733 8.82886 8.37611 8.9584 8.2387C9.08795 8.1013 9.26456 8.01782 9.45296 8.00494C9.64137 7.99206 9.8277 8.05073 9.97474 8.16922C10.1218 8.28772 10.2187 8.45733 10.2462 8.64416L10.2532 8.74616V15.2462C10.2531 15.4362 10.1809 15.6191 10.0512 15.758C9.92145 15.8968 9.74385 15.9812 9.55427 15.9942C9.36469 16.0071 9.17726 15.9476 9.02985 15.8277C8.88245 15.7078 8.78605 15.5364 8.76015 15.3482L8.75415 15.2462Z" fill="#505862"/>
</svg>
