<?xml version="1.0" encoding="UTF-8" standalone="no"?>
<!--

    Copyright (C) 2017-2019 Dremio Corporation

    Licensed under the Apache License, Version 2.0 (the "License");
    you may not use this file except in compliance with the License.
    You may obtain a copy of the License at

        http://www.apache.org/licenses/LICENSE-2.0

    Unless required by applicable law or agreed to in writing, software
    distributed under the License is distributed on an "AS IS" BASIS,
    WITHOUT WARRANTIES OR CONDITIONS OF ANY KIND, either express or implied.
    See the License for the specific language governing permissions and
    limitations under the License.

-->
<svg width="21" height="20" viewBox="0 0 21 20" fill="none" xmlns="http://www.w3.org/2000/svg">
<path d="M13.7251 2.22399L17.8651 6.36399C18.0392 6.5381 18.1773 6.7448 18.2716 6.97228C18.3658 7.19977 18.4143 7.44359 18.4143 7.68982C18.4143 7.93605 18.3658 8.17987 18.2716 8.40736C18.1773 8.63484 18.0392 8.84154 17.8651 9.01565L10.631 16.249L15.7118 16.2498C15.863 16.2496 16.0091 16.3042 16.1231 16.4035C16.2371 16.5028 16.3112 16.64 16.3318 16.7898L16.3368 16.8748C16.3368 17.0259 16.2821 17.1718 16.1828 17.2856C16.0835 17.3994 15.9464 17.4734 15.7968 17.494L15.7118 17.4998L8.70345 17.5007C8.44036 17.5154 8.1771 17.4745 7.93095 17.3804C7.6848 17.2863 7.4613 17.1413 7.27512 16.9548L3.13512 12.814C2.96101 12.6399 2.82289 12.4332 2.72867 12.2057C2.63444 11.9782 2.58594 11.7344 2.58594 11.4882C2.58594 11.2419 2.63444 10.9981 2.72867 10.7706C2.82289 10.5431 2.96101 10.3364 3.13512 10.1623L11.0735 2.22399C11.2476 2.04988 11.4543 1.91176 11.6818 1.81753C11.9092 1.7233 12.1531 1.6748 12.3993 1.6748C12.6455 1.6748 12.8893 1.7233 13.1168 1.81753C13.3443 1.91176 13.551 2.04988 13.7251 2.22399ZM5.25762 9.80649L4.01845 11.0465C3.90141 11.1637 3.83567 11.3225 3.83567 11.4882C3.83567 11.6538 3.90141 11.8126 4.01845 11.9298L8.15929 16.0707C8.28095 16.1923 8.44095 16.254 8.60095 16.254L8.62512 16.2498L8.65679 16.2515C8.80267 16.2385 8.93929 16.1744 9.04262 16.0707L10.2818 14.8315L5.25679 9.80649H5.25762ZM11.9576 3.10732L6.14095 8.92232L11.166 13.9473L16.9818 8.13232C17.0399 8.07428 17.0859 8.00536 17.1174 7.92951C17.1488 7.85365 17.165 7.77235 17.165 7.69024C17.165 7.60813 17.1488 7.52682 17.1174 7.45097C17.0859 7.37511 17.0399 7.3062 16.9818 7.24815L12.841 3.10732C12.7238 2.99028 12.5649 2.92454 12.3993 2.92454C12.2337 2.92454 12.0748 2.99028 11.9576 3.10732Z" fill="#505862"/>
</svg>
