<?xml version="1.0" encoding="UTF-8"?>
<!--

    Copyright (C) 2017-2018 Dremio Corporation

    Licensed under the Apache License, Version 2.0 (the "License");
    you may not use this file except in compliance with the License.
    You may obtain a copy of the License at

        http://www.apache.org/licenses/LICENSE-2.0

    Unless required by applicable law or agreed to in writing, software
    distributed under the License is distributed on an "AS IS" BASIS,
    WITHOUT WARRANTIES OR CONDITIONS OF ANY KIND, either express or implied.
    See the License for the specific language governing permissions and
    limitations under the License.

-->
<svg width="24px" height="24px" viewBox="0 0 24 24" version="1.1" xmlns="http://www.w3.org/2000/svg" xmlns:xlink="http://www.w3.org/1999/xlink">
    <!-- Generator: Sketch 52.4 (67378) - http://www.bohemiancoding.com/sketch -->
    <title>Icon/DiskSwap</title>
    <desc>Created with Sketch.</desc>
    <g id="Icon/DiskSwap" stroke="none" stroke-width="1" fill="none" fill-rule="evenodd">
        <g id="Fill-2551-+-Fill-2552-+-Fill-2553" transform="translate(4.000000, 2.000000)" fill="#757575">
            <path d="M8.4,2.67777778 C12.4417778,2.67777778 14.6222222,3.93911111 14.6222222,4.45555556 C14.6222222,4.972 12.4417778,6.23333333 8.4,6.23333333 C4.35822222,6.23333333 2.17777778,4.972 2.17777778,4.45555556 C2.17777778,3.93911111 4.35822222,2.67777778 8.4,2.67777778 L8.4,2.67777778 Z M7.28888889,16.8768889 C7.00266667,16.8902222 7.1216796,16.8659267 6.55935864,16.8066875 C3.70037455,16.5055002 2.17777778,15.5537846 2.17777778,15.1222222 L2.17777778,13.8777778 C3.3232376,14.4861384 4.91049095,14.8770307 6.60722915,15.0380933 C7.19625909,15.0940069 6.99377778,15.1151111 7.28888889,15.1017778 L7.28888889,13.3213333 C7.00266667,13.3346667 7.11529386,13.3100157 6.55058885,13.2502056 C3.697261,12.9479981 2.17777778,11.9977875 2.17777778,11.5666667 L2.17777778,10.3222222 C3.30155097,10.9190649 4.85054736,11.3065959 6.51097769,11.4731426 C7.13057016,11.5352898 6.99377778,11.5595556 7.28888889,11.5462222 L7.28888889,9.76577778 C7.00266667,9.77911111 7.03844511,9.75002637 6.44541685,9.68315136 C3.65993779,9.36903657 2.17777778,8.43690423 2.17777778,8.01111111 L2.17777778,6.76666667 C3.72088889,7.58622222 6.06577778,8.01111111 8.4,8.01111111 C10.7342222,8.01111111 13.0791111,7.58622222 14.6222222,6.76666667 L14.6222222,8.01111111 C14.6222222,8.01288889 14.6213333,8.01466667 14.6213333,8.01644444 L16.4,8.01644444 L16.4,4.45555556 C16.4,2.12133333 12.376,0.9 8.4,0.9 C4.424,0.9 0.4,2.12133333 0.4,4.45555556 L0.4,15.1222222 C0.4,17.1026566 3.29663963,18.281988 6.6029949,18.5939854 C7.19364737,18.6497211 6.99288889,18.6688889 7.28888889,18.6555556 L7.28888889,16.8768889 Z" id="Fill-2551"></path>
        </g>
        <g id="Fill-816-+-Fill-817" transform="translate(12.000000, 11.000000)" fill="#757575">
            <polygon id="Fill-816" points="5.92493117 5.96339452 6.80588528 6.84434863 2 6.84434863 2 8.207 6.80588528 8.207 5.92493117 9.08795411 6.88832569 10.0513486 9.414 7.52567431 6.88832569 5"></polygon>
            <polygon id="Fill-817" points="4.07506883 1.25639452 3.11167431 0.293 0.586 2.81867431 3.11167431 5.34434863 4.07506883 4.38095411 3.19411472 3.5 8 3.5 8 2.13734863 3.19411472 2.13734863"></polygon>
        </g>
    </g>
</svg>
