<?xml version="1.0" encoding="UTF-8" standalone="no"?>
<!--

    Copyright (C) 2017-2019 Dremio Corporation

    Licensed under the Apache License, Version 2.0 (the "License");
    you may not use this file except in compliance with the License.
    You may obtain a copy of the License at

        http://www.apache.org/licenses/LICENSE-2.0

    Unless required by applicable law or agreed to in writing, software
    distributed under the License is distributed on an "AS IS" BASIS,
    WITHOUT WARRANTIES OR CONDITIONS OF ANY KIND, either express or implied.
    See the License for the specific language governing permissions and
    limitations under the License.

-->
<svg width="20" height="20" viewBox="0 0 20 20" fill="none" xmlns="http://www.w3.org/2000/svg">
<path d="M9.74995 0.00488281L9.64795 0.0118828C9.4684 0.0365311 9.30384 0.125364 9.18472 0.261952C9.0656 0.398541 8.99996 0.573645 8.99995 0.754883L8.99895 12.5L6.59987 10.1059L6.51587 10.0339C6.36367 9.92078 6.17426 9.86951 5.98577 9.89042C5.79728 9.91132 5.62371 10.0029 5.5 10.1466C5.37629 10.2903 5.31163 10.4756 5.31902 10.6651C5.32642 10.8546 5.40533 11.0343 5.53987 11.1679L9.22295 14.844L9.30795 14.917C9.45242 15.0237 9.63039 15.075 9.8095 15.0616C9.98861 15.0482 10.157 14.971 10.284 14.844L13.962 11.1659L14.035 11.0819C14.1419 10.9376 14.1934 10.7597 14.1802 10.5806C14.167 10.4014 14.0899 10.233 13.963 10.1059L13.878 10.0329C13.7336 9.9262 13.5556 9.87488 13.3765 9.88827C13.1974 9.90167 13.029 9.9789 12.902 10.1059L10.499 12.507L10.5 0.754883L10.493 0.652883C10.4683 0.473329 10.3795 0.308774 10.2429 0.18965C10.1063 0.0705255 9.93119 0.00489046 9.74995 0.00488281Z" fill="#505862"/>
<path d="M0 16.75V10.75C0 10.3358 0.335786 10 0.75 10C1.16421 10 1.5 10.3358 1.5 10.75V16.75C1.5 17.7165 2.2835 18.5 3.25 18.5H16.75C17.7165 18.5 18.5 17.7165 18.5 16.75V10.75C18.5 10.3358 18.8358 10 19.25 10C19.6642 10 20 10.3358 20 10.75V16.75C20 18.5449 18.5449 20 16.75 20H3.25C1.45507 20 0 18.5449 0 16.75Z" fill="#505862"/>
</svg>