<?xml version="1.0" encoding="UTF-8" standalone="no"?>
<!--

    Copyright (C) 2017-2019 Dremio Corporation

    Licensed under the Apache License, Version 2.0 (the "License");
    you may not use this file except in compliance with the License.
    You may obtain a copy of the License at

        http://www.apache.org/licenses/LICENSE-2.0

    Unless required by applicable law or agreed to in writing, software
    distributed under the License is distributed on an "AS IS" BASIS,
    WITHOUT WARRANTIES OR CONDITIONS OF ANY KIND, either express or implied.
    See the License for the specific language governing permissions and
    limitations under the License.

-->
<!DOCTYPE svg PUBLIC "-//W3C//DTD SVG 1.1//EN" "http://www.w3.org/Graphics/SVG/1.1/DTD/svg11.dtd">
<svg width="18px" height="16px" viewBox="0 0 18 16" version="1.1" xmlns="http://www.w3.org/2000/svg" xmlns:xlink="http://www.w3.org/1999/xlink">
    <!-- Generator: Sketch 61.2 (89653) - https://sketch.com -->
    <title>Combined Shape</title>
    <desc>Created with Sketch.</desc>
    <g id="Page-1" stroke="none" stroke-width="1" fill="none" fill-rule="evenodd">
        <g id="Combined-Shape" fill="#000000">
            <path d="M0.508055,6.90866 C0.55039,6.67541 0.754539,6.49854 1,6.49854 C1.27614,6.49854 1.5,6.72239 1.5,6.99854 L1.5,12.9985 L1.50687,13.143 C1.57955,13.9036 2.2203,14.4985 3,14.4985 L15,14.4985 L15.1445,14.4917 C15.9051,14.419 16.5,13.7782 16.5,12.9985 L16.5,6.99854 L16.5081,6.90866 C16.5504,6.67541 16.7545,6.49854 17,6.49854 C17.2761,6.49854 17.5,6.72239 17.5,6.99854 L17.5,12.9985 L17.4947,13.1629 C17.41,14.467 16.3255,15.4985 15,15.4985 L3,15.4985 L2.83562,15.4932 C1.53154,15.4086 0.5,14.324 0.5,12.9985 L0.5,6.99854 L0.508055,6.90866 Z M9.49975,9.29304 L11.6458,7.14604 C11.8418,6.95104 12.1588,6.95104 12.3538,7.14604 C12.5487,7.34103 12.5487,7.65804 12.3538,7.85303 L9.35375,10.852 C9.30775,10.899 9.25275,10.936 9.19075,10.961 C9.06875,11.011 8.93075,11.011 8.80875,10.961 C8.74775,10.936 8.69175,10.899 8.64575,10.852 L5.64575,7.85303 C5.45075,7.65804 5.45075,7.34103 5.64575,7.14604 C5.74375,7.04904 5.87175,7.000035 5.99975,7.000035 C6.12775,7.000035 6.25575,7.04904 6.35375,7.14704 L8.49975,9.29304 L8.49975,1.000035 C8.49975,0.724035 8.72375,0.500035 8.99975,0.500035 C9.27575,0.500035 9.49975,0.724035 9.49975,1.000035 L9.49975,9.29304 Z" id="Shape"></path>
        </g>
    </g>
</svg>