<?xml version="1.0" encoding="UTF-8" standalone="no"?>
<!--

    Copyright (C) 2017-2019 Dremio Corporation

    Licensed under the Apache License, Version 2.0 (the "License");
    you may not use this file except in compliance with the License.
    You may obtain a copy of the License at

        http://www.apache.org/licenses/LICENSE-2.0

    Unless required by applicable law or agreed to in writing, software
    distributed under the License is distributed on an "AS IS" BASIS,
    WITHOUT WARRANTIES OR CONDITIONS OF ANY KIND, either express or implied.
    See the License for the specific language governing permissions and
    limitations under the License.

-->
<svg width="32" height="32" viewBox="0 0 32 32" fill="none" xmlns="http://www.w3.org/2000/svg">
<path fill-rule="evenodd" clip-rule="evenodd" d="M7.26638 20.4177C6.29109 20.8715 4.39362 21.8873 4.57358 22.9881C4.82113 23.6651 5.59386 22.9498 5.87872 22.6648C6.49365 22.0723 6.9813 21.2488 7.26638 20.4177ZM13.0865 17.9856C12.4415 19.7172 10.559 20.5406 10.034 20.2485C9.77132 20.1019 10.0564 19.5555 10.0639 19.1786C9.68134 19.3322 9.05127 19.6172 8.66874 19.7789C9.5839 20.4792 10.0564 21.6875 10.0489 22.8342C10.0489 24.0118 9.57666 25.097 8.69135 25.8436C10.2664 28.2365 9.46407 30.2992 7.29645 31.9077L7.16126 32L7.11627 31.8387C6.79388 30.6997 6.38875 29.7375 5.62371 28.8291C5.24118 28.3755 4.80599 27.9597 4.3787 27.5439C3.81622 26.9975 3.27634 26.4436 2.76609 25.8513C0.620849 23.5113 -0.226714 19.4555 0.0511251 16.3233C0.193337 14.7072 0.673739 13.1601 1.4085 11.7287C1.99358 10.5897 2.73602 9.54302 3.59127 8.60423C5.48106 6.5262 7.98643 4.8867 10.6492 4.07878C12.9889 3.36321 15.6665 3.23978 17.8945 4.41754C18.2544 4.60966 18.7943 4.94819 19.0945 5.20249C19.2824 5.3793 19.4694 5.56399 19.6495 5.74125C19.6719 5.75657 19.6947 5.77977 19.7097 5.80252L30.1275 0.346163C30.99 -0.0923728 31.635 -0.0923728 31.8977 0.223183C32.2052 0.592571 31.7779 1.36198 31.1704 1.81606L22.2447 8.46549C22.402 8.9966 22.1395 9.76623 21.7493 10.2203C22.9421 10.6435 21.892 12.4366 21.3668 13.0754C19.8743 14.8917 17.1369 16.3157 14.6993 17.3544C14.0467 17.6394 13.6718 17.7626 13.0865 17.9856Z" fill="#2E3336"/>
<path fill-rule="evenodd" clip-rule="evenodd" d="M21.2547 11.7134C21.922 10.8512 21.457 10.3512 20.992 10.8361C20.0768 11.7979 18.6894 12.1287 17.4371 11.9208C15.6066 11.6055 15.5245 11.3208 15.8318 11.0435C17.9919 11.8519 20.5043 10.7976 21.5468 9.05042C21.9969 8.38868 20.4896 7.85757 19.5971 6.61855C15.3294 0.707665 1.97097 5.86445 0.695895 16.2001C0.305692 19.3093 1.15325 22.7493 3.2388 25.1735C4.79874 26.9901 6.49364 27.7444 7.45357 30.5997C9.32141 28.9523 9.02887 27.0903 7.66404 25.4585C9.99626 24.2118 9.65895 20.9715 8.01649 19.9868C7.25145 22.8725 4.50598 25.0044 3.86866 22.9572C3.45629 20.8715 6.80133 19.4865 12.1641 17.4008C16.6493 15.6767 19.5446 14.2529 21.2547 11.7134Z" fill="#31D3DB"/>
<path fill-rule="evenodd" clip-rule="evenodd" d="M21.2547 11.7134C21.9221 10.8512 21.457 10.3512 20.992 10.8361C20.2048 11.667 19.0195 12.029 17.9393 11.9749C16.0945 11.8364 14.6241 11.467 13.2744 11.6132C10.6189 11.8902 8.03145 13.6142 6.64379 15.0687C4.30389 17.5317 1.72345 22.6416 4.32627 23.6347C4.13117 23.5113 3.9736 23.2883 3.86869 22.9572C3.45632 20.8715 6.80137 19.4865 12.1641 17.4008C16.6493 15.6767 19.5446 14.2529 21.2547 11.7134Z" fill="#FFFFFE"/>
<path fill-rule="evenodd" clip-rule="evenodd" d="M9.77127 15.746C11.1512 16.4386 10.8738 18.8703 10.6713 19.4791C13.289 18.7167 12.5088 14.7381 13.7242 13.5218C12.2014 13.4756 9.35122 15.0455 9.77127 15.746Z" fill="#31D3DB"/>
<path fill-rule="evenodd" clip-rule="evenodd" d="M14.1968 8.54228C14.5716 8.3425 15.0294 8.48079 15.232 8.86595C15.4269 9.24277 15.2842 9.71239 14.9168 9.92028C14.5492 10.1203 14.0844 9.98155 13.8891 9.59707C13.6868 9.2198 13.8292 8.75018 14.1968 8.54228Z" fill="#2E3336"/>
<path fill-rule="evenodd" clip-rule="evenodd" d="M20.5495 8.87338L31.0501 1.36985C31.3425 1.1543 31.7329 0.692336 31.5751 0.469352C31.418 0.246143 30.9602 0.369122 30.5702 0.546158L19.2141 6.84152C18.8467 7.62647 19.5894 9.28128 20.5495 8.87338Z" fill="#31D3DB"/>
<path fill-rule="evenodd" clip-rule="evenodd" d="M19.627 7.38818L30.6003 0.761723C31.0802 0.469366 31.2677 0.477025 31.56 0.446167C31.3952 0.25404 30.9451 0.369136 30.5702 0.546172L19.2141 6.84153C18.937 7.43413 19.2971 8.53486 19.9046 8.85042C19.6871 8.36548 19.5447 7.85757 19.627 7.38818Z" fill="#FFFFFE"/>
<path fill-rule="evenodd" clip-rule="evenodd" d="M3.46354 10.3356C3.82346 10.2739 4.1013 10.5282 4.09361 10.9055C4.09361 11.2823 3.80129 11.6364 3.44115 11.6981C3.0887 11.7593 2.81108 11.5055 2.81876 11.1361C2.81876 10.7591 3.11086 10.405 3.46354 10.3356Z" fill="#2FA69F"/>
<path fill-rule="evenodd" clip-rule="evenodd" d="M5.59388 7.92671C5.90902 7.87288 6.15636 8.09609 6.14868 8.42718C6.14122 8.76594 5.8862 9.07339 5.57127 9.1351C5.25634 9.18916 5.00857 8.96572 5.01603 8.63508C5.02371 8.30398 5.27873 7.9882 5.59388 7.92671Z" fill="#2FA69F"/>
<path fill-rule="evenodd" clip-rule="evenodd" d="M12.0366 4.74075C12.3592 4.75606 12.5541 5.03288 12.4716 5.35609C12.3967 5.67953 12.0741 5.92594 11.7592 5.9104C11.4438 5.89509 11.2492 5.61782 11.324 5.29483C11.399 4.97139 11.7214 4.72521 12.0366 4.74075Z" fill="#2FA69F"/>
<path fill-rule="evenodd" clip-rule="evenodd" d="M14.0092 4.40966C14.2719 4.47137 14.3992 4.71733 14.2943 4.97928C14.1891 5.23312 13.8891 5.39484 13.6343 5.34101C13.3719 5.2793 13.2439 5.03289 13.349 4.77139C13.4542 4.51755 13.7539 4.35583 14.0092 4.40966Z" fill="#2FA69F"/>
<path fill-rule="evenodd" clip-rule="evenodd" d="M5.61645 9.43512C5.84842 9.3966 6.03628 9.56598 6.02882 9.81239C6.02882 10.0586 5.8335 10.2894 5.60109 10.3282C5.36868 10.3744 5.18872 10.205 5.18872 9.95879C5.1964 9.71238 5.3836 9.48129 5.61645 9.43512Z" fill="#2FA69F"/>
<path fill-rule="evenodd" clip-rule="evenodd" d="M2.29362 12.2672C2.53349 12.2213 2.72882 12.3983 2.72135 12.6524C2.72135 12.9139 2.51879 13.1524 2.2787 13.1986C2.03093 13.2371 1.84351 13.0677 1.84351 12.8139C1.85119 12.5524 2.04607 12.306 2.29362 12.2672Z" fill="#2FA69F"/>
<path fill-rule="evenodd" clip-rule="evenodd" d="M21.9297 5.341L21.4423 5.61015C21.4796 6.34127 22.0644 7.22645 22.4845 7.37285C22.1546 6.85706 21.8546 5.96423 21.9297 5.341ZM24.5472 3.88664L24.1199 4.12494C24.1721 4.77903 24.6973 5.56398 24.9598 5.61015C24.7572 5.29482 24.4948 4.41753 24.5472 3.88664ZM27.1349 2.44716L26.8048 2.63185C26.7973 3.06295 27.105 3.70916 27.4496 3.80173C27.2848 3.53235 27.0822 2.97826 27.1349 2.44716ZM29.6251 1.06961L29.3398 1.23133C29.3624 1.51603 29.685 2.04714 29.865 2.1316C29.7974 1.92393 29.5948 1.50071 29.6251 1.06961Z" fill="#2FA69F"/>
</svg>
