<?xml version="1.0" encoding="UTF-8" standalone="no"?>
<!--

    Copyright (C) 2017-2019 Dremio Corporation

    Licensed under the Apache License, Version 2.0 (the "License");
    you may not use this file except in compliance with the License.
    You may obtain a copy of the License at

        http://www.apache.org/licenses/LICENSE-2.0

    Unless required by applicable law or agreed to in writing, software
    distributed under the License is distributed on an "AS IS" BASIS,
    WITHOUT WARRANTIES OR CONDITIONS OF ANY KIND, either express or implied.
    See the License for the specific language governing permissions and
    limitations under the License.

-->
<svg width="24" height="24" viewBox="0 0 24 24" fill="none" xmlns="http://www.w3.org/2000/svg">
<path fill-rule="evenodd" clip-rule="evenodd" d="M12 2C14.6522 2 17.1957 3.05357 19.0711 4.92893C20.9464 6.8043 22 9.34784 22 12C22 17.5228 17.5228 22 12 22C6.47715 22 2 17.5228 2 12C2 6.47715 6.47715 2 12 2ZM12 3C7.02944 3 3 7.02944 3 12C3 16.9706 7.02944 21 12 21C16.9706 21 21 16.9706 21 12C21 9.61305 20.0518 7.32387 18.364 5.63604C16.6761 3.94821 14.3869 3 12 3Z" fill="#43B8C9"/>
<path fill-rule="evenodd" clip-rule="evenodd" d="M10.1464 16.8536C9.97288 16.68 9.9536 16.4106 10.0886 16.2157L10.1464 16.1464L13.9394 12.3535C14.1129 12.1799 14.1322 11.9106 13.9973 11.7158L13.9394 11.6466L10.1464 7.85355C9.95118 7.65829 9.95118 7.34171 10.1464 7.14645C10.32 6.97288 10.5894 6.9536 10.7843 7.08859L10.8536 7.14645L14.6466 10.9395C15.1956 11.4886 15.2299 12.3575 14.7495 12.9466L14.6466 13.0606L10.8536 16.8536C10.6583 17.0488 10.3417 17.0488 10.1464 16.8536Z" fill="#7F8B95"/>
</svg>
