<?xml version="1.0" encoding="UTF-8"?>
<!--

    Copyright (C) 2017-2019 Dremio Corporation

    Licensed under the Apache License, Version 2.0 (the "License");
    you may not use this file except in compliance with the License.
    You may obtain a copy of the License at

        http://www.apache.org/licenses/LICENSE-2.0

    Unless required by applicable law or agreed to in writing, software
    distributed under the License is distributed on an "AS IS" BASIS,
    WITHOUT WARRANTIES OR CONDITIONS OF ANY KIND, either express or implied.
    See the License for the specific language governing permissions and
    limitations under the License.

-->
<svg width="24" height="24" viewBox="0 0 24 24" fill="none" xmlns="http://www.w3.org/2000/svg">
<g id="Icon/Engines">
<path id="Shape" fill-rule="evenodd" clip-rule="evenodd" d="M17.4829 9.01429C18.1552 9.01429 18.7861 8.75219 19.2621 8.2774C20.2433 7.29455 20.2433 5.69478 19.2621 4.71294C18.3121 3.76235 16.6547 3.76235 15.7048 4.71294C14.8454 5.57382 14.7387 6.90746 15.3848 7.88426L13.8441 9.42759C12.7613 8.66349 11.2367 8.66349 10.1539 9.42759L8.61323 7.88426C9.25928 6.90646 9.15261 5.57281 8.29322 4.71294C7.34325 3.76235 5.68584 3.76235 4.73587 4.71294C3.75471 5.69579 3.75471 7.29556 4.73587 8.2774C5.21086 8.7532 5.84283 9.01429 6.51505 9.01429C7.0162 9.01429 7.4942 8.86711 7.90176 8.59695L9.43942 10.1362C9.05098 10.6735 8.8326 11.3126 8.8326 11.988C8.8326 12.6644 9.05098 13.3035 9.43942 13.8398L7.89874 15.3821C6.93267 14.7652 5.56609 14.869 4.73688 15.6987C3.75572 16.6815 3.75572 18.2813 4.73688 19.2631C5.21186 19.7389 5.84383 20 6.51605 20C7.18828 20 7.81924 19.7379 8.29523 19.2631C9.15463 18.4022 9.2613 17.0686 8.61524 16.0918L10.1519 14.5525C10.6883 14.9416 11.3263 15.1604 12.0005 15.1604C12.6747 15.1604 13.3127 14.9416 13.8491 14.5525L15.3858 16.0918C14.7397 17.0696 14.8464 18.4033 15.7058 19.2631C16.1808 19.7389 16.8127 20 17.485 20C18.1572 20 18.7881 19.7379 19.2641 19.2631C20.2453 18.2803 20.2453 16.6805 19.2641 15.6987C18.4349 14.869 17.0683 14.7642 16.1023 15.3821L14.5606 13.8398C14.949 13.3025 15.1674 12.6634 15.1674 11.988C15.1674 11.3116 14.949 10.6725 14.5606 10.1362L16.0972 8.59695C16.5038 8.86812 16.9818 9.01429 17.4829 9.01429ZM16.4152 5.42563C16.7 5.14036 17.0794 4.98411 17.4829 4.98411C17.8865 4.98411 18.2649 5.14036 18.5506 5.42563C19.1393 6.01534 19.1393 6.975 18.5506 7.56471C17.9811 8.13527 16.9858 8.13527 16.4162 7.56471C15.8265 6.975 15.8265 6.01433 16.4152 5.42563ZM5.44734 7.56471C4.85864 6.975 4.85864 6.01534 5.44734 5.42563C5.73213 5.14036 6.11151 4.98411 6.51505 4.98411C6.91858 4.98411 7.29696 5.14036 7.58275 5.42563C8.17145 6.01534 8.17145 6.975 7.58275 7.56471C7.01116 8.13527 6.01692 8.13527 5.44734 7.56471ZM7.58175 18.5514C7.01217 19.122 6.01692 19.122 5.44734 18.5514C4.85864 17.9617 4.85864 17.0021 5.44734 16.4124C5.73213 16.1271 6.11151 15.9708 6.51505 15.9708C6.91858 15.9708 7.29696 16.1271 7.58275 16.4124C8.17045 17.0021 8.17045 17.9617 7.58175 18.5514ZM10.4709 13.5182C10.0633 13.11 9.83792 12.5666 9.83792 11.988C9.83792 11.4094 10.0633 10.8671 10.4709 10.4578C10.8785 10.0485 11.4209 9.82375 11.9985 9.82375C12.5761 9.82375 13.1175 10.0496 13.5261 10.4578C13.9347 10.8661 14.1591 11.4094 14.1591 11.988C14.1591 12.5666 13.9336 13.109 13.5261 13.5182C12.71 14.3348 11.287 14.3348 10.4709 13.5182ZM18.5496 16.4124C19.1383 17.0021 19.1383 17.9617 18.5496 18.5514C17.9801 19.122 16.9848 19.122 16.4152 18.5514C15.8265 17.9617 15.8265 17.0021 16.4152 16.4124C16.7 16.1271 17.0794 15.9708 17.4829 15.9708C17.8865 15.9708 18.2649 16.1271 18.5496 16.4124Z" fill="#7F8B95"/>
</g>
</svg>
