<?xml version="1.0" encoding="UTF-8" standalone="no"?>
<!--

    Copyright (C) 2017-2019 Dremio Corporation

    Licensed under the Apache License, Version 2.0 (the "License");
    you may not use this file except in compliance with the License.
    You may obtain a copy of the License at

        http://www.apache.org/licenses/LICENSE-2.0

    Unless required by applicable law or agreed to in writing, software
    distributed under the License is distributed on an "AS IS" BASIS,
    WITHOUT WARRANTIES OR CONDITIONS OF ANY KIND, either express or implied.
    See the License for the specific language governing permissions and
    limitations under the License.

-->
<svg width="24" height="24" viewBox="0 0 24 24" fill="none" xmlns="http://www.w3.org/2000/svg">
<path fill-rule="evenodd" clip-rule="evenodd" d="M8.58463 7.52399C8.84855 7.07735 9 6.55636 9 6C9 4.34315 7.65685 3 6 3C4.34315 3 3 4.34315 3 6C3 7.65685 4.34315 9 6 9C6.55635 9 7.07733 8.84856 7.52396 8.58464L9.05197 10.1126C8.7026 10.6572 8.5 11.305 8.5 12C8.5 12.6517 8.67812 13.2618 8.98833 13.7843L7.41735 15.3553C6.99526 15.1286 6.51265 15 6 15C4.34315 15 3 16.3431 3 18C3 19.6569 4.34315 21 6 21C7.65685 21 9 19.6569 9 18C9 17.4003 8.82404 16.8417 8.52092 16.373L10.0126 14.8814C10.5771 15.2715 11.2619 15.5 12 15.5C12.695 15.5 13.3428 15.2974 13.8874 14.948L15.4154 16.476C15.1514 16.9227 15 17.4436 15 18C15 19.6569 16.3431 21 18 21C19.6569 21 21 19.6569 21 18C21 16.3431 19.6569 15 18 15C17.4436 15 16.9226 15.1515 16.476 15.4154L14.948 13.8874C15.2974 13.3428 15.5 12.6951 15.5 12C15.5 11.2619 15.2715 10.5771 14.8814 10.0126L16.373 8.52092C16.8417 8.82404 17.4003 9 18 9C19.6569 9 21 7.65685 21 6C21 4.34315 19.6569 3 18 3C16.3431 3 15 4.34315 15 6C15 6.51265 15.1286 6.99526 15.3553 7.41735L13.7843 8.98833C13.2618 8.67812 12.6517 8.5 12 8.5C11.3049 8.5 10.6572 8.70261 10.1126 9.05198L8.58463 7.52399ZM6 7.5C6.82843 7.5 7.5 6.82843 7.5 6C7.5 5.17157 6.82843 4.5 6 4.5C5.17157 4.5 4.5 5.17157 4.5 6C4.5 6.82843 5.17157 7.5 6 7.5ZM12 14C13.1046 14 14 13.1046 14 12C14 10.8954 13.1046 10 12 10C10.8954 10 10 10.8954 10 12C10 13.1046 10.8954 14 12 14ZM19.5 6C19.5 6.82843 18.8284 7.5 18 7.5C17.1716 7.5 16.5 6.82843 16.5 6C16.5 5.17157 17.1716 4.5 18 4.5C18.8284 4.5 19.5 5.17157 19.5 6ZM6 19.5C6.82843 19.5 7.5 18.8284 7.5 18C7.5 17.1716 6.82843 16.5 6 16.5C5.17157 16.5 4.5 17.1716 4.5 18C4.5 18.8284 5.17157 19.5 6 19.5ZM19.5 18C19.5 18.8284 18.8284 19.5 18 19.5C17.1716 19.5 16.5 18.8284 16.5 18C16.5 17.1716 17.1716 16.5 18 16.5C18.8284 16.5 19.5 17.1716 19.5 18Z" fill="#505862"/>
</svg>
