<?xml version="1.0" encoding="UTF-8"?>
<!--

    Copyright (C) 2017-2019 Dremio Corporation

    Licensed under the Apache License, Version 2.0 (the "License");
    you may not use this file except in compliance with the License.
    You may obtain a copy of the License at

        http://www.apache.org/licenses/LICENSE-2.0

    Unless required by applicable law or agreed to in writing, software
    distributed under the License is distributed on an "AS IS" BASIS,
    WITHOUT WARRANTIES OR CONDITIONS OF ANY KIND, either express or implied.
    See the License for the specific language governing permissions and
    limitations under the License.

-->
<svg width="22px" height="22px" viewBox="-3 -3 24 24" version="1.1" xmlns="http://www.w3.org/2000/svg" xmlns:xlink="http://www.w3.org/1999/xlink">
  <title>_Icon/Job/Complete Copy 5</title>
  <g id="Jobs" stroke="none" stroke-width="1" fill="none" fill-rule="evenodd">
    <g id="Jobs-/-Icons" transform="translate(-27.000000, -299.000000)">
      <g id="_Icon/Job/Job-Engine-Starting" transform="translate(24.000000, 296.000000)">
        <rect id="icon-box-24" x="0" y="0" width="24" height="24"></rect>
        <rect id="Rectangle" fill="#43B8C9" fill-rule="evenodd" x="3" y="3" width="18" height="18" rx="2"></rect>
        <path d="M11.5,14.449 L11.5,15 C11.5,15.276 11.724,15.5 12,15.5 C12.276,15.5 12.5,15.276 12.5,15 L12.5,14.449 C12.818,14.385 13.114,14.258 13.376,14.084 L13.767,14.475 C13.865,14.573 13.993,14.621 14.121,14.621 C14.249,14.621 14.377,14.572 14.475,14.475 C14.67,14.28 14.67,13.963 14.475,13.768 L14.083,13.377 C14.257,13.114 14.384,12.818 14.449,12.5 L15,12.5 C15.276,12.5 15.5,12.276 15.5,12 C15.5,11.724 15.276,11.5 15,11.5 L14.449,11.5 C14.384,11.182 14.257,10.886 14.083,10.623 L14.474,10.232 C14.669,10.037 14.669,9.72 14.474,9.525 C14.279,9.33 13.962,9.33 13.767,9.525 L13.376,9.916 C13.114,9.742 12.818,9.615 12.5,9.551 L12.5,9 C12.5,8.724 12.276,8.5 12,8.5 C11.724,8.5 11.5,8.724 11.5,9 L11.5,9.551 C11.182,9.615 10.886,9.742 10.624,9.916 L10.232,9.525 C10.037,9.33 9.72,9.33 9.525,9.525 C9.33,9.72 9.33,10.037 9.525,10.232 L9.916,10.623 C9.743,10.886 9.616,11.182 9.551,11.5 L9,11.5 C8.724,11.5 8.5,11.724 8.5,12 C8.5,12.276 8.724,12.5 9,12.5 L9.551,12.5 C9.616,12.818 9.743,13.114 9.917,13.377 L9.525,13.768 C9.33,13.963 9.33,14.28 9.525,14.475 C9.623,14.573 9.751,14.621 9.879,14.621 C10.007,14.621 10.135,14.572 10.233,14.475 L10.624,14.084 C10.886,14.258 11.182,14.385 11.5,14.449 Z M12,10.5 C12.827,10.5 13.5,11.173 13.5,12 C13.5,12.827 12.827,13.5 12,13.5 C11.173,13.5 10.5,12.827 10.5,12 C10.5,11.173 11.173,10.5 12,10.5 Z" id="Shape" fill="#FFFFFF" fill-rule="evenodd"></path>
        <g id="Combined-Shape-2" opacity="0.5" stroke-width="1" fill-rule="evenodd" transform="translate(3.587107, 5.000000)" fill="#FFFFFF">
          <path d="M8.41289322,0 C12.2788865,0 15.4128932,3.13400675 15.4128932,7 C15.4128932,10.8659932 12.2788865,14 8.41289322,14 C4.64328021,14 1.5696114,11.0203086 1.41869953,7.28773866 L0.853553391,7.85355339 C0.658291245,8.04881554 0.341708755,8.04881554 0.146446609,7.85355339 C-0.0488155365,7.65829124 -0.0488155365,7.34170876 0.146446609,7.14644661 L1.20710678,6.08578644 C1.56973648,5.72315674 2.14158187,5.69725462 2.53409953,6.00808007 L2.62132034,6.08578644 L3.68198052,7.14644661 C3.87724266,7.34170876 3.87724266,7.65829124 3.68198052,7.85355339 C3.48671837,8.04881554 3.17013588,8.04881554 2.97487373,7.85355339 L2.42031841,7.30112871 C2.57719397,10.4749321 5.200163,13 8.41289322,13 C11.7266017,13 14.4128932,10.3137085 14.4128932,7 C14.4128932,3.6862915 11.7266017,1 8.41289322,1 C6.85350098,1 5.43305231,1.59488808 4.36610931,2.57010212 L4.17025253,2.75735931 L3.46314575,2.05025253 C4.72989659,0.783501688 6.47989659,0 8.41289322,0 Z" id="Combined-Shape" fill-rule="nonzero"></path>
        </g>
      </g>
    </g>
  </g>
</svg>

