<?xml version="1.0" encoding="UTF-8" standalone="no"?>
<!--

    Copyright (C) 2017-2019 Dremio Corporation

    Licensed under the Apache License, Version 2.0 (the "License");
    you may not use this file except in compliance with the License.
    You may obtain a copy of the License at

        http://www.apache.org/licenses/LICENSE-2.0

    Unless required by applicable law or agreed to in writing, software
    distributed under the License is distributed on an "AS IS" BASIS,
    WITHOUT WARRANTIES OR CONDITIONS OF ANY KIND, either express or implied.
    See the License for the specific language governing permissions and
    limitations under the License.

-->
<svg width="24" height="24" viewBox="0 0 24 24" fill="none" xmlns="http://www.w3.org/2000/svg">
<path fill-rule="evenodd" clip-rule="evenodd" d="M8 4.33333C8 3.59695 8.59695 3 9.33333 3H14.6667C15.403 3 16 3.59695 16 4.33333V8.33333C16 9.06971 15.403 9.66667 14.6667 9.66667H12.5V11.5H17C17.2761 11.5 17.5 11.7239 17.5 12V14.3333H19.6667C20.403 14.3333 21 14.9303 21 15.6667V19.6667C21 20.403 20.403 21 19.6667 21H14.3333C13.597 21 13 20.403 13 19.6667V15.6667C13 14.9303 13.597 14.3333 14.3333 14.3333H16.5V12.5H7.5V14.3333H9.66667C10.403 14.3333 11 14.9303 11 15.6667V19.6667C11 20.403 10.403 21 9.66667 21H4.33333C3.59695 21 3 20.403 3 19.6667V15.6667C3 14.9303 3.59695 14.3333 4.33333 14.3333H6.5V12C6.5 11.7239 6.72386 11.5 7 11.5H11.5V9.66667H9.33333C8.59695 9.66667 8 9.06971 8 8.33333V4.33333ZM9.33333 4.00478H14.6667C14.8481 4.00478 14.9952 4.15188 14.9952 4.33333V8.33333C14.9952 8.51479 14.8481 8.66189 14.6667 8.66189H9.33333C9.15188 8.66189 9.00478 8.51479 9.00478 8.33333V4.33333C9.00478 4.15188 9.15188 4.00478 9.33333 4.00478ZM4.33333 15.3333C4.14924 15.3333 4 15.4826 4 15.6667V19.6667C4 19.8508 4.14924 20 4.33333 20H9.66667C9.85076 20 10 19.8508 10 19.6667V15.6667C10 15.4826 9.85076 15.3333 9.66667 15.3333H4.33333ZM20 15.6667C20 15.4826 19.8508 15.3333 19.6667 15.3333H14.3333C14.1492 15.3333 14 15.4826 14 15.6667V19.6667C14 19.8508 14.1492 20 14.3333 20H19.6667C19.8508 20 20 19.8508 20 19.6667V15.6667Z" fill="#6E7987"/>
</svg>
