<?xml version="1.0" encoding="UTF-8"?>
<!--

    Copyright (C) 2017-2019 Dremio Corporation

    Licensed under the Apache License, Version 2.0 (the "License");
    you may not use this file except in compliance with the License.
    You may obtain a copy of the License at

        http://www.apache.org/licenses/LICENSE-2.0

    Unless required by applicable law or agreed to in writing, software
    distributed under the License is distributed on an "AS IS" BASIS,
    WITHOUT WARRANTIES OR CONDITIONS OF ANY KIND, either express or implied.
    See the License for the specific language governing permissions and
    limitations under the License.

-->
<svg width="24" height="24" viewBox="0 0 24 24" fill="none" xmlns="http://www.w3.org/2000/svg">
<path d="M6.25 4.5C5.78587 4.5 5.34075 4.68437 5.01256 5.01256C4.68437 5.34075 4.5 5.78587 4.5 6.25V17.75C4.5 18.716 5.283 19.5 6.25 19.5H17.75C18.2141 19.5 18.6592 19.3156 18.9874 18.9874C19.3156 18.6592 19.5 18.2141 19.5 17.75V13.75C19.5 13.5511 19.579 13.3603 19.7197 13.2197C19.8603 13.079 20.0511 13 20.25 13C20.4489 13 20.6397 13.079 20.7803 13.2197C20.921 13.3603 21 13.5511 21 13.75V17.75C21 18.612 20.6576 19.4386 20.0481 20.0481C19.4386 20.6576 18.612 21 17.75 21H6.25C5.38805 21 4.5614 20.6576 3.9519 20.0481C3.34241 19.4386 3 18.612 3 17.75V6.25C3 5.38805 3.34241 4.5614 3.9519 3.9519C4.5614 3.34241 5.38805 3 6.25 3H10.25C10.4489 3 10.6397 3.07902 10.7803 3.21967C10.921 3.36032 11 3.55109 11 3.75C11 3.94891 10.921 4.13968 10.7803 4.28033C10.6397 4.42098 10.4489 4.5 10.25 4.5H6.25ZM13 3.75C13 3.55109 13.079 3.36032 13.2197 3.21967C13.3603 3.07902 13.5511 3 13.75 3H20.25C20.4489 3 20.6397 3.07902 20.7803 3.21967C20.921 3.36032 21 3.55109 21 3.75V10.25C21 10.4489 20.921 10.6397 20.7803 10.7803C20.6397 10.921 20.4489 11 20.25 11C20.0511 11 19.8603 10.921 19.7197 10.7803C19.579 10.6397 19.5 10.4489 19.5 10.25V5.56L14.28 10.78C14.1378 10.9125 13.9498 10.9846 13.7555 10.9812C13.5612 10.9777 13.3758 10.899 13.2384 10.7616C13.101 10.6242 13.0223 10.4388 13.0188 10.2445C13.0154 10.0502 13.0875 9.86218 13.22 9.72L18.44 4.5H13.75C13.5511 4.5 13.3603 4.42098 13.2197 4.28033C13.079 4.13968 13 3.94891 13 3.75V3.75Z" fill="#008489"/>
</svg>
