<?xml version="1.0" encoding="UTF-8" standalone="no"?>
<!--

    Copyright (C) 2017-2019 Dremio Corporation

    Licensed under the Apache License, Version 2.0 (the "License");
    you may not use this file except in compliance with the License.
    You may obtain a copy of the License at

        http://www.apache.org/licenses/LICENSE-2.0

    Unless required by applicable law or agreed to in writing, software
    distributed under the License is distributed on an "AS IS" BASIS,
    WITHOUT WARRANTIES OR CONDITIONS OF ANY KIND, either express or implied.
    See the License for the specific language governing permissions and
    limitations under the License.

-->
<!DOCTYPE svg PUBLIC "-//W3C//DTD SVG 1.1//EN" "http://www.w3.org/Graphics/SVG/1.1/DTD/svg11.dtd">
<svg width="24" height="24" viewBox="0 0 24 24" fill="none" xmlns="http://www.w3.org/2000/svg">
<path fill-rule="evenodd" clip-rule="evenodd" d="M21.886 11.683C21.695 11.45 17.147 6 12 6C6.853 6 2.305 11.45 2.114 11.683C1.962 11.868 1.962 12.133 2.114 12.318C2.305 12.55 6.853 18 12 18C17.147 18 21.695 12.55 21.886 12.317C22.038 12.133 22.038 11.867 21.886 11.683ZM12 17C8.002 17 4.207 13.147 3.166 12C4.207 10.853 8.003 7 12 7C15.997 7 19.793 10.853 20.834 12C19.793 13.147 15.998 17 12 17ZM12 9C10.346 9 9 10.346 9 12C9 13.654 10.346 15 12 15C13.654 15 15 13.654 15 12C15 10.346 13.654 9 12 9ZM12 14C10.897 14 10 13.103 10 12C10 10.897 10.897 10 12 10C13.103 10 14 10.897 14 12C14 13.103 13.103 14 12 14Z" fill="#848D9A"/>
</svg>
