<?xml version="1.0" encoding="UTF-8"?>
<!--

    Copyright (C) 2017-2018 Dremio Corporation

    Licensed under the Apache License, Version 2.0 (the "License");
    you may not use this file except in compliance with the License.
    You may obtain a copy of the License at

        http://www.apache.org/licenses/LICENSE-2.0

    Unless required by applicable law or agreed to in writing, software
    distributed under the License is distributed on an "AS IS" BASIS,
    WITHOUT WARRANTIES OR CONDITIONS OF ANY KIND, either express or implied.
    See the License for the specific language governing permissions and
    limitations under the License.

-->
<svg width="13px" height="20px" viewBox="0 0 13 20" version="1.1" xmlns="http://www.w3.org/2000/svg" xmlns:xlink="http://www.w3.org/1999/xlink">
    <!-- Generator: Sketch 41.2 (35397) - http://www.bohemiancoding.com/sketch -->
    <title>Icon/Flame</title>
    <desc>Created with Sketch.</desc>
    <defs>
        <linearGradient x1="50%" y1="-1.11022302e-14%" x2="50%" y2="100%" id="linearGradient-1">
            <stop stop-color="#FFCB0A" offset="0%"></stop>
            <stop stop-color="#FF7609" offset="100%"></stop>
        </linearGradient>
    </defs>
    <g id="Elements" stroke="none" stroke-width="1" fill="none" fill-rule="evenodd">
        <g id="Elements/Icons" transform="translate(-602.000000, -799.000000)">
            <g id="File/Data" transform="translate(500.000000, 80.000000)">
                <g id="Icon/Flame" transform="translate(97.000000, 717.000000)">
                    <g>
                        <rect id="Rectangle-3" x="0" y="0" width="24" height="24"></rect>
                        <path d="M10.7067557,22 C10.7799745,19.8291946 12.4254147,19.1332832 15.3763695,17.292214 C17.9488071,15.6876171 19.323047,11.6196822 16.1963142,8.35748595 C16.2016007,10.4393594 16.0430041,12.3372533 14.4850564,13.4778244 C16.9504412,7.52295285 11.7775474,6.04551072 11.7048572,2 C7.6410826,4.61138787 11.7048572,9.90372928 9.24502331,10.934728 C9.24634495,9.66980519 9.36106319,8.27594379 8.49671149,7.53238116 C7.78355525,11.209678 1.4383679,12.9967256 7.81923949,18.392014 C8.56781565,13.5810262 12.1682238,15.5051665 11.81191,11.587575 C13.3627208,15.7892899 8.26383875,16.6307032 10.7067557,22" id="Fill-1" fill="url(#linearGradient-1)"></path>
                    </g>
                </g>
            </g>
        </g>
    </g>
</svg>
