<?xml version="1.0" encoding="UTF-8" standalone="no"?>
<!--

    Copyright (C) 2017-2019 Dremio Corporation

    Licensed under the Apache License, Version 2.0 (the "License");
    you may not use this file except in compliance with the License.
    You may obtain a copy of the License at

        http://www.apache.org/licenses/LICENSE-2.0

    Unless required by applicable law or agreed to in writing, software
    distributed under the License is distributed on an "AS IS" BASIS,
    WITHOUT WARRANTIES OR CONDITIONS OF ANY KIND, either express or implied.
    See the License for the specific language governing permissions and
    limitations under the License.

-->
<svg width="12" height="12" viewBox="0 0 12 12" fill="none" xmlns="http://www.w3.org/2000/svg">
  <path fill-rule="evenodd" clip-rule="evenodd" d="M5.00641 1.36841C5.15611 0.94769 5.55436 0.666687 6.00093 0.666687C6.44749 0.666687 6.84574 0.94769 6.99546 1.36843L7.1955 1.93078C7.25336 2.09368 7.37755 2.22442 7.53726 2.29058C7.69697 2.35673 7.87723 2.35211 8.03321 2.2779L8.57217 2.02108C8.97584 1.82829 9.4572 1.91088 9.77352 2.2272C10.0898 2.54352 10.1724 3.02488 9.97973 3.42838L9.72289 3.96739C9.64862 4.1235 9.64399 4.30376 9.71015 4.46347C9.77631 4.62318 9.90705 4.74736 10.07 4.80526L10.6321 5.00522C11.0533 5.15469 11.3347 5.55315 11.3347 6.00002C11.3347 6.44689 11.0533 6.84535 10.6323 6.99477L10.0699 7.19482C9.90705 7.25268 9.77631 7.37686 9.71015 7.53657C9.64399 7.69628 9.64862 7.87655 9.72277 8.0324L9.97964 8.5706C10.1724 8.97427 10.0898 9.45563 9.77352 9.77195C9.4572 10.0883 8.97584 10.1709 8.57262 9.97828L8.03333 9.7222C7.87723 9.64793 7.69697 9.64331 7.53726 9.70946C7.37755 9.77562 7.25336 9.90636 7.19547 10.0694L6.99545 10.6316C6.84574 11.0524 6.44749 11.3334 6.00093 11.3334C5.55436 11.3334 5.15611 11.0524 5.0064 10.6316L4.80638 10.0693C4.74844 9.90639 4.62416 9.77562 4.46437 9.70945C4.30458 9.64329 4.12424 9.64792 3.96806 9.72221L3.43043 9.97793C3.0267 10.1715 2.54475 10.0892 2.22815 9.77258C1.91154 9.45598 1.82923 8.97403 2.02244 8.57104L2.27853 8.03176C2.35279 7.87566 2.35742 7.69539 2.29126 7.53568C2.22511 7.37598 2.09436 7.25179 1.93137 7.19389L1.36927 6.99393C0.948133 6.84446 0.666748 6.446 0.666748 5.99913C0.666748 5.55226 0.948133 5.1538 1.36912 5.00438L1.93137 4.80437C2.09409 4.74649 2.2247 4.62241 2.29084 4.46286C2.35698 4.30332 2.35247 4.12323 2.27846 3.96725L2.0228 3.42886C1.82923 3.02512 1.91154 2.54318 2.22815 2.22657C2.54475 1.90997 3.0267 1.82765 3.42968 2.02087L3.96882 2.27688C4.12485 2.35097 4.30494 2.35558 4.46455 2.28956C4.62416 2.22354 4.74839 2.09306 4.80639 1.93068L5.00641 1.36841ZM6.5767 1.51742C6.49003 1.27384 6.25946 1.11115 6.00093 1.11115C5.74239 1.11115 5.51182 1.27384 5.42516 1.5174L5.22505 2.07992C5.12469 2.36088 4.91012 2.58625 4.63443 2.70028C4.35874 2.81431 4.04767 2.80635 3.77816 2.67838L3.23828 2.42201C3.0046 2.30998 2.72567 2.35762 2.54243 2.54086C2.35919 2.7241 2.31155 3.00303 2.42394 3.23746L2.67998 3.77665C2.80791 4.04625 2.8157 4.35741 2.70142 4.63307C2.58714 4.90874 2.36148 5.12312 2.08033 5.22313L1.51793 5.42319C1.27412 5.50973 1.11121 5.74042 1.11121 5.99913C1.11121 6.25785 1.27412 6.48853 1.51808 6.57512L2.08023 6.7751C2.36168 6.87507 2.58758 7.08964 2.70189 7.36559C2.8162 7.64153 2.8082 7.95299 2.67995 8.22256L2.42358 8.76245C2.31155 8.99612 2.35919 9.27506 2.54243 9.4583C2.72567 9.64154 3.0046 9.68918 3.2389 9.57685L3.77715 9.32084C4.04691 9.19252 4.35841 9.18452 4.63441 9.2988C4.91041 9.41309 5.12507 9.63896 5.22515 9.9204L5.42515 10.4826C5.51182 10.7262 5.74239 10.8889 6.00093 10.8889C6.25946 10.8889 6.49003 10.7262 6.57669 10.4826L6.77667 9.9205C6.87664 9.63904 7.09121 9.41314 7.36716 9.29884C7.6431 9.18453 7.95456 9.19253 8.22413 9.32078L8.76372 9.577C8.99742 9.68862 9.2761 9.6408 9.45924 9.45767C9.64237 9.27453 9.69019 8.99585 9.57855 8.7621L9.32153 8.2236C9.19321 7.95388 9.18521 7.64242 9.29952 7.36648C9.41382 7.09053 9.63972 6.87596 9.92108 6.77602L10.4835 6.57596C10.7273 6.48942 10.8902 6.25874 10.8902 6.00002C10.8902 5.74131 10.7273 5.51062 10.4833 5.42403L9.92118 5.22406C9.63972 5.12408 9.41382 4.90951 9.29952 4.63357C9.18521 4.35762 9.19321 4.04616 9.32158 3.77632L9.57857 3.23701C9.69019 3.0033 9.64237 2.72462 9.45924 2.54149C9.2761 2.35835 8.99742 2.31054 8.76354 2.42224L8.22428 2.6792C7.95456 2.80752 7.6431 2.81551 7.36716 2.70121C7.09121 2.5869 6.87664 2.361 6.7767 2.07965L6.5767 1.51742ZM3.77837 6.00002C3.77837 4.77266 4.77334 3.77769 6.00069 3.77769C7.22805 3.77769 8.22302 4.77266 8.22302 6.00002C8.22302 7.22738 7.22805 8.22234 6.00069 8.22234C4.77334 8.22234 3.77837 7.22738 3.77837 6.00002ZM7.77858 6.00002C7.77858 5.01813 6.9826 4.22216 6.00071 4.22216C5.01883 4.22216 4.22285 5.01813 4.22285 6.00002C4.22285 6.98191 5.01883 7.77788 6.00071 7.77788C6.9826 7.77788 7.77858 6.98191 7.77858 6.00002Z" fill="#6E7987"/>
</svg>
