<?xml version="1.0" encoding="UTF-8" standalone="no"?>
<!--

    Copyright (C) 2017-2019 Dremio Corporation

    Licensed under the Apache License, Version 2.0 (the "License");
    you may not use this file except in compliance with the License.
    You may obtain a copy of the License at

        http://www.apache.org/licenses/LICENSE-2.0

    Unless required by applicable law or agreed to in writing, software
    distributed under the License is distributed on an "AS IS" BASIS,
    WITHOUT WARRANTIES OR CONDITIONS OF ANY KIND, either express or implied.
    See the License for the specific language governing permissions and
    limitations under the License.

-->
<svg width="20px" height="20px" viewBox="0 0 20 20" version="1.1" xmlns="http://www.w3.org/2000/svg" xmlns:xlink="http://www.w3.org/1999/xlink">
    <!-- Generator: Sketch 61.2 (89653) - https://sketch.com -->
    <title>Shape</title>
    <desc>Created with Sketch.</desc>
    <g id="Page-1" stroke="none" stroke-width="1" fill="none" fill-rule="evenodd">
        <g id="Gear" fill="#505862" fill-rule="nonzero">
            <path d="M10.012,0.25 C10.746,0.258 11.477,0.343 12.194,0.503 C12.3465,0.53705 12.4846,0.6179 12.5889,0.73426 C12.6933,0.85062 12.7587,0.99667 12.776,1.152 L12.946,2.679 C12.97,2.89428 13.0442,3.10093 13.1626,3.28231 C13.281,3.46368 13.4404,3.61473 13.6278,3.72329 C13.8153,3.83185 14.0256,3.89489 14.2419,3.90735 C14.4581,3.9198 14.6743,3.88132 14.873,3.795 L16.274,3.18 C16.4162,3.11735 16.5744,3.10044 16.7267,3.13161 C16.879,3.16278 17.0178,3.24049 17.124,3.354 C18.1359,4.43509 18.8895,5.73161 19.328,7.146 C19.374,7.29464 19.3726,7.45389 19.324,7.60171 C19.2755,7.74953 19.1821,7.87858 19.057,7.971 L17.815,8.887 C17.6403,9.0153 17.4983,9.1829 17.4004,9.3763 C17.3025,9.5696 17.2515,9.7833 17.2515,10 C17.2515,10.2167 17.3025,10.4304 17.4004,10.6237 C17.4983,10.8171 17.6403,10.9847 17.815,11.113 L19.058,12.028 C19.1835,12.1204 19.2772,12.2495 19.3259,12.3976 C19.3747,12.5456 19.3761,12.7051 19.33,12.854 C18.8913,14.2683 18.1378,15.5648 17.126,16.646 C17.0201,16.7593 16.8816,16.8369 16.7298,16.8682 C16.5779,16.8996 16.4201,16.8831 16.278,16.821 L14.871,16.204 C14.6726,16.117 14.4565,16.0779 14.2402,16.09 C14.0238,16.102 13.8134,16.1648 13.6259,16.2733 C13.4383,16.3817 13.279,16.5328 13.1607,16.7143 C13.0424,16.8958 12.9685,17.1026 12.945,17.318 L12.776,18.844 C12.7589,18.9976 12.6948,19.1423 12.5924,19.2581 C12.49,19.3739 12.3544,19.4553 12.204,19.491 C10.7555,19.8356 9.2464,19.8356 7.79797,19.491 C7.64757,19.4553 7.5119,19.3739 7.4095,19.2581 C7.30711,19.1423 7.24301,18.9976 7.22597,18.844 L7.05797,17.32 C7.03347,17.1052 6.95892,16.8991 6.84029,16.7183 C6.72166,16.5376 6.56228,16.3872 6.37495,16.2792 C6.18762,16.1712 5.97757,16.1087 5.76169,16.0967 C5.54581,16.0847 5.33013,16.1235 5.13197,16.21 L3.72597,16.826 C3.58375,16.8883 3.4257,16.9049 3.27363,16.8736 C3.12156,16.8422 2.98296,16.7645 2.87697,16.651 C1.86468,15.5686 1.11111,14.2707 0.67297,12.855 C0.62687,12.7061 0.62829,12.5466 0.67703,12.3986 C0.72578,12.2505 0.81943,12.1214 0.94497,12.029 L2.18797,11.113 C2.36282,10.9848 2.50501,10.8173 2.60302,10.6239 C2.70103,10.4305 2.75211,10.2168 2.75211,10 C2.75211,9.7832 2.70103,9.5695 2.60302,9.3761 C2.50501,9.1827 2.36282,9.0152 2.18797,8.887 L0.94497,7.973 C0.81961,7.88052 0.72616,7.75129 0.67759,7.60327 C0.62903,7.45525 0.62776,7.29577 0.67397,7.147 C1.1125,5.73262 1.86606,4.43611 2.87797,3.355 C2.98416,3.24149 3.12298,3.16378 3.27526,3.13261 C3.42753,3.10144 3.58573,3.11835 3.72797,3.181 L5.12797,3.796 C5.32699,3.88227 5.54347,3.92066 5.76002,3.90809 C5.97657,3.89551 6.18715,3.83232 6.37484,3.7236 C6.56254,3.61487 6.72212,3.46363 6.84076,3.28204 C6.9594,3.10045 7.0338,2.89356 7.05797,2.678 L7.22797,1.152 C7.24513,0.99635 7.31058,0.84998 7.41513,0.73341 C7.51968,0.61684 7.6581,0.53592 7.81097,0.502 C8.528,0.343 9.261,0.259 10.012,0.25 Z M10.012,1.75 C9.5584,1.75533 9.1058,1.79443 8.658,1.867 L8.549,2.844 C8.499,3.29356 8.3442,3.7251 8.0968,4.10379 C7.84941,4.48248 7.51649,4.79772 7.12488,5.02409 C6.73327,5.25045 6.29393,5.3816 5.84232,5.40694 C5.3907,5.43229 4.93945,5.35112 4.52497,5.17 L3.62697,4.776 C3.05496,5.47012 2.59968,6.25268 2.27897,7.093 L3.07697,7.68 C3.44119,7.94767 3.73731,8.2973 3.94141,8.7006 C4.14552,9.1039 4.25186,9.5495 4.25186,10.0015 C4.25186,10.4535 4.14552,10.8991 3.94141,11.3024 C3.73731,11.7057 3.44119,12.0553 3.07697,12.323 L2.27797,12.911 C2.59797,13.753 3.05397,14.537 3.62597,15.233 L4.53097,14.836 C4.94446,14.6555 5.39456,14.5745 5.84504,14.5997 C6.29553,14.6249 6.7338,14.7555 7.12459,14.981 C7.51538,15.2065 7.84776,15.5206 8.095,15.898 C8.3422,16.2755 8.4974,16.7057 8.548,17.154 L8.658,18.138 C9.547,18.288 10.456,18.288 11.345,18.138 L11.455,17.154 C11.5048,16.7051 11.6594,16.2742 11.9064,15.896 C12.1534,15.5179 12.4858,15.2031 12.8769,14.9771 C13.268,14.7511 13.7067,14.6202 14.1576,14.595 C14.6086,14.5698 15.0592,14.651 15.473,14.832 L16.378,15.228 C16.9497,14.5335 17.4046,13.7506 17.725,12.91 L16.927,12.322 C16.5628,12.0543 16.2666,11.7047 16.0625,11.3014 C15.8584,10.8981 15.7521,10.4525 15.7521,10.0005 C15.7521,9.5485 15.8584,9.1029 16.0625,8.6996 C16.2666,8.2963 16.5628,7.94667 16.927,7.679 L17.723,7.092 C17.4023,6.25168 16.947,5.46912 16.375,4.775 L15.479,5.168 C15.0647,5.34935 14.6136,5.43075 14.1621,5.40562 C13.7106,5.38049 13.2713,5.24953 12.8798,5.02333 C12.4882,4.79713 12.1553,4.48203 11.908,4.10345 C11.6607,3.72488 11.5058,3.29345 11.456,2.844 L11.346,1.868 C10.9052,1.79593 10.4596,1.75682 10.013,1.751 L10.012,1.75 Z M10,6.25 C10.9945,6.25 11.9484,6.64509 12.6516,7.34835 C13.3549,8.0516 13.75,9.0054 13.75,10 C13.75,10.9946 13.3549,11.9484 12.6516,12.6517 C11.9484,13.3549 10.9945,13.75 10,13.75 C9.0054,13.75 8.0516,13.3549 7.34832,12.6517 C6.64506,11.9484 6.24997,10.9946 6.24997,10 C6.24997,9.0054 6.64506,8.0516 7.34832,7.34835 C8.0516,6.64509 9.0054,6.25 10,6.25 Z M10,7.75 C9.4032,7.75 8.8309,7.98705 8.409,8.409 C7.98702,8.831 7.74997,9.4033 7.74997,10 C7.74997,10.5967 7.98702,11.169 8.409,11.591 C8.8309,12.0129 9.4032,12.25 10,12.25 C10.5967,12.25 11.169,12.0129 11.591,11.591 C12.0129,11.169 12.25,10.5967 12.25,10 C12.25,9.4033 12.0129,8.831 11.591,8.409 C11.169,7.98705 10.5967,7.75 10,7.75 Z" id="Shape"></path>
        </g>
    </g>
</svg>