<?xml version="1.0" encoding="UTF-8" standalone="no"?>
<!--

    Copyright (C) 2017-2019 Dremio Corporation

    Licensed under the Apache License, Version 2.0 (the "License");
    you may not use this file except in compliance with the License.
    You may obtain a copy of the License at

        http://www.apache.org/licenses/LICENSE-2.0

    Unless required by applicable law or agreed to in writing, software
    distributed under the License is distributed on an "AS IS" BASIS,
    WITHOUT WARRANTIES OR CONDITIONS OF ANY KIND, either express or implied.
    See the License for the specific language governing permissions and
    limitations under the License.

-->
<svg width="17" height="17" viewBox="0 0 17 17" fill="none"
    xmlns="http://www.w3.org/2000/svg">
    <path fill-rule="evenodd" clip-rule="evenodd" d="M6.33333 3.08464C6.33333 4.48094 5.35216 5.64807 4.04167 5.93418V11.0684C5.15081 11.3106 6.02406 12.1838 6.26621 13.293H10.2222C10.9115 13.293 11.3869 13.1225 11.7223 12.8988C12.0617 12.6726 12.2958 12.3664 12.4583 12.0412C12.6221 11.7136 12.7072 11.3785 12.7503 11.1199C12.7716 10.9921 12.782 10.887 12.787 10.8163C12.7895 10.781 12.7907 10.7546 12.7912 10.7386C12.7915 10.7306 12.7916 10.7252 12.7917 10.7226L12.7917 10.7215V10.1008C11.4812 9.81474 10.5 8.6476 10.5 7.2513C10.5 5.64047 11.8058 4.33464 13.4167 4.33464C15.0275 4.33464 16.3333 5.64047 16.3333 7.2513C16.3333 8.6476 15.3522 9.81474 14.0417 10.1008V10.7235H13.4167C14.0417 10.7235 14.0417 10.7238 14.0417 10.7242L14.0417 10.7266L14.0416 10.7308C14.0416 10.734 14.0416 10.738 14.0415 10.7428C14.0413 10.7523 14.0411 10.7648 14.0405 10.7802C14.0395 10.811 14.0376 10.8532 14.0338 10.9053C14.0264 11.0093 14.0119 11.1537 13.9833 11.3254C13.9265 11.6658 13.8119 12.1293 13.5764 12.6003C13.3397 13.0737 12.9748 13.5662 12.4157 13.9389C11.8527 14.3142 11.1302 14.543 10.2222 14.543H6.26621C5.9801 15.8535 4.81297 16.8346 3.41667 16.8346C1.80584 16.8346 0.5 15.5288 0.5 13.918C0.5 12.5217 1.48117 11.3545 2.79167 11.0684V5.93418C1.48117 5.64807 0.5 4.48094 0.5 3.08464C0.5 1.4738 1.80584 0.167969 3.41667 0.167969C5.0275 0.167969 6.33333 1.4738 6.33333 3.08464ZM3.41667 4.7513C4.33714 4.7513 5.08333 4.00511 5.08333 3.08464C5.08333 2.16416 4.33714 1.41797 3.41667 1.41797C2.49619 1.41797 1.75 2.16416 1.75 3.08464C1.75 4.00511 2.49619 4.7513 3.41667 4.7513ZM3.41667 15.5846C4.33714 15.5846 5.08333 14.8384 5.08333 13.918C5.08333 12.9975 4.33714 12.2513 3.41667 12.2513C2.49619 12.2513 1.75 12.9975 1.75 13.918C1.75 14.8384 2.49619 15.5846 3.41667 15.5846ZM15.0833 7.2513C15.0833 8.17178 14.3371 8.91797 13.4167 8.91797C12.4962 8.91797 11.75 8.17178 11.75 7.2513C11.75 6.33083 12.4962 5.58464 13.4167 5.58464C14.3371 5.58464 15.0833 6.33083 15.0833 7.2513Z" fill="currentColor"/>
</svg>
