<?xml version="1.0" encoding="UTF-8" standalone="no"?>
<!--

    Copyright (C) 2017-2019 Dremio Corporation

    Licensed under the Apache License, Version 2.0 (the "License");
    you may not use this file except in compliance with the License.
    You may obtain a copy of the License at

        http://www.apache.org/licenses/LICENSE-2.0

    Unless required by applicable law or agreed to in writing, software
    distributed under the License is distributed on an "AS IS" BASIS,
    WITHOUT WARRANTIES OR CONDITIONS OF ANY KIND, either express or implied.
    See the License for the specific language governing permissions and
    limitations under the License.

-->
<svg width="24" height="24" viewBox="0 0 24 24" fill="none" xmlns="http://www.w3.org/2000/svg">
<path fill-rule="evenodd" clip-rule="evenodd" d="M4.5 3C3.67157 3 3 3.67157 3 4.5V5.83333C3 6.66176 3.67157 7.33333 4.5 7.33333H8.25C8.25 8.77821 9.39913 9.9547 10.8333 9.99872V10H13.0833C13.7277 10 14.25 10.5223 14.25 11.1667H10.5C9.67157 11.1667 9 11.8382 9 12.6667V14C9 14.8284 9.67157 15.5 10.5 15.5H14.25V16.6667H10.5C9.67157 16.6667 9 17.3382 9 18.1667V19.5C9 20.3284 9.67157 21 10.5 21H19.5C20.3284 21 21 20.3284 21 19.5V18.1667C21 17.3382 20.3284 16.6667 19.5 16.6667H15.75V15.5H19.5C20.3284 15.5 21 14.8284 21 14V12.6667C21 11.8382 20.3284 11.1667 19.5 11.1667H15.75C15.75 9.72179 14.6009 8.5453 13.1667 8.50128V8.5H10.9167C10.2723 8.5 9.75 7.97767 9.75 7.33333H13.5C14.3284 7.33333 15 6.66176 15 5.83333V4.5C15 3.67157 14.3284 3 13.5 3H4.5ZM13.5 4.5H4.5V5.83333H13.5V4.5ZM10.5 14V12.6667H19.5V14H10.5ZM10.5 18.1667V19.5H19.5V18.1667H10.5Z" fill="#505862"/>
</svg>
