<?xml version="1.0" encoding="UTF-8" standalone="no"?>
<!--

    Copyright (C) 2017-2019 Dremio Corporation

    Licensed under the Apache License, Version 2.0 (the "License");
    you may not use this file except in compliance with the License.
    You may obtain a copy of the License at

        http://www.apache.org/licenses/LICENSE-2.0

    Unless required by applicable law or agreed to in writing, software
    distributed under the License is distributed on an "AS IS" BASIS,
    WITHOUT WARRANTIES OR CONDITIONS OF ANY KIND, either express or implied.
    See the License for the specific language governing permissions and
    limitations under the License.

-->
<svg width="24" height="24" viewBox="0 0 24 24" fill="none" xmlns="http://www.w3.org/2000/svg">
<path d="M11.0787 2.66674C11.0448 2.36216 10.8272 2.1051 10.5256 2.02512C10.1967 1.93793 9.85042 2.08298 9.68187 2.37848L3.26521 13.6285C3.1328 13.8606 3.13392 14.1457 3.26815 14.3768C3.40238 14.6079 3.64944 14.7501 3.91669 14.7501H8.91669V21.3334H8.9213C8.95519 21.638 9.17281 21.895 9.47447 21.975C9.8033 22.0622 10.1496 21.9172 10.3182 21.6217L11.1408 20.1793C10.4212 19.1331 10 17.8658 10 16.5C10 15.6922 10.1474 14.9188 10.4167 14.2052V13.2501H5.20788L9.58335 5.57879V10.7501H13.466C14.3717 10.2712 15.4042 10 16.5 10C16.6118 10 16.7229 10.0028 16.8333 10.0084C16.8348 9.87547 16.801 9.74227 16.7319 9.62336C16.5977 9.39227 16.3506 9.25007 16.0834 9.25007H11.0834V2.66674H11.0787Z" fill="#505862"/>
<path d="M16.75 14.5C16.75 14.0858 16.4142 13.75 16 13.75C15.5858 13.75 15.25 14.0858 15.25 14.5V17C15.25 17.4142 15.5858 17.75 16 17.75H18C18.4142 17.75 18.75 17.4142 18.75 17C18.75 16.5858 18.4142 16.25 18 16.25H16.75V14.5Z" fill="#505862"/>
<path fill-rule="evenodd" clip-rule="evenodd" d="M22 16.5C22 19.5376 19.5376 22 16.5 22C13.4624 22 11 19.5376 11 16.5C11 13.4624 13.4624 11 16.5 11C19.5376 11 22 13.4624 22 16.5ZM20.5 16.5C20.5 18.7091 18.7091 20.5 16.5 20.5C14.2909 20.5 12.5 18.7091 12.5 16.5C12.5 14.2909 14.2909 12.5 16.5 12.5C18.7091 12.5 20.5 14.2909 20.5 16.5Z" fill="#505862"/>
</svg>
