<?xml version="1.0" encoding="UTF-8" standalone="no"?>
<!--

    Copyright (C) 2017-2019 Dremio Corporation

    Licensed under the Apache License, Version 2.0 (the "License");
    you may not use this file except in compliance with the License.
    You may obtain a copy of the License at

        http://www.apache.org/licenses/LICENSE-2.0

    Unless required by applicable law or agreed to in writing, software
    distributed under the License is distributed on an "AS IS" BASIS,
    WITHOUT WARRANTIES OR CONDITIONS OF ANY KIND, either express or implied.
    See the License for the specific language governing permissions and
    limitations under the License.

-->
<svg width="18px" height="21px" viewBox="0 0 18 21" version="1.1" xmlns="http://www.w3.org/2000/svg" xmlns:xlink="http://www.w3.org/1999/xlink">
    <!-- Generator: Sketch 61.2 (89653) - https://sketch.com -->
    <title>Combined Shape</title>
    <desc>Created with Sketch.</desc>
    <g id="Page-1" stroke="none" stroke-width="1" fill="none" fill-rule="evenodd">
        <g id="Combined-Shape" fill="#7DC4FF">
            <path d="M2.5,0.5 L15.5,0.5 C16.878,0.5 18,1.621 18,3 L18,18 C18,19.379 16.878,20.5 15.5,20.5 L2.5,20.5 C1.122,20.5 0,19.379 0,18 L0,3 C0,1.621 1.122,0.5 2.5,0.5 Z M15.5,19.5 C16.327,19.5 17,18.827 17,18 L17,3 C17,2.173 16.327,1.5 15.5,1.5 L2.5,1.5 C1.673,1.5 1,2.173 1,3 L1,18 C1,18.827 1.673,19.5 2.5,19.5 L15.5,19.5 Z M5.5,5.5 L4.5,5.5 C4.224,5.5 4,5.724 4,6 C4,6.276 4.224,6.5 4.5,6.5 L5.5,6.5 C5.776,6.5 6,6.276 6,6 C6,5.724 5.776,5.5 5.5,5.5 Z M7.5,5.5 L13.5,5.5 C13.776,5.5 14,5.724 14,6 C14,6.276 13.776,6.5 13.5,6.5 L7.5,6.5 C7.224,6.5 7,6.276 7,6 C7,5.724 7.224,5.5 7.5,5.5 Z M5.5,9.5 L4.5,9.5 C4.224,9.5 4,9.724 4,10 C4,10.276 4.224,10.5 4.5,10.5 L5.5,10.5 C5.776,10.5 6,10.276 6,10 C6,9.724 5.776,9.5 5.5,9.5 Z M7.5,9.5 L13.5,9.5 C13.776,9.5 14,9.724 14,10 C14,10.276 13.776,10.5 13.5,10.5 L7.5,10.5 C7.224,10.5 7,10.276 7,10 C7,9.724 7.224,9.5 7.5,9.5 Z M5.5,13.5 L4.5,13.5 C4.224,13.5 4,13.724 4,14 C4,14.276 4.224,14.5 4.5,14.5 L5.5,14.5 C5.776,14.5 6,14.276 6,14 C6,13.724 5.776,13.5 5.5,13.5 Z M7.5,13.5 L13.5,13.5 C13.776,13.5 14,13.724 14,14 C14,14.276 13.776,14.5 13.5,14.5 L7.5,14.5 C7.224,14.5 7,14.276 7,14 C7,13.724 7.224,13.5 7.5,13.5 Z" id="Shape"></path>
        </g>
    </g>
</svg>