<?xml version="1.0" encoding="UTF-8" standalone="no"?>
<!--

    Copyright (C) 2017-2019 Dremio Corporation

    Licensed under the Apache License, Version 2.0 (the "License");
    you may not use this file except in compliance with the License.
    You may obtain a copy of the License at

        http://www.apache.org/licenses/LICENSE-2.0

    Unless required by applicable law or agreed to in writing, software
    distributed under the License is distributed on an "AS IS" BASIS,
    WITHOUT WARRANTIES OR CONDITIONS OF ANY KIND, either express or implied.
    See the License for the specific language governing permissions and
    limitations under the License.

-->
<svg width="24" height="24" xmlns="http://www.w3.org/2000/svg"><g fill="none" fill-rule="evenodd"><path d="M15.419 0a.75.75 0 01.68 1.066 4.94 4.94 0 00.966 5.55l.171.164.136.004c.33-.006.655-.101.938-.276l.138-.094a1.85 1.85 0 00.699-1.09l.028-.165a.75.75 0 011.27-.443 8.311 8.311 0 012.474 5.777 6.23 6.23 0 01-4.309 5.984.75.75 0 11-.462-1.426 4.728 4.728 0 003.271-4.538 6.808 6.808 0 00-1.098-3.591l-.144-.212-.106.162c-.16.225-.347.43-.559.611l-.164.131a3.35 3.35 0 01-2.55.626.75.75 0 01-.362-.166 6.441 6.441 0 01-2.123-6.413l.027-.107-.027.004c-3.478.374-5.803 2.535-6.362 5.794l-.04.253a.75.75 0 01-.664.64 3.508 3.508 0 01-3.264-1.513l-.089-.137-.036.043c-2.245 2.786-1.601 7.06 1.203 8.357l.178.077a.75.75 0 01-.562 1.39C.33 14.704-.353 8.111 3.683 4.68a.75.75 0 011.224.437c.15.826.79 1.449 1.574 1.609l.061.009.028-.13c.888-3.95 4.082-6.494 8.555-6.6L15.42 0z" fill="#FF9364" fill-rule="nonzero"/><path d="M11.669 9a7.5 7.5 0 100 15 7.5 7.5 0 000-15z" fill="#E56D39"/><path d="M10.75 12a.75.75 0 01.743.648l.007.102v3.375l2.7 2.025a.75.75 0 01.21.956l-.06.094a.75.75 0 01-.956.21l-.094-.06-3-2.25a.75.75 0 01-.293-.5L10 16.5v-3.75a.75.75 0 01.75-.75z" fill="#FFF"/></g></svg>