<?xml version="1.0" encoding="UTF-8" standalone="no"?>
<!--

    Copyright (C) 2017-2019 Dremio Corporation

    Licensed under the Apache License, Version 2.0 (the "License");
    you may not use this file except in compliance with the License.
    You may obtain a copy of the License at

        http://www.apache.org/licenses/LICENSE-2.0

    Unless required by applicable law or agreed to in writing, software
    distributed under the License is distributed on an "AS IS" BASIS,
    WITHOUT WARRANTIES OR CONDITIONS OF ANY KIND, either express or implied.
    See the License for the specific language governing permissions and
    limitations under the License.

-->
<svg width="24" height="24" xmlns="http://www.w3.org/2000/svg"><path d="M20.938 1C22.076 1 23 1.905 23 3.02v17.96c0 1.115-.923 2.02-2.063 2.02H3.063C1.923 23 1 22.095 1 20.98V3.02C1 1.905 1.923 1 3.063 1zM7.874 18.734h-5.5v2.246c0 .338.254.618.586.666l.102.007h4.812v-2.919zm6.875 0h-5.5v2.919h5.5v-2.919zm6.875 0h-5.5v2.919h4.813c.345 0 .63-.25.68-.574l.007-.1v-2.245zm-13.75-4.041h-5.5v2.694h5.5v-2.694zm6.875 0h-5.5v2.694h5.5v-2.694zm6.875 0h-5.5v2.694h5.5v-2.694zm-13.75-4.04h-5.5v2.693h5.5v-2.693zm6.875 0h-5.5v2.693h5.5v-2.693zm6.875 0h-5.5v2.693h5.5v-2.693zM7.875 6.612h-5.5v2.694h5.5V6.612zm6.875 0h-5.5v2.694h5.5V6.612zm6.875 0h-5.5v2.694h5.5V6.612zM7.875 2.347H3.062a.68.68 0 00-.687.673v2.245h5.5V2.347zm6.875 0h-5.5v2.918h5.5V2.347zm6.188 0h-4.813v2.918h5.5V3.02a.678.678 0 00-.586-.666l-.102-.007z" fill="#6F6F6F" fill-rule="nonzero"/></svg>