<?xml version="1.0" encoding="UTF-8" standalone="no"?>
<!--

    Copyright (C) 2017-2019 Dremio Corporation

    Licensed under the Apache License, Version 2.0 (the "License");
    you may not use this file except in compliance with the License.
    You may obtain a copy of the License at

        http://www.apache.org/licenses/LICENSE-2.0

    Unless required by applicable law or agreed to in writing, software
    distributed under the License is distributed on an "AS IS" BASIS,
    WITHOUT WARRANTIES OR CONDITIONS OF ANY KIND, either express or implied.
    See the License for the specific language governing permissions and
    limitations under the License.

-->
<!DOCTYPE svg PUBLIC "-//W3C//DTD SVG 1.1//EN" "http://www.w3.org/Graphics/SVG/1.1/DTD/svg11.dtd">
<svg width="24" height="24" viewBox="0 0 24 24" fill="none" xmlns="http://www.w3.org/2000/svg">
<path d="M20 3H4C3.20435 3 2.44129 3.31607 1.87868 3.87868C1.31607 4.44129 1 5.20435 1 6V16C1 16.7956 1.31607 17.5587 1.87868 18.1213C2.44129 18.6839 3.20435 19 4 19H20C20.7956 19 21.5587 18.6839 22.1213 18.1213C22.6839 17.5587 23 16.7956 23 16V6C23 5.20435 22.6839 4.44129 22.1213 3.87868C21.5587 3.31607 20.7956 3 20 3ZM21.5 16C21.5 16.3978 21.342 16.7794 21.0607 17.0607C20.7794 17.342 20.3978 17.5 20 17.5H4C3.60218 17.5 3.22064 17.342 2.93934 17.0607C2.65804 16.7794 2.5 16.3978 2.5 16V6C2.5 5.60218 2.65804 5.22064 2.93934 4.93934C3.22064 4.65804 3.60218 4.5 4 4.5H20C20.3978 4.5 20.7794 4.65804 21.0607 4.93934C21.342 5.22064 21.5 5.60218 21.5 6V16ZM8 15H16V13H8V15ZM13 10H11V12H13V10ZM13 7H11V9H13V7ZM10 10H8V12H10V10ZM10 7H8V9H10V7ZM5 12H7V10H5V12ZM5 15H7V13H5V15ZM17 15H19V13H17V15ZM5 9H7V7H5V9ZM14 12H16V10H14V12ZM14 9H16V7H14V9ZM17 12H19V10H17V12ZM17 9H19V7H17V9ZM12 24L14.5 21.5H9.5L12 24Z" fill="#495055"/>
</svg>
