<?xml version="1.0" encoding="UTF-8" standalone="no"?>
<!--

    Copyright (C) 2017-2019 Dremio Corporation

    Licensed under the Apache License, Version 2.0 (the "License");
    you may not use this file except in compliance with the License.
    You may obtain a copy of the License at

        http://www.apache.org/licenses/LICENSE-2.0

    Unless required by applicable law or agreed to in writing, software
    distributed under the License is distributed on an "AS IS" BASIS,
    WITHOUT WARRANTIES OR CONDITIONS OF ANY KIND, either express or implied.
    See the License for the specific language governing permissions and
    limitations under the License.

-->
<svg width="24" height="25" viewBox="0 0 24 25" fill="none" xmlns="http://www.w3.org/2000/svg">
<path d="M11.9998 3.5C13.8147 3.50005 15.5872 4.04882 17.0846 5.07427C18.5821 6.09972 19.7345 7.55395 20.3907 9.2461C21.0469 10.9382 21.1761 12.7892 20.7615 14.5562C20.3469 16.3231 19.4077 17.9234 18.0673 19.147C16.7269 20.3706 15.0478 21.1604 13.2505 21.4126C11.4533 21.6649 9.62167 21.3679 7.99619 20.5606C6.37071 19.7533 5.02728 18.4734 4.14222 16.8889C3.25715 15.3045 2.87181 13.4894 3.03677 11.682C3.04563 11.5839 3.07373 11.4885 3.11946 11.4013C3.16519 11.314 3.22766 11.2367 3.30329 11.1736C3.37892 11.1105 3.46624 11.0629 3.56027 11.0335C3.65429 11.0042 3.75317 10.9936 3.85127 11.0025C3.94937 11.0114 4.04476 11.0395 4.132 11.0852C4.21923 11.1309 4.29661 11.1934 4.35971 11.269C4.4228 11.3447 4.47039 11.432 4.49974 11.526C4.52909 11.62 4.53963 11.7189 4.53077 11.817C4.42789 12.9128 4.56874 14.0177 4.94322 15.0526C5.3177 16.0876 5.91653 17.0268 6.69677 17.803C7.39183 18.5012 8.21831 19.0549 9.1285 19.432C10.0387 19.8091 11.0146 20.0021 11.9998 20C13.2782 19.9997 14.5354 19.6727 15.6519 19.0499C16.7684 18.4271 17.7072 17.5292 18.3791 16.4415C19.0509 15.3538 19.4336 14.1124 19.4908 12.8352C19.5479 11.5581 19.2776 10.2875 18.7056 9.14411C18.1335 8.00077 17.2787 7.02264 16.2223 6.3026C15.1659 5.58257 13.9429 5.14454 12.6696 5.03011C11.3962 4.91568 10.1148 5.12864 8.94691 5.64878C7.77903 6.16893 6.76351 6.97897 5.99677 8.002H8.75277C8.94279 8.00206 9.12571 8.07425 9.26456 8.20398C9.40341 8.3337 9.48784 8.5113 9.5008 8.70088C9.51375 8.89046 9.45425 9.0779 9.33434 9.2253C9.21442 9.37271 9.04302 9.4691 8.85477 9.495L8.75277 9.502H4.24977C4.06853 9.502 3.89343 9.43636 3.75684 9.31724C3.62025 9.19811 3.53142 9.03356 3.50677 8.854L3.49977 8.752V4.252C3.49983 4.06198 3.57201 3.87906 3.70174 3.74021C3.83147 3.60136 4.00907 3.51693 4.19865 3.50398C4.38823 3.49103 4.57566 3.55052 4.72307 3.67044C4.87047 3.79035 4.96687 3.96175 4.99277 4.15L4.99977 4.252L4.99877 6.843C5.84187 5.79817 6.90837 4.95554 8.11991 4.37703C9.33144 3.79852 10.6572 3.49884 11.9998 3.5ZM11.2498 7.5C11.431 7.50001 11.6061 7.56565 11.7427 7.68477C11.8793 7.80389 11.9681 7.96845 11.9928 8.148L11.9998 8.25V12.5H14.2498C14.4398 12.5001 14.6227 12.5722 14.7616 12.702C14.9004 12.8317 14.9848 13.0093 14.9978 13.1989C15.0107 13.3885 14.9513 13.5759 14.8313 13.7233C14.7114 13.8707 14.54 13.9671 14.3518 13.993L14.2498 14H11.2498C11.0685 14 10.8934 13.9344 10.7568 13.8152C10.6203 13.6961 10.5314 13.5316 10.5068 13.352L10.4998 13.25V8.25C10.4998 8.05109 10.5788 7.86033 10.7194 7.71967C10.8601 7.57902 11.0509 7.5 11.2498 7.5Z" fill="#505862"/>
</svg>
