<?xml version="1.0" encoding="UTF-8" standalone="no"?>
<!--

    Copyright (C) 2017-2019 Dremio Corporation

    Licensed under the Apache License, Version 2.0 (the "License");
    you may not use this file except in compliance with the License.
    You may obtain a copy of the License at

        http://www.apache.org/licenses/LICENSE-2.0

    Unless required by applicable law or agreed to in writing, software
    distributed under the License is distributed on an "AS IS" BASIS,
    WITHOUT WARRANTIES OR CONDITIONS OF ANY KIND, either express or implied.
    See the License for the specific language governing permissions and
    limitations under the License.

-->
<svg width="24" height="24" viewBox="0 0 24 24" fill="none" xmlns="http://www.w3.org/2000/svg">
<path d="M14.059 6.44079C13.8934 6.27469 13.6911 6.14976 13.4684 6.07602C13.2457 6.00229 13.0088 5.98181 12.7768 6.01624C12.5447 6.05067 12.324 6.13904 12.1323 6.27425C11.9406 6.40947 11.7833 6.58775 11.673 6.79479L9.653 10.5848L6.842 11.5218C6.76108 11.5487 6.68838 11.5958 6.63081 11.6587C6.57323 11.7216 6.5327 11.7982 6.51306 11.8811C6.49342 11.9641 6.49532 12.0507 6.51859 12.1327C6.54186 12.2148 6.58572 12.2895 6.646 12.3498L8.793 14.4958L6.146 17.1428L6 17.9958L6.854 17.8498L9.5 15.2028L11.646 17.3498C11.7063 17.4101 11.781 17.4539 11.863 17.4772C11.9451 17.5005 12.0317 17.5024 12.1147 17.4827C12.1976 17.4631 12.2742 17.4226 12.3371 17.365C12.4 17.3074 12.4471 17.2347 12.474 17.1538L13.411 14.3438L17.19 12.3198C17.396 12.2093 17.5733 12.0522 17.7078 11.861C17.8422 11.6698 17.9302 11.4499 17.9646 11.2187C17.999 10.9875 17.9788 10.7514 17.9058 10.5294C17.8328 10.3074 17.7089 10.1055 17.544 9.93979L14.06 6.43979L14.059 6.44079ZM12.555 7.26479C12.5917 7.19566 12.6442 7.13612 12.7081 7.09097C12.7721 7.04581 12.8458 7.01631 12.9232 7.00483C13.0007 6.99335 13.0797 7.00022 13.154 7.02487C13.2283 7.04953 13.2958 7.09129 13.351 7.14679L16.836 10.6448C16.8911 10.7 16.9325 10.7674 16.9569 10.8414C16.9814 10.9155 16.9881 10.9943 16.9766 11.0715C16.9652 11.1486 16.9358 11.222 16.8909 11.2858C16.846 11.3496 16.7868 11.402 16.718 11.4388L12.764 13.5548C12.6514 13.6152 12.5663 13.7165 12.526 13.8378L11.782 16.0708L7.926 12.2148L10.158 11.4708C10.2796 11.4301 10.3809 11.3441 10.441 11.2308L12.555 7.26579V7.26479Z" fill="#505862"/>
</svg>
