<?xml version="1.0" encoding="UTF-8" standalone="no"?>
<!--

    Copyright (C) 2017-2018 Dremio Corporation

    Licensed under the Apache License, Version 2.0 (the "License");
    you may not use this file except in compliance with the License.
    You may obtain a copy of the License at

        http://www.apache.org/licenses/LICENSE-2.0

    Unless required by applicable law or agreed to in writing, software
    distributed under the License is distributed on an "AS IS" BASIS,
    WITHOUT WARRANTIES OR CONDITIONS OF ANY KIND, either express or implied.
    See the License for the specific language governing permissions and
    limitations under the License.

-->
<svg width="24px" height="24px" viewBox="0 0 24 24" version="1.1" xmlns="http://www.w3.org/2000/svg" xmlns:xlink="http://www.w3.org/1999/xlink">
    <!-- Generator: Sketch 41.2 (35397) - http://www.bohemiancoding.com/sketch -->
    <title>Icon/Join-Inner</title>
    <desc>Created with Sketch.</desc>
    <defs></defs>
    <g id="Icons" stroke="none" stroke-width="1" fill="none" fill-rule="evenodd">
        <g id="Icon/Join-Inner">
            <g>
                <g id="icon-box-24-copy-10">
                    <rect id="icon-box-24" x="0" y="0" width="24" height="24"></rect>
                </g>
                <g id="Stroke-7653" transform="translate(4.000000, 7.000000)">
                    <path d="M7.99990671,9.00049089 C7.16424696,9.62812005 6.12553837,10 5,10 C2.23826087,10 0,7.76173913 0,5 C0,2.23869565 2.23826087,0 5,0 C6.12553837,0 7.16424696,0.371952183 7.99990671,0.999637484 C8.83554307,0.371952183 9.87428441,0 11,0 C13.7613043,0 16,2.23869565 16,5 C16,7.76173913 13.7613043,10 11,10 C9.87428441,10 8.83554307,9.62812005 7.99990671,9.00049089 Z M7.99990671,9.00049089 C9.21438667,8.08834569 10,6.63602354 10,5 C10,3.36423402 9.21438667,1.91186428 7.99990671,0.999637484 C6.78546076,1.91186428 6,3.36423402 6,5 C6,6.63602354 6.78546076,8.08834569 7.99990671,9.00049089 Z" stroke="#77818F" stroke-linecap="round" stroke-linejoin="round"></path>
                    <path d="M7.99990671,9.00049089 C9.21438667,8.08834569 10,6.63602354 10,5 C10,3.36423402 9.21438667,1.91186428 7.99990671,0.999637484 C6.78546076,1.91186428 6,3.36423402 6,5 C6,6.63602354 6.78546076,8.08834569 7.99990671,9.00049089 Z" id="Stroke-7653-Copy-2" fill-opacity="0.25" fill="#77818F"></path>
                </g>
            </g>
        </g>
    </g>
</svg>
