<?xml version="1.0" encoding="UTF-8" standalone="no"?>
<!--

    Copyright (C) 2017-2019 Dremio Corporation

    Licensed under the Apache License, Version 2.0 (the "License");
    you may not use this file except in compliance with the License.
    You may obtain a copy of the License at

        http://www.apache.org/licenses/LICENSE-2.0

    Unless required by applicable law or agreed to in writing, software
    distributed under the License is distributed on an "AS IS" BASIS,
    WITHOUT WARRANTIES OR CONDITIONS OF ANY KIND, either express or implied.
    See the License for the specific language governing permissions and
    limitations under the License.

-->
<svg width="24" height="24" viewBox="0 0 24 24" fill="none" xmlns="http://www.w3.org/2000/svg">
<path d="M19.745 5C20.3417 5 20.914 5.23705 21.336 5.65901C21.7579 6.08097 21.995 6.65326 21.995 7.25V16.755C21.995 17.3517 21.7579 17.924 21.336 18.346C20.914 18.7679 20.3417 19.005 19.745 19.005H4.25C3.95453 19.005 3.66194 18.9468 3.38896 18.8337C3.11598 18.7207 2.86794 18.5549 2.65901 18.346C2.45008 18.1371 2.28434 17.889 2.17127 17.616C2.0582 17.3431 2 17.0505 2 16.755V7.25C2 6.65326 2.23705 6.08097 2.65901 5.65901C3.08097 5.23705 3.65326 5 4.25 5H19.745V5ZM19.745 6.5H4.25C4.05109 6.5 3.86032 6.57902 3.71967 6.71967C3.57902 6.86032 3.5 7.05109 3.5 7.25V16.755C3.5 17.169 3.836 17.505 4.25 17.505H19.745C19.9439 17.505 20.1347 17.426 20.2753 17.2853C20.416 17.1447 20.495 16.9539 20.495 16.755V7.25C20.495 7.05109 20.416 6.86032 20.2753 6.71967C20.1347 6.57902 19.9439 6.5 19.745 6.5V6.5ZM6.75 14.5H17.25C17.44 14.5001 17.6229 14.5722 17.7618 14.702C17.9006 14.8317 17.9851 15.0093 17.998 15.1989C18.011 15.3885 17.9515 15.5759 17.8316 15.7233C17.7117 15.8707 17.5402 15.9671 17.352 15.993L17.25 16H6.75C6.55998 15.9999 6.37706 15.9278 6.23821 15.798C6.09936 15.6683 6.01493 15.4907 6.00197 15.3011C5.98902 15.1115 6.04852 14.9241 6.16843 14.7767C6.28835 14.6293 6.45975 14.5329 6.648 14.507L6.75 14.5H17.25H6.75V14.5ZM16.5 11C16.7652 11 17.0196 11.1054 17.2071 11.2929C17.3946 11.4804 17.5 11.7348 17.5 12C17.5 12.2652 17.3946 12.5196 17.2071 12.7071C17.0196 12.8946 16.7652 13 16.5 13C16.2348 13 15.9804 12.8946 15.7929 12.7071C15.6054 12.5196 15.5 12.2652 15.5 12C15.5 11.7348 15.6054 11.4804 15.7929 11.2929C15.9804 11.1054 16.2348 11 16.5 11ZM10.505 11C10.7702 11 11.0246 11.1054 11.2121 11.2929C11.3996 11.4804 11.505 11.7348 11.505 12C11.505 12.2652 11.3996 12.5196 11.2121 12.7071C11.0246 12.8946 10.7702 13 10.505 13C10.2398 13 9.98543 12.8946 9.79789 12.7071C9.61036 12.5196 9.505 12.2652 9.505 12C9.505 11.7348 9.61036 11.4804 9.79789 11.2929C9.98543 11.1054 10.2398 11 10.505 11V11ZM7.505 11C7.77022 11 8.02457 11.1054 8.21211 11.2929C8.39964 11.4804 8.505 11.7348 8.505 12C8.505 12.2652 8.39964 12.5196 8.21211 12.7071C8.02457 12.8946 7.77022 13 7.505 13C7.23978 13 6.98543 12.8946 6.79789 12.7071C6.61036 12.5196 6.505 12.2652 6.505 12C6.505 11.7348 6.61036 11.4804 6.79789 11.2929C6.98543 11.1054 7.23978 11 7.505 11ZM13.505 11C13.7702 11 14.0246 11.1054 14.2121 11.2929C14.3996 11.4804 14.505 11.7348 14.505 12C14.505 12.2652 14.3996 12.5196 14.2121 12.7071C14.0246 12.8946 13.7702 13 13.505 13C13.2398 13 12.9854 12.8946 12.7979 12.7071C12.6104 12.5196 12.505 12.2652 12.505 12C12.505 11.7348 12.6104 11.4804 12.7979 11.2929C12.9854 11.1054 13.2398 11 13.505 11V11ZM6 8C6.26522 8 6.51957 8.10536 6.70711 8.29289C6.89464 8.48043 7 8.73478 7 9C7 9.26522 6.89464 9.51957 6.70711 9.70711C6.51957 9.89464 6.26522 10 6 10C5.73478 10 5.48043 9.89464 5.29289 9.70711C5.10536 9.51957 5 9.26522 5 9C5 8.73478 5.10536 8.48043 5.29289 8.29289C5.48043 8.10536 5.73478 8 6 8ZM8.995 8C9.26022 8 9.51457 8.10536 9.70211 8.29289C9.88964 8.48043 9.995 8.73478 9.995 9C9.995 9.26522 9.88964 9.51957 9.70211 9.70711C9.51457 9.89464 9.26022 10 8.995 10C8.72978 10 8.47543 9.89464 8.28789 9.70711C8.10036 9.51957 7.995 9.26522 7.995 9C7.995 8.73478 8.10036 8.48043 8.28789 8.29289C8.47543 8.10536 8.72978 8 8.995 8V8ZM11.995 8C12.2602 8 12.5146 8.10536 12.7021 8.29289C12.8896 8.48043 12.995 8.73478 12.995 9C12.995 9.26522 12.8896 9.51957 12.7021 9.70711C12.5146 9.89464 12.2602 10 11.995 10C11.7298 10 11.4754 9.89464 11.2879 9.70711C11.1004 9.51957 10.995 9.26522 10.995 9C10.995 8.73478 11.1004 8.48043 11.2879 8.29289C11.4754 8.10536 11.7298 8 11.995 8V8ZM14.995 8C15.2602 8 15.5146 8.10536 15.7021 8.29289C15.8896 8.48043 15.995 8.73478 15.995 9C15.995 9.26522 15.8896 9.51957 15.7021 9.70711C15.5146 9.89464 15.2602 10 14.995 10C14.7298 10 14.4754 9.89464 14.2879 9.70711C14.1004 9.51957 13.995 9.26522 13.995 9C13.995 8.73478 14.1004 8.48043 14.2879 8.29289C14.4754 8.10536 14.7298 8 14.995 8V8ZM17.995 8C18.2602 8 18.5146 8.10536 18.7021 8.29289C18.8896 8.48043 18.995 8.73478 18.995 9C18.995 9.26522 18.8896 9.51957 18.7021 9.70711C18.5146 9.89464 18.2602 10 17.995 10C17.7298 10 17.4754 9.89464 17.2879 9.70711C17.1004 9.51957 16.995 9.26522 16.995 9C16.995 8.73478 17.1004 8.48043 17.2879 8.29289C17.4754 8.10536 17.7298 8 17.995 8Z" fill="#505862"/>
</svg>
