<?xml version="1.0" encoding="UTF-8" standalone="no"?>
<!--

    Copyright (C) 2017-2019 Dremio Corporation

    Licensed under the Apache License, Version 2.0 (the "License");
    you may not use this file except in compliance with the License.
    You may obtain a copy of the License at

        http://www.apache.org/licenses/LICENSE-2.0

    Unless required by applicable law or agreed to in writing, software
    distributed under the License is distributed on an "AS IS" BASIS,
    WITHOUT WARRANTIES OR CONDITIONS OF ANY KIND, either express or implied.
    See the License for the specific language governing permissions and
    limitations under the License.

-->
<svg width="20" height="20" viewBox="0 0 20 20" fill="none" xmlns="http://www.w3.org/2000/svg">
<path fill-rule="evenodd" clip-rule="evenodd" d="M9.1569 3.95833C9.1569 3.15333 8.5044 2.5 7.69857 2.5H3.94857L3.8294 2.50583C3.46464 2.53574 3.12447 2.7017 2.87639 2.97077C2.62831 3.23984 2.49047 3.59235 2.49023 3.95833V16.0417C2.49023 16.4284 2.64388 16.7994 2.91737 17.0729C3.19086 17.3464 3.56179 17.5 3.94857 17.5H7.69857C7.89008 17.5 8.07971 17.4623 8.25665 17.389C8.43358 17.3157 8.59435 17.2083 8.72976 17.0729C8.86518 16.9374 8.9726 16.7767 9.04589 16.5997C9.11918 16.4228 9.1569 16.2332 9.1569 16.0417V3.95833ZM17.5119 3.95833C17.5119 3.15333 16.8594 2.5 16.0536 2.5H12.3036C11.4986 2.5 10.8452 3.15333 10.8452 3.95833V10.6635C11.2158 10.31 11.6363 10.0085 12.0952 9.77076V3.95833C12.0952 3.90308 12.1172 3.85009 12.1563 3.81102C12.1953 3.77195 12.2483 3.75 12.3036 3.75H16.0536C16.1088 3.75 16.1618 3.77195 16.2009 3.81102C16.24 3.85009 16.2619 3.90308 16.2619 3.95833V9.43171C16.7066 9.57649 17.126 9.77726 17.5119 10.0257V3.95833ZM3.94857 3.75H7.69857C7.75382 3.75 7.80681 3.77195 7.84588 3.81102C7.88495 3.85009 7.9069 3.90308 7.9069 3.95833V16.0425C7.9069 16.0978 7.88495 16.1507 7.84588 16.1898C7.80681 16.2289 7.75382 16.2508 7.69857 16.2508H3.94857C3.83357 16.2508 3.74023 16.1575 3.74023 16.0425V3.95917C3.74012 3.91209 3.75596 3.86636 3.78517 3.82944C3.81438 3.79251 3.85523 3.76657 3.90107 3.75583L3.94857 3.75Z" fill="#505862"/>
<path fill-rule="evenodd" clip-rule="evenodd" d="M10.3612 13.8097C11.4628 13.5371 12.1172 12.4037 11.8024 11.3135L11.7334 11.0745C12.0995 10.7558 12.5161 10.4974 12.9691 10.3139L13.1432 10.4971C13.9315 11.3266 15.2537 11.3268 16.0423 10.4976L16.2116 10.3196C16.6654 10.5052 17.0825 10.7663 17.4484 11.0877L17.3925 11.2771C17.0687 12.3747 17.73 13.5197 18.8425 13.7876L18.9507 13.8136C18.9916 14.0639 19.0129 14.321 19.0129 14.5833C19.0129 14.834 18.9935 15.08 18.956 15.3198L18.8059 15.3569C17.7043 15.6295 17.0499 16.7629 17.3647 17.8531L17.4336 18.0919C17.0676 18.4106 16.6509 18.6691 16.198 18.8527L16.0239 18.6695C15.2356 17.84 13.9134 17.8398 13.1248 18.669L12.9554 18.8472C12.5016 18.6616 12.0845 18.4006 11.7186 18.0792L11.7746 17.8895C12.0985 16.7919 11.4371 15.6469 10.3246 15.379L10.216 15.3529C10.1751 15.1027 10.1538 14.8456 10.1538 14.5833C10.1538 14.3327 10.1733 14.0867 10.2107 13.8469L10.3612 13.8097ZM15.7914 14.5833C15.7914 15.2737 15.2506 15.8333 14.5834 15.8333C13.9162 15.8333 13.3753 15.2737 13.3753 14.5833C13.3753 13.893 13.9162 13.3333 14.5834 13.3333C15.2506 13.3333 15.7914 13.893 15.7914 14.5833Z" fill="#505862"/>
</svg>
