<?xml version="1.0" encoding="UTF-8" standalone="no"?>
<!--

    Copyright (C) 2017-2018 Dremio Corporation

    Licensed under the Apache License, Version 2.0 (the "License");
    you may not use this file except in compliance with the License.
    You may obtain a copy of the License at

        http://www.apache.org/licenses/LICENSE-2.0

    Unless required by applicable law or agreed to in writing, software
    distributed under the License is distributed on an "AS IS" BASIS,
    WITHOUT WARRANTIES OR CONDITIONS OF ANY KIND, either express or implied.
    See the License for the specific language governing permissions and
    limitations under the License.

-->
<svg width="24px" height="24px" viewBox="0 0 24 24" version="1.1" xmlns="http://www.w3.org/2000/svg" xmlns:xlink="http://www.w3.org/1999/xlink" xmlns:sketch="http://www.bohemiancoding.com/sketch/ns">
    <!-- Generator: Sketch 3.5.1 (25234) - http://www.bohemiancoding.com/sketch -->
    <title>Icon/Masked</title>
    <desc>Created with Sketch.</desc>
    <defs></defs>
    <g id="Icons" stroke="none" stroke-width="1" fill="none" fill-rule="evenodd" sketch:type="MSPage">
        <g id="Icon/Masked" sketch:type="MSArtboardGroup">
            <g sketch:type="MSLayerGroup">
                <g id="icon-box-24-copy-10" sketch:type="MSShapeGroup">
                    <rect id="icon-box-24" x="0" y="0" width="24" height="24"></rect>
                </g>
                <path d="M16.5457678,12.6353422 C15.0646606,12.6353422 13.8653957,12.1263373 13.8653957,11.5 C13.8653957,10.8736627 15.0646606,10.3646578 16.5457678,10.3646578 C18.0268749,10.3646578 19.2286666,10.8739046 19.2286666,11.5 C19.2286666,12.1260954 18.0268749,12.6353422 16.5457678,12.6353422 M7.45377283,12.6353422 C5.97266567,12.6353422 4.77064431,12.1263373 4.77064431,11.5 C4.77064431,10.8739046 5.97266567,10.3646578 7.45377283,10.3646578 C8.93487998,10.3646578 10.1343746,10.8739046 10.1343746,11.5 C10.1343746,12.1260954 8.93487998,12.6353422 7.45377283,12.6353422 M16.8616056,7 C15.8782589,7 14.9596876,7.24264824 14.1791662,7.66286759 C12.8168141,8.39661846 11.1829562,8.39661846 9.82037441,7.66286759 C9.03985299,7.24264824 8.12128173,7 7.13793499,7 C4.29815091,7 2,9.01448847 2,11.5 C2,13.9855115 4.29815091,16 7.1381647,16 C8.12151143,16 9.04008269,15.7573518 9.82060411,15.3371324 C11.1831859,14.6033815 12.8170438,14.6033815 14.1793959,15.3371324 C14.9599173,15.7573518 15.8784886,16 16.8618353,16 C19.7018491,16 22,13.9855115 22,11.5 C22,9.01448847 19.7013897,7 16.8616056,7" id="Page-1" fill="#77818F" sketch:type="MSShapeGroup"></path>
            </g>
        </g>
    </g>
</svg>
