<?xml version="1.0" encoding="UTF-8" standalone="no"?>
<!--

    Copyright (C) 2017-2018 Dremio Corporation

    Licensed under the Apache License, Version 2.0 (the "License");
    you may not use this file except in compliance with the License.
    You may obtain a copy of the License at

        http://www.apache.org/licenses/LICENSE-2.0

    Unless required by applicable law or agreed to in writing, software
    distributed under the License is distributed on an "AS IS" BASIS,
    WITHOUT WARRANTIES OR CONDITIONS OF ANY KIND, either express or implied.
    See the License for the specific language governing permissions and
    limitations under the License.

-->
<!DOCTYPE svg PUBLIC "-//W3C//DTD SVG 1.1//EN" "http://www.w3.org/Graphics/SVG/1.1/DTD/svg11.dtd">
<svg width="100%" height="100%" viewBox="0 0 609 205" version="1.1" xmlns="http://www.w3.org/2000/svg" xmlns:xlink="http://www.w3.org/1999/xlink" xml:space="preserve" style="fill-rule:evenodd;clip-rule:evenodd;stroke-linejoin:round;stroke-miterlimit:1.41421;">
    <g id="g14">
        <path id="path22" d="M522.221,27.966c0,3.433 -1.183,6.183 -3.543,8.144c-2.311,2.012 -5.081,2.992 -8.263,2.992c-3.178,0 -5.95,-0.98 -8.261,-2.992c-2.363,-1.961 -3.54,-4.711 -3.54,-8.144c0,-3.483 1.177,-6.181 3.54,-8.193c2.311,-1.963 5.083,-2.943 8.261,-2.943c3.182,0 5.952,0.98 8.263,2.943c2.36,2.012 3.543,4.71 3.543,8.193" style="fill:#fff;"/>
        <path id="path24" d="M500.616,48.475l19.756,0l0,66.628l-19.756,0l0,-66.628l0,0Z" style="fill:#fff;"/>
        <path id="path28" d="M301.95,63.979c-1.794,-0.443 -3.95,-0.883 -6.361,-1.375c-2.465,-0.49 -5.083,-0.685 -7.904,-0.685c-1.232,0 -2.769,0.097 -4.517,0.293c-1.795,0.244 -3.128,0.442 -4.003,0.736l0,52.154l-20.219,0l0,-64.615c3.592,-1.227 7.902,-2.355 12.828,-3.435c4.928,-1.08 10.42,-1.618 16.474,-1.618c1.08,0 2.413,0.048 3.953,0.196c1.541,0.097 3.079,0.293 4.617,0.489c1.542,0.245 3.08,0.492 4.618,0.785c1.541,0.295 2.824,0.686 3.902,1.128l-3.388,15.947" style="fill:#fff;"/>
        <path id="path32" d="M582.315,80.856c0,-5.985 -1.233,-10.696 -3.696,-14.081c-2.516,-3.434 -6.056,-5.151 -10.673,-5.151c-4.62,0 -8.16,1.717 -10.73,5.151c-2.512,3.385 -3.794,8.096 -3.794,14.081c0,5.936 1.282,10.695 3.794,14.177c2.57,3.536 6.11,5.251 10.73,5.251c4.617,0 8.157,-1.715 10.673,-5.251c2.463,-3.482 3.696,-8.241 3.696,-14.177m20.683,0c0,5.349 -0.824,10.253 -2.463,14.719c-1.644,4.465 -4.007,8.244 -7.087,11.432c-3.076,3.138 -6.721,5.593 -11.03,7.31c-4.312,1.718 -9.136,2.6 -14.472,2.6c-5.236,0 -10.01,-0.882 -14.319,-2.6c-4.312,-1.717 -8.008,-4.172 -11.033,-7.31c-3.08,-3.188 -5.494,-6.967 -7.238,-11.432c-1.69,-4.466 -2.565,-9.37 -2.565,-14.719c0,-5.396 0.875,-10.256 2.669,-14.669c1.747,-4.416 4.21,-8.194 7.338,-11.284c3.08,-3.14 6.826,-5.546 11.085,-7.263c4.311,-1.765 8.979,-2.6 14.063,-2.6c5.184,0 9.904,0.835 14.213,2.6c4.259,1.717 7.956,4.123 11.035,7.263c3.078,3.09 5.49,6.868 7.185,11.284c1.744,4.413 2.619,9.273 2.619,14.669" style="fill:#fff;"/>
        <path id="path36" d="M356.905,74.083c-0.051,-1.618 -0.363,-3.236 -0.873,-4.806c-0.512,-1.52 -1.286,-2.943 -2.311,-4.12c-1.023,-1.228 -2.359,-2.208 -3.951,-2.994c-1.54,-0.785 -3.542,-1.177 -5.902,-1.177c-2.258,0 -4.21,0.392 -5.798,1.128c-1.644,0.737 -2.976,1.668 -4.106,2.895c-1.078,1.225 -1.899,2.6 -2.515,4.22c-0.561,1.618 -0.976,3.236 -1.28,4.854l26.736,0Zm-47.473,7.411c0,-6.085 0.977,-11.383 2.928,-15.897c1.896,-4.563 4.461,-8.339 7.642,-11.334c3.187,-3.041 6.828,-5.346 10.936,-6.916c4.107,-1.521 8.362,-2.308 12.675,-2.308c10.159,0 18.168,2.946 24.017,8.882c5.903,5.937 8.827,14.621 8.827,26.15c0,1.127 -0.052,2.356 -0.103,3.68c-0.105,1.372 -0.206,2.551 -0.308,3.58l-45.877,0c0.46,3.976 2.412,7.114 5.847,9.47c3.44,2.354 8.057,3.482 13.858,3.482c3.694,0 7.335,-0.293 10.928,-0.93c3.544,-0.687 6.467,-1.472 8.724,-2.406l2.722,15.702c-1.078,0.49 -2.514,1.03 -4.31,1.521c-1.85,0.537 -3.849,0.98 -6.056,1.372c-2.208,0.393 -4.617,0.736 -7.136,0.983c-2.513,0.245 -5.078,0.392 -7.593,0.392c-6.413,0 -12.007,-0.932 -16.781,-2.747c-4.72,-1.817 -8.675,-4.271 -11.802,-7.457c-3.13,-3.142 -5.441,-6.87 -6.929,-11.186c-1.491,-4.368 -2.209,-9.028 -2.209,-14.033l0,0Z" style="fill:#fff;"/>
        <path id="path40" d="M426.902,78.891c0,-6.229 -0.819,-10.644 -2.515,-13.245c-1.695,-2.6 -4.568,-3.875 -8.619,-3.875c-1.285,0 -2.565,0.05 -3.954,0.195c-1.336,0.097 -2.668,0.295 -3.902,0.443l0,52.693l-20.268,0l0,-65.94c1.746,-0.443 3.748,-0.883 6.055,-1.373c2.311,-0.442 4.775,-0.884 7.34,-1.278c2.564,-0.392 5.233,-0.685 7.955,-0.882c2.717,-0.244 5.389,-0.343 8.004,-0.343c5.134,0 9.341,0.636 12.522,1.864c3.232,1.276 5.904,2.747 7.952,4.513c2.93,-2.01 6.212,-3.581 10.01,-4.709c3.745,-1.128 7.186,-1.668 10.365,-1.668c5.697,0 10.368,0.736 14.061,2.256c3.646,1.52 6.571,3.68 8.726,6.428c2.205,2.796 3.697,6.084 4.516,9.861c0.769,3.828 1.18,8.046 1.18,12.706l0,38.565l-20.219,0l0,-36.211c0,-6.229 -0.819,-10.644 -2.513,-13.245c-1.644,-2.6 -4.518,-3.875 -8.624,-3.875c-1.078,0 -2.566,0.246 -4.516,0.784c-1.948,0.491 -3.542,1.128 -4.822,1.914c0.612,2.012 1.023,4.122 1.23,6.329c0.152,2.207 0.258,4.563 0.258,7.065l0,37.239l-20.222,0l0,-36.211" style="fill:#fff;"/>
        <path id="path44" d="M223.896,99.646c-1.027,0.197 -2.259,0.344 -3.797,0.443c-1.542,0.146 -3.234,0.194 -5.031,0.194c-5.541,0 -9.699,-1.814 -12.52,-5.444c-2.771,-3.632 -4.209,-8.44 -4.209,-14.376c0,-12.461 4.824,-18.692 14.421,-18.692c2.051,0 4.105,0.246 6.156,0.786c2.055,0.489 3.699,1.174 4.98,1.912l0,35.177Zm0,-77.585l0,26.316c-2.259,-0.932 -4.517,-1.668 -6.724,-2.208c-2.207,-0.49 -4.72,-0.735 -7.543,-0.735c-5.081,0 -9.598,0.783 -13.497,2.453c-3.952,1.618 -7.287,4.023 -10.008,7.114c-2.719,3.14 -4.771,6.917 -6.209,11.381c-1.436,4.465 -2.207,9.419 -2.207,14.964c0,5.445 0.873,10.353 2.513,14.717c1.695,4.368 4.107,8.098 7.29,11.188c3.181,3.043 7.029,5.448 11.649,7.066c4.617,1.668 9.852,2.453 15.755,2.453c2.464,0 5.028,-0.1 7.7,-0.293c2.666,-0.247 5.284,-0.492 7.849,-0.884c2.565,-0.346 5.028,-0.738 7.391,-1.228c2.361,-0.442 4.414,-0.931 6.26,-1.472l0,-96.063l-20.219,5.231l0,0Z" style="fill:#fff;"/>
        <path id="path48" d="M51.002,122.63c-5.924,2.687 -17.453,8.7 -16.36,15.218c1.504,4.006 6.199,-0.228 7.931,-1.914c3.736,-3.509 6.697,-8.384 8.429,-13.304m35.36,-14.397c-3.919,10.251 -15.356,15.127 -18.545,13.396c-1.596,-0.867 0.136,-4.101 0.181,-6.333c-2.324,0.91 -6.152,2.596 -8.476,3.553c5.56,4.145 8.431,11.299 8.385,18.088c0,6.969 -2.869,13.393 -8.248,17.813c9.57,14.167 4.696,26.376 -8.474,35.899l-0.822,0.547l-0.273,-0.956c-1.957,-6.743 -4.42,-12.438 -9.068,-17.815c-2.324,-2.687 -4.968,-5.148 -7.564,-7.608c-3.417,-3.235 -6.697,-6.513 -9.797,-10.021c-13.032,-13.851 -18.183,-37.86 -16.495,-56.403c0.864,-9.567 3.783,-18.724 8.247,-27.199c3.554,-6.742 8.065,-12.938 13.261,-18.494c11.483,-12.303 26.703,-22.008 42.88,-26.791c14.216,-4.235 30.483,-4.965 44.019,2.005c2.186,1.139 5.468,3.143 7.29,4.647c1.142,1.047 2.278,2.141 3.372,3.189c0.136,0.091 0.275,0.228 0.366,0.363l63.294,-32.3c5.239,-2.596 9.158,-2.596 10.754,-0.727c1.868,2.186 -0.728,6.74 -4.419,9.43l-54.228,39.362c0.956,3.143 -0.639,7.699 -3.009,10.387c7.248,2.505 0.866,13.12 -2.323,16.903c-9.068,10.752 -25.7,19.18 -40.509,25.33c-3.966,1.686 -6.243,2.416 -9.799,3.735" style="fill:#393c42;"/>
        <path id="path52" d="M135.987,71.104c4.056,-5.103 1.23,-8.064 -1.595,-5.193c-5.56,5.693 -13.989,7.652 -21.599,6.422c-11.121,-1.868 -11.618,-3.553 -9.752,-5.194c13.124,4.785 28.388,-1.456 34.722,-11.799c2.734,-3.917 -6.424,-7.061 -11.846,-14.396c-25.929,-34.989 -107.086,-4.464 -114.833,56.721c-2.371,18.404 2.779,38.768 15.449,53.119c9.476,10.753 19.775,15.219 25.607,32.121c11.348,-9.75 9.569,-20.774 1.279,-30.433c14.169,-7.381 12.118,-26.563 2.14,-32.393c-4.647,17.084 -21.327,29.704 -25.2,17.585c-2.506,-12.347 17.818,-20.545 50.398,-32.892c27.251,-10.207 44.84,-18.635 55.23,-33.668" style="fill:#55bfce;"/>
        <path id="path56" d="M135.987,71.104c4.056,-5.103 1.23,-8.064 -1.595,-5.193c-4.783,4.92 -11.984,7.062 -18.547,6.742c-11.209,-0.82 -20.141,-3.006 -28.342,-2.142c-16.134,1.64 -31.854,11.845 -40.283,20.456c-14.217,14.58 -29.893,44.829 -14.08,50.708c-1.185,-0.731 -2.143,-2.051 -2.781,-4.011c-2.506,-12.347 17.818,-20.545 50.398,-32.892c27.251,-10.207 44.84,-18.635 55.23,-33.668" style="fill:#fff;"/>
        <path id="path60" d="M66.22,94.976c8.385,4.1 6.7,18.496 5.469,22.097c15.903,-4.512 11.164,-28.064 18.548,-35.264c-9.252,-0.273 -26.569,9.02 -24.017,13.167" style="fill:#55bfce;"/>
        <path id="path64" d="M93.107,52.333c2.278,-1.184 5.059,-0.364 6.29,1.915c1.184,2.232 0.317,5.01 -1.916,6.241c-2.232,1.184 -5.056,0.363 -6.243,-1.913c-1.229,-2.234 -0.364,-5.012 1.869,-6.243" style="fill:#393c42;"/>
        <path id="path68" d="M131.703,54.292l63.796,-44.42c1.776,-1.274 4.148,-4.009 3.19,-5.33c-0.955,-1.32 -3.736,-0.592 -6.106,0.456l-68.993,37.266c-2.231,4.647 2.28,14.443 8.113,12.028" style="fill:#55bfce;"/>
        <path id="path72" d="M126.099,45.5l66.666,-39.226c2.916,-1.732 4.056,-1.686 5.831,-1.869c-1.001,-1.137 -3.736,-0.455 -6.013,0.592l-68.992,37.267c-1.684,3.508 0.502,10.024 4.193,11.892c-1.321,-2.871 -2.187,-5.878 -1.685,-8.656" style="fill:#fff;"/>
        <path id="path76" d="M27.898,62.948c2.187,-0.364 3.875,1.14 3.828,3.373c0,2.231 -1.776,4.328 -3.962,4.692c-2.143,0.363 -3.831,-1.14 -3.783,-3.326c0,-2.232 1.775,-4.328 3.917,-4.739" style="fill:#25abad;"/>
        <path id="path80" d="M40.84,48.688c1.915,-0.319 3.418,1.003 3.371,2.963c-0.045,2.005 -1.595,3.825 -3.508,4.19c-1.913,0.32 -3.419,-1.002 -3.372,-2.961c0.045,-1.959 1.595,-3.828 3.509,-4.192" style="fill:#25abad;"/>
        <path id="path84" d="M79.984,29.828c1.96,0.091 3.144,1.731 2.642,3.644c-0.456,1.915 -2.414,3.372 -4.328,3.28c-1.917,-0.091 -3.1,-1.732 -2.644,-3.644c0.455,-1.915 2.415,-3.372 4.33,-3.28" style="fill:#25abad;"/>
        <path id="path88" d="M91.968,27.869c1.594,0.364 2.368,1.821 1.732,3.37c-0.639,1.503 -2.462,2.462 -4.01,2.142c-1.594,-0.364 -2.372,-1.823 -1.733,-3.371c0.637,-1.503 2.46,-2.461 4.011,-2.141" style="fill:#25abad;"/>
        <path id="path92" d="M40.977,57.617c1.411,-0.228 2.552,0.775 2.506,2.234c0,1.457 -1.186,2.824 -2.598,3.053c-1.412,0.273 -2.505,-0.729 -2.505,-2.188c0.045,-1.457 1.184,-2.825 2.597,-3.099" style="fill:#25abad;"/>
        <path id="path96" d="M20.79,74.383c1.458,-0.272 2.644,0.774 2.598,2.28c0,1.548 -1.229,2.96 -2.689,3.233c-1.504,0.228 -2.644,-0.775 -2.644,-2.277c0.048,-1.55 1.231,-3.007 2.735,-3.236" style="fill:#25abad;"/>
        <path id="path100" d="M140.088,33.381l-2.96,1.594c0.226,4.328 3.78,9.568 6.331,10.434c-2.004,-3.052 -3.825,-8.339 -3.371,-12.028m15.903,-8.61l-2.596,1.412c0.319,3.872 3.508,8.519 5.103,8.792c-1.231,-1.866 -2.826,-7.06 -2.507,-10.204m15.721,-8.52l-2.005,1.094c-0.045,2.55 1.824,6.377 3.917,6.925c-1.001,-1.595 -2.232,-4.876 -1.912,-8.019m15.13,-8.154l-1.734,0.956c0.139,1.686 2.098,4.829 3.191,5.33c-0.411,-1.229 -1.64,-3.734 -1.457,-6.286" style="fill:#25abad;"/>
        <path d="M446.276,191.292l-7.289,0l0,-63.987l7.856,0l0,22.827c3.318,-4.161 7.551,-6.241 12.702,-6.241c2.851,0 5.55,0.575 8.096,1.724c2.546,1.149 4.641,2.764 6.286,4.845c1.644,2.08 2.931,4.59 3.862,7.529c0.931,2.939 1.397,6.082 1.397,9.428c0,7.944 -1.964,14.083 -5.892,18.419c-3.929,4.336 -8.643,6.504 -14.142,6.504c-5.471,0 -9.763,-2.285 -12.876,-6.853l0,5.805Zm-0.087,-23.526c0,5.558 0.756,9.573 2.269,12.047c2.474,4.044 5.82,6.067 10.039,6.067c3.434,0 6.402,-1.492 8.904,-4.474c2.503,-2.983 3.754,-7.427 3.754,-13.334c0,-6.053 -1.2,-10.519 -3.601,-13.4c-2.401,-2.881 -5.303,-4.321 -8.708,-4.321c-3.433,0 -6.401,1.491 -8.904,4.474c-2.502,2.982 -3.753,7.296 -3.753,12.941Z" style="fill:#e78d33;fill-rule:nonzero;"/>
        <path d="M520.477,176.365l8.118,1.003c-1.28,4.743 -3.652,8.424 -7.115,11.043c-3.462,2.619 -7.885,3.929 -13.268,3.929c-6.78,0 -12.156,-2.088 -16.128,-6.264c-3.972,-4.175 -5.958,-10.032 -5.958,-17.568c0,-7.798 2.008,-13.851 6.023,-18.157c4.016,-4.307 9.225,-6.46 15.626,-6.46c6.198,0 11.261,2.109 15.189,6.329c3.929,4.219 5.893,10.155 5.893,17.808c0,0.465 -0.015,1.164 -0.044,2.095l-34.569,0c0.291,5.092 1.732,8.991 4.322,11.698c2.589,2.706 5.819,4.059 9.689,4.059c2.881,0 5.34,-0.757 7.377,-2.27c2.037,-1.513 3.652,-3.928 4.845,-7.245Zm-25.796,-12.702l25.883,0c-0.349,-3.899 -1.339,-6.823 -2.968,-8.773c-2.503,-3.026 -5.747,-4.539 -9.734,-4.539c-3.608,0 -6.641,1.207 -9.1,3.622c-2.459,2.416 -3.819,5.645 -4.081,9.69Z" style="fill:#e78d33;fill-rule:nonzero;"/>
        <path d="M555.613,184.265l1.135,6.94c-2.212,0.465 -4.191,0.698 -5.936,0.698c-2.852,0 -5.064,-0.451 -6.635,-1.353c-1.571,-0.902 -2.677,-2.088 -3.317,-3.557c-0.64,-1.47 -0.96,-4.561 -0.96,-9.275l0,-26.669l-5.762,0l0,-6.111l5.762,0l0,-11.479l7.813,-4.714l0,16.193l7.9,0l0,6.111l-7.9,0l0,27.105c0,2.241 0.138,3.681 0.414,4.321c0.277,0.64 0.728,1.15 1.353,1.528c0.626,0.378 1.521,0.567 2.685,0.567c0.873,0 2.022,-0.102 3.448,-0.305Z" style="fill:#e78d33;fill-rule:nonzero;"/>
        <path d="M593.542,185.574c-2.909,2.474 -5.71,4.219 -8.402,5.238c-2.691,1.018 -5.579,1.528 -8.664,1.528c-5.092,0 -9.006,-1.244 -11.741,-3.732c-2.735,-2.488 -4.103,-5.667 -4.103,-9.537c0,-2.27 0.517,-4.343 1.55,-6.22c1.033,-1.877 2.386,-3.383 4.059,-4.518c1.673,-1.134 3.557,-1.993 5.652,-2.575c1.542,-0.407 3.87,-0.8 6.984,-1.178c6.343,-0.757 11.014,-1.659 14.011,-2.706c0.029,-1.077 0.043,-1.761 0.043,-2.052c0,-3.201 -0.742,-5.456 -2.226,-6.765c-2.007,-1.775 -4.99,-2.663 -8.947,-2.663c-3.696,0 -6.424,0.648 -8.184,1.943c-1.761,1.295 -3.063,3.586 -3.907,6.874l-7.682,-1.047c0.699,-3.289 1.848,-5.944 3.448,-7.966c1.601,-2.022 3.914,-3.579 6.94,-4.67c3.027,-1.092 6.533,-1.637 10.519,-1.637c3.958,0 7.173,0.465 9.647,1.397c2.473,0.931 4.292,2.102 5.455,3.513c1.164,1.411 1.979,3.194 2.445,5.347c0.262,1.339 0.393,3.754 0.393,7.245l0,10.476c0,7.304 0.167,11.923 0.501,13.858c0.335,1.935 0.997,3.79 1.986,5.565l-8.205,0c-0.815,-1.63 -1.339,-3.535 -1.572,-5.718Zm-0.654,-17.546c-2.852,1.164 -7.129,2.153 -12.833,2.968c-3.23,0.466 -5.514,0.989 -6.852,1.571c-1.339,0.582 -2.372,1.433 -3.099,2.554c-0.728,1.12 -1.091,2.364 -1.091,3.731c0,2.096 0.792,3.841 2.378,5.238c1.586,1.397 3.907,2.095 6.962,2.095c3.026,0 5.718,-0.662 8.075,-1.986c2.357,-1.324 4.088,-3.135 5.194,-5.434c0.844,-1.775 1.266,-4.394 1.266,-7.856l0,-2.881Z" style="fill:#e78d33;fill-rule:nonzero;"/>
    </g>
</svg>
