<?xml version="1.0" encoding="UTF-8" standalone="no"?>
<!--

    Copyright (C) 2017-2019 Dremio Corporation

    Licensed under the Apache License, Version 2.0 (the "License");
    you may not use this file except in compliance with the License.
    You may obtain a copy of the License at

        http://www.apache.org/licenses/LICENSE-2.0

    Unless required by applicable law or agreed to in writing, software
    distributed under the License is distributed on an "AS IS" BASIS,
    WITHOUT WARRANTIES OR CONDITIONS OF ANY KIND, either express or implied.
    See the License for the specific language governing permissions and
    limitations under the License.

-->

<svg width="222" height="250" viewBox="0 0 222 250" fill="none" xmlns="http://www.w3.org/2000/svg">
  <path d="M62.3206 130.322C51.2963 135.742 21.2567 129.543 21.2567 129.543C21.619 130.378 22.0532 131.18 22.5544 131.939C21.5774 131.757 21.0132 131.641 21.0132 131.641C22.0429 133.898 23.4648 135.955 25.2127 137.715C29.6201 142.197 34.9188 145.705 40.7664 148.011C46.4279 150.353 52.3656 151.96 58.435 152.796C60.8463 153.162 63.278 153.378 65.716 153.442L65.3472 151.311C65.5514 151.322 65.7441 151.333 65.9595 151.344L62.3206 130.322Z" fill="white"/>
  <path d="M65.7163 153.443C63.2783 153.378 60.8466 153.162 58.4354 152.796C52.3659 151.961 46.4282 150.353 40.7666 148.012C34.919 145.705 29.6204 142.198 25.2129 137.716C23.465 135.955 22.0431 133.899 21.0134 131.642C21.0134 131.642 51.0531 137.84 62.0774 132.421" fill="#31D3DB"/>
  <path d="M66.0176 152.151C65.9847 152.153 65.9517 152.153 65.9187 152.152C63.4467 152.088 60.9813 151.869 58.5371 151.493C52.406 150.652 46.4084 149.026 40.6919 146.655C34.7445 144.31 29.3567 140.74 24.8783 136.178C23.0557 134.343 21.5766 132.197 20.511 129.84C20.4576 129.705 20.4416 129.558 20.4645 129.414C20.4874 129.271 20.5485 129.136 20.6413 129.024C20.7341 128.913 20.8551 128.829 20.9916 128.781C21.1281 128.733 21.275 128.723 21.4168 128.751C21.7138 128.813 51.3163 134.831 61.9681 129.596C62.0629 129.55 62.166 129.522 62.2714 129.516C62.3768 129.509 62.4825 129.524 62.5822 129.558C62.682 129.593 62.7739 129.647 62.8526 129.717C62.9314 129.788 62.9954 129.873 63.041 129.968C63.1348 130.161 63.1488 130.382 63.0798 130.585C63.0108 130.787 62.8645 130.954 62.6728 131.049C52.8892 135.857 29.1888 131.869 22.7138 130.651C23.6394 132.248 24.7541 133.727 26.0338 135.057C30.3676 139.461 35.5779 142.907 41.3275 145.171C46.932 147.489 52.8107 149.079 58.8196 149.902C61.1977 150.264 63.596 150.476 66.0006 150.537C66.2051 150.549 66.3975 150.638 66.5388 150.786C66.6802 150.935 66.76 151.131 66.7622 151.336C66.7644 151.541 66.6887 151.739 66.5505 151.89C66.4123 152.041 66.2219 152.135 66.0177 152.151H66.0176Z" fill="#383C42"/>
  <path d="M188.514 180.142C185.267 181.487 182.449 183.693 180.362 186.521C178.044 189.292 176.405 192.567 175.576 196.084C174.928 199.603 173.688 202.987 171.908 206.091C166.508 212.133 155.948 214.301 152.112 214.669C148.997 215.03 145.844 214.509 143.011 213.166C140.177 211.823 137.778 209.712 136.085 207.073C134.712 204.445 134.044 201.506 134.144 198.543C135.048 192.506 145.924 170.106 148.844 163.406C148.972 163.112 149.085 162.848 149.181 162.618L149.922 160.15C151.058 161.232 152.127 162.186 153.063 163.02C159.975 169.179 168.82 174.287 169.403 173.542C169.567 173.333 169.062 172.686 168.796 172.332C168.174 171.495 167.627 170.605 167.161 169.671C169.673 171.158 171.389 172.016 171.389 172.016C171.389 172.016 166.65 165.774 165.486 151.453C164.978 145.202 164.705 141.623 164.263 138.803C163.717 134.217 162.289 129.779 160.059 125.734L161.863 119.619C163.133 111.789 163.349 103.824 162.506 95.9363C162.064 92.2072 161.496 89.5025 161.287 88.5406C158.27 74.6435 150.297 58.54 142.015 50.2974C124.891 33.2569 97.9665 27.0393 75.0221 43.9594C74.2034 44.6144 73.4422 45.3383 72.7468 46.1231C72.389 46.4495 72.0278 46.7782 71.6768 47.0992C71.5211 47.2008 71.3852 47.3299 71.2757 47.4801L13.5299 3.61857C8.76495 0.0295206 5.25787 -0.986475 3.46716 1.00636C3.25324 1.25037 3.08735 1.5326 2.97823 1.83822C2.77836 1.9715 2.59528 2.12838 2.43294 2.30547C0.335133 4.63549 3.32372 9.70895 6.57055 13.2347L58.4131 70.1712C57.4585 73.8549 57.5115 77.7274 58.5665 81.3836L58.5638 81.3829L58.5728 81.4033C58.862 82.4392 59.3325 83.4157 59.9626 84.2873C59.9781 84.3139 59.9911 84.3426 60.0066 84.3691L59.9895 84.5761C59.9676 84.7371 59.955 84.8993 59.9519 85.0618C59.7097 85.2017 59.4785 85.3597 59.2601 85.5345C58.8792 85.5674 58.3631 86.0881 57.9382 87.1559C57.0895 89.0677 56.8527 91.1952 57.2604 93.2468C57.6024 97.2896 58.531 101.261 60.0171 105.037C61.2304 108.602 62.1064 112.273 62.6334 116.002C62.8706 119.376 63.4015 124.045 64.0388 128.829C64.07 129.275 64.099 129.696 64.1229 130.066C64.8991 140.983 67.1232 151.749 70.7366 162.08C73.2074 170.558 76.4619 178.788 80.4578 186.663C80.9977 187.697 81.5719 188.786 82.1675 189.9C82.9044 191.598 83.6186 193.266 84.2757 194.883C87.5507 202.392 92.8447 208.845 99.5686 213.525C103.34 216.986 107.533 219.956 112.049 222.364C122.126 226.819 133.204 228.519 144.153 227.291C150.9 226.654 157.491 224.876 163.643 222.034C166.622 220.604 170.865 218.546 171.101 218.947C171.17 219.065 170.825 219.613 170.734 219.74C168.933 222.335 167.815 225.342 167.483 228.483C167.151 231.624 167.615 234.798 168.833 237.712C170.187 240.885 172.501 243.553 175.45 245.342C179.032 247.342 184.027 247.445 189.622 246.288C193.413 245.305 196.88 243.341 199.671 240.593C200.69 239.711 201.647 238.759 202.534 237.744L202.425 237.685C202.85 237.315 203.233 236.899 203.568 236.445C189.407 229.021 184.846 221.859 184.846 221.859C184.087 220.24 183.725 218.464 183.788 216.677C183.851 214.89 184.338 213.144 185.209 211.583C185.763 210.607 186.392 209.675 187.088 208.794C189.502 205.798 192.236 203.074 195.24 200.67C201.359 195.88 208.835 193.145 216.601 192.856C218.074 192.852 218.912 192.975 219.052 192.605C219.13 192.399 218.98 192.035 218.655 191.568C219.496 191.583 219.982 191.579 220.086 191.305C220.82 189.368 202.441 174.035 188.514 180.142Z" fill="white"/>
  <path d="M67.1956 144.075L67.1984 144.082L67.2266 144.21L67.1956 144.075Z" fill="#31D3DB"/>
  <path d="M71.0283 159.021C69.4405 153.592 68.2007 148.661 67.2266 144.211C68.2297 148.602 70.4874 157.542 73.4542 166.487C72.501 163.792 71.6854 161.268 71.0283 159.021Z" fill="#31D3DB"/>
  <path d="M148.844 163.406C145.924 170.106 135.048 192.506 134.144 198.543C134.044 201.506 134.712 204.445 136.085 207.074C137.778 209.713 140.177 211.823 143.01 213.166C145.844 214.509 148.997 215.03 152.112 214.669C156.137 214.283 167.576 211.926 172.678 205.181C174.679 202.536 175.441 199.187 176.61 194.785C177.248 191.558 178.667 188.536 180.742 185.984C182.817 183.432 185.485 181.426 188.513 180.142C202.44 174.035 220.82 189.368 220.086 191.305C219.946 191.675 219.108 191.553 217.635 191.556C209.869 191.846 202.393 194.581 196.274 199.371C191.955 202.822 188.219 206.945 185.209 211.582C184.338 213.144 183.851 214.89 183.788 216.677C183.725 218.464 184.087 220.24 184.846 221.859C184.846 221.859 189.407 229.021 203.568 236.445C202.681 237.46 201.725 238.412 200.705 239.293C197.914 242.041 194.448 244.006 190.656 244.989C185.061 246.145 180.066 246.042 176.484 244.043C173.535 242.254 171.221 239.586 169.867 236.413C168.649 233.499 168.185 230.325 168.517 227.184C168.849 224.043 169.967 221.036 171.768 218.441C171.86 218.314 172.204 217.766 172.135 217.648C171.899 217.246 167.656 219.305 164.677 220.735C158.525 223.577 151.934 225.355 145.187 225.992C134.238 227.22 123.16 225.52 113.083 221.065C100.2 214.209 92.7237 203.986 87.1625 194.911L67.1983 144.083C64.9188 134.384 63.7293 124.46 63.6519 114.497C63.2429 110.652 62.4892 106.851 61.3998 103.141C59.7212 97.6398 54.1437 88.3724 59.9516 85.0617C59.9919 84.3657 59.9516 85.0617 60.008 84.3529C57.3942 81.0716 57.8254 73.6542 58.9511 70.6631L7.60439 11.9356C4.35775 8.40987 1.36927 3.3364 3.46721 1.00635C5.25788 -0.986479 8.76491 0.0295386 13.5299 3.61854L71.2756 47.4802C71.3851 47.3301 71.521 47.201 71.6766 47.0994C72.0279 46.7784 72.3887 46.4498 72.7467 46.1233C73.4421 45.3385 74.2033 44.6146 75.0221 43.9596C97.9663 27.0395 124.891 33.2571 142.014 50.2976C150.297 58.5402 158.27 74.6436 161.287 88.5408C161.496 89.5027 162.064 92.2074 162.505 95.9365C163.349 103.824 163.133 111.789 161.863 119.619L159.378 128.045C157.841 123.284 154.49 119.32 150.052 117.012C148.581 116.155 146.945 115.62 145.252 115.444C142.791 115.455 140.416 116.352 138.563 117.971C136.71 119.59 135.502 121.823 135.161 124.261C134.652 127.899 135.077 131.607 136.395 135.036C139.23 143.658 143.84 151.589 149.928 158.32C150.064 158.463 150.205 158.604 150.344 158.745L149.181 162.618C149.085 162.849 148.972 163.112 148.844 163.406" fill="#31D3DB"/>
  <path d="M87.7283 196.35C85.4798 192.816 83.4114 189.171 81.531 185.428C83.261 188.268 85.0781 191.509 87.1627 194.91L87.7283 196.35Z" fill="#31D3DB"/>
  <path d="M81.4921 185.363C78.1618 179.368 75.4678 173.042 73.4541 166.486C75.744 172.964 78.4417 179.291 81.5309 185.428L81.4921 185.363Z" fill="#31D3DB"/>
  <path fill-rule="evenodd" clip-rule="evenodd" d="M112.108 220.532C112.108 220.532 81.1761 204.692 98.8577 167.33C101.01 162.783 107.257 149.032 109.38 143.226C114.617 128.898 119.62 91.2529 104.954 95.487C89.9471 99.8194 72.675 101.61 59.603 85.6576C58.6636 84.5111 54.4817 90.0441 60.0171 105.036C62.8532 112.717 63.7987 125.084 64.1233 130.065C65.925 157.71 77.5489 178.33 84.276 194.882C91.6495 213.026 112.108 220.532 112.108 220.532Z" fill="white"/>
  <path d="M171.389 172.017C171.389 172.017 166.65 165.774 165.486 151.453C164.978 145.202 164.705 141.623 164.263 138.803C162.572 128.018 159.064 122.138 152.728 118.874C151.257 118.016 149.621 117.482 147.928 117.306C145.467 117.316 143.092 118.213 141.239 119.833C139.386 121.452 138.178 123.685 137.837 126.122C137.328 129.761 137.753 133.468 139.071 136.898C141.836 145.254 146.606 152.805 152.963 158.893C158.433 164.141 164.641 168.562 171.389 172.017Z" fill="#31D3DB"/>
  <path d="M93.4165 98.5709C86.4198 99.0835 79.3951 98.0747 72.8255 95.6138C69.4842 94.4763 66.4204 92.6468 63.8342 90.2448C61.2479 87.8429 59.1973 84.9225 57.8162 81.6742C57.7774 81.5759 57.7585 81.4709 57.7604 81.3652C57.7623 81.2595 57.7851 81.1553 57.8274 81.0584C57.8698 80.9616 57.9308 80.874 58.007 80.8008C58.0833 80.7276 58.1732 80.6702 58.2717 80.6319C58.3702 80.5935 58.4753 80.575 58.581 80.5773C58.6866 80.5797 58.7908 80.6029 58.8875 80.6456C58.9841 80.6884 59.0714 80.7498 59.1443 80.8263C59.2172 80.9028 59.2743 80.993 59.3122 81.0916C60.6163 84.13 62.5458 86.8595 64.9751 89.1024C67.4044 91.3454 70.2789 93.0514 73.4114 94.1094C84.7665 98.6116 98.1371 97.4978 104.952 94.1638C105.047 94.1174 105.15 94.0902 105.255 94.0839C105.361 94.0776 105.466 94.0922 105.566 94.1271C105.666 94.1619 105.758 94.2162 105.836 94.2867C105.915 94.3573 105.979 94.4428 106.024 94.5382C106.117 94.7306 106.131 94.9522 106.061 95.1545C105.992 95.3568 105.845 95.5234 105.654 95.618C101.795 97.36 97.6445 98.3617 93.4165 98.5709Z" fill="#383C42"/>
  <path d="M169.311 174.417C169.451 174.409 169.588 174.372 169.713 174.307C169.838 174.242 169.947 174.152 170.034 174.042C170.571 173.354 169.942 172.518 169.436 171.845C165.188 166.178 164.982 157.528 164.904 154.272C164.892 153.766 164.882 153.38 164.863 153.141C164.768 151.925 164.737 150.705 164.77 149.487C164.79 147.898 164.814 145.922 164.59 141.871L164.54 140.898C164.471 139.506 164.394 137.928 164.261 137.13C163.321 130.365 160.145 124.109 155.238 119.358C155.157 119.291 155.063 119.241 154.962 119.21C154.861 119.18 154.755 119.169 154.65 119.18C154.545 119.19 154.443 119.222 154.35 119.272C154.257 119.322 154.175 119.39 154.109 119.471C153.974 119.638 153.911 119.851 153.932 120.064C153.953 120.277 154.058 120.473 154.223 120.609C158.835 125.105 161.811 131.014 162.679 137.397C162.796 138.1 162.875 139.695 162.938 140.976L162.988 141.96C163.209 145.955 163.185 147.901 163.166 149.465C163.132 150.734 163.165 152.004 163.264 153.269C163.281 153.489 163.289 153.844 163.3 154.308C163.379 157.6 163.583 166.171 167.78 172.292C162.673 169.578 157.91 166.261 153.592 162.413C148.67 158.027 140.431 150.686 137.342 138.282C135.572 131.174 135.579 127.983 136.231 124.262C136.25 124.158 136.248 124.051 136.226 123.948C136.204 123.844 136.162 123.746 136.102 123.659C136.041 123.572 135.965 123.498 135.876 123.441C135.787 123.383 135.687 123.344 135.583 123.326C135.479 123.307 135.372 123.309 135.269 123.332C135.165 123.355 135.068 123.398 134.981 123.458C134.894 123.519 134.821 123.596 134.764 123.686C134.707 123.775 134.669 123.874 134.651 123.979C133.959 127.926 133.945 131.282 135.785 138.674C138.996 151.564 147.468 159.113 152.531 163.625C158.853 169.257 167.449 174.549 169.295 174.418L169.311 174.417ZM168.658 173.549L168.647 173.549L168.658 173.549Z" fill="#383C42"/>
  <path fill-rule="evenodd" clip-rule="evenodd" d="M67.8849 54.623L8.02722 5.55862C6.52098 4.1913 4.67211 3.25809 2.67749 2.85835C3.82603 1.99207 6.36569 3.08205 8.40563 4.42618L70.8233 52.102C71.9006 55.5879 68.2183 61.8122 64.3507 62.883C66.0819 60.4927 68.2104 57.3847 68.163 54.7655" fill="white"/>
  <path fill-rule="evenodd" clip-rule="evenodd" d="M133.442 51.8219C133.123 51.702 132.779 51.6597 132.44 51.6986C132.101 51.7375 131.777 51.8564 131.493 52.0456C131.209 52.2347 130.974 52.4887 130.808 52.7865C130.641 53.0843 130.548 53.4174 130.535 53.7583C130.461 54.5203 130.641 55.2856 131.048 55.9343C131.455 56.583 132.065 57.0786 132.783 57.3436C133.103 57.4566 133.444 57.4937 133.781 57.4519C134.117 57.4101 134.439 57.2905 134.721 57.1026C135.003 56.9148 135.238 56.6638 135.406 56.3696C135.575 56.0754 135.672 55.746 135.691 55.4076C135.766 54.6453 135.585 53.8799 135.178 53.2311C134.771 52.5823 134.161 52.0867 133.442 51.8219" fill="#21AAAD"/>
  <path fill-rule="evenodd" clip-rule="evenodd" d="M117.948 49.381C117.667 49.3276 117.378 49.3404 117.103 49.4185C116.828 49.4966 116.575 49.6377 116.364 49.8306C116.153 50.0236 115.99 50.2631 115.888 50.53C115.786 50.797 115.748 51.0841 115.776 51.3685C115.821 52.0054 116.072 52.6103 116.492 53.0913C116.912 53.5723 117.478 53.9031 118.103 54.0337C118.383 54.0872 118.673 54.0744 118.948 53.9965C119.223 53.9185 119.476 53.7775 119.687 53.5846C119.898 53.3917 120.061 53.1522 120.163 52.8852C120.266 52.6182 120.304 52.3311 120.276 52.0466C120.231 51.4094 119.979 50.8044 119.559 50.3234C119.139 49.8423 118.573 49.5114 117.948 49.381Z" fill="#21AAAD"/>
  <path fill-rule="evenodd" clip-rule="evenodd" d="M156.468 95.4323C156.084 95.0995 155.627 94.8619 155.134 94.7389C154.641 94.6158 154.126 94.6106 153.631 94.7239C153.136 94.8371 152.674 95.0655 152.284 95.3905C151.893 95.7156 151.585 96.1281 151.384 96.5947C150.864 97.6191 150.707 98.789 150.937 99.9142C151.167 101.039 151.771 102.054 152.651 102.792C153.03 103.118 153.481 103.351 153.967 103.472C154.453 103.592 154.961 103.597 155.449 103.486C155.937 103.375 156.393 103.151 156.779 102.832C157.165 102.513 157.47 102.107 157.671 101.649C158.185 100.625 158.345 99.4602 158.128 98.3357C157.91 97.2113 157.327 96.1904 156.468 95.4323Z" fill="#21AAAD"/>
  <path fill-rule="evenodd" clip-rule="evenodd" d="M151.811 76.1554C151.474 75.8631 151.072 75.6544 150.639 75.546C150.206 75.4377 149.753 75.4327 149.317 75.5317C148.882 75.6306 148.476 75.8306 148.132 76.1155C147.788 76.4004 147.516 76.7622 147.338 77.1717C146.89 78.0852 146.756 79.1206 146.955 80.1182C147.154 81.1157 147.677 82.0199 148.441 82.6912C148.779 82.9836 149.18 83.1924 149.613 83.3009C150.046 83.4094 150.499 83.4145 150.935 83.3158C151.37 83.2171 151.776 83.0174 152.12 82.7328C152.464 82.4481 152.737 82.0866 152.915 81.6773C153.356 80.7618 153.486 79.7278 153.287 78.7317C153.088 77.7356 152.57 76.8313 151.811 76.1554Z" fill="#21AAAD"/>
  <path fill-rule="evenodd" clip-rule="evenodd" d="M147.327 84.1622C147.072 83.9478 146.771 83.7959 146.447 83.7186C146.123 83.6413 145.785 83.6407 145.461 83.7168C145.136 83.7929 144.834 83.9437 144.579 84.1571C144.323 84.3706 144.12 84.6408 143.987 84.9463C143.652 85.6163 143.553 86.3798 143.706 87.1133C143.858 87.8467 144.254 88.5072 144.829 88.9878C145.078 89.2059 145.375 89.3623 145.696 89.444C146.017 89.5258 146.353 89.5307 146.676 89.4584C146.999 89.3861 147.301 89.2386 147.556 89.0279C147.812 88.8171 148.014 88.5491 148.146 88.2455C148.47 87.5678 148.564 86.8037 148.417 86.0675C148.269 85.3314 147.887 84.6629 147.327 84.1622Z" fill="#21AAAD"/>
  <path fill-rule="evenodd" clip-rule="evenodd" d="M157.267 109.278C157.007 109.051 156.698 108.889 156.364 108.804C156.03 108.72 155.681 108.715 155.345 108.791C155.009 108.867 154.696 109.021 154.431 109.241C154.166 109.461 153.956 109.741 153.82 110.057C153.467 110.758 153.357 111.556 153.509 112.326C153.66 113.096 154.064 113.793 154.655 114.308C154.918 114.533 155.229 114.694 155.564 114.778C155.899 114.863 156.249 114.869 156.586 114.796C156.924 114.722 157.24 114.572 157.51 114.356C157.78 114.141 157.996 113.865 158.142 113.552C158.495 112.845 158.601 112.039 158.442 111.264C158.283 110.489 157.87 109.79 157.267 109.278Z" fill="#21AAAD"/>
  <path opacity="0.6" fill-rule="evenodd" clip-rule="evenodd" d="M144.428 162.465C144.359 162.226 144.233 162.007 144.063 161.825C143.892 161.643 143.681 161.505 143.447 161.42C143.212 161.335 142.961 161.307 142.714 161.337C142.467 161.367 142.23 161.456 142.023 161.595C141.537 161.887 141.163 162.332 140.959 162.861C140.755 163.39 140.734 163.972 140.899 164.514C140.971 164.753 141.098 164.973 141.27 165.155C141.441 165.337 141.652 165.477 141.886 165.564C142.12 165.651 142.371 165.683 142.62 165.657C142.869 165.631 143.108 165.548 143.319 165.415C143.808 165.118 144.183 164.667 144.384 164.132C144.585 163.597 144.601 163.01 144.428 162.465" fill="#21AAAD"/>
  <path fill-rule="evenodd" clip-rule="evenodd" d="M10.7265 4.8252L12.4378 6.13356C11.6682 8.3247 10.1649 10.1825 8.18262 11.3924C9.47358 9.40178 10.3396 7.16603 10.7265 4.8252ZM25.6926 16.0337L27.6746 17.5331C27.3251 20.2988 24.7237 24.1405 22.3922 24.4016C24.3079 22.0071 25.4579 19.0912 25.6926 16.0337ZM41.2372 27.7317L43.8032 29.6686C42.8585 33.8054 38.7117 38.3245 36.9574 38.3683C39.2749 35.2498 40.7489 31.5863 41.2372 27.7317ZM56.9625 39.5547L59.8912 41.7472C58.9747 46.3907 54.3443 51.4941 51.4712 52.0269C54.5218 48.5212 56.4367 44.1721 56.9626 39.5547L56.9625 39.5547Z" fill="#21AAAD"/>
  <path d="M184.933 247.772C181.545 248.169 178.115 247.57 175.062 246.048C171.939 244.204 169.498 241.397 168.104 238.048C166.892 235.183 166.383 232.07 166.621 228.969C166.858 225.867 167.835 222.868 169.469 220.221C167.957 220.857 165.72 221.931 164.309 222.61L163.989 222.763C157.757 225.637 151.084 227.439 144.251 228.093C133.139 229.355 121.892 227.623 111.675 223.078C93.5295 213.422 85.2362 197.545 79.7483 187.038C73.0935 173.682 68.364 159.451 65.7006 144.769C64.277 137.152 62.3141 123.167 61.8174 115.85C61.3498 112.077 60.6084 108.342 59.5992 104.676C59.3834 103.97 59.1208 103.181 58.8385 102.333C56.9266 96.5891 54.0599 87.9762 59.1793 84.5884C56.5871 80.9758 56.5378 73.6481 57.5024 70.3659L5.97945 13.7801C2.49155 9.99173 -0.688686 4.56823 1.83872 1.76126C3.92992 -0.565926 7.67709 0.279052 12.9755 4.26985L70.185 47.7242L71.4298 46.5505C72.0656 45.842 72.7629 45.1912 73.5135 44.6058C97.9481 26.5865 125.288 34.8438 141.544 51.0211C149.75 59.1883 157.948 75.4412 161.036 89.6675C161.535 91.9648 161.961 94.5485 162.268 97.1401C163.118 105.103 162.9 113.144 161.62 121.049L160.992 123.2C160.963 123.302 160.914 123.396 160.847 123.479C160.781 123.561 160.699 123.629 160.607 123.68C160.514 123.73 160.412 123.762 160.307 123.773C160.202 123.784 160.096 123.774 159.995 123.744C159.79 123.682 159.619 123.541 159.517 123.353C159.416 123.164 159.393 122.943 159.454 122.738L160.059 120.686C161.299 112.962 161.506 105.108 160.675 97.3296C160.373 94.7893 159.956 92.2583 159.469 90.0113C156.44 76.0569 148.427 60.1423 140.417 52.1706C124.645 36.4757 98.1343 28.4532 74.4621 45.9106C73.7878 46.4408 73.1613 47.0291 72.5899 47.6688L71.9336 48.3108L71.1816 48.9971C71.1466 49.0287 71.1091 49.0573 71.0693 49.0825C71.001 49.129 70.941 49.1866 70.8918 49.2529C70.8296 49.3398 70.7506 49.4133 70.6595 49.4691C70.5685 49.5249 70.4671 49.5619 70.3615 49.5779C70.2559 49.5938 70.1481 49.5885 70.0446 49.5621C69.9411 49.5357 69.8439 49.4888 69.7588 49.4242L12.0134 5.56288C9.46968 3.64631 4.91459 0.745291 3.02797 2.84803C1.42875 4.62396 3.89523 9.14078 7.15806 12.6843L59.0035 69.6248C59.1042 69.7355 59.1724 69.872 59.2006 70.0191C59.2287 70.1661 59.2156 70.3181 59.1628 70.4582C58.0514 73.4116 58.2789 80.8907 60.6337 83.8463C60.7621 84.0079 60.8243 84.2123 60.8076 84.4181C60.7964 84.5634 60.7861 84.6855 60.7705 84.7911H60.771L60.7523 85.109C60.7447 85.2434 60.7037 85.3737 60.633 85.4883C60.5623 85.6028 60.4641 85.6979 60.3473 85.7649C55.8659 88.3194 58.5704 96.4441 60.36 101.821C60.6464 102.682 60.9136 103.485 61.1323 104.203C62.1782 107.987 62.9422 111.844 63.4182 115.741C63.9111 123.003 65.8623 136.899 67.2776 144.472C69.9104 158.996 74.5868 173.074 81.1675 186.286C86.5633 196.616 94.7173 212.227 112.423 221.648C122.359 226.013 133.269 227.682 144.056 226.488C150.715 225.853 157.22 224.1 163.297 221.303L163.617 221.15C170.673 217.758 171.272 217.651 171.792 218.536C171.89 218.704 172.154 219.153 171.381 220.217C169.673 222.699 168.612 225.569 168.294 228.565C167.976 231.562 168.412 234.59 169.562 237.375C170.815 240.41 173.017 242.957 175.839 244.635C179.028 246.415 183.612 246.706 189.459 245.495C193.098 244.536 196.425 242.647 199.112 240.012C199.35 239.779 199.668 239.485 200.008 239.172C200.35 238.856 200.866 238.38 201.265 237.983C187.779 230.72 183.324 223.887 183.138 223.593C182.301 221.852 181.894 219.936 181.952 218.005C182.009 216.074 182.529 214.186 183.468 212.498C186.53 207.751 190.345 203.536 194.764 200.018C200.989 195.069 208.65 192.272 216.598 192.047C216.934 192.046 217.238 192.051 217.508 192.056C217.686 192.06 217.874 192.063 218.044 192.063C215.278 188.944 211.919 186.407 208.162 184.6C203.752 182.296 195.243 178.918 187.8 182.181C184.883 183.417 182.313 185.349 180.316 187.81C178.32 190.27 176.958 193.183 176.351 196.293L176.066 197.373C175.443 200.788 174.158 204.048 172.283 206.97C167.266 213.602 156.268 216.281 151.154 216.772C148.742 217.184 146.268 217.043 143.919 216.359C141.569 215.675 139.406 214.466 137.592 212.824C135.778 211.181 134.36 209.149 133.447 206.879C132.533 204.609 132.147 202.161 132.317 199.72C133.03 194.953 139.652 180.578 144.033 171.066C145.587 167.692 146.815 165.027 147.407 163.603L147.766 162.369C147.795 162.267 147.845 162.173 147.911 162.09C147.977 162.008 148.059 161.94 148.151 161.889C148.244 161.839 148.346 161.807 148.451 161.796C148.556 161.785 148.662 161.795 148.764 161.825C148.968 161.888 149.14 162.028 149.241 162.217C149.342 162.405 149.365 162.626 149.304 162.831L148.916 164.148C148.283 165.682 147.05 168.359 145.489 171.749C141.146 181.177 134.583 195.425 133.904 199.962C133.833 202.732 134.461 205.476 135.728 207.94C137.344 210.451 139.632 212.459 142.331 213.735C145.031 215.012 148.034 215.506 151.001 215.162C155.873 214.695 166.326 212.177 171.006 205.989C172.741 203.23 173.932 200.164 174.514 196.958L174.801 195.874C175.481 192.534 176.961 189.409 179.113 186.766C181.265 184.123 184.026 182.042 187.159 180.699C199.282 175.383 213.667 185.411 217.751 189.343C219.956 191.466 220.005 192.355 219.802 192.893C219.493 193.709 218.65 193.694 217.48 193.673C217.22 193.668 216.928 193.662 216.604 193.663C208.997 193.894 201.669 196.581 195.715 201.321C191.49 204.7 187.833 208.732 184.881 213.264C184.069 214.711 183.613 216.33 183.552 217.988C183.491 219.646 183.827 221.295 184.531 222.797C184.536 222.796 189.149 229.816 202.904 237.027C202.999 237.077 203.084 237.146 203.152 237.23C203.221 237.314 203.272 237.41 203.303 237.514C203.333 237.617 203.343 237.726 203.331 237.834C203.32 237.941 203.286 238.045 203.234 238.14C202.61 238.963 201.891 239.71 201.092 240.364C200.765 240.666 200.459 240.948 200.231 241.172C197.335 244.034 193.729 246.074 189.784 247.079C188.184 247.417 186.563 247.649 184.933 247.772Z" fill="#383C42"/>
  <path d="M94.425 80.1898C94.4501 80.2283 94.4704 80.2698 94.4855 80.3132C94.505 80.4039 94.5193 80.4956 94.5286 80.5878C94.6351 81.6288 94.8763 82.6516 95.2463 83.6305C95.8805 85.3849 96.8993 86.9752 98.2279 88.2849C99.5565 89.5945 101.161 90.5903 102.925 91.1992C105.609 92.1989 108.56 92.217 111.256 91.2501C113.088 90.6558 114.756 89.6421 116.128 88.2897C117.499 86.9373 118.536 85.2836 119.156 83.46C120.201 80.664 120.18 77.5809 119.097 74.7993C118.462 73.0193 117.428 71.4079 116.076 70.0882C114.723 68.7685 113.086 67.7753 111.291 67.1845C108.602 66.2582 105.68 66.2642 102.994 67.2015C100.309 68.1389 98.0175 69.953 96.4891 72.3515C96.1216 72.9419 95.8143 73.5697 95.4738 74.1771C95.3982 74.2954 95.316 74.4092 95.2276 74.5181C94.5436 74.0964 93.7465 73.8953 92.9444 73.9422C92.127 74.0284 91.3723 74.4201 90.8314 75.0389C90.4137 75.527 90.1519 76.1292 90.0797 76.7675C90.0075 77.4059 90.1283 78.0513 90.4264 78.6204C90.7152 79.182 91.1674 79.643 91.7234 79.9424C92.559 80.3681 93.5261 80.4566 94.425 80.1898Z" fill="#31D3DB"/>
  <path d="M94.425 80.1899C93.526 80.4567 92.559 80.3681 91.7234 79.9424C91.1674 79.643 90.7152 79.1821 90.4264 78.6204C90.1283 78.0513 90.0075 77.4059 90.0797 76.7675C90.1519 76.1292 90.4137 75.5271 90.8314 75.0389C91.3723 74.4201 92.127 74.0284 92.9444 73.9422C93.7465 73.8953 94.5436 74.0964 95.2276 74.5181C95.316 74.4092 95.3982 74.2954 95.4738 74.1771C95.8142 73.5697 96.1216 72.9419 96.4891 72.3515C98.0176 69.953 100.309 68.1389 102.994 67.2015C105.68 66.2642 108.602 66.2582 111.291 67.1845C113.086 67.7753 114.723 68.7685 116.076 70.0882C117.428 71.4079 118.462 73.0193 119.097 74.7993C120.18 77.5809 120.201 80.664 119.156 83.46C118.536 85.2836 117.499 86.9373 116.128 88.2897C114.756 89.6421 113.088 90.6558 111.256 91.2502C108.56 92.217 105.609 92.199 102.925 91.1993C101.161 90.5904 99.5566 89.5946 98.2279 88.285C96.8993 86.9753 95.8806 85.385 95.2463 83.6306C94.8764 82.6517 94.6351 81.629 94.5286 80.588C94.5194 80.4957 94.505 80.404 94.4856 80.3133C94.4705 80.2699 94.4501 80.2284 94.425 80.1899Z" fill="#394046"/>
  <path d="M101.505 88.9115C103.424 90.0318 105.631 90.5581 107.849 90.4241C110.067 90.29 112.195 89.5015 113.965 88.1582C115.735 86.8149 117.067 84.9771 117.793 82.8771C118.518 80.7771 118.605 78.509 118.042 76.3596C117.479 74.2102 116.292 72.2759 114.63 70.8012C112.968 69.3264 110.907 68.3774 108.705 68.074C106.504 67.7706 104.263 68.1265 102.264 69.0968C100.265 70.067 98.5986 71.608 97.4752 73.5249C95.9705 76.1 95.5498 79.1671 96.3053 82.0522C97.0609 84.9374 98.931 87.4045 101.505 88.9115Z" fill="#394046"/>
  <path d="M101.505 88.9114C99.5846 87.7877 98.0412 86.1193 97.0701 84.1176C96.0991 82.1159 95.744 79.8711 96.0498 77.6674C96.3557 75.4637 97.3088 73.4005 98.7884 71.739C100.268 70.0775 102.207 68.8925 104.361 68.3342C106.515 67.7759 108.785 67.8694 110.886 68.6029C112.986 69.3363 114.822 70.6767 116.16 72.4542C117.498 74.2317 118.278 76.3664 118.402 78.5877C118.525 80.8091 117.987 83.0172 116.854 84.9322C116.11 86.2032 115.121 87.3147 113.946 88.2029C112.771 89.0912 111.432 89.7387 110.006 90.1084C108.58 90.478 107.095 90.5626 105.636 90.3572C104.177 90.1518 102.773 89.6605 101.505 88.9114Z" fill="#70DCE1"/>
  <path d="M91.3575 77.4308C91.2655 77.0271 91.3117 76.6042 91.4888 76.23C91.6659 75.8558 91.9636 75.5519 92.3341 75.3671C92.7503 75.1512 93.2298 75.0906 93.6866 75.1962C94.1434 75.3017 94.5477 75.5666 94.8269 75.9433C94.828 76.0268 94.8243 76.1102 94.8157 76.1933C94.7067 76.9234 94.5901 77.6526 94.4846 78.3832C94.4289 78.7684 94.4368 78.7696 93.9976 78.8933C94.0204 77.8491 93.9318 77.8472 93.7543 77.5827C93.6138 77.3716 93.4267 77.1956 93.2074 77.0683C92.6693 76.7705 92.1197 76.8965 91.3575 77.4308Z" fill="#32D2DA"/>
  <path fill-rule="evenodd" clip-rule="evenodd" d="M106.559 77.6618C106.131 77.4204 105.66 77.266 105.172 77.2073C104.684 77.1487 104.19 77.187 103.717 77.3201C103.244 77.4531 102.802 77.6784 102.416 77.9828C102.031 78.2872 101.709 78.6648 101.47 79.0939C100.998 79.9611 100.883 80.9783 101.15 81.9289C101.417 82.8795 102.044 83.6886 102.898 84.184C103.323 84.4251 103.791 84.5793 104.276 84.6378C104.761 84.6962 105.253 84.6577 105.723 84.5245C106.193 84.3913 106.631 84.1661 107.014 83.8619C107.396 83.5577 107.714 83.1806 107.949 82.7525C108.436 81.8922 108.563 80.8743 108.303 79.9206C108.042 78.967 107.415 78.155 106.559 77.6617" fill="#383C42"/>
</svg>
