<?xml version="1.0" encoding="UTF-8" standalone="no"?>
<!--

    Copyright (C) 2017-2019 Dremio Corporation

    Licensed under the Apache License, Version 2.0 (the "License");
    you may not use this file except in compliance with the License.
    You may obtain a copy of the License at

        http://www.apache.org/licenses/LICENSE-2.0

    Unless required by applicable law or agreed to in writing, software
    distributed under the License is distributed on an "AS IS" BASIS,
    WITHOUT WARRANTIES OR CONDITIONS OF ANY KIND, either express or implied.
    See the License for the specific language governing permissions and
    limitations under the License.

-->
<svg width="20" height="20" viewBox="0 0 20 20" fill="none"
    xmlns="http://www.w3.org/2000/svg">
    <path d="M16.4583 1.66797C16.9556 1.66797 17.4325 1.86551 17.7841 2.21714C18.1357 2.56877 18.3333 3.04569 18.3333 3.54297V8.09464C18.3332 8.81291 18.0479 9.50176 17.54 10.0096L10.4566 17.0955C9.94826 17.6027 9.2595 17.8876 8.54138 17.8878C7.82326 17.8879 7.13438 17.6033 6.62579 17.0963L2.90746 13.3846C2.39927 12.8771 2.11351 12.1884 2.11304 11.4702C2.11257 10.7519 2.39743 10.0629 2.90496 9.55464L9.98829 2.46297C10.2396 2.21117 10.5381 2.01136 10.8667 1.87495C11.1953 1.73854 11.5475 1.66821 11.9033 1.66797H16.4575H16.4583ZM16.4583 2.91797H11.9041C11.5166 2.91797 11.1458 3.07214 10.8716 3.34547L3.77829 10.448C3.50973 10.7227 3.36039 11.0922 3.36273 11.4764C3.36507 11.8605 3.5189 12.2282 3.79079 12.4996L7.50829 16.2113C7.7824 16.4843 8.15351 16.6376 8.54038 16.6376C8.92725 16.6376 9.29836 16.4843 9.57246 16.2113L16.6558 9.12547C16.9293 8.85213 17.0831 8.48134 17.0833 8.09464V3.54297C17.0833 3.37721 17.0174 3.21824 16.9002 3.10103C16.783 2.98382 16.6241 2.91797 16.4583 2.91797ZM14.1666 4.5863C14.3308 4.5863 14.4933 4.61863 14.645 4.68145C14.7966 4.74427 14.9344 4.83635 15.0505 4.95242C15.1666 5.06849 15.2587 5.20629 15.3215 5.35795C15.3843 5.5096 15.4166 5.67215 15.4166 5.8363C15.4166 6.00045 15.3843 6.163 15.3215 6.31466C15.2587 6.46631 15.1666 6.60411 15.0505 6.72019C14.9344 6.83626 14.7966 6.92833 14.645 6.99115C14.4933 7.05397 14.3308 7.0863 14.1666 7.0863C13.8351 7.0863 13.5172 6.95461 13.2827 6.72019C13.0483 6.48577 12.9166 6.16782 12.9166 5.8363C12.9166 5.50478 13.0483 5.18684 13.2827 4.95242C13.5172 4.718 13.8351 4.5863 14.1666 4.5863Z" fill="currentColor"/>
</svg>
