<?xml version="1.0" encoding="UTF-8" standalone="no"?>
<!--

    Copyright (C) 2017-2019 Dremio Corporation

    Licensed under the Apache License, Version 2.0 (the "License");
    you may not use this file except in compliance with the License.
    You may obtain a copy of the License at

        http://www.apache.org/licenses/LICENSE-2.0

    Unless required by applicable law or agreed to in writing, software
    distributed under the License is distributed on an "AS IS" BASIS,
    WITHOUT WARRANTIES OR CONDITIONS OF ANY KIND, either express or implied.
    See the License for the specific language governing permissions and
    limitations under the License.

-->
<svg width="8" height="11" viewBox="0 0 8 11" fill="none" xmlns="http://www.w3.org/2000/svg">
<path d="M4.07968 10.7744L3.97968 10.7814C3.79827 10.7816 3.62292 10.7161 3.48612 10.5969C3.34933 10.4778 3.26035 10.3131 3.23568 10.1334L3.22868 10.0314L3.22968 2.77737L1.72772 4.28037C1.60073 4.40739 1.43236 4.48462 1.25325 4.49801C1.07414 4.51141 0.89617 4.46009 0.7517 4.35337L0.667698 4.28137C0.540419 4.15433 0.463027 3.98577 0.449627 3.80644C0.436228 3.6271 0.487712 3.44892 0.594698 3.30437L0.666699 3.22037L3.44568 0.438372C3.57267 0.311354 3.74102 0.234127 3.92013 0.220731C4.09924 0.207335 4.27721 0.258657 4.42168 0.365372L4.50568 0.438372L7.33513 3.26362C7.46809 3.39762 7.54563 3.57683 7.55227 3.76548C7.55891 3.95413 7.49417 4.13835 7.37097 4.28137C7.24777 4.42439 7.07517 4.51569 6.88761 4.53706C6.70005 4.55842 6.51134 4.50827 6.35913 4.39662L6.27513 4.32462L4.72968 2.78137L4.72968 10.0314C4.72961 10.2129 4.66369 10.3883 4.54416 10.5249C4.42463 10.6615 4.2596 10.7502 4.07968 10.7744Z" fill="#505862"/>
</svg>
