<?xml version="1.0" encoding="UTF-8" standalone="no"?>
<!--

    Copyright (C) 2017-2019 Dremio Corporation

    Licensed under the Apache License, Version 2.0 (the "License");
    you may not use this file except in compliance with the License.
    You may obtain a copy of the License at

        http://www.apache.org/licenses/LICENSE-2.0

    Unless required by applicable law or agreed to in writing, software
    distributed under the License is distributed on an "AS IS" BASIS,
    WITHOUT WARRANTIES OR CONDITIONS OF ANY KIND, either express or implied.
    See the License for the specific language governing permissions and
    limitations under the License.

-->
<svg width="24" height="24" viewBox="0 0 24 24" fill="none" xmlns="http://www.w3.org/2000/svg">
<path fill-rule="evenodd" clip-rule="evenodd" d="M3 5.25C3 3.45507 4.45507 2 6.25 2H15.75C17.5449 2 19 3.45507 19 5.25V9.60002L14 9.6001H4.5V14.2H10V15.7H4.5V18.75C4.5 19.7165 5.2835 20.5 6.25 20.5H10.0795C10.2516 21.0426 10.6914 21.5496 11.2819 22H6.25C4.45507 22 3 20.5449 3 18.75V5.25ZM6.25 3.5C5.2835 3.5 4.5 4.2835 4.5 5.25V8.1001H17.5V5.25C17.5 4.2835 16.7165 3.5 15.75 3.5H6.25ZM6.75 6.5C7.16421 6.5 7.5 6.16421 7.5 5.75C7.5 5.33579 7.16421 5 6.75 5C6.33579 5 6 5.33579 6 5.75C6 6.16421 6.33579 6.5 6.75 6.5ZM7.5 11.75C7.5 12.1642 7.16421 12.5 6.75 12.5C6.33579 12.5 6 12.1642 6 11.75C6 11.3358 6.33579 11 6.75 11C7.16421 11 7.5 11.3358 7.5 11.75ZM6.75 18.5C7.16421 18.5 7.5 18.1642 7.5 17.75C7.5 17.3358 7.16421 17 6.75 17C6.33579 17 6 17.3358 6 17.75C6 18.1642 6.33579 18.5 6.75 18.5Z" fill="#505862"/>
<path d="M18.9216 17.75C18.3536 17.7513 17.8073 17.9688 17.3939 18.3583L15.7192 17.3068C15.7606 17.1044 15.7606 16.8957 15.7192 16.6933L18.7222 14.8918C19.101 15.241 19.5884 15.4493 20.1026 15.4814C20.6168 15.5135 21.1264 15.3676 21.5457 15.0682C21.965 14.7687 22.2684 14.3341 22.4048 13.8373C22.5413 13.3405 22.5026 12.8118 22.2951 12.3402C22.0876 11.8686 21.7241 11.4829 21.2656 11.2478C20.8072 11.0127 20.2818 10.9426 19.7777 11.0494C19.2737 11.1562 18.8218 11.4332 18.4981 11.834C18.1743 12.2348 17.9984 12.7348 18 13.25C18.0032 13.3531 18.0138 13.4559 18.0315 13.5575L15.0285 15.3583C14.7083 15.0581 14.3074 14.8581 13.8751 14.7829C13.4427 14.7077 12.9978 14.7606 12.5951 14.935C12.1924 15.1095 11.8496 15.3979 11.6087 15.7647C11.3678 16.1315 11.2395 16.5608 11.2395 16.9996C11.2395 17.4385 11.3678 17.8678 11.6087 18.2346C11.8496 18.6014 12.1924 18.8898 12.5951 19.0642C12.9978 19.2387 13.4427 19.2916 13.8751 19.2164C14.3074 19.1412 14.7083 18.9412 15.0285 18.641L16.7024 19.6933C16.6849 19.7947 16.6747 19.8972 16.6716 20C16.6716 20.445 16.8036 20.88 17.0508 21.2501C17.298 21.6201 17.6494 21.9085 18.0606 22.0788C18.4717 22.2491 18.9241 22.2936 19.3606 22.2068C19.797 22.12 20.1979 21.9057 20.5126 21.591C20.8273 21.2763 21.0416 20.8754 21.1284 20.439C21.2152 20.0025 21.1706 19.5501 21.0003 19.139C20.83 18.7279 20.5416 18.3765 20.1716 18.1292C19.8016 17.882 19.3666 17.75 18.9216 17.75ZM20.25 12.5C20.3983 12.5 20.5433 12.544 20.6666 12.6264C20.79 12.7088 20.8861 12.826 20.9429 12.963C20.9996 13.1001 21.0145 13.2509 20.9855 13.3963C20.9566 13.5418 20.8852 13.6755 20.7803 13.7804C20.6754 13.8852 20.5418 13.9567 20.3963 13.9856C20.2508 14.0146 20.1 13.9997 19.9629 13.9429C19.8259 13.8862 19.7088 13.79 19.6264 13.6667C19.5439 13.5434 19.5 13.3984 19.5 13.25C19.5 13.0511 19.579 12.8603 19.7196 12.7197C19.8603 12.579 20.051 12.5 20.25 12.5ZM13.5 17.75C13.3516 17.75 13.2066 17.706 13.0833 17.6236C12.9599 17.5412 12.8638 17.4241 12.807 17.287C12.7503 17.15 12.7354 16.9992 12.7644 16.8537C12.7933 16.7082 12.8647 16.5746 12.9696 16.4697C13.0745 16.3648 13.2082 16.2934 13.3536 16.2644C13.4991 16.2355 13.6499 16.2503 13.787 16.3071C13.924 16.3639 14.0412 16.46 14.1236 16.5833C14.206 16.7067 14.25 16.8517 14.25 17C14.25 17.1989 14.1709 17.3897 14.0303 17.5304C13.8896 17.671 13.6989 17.75 13.5 17.75ZM18.9216 20.75C18.7733 20.75 18.6283 20.706 18.5049 20.6236C18.3816 20.5412 18.2855 20.4241 18.2287 20.287C18.1719 20.15 18.1571 19.9992 18.186 19.8537C18.215 19.7082 18.2864 19.5746 18.3913 19.4697C18.4962 19.3648 18.6298 19.2934 18.7753 19.2644C18.9208 19.2355 19.0716 19.2503 19.2086 19.3071C19.3457 19.3639 19.4628 19.46 19.5452 19.5833C19.6276 19.7067 19.6716 19.8517 19.6716 20C19.6716 20.1989 19.5926 20.3897 19.4519 20.5304C19.3113 20.671 19.1205 20.75 18.9216 20.75Z" fill="#505862"/>
</svg>
