<?xml version="1.0" encoding="UTF-8"?>
<!--

    Copyright (C) 2017-2019 Dremio Corporation

    Licensed under the Apache License, Version 2.0 (the "License");
    you may not use this file except in compliance with the License.
    You may obtain a copy of the License at

        http://www.apache.org/licenses/LICENSE-2.0

    Unless required by applicable law or agreed to in writing, software
    distributed under the License is distributed on an "AS IS" BASIS,
    WITHOUT WARRANTIES OR CONDITIONS OF ANY KIND, either express or implied.
    See the License for the specific language governing permissions and
    limitations under the License.

-->
<svg width="16" height="16" viewBox="0 0 16 16" fill="none" xmlns="http://www.w3.org/2000/svg">
<path d="M7.29289 3.12132C6.90237 2.7308 6.90237 2.09763 7.29289 1.70711L8.70711 0.292893C9.09763 -0.0976311 9.7308 -0.0976311 10.1213 0.292893L11.5355 1.70711C11.9261 2.09763 11.9261 2.7308 11.5355 3.12132L10.1213 4.53553C9.7308 4.92606 9.09763 4.92606 8.70711 4.53553L7.29289 3.12132Z" fill="#505862"/>
<path d="M1 2C0.447715 2 0 2.44772 0 3V5C0 5.55228 0.447715 6 1 6H3C3.55228 6 4 5.55228 4 5V3C4 2.44772 3.55228 2 3 2H1Z" fill="#505862"/>
<path d="M0 8C0 7.44772 0.447715 7 1 7H3C3.55228 7 4 7.44772 4 8V10C4 10.5523 3.55228 11 3 11H1C0.447715 11 0 10.5523 0 10V8Z" fill="#505862"/>
<path d="M1 12C0.447715 12 0 12.4477 0 13V15C0 15.5523 0.447715 16 1 16H3C3.55228 16 4 15.5523 4 15V13C4 12.4477 3.55228 12 3 12H1Z" fill="#505862"/>
<path d="M6 12C5.44772 12 5 12.4477 5 13V15C5 15.5523 5.44772 16 6 16H8C8.55229 16 9 15.5523 9 15V13C9 12.4477 8.55229 12 8 12H6Z" fill="#505862"/>
<path d="M11.2235 6.86247C11.0806 7.39593 11.3972 7.94427 11.9306 8.08721L13.8625 8.60485C14.396 8.74779 14.9443 8.43121 15.0872 7.89775L15.6049 5.96589C15.7478 5.43243 15.4312 4.88409 14.8978 4.74115L12.9659 4.22351C12.4325 4.08057 11.8841 4.39715 11.7412 4.93062L11.2235 6.86247Z" fill="#505862"/>
<path d="M5 8C5 7.44772 5.44772 7 6 7H8C8.55229 7 9 7.44772 9 8V10C9 10.5523 8.55229 11 8 11H6C5.44772 11 5 10.5523 5 10V8Z" fill="#505862"/>
<path d="M11 12C10.4477 12 10 12.4477 10 13V15C10 15.5523 10.4477 16 11 16H13C13.5523 16 14 15.5523 14 15V13C14 12.4477 13.5523 12 13 12H11Z" fill="#505862"/>
</svg>
