<?xml version="1.0" encoding="UTF-8" standalone="no"?>
<!--

    Copyright (C) 2017-2019 Dremio Corporation

    Licensed under the Apache License, Version 2.0 (the "License");
    you may not use this file except in compliance with the License.
    You may obtain a copy of the License at

        http://www.apache.org/licenses/LICENSE-2.0

    Unless required by applicable law or agreed to in writing, software
    distributed under the License is distributed on an "AS IS" BASIS,
    WITHOUT WARRANTIES OR CONDITIONS OF ANY KIND, either express or implied.
    See the License for the specific language governing permissions and
    limitations under the License.

-->
<!DOCTYPE svg PUBLIC "-//W3C//DTD SVG 1.1//EN" "http://www.w3.org/Graphics/SVG/1.1/DTD/svg11.dtd">
<svg width="24" height="24" viewBox="0 0 24 24" fill="none" xmlns="http://www.w3.org/2000/svg">
<path fill-rule="evenodd" clip-rule="evenodd" d="M12 22C6.47715 22 2 17.5228 2 12C2 6.47715 6.47715 2 12 2C17.5228 2 22 6.47715 22 12C22 17.5228 17.5228 22 12 22ZM12 21C16.9706 21 21 16.9706 21 12C21 7.02944 16.9706 3 12 3C7.02944 3 3 7.02944 3 12C3 16.9706 7.02944 21 12 21ZM8 8.81797C8 8.48677 8.09138 8.16198 8.26409 7.87936C8.78247 7.03111 9.89035 6.76369 10.7386 7.28207L16.2248 10.6347C16.4414 10.7671 16.6234 10.9491 16.7557 11.1657C17.2165 11.9197 16.9788 12.9045 16.2248 13.3653L10.7386 16.7179C10.456 16.8906 10.1312 16.982 9.8 16.982C8.80589 16.982 8 16.1761 8 15.182V8.81797ZM9 8.81797V15.182C9 15.6239 9.35817 15.982 9.8 15.982C9.9472 15.982 10.0916 15.9414 10.2172 15.8647L15.7034 12.512C15.9861 12.3392 16.0753 11.9699 15.9025 11.6871C15.8528 11.6059 15.7846 11.5377 15.7034 11.488L10.2172 8.13535C9.84016 7.90496 9.34777 8.02381 9.11737 8.40081C9.04062 8.52642 9 8.67077 9 8.81797Z" fill="white"/>
</svg>
