<?xml version="1.0" encoding="UTF-8" standalone="no"?>
<!--

    Copyright (C) 2017-2019 Dremio Corporation

    Licensed under the Apache License, Version 2.0 (the "License");
    you may not use this file except in compliance with the License.
    You may obtain a copy of the License at

        http://www.apache.org/licenses/LICENSE-2.0

    Unless required by applicable law or agreed to in writing, software
    distributed under the License is distributed on an "AS IS" BASIS,
    WITHOUT WARRANTIES OR CONDITIONS OF ANY KIND, either express or implied.
    See the License for the specific language governing permissions and
    limitations under the License.

-->
<svg width="24px" height="24px" viewBox="0 0 24 24" version="1.1" xmlns="http://www.w3.org/2000/svg" xmlns:xlink="http://www.w3.org/1999/xlink">
    <title>Icon/Plus (Solid)</title>
    <g id="Icon/Plus-(Solid)" stroke="none" stroke-width="1" fill="none" fill-rule="evenodd">
        <polygon id="Path" points="0 0 24 0 24 24 0 24"></polygon>
        <path d="M12,2 C6.4771525,2 2,6.4771525 2,12 C2,17.5228475 6.4771525,22 12,22 C17.5228475,22 22,17.5228475 22,12 C22,9.3478351 20.9464316,6.80429597 19.0710678,4.92893219 C17.195704,3.0535684 14.6521649,2 12,2 Z" id="Combined-Shape" fill="#43B8C9"></path>
        <path d="M12,7 C12.2454599,7 12.4496084,7.17687516 12.4919443,7.41012437 L12.5,7.5 L12.5,11.5 L16.5,11.5 C16.7761424,11.5 17,11.7238576 17,12 C17,12.2454599 16.8231248,12.4496084 16.5898756,12.4919443 L16.5,12.5 L12.5,12.5 L12.5,16.5 C12.5,16.7761424 12.2761424,17 12,17 C11.7545401,17 11.5503916,16.8231248 11.5080557,16.5898756 L11.5,16.5 L11.5,12.5 L7.5,12.5 C7.22385763,12.5 7,12.2761424 7,12 C7,11.7545401 7.17687516,11.5503916 7.41012437,11.5080557 L7.5,11.5 L11.5,11.5 L11.5,7.5 C11.5,7.22385763 11.7238576,7 12,7 Z" id="Combined-Shape" fill="#FFFFFF"></path>
    </g>
</svg>