<!--

    Copyright (C) 2017-2019 Dremio Corporation

    Licensed under the Apache License, Version 2.0 (the "License");
    you may not use this file except in compliance with the License.
    You may obtain a copy of the License at

        http://www.apache.org/licenses/LICENSE-2.0

    Unless required by applicable law or agreed to in writing, software
    distributed under the License is distributed on an "AS IS" BASIS,
    WITHOUT WARRANTIES OR CONDITIONS OF ANY KIND, either express or implied.
    See the License for the specific language governing permissions and
    limitations under the License.

-->
<svg width="25" height="24" viewBox="0 0 25 24" fill="none" xmlns="http://www.w3.org/2000/svg">
    <path 
        fill-rule="evenodd"
        clip-rule="evenodd"
        d="M12.7561 2C7.23326 2 2.7561 6.47715 2.7561 12C2.7561 17.5228 7.23326 22 12.7561 22C18.279 22 22.7561 17.5228 22.7561 12C22.7561 9.34784 21.7025 6.8043 19.8272 4.92893C17.9518 3.05357 15.4083 2 12.7561 2Z"
        fill="#7F8B95"
    />
    <path
        fill-rule="evenodd"
        clip-rule="evenodd"
        d="M13.248 7.41012C13.2057 7.17688 13.0016 7 12.7561 7C12.48 7 12.2561 7.22386 12.2561 7.5V11.5H8.2561L8.16623 11.5081C7.93298 11.5504 7.7561 11.7545 7.7561 12C7.7561 12.2761 7.97996 12.5 8.2561 12.5H12.2561V16.5L12.2642 16.5899C12.3065 16.8231 12.5106 17 12.7561 17C13.0322 17 13.2561 16.7761 13.2561 16.5V12.5H17.2561L17.346 12.4919C17.5792 12.4496 17.7561 12.2455 17.7561 12C17.7561 11.7239 17.5322 11.5 17.2561 11.5H13.2561V7.5L13.248 7.41012Z"
        fill="white"
    />
</svg>
