<?xml version="1.0" encoding="UTF-8" standalone="no"?>
<!--

    Copyright (C) 2017-2019 Dremio Corporation

    Licensed under the Apache License, Version 2.0 (the "License");
    you may not use this file except in compliance with the License.
    You may obtain a copy of the License at

        http://www.apache.org/licenses/LICENSE-2.0

    Unless required by applicable law or agreed to in writing, software
    distributed under the License is distributed on an "AS IS" BASIS,
    WITHOUT WARRANTIES OR CONDITIONS OF ANY KIND, either express or implied.
    See the License for the specific language governing permissions and
    limitations under the License.

-->
<svg width="401" height="302" xmlns="http://www.w3.org/2000/svg"><g fill="#D8AE0F" fill-rule="nonzero"><path d="M35.333 1.684C22.104 4.805 8.875 15.804 3.226 28.29.253 34.831.105 37.656.105 130.111c0 90.822.148 95.43 2.973 101.376 7.58 16.797 22.445 26.904 41.62 28.39l10.405.744v-16.797h-7.135c-10.554 0-21.85-6.094-27.202-14.567l-4.31-6.837v-91.862c0-100.93-.446-95.578 9.215-104.794 10.257-9.81 1.338-9.365 176.44-9.067 175.697.446 161.873-.298 172.278 10.256 9.514 9.81 9.365 7.73 8.92 105.537l-.447 88.592-4.46 7.283c-5.499 8.919-16.945 15.46-27.052 15.46h-6.392v6.688c0 3.716-.149 7.135-.297 7.73-.743 2.08 9.81 2.23 18.134.446 11-2.527 22.148-9.96 28.094-18.73 9.216-14.12 9.216-13.08 8.77-112.969l-.446-90.524-3.419-7.432c-4.46-9.662-15.162-20.513-24.675-24.823L363.54.79 202.26.496C111.44.495 38.603.94 35.333 1.684z"/><path d="M289.514 76.006c-8.77 6.689-8.473 2.675-8.473 110.145 0 96.32.149 98.699 2.973 103.455 3.865 6.243 14.716 11.297 21.405 10.108 6.837-1.338 13.824-6.094 16.797-11.594 2.526-4.608 2.675-11.446 2.675-103.01V87.005l-3.419-4.905c-4.756-6.54-10.553-9.216-19.918-9.216-5.648.149-9.067 1.04-12.04 3.122zm-135.117 53.511c-3.419 1.784-6.838 5.203-8.621 8.77-2.825 5.649-2.973 8.622-2.973 75.363 0 64.957.148 70.01 2.824 74.767 8.324 15.905 30.472 15.905 38.499 0l3.418-6.689-.446-69.862c-.445-66.592-.594-70.16-3.418-74.768-3.27-5.5-12.932-10.702-19.473-10.702-2.378.148-6.837 1.486-9.81 3.121zm75.065 31.215c-7.58 1.487-12.338 5.5-15.459 12.635-2.824 6.095-2.973 9.662-2.527 59.012.446 49.647.595 52.62 3.419 57.525 5.946 10.108 20.959 13.526 30.62 6.986 10.108-6.689 10.257-7.58 10.257-66.741 0-29.134-.595-54.552-1.338-56.485-3.419-9.067-15.162-15.013-24.972-12.932zM82.899 209.785c-8.175 6.243-8.77 9.216-8.621 43.404.297 35.08.743 37.16 10.702 43.85 6.838 4.756 18.73 4.013 24.527-1.338 7.58-7.135 8.026-9.216 8.026-42.958 0-34.783-.594-37.904-9.364-43.107-6.69-4.162-19.621-4.013-25.27.149z"/></g></svg>