<?xml version="1.0" encoding="UTF-8" standalone="no"?>
<!--

    Copyright (C) 2017-2019 Dremio Corporation

    Licensed under the Apache License, Version 2.0 (the "License");
    you may not use this file except in compliance with the License.
    You may obtain a copy of the License at

        http://www.apache.org/licenses/LICENSE-2.0

    Unless required by applicable law or agreed to in writing, software
    distributed under the License is distributed on an "AS IS" BASIS,
    WITHOUT WARRANTIES OR CONDITIONS OF ANY KIND, either express or implied.
    See the License for the specific language governing permissions and
    limitations under the License.

-->
<!DOCTYPE svg PUBLIC "-//W3C//DTD SVG 1.1//EN" "http://www.w3.org/Graphics/SVG/1.1/DTD/svg11.dtd">
<svg width="18" height="18" viewBox="0 0 18 18" fill="none" xmlns="http://www.w3.org/2000/svg">
<mask id="mask0" mask-type="alpha" maskUnits="userSpaceOnUse" x="0" y="0" width="18" height="18">
<rect width="17.0973" height="18" fill="white"/>
</mask>
<g mask="url(#mask0)">
<path d="M5.41612 14.4954C5.41612 15.0794 4.93825 15.6104 4.30108 15.6104C3.66391 15.6104 3.18604 15.1325 3.18604 14.4954V9.71661C3.18604 9.13254 3.66391 8.60156 4.30108 8.60156C4.93825 8.60156 5.41612 9.07944 5.41612 9.71661V14.4954Z" fill="#231F20"/>
</g>
<mask id="mask1" mask-type="alpha" maskUnits="userSpaceOnUse" x="0" y="0" width="18" height="18">
<rect width="17.0973" height="18" fill="white"/>
</mask>
<g mask="url(#mask1)">
<path d="M8.60131 15.7698C8.60131 16.3538 8.12343 16.8848 7.48626 16.8848C6.8491 16.8848 6.42432 16.4069 6.42432 15.7698V8.49542C6.42432 7.91134 6.90219 7.38037 7.53936 7.38037C8.17653 7.38037 8.65441 7.85825 8.65441 8.49542V15.7698H8.60131Z" fill="#231F20"/>
</g>
<mask id="mask2" mask-type="alpha" maskUnits="userSpaceOnUse" x="0" y="0" width="18" height="18">
<rect width="17.0973" height="18" fill="white"/>
</mask>
<g mask="url(#mask2)">
<path d="M2.17638 13.4336C2.17638 14.0177 1.6985 14.5487 1.06133 14.5487C0.424165 14.5487 -0.0537109 14.0708 -0.0537109 13.4336V10.8318C-0.0537109 10.2478 0.424165 9.7168 1.06133 9.7168C1.6985 9.7168 2.17638 10.2478 2.17638 10.8318V13.4336Z" fill="#231F20"/>
</g>
<mask id="mask3" mask-type="alpha" maskUnits="userSpaceOnUse" x="0" y="0" width="18" height="18">
<rect width="17.0973" height="18" fill="white"/>
</mask>
<g mask="url(#mask3)">
<path d="M11.7873 16.9379C11.7873 17.522 11.3095 18.053 10.6723 18.053C10.0882 18.053 9.61035 17.522 9.61035 16.9379V7.27422C9.61035 6.69015 10.0882 6.15918 10.7254 6.15918C11.3095 6.15918 11.8404 6.63706 11.8404 7.27422V16.9379H11.7873Z" fill="#231F20"/>
</g>
<mask id="mask4" mask-type="alpha" maskUnits="userSpaceOnUse" x="0" y="0" width="18" height="18">
<rect width="17.0973" height="18" fill="white"/>
</mask>
<g mask="url(#mask4)">
<path d="M15.2918 16.4603C15.0794 16.4603 14.9201 16.4072 14.7078 16.3541L13.3803 15.9293C13.1679 15.8762 13.0086 15.6107 13.1148 15.3983C13.1679 15.1859 13.4334 15.0266 13.6458 15.1328L15.0263 15.5576C15.2918 15.6638 15.6104 15.6107 15.8759 15.3983C16.1414 15.239 16.2476 14.9204 16.2476 14.6549V5.78769C16.2476 5.36291 15.9821 4.99123 15.6104 4.88504L2.60156 0.955835C2.33607 0.84964 2.01749 0.902737 1.752 1.06203C1.53961 1.27442 1.38032 1.53991 1.38032 1.85849V7.96468C1.38032 8.23017 1.16793 8.38946 0.95554 8.38946C0.690054 8.38946 0.530762 8.17707 0.530762 7.96468V1.85849C0.530762 1.27442 0.796248 0.743445 1.27412 0.424861C1.752 0.05318 2.33607 8.26046e-05 2.86704 0.159375L15.8228 4.08858C16.5662 4.30097 17.0971 5.04433 17.0971 5.84079V14.708C17.0971 15.2921 16.8316 15.8231 16.3538 16.1948C16.0352 16.301 15.6635 16.4603 15.2918 16.4603Z" fill="#231F20"/>
</g>
</svg>
