<?xml version="1.0" encoding="UTF-8" standalone="no"?>
<!--

    Copyright (C) 2017-2019 Dremio Corporation

    Licensed under the Apache License, Version 2.0 (the "License");
    you may not use this file except in compliance with the License.
    You may obtain a copy of the License at

        http://www.apache.org/licenses/LICENSE-2.0

    Unless required by applicable law or agreed to in writing, software
    distributed under the License is distributed on an "AS IS" BASIS,
    WITHOUT WARRANTIES OR CONDITIONS OF ANY KIND, either express or implied.
    See the License for the specific language governing permissions and
    limitations under the License.

-->
<svg width="20" height="20" viewBox="0 0 20 20" fill="none" xmlns="http://www.w3.org/2000/svg">
<mask id="mask0_395_6008" style="mask-type:alpha" maskUnits="userSpaceOnUse" x="2" y="0" width="16" height="20">
<path d="M16.6656 0C17.1264 0 17.5 0.373561 17.5 0.834375V19.1656C17.5 19.6264 17.1264 20 16.6656 20H3.33334C2.8731 20 2.5 19.6269 2.5 19.1666V10.8333C2.5 10.3731 2.8731 10 3.33334 10H6.5625V5.83334C6.5625 5.3731 6.9356 5 7.39584 5H10.625V0.834375C10.625 0.373562 10.9986 0 11.4594 0H16.6656Z" fill="white"/>
</mask>
<g mask="url(#mask0_395_6008)">
<path d="M17.5 0.834375V19.1656C17.5 19.6264 17.1264 20 16.6656 20H11.4594C10.9986 20 10.625 19.6264 10.625 19.1656V0.834375C10.625 0.373562 10.9986 0 11.4594 0H16.6656C17.1265 0 17.5 0.373561 17.5 0.834375Z" fill="url(#paint0_linear_395_6008)"/>
<g filter="url(#filter0_dd_395_6008)">
<path d="M13.4375 5.83334V20H6.5625V5.83334C6.5625 5.3731 6.9356 5 7.39584 5H12.6041C13.0644 5 13.4375 5.3731 13.4375 5.83334Z" fill="url(#paint1_linear_395_6008)"/>
</g>
<path d="M2.5 10.8333V19.1666C2.5 19.6269 2.8731 20 3.33334 20H9.375V10.8333C9.375 10.3731 9.0019 10 8.54166 10H3.33334C2.8731 10 2.5 10.3731 2.5 10.8333Z" fill="url(#paint2_linear_395_6008)"/>
</g>
<defs>
<filter id="filter0_dd_395_6008" x="1.22916" y="0.99999" width="17.5417" height="25.6667" filterUnits="userSpaceOnUse" color-interpolation-filters="sRGB">
<feFlood flood-opacity="0" result="BackgroundImageFix"/>
<feColorMatrix in="SourceAlpha" type="matrix" values="0 0 0 0 0 0 0 0 0 0 0 0 0 0 0 0 0 0 127 0" result="hardAlpha"/>
<feOffset dy="0.253333"/>
<feGaussianBlur stdDeviation="0.253333"/>
<feColorMatrix type="matrix" values="0 0 0 0 0 0 0 0 0 0 0 0 0 0 0 0 0 0 0.2 0"/>
<feBlend mode="normal" in2="BackgroundImageFix" result="effect1_dropShadow_395_6008"/>
<feColorMatrix in="SourceAlpha" type="matrix" values="0 0 0 0 0 0 0 0 0 0 0 0 0 0 0 0 0 0 127 0" result="hardAlpha"/>
<feOffset dy="1.33333"/>
<feGaussianBlur stdDeviation="2.66667"/>
<feColorMatrix type="matrix" values="0 0 0 0 0 0 0 0 0 0 0 0 0 0 0 0 0 0 0.18 0"/>
<feBlend mode="normal" in2="effect1_dropShadow_395_6008" result="effect2_dropShadow_395_6008"/>
<feBlend mode="normal" in="SourceGraphic" in2="effect2_dropShadow_395_6008" result="shape"/>
</filter>
<linearGradient id="paint0_linear_395_6008" x1="9.47916" y1="-2.09451e-07" x2="18.0978" y2="18.8394" gradientUnits="userSpaceOnUse">
<stop stop-color="#E6AD10"/>
<stop offset="1" stop-color="#C87E0E"/>
</linearGradient>
<linearGradient id="paint1_linear_395_6008" x1="6.56194" y1="5" x2="13.8224" y2="19.5209" gradientUnits="userSpaceOnUse">
<stop stop-color="#F6D751"/>
<stop offset="1" stop-color="#E6AD10"/>
</linearGradient>
<linearGradient id="paint2_linear_395_6008" x1="2.49944" y1="10" x2="6.4973" y2="19.771" gradientUnits="userSpaceOnUse">
<stop stop-color="#F9E589"/>
<stop offset="1" stop-color="#F6D751"/>
</linearGradient>
</defs>
</svg>
