<?xml version="1.0" encoding="UTF-8" standalone="no"?>
<!--

    Copyright (C) 2017-2019 Dremio Corporation

    Licensed under the Apache License, Version 2.0 (the "License");
    you may not use this file except in compliance with the License.
    You may obtain a copy of the License at

        http://www.apache.org/licenses/LICENSE-2.0

    Unless required by applicable law or agreed to in writing, software
    distributed under the License is distributed on an "AS IS" BASIS,
    WITHOUT WARRANTIES OR CONDITIONS OF ANY KIND, either express or implied.
    See the License for the specific language governing permissions and
    limitations under the License.

-->
<svg width="48" height="48" viewBox="0 0 48 48" fill="none" xmlns="http://www.w3.org/2000/svg">
<path fill-rule="evenodd" clip-rule="evenodd" d="M20.702 23.6998C19.9757 25.5907 17.8578 26.49 17.2732 26.1752C16.9741 26.0179 17.2732 25.4153 17.2732 25.0038C16.8437 25.1702 16.1355 25.485 15.6993 25.6581C16.1781 26.0689 16.5625 26.5783 16.826 27.1515C17.0895 27.7247 17.2259 28.3481 17.2259 28.979C17.2259 29.6098 17.0895 30.2332 16.826 30.8064C16.5625 31.3796 16.1781 31.8891 15.6993 32.2998C17.4486 34.9237 16.5739 37.1788 14.1254 38.9393L14.0288 39L13.9771 38.8246C13.673 37.6126 13.0989 36.485 12.2975 35.5263C11.8551 35.0333 11.3876 34.5635 10.8968 34.1188C10.2672 33.5229 9.65567 32.9114 9.09807 32.2639C6.6968 29.7434 5.74349 25.3096 6.05826 21.8808C6.22457 20.1203 6.73972 18.4106 7.57367 16.8512C8.23634 15.6072 9.06204 14.4571 10.0289 13.4314C12.1923 11.11 14.9289 9.39937 17.9634 8.4715C20.6294 7.55229 23.5459 7.68661 26.1161 8.84697C26.591 9.09753 27.0425 9.39025 27.4651 9.72159L28.0834 10.3017L28.1553 10.3714L39.8469 4.37944C40.8092 3.89829 41.5354 3.89829 41.8592 4.24679C42.183 4.59529 41.7288 5.49914 41.0453 5.99603L30.9883 13.274C31.0476 13.6159 31.028 13.9669 30.9309 14.3C30.8339 14.6332 30.662 14.9398 30.4285 15.1964C31.7662 15.6618 30.5858 17.6202 29.999 18.3194C28.3195 20.3047 25.2504 21.8628 22.5119 23.0005C21.7767 23.3153 21.3585 23.4502 20.7132 23.6908L20.702 23.6998ZM14.1592 26.3146C13.0642 26.8138 10.9305 27.9267 11.1306 29.1319C11.4117 29.8761 12.2773 29.1319 12.601 28.7811C13.2994 28.1043 13.8326 27.2757 14.1592 26.3596V26.3146Z" fill="#383C42"/>
<path fill-rule="evenodd" clip-rule="evenodd" d="M29.8779 16.8347C30.6311 15.8904 30.1028 15.3485 29.5811 15.8724C29.0564 16.3728 28.4205 16.7415 27.7255 16.9483C27.0306 17.1551 26.2964 17.194 25.5835 17.0618C23.5263 16.72 23.4318 16.4053 23.7848 16.0995C24.946 16.4903 26.2034 16.4887 27.3636 16.0951C28.5238 15.7015 29.5226 14.9375 30.2062 13.9208C30.7143 13.1946 29.0168 12.619 28.0185 11.2969C23.2205 4.79013 8.2103 10.4313 6.77583 21.7429C6.54244 23.4892 6.67627 25.2649 7.16875 26.9564C7.66123 28.648 8.5015 30.218 9.63577 31.5661C11.3963 33.5514 13.2939 34.3833 14.3686 37.5086C16.4686 35.7098 16.1179 33.6683 14.6047 31.8876C15.1451 31.6128 15.6049 31.2023 15.939 30.6964C16.2731 30.1904 16.4701 29.6064 16.5107 29.0015C16.5512 28.3965 16.434 27.7914 16.1704 27.2454C15.9069 26.6994 15.506 26.2312 15.0072 25.8867C14.1325 29.0344 11.0612 31.3795 10.344 29.1423C9.88084 26.8512 13.6446 25.3381 19.6613 23.011C24.6999 21.1201 27.9533 19.5642 29.8779 16.783" fill="#31D3DB"/>
<path fill-rule="evenodd" clip-rule="evenodd" d="M29.8776 16.8346C30.6308 15.8903 30.1025 15.3484 29.5808 15.8723C29.1239 16.3134 28.5793 16.6535 27.9824 16.8704C27.3855 17.0873 26.7496 17.1762 26.1161 17.1314C24.0431 16.983 22.3905 16.5715 20.8684 16.7402C18.0429 17.1627 15.4299 18.4877 13.4195 20.5174C10.7956 23.2155 7.89072 28.8095 10.7956 29.8954C10.5742 29.6992 10.426 29.4337 10.3752 29.1422C9.90752 26.8601 13.6691 25.3447 19.688 23.0199C24.7243 21.129 27.98 19.5731 29.9046 16.7919" fill="white"/>
<path fill-rule="evenodd" clip-rule="evenodd" d="M16.9742 21.2525C18.5233 22.0125 18.2175 24.6723 17.9904 25.3378C20.9291 24.461 20.0545 20.1486 21.4192 18.8175C19.67 18.7658 16.502 20.4903 16.9742 21.2503" fill="#31D3DB"/>
<path fill-rule="evenodd" clip-rule="evenodd" d="M21.943 13.3666C22.0807 13.2487 22.2516 13.1764 22.4322 13.1599C22.6127 13.1434 22.7939 13.1833 22.9507 13.2743C23.1075 13.3652 23.2322 13.5027 23.3075 13.6676C23.3828 13.8325 23.405 14.0167 23.3711 14.1948C23.3371 14.3728 23.2486 14.536 23.1179 14.6616C22.9872 14.7872 22.8207 14.869 22.6414 14.8959C22.4621 14.9227 22.2789 14.8931 22.1171 14.8113C21.9554 14.7295 21.823 14.5994 21.7384 14.4391C21.6442 14.2645 21.6125 14.063 21.6485 13.868C21.6845 13.6729 21.786 13.496 21.9363 13.3666" fill="#383C42"/>
<path fill-rule="evenodd" clip-rule="evenodd" d="M29.0818 13.7182L40.8813 5.50265C41.214 5.27781 41.6525 4.76069 41.4681 4.51561C41.2837 4.27054 40.7778 4.40319 40.3439 4.6033L27.5844 11.4968C27.1729 12.3715 28.0026 14.1657 29.0885 13.7182" fill="#31D3DB"/>
<path fill-rule="evenodd" clip-rule="evenodd" d="M28.0496 12.1017L40.3752 4.88439C40.6931 4.66854 41.0659 4.54766 41.4499 4.53589C41.2656 4.32454 40.7597 4.4482 40.3392 4.64831L27.5842 11.4991C27.4583 11.8998 27.4661 12.3305 27.6064 12.7264C27.7467 13.1222 28.012 13.4617 28.3621 13.6935C28.1011 13.2061 27.9923 12.6516 28.0496 12.1017Z" fill="white"/>
<path fill-rule="evenodd" clip-rule="evenodd" d="M9.88937 15.3145C9.97871 15.2948 10.0714 15.2963 10.1601 15.319C10.2487 15.3416 10.3308 15.3848 10.3997 15.4449C10.4685 15.5057 10.5222 15.5816 10.5565 15.6667C10.5908 15.7517 10.6049 15.8436 10.5976 15.9351C10.6029 16.1462 10.5312 16.352 10.3959 16.5142C10.2606 16.6763 10.071 16.7838 9.86239 16.8164C9.77431 16.8343 9.68331 16.8315 9.59646 16.8085C9.50961 16.7854 9.42924 16.7427 9.3616 16.6835C9.29396 16.6243 9.24086 16.5504 9.20645 16.4674C9.17203 16.3844 9.15721 16.2945 9.16314 16.2049C9.1698 15.9991 9.2448 15.8014 9.37631 15.6431C9.50782 15.4847 9.68834 15.3746 9.88937 15.3303" fill="#21AAAD"/>
<path fill-rule="evenodd" clip-rule="evenodd" d="M12.2771 12.6872C12.3561 12.6703 12.4379 12.6722 12.5161 12.6928C12.5942 12.7133 12.6664 12.752 12.7268 12.8056C12.7872 12.8592 12.8341 12.9263 12.8638 13.0014C12.8935 13.0766 12.9051 13.1576 12.8977 13.2381C12.8841 13.4193 12.8145 13.5917 12.6985 13.7316C12.5824 13.8714 12.4257 13.9716 12.2501 14.0182C12.1711 14.0351 12.0892 14.033 12.0111 14.0123C11.9329 13.9916 11.8608 13.9528 11.8004 13.8991C11.7386 13.8459 11.6901 13.7789 11.6589 13.7035C11.6277 13.6281 11.6145 13.5465 11.6206 13.4651C11.6342 13.2842 11.7039 13.1121 11.82 12.9727C11.936 12.8332 12.0927 12.7334 12.2681 12.6872" fill="#21AAAD"/>
<path fill-rule="evenodd" clip-rule="evenodd" d="M19.5191 9.19922C19.5991 9.20156 19.6775 9.22252 19.748 9.26044C19.8185 9.29836 19.8792 9.3522 19.9253 9.41767C19.9713 9.48315 20.0015 9.55846 20.0133 9.63763C20.0252 9.7168 20.0184 9.79764 19.9935 9.87373C19.9453 10.0477 19.8414 10.2011 19.6976 10.3104C19.5538 10.4196 19.3782 10.4787 19.1976 10.4785C19.1169 10.4768 19.0377 10.4564 18.9662 10.4189C18.8947 10.3815 18.8328 10.3281 18.7854 10.2628C18.7379 10.1975 18.7062 10.1221 18.6927 10.0425C18.6792 9.96295 18.6842 9.88133 18.7075 9.80403C18.7555 9.62835 18.8607 9.4737 19.0065 9.36456C19.1523 9.25542 19.3303 9.19803 19.5124 9.20147" fill="#21AAAD"/>
<path fill-rule="evenodd" clip-rule="evenodd" d="M21.7385 8.83851C21.8054 8.8497 21.8688 8.87626 21.9237 8.9161C21.9786 8.95595 22.0235 9.008 22.0549 9.06815C22.0863 9.1283 22.1033 9.19491 22.1046 9.26275C22.1059 9.33058 22.0914 9.39778 22.0623 9.45907C21.998 9.59574 21.8912 9.70793 21.7578 9.77886C21.6245 9.84979 21.4718 9.87563 21.3225 9.85253C21.2586 9.84073 21.1981 9.81479 21.1455 9.77661C21.0929 9.73843 21.0495 9.68897 21.0185 9.63186C20.9875 9.57475 20.9696 9.51143 20.9662 9.44652C20.9628 9.38162 20.9739 9.31677 20.9988 9.25671C21.0593 9.11568 21.1645 8.9984 21.2981 8.92287C21.4317 8.84733 21.5864 8.8177 21.7385 8.83851Z" fill="#21AAAD"/>
<path fill-rule="evenodd" clip-rule="evenodd" d="M12.2954 14.3478C12.3543 14.3357 12.4152 14.3375 12.4733 14.353C12.5314 14.3686 12.5851 14.3975 12.63 14.4374C12.675 14.4774 12.71 14.5273 12.7323 14.5831C12.7546 14.639 12.7636 14.6993 12.7585 14.7592C12.7539 14.8905 12.7059 15.0167 12.6222 15.1179C12.5384 15.2192 12.4235 15.2899 12.2954 15.3191C12.2372 15.3314 12.1769 15.33 12.1194 15.3151C12.0618 15.3002 12.0085 15.2721 11.9636 15.2331C11.9187 15.1941 11.8835 15.1452 11.8607 15.0903C11.8379 15.0354 11.8281 14.9759 11.8322 14.9166C11.8389 14.7849 11.8874 14.6587 11.9707 14.5564C12.054 14.4541 12.1677 14.381 12.2954 14.3478Z" fill="#21AAAD"/>
<path fill-rule="evenodd" clip-rule="evenodd" d="M8.57662 17.4355C8.63727 17.4208 8.70053 17.4209 8.76114 17.4357C8.82175 17.4505 8.87795 17.4796 8.92503 17.5205C8.97212 17.5614 9.00874 17.613 9.03183 17.671C9.05492 17.7289 9.06382 17.7916 9.05777 17.8537C9.05377 17.9943 9.0026 18.1296 8.91248 18.2376C8.82236 18.3457 8.69853 18.4203 8.56088 18.4495C8.49731 18.4623 8.43161 18.4599 8.36914 18.4425C8.30667 18.4251 8.2492 18.3932 8.20141 18.3493C8.15363 18.3055 8.11688 18.251 8.09417 18.1903C8.07146 18.1295 8.06343 18.0643 8.07073 17.9998C8.07569 17.8583 8.12837 17.7226 8.22022 17.6149C8.31207 17.5071 8.43768 17.4336 8.57662 17.4062" fill="#21AAAD"/>
<path fill-rule="evenodd" clip-rule="evenodd" d="M39.2376 5.18359L38.9138 5.35672C38.9925 5.74314 39.1992 6.09171 39.5006 6.34601C39.3328 5.98114 39.2432 5.58518 39.2376 5.18359ZM36.4383 6.68776L36.0696 6.88787C36.0696 7.36003 36.4114 8.07051 36.7958 8.16495C36.546 7.71495 36.4364 7.20053 36.4811 6.68776H36.4383ZM33.5334 8.26163L33.0523 8.52469C33.0887 8.84924 33.1962 9.16178 33.3672 9.44003C33.5382 9.71829 33.7685 9.95542 34.0416 10.1345C33.7296 9.5601 33.5701 8.91526 33.5784 8.26163H33.5334ZM30.6375 9.85348L30.0867 10.1345C30.1185 10.5256 30.2411 10.9038 30.4449 11.2391C30.6486 11.5744 30.9279 11.8575 31.2603 12.0659C30.8336 11.4085 30.6164 10.637 30.6375 9.85348Z" fill="#21AAAD"/>
<path fill-rule="evenodd" clip-rule="evenodd" d="M21.3605 33.4812C21.3523 33.5995 21.3472 33.7186 21.3453 33.8385C21.3447 33.8756 21.3444 33.9128 21.3444 33.95C21.3444 33.9798 21.3445 34.0095 21.3449 34.0392C21.3465 34.1592 21.3512 34.2783 21.359 34.3967L21.3444 34.3967C21.1382 34.3967 20.9354 34.4106 20.7367 34.4377C18.5573 34.7341 16.8777 36.6026 16.8777 38.8633C16.8777 41.3302 18.8775 43.33 21.3444 43.33H35.4144V43.3258C38.5178 43.2084 40.9977 40.6555 40.9977 37.5233C40.9977 34.3164 38.398 31.7167 35.191 31.7167C34.9167 31.7167 34.6468 31.7357 34.3826 31.7725C33.4787 29.1411 30.9824 27.25 28.0444 27.25C24.5016 27.25 21.6011 29.9996 21.3605 33.4812ZM35.2776 41.99L35.3637 41.9867C37.75 41.8965 39.6577 39.9324 39.6577 37.5233C39.6577 35.0565 37.6579 33.0567 35.191 33.0567C34.9787 33.0567 34.7706 33.0714 34.5674 33.0997L33.4739 33.252L33.1152 32.2078C32.3916 30.101 30.3927 28.59 28.0444 28.59C25.0841 28.59 22.6844 30.9898 22.6844 33.95C22.6844 34.0707 22.6883 34.1903 22.6961 34.3087L22.7903 35.739L21.3444 35.7367C19.6175 35.7367 18.2177 37.1365 18.2177 38.8633C18.2177 40.5901 19.6175 41.99 21.3444 41.99H35.2776Z" fill="#A672BB"/>
<path d="M26.8084 35.7406C26.7957 35.7422 26.7829 35.7413 26.7706 35.7379C26.7583 35.7345 26.7468 35.7287 26.7367 35.7209L24.7411 34.0173C24.7257 34.0008 24.7169 33.9793 24.7163 33.9568C24.7158 33.9342 24.7236 33.9123 24.7383 33.8952C24.753 33.8781 24.7734 33.867 24.7958 33.8641C24.8181 33.8611 24.8408 33.8666 24.8594 33.8793L26.855 35.5758C26.8731 35.5917 26.8844 35.614 26.8864 35.6381C26.8884 35.6621 26.881 35.686 26.8657 35.7047C26.8591 35.7143 26.8506 35.7224 26.8407 35.7285C26.8309 35.7347 26.8199 35.7388 26.8084 35.7406Z" fill="#43B8C9"/>
<path fill-rule="evenodd" clip-rule="evenodd" d="M26.8087 35.734L26.8363 35.9522C26.7949 35.9575 26.7528 35.9545 26.7125 35.9434C26.6722 35.9323 26.6346 35.9134 26.6017 35.8877L26.5979 35.8847L24.5894 34.1702L24.5812 34.1614C24.5285 34.1055 24.4984 34.0321 24.4967 33.9553C24.4949 33.8785 24.5216 33.8038 24.5715 33.7454C24.6215 33.6871 24.6913 33.6493 24.7675 33.6394C24.8436 33.6294 24.9208 33.6479 24.9841 33.6914L24.9935 33.6978L26.999 35.4027L27.0002 35.4037C27.0613 35.4572 27.0991 35.5324 27.1059 35.6132C27.1124 35.6914 27.0894 35.769 27.0415 35.8308C27.0187 35.8617 26.9902 35.8881 26.9576 35.9085C26.9225 35.9304 26.8834 35.945 26.8425 35.9513L26.8087 35.734Z" fill="#43B8C9"/>
<path fill-rule="evenodd" clip-rule="evenodd" d="M29.9758 35.734L29.9482 35.9522C29.9896 35.9575 30.0316 35.9545 30.0719 35.9434C30.1122 35.9323 30.1499 35.9134 30.1828 35.8877L30.1866 35.8847L32.195 34.1702L32.2032 34.1614C32.2559 34.1055 32.286 34.0321 32.2878 33.9553C32.2895 33.8785 32.2629 33.8038 32.2129 33.7454C32.1629 33.6871 32.0931 33.6493 32.017 33.6394C31.9408 33.6294 31.8636 33.6479 31.8003 33.6914L31.791 33.6978L29.7855 35.4027L29.7842 35.4037C29.7232 35.4572 29.6853 35.5324 29.6785 35.6132C29.672 35.6914 29.6951 35.769 29.7429 35.8308C29.7657 35.8617 29.7942 35.8881 29.8269 35.9085C29.8619 35.9304 29.9011 35.945 29.9419 35.9513L29.9758 35.734Z" fill="#43B8C9"/>
<path fill-rule="evenodd" clip-rule="evenodd" d="M30.155 38.5551L30.1274 38.3368C30.1688 38.3316 30.2108 38.3346 30.2511 38.3457C30.2914 38.3567 30.3291 38.3757 30.362 38.4014L30.3658 38.4043L32.3742 40.1189L32.3824 40.1276C32.4351 40.1836 32.4652 40.257 32.467 40.3338C32.4687 40.4106 32.4421 40.4853 32.3921 40.5436C32.3421 40.6019 32.2723 40.6397 32.1962 40.6497C32.12 40.6597 32.0428 40.6412 31.9795 40.5977L31.9702 40.5913L29.9647 38.8864L29.9634 38.8853C29.9024 38.8318 29.8645 38.7567 29.8577 38.6758C29.8512 38.5977 29.8743 38.5201 29.9221 38.4583C29.9449 38.4273 29.9734 38.401 30.0061 38.3806C30.0411 38.3587 30.0803 38.3441 30.1211 38.3377L30.155 38.5551Z" fill="#43B8C9"/>
<path d="M24.5924 34.1592C24.5063 34.1705 24.4187 34.1561 24.3408 34.1176C24.2629 34.0792 24.1982 34.0185 24.1548 33.9432C24.1114 33.8679 24.0914 33.7815 24.0972 33.6948C24.103 33.6081 24.1343 33.5251 24.1873 33.4563C24.2404 33.3874 24.3126 33.3359 24.3949 33.3081C24.4772 33.2804 24.566 33.2777 24.6498 33.3004C24.7337 33.3231 24.8089 33.3702 24.866 33.4357C24.923 33.5012 24.9594 33.5822 24.9704 33.6683C24.9852 33.7835 24.9537 33.8998 24.8828 33.9918C24.812 34.0838 24.7076 34.144 24.5924 34.1592Z" fill="#43B8C9"/>
<path fill-rule="evenodd" clip-rule="evenodd" d="M24.5923 33.5062C24.5505 33.4948 24.5062 33.4962 24.4652 33.51C24.4241 33.5239 24.3881 33.5496 24.3616 33.5839C24.3352 33.6182 24.3196 33.6596 24.3167 33.7029C24.3138 33.7461 24.3238 33.7892 24.3454 33.8268C24.3671 33.8643 24.3994 33.8946 24.4382 33.9138C24.4771 33.9329 24.5207 33.9402 24.5637 33.9345C24.6211 33.9269 24.6732 33.8969 24.7085 33.851C24.7439 33.8051 24.7596 33.7471 24.7522 33.6897C24.7467 33.6467 24.7286 33.6063 24.7001 33.5736C24.6717 33.541 24.6341 33.5175 24.5923 33.5062ZM24.3247 33.0931C24.4483 33.0514 24.5814 33.0474 24.7073 33.0815C24.8332 33.1156 24.9461 33.1863 25.0318 33.2846C25.1175 33.3829 25.1721 33.5045 25.1886 33.6338C25.2108 33.8067 25.1635 33.9814 25.0571 34.1195C24.9508 34.2576 24.794 34.3479 24.6212 34.3707C24.4919 34.3877 24.3604 34.366 24.2435 34.3083C24.1265 34.2506 24.0294 34.1594 23.9642 34.0465C23.8991 33.9335 23.869 33.8037 23.8777 33.6735C23.8864 33.5434 23.9335 33.4188 24.0131 33.3155C24.0926 33.2121 24.2011 33.1347 24.3247 33.0931Z" fill="#43B8C9"/>
<path d="M31.8137 33.6937C31.8251 33.6076 31.8618 33.5268 31.9191 33.4616C31.9765 33.3964 32.0519 33.3496 32.1358 33.3273C32.2198 33.3049 32.3084 33.308 32.3906 33.3361C32.4728 33.3642 32.5448 33.416 32.5976 33.485C32.6503 33.5541 32.6813 33.6372 32.6868 33.7239C32.6922 33.8105 32.6718 33.8969 32.6282 33.972C32.5845 34.0471 32.5196 34.1075 32.4415 34.1457C32.3635 34.1838 32.2759 34.198 32.1898 34.1863C32.0749 34.1703 31.9709 34.1095 31.9005 34.0173C31.8301 33.9251 31.7989 33.8088 31.8137 33.6937Z" fill="#43B8C9"/>
<path fill-rule="evenodd" clip-rule="evenodd" d="M32.3193 33.5533C32.2783 33.5393 32.2341 33.5377 32.1922 33.5489C32.1503 33.56 32.1127 33.5833 32.0841 33.6159C32.0556 33.6483 32.0373 33.6884 32.0315 33.7312C32.0243 33.7887 32.0399 33.8468 32.0751 33.8928C32.1103 33.9389 32.1622 33.9693 32.2196 33.9774C32.2624 33.9831 32.3059 33.9761 32.3447 33.9571C32.3836 33.9381 32.416 33.9079 32.4378 33.8705C32.4595 33.833 32.4697 33.7899 32.467 33.7467C32.4643 33.7035 32.4488 33.662 32.4225 33.6276C32.3962 33.5931 32.3603 33.5673 32.3193 33.5533ZM31.8134 33.7027L31.5952 33.6747C31.5731 33.8472 31.6198 34.0216 31.7254 34.1599C31.831 34.2981 31.9869 34.3892 32.1592 34.4132L32.1592 34.4132L32.1601 34.4133C32.2893 34.4308 32.4208 34.4096 32.5379 34.3523C32.6551 34.295 32.7526 34.2043 32.8181 34.0916C32.8836 33.9789 32.9143 33.8492 32.9061 33.7191C32.8979 33.589 32.8513 33.4642 32.7722 33.3606C32.693 33.2569 32.5849 33.1791 32.4615 33.137C32.3381 33.0948 32.205 33.0902 32.079 33.1237C31.953 33.1573 31.8398 33.2274 31.7537 33.3254C31.6676 33.4233 31.6125 33.5445 31.5954 33.6738L31.8134 33.7027Z" fill="#43B8C9"/>
<path fill-rule="evenodd" clip-rule="evenodd" d="M30.0439 38.7447L30.0439 38.7447C30.0437 38.7447 30.0435 38.7448 30.0432 38.7448L30.0241 38.6194L30.0244 38.6197L30.0439 38.7447ZM30.0237 38.6152L30.01 38.5273L30.0234 38.6149L30.0237 38.6152Z" fill="#43B8C9"/>
<path d="M32.2705 40.0417C32.3289 40.0287 32.3894 40.0278 32.4482 40.0391C32.507 40.0503 32.5629 40.0735 32.6124 40.1072C32.6619 40.1408 32.704 40.1843 32.7362 40.2348C32.7683 40.2853 32.7897 40.3419 32.7991 40.401C32.8085 40.4602 32.8058 40.5206 32.791 40.5786C32.7762 40.6366 32.7497 40.691 32.7131 40.7384C32.6765 40.7858 32.6305 40.8252 32.5782 40.8542C32.5258 40.8832 32.468 40.9011 32.4084 40.907C32.3499 40.9199 32.2895 40.9208 32.2306 40.9096C32.1718 40.8983 32.116 40.8752 32.0664 40.8415C32.0169 40.8078 31.9748 40.7644 31.9427 40.7139C31.9106 40.6633 31.8892 40.6067 31.8797 40.5476C31.8703 40.4885 31.8731 40.428 31.8879 40.37C31.9027 40.312 31.9292 40.2576 31.9658 40.2102C32.0024 40.1629 32.0483 40.1235 32.1007 40.0945C32.1531 40.0655 32.2109 40.0475 32.2705 40.0417Z" fill="#43B8C9"/>
<path fill-rule="evenodd" clip-rule="evenodd" d="M32.4071 40.2564C32.3778 40.2507 32.3476 40.2512 32.3184 40.2577L32.3054 40.2606L32.2921 40.2619C32.2624 40.2648 32.2336 40.2737 32.2074 40.2882C32.1813 40.3026 32.1584 40.3223 32.1402 40.3459C32.1219 40.3696 32.1087 40.3967 32.1013 40.4256C32.0939 40.4546 32.0925 40.4847 32.0972 40.5142C32.1019 40.5437 32.1126 40.5719 32.1286 40.5971C32.1446 40.6223 32.1657 40.644 32.1903 40.6608C32.215 40.6776 32.2429 40.6891 32.2723 40.6948C32.3016 40.7004 32.3318 40.6999 32.3609 40.6934L32.374 40.6905L32.3872 40.6892C32.417 40.6863 32.4458 40.6774 32.4719 40.6629C32.4981 40.6485 32.5209 40.6288 32.5392 40.6052C32.5575 40.5815 32.5707 40.5544 32.5781 40.5255C32.5854 40.4965 32.5868 40.4664 32.5821 40.4369C32.5774 40.4074 32.5667 40.3792 32.5507 40.354C32.5347 40.3288 32.5137 40.3071 32.489 40.2903C32.4643 40.2735 32.4364 40.262 32.4071 40.2564ZM32.236 39.8254C32.3197 39.8086 32.4059 39.8082 32.4898 39.8242C32.5781 39.8411 32.662 39.8759 32.7363 39.9265C32.8107 39.977 32.8739 40.0422 32.9221 40.1181C32.9703 40.1939 33.0025 40.2789 33.0166 40.3676C33.0308 40.4564 33.0266 40.5471 33.0044 40.6342C32.9822 40.7213 32.9424 40.803 32.8874 40.8741C32.8325 40.9452 32.7635 41.0044 32.6849 41.0479C32.6101 41.0893 32.5281 41.1157 32.4433 41.1257C32.3596 41.1425 32.2735 41.1429 32.1895 41.1269C32.1013 41.11 32.0174 41.0752 31.943 41.0247C31.8687 40.9741 31.8055 40.9089 31.7573 40.833C31.7091 40.7572 31.6769 40.6722 31.6628 40.5835C31.6486 40.4947 31.6528 40.404 31.675 40.3169C31.6972 40.2298 31.737 40.1482 31.792 40.077C31.8469 40.0059 31.9158 39.9467 31.9945 39.9032C32.0692 39.8619 32.1513 39.8355 32.236 39.8254Z" fill="#43B8C9"/>
<path d="M26.739 38.5402C26.7267 38.5382 26.7142 38.5388 26.7022 38.5419C26.6902 38.545 26.6789 38.5505 26.6691 38.5581L24.6072 40.1703C24.5978 40.1777 24.59 40.1868 24.5842 40.1972C24.5783 40.2076 24.5747 40.2191 24.5733 40.2309C24.572 40.2427 24.573 40.2547 24.5764 40.2662C24.5797 40.2776 24.5854 40.2883 24.5929 40.2975C24.6077 40.3164 24.6294 40.3286 24.6532 40.3316C24.677 40.3346 24.701 40.3282 24.7201 40.3136L26.7802 38.7014C26.799 38.6865 26.8113 38.6649 26.8143 38.6411C26.8173 38.6173 26.8108 38.5933 26.7963 38.5742C26.7824 38.5557 26.7618 38.5435 26.739 38.5402Z" fill="#43B8C9"/>
<path fill-rule="evenodd" clip-rule="evenodd" d="M26.6476 38.334C26.6882 38.3236 26.7305 38.3215 26.772 38.3278C26.8515 38.3398 26.9231 38.3823 26.9716 38.4465C27.0209 38.5114 27.0428 38.593 27.0325 38.6739C27.0223 38.755 26.9805 38.8288 26.9163 38.8793L26.9158 38.8798L24.8546 40.4928L24.8535 40.4937C24.7885 40.5432 24.7066 40.5653 24.6255 40.555C24.545 40.5448 24.4717 40.5036 24.4212 40.4402C24.3958 40.4086 24.3768 40.3723 24.3653 40.3333C24.3537 40.2938 24.3501 40.2523 24.3547 40.2114C24.3593 40.1705 24.3721 40.1309 24.3922 40.0949C24.4123 40.059 24.4393 40.0275 24.4717 40.0022C24.4717 40.0021 24.4717 40.0022 24.4717 40.0022C24.4718 40.0021 24.4719 40.0021 24.4719 40.002L26.5348 38.389C26.5683 38.3632 26.6066 38.3445 26.6476 38.334Z" fill="#43B8C9"/>
<path d="M24.8273 40.5428C24.8129 40.6285 24.7734 40.708 24.7138 40.7712C24.6542 40.8344 24.5772 40.8785 24.4925 40.8979C24.4078 40.9173 24.3193 40.9112 24.2381 40.8802C24.1569 40.8493 24.0867 40.7949 24.0365 40.724C23.9862 40.6532 23.9581 40.569 23.9557 40.4821C23.9534 40.3953 23.9768 40.3097 24.0231 40.2362C24.0695 40.1626 24.1366 40.1045 24.2159 40.0692C24.2953 40.0339 24.3834 40.0229 24.469 40.0376C24.5834 40.0573 24.6853 40.1216 24.7525 40.2162C24.8196 40.3109 24.8465 40.4283 24.8273 40.5428Z" fill="#43B8C9"/>
<path fill-rule="evenodd" clip-rule="evenodd" d="M24.4317 40.2517C24.3889 40.2444 24.345 40.2499 24.3054 40.2675C24.2658 40.2851 24.2324 40.3141 24.2093 40.3508C24.1862 40.3874 24.1745 40.4301 24.1756 40.4734C24.1768 40.5168 24.1908 40.5588 24.2159 40.5941C24.241 40.6295 24.276 40.6566 24.3165 40.672C24.357 40.6874 24.4011 40.6905 24.4434 40.6808C24.4856 40.6712 24.524 40.6492 24.5538 40.6176C24.5835 40.5861 24.6032 40.5464 24.6104 40.5037C24.6199 40.4466 24.6065 40.388 24.573 40.3408C24.5395 40.2936 24.4887 40.2616 24.4317 40.2517ZM24.1265 39.8656C24.2456 39.8125 24.3779 39.796 24.5064 39.8182C24.6781 39.8478 24.8311 39.9442 24.9319 40.0863C25.0327 40.2284 25.0731 40.4047 25.0442 40.5765C25.0226 40.7052 24.9634 40.8245 24.8739 40.9194C24.7844 41.0143 24.6688 41.0805 24.5416 41.1097C24.4145 41.1388 24.2816 41.1296 24.1597 41.0831C24.0378 41.0366 23.9325 40.955 23.857 40.8486C23.7816 40.7422 23.7394 40.6158 23.7358 40.4854C23.7323 40.3551 23.7675 40.2265 23.837 40.1162C23.9066 40.0058 24.0073 39.9186 24.1265 39.8656Z" fill="#43B8C9"/>
<path d="M28.3009 39.5421C27.8251 39.5421 27.36 39.4011 26.9644 39.1368C26.5688 38.8725 26.2605 38.4969 26.0783 38.0574C25.8962 37.6179 25.8484 37.1342 25.9411 36.6676C26.0338 36.201 26.2628 35.7723 26.599 35.4358C26.9353 35.0992 27.3638 34.8699 27.8304 34.7769C28.297 34.6839 28.7807 34.7313 29.2203 34.9131C29.6599 35.0949 30.0358 35.403 30.3004 35.7984C30.5649 36.1938 30.7063 36.6588 30.7067 37.1345C30.7062 37.7726 30.4527 38.3844 30.0016 38.8358C29.5506 39.2872 28.9389 39.5412 28.3009 39.5421ZM28.3009 35.2321C27.924 35.2314 27.5554 35.3425 27.2418 35.5514C26.9281 35.7603 26.6835 36.0575 26.5388 36.4055C26.3942 36.7535 26.3561 37.1366 26.4293 37.5063C26.5025 37.8759 26.6838 38.2156 26.9501 38.4822C27.2165 38.7488 27.556 38.9304 27.9256 39.0039C28.2952 39.0775 28.6783 39.0397 29.0264 38.8954C29.3745 38.7511 29.672 38.5068 29.8812 38.1933C30.0904 37.8799 30.2019 37.5114 30.2015 37.1345C30.2011 36.6304 30.0007 36.1471 29.6444 35.7904C29.2881 35.4338 28.805 35.233 28.3009 35.2321Z" fill="#A672BB"/>
<path d="M28.3007 35.2266C27.9238 35.2259 27.5552 35.337 27.2416 35.5459C26.9279 35.7548 26.6833 36.052 26.5386 36.4C26.394 36.748 26.3559 37.1311 26.4291 37.5008C26.5023 37.8704 26.6836 38.2101 26.9499 38.4767C27.2163 38.7433 27.5557 38.9249 27.9254 38.9984C28.295 39.072 28.6781 39.0342 29.0262 38.8899C29.3743 38.7456 29.6718 38.5013 29.881 38.1878C30.0902 37.8744 30.2017 37.5059 30.2013 37.129C30.2008 36.6249 30.0005 36.1416 29.6442 35.7849C29.2879 35.4283 28.8048 35.2275 28.3007 35.2266Z" fill="#A672BB"/>
<path d="M29.9719 37.6312L29.5598 37.3929C29.6005 37.2113 29.6005 37.0229 29.5598 36.8412L29.9719 36.6029C29.9796 36.5986 29.9864 36.5929 29.9918 36.5859C29.9973 36.579 30.0013 36.571 30.0036 36.5625C30.006 36.554 30.0066 36.5451 30.0054 36.5364C30.0043 36.5276 30.0014 36.5192 29.9969 36.5116L29.6852 35.9741C29.6808 35.9665 29.6749 35.9599 29.6678 35.9547C29.6607 35.9494 29.6526 35.9457 29.644 35.9437C29.6362 35.9401 29.6276 35.9383 29.619 35.9383C29.6103 35.9383 29.6018 35.9401 29.5939 35.9437L29.1783 36.1837C29.0415 36.0581 28.8788 35.9639 28.7018 35.9079V35.4314C28.7018 35.4136 28.6949 35.3966 28.6825 35.3838C28.6701 35.3711 28.6532 35.3637 28.6355 35.3633H28.0103C27.9922 35.3633 27.9749 35.3705 27.9622 35.3832C27.9494 35.396 27.9422 35.4133 27.9422 35.4314V35.9079C27.7647 35.9639 27.602 36.0588 27.4657 36.1855L27.0519 35.9455C27.0351 35.9393 27.0167 35.9393 26.9999 35.9455C26.9827 35.9508 26.9681 35.9623 26.9587 35.9777L26.647 36.5151C26.6385 36.5306 26.6364 36.5489 26.6411 36.5659C26.6458 36.583 26.6569 36.5975 26.6721 36.6065L27.0859 36.8448C27.0453 37.0264 27.0453 37.2148 27.0859 37.3965L26.6721 37.6348C26.6643 37.6392 26.6574 37.6451 26.6519 37.6521C26.6464 37.6592 26.6423 37.6673 26.6399 37.676C26.6337 37.6927 26.6337 37.7111 26.6399 37.7279L26.9516 38.2653C26.9577 38.2756 26.9664 38.2841 26.9767 38.2901C26.9871 38.296 26.9988 38.2992 27.0107 38.2994C27.0227 38.2998 27.0345 38.2967 27.0447 38.2904L27.4585 38.0522C27.5957 38.1778 27.7582 38.2724 27.9351 38.3298V38.8063C27.9355 38.8241 27.9429 38.8409 27.9556 38.8533C27.9683 38.8657 27.9854 38.8726 28.0031 38.8726H28.6283C28.6458 38.8722 28.6624 38.865 28.6747 38.8527C28.687 38.8404 28.6942 38.8238 28.6946 38.8063V38.3298C28.8721 38.2729 29.0348 38.1775 29.1711 38.0504L29.5867 38.2904C29.5972 38.2961 29.6089 38.2992 29.6208 38.2994H29.6369C29.6455 38.297 29.6536 38.2929 29.6607 38.2874C29.6678 38.2818 29.6737 38.275 29.6781 38.2671L29.9898 37.7297C29.9954 37.7222 29.9995 37.7136 30.0017 37.7044C30.0039 37.6953 30.0041 37.6858 30.0024 37.6765C30.0007 37.6673 29.9972 37.6585 29.9919 37.6506C29.9866 37.6428 29.9798 37.6362 29.9719 37.6312Z" fill="white"/>
</svg>

