<?xml version="1.0" encoding="UTF-8" standalone="no"?>
<!--

    Copyright (C) 2017-2019 Dremio Corporation

    Licensed under the Apache License, Version 2.0 (the "License");
    you may not use this file except in compliance with the License.
    You may obtain a copy of the License at

        http://www.apache.org/licenses/LICENSE-2.0

    Unless required by applicable law or agreed to in writing, software
    distributed under the License is distributed on an "AS IS" BASIS,
    WITHOUT WARRANTIES OR CONDITIONS OF ANY KIND, either express or implied.
    See the License for the specific language governing permissions and
    limitations under the License.

-->
<svg width="761" height="433" viewBox="0 0 761 433" fill="none" xmlns="http://www.w3.org/2000/svg">
<path d="M121 120H155V172" stroke="#979797" stroke-dasharray="5 2"/>
<path d="M412 79H446V173" stroke="#979797" stroke-dasharray="5 2"/>
<path d="M415.5 123H445.5" stroke="#979797" stroke-dasharray="5 3"/>
<path d="M502 18H697V151" stroke="#979797"/>
<path d="M502 185H649V245" stroke="#979797"/>
<path d="M426 18H178V180" stroke="#979797"/>
<path d="M499 265.4C499.929 264.676 547.387 265.098 571 265.4V365" stroke="#979797"/>
<path d="M217 185.296C217.929 184.76 265.387 185.073 289 185.296V259" stroke="#979797"/>
<path d="M426 265.4C425.071 264.676 377.613 265.098 354 265.4V365" stroke="#979797"/>
<path d="M144 185.308C143.071 184.75 95.6129 185.076 72 185.308V262" stroke="#979797"/>
<path d="M464 0V172" stroke="#979797" stroke-width="0.75"/>
<path d="M464 190L464 259" stroke="#979797" stroke-width="0.75"/>
<path d="M464 257V429" stroke="#979797" stroke-width="0.75"/>
<path d="M182 177V349" stroke="#979797" stroke-width="0.75"/>
<g filter="url(#filter0_d)">
<path d="M426 3C426 1.34315 427.343 0 429 0H515C516.657 0 518 1.34315 518 3V33C518 34.6569 516.657 36 515 36H429C427.343 36 426 34.6569 426 33V3Z" fill="white"/>
<rect x="426" width="5" height="36" fill="#9FC5E8"/>
<path d="M436.58 14.2102H439.324V22H440.381V14.2102H443.125V13.2727H436.58V14.2102ZM444.756 22H445.813V18.0966H450.466V22H451.523V13.2727H450.466V17.1591H445.813V13.2727H444.756V22ZM454.696 13.2727H453.639V22H454.696V13.2727ZM461.587 15.4545H462.61C462.563 14.1378 461.349 13.1534 459.661 13.1534C457.991 13.1534 456.678 14.125 456.678 15.5909C456.678 16.767 457.531 17.4659 458.894 17.858L459.968 18.1648C460.888 18.4205 461.707 18.7443 461.707 19.6136C461.707 20.5682 460.786 21.1989 459.576 21.1989C458.536 21.1989 457.616 20.7386 457.531 19.75H456.44C456.542 21.1818 457.701 22.1534 459.576 22.1534C461.587 22.1534 462.729 21.0455 462.729 19.6307C462.729 17.9943 461.178 17.4659 460.275 17.2273L459.388 16.9886C458.741 16.8182 457.701 16.4773 457.701 15.5398C457.701 14.7045 458.468 14.0909 459.627 14.0909C460.684 14.0909 461.485 14.5938 461.587 15.4545ZM475.206 17.6364C475.206 14.875 473.586 13.1534 471.353 13.1534C469.12 13.1534 467.501 14.875 467.501 17.6364C467.501 20.3977 469.12 22.1193 471.353 22.1193C471.924 22.1193 472.453 22.0085 472.926 21.7955L473.689 22.8182H474.848L473.71 21.3054C474.639 20.5426 475.206 19.2727 475.206 17.6364ZM471.012 19.2727L472.308 20.9688C472.01 21.0753 471.69 21.1307 471.353 21.1307C469.768 21.1307 468.524 19.9034 468.524 17.6364C468.524 15.3693 469.768 14.142 471.353 14.142C472.939 14.142 474.183 15.3693 474.183 17.6364C474.183 18.9531 473.765 19.9162 473.1 20.4957L472.172 19.2727H471.012ZM482.71 13.2727V18.9659C482.71 20.2443 481.832 21.1648 480.375 21.1648C478.917 21.1648 478.039 20.2443 478.039 18.9659V13.2727H476.983V19.0511C476.983 20.8409 478.321 22.1534 480.375 22.1534C482.429 22.1534 483.767 20.8409 483.767 19.0511V13.2727H482.71ZM485.877 22H491.212V21.0625H486.934V18.0966H490.871V17.1591H486.934V14.2102H491.144V13.2727H485.877V22ZM493.049 22H494.106V18.5909H496.015C496.092 18.5909 496.164 18.5909 496.237 18.5866L498.077 22H499.305L497.332 18.3949C498.444 18.0156 498.964 17.108 498.964 15.9489C498.964 14.4062 498.043 13.2727 495.998 13.2727H493.049V22ZM494.106 17.6364V14.2102H495.964C497.379 14.2102 497.924 14.9006 497.924 15.9489C497.924 16.9972 497.379 17.6364 495.981 17.6364H494.106ZM499.682 13.2727L502.835 18.4034V22H503.892V18.4034L507.045 13.2727H505.835L503.415 17.3466H503.312L500.892 13.2727H499.682Z" fill="black"/>
<path d="M429 0.5H515V-0.5H429V0.5ZM517.5 3V33H518.5V3H517.5ZM515 35.5H429V36.5H515V35.5ZM426.5 33V3H425.5V33H426.5ZM429 35.5C427.619 35.5 426.5 34.3807 426.5 33H425.5C425.5 34.933 427.067 36.5 429 36.5V35.5ZM517.5 33C517.5 34.3807 516.381 35.5 515 35.5V36.5C516.933 36.5 518.5 34.933 518.5 33H517.5ZM515 0.5C516.381 0.5 517.5 1.61929 517.5 3H518.5C518.5 1.067 516.933 -0.5 515 -0.5V0.5ZM429 -0.5C427.067 -0.5 425.5 1.067 425.5 3H426.5C426.5 1.61929 427.619 0.5 429 0.5V-0.5Z" fill="#DDDDDD"/>
</g>
<g filter="url(#filter1_d)">
<path d="M289 70C289 68.3431 290.343 67 292 67H434C435.657 67 437 68.3431 437 70V100C437 101.657 435.657 103 434 103H292C290.343 103 289 101.657 289 100V70Z" fill="white"/>
<rect x="289" y="67" width="5" height="36" fill="#FCE5CD"/>
<path d="M299.58 81.2102H302.324V89H303.381V81.2102H306.125V80.2727H299.58V81.2102ZM307.756 89H308.813V85.5909H310.722C310.799 85.5909 310.871 85.5909 310.944 85.5866L312.784 89H314.012L312.039 85.3949C313.151 85.0156 313.671 84.108 313.671 82.9489C313.671 81.4062 312.75 80.2727 310.705 80.2727H307.756V89ZM308.813 84.6364V81.2102H310.671C312.086 81.2102 312.631 81.9006 312.631 82.9489C312.631 83.9972 312.086 84.6364 310.688 84.6364H308.813ZM315.79 89L316.668 86.5284H320.196L321.074 89H322.182L318.977 80.2727H317.886L314.682 89H315.79ZM317 85.5909L318.398 81.6534H318.466L319.864 85.5909H317ZM330.462 80.2727H329.422V87.142H329.337L324.564 80.2727H323.541V89H324.598V82.1477H324.683L329.439 89H330.462V80.2727ZM337.349 82.4545H338.372C338.325 81.1378 337.11 80.1534 335.423 80.1534C333.752 80.1534 332.44 81.125 332.44 82.5909C332.44 83.767 333.292 84.4659 334.656 84.858L335.73 85.1648C336.65 85.4205 337.468 85.7443 337.468 86.6136C337.468 87.5682 336.548 88.1989 335.338 88.1989C334.298 88.1989 333.377 87.7386 333.292 86.75H332.201C332.304 88.1818 333.463 89.1534 335.338 89.1534C337.349 89.1534 338.491 88.0455 338.491 86.6307C338.491 84.9943 336.94 84.4659 336.037 84.2273L335.15 83.9886C334.502 83.8182 333.463 83.4773 333.463 82.5398C333.463 81.7045 334.23 81.0909 335.389 81.0909C336.446 81.0909 337.247 81.5938 337.349 82.4545ZM340.587 89L341.464 86.5284H344.993L345.871 89H346.979L343.774 80.2727H342.683L339.479 89H340.587ZM341.797 85.5909L343.195 81.6534H343.263L344.661 85.5909H341.797ZM354.951 83C354.627 81.2102 353.195 80.1534 351.439 80.1534C349.206 80.1534 347.587 81.875 347.587 84.6364C347.587 87.3977 349.206 89.1193 351.439 89.1193C353.195 89.1193 354.627 88.0625 354.951 86.2727H353.894C353.638 87.483 352.598 88.1307 351.439 88.1307C349.854 88.1307 348.61 86.9034 348.61 84.6364C348.61 82.3693 349.854 81.142 351.439 81.142C352.598 81.142 353.638 81.7898 353.894 83H354.951ZM356.658 89H357.715V85.5909H359.624C359.701 85.5909 359.773 85.5909 359.846 85.5866L361.687 89H362.914L360.941 85.3949C362.053 85.0156 362.573 84.108 362.573 82.9489C362.573 81.4062 361.653 80.2727 359.607 80.2727H356.658V89ZM357.715 84.6364V81.2102H359.573C360.988 81.2102 361.533 81.9006 361.533 82.9489C361.533 83.9972 360.988 84.6364 359.59 84.6364H357.715ZM365.391 80.2727H364.334V89H365.391V80.2727ZM374.874 84.6364C374.874 81.875 373.254 80.1534 371.021 80.1534C368.788 80.1534 367.169 81.875 367.169 84.6364C367.169 87.3977 368.788 89.1193 371.021 89.1193C373.254 89.1193 374.874 87.3977 374.874 84.6364ZM373.851 84.6364C373.851 86.9034 372.607 88.1307 371.021 88.1307C369.436 88.1307 368.192 86.9034 368.192 84.6364C368.192 82.3693 369.436 81.142 371.021 81.142C372.607 81.142 373.851 82.3693 373.851 84.6364ZM383.571 80.2727H382.531V87.142H382.446L377.673 80.2727H376.651V89H377.707V82.1477H377.793L382.548 89H383.571V80.2727ZM390.458 82.4545H391.481C391.434 81.1378 390.22 80.1534 388.532 80.1534C386.862 80.1534 385.549 81.125 385.549 82.5909C385.549 83.767 386.402 84.4659 387.765 84.858L388.839 85.1648C389.76 85.4205 390.578 85.7443 390.578 86.6136C390.578 87.5682 389.657 88.1989 388.447 88.1989C387.407 88.1989 386.487 87.7386 386.402 86.75H385.311C385.413 88.1818 386.572 89.1534 388.447 89.1534C390.458 89.1534 391.6 88.0455 391.6 86.6307C391.6 84.9943 390.049 84.4659 389.146 84.2273L388.26 83.9886C387.612 83.8182 386.572 83.4773 386.572 82.5398C386.572 81.7045 387.339 81.0909 388.498 81.0909C389.555 81.0909 390.356 81.5938 390.458 82.4545ZM393.56 84.6364C393.56 86.7841 394.139 88.5739 395.179 90.0909H396.065C395.247 88.9659 394.599 86.6648 394.599 84.6364C394.599 82.608 395.247 80.3068 396.065 79.1818H395.179C394.139 80.6989 393.56 82.4886 393.56 84.6364ZM398.044 89L398.922 86.5284H402.45L403.328 89H404.436L401.231 80.2727H400.14L396.936 89H398.044ZM399.254 85.5909L400.652 81.6534H400.72L402.118 85.5909H399.254ZM411.351 83H412.442C412.118 81.3125 410.703 80.1534 408.862 80.1534C406.625 80.1534 405.044 81.875 405.044 84.6364C405.044 87.3977 406.612 89.1193 408.93 89.1193C411.01 89.1193 412.493 87.7344 412.493 85.5739V84.6364H409.169V85.5739H411.47C411.44 87.142 410.409 88.1307 408.93 88.1307C407.311 88.1307 406.067 86.9034 406.067 84.6364C406.067 82.3693 407.311 81.142 408.862 81.142C410.124 81.142 410.98 81.8537 411.351 83ZM420.269 83H421.36C421.036 81.3125 419.621 80.1534 417.78 80.1534C415.543 80.1534 413.962 81.875 413.962 84.6364C413.962 87.3977 415.53 89.1193 417.848 89.1193C419.928 89.1193 421.411 87.7344 421.411 85.5739V84.6364H418.087V85.5739H420.388C420.358 87.142 419.327 88.1307 417.848 88.1307C416.229 88.1307 414.985 86.9034 414.985 84.6364C414.985 82.3693 416.229 81.142 417.78 81.142C419.042 81.142 419.898 81.8537 420.269 83ZM425.232 84.6364C425.232 82.4886 424.653 80.6989 423.613 79.1818H422.727C423.545 80.3068 424.192 82.608 424.192 84.6364C424.192 86.6648 423.545 88.9659 422.727 90.0909H423.613C424.653 88.5739 425.232 86.7841 425.232 84.6364Z" fill="black"/>
<path d="M292 67.5H434V66.5H292V67.5ZM436.5 70V100H437.5V70H436.5ZM434 102.5H292V103.5H434V102.5ZM289.5 100V70H288.5V100H289.5ZM292 102.5C290.619 102.5 289.5 101.381 289.5 100H288.5C288.5 101.933 290.067 103.5 292 103.5V102.5ZM436.5 100C436.5 101.381 435.381 102.5 434 102.5V103.5C435.933 103.5 437.5 101.933 437.5 100H436.5ZM434 67.5C435.381 67.5 436.5 68.6193 436.5 70H437.5C437.5 68.067 435.933 66.5 434 66.5V67.5ZM292 66.5C290.067 66.5 288.5 68.067 288.5 70H289.5C289.5 68.6193 290.619 67.5 292 67.5V66.5Z" fill="#D8D8D8"/>
</g>
<g filter="url(#filter2_d)">
<path d="M289 114C289 112.343 290.343 111 292 111H435C436.657 111 438 112.343 438 114V144C438 145.657 436.657 147 435 147H292C290.343 147 289 145.657 289 144V114Z" fill="white"/>
<rect x="289" y="111" width="5" height="36" fill="#F9CB9C"/>
<path d="M299.58 125.21H302.324V133H303.381V125.21H306.125V124.273H299.58V125.21ZM307.756 133H308.813V129.591H310.722C310.799 129.591 310.871 129.591 310.944 129.587L312.784 133H314.012L312.039 129.395C313.151 129.016 313.671 128.108 313.671 126.949C313.671 125.406 312.75 124.273 310.705 124.273H307.756V133ZM308.813 128.636V125.21H310.671C312.086 125.21 312.631 125.901 312.631 126.949C312.631 127.997 312.086 128.636 310.688 128.636H308.813ZM315.79 133L316.668 130.528H320.196L321.074 133H322.182L318.977 124.273H317.886L314.682 133H315.79ZM317 129.591L318.398 125.653H318.466L319.864 129.591H317ZM330.462 124.273H329.422V131.142H329.337L324.564 124.273H323.541V133H324.598V126.148H324.683L329.439 133H330.462V124.273ZM337.349 126.455H338.372C338.325 125.138 337.11 124.153 335.423 124.153C333.752 124.153 332.44 125.125 332.44 126.591C332.44 127.767 333.292 128.466 334.656 128.858L335.73 129.165C336.65 129.42 337.468 129.744 337.468 130.614C337.468 131.568 336.548 132.199 335.338 132.199C334.298 132.199 333.377 131.739 333.292 130.75H332.201C332.304 132.182 333.463 133.153 335.338 133.153C337.349 133.153 338.491 132.045 338.491 130.631C338.491 128.994 336.94 128.466 336.037 128.227L335.15 127.989C334.502 127.818 333.463 127.477 333.463 126.54C333.463 125.705 334.23 125.091 335.389 125.091C336.446 125.091 337.247 125.594 337.349 126.455ZM340.587 133L341.464 130.528H344.993L345.871 133H346.979L343.774 124.273H342.683L339.479 133H340.587ZM341.797 129.591L343.195 125.653H343.263L344.661 129.591H341.797ZM354.951 127C354.627 125.21 353.195 124.153 351.439 124.153C349.206 124.153 347.587 125.875 347.587 128.636C347.587 131.398 349.206 133.119 351.439 133.119C353.195 133.119 354.627 132.062 354.951 130.273H353.894C353.638 131.483 352.598 132.131 351.439 132.131C349.854 132.131 348.61 130.903 348.61 128.636C348.61 126.369 349.854 125.142 351.439 125.142C352.598 125.142 353.638 125.79 353.894 127H354.951ZM356.181 125.21H358.925V133H359.982V125.21H362.727V124.273H356.181V125.21ZM365.414 124.273H364.358V133H365.414V124.273ZM374.897 128.636C374.897 125.875 373.278 124.153 371.045 124.153C368.812 124.153 367.192 125.875 367.192 128.636C367.192 131.398 368.812 133.119 371.045 133.119C373.278 133.119 374.897 131.398 374.897 128.636ZM373.874 128.636C373.874 130.903 372.63 132.131 371.045 132.131C369.46 132.131 368.215 130.903 368.215 128.636C368.215 126.369 369.46 125.142 371.045 125.142C372.63 125.142 373.874 126.369 373.874 128.636ZM383.594 124.273H382.555V131.142H382.469L377.697 124.273H376.674V133H377.731V126.148H377.816L382.572 133H383.594V124.273ZM390.482 126.455H391.505C391.458 125.138 390.243 124.153 388.556 124.153C386.885 124.153 385.573 125.125 385.573 126.591C385.573 127.767 386.425 128.466 387.789 128.858L388.863 129.165C389.783 129.42 390.601 129.744 390.601 130.614C390.601 131.568 389.681 132.199 388.471 132.199C387.431 132.199 386.51 131.739 386.425 130.75H385.334C385.436 132.182 386.596 133.153 388.471 133.153C390.482 133.153 391.624 132.045 391.624 130.631C391.624 128.994 390.073 128.466 389.169 128.227L388.283 127.989C387.635 127.818 386.596 127.477 386.596 126.54C386.596 125.705 387.363 125.091 388.522 125.091C389.578 125.091 390.38 125.594 390.482 126.455ZM393.583 128.636C393.583 130.784 394.163 132.574 395.202 134.091H396.089C395.271 132.966 394.623 130.665 394.623 128.636C394.623 126.608 395.271 124.307 396.089 123.182H395.202C394.163 124.699 393.583 126.489 393.583 128.636ZM397.709 133H398.766V129.591H400.675C400.752 129.591 400.824 129.591 400.897 129.587L402.738 133H403.965L401.992 129.395C403.104 129.016 403.624 128.108 403.624 126.949C403.624 125.406 402.703 124.273 400.658 124.273H397.709V133ZM398.766 128.636V125.21H400.624C402.039 125.21 402.584 125.901 402.584 126.949C402.584 127.997 402.039 128.636 400.641 128.636H398.766ZM405.743 133L406.621 130.528H410.149L411.027 133H412.135L408.93 124.273H407.839L404.635 133H405.743ZM406.953 129.591L408.351 125.653H408.419L409.817 129.591H406.953ZM414.4 133H415.491L417.417 126.045H417.485L419.411 133H420.502L422.888 124.273H421.815L419.991 131.381H419.906L418.048 124.273H416.854L414.996 131.381H414.911L413.087 124.273H412.013L414.4 133ZM426.217 128.636C426.217 126.489 425.637 124.699 424.597 123.182H423.711C424.529 124.307 425.177 126.608 425.177 128.636C425.177 130.665 424.529 132.966 423.711 134.091H424.597C425.637 132.574 426.217 130.784 426.217 128.636Z" fill="black"/>
<path d="M292 111.5H435V110.5H292V111.5ZM437.5 114V144H438.5V114H437.5ZM435 146.5H292V147.5H435V146.5ZM289.5 144V114H288.5V144H289.5ZM292 146.5C290.619 146.5 289.5 145.381 289.5 144H288.5C288.5 145.933 290.067 147.5 292 147.5V146.5ZM437.5 144C437.5 145.381 436.381 146.5 435 146.5V147.5C436.933 147.5 438.5 145.933 438.5 144H437.5ZM435 111.5C436.381 111.5 437.5 112.619 437.5 114H438.5C438.5 112.067 436.933 110.5 435 110.5V111.5ZM292 110.5C290.067 110.5 288.5 112.067 288.5 114H289.5C289.5 112.619 290.619 111.5 292 111.5V110.5Z" fill="#D8D8D8"/>
</g>
<g filter="url(#filter3_d)">
<path d="M377 176C377 174.343 378.343 173 380 173H558C559.657 173 561 174.343 561 176V206C561 207.657 559.657 209 558 209H380C378.343 209 377 207.657 377 206V176Z" fill="white"/>
<rect x="377" y="173" width="5" height="36" fill="#C0E9B1"/>
<path d="M392.719 188.565H393.989C393.95 187.168 392.714 186.153 390.942 186.153C389.19 186.153 387.848 187.155 387.848 188.659C387.848 189.874 388.717 190.585 390.119 190.964L391.151 191.246C392.084 191.493 392.804 191.8 392.804 192.575C392.804 193.428 391.99 193.99 390.869 193.99C389.855 193.99 389.011 193.538 388.935 192.588H387.614C387.699 194.169 388.922 195.145 390.878 195.145C392.928 195.145 394.108 194.067 394.108 192.588C394.108 191.016 392.706 190.406 391.598 190.134L390.746 189.912C390.064 189.737 389.156 189.418 389.161 188.582C389.161 187.841 389.838 187.291 390.912 187.291C391.913 187.291 392.625 187.76 392.719 188.565ZM402.93 189.111C402.632 187.244 401.17 186.153 399.325 186.153C397.066 186.153 395.4 187.845 395.4 190.636C395.4 193.428 397.058 195.119 399.325 195.119C401.243 195.119 402.645 193.918 402.93 192.192L401.6 192.188C401.375 193.304 400.437 193.918 399.333 193.918C397.838 193.918 396.708 192.771 396.708 190.636C396.708 188.518 397.833 187.355 399.338 187.355C400.45 187.355 401.383 187.982 401.6 189.111H402.93ZM404.506 195H405.822V191.697H407.612C407.642 191.697 407.668 191.697 407.697 191.697L409.47 195H410.97L409.036 191.467C410.105 191.071 410.638 190.18 410.638 189.009C410.638 187.402 409.641 186.273 407.616 186.273H404.506V195ZM405.822 190.564V187.402H407.476C408.776 187.402 409.312 188.02 409.312 189.009C409.312 189.993 408.776 190.564 407.493 190.564H405.822ZM417.852 186.273V191.906C417.852 193.091 417.034 193.943 415.705 193.943C414.379 193.943 413.557 193.091 413.557 191.906V186.273H412.24V192.013C412.24 193.845 413.612 195.145 415.705 195.145C417.797 195.145 419.173 193.845 419.173 192.013V186.273H417.852ZM421.088 195H424.433C426.461 195 427.377 193.99 427.377 192.652C427.377 191.301 426.431 190.538 425.566 190.491V190.406C426.368 190.202 427.037 189.656 427.037 188.565C427.037 187.274 426.142 186.273 424.284 186.273H421.088V195ZM422.404 193.871V191.075H424.352C425.409 191.075 426.069 191.757 426.069 192.588C426.069 193.321 425.571 193.871 424.305 193.871H422.404ZM422.404 190.048V187.393H424.203C425.247 187.393 425.745 187.943 425.745 188.668C425.745 189.511 425.055 190.048 424.169 190.048H422.404ZM428.939 195H432.284C434.313 195 435.229 193.99 435.229 192.652C435.229 191.301 434.283 190.538 433.418 190.491V190.406C434.219 190.202 434.888 189.656 434.888 188.565C434.888 187.274 433.993 186.273 432.135 186.273H428.939V195ZM430.256 193.871V191.075H432.203C433.26 191.075 433.921 191.757 433.921 192.588C433.921 193.321 433.422 193.871 432.157 193.871H430.256ZM430.256 190.048V187.393H432.054C433.098 187.393 433.597 187.943 433.597 188.668C433.597 189.511 432.907 190.048 432.02 190.048H430.256ZM436.791 195H442.314V193.866H438.108V191.195H441.977V190.065H438.108V187.406H442.262V186.273H436.791V195ZM446.847 195C449.506 195 451.044 193.351 451.044 190.624C451.044 187.909 449.506 186.273 446.936 186.273H444.021V195H446.847ZM445.338 193.849V187.423H446.855C448.764 187.423 449.749 188.565 449.749 190.624C449.749 192.69 448.764 193.849 446.774 193.849H445.338ZM456.773 195H451.229V196.082H456.773V195ZM456.61 187.406H459.329V195H460.642V187.406H463.365V186.273H456.61V187.406ZM464.857 195H466.174V191.697H467.964C467.994 191.697 468.019 191.697 468.049 191.697L469.822 195H471.322L469.387 191.467C470.457 191.071 470.989 190.18 470.989 189.009C470.989 187.402 469.992 186.273 467.968 186.273H464.857V195ZM466.174 190.564V187.402H467.827C469.127 187.402 469.664 188.02 469.664 189.009C469.664 189.993 469.127 190.564 467.844 190.564H466.174ZM473.329 195L474.13 192.69H477.539L478.336 195H479.734L476.593 186.273H475.072L471.931 195H473.329ZM474.513 191.582L475.8 187.858H475.869L477.156 191.582H474.513ZM488.038 186.273H486.734V192.682H486.653L482.213 186.273H480.994V195H482.311V188.599H482.392L486.828 195H488.038V186.273ZM494.719 188.565H495.989C495.95 187.168 494.714 186.153 492.942 186.153C491.19 186.153 489.848 187.155 489.848 188.659C489.848 189.874 490.717 190.585 492.119 190.964L493.151 191.246C494.084 191.493 494.804 191.8 494.804 192.575C494.804 193.428 493.99 193.99 492.869 193.99C491.855 193.99 491.011 193.538 490.935 192.588H489.614C489.699 194.169 490.922 195.145 492.878 195.145C494.928 195.145 496.108 194.067 496.108 192.588C496.108 191.016 494.706 190.406 493.598 190.134L492.746 189.912C492.064 189.737 491.156 189.418 491.161 188.582C491.161 187.841 491.838 187.291 492.912 187.291C493.913 187.291 494.625 187.76 494.719 188.565ZM498.348 195L499.15 192.69H502.559L503.355 195H504.753L501.613 186.273H500.091L496.951 195H498.348ZM499.533 191.582L500.82 187.858H500.888L502.175 191.582H499.533ZM512.852 189.111C512.554 187.244 511.092 186.153 509.247 186.153C506.988 186.153 505.322 187.845 505.322 190.636C505.322 193.428 506.98 195.119 509.247 195.119C511.164 195.119 512.566 193.918 512.852 192.192L511.522 192.188C511.297 193.304 510.359 193.918 509.255 193.918C507.76 193.918 506.63 192.771 506.63 190.636C506.63 188.518 507.755 187.355 509.26 187.355C510.372 187.355 511.305 187.982 511.522 189.111H512.852ZM513.997 187.406H516.716V195H518.028V187.406H520.751V186.273H513.997V187.406ZM523.561 186.273H522.244V195H523.561V186.273ZM533.059 190.636C533.059 187.845 531.389 186.153 529.13 186.153C526.863 186.153 525.197 187.845 525.197 190.636C525.197 193.423 526.863 195.119 529.13 195.119C531.389 195.119 533.059 193.428 533.059 190.636ZM531.755 190.636C531.755 192.763 530.63 193.918 529.13 193.918C527.626 193.918 526.505 192.763 526.505 190.636C526.505 188.51 527.626 187.355 529.13 187.355C530.63 187.355 531.755 188.51 531.755 190.636ZM541.745 186.273H540.441V192.682H540.36L535.92 186.273H534.701V195H536.018V188.599H536.099L540.535 195H541.745V186.273ZM548.426 188.565H549.696C549.657 187.168 548.422 186.153 546.649 186.153C544.897 186.153 543.555 187.155 543.555 188.659C543.555 189.874 544.424 190.585 545.826 190.964L546.858 191.246C547.791 191.493 548.511 191.8 548.511 192.575C548.511 193.428 547.697 193.99 546.576 193.99C545.562 193.99 544.718 193.538 544.642 192.588H543.321C543.406 194.169 544.629 195.145 546.585 195.145C548.635 195.145 549.815 194.067 549.815 192.588C549.815 191.016 548.413 190.406 547.305 190.134L546.453 189.912C545.771 189.737 544.863 189.418 544.868 188.582C544.868 187.841 545.545 187.291 546.619 187.291C547.62 187.291 548.332 187.76 548.426 188.565Z" fill="black"/>
<path d="M380 173.5H558V172.5H380V173.5ZM560.5 176V206H561.5V176H560.5ZM558 208.5H380V209.5H558V208.5ZM377.5 206V176H376.5V206H377.5ZM380 208.5C378.619 208.5 377.5 207.381 377.5 206H376.5C376.5 207.933 378.067 209.5 380 209.5V208.5ZM560.5 206C560.5 207.381 559.381 208.5 558 208.5V209.5C559.933 209.5 561.5 207.933 561.5 206H560.5ZM558 173.5C559.381 173.5 560.5 174.619 560.5 176H561.5C561.5 174.067 559.933 172.5 558 172.5V173.5ZM380 172.5C378.067 172.5 376.5 174.067 376.5 176H377.5C377.5 174.619 378.619 173.5 380 173.5V172.5Z" fill="#D8D8D8"/>
</g>
<g filter="url(#filter4_d)">
<path d="M2 106C2 104.343 3.34315 103 5 103H133C134.657 103 136 104.343 136 106V136C136 137.657 134.657 139 133 139H5C3.34314 139 2 137.657 2 136V106Z" fill="white"/>
<rect x="2" y="103" width="5" height="36" fill="#F9CB9C"/>
<path d="M20.0795 119C19.7557 117.21 18.3239 116.153 16.5682 116.153C14.3352 116.153 12.7159 117.875 12.7159 120.636C12.7159 123.398 14.3352 125.119 16.5682 125.119C18.3239 125.119 19.7557 124.062 20.0795 122.273H19.0227C18.767 123.483 17.7273 124.131 16.5682 124.131C14.983 124.131 13.7386 122.903 13.7386 120.636C13.7386 118.369 14.983 117.142 16.5682 117.142C17.7273 117.142 18.767 117.79 19.0227 119H20.0795ZM27.5146 116.273V121.966C27.5146 123.244 26.6367 124.165 25.1793 124.165C23.7219 124.165 22.8441 123.244 22.8441 121.966V116.273H21.7873V122.051C21.7873 123.841 23.1254 125.153 25.1793 125.153C27.2333 125.153 28.5714 123.841 28.5714 122.051V116.273H27.5146ZM35.4545 118.455H36.4773C36.4304 117.138 35.2159 116.153 33.5284 116.153C31.858 116.153 30.5455 117.125 30.5455 118.591C30.5455 119.767 31.3977 120.466 32.7614 120.858L33.8352 121.165C34.7557 121.42 35.5739 121.744 35.5739 122.614C35.5739 123.568 34.6534 124.199 33.4432 124.199C32.4034 124.199 31.483 123.739 31.3977 122.75H30.3068C30.4091 124.182 31.5682 125.153 33.4432 125.153C35.4545 125.153 36.5966 124.045 36.5966 122.631C36.5966 120.994 35.0455 120.466 34.142 120.227L33.2557 119.989C32.608 119.818 31.5682 119.477 31.5682 118.54C31.5682 117.705 32.3352 117.091 33.4943 117.091C34.5511 117.091 35.3523 117.594 35.4545 118.455ZM37.8569 117.21H40.6012V125H41.658V117.21H44.4023V116.273H37.8569V117.21ZM53.0337 120.636C53.0337 117.875 51.4144 116.153 49.1815 116.153C46.9485 116.153 45.3292 117.875 45.3292 120.636C45.3292 123.398 46.9485 125.119 49.1815 125.119C51.4144 125.119 53.0337 123.398 53.0337 120.636ZM52.011 120.636C52.011 122.903 50.7667 124.131 49.1815 124.131C47.5962 124.131 46.3519 122.903 46.3519 120.636C46.3519 118.369 47.5962 117.142 49.1815 117.142C50.7667 117.142 52.011 118.369 52.011 120.636ZM54.8107 116.273V125H55.7994V118.369H55.8846L58.6119 125H59.5664L62.2937 118.369H62.3789V125H63.3675V116.273H62.1062L59.1403 123.517H59.038L56.0721 116.273H54.8107ZM65.4865 125H70.8217V124.062H66.5433V121.097H70.4808V120.159H66.5433V117.21H70.7536V116.273H65.4865V125ZM72.6584 125H73.7152V121.591H75.6243C75.701 121.591 75.7734 121.591 75.8459 121.587L77.6868 125H78.9141L76.9411 121.395C78.0533 121.016 78.5732 120.108 78.5732 118.949C78.5732 117.406 77.6527 116.273 75.6072 116.273H72.6584V125ZM73.7152 120.636V117.21H75.5732C76.9879 117.21 77.5334 117.901 77.5334 118.949C77.5334 119.997 76.9879 120.636 75.5902 120.636H73.7152ZM85.1069 118.455H86.1296C86.0827 117.138 84.8683 116.153 83.1808 116.153C81.5103 116.153 80.1978 117.125 80.1978 118.591C80.1978 119.767 81.0501 120.466 82.4137 120.858L83.4876 121.165C84.408 121.42 85.2262 121.744 85.2262 122.614C85.2262 123.568 84.3058 124.199 83.0955 124.199C82.0558 124.199 81.1353 123.739 81.0501 122.75H79.9592C80.0614 124.182 81.2205 125.153 83.0955 125.153C85.1069 125.153 86.2489 124.045 86.2489 122.631C86.2489 120.994 84.6978 120.466 83.7944 120.227L82.908 119.989C82.2603 119.818 81.2205 119.477 81.2205 118.54C81.2205 117.705 81.9876 117.091 83.1467 117.091C84.2035 117.091 85.0046 117.594 85.1069 118.455ZM91.5831 120.636C91.5831 122.784 92.1626 124.574 93.2024 126.091H94.0888C93.2706 124.966 92.6229 122.665 92.6229 120.636C92.6229 118.608 93.2706 116.307 94.0888 115.182H93.2024C92.1626 116.699 91.5831 118.489 91.5831 120.636ZM95.7092 125H96.766V121.591H98.6751C98.7518 121.591 98.8242 121.591 98.8967 121.587L100.738 125H101.965L99.9918 121.395C101.104 121.016 101.624 120.108 101.624 118.949C101.624 117.406 100.703 116.273 98.658 116.273H95.7092V125ZM96.766 120.636V117.21H98.6239C100.039 117.21 100.584 117.901 100.584 118.949C100.584 119.997 100.039 120.636 98.641 120.636H96.766ZM103.743 125L104.621 122.528H108.149L109.027 125H110.135L106.93 116.273H105.839L102.635 125H103.743ZM104.953 121.591L106.351 117.653H106.419L107.817 121.591H104.953ZM112.4 125H113.491L115.417 118.045H115.485L117.411 125H118.502L120.888 116.273H119.815L117.991 123.381H117.906L116.048 116.273H114.854L112.996 123.381H112.911L111.087 116.273H110.013L112.4 125ZM124.217 120.636C124.217 118.489 123.637 116.699 122.597 115.182H121.711C122.529 116.307 123.177 118.608 123.177 120.636C123.177 122.665 122.529 124.966 121.711 126.091H122.597C123.637 124.574 124.217 122.784 124.217 120.636Z" fill="black"/>
<path d="M5 103.5H133V102.5H5V103.5ZM135.5 106V136H136.5V106H135.5ZM133 138.5H5V139.5H133V138.5ZM2.5 136V106H1.5V136H2.5ZM5 138.5C3.61929 138.5 2.5 137.381 2.5 136H1.5C1.5 137.933 3.067 139.5 5 139.5V138.5ZM135.5 136C135.5 137.381 134.381 138.5 133 138.5V139.5C134.933 139.5 136.5 137.933 136.5 136H135.5ZM133 103.5C134.381 103.5 135.5 104.619 135.5 106H136.5C136.5 104.067 134.933 102.5 133 102.5V103.5ZM5 102.5C3.067 102.5 1.5 104.067 1.5 106H2.5C2.5 104.619 3.61929 103.5 5 103.5V102.5Z" fill="#D8D8D8"/>
</g>
<g filter="url(#filter5_d)">
<path d="M141 176C141 174.343 142.343 173 144 173H234C235.657 173 237 174.343 237 176V206C237 207.657 235.657 209 234 209H144C142.343 209 141 207.657 141 206V176Z" fill="white"/>
<rect x="141" y="173" width="5" height="36" fill="#C0E9B1"/>
<path d="M159.207 189.111C158.909 187.244 157.447 186.153 155.602 186.153C153.344 186.153 151.678 187.845 151.678 190.636C151.678 193.428 153.335 195.119 155.602 195.119C157.52 195.119 158.922 193.918 159.207 192.192L157.878 192.188C157.652 193.304 156.714 193.918 155.611 193.918C154.115 193.918 152.986 192.771 152.986 190.636C152.986 188.518 154.111 187.355 155.615 187.355C156.727 187.355 157.661 187.982 157.878 189.111H159.207ZM166.395 186.273V191.906C166.395 193.091 165.577 193.943 164.248 193.943C162.922 193.943 162.1 193.091 162.1 191.906V186.273H160.783V192.013C160.783 193.845 162.155 195.145 164.248 195.145C166.34 195.145 167.716 193.845 167.716 192.013V186.273H166.395ZM174.391 188.565H175.661C175.622 187.168 174.386 186.153 172.614 186.153C170.862 186.153 169.52 187.155 169.52 188.659C169.52 189.874 170.389 190.585 171.791 190.964L172.822 191.246C173.756 191.493 174.476 191.8 174.476 192.575C174.476 193.428 173.662 193.99 172.541 193.99C171.527 193.99 170.683 193.538 170.607 192.588H169.286C169.371 194.169 170.594 195.145 172.55 195.145C174.599 195.145 175.78 194.067 175.78 192.588C175.78 191.016 174.378 190.406 173.27 190.134L172.418 189.912C171.736 189.737 170.828 189.418 170.832 188.582C170.832 187.841 171.51 187.291 172.584 187.291C173.585 187.291 174.297 187.76 174.391 188.565ZM176.923 187.406H179.642V195H180.954V187.406H183.677V186.273H176.923V187.406ZM192.387 190.636C192.387 187.845 190.717 186.153 188.458 186.153C186.191 186.153 184.525 187.845 184.525 190.636C184.525 193.423 186.191 195.119 188.458 195.119C190.717 195.119 192.387 193.428 192.387 190.636ZM191.083 190.636C191.083 192.763 189.958 193.918 188.458 193.918C186.954 193.918 185.833 192.763 185.833 190.636C185.833 188.51 186.954 187.355 188.458 187.355C189.958 187.355 191.083 188.51 191.083 190.636ZM194.029 186.273V195H195.282V188.68H195.363L197.937 194.987H198.977L201.55 188.685H201.631V195H202.884V186.273H201.286L198.508 193.057H198.406L195.627 186.273H194.029ZM204.799 195H210.321V193.866H206.115V191.195H209.985V190.065H206.115V187.406H210.27V186.273H204.799V195ZM212.029 195H213.346V191.697H215.136C215.165 191.697 215.191 191.697 215.221 191.697L216.994 195H218.494L216.559 191.467C217.629 191.071 218.161 190.18 218.161 189.009C218.161 187.402 217.164 186.273 215.14 186.273H212.029V195ZM213.346 190.564V187.402H214.999C216.299 187.402 216.836 188.02 216.836 189.009C216.836 189.993 216.299 190.564 215.016 190.564H213.346ZM224.523 188.565H225.793C225.755 187.168 224.519 186.153 222.746 186.153C220.995 186.153 219.653 187.155 219.653 188.659C219.653 189.874 220.522 190.585 221.924 190.964L222.955 191.246C223.888 191.493 224.609 191.8 224.609 192.575C224.609 193.428 223.795 193.99 222.674 193.99C221.66 193.99 220.816 193.538 220.739 192.588H219.418C219.504 194.169 220.727 195.145 222.683 195.145C224.732 195.145 225.913 194.067 225.913 192.588C225.913 191.016 224.511 190.406 223.403 190.134L222.55 189.912C221.869 189.737 220.961 189.418 220.965 188.582C220.965 187.841 221.643 187.291 222.717 187.291C223.718 187.291 224.43 187.76 224.523 188.565Z" fill="black"/>
<path d="M144 173.5H234V172.5H144V173.5ZM236.5 176V206H237.5V176H236.5ZM234 208.5H144V209.5H234V208.5ZM141.5 206V176H140.5V206H141.5ZM144 208.5C142.619 208.5 141.5 207.381 141.5 206H140.5C140.5 207.933 142.067 209.5 144 209.5V208.5ZM236.5 206C236.5 207.381 235.381 208.5 234 208.5V209.5C235.933 209.5 237.5 207.933 237.5 206H236.5ZM234 173.5C235.381 173.5 236.5 174.619 236.5 176H237.5C237.5 174.067 235.933 172.5 234 172.5V173.5ZM144 172.5C142.067 172.5 140.5 174.067 140.5 176H141.5C141.5 174.619 142.619 173.5 144 173.5V172.5Z" fill="#D8D8D8"/>
</g>
<g filter="url(#filter6_d)">
<path d="M377 250C377 248.343 378.343 247 380 247H555C556.657 247 558 248.343 558 250V280C558 281.657 556.657 283 555 283H380C378.343 283 377 281.657 377 280V250Z" fill="white"/>
<rect x="377" y="247" width="5" height="36" fill="#C0E9B1"/>
<path d="M387.528 261.406H390.247V269H391.56V261.406H394.283V260.273H387.528V261.406ZM395.775 269H397.092V265.697H398.882C398.912 265.697 398.937 265.697 398.967 265.697L400.74 269H402.24L400.305 265.467C401.375 265.071 401.907 264.18 401.907 263.009C401.907 261.402 400.91 260.273 398.886 260.273H395.775V269ZM397.092 264.564V261.402H398.745C400.045 261.402 400.582 262.02 400.582 263.009C400.582 263.993 400.045 264.564 398.762 264.564H397.092ZM404.247 269L405.048 266.69H408.457L409.254 269H410.652L407.511 260.273H405.99L402.849 269H404.247ZM405.431 265.582L406.718 261.858H406.787L408.074 265.582H405.431ZM418.956 260.273H417.652V266.682H417.571L413.131 260.273H411.912V269H413.229V262.599H413.31L417.746 269H418.956V260.273ZM425.637 262.565H426.907C426.868 261.168 425.632 260.153 423.86 260.153C422.108 260.153 420.766 261.155 420.766 262.659C420.766 263.874 421.635 264.585 423.037 264.964L424.069 265.246C425.002 265.493 425.722 265.8 425.722 266.575C425.722 267.428 424.908 267.99 423.787 267.99C422.773 267.99 421.929 267.538 421.853 266.588H420.532C420.617 268.169 421.84 269.145 423.796 269.145C425.846 269.145 427.026 268.067 427.026 266.588C427.026 265.016 425.624 264.406 424.516 264.134L423.664 263.912C422.982 263.737 422.074 263.418 422.078 262.582C422.078 261.841 422.756 261.291 423.83 261.291C424.831 261.291 425.543 261.76 425.637 262.565ZM429.266 269L430.067 266.69H433.477L434.273 269H435.671L432.531 260.273H431.009L427.869 269H429.266ZM430.451 265.582L431.738 261.858H431.806L433.093 265.582H430.451ZM443.77 263.111C443.472 261.244 442.01 260.153 440.165 260.153C437.906 260.153 436.24 261.845 436.24 264.636C436.24 267.428 437.898 269.119 440.165 269.119C442.082 269.119 443.484 267.918 443.77 266.192L442.44 266.188C442.214 267.304 441.277 267.918 440.173 267.918C438.678 267.918 437.548 266.771 437.548 264.636C437.548 262.518 438.673 261.355 440.178 261.355C441.29 261.355 442.223 261.982 442.44 263.111H443.77ZM444.915 261.406H447.634V269H448.946V261.406H451.669V260.273H444.915V261.406ZM454.479 260.273H453.162V269H454.479V260.273ZM463.977 264.636C463.977 261.845 462.307 260.153 460.048 260.153C457.781 260.153 456.115 261.845 456.115 264.636C456.115 267.423 457.781 269.119 460.048 269.119C462.307 269.119 463.977 267.428 463.977 264.636ZM462.673 264.636C462.673 266.763 461.548 267.918 460.048 267.918C458.544 267.918 457.423 266.763 457.423 264.636C457.423 262.51 458.544 261.355 460.048 261.355C461.548 261.355 462.673 262.51 462.673 264.636ZM472.663 260.273H471.359V266.682H471.278L466.838 260.273H465.619V269H466.936V262.599H467.017L471.453 269H472.663V260.273ZM479.344 262.565H480.614C480.575 261.168 479.339 260.153 477.567 260.153C475.815 260.153 474.473 261.155 474.473 262.659C474.473 263.874 475.342 264.585 476.744 264.964L477.776 265.246C478.709 265.493 479.429 265.8 479.429 266.575C479.429 267.428 478.615 267.99 477.494 267.99C476.48 267.99 475.636 267.538 475.56 266.588H474.239C474.324 268.169 475.547 269.145 477.503 269.145C479.553 269.145 480.733 268.067 480.733 266.588C480.733 265.016 479.331 264.406 478.223 264.134L477.371 263.912C476.689 263.737 475.781 263.418 475.786 262.582C475.786 261.841 476.463 261.291 477.537 261.291C478.538 261.291 479.25 261.76 479.344 262.565ZM486.879 269H481.335V270.082H486.879V269ZM487.826 269H493.349V267.866H489.143V265.195H493.012V264.065H489.143V261.406H493.298V260.273H487.826V269ZM502.1 260.273H500.797V266.682H500.716L496.275 260.273H495.056V269H496.373V262.599H496.454L500.89 269H502.1V260.273ZM504.021 269H505.338V265.697H507.128C507.158 265.697 507.183 265.697 507.213 265.697L508.986 269H510.486L508.551 265.467C509.621 265.071 510.153 264.18 510.153 263.009C510.153 261.402 509.156 260.273 507.132 260.273H504.021V269ZM505.338 264.564V261.402H506.991C508.291 261.402 508.828 262.02 508.828 263.009C508.828 263.993 508.291 264.564 507.009 264.564H505.338ZM513.072 260.273H511.756V269H513.072V260.273ZM522.239 263.111C521.94 261.244 520.479 260.153 518.634 260.153C516.375 260.153 514.709 261.845 514.709 264.636C514.709 267.428 516.366 269.119 518.634 269.119C520.551 269.119 521.953 267.918 522.239 266.192L520.909 266.188C520.683 267.304 519.746 267.918 518.642 267.918C517.146 267.918 516.017 266.771 516.017 264.636C516.017 262.518 517.142 261.355 518.646 261.355C519.759 261.355 520.692 261.982 520.909 263.111H522.239ZM523.814 269H525.131V265.195H529.482V269H530.803V260.273H529.482V264.065H525.131V260.273H523.814V269ZM532.721 269H538.243V267.866H534.037V265.195H537.907V264.065H534.037V261.406H538.192V260.273H532.721V269ZM542.776 269C545.435 269 546.974 267.351 546.974 264.624C546.974 261.909 545.435 260.273 542.866 260.273H539.951V269H542.776ZM541.268 267.849V261.423H542.785C544.694 261.423 545.678 262.565 545.678 264.624C545.678 266.69 544.694 267.849 542.704 267.849H541.268Z" fill="black"/>
<path d="M380 247.5H555V246.5H380V247.5ZM557.5 250V280H558.5V250H557.5ZM555 282.5H380V283.5H555V282.5ZM377.5 280V250H376.5V280H377.5ZM380 282.5C378.619 282.5 377.5 281.381 377.5 280H376.5C376.5 281.933 378.067 283.5 380 283.5V282.5ZM557.5 280C557.5 281.381 556.381 282.5 555 282.5V283.5C556.933 283.5 558.5 281.933 558.5 280H557.5ZM555 247.5C556.381 247.5 557.5 248.619 557.5 250H558.5C558.5 248.067 556.933 246.5 555 246.5V247.5ZM380 246.5C378.067 246.5 376.5 248.067 376.5 250H377.5C377.5 248.619 378.619 247.5 380 247.5V246.5Z" fill="#D8D8D8"/>
</g>
<g filter="url(#filter7_d)">
<path d="M15 250C15 248.343 16.3431 247 18 247H135C136.657 247 138 248.343 138 250V280C138 281.657 136.657 283 135 283H18C16.3431 283 15 281.657 15 280V250Z" fill="white"/>
<rect x="15" y="247" width="5" height="36" fill="#EAD1DC"/>
<path d="M26.696 269L27.4972 266.69H30.9062L31.7031 269H33.1009L29.9602 260.273H28.4389L25.2983 269H26.696ZM27.8807 265.582L29.1676 261.858H29.2358L30.5227 265.582H27.8807ZM34.3612 269H39.6325V267.866H35.6779V260.273H34.3612V269ZM41.1346 269H46.4059V267.866H42.4513V260.273H41.1346V269ZM52.4805 269H46.9364V270.082H52.4805V269ZM60.1957 263.111C59.8974 261.244 58.4357 260.153 56.5906 260.153C54.332 260.153 52.6658 261.845 52.6658 264.636C52.6658 267.428 54.3235 269.119 56.5906 269.119C58.5082 269.119 59.9102 267.918 60.1957 266.192L58.8661 266.188C58.6403 267.304 57.7028 267.918 56.5991 267.918C55.1033 267.918 53.9741 266.771 53.9741 264.636C53.9741 262.518 55.0991 261.355 56.6033 261.355C57.7156 261.355 58.6488 261.982 58.8661 263.111H60.1957ZM67.3835 260.273V265.906C67.3835 267.091 66.5653 267.943 65.2358 267.943C63.9105 267.943 63.0881 267.091 63.0881 265.906V260.273H61.7713V266.013C61.7713 267.845 63.1435 269.145 65.2358 269.145C67.3281 269.145 68.7045 267.845 68.7045 266.013V260.273H67.3835ZM75.3789 262.565H76.6488C76.6104 261.168 75.3746 260.153 73.6019 260.153C71.8505 260.153 70.5082 261.155 70.5082 262.659C70.5082 263.874 71.3775 264.585 72.7795 264.964L73.8107 265.246C74.744 265.493 75.4641 265.8 75.4641 266.575C75.4641 267.428 74.6502 267.99 73.5295 267.99C72.5153 267.99 71.6715 267.538 71.5948 266.588H70.2738C70.359 268.169 71.582 269.145 73.538 269.145C75.5877 269.145 76.7681 268.067 76.7681 266.588C76.7681 265.016 75.3661 264.406 74.2582 264.134L73.4059 263.912C72.7241 263.737 71.8164 263.418 71.8207 262.582C71.8207 261.841 72.4982 261.291 73.5721 261.291C74.5735 261.291 75.2852 261.76 75.3789 262.565ZM77.9112 261.406H80.63V269H81.9425V261.406H84.6655V260.273H77.9112V261.406ZM93.3757 264.636C93.3757 261.845 91.7053 260.153 89.4467 260.153C87.1797 260.153 85.5135 261.845 85.5135 264.636C85.5135 267.423 87.1797 269.119 89.4467 269.119C91.7053 269.119 93.3757 267.428 93.3757 264.636ZM92.0717 264.636C92.0717 266.763 90.9467 267.918 89.4467 267.918C87.9425 267.918 86.8217 266.763 86.8217 264.636C86.8217 262.51 87.9425 261.355 89.4467 261.355C90.9467 261.355 92.0717 262.51 92.0717 264.636ZM95.0174 260.273V269H96.2702V262.68H96.3512L98.9251 268.987H99.9648L102.539 262.685H102.62V269H103.873V260.273H102.275L99.4961 267.057H99.3938L96.6154 260.273H95.0174ZM105.787 269H111.31V267.866H107.104V265.195H110.973V264.065H107.104V261.406H111.259V260.273H105.787V269ZM113.017 269H114.334V265.697H116.124C116.154 265.697 116.179 265.697 116.209 265.697L117.982 269H119.482L117.547 265.467C118.617 265.071 119.15 264.18 119.15 263.009C119.15 261.402 118.152 260.273 116.128 260.273H113.017V269ZM114.334 264.564V261.402H115.988C117.287 261.402 117.824 262.02 117.824 263.009C117.824 263.993 117.287 264.564 116.005 264.564H114.334ZM125.512 262.565H126.782C126.743 261.168 125.507 260.153 123.735 260.153C121.983 260.153 120.641 261.155 120.641 262.659C120.641 263.874 121.51 264.585 122.912 264.964L123.944 265.246C124.877 265.493 125.597 265.8 125.597 266.575C125.597 267.428 124.783 267.99 123.662 267.99C122.648 267.99 121.804 267.538 121.728 266.588H120.407C120.492 268.169 121.715 269.145 123.671 269.145C125.721 269.145 126.901 268.067 126.901 266.588C126.901 265.016 125.499 264.406 124.391 264.134L123.539 263.912C122.857 263.737 121.949 263.418 121.953 262.582C121.953 261.841 122.631 261.291 123.705 261.291C124.706 261.291 125.418 261.76 125.512 262.565Z" fill="black"/>
<path d="M18 247.5H135V246.5H18V247.5ZM137.5 250V280H138.5V250H137.5ZM135 282.5H18V283.5H135V282.5ZM15.5 280V250H14.5V280H15.5ZM18 282.5C16.6193 282.5 15.5 281.381 15.5 280H14.5C14.5 281.933 16.067 283.5 18 283.5V282.5ZM137.5 280C137.5 281.381 136.381 282.5 135 282.5V283.5C136.933 283.5 138.5 281.933 138.5 280H137.5ZM135 247.5C136.381 247.5 137.5 248.619 137.5 250H138.5C138.5 248.067 136.933 246.5 135 246.5V247.5ZM18 246.5C16.067 246.5 14.5 248.067 14.5 250H15.5C15.5 248.619 16.6193 247.5 18 247.5V246.5Z" fill="#D8D8D8"/>
</g>
<g filter="url(#filter8_d)">
<path d="M296 338C296 336.343 297.343 335 299 335H440C441.657 335 443 336.343 443 338V368C443 369.657 441.657 371 440 371H299C297.343 371 296 369.657 296 368V338Z" fill="white"/>
<rect x="296" y="335" width="5" height="36" fill="#EAD1DC"/>
<path d="M306.959 357H308.276V353.697H310.065C310.095 353.697 310.121 353.697 310.151 353.697L311.923 357H313.423L311.489 353.467C312.558 353.071 313.091 352.18 313.091 351.009C313.091 349.402 312.094 348.273 310.07 348.273H306.959V357ZM308.276 352.564V349.402H309.929C311.229 349.402 311.766 350.02 311.766 351.009C311.766 351.993 311.229 352.564 309.946 352.564H308.276ZM315.43 357L316.232 354.69H319.641L320.438 357H321.835L318.695 348.273H317.173L314.033 357H315.43ZM316.615 353.582L317.902 349.858H317.97L319.257 353.582H316.615ZM324.054 357H325.384L327.221 350.463H327.289L329.125 357H330.451L332.875 348.273H331.486L329.79 355.036H329.709L327.941 348.273H326.569L324.8 355.031H324.719L323.019 348.273H321.634L324.054 357ZM338.648 357H333.104V358.082H338.648V357ZM338.485 349.406H341.204V357H342.517V349.406H345.24V348.273H338.485V349.406ZM346.732 357H348.049V353.697H349.839C349.869 353.697 349.894 353.697 349.924 353.697L351.697 357H353.197L351.262 353.467C352.332 353.071 352.864 352.18 352.864 351.009C352.864 349.402 351.867 348.273 349.843 348.273H346.732V357ZM348.049 352.564V349.402H349.702C351.002 349.402 351.539 350.02 351.539 351.009C351.539 351.993 351.002 352.564 349.719 352.564H348.049ZM355.204 357L356.005 354.69H359.414L360.211 357H361.609L358.468 348.273H356.947L353.806 357H355.204ZM356.388 353.582L357.675 349.858H357.744L359.031 353.582H356.388ZM369.913 348.273H368.609V354.682H368.528L364.088 348.273H362.869V357H364.186V350.599H364.267L368.703 357H369.913V348.273ZM376.594 350.565H377.864C377.825 349.168 376.589 348.153 374.817 348.153C373.065 348.153 371.723 349.155 371.723 350.659C371.723 351.874 372.592 352.585 373.994 352.964L375.026 353.246C375.959 353.493 376.679 353.8 376.679 354.575C376.679 355.428 375.865 355.99 374.744 355.99C373.73 355.99 372.886 355.538 372.81 354.588H371.489C371.574 356.169 372.797 357.145 374.753 357.145C376.803 357.145 377.983 356.067 377.983 354.588C377.983 353.016 376.581 352.406 375.473 352.134L374.621 351.912C373.939 351.737 373.031 351.418 373.036 350.582C373.036 349.841 373.713 349.291 374.787 349.291C375.788 349.291 376.5 349.76 376.594 350.565ZM380.223 357L381.025 354.69H384.434L385.23 357H386.628L383.488 348.273H381.966L378.826 357H380.223ZM381.408 353.582L382.695 349.858H382.763L384.05 353.582H381.408ZM394.727 351.111C394.429 349.244 392.967 348.153 391.122 348.153C388.863 348.153 387.197 349.845 387.197 352.636C387.197 355.428 388.855 357.119 391.122 357.119C393.039 357.119 394.441 355.918 394.727 354.192L393.397 354.188C393.172 355.304 392.234 355.918 391.13 355.918C389.635 355.918 388.505 354.771 388.505 352.636C388.505 350.518 389.63 349.355 391.135 349.355C392.247 349.355 393.18 349.982 393.397 351.111H394.727ZM395.872 349.406H398.591V357H399.903V349.406H402.626V348.273H395.872V349.406ZM405.436 348.273H404.119V357H405.436V348.273ZM414.934 352.636C414.934 349.845 413.264 348.153 411.005 348.153C408.738 348.153 407.072 349.845 407.072 352.636C407.072 355.423 408.738 357.119 411.005 357.119C413.264 357.119 414.934 355.428 414.934 352.636ZM413.63 352.636C413.63 354.763 412.505 355.918 411.005 355.918C409.501 355.918 408.38 354.763 408.38 352.636C408.38 350.51 409.501 349.355 411.005 349.355C412.505 349.355 413.63 350.51 413.63 352.636ZM423.62 348.273H422.316V354.682H422.235L417.795 348.273H416.576V357H417.893V350.599H417.974L422.41 357H423.62V348.273ZM430.301 350.565H431.571C431.532 349.168 430.297 348.153 428.524 348.153C426.772 348.153 425.43 349.155 425.43 350.659C425.43 351.874 426.299 352.585 427.701 352.964L428.733 353.246C429.666 353.493 430.386 353.8 430.386 354.575C430.386 355.428 429.572 355.99 428.451 355.99C427.437 355.99 426.593 355.538 426.517 354.588H425.196C425.281 356.169 426.504 357.145 428.46 357.145C430.51 357.145 431.69 356.067 431.69 354.588C431.69 353.016 430.288 352.406 429.18 352.134L428.328 351.912C427.646 351.737 426.738 351.418 426.743 350.582C426.743 349.841 427.42 349.291 428.494 349.291C429.495 349.291 430.207 349.76 430.301 350.565Z" fill="black"/>
<path d="M299 335.5H440V334.5H299V335.5ZM442.5 338V368H443.5V338H442.5ZM440 370.5H299V371.5H440V370.5ZM296.5 368V338H295.5V368H296.5ZM299 370.5C297.619 370.5 296.5 369.381 296.5 368H295.5C295.5 369.933 297.067 371.5 299 371.5V370.5ZM442.5 368C442.5 369.381 441.381 370.5 440 370.5V371.5C441.933 371.5 443.5 369.933 443.5 368H442.5ZM440 335.5C441.381 335.5 442.5 336.619 442.5 338H443.5C443.5 336.067 441.933 334.5 440 334.5V335.5ZM299 334.5C297.067 334.5 295.5 336.067 295.5 338H296.5C296.5 336.619 297.619 335.5 299 335.5V334.5Z" fill="#D8D8D8"/>
</g>
<g filter="url(#filter9_d)">
<path d="M226 250C226 248.343 227.343 247 229 247H345C346.657 247 348 248.343 348 250V280C348 281.657 346.657 283 345 283H229C227.343 283 226 281.657 226 280V250Z" fill="white"/>
<rect x="226" y="247" width="5" height="36" fill="#EAD1DC"/>
<path d="M244.207 263.111C243.909 261.244 242.447 260.153 240.602 260.153C238.344 260.153 236.678 261.845 236.678 264.636C236.678 267.428 238.335 269.119 240.602 269.119C242.52 269.119 243.922 267.918 244.207 266.192L242.878 266.188C242.652 267.304 241.714 267.918 240.611 267.918C239.115 267.918 237.986 266.771 237.986 264.636C237.986 262.518 239.111 261.355 240.615 261.355C241.727 261.355 242.661 261.982 242.878 263.111H244.207ZM251.395 260.273V265.906C251.395 267.091 250.577 267.943 249.248 267.943C247.922 267.943 247.1 267.091 247.1 265.906V260.273H245.783V266.013C245.783 267.845 247.155 269.145 249.248 269.145C251.34 269.145 252.716 267.845 252.716 266.013V260.273H251.395ZM259.391 262.565H260.661C260.622 261.168 259.386 260.153 257.614 260.153C255.862 260.153 254.52 261.155 254.52 262.659C254.52 263.874 255.389 264.585 256.791 264.964L257.822 265.246C258.756 265.493 259.476 265.8 259.476 266.575C259.476 267.428 258.662 267.99 257.541 267.99C256.527 267.99 255.683 267.538 255.607 266.588H254.286C254.371 268.169 255.594 269.145 257.55 269.145C259.599 269.145 260.78 268.067 260.78 266.588C260.78 265.016 259.378 264.406 258.27 264.134L257.418 263.912C256.736 263.737 255.828 263.418 255.832 262.582C255.832 261.841 256.51 261.291 257.584 261.291C258.585 261.291 259.297 261.76 259.391 262.565ZM261.923 261.406H264.642V269H265.954V261.406H268.677V260.273H261.923V261.406ZM274.062 269H268.518V270.082H274.062V269ZM280.141 260.273V265.906C280.141 267.091 279.323 267.943 277.994 267.943C276.668 267.943 275.846 267.091 275.846 265.906V260.273H274.529V266.013C274.529 267.845 275.901 269.145 277.994 269.145C280.086 269.145 281.462 267.845 281.462 266.013V260.273H280.141ZM288.137 262.565H289.407C289.368 261.168 288.132 260.153 286.36 260.153C284.608 260.153 283.266 261.155 283.266 262.659C283.266 263.874 284.135 264.585 285.537 264.964L286.569 265.246C287.502 265.493 288.222 265.8 288.222 266.575C288.222 267.428 287.408 267.99 286.287 267.99C285.273 267.99 284.429 267.538 284.353 266.588H283.032C283.117 268.169 284.34 269.145 286.296 269.145C288.346 269.145 289.526 268.067 289.526 266.588C289.526 265.016 288.124 264.406 287.016 264.134L286.164 263.912C285.482 263.737 284.574 263.418 284.578 262.582C284.578 261.841 285.256 261.291 286.33 261.291C287.331 261.291 288.043 261.76 288.137 262.565ZM291.099 269H296.622V267.866H292.416V265.195H296.286V264.065H292.416V261.406H296.571V260.273H291.099V269ZM298.33 269H299.647V265.697H301.436C301.466 265.697 301.492 265.697 301.522 265.697L303.294 269H304.794L302.86 265.467C303.929 265.071 304.462 264.18 304.462 263.009C304.462 261.402 303.465 260.273 301.441 260.273H298.33V269ZM299.647 264.564V261.402H301.3C302.6 261.402 303.137 262.02 303.137 263.009C303.137 263.993 302.6 264.564 301.317 264.564H299.647ZM310.637 269H305.093V270.082H310.637V269ZM311.584 260.273V269H312.837V262.68H312.918L315.491 268.987H316.531L319.105 262.685H319.186V269H320.439V260.273H318.841L316.062 267.057H315.96L313.182 260.273H311.584ZM323.091 269L323.892 266.69H327.301L328.098 269H329.495L326.355 260.273H324.833L321.693 269H323.091ZM324.275 265.582L325.562 261.858H325.63L326.917 265.582H324.275ZM330.756 269H332.072V265.932H333.862C335.886 265.932 336.888 264.709 336.888 263.098C336.888 261.491 335.895 260.273 333.866 260.273H330.756V269ZM332.072 264.815V261.402H333.726C335.03 261.402 335.562 262.109 335.562 263.098C335.562 264.087 335.03 264.815 333.743 264.815H332.072Z" fill="black"/>
<path d="M229 247.5H345V246.5H229V247.5ZM347.5 250V280H348.5V250H347.5ZM345 282.5H229V283.5H345V282.5ZM226.5 280V250H225.5V280H226.5ZM229 282.5C227.619 282.5 226.5 281.381 226.5 280H225.5C225.5 281.933 227.067 283.5 229 283.5V282.5ZM347.5 280C347.5 281.381 346.381 282.5 345 282.5V283.5C346.933 283.5 348.5 281.933 348.5 280H347.5ZM345 247.5C346.381 247.5 347.5 248.619 347.5 250H348.5C348.5 248.067 346.933 246.5 345 246.5V247.5ZM229 246.5C227.067 246.5 225.5 248.067 225.5 250H226.5C226.5 248.619 227.619 247.5 229 247.5V246.5Z" fill="#D8D8D8"/>
</g>
<g filter="url(#filter10_d)">
<path d="M537 338C537 336.343 538.343 335 540 335H621C622.657 335 624 336.343 624 338V368C624 369.657 622.657 371 621 371H540C538.343 371 537 369.657 537 368V338Z" fill="white"/>
<rect x="537" y="335" width="5" height="36" fill="#EAD1DC"/>
<path d="M547.959 357H549.276V353.932H551.065C553.089 353.932 554.091 352.709 554.091 351.098C554.091 349.491 553.098 348.273 551.07 348.273H547.959V357ZM549.276 352.815V349.402H550.929C552.233 349.402 552.766 350.109 552.766 351.098C552.766 352.087 552.233 352.815 550.946 352.815H549.276ZM555.635 357H556.951V353.697H558.741C558.771 353.697 558.797 353.697 558.826 353.697L560.599 357H562.099L560.164 353.467C561.234 353.071 561.767 352.18 561.767 351.009C561.767 349.402 560.77 348.273 558.745 348.273H555.635V357ZM556.951 352.564V349.402H558.605C559.904 349.402 560.441 350.02 560.441 351.009C560.441 351.993 559.904 352.564 558.622 352.564H556.951ZM570.95 352.636C570.95 349.845 569.279 348.153 567.021 348.153C564.754 348.153 563.088 349.845 563.088 352.636C563.088 355.423 564.754 357.119 567.021 357.119C569.279 357.119 570.95 355.428 570.95 352.636ZM569.646 352.636C569.646 354.763 568.521 355.918 567.021 355.918C565.517 355.918 564.396 354.763 564.396 352.636C564.396 350.51 565.517 349.355 567.021 349.355C568.521 349.355 569.646 350.51 569.646 352.636ZM575.417 357C578.076 357 579.614 355.351 579.614 352.624C579.614 349.909 578.076 348.273 575.506 348.273H572.592V357H575.417ZM573.908 355.849V349.423H575.425C577.335 349.423 578.319 350.565 578.319 352.624C578.319 354.69 577.335 355.849 575.344 355.849H573.908ZM586.864 348.273V353.906C586.864 355.091 586.046 355.943 584.716 355.943C583.391 355.943 582.569 355.091 582.569 353.906V348.273H581.252V354.013C581.252 355.845 582.624 357.145 584.716 357.145C586.809 357.145 588.185 355.845 588.185 354.013V348.273H586.864ZM597.348 351.111C597.05 349.244 595.588 348.153 593.743 348.153C591.484 348.153 589.818 349.845 589.818 352.636C589.818 355.428 591.476 357.119 593.743 357.119C595.661 357.119 597.062 355.918 597.348 354.192L596.018 354.188C595.793 355.304 594.855 355.918 593.751 355.918C592.256 355.918 591.126 354.771 591.126 352.636C591.126 350.518 592.251 349.355 593.756 349.355C594.868 349.355 595.801 349.982 596.018 351.111H597.348ZM598.493 349.406H601.212V357H602.525V349.406H605.248V348.273H598.493V349.406ZM611.5 350.565H612.77C612.732 349.168 611.496 348.153 609.723 348.153C607.972 348.153 606.629 349.155 606.629 350.659C606.629 351.874 607.499 352.585 608.901 352.964L609.932 353.246C610.865 353.493 611.585 353.8 611.585 354.575C611.585 355.428 610.771 355.99 609.651 355.99C608.636 355.99 607.793 355.538 607.716 354.588H606.395C606.48 356.169 607.703 357.145 609.659 357.145C611.709 357.145 612.889 356.067 612.889 354.588C612.889 353.016 611.487 352.406 610.379 352.134L609.527 351.912C608.845 351.737 607.938 351.418 607.942 350.582C607.942 349.841 608.619 349.291 609.693 349.291C610.695 349.291 611.406 349.76 611.5 350.565Z" fill="black"/>
<path d="M540 335.5H621V334.5H540V335.5ZM623.5 338V368H624.5V338H623.5ZM621 370.5H540V371.5H621V370.5ZM537.5 368V338H536.5V368H537.5ZM540 370.5C538.619 370.5 537.5 369.381 537.5 368H536.5C536.5 369.933 538.067 371.5 540 371.5V370.5ZM623.5 368C623.5 369.381 622.381 370.5 621 370.5V371.5C622.933 371.5 624.5 369.933 624.5 368H623.5ZM621 335.5C622.381 335.5 623.5 336.619 623.5 338H624.5C624.5 336.067 622.933 334.5 621 334.5V335.5ZM540 334.5C538.067 334.5 536.5 336.067 536.5 338H537.5C537.5 336.619 538.619 335.5 540 335.5V334.5Z" fill="#D8D8D8"/>
</g>
<g filter="url(#filter11_d)">
<path d="M587 241C587 239.343 588.343 238 590 238H732C733.657 238 735 239.343 735 241V271C735 272.657 733.657 274 732 274H590C588.343 274 587 272.657 587 271V241Z" fill="white"/>
<rect x="587" y="238" width="5" height="36" fill="#EAD1DC"/>
<path d="M597.959 260H599.276V256.932H601.065C603.089 256.932 604.091 255.709 604.091 254.098C604.091 252.491 603.098 251.273 601.07 251.273H597.959V260ZM599.276 255.815V252.402H600.929C602.233 252.402 602.766 253.109 602.766 254.098C602.766 255.087 602.233 255.815 600.946 255.815H599.276ZM605.635 260H606.951V256.697H608.741C608.771 256.697 608.797 256.697 608.826 256.697L610.599 260H612.099L610.164 256.467C611.234 256.071 611.767 255.18 611.767 254.009C611.767 252.402 610.77 251.273 608.745 251.273H605.635V260ZM606.951 255.564V252.402H608.605C609.904 252.402 610.441 253.02 610.441 254.009C610.441 254.993 609.904 255.564 608.622 255.564H606.951ZM620.95 255.636C620.95 252.845 619.279 251.153 617.021 251.153C614.754 251.153 613.088 252.845 613.088 255.636C613.088 258.423 614.754 260.119 617.021 260.119C619.279 260.119 620.95 258.428 620.95 255.636ZM619.646 255.636C619.646 257.763 618.521 258.918 617.021 258.918C615.517 258.918 614.396 257.763 614.396 255.636C614.396 253.51 615.517 252.355 617.021 252.355C618.521 252.355 619.646 253.51 619.646 255.636ZM625.417 260C628.076 260 629.614 258.351 629.614 255.624C629.614 252.909 628.076 251.273 625.506 251.273H622.592V260H625.417ZM623.908 258.849V252.423H625.425C627.335 252.423 628.319 253.565 628.319 255.624C628.319 257.69 627.335 258.849 625.344 258.849H623.908ZM636.864 251.273V256.906C636.864 258.091 636.046 258.943 634.716 258.943C633.391 258.943 632.569 258.091 632.569 256.906V251.273H631.252V257.013C631.252 258.845 632.624 260.145 634.716 260.145C636.809 260.145 638.185 258.845 638.185 257.013V251.273H636.864ZM647.348 254.111C647.05 252.244 645.588 251.153 643.743 251.153C641.484 251.153 639.818 252.845 639.818 255.636C639.818 258.428 641.476 260.119 643.743 260.119C645.661 260.119 647.062 258.918 647.348 257.192L646.018 257.188C645.793 258.304 644.855 258.918 643.751 258.918C642.256 258.918 641.126 257.771 641.126 255.636C641.126 253.518 642.251 252.355 643.756 252.355C644.868 252.355 645.801 252.982 646.018 254.111H647.348ZM648.493 252.406H651.212V260H652.525V252.406H655.248V251.273H648.493V252.406ZM660.633 260H655.089V261.082H660.633V260ZM666.712 251.273V256.906C666.712 258.091 665.893 258.943 664.564 258.943C663.239 258.943 662.416 258.091 662.416 256.906V251.273H661.099V257.013C661.099 258.845 662.472 260.145 664.564 260.145C666.656 260.145 668.033 258.845 668.033 257.013V251.273H666.712ZM674.707 253.565H675.977C675.939 252.168 674.703 251.153 672.93 251.153C671.179 251.153 669.836 252.155 669.836 253.659C669.836 254.874 670.706 255.585 672.108 255.964L673.139 256.246C674.072 256.493 674.792 256.8 674.792 257.575C674.792 258.428 673.978 258.99 672.858 258.99C671.843 258.99 671 258.538 670.923 257.588H669.602C669.687 259.169 670.91 260.145 672.866 260.145C674.916 260.145 676.096 259.067 676.096 257.588C676.096 256.016 674.694 255.406 673.586 255.134L672.734 254.912C672.052 254.737 671.145 254.418 671.149 253.582C671.149 252.841 671.826 252.291 672.9 252.291C673.902 252.291 674.613 252.76 674.707 253.565ZM677.67 260H683.192V258.866H678.987V256.195H682.856V255.065H678.987V252.406H683.141V251.273H677.67V260ZM684.9 260H686.217V256.697H688.007C688.037 256.697 688.062 256.697 688.092 256.697L689.865 260H691.365L689.43 256.467C690.5 256.071 691.032 255.18 691.032 254.009C691.032 252.402 690.035 251.273 688.011 251.273H684.9V260ZM686.217 255.564V252.402H687.87C689.17 252.402 689.707 253.02 689.707 254.009C689.707 254.993 689.17 255.564 687.887 255.564H686.217ZM697.207 260H691.663V261.082H697.207V260ZM698.154 251.273V260H699.407V253.68H699.488L702.062 259.987H703.102L705.675 253.685H705.756V260H707.009V251.273H705.411L702.633 258.057H702.531L699.752 251.273H698.154ZM709.661 260L710.462 257.69H713.871L714.668 260H716.066L712.925 251.273H711.404L708.263 260H709.661ZM710.846 256.582L712.132 252.858H712.201L713.488 256.582H710.846ZM717.326 260H718.643V256.932H720.433C722.457 256.932 723.458 255.709 723.458 254.098C723.458 252.491 722.465 251.273 720.437 251.273H717.326V260ZM718.643 255.815V252.402H720.296C721.6 252.402 722.133 253.109 722.133 254.098C722.133 255.087 721.6 255.815 720.313 255.815H718.643Z" fill="black"/>
<path d="M590 238.5H732V237.5H590V238.5ZM734.5 241V271H735.5V241H734.5ZM732 273.5H590V274.5H732V273.5ZM587.5 271V241H586.5V271H587.5ZM590 273.5C588.619 273.5 587.5 272.381 587.5 271H586.5C586.5 272.933 588.067 274.5 590 274.5V273.5ZM734.5 271C734.5 272.381 733.381 273.5 732 273.5V274.5C733.933 274.5 735.5 272.933 735.5 271H734.5ZM732 238.5C733.381 238.5 734.5 239.619 734.5 241H735.5C735.5 239.067 733.933 237.5 732 237.5V238.5ZM590 237.5C588.067 237.5 586.5 239.067 586.5 241H587.5C587.5 239.619 588.619 238.5 590 238.5V237.5Z" fill="#D8D8D8"/>
</g>
<g filter="url(#filter12_d)">
<path d="M86 338C86 336.343 87.3431 335 89 335H275C276.657 335 278 336.343 278 338V368C278 369.657 276.657 371 275 371H89C87.3431 371 86 369.657 86 368V338Z" fill="white"/>
<rect x="86" y="335" width="5" height="36" fill="#EAD1DC"/>
<path d="M97.696 357L98.4972 354.69H101.906L102.703 357H104.101L100.96 348.273H99.4389L96.2983 357H97.696ZM98.8807 353.582L100.168 349.858H100.236L101.523 353.582H98.8807ZM112.2 351.111C111.901 349.244 110.44 348.153 108.594 348.153C106.336 348.153 104.67 349.845 104.67 352.636C104.67 355.428 106.327 357.119 108.594 357.119C110.512 357.119 111.914 355.918 112.2 354.192L110.87 354.188C110.644 355.304 109.707 355.918 108.603 355.918C107.107 355.918 105.978 354.771 105.978 352.636C105.978 350.518 107.103 349.355 108.607 349.355C109.719 349.355 110.653 349.982 110.87 351.111H112.2ZM121.024 351.111C120.725 349.244 119.264 348.153 117.419 348.153C115.16 348.153 113.494 349.845 113.494 352.636C113.494 355.428 115.152 357.119 117.419 357.119C119.336 357.119 120.738 355.918 121.024 354.192L119.694 354.188C119.468 355.304 118.531 355.918 117.427 355.918C115.931 355.918 114.802 354.771 114.802 352.636C114.802 350.518 115.927 349.355 117.431 349.355C118.544 349.355 119.477 349.982 119.694 351.111H121.024ZM130.18 352.636C130.18 349.845 128.51 348.153 126.251 348.153C123.984 348.153 122.318 349.845 122.318 352.636C122.318 355.423 123.984 357.119 126.251 357.119C128.51 357.119 130.18 355.428 130.18 352.636ZM128.876 352.636C128.876 354.763 127.751 355.918 126.251 355.918C124.747 355.918 123.626 354.763 123.626 352.636C123.626 350.51 124.747 349.355 126.251 349.355C127.751 349.355 128.876 350.51 128.876 352.636ZM137.434 348.273V353.906C137.434 355.091 136.616 355.943 135.287 355.943C133.961 355.943 133.139 355.091 133.139 353.906V348.273H131.822V354.013C131.822 355.845 133.194 357.145 135.287 357.145C137.379 357.145 138.755 355.845 138.755 354.013V348.273H137.434ZM147.714 348.273H146.41V354.682H146.329L141.888 348.273H140.67V357H141.987V350.599H142.067L146.504 357H147.714V348.273ZM149.204 349.406H151.923V357H153.235V349.406H155.958V348.273H149.204V349.406ZM161.344 357H155.8V358.082H161.344V357ZM169.059 351.111C168.761 349.244 167.299 348.153 165.454 348.153C163.195 348.153 161.529 349.845 161.529 352.636C161.529 355.428 163.187 357.119 165.454 357.119C167.371 357.119 168.773 355.918 169.059 354.192L167.729 354.188C167.504 355.304 166.566 355.918 165.462 355.918C163.967 355.918 162.837 354.771 162.837 352.636C162.837 350.518 163.962 349.355 165.467 349.355C166.579 349.355 167.512 349.982 167.729 351.111H169.059ZM170.635 357H175.906V355.866H171.951V348.273H170.635V357ZM178.579 357L179.38 354.69H182.789L183.586 357H184.984L181.843 348.273H180.322L177.181 357H178.579ZM179.763 353.582L181.05 349.858H181.119L182.406 353.582H179.763ZM190.934 350.565H192.203C192.165 349.168 190.929 348.153 189.157 348.153C187.405 348.153 186.063 349.155 186.063 350.659C186.063 351.874 186.932 352.585 188.334 352.964L189.365 353.246C190.299 353.493 191.019 353.8 191.019 354.575C191.019 355.428 190.205 355.99 189.084 355.99C188.07 355.99 187.226 355.538 187.15 354.588H185.828C185.914 356.169 187.137 357.145 189.093 357.145C191.142 357.145 192.323 356.067 192.323 354.588C192.323 353.016 190.921 352.406 189.813 352.134L188.961 351.912C188.279 351.737 187.371 351.418 187.375 350.582C187.375 349.841 188.053 349.291 189.127 349.291C190.128 349.291 190.84 349.76 190.934 350.565ZM198.656 350.565H199.926C199.888 349.168 198.652 348.153 196.879 348.153C195.128 348.153 193.786 349.155 193.786 350.659C193.786 351.874 194.655 352.585 196.057 352.964L197.088 353.246C198.021 353.493 198.741 353.8 198.741 354.575C198.741 355.428 197.928 355.99 196.807 355.99C195.793 355.99 194.949 355.538 194.872 354.588H193.551C193.636 356.169 194.859 357.145 196.815 357.145C198.865 357.145 200.045 356.067 200.045 354.588C200.045 353.016 198.643 352.406 197.536 352.134L196.683 351.912C196.001 351.737 195.094 351.418 195.098 350.582C195.098 349.841 195.776 349.291 196.849 349.291C197.851 349.291 198.562 349.76 198.656 350.565ZM202.936 348.273H201.619V357H202.936V348.273ZM204.853 357H206.17V353.195H209.877V352.065H206.17V349.406H210.265V348.273H204.853V357ZM213.201 348.273H211.885V357H213.201V348.273ZM222.368 351.111C222.069 349.244 220.608 348.153 218.762 348.153C216.504 348.153 214.838 349.845 214.838 352.636C214.838 355.428 216.495 357.119 218.762 357.119C220.68 357.119 222.082 355.918 222.368 354.192L221.038 354.188C220.812 355.304 219.875 355.918 218.771 355.918C217.275 355.918 216.146 354.771 216.146 352.636C216.146 350.518 217.271 349.355 218.775 349.355C219.887 349.355 220.821 349.982 221.038 351.111H222.368ZM224.622 357L225.423 354.69H228.832L229.629 357H231.027L227.886 348.273H226.365L223.224 357H224.622ZM225.806 353.582L227.093 349.858H227.162L228.449 353.582H225.806ZM230.814 349.406H233.532V357H234.845V349.406H237.568V348.273H230.814V349.406ZM240.377 348.273H239.06V357H240.377V348.273ZM249.876 352.636C249.876 349.845 248.205 348.153 245.947 348.153C243.68 348.153 242.013 349.845 242.013 352.636C242.013 355.423 243.68 357.119 245.947 357.119C248.205 357.119 249.876 355.428 249.876 352.636ZM248.572 352.636C248.572 354.763 247.447 355.918 245.947 355.918C244.442 355.918 243.322 354.763 243.322 352.636C243.322 350.51 244.442 349.355 245.947 349.355C247.447 349.355 248.572 350.51 248.572 352.636ZM258.561 348.273H257.257V354.682H257.176L252.736 348.273H251.517V357H252.834V350.599H252.915L257.351 357H258.561V348.273ZM265.242 350.565H266.512C266.474 349.168 265.238 348.153 263.465 348.153C261.714 348.153 260.371 349.155 260.371 350.659C260.371 351.874 261.241 352.585 262.643 352.964L263.674 353.246C264.607 353.493 265.327 353.8 265.327 354.575C265.327 355.428 264.513 355.99 263.393 355.99C262.379 355.99 261.535 355.538 261.458 354.588H260.137C260.222 356.169 261.445 357.145 263.401 357.145C265.451 357.145 266.631 356.067 266.631 354.588C266.631 353.016 265.229 352.406 264.121 352.134L263.269 351.912C262.587 351.737 261.68 351.418 261.684 350.582C261.684 349.841 262.362 349.291 263.435 349.291C264.437 349.291 265.148 349.76 265.242 350.565Z" fill="black"/>
<path d="M89 335.5H275V334.5H89V335.5ZM277.5 338V368H278.5V338H277.5ZM275 370.5H89V371.5H275V370.5ZM86.5 368V338H85.5V368H86.5ZM89 370.5C87.6193 370.5 86.5 369.381 86.5 368H85.5C85.5 369.933 87.067 371.5 89 371.5V370.5ZM277.5 368C277.5 369.381 276.381 370.5 275 370.5V371.5C276.933 371.5 278.5 369.933 278.5 368H277.5ZM275 335.5C276.381 335.5 277.5 336.619 277.5 338H278.5C278.5 336.067 276.933 334.5 275 334.5V335.5ZM89 334.5C87.067 334.5 85.5 336.067 85.5 338H86.5C86.5 336.619 87.6193 335.5 89 335.5V334.5Z" fill="#D8D8D8"/>
</g>
<g filter="url(#filter13_d)">
<path d="M411 396C411 394.343 412.343 393 414 393H515C516.657 393 518 394.343 518 396V426C518 427.657 516.657 429 515 429H414C412.343 429 411 427.657 411 426V396Z" fill="white"/>
<rect x="411" y="393" width="5" height="36" fill="#EAD1DC"/>
<path d="M421.959 415H423.276V411.932H425.065C427.089 411.932 428.091 410.709 428.091 409.098C428.091 407.491 427.098 406.273 425.07 406.273H421.959V415ZM423.276 410.815V407.402H424.929C426.233 407.402 426.766 408.109 426.766 409.098C426.766 410.087 426.233 410.815 424.946 410.815H423.276ZM431.379 415.145C432.461 415.145 433.07 414.595 433.313 414.105H433.364V415H434.609V410.653C434.609 408.749 433.109 408.369 432.069 408.369C430.884 408.369 429.793 408.847 429.367 410.04L430.565 410.312C430.752 409.848 431.229 409.401 432.086 409.401C432.908 409.401 433.33 409.831 433.33 410.572V410.602C433.33 411.067 432.853 411.058 431.677 411.195C430.437 411.339 429.167 411.663 429.167 413.151C429.167 414.438 430.134 415.145 431.379 415.145ZM431.656 414.122C430.935 414.122 430.415 413.798 430.415 413.168C430.415 412.486 431.021 412.243 431.758 412.145C432.171 412.089 433.151 411.979 433.335 411.795V412.639C433.335 413.415 432.717 414.122 431.656 414.122ZM436.877 417.455C437.929 417.455 438.594 416.905 438.973 415.874L441.671 408.455H440.303L438.645 413.534H438.577L436.919 408.455H435.556L437.951 415.085L437.793 415.52C437.469 416.389 437.013 416.462 436.314 416.27L436.007 417.314C436.161 417.382 436.493 417.455 436.877 417.455ZM442.868 415H444.142V410.964C444.142 410.082 444.76 409.469 445.485 409.469C446.192 409.469 446.682 409.938 446.682 410.649V415H447.952V410.828C447.952 410.04 448.434 409.469 449.265 409.469C449.938 409.469 450.492 409.844 450.492 410.73V415H451.766V410.611C451.766 409.115 450.931 408.369 449.746 408.369C448.804 408.369 448.097 408.821 447.782 409.52H447.713C447.428 408.804 446.827 408.369 445.953 408.369C445.088 408.369 444.445 408.8 444.172 409.52H444.091V408.455H442.868V415ZM456.295 415.132C457.722 415.132 458.732 414.429 459.022 413.364L457.816 413.146C457.586 413.764 457.032 414.08 456.308 414.08C455.217 414.08 454.484 413.372 454.45 412.111H459.103V411.659C459.103 409.294 457.688 408.369 456.205 408.369C454.381 408.369 453.18 409.759 453.18 411.77C453.18 413.803 454.364 415.132 456.295 415.132ZM454.454 411.156C454.505 410.227 455.178 409.422 456.214 409.422C457.202 409.422 457.85 410.155 457.854 411.156H454.454ZM461.791 411.114C461.791 410.07 462.43 409.473 463.316 409.473C464.181 409.473 464.706 410.04 464.706 410.99V415H465.98V410.837C465.98 409.217 465.089 408.369 463.751 408.369C462.767 408.369 462.123 408.825 461.821 409.52H461.74V408.455H460.517V415H461.791V411.114ZM470.744 408.455H469.402V406.886H468.127V408.455H467.169V409.477H468.127V413.342C468.123 414.531 469.031 415.107 470.037 415.085C470.441 415.081 470.714 415.004 470.863 414.949L470.633 413.896C470.548 413.913 470.39 413.952 470.186 413.952C469.772 413.952 469.402 413.815 469.402 413.078V409.477H470.744V408.455ZM478.385 408.455H477.042V406.886H475.768V408.455H474.809V409.477H475.768V413.342C475.764 414.531 476.672 415.107 477.677 415.085C478.082 415.081 478.355 415.004 478.504 414.949L478.274 413.896C478.189 413.913 478.031 413.952 477.826 413.952C477.413 413.952 477.042 413.815 477.042 413.078V409.477H478.385V408.455ZM482.545 415.132C483.972 415.132 484.982 414.429 485.272 413.364L484.066 413.146C483.836 413.764 483.282 414.08 482.558 414.08C481.467 414.08 480.734 413.372 480.7 412.111H485.353V411.659C485.353 409.294 483.938 408.369 482.455 408.369C480.631 408.369 479.43 409.759 479.43 411.77C479.43 413.803 480.614 415.132 482.545 415.132ZM480.704 411.156C480.755 410.227 481.428 409.422 482.464 409.422C483.452 409.422 484.1 410.155 484.104 411.156H480.704ZM486.767 415H488.041V411.003C488.041 410.146 488.701 409.528 489.605 409.528C489.869 409.528 490.167 409.575 490.27 409.605V408.386C490.142 408.369 489.89 408.357 489.728 408.357C488.961 408.357 488.305 408.791 488.066 409.494H487.998V408.455H486.767V415ZM491.372 415H492.646V410.964C492.646 410.082 493.264 409.469 493.989 409.469C494.696 409.469 495.186 409.938 495.186 410.649V415H496.456V410.828C496.456 410.04 496.938 409.469 497.768 409.469C498.442 409.469 498.996 409.844 498.996 410.73V415H500.27V410.611C500.27 409.115 499.435 408.369 498.25 408.369C497.308 408.369 496.601 408.821 496.286 409.52H496.217C495.932 408.804 495.331 408.369 494.457 408.369C493.592 408.369 492.949 408.8 492.676 409.52H492.595V408.455H491.372V415ZM506.882 410.053C506.618 409.034 505.821 408.369 504.407 408.369C502.928 408.369 501.88 409.149 501.88 410.308C501.88 411.237 502.442 411.855 503.669 412.128L504.777 412.371C505.408 412.511 505.702 412.793 505.702 413.202C505.702 413.709 505.161 414.105 504.326 414.105C503.563 414.105 503.073 413.777 502.919 413.134L501.688 413.321C501.901 414.48 502.864 415.132 504.334 415.132C505.915 415.132 507.01 414.293 507.01 413.108C507.01 412.183 506.422 411.612 505.221 411.335L504.181 411.097C503.461 410.926 503.15 410.683 503.154 410.24C503.15 409.737 503.695 409.379 504.419 409.379C505.212 409.379 505.578 409.818 505.728 410.257L506.882 410.053Z" fill="black"/>
<path d="M414 393.5H515V392.5H414V393.5ZM517.5 396V426H518.5V396H517.5ZM515 428.5H414V429.5H515V428.5ZM411.5 426V396H410.5V426H411.5ZM414 428.5C412.619 428.5 411.5 427.381 411.5 426H410.5C410.5 427.933 412.067 429.5 414 429.5V428.5ZM517.5 426C517.5 427.381 516.381 428.5 515 428.5V429.5C516.933 429.5 518.5 427.933 518.5 426H517.5ZM515 393.5C516.381 393.5 517.5 394.619 517.5 396H518.5C518.5 394.067 516.933 392.5 515 392.5V393.5ZM414 392.5C412.067 392.5 410.5 394.067 410.5 396H411.5C411.5 394.619 412.619 393.5 414 393.5V392.5Z" fill="#D8D8D8"/>
</g>
<g filter="url(#filter14_d)">
<path d="M635 132C635 130.343 636.343 129 638 129H756C757.657 129 759 130.343 759 132V162C759 163.657 757.657 165 756 165H638C636.343 165 635 163.657 635 162V132Z" fill="white"/>
<rect x="635" y="129" width="5" height="36" fill="#D5A6BD"/>
<path d="M646.696 151L647.497 148.69H650.906L651.703 151H653.101L649.96 142.273H648.439L645.298 151H646.696ZM647.881 147.582L649.168 143.858H649.236L650.523 147.582H647.881ZM661.2 145.111C660.901 143.244 659.44 142.153 657.594 142.153C655.336 142.153 653.67 143.845 653.67 146.636C653.67 149.428 655.327 151.119 657.594 151.119C659.512 151.119 660.914 149.918 661.2 148.192L659.87 148.188C659.644 149.304 658.707 149.918 657.603 149.918C656.107 149.918 654.978 148.771 654.978 146.636C654.978 144.518 656.103 143.355 657.607 143.355C658.719 143.355 659.653 143.982 659.87 145.111H661.2ZM670.024 145.111C669.725 143.244 668.264 142.153 666.419 142.153C664.16 142.153 662.494 143.845 662.494 146.636C662.494 149.428 664.152 151.119 666.419 151.119C668.336 151.119 669.738 149.918 670.024 148.192L668.694 148.188C668.468 149.304 667.531 149.918 666.427 149.918C664.931 149.918 663.802 148.771 663.802 146.636C663.802 144.518 664.927 143.355 666.431 143.355C667.544 143.355 668.477 143.982 668.694 145.111H670.024ZM679.18 146.636C679.18 143.845 677.51 142.153 675.251 142.153C672.984 142.153 671.318 143.845 671.318 146.636C671.318 149.423 672.984 151.119 675.251 151.119C677.51 151.119 679.18 149.428 679.18 146.636ZM677.876 146.636C677.876 148.763 676.751 149.918 675.251 149.918C673.747 149.918 672.626 148.763 672.626 146.636C672.626 144.51 673.747 143.355 675.251 143.355C676.751 143.355 677.876 144.51 677.876 146.636ZM686.434 142.273V147.906C686.434 149.091 685.616 149.943 684.287 149.943C682.961 149.943 682.139 149.091 682.139 147.906V142.273H680.822V148.013C680.822 149.845 682.194 151.145 684.287 151.145C686.379 151.145 687.755 149.845 687.755 148.013V142.273H686.434ZM696.714 142.273H695.41V148.682H695.329L690.888 142.273H689.67V151H690.987V144.599H691.067L695.504 151H696.714V142.273ZM698.204 143.406H700.923V151H702.235V143.406H704.958V142.273H698.204V143.406ZM710.344 151H704.8V152.082H710.344V151ZM710.181 143.406H712.9V151H714.212V143.406H716.935V142.273H710.181V143.406ZM717.754 142.273L720.92 147.574V151H722.233V147.574L725.399 142.273H723.903L721.624 146.24H721.53L719.25 142.273H717.754ZM726.642 151H727.959V147.932H729.749C731.773 147.932 732.775 146.709 732.775 145.098C732.775 143.491 731.782 142.273 729.753 142.273H726.642V151ZM727.959 146.815V143.402H729.613C730.917 143.402 731.449 144.109 731.449 145.098C731.449 146.087 730.917 146.815 729.63 146.815H727.959ZM734.318 151H739.841V149.866H735.635V147.195H739.504V146.065H735.635V143.406H739.79V142.273H734.318V151ZM746.309 144.565H747.578C747.54 143.168 746.304 142.153 744.532 142.153C742.78 142.153 741.438 143.155 741.438 144.659C741.438 145.874 742.307 146.585 743.709 146.964L744.74 147.246C745.674 147.493 746.394 147.8 746.394 148.575C746.394 149.428 745.58 149.99 744.459 149.99C743.445 149.99 742.601 149.538 742.525 148.588H741.203C741.289 150.169 742.512 151.145 744.468 151.145C746.517 151.145 747.698 150.067 747.698 148.588C747.698 147.016 746.296 146.406 745.188 146.134L744.336 145.912C743.654 145.737 742.746 145.418 742.75 144.582C742.75 143.841 743.428 143.291 744.502 143.291C745.503 143.291 746.215 143.76 746.309 144.565Z" fill="black"/>
<path d="M638 129.5H756V128.5H638V129.5ZM758.5 132V162H759.5V132H758.5ZM756 164.5H638V165.5H756V164.5ZM635.5 162V132H634.5V162H635.5ZM638 164.5C636.619 164.5 635.5 163.381 635.5 162H634.5C634.5 163.933 636.067 165.5 638 165.5V164.5ZM758.5 162C758.5 163.381 757.381 164.5 756 164.5V165.5C757.933 165.5 759.5 163.933 759.5 162H758.5ZM756 129.5C757.381 129.5 758.5 130.619 758.5 132H759.5C759.5 130.067 757.933 128.5 756 128.5V129.5ZM638 128.5C636.067 128.5 634.5 130.067 634.5 132H635.5C635.5 130.619 636.619 129.5 638 129.5V128.5Z" fill="#D8D8D8"/>
</g>
<defs>
<filter id="filter0_d" x="424" y="0" width="96" height="40" filterUnits="userSpaceOnUse" color-interpolation-filters="sRGB">
<feFlood flood-opacity="0" result="BackgroundImageFix"/>
<feColorMatrix in="SourceAlpha" type="matrix" values="0 0 0 0 0 0 0 0 0 0 0 0 0 0 0 0 0 0 127 0"/>
<feOffset dy="2"/>
<feGaussianBlur stdDeviation="1"/>
<feColorMatrix type="matrix" values="0 0 0 0 0 0 0 0 0 0 0 0 0 0 0 0 0 0 0.05 0"/>
<feBlend mode="normal" in2="BackgroundImageFix" result="effect1_dropShadow"/>
<feBlend mode="normal" in="SourceGraphic" in2="effect1_dropShadow" result="shape"/>
</filter>
<filter id="filter1_d" x="287" y="67" width="152" height="40" filterUnits="userSpaceOnUse" color-interpolation-filters="sRGB">
<feFlood flood-opacity="0" result="BackgroundImageFix"/>
<feColorMatrix in="SourceAlpha" type="matrix" values="0 0 0 0 0 0 0 0 0 0 0 0 0 0 0 0 0 0 127 0"/>
<feOffset dy="2"/>
<feGaussianBlur stdDeviation="1"/>
<feColorMatrix type="matrix" values="0 0 0 0 0 0 0 0 0 0 0 0 0 0 0 0 0 0 0.05 0"/>
<feBlend mode="normal" in2="BackgroundImageFix" result="effect1_dropShadow"/>
<feBlend mode="normal" in="SourceGraphic" in2="effect1_dropShadow" result="shape"/>
</filter>
<filter id="filter2_d" x="287" y="111" width="153" height="40" filterUnits="userSpaceOnUse" color-interpolation-filters="sRGB">
<feFlood flood-opacity="0" result="BackgroundImageFix"/>
<feColorMatrix in="SourceAlpha" type="matrix" values="0 0 0 0 0 0 0 0 0 0 0 0 0 0 0 0 0 0 127 0"/>
<feOffset dy="2"/>
<feGaussianBlur stdDeviation="1"/>
<feColorMatrix type="matrix" values="0 0 0 0 0 0 0 0 0 0 0 0 0 0 0 0 0 0 0.05 0"/>
<feBlend mode="normal" in2="BackgroundImageFix" result="effect1_dropShadow"/>
<feBlend mode="normal" in="SourceGraphic" in2="effect1_dropShadow" result="shape"/>
</filter>
<filter id="filter3_d" x="375" y="173" width="188" height="40" filterUnits="userSpaceOnUse" color-interpolation-filters="sRGB">
<feFlood flood-opacity="0" result="BackgroundImageFix"/>
<feColorMatrix in="SourceAlpha" type="matrix" values="0 0 0 0 0 0 0 0 0 0 0 0 0 0 0 0 0 0 127 0"/>
<feOffset dy="2"/>
<feGaussianBlur stdDeviation="1"/>
<feColorMatrix type="matrix" values="0 0 0 0 0 0 0 0 0 0 0 0 0 0 0 0 0 0 0.05 0"/>
<feBlend mode="normal" in2="BackgroundImageFix" result="effect1_dropShadow"/>
<feBlend mode="normal" in="SourceGraphic" in2="effect1_dropShadow" result="shape"/>
</filter>
<filter id="filter4_d" x="0" y="103" width="138" height="40" filterUnits="userSpaceOnUse" color-interpolation-filters="sRGB">
<feFlood flood-opacity="0" result="BackgroundImageFix"/>
<feColorMatrix in="SourceAlpha" type="matrix" values="0 0 0 0 0 0 0 0 0 0 0 0 0 0 0 0 0 0 127 0"/>
<feOffset dy="2"/>
<feGaussianBlur stdDeviation="1"/>
<feColorMatrix type="matrix" values="0 0 0 0 0 0 0 0 0 0 0 0 0 0 0 0 0 0 0.05 0"/>
<feBlend mode="normal" in2="BackgroundImageFix" result="effect1_dropShadow"/>
<feBlend mode="normal" in="SourceGraphic" in2="effect1_dropShadow" result="shape"/>
</filter>
<filter id="filter5_d" x="139" y="173" width="100" height="40" filterUnits="userSpaceOnUse" color-interpolation-filters="sRGB">
<feFlood flood-opacity="0" result="BackgroundImageFix"/>
<feColorMatrix in="SourceAlpha" type="matrix" values="0 0 0 0 0 0 0 0 0 0 0 0 0 0 0 0 0 0 127 0"/>
<feOffset dy="2"/>
<feGaussianBlur stdDeviation="1"/>
<feColorMatrix type="matrix" values="0 0 0 0 0 0 0 0 0 0 0 0 0 0 0 0 0 0 0.05 0"/>
<feBlend mode="normal" in2="BackgroundImageFix" result="effect1_dropShadow"/>
<feBlend mode="normal" in="SourceGraphic" in2="effect1_dropShadow" result="shape"/>
</filter>
<filter id="filter6_d" x="375" y="247" width="185" height="40" filterUnits="userSpaceOnUse" color-interpolation-filters="sRGB">
<feFlood flood-opacity="0" result="BackgroundImageFix"/>
<feColorMatrix in="SourceAlpha" type="matrix" values="0 0 0 0 0 0 0 0 0 0 0 0 0 0 0 0 0 0 127 0"/>
<feOffset dy="2"/>
<feGaussianBlur stdDeviation="1"/>
<feColorMatrix type="matrix" values="0 0 0 0 0 0 0 0 0 0 0 0 0 0 0 0 0 0 0.05 0"/>
<feBlend mode="normal" in2="BackgroundImageFix" result="effect1_dropShadow"/>
<feBlend mode="normal" in="SourceGraphic" in2="effect1_dropShadow" result="shape"/>
</filter>
<filter id="filter7_d" x="13" y="247" width="127" height="40" filterUnits="userSpaceOnUse" color-interpolation-filters="sRGB">
<feFlood flood-opacity="0" result="BackgroundImageFix"/>
<feColorMatrix in="SourceAlpha" type="matrix" values="0 0 0 0 0 0 0 0 0 0 0 0 0 0 0 0 0 0 127 0"/>
<feOffset dy="2"/>
<feGaussianBlur stdDeviation="1"/>
<feColorMatrix type="matrix" values="0 0 0 0 0 0 0 0 0 0 0 0 0 0 0 0 0 0 0.05 0"/>
<feBlend mode="normal" in2="BackgroundImageFix" result="effect1_dropShadow"/>
<feBlend mode="normal" in="SourceGraphic" in2="effect1_dropShadow" result="shape"/>
</filter>
<filter id="filter8_d" x="294" y="335" width="151" height="40" filterUnits="userSpaceOnUse" color-interpolation-filters="sRGB">
<feFlood flood-opacity="0" result="BackgroundImageFix"/>
<feColorMatrix in="SourceAlpha" type="matrix" values="0 0 0 0 0 0 0 0 0 0 0 0 0 0 0 0 0 0 127 0"/>
<feOffset dy="2"/>
<feGaussianBlur stdDeviation="1"/>
<feColorMatrix type="matrix" values="0 0 0 0 0 0 0 0 0 0 0 0 0 0 0 0 0 0 0.05 0"/>
<feBlend mode="normal" in2="BackgroundImageFix" result="effect1_dropShadow"/>
<feBlend mode="normal" in="SourceGraphic" in2="effect1_dropShadow" result="shape"/>
</filter>
<filter id="filter9_d" x="224" y="247" width="126" height="40" filterUnits="userSpaceOnUse" color-interpolation-filters="sRGB">
<feFlood flood-opacity="0" result="BackgroundImageFix"/>
<feColorMatrix in="SourceAlpha" type="matrix" values="0 0 0 0 0 0 0 0 0 0 0 0 0 0 0 0 0 0 127 0"/>
<feOffset dy="2"/>
<feGaussianBlur stdDeviation="1"/>
<feColorMatrix type="matrix" values="0 0 0 0 0 0 0 0 0 0 0 0 0 0 0 0 0 0 0.05 0"/>
<feBlend mode="normal" in2="BackgroundImageFix" result="effect1_dropShadow"/>
<feBlend mode="normal" in="SourceGraphic" in2="effect1_dropShadow" result="shape"/>
</filter>
<filter id="filter10_d" x="535" y="335" width="91" height="40" filterUnits="userSpaceOnUse" color-interpolation-filters="sRGB">
<feFlood flood-opacity="0" result="BackgroundImageFix"/>
<feColorMatrix in="SourceAlpha" type="matrix" values="0 0 0 0 0 0 0 0 0 0 0 0 0 0 0 0 0 0 127 0"/>
<feOffset dy="2"/>
<feGaussianBlur stdDeviation="1"/>
<feColorMatrix type="matrix" values="0 0 0 0 0 0 0 0 0 0 0 0 0 0 0 0 0 0 0.05 0"/>
<feBlend mode="normal" in2="BackgroundImageFix" result="effect1_dropShadow"/>
<feBlend mode="normal" in="SourceGraphic" in2="effect1_dropShadow" result="shape"/>
</filter>
<filter id="filter11_d" x="585" y="238" width="152" height="40" filterUnits="userSpaceOnUse" color-interpolation-filters="sRGB">
<feFlood flood-opacity="0" result="BackgroundImageFix"/>
<feColorMatrix in="SourceAlpha" type="matrix" values="0 0 0 0 0 0 0 0 0 0 0 0 0 0 0 0 0 0 127 0"/>
<feOffset dy="2"/>
<feGaussianBlur stdDeviation="1"/>
<feColorMatrix type="matrix" values="0 0 0 0 0 0 0 0 0 0 0 0 0 0 0 0 0 0 0.05 0"/>
<feBlend mode="normal" in2="BackgroundImageFix" result="effect1_dropShadow"/>
<feBlend mode="normal" in="SourceGraphic" in2="effect1_dropShadow" result="shape"/>
</filter>
<filter id="filter12_d" x="84" y="335" width="196" height="40" filterUnits="userSpaceOnUse" color-interpolation-filters="sRGB">
<feFlood flood-opacity="0" result="BackgroundImageFix"/>
<feColorMatrix in="SourceAlpha" type="matrix" values="0 0 0 0 0 0 0 0 0 0 0 0 0 0 0 0 0 0 127 0"/>
<feOffset dy="2"/>
<feGaussianBlur stdDeviation="1"/>
<feColorMatrix type="matrix" values="0 0 0 0 0 0 0 0 0 0 0 0 0 0 0 0 0 0 0.05 0"/>
<feBlend mode="normal" in2="BackgroundImageFix" result="effect1_dropShadow"/>
<feBlend mode="normal" in="SourceGraphic" in2="effect1_dropShadow" result="shape"/>
</filter>
<filter id="filter13_d" x="409" y="393" width="111" height="40" filterUnits="userSpaceOnUse" color-interpolation-filters="sRGB">
<feFlood flood-opacity="0" result="BackgroundImageFix"/>
<feColorMatrix in="SourceAlpha" type="matrix" values="0 0 0 0 0 0 0 0 0 0 0 0 0 0 0 0 0 0 127 0"/>
<feOffset dy="2"/>
<feGaussianBlur stdDeviation="1"/>
<feColorMatrix type="matrix" values="0 0 0 0 0 0 0 0 0 0 0 0 0 0 0 0 0 0 0.05 0"/>
<feBlend mode="normal" in2="BackgroundImageFix" result="effect1_dropShadow"/>
<feBlend mode="normal" in="SourceGraphic" in2="effect1_dropShadow" result="shape"/>
</filter>
<filter id="filter14_d" x="633" y="129" width="128" height="40" filterUnits="userSpaceOnUse" color-interpolation-filters="sRGB">
<feFlood flood-opacity="0" result="BackgroundImageFix"/>
<feColorMatrix in="SourceAlpha" type="matrix" values="0 0 0 0 0 0 0 0 0 0 0 0 0 0 0 0 0 0 127 0"/>
<feOffset dy="2"/>
<feGaussianBlur stdDeviation="1"/>
<feColorMatrix type="matrix" values="0 0 0 0 0 0 0 0 0 0 0 0 0 0 0 0 0 0 0.05 0"/>
<feBlend mode="normal" in2="BackgroundImageFix" result="effect1_dropShadow"/>
<feBlend mode="normal" in="SourceGraphic" in2="effect1_dropShadow" result="shape"/>
</filter>
</defs>
</svg>
