<?xml version="1.0" encoding="UTF-8" standalone="no"?>
<!--

    Copyright (C) 2017-2019 Dremio Corporation

    Licensed under the Apache License, Version 2.0 (the "License");
    you may not use this file except in compliance with the License.
    You may obtain a copy of the License at

        http://www.apache.org/licenses/LICENSE-2.0

    Unless required by applicable law or agreed to in writing, software
    distributed under the License is distributed on an "AS IS" BASIS,
    WITHOUT WARRANTIES OR CONDITIONS OF ANY KIND, either express or implied.
    See the License for the specific language governing permissions and
    limitations under the License.

-->
<svg width="24" height="17" viewBox="0 0 24 24" fill="none" xmlns="http://www.w3.org/2000/svg">
<path fill-rule="evenodd" clip-rule="evenodd" d="M15.5 5.5C15.5 3.57 13.93 2 12 2C10.07 2 8.5 3.57 8.5 5.5C8.5 7.43 10.07 9 12 9C13.93 9 15.5 7.43 15.5 5.5ZM9.5 5.5C9.5 4.121 10.622 3 12 3C13.378 3 14.5 4.121 14.5 5.5C14.5 6.879 13.378 8 12 8C10.622 8 9.5 6.879 9.5 5.5ZM19.5 16C19.776 16 20 15.776 20 15.5V10.5C20 10.224 19.776 10 19.5 10H4.5C4.224 10 4 10.224 4 10.5V15.5C4 15.776 4.224 16 4.5 16C4.776 16 5 15.776 5 15.5V11H11.5V15.5C11.5 15.776 11.724 16 12 16C12.276 16 12.5 15.776 12.5 15.5V11H19V15.5C19 15.776 19.224 16 19.5 16ZM17 19.5C17 18.121 18.122 17 19.5 17C20.878 17 22 18.121 22 19.5C22 20.879 20.878 22 19.5 22C18.122 22 17 20.879 17 19.5ZM18 19.5C18 20.327 18.673 21 19.5 21C20.327 21 21 20.327 21 19.5C21 18.673 20.327 18 19.5 18C18.673 18 18 18.673 18 19.5ZM4.5 17C3.122 17 2 18.121 2 19.5C2 20.879 3.122 22 4.5 22C5.878 22 7 20.879 7 19.5C7 18.121 5.878 17 4.5 17ZM4.5 21C3.673 21 3 20.327 3 19.5C3 18.673 3.673 18 4.5 18C5.327 18 6 18.673 6 19.5C6 20.327 5.327 21 4.5 21ZM9.5 19.5C9.5 18.121 10.622 17 12 17C13.378 17 14.5 18.121 14.5 19.5C14.5 20.879 13.378 22 12 22C10.622 22 9.5 20.879 9.5 19.5ZM10.5 19.5C10.5 20.327 11.173 21 12 21C12.827 21 13.5 20.327 13.5 19.5C13.5 18.673 12.827 18 12 18C11.173 18 10.5 18.673 10.5 19.5Z" fill="#77818F"/>
</svg>
