<?xml version="1.0" encoding="UTF-8"?>
<!--

    Copyright (C) 2017-2019 Dremio Corporation

    Licensed under the Apache License, Version 2.0 (the "License");
    you may not use this file except in compliance with the License.
    You may obtain a copy of the License at

        http://www.apache.org/licenses/LICENSE-2.0

    Unless required by applicable law or agreed to in writing, software
    distributed under the License is distributed on an "AS IS" BASIS,
    WITHOUT WARRANTIES OR CONDITIONS OF ANY KIND, either express or implied.
    See the License for the specific language governing permissions and
    limitations under the License.

-->
<svg width="24" height="24" viewBox="11 113 24 24" fill="none" xmlns="http://www.w3.org/2000/svg">
<g clip-path="url(#clip0)">
<rect width="24" height="24" fill="white"/>
<path d="M32 122.052V121.231H29.0501L31.062 119.489L29.5089 117.806H31.8946V117.131H28.1665V117.806L29.8488 119.631L28 121.241V122.052H32Z" fill="#5C5C5C"/>
<path fill-rule="evenodd" clip-rule="evenodd" d="M23.4405 117.132L23.5196 117.144C23.6775 117.184 23.795 117.312 23.8253 117.468L23.833 117.549V123.824H27.5834C27.7301 123.824 27.8668 123.902 27.9418 124.029C28.0018 124.13 28.0154 124.251 27.9826 124.362L27.9493 124.442L22.9487 133.645C22.8746 133.782 22.7329 133.864 22.5829 133.864C22.5487 133.864 22.5137 133.86 22.4795 133.85C22.3217 133.81 22.2042 133.682 22.1738 133.526L22.1662 133.446V127.17H18.4157C18.2691 127.17 18.1324 127.093 18.0582 126.965C17.9982 126.864 17.9846 126.743 18.0174 126.632L18.0507 126.552L23.0513 117.349C23.1291 117.205 23.2823 117.123 23.4405 117.132ZM22.833 119.837L19.383 126.185L23.1662 126.186L23.166 131.156L26.616 124.807L22.833 124.808L22.833 119.837Z" fill="url(#paint4_linear)"/>
</g>
<defs>
<linearGradient id="paint4_linear" x1="18" y1="117.131" x2="18" y2="133.864" gradientUnits="userSpaceOnUse">
<stop stop-color="#56A2FD"/>
<stop offset="1" stop-color="#C94DCA"/>
</linearGradient>
</defs>
</svg>
