<?xml version="1.0" encoding="UTF-8"?>
<!--

    Copyright (C) 2017-2019 Dremio Corporation

    Licensed under the Apache License, Version 2.0 (the "License");
    you may not use this file except in compliance with the License.
    You may obtain a copy of the License at

        http://www.apache.org/licenses/LICENSE-2.0

    Unless required by applicable law or agreed to in writing, software
    distributed under the License is distributed on an "AS IS" BASIS,
    WITHOUT WARRANTIES OR CONDITIONS OF ANY KIND, either express or implied.
    See the License for the specific language governing permissions and
    limitations under the License.

-->
<svg width="24" height="24" viewBox="0 0 24 24" fill="none" xmlns="http://www.w3.org/2000/svg">
<path fill-rule="evenodd" clip-rule="evenodd" d="M12.4405 3.50065L12.5196 3.51303C12.6775 3.55383 12.795 3.68394 12.8253 3.84286L12.833 3.92444V10.2997H16.5834C16.7301 10.2997 16.8668 10.3787 16.9418 10.5079C17.0018 10.6106 17.0154 10.734 16.9826 10.8462L16.9493 10.9278L11.9487 20.2781C11.8746 20.4167 11.7329 20.5 11.5829 20.5C11.5487 20.5 11.5137 20.4958 11.4795 20.4864C11.3217 20.4456 11.2042 20.3155 11.1738 20.1566L11.1662 20.075V13.6998H7.41574C7.26905 13.6998 7.13237 13.6207 7.0582 13.4915C6.99819 13.3888 6.98459 13.2655 7.01739 13.1532L7.0507 13.0716L12.0513 3.72129C12.1291 3.57557 12.2823 3.49167 12.4405 3.50065ZM11.833 6.249L8.383 12.699L12.1662 12.6998L12.166 17.749L15.616 11.299L11.833 11.2997L11.833 6.249Z" fill="url(#paint0_linear)"/>
<defs>
<linearGradient id="paint0_linear" x1="7" y1="3.5" x2="7" y2="20.5" gradientUnits="userSpaceOnUse">
<stop stop-color="#56A2FD"/>
<stop offset="1" stop-color="#C94DCA"/>
</linearGradient>
</defs>
</svg>
