<?xml version="1.0" encoding="UTF-8" standalone="no"?>
<!--

    Copyright (C) 2017-2019 Dremio Corporation

    Licensed under the Apache License, Version 2.0 (the "License");
    you may not use this file except in compliance with the License.
    You may obtain a copy of the License at

        http://www.apache.org/licenses/LICENSE-2.0

    Unless required by applicable law or agreed to in writing, software
    distributed under the License is distributed on an "AS IS" BASIS,
    WITHOUT WARRANTIES OR CONDITIONS OF ANY KIND, either express or implied.
    See the License for the specific language governing permissions and
    limitations under the License.

-->
<svg width="24" height="24" viewBox="0 0 24 24" fill="none" xmlns="http://www.w3.org/2000/svg">
<path d="M9.99987 2.75C11.37 2.74983 12.7121 3.13789 13.8707 3.86922C15.0292 4.60054 15.9569 5.64519 16.5461 6.88212C17.1353 8.11905 17.362 9.49762 17.1998 10.8581C17.0376 12.2186 16.4933 13.5052 15.6299 14.569L20.5299 19.469C20.6644 19.6027 20.7433 19.7823 20.7507 19.9718C20.7581 20.1613 20.6934 20.3466 20.5697 20.4903C20.446 20.6341 20.2725 20.7256 20.084 20.7465C19.8955 20.7674 19.7061 20.7161 19.5539 20.603L19.4699 20.53L14.5689 15.63C13.6677 16.3611 12.6043 16.8653 11.4679 17.1C10.3315 17.3348 9.15532 17.2934 8.03824 16.9793C6.92116 16.6651 5.89581 16.0874 5.04836 15.2947C4.20091 14.502 3.55611 13.5175 3.16816 12.4238C2.7802 11.3302 2.66043 10.1594 2.8189 9.00989C2.97738 7.86035 3.40947 6.76565 4.07886 5.81778C4.74825 4.8699 5.63539 4.09655 6.66571 3.56272C7.69604 3.02889 8.83946 2.75018 9.99987 2.75ZM9.99987 4.25C9.24476 4.25 8.49706 4.39873 7.79944 4.68769C7.10181 4.97666 6.46794 5.4002 5.934 5.93414C5.40006 6.46807 4.97652 7.10195 4.68756 7.79957C4.39859 8.49719 4.24987 9.2449 4.24987 10C4.24987 10.7551 4.39859 11.5028 4.68756 12.2004C4.97652 12.8981 5.40006 13.5319 5.934 14.0659C6.46794 14.5998 7.10181 15.0233 7.79944 15.3123C8.49706 15.6013 9.24476 15.75 9.99987 15.75C11.5249 15.75 12.9874 15.1442 14.0657 14.0659C15.1441 12.9875 15.7499 11.525 15.7499 10C15.7499 8.47501 15.1441 7.01247 14.0657 5.93414C12.9874 4.8558 11.5249 4.25 9.99987 4.25Z" fill="#505862"/>
</svg>
