<?xml version="1.0" encoding="UTF-8" standalone="no"?>
<!--

    Copyright (C) 2017-2019 Dremio Corporation

    Licensed under the Apache License, Version 2.0 (the "License");
    you may not use this file except in compliance with the License.
    You may obtain a copy of the License at

        http://www.apache.org/licenses/LICENSE-2.0

    Unless required by applicable law or agreed to in writing, software
    distributed under the License is distributed on an "AS IS" BASIS,
    WITHOUT WARRANTIES OR CONDITIONS OF ANY KIND, either express or implied.
    See the License for the specific language governing permissions and
    limitations under the License.

-->
<svg width="24" height="24" viewBox="0 0 24 24" fill="none" xmlns="http://www.w3.org/2000/svg">
<path fill-rule="evenodd" clip-rule="evenodd" d="M3.55268 11.0231L20.4537 4.04153C20.4969 4.0191 20.5421 4.00646 20.5873 4.00243C20.7066 3.98861 20.8132 4.03495 20.8882 4.11196C20.9404 4.16316 20.9782 4.22961 20.9923 4.30598C21.0057 4.36943 21.0029 4.4366 20.9798 4.50105L18.1017 18.1707C18.0289 18.5099 17.7933 18.7912 17.4722 18.9223C17.151 19.0535 16.7858 19.0176 16.4951 18.8255L12.8918 16.4238L11.1716 19.3726C10.9975 19.6702 10.6456 19.8144 10.3127 19.7246C10.0168 19.6447 9.80098 19.3975 9.7562 19.1008L9.7476 18.9875V14.4125L3.65289 12.7188C3.28581 12.614 3.02479 12.289 3.00166 11.9079C2.97853 11.5269 3.19832 11.1727 3.55268 11.0231ZM10.4976 14.8281L10.4976 18.9867C10.4976 18.9932 10.5019 18.9988 10.5081 19.0005L10.5172 18.9999L10.5239 18.9943L12.2666 16.0071L10.4976 14.8281ZM12.9863 15.5853C12.9801 15.581 12.9738 15.5767 12.9673 15.5727L10.7261 14.0788L20.0123 5.45594L17.3682 18.0147C17.3477 18.1102 17.2803 18.1905 17.1886 18.228L17.1179 18.2472C17.046 18.2576 16.9718 18.2416 16.9098 18.2006L12.9863 15.5853ZM10.0206 13.7095L18.8436 5.51748L3.84168 11.7152C3.78306 11.74 3.74643 11.799 3.75029 11.8625C3.75414 11.926 3.79764 11.9802 3.85626 11.9969L10.0206 13.7095Z" fill="#34A1B2"/>
</svg>
