<?xml version="1.0" encoding="UTF-8" standalone="no"?>
<!--

    Copyright (C) 2017-2019 Dremio Corporation

    Licensed under the Apache License, Version 2.0 (the "License");
    you may not use this file except in compliance with the License.
    You may obtain a copy of the License at

        http://www.apache.org/licenses/LICENSE-2.0

    Unless required by applicable law or agreed to in writing, software
    distributed under the License is distributed on an "AS IS" BASIS,
    WITHOUT WARRANTIES OR CONDITIONS OF ANY KIND, either express or implied.
    See the License for the specific language governing permissions and
    limitations under the License.

-->
<svg width="18" height="14" viewBox="0 0 18 14" fill="none" xmlns="http://www.w3.org/2000/svg">
<path fill-rule="evenodd" clip-rule="evenodd" d="M0 1.5C0 0.947715 0.447715 0.5 1 0.5H2C2.55228 0.5 3 0.947715 3 1.5V2.5C3 3.05228 2.55228 3.5 2 3.5H1C0.447715 3.5 0 3.05228 0 2.5V1.5ZM5.5 2.5C5.22386 2.5 5 2.27614 5 2C5 1.72386 5.22386 1.5 5.5 1.5H17.5C17.7761 1.5 18 1.72386 18 2C18 2.27614 17.7761 2.5 17.5 2.5H5.5ZM0 6.5C0 5.94772 0.447715 5.5 1 5.5H2C2.55228 5.5 3 5.94772 3 6.5V7.5C3 8.05228 2.55228 8.5 2 8.5H1C0.447715 8.5 0 8.05228 0 7.5V6.5ZM5.5 7.5C5.22386 7.5 5 7.27614 5 7C5 6.72386 5.22386 6.5 5.5 6.5H17.5C17.7761 6.5 18 6.72386 18 7C18 7.27614 17.7761 7.5 17.5 7.5H5.5ZM0 11.5C0 10.9477 0.447715 10.5 1 10.5H2C2.55228 10.5 3 10.9477 3 11.5V12.5C3 13.0523 2.55228 13.5 2 13.5H1C0.447715 13.5 0 13.0523 0 12.5V11.5ZM1 1.5V2.5H2V1.5H1ZM1 6.5V7.5H2V6.5H1ZM1 11.5V12.5H2V11.5H1ZM5.5 12.5C5.22386 12.5 5 12.2761 5 12C5 11.7239 5.22386 11.5 5.5 11.5H17.5C17.7761 11.5 18 11.7239 18 12C18 12.2761 17.7761 12.5 17.5 12.5H5.5Z" fill="#77818F"/>
</svg>
