<?xml version="1.0" encoding="UTF-8"?>
<!--

    Copyright (C) 2017-2019 Dremio Corporation

    Licensed under the Apache License, Version 2.0 (the "License");
    you may not use this file except in compliance with the License.
    You may obtain a copy of the License at

        http://www.apache.org/licenses/LICENSE-2.0

    Unless required by applicable law or agreed to in writing, software
    distributed under the License is distributed on an "AS IS" BASIS,
    WITHOUT WARRANTIES OR CONDITIONS OF ANY KIND, either express or implied.
    See the License for the specific language governing permissions and
    limitations under the License.

-->
<svg width="20" height="16" viewBox="0 0 20 16" fill="none" xmlns="http://www.w3.org/2000/svg">
<path fill-rule="evenodd" clip-rule="evenodd" d="M2.25 0C1.00736 0 0 1.00736 0 2.25V13.75C0 14.9926 1.00736 16 2.25 16H17.75C18.9926 16 20 14.9926 20 13.75V2.25C20 1.00736 18.9926 0 17.75 0H2.25ZM1.5 2.25C1.5 1.83579 1.83579 1.5 2.25 1.5H4.625V3.70833H1.5V2.25ZM1.5 5.20833V7.33333H4.625V5.20833H1.5ZM1.5 8.83333V10.9583H4.625V8.83333H1.5ZM1.5 12.4583V13.75C1.5 14.1642 1.83579 14.5 2.25 14.5H4.625V12.4583H1.5ZM6.125 14.5H9.25V12.4583H6.125V14.5ZM10.75 14.5H13.875V12.4583H10.75V14.5ZM15.375 14.5H17.75C18.1642 14.5 18.5 14.1642 18.5 13.75V12.4583H15.375V14.5ZM18.5 10.9583V8.83333H15.375V10.9583H18.5ZM18.5 7.33333V5.20833H15.375V7.33333H18.5ZM18.5 3.70833V2.25C18.5 1.83579 18.1642 1.5 17.75 1.5H15.375V3.70833H18.5ZM13.875 1.5H10.75V3.70833H13.875V1.5ZM9.25 1.5H6.125V3.70833H9.25V1.5ZM10.75 5.20833H13.875V7.33333H10.75V5.20833ZM10.75 8.83333H13.875V10.9583H10.75V8.83333ZM6.125 10.9583H9.25V8.83333H6.125V10.9583ZM6.125 7.33333V5.20833H9.25V7.33333H6.125Z" fill="#EEEFF1"/>
</svg>
