<?xml version="1.0" encoding="UTF-8"?>
<!--

    Copyright (C) 2017-2019 Dremio Corporation

    Licensed under the Apache License, Version 2.0 (the "License");
    you may not use this file except in compliance with the License.
    You may obtain a copy of the License at

        http://www.apache.org/licenses/LICENSE-2.0

    Unless required by applicable law or agreed to in writing, software
    distributed under the License is distributed on an "AS IS" BASIS,
    WITHOUT WARRANTIES OR CONDITIONS OF ANY KIND, either express or implied.
    See the License for the specific language governing permissions and
    limitations under the License.

-->
<svg width="20" height="20" viewBox="0 0 20 20" fill="none" xmlns="http://www.w3.org/2000/svg">
<path d="M10.012 0.25C10.746 0.258 11.477 0.343 12.194 0.503C12.3465 0.53705 12.4846 0.617903 12.5889 0.734261C12.6933 0.850618 12.7587 0.996668 12.776 1.152L12.946 2.679C12.97 2.89428 13.0442 3.10093 13.1626 3.28231C13.281 3.46368 13.4404 3.61473 13.6278 3.72329C13.8153 3.83185 14.0256 3.89489 14.2419 3.90735C14.4581 3.9198 14.6743 3.88132 14.873 3.795L16.274 3.18C16.4162 3.11735 16.5744 3.10044 16.7267 3.13161C16.879 3.16278 17.0178 3.24049 17.124 3.354C18.1359 4.43509 18.8895 5.73161 19.328 7.146C19.374 7.29464 19.3726 7.45389 19.324 7.60171C19.2755 7.74953 19.1821 7.87858 19.057 7.971L17.815 8.887C17.6403 9.0153 17.4983 9.1829 17.4004 9.37625C17.3025 9.56961 17.2515 9.78328 17.2515 10C17.2515 10.2167 17.3025 10.4304 17.4004 10.6237C17.4983 10.8171 17.6403 10.9847 17.815 11.113L19.058 12.028C19.1835 12.1204 19.2772 12.2495 19.3259 12.3976C19.3747 12.5456 19.3761 12.7051 19.33 12.854C18.8913 14.2683 18.1378 15.5648 17.126 16.646C17.0201 16.7593 16.8816 16.8369 16.7298 16.8682C16.5779 16.8996 16.4201 16.8831 16.278 16.821L14.871 16.204C14.6726 16.117 14.4565 16.0779 14.2402 16.09C14.0238 16.102 13.8134 16.1648 13.6259 16.2733C13.4383 16.3817 13.279 16.5328 13.1607 16.7143C13.0424 16.8958 12.9685 17.1026 12.945 17.318L12.776 18.844C12.7589 18.9976 12.6948 19.1423 12.5924 19.2581C12.49 19.3739 12.3544 19.4553 12.204 19.491C10.7555 19.8356 9.24642 19.8356 7.79797 19.491C7.64757 19.4553 7.5119 19.3739 7.4095 19.2581C7.30711 19.1423 7.24301 18.9976 7.22597 18.844L7.05797 17.32C7.03347 17.1052 6.95892 16.8991 6.84029 16.7183C6.72166 16.5376 6.56228 16.3872 6.37495 16.2792C6.18762 16.1712 5.97757 16.1087 5.76169 16.0967C5.54581 16.0847 5.33013 16.1235 5.13197 16.21L3.72597 16.826C3.58375 16.8883 3.4257 16.9049 3.27363 16.8736C3.12156 16.8422 2.98296 16.7645 2.87697 16.651C1.86468 15.5686 1.11111 14.2707 0.672971 12.855C0.626868 12.7061 0.628288 12.5466 0.677034 12.3986C0.72578 12.2505 0.819431 12.1214 0.944971 12.029L2.18797 11.113C2.36282 10.9848 2.50501 10.8173 2.60302 10.6239C2.70103 10.4305 2.75211 10.2168 2.75211 10C2.75211 9.78321 2.70103 9.56947 2.60302 9.3761C2.50501 9.18273 2.36282 9.01517 2.18797 8.887L0.944971 7.973C0.819609 7.88052 0.726156 7.75129 0.677592 7.60327C0.629028 7.45525 0.627762 7.29577 0.673971 7.147C1.1125 5.73262 1.86606 4.43611 2.87797 3.355C2.98416 3.24149 3.12298 3.16378 3.27526 3.13261C3.42753 3.10144 3.58573 3.11835 3.72797 3.181L5.12797 3.796C5.32699 3.88227 5.54347 3.92066 5.76002 3.90809C5.97657 3.89551 6.18715 3.83232 6.37484 3.7236C6.56254 3.61487 6.72212 3.46363 6.84076 3.28204C6.9594 3.10045 7.0338 2.89356 7.05797 2.678L7.22797 1.152C7.24513 0.996355 7.31058 0.849984 7.41513 0.733414C7.51968 0.616845 7.6581 0.535924 7.81097 0.502C8.52797 0.343 9.26097 0.259 10.012 0.25ZM10.012 1.75C9.55836 1.75533 9.10577 1.79443 8.65797 1.867L8.54897 2.844C8.49905 3.29356 8.34415 3.7251 8.09678 4.10379C7.84941 4.48248 7.51649 4.79772 7.12488 5.02409C6.73327 5.25045 6.29393 5.3816 5.84232 5.40694C5.3907 5.43229 4.93945 5.35112 4.52497 5.17L3.62697 4.776C3.05496 5.47012 2.59968 6.25268 2.27897 7.093L3.07697 7.68C3.44119 7.94767 3.73731 8.29728 3.94141 8.70056C4.14552 9.10385 4.25186 9.54951 4.25186 10.0015C4.25186 10.4535 4.14552 10.8991 3.94141 11.3024C3.73731 11.7057 3.44119 12.0553 3.07697 12.323L2.27797 12.911C2.59797 13.753 3.05397 14.537 3.62597 15.233L4.53097 14.836C4.94446 14.6555 5.39456 14.5745 5.84504 14.5997C6.29553 14.6249 6.7338 14.7555 7.12459 14.981C7.51538 15.2065 7.84776 15.5206 8.09499 15.898C8.34221 16.2755 8.49737 16.7057 8.54797 17.154L8.65797 18.138C9.54697 18.288 10.456 18.288 11.345 18.138L11.455 17.154C11.5048 16.7051 11.6594 16.2742 11.9064 15.896C12.1534 15.5179 12.4858 15.2031 12.8769 14.9771C13.268 14.7511 13.7067 14.6202 14.1576 14.595C14.6086 14.5698 15.0592 14.651 15.473 14.832L16.378 15.228C16.9497 14.5335 17.4046 13.7506 17.725 12.91L16.927 12.322C16.5628 12.0543 16.2666 11.7047 16.0625 11.3014C15.8584 10.8981 15.7521 10.4525 15.7521 10.0005C15.7521 9.54851 15.8584 9.10285 16.0625 8.69956C16.2666 8.29628 16.5628 7.94667 16.927 7.679L17.723 7.092C17.4023 6.25168 16.947 5.46912 16.375 4.775L15.479 5.168C15.0647 5.34935 14.6136 5.43075 14.1621 5.40562C13.7106 5.38049 13.2713 5.24953 12.8798 5.02333C12.4882 4.79713 12.1553 4.48203 11.908 4.10345C11.6607 3.72488 11.5058 3.29345 11.456 2.844L11.346 1.868C10.9052 1.79593 10.4596 1.75682 10.013 1.751L10.012 1.75ZM9.99997 6.25C10.9945 6.25 11.9484 6.64509 12.6516 7.34835C13.3549 8.05161 13.75 9.00544 13.75 10C13.75 10.9946 13.3549 11.9484 12.6516 12.6517C11.9484 13.3549 10.9945 13.75 9.99997 13.75C9.00541 13.75 8.05158 13.3549 7.34832 12.6517C6.64506 11.9484 6.24997 10.9946 6.24997 10C6.24997 9.00544 6.64506 8.05161 7.34832 7.34835C8.05158 6.64509 9.00541 6.25 9.99997 6.25ZM9.99997 7.75C9.40323 7.75 8.83094 7.98705 8.40898 8.40901C7.98702 8.83097 7.74997 9.40326 7.74997 10C7.74997 10.5967 7.98702 11.169 8.40898 11.591C8.83094 12.0129 9.40323 12.25 9.99997 12.25C10.5967 12.25 11.169 12.0129 11.591 11.591C12.0129 11.169 12.25 10.5967 12.25 10C12.25 9.40326 12.0129 8.83097 11.591 8.40901C11.169 7.98705 10.5967 7.75 9.99997 7.75Z" fill="#EEEFF1"/>
</svg>
