<?xml version="1.0" encoding="UTF-8"?>
<!--

    Copyright (C) 2017-2019 Dremio Corporation

    Licensed under the Apache License, Version 2.0 (the "License");
    you may not use this file except in compliance with the License.
    You may obtain a copy of the License at

        http://www.apache.org/licenses/LICENSE-2.0

    Unless required by applicable law or agreed to in writing, software
    distributed under the License is distributed on an "AS IS" BASIS,
    WITHOUT WARRANTIES OR CONDITIONS OF ANY KIND, either express or implied.
    See the License for the specific language governing permissions and
    limitations under the License.

-->
<svg width="20" height="20" viewBox="0 0 20 20" fill="none" xmlns="http://www.w3.org/2000/svg">
<path d="M10 0C15.523 0 20 4.478 20 10C20 15.522 15.523 20 10 20C4.477 20 0 15.522 0 10C0 4.478 4.477 0 10 0ZM10 1.667C5.405 1.667 1.667 5.405 1.667 10C1.667 14.595 5.405 18.333 10 18.333C14.595 18.333 18.333 14.595 18.333 10C18.333 5.405 14.595 1.667 10 1.667ZM10 13.5C10.2652 13.5 10.5196 13.6054 10.7071 13.7929C10.8946 13.9804 11 14.2348 11 14.5C11 14.7652 10.8946 15.0196 10.7071 15.2071C10.5196 15.3946 10.2652 15.5 10 15.5C9.73478 15.5 9.48043 15.3946 9.29289 15.2071C9.10536 15.0196 9 14.7652 9 14.5C9 14.2348 9.10536 13.9804 9.29289 13.7929C9.48043 13.6054 9.73478 13.5 10 13.5ZM10 4.75C10.7293 4.75 11.4288 5.03973 11.9445 5.55546C12.4603 6.07118 12.75 6.77065 12.75 7.5C12.75 8.51 12.453 9.074 11.699 9.859L11.53 10.03C10.908 10.652 10.75 10.916 10.75 11.5C10.75 11.6989 10.671 11.8897 10.5303 12.0303C10.3897 12.171 10.1989 12.25 10 12.25C9.80109 12.25 9.61032 12.171 9.46967 12.0303C9.32902 11.8897 9.25 11.6989 9.25 11.5C9.25 10.49 9.547 9.926 10.301 9.141L10.47 8.97C11.092 8.348 11.25 8.084 11.25 7.5C11.249 7.18028 11.1255 6.8731 10.9049 6.64165C10.6843 6.4102 10.3834 6.27208 10.0641 6.25568C9.7448 6.23929 9.43135 6.34587 9.18822 6.55351C8.94509 6.76115 8.79077 7.05406 8.757 7.372L8.75 7.5C8.75 7.69891 8.67098 7.88968 8.53033 8.03033C8.38968 8.17098 8.19891 8.25 8 8.25C7.80109 8.25 7.61032 8.17098 7.46967 8.03033C7.32902 7.88968 7.25 7.69891 7.25 7.5C7.25 6.77065 7.53973 6.07118 8.05546 5.55546C8.57118 5.03973 9.27065 4.75 10 4.75Z" fill="#EEEFF1"/>
</svg>
