<?xml version="1.0" encoding="UTF-8" standalone="no"?>
<!--

    Copyright (C) 2017-2019 Dremio Corporation

    Licensed under the Apache License, Version 2.0 (the "License");
    you may not use this file except in compliance with the License.
    You may obtain a copy of the License at

        http://www.apache.org/licenses/LICENSE-2.0

    Unless required by applicable law or agreed to in writing, software
    distributed under the License is distributed on an "AS IS" BASIS,
    WITHOUT WARRANTIES OR CONDITIONS OF ANY KIND, either express or implied.
    See the License for the specific language governing permissions and
    limitations under the License.

-->
<svg width="48" height="48" viewBox="0 0 48 48" fill="none"
    xmlns="http://www.w3.org/2000/svg">
    <path d="M10.6913 26.5701C10.159 26.5701 9.63867 26.4123 9.19609 26.1165C8.75351 25.8208 8.40856 25.4005 8.20486 24.9087C8.00117 24.4169 7.94787 23.8758 8.05171 23.3538C8.15556 22.8317 8.41188 22.3521 8.78826 21.9758C9.16465 21.5994 9.64419 21.3431 10.1662 21.2392C10.6883 21.1354 11.2294 21.1887 11.7212 21.3924C12.213 21.5961 12.6333 21.941 12.929 22.3836C13.2247 22.8262 13.3826 23.3465 13.3826 23.8788C13.3815 24.5922 13.0976 25.2762 12.5931 25.7806C12.0886 26.2851 11.4047 26.569 10.6913 26.5701V26.5701Z" fill="#44B7C9"/>
    <path d="M29.8213 4.35213C29.5337 4.11057 29.166 3.98543 28.7908 4.00135C28.4155 4.01727 28.0598 4.1731 27.7936 4.43815L25.1064 7.12535C27.6047 9.16145 29.6161 11.7304 30.9934 14.6443C32.3707 17.5581 33.079 20.7431 33.0664 23.966C33.0538 27.1889 32.3207 30.3682 30.9208 33.2712C29.5208 36.1742 27.4895 38.7274 24.9753 40.744L27.7936 43.5623C28.0591 43.827 28.4141 43.9827 28.7887 43.9986C29.1633 44.0146 29.5302 43.8896 29.8172 43.6483C33.6767 40.401 36.4959 36.0903 37.9239 31.2528C38.5948 28.8524 38.9352 26.3717 38.9357 23.8794C38.9328 22.4486 38.8191 21.0201 38.5957 19.6069C37.5572 13.6478 34.4501 8.24604 29.8213 4.35213V4.35213Z" fill="#C5E8ED"/>
    <path d="M33.0654 23.879C33.0649 20.6708 32.3504 17.5029 30.9738 14.6051C29.5971 11.7073 27.5929 9.15216 25.1063 7.125L20.7314 11.504C22.6623 12.9548 24.2269 14.8372 25.3002 17.0008C26.3735 19.1644 26.9256 21.5491 26.9125 23.9642C26.8993 26.3793 26.3213 28.7579 25.2245 30.9097C24.1278 33.0615 22.5427 34.9268 20.5962 36.3565L24.9752 40.7395C27.4993 38.7136 29.5366 36.1469 30.9368 33.2289C32.337 30.3108 33.0644 27.1156 33.0654 23.879V23.879Z" fill="#83CDD9"/>
    <path d="M26.9168 23.8789C26.9162 21.4778 26.357 19.1098 25.2835 16.962C24.2099 14.8142 22.6515 12.9456 20.7313 11.5039L16.8521 15.3831C18.2938 16.3011 19.4783 17.5706 20.2942 19.0724C21.1102 20.5742 21.5308 22.2588 21.5164 23.9678C21.5021 25.6769 21.0533 27.3542 20.2123 28.8421C19.3713 30.3299 18.1656 31.5794 16.7087 32.473L20.5962 36.3564C22.5544 34.9179 24.1468 33.0391 25.2448 30.8716C26.3427 28.7041 26.9155 26.3087 26.9168 23.8789V23.8789Z" fill="#5EBFCE"/>
    <path d="M21.5179 23.8786C21.5155 22.1848 21.0869 20.5187 20.2715 19.034C19.4562 17.5493 18.2802 16.2937 16.8521 15.3828L12.8828 19.3358C12.7166 19.5019 12.593 19.7057 12.5223 19.9297C13.2783 20.2824 13.9171 20.8445 14.3631 21.5495C14.809 22.2544 15.0433 23.0725 15.0382 23.9067C15.033 24.7408 14.7886 25.5559 14.3339 26.2553C13.8792 26.9546 13.2334 27.5088 12.4731 27.8521C12.5214 28.161 12.6646 28.4473 12.8828 28.6713L16.6924 32.4809C18.1643 31.5785 19.3806 30.314 20.2254 28.8082C21.0701 27.3023 21.515 25.6052 21.5179 23.8786V23.8786Z" fill="#44B7C9"/>
</svg>
