<!--

    Copyright (C) 2017-2019 Dremio Corporation

    Licensed under the Apache License, Version 2.0 (the "License");
    you may not use this file except in compliance with the License.
    You may obtain a copy of the License at

        http://www.apache.org/licenses/LICENSE-2.0

    Unless required by applicable law or agreed to in writing, software
    distributed under the License is distributed on an "AS IS" BASIS,
    WITHOUT WARRANTIES OR CONDITIONS OF ANY KIND, either express or implied.
    See the License for the specific language governing permissions and
    limitations under the License.

-->
<svg width="24" height="24" viewBox="0 0 24 24" fill="none" xmlns="http://www.w3.org/2000/svg">
    <path 
        fill-rule="evenodd" 
        clip-rule="evenodd" 
        d="M22 4.5C22 3.94772 21.5523 3.5 21 3.5H3C2.44772 3.5 2 3.94772 2 4.5V19.5C2 20.0523 2.44772 20.5 3 20.5H21C21.5523 20.5 22 20.0523 22 19.5V4.5ZM3 4.5H21V19.5H3V4.5ZM18.5 14.5C18.7761 14.5 19 14.7239 19 15C19 15.2455 18.8231 15.4496 18.5899 15.4919L18.5 15.5H11.5C11.2239 15.5 11 15.2761 11 15C11 14.7545 11.1769 14.5504 11.4101 14.5081L11.5 14.5H18.5ZM6.14698 8.64601C6.34198 8.45101 6.65898 8.45101 6.85398 8.64601L9.85398 11.647C10.049 11.842 10.049 12.159 9.85398 12.354L6.85398 15.354C6.75598 15.451 6.62798 15.5 6.49998 15.5C6.37198 15.5 6.24398 15.451 6.14698 15.353C5.95198 15.158 5.95198 14.841 6.14698 14.646L8.79298 12L6.14698 9.35301C5.95198 9.15801 5.95198 8.84101 6.14698 8.64601Z" 
        fill="#6E7987"
    />
</svg>
