<?xml version="1.0" encoding="UTF-8" standalone="no"?>
<!--

    Copyright (C) 2017-2019 Dremio Corporation

    Licensed under the Apache License, Version 2.0 (the "License");
    you may not use this file except in compliance with the License.
    You may obtain a copy of the License at

        http://www.apache.org/licenses/LICENSE-2.0

    Unless required by applicable law or agreed to in writing, software
    distributed under the License is distributed on an "AS IS" BASIS,
    WITHOUT WARRANTIES OR CONDITIONS OF ANY KIND, either express or implied.
    See the License for the specific language governing permissions and
    limitations under the License.

-->
<svg width="24" height="24" viewBox="0 0 24 24" fill="none" xmlns="http://www.w3.org/2000/svg">
<path fill-rule="evenodd" clip-rule="evenodd" d="M4.01251 4.01238C2.8815 4.13103 2 5.08757 2 6.25V17.75C2 18.9926 3.00736 20 4.25 20H11.0218C10.7253 19.5368 10.4858 19.0335 10.3135 18.5H4.25C3.83579 18.5 3.5 18.1642 3.5 17.75V6.25C3.5 5.83579 3.83579 5.5 4.25 5.5H5.50009L4.01251 4.01238ZM12.6109 12.6109C11.6156 13.6062 11 14.9812 11 16.5C11 19.5376 13.4624 22 16.5 22C18.0187 22 19.3937 21.3844 20.389 20.3892L19.5303 19.5305C19.4685 19.5924 19.3946 19.6444 19.3103 19.6827C18.9332 19.8541 18.4886 19.6874 18.3172 19.3103L17.8352 18.2499H15.1647L14.6827 19.3103C14.5113 19.6874 14.0667 19.8541 13.6896 19.6827C13.3125 19.5113 13.1458 19.0667 13.3172 18.6896L14.996 14.9961L12.6109 12.6109ZM16.0683 12.8864L14.541 11.3591C15.1496 11.1271 15.81 11 16.5 11C19.5376 11 22 13.4624 22 16.5C22 17.1901 21.8729 17.8505 21.6409 18.4591L17.8588 14.6769L17.1842 13.1929C17.1473 13.1105 17.0955 13.0345 17.0304 12.9695C16.9879 12.9269 16.9397 12.8891 16.8864 12.8571C16.7703 12.7875 16.6366 12.7498 16.4999 12.7498C16.3452 12.7498 16.1941 12.7981 16.0683 12.8864ZM16.1288 16.1289L15.8465 16.7499H16.7498L16.1288 16.1289ZM8.68204 5.5L7.18207 4H19.75C20.9926 4 22 5.00736 22 6.25V13.0343C21.5987 12.3987 21.0902 11.8376 20.5 11.3762V6.25C20.5 5.83579 20.1642 5.5 19.75 5.5H8.68204ZM6.0529 15.2806C5.91245 15.14 5.83356 14.9494 5.83356 14.7506C5.83356 14.5519 5.91245 14.3613 6.0529 14.2206L8.32628 11.9472L6.07204 9.69291C5.99835 9.62425 5.93925 9.54145 5.89826 9.44945C5.85727 9.35745 5.83523 9.25814 5.83345 9.15744C5.83167 9.05673 5.8502 8.9567 5.88792 8.86332C5.92564 8.76993 5.98178 8.68509 6.053 8.61388C6.12422 8.54266 6.20905 8.48651 6.30244 8.44879C6.39583 8.41107 6.49586 8.39255 6.59656 8.39432C6.69727 8.3961 6.79658 8.41814 6.88858 8.45913C6.98058 8.50012 7.06338 8.55923 7.13204 8.63291L9.91629 11.4172C10.0567 11.5578 10.1356 11.7484 10.1356 11.9472C10.1356 12.1459 10.0567 12.3365 9.91629 12.4772L7.1129 15.2806C6.97227 15.4211 6.78165 15.5 6.5829 15.5C6.38415 15.5 6.19352 15.4211 6.0529 15.2806Z" fill="#505862"/>
<path d="M2.75 2.75L21.2498 21.2502" stroke="#505862" stroke-width="1.5" stroke-linecap="round"/>
</svg>
