<?xml version="1.0" encoding="UTF-8" standalone="no"?>
<!--

    Copyright (C) 2017-2019 Dremio Corporation

    Licensed under the Apache License, Version 2.0 (the "License");
    you may not use this file except in compliance with the License.
    You may obtain a copy of the License at

        http://www.apache.org/licenses/LICENSE-2.0

    Unless required by applicable law or agreed to in writing, software
    distributed under the License is distributed on an "AS IS" BASIS,
    WITHOUT WARRANTIES OR CONDITIONS OF ANY KIND, either express or implied.
    See the License for the specific language governing permissions and
    limitations under the License.

-->
<svg width="24" height="24" viewBox="0 0 24 24" fill="none" xmlns="http://www.w3.org/2000/svg">
<path d="M12.5303 2.21967C12.3897 2.07902 12.1989 2 12 2C11.8011 2 11.6103 2.07902 11.4697 2.21967C11.329 2.36032 11.25 2.55109 11.25 2.75V3.91667C11.25 4.11558 11.329 4.30634 11.4697 4.447C11.6103 4.58765 11.8011 4.66667 12 4.66667C12.1989 4.66667 12.3897 4.58765 12.5303 4.447C12.671 4.30634 12.75 4.11558 12.75 3.91667V2.75C12.75 2.55109 12.671 2.36032 12.5303 2.21967Z" fill="#505862"/>
<path d="M21.7803 12.5303C21.6397 12.671 21.4489 12.75 21.25 12.75H20.0833C19.8844 12.75 19.6937 12.671 19.553 12.5303C19.4124 12.3897 19.3333 12.1989 19.3333 12C19.3333 11.8011 19.4124 11.6103 19.553 11.4697C19.6937 11.329 19.8844 11.25 20.0833 11.25H21.25C21.4489 11.25 21.6397 11.329 21.7803 11.4697C21.921 11.6103 22 11.8011 22 12C22 12.1989 21.921 12.3897 21.7803 12.5303Z" fill="#505862"/>
<path d="M12.5303 19.553C12.3897 19.4124 12.1989 19.3333 12 19.3333C11.8011 19.3333 11.6103 19.4124 11.4697 19.553C11.329 19.6937 11.25 19.8844 11.25 20.0833V21.25C11.25 21.4489 11.329 21.6397 11.4697 21.7803C11.6103 21.921 11.8011 22 12 22C12.1989 22 12.3897 21.921 12.5303 21.7803C12.671 21.6397 12.75 21.4489 12.75 21.25V20.0833C12.75 19.8844 12.671 19.6937 12.5303 19.553Z" fill="#505862"/>
<path d="M4.447 12.5303C4.30634 12.671 4.11558 12.75 3.91667 12.75H2.75C2.55109 12.75 2.36032 12.671 2.21967 12.5303C2.07902 12.3897 2 12.1989 2 12C2 11.8011 2.07902 11.6103 2.21967 11.4697C2.36032 11.329 2.55109 11.25 2.75 11.25H3.91667C4.11558 11.25 4.30634 11.329 4.447 11.4697C4.58765 11.6103 4.66667 11.8011 4.66667 12C4.66667 12.1989 4.58765 12.3897 4.447 12.5303Z" fill="#505862"/>
<path d="M4.75 4.00066C4.55125 4.00066 4.36063 4.07955 4.22 4.22C4.07955 4.36063 4.00066 4.55125 4.00066 4.75C4.00066 4.94875 4.07955 5.13937 4.22 5.28L5.45838 6.51838C5.60055 6.65086 5.7886 6.72298 5.9829 6.71955C6.1772 6.71613 6.36259 6.63741 6.5 6.5C6.63741 6.36259 6.71613 6.1772 6.71955 5.9829C6.72298 5.7886 6.65086 5.60055 6.51838 5.45838L5.28 4.22C5.13937 4.07955 4.94875 4.00066 4.75 4.00066Z" fill="#505862"/>
<path d="M5.03654 19.9538C5.12854 19.9128 5.21134 19.8537 5.28 19.78L6.48096 18.579C6.55465 18.5104 6.61375 18.4276 6.65474 18.3356C6.69574 18.2436 6.71778 18.1443 6.71955 18.0436C6.72133 17.9429 6.70281 17.8428 6.66508 17.7494C6.62736 17.6561 6.57122 17.5712 6.5 17.5C6.42878 17.4288 6.34395 17.3726 6.25056 17.3349C6.15717 17.2972 6.05714 17.2787 5.95644 17.2804C5.85574 17.2822 5.75642 17.3043 5.66442 17.3453C5.57242 17.3862 5.48962 17.4454 5.42096 17.519L4.22 18.72C4.14631 18.7887 4.08721 18.8715 4.04622 18.9635C4.00523 19.0555 3.98319 19.1548 3.98141 19.2555C3.97963 19.3562 3.99816 19.4562 4.03588 19.5496C4.0736 19.643 4.12974 19.7278 4.20096 19.799C4.27218 19.8703 4.35701 19.9264 4.4504 19.9641C4.54379 20.0018 4.64382 20.0204 4.74452 20.0186C4.84523 20.0168 4.94454 19.9948 5.03654 19.9538Z" fill="#505862"/>
<path d="M19.25 4.00066C19.4488 4.00066 19.6394 4.07955 19.78 4.22C19.9205 4.36063 19.9993 4.55125 19.9993 4.75C19.9993 4.94875 19.9205 5.13937 19.78 5.28L18.5416 6.51838C18.3994 6.65086 18.2114 6.72298 18.0171 6.71955C17.8228 6.71613 17.6374 6.63741 17.5 6.5C17.3626 6.36259 17.2839 6.1772 17.2804 5.9829C17.277 5.7886 17.3491 5.60055 17.4816 5.45838L18.72 4.22C18.8606 4.07955 19.0513 4.00066 19.25 4.00066Z" fill="#505862"/>
<path d="M18.9635 19.9538C18.8715 19.9128 18.7887 19.8537 18.72 19.78L17.519 18.579C17.4454 18.5104 17.3862 18.4276 17.3453 18.3356C17.3043 18.2436 17.2822 18.1443 17.2804 18.0436C17.2787 17.9429 17.2972 17.8428 17.3349 17.7494C17.3726 17.6561 17.4288 17.5712 17.5 17.5C17.5712 17.4288 17.6561 17.3726 17.7494 17.3349C17.8428 17.2972 17.9429 17.2787 18.0436 17.2804C18.1443 17.2822 18.2436 17.3043 18.3356 17.3453C18.4276 17.3862 18.5104 17.4454 18.579 17.519L19.78 18.72C19.8537 18.7887 19.9128 18.8715 19.9538 18.9635C19.9948 19.0555 20.0168 19.1548 20.0186 19.2555C20.0204 19.3562 20.0018 19.4562 19.9641 19.5496C19.9264 19.643 19.8703 19.7278 19.799 19.799C19.7278 19.8703 19.643 19.9264 19.5496 19.9641C19.4562 20.0018 19.3562 20.0204 19.2555 20.0186C19.1548 20.0168 19.0555 19.9948 18.9635 19.9538Z" fill="#505862"/>
<path fill-rule="evenodd" clip-rule="evenodd" d="M17.6667 12C17.6667 8.87039 15.1296 6.33333 12 6.33333C8.87039 6.33333 6.33333 8.87039 6.33333 12C6.33333 15.1296 8.87039 17.6667 12 17.6667C15.1296 17.6667 17.6667 15.1296 17.6667 12ZM7.83333 12C7.83333 9.69881 9.69881 7.83333 12 7.83333V16.1667C9.69881 16.1667 7.83333 14.3012 7.83333 12Z" fill="#505862"/>
</svg>
