<?xml version="1.0" encoding="UTF-8" standalone="no"?>
<!--

    Copyright (C) 2017-2019 Dremio Corporation

    Licensed under the Apache License, Version 2.0 (the "License");
    you may not use this file except in compliance with the License.
    You may obtain a copy of the License at

        http://www.apache.org/licenses/LICENSE-2.0

    Unless required by applicable law or agreed to in writing, software
    distributed under the License is distributed on an "AS IS" BASIS,
    WITHOUT WARRANTIES OR CONDITIONS OF ANY KIND, either express or implied.
    See the License for the specific language governing permissions and
    limitations under the License.

-->
<svg width="20" height="20" viewBox="0 0 20 20" fill="none" xmlns="http://www.w3.org/2000/svg">
<path d="M10.0003 1.66669C14.6028 1.66669 18.3337 5.39752 18.3337 10C18.3337 14.6025 14.6028 18.3334 10.0003 18.3334C5.39783 18.3334 1.66699 14.6025 1.66699 10C1.66699 5.39752 5.39783 1.66669 10.0003 1.66669ZM10.0003 2.91669C8.12171 2.91669 6.32004 3.66296 4.99165 4.99135C3.66327 6.31973 2.91699 8.1214 2.91699 10C2.91699 11.8786 3.66327 13.6803 4.99165 15.0087C6.32004 16.3371 8.12171 17.0834 10.0003 17.0834C11.8789 17.0834 13.6806 16.3371 15.009 15.0087C16.3374 13.6803 17.0837 11.8786 17.0837 10C17.0837 8.1214 16.3374 6.31973 15.009 4.99135C13.6806 3.66296 11.8789 2.91669 10.0003 2.91669ZM8.95866 11.2L12.6837 7.47502C12.7953 7.36422 12.9447 7.29961 13.1019 7.29407C13.2591 7.28854 13.4126 7.34249 13.5318 7.44515C13.651 7.54782 13.7271 7.69166 13.7449 7.84795C13.7627 8.00425 13.7209 8.16151 13.6278 8.28835L13.567 8.35835L9.40033 12.525C9.2945 12.6309 9.15421 12.6952 9.00495 12.7064C8.85569 12.7176 8.70738 12.6748 8.58699 12.5859L8.51699 12.525L6.43366 10.4417C6.32286 10.33 6.25825 10.1807 6.25271 10.0235C6.24717 9.86626 6.30112 9.71274 6.40379 9.59356C6.50646 9.47438 6.6503 9.39829 6.80659 9.38049C6.96289 9.36269 7.12015 9.40448 7.24699 9.49752L7.31699 9.55835L8.95866 11.2L12.6837 7.47502L8.95866 11.2Z" fill="#5ABD4A"/>
</svg>
