<?xml version="1.0" encoding="UTF-8"?>
<!--

    Copyright (C) 2017-2019 Dremio Corporation

    Licensed under the Apache License, Version 2.0 (the "License");
    you may not use this file except in compliance with the License.
    You may obtain a copy of the License at

        http://www.apache.org/licenses/LICENSE-2.0

    Unless required by applicable law or agreed to in writing, software
    distributed under the License is distributed on an "AS IS" BASIS,
    WITHOUT WARRANTIES OR CONDITIONS OF ANY KIND, either express or implied.
    See the License for the specific language governing permissions and
    limitations under the License.

-->
<svg width="24" height="25" viewBox="0 0 24 25" fill="none" xmlns="http://www.w3.org/2000/svg">
<path fill-rule="evenodd" clip-rule="evenodd" d="M8.5 4.5V5.5H3.5L3.398 5.507C3.21845 5.53165 3.05389 5.62048 2.93477 5.75707C2.81564 5.89366 2.75001 6.06876 2.75 6.25L2.757 6.352C2.78165 6.53155 2.87048 6.69611 3.00707 6.81523C3.14366 6.93436 3.31876 6.99999 3.5 7H4.295L5.576 20.019L5.599 20.193C5.70412 20.837 6.03482 21.4227 6.53201 21.8453C7.02919 22.2679 7.66046 22.5 8.313 22.5H15.687L15.863 22.494C16.5139 22.4523 17.1289 22.1806 17.598 21.7275C18.0671 21.2743 18.3599 20.6691 18.424 20.02L19.704 7H20.5L20.602 6.993C20.7902 6.9671 20.9617 6.87071 21.0816 6.7233C21.2015 6.57589 21.261 6.38846 21.248 6.19888C21.2351 6.0093 21.1506 5.8317 21.0118 5.70197C20.8729 5.57224 20.69 5.50006 20.5 5.5H15.5V4.5C15.5 3.39543 14.6046 2.5 13.5 2.5H10.5C9.39543 2.5 8.5 3.39543 8.5 4.5ZM15.5 7H8.5H5.802L7.069 19.872C7.09705 20.1592 7.22362 20.4279 7.42722 20.6324C7.63082 20.8369 7.89892 20.9647 8.186 20.994L8.313 21H15.687C16.287 21 16.796 20.575 16.912 19.998L16.932 19.872L18.196 7H15.5ZM14 5.5V4.5C14 4.22386 13.7761 4 13.5 4H10.5C10.2239 4 10 4.22386 10 4.5V5.5H14ZM10.7429 9.93477C10.6063 9.81564 10.4312 9.75001 10.25 9.75C10.0511 9.75 9.86032 9.82902 9.71967 9.96967C9.57902 10.1103 9.5 10.3011 9.5 10.5V17.5L9.507 17.602C9.5329 17.7902 9.62929 17.9617 9.7767 18.0816C9.92411 18.2015 10.1115 18.261 10.3011 18.248C10.4907 18.2351 10.6683 18.1506 10.798 18.0118C10.9278 17.8729 10.9999 17.69 11 17.5V10.5L10.993 10.398C10.9684 10.2184 10.8795 10.0539 10.7429 9.93477ZM14.2429 9.93477C14.1063 9.81564 13.9312 9.75001 13.75 9.75C13.5511 9.75 13.3603 9.82902 13.2197 9.96967C13.079 10.1103 13 10.3011 13 10.5V17.5L13.007 17.602C13.0329 17.7902 13.1293 17.9617 13.2767 18.0816C13.4241 18.2015 13.6115 18.261 13.8011 18.248C13.9907 18.2351 14.1683 18.1506 14.298 18.0118C14.4278 17.8729 14.4999 17.69 14.5 17.5V10.5L14.493 10.398C14.4684 10.2184 14.3795 10.0539 14.2429 9.93477Z" fill="#505862"/>
</svg>
