<?xml version="1.0" encoding="UTF-8"?>
<!--

    Copyright (C) 2017-2019 Dremio Corporation

    Licensed under the Apache License, Version 2.0 (the "License");
    you may not use this file except in compliance with the License.
    You may obtain a copy of the License at

        http://www.apache.org/licenses/LICENSE-2.0

    Unless required by applicable law or agreed to in writing, software
    distributed under the License is distributed on an "AS IS" BASIS,
    WITHOUT WARRANTIES OR CONDITIONS OF ANY KIND, either express or implied.
    See the License for the specific language governing permissions and
    limitations under the License.

-->
<svg width="24" height="24" viewBox="0 0 24 24" fill="none" xmlns="http://www.w3.org/2000/svg">
<path d="M14.75 15C15.716 15 16.5 15.784 16.5 16.75L16.499 17.712C16.616 19.902 14.988 21.009 12.067 21.009C9.157 21.009 7.5 19.919 7.5 17.75V16.75C7.5 15.784 8.284 15 9.25 15H14.75ZM14.75 16.5H9.25C9.1837 16.5 9.12011 16.5263 9.07322 16.5732C9.02634 16.6201 9 16.6837 9 16.75V17.75C9 18.926 9.887 19.509 12.067 19.509C14.235 19.509 15.062 18.945 15 17.752V16.75C15 16.6837 14.9737 16.6201 14.9268 16.5732C14.8799 16.5263 14.8163 16.5 14.75 16.5ZM3.75 10H8.126C8 10.4895 7.96777 10.9985 8.031 11.5H3.75C3.6837 11.5 3.62011 11.5263 3.57322 11.5732C3.52634 11.6201 3.5 11.6837 3.5 11.75V12.75C3.5 13.926 4.387 14.509 6.567 14.509C7.029 14.509 7.43 14.483 7.774 14.432C7.20183 14.7945 6.78401 15.3559 6.601 16.008L6.567 16.009C3.657 16.009 2 14.919 2 12.75V11.75C2 10.784 2.784 10 3.75 10ZM20.25 10C21.216 10 22 10.784 22 11.75L21.999 12.712C22.116 14.902 20.488 16.009 17.567 16.009L17.398 16.007C17.2094 15.337 16.7743 14.7633 16.18 14.401C16.567 14.473 17.027 14.509 17.567 14.509C19.735 14.509 20.562 13.945 20.5 12.752V11.75C20.5 11.6837 20.4737 11.6201 20.4268 11.5732C20.3799 11.5263 20.3163 11.5 20.25 11.5H15.97C16.0319 10.9984 15.9993 10.4896 15.874 10H20.25ZM12 8C12.394 8 12.7841 8.0776 13.1481 8.22836C13.512 8.37913 13.8427 8.6001 14.1213 8.87868C14.3999 9.15726 14.6209 9.48797 14.7716 9.85195C14.9224 10.2159 15 10.606 15 11C15 11.394 14.9224 11.7841 14.7716 12.1481C14.6209 12.512 14.3999 12.8427 14.1213 13.1213C13.8427 13.3999 13.512 13.6209 13.1481 13.7716C12.7841 13.9224 12.394 14 12 14C11.2044 14 10.4413 13.6839 9.87868 13.1213C9.31607 12.5587 9 11.7956 9 11C9 10.2044 9.31607 9.44129 9.87868 8.87868C10.4413 8.31607 11.2044 8 12 8ZM12 9.5C11.803 9.5 11.608 9.5388 11.426 9.61418C11.244 9.68956 11.0786 9.80005 10.9393 9.93934C10.8001 10.0786 10.6896 10.244 10.6142 10.426C10.5388 10.608 10.5 10.803 10.5 11C10.5 11.197 10.5388 11.392 10.6142 11.574C10.6896 11.756 10.8001 11.9214 10.9393 12.0607C11.0786 12.1999 11.244 12.3104 11.426 12.3858C11.608 12.4612 11.803 12.5 12 12.5C12.3978 12.5 12.7794 12.342 13.0607 12.0607C13.342 11.7794 13.5 11.3978 13.5 11C13.5 10.6022 13.342 10.2206 13.0607 9.93934C12.7794 9.65804 12.3978 9.5 12 9.5ZM6.5 3C7.29565 3 8.05871 3.31607 8.62132 3.87868C9.18393 4.44129 9.5 5.20435 9.5 6C9.5 6.79565 9.18393 7.55871 8.62132 8.12132C8.05871 8.68393 7.29565 9 6.5 9C5.70435 9 4.94129 8.68393 4.37868 8.12132C3.81607 7.55871 3.5 6.79565 3.5 6C3.5 5.20435 3.81607 4.44129 4.37868 3.87868C4.94129 3.31607 5.70435 3 6.5 3ZM17.5 3C18.2956 3 19.0587 3.31607 19.6213 3.87868C20.1839 4.44129 20.5 5.20435 20.5 6C20.5 6.79565 20.1839 7.55871 19.6213 8.12132C19.0587 8.68393 18.2956 9 17.5 9C16.7044 9 15.9413 8.68393 15.3787 8.12132C14.8161 7.55871 14.5 6.79565 14.5 6C14.5 5.20435 14.8161 4.44129 15.3787 3.87868C15.9413 3.31607 16.7044 3 17.5 3ZM6.5 4.5C6.10218 4.5 5.72064 4.65804 5.43934 4.93934C5.15804 5.22064 5 5.60218 5 6C5 6.39782 5.15804 6.77936 5.43934 7.06066C5.72064 7.34196 6.10218 7.5 6.5 7.5C6.89782 7.5 7.27936 7.34196 7.56066 7.06066C7.84196 6.77936 8 6.39782 8 6C8 5.60218 7.84196 5.22064 7.56066 4.93934C7.27936 4.65804 6.89782 4.5 6.5 4.5ZM17.5 4.5C17.1022 4.5 16.7206 4.65804 16.4393 4.93934C16.158 5.22064 16 5.60218 16 6C16 6.39782 16.158 6.77936 16.4393 7.06066C16.7206 7.34196 17.1022 7.5 17.5 7.5C17.8978 7.5 18.2794 7.34196 18.5607 7.06066C18.842 6.77936 19 6.39782 19 6C19 5.60218 18.842 5.22064 18.5607 4.93934C18.2794 4.65804 17.8978 4.5 17.5 4.5Z" fill="#505862"/>
</svg>
