<?xml version="1.0" encoding="UTF-8"?>
<!--

    Copyright (C) 2017-2019 Dremio Corporation

    Licensed under the Apache License, Version 2.0 (the "License");
    you may not use this file except in compliance with the License.
    You may obtain a copy of the License at

        http://www.apache.org/licenses/LICENSE-2.0

    Unless required by applicable law or agreed to in writing, software
    distributed under the License is distributed on an "AS IS" BASIS,
    WITHOUT WARRANTIES OR CONDITIONS OF ANY KIND, either express or implied.
    See the License for the specific language governing permissions and
    limitations under the License.

-->
<svg width="24" height="24" viewBox="0 0 24 24" fill="none" xmlns="http://www.w3.org/2000/svg">
  <path d="M11.8179 10.9067C11.8179 12.0336 11.8179 13.1604 11.8179 14.2872C11.8179 14.3245 11.8179 14.3617 11.8179 14.3989C11.8179 14.7163 12.3101 14.7163 12.3101 14.3989C12.3101 13.2721 12.3101 12.1453 12.3101 11.0184C12.3101 10.9812 12.3101 10.944 12.3101 10.9067C12.3101 10.5893 11.8179 10.5893 11.8179 10.9067Z" fill="#000" stroke="#000" stroke-width="0.25"/>
  <path d="M9.15259 16.3633C10.1285 15.7999 11.1043 15.2365 12.0802 14.6731C12.1124 14.6545 12.1447 14.6358 12.1769 14.6172C12.4516 14.4586 12.2039 14.0332 11.9285 14.1922C10.9526 14.7557 9.97675 15.3191 9.00088 15.8825C8.96865 15.9011 8.9364 15.9197 8.90415 15.9383C8.62946 16.0969 8.8772 16.5224 9.15259 16.3633Z" fill="#000" stroke="#000" stroke-width="0.25"/>
  <path d="M15.2238 15.9384C14.2479 15.3749 13.2721 14.8115 12.2962 14.2481C12.264 14.2295 12.2317 14.2109 12.1995 14.1923C11.9241 14.0333 11.6764 14.4587 11.9511 14.6173C12.9269 15.1807 13.9028 15.7441 14.8787 16.3075C14.9109 16.3261 14.9431 16.3447 14.9754 16.3633C15.2508 16.5223 15.4985 16.0969 15.2238 15.9384Z" fill="#000" stroke="#000" stroke-width="0.25"/>
  <path fill-rule="evenodd" clip-rule="evenodd" d="M5.63311 18.5312C6.16371 18.2074 6.52235 17.6285 6.52235 16.9623C6.52235 15.9466 5.69575 15.12 4.68 15.12C3.66425 15.12 2.83764 15.9466 2.83764 16.9623C2.83764 17.6285 3.19629 18.2074 3.72689 18.5312C2.27061 18.9472 1.2 20.2872 1.2 21.8753V22.08H8.16V21.8753C8.16 20.2872 7.08939 18.9472 5.63311 18.5312ZM3.24705 16.9624C3.24705 16.1722 3.88983 15.5294 4.67999 15.5294C5.47016 15.5294 6.11293 16.1722 6.11293 16.9624C6.11293 17.7525 5.47016 18.3953 4.67999 18.3953C3.88983 18.3953 3.24705 17.7525 3.24705 16.9624ZM1.61639 21.6706C1.72201 20.0726 3.05588 18.8047 4.68001 18.8047C6.30415 18.8047 7.63801 20.0726 7.74364 21.6706H1.61639Z" fill="#000"/>
  <path d="M5.63311 18.5312L5.56799 18.4245L5.32457 18.5731L5.59878 18.6514L5.63311 18.5312ZM3.72689 18.5312L3.76122 18.6514L4.03542 18.5731L3.79201 18.4245L3.72689 18.5312ZM1.2 22.08H1.075V22.205H1.2V22.08ZM8.16 22.08V22.205H8.285V22.08H8.16ZM1.61639 21.6706L1.49166 21.6623L1.48285 21.7956H1.61639V21.6706ZM7.74364 21.6706V21.7956H7.87718L7.86837 21.6623L7.74364 21.6706ZM5.69823 18.6379C6.26355 18.2929 6.64735 17.6748 6.64735 16.9623H6.39735C6.39735 17.5821 6.06386 18.1219 5.56799 18.4245L5.69823 18.6379ZM6.64735 16.9623C6.64735 15.8776 5.76478 14.995 4.68 14.995V15.245C5.62671 15.245 6.39735 16.0156 6.39735 16.9623H6.64735ZM4.68 14.995C3.59521 14.995 2.71264 15.8776 2.71264 16.9623H2.96264C2.96264 16.0156 3.73328 15.245 4.68 15.245V14.995ZM2.71264 16.9623C2.71264 17.6748 3.09645 18.2929 3.66177 18.6379L3.79201 18.4245C3.29613 18.1219 2.96264 17.5821 2.96264 16.9623H2.71264ZM3.69256 18.411C2.18436 18.8418 1.075 20.2296 1.075 21.8753H1.325C1.325 20.3448 2.35686 19.0525 3.76122 18.6514L3.69256 18.411ZM1.075 21.8753V22.08H1.325V21.8753H1.075ZM1.2 22.205H8.16V21.955H1.2V22.205ZM8.285 22.08V21.8753H8.035V22.08H8.285ZM8.285 21.8753C8.285 20.2296 7.17564 18.8418 5.66744 18.411L5.59878 18.6514C7.00313 19.0525 8.035 20.3448 8.035 21.8753H8.285ZM3.37205 16.9624C3.37205 16.2412 3.95886 15.6544 4.67999 15.6544V15.4044C3.82079 15.4044 3.12205 16.1032 3.12205 16.9624H3.37205ZM4.67999 15.6544C5.40112 15.6544 5.98793 16.2412 5.98793 16.9624H6.23793C6.23793 16.1032 5.53919 15.4044 4.67999 15.4044V15.6544ZM5.98793 16.9624C5.98793 17.6835 5.40112 18.2703 4.67999 18.2703V18.5203C5.53919 18.5203 6.23793 17.8216 6.23793 16.9624H5.98793ZM4.67999 18.2703C3.95886 18.2703 3.37205 17.6835 3.37205 16.9624H3.12205C3.12205 17.8216 3.82079 18.5203 4.67999 18.5203V18.2703ZM1.74111 21.6788C1.84243 20.1461 3.12219 18.9297 4.68001 18.9297V18.6797C2.98956 18.6797 1.6016 19.9992 1.49166 21.6623L1.74111 21.6788ZM4.68001 18.9297C6.23783 18.9297 7.5176 20.1461 7.61891 21.6788L7.86837 21.6623C7.75843 19.9992 6.37047 18.6797 4.68001 18.6797V18.9297ZM7.74364 21.5456H1.61639V21.7956H7.74364V21.5456Z" fill="#000"/>
  <path fill-rule="evenodd" clip-rule="evenodd" d="M20.5131 18.5312C21.0437 18.2074 21.4024 17.6285 21.4024 16.9623C21.4024 15.9466 20.5758 15.12 19.56 15.12C18.5443 15.12 17.7176 15.9466 17.7176 16.9623C17.7176 17.6285 18.0763 18.2074 18.6069 18.5312C17.1506 18.9472 16.08 20.2872 16.08 21.8753V22.08H23.04V21.8753C23.04 20.2872 21.9694 18.9472 20.5131 18.5312ZM18.1271 16.9624C18.1271 16.1722 18.7698 15.5294 19.56 15.5294C20.3502 15.5294 20.9929 16.1722 20.9929 16.9624C20.9929 17.7525 20.3502 18.3953 19.56 18.3953C18.7698 18.3953 18.1271 17.7525 18.1271 16.9624ZM16.4964 21.6706C16.602 20.0726 17.9359 18.8047 19.56 18.8047C21.1842 18.8047 22.518 20.0726 22.6236 21.6706H16.4964Z" fill="#000"/>
  <path d="M20.5131 18.5312L20.448 18.4245L20.2046 18.5731L20.4788 18.6514L20.5131 18.5312ZM18.6069 18.5312L18.6412 18.6514L18.9154 18.5731L18.672 18.4245L18.6069 18.5312ZM16.08 22.08H15.955V22.205H16.08V22.08ZM23.04 22.08V22.205H23.165V22.08H23.04ZM16.4964 21.6706L16.3717 21.6623L16.3629 21.7956H16.4964V21.6706ZM22.6236 21.6706V21.7956H22.7572L22.7484 21.6623L22.6236 21.6706ZM20.5782 18.6379C21.1436 18.2929 21.5274 17.6748 21.5274 16.9623H21.2774C21.2774 17.5821 20.9439 18.1219 20.448 18.4245L20.5782 18.6379ZM21.5274 16.9623C21.5274 15.8776 20.6448 14.995 19.56 14.995V15.245C20.5067 15.245 21.2774 16.0156 21.2774 16.9623H21.5274ZM19.56 14.995C18.4752 14.995 17.5926 15.8776 17.5926 16.9623H17.8426C17.8426 16.0156 18.6133 15.245 19.56 15.245V14.995ZM17.5926 16.9623C17.5926 17.6748 17.9765 18.2929 18.5418 18.6379L18.672 18.4245C18.1761 18.1219 17.8426 17.5821 17.8426 16.9623H17.5926ZM18.5726 18.411C17.0644 18.8418 15.955 20.2296 15.955 21.8753H16.205C16.205 20.3448 17.2369 19.0525 18.6412 18.6514L18.5726 18.411ZM15.955 21.8753V22.08H16.205V21.8753H15.955ZM16.08 22.205H23.04V21.955H16.08V22.205ZM23.165 22.08V21.8753H22.915V22.08H23.165ZM23.165 21.8753C23.165 20.2296 22.0556 18.8418 20.5474 18.411L20.4788 18.6514C21.8831 19.0525 22.915 20.3448 22.915 21.8753H23.165ZM18.2521 16.9624C18.2521 16.2412 18.8389 15.6544 19.56 15.6544V15.4044C18.7008 15.4044 18.0021 16.1032 18.0021 16.9624H18.2521ZM19.56 15.6544C20.2811 15.6544 20.8679 16.2412 20.8679 16.9624H21.1179C21.1179 16.1032 20.4192 15.4044 19.56 15.4044V15.6544ZM20.8679 16.9624C20.8679 17.6835 20.2811 18.2703 19.56 18.2703V18.5203C20.4192 18.5203 21.1179 17.8216 21.1179 16.9624H20.8679ZM19.56 18.2703C18.8389 18.2703 18.2521 17.6835 18.2521 16.9624H18.0021C18.0021 17.8216 18.7008 18.5203 19.56 18.5203V18.2703ZM16.6211 21.6788C16.7224 20.1461 18.0022 18.9297 19.56 18.9297V18.6797C17.8696 18.6797 16.4816 19.9992 16.3717 21.6623L16.6211 21.6788ZM19.56 18.9297C21.1178 18.9297 22.3976 20.1461 22.4989 21.6788L22.7484 21.6623C22.6384 19.9992 21.2505 18.6797 19.56 18.6797V18.9297ZM22.6236 21.5456H16.4964V21.7956H22.6236V21.5456Z" fill="#000"/>
  <path fill-rule="evenodd" clip-rule="evenodd" d="M13.3131 5.33122C13.8437 5.00737 14.2024 4.42846 14.2024 3.76235C14.2024 2.7466 13.3758 1.92 12.36 1.92C11.3443 1.92 10.5177 2.7466 10.5177 3.76235C10.5177 4.42846 10.8763 5.00737 11.4069 5.33122C9.95062 5.74718 8.88 7.08718 8.88 8.67529V8.88H15.84V8.67529C15.84 7.08718 14.7694 5.74718 13.3131 5.33122ZM10.9271 3.76236C10.9271 2.97219 11.5698 2.32942 12.36 2.32942C13.1502 2.32942 13.7929 2.97219 13.7929 3.76236C13.7929 4.55252 13.1502 5.1953 12.36 5.1953C11.5698 5.1953 10.9271 4.55252 10.9271 3.76236ZM9.29639 8.47057C9.40202 6.87263 10.7359 5.60469 12.36 5.60469C13.9842 5.60469 15.318 6.87263 15.4237 8.47057H9.29639Z" fill="#000"/>
  <path d="M13.3131 5.33122L13.248 5.22452L13.0046 5.37309L13.2788 5.45141L13.3131 5.33122ZM11.4069 5.33122L11.4412 5.45141L11.7154 5.37309L11.472 5.22452L11.4069 5.33122ZM8.88 8.88H8.755V9.005H8.88V8.88ZM15.84 8.88V9.005H15.965V8.88H15.84ZM9.29639 8.47057L9.17167 8.46232L9.16286 8.59557H9.29639V8.47057ZM15.4237 8.47057V8.59557H15.5572L15.5484 8.46232L15.4237 8.47057ZM13.3782 5.43791C13.9436 5.09288 14.3274 4.47485 14.3274 3.76235H14.0774C14.0774 4.38208 13.7439 4.92187 13.248 5.22452L13.3782 5.43791ZM14.3274 3.76235C14.3274 2.67756 13.4448 1.795 12.36 1.795V2.045C13.3067 2.045 14.0774 2.81564 14.0774 3.76235H14.3274ZM12.36 1.795C11.2752 1.795 10.3927 2.67756 10.3927 3.76235H10.6427C10.6427 2.81564 11.4133 2.045 12.36 2.045V1.795ZM10.3927 3.76235C10.3927 4.47485 10.7765 5.09288 11.3418 5.43791L11.472 5.22452C10.9761 4.92187 10.6427 4.38208 10.6427 3.76235H10.3927ZM11.3726 5.21102C9.86437 5.64182 8.755 7.02957 8.755 8.67529H9.005C9.005 7.14479 10.0369 5.85254 11.4412 5.45141L11.3726 5.21102ZM8.755 8.67529V8.88H9.005V8.67529H8.755ZM8.88 9.005H15.84V8.755H8.88V9.005ZM15.965 8.88V8.67529H15.715V8.88H15.965ZM15.965 8.67529C15.965 7.02957 14.8556 5.64182 13.3474 5.21102L13.2788 5.45141C14.6831 5.85254 15.715 7.14479 15.715 8.67529H15.965ZM11.0521 3.76236C11.0521 3.04123 11.6389 2.45442 12.36 2.45442V2.20442C11.5008 2.20442 10.8021 2.90316 10.8021 3.76236H11.0521ZM12.36 2.45442C13.0811 2.45442 13.6679 3.04123 13.6679 3.76236H13.9179C13.9179 2.90316 13.2192 2.20442 12.36 2.20442V2.45442ZM13.6679 3.76236C13.6679 4.48349 13.0811 5.0703 12.36 5.0703V5.3203C13.2192 5.3203 13.9179 4.62156 13.9179 3.76236H13.6679ZM12.36 5.0703C11.6389 5.0703 11.0521 4.48349 11.0521 3.76236H10.8021C10.8021 4.62156 11.5008 5.3203 12.36 5.3203V5.0703ZM9.42112 8.47881C9.52244 6.94609 10.8022 5.72969 12.36 5.72969V5.47969C10.6696 5.47969 9.2816 6.79918 9.17167 8.46232L9.42112 8.47881ZM12.36 5.72969C13.9178 5.72969 15.1976 6.94609 15.2989 8.47881L15.5484 8.46232C15.4384 6.79918 14.0505 5.47969 12.36 5.47969V5.72969ZM15.4237 8.34557H9.29639V8.59557H15.4237V8.34557Z" fill="#000"/>
</svg>
