<?xml version="1.0" encoding="UTF-8" standalone="no"?>
<!--

    Copyright (C) 2017-2019 Dremio Corporation

    Licensed under the Apache License, Version 2.0 (the "License");
    you may not use this file except in compliance with the License.
    You may obtain a copy of the License at

        http://www.apache.org/licenses/LICENSE-2.0

    Unless required by applicable law or agreed to in writing, software
    distributed under the License is distributed on an "AS IS" BASIS,
    WITHOUT WARRANTIES OR CONDITIONS OF ANY KIND, either express or implied.
    See the License for the specific language governing permissions and
    limitations under the License.

-->
<svg width="24" height="24" viewBox="0 0 24 24" fill="none" xmlns="http://www.w3.org/2000/svg">
<path d="M17.754 13.9999C18.0495 13.9998 18.342 14.0579 18.615 14.1708C18.888 14.2838 19.136 14.4494 19.345 14.6583C19.5539 14.8671 19.7197 15.1151 19.8327 15.388C19.9458 15.6609 20.004 15.9535 20.004 16.2489V16.8239C20.004 17.7179 19.684 18.5839 19.102 19.2619C17.532 21.0959 15.145 22.0009 12 22.0009C8.85403 22.0009 6.46803 21.0959 4.90203 19.2609C4.32241 18.582 4.004 17.7186 4.00403 16.8259V16.2489C4.0039 15.9535 4.06197 15.6609 4.17494 15.3879C4.2879 15.115 4.45354 14.8669 4.66239 14.658C4.87124 14.449 5.11922 14.2833 5.39214 14.1702C5.66507 14.0571 5.9576 13.9989 6.25303 13.9989H17.754V13.9999ZM17.754 15.4999H6.25303C6.15458 15.4998 6.05708 15.5191 5.96609 15.5566C5.8751 15.5942 5.79242 15.6494 5.72276 15.7189C5.6531 15.7885 5.59784 15.8711 5.56014 15.962C5.52243 16.053 5.50303 16.1505 5.50303 16.2489V16.8259C5.50303 17.3619 5.69503 17.8799 6.04303 18.2869C7.29603 19.7549 9.26203 20.5009 12 20.5009C14.738 20.5009 16.706 19.7549 17.962 18.2869C18.311 17.8793 18.5029 17.3605 18.503 16.8239V16.2489C18.5032 16.1505 18.4839 16.053 18.4463 15.962C18.4087 15.871 18.3536 15.7883 18.284 15.7186C18.2144 15.649 18.1318 15.5937 18.0409 15.556C17.95 15.5183 17.8525 15.4989 17.754 15.4989V15.4999ZM12 2.00391C13.3261 2.00391 14.5979 2.53069 15.5356 3.46837C16.4732 4.40605 17 5.67782 17 7.00391C17 8.32999 16.4732 9.60176 15.5356 10.5394C14.5979 11.4771 13.3261 12.0039 12 12.0039C10.6739 12.0039 9.40218 11.4771 8.46449 10.5394C7.52681 9.60176 7.00003 8.32999 7.00003 7.00391C7.00003 5.67782 7.52681 4.40605 8.46449 3.46837C9.40218 2.53069 10.6739 2.00391 12 2.00391ZM12 3.50391C11.5404 3.50391 11.0853 3.59444 10.6606 3.77033C10.236 3.94622 9.85016 4.20403 9.52515 4.52903C9.20015 4.85404 8.94234 5.23987 8.76645 5.66451C8.59056 6.08915 8.50003 6.54428 8.50003 7.00391C8.50003 7.46353 8.59056 7.91866 8.76645 8.3433C8.94234 8.76794 9.20015 9.15378 9.52515 9.47878C9.85016 9.80379 10.236 10.0616 10.6606 10.2375C11.0853 10.4134 11.5404 10.5039 12 10.5039C12.9283 10.5039 13.8185 10.1352 14.4749 9.47878C15.1313 8.8224 15.5 7.93216 15.5 7.00391C15.5 6.07565 15.1313 5.18541 14.4749 4.52903C13.8185 3.87266 12.9283 3.50391 12 3.50391Z" fill="#505862"/>
</svg>
