<!--

    Copyright (C) 2017-2019 Dremio Corporation

    Licensed under the Apache License, Version 2.0 (the "License");
    you may not use this file except in compliance with the License.
    You may obtain a copy of the License at

        http://www.apache.org/licenses/LICENSE-2.0

    Unless required by applicable law or agreed to in writing, software
    distributed under the License is distributed on an "AS IS" BASIS,
    WITHOUT WARRANTIES OR CONDITIONS OF ANY KIND, either express or implied.
    See the License for the specific language governing permissions and
    limitations under the License.

-->
<svg width="24" height="24" viewBox="0 0 24 24" fill="none" xmlns="http://www.w3.org/2000/svg">
    <path 
        d="M11.8179 10.9067C11.8179 12.0336 11.8179 13.1604 11.8179 14.2873C11.8179 14.3245 11.8179 14.3617 11.8179 14.3989C11.8179 14.7163 12.3101 14.7163 12.3101 14.3989C12.3101 13.2721 12.3101 12.1453 12.3101 11.0184C12.3101 10.9812 12.3101 10.944 12.3101 10.9067C12.3101 10.5894 11.8179 10.5894 11.8179 10.9067Z" fill="#333333" 
        stroke="#333333" 
        stroke-width="0.25"
    />
    <path
        d="M9.1527 16.3633C10.1286 15.7999 11.1044 15.2365 12.0803 14.6731C12.1125 14.6544 12.1448 14.6358 12.177 14.6172C12.4517 14.4586 12.204 14.0332 11.9286 14.1922C10.9527 14.7556 9.97685 15.319 9.00098 15.8825C8.96876 15.9011 8.93651 15.9197 8.90426 15.9383C8.62957 16.0969 8.87731 16.5223 9.1527 16.3633Z" fill="#333333" 
        stroke="#333333"
        stroke-width="0.25"
     />
    <path 
        d="M15.2239 15.9383C14.248 15.3749 13.2721 14.8115 12.2963 14.2481C12.264 14.2294 12.2318 14.2108 12.1996 14.1922C11.9242 14.0332 11.6764 14.4586 11.9511 14.6172C12.927 15.1806 13.9029 15.744 14.8787 16.3074C14.911 16.3261 14.9432 16.3447 14.9754 16.3633C15.2508 16.5223 15.4986 16.0969 15.2239 15.9383Z" fill="#333333"
        stroke="#333333"
        stroke-width="0.25"
    />
    <path
        fill-rule="evenodd" 
        clip-rule="evenodd" 
        d="M5.63306 18.5313C6.16366 18.2075 6.5223 17.6286 6.5223 16.9625C6.5223 15.9467 5.6957 15.1201 4.67995 15.1201C3.6642 15.1201 2.8376 15.9467 2.8376 16.9625C2.8376 17.6286 3.19624 18.2075 3.72684 18.5313C2.27056 18.9473 1.19995 20.2873 1.19995 21.8754V22.0801H8.15995V21.8754C8.15995 20.2873 7.08934 18.9473 5.63306 18.5313ZM3.247 16.9625C3.247 16.1723 3.88978 15.5295 4.67995 15.5295C5.47011 15.5295 6.11289 16.1723 6.11289 16.9625C6.11289 17.7526 5.47011 18.3954 4.67995 18.3954C3.88978 18.3954 3.247 17.7526 3.247 16.9625ZM1.61634 21.6707C1.72197 20.0728 3.05583 18.8048 4.67997 18.8048C6.3041 18.8048 7.63797 20.0728 7.7436 21.6707H1.61634Z"
        fill="#333333"
     />
    <path 
        d="M5.63306 18.5313L5.56794 18.4246L5.32452 18.5732L5.59873 18.6515L5.63306 18.5313ZM3.72684 18.5313L3.76117 18.6515L4.03538 18.5732L3.79196 18.4246L3.72684 18.5313ZM1.19995 22.0801H1.07495V22.2051H1.19995V22.0801ZM8.15995 22.0801V22.2051H8.28495V22.0801H8.15995ZM1.61634 21.6707L1.49161 21.6624L1.4828 21.7957H1.61634V21.6707ZM7.7436 21.6707V21.7957H7.87713L7.86832 21.6624L7.7436 21.6707ZM5.69818 18.638C6.2635 18.293 6.6473 17.675 6.6473 16.9625H6.3973C6.3973 17.5822 6.06382 18.122 5.56794 18.4246L5.69818 18.638ZM6.6473 16.9625C6.6473 15.8777 5.76474 14.9951 4.67995 14.9951V15.2451C5.62667 15.2451 6.3973 16.0158 6.3973 16.9625H6.6473ZM4.67995 14.9951C3.59517 14.9951 2.7126 15.8777 2.7126 16.9625H2.9626C2.9626 16.0158 3.73324 15.2451 4.67995 15.2451V14.9951ZM2.7126 16.9625C2.7126 17.675 3.0964 18.293 3.66172 18.638L3.79196 18.4246C3.29609 18.122 2.9626 17.5822 2.9626 16.9625H2.7126ZM3.69251 18.4111C2.18431 18.8419 1.07495 20.2297 1.07495 21.8754H1.32495C1.32495 20.3449 2.35681 19.0527 3.76117 18.6515L3.69251 18.4111ZM1.07495 21.8754V22.0801H1.32495V21.8754H1.07495ZM1.19995 22.2051H8.15995V21.9551H1.19995V22.2051ZM8.28495 22.0801V21.8754H8.03495V22.0801H8.28495ZM8.28495 21.8754C8.28495 20.2297 7.17559 18.8419 5.66739 18.4111L5.59873 18.6515C7.00309 19.0527 8.03495 20.3449 8.03495 21.8754H8.28495ZM3.372 16.9625C3.372 16.2413 3.95882 15.6545 4.67995 15.6545V15.4045C3.82075 15.4045 3.122 16.1033 3.122 16.9625H3.372ZM4.67995 15.6545C5.40107 15.6545 5.98789 16.2413 5.98789 16.9625H6.23789C6.23789 16.1033 5.53914 15.4045 4.67995 15.4045V15.6545ZM5.98789 16.9625C5.98789 17.6836 5.40107 18.2704 4.67995 18.2704V18.5204C5.53914 18.5204 6.23789 17.8217 6.23789 16.9625H5.98789ZM4.67995 18.2704C3.95882 18.2704 3.372 17.6836 3.372 16.9625H3.122C3.122 17.8217 3.82075 18.5204 4.67995 18.5204V18.2704ZM1.74107 21.6789C1.84239 20.1462 3.12215 18.9298 4.67997 18.9298V18.6798C2.98952 18.6798 1.60155 19.9993 1.49161 21.6624L1.74107 21.6789ZM4.67997 18.9298C6.23779 18.9298 7.51755 20.1462 7.61887 21.6789L7.86832 21.6624C7.75839 19.9993 6.37042 18.6798 4.67997 18.6798V18.9298ZM7.7436 21.5457H1.61634V21.7957H7.7436V21.5457Z"
        fill="#333333"
    />
    <path 
        fill-rule="evenodd" 
        clip-rule="evenodd" 
        d="M20.5132 18.5313C21.0438 18.2075 21.4024 17.6286 21.4024 16.9625C21.4024 15.9467 20.5758 15.1201 19.5601 15.1201C18.5443 15.1201 17.7177 15.9467 17.7177 16.9625C17.7177 17.6286 18.0764 18.2075 18.607 18.5313C17.1507 18.9473 16.0801 20.2873 16.0801 21.8754V22.0801H23.0401V21.8754C23.0401 20.2873 21.9695 18.9473 20.5132 18.5313ZM18.1271 16.9625C18.1271 16.1723 18.7699 15.5295 19.5601 15.5295C20.3502 15.5295 20.993 16.1723 20.993 16.9625C20.993 17.7526 20.3502 18.3954 19.5601 18.3954C18.7699 18.3954 18.1271 17.7526 18.1271 16.9625ZM16.4965 21.6707C16.6021 20.0728 17.936 18.8048 19.5601 18.8048C21.1842 18.8048 22.5181 20.0728 22.6237 21.6707H16.4965Z" 
        fill="#333333"
    />
    <path 
        d="M20.5132 18.5313L20.4481 18.4246L20.2046 18.5732L20.4789 18.6515L20.5132 18.5313ZM18.607 18.5313L18.6413 18.6515L18.9155 18.5732L18.6721 18.4246L18.607 18.5313ZM16.0801 22.0801H15.9551V22.2051H16.0801V22.0801ZM23.0401 22.0801V22.2051H23.1651V22.0801H23.0401ZM16.4965 21.6707L16.3717 21.6624L16.3629 21.7957H16.4965V21.6707ZM22.6237 21.6707V21.7957H22.7573L22.7485 21.6624L22.6237 21.6707ZM20.5783 18.638C21.1436 18.293 21.5274 17.675 21.5274 16.9625H21.2774C21.2774 17.5822 20.9439 18.122 20.4481 18.4246L20.5783 18.638ZM21.5274 16.9625C21.5274 15.8777 20.6449 14.9951 19.5601 14.9951V15.2451C20.5068 15.2451 21.2774 16.0158 21.2774 16.9625H21.5274ZM19.5601 14.9951C18.4753 14.9951 17.5927 15.8777 17.5927 16.9625H17.8427C17.8427 16.0158 18.6134 15.2451 19.5601 15.2451V14.9951ZM17.5927 16.9625C17.5927 17.675 17.9765 18.293 18.5418 18.638L18.6721 18.4246C18.1762 18.122 17.8427 17.5822 17.8427 16.9625H17.5927ZM18.5726 18.4111C17.0644 18.8419 15.9551 20.2297 15.9551 21.8754H16.2051C16.2051 20.3449 17.2369 19.0527 18.6413 18.6515L18.5726 18.4111ZM15.9551 21.8754V22.0801H16.2051V21.8754H15.9551ZM16.0801 22.2051H23.0401V21.9551H16.0801V22.2051ZM23.1651 22.0801V21.8754H22.9151V22.0801H23.1651ZM23.1651 21.8754C23.1651 20.2297 22.0557 18.8419 20.5475 18.4111L20.4789 18.6515C21.8832 19.0527 22.9151 20.3449 22.9151 21.8754H23.1651ZM18.2521 16.9625C18.2521 16.2413 18.8389 15.6545 19.5601 15.6545V15.4045C18.7009 15.4045 18.0021 16.1033 18.0021 16.9625H18.2521ZM19.5601 15.6545C20.2812 15.6545 20.868 16.2413 20.868 16.9625H21.118C21.118 16.1033 20.4193 15.4045 19.5601 15.4045V15.6545ZM20.868 16.9625C20.868 17.6836 20.2812 18.2704 19.5601 18.2704V18.5204C20.4193 18.5204 21.118 17.8217 21.118 16.9625H20.868ZM19.5601 18.2704C18.8389 18.2704 18.2521 17.6836 18.2521 16.9625H18.0021C18.0021 17.8217 18.7009 18.5204 19.5601 18.5204V18.2704ZM16.6212 21.6789C16.7225 20.1462 18.0023 18.9298 19.5601 18.9298V18.6798C17.8696 18.6798 16.4817 19.9993 16.3717 21.6624L16.6212 21.6789ZM19.5601 18.9298C21.1179 18.9298 22.3977 20.1462 22.499 21.6789L22.7485 21.6624C22.6385 19.9993 21.2505 18.6798 19.5601 18.6798V18.9298ZM22.6237 21.5457H16.4965V21.7957H22.6237V21.5457Z"   fill="#333333"
    />
    <path 
        fill-rule="evenodd" 
        clip-rule="evenodd" d="M13.313 5.33114C13.8436 5.0073 14.2022 4.42839 14.2022 3.76227C14.2022 2.74652 13.3756 1.91992 12.3599 1.91992C11.3441 1.91992 10.5175 2.74652 10.5175 3.76227C10.5175 4.42839 10.8762 5.0073 11.4068 5.33114C9.95049 5.7471 8.87988 7.08711 8.87988 8.67522V8.87992H15.8399V8.67522C15.8399 7.08711 14.7693 5.7471 13.313 5.33114ZM10.9269 3.76228C10.9269 2.97212 11.5697 2.32934 12.3599 2.32934C13.15 2.32934 13.7928 2.97212 13.7928 3.76228C13.7928 4.55245 13.15 5.19522 12.3599 5.19522C11.5697 5.19522 10.9269 4.55245 10.9269 3.76228ZM9.29627 8.47049C9.4019 6.87256 10.7358 5.60461 12.3599 5.60461C13.984 5.60461 15.3179 6.87256 15.4235 8.47049H9.29627Z" 
        fill="#333333"
    />
    <path 
        d="M13.313 5.33114L13.2479 5.22444L13.0045 5.37301L13.2787 5.45133L13.313 5.33114ZM11.4068 5.33114L11.4411 5.45133L11.7153 5.37301L11.4719 5.22444L11.4068 5.33114ZM8.87988 8.87992H8.75488V9.00492H8.87988V8.87992ZM15.8399 8.87992V9.00492H15.9649V8.87992H15.8399ZM9.29627 8.47049L9.17154 8.46225L9.16274 8.59549H9.29627V8.47049ZM15.4235 8.47049V8.59549H15.5571L15.5483 8.46225L15.4235 8.47049ZM13.3781 5.43784C13.9434 5.0928 14.3272 4.47478 14.3272 3.76227H14.0772C14.0772 4.382 13.7437 4.92179 13.2479 5.22444L13.3781 5.43784ZM14.3272 3.76227C14.3272 2.67749 13.4447 1.79492 12.3599 1.79492V2.04492C13.3066 2.04492 14.0772 2.81556 14.0772 3.76227H14.3272ZM12.3599 1.79492C11.2751 1.79492 10.3925 2.67749 10.3925 3.76227H10.6425C10.6425 2.81556 11.4132 2.04492 12.3599 2.04492V1.79492ZM10.3925 3.76227C10.3925 4.47478 10.7763 5.0928 11.3417 5.43784L11.4719 5.22444C10.976 4.92179 10.6425 4.382 10.6425 3.76227H10.3925ZM11.3724 5.21095C9.86424 5.64174 8.75488 7.0295 8.75488 8.67522H9.00488C9.00488 7.14472 10.0367 5.85247 11.4411 5.45133L11.3724 5.21095ZM8.75488 8.67522V8.87992H9.00488V8.67522H8.75488ZM8.87988 9.00492H15.8399V8.75492H8.87988V9.00492ZM15.9649 8.87992V8.67522H15.7149V8.87992H15.9649ZM15.9649 8.67522C15.9649 7.0295 14.8555 5.64174 13.3473 5.21095L13.2787 5.45133C14.683 5.85247 15.7149 7.14472 15.7149 8.67522H15.9649ZM11.0519 3.76228C11.0519 3.04115 11.6387 2.45434 12.3599 2.45434V2.20434C11.5007 2.20434 10.8019 2.90308 10.8019 3.76228H11.0519ZM12.3599 2.45434C13.081 2.45434 13.6678 3.04115 13.6678 3.76228H13.9178C13.9178 2.90308 13.2191 2.20434 12.3599 2.20434V2.45434ZM13.6678 3.76228C13.6678 4.48341 13.081 5.07022 12.3599 5.07022V5.32022C13.2191 5.32022 13.9178 4.62148 13.9178 3.76228H13.6678ZM12.3599 5.07022C11.6387 5.07022 11.0519 4.48341 11.0519 3.76228H10.8019C10.8019 4.62148 11.5007 5.32022 12.3599 5.32022V5.07022ZM9.421 8.47874C9.52232 6.94601 10.8021 5.72961 12.3599 5.72961V5.47961C10.6694 5.47961 9.28148 6.7991 9.17154 8.46225L9.421 8.47874ZM12.3599 5.72961C13.9177 5.72961 15.1975 6.94601 15.2988 8.47874L15.5483 8.46225C15.4383 6.7991 14.0504 5.47961 12.3599 5.47961V5.72961ZM15.4235 8.34549H9.29627V8.59549H15.4235V8.34549Z" 
        fill="#333333"
    />
</svg>
