<?xml version="1.0" encoding="UTF-8" standalone="no"?>
<!--

    Copyright (C) 2017-2019 Dremio Corporation

    Licensed under the Apache License, Version 2.0 (the "License");
    you may not use this file except in compliance with the License.
    You may obtain a copy of the License at

        http://www.apache.org/licenses/LICENSE-2.0

    Unless required by applicable law or agreed to in writing, software
    distributed under the License is distributed on an "AS IS" BASIS,
    WITHOUT WARRANTIES OR CONDITIONS OF ANY KIND, either express or implied.
    See the License for the specific language governing permissions and
    limitations under the License.

-->
<svg width="20px" height="20px" viewBox="0 0 24 20" version="1.1" fill="none" xmlns="http://www.w3.org/2000/svg">
<rect width="20" height="20" rx="2" fill="#3ACBAC"/>
<rect x="2.27274" y="2.27271" width="15.4545" height="15.4545" rx="0.5" fill="white"/>
<path fill-rule="evenodd" clip-rule="evenodd" d="M6.81819 3.18176H9.54546V5.90904H6.81819V3.18176ZM3.18182 3.18177H5.9091V5.90904H3.18182V3.18177ZM13.1818 3.18176H10.4545V5.90904H13.1818V3.18176ZM14.0909 3.18176H16.8182V5.90904H14.0909V3.18176ZM3.18182 6.81812H5.90909V9.54539H3.18182V6.81812ZM6.81818 6.81813H9.54546V9.5454H6.81818V6.81813ZM13.1818 6.81813H10.4545V9.5454H13.1818V6.81813ZM14.0909 6.81813H16.8182V9.5454H14.0909V6.81813ZM5.90909 10.4545H3.18182V13.1818H5.90909V10.4545ZM9.54546 10.4545H6.81818V13.1818H9.54546V10.4545ZM10.4545 10.4545H13.1818V13.1818H10.4545V10.4545ZM16.8182 10.4545H14.0909V13.1818H16.8182V10.4545ZM6.81818 14.0908H9.54546V16.8181H6.81818V14.0908ZM3.18182 14.0909H5.90909V16.8181H3.18182V14.0909ZM13.1818 14.0908H10.4545V16.8181H13.1818V14.0908ZM14.0909 14.0908H16.8182V16.8181H14.0909V14.0908Z" fill="#3ACBAC"/>
</svg>
