<?xml version="1.0" encoding="UTF-8" standalone="no"?>
<!--

    Copyright (C) 2017-2019 Dremio Corporation

    Licensed under the Apache License, Version 2.0 (the "License");
    you may not use this file except in compliance with the License.
    You may obtain a copy of the License at

        http://www.apache.org/licenses/LICENSE-2.0

    Unless required by applicable law or agreed to in writing, software
    distributed under the License is distributed on an "AS IS" BASIS,
    WITHOUT WARRANTIES OR CONDITIONS OF ANY KIND, either express or implied.
    See the License for the specific language governing permissions and
    limitations under the License.

-->
<svg width="24" height="24" viewBox="0 0 24 24" fill="none" xmlns="http://www.w3.org/2000/svg">
<path fill-rule="evenodd" clip-rule="evenodd" d="M3 6.5C3 5.94772 3.44772 5.5 4 5.5H5C5.55228 5.5 6 5.94772 6 6.5V7.5C6 8.05228 5.55228 8.5 5 8.5H4C3.44772 8.5 3 8.05228 3 7.5V6.5ZM8.5 7.5C8.22386 7.5 8 7.27614 8 7C8 6.72386 8.22386 6.5 8.5 6.5H20.5C20.7761 6.5 21 6.72386 21 7C21 7.27614 20.7761 7.5 20.5 7.5H8.5ZM3 11.5C3 10.9477 3.44772 10.5 4 10.5H5C5.55228 10.5 6 10.9477 6 11.5V12.5C6 13.0523 5.55228 13.5 5 13.5H4C3.44772 13.5 3 13.0523 3 12.5V11.5ZM8.5 12.5C8.22386 12.5 8 12.2761 8 12C8 11.7239 8.22386 11.5 8.5 11.5H20.5C20.7761 11.5 21 11.7239 21 12C21 12.2761 20.7761 12.5 20.5 12.5H8.5ZM3 16.5C3 15.9477 3.44772 15.5 4 15.5H5C5.55228 15.5 6 15.9477 6 16.5V17.5C6 18.0523 5.55228 18.5 5 18.5H4C3.44772 18.5 3 18.0523 3 17.5V16.5ZM4 6.5V7.5H5V6.5H4ZM4 11.5V12.5H5V11.5H4ZM4 16.5V17.5H5V16.5H4ZM8.5 17.5C8.22386 17.5 8 17.2761 8 17C8 16.7239 8.22386 16.5 8.5 16.5H20.5C20.7761 16.5 21 16.7239 21 17C21 17.2761 20.7761 17.5 20.5 17.5H8.5Z" fill="#2B8F9D"/>
</svg>
