<svg id="interface/add-view" viewBox="0 0 24 24" fill="none" xmlns="http://www.w3.org/2000/svg">
<path d="M4 2C2.89543 2 2 2.89543 2 4V20C2 21.1046 2.89543 22 4 22H13.0343C11.211 20.8487 10 18.8158 10 16.5C10 12.9101 12.9101 10 16.5 10C18.8158 10 20.8487 11.211 22 13.0343V4C22 2.89543 21.1046 2 20 2H4Z" fill="#3ACBAC"/>
<path fill-rule="evenodd" clip-rule="evenodd" d="M4.33325 5.00004C4.33325 4.63185 4.63173 4.33337 4.99992 4.33337H18.9999C19.3681 4.33337 19.6666 4.63185 19.6666 5.00004V10.8222C19.3998 10.6731 19.1215 10.5423 18.8333 10.4314V8.83337H16.1666V10.0084C15.8257 10.0256 15.4917 10.0691 15.1666 10.1369V8.83337H12.4999V11.3762C12.0811 11.7036 11.7035 12.0812 11.376 12.5H8.83325V15.1667H10.1368C10.069 15.4918 10.0255 15.8258 10.0083 16.1667H8.83325V18.8334H10.4313C10.5422 19.1216 10.673 19.4 10.8221 19.6667H4.99992C4.63173 19.6667 4.33325 19.3682 4.33325 19V5.00004ZM7.83325 5.16671H5.16659V7.83337H7.83325V5.16671ZM11.4999 5.16671H8.83325V7.83337H11.4999V5.16671ZM15.1666 5.16671H12.4999V7.83337H15.1666V5.16671ZM18.8333 5.16671H16.1666V7.83337H18.8333V5.16671ZM7.83325 8.83337H5.16659V11.5H7.83325V8.83337ZM11.4999 8.83337H8.83325V11.5H11.4999V8.83337ZM7.83325 12.5H5.16659V15.1667H7.83325V12.5ZM7.83325 16.1667H5.16659V18.8334H7.83325V16.1667Z" fill="white"/>
<path fill-rule="evenodd" clip-rule="evenodd" d="M16.5 11C19.5376 11 22 13.4624 22 16.5C22 19.5376 19.5376 22 16.5 22C13.4624 22 11 19.5376 11 16.5C11 13.4624 13.4624 11 16.5 11ZM17.0011 19.5035L17.0006 17H19.4966C19.7725 17 19.9961 16.7762 19.9961 16.5C19.9961 16.2239 19.7725 16 19.4966 16H17.0005L17 13.4993C17 13.2231 16.7761 12.9993 16.5 12.9993C16.2239 12.9993 16 13.2231 16 13.4993L16.0005 16H13.4956C13.2197 16 12.9961 16.2239 12.9961 16.5C12.9961 16.7762 13.2197 17 13.4956 17H16.0006L16.0011 19.5035C16.0011 19.7797 16.225 20.0035 16.5011 20.0035C16.7773 20.0035 17.0011 19.7797 17.0011 19.5035Z" fill="#3ACBAC"/>
</svg>
