<svg  id="interface/add-folder" viewBox="0 0 24 24" fill="none" xmlns="http://www.w3.org/2000/svg">
<path fill-rule="evenodd" clip-rule="evenodd" d="M4.148 18.493C3.782 18.444 3.5 18.13 3.5 17.75V6.25L3.507 6.148C3.53165 5.96845 3.62048 5.80389 3.75707 5.68477C3.89366 5.56564 4.06876 5.50001 4.25 5.5H8.207L8.311 5.507C8.4498 5.52635 8.5804 5.5842 8.688 5.674L10.578 7.249C10.6634 7.31859 10.7415 7.38537 10.8152 7.44843L10.8153 7.44845C11.1957 7.77386 11.46 8 12.021 8H19.75L19.852 8.007C20.0316 8.03165 20.1961 8.12048 20.3152 8.25707C20.4344 8.39366 20.5 8.56876 20.5 8.75V11.3762C19.397 10.5139 18.0085 10 16.5 10C12.9101 10 10 12.9101 10 16.5C10 17.1978 10.11 17.8699 10.3135 18.5H4.25L4.148 18.493Z" fill="#D2EDF2"/>
<path fill-rule="evenodd" clip-rule="evenodd" d="M8.207 4C8.667 4 9.115 4.141 9.491 4.402L9.647 4.522L12.022 6.5H19.75C20.2928 6.49982 20.8174 6.69588 21.227 7.05204C21.6367 7.40819 21.9037 7.90043 21.979 8.438L21.995 8.596L22 8.75V13.0343C21.5987 12.3987 21.0902 11.8376 20.5 11.3762V8.75C20.5 8.56876 20.4344 8.39366 20.3152 8.25707C20.1961 8.12048 20.0316 8.03165 19.852 8.007L19.75 8H12.021C11.46 8 11.1957 7.77386 10.8153 7.44846C10.7415 7.38539 10.6634 7.3186 10.578 7.249L8.688 5.674C8.5804 5.5842 8.4498 5.52635 8.311 5.507L8.207 5.5H4.25C4.06876 5.50001 3.89366 5.56564 3.75707 5.68477C3.62048 5.80389 3.53165 5.96845 3.507 6.148L3.5 6.25V8.999V10.499V17.75C3.5 18.13 3.782 18.444 4.148 18.493L4.25 18.5H10.3135C10.4858 19.0335 10.7253 19.5368 11.0218 20H4.25C3.67987 20.0001 3.13098 19.7837 2.71425 19.3946C2.29751 19.0056 2.04402 18.4728 2.005 17.904L2 17.75V6.25C1.99993 5.67987 2.2163 5.13098 2.60537 4.71425C2.99444 4.29751 3.52721 4.04402 4.096 4.005L4.25 4H8.207Z" fill="#43B8C9"/>
<path fill-rule="evenodd" clip-rule="evenodd" d="M16.5 11C19.5376 11 22 13.4624 22 16.5C22 19.5376 19.5376 22 16.5 22C13.4624 22 11 19.5376 11 16.5C11 13.4624 13.4624 11 16.5 11ZM17.0011 19.5035L17.0006 17H19.4966C19.7725 17 19.9961 16.7762 19.9961 16.5C19.9961 16.2239 19.7725 16 19.4966 16H17.0005L17 13.4993C17 13.2231 16.7761 12.9993 16.5 12.9993C16.2239 12.9993 16 13.2231 16 13.4993L16.0005 16H13.4956C13.2197 16 12.9961 16.2239 12.9961 16.5C12.9961 16.7762 13.2197 17 13.4956 17H16.0006L16.0011 19.5035C16.0011 19.7797 16.225 20.0035 16.5011 20.0035C16.7773 20.0035 17.0011 19.7797 17.0011 19.5035Z" fill="#43B8C9"/>
</svg>
