<svg id="interface/card-view" viewBox="0 0 24 24" fill="none" xmlns="http://www.w3.org/2000/svg">
<path d="M8.75 13C9.34674 13 9.91903 13.2371 10.341 13.659C10.7629 14.081 11 14.6533 11 15.25V18.75C11 19.3467 10.7629 19.919 10.341 20.341C9.91903 20.7629 9.34674 21 8.75 21H5.25C4.65326 21 4.08097 20.7629 3.65901 20.341C3.23705 19.919 3 19.3467 3 18.75V15.25C3 14.6533 3.23705 14.081 3.65901 13.659C4.08097 13.2371 4.65326 13 5.25 13H8.75ZM18.75 13C19.3467 13 19.919 13.2371 20.341 13.659C20.7629 14.081 21 14.6533 21 15.25V18.75C21 19.3467 20.7629 19.919 20.341 20.341C19.919 20.7629 19.3467 21 18.75 21H15.25C14.6533 21 14.081 20.7629 13.659 20.341C13.2371 19.919 13 19.3467 13 18.75V15.25C13 14.6533 13.2371 14.081 13.659 13.659C14.081 13.2371 14.6533 13 15.25 13H18.75ZM8.75 14.5H5.25C5.05109 14.5 4.86032 14.579 4.71967 14.7197C4.57902 14.8603 4.5 15.0511 4.5 15.25V18.75C4.5 19.164 4.836 19.5 5.25 19.5H8.75C8.94891 19.5 9.13968 19.421 9.28033 19.2803C9.42098 19.1397 9.5 18.9489 9.5 18.75V15.25C9.5 15.0511 9.42098 14.8603 9.28033 14.7197C9.13968 14.579 8.94891 14.5 8.75 14.5ZM18.75 14.5H15.25C15.0511 14.5 14.8603 14.579 14.7197 14.7197C14.579 14.8603 14.5 15.0511 14.5 15.25V18.75C14.5 19.164 14.836 19.5 15.25 19.5H18.75C18.9489 19.5 19.1397 19.421 19.2803 19.2803C19.421 19.1397 19.5 18.9489 19.5 18.75V15.25C19.5 15.0511 19.421 14.8603 19.2803 14.7197C19.1397 14.579 18.9489 14.5 18.75 14.5ZM8.75 3C9.34674 3 9.91903 3.23705 10.341 3.65901C10.7629 4.08097 11 4.65326 11 5.25V8.75C11 9.34674 10.7629 9.91903 10.341 10.341C9.91903 10.7629 9.34674 11 8.75 11H5.25C4.65326 11 4.08097 10.7629 3.65901 10.341C3.23705 9.91903 3 9.34674 3 8.75V5.25C3 4.65326 3.23705 4.08097 3.65901 3.65901C4.08097 3.23705 4.65326 3 5.25 3H8.75ZM18.75 3C19.3467 3 19.919 3.23705 20.341 3.65901C20.7629 4.08097 21 4.65326 21 5.25V8.75C21 9.34674 20.7629 9.91903 20.341 10.341C19.919 10.7629 19.3467 11 18.75 11H15.25C14.6533 11 14.081 10.7629 13.659 10.341C13.2371 9.91903 13 9.34674 13 8.75V5.25C13 4.65326 13.2371 4.08097 13.659 3.65901C14.081 3.23705 14.6533 3 15.25 3H18.75ZM8.75 4.5H5.25C5.05109 4.5 4.86032 4.57902 4.71967 4.71967C4.57902 4.86032 4.5 5.05109 4.5 5.25V8.75C4.5 9.164 4.836 9.5 5.25 9.5H8.75C8.94891 9.5 9.13968 9.42098 9.28033 9.28033C9.42098 9.13968 9.5 8.94891 9.5 8.75V5.25C9.5 5.05109 9.42098 4.86032 9.28033 4.71967C9.13968 4.57902 8.94891 4.5 8.75 4.5ZM18.75 4.5H15.25C15.0511 4.5 14.8603 4.57902 14.7197 4.71967C14.579 4.86032 14.5 5.05109 14.5 5.25V8.75C14.5 9.164 14.836 9.5 15.25 9.5H18.75C18.9489 9.5 19.1397 9.42098 19.2803 9.28033C19.421 9.13968 19.5 8.94891 19.5 8.75V5.25C19.5 5.05109 19.421 4.86032 19.2803 4.71967C19.1397 4.57902 18.9489 4.5 18.75 4.5Z" fill="currentColor"/>
</svg>
