<svg id="interface/caretDown" viewBox="0 0 24 24" fill="none" xmlns="http://www.w3.org/2000/svg">
<path d="M7.52966 9.53093C7.33091 9.53093 7.14028 9.60982 6.99966 9.75027C6.85921 9.8909 6.78032 10.0815 6.78032 10.2803C6.78032 10.479 6.85921 10.6696 6.99966 10.8103L11.4701 15.2807C11.6107 15.4211 11.8013 15.5 12.0001 15.5C12.1988 15.5 12.3894 15.4211 12.5301 15.2807L16.9814 10.8293C17.055 10.7606 17.1141 10.6778 17.1551 10.5858C17.1961 10.4938 17.2182 10.3945 17.2199 10.2938C17.2217 10.1931 17.2032 10.0931 17.1655 9.9997C17.1278 9.90632 17.0716 9.82148 17.0004 9.75026C16.9292 9.67905 16.8443 9.6229 16.751 9.58518C16.6576 9.54746 16.5575 9.52893 16.4568 9.53071C16.3561 9.53249 16.2568 9.55453 16.1648 9.59552C16.0728 9.63651 15.99 9.69562 15.9214 9.7693L12.0001 13.6907L8.05966 9.75027C7.91903 9.60982 7.72841 9.53093 7.52966 9.53093Z" fill="currentColor"/>
</svg>
