<svg id="interface/caretUp" viewBox="0 0 24 24" fill="none" xmlns="http://www.w3.org/2000/svg">
<path d="M16.4703 14.4691C16.6691 14.4691 16.8597 14.3902 17.0003 14.2497C17.1408 14.1091 17.2197 13.9185 17.2197 13.7197C17.2197 13.521 17.1408 13.3304 17.0003 13.1897L12.5299 8.71934C12.3893 8.57889 12.1987 8.5 11.9999 8.5C11.8012 8.5 11.6106 8.57889 11.4699 8.71934L7.01864 13.1707C6.94496 13.2394 6.88586 13.3222 6.84486 13.4142C6.80387 13.5062 6.78183 13.6055 6.78005 13.7062C6.77828 13.8069 6.7968 13.9069 6.83452 14.0003C6.87224 14.0937 6.92839 14.1785 6.99961 14.2497C7.07083 14.321 7.15566 14.3771 7.24905 14.4148C7.34244 14.4525 7.44246 14.4711 7.54317 14.4693C7.64387 14.4675 7.74318 14.4455 7.83518 14.4045C7.92718 14.3635 8.00998 14.3044 8.07865 14.2307L11.9999 10.3093L15.9403 14.2497C16.081 14.3902 16.2716 14.4691 16.4703 14.4691Z" fill="currentColor"/>
</svg>
