<svg id="interface/down-chevron" viewBox="0 0 24 24" fill="none" xmlns="http://www.w3.org/2000/svg">
<path d="M7.52957 9.53093C7.33082 9.53093 7.14019 9.60982 6.99957 9.75027C6.85911 9.8909 6.78023 10.0815 6.78023 10.2803C6.78023 10.479 6.85911 10.6696 6.99957 10.8103L11.47 15.2807C11.6106 15.4211 11.8012 15.5 12 15.5C12.1987 15.5 12.3893 15.4211 12.53 15.2807L16.9813 10.8293C17.055 10.7606 17.1141 10.6778 17.155 10.5858C17.196 10.4938 17.2181 10.3945 17.2199 10.2938C17.2216 10.1931 17.2031 10.0931 17.1654 9.9997C17.1277 9.90632 17.0715 9.82148 17.0003 9.75026C16.9291 9.67905 16.8442 9.6229 16.7509 9.58518C16.6575 9.54746 16.5574 9.52893 16.4567 9.53071C16.356 9.53249 16.2567 9.55453 16.1647 9.59552C16.0727 9.63651 15.9899 9.69562 15.9213 9.7693L12 13.6907L8.05957 9.75027C7.91894 9.60982 7.72832 9.53093 7.52957 9.53093Z" fill="currentColor"/>
</svg>
