<svg id="interface/empty-content" viewBox="0 0 250 250" fill="none" xmlns="http://www.w3.org/2000/svg">
<path fill-rule="evenodd" clip-rule="evenodd" d="M121.916 49.4052C136.497 50.3955 149.543 55.5379 163.046 61.1191C181.294 68.662 205.581 69.984 214.386 87.6273C223.183 105.253 214.353 127.295 204.62 144.424C196.001 159.594 179.354 166.971 164.286 175.803C150.821 183.694 137.237 189.884 121.916 192.895C102.95 196.623 80.1514 207.698 65.3935 195.24C50.4174 182.598 63.3937 157.165 57.4796 138.501C51.6465 120.093 27.203 107.118 31.5048 88.295C35.75 69.7191 58.9735 62.7839 76.5072 55.2419C90.8735 49.0623 106.308 48.3452 121.916 49.4052Z" fill="#F9FCFF"/>
<path d="M128.058 102.736L72.5209 139.595C71.772 140.093 71.2512 140.868 71.073 141.749C70.8948 142.631 71.0738 143.547 71.5706 144.296L105.389 195.252C105.887 196.001 106.662 196.521 107.543 196.7C108.424 196.878 109.341 196.699 110.09 196.202L165.627 159.343C166.376 158.845 166.897 158.07 167.075 157.189C167.253 156.307 167.074 155.391 166.577 154.642L132.759 103.686C132.261 102.937 131.486 102.417 130.605 102.238C129.723 102.06 128.807 102.239 128.058 102.736Z" fill="url(#paint0_linear_449_293927)"/>
<path d="M96.2582 145.143L111.458 148.215L102.322 154.279L96.2582 145.143Z" fill="url(#paint1_linear_449_293927)"/>
<path d="M147.261 125.538L133.31 104.517L127.227 103.287L143.605 127.964L147.261 125.537L147.261 125.538Z" fill="#C4CEDB"/>
<path d="M130.109 116.941L72.7155 127.745C70.8583 128.095 69.0691 126.873 68.7196 125.015L58.633 71.4332C58.2834 69.576 59.5057 67.7869 61.3628 67.4373L118.756 56.6333C120.613 56.2837 122.402 57.5059 122.752 59.3631L132.839 112.945C133.188 114.802 131.966 116.592 130.109 116.941Z" fill="#E7EDF4"/>
<path d="M69.9846 125.879L59.8981 72.2975C59.5485 70.4403 60.7708 68.6511 62.6279 68.3015L120.021 57.4975C120.677 57.3741 121.323 57.4499 121.901 57.6773C121.128 56.8412 119.958 56.4071 118.756 56.6333L61.3628 67.4373C59.5057 67.7869 58.2834 69.576 58.633 71.4332L68.7195 125.015C68.9458 126.217 69.7757 127.149 70.8357 127.566C70.4136 127.11 70.1082 126.536 69.9847 125.88L69.9846 125.879Z" fill="url(#paint2_linear_449_293927)"/>
<path d="M113.826 69.2844L70.556 77.4297L71.0202 79.8956L114.29 71.7503L113.826 69.2844ZM115.598 78.7L72.3284 86.8453L72.7926 89.3112L116.062 81.1659L115.598 78.7ZM117.371 88.1177L74.1013 96.263L74.5655 98.7289L117.835 90.5836L117.371 88.1177ZM119.143 97.5333L75.8737 105.679L76.338 108.145L119.608 99.9995L119.143 97.5333Z" fill="white"/>
<path d="M116 119.5L130.5 97L132 92.5L94.5 123.5L116 119.5Z" fill="url(#paint3_linear_449_293927)"/>
<rect x="140.966" y="76.3887" width="65.1329" height="65.1329" rx="8" transform="rotate(32.8178 140.966 76.3887)" fill="#E7EDF4"/>
<path fill-rule="evenodd" clip-rule="evenodd" d="M145.058 88.0692C144.05 87.4194 142.707 87.7095 142.057 88.7172L117.347 127.033C116.697 128.041 116.987 129.385 117.995 130.035L156.311 154.745C157.319 155.395 158.662 155.105 159.312 154.097L184.022 115.781C184.672 114.773 184.382 113.429 183.374 112.779L145.058 88.0692ZM144.043 90.6441L151.342 95.3508L146.635 102.649L139.337 97.9425L144.043 90.6441ZM154.078 97.1158L161.377 101.823L156.67 109.121L149.372 104.414L154.078 97.1158ZM164.114 103.588L171.412 108.294L166.705 115.593L159.407 110.886L164.114 103.588ZM174.149 110.059L181.447 114.766L176.741 122.064L169.442 117.358L174.149 110.059ZM137.572 100.679L144.87 105.386L140.163 112.684L132.865 107.978L137.572 100.679ZM147.607 107.151L154.905 111.858L150.198 119.156L142.9 114.449L147.607 107.151ZM157.642 113.623L164.94 118.329L160.234 125.628L152.935 120.921L157.642 113.623ZM167.677 120.094L174.976 124.801L170.269 132.099L162.971 127.393L167.677 120.094ZM131.1 110.715L138.398 115.421L133.692 122.72L126.393 118.013L131.1 110.715ZM141.135 117.186L148.433 121.893L143.727 129.191L136.428 124.485L141.135 117.186ZM151.17 123.658L158.469 128.365L153.762 135.663L146.464 130.956L151.17 123.658ZM161.206 130.13L168.504 134.836L163.797 142.135L156.499 137.428L161.206 130.13ZM124.628 120.75L131.927 125.457L127.22 132.755L119.922 128.048L124.628 120.75ZM134.663 127.222L141.962 131.928L137.255 139.227L129.957 134.52L134.663 127.222ZM144.699 133.693L151.997 138.4L147.29 145.698L139.992 140.992L144.699 133.693ZM154.734 140.165L162.032 144.872L157.326 152.17L150.027 147.463L154.734 140.165Z" fill="white"/>
<path d="M152.806 124.598L167.374 155.098C168.102 156.623 167.597 158.451 166.189 159.386L109.91 196.738C108.502 197.672 106.621 197.428 105.499 196.164L75.1673 162.017C73.7982 160.475 74.1095 158.079 75.8275 156.939L93.2076 145.404C94.6155 144.469 96.4962 144.714 97.6183 145.977L101.591 150.448C102.713 151.712 104.594 151.956 106.002 151.022L147.871 123.234C149.588 122.094 151.917 122.737 152.806 124.598L152.806 124.598Z" fill="#E2E7ED"/>
<defs>
<linearGradient id="paint0_linear_449_293927" x1="100.289" y1="121.166" x2="137.859" y2="177.772" gradientUnits="userSpaceOnUse">
<stop stop-color="#C4CEDB"/>
<stop offset="1" stop-color="#C4CEDB" stop-opacity="0"/>
</linearGradient>
<linearGradient id="paint1_linear_449_293927" x1="109.331" y1="151.739" x2="90.9588" y2="148.025" gradientUnits="userSpaceOnUse">
<stop stop-color="#C2CECE" stop-opacity="0"/>
<stop offset="0.179" stop-color="#AFBCBC" stop-opacity="0.179"/>
<stop offset="1" stop-color="#5B6A6A"/>
</linearGradient>
<linearGradient id="paint2_linear_449_293927" x1="98.0783" y1="93.7863" x2="47.5434" y2="59.2629" gradientUnits="userSpaceOnUse">
<stop stop-color="white"/>
</linearGradient>
<linearGradient id="paint3_linear_449_293927" x1="120.5" y1="117" x2="111.5" y2="108" gradientUnits="userSpaceOnUse">
<stop stop-color="#C9D2DE"/>
<stop offset="1" stop-color="#E7EDF4" stop-opacity="0"/>
</linearGradient>
</defs>
</svg>
