<svg id="interface/format-file" viewBox="0 0 24 24" fill="none" xmlns="http://www.w3.org/2000/svg">
<path fill-rule="evenodd" clip-rule="evenodd" d="M8.75 11.5C8.55109 11.5 8.36032 11.579 8.21967 11.7197C8.07902 11.8603 8 12.0511 8 12.25C8 12.4489 8.07902 12.6397 8.21967 12.7803C8.36032 12.921 8.55109 13 8.75 13H11.0218C11.3841 12.4341 11.8317 11.9281 12.3464 11.5H8.75ZM8.75 14.25H10.4C10.2242 14.7263 10.1027 15.2288 10.0428 15.75H8.75C8.55109 15.75 8.36032 15.671 8.21967 15.5303C8.07902 15.3897 8 15.1989 8 15C8 14.8011 8.07902 14.6103 8.21967 14.4697C8.36032 14.329 8.55109 14.25 8.75 14.25ZM8.75 17H10.0189C10.0585 17.5195 10.159 18.0218 10.3135 18.5H8.75C8.55109 18.5 8.36032 18.421 8.21967 18.2803C8.07902 18.1397 8 17.9489 8 17.75C8 17.5511 8.07902 17.3603 8.21967 17.2197C8.36032 17.079 8.55109 17 8.75 17ZM6 20.5H11.3762C11.8376 21.0902 12.3987 21.5987 13.0343 22H6C5.46957 22 4.96086 21.7893 4.58579 21.4142C4.21071 21.0391 4 20.5304 4 20V4C4 3.46957 4.21071 2.96086 4.58579 2.58579C4.96086 2.21071 5.46957 2 6 2H12.172C12.1945 2 12.2164 2.00259 12.2382 2.00516L12.254 2.007L12.254 2.007C12.274 2.01 12.294 2.013 12.313 2.014C12.528 2.029 12.74 2.07 12.937 2.152C12.9915 2.17493 13.0441 2.20516 13.0958 2.23485L13.0958 2.23486L13.103 2.239L13.153 2.268L13.2 2.292C13.228 2.30474 13.2551 2.31944 13.281 2.336C13.359 2.389 13.429 2.452 13.5 2.516C13.5116 2.52644 13.5236 2.53645 13.536 2.546C13.5532 2.55827 13.5695 2.57163 13.585 2.586L19.414 8.414C19.7891 8.78899 19.9999 9.29761 20 9.828V11.0218C19.5368 10.7253 19.0335 10.4858 18.5 10.3135V10H16.5H14C13.4696 10 12.9609 9.78929 12.5858 9.41421C12.2107 9.03914 12 8.53043 12 8V3.5H6C5.86739 3.5 5.74021 3.55268 5.64645 3.64645C5.55268 3.74021 5.5 3.86739 5.5 4V20C5.5 20.1326 5.55268 20.2598 5.64645 20.3536C5.74021 20.4473 5.86739 20.5 6 20.5ZM17.378 8.5L13.5 4.621V8C13.5 8.13261 13.5527 8.25979 13.6464 8.35355C13.7402 8.44732 13.8674 8.5 14 8.5H17.378ZM14.3952 21.5813C15.0625 21.8577 15.7777 22 16.5 22C17.9587 22 19.3576 21.4205 20.3891 20.3891C21.4205 19.3576 22 17.9587 22 16.5C22 15.0413 21.4205 13.6424 20.3891 12.6109C19.3576 11.5795 17.9587 11 16.5 11C15.7777 11 15.0625 11.1423 14.3952 11.4187C13.728 11.6951 13.1216 12.1002 12.6109 12.6109C12.1002 13.1216 11.6951 13.728 11.4187 14.3952C11.1423 15.0625 11 15.7777 11 16.5C11 17.2223 11.1423 17.9375 11.4187 18.6048C11.6951 19.2721 12.1002 19.8784 12.6109 20.3891C13.1216 20.8998 13.728 21.3049 14.3952 21.5813ZM18 13.4994C18.1328 13.4994 18.2601 13.5521 18.354 13.646L19.854 15.146C19.9006 15.1924 19.9375 15.2476 19.9627 15.3084C19.9879 15.3691 20.0009 15.4342 20.0009 15.5C20.0009 15.5658 19.9879 15.6309 19.9627 15.6916C19.9375 15.7524 19.9006 15.8076 19.854 15.854L18.354 17.354C18.2601 17.4479 18.1328 17.5006 18 17.5006C17.8672 17.5006 17.7399 17.4479 17.646 17.354C17.5521 17.2601 17.4994 17.1328 17.4994 17C17.4994 16.8672 17.5521 16.7399 17.646 16.646L18.293 16H16.25C15.6533 16 15.081 16.2371 14.659 16.659C14.2371 17.081 14 17.6533 14 18.25V18.5C14 18.6326 13.9473 18.7598 13.8536 18.8536C13.7598 18.9473 13.6326 19 13.5 19C13.3674 19 13.2402 18.9473 13.1464 18.8536C13.0527 18.7598 13 18.6326 13 18.5V18.25C13 17.388 13.3424 16.5614 13.9519 15.9519C14.5614 15.3424 15.388 15 16.25 15H18.293L17.646 14.354C17.5521 14.2601 17.4994 14.1328 17.4994 14C17.4994 13.8672 17.5521 13.7399 17.646 13.646C17.7399 13.5521 17.8672 13.4994 18 13.4994Z" fill="currentColor"/>
</svg>
