<svg id="interface/goto-dataset" viewBox="0 0 24 25" fill="none" xmlns="http://www.w3.org/2000/svg">
<path fill-rule="evenodd" clip-rule="evenodd" d="M2.00049 6.75024C2.00049 5.5076 3.00785 4.50024 4.25049 4.50024H19.7505C20.9931 4.50024 22.0005 5.5076 22.0005 6.75024V18.2502C22.0005 19.4929 20.9931 20.5002 19.7505 20.5002H14.6136C14.8774 20.0283 15.0936 19.5261 15.2557 19.0002H15.8755V16.9586H15.5962C15.599 16.8727 15.6004 16.7866 15.6004 16.7C15.6004 16.2775 15.5668 15.8629 15.5021 15.4586H15.8755V13.3336H14.8385C14.5812 12.7967 14.2644 12.2939 13.8965 11.8336H15.8755V9.70858H12.7505V10.6718C11.4039 9.56471 9.67974 8.90005 7.80039 8.90005C6.55693 8.90005 5.38143 9.19102 4.33826 9.70858H3.50049V10.1913C2.94697 10.5577 2.44292 10.9928 2.00049 11.4845V6.75024ZM4.25049 6.00024C3.83628 6.00024 3.50049 6.33603 3.50049 6.75024V8.20858H6.62549V6.00024H4.25049ZM19.7505 19.0002H17.3755V16.9586H20.5005V18.2502C20.5005 18.6645 20.1647 19.0002 19.7505 19.0002ZM20.5005 13.3336V15.4586H17.3755V13.3336H20.5005ZM20.5005 9.70858V11.8336H17.3755V9.70858H20.5005ZM20.5005 6.75024V8.20858H17.3755V6.00024H19.7505C20.1647 6.00024 20.5005 6.33603 20.5005 6.75024ZM12.7505 6.00024H15.8755V8.20858H12.7505V6.00024ZM8.12549 6.00024H11.2505V8.20858H8.12549V6.00024Z" fill="currentColor"/>
<path d="M14.4002 16.7001C14.4002 14.9497 13.7048 13.2709 12.4671 12.0332C11.2294 10.7955 9.55062 10.1001 7.80019 10.1001C6.04977 10.1001 4.37103 10.7955 3.13329 12.0332C1.89555 13.2709 1.2002 14.9497 1.2002 16.7001C1.2002 18.4505 1.89555 20.1293 3.13329 21.367C4.37103 22.6047 6.04977 23.3001 7.80019 23.3001C9.55062 23.3001 11.2294 22.6047 12.4671 21.367C13.7048 20.1293 14.4002 18.4505 14.4002 16.7001ZM7.97539 14.1249C7.86273 14.0122 7.79944 13.8594 7.79944 13.7001C7.79944 13.5408 7.86273 13.388 7.97539 13.2753C8.08806 13.1626 8.24086 13.0993 8.4002 13.0993C8.55953 13.0993 8.71233 13.1626 8.825 13.2753L11.825 16.2753C11.8809 16.331 11.9252 16.3972 11.9555 16.4701C11.9857 16.543 12.0013 16.6212 12.0013 16.7001C12.0013 16.779 11.9857 16.8572 11.9555 16.9301C11.9252 17.003 11.8809 17.0692 11.825 17.1249L8.825 20.1249C8.71233 20.2376 8.55953 20.3009 8.4002 20.3009C8.24086 20.3009 8.08806 20.2376 7.97539 20.1249C7.86273 20.0122 7.79944 19.8594 7.79944 19.7001C7.79944 19.5408 7.86273 19.388 7.97539 19.2753L9.95179 17.3001H4.2002C4.04107 17.3001 3.88845 17.2369 3.77593 17.1244C3.66341 17.0118 3.6002 16.8592 3.6002 16.7001C3.6002 16.541 3.66341 16.3884 3.77593 16.2758C3.88845 16.1633 4.04107 16.1001 4.2002 16.1001H9.95179L7.97539 14.1249Z" fill="currentColor"/>
</svg>
