<svg id="interface/information" viewBox="0 0 16 16" fill="none" xmlns="http://www.w3.org/2000/svg">
<path d="M7.99997 1.3327C11.6826 1.3327 14.668 4.31804 14.668 8.0007C14.668 11.6827 11.6826 14.668 7.99997 14.668C4.3173 14.668 1.33197 11.6827 1.33197 8.0007C1.33197 4.31804 4.3173 1.3327 7.99997 1.3327ZM7.99997 2.3327C7.25051 2.32457 6.50688 2.46517 5.81212 2.74635C5.11735 3.02753 4.48526 3.44372 3.95241 3.97081C3.41956 4.49791 2.99655 5.12546 2.70785 5.81713C2.41915 6.5088 2.2705 7.25086 2.2705 8.00037C2.2705 8.74987 2.41915 9.49194 2.70785 10.1836C2.99655 10.8753 3.41956 11.5028 3.95241 12.0299C4.48526 12.557 5.11735 12.9732 5.81212 13.2544C6.50688 13.5356 7.25051 13.6762 7.99997 13.668C9.48799 13.6452 10.9073 13.0381 11.9515 11.9777C12.9957 10.9174 13.581 9.48889 13.581 8.0007C13.581 6.51251 12.9957 5.08402 11.9515 4.02367C10.9073 2.96333 9.48799 2.35619 7.99997 2.33337V2.3327ZM7.9973 6.99937C8.11824 6.99921 8.23514 7.0429 8.32634 7.12233C8.41754 7.20176 8.47686 7.31155 8.4933 7.43137L8.49797 7.49937L8.49997 11.1674C8.49993 11.2941 8.45181 11.416 8.36532 11.5086C8.27884 11.6011 8.16044 11.6574 8.03405 11.6661C7.90766 11.6747 7.78271 11.635 7.68444 11.5551C7.58617 11.4751 7.5219 11.3609 7.50464 11.2354L7.49997 11.168L7.49797 7.50004C7.49797 7.36743 7.55065 7.24025 7.64442 7.14648C7.73819 7.05271 7.86536 7.00004 7.99797 7.00004L7.9973 6.99937ZM7.99997 4.6687C8.08916 4.66588 8.17801 4.68101 8.26123 4.71319C8.34446 4.74537 8.42038 4.79395 8.48446 4.85604C8.54855 4.91814 8.59951 4.99247 8.63431 5.07464C8.66911 5.15681 8.68704 5.24514 8.68704 5.33437C8.68704 5.4236 8.66911 5.51193 8.63431 5.5941C8.59951 5.67626 8.54855 5.7506 8.48446 5.81269C8.42038 5.87478 8.34446 5.92336 8.26123 5.95555C8.17801 5.98773 8.08916 6.00286 7.99997 6.00004C7.82707 5.99456 7.66308 5.92203 7.54272 5.79779C7.42235 5.67355 7.35504 5.50736 7.35504 5.33437C7.35504 5.16138 7.42235 4.99518 7.54272 4.87094C7.66308 4.74671 7.82707 4.67417 7.99997 4.6687Z" fill="#505862"/>
</svg>
