<svg id="interface/job-raw-profile" viewBox="0 0 24 24" fill="none" xmlns="http://www.w3.org/2000/svg">
<path d="M7 12.25C7 12.0511 7.07902 11.8603 7.21967 11.7197C7.36032 11.579 7.55109 11.5 7.75 11.5C7.94891 11.5 8.13968 11.579 8.28033 11.7197C8.42098 11.8603 8.5 12.0511 8.5 12.25C8.5 12.4489 8.42098 12.6397 8.28033 12.7803C8.13968 12.921 7.94891 13 7.75 13C7.55109 13 7.36032 12.921 7.21967 12.7803C7.07902 12.6397 7 12.4489 7 12.25ZM7.75 14.5C7.55109 14.5 7.36032 14.579 7.21967 14.7197C7.07902 14.8603 7 15.0511 7 15.25C7 15.4489 7.07902 15.6397 7.21967 15.7803C7.36032 15.921 7.55109 16 7.75 16C7.94891 16 8.13968 15.921 8.28033 15.7803C8.42098 15.6397 8.5 15.4489 8.5 15.25C8.5 15.0511 8.42098 14.8603 8.28033 14.7197C8.13968 14.579 7.94891 14.5 7.75 14.5ZM7 18.25C7 18.0511 7.07902 17.8603 7.21967 17.7197C7.36032 17.579 7.55109 17.5 7.75 17.5C7.94891 17.5 8.13968 17.579 8.28033 17.7197C8.42098 17.8603 8.5 18.0511 8.5 18.25C8.5 18.4489 8.42098 18.6397 8.28033 18.7803C8.13968 18.921 7.94891 19 7.75 19C7.55109 19 7.36032 18.921 7.21967 18.7803C7.07902 18.6397 7 18.4489 7 18.25ZM10.75 11.5C10.5511 11.5 10.3603 11.579 10.2197 11.7197C10.079 11.8603 10 12.0511 10 12.25C10 12.4489 10.079 12.6397 10.2197 12.7803C10.3603 12.921 10.5511 13 10.75 13H16.25C16.4489 13 16.6397 12.921 16.7803 12.7803C16.921 12.6397 17 12.4489 17 12.25C17 12.0511 16.921 11.8603 16.7803 11.7197C16.6397 11.579 16.4489 11.5 16.25 11.5H10.75ZM10 15.25C10 15.0511 10.079 14.8603 10.2197 14.7197C10.3603 14.579 10.5511 14.5 10.75 14.5H16.25C16.4489 14.5 16.6397 14.579 16.7803 14.7197C16.921 14.8603 17 15.0511 17 15.25C17 15.4489 16.921 15.6397 16.7803 15.7803C16.6397 15.921 16.4489 16 16.25 16H10.75C10.5511 16 10.3603 15.921 10.2197 15.7803C10.079 15.6397 10 15.4489 10 15.25ZM10.75 17.5C10.5511 17.5 10.3603 17.579 10.2197 17.7197C10.079 17.8603 10 18.0511 10 18.25C10 18.4489 10.079 18.6397 10.2197 18.7803C10.3603 18.921 10.5511 19 10.75 19H16.25C16.4489 19 16.6397 18.921 16.7803 18.7803C16.921 18.6397 17 18.4489 17 18.25C17 18.0511 16.921 17.8603 16.7803 17.7197C16.6397 17.579 16.4489 17.5 16.25 17.5H10.75ZM19.414 8.414L13.585 2.586C13.5695 2.57163 13.5532 2.55827 13.536 2.546C13.5236 2.53645 13.5116 2.52645 13.5 2.516C13.4312 2.45107 13.358 2.39093 13.281 2.336C13.2554 2.31948 13.2287 2.30478 13.201 2.292L13.153 2.268L13.103 2.239C13.049 2.208 12.994 2.176 12.937 2.152C12.7379 2.07246 12.5271 2.02585 12.313 2.014C12.2932 2.01271 12.2735 2.01038 12.254 2.007C12.2269 2.00281 12.1995 2.00047 12.172 2H6C5.46957 2 4.96086 2.21071 4.58579 2.58579C4.21071 2.96086 4 3.46957 4 4V20C4 20.5304 4.21071 21.0391 4.58579 21.4142C4.96086 21.7893 5.46957 22 6 22H18C18.5304 22 19.0391 21.7893 19.4142 21.4142C19.7893 21.0391 20 20.5304 20 20V9.828C19.9999 9.29761 19.7891 8.78899 19.414 8.414ZM18.5 20C18.5 20.1326 18.4473 20.2598 18.3536 20.3536C18.2598 20.4473 18.1326 20.5 18 20.5H6C5.86739 20.5 5.74021 20.4473 5.64645 20.3536C5.55268 20.2598 5.5 20.1326 5.5 20V4C5.5 3.86739 5.55268 3.74021 5.64645 3.64645C5.74021 3.55268 5.86739 3.5 6 3.5H12V8C12 8.53043 12.2107 9.03914 12.5858 9.41421C12.9609 9.78929 13.4696 10 14 10H18.5V20ZM13.5 4.621L17.378 8.5H14C13.8674 8.5 13.7402 8.44732 13.6464 8.35355C13.5527 8.25979 13.5 8.13261 13.5 8V4.621Z" fill="currentColor"/>
</svg>
