<svg id="interface/job-sql" viewBox="0 0 20 17" fill="none" xmlns="http://www.w3.org/2000/svg">
<path fill-rule="evenodd" clip-rule="evenodd" d="M20 1C20 0.447715 19.5523 0 19 0H1C0.447715 0 0 0.447715 0 1V16C0 16.5523 0.447715 17 1 17H19C19.5523 17 20 16.5523 20 16V1ZM1 1H19V16H1V1ZM16.5 11C16.7761 11 17 11.2239 17 11.5C17 11.7455 16.8231 11.9496 16.5899 11.9919L16.5 12H9.5C9.22386 12 9 11.7761 9 11.5C9 11.2545 9.17688 11.0504 9.41012 11.0081L9.5 11H16.5ZM4.14698 5.14601C4.34198 4.95101 4.65898 4.95101 4.85398 5.14601L7.85398 8.14701C8.04898 8.34201 8.04898 8.65901 7.85398 8.85401L4.85398 11.854C4.75598 11.951 4.62798 12 4.49998 12C4.37198 12 4.24398 11.951 4.14698 11.853C3.95198 11.658 3.95198 11.341 4.14698 11.146L6.79298 8.50001L4.14698 5.85301C3.95198 5.65801 3.95198 5.34101 4.14698 5.14601Z" fill="currentColor"/>
</svg>
