<svg id='interface/jobs-arrow-right' viewBox="0 0 39 10" fill="none" xmlns="http://www.w3.org/2000/svg">
<path d="M4.7642 0.0454543V6.80398C4.7642 7.98118 4.20099 8.61364 3.21307 8.61364C2.31286 8.61364 1.66193 8.08736 1.66193 7.28409H0.535511C0.535511 8.73828 1.66193 9.62926 3.21307 9.62926C4.85653 9.62926 5.90909 8.61825 5.90909 6.80398V0.0454543H4.7642ZM10.9364 9.64773C12.8569 9.64773 14.1495 8.18892 14.1495 5.99148C14.1495 3.77557 12.8569 2.31676 10.9364 2.31676C9.01598 2.31676 7.72337 3.77557 7.72337 5.99148C7.72337 8.18892 9.01598 9.64773 10.9364 9.64773ZM10.9364 8.66903C9.47763 8.66903 8.81286 7.41335 8.81286 5.99148C8.81286 4.5696 9.47763 3.29545 10.9364 3.29545C12.3952 3.29545 13.06 4.5696 13.06 5.99148C13.06 7.41335 12.3952 8.66903 10.9364 8.66903ZM15.9603 9.5H17.0129V8.41051H17.1421C17.3822 8.7983 17.8438 9.64773 19.2103 9.64773C20.983 9.64773 22.2203 8.22585 22.2203 5.97301C22.2203 3.73864 20.983 2.31676 19.1919 2.31676C17.8069 2.31676 17.3822 3.16619 17.1421 3.53551H17.0498V0.0454543H15.9603V9.5ZM17.0313 5.95455C17.0313 4.36648 17.733 3.29545 19.0626 3.29545C20.4475 3.29545 21.1308 4.45881 21.1308 5.95455C21.1308 7.46875 20.4291 8.66903 19.0626 8.66903C17.7515 8.66903 17.0313 7.56108 17.0313 5.95455ZM28.9095 3.99716C28.5679 2.99077 27.8016 2.31676 26.3982 2.31676C24.9024 2.31676 23.7945 3.16619 23.7945 4.36648C23.7945 5.34517 24.3762 6.00071 25.678 6.3054L26.8598 6.58239C27.5754 6.74858 27.9124 7.0902 27.9124 7.57955C27.9124 8.18892 27.2661 8.6875 26.2504 8.6875C25.3595 8.6875 24.8009 8.30433 24.607 7.54261L23.5729 7.80114C23.8268 9.00604 24.8193 9.64773 26.2689 9.64773C27.917 9.64773 29.0388 8.74751 29.0388 7.52415C29.0388 6.53622 28.4202 5.913 27.1553 5.60369L26.1027 5.34517C25.2625 5.13743 24.884 4.85582 24.884 4.31108C24.884 3.7017 25.5303 3.25852 26.3982 3.25852C27.3492 3.25852 27.7416 3.7848 27.9308 4.27415L28.9095 3.99716Z" fill="#43B8C9"/>
<path d="M34.4551 3.47607L36.3276 5.94531V6.06592L34.4551 8.53516H33.5537L35.1914 6.00879L33.5537 3.47607H34.4551ZM36.6704 3.47607L38.543 5.94531V6.06592L36.6704 8.53516H35.769L37.4067 6.00879L35.769 3.47607H36.6704Z" fill="#878787"/>
</svg>
