<svg id="interface/meta" viewBox="0 0 20 20" fill="none" xmlns="http://www.w3.org/2000/svg">
<path fill-rule="evenodd" clip-rule="evenodd" d="M16.1785 7.01175L11.321 2.15508C11.3081 2.1431 11.2945 2.13197 11.2802 2.12175C11.2699 2.11379 11.2598 2.10545 11.2502 2.09675C11.191 2.04341 11.1327 1.99091 11.0677 1.94675C11.0461 1.93295 11.0235 1.9207 11.0002 1.91008L10.961 1.89008L10.9193 1.86591L10.9133 1.86246C10.8702 1.83772 10.8264 1.81252 10.781 1.79341C10.6168 1.72508 10.4402 1.69091 10.261 1.67841C10.2452 1.67758 10.2285 1.67508 10.2118 1.67258C10.2074 1.67209 10.203 1.67157 10.1986 1.67105C10.1805 1.66891 10.1623 1.66675 10.1435 1.66675H5.00016C4.55814 1.66675 4.13421 1.84234 3.82165 2.1549C3.50909 2.46746 3.3335 2.89139 3.3335 3.33341V8.54175C3.3335 8.88693 3.61332 9.16675 3.9585 9.16675C4.30367 9.16675 4.5835 8.88693 4.5835 8.54175V3.33341C4.5835 3.22291 4.62739 3.11693 4.70553 3.03879C4.78368 2.96065 4.88966 2.91675 5.00016 2.91675H10.0002V6.66675C10.0002 7.10878 10.1758 7.5327 10.4883 7.84526C10.8009 8.15782 11.2248 8.33342 11.6668 8.33342H15.4168V11.8751C15.4168 12.2203 15.6967 12.5001 16.0418 12.5001C16.387 12.5001 16.6668 12.2203 16.6668 11.8751V8.19008C16.6667 7.74809 16.4911 7.32424 16.1785 7.01175ZM11.2502 3.85091L14.4818 7.08342H11.6668C11.5563 7.08342 11.4503 7.03952 11.3722 6.96138C11.2941 6.88324 11.2502 6.77726 11.2502 6.66675V3.85091Z" fill="#008489"/>
<path d="M16.551 17.2772C16.6774 16.956 16.387 16.6667 16.0418 16.6667H15.7441C15.5633 16.6667 15.4226 16.8336 15.2948 16.9614C15.2167 17.0395 15.1107 17.0834 15.0002 17.0834H5.00016C4.88966 17.0834 4.78368 17.0395 4.70553 16.9614C4.57774 16.8336 4.43698 16.6667 4.25625 16.6667H3.9585C3.61332 16.6667 3.32289 16.956 3.44932 17.2772C3.53234 17.4881 3.65829 17.6819 3.82165 17.8453C4.13421 18.1578 4.55814 18.3334 5.00016 18.3334H15.0002C15.4422 18.3334 15.8661 18.1578 16.1787 17.8453C16.342 17.6819 16.468 17.4881 16.551 17.2772Z" fill="#008489"/>
<path fill-rule="evenodd" clip-rule="evenodd" d="M8.33333 11C8.33333 10.4477 8.78105 10 9.33333 10H9.83333C10.3856 10 10.8333 10.4477 10.8333 11V11.5C10.8333 12.0523 10.3856 12.5 9.83333 12.5H9.33333C8.78105 12.5 8.33333 12.0523 8.33333 11.5V11ZM5 14.3333C5 13.781 5.44772 13.3333 6 13.3333H6.5C7.05228 13.3333 7.5 13.781 7.5 14.3333V14.8333C7.5 15.3856 7.05228 15.8333 6.5 15.8333H6C5.44772 15.8333 5 15.3856 5 14.8333V14.3333ZM14.1667 11C14.1667 10.4477 13.719 10 13.1667 10H12.6667C12.1144 10 11.6667 10.4477 11.6667 11V11.5C11.6667 12.0523 12.1144 12.5 12.6667 12.5H13.1667C13.719 12.5 14.1667 12.0523 14.1667 11.5V11ZM11.6667 14.3333C11.6667 13.781 12.1144 13.3333 12.6667 13.3333H13.1667C13.719 13.3333 14.1667 13.781 14.1667 14.3333V14.8333C14.1667 15.3856 13.719 15.8333 13.1667 15.8333H12.6667C12.1144 15.8333 11.6667 15.3856 11.6667 14.8333V14.3333ZM17.5 14.3333C17.5 13.781 17.0523 13.3333 16.5 13.3333H16C15.4477 13.3333 15 13.781 15 14.3333V14.8333C15 15.3856 15.4477 15.8333 16 15.8333H16.5C17.0523 15.8333 17.5 15.3856 17.5 14.8333V14.3333Z" fill="#008489"/>
</svg>
