<svg id="interface/more" viewBox="0 0 24 24" fill="none" xmlns="http://www.w3.org/2000/svg">
<path d="M7.75 12C7.75 12.2298 7.70474 12.4574 7.61679 12.6697C7.52884 12.882 7.39994 13.0749 7.23744 13.2374C7.07493 13.3999 6.88202 13.5288 6.6697 13.6168C6.45738 13.7047 6.22981 13.75 6 13.75C5.77019 13.75 5.54262 13.7047 5.3303 13.6168C5.11798 13.5288 4.92507 13.3999 4.76256 13.2374C4.60006 13.0749 4.47116 12.882 4.38321 12.6697C4.29526 12.4574 4.25 12.2298 4.25 12C4.25 11.5359 4.43437 11.0908 4.76256 10.7626C5.09075 10.4344 5.53587 10.25 6 10.25C6.46413 10.25 6.90925 10.4344 7.23744 10.7626C7.56563 11.0908 7.75 11.5359 7.75 12Z" fill="currentColor"/>
<path d="M13.75 12C13.75 12.4641 13.5656 12.9092 13.2374 13.2374C12.9092 13.5656 12.4641 13.75 12 13.75C11.5359 13.75 11.0908 13.5656 10.7626 13.2374C10.4344 12.9092 10.25 12.4641 10.25 12C10.25 11.5359 10.4344 11.0908 10.7626 10.7626C11.0908 10.4344 11.5359 10.25 12 10.25C12.4641 10.25 12.9092 10.4344 13.2374 10.7626C13.5656 11.0908 13.75 11.5359 13.75 12Z" fill="currentColor"/>
<path d="M18 13.75C18.4641 13.75 18.9092 13.5656 19.2374 13.2374C19.5656 12.9092 19.75 12.4641 19.75 12C19.75 11.5359 19.5656 11.0908 19.2374 10.7626C18.9092 10.4344 18.4641 10.25 18 10.25C17.5359 10.25 17.0908 10.4344 16.7626 10.7626C16.4344 11.0908 16.25 11.5359 16.25 12C16.25 12.4641 16.4344 12.9092 16.7626 13.2374C17.0908 13.5656 17.5359 13.75 18 13.75Z" fill="currentColor"/>
</svg>
