<svg id="interface/reflection-raw-mode" viewBox="0 0 24 25" fill="none" xmlns="http://www.w3.org/2000/svg">
<path fill-rule="evenodd" clip-rule="evenodd" d="M20.1945 4.30546C19.6788 3.78973 18.9793 3.5 18.25 3.5H5.75C5.02065 3.5 4.32118 3.78973 3.80546 4.30546C3.28973 4.82118 3 5.52065 3 6.25V18.75C3 19.4793 3.28973 20.1788 3.80546 20.6945C4.32118 21.2103 5.02065 21.5 5.75 21.5H12.0218C11.7253 21.0368 11.4858 20.5335 11.3135 20H5.75C5.06 20 4.5 19.44 4.5 18.75V6.25C4.5 5.56 5.06 5 5.75 5H18.25C18.94 5 19.5 5.56 19.5 6.25V11.8135C20.0335 11.9858 20.5368 12.2253 21 12.5218V6.25C21 5.52065 20.7103 4.82118 20.1945 4.30546ZM14.6853 12.1394C14.5589 12.0492 14.4069 12 14.25 12H6.75L6.648 12.007C6.45975 12.0329 6.28835 12.1293 6.16843 12.2767C6.04852 12.4241 5.98902 12.6115 6.00197 12.8011C6.01493 12.9907 6.09936 13.1683 6.23821 13.298C6.37706 13.4278 6.55998 13.4999 6.75 13.5H12.8096C13.3454 12.9416 13.98 12.4787 14.6853 12.1394ZM11.3135 16H6.75L6.648 16.007C6.45975 16.0329 6.28835 16.1293 6.16843 16.2767C6.04852 16.4241 5.98902 16.6115 6.00197 16.8011C6.01493 16.9907 6.09936 17.1683 6.23821 17.298C6.37706 17.4278 6.55998 17.4999 6.75 17.5H11.0189C11.0585 16.9805 11.159 16.4782 11.3135 16ZM6.75 8H17.25C17.44 8.00006 17.6229 8.07224 17.7618 8.20197C17.9006 8.3317 17.9851 8.5093 17.998 8.69888C18.011 8.88846 17.9515 9.07589 17.8316 9.2233C17.7117 9.37071 17.5402 9.4671 17.352 9.493L17.25 9.5H6.75C6.55998 9.49994 6.37706 9.42776 6.23821 9.29803C6.09936 9.1683 6.01493 8.9907 6.00197 8.80112C5.98902 8.61154 6.04852 8.42411 6.16843 8.2767C6.28835 8.12929 6.45975 8.0329 6.648 8.007L6.75 8Z" fill="#505862"/>
<path d="M18.0525 13.3334C18.0352 13.1811 17.9237 13.0525 17.7692 13.0126C17.6008 12.969 17.4234 13.0415 17.337 13.1892L14.0505 18.8142C13.9826 18.9303 13.9832 19.0728 14.052 19.1883C14.1207 19.3039 14.2473 19.375 14.3841 19.375H16.9451V22.6666H16.9475C16.9648 22.8189 17.0763 22.9475 17.2308 22.9874C17.3992 23.031 17.5766 22.9585 17.663 22.8108L20.9495 17.1858C21.0174 17.0697 21.0168 16.9272 20.948 16.8117C20.8793 16.6961 20.7527 16.625 20.6159 16.625H18.0549V13.3334H18.0525Z" fill="url(#paint0_linear_303_9064)"/>
<defs>
<linearGradient id="paint0_linear_303_9064" x1="14" y1="13" x2="14" y2="23" gradientUnits="userSpaceOnUse">
<stop stop-color="#56A2FD"/>
<stop offset="1" stop-color="#C94DCA"/>
</linearGradient>
</defs>
</svg>

