<svg id="interface/reflections-outlined" viewBox="0 0 16 16" fill="none" xmlns="http://www.w3.org/2000/svg">
<path fill-rule="evenodd" clip-rule="evenodd" d="M8.71916 1.77774C8.69656 1.57469 8.55149 1.40332 8.35038 1.35C8.13116 1.29187 7.90028 1.38858 7.78792 1.58557L3.51014 9.08558C3.42187 9.24034 3.42262 9.43037 3.5121 9.58443C3.60159 9.73849 3.76629 9.8333 3.94446 9.8333H7.27779V14.2222H7.28087C7.30346 14.4252 7.44854 14.5966 7.64965 14.6499C7.86887 14.7081 8.09975 14.6114 8.21211 14.4144L12.4899 6.91435C12.5782 6.75959 12.5774 6.56956 12.4879 6.4155C12.3984 6.26144 12.2337 6.16663 12.0556 6.16663H8.72224V1.77774H8.71916ZM7.72224 7.16663V3.71911L4.80526 8.8333H8.27779V12.2808L11.1948 7.16663H7.72224Z" fill="url(#paint0_linear_1136_19605)"/>
<defs>
<linearGradient id="paint0_linear_1136_19605" x1="3.44446" y1="1.33325" x2="3.44446" y2="14.6667" gradientUnits="userSpaceOnUse">
<stop stop-color="#56A2FD"/>
<stop offset="1" stop-color="#C94DCA"/>
</linearGradient>
</defs>
</svg>
