<svg id="interface/reflection-aggregate" viewBox="0 0 24 25" fill="none" xmlns="http://www.w3.org/2000/svg">
<g clip-path="url(#clip0_303_8841)">
<path d="M18.0525 13.3334C18.0352 13.1811 17.9237 13.0525 17.7692 13.0126C17.6008 12.969 17.4234 13.0415 17.337 13.1892L14.0505 18.8142C13.9826 18.9303 13.9832 19.0728 14.052 19.1883C14.1207 19.3039 14.2473 19.375 14.3841 19.375H16.9451V22.6666H16.9475C16.9648 22.8189 17.0763 22.9475 17.2308 22.9874C17.3992 23.031 17.5766 22.9585 17.663 22.8108L20.9495 17.1858C21.0174 17.0697 21.0168 16.9272 20.948 16.8117C20.8793 16.6961 20.7527 16.625 20.6159 16.625H18.0549V13.3334H18.0525Z" fill="url(#paint0_linear_303_8841)"/>
<path fill-rule="evenodd" clip-rule="evenodd" d="M6.44245 8.06541C6.26112 8.14698 6.1196 8.29722 6.049 8.4831C5.97852 8.66902 5.98474 8.87532 6.06632 9.05665C6.14789 9.23798 6.29812 9.3795 6.484 9.4501L11.25 11.2601V16.2086C11.5366 15.2067 12.0577 14.3037 12.75 13.5629V11.2601L17.516 9.4501C17.6104 9.41692 17.6972 9.3652 17.7713 9.29797C17.8454 9.23074 17.9053 9.14936 17.9474 9.05864C17.9896 8.96791 18.0132 8.86966 18.0168 8.76967C18.0204 8.66969 18.004 8.56999 17.9685 8.47645C17.933 8.38291 17.8792 8.29741 17.8101 8.225C17.7411 8.15258 17.6583 8.09472 17.5665 8.0548C17.4748 8.01488 17.376 7.99373 17.2759 7.99258C17.1759 7.99143 17.0766 8.0103 16.984 8.0481L12 9.9381L7.016 8.0481C6.83008 7.97761 6.62378 7.98384 6.44245 8.06541ZM20.5 12.2322V7.6731C20.5001 7.62329 20.4853 7.57459 20.4575 7.53325C20.4297 7.49192 20.3902 7.45983 20.344 7.4411L12.845 4.4011C12.3031 4.1815 11.6969 4.1815 11.155 4.4011L3.656 7.4411C3.60984 7.45983 3.57033 7.49192 3.54254 7.53325C3.51474 7.57459 3.49993 7.62329 3.5 7.6731V17.3261C3.50013 17.3757 3.51504 17.4242 3.54282 17.4654C3.5706 17.5065 3.61 17.5384 3.656 17.5571L11.155 20.5971C11.2987 20.6553 11.4469 20.6981 11.5973 20.7255C11.8484 21.2685 12.1723 21.7709 12.5563 22.2204C11.8974 22.3192 11.2184 22.2415 10.591 21.9871L3.093 18.9471C2.77019 18.8163 2.49374 18.5922 2.29903 18.3035C2.10432 18.0147 2.0002 17.6744 2 17.3261V7.6731C1.9998 7.32447 2.10373 6.98373 2.29847 6.69456C2.49321 6.4054 2.76988 6.18098 3.093 6.0501L10.591 3.0101V3.0111C11.4946 2.64474 12.5054 2.64474 13.409 3.0111L20.907 6.0511C21.23 6.18192 21.5065 6.40618 21.7013 6.69515C21.896 6.98412 22 7.32464 22 7.6731V13.3096C21.5557 12.8832 21.051 12.5194 20.5 12.2322Z" fill="#505862"/>
</g>
<defs>
<linearGradient id="paint0_linear_303_8841" x1="14" y1="13" x2="14" y2="23" gradientUnits="userSpaceOnUse">
<stop stop-color="#56A2FD"/>
<stop offset="1" stop-color="#C94DCA"/>
</linearGradient>
<clipPath id="clip0_303_8841">
<rect width="24" height="24" fill="white" transform="translate(0 0.5)"/>
</clipPath>
</defs>
</svg>

