<svg id="interface/right-chevron" viewBox="0 0 24 24" fill="none" xmlns="http://www.w3.org/2000/svg">
<path d="M9.53093 16.4703C9.53093 16.6691 9.60982 16.8597 9.75027 17.0003C9.8909 17.1408 10.0815 17.2197 10.2803 17.2197C10.479 17.2197 10.6696 17.1408 10.8103 17.0003L15.2807 12.5299C15.4211 12.3893 15.5 12.1987 15.5 11.9999C15.5 11.8012 15.4211 11.6105 15.2807 11.4699L10.8293 7.01861C10.7606 6.94493 10.6778 6.88583 10.5858 6.84483C10.4938 6.80384 10.3945 6.7818 10.2938 6.78002C10.1931 6.77825 10.0931 6.79677 9.9997 6.83449C9.90632 6.87221 9.82148 6.92836 9.75026 6.99958C9.67905 7.0708 9.6229 7.15563 9.58518 7.24902C9.54746 7.34241 9.52893 7.44243 9.53071 7.54314C9.53249 7.64384 9.55453 7.74315 9.59552 7.83515C9.63651 7.92715 9.69562 8.00995 9.7693 8.07862L13.6907 11.9999L9.75027 15.9403C9.60982 16.0809 9.53093 16.2716 9.53093 16.4703Z" fill="#505862"/>
</svg>
