<svg id="interface/role" viewBox="0 0 24 24" fill="none" xmlns="http://www.w3.org/2000/svg">
<path fill-rule="evenodd" clip-rule="evenodd" d="M16.5 15.3501C16.5 14.3841 15.716 13.6001 14.75 13.6001H9.25C8.284 13.6001 7.5 14.3841 7.5 15.3501V16.3501C7.5 18.5191 9.157 19.6091 12.067 19.6091C14.988 19.6091 16.616 18.5021 16.499 16.3121L16.5 15.3501ZM9.07322 15.1733C9.12011 15.1264 9.1837 15.1001 9.25 15.1001H14.75C14.8163 15.1001 14.8799 15.1264 14.9268 15.1733C14.9737 15.2202 15 15.2838 15 15.3501V16.3521C15.062 17.5451 14.235 18.1091 12.067 18.1091C9.887 18.1091 9 17.5261 9 16.3501V15.3501C9 15.2838 9.02634 15.2202 9.07322 15.1733Z" fill="currentColor"/>
<path fill-rule="evenodd" clip-rule="evenodd" d="M13.1481 6.82846C12.7841 6.67769 12.394 6.6001 12 6.6001C11.2044 6.6001 10.4413 6.91617 9.87868 7.47878C9.31607 8.04139 9 8.80445 9 9.6001C9 10.3957 9.31607 11.1588 9.87868 11.7214C10.4413 12.284 11.2044 12.6001 12 12.6001C12.394 12.6001 12.7841 12.5225 13.1481 12.3717C13.512 12.221 13.8427 12 14.1213 11.7214C14.3999 11.4428 14.6209 11.1121 14.7716 10.7481C14.9224 10.3842 15 9.99406 15 9.6001C15 9.20613 14.9224 8.81602 14.7716 8.45205C14.6209 8.08807 14.3999 7.75735 14.1213 7.47878C13.8427 7.2002 13.512 6.97922 13.1481 6.82846ZM11.426 8.21428C11.608 8.1389 11.803 8.1001 12 8.1001C12.3978 8.1001 12.7794 8.25813 13.0607 8.53944C13.342 8.82074 13.5 9.20227 13.5 9.6001C13.5 9.99792 13.342 10.3795 13.0607 10.6608C12.7794 10.9421 12.3978 11.1001 12 11.1001C11.803 11.1001 11.608 11.0613 11.426 10.9859C11.244 10.9105 11.0786 10.8 10.9393 10.6608C10.8001 10.5215 10.6896 10.3561 10.6142 10.1741C10.5388 9.99213 10.5 9.79708 10.5 9.6001C10.5 9.40311 10.5388 9.20806 10.6142 9.02607C10.6896 8.84408 10.8001 8.67873 10.9393 8.53944C11.0786 8.40015 11.244 8.28966 11.426 8.21428Z" fill="currentColor"/>
<path fill-rule="evenodd" clip-rule="evenodd" d="M12 2C10.7412 2 9.67998 2.84575 9.35352 4H6.25C5.65326 4 5.08097 4.23705 4.65901 4.65901C4.23705 5.08097 4 5.65326 4 6.25V19.75C4 20.3467 4.23705 20.919 4.65901 21.341C5.08097 21.7629 5.65326 22 6.25 22H17.75C18.0455 22 18.3381 21.9418 18.611 21.8287C18.884 21.7157 19.1321 21.5499 19.341 21.341C19.5499 21.1321 19.7157 20.884 19.8287 20.611C19.9418 20.3381 20 20.0455 20 19.75V6.25C20 5.95453 19.9418 5.66194 19.8287 5.38896C19.7157 5.11598 19.5499 4.86794 19.341 4.65901C19.1321 4.45008 18.884 4.28434 18.611 4.17127C18.3381 4.0582 18.0455 4 17.75 4H14.6465C14.32 2.84575 13.2588 2 12 2ZM12 3.5C11.591 3.5 11.228 3.69639 10.9999 4H13.0001C12.772 3.69639 12.409 3.5 12 3.5ZM6.25 5.5C6.05109 5.5 5.86032 5.57902 5.71967 5.71967C5.57902 5.86032 5.5 6.05109 5.5 6.25V19.75C5.5 20.164 5.836 20.5 6.25 20.5H17.75C17.9489 20.5 18.1397 20.421 18.2803 20.2803C18.421 20.1397 18.5 19.9489 18.5 19.75V6.25C18.5 6.05109 18.421 5.86032 18.2803 5.71967C18.1397 5.57902 17.9489 5.5 17.75 5.5H6.25Z" fill="currentColor"/>
</svg>
