<svg id="interface/validated" viewBox="0 0 20 20" fill="none" xmlns="http://www.w3.org/2000/svg">
<path fill-rule="evenodd" clip-rule="evenodd" d="M15.7334 6.06706C15.9775 5.82299 15.9775 5.42726 15.7334 5.18318C15.4894 4.9391 15.0936 4.9391 14.8496 5.18318L9.4329 10.5998C9.18882 10.8439 9.18882 11.2397 9.4329 11.4837C9.67697 11.7278 10.0727 11.7278 10.3168 11.4837L15.7334 6.06706ZM7.99999 13.8005L6.86141 14.9391C6.45461 15.3459 5.79506 15.3459 5.38827 14.9391L2.34956 11.9004C2.10548 11.6563 2.10548 11.2606 2.34956 11.0165C2.59364 10.7724 2.98937 10.7724 3.23345 11.0165L6.12484 13.9079L7.11614 12.9166L6.10948 11.9099C5.99908 11.7914 5.93897 11.6347 5.94183 11.4728C5.94469 11.3108 6.01028 11.1564 6.12479 11.0418C6.2393 10.9273 6.39379 10.8617 6.55571 10.8589C6.71762 10.856 6.87433 10.9161 6.99281 11.0265L10.0672 14.1012L17.9902 6.01209C18.1087 5.90169 18.2654 5.84159 18.4273 5.84445C18.5892 5.8473 18.7437 5.9129 18.8582 6.02741C18.9727 6.14192 19.0383 6.2964 19.0412 6.45832C19.0441 6.62024 18.9839 6.77695 18.8736 6.89542L10.5089 15.4262C10.3917 15.5433 10.2329 15.609 10.0672 15.609C9.90162 15.609 9.74277 15.5433 9.62558 15.4262L7.99999 13.8005Z" fill="white"/>
</svg>
