<svg id='brand/arctic-jobs' viewBox="0 0 24 24" fill="none" xmlns="http://www.w3.org/2000/svg">
<path fill-rule="evenodd" clip-rule="evenodd" d="M4.774 4.22C4.315 4.707 4 5.31 4 6V18C4 18.69 4.315 19.293 4.774 19.78C5.229 20.263 5.853 20.663 6.567 20.983C7.996 21.623 9.917 22 12 22C12.2669 22 12.5312 21.9938 12.7921 21.9817C12.3727 21.5412 12.0144 21.042 11.731 20.4977C9.92019 20.4667 8.31892 20.1239 7.18 19.614C6.582 19.346 6.144 19.046 5.865 18.75C5.59 18.46 5.5 18.207 5.5 18V8.392C5.83728 8.62022 6.19439 8.81768 6.567 8.982C7.996 9.623 9.917 10 12 10C14.083 10 16.004 9.623 17.433 8.982C17.82 8.809 18.18 8.612 18.5 8.392V11.0764C19.0232 11.1572 19.5258 11.3004 20 11.4982V6C20 5.31 19.685 4.707 19.226 4.22C18.771 3.738 18.147 3.338 17.433 3.018C16.004 2.377 14.083 2 12 2C9.917 2 7.996 2.377 6.567 3.018C5.853 3.337 5.229 3.738 4.774 4.22ZM5.865 6.75C5.59 6.46 5.5 6.207 5.5 6C5.5 5.793 5.59 5.54 5.865 5.25C6.144 4.954 6.582 4.654 7.18 4.386C8.375 3.85 10.079 3.5 12 3.5C13.92 3.5 15.625 3.851 16.82 4.386C17.418 4.654 17.856 4.954 18.135 5.25C18.41 5.54 18.5 5.793 18.5 6C18.5 6.207 18.41 6.46 18.135 6.75C17.856 7.046 17.418 7.346 16.82 7.614C15.625 8.15 13.921 8.5 12 8.5C10.079 8.5 8.375 8.149 7.18 7.614C6.582 7.346 6.144 7.046 5.865 6.75Z" fill="currentColor"/>
<path d="M12 17.5C12 18.9587 12.5795 20.3576 13.6109 21.3891C14.6424 22.4205 16.0413 23 17.5 23C18.9587 23 20.3576 22.4205 21.3891 21.3891C22.4205 20.3576 23 18.9587 23 17.5C23 16.0413 22.4205 14.6424 21.3891 13.6109C20.3576 12.5795 18.9587 12 17.5 12C16.0413 12 14.6424 12.5795 13.6109 13.6109C12.5795 14.6424 12 16.0413 12 17.5ZM20.5 14C20.6326 14 20.7598 14.0527 20.8536 14.1464C20.9473 14.2402 21 14.3674 21 14.5V16.5C21 16.6326 20.9473 16.7598 20.8536 16.8536C20.7598 16.9473 20.6326 17 20.5 17H18.5C18.3674 17 18.2402 16.9473 18.1464 16.8536C18.0527 16.7598 18 16.6326 18 16.5C18 16.3674 18.0527 16.2402 18.1464 16.1464C18.2402 16.0527 18.3674 16 18.5 16H19.5C19.2673 15.6893 18.9654 15.4371 18.6182 15.2635C18.2711 15.0899 17.8882 14.9997 17.5 15C16.667 15 15.928 15.407 15.473 16.036C15.3941 16.1401 15.2775 16.2092 15.1482 16.2284C15.019 16.2477 14.8874 16.2156 14.7815 16.139C14.6756 16.0624 14.604 15.9474 14.5818 15.8187C14.5597 15.6899 14.5888 15.5576 14.663 15.45C14.9872 15.0008 15.4135 14.6351 15.9067 14.383C16.4 14.1309 16.9461 13.9996 17.5 14C18.48 14 19.365 14.403 20 15.05V14.5C20 14.3674 20.0527 14.2402 20.1464 14.1464C20.2402 14.0527 20.3674 14 20.5 14ZM15 19.95V20.5C15 20.6326 14.9473 20.7598 14.8536 20.8536C14.7598 20.9473 14.6326 21 14.5 21C14.3674 21 14.2402 20.9473 14.1464 20.8536C14.0527 20.7598 14 20.6326 14 20.5V18.5C14 18.3674 14.0527 18.2402 14.1464 18.1464C14.2402 18.0527 14.3674 18 14.5 18H16.5C16.6326 18 16.7598 18.0527 16.8536 18.1464C16.9473 18.2402 17 18.3674 17 18.5C17 18.6326 16.9473 18.7598 16.8536 18.8536C16.7598 18.9473 16.6326 19 16.5 19H15.5C15.956 19.608 16.683 20 17.5 20C18.266 20 18.952 19.656 19.411 19.112C19.4973 19.0132 19.6189 18.9523 19.7497 18.9423C19.8805 18.9324 20.0099 18.9742 20.1102 19.0588C20.2104 19.1434 20.2733 19.264 20.2855 19.3946C20.2976 19.5252 20.2579 19.6554 20.175 19.757C19.8468 20.1468 19.4372 20.46 18.9751 20.6747C18.513 20.8894 18.0096 21.0005 17.5 21C17.0343 21.0006 16.5732 20.908 16.1439 20.7277C15.7145 20.5474 15.3256 20.283 15 19.95Z" fill="currentColor"/>
</svg>
