<svg id="brand/sonar-project" viewBox="0 0 24 24" fill="none" xmlns="http://www.w3.org/2000/svg">
<g clip-path="url(#clip0_10447_30003)">
<path fill-rule="evenodd" clip-rule="evenodd" d="M18.5 20C18.5 20.1326 18.4473 20.2598 18.3536 20.3536C18.2598 20.4473 18.1326 20.5 18 20.5H12.6986C12.4591 21.026 12.1719 21.528 11.8411 22H18C18.5304 22 19.0391 21.7893 19.4142 21.4142C19.7893 21.0391 20 20.5304 20 20V9.828C19.9999 9.29761 19.7891 8.78899 19.414 8.414L13.585 2.586C13.57 2.57105 13.5531 2.55808 13.5363 2.5452C13.5238 2.53567 13.5115 2.5262 13.5 2.516C13.4312 2.45107 13.358 2.39093 13.281 2.336C13.2557 2.31894 13.2281 2.30548 13.2005 2.29207C13.1845 2.28426 13.1685 2.27647 13.153 2.268C13.1363 2.25859 13.1197 2.24897 13.103 2.23933C13.0488 2.20797 12.9944 2.17648 12.937 2.152C12.7379 2.07246 12.5271 2.02585 12.313 2.014C12.2933 2.01274 12.2738 2.01008 12.2542 2.00741C12.2271 2.00371 12.1999 2 12.172 2H6C5.46957 2 4.96086 2.21071 4.58579 2.58579C4.21071 2.96086 4 3.46957 4 4V13.2575L4.30206 12.9567L5.5 11.7583V4C5.5 3.86739 5.55268 3.74021 5.64645 3.64645C5.74021 3.55268 5.86739 3.5 6 3.5H12V8C12 8.53043 12.2107 9.03914 12.5858 9.41421C12.9609 9.78929 13.4696 10 14 10H18.5V20ZM13.5 4.621L17.378 8.5H14C13.8674 8.5 13.7402 8.44732 13.6464 8.35355C13.5527 8.25979 13.5 8.13261 13.5 8V4.621Z" fill="#44B7C9"/>
<path d="M3.34103 17.4168C3.17469 17.4168 3.01209 17.3675 2.87378 17.2751C2.73547 17.1826 2.62768 17.0513 2.56402 16.8976C2.50036 16.7439 2.48371 16.5748 2.51616 16.4117C2.54861 16.2486 2.62871 16.0987 2.74633 15.9811C2.86395 15.8635 3.01381 15.7834 3.17695 15.7509C3.3401 15.7185 3.5092 15.7351 3.66288 15.7988C3.81656 15.8624 3.94791 15.9702 4.04032 16.1085C4.13273 16.2468 4.18206 16.4094 4.18206 16.5758C4.18172 16.7987 4.093 17.0124 3.93535 17.1701C3.7777 17.3277 3.56398 17.4165 3.34103 17.4168Z" fill="#44B7C9"/>
<path d="M9.31911 10.4736C9.22923 10.3981 9.11434 10.359 8.99707 10.3639C8.87979 10.3689 8.76863 10.4176 8.68546 10.5004L7.84571 11.3402C8.62644 11.9765 9.255 12.7793 9.6854 13.6899C10.1158 14.6004 10.3371 15.5957 10.3332 16.6029C10.3293 17.61 10.1002 18.6036 9.6627 19.5108C9.22522 20.418 8.59041 21.2158 7.80475 21.846L8.68546 22.7267C8.76842 22.8095 8.87936 22.8581 8.99642 22.8631C9.11348 22.8681 9.22816 22.829 9.31783 22.7536C10.5239 21.7388 11.4049 20.3917 11.8512 18.88C12.0608 18.1299 12.1672 17.3547 12.1674 16.5758C12.1665 16.1287 12.1309 15.6823 12.0611 15.2407C11.7366 13.3785 10.7656 11.6904 9.31911 10.4736Z" fill="#C5E8ED"/>
<path d="M10.333 16.5758C10.3328 15.5733 10.1095 14.5833 9.67934 13.6777C9.24914 12.7722 8.6228 11.9737 7.84574 11.3402L6.47858 12.7086C7.08199 13.162 7.57094 13.7503 7.90634 14.4264C8.24174 15.1025 8.41429 15.8477 8.41018 16.6025C8.40608 17.3572 8.22543 18.1005 7.8827 18.7729C7.53996 19.4454 7.04464 20.0283 6.43634 20.475L7.80477 21.8448C8.59356 21.2116 9.23021 20.4096 9.66777 19.4977C10.1053 18.5858 10.3327 17.5873 10.333 16.5758Z" fill="#83CDD9"/>
<path d="M8.41152 16.5758C8.41132 15.8255 8.23658 15.0854 7.9011 14.4143C7.56562 13.7431 7.0786 13.1591 6.47856 12.7086L5.2663 13.9209C5.71682 14.2077 6.08698 14.6045 6.34197 15.0738C6.59695 15.5431 6.72838 16.0695 6.7239 16.6036C6.71942 17.1377 6.57918 17.6618 6.31635 18.1268C6.05353 18.5917 5.67677 18.9822 5.2215 19.2615L6.43632 20.475C7.04825 20.0255 7.54588 19.4384 7.889 18.761C8.23212 18.0837 8.41112 17.3351 8.41152 16.5758Z" fill="#5EBFCE"/>
<path d="M6.72436 16.5758C6.72363 16.0465 6.58969 15.5259 6.33488 15.0619C6.08008 14.5979 5.71261 14.2055 5.26632 13.9209L4.0259 15.1562C3.97398 15.2081 3.93534 15.2718 3.91325 15.3418C4.14948 15.452 4.34913 15.6277 4.48849 15.848C4.62786 16.0683 4.70107 16.3239 4.69946 16.5846C4.69784 16.8453 4.62145 17.1 4.47937 17.3185C4.33729 17.5371 4.13547 17.7103 3.89789 17.8175C3.91297 17.9141 3.95771 18.0036 4.0259 18.0736L5.2164 19.2641C5.67639 18.982 6.05648 18.5869 6.32045 18.1163C6.58443 17.6457 6.72348 17.1154 6.72436 16.5758Z" fill="#44B7C9"/>
</g>
<defs>
<clipPath id="clip0_10447_30003">
<rect width="24" height="24" fill="white"/>
</clipPath>
</defs>
</svg>
