<svg id="job-state/engine-start" viewBox="0 0 24 24" fill="none" xmlns="http://www.w3.org/2000/svg">
<rect x="4" y="4" width="16" height="16" rx="2" fill="#43B8C9"/>
<path d="M15.8867 12.1653C16.0854 12.1653 16.276 12.0864 16.4167 11.9459C16.5571 11.8053 16.636 11.6147 16.636 11.4159C16.636 11.2172 16.5571 11.0266 16.4167 10.8859L12.5833 7.05259C12.4427 6.91214 12.252 6.83325 12.0533 6.83325C11.8545 6.83325 11.6639 6.91214 11.5233 7.05259L7.68573 10.8903C7.61204 10.9589 7.55294 11.0417 7.51195 11.1337C7.47096 11.2257 7.44891 11.3251 7.44714 11.4258C7.44536 11.5265 7.46389 11.6265 7.50161 11.7199C7.53933 11.8133 7.59547 11.8981 7.66669 11.9693C7.73791 12.0405 7.82274 12.0967 7.91613 12.1344C8.00952 12.1721 8.10955 12.1907 8.21025 12.1889C8.31095 12.1871 8.41027 12.1651 8.50227 12.1241C8.59427 12.0831 8.67707 12.024 8.74573 11.9503L12.0533 8.64259L15.3567 11.9459C15.4973 12.0864 15.6879 12.1653 15.8867 12.1653Z" fill="white"/>
<path d="M15.8911 16.6696C16.0898 16.6696 16.2804 16.5907 16.4211 16.4503C16.5615 16.3097 16.6404 16.119 16.6404 15.9203C16.6404 15.7215 16.5615 15.5309 16.4211 15.3903L12.5833 11.5526C12.4427 11.4121 12.2521 11.3333 12.0533 11.3333C11.8546 11.3333 11.6639 11.4121 11.5233 11.5526L7.68573 15.3903C7.61204 15.4589 7.55294 15.5417 7.51195 15.6337C7.47096 15.7257 7.44891 15.8251 7.44714 15.9258C7.44536 16.0265 7.46389 16.1265 7.50161 16.2199C7.53933 16.3133 7.59547 16.3981 7.66669 16.4693C7.73791 16.5405 7.82274 16.5967 7.91613 16.6344C8.00952 16.6721 8.10955 16.6907 8.21025 16.6889C8.31095 16.6871 8.41027 16.6651 8.50227 16.6241C8.59427 16.5831 8.67707 16.524 8.74573 16.4503L12.0533 13.1426L15.3611 16.4503C15.5017 16.5907 15.6923 16.6696 15.8911 16.6696Z" fill="#C6E9EF"/>
</svg>
