<svg id="job-state/loading" viewBox="0 0 24 25" fill="none" xmlns="http://www.w3.org/2000/svg">
<path d="M12.75 5.16797C12.75 4.75376 12.4142 4.41797 12 4.41797C11.5857 4.41797 11.25 4.75376 11.25 5.16797V7.16797C11.25 7.58218 11.5857 7.91797 12 7.91797C12.4142 7.91797 12.75 7.58218 12.75 7.16797V5.16797Z" fill="#505862"/>
<path d="M12.75 17.8346C12.75 17.4204 12.4142 17.0846 12 17.0846C11.5857 17.0846 11.25 17.4204 11.25 17.8346V19.8346C11.25 20.2489 11.5857 20.5846 12 20.5846C12.4142 20.5846 12.75 20.2489 12.75 19.8346V17.8346Z" fill="#505862"/>
<path d="M3.91663 12.5013C3.91663 12.0871 4.25241 11.7513 4.66663 11.7513H6.66663C7.08084 11.7513 7.41663 12.0871 7.41663 12.5013C7.41663 12.9155 7.08084 13.2513 6.66663 13.2513H4.66663C4.25241 13.2513 3.91663 12.9155 3.91663 12.5013Z" fill="#505862"/>
<path d="M19.3333 11.7513H17.3333C16.9191 11.7513 16.5833 12.0871 16.5833 12.5013C16.5833 12.9155 16.9191 13.2513 17.3333 13.2513H19.3333C19.7475 13.2513 20.0833 12.9155 20.0833 12.5013C20.0833 12.0871 19.7475 11.7513 19.3333 11.7513Z" fill="#505862"/>
<path d="M6.1363 6.63764C6.42919 6.34475 6.90406 6.34475 7.19696 6.63764L8.61117 8.05185C8.90406 8.34475 8.90406 8.81962 8.61117 9.11251C8.31828 9.40541 7.8434 9.40541 7.55051 9.11251L6.1363 7.6983C5.8434 7.40541 5.8434 6.93053 6.1363 6.63764Z" fill="#505862"/>
<path d="M16.4494 9.11251L17.8636 7.6983C18.1565 7.40541 18.1565 6.93053 17.8636 6.63764C17.5707 6.34475 17.0959 6.34475 16.803 6.63764L15.3888 8.05185C15.0959 8.34475 15.0959 8.81962 15.3888 9.11251C15.6816 9.40541 16.1565 9.40541 16.4494 9.11251Z" fill="#505862"/>
<path d="M7.19696 18.365L8.61117 16.9508C8.90406 16.6579 8.90406 16.183 8.61117 15.8901C8.31828 15.5972 7.8434 15.5972 7.55051 15.8901L6.1363 17.3043C5.8434 17.5972 5.8434 18.0721 6.1363 18.365C6.42919 18.6579 6.90406 18.6579 7.19696 18.365Z" fill="#505862"/>
<path d="M16.4494 15.8901L17.8636 17.3043C18.1565 17.5972 18.1565 18.0721 17.8636 18.365C17.5707 18.6579 17.0959 18.6579 16.803 18.365L15.3888 16.9508C15.0959 16.6579 15.0959 16.183 15.3888 15.8901C15.6816 15.5972 16.1565 15.5972 16.4494 15.8901Z" fill="#505862"/>
</svg>
