<svg id="job-state/planning" viewBox="0 0 24 24" version="1.1" xmlns="http://www.w3.org/2000/svg" xmlns:xlink="http://www.w3.org/1999/xlink">
  <g id="Jobs" stroke="none" stroke-width="1" fill="none" fill-rule="evenodd">
    <g id="Jobs-/-Icons" transform="translate(-25.000000, -265.000000)">
      <g id="_Icon/Job/Job-Planning" transform="translate(24.000000, 264.000000)">
        <rect id="icon-box-24" x="0" y="0" width="24" height="24"></rect>
        <path d="M16,7 C16.5522847,7 17,7.44771525 17,8 L17,16 C17,16.5522847 16.5522847,17 16,17 L8,17 C7.44771525,17 7,16.5522847 7,16 L7,8 C7,7.44771525 7.44771525,7 8,7 L16,7 Z M16,8 L8,8 L8,16 L16,16 L16,8 Z" id="Combined-Shape" fill="#FFFFFF" fill-rule="nonzero"></path>
        <rect id="Rectangle" fill="#B25D9F" fill-rule="evenodd" transform="translate(12.000000, 12.000000) rotate(45.000000) translate(-12.000000, -12.000000) " x="4" y="4" width="16" height="16" rx="2"></rect>
        <rect id="Rectangle" stroke="#FFFFFF" stroke-width="1" transform="translate(12.000000, 12.000000) rotate(45.000000) translate(-12.000000, -12.000000) " x="8.5" y="8.5" width="7" height="7" rx="1"></rect>
      </g>
    </g>
  </g>
</svg>
