<svg id="job-state/warning" viewBox="0 0 24 24" fill="none" xmlns="http://www.w3.org/2000/svg">
<path fill-rule="evenodd" clip-rule="evenodd" d="M12.866 4.5C12.4811 3.83333 11.5189 3.83333 11.134 4.5L4.20578 16.5C3.82088 17.1667 4.302 18 5.0718 18H18.9282C19.698 18 20.1791 17.1667 19.7942 16.5L12.866 4.5ZM12 7.99988C12.4142 7.99988 12.75 8.33566 12.75 8.74988V12.7499C12.75 13.1641 12.4142 13.4999 12 13.4999C11.5858 13.4999 11.25 13.1641 11.25 12.7499V8.74988C11.25 8.33566 11.5858 7.99988 12 7.99988ZM12.75 15.4999C12.75 15.9141 12.4142 16.2499 12 16.2499C11.5858 16.2499 11.25 15.9141 11.25 15.4999C11.25 15.0857 11.5858 14.7499 12 14.7499C12.4142 14.7499 12.75 15.0857 12.75 15.4999Z" fill="#FFA940"/>
</svg>
