<svg id="corporate/arctic" viewBox="0 0 24 24" fill="none" xmlns="http://www.w3.org/2000/svg">
<path d="M13.4131 2.14179C13.3862 2.09739 13.348 2.0609 13.3024 2.03602C13.2569 2.01114 13.2055 1.99874 13.1536 2.0001C13.1018 2.00107 13.051 2.01505 13.006 2.04078C12.961 2.0665 12.9232 2.10314 12.896 2.14731L10.607 5.92869L9.22136 4.43086C9.19079 4.39855 9.15357 4.37326 9.11227 4.35674C9.07097 4.34022 9.02657 4.33286 8.98215 4.33517C8.9358 4.33902 8.89096 4.35347 8.85108 4.3774C8.8112 4.40133 8.77735 4.4341 8.75214 4.47318L4.91003 10.678H18.6794C17.6619 8.8894 13.4131 2.14179 13.4131 2.14179Z" fill="#83CDD9"/>
<path d="M16.4585 10.6798H12.2943C12.2867 10.6792 12.2796 10.6759 12.2741 10.6706L11.9558 10.4038L10.1488 8.88388C9.97766 8.74035 9.86909 8.80292 9.9059 9.02189L10.0108 9.62544L10.0807 10.0376C10.0835 10.0453 10.0835 10.0538 10.0807 10.0615L9.87277 10.3615L9.663 10.6651C9.65977 10.6694 9.65562 10.673 9.65085 10.6755C9.64608 10.6781 9.6408 10.6795 9.6354 10.6798H5.85402C5.8209 10.6798 5.80802 10.6559 5.82642 10.6283L6.07851 10.2382L8.81104 6.00598L9.07418 5.59932C9.0981 5.56252 9.1257 5.5662 9.1349 5.61036L9.23426 6.08326L9.30971 6.45128L9.39435 6.8561C9.39617 6.86147 9.39617 6.86729 9.39435 6.87266L9.27291 7.26644L9.10178 7.81847C9.03553 8.03192 9.14962 8.13312 9.35387 8.04664L10.3457 7.62158C10.5806 7.50695 10.7812 7.33241 10.9271 7.11555L12.9034 3.86227L13.1739 3.41513C13.207 3.35993 13.2346 3.36729 13.2346 3.43169V5.40427C13.2346 5.40427 13.2346 5.40427 13.2346 5.41347L13.1316 5.80909L13.0304 6.19919C12.9728 6.4575 12.9684 6.72484 13.0175 6.98491L13.1371 7.50933C13.2061 7.75996 13.343 7.98665 13.5327 8.16441L16.1088 10.3044L16.4897 10.6209C16.5265 10.6522 16.5081 10.6798 16.4585 10.6798Z" fill="#C5E8ED"/>
<path d="M20.0705 10.6503H3.3533C3.3069 10.6503 3.26096 10.6595 3.2181 10.6772C3.17523 10.695 3.13629 10.721 3.10348 10.7538C3.07067 10.7866 3.04465 10.8256 3.02689 10.8684C3.00914 10.9113 3 10.9572 3 11.0036C3 11.05 3.00914 11.096 3.02689 11.1388C3.04465 11.1817 3.07067 11.2206 3.10348 11.2534C3.13629 11.2863 3.17523 11.3123 3.2181 11.33C3.26096 11.3478 3.3069 11.3569 3.3533 11.3569H4.71496L5.38108 14.0232C5.52644 14.6047 5.60925 14.6875 5.71597 14.7169L7.4659 15.1825L8.52579 19.0209C8.54 19.0718 8.56711 19.1182 8.6045 19.1556C8.64189 19.193 8.6883 19.2201 8.73924 19.2343L10.1948 19.6318L11.6668 21.8638C11.6946 21.9058 11.7323 21.9402 11.7766 21.964C11.8209 21.9877 11.8705 22.0001 11.9208 22V22C11.9723 21.9989 12.0227 21.9846 12.0671 21.9585C12.1116 21.9325 12.1486 21.8954 12.1747 21.851L13.5014 19.5895C13.5082 19.5782 13.5144 19.5665 13.5198 19.5545L14.4251 17.4145L15.9285 16.2019C15.9492 16.1845 15.9677 16.1648 15.9837 16.143L16.8448 14.9396L18.7585 11.5722L18.8211 11.3569H20.0705C20.1642 11.3569 20.2541 11.3197 20.3203 11.2534C20.3866 11.1872 20.4238 11.0973 20.4238 11.0036C20.4238 10.9099 20.3866 10.8201 20.3203 10.7538C20.2541 10.6876 20.1642 10.6503 20.0705 10.6503V10.6503Z" fill="#44B7C9"/>
<path d="M7.05555 11.4766C7.00605 11.4738 6.9566 11.4829 6.91133 11.5031C6.86607 11.5234 6.82629 11.5541 6.79532 11.5928C6.76435 11.6315 6.74308 11.6771 6.73329 11.7257C6.72351 11.7743 6.72548 11.8245 6.73905 11.8722L6.88258 12.5199C6.91646 12.6403 6.97414 12.7526 7.05221 12.8503C7.13028 12.9479 7.22715 13.0289 7.33708 13.0885L7.96271 13.3829C8.1868 13.5032 8.35465 13.7068 8.4301 13.9497L9.35014 17.6427C9.4035 17.8599 9.4403 17.8543 9.4311 17.6317L9.22685 12.5218C9.22685 12.2991 9.28758 12.2826 9.38142 12.485C9.38142 12.485 10.4855 14.8366 10.4855 14.5091C10.4855 14.1815 11.0062 12.5806 11.0062 12.5806C11.0743 12.369 11.1755 12.3727 11.2326 12.5806L12.4654 17.2361C12.5225 17.4514 12.6752 17.479 12.804 17.2968L16.7326 11.8078C16.8614 11.6238 16.7859 11.4784 16.5615 11.4784L7.05555 11.4766Z" fill="#83CDD9"/>
</svg>
