<svg id="corporate/aws" viewBox="0 0 24 24" fill="none"
  xmlns="http://www.w3.org/2000/svg">
  <path d="M7.19984 9.77788C7.19984 10.0486 7.2291 10.2681 7.28032 10.4291C7.33886 10.5901 7.41203 10.7657 7.51447 10.9559C7.55105 11.0144 7.56568 11.073 7.56568 11.1242C7.56568 11.1974 7.52178 11.2705 7.42666 11.3437L6.96569 11.651C6.89984 11.6949 6.83399 11.7169 6.77545 11.7169C6.70228 11.7169 6.62911 11.6803 6.55594 11.6144C6.45351 11.5047 6.3657 11.3876 6.29253 11.2705C6.21936 11.1462 6.14619 11.0071 6.06571 10.8388C5.49498 11.512 4.77792 11.8486 3.91452 11.8486C3.29989 11.8486 2.80966 11.673 2.45112 11.3218C2.09259 10.9705 1.90967 10.5023 1.90967 9.9169C1.90967 9.29496 2.12918 8.79009 2.57551 8.40961C3.02185 8.02913 3.61452 7.83888 4.36817 7.83888C4.61695 7.83888 4.87304 7.86084 5.14377 7.89742C5.4145 7.93401 5.69254 7.99254 5.98522 8.05839V7.52425C5.98522 6.96817 5.86815 6.58037 5.64132 6.35354C5.40718 6.12671 5.01206 6.01696 4.44866 6.01696C4.19256 6.01696 3.92915 6.04623 3.65842 6.11208C3.3877 6.17793 3.12428 6.25842 2.86819 6.36086C2.75112 6.41208 2.66332 6.44134 2.6121 6.45598C2.56088 6.47061 2.52429 6.47793 2.49503 6.47793C2.39259 6.47793 2.34137 6.40476 2.34137 6.2511V5.89257C2.34137 5.7755 2.356 5.6877 2.39259 5.63648C2.42917 5.58526 2.49503 5.53404 2.59746 5.48282C2.85356 5.35112 3.16087 5.24136 3.5194 5.15356C3.87793 5.05844 4.25841 5.01453 4.66085 5.01453C5.53157 5.01453 6.16814 5.21209 6.57789 5.60721C6.98033 6.00233 7.1852 6.60232 7.1852 7.40718V9.77788H7.19984ZM4.22915 10.8901C4.47061 10.8901 4.71938 10.8462 4.98279 10.7584C5.24621 10.6706 5.48035 10.5096 5.67791 10.2901C5.79498 10.151 5.88278 9.99739 5.92668 9.82178C5.97059 9.64618 5.99985 9.43398 5.99985 9.18521V8.87789C5.78766 8.82667 5.56083 8.78277 5.32669 8.75351C5.09255 8.72424 4.86572 8.7096 4.6389 8.7096C4.14866 8.7096 3.79013 8.80472 3.54867 9.00228C3.30721 9.19984 3.19014 9.47789 3.19014 9.84373C3.19014 10.1876 3.27794 10.4437 3.46087 10.6193C3.63647 10.8023 3.89257 10.8901 4.22915 10.8901ZM10.1047 11.6803C9.97297 11.6803 9.88516 11.6583 9.82663 11.6071C9.76809 11.5632 9.71687 11.4608 9.67297 11.3218L7.95348 5.66574C7.90958 5.51941 7.88763 5.42428 7.88763 5.37307C7.88763 5.25599 7.94617 5.19014 8.06324 5.19014H8.7803C8.91932 5.19014 9.01444 5.21209 9.06566 5.26331C9.1242 5.30721 9.1681 5.40965 9.212 5.54867L10.4413 10.3925L11.5827 5.54867C11.6193 5.40233 11.6632 5.30721 11.7217 5.26331C11.7803 5.21941 11.8827 5.19014 12.0144 5.19014H12.5998C12.7388 5.19014 12.8339 5.21209 12.8924 5.26331C12.951 5.30721 13.0022 5.40965 13.0315 5.54867L14.1875 10.451L15.4534 5.54867C15.4973 5.40233 15.5485 5.30721 15.5997 5.26331C15.6582 5.21941 15.7534 5.19014 15.8851 5.19014H16.5656C16.6826 5.19014 16.7485 5.24868 16.7485 5.37307C16.7485 5.40965 16.7412 5.44624 16.7338 5.49014C16.7265 5.53404 16.7119 5.59258 16.6826 5.67306L14.9192 11.3291C14.8753 11.4754 14.8241 11.5705 14.7656 11.6144C14.707 11.6583 14.6119 11.6876 14.4875 11.6876H13.8583C13.7193 11.6876 13.6241 11.6657 13.5656 11.6144C13.5071 11.5632 13.4558 11.4681 13.4266 11.3218L12.2924 6.60232L11.1656 11.3144C11.129 11.4608 11.0851 11.5559 11.0266 11.6071C10.9681 11.6583 10.8656 11.6803 10.7339 11.6803H10.1047ZM19.507 11.8779C19.1265 11.8779 18.746 11.8339 18.3802 11.7461C18.0143 11.6583 17.729 11.5632 17.5387 11.4535C17.4216 11.3876 17.3412 11.3144 17.3119 11.2486C17.2826 11.1827 17.268 11.1096 17.268 11.0437V10.6706C17.268 10.5169 17.3265 10.4437 17.4363 10.4437C17.4802 10.4437 17.5241 10.451 17.568 10.4657C17.6119 10.4803 17.6777 10.5096 17.7509 10.5388C17.9997 10.6486 18.2704 10.7364 18.5558 10.7949C18.8484 10.8535 19.1338 10.8827 19.4265 10.8827C19.8875 10.8827 20.246 10.8023 20.4948 10.6413C20.7435 10.4803 20.8752 10.2462 20.8752 9.94617C20.8752 9.7413 20.8094 9.57301 20.6777 9.43398C20.546 9.29496 20.2972 9.17057 19.9387 9.0535L18.8777 8.72424C18.3436 8.55595 17.9485 8.30717 17.707 7.97791C17.4655 7.65596 17.3412 7.29743 17.3412 6.91695C17.3412 6.60963 17.407 6.33891 17.5387 6.10476C17.6704 5.87062 17.846 5.66574 18.0655 5.50477C18.285 5.33648 18.5338 5.21209 18.8265 5.12429C19.1192 5.03649 19.4265 4.9999 19.7484 4.9999C19.9094 4.9999 20.0777 5.00722 20.2387 5.02917C20.407 5.05112 20.5606 5.08039 20.7143 5.10966C20.8606 5.14624 20.9996 5.18282 21.1313 5.22673C21.263 5.27063 21.3655 5.31453 21.4387 5.35843C21.5411 5.41697 21.6143 5.4755 21.6582 5.54136C21.7021 5.59989 21.724 5.68038 21.724 5.78282V6.12671C21.724 6.28037 21.6655 6.36086 21.5557 6.36086C21.4972 6.36086 21.4021 6.33159 21.2777 6.27305C20.8606 6.08281 20.3923 5.98769 19.8728 5.98769C19.4558 5.98769 19.1265 6.05354 18.8997 6.19257C18.6728 6.33159 18.5558 6.54378 18.5558 6.84378C18.5558 7.04865 18.6289 7.22426 18.7753 7.36328C18.9216 7.5023 19.1923 7.64133 19.5801 7.76571L20.6192 8.09498C21.146 8.26327 21.5265 8.49741 21.7533 8.79741C21.9801 9.0974 22.0899 9.4413 22.0899 9.82178C22.0899 10.1364 22.024 10.4218 21.8996 10.6706C21.7679 10.9193 21.5923 11.1388 21.3655 11.3144C21.1387 11.4974 20.8679 11.6291 20.5533 11.7242C20.224 11.8266 19.8801 11.8779 19.507 11.8779Z" fill="#252F3E"/>
  <path fill-rule="evenodd" clip-rule="evenodd" d="M20.8899 15.434C18.4826 17.212 14.9851 18.1559 11.9778 18.1559C7.76322 18.1559 3.96571 16.5974 1.09746 14.0072C0.870637 13.8023 1.07551 13.5243 1.34624 13.6852C4.44863 15.4852 8.27541 16.5754 12.2339 16.5754C14.9046 16.5754 17.8387 16.0194 20.5386 14.8779C20.9411 14.695 21.285 15.1413 20.8899 15.434Z" fill="#FF9900"/>
  <path fill-rule="evenodd" clip-rule="evenodd" d="M21.8923 14.2925C21.585 13.8974 19.8582 14.1023 19.0752 14.1974C18.8411 14.2267 18.8045 14.0218 19.0167 13.8682C20.3923 12.9023 22.6532 13.1804 22.9167 13.5023C23.1801 13.8316 22.8435 16.0925 21.5557 17.1754C21.3581 17.3437 21.1679 17.2559 21.2557 17.0364C21.5484 16.312 22.1996 14.6803 21.8923 14.2925Z" fill="#FF9900"/>
</svg>
