<svg id="corporate/azure" viewBox="0 0 24 24" fill="none" xmlns="http://www.w3.org/2000/svg">
<path d="M8.66749 2.57738H14.5857L8.44202 20.7803C8.37887 20.9674 8.25866 21.1299 8.0983 21.2451C7.93794 21.3602 7.7455 21.4222 7.54809 21.4222H2.94229C2.79271 21.4222 2.64528 21.3866 2.51219 21.3184C2.3791 21.2501 2.26418 21.1511 2.17693 21.0296C2.08968 20.9081 2.03262 20.7676 2.01046 20.6197C1.9883 20.4717 2.00168 20.3207 2.04949 20.1789L7.77333 3.21924C7.83645 3.03212 7.95668 2.8695 8.11709 2.75431C8.2775 2.63912 8.47 2.57716 8.66749 2.57715V2.57738Z" fill="url(#paint0_linear_1063_12662)"/>
<path d="M17.2674 14.7866H7.88265C7.7954 14.7865 7.71014 14.8127 7.63798 14.8618C7.56583 14.9108 7.51011 14.9805 7.4781 15.0616C7.44609 15.1428 7.43927 15.2317 7.45852 15.3168C7.47777 15.4019 7.5222 15.4792 7.58603 15.5387L13.6165 21.1673C13.7921 21.3311 14.0232 21.4222 14.2634 21.4221H19.5774L17.2674 14.7866Z" fill="#0078D4"/>
<path d="M8.66748 2.5774C8.46784 2.57663 8.27318 2.63972 8.11194 2.75745C7.95071 2.87518 7.83134 3.04137 7.77127 3.23177L2.05653 20.1635C2.00549 20.3057 1.98947 20.4582 2.00982 20.6079C2.03016 20.7577 2.08627 20.9003 2.1734 21.0238C2.26054 21.1473 2.37612 21.2479 2.51039 21.3173C2.64466 21.3866 2.79365 21.4226 2.94477 21.4222H7.66945C7.84541 21.3908 8.00988 21.3132 8.14605 21.1974C8.28222 21.0816 8.38521 20.9317 8.44451 20.7631L9.58414 17.4044L13.6549 21.2013C13.8255 21.3424 14.0395 21.4204 14.2609 21.4222H19.5551L17.2331 14.7867L10.4642 14.7883L14.607 2.5774H8.66748Z" fill="url(#paint1_linear_1063_12662)"/>
<path d="M16.2264 3.21835C16.1634 3.03153 16.0433 2.86918 15.8832 2.7542C15.723 2.63921 15.5308 2.57737 15.3336 2.57739H8.73792C8.93508 2.5774 9.12727 2.63926 9.28743 2.75424C9.44759 2.86922 9.56765 3.03154 9.63071 3.21835L15.3548 20.1787C15.4026 20.3205 15.416 20.4716 15.3939 20.6196C15.3718 20.7675 15.3147 20.9081 15.2275 21.0296C15.1402 21.1512 15.0253 21.2502 14.8922 21.3185C14.7591 21.3868 14.6116 21.4224 14.462 21.4225H21.0579C21.2075 21.4224 21.355 21.3868 21.488 21.3184C21.6211 21.2501 21.736 21.1511 21.8232 21.0295C21.9105 20.908 21.9675 20.7675 21.9896 20.6195C22.0118 20.4716 21.9983 20.3205 21.9505 20.1787L16.2264 3.21835Z" fill="url(#paint2_linear_1063_12662)"/>
<defs>
<linearGradient id="paint0_linear_1063_12662" x1="10.8245" y1="3.97384" x2="4.67832" y2="22.1311" gradientUnits="userSpaceOnUse">
<stop stop-color="#114A8B"/>
<stop offset="1" stop-color="#0669BC"/>
</linearGradient>
<linearGradient id="paint1_linear_1063_12662" x1="12.7444" y1="12.4356" x2="11.3227" y2="12.9164" gradientUnits="userSpaceOnUse">
<stop stop-opacity="0.3"/>
<stop offset="0.071" stop-opacity="0.2"/>
<stop offset="0.321" stop-opacity="0.1"/>
<stop offset="0.623" stop-opacity="0.05"/>
<stop offset="1" stop-opacity="0"/>
</linearGradient>
<linearGradient id="paint2_linear_1063_12662" x1="11.9625" y1="3.44428" x2="18.7091" y2="21.4186" gradientUnits="userSpaceOnUse">
<stop stop-color="#3CCBF4"/>
<stop offset="1" stop-color="#2892DF"/>
</linearGradient>
</defs>
</svg>
