<svg id="corporate/dremio-ddp" viewBox="0 0 36 40" fill="none" xmlns="http://www.w3.org/2000/svg">
  <path fill-rule="evenodd" clip-rule="evenodd" d="M16.1266 37.2165C16.1266 40.2048 30.502 40.2048 30.502 37.2165V37.325V21.9275C30.502 19.6075 16.1201 19.6075 16.1201 21.9275V37.2121L16.1266 37.2165Z" fill="#E9F5F9"/>
  <path fill-rule="evenodd" clip-rule="evenodd" d="M31.0534 35.3398V37.3196H29.968V35.3398H31.0534Z" fill="#A672BB"/>
  <path fill-rule="evenodd" clip-rule="evenodd" d="M30.1552 20.691C30.5881 20.9304 31.0532 21.324 31.0532 21.927V25.6164H29.9681V21.927C29.9681 21.9265 29.9683 21.9246 29.9657 21.918C29.9626 21.9102 29.9539 21.8926 29.9317 21.8658C29.8843 21.8087 29.7918 21.73 29.6301 21.6406C29.305 21.4608 28.8031 21.2931 28.1494 21.1525C26.8515 20.8733 25.0951 20.7296 23.3197 20.7296C21.5443 20.7296 19.7878 20.8733 18.49 21.1525C17.8363 21.2931 17.3344 21.4608 17.0093 21.6406C16.8475 21.73 16.7551 21.8087 16.7077 21.8658C16.6854 21.8926 16.6768 21.9102 16.6737 21.918C16.6712 21.9241 16.6713 21.9262 16.6713 21.9269C16.6713 21.927 16.6713 21.927 16.6713 21.927V37.3354H15.5862V21.927C15.5862 21.324 16.0512 20.9304 16.4841 20.691C16.9455 20.4358 17.5672 20.241 18.2618 20.0916C19.6606 19.7908 21.4996 19.6445 23.3197 19.6445C25.1397 19.6445 26.9788 19.7908 28.3775 20.0916C29.0721 20.241 29.6938 20.4358 30.1552 20.691Z" fill="#A672BB"/>
  <path fill-rule="evenodd" clip-rule="evenodd" d="M29.5469 22.0428C29.8746 21.8386 29.8986 21.7005 29.8986 21.6602H30.9837C30.9837 22.2622 30.5661 22.6862 30.1208 22.9637C29.6631 23.249 29.0467 23.4664 28.3605 23.6328C26.9792 23.9676 25.1661 24.1298 23.3739 24.1298C21.5818 24.1298 19.7687 23.9676 18.3874 23.6328C17.7012 23.4664 17.0848 23.249 16.6271 22.9637C16.1818 22.6862 15.7642 22.2622 15.7642 21.6602H16.8493C16.8493 21.7005 16.8733 21.8386 17.201 22.0428C17.5163 22.2393 18.0042 22.4234 18.643 22.5782C19.912 22.8858 21.6325 23.0447 23.3739 23.0447C25.1154 23.0447 26.8359 22.8858 28.1049 22.5782C28.7437 22.4234 29.2316 22.2393 29.5469 22.0428Z" fill="#A672BB"/>
  <path fill-rule="evenodd" clip-rule="evenodd" d="M29.5693 37.7536C29.8894 37.5254 29.9593 37.3419 29.9593 37.2148H31.0444C31.0444 37.8349 30.6652 38.305 30.1991 38.6372C29.7325 38.9698 29.1024 39.2241 28.4007 39.4186C26.9899 39.8097 25.1404 39.9987 23.3142 39.9987C21.4881 39.9987 19.6385 39.8097 18.2278 39.4186C17.526 39.2241 16.8959 38.9698 16.4293 38.6372C15.9633 38.305 15.584 37.8349 15.584 37.2148H16.6691C16.6691 37.3419 16.739 37.5254 17.0591 37.7536C17.3787 37.9814 17.8717 38.1939 18.5176 38.373C19.8023 38.729 21.5465 38.9136 23.3142 38.9136C25.0819 38.9136 26.8262 38.729 28.1108 38.373C28.7568 38.1939 29.2497 37.9814 29.5693 37.7536Z" fill="#A672BB"/>
  <path fill-rule="evenodd" clip-rule="evenodd" d="M14.1907 19.0147C13.4897 20.8399 11.4454 21.7079 10.8812 21.4041C10.5925 21.2522 10.8812 20.6706 10.8812 20.2734C10.4667 20.434 9.78305 20.7379 9.36203 20.905C9.8242 21.3014 10.1952 21.7932 10.4495 22.3464C10.7038 22.8997 10.8355 23.5014 10.8355 24.1103C10.8355 24.7193 10.7038 25.321 10.4495 25.8743C10.1952 26.4275 9.8242 26.9193 9.36203 27.3157C11.0504 29.8483 10.2062 32.025 7.84289 33.7243L7.74958 33.7829L7.69966 33.6136C7.4062 32.4438 6.85201 31.3554 6.07853 30.43C5.65154 29.9541 5.20026 29.5007 4.72649 29.0714C4.11884 28.4963 3.52855 27.906 2.99034 27.281C0.672571 24.8482 -0.247591 20.5686 0.056236 17.259C0.216761 15.5598 0.713996 13.9094 1.51895 12.4043C2.15858 11.2035 2.95556 10.0934 3.8888 9.10345C5.97698 6.8628 8.61844 5.21161 11.5474 4.316C14.1207 3.42876 16.9357 3.55841 19.4165 4.67843C19.875 4.92027 20.3108 5.20281 20.7187 5.52263L21.3155 6.08254L21.3849 6.14982L32.6699 0.366249C33.5988 -0.0981727 34.2997 -0.0981726 34.6122 0.238207C34.9248 0.574588 34.4864 1.44701 33.8266 1.92662L24.1194 8.95154C24.1766 9.28155 24.1576 9.62028 24.064 9.94186C23.9703 10.2634 23.8044 10.5594 23.579 10.8071C24.8702 11.2563 23.7309 13.1465 23.1645 13.8215C21.5433 15.7377 18.581 17.2417 15.9377 18.3398C15.2281 18.6436 14.8244 18.7738 14.2016 19.006L14.1907 19.0147ZM7.87545 21.5387C6.81856 22.0204 4.75905 23.0947 4.95219 24.2579C5.22347 24.9763 6.05899 24.2579 6.3715 23.9194C7.04562 23.2661 7.56023 22.4663 7.87545 21.5821V21.5387Z" fill="#383C42"/>
  <path fill-rule="evenodd" clip-rule="evenodd" d="M23.0475 12.3901C23.7745 11.4786 23.2645 10.9556 22.761 11.4613C22.2546 11.9443 21.6407 12.3002 20.9699 12.4998C20.2991 12.6993 19.5906 12.7369 18.9024 12.6093C16.9167 12.2794 16.8256 11.9756 17.1663 11.6805C18.2871 12.0577 19.5008 12.0562 20.6206 11.6762C21.7405 11.2963 22.7045 10.5589 23.3644 9.57754C23.8548 8.87657 22.2163 8.321 21.2528 7.04492C16.6216 0.76438 2.13334 6.2094 0.74876 17.1276C0.523488 18.8132 0.652664 20.5271 1.12802 22.1599C1.60337 23.7926 2.41442 25.308 3.50925 26.6092C5.20851 28.5255 7.04016 29.3285 8.07751 32.345C10.1045 30.6089 9.76592 28.6384 8.30538 26.9196C8.82701 26.6543 9.2708 26.2581 9.59329 25.7697C9.91578 25.2814 10.1059 24.7177 10.1451 24.1338C10.1842 23.5499 10.0711 22.9658 9.81668 22.4388C9.56229 21.9118 9.17538 21.4599 8.69384 21.1273C7.84964 24.1656 4.88515 26.4291 4.19286 24.2698C3.7458 22.0583 7.37871 20.5978 13.1861 18.3516C18.0496 16.5265 21.1898 15.0247 23.0475 12.3402" fill="#31D3DB"/>
  <path fill-rule="evenodd" clip-rule="evenodd" d="M23.0472 12.3878C23.7742 11.4763 23.2642 10.9533 22.7608 11.4589C22.3197 11.8847 21.794 12.2129 21.2179 12.4223C20.6417 12.6317 20.028 12.7175 19.4165 12.6742C17.4156 12.531 15.8205 12.1339 14.3513 12.2966C11.6241 12.7045 9.10193 13.9834 7.1614 15.9426C4.62878 18.5468 1.82489 23.9462 4.62878 24.9944C4.41509 24.8051 4.272 24.5487 4.22295 24.2674C3.77155 22.0647 7.40229 20.602 13.2119 18.358C18.0731 16.5329 21.2156 15.0311 23.0733 12.3465" fill="white"/>
  <path fill-rule="evenodd" clip-rule="evenodd" d="M10.5926 16.6483C12.0879 17.3818 11.7928 19.9492 11.5736 20.5915C14.41 19.7452 13.5658 15.5827 14.8831 14.298C13.1947 14.2481 10.1369 15.9126 10.5926 16.6461" fill="#31D3DB"/>
  <path fill-rule="evenodd" clip-rule="evenodd" d="M15.3887 9.0351C15.5216 8.92125 15.6866 8.85152 15.8609 8.83555C16.0352 8.81959 16.2102 8.85818 16.3616 8.94599C16.513 9.0338 16.6334 9.16649 16.7061 9.32571C16.7788 9.48492 16.8002 9.6628 16.7674 9.83473C16.7346 10.0067 16.6492 10.1641 16.523 10.2854C16.3968 10.4067 16.236 10.4857 16.0629 10.5116C15.8898 10.5375 15.7129 10.509 15.5568 10.43C15.4006 10.351 15.2728 10.2254 15.1911 10.0706C15.1002 9.90206 15.0695 9.70752 15.1043 9.5192C15.139 9.33088 15.2371 9.16008 15.3821 9.0351" fill="#383C42"/>
  <path fill-rule="evenodd" clip-rule="evenodd" d="M22.2791 9.38188L33.6683 1.45199C33.9895 1.23497 34.4127 0.735827 34.2347 0.499276C34.0568 0.262725 33.5685 0.390766 33.1496 0.583914L20.8338 7.23773C20.4366 8.08194 21.2375 9.81375 22.2857 9.38188" fill="#31D3DB"/>
  <path fill-rule="evenodd" clip-rule="evenodd" d="M21.283 7.81914L33.18 0.852817C33.4868 0.644474 33.8466 0.527799 34.2174 0.516436C34.0394 0.312438 33.5511 0.431799 33.1453 0.624946L20.8338 7.23753C20.7122 7.62425 20.7197 8.04001 20.8552 8.42208C20.9906 8.80416 21.2467 9.13182 21.5846 9.35564C21.3328 8.88514 21.2277 8.34995 21.283 7.81914Z" fill="white"/>
  <path fill-rule="evenodd" clip-rule="evenodd" d="M3.75441 10.9234C3.84067 10.9044 3.93019 10.9059 4.01578 10.9277C4.10137 10.9496 4.18063 10.9912 4.24718 11.0493C4.31355 11.108 4.36537 11.1813 4.39852 11.2634C4.43168 11.3456 4.44527 11.4343 4.43822 11.5226C4.44331 11.7264 4.3741 11.9251 4.24349 12.0817C4.11288 12.2383 3.92979 12.342 3.72836 12.3735C3.64332 12.3907 3.55546 12.3881 3.4716 12.3659C3.38775 12.3436 3.31015 12.3023 3.24484 12.2452C3.17954 12.1881 3.12828 12.1167 3.09504 12.0365C3.06181 11.9564 3.04751 11.8696 3.05323 11.7831C3.05966 11.5844 3.13208 11.3936 3.25905 11.2406C3.38602 11.0877 3.56032 10.9815 3.75441 10.9386" fill="#21AAAD"/>
  <path fill-rule="evenodd" clip-rule="evenodd" d="M6.05933 8.38212C6.13559 8.36579 6.21463 8.36762 6.29005 8.38748C6.36547 8.40734 6.43516 8.44466 6.49349 8.49644C6.55182 8.54821 6.59714 8.61299 6.6258 8.68552C6.65447 8.75805 6.66566 8.83631 6.65848 8.91398C6.64543 9.08892 6.57821 9.25545 6.46617 9.39045C6.35413 9.52544 6.20283 9.62219 6.03328 9.66725C5.95696 9.68349 5.87789 9.68154 5.80247 9.66155C5.72704 9.64156 5.65738 9.6041 5.59912 9.5522C5.53943 9.50081 5.49262 9.43613 5.46246 9.36337C5.4323 9.2906 5.41962 9.21178 5.42545 9.13323C5.43863 8.95857 5.50593 8.79236 5.61798 8.65773C5.73004 8.52311 5.88128 8.42677 6.05065 8.38212" fill="#21AAAD"/>
  <path fill-rule="evenodd" clip-rule="evenodd" d="M13.0494 5.01953C13.1267 5.02179 13.2024 5.04203 13.2704 5.07864C13.3385 5.11525 13.3971 5.16723 13.4416 5.23045C13.486 5.29367 13.5151 5.36638 13.5266 5.44282C13.538 5.51926 13.5315 5.59731 13.5075 5.67078C13.4609 5.83879 13.3606 5.98689 13.2217 6.09237C13.0829 6.19785 12.9134 6.25488 12.739 6.25473C12.6611 6.25301 12.5847 6.23331 12.5156 6.19717C12.4466 6.16103 12.3868 6.10943 12.341 6.04638C12.2952 5.98334 12.2646 5.91057 12.2515 5.83374C12.2385 5.75692 12.2434 5.67811 12.2658 5.60348C12.3121 5.43386 12.4137 5.28455 12.5545 5.17917C12.6952 5.0738 12.8671 5.01838 13.0429 5.0217" fill="#21AAAD"/>
  <path fill-rule="evenodd" clip-rule="evenodd" d="M15.1913 4.67032C15.2559 4.68112 15.3171 4.70676 15.3702 4.74523C15.4232 4.78371 15.4665 4.83396 15.4968 4.89203C15.5271 4.95011 15.5436 5.01443 15.5448 5.07992C15.546 5.14541 15.532 5.2103 15.5039 5.26947C15.4419 5.40143 15.3388 5.50975 15.21 5.57823C15.0813 5.64671 14.9338 5.67166 14.7897 5.64936C14.728 5.63796 14.6696 5.61292 14.6188 5.57605C14.568 5.53919 14.5261 5.49144 14.4962 5.4363C14.4662 5.38116 14.4489 5.32003 14.4457 5.25736C14.4424 5.19469 14.4531 5.13207 14.4771 5.07409C14.5356 4.93793 14.6371 4.8247 14.7661 4.75176C14.8951 4.67883 15.0445 4.65022 15.1913 4.67032" fill="#21AAAD"/>
  <path fill-rule="evenodd" clip-rule="evenodd" d="M6.07648 9.98811C6.13336 9.97642 6.19218 9.97816 6.24828 9.9932C6.30437 10.0082 6.35618 10.0361 6.39959 10.0747C6.44301 10.1133 6.47683 10.1614 6.49837 10.2154C6.51991 10.2693 6.52857 10.3275 6.52367 10.3854C6.51917 10.5122 6.47288 10.6339 6.392 10.7317C6.31112 10.8295 6.20019 10.8977 6.07648 10.9259C6.0203 10.9378 5.96214 10.9365 5.90656 10.9221C5.85098 10.9077 5.79949 10.8806 5.75615 10.8429C5.71281 10.8053 5.67879 10.7581 5.65678 10.705C5.63477 10.652 5.62536 10.5946 5.62929 10.5373C5.63578 10.4101 5.68263 10.2883 5.76304 10.1896C5.84345 10.0908 5.95324 10.0202 6.07648 9.98811" fill="#21AAAD"/>
  <path fill-rule="evenodd" clip-rule="evenodd" d="M2.48706 12.9696C2.54561 12.9555 2.6067 12.9556 2.66522 12.9699C2.72373 12.9841 2.77799 13.0122 2.82345 13.0517C2.86892 13.0912 2.90427 13.1411 2.92656 13.197C2.94886 13.253 2.95745 13.3134 2.95161 13.3734C2.94775 13.5092 2.89834 13.6398 2.81133 13.7441C2.72432 13.8484 2.60476 13.9205 2.47186 13.9487C2.41048 13.961 2.34705 13.9587 2.28673 13.9419C2.22642 13.9251 2.17093 13.8943 2.12479 13.852C2.07866 13.8096 2.04318 13.757 2.02125 13.6984C1.99932 13.6397 1.99157 13.5767 1.99862 13.5145C2.0034 13.3779 2.05427 13.2469 2.14295 13.1428C2.23163 13.0388 2.35291 12.9678 2.48706 12.9414" fill="#21AAAD"/>
  <path fill-rule="evenodd" clip-rule="evenodd" d="M32.0817 1.14453L31.7692 1.31164C31.8451 1.68462 32.0447 2.02107 32.3356 2.26652C32.1736 1.91434 32.0871 1.53215 32.0817 1.14453V1.14453ZM29.3798 2.59639L29.0239 2.78954C29.0239 3.24528 29.3538 3.93106 29.7249 4.02221C29.4837 3.58786 29.3779 3.09133 29.4211 2.59639H29.3798ZM26.5759 4.11553L26.1115 4.36944C26.1467 4.68271 26.2505 4.98438 26.4155 5.25296C26.5806 5.52154 26.8028 5.75042 27.0664 5.9233C26.7652 5.36885 26.6113 4.74643 26.6193 4.11553H26.5759ZM23.7807 5.65203L23.249 5.9233C23.2797 6.30076 23.3981 6.66585 23.5948 6.98949C23.7915 7.31313 24.061 7.58638 24.3819 7.7875C23.9699 7.15293 23.7603 6.40829 23.7807 5.65203" fill="#21AAAD"/>
  <path d="M34.1195 25.6016H19.4295C18.805 25.6016 18.2988 26.1078 18.2988 26.7322V34.2259C18.2988 34.8504 18.805 35.3566 19.4295 35.3566H34.1195C34.744 35.3566 35.2502 34.8504 35.2502 34.2259V26.7322C35.2502 26.1078 34.744 25.6016 34.1195 25.6016Z" fill="white"/>
  <path fill-rule="evenodd" clip-rule="evenodd" d="M24.1063 27.8042H19.4729V26.9336H24.1063V27.8042Z" fill="#A672BB"/>
  <path fill-rule="evenodd" clip-rule="evenodd" d="M27.2082 27.8044H24.9397V26.9336H27.2082V27.8044Z" fill="#43B8C9"/>
  <path fill-rule="evenodd" clip-rule="evenodd" d="M30.9239 27.8044H27.8044V26.9336H30.9239V27.8044Z" fill="#A672BB"/>
  <path fill-rule="evenodd" clip-rule="evenodd" d="M24.1063 29.8628H19.4729V28.9922H24.1063V29.8628Z" fill="#43B8C9"/>
  <path fill-rule="evenodd" clip-rule="evenodd" d="M27.2082 29.863H24.9397V28.9922H27.2082V29.863Z" fill="#A672BB"/>
  <path fill-rule="evenodd" clip-rule="evenodd" d="M30.9239 29.863H27.8044V28.9922H30.9239V29.863Z" fill="#43B8C9"/>
  <path fill-rule="evenodd" clip-rule="evenodd" d="M24.1063 31.9214H19.4729V31.0508H24.1063V31.9214Z" fill="#A672BB"/>
  <path fill-rule="evenodd" clip-rule="evenodd" d="M27.2082 31.9216H24.9397V31.0508H27.2082V31.9216Z" fill="#A672BB"/>
  <path fill-rule="evenodd" clip-rule="evenodd" d="M30.9239 31.9216H27.8044V31.0508H30.9239V31.9216Z" fill="#A672BB"/>
  <path fill-rule="evenodd" clip-rule="evenodd" d="M24.1063 33.9799H19.4729V33.1094H24.1063V33.9799Z" fill="#43B8C9"/>
  <path fill-rule="evenodd" clip-rule="evenodd" d="M27.2082 33.9802H24.9397V33.1094H27.2082V33.9802Z" fill="#43B8C9"/>
  <path fill-rule="evenodd" clip-rule="evenodd" d="M33.9077 27.8044H31.6392V26.9336H33.9077V27.8044Z" fill="#43B8C9"/>
  <path fill-rule="evenodd" clip-rule="evenodd" d="M33.9077 29.863H31.6392V28.9922H33.9077V29.863Z" fill="#A672BB"/>
  <path fill-rule="evenodd" clip-rule="evenodd" d="M33.9077 31.9216H31.6392V31.0508H33.9077V31.9216Z" fill="#A672BB"/>
  <path fill-rule="evenodd" clip-rule="evenodd" d="M33.9077 33.9802H31.6392V33.1094H33.9077V33.9802Z" fill="#43B8C9"/>
  <path fill-rule="evenodd" clip-rule="evenodd" d="M30.9239 33.9802H27.8044V33.1094H30.9239V33.9802Z" fill="#A672BB"/>
</svg>
