<svg xmlns="http://www.w3.org/2000/svg" fill="none" viewBox="0 0 32 32"><g clip-path="url(#a)"><path fill="#E65270" d="M19.714 29.0861c-.354-.0045-.7075-.0055-1.0613-.0055l-.9129.0008s-2.6114-.0011-3.8596-.0011c-.196 0-.3925.0008-.5887.0013-.1965.0005-.3928.0013-.5893.0013-.123 0-.2454-.0002-.3682-.001-.7115-.0004-1.4203-.0897-2.1097-.2659-2.53515-.6206-4.68093-2.3015-5.89062-4.6142-.62724-1.1683-.98445-2.4624-1.04535-3.787-.03249-.6215-.00137-1.2447.09289-1.8599.01126-.0743.02486-.1486.03847-.2235l.03009-.1701.05102.0503c.02043.0209.03481.0469.04161.0753.02538.0832.04919.1672.07326.2507.04972.174.10153.354.16224.5267.47487 1.3222 1.17377 2.5527 2.06609 3.6377.03593.0441.06367.0942.0819.1481.31517.978.88677 1.8535 1.65529 2.5355.78117.691 1.70174 1.206 2.69931 1.5101-.65581-.2792-1.27194-.6437-1.83242-1.0841-.87014-.6681-1.5387-1.5637-1.93186-2.5878-.05151-.1127-.05815-.2407-.01858-.358.01619-.0465.02999-.0937.04134-.1416.00838-.0329.01649-.0659.02669-.0986.16853-.6083.49601-1.1608.9488-1.6006.4492-.4058.98908-.698 1.57443-.8522.61248-.1627 1.237-.2763 1.8675-.3397l.2645-.034c.3457-.0453.6961-.0986 1.0346-.151l.2039-.0314c.0759-.0115.1512-.028.2292-.045l.1902-.0398-.0499.0851c-.0034.007-.0076.0136-.0126.0196-.3196.3573-.5886.7569-.7994 1.1874-.0196.0379-.0526.067-.0926.0817-.0455.0149-.0908.0295-.1361.0447-.1452.0518-.2935.0942-.444.1272-.1628.0324-.3295.056-.4909.0785-.1293.0183-.2585.0364-.387.0599-.3719.0501-.72391.1978-1.02024.4281.05548-.0134.11278-.0217.16904-.0298.07889-.009.15677-.0253.23262-.0487.44408-.1456.90988-.2143 1.37718-.2031l.073.0003c.097.0011.1939.0055.2922.0102l.19.0079-.0141.0468c-.3884 1.206-.3775 2.5051.0311 3.7044-.1683-.7502-.2009-1.5245-.0963-2.2862.1488-1.0848.6613-2.0869 1.4538-2.8424.6076-.5669 1.3109-1.0216 2.0771-1.3432.7261-.3029 1.4783-.5386 2.2474-.7041l.1379-.0332c.5202-.1251 1.0582-.2544 1.5794-.4074.751-.2116 1.4423-.5955 2.019-1.121.0915-.0802.1762-.1677.2533-.2617.4907-.6574 1.1457-1.1742 1.8992-1.4985.0256-.013.047-.0331.0615-.0578.2162-.3703.5239-.6788.8936-.896.0714-.0433.153-.0671.2365-.0688.1066.0035.209.0423.2912.1102.0347.0264.0675.0553.0982.0863.135.1409.2425.3059.3168.4864.0067.0215.0265.036.049.0359.0908.012.1844.0243.2773.0426 1.5031.2812 2.6338 1.5308 2.7637 3.0544.005.0422.0084.0848.0118.1272.0041.1006.0196.2004.0463.2975.0412.1188.0913.2344.1499.3457.0244.0494.0492.0999.0723.1504.0196.0435.0403.0864.0607.1293.0484.1018.0978.2057.1389.3122.0629.1593.0706.335.022.4992-.0209.0725-.0649.0832-.0892.0832-.0209-.0005-.0412-.007-.0587-.0185-.0418-.027-.0808-.0568-.1198-.0877-.0183-.0152-.0372-.029-.056-.0432-.0209-.0162-.0416-.0322-.062-.0492-.0458-.0383-.0945-.0728-.1458-.1033-.017-.01-.0362-.0155-.056-.016-.0196.0001-.0388.006-.0552.017l.0717.0641c.128.1136.2557.2274.3813.3428.0278.0276.0429.0655.0416.1047-.0071.2193-.0952.4282-.2473.5864-.1444.1646-.351.2615-.5699.2674-.045-.0002-.0899-.0043-.1342-.0123.0032.063-.0336.1211-.0919.1452-.3817.2176-.8126.3343-1.252.3389l-.066-.0006c-.3113.0067-.6153.0952-.8815.2567-.0921.0535-.1905.0953-.2928.1246-.2582.0645-.5225.1015-.7884.1101.1109.015.2227.0222.3347.0218.0756 0 .1536-.0032.2378-.0087l.0482-.0049c.0355-.0034.0716-.0066.1062-.0066.0398-.0013.0794.0051.1167.0191.22.09.4351.1989.6366.302.0287.0171.0611.027.0945.0288.0149-.0002.0297-.003.0437-.0084l.0589-.022c.1101-.0416.2239-.0845.3325-.1327.2188-.1058.4578-.1634.7008-.169.0589.0002.1177.0043.1761.0123.1706.0162.3359.0682.4851.1526.1073.0539.1798.1588.1923.2784.0042.0089.0104.0168.0181.023.0191.0175.039.0343.0594.051.0204.0168.0413.0343.0609.0529.1205.1065.181.2653.162.4249-.0047.0474-.0152.1583-.1102.1583-.0386-.0028-.076-.0145-.1093-.0343-.0173-.0094-.0354-.0171-.0542-.023.0463.0283.0913.0568.1355.0869.1059.0727.1638.1972.1513.325-.0436.3445-.3334.6048-.6806.6112-.0397-.0002-.0792-.0046-.118-.0131-.1237-.0174-.2334-.0884-.2999-.1941-.0035-.0042-.0079-.0075-.0128-.01l-.0576.0027c-.0683.0005-.1365.0073-.2035.0204l-.0191.0044c-.1116.03-.2261.0471-.3415.051-.0445.0002-.089-.004-.1327-.0123-.0521-.0096-.1036-.0225-.1565-.0355l-.0382-.0092c-.0621.199-.1605.3847-.2901.5479-.3104.3862-.7308.6688-1.2055.8104-.3856.1246-.7886.1869-1.1937.1845-.2297-.0006-.4591-.0173-.6864-.05-.8751-.0918-1.6219-.6732-1.9256-1.4991-.0554-.1456-.1012-.2947-.1371-.4464-.0186-.0717-.0377-.1449-.0586-.2164-.1008-.3521-.243-.6911-.4236-1.0097-.2746-.5121-.6929-.9328-1.2034-1.2102-.394-.2072-.8329-.3143-1.278-.3119-.1987.0006-.3969.0188-.5924.0544-.0411.0073-.0819.0162-.1235.0251.1431.0066.2792.0144.4166.0277.6114.0561 1.2012.255 1.7217.5807.6317.3626 1.0956.9588 1.2919 1.6602.104.3885.2472.7654.4275 1.1249.1119.2418.258.4661.4339.6662.3031.3102.6878.5282 1.1097.6288.1321.0374.2635.078.394.1198.0728.0237.1299.0808.1536.1536.075.1886.0943.3948.0558.594-.065.3065-.2107.5901-.4221.8214-.1829.1942-.3907.3634-.6181.5032-.1053.0703-.2064.1467-.3027.2289-.0759.0607-.1188.1535-.1159.2507.0068.1544.0183.1601.0471.1601.0422-.004.0837-.0138.1232-.029.0301-.01.0599-.022.0895-.0351l.1795-.0774c.1026-.0443.2049-.0887.3083-.1317.2078-.0901.4315-.1381.658-.1413.1138.0001.2272.0136.3379.0401.37.07.6698.3414.776.7028.0328.0834.0276.177-.0143.2562-.0313.049-.0834.081-.1413.0866-.0515-.0092-.0973-.0381-.1277-.0806-.0164-.021-.0261-.0464-.0278-.073-.0015-.0079-.0029-.0162-.0047-.0236-.0203-.1071-.076-.2044-.158-.2763.128.1667.1919.3737.1803.5835-.0055.2034-.1748.3639-.3782.3585l-.0067-.0003c-.0089 0-.0176-.0002-.027-.0007-.0723.0035-.1348-.05-.1426-.122-.0047-.0504-.0068-.1011-.006-.1517 0-.0207 0-.0416-.0005-.0621-.0006-.0272-.0003-.0536 0-.0808.0013-.0557-.001-.1113-.0071-.1667-.0133-.1129-.0951-.2058-.2054-.2331-.0083-.0032-.0169-.0052-.0257-.006.0381.0208.0694.0523.0901.0905.0439.0749.0786.155.103.2384.0656.1774.0031.3766-.152.4848-.0828.0476-.1751.0766-.2703.0848-.0357.0049-.0717.0071-.1078.0068-.1321-.0052-.2632-.0257-.3906-.0612l-.0642-.0155c-.1934-.0525-.3969-.0554-.5918-.0086l-.0406.0073c-.6005.1133-1.2099.1726-1.8209.1772l-.0984.0042Z"/><path fill="#430A1D" d="M25.1089 21.351c-.6809.715-1.7423.9154-2.6371.498-1.5202-.6126-.966-2.2985-.966-2.2985s.2695 1.0456 1.0561 1.4418c1.1387.5738 2.547.3587 2.547.3587ZM20.2936 21.8503c.1636.2002.262.4456.2821.7033.0994.4908.3044.954.6007 1.3575.2959.3918.6968.6915 1.1563.8643.4137.1586.9457.1117.8664.7277l-.1387.5186c-1.0571 0-2.0475-.4825-2.451-1.5318-.3537-.9205.0631-2.0328-1.0092-3.5892.0858.1052.5838.8376.6934.9496Z" opacity=".2"/><path fill="#2B2B2B" d="M19.8751 21.3929c.0162.0654.0309.1319.0458.1981-.0445-.0557-.0614-.1286-.0458-.1981Z" opacity=".2"/><path fill="url(#b)" d="M7.55664 25.4152c-3.98802-.3941-4.45744-4.3638-4.45744-4.3638-.11421-1.2225-.01648-2.4556.28888-3.645.32472 3.2839 2.95915 5.5575 2.95915 5.5575s.5788 1.8712 1.20941 2.4513Z"/><path fill="#2B2B2B" d="M6.56247 23.9033s-.83628.0795-1.95227-1.2751c1.07596 1.9523 2.47037 1.992 2.47037 1.992l-.5181-.7169Z" opacity=".2"/><path fill="url(#c)" d="M8.71771 26.1829c-.20907-3.6711 1.94629-1.9677 3.05889-3.9145.1838-1.0152.6134-1.97 1.2512-2.7809 0 0-6.67396-1.2513-6.77889 3.6154.23236 1.0537 1.25389 2.0726 1.8934 2.6239-.12507-.282-1.71834-4.6662 3.58769-4.3088-1.8314-.1559-4.47577 1.7573-3.21534 4.6236.12638.0921.20305.1413.20305.1413Z"/><path fill="#fff" d="M10.522 20.8887c-1.37952.5186-3.72219.5162-3.05547 4.0364-.10676.0801-.64003-.7468-.50685-.6665-.61333-3.1473 2.14146-2.9654 3.56232-3.3699Z" opacity=".2"/><path fill="#8B4FBA" d="M12.2688 19.6277c1.3415-.5306.2522.9739.0617 1.2146-.4403.5569-1.5545.3758-2.1482.5616-.34148.1067-1.71024.3074-2.16371 1.6035-.25767.8759-.20395 1.814.15203 2.6548-.1065.0806-.81221-.6924-.67876-.6128-1.13248-5.058 4.20914-3.2426 4.77694-5.4217Z" opacity=".6"/><path fill="#F9E0E7" d="M25.6064 17.5624c.0374-.1129.0979-.2167.1776-.3048.018.0054.0356.0118.0529.0191.1579-.0681.331-.0934.5018-.0736.1121-.0152.2258-.012.3368.0097.1382.0537.1225.1991.1803.3093.1083.2057.4422.2083.4435.499.0182.1516.0182.3047.0003.4563-.0262.0995-.1374.0691-.2332.0691-.2901 0-.5795.0081-.8703.0081l-.4019-.2996c-.1073.0343-.1912-.1907-.2059-.2671-.0287-.1412-.0225-.2873.0181-.4255Z"/><path fill="#fff" d="M26.9474 17.9606c.0611-.0362.1131-.0858.152-.1452.022-.0332.0157-.0544.0628-.0531.1228.0034.1238.169.1175.2546-.0073.1094-.0515.2099-.0675.3174-.0398-.0099-.0617-.0599-.1065-.0725-.0408-.0073-.0825-.0086-.1237-.0039-.0545.0024-.1298.039-.179.0181l.1444-.3154Z"/><path fill="url(#d)" d="M11.0522 12.5803c.0184-.0212.0231-.0275.0288-.0335.5052-.4926.8433-1.1313.9666-1.8261.0783-.4346-.0049-.88279-.2342-1.2602-.0052-.0077-.011-.01504-.0172-.02198-.0414.12927-.0791.25617-.123.38099-.0977.31059-.2489.60179-.4467.86039-.0829.1015-3.56201 2.0286-3.2038 6.2966.00236.0265.00681.0516.01047.0811.06437-.0599.12063-.1219.18526-.1729.23219-.1747.49653-.302.77793-.3745.5105-.1423 1.02444-.2731 1.53884-.399.5893-.1276 1.17-.2921 1.7388-.4924.3174-.1228.6193-.2827.8993-.4763.418-.2864.7893-.6355 1.1008-1.0351.1637-.2012.2832-.4346.3506-.685.0444.2621.0261.531-.0536.7847-.0833.2561-.2191.492-.3988.6926.0443-.0099.0874-.0243.1288-.0429.5016-.2679.9343-.6485 1.2641-1.1118.2207-.3125.3488-.6809.3697-1.0629.0011-.0066.0025-.0132.0044-.0196.1534.6616-.0141 1.3569-.4519 1.8761.1911-.0675.3638-.1353.5406-.1879.1372-.0406.2533-.1329.3237-.2574.3654-.5519.6383-1.1597.808-1.7995.1356-.493.141-1.0128.0157-1.5085-.1577-.5496-.4995-1.02827-.9681-1.35593-.3261-.23623-.6826-.42748-1.0598-.5686-.0227-.00889-.0455-.01701-.0677-.02695-.0037-.00131-.0055-.00549-.0199-.02119.1303.03584.2473.0662.3627.10048.5411.14544 1.0529.3834 1.5129.70335.4106.28093.7184.68804.8768 1.15974.1288.4305.1382.888.0272 1.3234-.1589.6339-.4348 1.2326-.8135 1.7652-.0112.017-.0222.0338-.0329.0505-.0016.0053-.0028.0108-.0034.0163.0131-.0042.0258-.0094.0382-.0155.7677-.3753 1.4468-.9098 1.992-1.5679.5322-.6403.9068-1.3965 1.0938-2.2079.2334-.98538-.0264-2.02277-.6969-2.78174-.4286-.50337-.9504-.91926-1.5367-1.22485-.7463-.40798-1.5595-.67924-2.4013-.80095-.4791-.07857-.9681-.07556-1.4462.00889-.2597.04874-.5075.14699-.73.2894.0371-.03166.0724-.06515.1114-.09367.2635-.18874.5666-.31467.8863-.36816.5248-.09878 1.062-.11344 1.5914-.04344.8183.09323 1.6143.32748 2.3526.69236.0728.03664.1447.07405.2251.1154 0-.06751-.004-.12639.001-.18474-.0048-.07454.0489-.14008.123-.14993.0503-.01437.1026.01472.117.06498.0017.00604.0029.01223.0034.01849.0107.05626.0136.11409.0217.1706.0192.12556.0774.2419.1664.33258.009.00963.0191.01815.0301.02538.005.00393.012.00366.0309.00733 0-.04632.0002-.08897 0-.13136-.0013-.08609-.0047-.17243-.0029-.25852.0008-.0212.0157-.05521.0303-.0594.0251-.00439.0508.00327.0694.02067.0369.04304.0659.0923.0855.14549.0338.11199.049.22921.084.34042.0235.07308.0591.14165.1055.20279.0502.06542.101.05103.1201-.02904.0178-.07484.0243-.15255.0356-.22896.0021-.02639.0064-.05256.0128-.07824.0089-.02065.0202-.04023.0335-.05835.0173.01596.0426.02774.0502.04763.0198.0441.0322.09111.0369.1392.0055.10362-.0042.20802.0034.31112.0047.05663.0215.1116.0492.16118.0299.05312.0777.04684.0942-.01256.0238-.08478.0356-.17243.0529-.25904.0118-.05862.0241-.11697.0384-.18866.0559.04714.0895.11541.0929.18839.0178.1693.0265.33938.0414.50894.0117.12536.0567.24532.1303.34749.1363.19756.2569.40663.3789.61387.0628.10623.1209.11591.1795.00654.0664-.12429.1159-.25696.1722-.387.0245-.05679.0452-.11461.0711-.17061.0149-.02747.032-.05371.051-.0785.0579.03755.0859.10744.0699.17453-.0191.09446-.0539.18631-.0785.27972-.0287.1014-.0523.20419-.0706.30798-.0016.04629.0094.09215.0319.13266.0269.05888.0699.06594.1159.01989.0468-.04658.0832-.10336.1287-.15072.0286-.02482.0597-.04665.0927-.06515.0175.0382.0531.07797.0499.1146-.0068.07875-.0248.15612-.0536.22975-.0581.14784-.1363.28861-.1863.43854-.0305.11213-.0489.22724-.0547.34331-.0009.03405.0151.06636.0427.08635.0341.00176.0673-.0121.09-.03768.095-.10414.1842-.21431.2773-.32133.0249-.02484.0515-.04776.0799-.06855.0091.00471.0177.00837.0269.01334-.0028.06158-.0123.12265-.0285.18212-.0376.094-.0835.18446-.1371.2703-.0845.13528-.1811.26219-.2677.39564-.1571.24612-.2696.51798-.3326.80308-.0479.2062-.1159.4079-.1756.6107-.0088.025-.0145.051-.017.0774.0521-.0829.1029-.1677.1568-.2504.1064-.1769.2487-.3297.4176-.4485.0878-.0589.182-.1077.2807-.1455.5108-.1719 1.0114-.37275 1.4994-.60152.1373-.07111.2687-.15301.393-.24491.1534-.10168.2221-.29188.169-.46812-.0329-.1345-.0659-.26873-.1002-.40872-.0816.13031-.1536.25591-.236.37366-.0827.12482-.1991.22363-.3357.28495.0072-.01587.0154-.03133.0243-.04632.2009-.29469.3464-.62346.4297-.97025.0053-.0391.0027-.07888-.0076-.11696-.0311-.25048-.0349-.5036-.0113-.7549.0034-.05061.0019-.10143-.0044-.15177-.004-.02532-.0192-.04751-.0414-.06044-.0133-.00602-.0481.0123-.0599.02826-.0524.06563-.0979.13648-.1358.21142-.1316.30589-.2577.61439-.3833.92211-.143.38866-.346.75251-.6016 1.07831-.1178.14741-.2638.26974-.4296.35979-.0333.01658-.0679.03041-.1034.04134.2317-.26762.3513-.61431.3339-.96789.0154-.45058.0065-.90222.011-1.35332-.0072-.48714.057-.9727.1905-1.44124.003-.02242-.0019-.04519-.0139-.06437-.0411-.08007-.0932-.15491-.1272-.2376-.0714-.17348-.1311-.35141-.2009-.52594-.0408-.10257-.0547-.11016-.1646-.10231-.1041.00272-.201-.05251-.2517-.14339-.0479-.06359-.0675-.06202-.1005.01256-.0359.08111-.0641.16458-.1028.24439-.0134.02721-.0474.04501-.072.06699-.0188-.02774-.0502-.05495-.0534-.08452-.0102-.09655-.0076-.19389-.0144-.29071-.002-.04825-.0107-.09598-.0259-.14182-.0127-.02451-.0363-.04158-.0636-.04605-.0167-.00131-.0458.02721-.0528.04867-.0238.06881-.038.14051-.0597.20985-.0175.05573-.0424.06175-.0756.01622-.2487-.31536-.5582-.57758-.9101-.77112-.1018-.06123-.202-.12534-.3032-.18709-.0071.00236-.0142.00497-.0207.0068.0128.11226.0262.22425.039.33624-.0092.00497-.0183.00916-.0272.01387-.034-.02452-.0659-.05182-.0953-.08164-.0672-.07928-.1279-.16354-.196-.24256-.1197-.14903-.283-.25689-.467-.3085.0515.17662.1007.34382.1494.51155-.0076.00392-.016.00706-.0236.01047-.0182-.01988-.0351-.04094-.0505-.06307-.0395-.0641-.0785-.12795-.1146-.19389-.1413-.27013-.4069-.45305-.7096-.48879-.2141-.03087-.4305-.05128-.6461-.06594-.1568-.00504-.3112-.04021-.4547-.10361-.1038-.04293-.2096-.08057-.3172-.11278-.0208-.00287-.042-.00198-.0625.00261-.002.02286.0001.04588.006.06804.0502.09838.1049.19441.1554.2928.0172.03638.0323.07368.0453.11173-.005.00549-.0097.01047-.0144.01596-.0326-.00881-.0646-.01974-.0958-.03271-.1392-.06751-.2805-.13109-.415-.20697-.1366-.06386-.2856-.09674-.4364-.0963-.4613-.0451-.9269-.00167-1.3719.12796-.2746.07785-.5293.21356-.7471.39799.028-.00288.0568-.00288.084-.00785.2689-.0653.5445-.0985.8211-.09891.1888-.00168.375.04392.5417.13266.025.0203.0469.0442.0649.07091-.0347.01901-.0731.03043-.1125.0335-.0867-.01021-.1714-.04239-.2586-.04946-.2745-.0118-.5489.02623-.8098.11226-.6329.17988-1.2287.47103-1.7594.85983-.1314.09341-.2677.18002-.4041.26689-.2623.16693-.4846.38955-.6512.65207-.0206.03139-.0377.0649-.0511.09996-.0402.08338-.0052.18359.0782.22382l.0043.00199c.0666.0341.1371.05985.2101.07667.955.22519 1.6669 1.02422 1.7809 1.99885.0547.36553.0795.73491.0743 1.10448-.0322.82803-.3569 1.61783-.9164 2.22913-.3401.3706-.7371.6845-1.1762.9299-.0141.0085-.0287.0163-.0437.0233Z"/><path fill="#8B4FBA" d="M23.3208 6.92289c-.4066 3.17611-1.8162 2.45728-2.7383 4.23031-.0505-.067-.1667.4752.0657-.5314.2326-1.0077.899-.5527 1.5299-1.70503.7989-1.45669.6393-1.58726 1.1427-1.99388Z" opacity=".2"/><path fill="#fff" d="M19.1099 6.98255c-.1513.90902-1.4366.86794-2.5363.48225-1.1953-.41919-3.6782-.55369-3.8782-.05365-.0997.11461-.2998-.35664-.2998-.35664s1.8858-2.05747 5.0428.11408c-.1285-.19991 1.1345-.78499 1.1345-.78499s.38-.11539.537.59895Z" opacity=".3"/><path fill="#8B4FBA" d="M12.5688 15.7109c.0685.17.6269.0554.6793-.2102-.8238-.933 1.3449-2.6477-.6552-4.8857 1.3091 3.4526-1.4777 3.5931-.0241 5.0959Z" opacity=".2"/><path fill="#8B4FBA" d="M12.5689 15.7109c.0686.17.0563.1214.1086-.1442-.8237-.9334 1.3703-2.2943-.0845-4.9517 1.3091 3.4526-1.4776 3.5931-.0241 5.0959Z" opacity=".6"/><path fill="url(#e)" d="M15.5704 15.0295c3.9585-4.1654-1.0458-3.4678-2.6768-6.29511.0029-.04867.0063-.09577.0063-.14575 0-.37919-.0895-.75303-.2611-1.09114 1.5265 2.26418 5.3965.26769 4.6447 4.8963-.0677.2381-.6062 2.5836-1.7131 2.6357Z"/><path fill="url(#f)" d="M15.5707 15.0295c-1.6299.7999-3.0547.8232-2.9872.5859 3.2381-2.1972.6241-4.4614.0147-6.59423.0416-.17217.3019-.23628.3019-.43175 0-.02093-.0023-.04081-.0029-.06149.0409.15739.1345.29596.2654.3925 1.5051 1.51817 6.2893 2.02557 2.4081 6.10907Z"/><path fill="#E65271" d="M15.0601 14.9675c2.5067-3.7439-2.1729-4.4551-2.1388-5.64202-.3729 2.44132 4.1125 3.48642-.1018 6.40842-.0675.2371.6107.0335 2.2406-.7664Z"/><path fill="url(#g)" d="M22.0644 8.46383c.1991.33257-.022.72507-.2538 1.0927-.2141.33964-.7309.22844-1.0815 1.04717l.0301-.63793c.3886-.67692-.2687-1.60871-.4516-2.23853-.3114-1.07282-.65-2.0627-.2374-3.15122.028-.073.0518-.15307.0801-.22817.2053.15013.3867.33035.5382.53458.117.15334.0762-.39563.23-.28024.1131.08347-.0054.47178.1024.56153.1208.10205.1936-.48879.2812-.35795.2044.30719.3216.11225.4088.20435.0787.08348.2629.72691.3372.81404.0728.08452.1421.17165.2107.25931-.037.48214-.1321.95806-.2831 1.41743-.1615.31068-.1268.68697.0887.96293Z"/><path fill="#E65271" d="M16.4925 3.57333c.0092.00372.0189.00576.0288.00602.1097-.00183-.2954-.51129-.179-.51129.1965 0 .4742.20305.6665.21797.4034-.00697.805.05616 1.1869.18656.3449.15805.4982.64867.5754.66934.0777.02146-.1876-.56703-.1115-.54086.1159.03901.2235.09936.3172.17793.3401.48696.4506 2.90028-.0484 2.83801-.5244-.06542.8271.18525.8326.16511.2848-.92786.0943-1.93649-.5095-2.69645.0391.06514.0936.11975.1586.15909.1075.04135-.0667-.41133.0314-.35141.3121.19075.5335.32525.7154.46079.0055.00785.007.02669.0159.02302.134-.05573.9609-.25015.3316 2.72026.9556-1.93396.2075-2.69278.2807-2.6135.3394.36633.4087 1.2607.4524 1.79109.0414.49742-.2716 1.63147-.6771 2.00644-.2855.26376-.2798-.0628-.387-.31505-.2069-.40141-.474-.76877-.7921-1.0893-.2292-.23463-.4705-.45708-.723-.66646-.2614-.24753-.399-.59345-.6327-.86506-.2088-.24282-.4657-.43619-.6643-.68948-.2227-.28365-.3719-.60811-.6178-.86925-.0779-.07767-.1618-.14906-.251-.21352Z"/><path fill="url(#h)" d="M18.3247 3.30225c.5841-.00183.9507.27789 1.434.54531.4006.22267.8927.22477 1.2311.53144.4161.35773.6771.86296.7282 1.40932.1057.73805.0989 1.48789-.0204 2.22388-.066.34749-.313 1.05973-.5733 1.31381l-.3125-.19887c-.6162-1.59117-2.4735-2.24402-3.1763-3.80799-.1974-.49661-.296-1.02697-.2902-1.56134-.0055-.52647.554-.45425.9794-.45556Z"/><path fill="#F6E8A0" d="M12.5134 7.27849c-.3446-.53694-.8867-.91662-1.5091-1.05686-.1606-.03585-.4484-.1358-.1635-.47884.2613-.34603.5953-.63044.9786-.83314.948-.70388.5561-.77584 1.1092-.83968.2162-.02512.1591-.04396.2687 0 .1097.04396-.0842-.03088-.1535-.07667-.6171-.40846-.5726.40637-.3072.23027.7897-.61073 2.6087-1.03933 3.1187-.95194.0743.01256.5869.30877.6654.30746.1097-.00183-.2954-.51129-.1789-.51129.1965 0 .4741.20305.6664.21796.9629.19785 1.6403 1.06461 1.5996 2.04673.0199.35055.0081.70218-.0354 1.05058-.4411 2.13727-4.9085-.86218-6.059.89542Z"/><path fill="#fff" d="M17.8608 5.96101c-.2069-.25852-1.5524-.72455-1.5524-.72455s-2.2346-.77007-4.2952 1.42293c1.0532-.83602 2.9039-.48539 4.2423-.331.1769.02067-.3823-.15779-.2357-.21195.4971-.18395.9574.33153 1.453.23209.2073-.01559.3722-.18023.388-.38752Z"/><path fill="#F6E8A0" d="M16.1471 5.59913c-.8206-.21613-1.6409.10022-1.799.1099.0744-.11173.1955-.36947.8034-.45844.1887-.00967.3778-.00914.5665.00157.2305.00096.4569.06106.6575.17453.1962.08204.4062.12591.6189.12927 0 0 1.2575.09472.8409.52123-.416.42625-1.0236-.54976-2.3565-.23759.1775-.1731.4212-.26081.6683-.24047Z"/><path fill="#F8D285" d="M14.9029 3.83055c-.5186-.34331-1.4253-.04893-1.543-.0505-.0027-.01204.0044-.02539.0256-.03873.79-.61073 1.9604-.5563 2.4704-.4689.0052.001.0102.00249.0151.00445l.0092.0034c.1104.04239.4713.2457.6026.29044.7688.43567 1.9834 1.35568 2.0904 2.81315-.3517-.14964-.6847-.34013-.9919-.56755-.0811-.06201-1.9185-1.98236-6.7816.32499-.0838-.05296-.1097-.16338-.0581-.24806 1.0982-1.76466 3.1034-2.2715 6.2965-.60026-.4527-.53955-.6723-1.0286-2.1352-1.46243Z"/><path fill="url(#i)" d="M18.0115 13.7484c1.8013-1.8419 2.5353-3.218 1.6634-4.69976-1.4119-2.40155-5.7603.10336-7.6513-2.31965.2965.35444.647.65997 1.0385.90536 1.4018.91582 4.0401.62119 4.8808 1.32925 1.0815.91059 1.3578 2.7467.0686 4.7848Z"/><path fill="url(#j)" d="M12.1438 9.89879c-.0021.12351.2805.83601.2363 1.00011-.3794 1.4007-2.0237 2.0878-2.0237 2.0878s-1.84137.741-2.13391 4.128c-.33597.2418-.2894-.2729-.27893-.5016.20907-4.442 3.90454-3.9454 4.20024-6.71431Z"/><path fill="url(#k)" d="M18.4085 17.2387c-.0294-.0159-.0598-.0298-.0911-.0413-.1615-.045-.3239-.0864-.4857-.1324-.051-.0144-.0997-.0377-.1496-.0568.0002-.011.0008-.0217.001-.0325.0569-.0145.115-.0244.1735-.0295.2321-.0026.4645.0005.6968.001.3276.0164.6557-.0162.9737-.0965.1552-.0497.3049-.1156.4464-.1965 1.4586-.7971 2.5877-2.0853 3.1868-3.6359.1285-.3245.2311-.6587.3066-.9995.0047-.0189.0068-.0385.0126-.0712-.0249.0152-.0408.0225-.0557.0322-.9025.6248-1.9259 1.0534-3.0042 1.2581-.3895.0716-.784.1124-1.1798.1219-.032.0002-.0629.0117-.0872.0325-.5968.5877-1.2897 1.069-2.0488 1.4231-.6015.2845-1.2384.4874-1.8937.6032-.8391.163-1.6804.3179-2.5198.4794-1.0335.1819-2.0534.4342-3.05255.7551-.63482.201-1.24125.4826-1.80443.8379-.42754.2631-.79051.6189-1.0621 1.0411-.09315.1539-.15935.3242-.23942.4862-.01319.0298-.03103.0574-.05286.0816-.53657.5063-.79361 1.2417-.68922 1.9719.07011.559.25994 1.0963.55656 1.5752.03428.0574.06333.117.09001.1675.01387-.1238.02486-.2624.04422-.3998.0977-.8335.59807-1.566 1.33894-1.9601.44484-.2478.92456-.427 1.42292-.5315.54531-.1203 1.09533-.2216 1.64513-.3213.6708-.0998 1.3347-.2421 1.9875-.426.1262-.0395.251-.0853.3748-.1324.1597-.0586.3105-.1395.4477-.2402.4608-.3333.9636-.6043 1.4954-.8062.0144-.0055.0285-.0118.0426-.0173.0008-.002.0011-.0049.0032-.0109-.0087-.0008-.0163-.0019-.0241-.0019-.5945.0005-1.1898.0037-1.7843.0005-.531-.0089-1.0621.0186-1.5893.0825-.7273.0995-1.4405.2834-2.12528.5479-.80709.3154-1.58517.7006-2.3254 1.1511-.02039.0136-.04322.0232-.06725.0282.01387-.0112.02695-.0238.04056-.0343.80512-.627 1.69452-1.1376 2.64197-1.5166.6641-.2574 1.3592-.4261 2.0675-.5016.6255-.0606 1.2552-.0654 1.8816-.0144.5427.0395 1.0854.0783 1.628.1162.0483.0033.0968-.0022.1432-.0162.5372-.1548 1.0857-.2679 1.6403-.3381.3274-.0468.6505-.1253.975-.1899.0221-.0062.0436-.0144.0641-.0246l.0032-.0189Z"/><path fill="#fff" d="M8.41733 19.0685c2.12577-2.5394 7.64107-1.2083 9.99137-1.8295-1.4881.8548-2.6985.707-2.6985.707s-5.0787-.5607-7.29287 1.1225Z" opacity=".2"/><path fill="#E65271" d="M24.6709 9.43172c-.0585.00674-.1166.01722-.1737.0314-.1946.0498-.3853.11355-.5707.19075-.1709.08787-.331.19517-.4773.31975-.2871.23338-.561.48168-.8441.71798-.2879.2845-.6613.4663-1.0626.5176.3501-.2132.6334-.5204.8174-.8868-.0103.001-.0205.0027-.0306.005-.588.2724-1.1479.6019-1.6715.9836-.1389.1008-.2508.2344-.3255.3888-.1246.2601-.2824.5048-.4258.7554-.0062.0113-.0131.0223-.0306.0524.1256-.0264.2355-.044.3433-.0715.451-.1268.8862-.3042 1.2973-.5288.6479-.3404 1.2729-.7225 1.8712-1.144.0184-.0138.0389-.0246.0607-.0319-.0048.0079-.0103.0153-.0165.0222-.6968.7174-1.5285 1.2899-2.4473 1.6846-.4016.1698-.8259.2796-1.2594.3261-.0171.0009-.0335.0075-.0466.0186-.0971.1174-.1918.2362-.2991.3689.2659-.057.5163-.107.7651-.1649.6971-.1532 1.3772-.3754 2.0303-.6633.486-.2047.9344-.4892 1.3266-.8417.5075-.4723.8872-1.0653 1.1037-1.72388.0283-.10738.0502-.21633.0657-.3263Z"/><path fill="#8B4FBA" d="M12.6297 15.8953c.2064-.0693.4417-.1551.6926-.2514 2.9584-.9227 3.9359-1.6917 3.9359-1.6917l2.9718-2.2s.4856.3718 1.1141-.1144c-.4283.5142-1.7427.9143-1.7427.9143-.0677.2922-.2423.5485-.4893.7187 1.1697-.3974 3.1345-.2836 4.4978-1.5111-1.031 2.916-3.5914.6932-6.0659 2.5068-.2858.1714-4.06 1.1361-2.1844 1.0699 1.8754-.0659 3.1112 1.2139 4.6778.7944-1.4706.5333-2.77-.3213-4.8183-.4649.3556.0591.6844.2265.9415.4793-.7426-.5301-2.1959-.5544-2.5411-.4333-.3331.0427-.6636.1039-.9898.1834Z" opacity=".6"/><path fill="#2B2B2B" d="M19.7251 16.7947c-2.1553.8561-9.77314-1.6239-13.19335 2.2236 0 0-.25616-.1146 1.10579-1.6414 5.35576-2.5601 9.34166-.1392 12.08756-.5822Z" opacity=".2"/><path fill="url(#l)" d="M23.0575 13.3841c.6377-.3587.1196.5181-.5178 1.036-2.5104 1.7531-3.6458-.2418-6.1355.7182 3.8096-2.0998 4.1827.5171 6.6533-1.7542Z" opacity=".7"/><path fill="#8B4FBA" d="M22.8627 13.8818c.6379-.3587.3145.0204-.3229.5385-2.5104 1.7532-3.6458-.2417-6.1355.7183 2.451-1.3638 3.988 1.0142 6.4584-1.2568Z" opacity=".2"/><path fill="url(#m)" d="M10.4688 12.9417c-1.16131 1.0629-.2507 3.3904-.2507 3.3904l-.82662.1771s-.83418-2.25 1.07722-3.5675h.0001Z" opacity=".7"/><path fill="url(#n)" d="M12.4732 11.1587c.8753 1.5577-1.4459 3.7004-.1994 4.459-.0199.1023-.7128.4498-.6803.3493-1.5383-2.3604.9988-2.9233.6657-4.3991-1.7791 2.427-1.7982 2.9074-.9339 4.4439-.0107.0083-.1057.1324-.2002.0617-1.35148-1.0134-1.73194-2.1519 1.3481-4.9148Z" opacity=".7"/><path fill="#8B4FBA" d="M15.3334 14.3243c.0555.7295.5649-.4555.6421-1.2735.0665-3.06095-3.0371-2.3207-3.1789-4.79709-.302 2.81709 3.0565 2.75529 2.5368 6.07059Z" opacity=".2"/><path fill="#fff" d="M18.3427 13.1102c.055.7295 1.5198-1.1482 1.5972-1.9659-.4914-5.25184-5.8968-2.05772-7.3101-3.99246 1.1673 2.11922 8.7229-.82947 5.7129 5.95836Z" opacity=".3"/><path fill="url(#o)" d="M28.2328 23.3363c-.0793.0696-.1444.1329-.2161.1878-.0582.044-.1203.0823-.1856.1146-.1485.0811-.3279.0817-.477.0016-.245-.1173-.5201-.1564-.7881-.112-.0741.005-.139.0515-.1675.1201-.2683.5361-.7329.9481-1.2973 1.1503-.0589.0158-.1018.0667-.1073.1274-.0353.1759-.0348.3571.0013.5328.0704.2709.2446.5031.4849.6466.2514.1569.5276.2699.8169.3341.3442.0906.6983.1384 1.0542.1423.1815.0017.3623-.0233.5365-.0743.3695-.0965.6502-.3977.7203-.7732.0613-.2554.1073-.5143.1376-.7753.0694-.5768-.1104-1.1558-.4942-1.592-.0068-.0099-.013-.0202-.0186-.0308Z"/><path fill="#F6E8A0" d="M27.1042 23.3805c.0295.1792.366.2279.5222.2227.2565-.0251.4883-.1637.6317-.3779.0267-.0316.0505-.0657.0709-.1018.301.209.4677.5625.4375.9276-.0848.6045-.8292.9988-1.6621.8818-.512-.0492-.9728-.3319-1.2486-.7661.1523-.1947.2119-.442.4126-.6105.2526-.1465.5455-.2081.8358-.1758Z" opacity=".3"/><path fill="url(#p)" d="M6.85161 17.6969c.12337.0806.27504.1053.41761.068-.13293-.6504-.19096-1.314-.17296-1.9776.00846-.7321.17034-1.4543.47518-2.12.04091-.0859.08897-.1682.14366-.246-.00263.013-.00612.0259-.01047.0385-.16631.4342-.26088.8926-.27998 1.3572-.03225.7233.03565 1.4475.20174 2.1522.00367.0173.0089.034.01596.0591.10284-.069.20306-.135.30066-.2043.01177-.0087.01203-.0403.00942-.0605-.04815-.429-.04815-.862 0-1.291.06919-.6109.21522-1.2105.43462-1.7848.30251-.8011.70914-1.5588 1.20941-2.2537.01151-.0163.02329-.0325.03428-.049.00258-.0069.00442-.0141.00549-.0214-.07274.0256-.14077.0489-.20881.0735-.46023.1633-.90888.3575-1.34285.5814-.06852.0354-.13248.079-.1905.1298-.59069.5273-.98897 1.2363-1.13195 2.0151-.02434.1177-.04161.2376-.07431.3558.00732-.1313.01072-.2632.02224-.3945.04868-.6241.17706-1.2394.38203-1.8309.03613-.1405.03387-.2882-.00654-.4276-.01361-.0446-.03333-.0871-.05862-.1263-.03696.0289-.07041.0621-.09969.0989-.16569.2774-.29231.5763-.37627.8883-.13302.4766-.23071.9623-.29228 1.4533-.06712.4574-.1014.919-.10258 1.3813-.01246.4673.05307.9333.1939 1.379.06999.2126.17749.4109.3174.5856.05128.0623.11434.1154.17165.1729.00444-.001.00837-.0015.01256-.0023Z"/><path fill="#2B2B2B" d="M8.97363 11.3803s-1.16335.1636-1.65397.9637c-.49088.7997-.63192 2.175-.63192 2.175s-.2512 2.0512.58142 3.2457c-.52752-4.3803 1.70447-6.3844 1.70447-6.3844Z" opacity=".2"/><path fill="url(#q)" d="M6.85156 17.6969c-.00418.0008-.00811.0013-.0123.0018-.23285-.0948-.43414-.2536-.58063-.4579-.21124-.2962-.35242-.6366-.4129-.9954-.10017-.531-.12405-1.0737-.07092-1.6115.02617-.308.07144-.615.10859-.9214.00131-.011.00157-.0217.00262-.0439-.01884.0162-.03218.0254-.04291.0366-.88408.9098-1.5647 1.9972-1.99676 3.1899-.01003.035-.00929.0722.0021.1068.26505.8302.63582 1.6228 1.10317 2.3584.19572.3124.4116.6123.61857.9176.01623.0241.03507.0458.0649.0846.00732-.1536.08922-.2779.02616-.4284-.08621-.1901-.128-.3973-.1222-.606.00183-.0811.02891-.1596.07746-.2245.03716.1558.1115.3004.21665.4213.03505-.0554.04249-.1239.02015-.1856-.09168-.2472-.1346-.5099-.12638-.7734.00693-.0828.02227-.1645.04579-.2442.07668.1935.18976.3704.3331.5213.00727-.0093.01391-.0191.01989-.0293.186-.3822.42441-.7365.70832-1.0527.01282-.0152.01203-.0427.01753-.0641Z"/><path fill="#2B2B2B" d="M5.95117 18.7226s-1.30832-2.5604-.69603-4.7591c.07615-.0602-.12272.095-.35952.3674-.03611.0413-.47492 2.9447.41552 4.2248-1.19685-1.4198-.63009-3.9566-.68059-3.8826-.11062.1595-.20015.3325-.26637.515-.35454 1.6893.21839 3.4395 1.50326 4.5922l.08373-1.0577Z" opacity=".2"/><path fill="#E65270" d="M25.9728 27.9408c-.0541.0821-.1167.1648-.1664.2559-.0461.0824-.055.1806-.0246.27.023.1026.1248.1672.2274.1443l.0068-.0017c.0956-.0165.192-.0273.2889-.0324.1025-.0034.1099.0104.1214.1101.0018.0265.0072.0527.0159.0777.0256.1017.1077.1793.2107.1989.1023.0092.2003-.0431.2496-.1332.1311-.1801.0915-.4323-.0886-.5634-.0565-.0412-.1227-.0669-.1922-.0748-.0987-.0058-.1977-.004-.2962.0055-.0191.0008-.0379.0042-.057.0058-.0047-.0055-.0094-.0118-.0144-.0173.022-.0347.0493-.0658.0809-.0921.0709-.0407.1533-.0571.2344-.0466.5207.0869 1.0548-.0282 1.4936-.3216.2445-.1775.4428-.4111.578-.6813.0008-.0019.0026-.0037.0034-.0055.0178-.0492.0542-.1091.0058-.1466-.0435-.0174-.0922-.0168-.1353.0016-.1991.0654-.3925.1484-.594.2033-.2953.0707-.6002.0932-.9027.0667-.4091-.0154-.8134-.0938-1.1987-.2323-.4311-.157-.8268-.3979-1.1642-.7089-.0379-.0372-.0788-.0713-.1221-.102-.0741-.0492-.1246-.0249-.1275.0646-.002.0641.0042.1283.0186.1908.1344.6015.5388 1.1074 1.0958 1.3711.1484.0777.308.1324.4527.1934Z"/><path fill="url(#r)" d="M3.45502 16.1688c-.06046 2.198.74354 4.332 2.23932 5.9437-.02146-.1549-.04998-.3098-.06306-.4645-.02172-.264-.03559-.5288-.04841-.7941-.00108-.0502-.01732-.099-.04658-.1398-.58114-.8184-1.0884-1.6869-1.51581-2.5951-.22076-.4604-.38573-.9455-.49141-1.445-.03166-.1627-.04867-.3278-.07405-.5052Z"/><path fill="url(#s)" d="M22.1177 8.66505c.3012-.44727.5232-.94303.6562-1.46558.0132-.09205.0152-.18535.0061-.27789-.0356-.51293.0295-1.02785.1915-1.51582.0182-.0426.029-.08799.0319-.13423-.0029-.04001-.0184-.07806-.0445-.10859-.0314-.0369-.074-.02381-.1143-.00079-.1243.07384-.227.17905-.2978.3051-.144.2517-.2425.52682-.291.81273-.1425.77696-.1924 1.56809-.1486 2.35681.0028.00967.0063.01912.0105.02826Z"/><path fill="#8B4FBA" d="M22.2788 5.64963c.0924-.14987.2057-.28582.3365-.40375l.185-.11801c-.1762.46677-.2619.96283-.2525 1.46166 0 .42546.1311.82057.1518 1.24394.0167.3488-.1353.52412-.3164.80802-.0816.1277-.1931.40427-.3705.40532-.0638-.21737-.0878-.44448-.0709-.67038-.0024-.25827-.0437-.51025-.0335-.77113.0622-.66202.1863-1.31676.3705-1.95567Z" opacity=".4"/><path fill="#E65270" d="M28.6484 26.045c-.0079.0063-.0105.0073-.0113.0089-.1853.3801-.5684.6238-.9912.6306-.7038.0579-1.4104-.0703-2.0491-.3718-.2778-.1131-.5052-.323-.6403-.5908-.0507-.1275-.0932-.2581-.1274-.391-.1615.011-.2946.1311-.3218.2907.0003.0526.0138.1042.0392.1502.095.1784.2287.3332.3912.4532.4017.3176.8695.5409 1.369.6537.6477.1677 1.3287.1562 1.9704-.0333.1541-.0527.3028-.1203.444-.2017.1099-.0532.1714-.1727.151-.2931-.0123-.1354-.0984-.253-.2237-.3056Z"/><path fill="#2B2B2B" d="M28.6484 26.045c-.0079.0063-.0105.0073-.0113.0089-.1853.3801-.5684.6238-.9912.6306-.7038.0579-1.4104-.0703-2.0491-.3718-.2778-.1131-.5052-.323-.6403-.5908-.0507-.1275-.0932-.2581-.1274-.391-.1615.011-.2946.1311-.3218.2907.0003.0526.0138.1042.0392.1502.095.1784.2287.3332.3912.4532.4017.3176.8695.5409 1.369.6537.6477.1677 1.3287.1562 1.9704-.0333.1541-.0527.3028-.1203.444-.2017.1099-.0532.1714-.1727.151-.2931-.0123-.1354-.0984-.253-.2237-.3056Z" opacity=".4"/><path fill="#0D0D0D" d="M21.4783 19.4796c-.0057.2506.0487.499.1586.7243.2193.4378.5941.7781 1.0511.9543.3975.1653.8279.2364 1.2575.2075.0101-.0019.02-.0047.0296-.0084-.2945-.0441-.583-.1218-.8598-.2316-.4731-.1756-.8921-.4719-1.2155-.8593-.1729-.2132-.3065-.4555-.3945-.7156-.0079-.0241-.0178-.0476-.027-.0712ZM25.0253 15.8213c.4418-.2837.5699-.8718.2863-1.3136-.0056-.0087-.0114-.0173-.0173-.0259.0696.4642-.0256.9381-.269 1.3395ZM25.7964 18.4531c.2262.1718.5074.2551.7907.2342.1146-.0029.2287-.0217.3433-.0272.063-.0034.1261.0015.1879.0144.1156.0264.1672.0086.2067-.1023.0931-.2497.1278-.5173.1015-.7824-.0122-.1295-.0433-.2565-.0921-.3771-.2107-.4495-.746-.643-1.1955-.4323-.0191.009-.0379.0186-.0563.0288-.0576.0331-.1123.071-.1635.1133-.0544.0443-.1036.0955-.1602.1484.0252.029.0461.057.0697.0814.0529.0498.075.1242.058.1949-.0542.2042.0487.4174.2423.5019.1411.0727.2883.1329.4399.1798.078.0257.1577.0462.2384.0614.0202.0008.0399-.0065.0547-.0204.1182-.0741.2095-.1843.2603-.3142.0263.1011.0255.2073-.0023.308-.0157.0842-.0069.1712.0251.2506-.0023.0025-.0044.0051-.0063.0079-.0144-.0068-.0285-.0141-.0421-.0223-.1556-.085-.3279-.1351-.5048-.147-.2189-.0178-.4304-.0876-.617-.2036-.2171-.1382-.351-.3756-.3569-.633-.0005-.0083-.0018-.0162-.0047-.0384-.2153.3206-.1337.7546.1832.9752Z"/><path fill="url(#t)" d="M26.0929 17.6009c.0001.2461.1997.4456.4459.4456.2461-.0001.4456-.1997.4456-.4459-.0001-.2462-.1997-.4457-.4459-.4456h-.0003c-.246.0002-.4454.1998-.4453.4459Z"/><path fill="#fff" d="M28.0863 25.1135c.0847.0519.1955.0257.248-.0586.1839-.3598.1789-.787-.0133-1.1424-.0489-.0868-.1589-.1174-.2456-.0685-.0823.0465-.1148.1486-.0744.2341.1347.2434.1446.5367.0264.7886-.0502.0847-.0242.1939.0589.2468Z"/><path fill="#430A1D" d="M8.727 26.1546c-.11251-3.2234 1.8748-2.1749 2.759-3.5358.0612-.077.1108-.1625.1473-.2538-.9925.5463-3.77424.1813-2.9063 3.7896Z" opacity=".2"/><path fill="#2B2B2B" d="M7.21363 19.8705c2.72942-2.3497 8.11807-2.0933 8.51247-2.06-2.2603 1.6121-9.04103.0965-9.28961 5.0035-.38931-1.0468-.07815-2.2253.77714-2.9435Z" opacity=".2"/><path fill="#430A1D" d="M11.5762 22.4929s-.0003.7123 0 1.2154c.0002.503-.6322.2287-.8761-.4618.3676-.1469.6758-.4121.8761-.7536Z" opacity=".2"/><path fill="#430A1D" d="M11.2383 22.7318c.2998-.4778.2656-1.0928-.0856-1.5344.2599-.0136.7589-.5008.8777-.663.1555-.2825.2291-.6027.2127-.9247.3687-.0165.628-.2423.9634-.3224-.3338.2636-.6198.5827-.8454.9433-.1546.3326-.2843.6762-.388 1.0281-.088.2766-.16.5581-.2156.843-.0764.2302-.1241.4689-.1421.7107 0 0-.0471 1.8764.3291 2.803-.5176-.1932-.949-.5653-1.2159-1.0491-.1468-.2546-.4234-.8875-.0809-1.2907.2493-.1145.456-.3048.5906-.5438Z" opacity=".2"/><path fill="#0D0D0D" d="M4.56443 25.1692c1.37329 1.9359 3.41902 3.2902 5.73747 3.7983.794.1705 1.6051.2482 2.417.2313 1.9934-.0086 3.9865-.0036 5.9796-.0039 1.3407-.0005 2.6814-.0017 4.022-.0034.319.0105.6376-.0328.9422-.1279.2946-.0888.5355-.3023.6589-.5841.1775-.4552.0251-.9728-.3708-1.2591-.2863-.1982-.633-.2899-.9799-.2593-.0947.0047-.1894.0193-.2839.029-.0216.0044-.0438.0053-.0657.0026-.0302-.0087-.0598-.0196-.0884-.0327.0135-.0263.0306-.0507.0507-.0724.3608-.2982.6183-.7027.7356-1.1558.0431-.1674.057-.341.0408-.5131-.0011-.0136-.0021-.027-.0026-.0398-.0034-.0895.0269-.1172.1154-.1214.2606-.0121.5212-.0223.781-.0427.1243-.0099.247-.0403.387-.0492-.0165.0215-.0285.0532-.0502.0631-.1993.0889-.3496.2605-.4116.4697-.0868.249-.1289.5114-.1243.775.0207.417.1822.8146.4579 1.1281.2447.2873.5476.5194.8886.6811.044.0214.0555.0403.0403.09-.043.1387-.0391.2877.0113.4239.0283.0825.087.1513.164.1923.1782.1014.3937.1133.582.0322.0055.028.0102.0596.0172.0869.0566.2145.195.2998.4041.4254h.146c.006 0 .0115-.0154.0175-.0165.3277-.061.5438-.3762.4828-.7039l-.0027-.0133c-.0109-.0821-.0348-.163-.0507-.237.1667-.044.3386-.078.5026-.1353.7285-.2243 1.2861-.814 1.4695-1.5538.0991-.2914.017-.6138-.2096-.8221-.0141-.0229-.0186-.0505-.0128-.0767.0469-.2944.1196-.5867.1387-.8829.0554-.6783-.187-1.3472-.6641-1.8326-.0249-.0239-.0339-.0599-.023-.0927.0322-.1575.0691-.3148.0884-.4741.0331-.3046-.0765-.6073-.297-.8201-.0206-.0194-.0372-.0427-.0489-.0685-.0584-.1697-.1839-.308-.3472-.3826-.3221-.1584-.6871-.2076-1.0396-.14-.2316.0488-.4553.1296-.6646.24-.0811.0576-.1907.0537-.2675-.0094-.0146-.0129-.0379-.016-.0518-.028-.024-.0228-.0646-.0545-.0599-.0736.012-.0338.0379-.061.0712-.0745.1644-.0661.3398-.1003.517-.1008.1349.0015.2697-.0051.4038-.0196.4197-.0562.8228-.2007 1.1827-.4239.0241-.0154.0509-.0261.079-.0317.4758-.0744.8521-.4423.9373-.9163.0018-.0483.0126-.0959.0319-.1403.1899-.2907.2276-.6554.101-.9788-.0735-.2143-.1756-.4198-.2564-.6314-.0479-.1116-.0809-.2291-.0981-.3494-.024-.3351-.0789-.6673-.1638-.9924-.3474-1.4148-1.5615-2.4482-3.0136-2.5649-.0567.0003-.1071-.0359-.1251-.0897-.1439-.3488-.4318-.6181-.7894-.7384-.0911-.0375-.1933-.0376-.2845-.0003-.1319.0557-.2586.1232-.3783.2017-.299.2151-.5524.4873-.7458.8007-.0154.0236-.0329.0545-.0562.0623-.033.0127-.0696.0117-.1018-.0029-.0186-.0125-.0228-.0633-.0154-.0929.0129-.0351.0318-.0677.056-.0962.5242-.7568.8735-1.6208 1.0225-2.5293.0078-.0311.0242-.0594.0474-.0816.13-.1327.2648-.2606.3938-.3944.2007-.211.3394-.4733.4009-.758.0165-.0754.0269-.1519.0311-.229.0016-.0232-.0212-.04784-.0327-.07191-.0249.01439-.0573.02302-.0725.04371-.0353.0481-.0602.1033-.0926.1531-.0215.0329-.0495.0609-.0748.0926-.0065-.012-.0073-.0262-.0021-.0387.1397-.35152.2344-.71929.2818-1.09458.0131-.10492.022-.21142.0246-.31713.0021-.07693-.049-.1256-.1005-.10493-.0275.01367-.0521.0325-.0725.05547-.2102.19588-.445.36361-.6984.499-.0055-.00759-.0097-.01099-.0099-.01492-.0068-.03716-.0136-.07379-.0191-.11094-.0717-.43396-.1768-.86174-.3143-1.27954-.1126-.31598-.1478-.65433-.1028-.98673.0197-.20071.1191-.38514.2758-.51208.0135-.01292.0258-.02711.0366-.04239-.0144-.0094-.0299-.01713-.046-.02302-.2489-.08983-.5253.02277-.6406.26088-.0157.03166-.0366.06018-.0654.1078-.029-.04656-.0532-.09602-.072-.14758-.0484-.22298-.062-.45213-.0403-.67928.0341-.27695.1185-.54536.2489-.79205.0328-.06492.0603-.13239.0821-.20175.0338-.07938-.0032-.17109-.0826-.20483-.0258-.01097-.0541-.01478-.0819-.01104-.0661.00052-.1317.0121-.1939.03428-.3155.11416-.5766.34257-.7316.64003-.0134.02486-.0254.04945-.0401.07928-.1336-.11325-.2394-.2558-.309-.41657-.0412-.10715-.0896-.21136-.145-.3119-.0387-.07222-.0675-.07065-.1146-.00497-.0128.01779-.024.03715-.0379.05416-.0361.0437-.0641.04396-.0926-.00549-.0246-.04417-.0453-.0904-.0618-.13816-.0817-.22371-.2242-.42023-.4113-.56755-.0128-.00968-.0275-.01727-.0576-.03585.011.07196.0202.12769.0275.18369.0078.0573.0144.11461.0217.17505-.0087-.00006-.0173-.00129-.0256-.00366-.0186-.01178-.0372-.02407-.0553-.0369-.7582-.52409-1.6083-.90089-2.5059-1.11076-.2829-.03563-.5578-.11842-.8133-.24491-.006-.00322-.0122-.00601-.0185-.00838-.0431-.01979-.0941-.00758-.1235.02957-.0288.02363-.0652.03584-.1024.03428-.1106-.00262-.2208-.02695-.331-.03611-.1021-.0105-.2033-.02914-.3024-.05574-.1665-.04212-.3284-.20409-.4922-.20409h-.1196c-.0382 0-.0835.1099-.1144.14836-.0541.06777-.1206.14706-.2056.15255-.563.03347-1.1217.11834-1.6692.25355-.8334.19252-1.6221.5437-2.3228 1.03436-.5177.35618-.9503.82243-1.2667 1.36536-.0616.11478-.1167.23298-.1648.35403-.0403.09015-.0459.19198-.0157.286.0175.07541.0909.12398.1672.11068.434-.05312.8706.07569 1.2062.35587.3558.24993.6285.60073.7829 1.00714.2302.56564.1023 1.21395-.3255 1.64979-.0434.04919-.0926.09367-.1455.14705-.0198-.07457-.0363-.14234-.0559-.21011-.0859-.33298-.2477-.64153-.4729-.90143-.1373-.15098-.1918.02773-.1572.30117.0794.55307-.1097 1.11087-.509 1.50167-.0276.0252-.0606.0437-.0965.0542-.4265.1512-.8559.2946-1.28008.4524-.75773.2773-1.48796.6247-2.18123 1.0375-.00942.0055-.01936.0107-.02957.0162-.06052-.0374-.09514-.1054-.08975-.1763.00366-.0942.0191-.1884.03009-.2824.00105-.0112.00471-.0217.00576-.0327.0225-.1661-.04239-.2203-.19547-.146-.07793.0407-.14675.0969-.20226.1651-.16527.2164-.29697.4564-.39067.712-.05547.1324-.09943.2695-.15543.4017-.02047.05-.05206.0947-.09236.1308-.60567.5011-1.15334 1.0684-1.63278 1.6914-.40581.539-.75234 1.1202-1.03357 1.7335-.00707.0162-.01518.0319-.02303.0476-.00209.0037-.00628.0055-.01518.0136-.09176-.535-.11069-1.0801-.05625-1.6202-.04318.1612-.09106.3216-.12874.4841-.15153.6516-.20411 1.3224-.15596 1.9897.0008.0353-.00488.0704-.01674.1036-.89164 2.7762-.40627 5.8111 1.30675 8.1707h-.00001.00001Zm-.544-7.0503c.42741.9083.93468 1.7768 1.51582 2.5952.02907.0409.04529.0896.04658.1398.01282.2653.02669.5298.04841.7941.01308.1554.0416.3103.06306.4645-1.49578-1.6117-2.29978-3.7457-2.23932-5.9437.02564.1771.04239.3425.07405.5047.10567.4997.27064.9849.4914 1.4454ZM9.636 11.3631c-.00108.0073-.00292.0145-.0055.0214-.01099.0162-.02276.0325-.03427.0489-.50022.695-.90685 1.4527-1.20941 2.2538-.21934.5742-.36537 1.1739-.43463 1.7848-.04814.429-.04814.862 0 1.291.00262.0202.00236.0518-.00942.0605-.0976.0698-.19808.1358-.30065.2043-.0068-.0248-.0123-.0413-.01596-.0591-.16638-.7046-.23427-1.4289-.20174-2.1522.01931-.4646.11386-.923.27998-1.3573.00421-.0126.00771-.0254.01046-.0384-.05452.0779-.10256.1602-.14365.2459-.30494.6657-.46682 1.3879-.47518 2.12-.01799.6637.04004 1.3272.17296 1.9777-.14258.0371-.29418.0124-.41762-.068-.00549.0217-.00497.0492-.01753.0638-.28368.3164-.52206.6707-.70832 1.0527-.006.0102-.01265.02-.01989.0293-.14306-.1511-.2561-.328-.3331-.5212-.02359.0795-.03893.1614-.04579.2441-.00826.2636.03466.5262.12638.7735.02234.0616.0149.1301-.02014.1855-.10521-.1209-.17955-.2654-.21666-.4213-.04848.065-.07554.1435-.07746.2245-.0058.2087.03599.4159.1222.606.06306.15-.01858.2748-.02616.4284-.02983-.0388-.04894-.0602-.0649-.0845-.20697-.3054-.42285-.605-.61857-.9177-.4674-.7355-.83817-1.5282-1.10317-2.3584-.01139-.0345-.01212-.0717-.0021-.1067.43209-1.1928 1.11271-2.2801 1.99676-3.19.01073-.0112.02407-.0204.04291-.0366-.00105.022-.00131.033-.00262.0439-.03715.307-.08242.6139-.10859.9214-.05314.5378-.02926 1.0805.07092 1.6116.06064.3587.20181.699.4129.9953.1466.2044.34797.3631.58089.4579-.06015-.0547-.11753-.1124-.17191-.1729-.13985-.1747-.24734-.3731-.31739-.5856-.14101-.4457-.20654-.9117-.1939-1.379.00091-.4623.03519-.9239.10257-1.3813.06165-.491.15934-.9767.29228-1.4533.08385-.312.21048-.611.37627-.8883.02942-.0367.06286-.0698.0997-.099.02508.0394.04479.0819.05861.1264.04054.1394.0428.2871.00654.4276-.20496.5915-.33335 1.2068-.38203 1.8308-.01151.1314-.01491.2633-.02224.3946.03271-.1182.04998-.2381.07431-.3558.14299-.7788.54126-1.4878 1.13196-2.0151.05801-.0508.12198-.0944.19049-.1298.43408-.2237.88271-.4179 1.34286-.5814.06777-.0238.13554-.0474.20855-.0727Zm13.3676-6.09132c-.0029.04624-.0137.09164-.0319.13424-.1622.48791-.2273 1.00288-.1916 1.51581.0092.09254.0072.18584-.006.27789-.1331.52254-.3551 1.01829-.6562 1.46558-.0041-.00882-.0075-.01791-.0102-.02721-.0436-.78872.0063-1.57981.1486-2.35681.0485-.2859.147-.56102.291-.81273.0709-.12594.1736-.23112.2977-.3051.0401-.02276.0827-.03611.1144.00079.0259.03018.0414.06788.0442.10754Zm.3268 4.19133c-.1244.09165-.2558.17336-.393.2444-.4881.22857-.9886.42939-1.4993.60159-.0988.0377-.193.0865-.2808.1455-.169.1188-.3113.2718-.4176.449-.0539.0821-.1044.1669-.1567.2504.0026-.0266.0083-.0527.017-.078.0596-.203.1277-.4045.1755-.6107.0629-.2851.1755-.5568.3326-.8028.0866-.13319.1832-.26062.2677-.3959.0537-.08569.0996-.17607.1371-.27003.0163-.05955.0258-.12072.0285-.18238-.0089-.00445-.0175-.0089-.0269-.01309-.0283.02071-.055.04354-.0798.0683-.0929.10649-.1821.21666-.2774.32132-.0225.02589-.0558.03982-.09.03768-.0277-.01991-.0437-.05227-.0427-.08635.0058-.11607.0242-.23117.0547-.3433.0497-.14993.1282-.29045.1863-.43881.0288-.07362.0469-.15099.0537-.22974.0031-.03664-.0325-.07641-.05-.11435-.0331.01844-.0641.04028-.0926.06515-.0456.04789-.0819.10388-.1288.15098-.0463.0458-.0892.03821-.1159-.02014-.0225-.04041-.0335-.08619-.0319-.13241.016-.10388.0442-.20593.0706-.3085.0246-.09315.0594-.18526.0785-.27919.0164-.06713-.0117-.13721-.0698-.17453-.0193.0244-.0364.0505-.051.07797-.0262.056-.0469.11461-.0712.17061-.0563.12926-.1057.26297-.1722.387-.0586.10911-.1164.09943-.1795-.00654-.1219-.20724-.2426-.41605-.3789-.61387-.0736-.10216-.1186-.22212-.1303-.34749-.0152-.16903-.0235-.33964-.0413-.50893-.0038-.07291-.0374-.14105-.0929-.1884-.0147.07143-.027.13005-.0385.18892-.0173.08635-.029.17427-.0528.25879-.0165.05966-.0644.06567-.0942.01256-.0277-.04943-.0445-.10421-.0492-.16067-.0074-.10362.0021-.20776-.0034-.31164-.0046-.04811-.0171-.09514-.0369-.1392-.0076-.0191-.033-.03193-.0503-.04763-.0134.01809-.0246.03767-.0335.05835-.0064.02568-.0107.05185-.0128.07824-.0112.07641-.0175.15465-.0356.22896-.0191.08085-.0698.09446-.1201.02904-.0463-.06105-.082-.12953-.1054-.20252-.0354-.11147-.0503-.22818-.084-.34069-.0199-.05309-.0489-.10231-.0856-.14549-.0184-.01773-.0442-.02544-.0693-.02067-.0149.00393-.0296.0382-.0304.05966-.0018.08583.0016.17218.0029.25826.0003.04266 0 .08531 0 .13136-.0245.00004-.0474-.01225-.061-.03271-.0891-.09054-.1474-.20694-.1664-.33257-.0081-.05731-.011-.11461-.0217-.17087-.0042-.05211-.0498-.09098-.1019-.08682-.0062.0005-.0124.00162-.0185.00335-.0709.00837-.1159.05992-.123.14993-.0049.05861-.001.11723-.001.18474-.0806-.04135-.1523-.07929-.225-.11514-.7383-.36507-1.5343-.59942-2.3527-.69262-.5294-.07013-1.0666-.05546-1.5914.04344-.3196.05372-.6227.17963-.8862.36816-.0388.02878-.0744.06227-.1115.09367.2225-.14252.4703-.24078.73-.2894.4782-.08418.9671-.08719 1.4462-.00889.8419.12132 1.6553.39269 2.4013.80121.5863.30549 1.1081.7213 1.5368 1.22459.0322.0382.0625.07823.0926.11748-.8726-.41683-1.8583.36738-2.8443.01937 1.3513.69655 2.1514-.2007 2.9134.37993.1939.14758.2284.5283-.2148.46446-.4229-.06045.6369.14888.8268 1.25023-.0112.18498-.0369.36879-.0769.54977-.1869.8114-.5615 1.5676-1.0938 2.2079-.5456.6574-1.2246 1.1915-1.992 1.5668-.0131.0033-.0258.0076-.0382.0129.0006-.0055.0018-.011.0034-.0163.0107-.017.0217-.0337.0327-.0502.3788-.5326.6547-1.1312.8135-1.7652.1112-.4354.1018-.893-.0272-1.3235-.1585-.4716-.4663-.87868-.8768-1.15967-.46-.3199-.9719-.55786-1.513-.70335-.1151-.03428-.2323-.06464-.3626-.10048.0146.0157.0162.01988.0198.02119.0223.00942.0451.01806.0678.02695.3773.14109.7338.33253 1.0598.56912.4687.32722.8106.80584.9681 1.35544.1253.4957.1199 1.0155-.0157 1.5085-.1697.6396-.4426 1.2472-.808 1.7989-.0706.1245-.1866.2167-.3237.2575-.1766.0521-.3493.1198-.5403.1873.4377-.5191.6052-1.2143.4519-1.8758-.002.0064-.0035.013-.0045.0196-.0209.382-.1491.7503-.3697 1.0629-.3298.4632-.7625.8438-1.2641 1.1118-.0414.0186-.0845.033-.1287.0429.1798-.2005.3157-.4364.3987-.6926.0797-.2537.0981-.5226.0537-.7848-.0674.2507-.1869.4843-.3507.6856-.3114.3994-.6828.7481-1.101 1.0338-.28.1937-.5818.3536-.8994.4763-.5686.2005-1.1494.365-1.7387.4924-.5145.1259-1.02837.2564-1.53887.399-.28145.0724-.54583.1996-.77793.3745-.07457-.2179-.11568-.4459-.12194-.6762-.03375-3.0473 2.39104-4.6761 3.13004-5.5286.2018-.2561.3534-.548.4466-.8604.044-.12481.0817-.25145.123-.38098.0063.00692.0121.01427.0173.02198.2289.37752.3122.8256.2342 1.2602-.1232.6948-.4613 1.3335-.9666 1.8261-.0058.0055-.0105.0126-.0288.0335.0259-.0133.0351-.0167.0437-.0225.4392-.2451.8363-.5591 1.1762-.9299.5595-.6113.8842-1.4011.9163-2.22915.0053-.36957-.0196-.73895-.0743-1.10449-.1139-.97463-.8258-1.77366-1.7809-1.99884-.0728-.01698-.1434-.04273-.2101-.07667-.0845-.03788-.1223-.13709-.0844-.22158l.002-.00424c.0134-.03506.0305-.06857.051-.09995.1669-.26234.3892-.48492.6513-.65207.1363-.08661.2727-.17296.404-.2669.5307-.38894 1.1265-.68011 1.7594-.85983.2611-.08552.5354-.12354.8099-.11225.0871.00707.1719.03925.2585.04945.0394-.00338.0778-.01431.1131-.03218-.0215-.02329-.0385-.05521-.0649-.07013-.1668-.08848-.3529-.13398-.5417-.1324-.2766.00047-.5522.03358-.8211.09865-.0278.00421-.0559.00683-.084.00785.2177-.18458.4725-.32029.7471-.39799.4449-.12989.9106-.17332 1.3719-.12796.1508-.00057.2999.03232.4364.0963.1345.07588.2758.13946.415.20697.0312.01297.0632.0239.0958.03271.0047-.00549.0094-.0102.0144-.0157-.013-.03813-.0282-.07552-.0453-.11199-.0502-.09839-.1049-.19442-.1554-.2928-.0061-.02213-.0081-.04518-.006-.06804.0205-.00446.0417-.00535.0625-.00261.1079.03201.2138.07028.3171.11461.1436.06329.298.09838.4548.10335.2156.01492.4318.03533.6461.06594.3027.03573.5683.21866.7096.48879.0364.06568.0751.13005.1146.19416.0154.02202.0323.043.0505.0628.0076-.00341.016-.00628.0236-.01047-.049-.16747-.0979-.33467-.1495-.51129.1842.0513.3475.15912.4671.30824.0681.07902.1288.16354.196.24256.0296.02961.0615.0569.0953.08164.0088-.00497.018-.0089.0272-.01413-.0131-.11199-.0265-.22372-.039-.33624.0065-.00235.0136-.00497.0206-.0068.1013.06175.2018.12534.3033.18709.3519.1937.6613.456.9101.77138.0332.04553.0581.03899.0756-.01622.0217-.06934.0358-.14104.0597-.20985.007-.02094.0361-.04946.0528-.04841.0273.00448.0508.02154.0636.04605.0153.04582.024.09356.0259.14182.0065.09682.0042.19416.0144.29045.0031.02957.0345.05704.0534.08452.0248-.02198.0588-.03925.0719-.06699.0385-.07928.067-.16328.1029-.24413.0329-.07484.0526-.07615.1004-.01256.0508.09088.1477.14611.2518.14339.1099-.00837.1237-.00026.1646.10205.0698.17453.1292.35246.2009.52594.034.08269.0861.15805.1272.2376.0118.01923.0167.04195.0138.06437-.1335.46854-.1976.9541-.1904 1.44124-.0045.45137.0044.90274-.011 1.35332.0175.3536-.1021.70033-.3339.96789.0355-.01082.0701-.02465.1033-.04134.1659-.08995.312-.2123.4297-.35979.2555-.32587.4585-.6897.6016-1.07831.1253-.30824.2517-.61622.3833-.92184.0379-.07504.0834-.14597.1358-.21169.0118-.01622.0466-.0348.0599-.028.022.01299.0371.03501.0414.06018.006.05036.0075.10115.0044.15177-.0236.2513-.0198.50442.0113.7549.0103.03808.0129.07786.0076.11696-.0832.34683-.2287.67561-.4297.97025-.0065.00916-.0107.02041-.0243.04632.1365-.06149.2528-.16026.3357-.28495.0824-.11801.1546-.24335.236-.37366.0343.13973.0672.27422.1002.40872.053.17691-.0157.36769-.1693.47021v.00001Zm.1712 2.01929c-.3924.3523-.8408.6368-1.3267.8417-.6531.2879-1.3332.5101-2.0302.6634-.2489.0578-.4993.1078-.7651.1648.107-.1327.2017-.2515.299-.3689.0131-.0112.0295-.0177.0466-.0186.4335-.0467.8578-.1565 1.2594-.326.9188-.3949 1.7505-.9674 2.4474-1.6846.0061-.007.0116-.0144.0164-.0223-.0218.0072-.0423.018-.0607.0319-.5984.4213-1.2234.8034-1.8711 1.144-.4111.2247-.8464.4021-1.2974.5289-.1075.0274-.2174.0458-.3433.0714.0176-.0298.0244-.0408.0307-.0523.1434-.2507.3011-.4954.4257-.7555.0748-.1544.1866-.288.3255-.3888.5236-.3818 1.0835-.7112 1.6715-.9836.0101-.0023.0203-.0039.0306-.005-.1842.3663-.4674.6735-.8174.8868.4014-.0513.7748-.2331 1.0626-.5176.2831-.2362.5571-.4851.8441-.71796.1465-.12433.3066-.2316.4773-.31976.1853-.07758.376-.14134.5707-.19075.0571-.01427.1152-.02477.1737-.0314-.0155.11012-.0374.21925-.0656.32682-.2166.65835-.5963 1.25125-1.1037 1.72335Zm-3.5281 5.1718c-.1415.0809-.2911.1468-.4464.1965-.3179.0803-.6461.1129-.9736.0965-.2324-.0005-.4647-.0036-.6968-.001-.0586.0051-.1166.015-.1735.0295-.0003.0108-.0008.0215-.001.0325.0499.0191.0986.0424.1496.057.1617.0461.3242.0874.4857.1324.0313.0116.0617.0254.091.0414l-.0031.0188c-.0207.0101-.0421.0185-.0641.0251-.3245.0641-.6476.1426-.975.1892-.5546.0705-1.1031.1836-1.6403.3383-.0464.014-.0948.0198-.1432.0171-.5427-.0375-1.0854-.0762-1.628-.1162-.6264-.0512-1.2561-.0464-1.8817.0144-.7082.0751-1.4034.2438-2.0674.5016-.94744.379-1.83684.8896-2.64199 1.5166-.01387.0104-.02695.023-.04056.0343.02396-.0053.04675-.0148.06725-.0283.74012-.4507 1.51821-.8359 2.3254-1.1511.6847-.2645 1.398-.4484 2.1252-.5479.5273-.0641 1.0583-.0916 1.5894-.0824.5945.0031 1.1898 0 1.7843-.0003.0078 0 .0154.0011.024.0019-.0021.0047-.0023.0075-.0034.0083-.0141.0058-.0282.0121-.0426.0176-.5317.2018-1.0345.4729-1.4954.8062-.1372.1007-.2879.1816-.4477.2402-.1238.0468-.2484.0926-.3747.1324-.6528.184-1.3167.3263-1.9876.4259-.55.0992-1.0998.201-1.64511.3214-.49833.1046-.97804.2837-1.42292.5314-.74087.3941-1.24124 1.1267-1.33894 1.9601-.01936.1374-.03035.2766-.04422.3999-.02669-.0498-.05573-.1099-.09001-.1675-.29669-.4789-.48654-1.0162-.55656-1.5752-.10435-.7303.15269-1.4657.68922-1.9719.02194-.0242.03979-.0518.05286-.0817.08007-.1622.14627-.3325.23942-.4861.27166-.4222.63461-.778 1.06209-1.0412.56322-.3552 1.16964-.6368 1.80444-.8378.99913-.3209 2.01903-.5732 3.05253-.7552.8395-.1614 1.6807-.3164 2.5199-.4794 1.4877-.2644 2.8615-.9704 3.9424-2.0263.0244-.0207.0552-.0321.0872-.0324.3959-.0095.7904-.0502 1.1798-.122 1.0783-.2048 2.1017-.6334 3.0042-1.2581.0149-.0096.0309-.017.0557-.0321-.0055.0327-.0078.0523-.0125.0711-.0755.3409-.178.6751-.3067.9996-.5986 1.551-1.7277 2.8396-3.1866 3.6369Zm8.7723 8.3044c-.0306.2609-.0766.5198-.1376.7753-.0701.3755-.3508.6767-.7204.7732-.1742.0508-.3549.0758-.5364.0743-.3559-.0041-.71-.0519-1.0542-.1423-.2893-.0642-.5656-.1772-.8169-.3342-.2403-.1435-.4145-.3757-.4849-.6466-.0362-.1757-.0366-.3568-.0013-.5327.0052-.0609.0482-.1119.1073-.1274.5646-.2018 1.0294-.6139 1.2973-1.1503.0283-.0688.0933-.1154.1675-.1201.2679-.0447.5432-.0056.7881.112.149.0802.3285.0796.477-.0016.0654-.0321.1275-.0705.1855-.1146.0717-.0547.1369-.1183.2162-.1879.0053.0106.0116.0208.0185.0304.3837.4364.5635 1.0155.4943 1.5925Zm-4.2128 1.1639c.0435.0304.0843.0644.1222.1015.3374.3109.7331.5518 1.1642.7088.3852.1385.7895.2169 1.1987.2324.3025.0262.6073.0037.9027-.0667.2015-.055.3948-.1379.594-.2034.0431-.0184.0917-.019.1352-.0015.0485.0374.0121.0968-.0057.1465l-.0034.0055c-.1353.2702-.3335.5039-.578.6814-.4388.2934-.973.4084-1.4936.3216-.0811-.0108-.1636.0056-.2345.0465-.0334.0191-.0541.0605-.0808.0921.005.0055.0097.0118.0144.0173.0191-.0021.0379-.0055.057-.0057.0985-.0098.1975-.0117.2962-.0055.2214.025.3805.2248.3554.4462-.0078.0694-.0335.1355-.0746.192-.0496.0898-.1474.1419-.2496.1331-.1029-.0197-.1851-.0972-.2107-.1988-.0086-.0251-.014-.0512-.0159-.0777-.0115-.0997-.0189-.1136-.1214-.1102-.0969.005-.1934.0158-.2889.0324-.1017.0268-.2058-.034-.2325-.1356l-.0017-.007c-.0304-.0894-.0215-.1875.0246-.27.0494-.0905.1122-.173.1664-.2559-.145-.0604-.3043-.1151-.4524-.1921-.5572-.2636-.9615-.7695-1.0959-1.3711-.0145-.0625-.0208-.1266-.0185-.1907.0028-.0906.0531-.1149.1271-.0655v.0001Zm.2957-.7916c.0343.1329.0768.2634.1274.3909.1352.2678.3626.4776.6403.5909.6387.3014 1.3453.4296 2.0491.3718.4228-.007.8058-.2506.9912-.6306.0008-.0016.0034-.0026.0113-.0089.1256.0528.2118.1709.2237.3067.0204.1203-.0412.2396-.151.2928-.1411.0815-.2898.1491-.444.2017-.6417.1895-1.3227.201-1.9704.0332-.4995-.1126-.9673-.336-1.369-.6536-.1627-.1199-.2963-.2748-.3912-.4532-.0253-.046-.0388-.0976-.0392-.1502.027-.1599.16-.2804.3218-.2915Zm-20.70988-3.32c-.37496-.6358-.64671-1.3271-.80514-2.048-.00098-.469.0341-.9374.10493-1.401.01622-.1078.03768-.2148.05625-.3223.01616.0166.02739.0373.03245.0599.07824.2598.14627.5233.23576.7792.47788 1.3255 1.17876 2.5596 2.07238 3.6489.03313.0408.05882.0872.07588.1369.18712.5798.46496 1.1263.82319 1.6192-.3972-.1693-.84988-.2303-1.38891-.8507.66227 1.2772 2.23121 1.7832 2.23121 1.7832.86506.7642 1.8976 1.3145 3.01438 1.6064.0908.0248.1826.0447.2745.0667-.019-.0164-.0412-.0287-.0652-.0361-.83322-.2941-1.61279-.7224-2.30786-1.268-.86586-.6628-1.53052-1.5531-1.91982-2.5717-.04867-.1041-.05541-.223-.01884-.332.0293-.0785.04448-.162.06881-.2423.16743-.6018.49138-1.1485.93885-1.5844.44496-.4018.97959-.6913 1.55925-.8444.69798-.1789 1.40881-.3034 2.12601-.3723.4142-.0539.8263-.1193 1.2393-.1824.1109-.0165.2205-.044.3385-.0683-.0048.0091-.0101.0179-.0159.0264-.3217.3598-.5924.7619-.8046 1.1953-.0149.029-.0401.0513-.0707.0626-.1888.0672-.381.1242-.5759.1708-.2902.0578-.5869.0801-.8771.1371-1.55612.3091-2.03574 1.1427-2.02868 1.1351.47256-.5018 1.22877-.6434 1.42842-.713.46386-.1499.95016-.218 1.43736-.2012.1428.0021.2854.0104.4325.0162-.4481 1.3773-.3721 2.8716.2135 4.1963-.0004-.0254-.0043-.0507-.0115-.0751-.2467-.873-.3127-1.7871-.1939-2.6865.1458-1.077.6547-2.0721 1.4426-2.8207.6045-.5637 1.304-1.0161 2.066-1.3361.7242-.3018 1.4744-.537 2.2412-.7026.5746-.1384 1.1516-.2742 1.7189-.4414.7566-.2128 1.4531-.5995 2.0339-1.1291.0932-.0815.1793-.1708.2572-.2671.478-.6364 1.11-1.1406 1.8366-1.4653.0561-.1786.1428-.346.2562-.4948.1841-.2374.4018-.4467.6463-.6212.0735-.0492.1568-.0821.2441-.0963.0779-.0202.1574.0265.1776.1044.001.0036.0018.0073.0024.011.0081.0251.0145.0507.0191.0766.0532.0188.1029.0463.1471.0814.0331.0255.0647.0531.0945.0824.1315.1381.2364.2993.3093.4755.0118.0334.0427.0563.0782.0578.0918.0121.1839.0249.2747.0424 1.4889.2747 2.6091 1.5128 2.7339 3.0217.0059.1455.0257.29.0591.4317.0647.1712.1395.3383.224.5006.0673.1463.1411.2897.1991.4399.0599.1516.0672.3189.0207.4751-.0159.0555-.0484.0702-.0916.0432-.0607-.0382-.1154-.0861-.1732-.1292-.067-.0564-.1379-.108-.2122-.1544-.0627-.0375-.1437-.0219-.1879.0363.0115.0082.0225.0169.033.0262.1518.1353.304.2693.4535.4072.0192.0199.0297.0468.029.0745-.0064.21-.0906.4102-.2363.5616-.1742.2055-.4485.2969-.7112.2368-.0073.1065-.0146.1248-.0759.1577-.3881.2213-.8276.3363-1.2743.3337-.3265.0022-.6464.0926-.9257.2616-.0894.052-.1848.0927-.2842.1212-.3119.0754-.6316.1139-.9525.1149-.0264.0005-.0523.002-.0785.0034.0129.0147.0303.0246.0495.0282.2554.0561.5178.0727.7782.0492.0841-.0162.1707-.0144.2541.0055.2161.0879.4257.1931.6337.3001.0499.0328.112.0411.1688.0225.1321-.0494.2648-.0983.3935-.1557.265-.1316.562-.1848.8562-.1533.1655.0156.3258.0657.4707.1471.0977.0474.1638.1421.1746.2501.0043.0189.0149.0358.03.0479.0388.0359.0817.068.1207.1036.1115.0987.1675.2459.1496.3938-.0123.1309-.051.1526-.1648.0947-.0496-.0378-.1175-.0404-.1698-.0065.073.0466.1444.0885.2127.1355.0951.0657.1469.1779.135.2928-.046.3585-.3739.6117-.7323.5656-.0069-.0009-.0137-.0019-.0205-.003-.1135-.0152-.2145-.0798-.2758-.1766-.0105-.0161-.0279-.0264-.0471-.028-.0895.0007-.1789.0086-.2671.0238-.1547.0475-.3175.0621-.4781.0429-.0751-.0144-.1491-.035-.2269-.0528-.06.2072-.1599.4007-.2941.5696-.3065.3796-.7206.6577-1.1879.7978-.6024.1885-1.2404.2337-1.8633.1322-.8615-.0904-1.5968-.6626-1.896-1.4755-.0759-.2165-.1409-.4367-.1947-.6597-.1018-.355-.2451-.6969-.4268-1.0184-.279-.5176-.7024-.943-1.2186-1.2246-.5829-.301-1.2514-.3933-1.8941-.2614-.1251.0223-.2481.0544-.3865.0856.241.0144.4626.0193.6821.0416.6058.0548 1.19.2517 1.7053.5749.6234.358 1.0815.9462 1.2761 1.6382.1043.3909.2484.77.4299 1.1315.1131.2453.2615.4727.4404.6751.3085.3144.6989.5359 1.127.6395.1319.0369.2627.0777.3928.1196.0618.0207.1101.0695.13.1316.0727.1816.0913.3805.0537.5725-.0638.3-.2065.5775-.4135.8038-.1806.1919-.386.3588-.6107.4964-.1067.0709-.2089.1482-.3061.2316-.0852.0678-.1332.1719-.1296.2807.0092.1997.021.2313.2198.1651.0312-.0104.062-.0227.0924-.0361.1625-.0698.3242-.141.4875-.2093.3048-.1378.6462-.1726.9726-.0992.3571.0672.6464.3289.7489.6775.029.0731.025.1553-.011.2253-.0242.0373-.0635.0621-.1076.068-.0337.0011-.0735-.0374-.1012-.0675-.017-.0188-.0165-.0539-.0241-.0816-.0249-.144-.1137-.2689-.2415-.3397-.0279-.0109-.0566-.0194-.0858-.0254.1862.1762.2868.4245.2755.6806-.0055.1843-.1594.3292-.3436.3236-.0094-.0003-.0187-.0009-.028-.002-.0538.0043-.1014-.035-.1073-.0887-.0081-.0699-.0049-.1405-.0062-.2109.0021-.0838-.0005-.1677-.0079-.2512-.0151-.1273-.1069-.2321-.231-.264-.0606-.0182-.1259-.0108-.1808.0204.0815.0061.1556.0496.2006.1177.0426.0721.0761.1492.0997.2295.0611.1618.005.3444-.1363.4441-.0782.0444-.1652.0714-.2548.079-.1857.0111-.3718-.0122-.549-.0688-.1089-.0266-.2205-.0408-.3326-.0424-.1059.0041-.2113.0177-.3148.0405-.6343.0803-1.2748.0998-1.9127.0581-.6968-.0086-1.3937-.0044-2.0905-.0049-1.2473 0-2.495-.0002-3.7431-.0006-.5152 0-1.0307.0053-1.5459.0019-.7084 0-1.4141-.0889-2.1003-.2648-2.61747-.6846-4.57629-2.1015-5.86733-4.4766-.55896-1.0353-.90203-2.1733-1.00845-3.3451-.01386-.1361.76799 1.3193.76041 1.1764h-.00001Z"/><path fill="#E65270" d="M24.5832 15.8406c-.2196-.4681-.2222-.6659.0207-1.1089.1831-.3344.6698-.0369.6039-.4103-.0726-.2869-.2215-.5489-.4307-.7583-.0775-.0918-.1207-.1821-.235-.1588-.1046.0235-.2029.0694-.2881.1345-.3013.2154-.5697.4735-.7968.7661-.4037.5388-.2373.8656.2355 1.2953.2684.1622.577.2455.8905.2404Z"/><path fill="#2B2B2B" d="M24.1455 14.0637c.1479-.1431.3112-.2693.4869-.3763.1005-.0664-.1986.7502-.2857.9682-.2857.7141.0887 1.1565-.0144 1.1018-.2846-.1855-.4891-.4713-.5728-.8007.0201-.3337.1567-.6497.386-.893Z" opacity=".2"/><path fill="#0D0D0D" d="M24.4928 15.797c-.2198-.4679-.2222-.6657.0209-1.1087.1888-.3134.2603-.6837.2017-1.0448-.0065-.0421-.0162-.0837-.029-.1243-.039-.1123-.1078-.1672-.2222-.1437-.1075.018-.2101.0586-.3009.1191-.3013.2154-.5697.4735-.7967.7661-.3098.4132-.2758.6953-.0411 1.0085.0436.0649.1169.1036.1952.1031.112.0212.1347-.1348.0992-.1978-.0753-.124-.125-.2618-.146-.4054-.0016-.2985.1154-.5854.3252-.7978.2182-.2443.486-.4392.7855-.5717.0201.3085-.0304.6175-.1476.9035-.0978.2698-.394.762-.3197 1.0828.0446.1378.1179.2646.2151.3721.1107.0748.1604.0389.1604.0389v.0001Z"/><path fill="#8B4FBA" d="M11.1528 21.1973c-.0279.0029-.056-.002-.0814-.014.0279-.0015.0557.0033.0814.014Z" opacity=".2"/><path fill="#430A1D" d="M24.6791 25.1198c.2567-.3899.5453-.5218.8714-.8287.31-.2913.5481-.6427.8569-.9287.253.0265.5076.0339.7617.0223.1774.438 1.0388.0212 1.1176-.2614l.1143.1714c.2483.489-.6424.5217-1.1495.471-.3558-.0354-1.8918.3684-1.8413 2.3494-.173.2656-.5804.0063-.5809.3525-.0003.3543.0055.9791.3117 1.2047-.0877.309-.392-.0178-.476-.1416-.233-.3336-.4079-.7042-.5173-1.0961-.1031-.561.2506-.8886.5314-1.3148Z" opacity=".2"/></g><defs><linearGradient id="b" x1="10.533" x2="3.08374" y1="-2.22498" y2="32.5366" gradientUnits="userSpaceOnUse"><stop offset=".3836" stop-color="#FAA100"/><stop offset=".6584" stop-color="#BF73F2"/><stop offset=".6649" stop-color="#C370E6"/><stop offset=".6852" stop-color="#CC68C7"/><stop offset=".7081" stop-color="#D461AB"/><stop offset=".7341" stop-color="#DB5B95"/><stop offset=".7643" stop-color="#E05784"/><stop offset=".8017" stop-color="#E35479"/><stop offset=".8543" stop-color="#E55272"/><stop offset="1" stop-color="#E65270"/></linearGradient><linearGradient id="c" x1="14.7346" x2="6.79984" y1="-2.68987" y2="34.3379" gradientUnits="userSpaceOnUse"><stop offset=".3836" stop-color="#FAA100"/><stop offset=".6584" stop-color="#BF73F2"/><stop offset=".6649" stop-color="#C370E6"/><stop offset=".6852" stop-color="#CC68C7"/><stop offset=".7081" stop-color="#D461AB"/><stop offset=".7341" stop-color="#DB5B95"/><stop offset=".7643" stop-color="#E05784"/><stop offset=".8017" stop-color="#E35479"/><stop offset=".8543" stop-color="#E55272"/><stop offset="1" stop-color="#E65270"/></linearGradient><linearGradient id="d" x1="16.0374" x2="15.5652" y1="-.344319" y2="21.6217" gradientUnits="userSpaceOnUse"><stop stop-color="#FAA7B5"/><stop offset=".3836" stop-color="#FAA100"/><stop offset=".7317" stop-color="#BF73F2"/></linearGradient><linearGradient id="e" x1="10.1722" x2="15.475" y1="1.90367" y2="11.0388" gradientUnits="userSpaceOnUse"><stop stop-color="#F6E8A0"/><stop offset="1" stop-color="#E65271"/></linearGradient><linearGradient id="f" x1="11.1047" x2="15.6777" y1="7.3928" y2="15.2704" gradientUnits="userSpaceOnUse"><stop stop-color="#F6E8A0"/><stop offset="1" stop-color="#E65271"/></linearGradient><linearGradient id="g" x1="21.3298" x2="20.8024" y1="1.58171" y2="10.7847" gradientUnits="userSpaceOnUse"><stop stop-color="#F6E8A0"/><stop offset="1" stop-color="#E65271"/></linearGradient><linearGradient id="h" x1="20.8367" x2="17.7969" y1="10.7667" y2="-2.70128" gradientUnits="userSpaceOnUse"><stop stop-color="#E65271"/><stop offset=".3836" stop-color="#FAA100"/></linearGradient><linearGradient id="i" x1="10.2735" x2="21.5271" y1="4.02146" y2="13.6076" gradientUnits="userSpaceOnUse"><stop stop-color="#F6E8A0"/><stop offset="1" stop-color="#E65271"/></linearGradient><linearGradient id="j" x1="20.4187" x2="9.482" y1="10.737" y2="13.7112" gradientUnits="userSpaceOnUse"><stop stop-color="#FAA7B5"/><stop offset=".3836" stop-color="#FAA100"/><stop offset=".7317" stop-color="#BF73F2"/></linearGradient><linearGradient id="k" x1="49.533" x2="-1.83591" y1="-2.04138" y2="25.5009" gradientUnits="userSpaceOnUse"><stop stop-color="#FAA7B5"/><stop offset=".3836" stop-color="#FAA100"/><stop offset=".7317" stop-color="#BF73F2"/></linearGradient><linearGradient id="o" x1="28.4295" x2="25.5481" y1="21.6825" y2="28.178" gradientUnits="userSpaceOnUse"><stop offset=".0041" stop-color="#FAA7B5"/><stop offset=".3836" stop-color="#FAA100"/></linearGradient><linearGradient id="p" x1="9.24292" x2="6.88078" y1="2.92284" y2="20.8742" gradientUnits="userSpaceOnUse"><stop stop-color="#FAA7B5"/><stop offset=".3836" stop-color="#FAA100"/><stop offset=".7317" stop-color="#BF73F2"/></linearGradient><linearGradient id="q" x1="7.27333" x2="4.9112" y1="2.66393" y2="20.6152" gradientUnits="userSpaceOnUse"><stop stop-color="#FAA7B5"/><stop offset=".3836" stop-color="#FAA100"/><stop offset=".7317" stop-color="#BF73F2"/></linearGradient><linearGradient id="r" x1="3.79853" x2="4.85949" y1="10.3148" y2="22.8062" gradientUnits="userSpaceOnUse"><stop stop-color="#FAA7B5"/><stop offset=".3836" stop-color="#FAA100"/><stop offset=".7317" stop-color="#BF73F2"/></linearGradient><linearGradient id="s" x1="22.6944" x2="22.2221" y1="-.202003" y2="21.766" gradientUnits="userSpaceOnUse"><stop stop-color="#FAA7B5"/><stop offset=".3836" stop-color="#FAA100"/><stop offset=".7317" stop-color="#BF73F2"/></linearGradient><linearGradient id="t" x1="27.138" x2="25.9687" y1="16.6118" y2="18.5412" gradientUnits="userSpaceOnUse"><stop stop-color="#FAA7B5"/><stop offset=".3836" stop-color="#FAA100"/><stop offset=".7317" stop-color="#BF73F2"/></linearGradient><radialGradient id="l" cx="0" cy="0" r="1" gradientTransform="matrix(-1.78248 -.53993 1.0412 -3.43736 21.0623 14.796)" gradientUnits="userSpaceOnUse"><stop offset=".0091" stop-color="#fff"/><stop offset="1" stop-color="#fff" stop-opacity="0"/></radialGradient><radialGradient id="m" cx="0" cy="0" r="1" gradientTransform="rotate(180 5.5527 6.30615) scale(2.91176)" gradientUnits="userSpaceOnUse"><stop offset=".0091" stop-color="#fff"/><stop offset="1" stop-color="#fff" stop-opacity="0"/></radialGradient><radialGradient id="n" cx="0" cy="0" r="1" gradientTransform="rotate(180 5.5518 6.3064) scale(2.91054)" gradientUnits="userSpaceOnUse"><stop offset=".0091" stop-color="#fff"/><stop offset="1" stop-color="#fff" stop-opacity="0"/></radialGradient><clipPath id="a"><path fill="#fff" d="M0 0h26.4071v26.6667H0z" transform="matrix(-1 0 0 1 29.2266 2.66667)"/></clipPath></defs></svg>
