<svg id="corporate/google" viewBox="0 0 24 24" fill="none" xmlns="http://www.w3.org/2000/svg">
<path d="M6.38844 10.1375C6.77834 8.95786 7.53082 7.9315 8.53853 7.20482C9.54624 6.47814 10.7577 6.08827 12.0001 6.09082C13.4084 6.09082 14.6818 6.59082 15.6818 7.40915L18.5917 4.49999C16.8184 2.95416 14.5459 2 12.0001 2C8.05844 2 4.66511 4.24833 3.03345 7.54165L6.38844 10.1375Z" fill="#EA4335"/>
<path d="M15.3667 17.0107C14.4584 17.5966 13.3051 17.909 12.0001 17.909C10.7627 17.9116 9.55576 17.5248 8.55029 16.8035C7.54483 16.0822 6.79172 15.0629 6.3976 13.8899L3.03094 16.4457C3.85698 18.1176 5.13533 19.5244 6.72079 20.5062C8.30625 21.488 10.1353 22.0055 12.0001 21.9999C14.4442 21.9999 16.7792 21.1307 18.5284 19.4999L15.3676 17.0107H15.3667Z" fill="#34A853"/>
<path d="M18.5284 19.5C20.3576 17.7933 21.5451 15.2533 21.5451 12C21.5451 11.4083 21.4542 10.7725 21.3184 10.1816H12.0001V14.0458H17.3634C17.0992 15.345 16.3884 16.3508 15.3676 17.0108L18.5284 19.5Z" fill="#4A90E2"/>
<path d="M6.39759 13.8901C6.19372 13.2808 6.09015 12.6425 6.09092 12.0001C6.09092 11.3484 6.19509 10.7226 6.38842 10.1376L3.03343 7.54175C2.34708 8.92732 1.99327 10.4538 2.0001 12.0001C2.0001 13.6001 2.37093 15.1084 3.03093 16.4459L6.39759 13.8901Z" fill="#FBBC05"/>
</svg>
