<svg id="corporate/okta" viewBox="0 0 24 24" fill="none" xmlns="http://www.w3.org/2000/svg">
<path d="M11.9984 2C10.0206 2 8.08718 2.58649 6.44268 3.68531C4.79819 4.78412 3.51647 6.34591 2.75959 8.17317C2.00272 10.0004 1.80468 12.0111 2.19053 13.9509C2.57639 15.8907 3.52879 17.6725 4.92732 19.0711C6.32584 20.4696 8.10767 21.422 10.0475 21.8079C11.9873 22.1937 13.998 21.9957 15.8252 21.2388C17.6525 20.4819 19.2143 19.2002 20.3131 17.5557C21.4119 15.9112 21.9984 13.9778 21.9984 12C21.9991 10.6866 21.7409 9.38593 21.2386 8.17237C20.7362 6.95881 19.9997 5.85615 19.071 4.92744C18.1422 3.99872 17.0396 3.26215 15.826 2.75984C14.6125 2.25753 13.3118 1.99933 11.9984 2V2ZM11.9984 17.0099C11.0075 17.0099 10.0389 16.7161 9.21501 16.1656C8.39113 15.6151 7.749 14.8327 7.36981 13.9172C6.99062 13.0018 6.8914 11.9944 7.08471 11.0226C7.27802 10.0508 7.75517 9.15809 8.45582 8.45744C9.15648 7.75679 10.0492 7.27964 11.021 7.08633C11.9928 6.89302 13.0002 6.99223 13.9156 7.37142C14.8311 7.75061 15.6135 8.39275 16.164 9.21663C16.7145 10.0405 17.0083 11.0091 17.0083 12C17.0071 13.3284 16.4789 14.602 15.5396 15.5413C14.6004 16.4805 13.3267 17.0088 11.9984 17.0099Z" fill="#3294CA"/>
</svg>
