<svg id="corporate/openID" viewBox="0 0 24 24" fill="none" xmlns="http://www.w3.org/2000/svg">
<path d="M8.9998 20.4002C8.84067 20.4002 8.68806 20.337 8.57554 20.2245C8.46302 20.1119 8.39981 19.9593 8.39981 19.8002C8.39981 19.6411 8.46302 19.4885 8.57554 19.3759C8.68806 19.2634 8.84067 19.2002 8.9998 19.2002H16.7998C17.4363 19.2002 18.0468 18.9473 18.4969 18.4972C18.9469 18.0472 19.1998 17.4367 19.1998 16.8002V7.2002C19.1998 6.56368 18.9469 5.95323 18.4969 5.50314C18.0468 5.05305 17.4363 4.8002 16.7998 4.8002H8.9998C8.84067 4.8002 8.68806 4.73698 8.57554 4.62446C8.46302 4.51194 8.39981 4.35933 8.39981 4.2002C8.39981 4.04107 8.46302 3.88845 8.57554 3.77593C8.68806 3.66341 8.84067 3.6002 8.9998 3.6002H16.7998C17.7546 3.6002 18.6703 3.97948 19.3454 4.65461C20.0205 5.32974 20.3998 6.24542 20.3998 7.2002V16.8002C20.3998 17.755 20.0205 18.6706 19.3454 19.3458C18.6703 20.0209 17.7546 20.4002 16.7998 20.4002H8.9998ZM9.175 7.37539C9.23074 7.31952 9.29695 7.27519 9.36984 7.24494C9.44274 7.21469 9.52088 7.19912 9.5998 7.19912C9.67873 7.19912 9.75687 7.21469 9.82976 7.24494C9.90266 7.27519 9.96887 7.31952 10.0246 7.37539L14.2246 11.5754C14.2805 11.6311 14.3248 11.6973 14.3551 11.7702C14.3853 11.8431 14.4009 11.9213 14.4009 12.0002C14.4009 12.0791 14.3853 12.1573 14.3551 12.2302C14.3248 12.303 14.2805 12.3693 14.2246 12.425L10.0246 16.625C9.91194 16.7377 9.75914 16.801 9.5998 16.801C9.44047 16.801 9.28767 16.7377 9.175 16.625C9.06234 16.5123 8.99905 16.3595 8.99905 16.2002C8.99905 16.0409 9.06234 15.8881 9.175 15.7754L12.3514 12.6002H1.7998C1.64067 12.6002 1.48806 12.537 1.37554 12.4245C1.26302 12.3119 1.1998 12.1593 1.1998 12.0002C1.1998 11.8411 1.26302 11.6885 1.37554 11.5759C1.48806 11.4634 1.64067 11.4002 1.7998 11.4002H12.3514L9.175 8.225C9.11913 8.16926 9.0748 8.10305 9.04455 8.03016C9.0143 7.95726 8.99873 7.87912 8.99873 7.8002C8.99873 7.72127 9.0143 7.64313 9.04455 7.57023C9.0748 7.49734 9.11913 7.43113 9.175 7.37539Z" fill="currentColor"/>
<path fill-rule="evenodd" clip-rule="evenodd" d="M8.89222 15.4925L11.3855 13.0002H1.7998C1.53459 13.0002 1.28023 12.8948 1.0927 12.7073C0.905161 12.5198 0.799805 12.2654 0.799805 12.0002C0.799805 11.735 0.905161 11.4806 1.0927 11.2931C1.28023 11.1056 1.53459 11.0002 1.7998 11.0002H11.3855L8.89252 8.5082C8.89246 8.50813 8.89258 8.50826 8.89252 8.5082C8.79948 8.41534 8.72547 8.30487 8.67509 8.18346C8.62468 8.06197 8.59873 7.93173 8.59873 7.8002C8.59873 7.66866 8.62468 7.53842 8.67509 7.41693C8.72546 7.29556 8.79925 7.18531 8.89224 7.09247C8.98504 6.99955 9.09524 6.92582 9.21654 6.87548C9.33803 6.82507 9.46827 6.79912 9.5998 6.79912C9.73134 6.79912 9.86158 6.82507 9.98307 6.87548C10.1046 6.9259 10.2149 6.99978 10.3078 7.09291L14.5071 11.2922C14.507 11.2921 14.5072 11.2923 14.5071 11.2922C14.6001 11.385 14.6741 11.4955 14.7245 11.6169C14.7749 11.7384 14.8009 11.8687 14.8009 12.0002C14.8009 12.1317 14.7749 12.262 14.7245 12.3835C14.6741 12.5049 14.6002 12.6153 14.5071 12.7082L10.3074 16.9078C10.1198 17.0955 9.86522 17.201 9.5998 17.201C9.33439 17.201 9.07984 17.0955 8.89216 16.9078C8.70448 16.7202 8.59905 16.4656 8.59905 16.2002C8.59905 15.9348 8.70454 15.6802 8.89222 15.4925ZM14.2246 12.425C14.2805 12.3693 14.3248 12.303 14.3551 12.2302C14.3853 12.1573 14.4009 12.0791 14.4009 12.0002C14.4009 11.9213 14.3853 11.8431 14.3551 11.7702C14.3248 11.6973 14.2805 11.6311 14.2246 11.5754L10.0246 7.37539C9.96887 7.31952 9.90266 7.27519 9.82976 7.24494C9.75687 7.21469 9.67873 7.19912 9.5998 7.19912C9.52088 7.19912 9.44274 7.21469 9.36984 7.24494C9.29695 7.27519 9.23074 7.31952 9.175 7.37539C9.11913 7.43113 9.0748 7.49734 9.04455 7.57023C9.0143 7.64313 8.99873 7.72127 8.99873 7.8002C8.99873 7.87912 9.0143 7.95726 9.04455 8.03016C9.0748 8.10305 9.11913 8.16926 9.175 8.225L12.3514 11.4002H1.7998C1.64067 11.4002 1.48806 11.4634 1.37554 11.5759C1.26302 11.6885 1.1998 11.8411 1.1998 12.0002C1.1998 12.1593 1.26302 12.3119 1.37554 12.4245C1.48806 12.537 1.64067 12.6002 1.7998 12.6002H12.3514L9.175 15.7754C9.06234 15.8881 8.99905 16.0409 8.99905 16.2002C8.99905 16.3595 9.06234 16.5123 9.175 16.625C9.28767 16.7377 9.44047 16.801 9.5998 16.801C9.75914 16.801 9.91194 16.7377 10.0246 16.625L14.2246 12.425ZM8.9998 20.8002C8.73459 20.8002 8.48024 20.6948 8.2927 20.5073C8.10516 20.3198 7.9998 20.0654 7.9998 19.8002C7.9998 19.535 8.10516 19.2806 8.2927 19.0931C8.48024 18.9056 8.73459 18.8002 8.9998 18.8002H16.7998C17.3302 18.8002 17.8389 18.5895 18.214 18.2144C18.5891 17.8393 18.7998 17.3306 18.7998 16.8002V7.2002C18.7998 6.66976 18.5891 6.16105 18.214 5.78598C17.8389 5.41091 17.3302 5.2002 16.7998 5.2002H8.9998C8.73459 5.2002 8.48023 5.09484 8.2927 4.9073C8.10516 4.71977 7.9998 4.46541 7.9998 4.2002C7.9998 3.93498 8.10516 3.68062 8.2927 3.49309C8.48023 3.30555 8.73459 3.2002 8.9998 3.2002H16.7998C17.8607 3.2002 18.8781 3.62162 19.6282 4.37177C20.3784 5.12191 20.7998 6.13933 20.7998 7.2002V16.8002C20.7998 17.8611 20.3784 18.8785 19.6282 19.6286C18.8781 20.3788 17.8607 20.8002 16.7998 20.8002H8.9998ZM8.57554 20.2245C8.68806 20.337 8.84067 20.4002 8.9998 20.4002H16.7998C17.7546 20.4002 18.6703 20.0209 19.3454 19.3458C20.0205 18.6706 20.3998 17.755 20.3998 16.8002V7.2002C20.3998 6.24542 20.0205 5.32974 19.3454 4.65461C18.6703 3.97948 17.7546 3.6002 16.7998 3.6002H8.9998C8.84067 3.6002 8.68806 3.66341 8.57554 3.77593C8.46302 3.88845 8.39981 4.04107 8.39981 4.2002C8.39981 4.35933 8.46302 4.51194 8.57554 4.62446C8.68806 4.73698 8.84067 4.8002 8.9998 4.8002H16.7998C17.4363 4.8002 18.0468 5.05305 18.4969 5.50314C18.9469 5.95323 19.1998 6.56368 19.1998 7.2002V16.8002C19.1998 17.4367 18.9469 18.0472 18.4969 18.4972C18.0468 18.9473 17.4363 19.2002 16.7998 19.2002H8.9998C8.84067 19.2002 8.68806 19.2634 8.57554 19.3759C8.46302 19.4885 8.39981 19.6411 8.39981 19.8002C8.39981 19.9593 8.46302 20.1119 8.57554 20.2245Z" fill="currentColor"/>
</svg>
