<svg id="corporate/power-bi" viewBox="0 0 24 24" fill="none" xmlns="http://www.w3.org/2000/svg">
<mask id="mask0_476_4584" style="mask-type:alpha" maskUnits="userSpaceOnUse" x="4" y="2" width="16" height="20">
<path d="M18.6656 2C19.1264 2 19.5 2.37356 19.5 2.83438V21.1656C19.5 21.6264 19.1264 22 18.6656 22H5.33334C4.8731 22 4.5 21.6269 4.5 21.1666V12.8333C4.5 12.3731 4.8731 12 5.33334 12H8.5625V7.83334C8.5625 7.3731 8.9356 7 9.39584 7H12.625V2.83438C12.625 2.37356 12.9986 2 13.4594 2H18.6656Z" fill="white"/>
</mask>
<g mask="url(#mask0_476_4584)">
<path d="M19.5 2.83438V21.1656C19.5 21.6264 19.1264 22 18.6656 22H13.4594C12.9986 22 12.625 21.6264 12.625 21.1656V2.83438C12.625 2.37356 12.9986 2 13.4594 2H18.6656C19.1265 2 19.5 2.37356 19.5 2.83438Z" fill="url(#paint0_linear_476_4584)"/>
<g filter="url(#filter0_dd_476_4584)">
<path d="M15.4375 7.83334V22H8.5625V7.83334C8.5625 7.3731 8.9356 7 9.39584 7H14.6041C15.0644 7 15.4375 7.3731 15.4375 7.83334Z" fill="url(#paint1_linear_476_4584)"/>
</g>
<path d="M4.5 12.8333V21.1666C4.5 21.6269 4.8731 22 5.33334 22H11.375V12.8333C11.375 12.3731 11.0019 12 10.5417 12H5.33334C4.8731 12 4.5 12.3731 4.5 12.8333Z" fill="url(#paint2_linear_476_4584)"/>
</g>
<defs>
<filter id="filter0_dd_476_4584" x="3.22916" y="2.99999" width="17.5417" height="25.6667" filterUnits="userSpaceOnUse" color-interpolation-filters="sRGB">
<feFlood flood-opacity="0" result="BackgroundImageFix"/>
<feColorMatrix in="SourceAlpha" type="matrix" values="0 0 0 0 0 0 0 0 0 0 0 0 0 0 0 0 0 0 127 0" result="hardAlpha"/>
<feOffset dy="0.253333"/>
<feGaussianBlur stdDeviation="0.253333"/>
<feColorMatrix type="matrix" values="0 0 0 0 0 0 0 0 0 0 0 0 0 0 0 0 0 0 0.2 0"/>
<feBlend mode="normal" in2="BackgroundImageFix" result="effect1_dropShadow_476_4584"/>
<feColorMatrix in="SourceAlpha" type="matrix" values="0 0 0 0 0 0 0 0 0 0 0 0 0 0 0 0 0 0 127 0" result="hardAlpha"/>
<feOffset dy="1.33333"/>
<feGaussianBlur stdDeviation="2.66667"/>
<feColorMatrix type="matrix" values="0 0 0 0 0 0 0 0 0 0 0 0 0 0 0 0 0 0 0.18 0"/>
<feBlend mode="normal" in2="effect1_dropShadow_476_4584" result="effect2_dropShadow_476_4584"/>
<feBlend mode="normal" in="SourceGraphic" in2="effect2_dropShadow_476_4584" result="shape"/>
</filter>
<linearGradient id="paint0_linear_476_4584" x1="11.4792" y1="2" x2="20.0978" y2="20.8394" gradientUnits="userSpaceOnUse">
<stop stop-color="#E6AD10"/>
<stop offset="1" stop-color="#C87E0E"/>
</linearGradient>
<linearGradient id="paint1_linear_476_4584" x1="8.56194" y1="7" x2="15.8224" y2="21.5209" gradientUnits="userSpaceOnUse">
<stop stop-color="#F6D751"/>
<stop offset="1" stop-color="#E6AD10"/>
</linearGradient>
<linearGradient id="paint2_linear_476_4584" x1="4.49944" y1="12" x2="8.4973" y2="21.771" gradientUnits="userSpaceOnUse">
<stop stop-color="#F9E589"/>
<stop offset="1" stop-color="#F6D751"/>
</linearGradient>
</defs>
</svg>
