<svg xmlns="http://www.w3.org/2000/svg" fill="none" viewBox="0 0 32 32"><g clip-path="url(#a)"><path fill="#E25A1C" fill-rule="evenodd" d="M26.9966 16.3153c-.023-.0493-.0334-.074-.0458-.0977-.3333-.6339-.6657-1.2679-1.0023-1.9018-.0338-.0636-.0295-.1011.0167-.1559.5302-.6194 1.0537-1.2422 1.5848-1.859.0188-.0218.0355-.0448.0425-.0836-.1542.0401-.3084.0799-.4634.1208-.64.1696-1.2851.3383-1.919.5105-.0596.0161-.0865-.0013-.1165-.0508-.3633-.6074-.7291-1.2165-1.0966-1.8162-.0187-.0315-.0392-.0619-.0793-.0882-.0295.1619-.0593.3229-.0882.4848-.102.5714-.2039 1.1394-.305 1.7134-.0111.0616-.0262.1234-.0315.185-.005.059-.0354.0807-.0891.0977-.7547.2373-1.5077.4763-2.2616.7153-.0331.0104-.0655.0241-.1011.0562.6168.245 1.2336.4901 1.859.7393-.0228.0181-.0379.0322-.0546.0429-.3855.2493-.7718.4986-1.1565.7487-.0462.0302-.0827.0345-.1345.0111-.4609-.2073-.9252-.4112-1.3878-.6168-.2073-.0926-.3932-.2151-.538-.3933-.3281-.4009-.263-.8566.1739-1.1393.1431-.0917.3058-.1594.4677-.2125.7394-.2407 1.4821-.4729 2.2189-.7059.0622-.0198.0908-.0476.1028-.1148.0993-.5723.2013-1.148.3049-1.7134.0552-.3058.0843-.6185.2331-.89948.0569-.10795.125-.21332.2073-.30327.2947-.32725.705-.33925 1.0194-.0281.1054.10537.1954.22874.2733.35638.3427.55937.6802 1.12227 1.0195 1.68767.0398.0666.0756.0799.149.0606.8267-.2219 1.6534-.4404 2.4844-.6588.1713-.0452.3435-.0615.5192-.0287.3812.0713.5482.3615.4189.7307-.0585.1679-.1602.3093-.2742.4438-.5774.6793-1.1565 1.3621-1.7305 2.0389-.0472.0555-.0481.0951-.0154.1576.3461.652.6888 1.3022 1.0366 1.9618.0823.1559.1456.3187.1473.4978.0041.4077-.2946.7418-.6999.8018-.227.0332-.4377-.0153-.651-.0809-.5183-.1602-1.0366-.3179-1.5592-.4746-.0482-.0144-.0667-.0335-.0753-.0854-.0596-.3658-.1251-.7307-.1885-1.0965-.0016-.01.0014-.0208.0031-.0432.592.1636 1.1822.3247 1.7905.4934" clip-rule="evenodd"/><path fill="#3C3A3E" fill-rule="evenodd" d="M25.9683 21.6696c-.4677-.0007-.9338-.003-1.4049-.001-.062 0-.0968-.0177-.1311-.0703-.5534-.843-1.1137-1.6877-1.662-2.5272-.0177-.0268-.0365-.0525-.0679-.0977-.1191.9081-.2364 1.799-.3538 2.69h-1.2251c.0144-.1191.0272-.2347.0423-.3495.119-.9167.2398-1.8248.3598-2.7414.1148-.8738.2287-1.7477.3452-2.6215.0034-.0258.0208-.0589.0418-.0726.4215-.275.8447-.5474 1.2679-.8199.0061-.004.0148-.0043.0365-.0107-.1276.9766-.2544 1.9447-.3821 2.9127.0051.0034.0101.0071.0151.0104.6639-.735 1.3279-1.4735 2.0046-2.2188.0195.1131.0365.2099.0532.3067.0476.2767.0934.5551.144.8318.0103.0559-.0047.09-.0418.1294-.4292.4489-.8567.8995-1.2851 1.3536-.0187.0197-.0365.0401-.0579.0636.0137.0217.0255.0428.0392.0622.7376 1.0366 1.4735 2.0732 2.2102 3.1098.0134.0187.0327.0335.0492.0502v.0163M11.4905 18.9282c-.0188-.0951-.0322-.2356-.0746-.3667-.2057-.6331-.8542-.9766-1.52494-.8233-.73761.1714-1.26789.7514-1.33643 1.5078-.05654.5568.2433 1.0966.80014 1.2936.44891.1619.88243.0942 1.28503-.1465.532-.3187.8198-.7924.8567-1.4649h-.0059ZM8.25221 21.284c-.03615.2725-.07093.5286-.10452.7856-.0448.341-.08995.6828-.13278 1.028-.00497.0399-.01705.0576-.05988.0573-.33668-.0013-.67336-.001-1.01089-.0017-.00771 0-.01542-.004-.0335-.0093.02039-.1611.04018-.323.06126-.484.07427-.5654.1482-1.1308.22359-1.6963.08653-.6476.1542-1.2935.26472-1.9361.19532-1.1393 1.16508-2.116 2.29591-2.3644.65708-.1422 1.28498-.0763 1.85898.2938.5723.3684.8995.9081.9766 1.5763.1063.951-.2441 1.7391-.9166 2.3988-.4438.4291-.9766.7016-1.5849.7941-.63135.0951-1.22503-.01-1.75618-.3821-.01944-.0137-.04052-.0257-.07393-.0468M7.68682 15.887c-.37694.2809-.74103.5517-1.10512.8232-.05885-.0925-.11137-.185-.17305-.2715-.15848-.2219-.35552-.3873-.64165-.407-.23816-.0168-.44205.0615-.60396.2373-.14478.1568-.16363.3804-.02844.5577.14906.1954.31183.3804.47888.5612.27671.2998.56541.5876.83955.8909.24929.2742.4489.5808.51058.9595.07333.4455-.01568.8652-.22616 1.2593-.38979.7239-1.00232 1.148-1.81617 1.2765-.35809.0578-.71447.0465-1.06228-.0563-.46347-.1362-.78644-.4403-.99375-.8653-.07325-.1516-.12936-.3118-.19533-.4746.40521-.2167.80014-.4283 1.19936-.6416.0137.0331.02373.0609.03649.0874.06828.1362.12422.281.20817.4069.25101.3726.65537.4857 1.06229.3015.10537-.0475.20732-.1139.29384-.191.26386-.2347.31355-.562.11822-.8567-.11222-.1696-.25272-.3221-.38979-.4737-.32725-.3633-.66821-.7154-.98518-1.088-.22017-.2553-.37009-.5517-.41806-.891-.05183-.3735.02279-.7247.21674-1.0365.48231-.7805 1.18222-1.1823 2.10744-1.1566.52857.0191.95091.2665 1.27645.6777.09681.1216.18762.2475.28613.3795M16.9638 19.4809c-.0616.4703-.1199.9166-.1799 1.3621-.0033.0228-.021.0535-.0401.0623-.9167.4232-2.116.3641-2.8614-.4875-.4026-.4575-.5714-1.0023-.5465-1.602.0585-1.3964 1.2165-2.6214 2.6043-2.7928.8096-.0993 1.5163.1191 2.0646.7488.3735.4283.5466.9423.5209 1.5077-.0167.3735-.0753.7445-.1217 1.1137-.066.526-.1379 1.0537-.2073 1.5763-.0027.0183-.0063.0371-.0107.0609h-1.088c.0144-.1208.0278-.239.0432-.3572.079-.6074.1662-1.2165.2356-1.8247.0431-.3787.016-.7548-.1577-1.1052-.1842-.3726-.4926-.5705-.8995-.6133-.8412-.0891-1.6448.4951-1.8162 1.3192-.1182.5466.0683 1.0709.5038 1.3622.424.2818.8738.2827 1.3364.1002.2347-.0925.4335-.2399.6237-.4378M21.2566 16.7265c-.0499.3787-.0994.7513-.1491 1.1308-.2313 0-.4575-.0013-.6836.0004-.1834.0013-.3504.1199-.4061.2912-.0214.067-.0294.1388-.0388.2091-.1148.8738-.2287 1.739-.3427 2.6043-.0288.2193-.0565.4386-.0853.6613h-1.1394c.0211-.167.0411-.3289.0622-.4908.0739-.5637.1482-1.1309.2228-1.6877.0645-.4874.1225-.9766.1987-1.4649.1019-.6511.7496-1.2336 1.405-1.2593.3135-.0137.6279-.0024.9509-.0024" clip-rule="evenodd"/><path fill="#3C3A3E" d="M27.339 21.6696v-.4798h-.0026l-.1885.4798h-.0599l-.1885-.4798h-.003v.4798h-.0942v-.5749h.1465l.1713.4369.1688-.4369h.1456v.5749h-.0955Zm-.8344-.4978v.4978h-.0942v-.4978h-.1799v-.077h.4549v.077h-.1799M9.20325 15.0817h.28185l-.06665-.4267-.2152.4267Zm.3264.2758h-.46861l-.14906.2922h-.33239l.73246-1.3707h.3204l.24929 1.3707h-.30755l-.0442-.2922M11.2077 14.5591h-.167l-.0562.3161h.167c.1011 0 .1808-.0662.1808-.191 0-.0827-.0502-.1251-.1251-.1251h.0005Zm-.4043-.2759h.4386c.2296 0 .3898.1371.3898.3718 0 .2965-.2091.4952-.5072.4952h-.1893l-.0891.5012h-.2861l.2415-1.3707M12.604 15.0817h.2819l-.0666-.4267-.2153.4267Zm.3256.2758h-.4687l-.149.2922h-.3324l.7325-1.3707h.3204l.2493 1.3707h-.3076l-.0442-.2922M14.7457 15.6042c-.0968.0443-.203.0706-.3101.0706-.3624 0-.5894-.2715-.5894-.6116 0-.4352.3658-.801.801-.801.1088 0 .2073.0261.2878.0702l-.0401.3281c-.0603-.0665-.1577-.1131-.2776-.1131-.2493 0-.4712.2254-.4712.4866 0 .1988.1251.3547.3221.3547.1208 0 .2373-.0465.3161-.1105l-.0381.3255M16.5449 15.0988h-.5954l-.0968.5509h-.2853l.2416-1.3707h.2861l-.096.5414h.5954l.0968-.5414h.2862l-.2416 1.3707h-.2861l.0959-.5509M17.5728 15.6471l.2415-1.3707h.7591l-.0483.2758h-.4729l-.0482.2656h.4344l-.0483.2759h-.4343l-.0482.2758h.4728l-.0482.2759h-.759"/></g><defs><clipPath id="a"><path fill="#fff" d="M0 0h26.6667v13.8486H0z" transform="translate(2.6665 9.33333)"/></clipPath></defs></svg>
