<svg id="corporate/standard-edition" viewBox="0 0 40 40" fill="none" xmlns="http://www.w3.org/2000/svg">
<circle cx="20" cy="20" r="20" fill="#E9F5F9"/>
<path d="M25.1275 12.549L25.3832 13.0186L25.9058 13.1315C28.3478 13.6592 30.22 15.7176 30.4713 18.2506C30.5031 18.5712 30.7612 18.8333 31.0834 18.8333C31.4055 18.8333 31.6693 18.5714 31.6428 18.2504C31.3877 15.1562 29.1203 12.6326 26.1522 11.9912C24.966 9.8121 22.6557 8.33325 20 8.33325C16.4964 8.33325 13.5939 10.9073 13.0807 14.2675C10.378 14.7764 8.33337 17.1494 8.33337 19.9999C8.33337 23.2216 10.945 25.8333 14.1667 25.8333H14.75C15.0722 25.8333 15.3334 25.5721 15.3334 25.2499C15.3334 24.9277 15.0722 24.6666 14.75 24.6666H14.1667C11.5894 24.6666 9.50004 22.5772 9.50004 19.9999C9.50004 17.7208 11.1351 15.821 13.2965 15.414L14.1091 15.261L14.2339 14.4437C14.6615 11.6445 17.0814 9.49992 20 9.49992C22.2115 9.49992 24.1374 10.7301 25.1275 12.549Z" fill="#196C79"/>
<path fill-rule="evenodd" clip-rule="evenodd" d="M25.8333 20C26.4777 20 27 19.4777 27 18.8333C27 18.189 26.4777 17.6667 25.8333 17.6667C25.189 17.6667 24.6667 18.189 24.6667 18.8333L24.6667 20H25.8333ZM23.5 20L23.5 18.8333C23.5 18.189 22.9777 17.6667 22.3333 17.6667C21.689 17.6667 21.1667 18.189 21.1667 18.8333C21.1667 19.4777 21.689 20 22.3333 20H23.5ZM20.3122 20C20.1136 19.6568 20 19.2583 20 18.8333C20 17.5447 21.0447 16.5 22.3333 16.5C23.0302 16.5 23.6558 16.8055 24.0833 17.29C24.5109 16.8055 25.1364 16.5 25.8333 16.5C27.122 16.5 28.1667 17.5447 28.1667 18.8333C28.1667 19.2583 28.053 19.6568 27.8545 20H30.5C31.1443 20 31.6667 20.5223 31.6667 21.1667V23.5C31.6667 24.1443 31.1443 24.6667 30.5 24.6667L30.5 29.3333C30.5 30.622 29.4553 31.6667 28.1667 31.6667H20C18.7113 31.6667 17.6667 30.622 17.6667 29.3333L17.6667 24.6667C17.0223 24.6667 16.5 24.1443 16.5 23.5V21.1667C16.5 20.5223 17.0223 20 17.6667 20H20.3122ZM22.3333 21.1667H17.6667V23.5H23.5V21.1667H22.3333ZM24.6667 21.1667V23.5H30.5V21.1667H25.8333H24.6667ZM23.5 24.6667H18.8333V29.3333C18.8333 29.9777 19.3557 30.5 20 30.5L23.5 30.5L23.5 24.6667ZM24.6667 30.5L28.1667 30.5C28.811 30.5 29.3333 29.9777 29.3333 29.3333V24.6667H24.6667V30.5Z" fill="#196C79"/>
</svg>
