<svg id="corporate/tableau" viewBox="0 0 24 24" fill="none" xmlns="http://www.w3.org/2000/svg">
<g clip-path="url(#clip0_395_5999)">
<path d="M11.4528 15.3339H12.5473V12.3489H15.3002V11.2875H12.5473V8.30249H11.4528V11.2875H8.733V12.3489H11.4528V15.3339Z" fill="#E8762D"/>
<path d="M6.37811 19.6458H7.3068V16.9923H9.76119V16.1632H7.3068V13.4766H6.37811V16.1632H3.92371V16.9923H6.37811V19.6458Z" fill="#C72037"/>
<path d="M16.6932 10.0603H17.6218V7.40691H20.1094V6.61089H17.6218V3.92432H16.6932V6.61089H14.2388V7.40691H16.6932V10.0603Z" fill="#5B879B"/>
<path d="M11.6186 21.7353H12.4146V19.8448H14.1062V19.1483H12.4146V17.2578H11.6186V19.1483H9.9602V19.8448H11.6186V21.7353Z" fill="#5C6692"/>
<path d="M6.41128 10.0603H7.27363V7.37374H9.76119V6.61089H7.27363V3.92432H6.41128V6.61089H3.92371V7.37374H6.41128V10.0603Z" fill="#EB9129"/>
<path d="M19.5124 14.0404H20.3084V12.183H21.9999V11.4533H20.3084V9.59595H19.5124V11.4533H17.854V12.183H19.5124V14.0404Z" fill="#5C6692"/>
<path fill-rule="evenodd" clip-rule="evenodd" d="M16.6932 19.6458H17.6218V16.9923H20.1094V16.1632H17.6218V13.4766H16.6932V16.1632H14.2388V16.9923H16.6932V19.6458Z" fill="#1F457E"/>
<path d="M13.9735 4.38877V3.82493H12.3151V2.00073H11.7181V3.82493H10.0597V4.38877H11.7181V6.21297H12.3151V4.38877H13.9735ZM3.65838 13.9078H4.25539V12.0836H5.91377V11.5197H4.25539V9.7287H3.65838V11.5197H2V12.1167L3.65838 12.0836V13.9078Z" fill="#7199A6"/>
</g>
<defs>
<clipPath id="clip0_395_5999">
<rect width="20" height="19.736" fill="white" transform="translate(2 2)"/>
</clipPath>
</defs>
</svg>
