<svg id="settings/engine-rerouting" viewBox="0 0 24 24" fill="none" xmlns="http://www.w3.org/2000/svg">
<path fill-rule="evenodd" clip-rule="evenodd" d="M8.90549 6.75C8.57245 8.04392 7.39788 9 6 9C4.34315 9 3 7.65685 3 6C3 4.34315 4.34315 3 6 3C7.39788 3 8.57245 3.95608 8.90549 5.25H14.5881C17.3442 5.25 18.3868 8.85334 16.0566 10.3251L8.74465 14.9431C7.68544 15.6121 8.15936 17.25 9.41215 17.25H11.9877L11.9877 17.2384L11.9284 17.2384L11.2387 16.5487C11.165 16.48 11.1059 16.3972 11.0649 16.3052C11.0239 16.2132 11.0019 16.1139 11.0001 16.0132C10.9983 15.9125 11.0169 15.8125 11.0546 15.7191C11.0923 15.6257 11.1485 15.5409 11.2197 15.4697C11.2909 15.3985 11.3757 15.3423 11.4691 15.3046C11.5625 15.2669 11.6625 15.2483 11.7632 15.2501C11.8639 15.2519 11.9632 15.2739 12.0552 15.3149C12.1472 15.3559 12.23 15.415 12.2987 15.4887L14.2684 17.4584C14.4088 17.5991 14.4877 17.7897 14.4877 17.9884C14.4877 18.1872 14.4088 18.3778 14.2684 18.5184L12.2803 20.5065C12.1382 20.639 11.9501 20.7111 11.7558 20.7077C11.5615 20.7043 11.3761 20.6256 11.2387 20.4882C11.1013 20.3507 11.0226 20.1654 11.0192 19.9711C11.0157 19.7768 11.0879 19.5887 11.2203 19.4465L11.9168 18.75H9.41215C6.65603 18.75 5.61338 15.1467 7.94366 13.6749L15.2556 9.05686C16.3148 8.38788 15.8409 6.75 14.5881 6.75H8.90549ZM6 7.5C6.82843 7.5 7.5 6.82843 7.5 6C7.5 5.17157 6.82843 4.5 6 4.5C5.17157 4.5 4.5 5.17157 4.5 6C4.5 6.82843 5.17157 7.5 6 7.5Z" fill="currentColor"/>
<path fill-rule="evenodd" clip-rule="evenodd" d="M18 21C19.6569 21 21 19.6569 21 18C21 16.3431 19.6569 15 18 15C16.3431 15 15 16.3431 15 18C15 19.6569 16.3431 21 18 21ZM18 19.5C18.8284 19.5 19.5 18.8284 19.5 18C19.5 17.1716 18.8284 16.5 18 16.5C17.1716 16.5 16.5 17.1716 16.5 18C16.5 18.8284 17.1716 19.5 18 19.5Z" fill="currentColor"/>
</svg>
