<svg id="data-types/TypeText" viewBox="0 0 24 24" fill="none" xmlns="http://www.w3.org/2000/svg">
<path fill-rule="evenodd" clip-rule="evenodd" d="M10.4167 7.75C10.4167 7.33579 10.0809 7 9.66666 7C9.25245 7 8.91666 7.33579 8.91666 7.75V16.0833C8.91666 16.4975 9.25245 16.8333 9.66666 16.8333C10.0297 16.8333 10.3325 16.5754 10.4018 16.2328C10.91 16.6127 11.516 16.8333 12.1667 16.8333C13.9616 16.8333 15.4167 15.1544 15.4167 13.0833C15.4167 11.0123 13.9616 9.33333 12.1667 9.33333C11.5223 9.33333 10.9218 9.54968 10.4167 9.92284V7.75ZM10.4167 13.0833C10.4167 14.5347 11.3945 15.3333 12.1667 15.3333C12.9388 15.3333 13.9167 14.5347 13.9167 13.0833C13.9167 11.632 12.9388 10.8333 12.1667 10.8333C11.3945 10.8333 10.4167 11.632 10.4167 13.0833Z" fill="currentColor"/>
<path fill-rule="evenodd" clip-rule="evenodd" d="M3.41667 11.5L3.41676 11.4998C3.45717 11.3987 3.52387 11.232 3.78266 11.0926C4.05019 10.9486 4.46073 10.8542 4.91667 10.8542C5.37261 10.8542 5.78314 10.9486 6.05067 11.0926C6.4935 11.3311 6.40015 11.7118 6.00875 11.9565C5.76022 12.1118 5.38474 12.1851 4.8096 12.2681C4.77542 12.273 4.74021 12.278 4.70408 12.2831L4.7037 12.2832C4.2228 12.3513 3.5803 12.4423 3.06662 12.7238C2.76531 12.8889 2.48415 13.1289 2.28489 13.4779C2.08765 13.8233 2 14.2241 2 14.6667C2 15.479 2.45428 16.0858 3.03849 16.4397C3.60594 16.7834 4.31702 16.9114 4.99555 16.8396C5.46836 16.7896 5.95426 16.6395 6.38985 16.3695C6.50231 16.6417 6.77045 16.8333 7.08333 16.8333C7.49754 16.8333 7.83333 16.4975 7.83333 16.0833V11.4167C7.83333 10.6094 7.31533 10.07 6.76182 9.77193C6.21686 9.47849 5.54406 9.35416 4.91666 9.35417C4.28927 9.35417 3.61647 9.4785 3.07151 9.77194C2.518 10.07 2 10.6094 2 11.4167C2 11.6667 2.16667 12 2.58333 12.0833C3 12.1667 3.25 11.9167 3.41667 11.5ZM6.33333 13.5847V13.4587C5.88785 13.6282 5.41455 13.6964 5.04337 13.7499L5.02373 13.7527C4.4296 13.8384 4.04759 13.8967 3.78755 14.0392C3.6826 14.0967 3.62522 14.1556 3.5875 14.2217C3.54776 14.2913 3.5 14.4217 3.5 14.6667C3.5 14.8543 3.58738 15.0184 3.81567 15.1567C4.06073 15.3051 4.43297 15.3907 4.83778 15.3479C5.23655 15.3057 5.60788 15.1452 5.87339 14.8772C6.12764 14.6205 6.33304 14.2176 6.33333 13.5847Z" fill="currentColor"/>
<path d="M19.1667 9.33333C18.0899 9.33333 17.2635 9.84376 16.7305 10.5817C16.2135 11.2976 15.9792 12.2104 15.9792 13.0833C15.9792 13.9563 16.2135 14.8691 16.7305 15.5849C17.2635 16.3229 18.0899 16.8333 19.1667 16.8333C19.8531 16.8333 20.4756 16.6862 20.9809 16.334C21.495 15.9757 21.8115 15.4584 21.9736 14.864C22.0826 14.4644 21.847 14.0521 21.4473 13.9431C21.0477 13.8341 20.6354 14.0697 20.5264 14.4693C20.4385 14.7916 20.2967 14.9826 20.1232 15.1034C19.9411 15.2304 19.6469 15.3333 19.1667 15.3333C18.6184 15.3333 18.2261 15.0938 17.9465 14.7067C17.651 14.2976 17.4792 13.7104 17.4792 13.0833C17.4792 12.4563 17.651 11.8691 17.9466 11.46C18.2261 11.0729 18.6184 10.8333 19.1667 10.8333C19.6469 10.8333 19.9411 10.9362 20.1232 11.0632C20.2967 11.1841 20.4385 11.375 20.5264 11.6973C20.6354 12.097 21.0477 12.3326 21.4473 12.2236C21.847 12.1146 22.0826 11.7023 21.9736 11.3027C21.8115 10.7083 21.495 10.1909 20.9809 9.83262C20.4756 9.48042 19.8531 9.33333 19.1667 9.33333Z" fill="currentColor"/>
</svg>

