<svg id='data-types/TypeInteger' viewBox="0 0 24 18" version="1.1" xmlns="http://www.w3.org/2000/svg" xmlns:xlink="http://www.w3.org/1999/xlink" xmlns:sketch="http://www.bohemiancoding.com/sketch/ns">
    <!-- Generator: Sketch 3.5.1 (25234) - http://www.bohemiancoding.com/sketch -->
    <desc>Created with Sketch.</desc>
    <defs></defs>
    <g id="Icons" stroke="none" stroke-width="1" fill="none" fill-rule="evenodd" sketch:type="MSPage">
        <g id="Icon/Type-Integer" sketch:type="MSArtboardGroup">
            <g sketch:type="MSLayerGroup">
                <g id="icon-box-24-copy-10" sketch:type="MSShapeGroup">
                    <rect id="icon-box-16" x="0" y="0" width="24" height="18"></rect>
                </g>
                <path d="M9,11 L9,8 L7,8 L7,7 L9,7 L9,5 L10,5 L10,7 L13,7 L13,5 L14,5 L14,7 L16,7 L16,8 L14,8 L14,11 L16,11 L16,12 L14,12 L14,14 L13,14 L13,12 L10,12 L10,14 L9,14 L9,12 L7,12 L7,11 L9,11 Z M10,11 L10,8 L13,8 L13,11 L10,11 Z" id="Rectangle-202-Copy-6" fill="#77818F" sketch:type="MSShapeGroup"></path>
            </g>
        </g>
    </g>
</svg>
